<?xml version="1.0" encoding="utf-8"?>
<!-- Generator: Adobe Illustrator 26.0.0, SVG Export Plug-In . SVG Version: 6.00 Build 0)  -->
<svg version="1.1" xmlns="http://www.w3.org/2000/svg" xmlns:xlink="http://www.w3.org/1999/xlink" x="0px" y="0px"
	 viewBox="0 0 500 243.3" style="enable-background:new 0 0 500 243.3;" xml:space="preserve">
<style type="text/css">
	.st0{fill:#FFFFFF;}
	.st1{fill:#A6A7AA;}
	.st2{fill:#FFD394;}
	.st3{fill:#D0A967;}
	.st4{fill:#231F20;}
	.st5{fill:#000B29;}
	.st6{fill:#F97853;}
	.st7{fill:#EA5143;}
	.st8{fill:#FFA681;}
	.st9{fill:#C7892B;}
	.st10{fill:#E3E3E3;}
	.st11{fill:#525252;}
	.st12{fill:#676767;}
	.st13{fill:#BBE2F2;}
	.st14{fill:#CCD3EB;}
</style>
<g id="BACKGROUND">
	<rect x="659" y="-38.5" class="st0" width="500" height="500"/>
</g>
<g id="OBJECTS">
	<g>
		<g>
			<path class="st1" d="M401,178.5c8.8-8.8,15.5-18.8,8.8-20.4c-6.7-1.6-17.9,15.8-19.8,31.7l-2,5.2c1.6-11.5-2.3-25.5-8.1-26.1
				c-5.7-0.6-2.3,8.5,2.3,16.3c3.5,5.9,4.4,10.6,4.6,13l-9.2,24.7c2.5-18.2-3.7-40.4-12.9-41.3c-9.1-0.9-3.6,13.5,3.6,25.9
				c5.5,9.3,6.9,16.7,7.3,20.6l-1.8,4.9c0.8,0.5,1.6,0.9,2.4,1.3l11-29.4c2.1-1.6,5.3-3.5,9.9-5c8.5-2.9,17.1-7.5,12.4-10.8
				c-4.1-2.9-13.7,2.7-20.3,10.5l3.8-10.2C394.8,186.5,397.2,182.3,401,178.5z"/>
			<path class="st1" d="M124,63.3c1.1-10.7,0.3-21-5.1-18.4c-5.3,2.5-3.5,20.3,3.8,31.9l1.5,4.6c-5.1-8.6-15.3-15.9-19.5-13.2
				c-4.2,2.7,3.1,6.9,10.3,9.7c5.5,2.1,8.7,4.8,10.1,6.3l7.1,21.6c-8.1-13.6-24.3-25.1-30.9-20.8c-6.6,4.3,4.9,11,16.4,15.4
				c8.7,3.3,13.7,7.5,16,9.9l1.4,4.3c0.8-0.1,1.6-0.3,2.3-0.4l-8.5-25.6c0.6-2.2,1.7-5.2,3.9-8.7c4.2-6.5,7.5-14.3,2.5-14
				c-4.3,0.3-7.8,9.2-8,18l-2.9-8.9C124.1,72,123.5,67.9,124,63.3z"/>
			<g>
				<g>
					<path class="st2" d="M341.7,207.9c0.1,0.6,0.2,1.3,0.4,2l0,0c1.6,7.4,5.5,19.4,14.2,21.8c0,0-4.8-24.8,12.2-31.3
						c17-6.5,15.1-12.6,14.1-23.6c-1-10.9-4.7-13,7-23.3c11.8-10.3,9.5-25.5,9.5-25.5s-11.1,17.4-23,17.8
						c-11.9,0.4-14,10.6-13.5,18.1c0.5,7.5-9.6,8.4-15.1,12.8c-5.5,4.4-6.5,27.4-6.5,27.4S341.3,205.6,341.7,207.9z"/>
				</g>
				<g>
					<path class="st3" d="M341.7,207.9c0.1,0.6,0.2,1.3,0.4,2c1.2-3.7,2.9-6.8,4.5-9.2c3.8-5.6,9.2-10.3,14-12.1
						c7.7-2.9,11.4-10.4,12.1-24.4c0.4-8.1,8.9-12.9,9-13c0.2-0.1,0.3-0.5,0.2-0.7c-0.1-0.2-0.5-0.3-0.7-0.2
						c-0.4,0.2-9.1,5.1-9.5,13.8c-0.7,13.5-4.2,20.8-11.5,23.5c-5.1,1.9-10.5,6.6-14.5,12.5C344.4,202.2,342.9,204.8,341.7,207.9z"
						/>
				</g>
			</g>
			<g>
				<g>
					<path class="st3" d="M154,231.5h11.9c-6.4-1.1-22.4-7.9-23.8-21.7c-1.8-17.4-8-17.2-18.4-19c-10.4-1.8-13.3,1.2-19.9-12.4
						c-6.6-13.5-21.4-15.2-21.4-15.2s13.5,14.7,10.9,25.9c-2.6,11.2,6.4,15.6,13.5,17.1c7.2,1.4,5.4,11,8.2,17.2
						c1.2,2.8,6.3,5.7,11.5,8.1H154z"/>
				</g>
				<g>
					<path class="st1" d="M128.2,214.3c0.5,5.2,3.5,11.4,8,16.6c0.2,0.2,0.3,0.4,0.5,0.6h1.4c-0.4-0.4-0.8-0.8-1.1-1.2
						c-4.3-4.9-7.3-11.1-7.8-16c-0.8-7.9-6.9-13.2-19.7-17.4c-7.5-2.4-9.8-11.5-9.8-11.6c-0.1-0.3-0.3-0.4-0.6-0.4
						c-0.3,0.1-0.4,0.3-0.4,0.6c0.1,0.4,2.5,9.7,10.5,12.3C121.6,201.8,127.5,206.9,128.2,214.3z"/>
				</g>
			</g>
			<g>
				<g>
					<path class="st2" d="M160.4,199.2c-0.3,0.8-0.5,1.8-0.9,2.7l0,0c-3.4,10.3-10.3,27.5-23.2,29.6c0,0,10.2-35.3-13-47.2
						c-23.2-11.8-19.6-20.3-16.5-35.8c3.1-15.5,8.7-17.9-6.5-34.3c-15.2-16.4-9.6-37.9-9.6-37.9s13.2,26.6,30.1,29
						s18.3,17.2,16.4,27.9c-1.9,10.7,12.4,13.5,19.5,20.5c7.1,7.1,5.1,40,5.1,40S161.4,195.9,160.4,199.2z"/>
				</g>
				<g>
					<path class="st3" d="M160.4,199.2c-0.3,0.8-0.5,1.8-0.9,2.7c-1.2-5.5-3.1-10.1-5.1-13.8c-4.6-8.6-11.5-16.1-18.1-19.4
						c-10.5-5.3-14.7-16.6-13.6-36.7c0.6-11.6-10.7-19.8-10.8-19.9c-0.3-0.2-0.4-0.7-0.2-1c0.2-0.3,0.7-0.4,1-0.2
						c0.5,0.3,12.2,8.7,11.5,21.2c-1.1,19.4,2.9,30.3,12.8,35.3c7,3.5,14,11,18.7,20C157.5,190.6,159.2,194.6,160.4,199.2z"/>
				</g>
			</g>
		</g>
		<g>
			<g>
				<path class="st4" d="M169.6,223.2c0,2.7,0.1,5.5,0.1,8.3h25.9c0-3.1,0.1-6.1,0.1-8.8c0.1-7.5,0.1-13.8,0.1-17.6
					c0-2.7,0-4.3,0-4.3l-26.4-0.3c0,0,0,2.3,0,6C169.5,210.6,169.5,216.5,169.6,223.2z"/>
				<path class="st5" d="M169.5,206.5c0,4.1,0.1,10.1,0.2,16.7c8.1,0.6,17.1,0.6,26.2-0.5c0.1-7.5,0.1-13.8,0.1-17.6L169.5,206.5z"
					/>
			</g>
			<g>
				<path class="st4" d="M137,217.2c0,4.2,0.1,9.1,0.2,14.3h25.9c0.1-3,0.1-6.1,0.2-8.9c0.1-6.2,0.1-11.7,0.2-15.7
					c0-3.9,0-6.4,0-6.4l-26.4,0.3c0,0,0,2.8,0,7.5C136.9,210.7,136.9,213.8,137,217.2z"/>
				<path class="st5" d="M136.9,208.2c0,2.5,0,5.5,0,9c5.3,1.6,14.7,4,26.2,5.3c0.1-6.2,0.1-11.7,0.2-15.7L136.9,208.2z"/>
			</g>
			<g>
				<path class="st4" d="M180.4,61.4c0,0,4.2-4,4.2-8c0-4-2.7-2.8-4.2-6.5s-5.7-5.9-8.1-5.5c-2.4,0.5-7.3-8.7-14.1-7.1
					c-6.7,1.6-6.2,10.3-9.1,11.5c-2.9,1.3-2.1,6.4-0.6,7.6c1.5,1.2,2.2,5.9,3,5.8C152.5,59.1,180.4,61.4,180.4,61.4z"/>
				<g>
					<path class="st6" d="M152.4,61.3c0,0-2.6-3.5-4.6-0.6c-1.9,2.9,0.8,11.4,5.6,9.3L152.4,61.3z"/>
					<g>
						<path class="st7" d="M152.3,67.4c-0.2,0-0.3-0.1-0.4-0.3c-0.7-2.6-3.5-3.7-3.5-3.7c-0.2-0.1-0.3-0.3-0.2-0.5
							c0.1-0.2,0.3-0.3,0.5-0.2c0.1,0,3.1,1.2,4,4.2c0.1,0.2-0.1,0.4-0.3,0.5C152.4,67.4,152.4,67.4,152.3,67.4z"/>
					</g>
					<g>
						<path class="st7" d="M149.6,66.1c-0.1,0-0.2,0-0.2-0.1c-0.2-0.1-0.2-0.4-0.1-0.6c0,0,0.5-0.8,1.5-1.2c0.2-0.1,0.4,0,0.5,0.2
							c0.1,0.2,0,0.4-0.2,0.5c-0.8,0.3-1.2,0.9-1.2,0.9C149.8,66,149.7,66.1,149.6,66.1z"/>
					</g>
				</g>
				<g>
					<path class="st6" d="M179.3,61.3c0,0,2.6-3.5,4.6-0.6c1.9,2.9-0.8,11.4-5.6,9.3L179.3,61.3z"/>
					<g>
						<path class="st7" d="M179.4,67.4c0.2,0,0.3-0.1,0.4-0.3c0.7-2.6,3.5-3.7,3.5-3.7c0.2-0.1,0.3-0.3,0.2-0.5
							c-0.1-0.2-0.3-0.3-0.5-0.2c-0.1,0-3.1,1.2-4,4.2c-0.1,0.2,0.1,0.4,0.3,0.5C179.3,67.4,179.3,67.4,179.4,67.4z"/>
					</g>
					<g>
						<g>
							<path class="st7" d="M182.1,66.1c0.1,0,0.2,0,0.2-0.1c0.2-0.1,0.2-0.4,0.1-0.6c0,0-0.5-0.8-1.5-1.2c-0.2-0.1-0.4,0-0.5,0.2
								c-0.1,0.2,0,0.4,0.2,0.5c0.8,0.3,1.2,0.9,1.2,0.9C181.9,66,182,66.1,182.1,66.1z"/>
						</g>
					</g>
				</g>
				<path class="st8" d="M172.3,77.3v8.5c0,0-2.5,4.3-5.9,4.6c-3.4,0.3-6.5-3.7-6.5-3.7v-8.8L172.3,77.3z"/>
				<path class="st6" d="M172.3,77.3V81c-2.3,2.5-6.4,3.2-12.4,2.3v-5.5L172.3,77.3z"/>
				<path class="st8" d="M181.2,55.5c-0.2,3.3-0.5,7.4-1.1,10.7c-0.2,0.8-0.3,1.6-0.5,2.3c-1.8,6.2-6.2,17-18.7,12.5
					c-5.5-2-8.1-8.1-9.2-14.4c-0.8-4.2-0.9-8.5-0.8-11.6c0.1-3.1,1.8-6,4.5-7.5c7.4-4.2,15.2-2.6,20.3-0.7
					C179.1,48.2,181.4,51.7,181.2,55.5z"/>
				<path class="st4" d="M151.6,66.6c0,0,1.2,7.2,2.4,9.9c1.1,2.6,4.3,3.1,5.5,5.4c1.7,3.2,4.2,5.7,8.4,4.2c3.5-1.3,3.3-3.1,5.3-4.4
					c3.4-2.4,5-5,5.2-7.1c0.1-2.2,1.8-8.2,1.8-8.2l-1.8-0.1c0,0-1,2.1-2.5,4.5c-1.5-3.3-8.8-0.9-8.8-0.9l-1.4,0.5l-1.4-0.5
					c0,0-7.4-2.3-8.8,1.2c-0.9-1.4-1.6-2.9-1.9-4.5L151.6,66.6z M165.6,71.2c8.4-1.4,6.9,3.5,6.8,3.6v0c0,0,0,0,0,0
					c-0.6,0.5-1.1,1-1.7,1.3c-3.2,1.8-3.6,1.5-4.9,1.5c-1.3,0.1-3.1-0.3-4.9-1.3c-0.6-0.3-1.4-0.9-2.3-1.8
					C158.5,74.6,157.2,70.1,165.6,71.2z"/>
				<path class="st4" d="M160.6,62.4c0,0.9-0.5,1.6-1,1.6c-0.6,0-1-0.7-1-1.6c0-0.9,0.5-1.6,1-1.6C160.1,60.8,160.6,61.5,160.6,62.4
					z"/>
				<path class="st4" d="M172.9,62.4c0,0.9-0.5,1.6-1,1.6c-0.6,0-1-0.7-1-1.6c0-0.9,0.5-1.6,1-1.6C172.5,60.8,172.9,61.5,172.9,62.4
					z"/>
				<path class="st4" d="M176,57c0,0-4.3-1.7-7.6-0.3l0.3,1.8c0,0,4.9-0.4,7.3,0.6C176.2,58.5,176.3,57.8,176,57z"/>
				<path class="st4" d="M155.5,57c0,0,4.3-1.7,7.7-0.3l-0.3,1.9c0,0-4.9-0.4-7.4,0.6C155.3,58.5,155.2,57.8,155.5,57z"/>
				<g>
					<path class="st6" d="M166,69.3c0.7,0,1.4-0.3,1.5-0.3c0.2-0.1,0.3-0.3,0.2-0.5c-0.1-0.2-0.3-0.3-0.5-0.2
						c-0.4,0.1-1.2,0.4-1.6,0.2c-0.1,0-0.2-0.1-0.2-0.4c-0.1-1.4,0.2-6.1,0.2-6.2c0-0.2-0.1-0.4-0.4-0.4c-0.2,0-0.4,0.1-0.4,0.4
						c0,0.2-0.4,4.8-0.2,6.3c0.1,0.6,0.4,0.8,0.6,1C165.4,69.2,165.7,69.3,166,69.3z"/>
				</g>
				<path class="st0" d="M160.8,72c0.3,1.5,1.3,4.4,4.7,4.4c3.4,0,4.4-2.6,4.7-4.4H160.8z"/>
				<path class="st4" d="M181.2,55.5c-0.2,3.3-0.5,7.4-1.1,10.7l-1.8-0.1c0,0,0.4-2.8,0.6-4.6c0.2-1.8,0.5-5.2-1-5.6
					c-1.5-0.4-0.6-4.3-2.8-6c-2.1-1.7-6.9-3.2-10.1-1.2c-3.2,1.9-6.8,0.9-8.2,1.2c-1.5,0.3-3.4,2.3-2.9,4.2c0.5,1.9-1.1,3-1.5,5
					c-0.4,1.9,0.9,7.2,0.9,7.2l-1.7,0.3c-0.8-4.2-0.9-8.5-0.8-11.6c0.1-3.1,1.8-6,4.5-7.5c7.4-4.2,15.2-2.6,20.3-0.7
					C179.1,48.2,181.4,51.7,181.2,55.5z"/>
			</g>
			<g>
				<g>
					<path class="st3" d="M201.3,213.5c-8.2,2.1-16.3,3.4-24.5,4c-0.4,0-0.7,0.1-1.1,0.1c-1.1,0.1-2.2,0.1-3.4,0.2
						c-5.5,0.2-11.1,0.1-16.6-0.3c-1.1-0.1-2.2-0.2-3.4-0.3c-0.4,0-0.7-0.1-1.1-0.1c-6.6-0.7-13.2-1.9-19.9-3.6
						c-0.1-6.1,0-25.4,0.4-46.4c0-2.5,0.1-5.1,0.1-7.6c0.6-27.6,1.7-55.6,3.8-58.4c2-2.7,7.8-6.1,13.5-9.2c0.3-0.2,0.7-0.4,1-0.5
						c1.3-0.7,2.5-1.4,3.7-2c2.5-1.4,4.6-2.6,6-3.5v0.8c0,0,3,4,6.4,3.7c3.1-0.3,5.5-3.9,5.9-4.5c1.5,1,4.1,2.5,7.2,4.1
						c0.9,0.5,1.7,0.9,2.6,1.4c0.3,0.2,0.7,0.4,1,0.5c6.2,3.3,12.9,7,15,9.8c0.2,0.2,0.3,0.5,0.4,1c1.2,4,1.9,17.4,2.4,33.7
						c0,0.1,0,0.1,0,0.2c0,0.7,0,1.3,0.1,2c0,0.1,0,0.2,0,0.3c0.1,5.7,0.3,11.7,0.3,17.7c0,0.5,0,1,0,1.4c0,0.2,0,0.5,0,0.7
						c0,1.2,0,2.4,0,3.6c0,0.9,0,1.7,0,2.6C201.5,186.5,201.4,207.1,201.3,213.5z"/>
				</g>
				<g>
					<path class="st9" d="M200.9,138.5c-2-3.2-4.1-6.5-6.1-9.4c0,0,0,0,0,0c-0.8-1.2-1.6-2.4-2.4-3.4c0,0,0,0,0-0.1
						c-0.2-0.3-0.5-0.6-0.7-1c0-0.1-0.1-0.1-0.1-0.2l0,0c-0.1-0.2,0-0.4,0.2-0.6c0.2-0.2,0.6-0.1,0.8,0.1c2.4,3.2,5.4,7.7,8.3,12.3
						c0,0.1,0,0.1,0,0.2C200.8,137.2,200.8,137.8,200.9,138.5z"/>
				</g>
				<path class="st3" d="M198.1,101.2c0,0,12.3,22.5,19.8,33.9c0,0,4.3-3.9,9.8-9.2c6-5.7,14.2-15.2,14.2-15.2l4.5,5.4
					c0,0-18.5,33.2-26.7,37.4c-8.3,4.2-23.5-25.4-23.5-25.4L198.1,101.2z"/>
				<g>
					<path class="st9" d="M146,189.9C146,189.9,146,189.9,146,189.9c-0.3,0-0.6-0.3-0.6-0.6c0.6-18.2-8.8-24.1-8.9-24.1
						c-0.3-0.2-0.3-0.5-0.2-0.8c0.2-0.3,0.5-0.3,0.8-0.2c0.1,0.1,2.6,1.6,5,5.5c2.2,3.5,4.8,9.8,4.4,19.7
						C146.6,189.7,146.3,189.9,146,189.9z"/>
				</g>
				<g>
					<path class="st9" d="M186.3,172.8c-0.3,0-0.5-0.2-0.6-0.5c-0.3-3.8,1-6.6,2.6-10.2c0.5-1,1-2.1,1.4-3.3
						c3.1-7.5,1.5-16.1,1.5-16.2c-0.1-0.3,0.1-0.6,0.4-0.6c0.3-0.1,0.6,0.1,0.6,0.4c0.1,0.4,1.6,9-1.6,16.8c-0.5,1.2-1,2.3-1.5,3.3
						c-1.6,3.5-2.7,6.1-2.5,9.6C186.8,172.5,186.6,172.8,186.3,172.8C186.3,172.8,186.3,172.8,186.3,172.8z"/>
				</g>
				<g>
					<path class="st0" d="M153.9,89.4c0.2,1.8,0.6,4.1,1,6.8c0.1,0.8,0.2,1.6,0.4,2.4c0.4,2.7,0.8,5.7,1.1,8.7
						c0.1,0.8,0.2,1.6,0.3,2.4c0.3,3,0.5,5.9,0.6,8.7c0,0.8,0,1.6,0,2.4c0,2.1-0.1,4-0.4,5.7c-0.2,1-0.3,2.1-0.4,3
						c-0.1,0.8-0.2,1.6-0.3,2.4c-0.3,3.1-0.5,6-0.5,8.7c0,0.8,0,1.6,0,2.4c0,3.1,0.2,6,0.5,8.7c0.1,0.8,0.2,1.6,0.2,2.4
						c0.3,3,0.7,5.8,1.1,8.6c0.1,0.8,0.2,1.6,0.3,2.4c0.2,1.3,0.3,2.6,0.5,3.9c0.1,1.4,0.2,3,0.3,4.8c0,0.8,0,1.6,0,2.4
						c0,2.7-0.1,5.6-0.2,8.7c0,0.8-0.1,1.6-0.1,2.4c-0.1,2.9-0.3,5.8-0.5,8.7c-0.1,0.8-0.1,1.6-0.2,2.4c-0.2,3-0.5,6-0.7,8.7
						c-0.1,0.8-0.2,1.6-0.2,2.4c-0.3,3-0.6,5.7-0.8,7.8c5.5,0.4,11.1,0.5,16.6,0.3c0.1-2.3,0.5-5.9,0.8-10.3
						c0.1-0.8,0.1-1.6,0.2-2.4c0.2-2.7,0.4-5.7,0.5-8.7c0-0.8,0.1-1.6,0.1-2.4c0.1-3,0.1-5.9,0-8.7c0-0.8-0.1-1.7-0.2-2.5
						c-0.1-0.8-0.1-1.6-0.2-2.4c-0.3-2.2-0.4-4.2-0.4-6.3c0-0.8,0-1.6,0.1-2.4c0.1-2.8,0.4-5.6,0.8-8.6c0.1-0.8,0.2-1.6,0.3-2.4
						c0.3-2.7,0.7-5.5,0.9-8.6c0.1-0.8,0.1-1.6,0.2-2.4c0.2-2.7,0.3-5.5,0.3-8.6c0-0.8,0-1.6,0-2.5c0-2.7-0.1-5.6-0.4-8.7
						c0-0.3,0-0.6-0.1-0.8c0-0.5-0.1-1.1-0.1-1.6c-0.1-2.8-0.1-5.7,0.1-8.6c0-0.8,0.1-1.6,0.2-2.4c0.2-2.9,0.6-5.8,0.9-8.5
						c0.1-0.8,0.2-1.6,0.3-2.4c0.5-3,0.9-5.9,1.4-8.4c0.1-0.8,0.3-1.6,0.4-2.4c0.3-1.7,0.6-3.2,0.8-4.5c-3.1-1.6-5.7-3-7.2-4.1
						c-0.4,0.6-2.8,4.2-5.9,4.5c-3.4,0.3-6.4-3.7-6.4-3.7v-0.8C158.6,86.8,156.4,88,153.9,89.4z"/>
					<g>
						<g>
							<path class="st10" d="M154.9,96.1c0.1,0.8,0.2,1.6,0.4,2.4c3.1,0.1,6.7-0.4,11-1.4c4.6-1.1,8.7-0.9,12-0.3
								c0.1-0.8,0.3-1.6,0.4-2.4c-3.5-0.6-7.9-0.8-12.9,0.3C161.4,95.8,157.8,96.2,154.9,96.1z"/>
						</g>
						<g>
							<path class="st10" d="M156.4,107.2c0.1,0.8,0.2,1.6,0.3,2.4c2.8-0.1,5.9-0.5,9.6-1.4c3.8-0.9,7.3-0.9,10.2-0.5
								c0.1-0.8,0.2-1.6,0.3-2.4c-3.2-0.4-6.9-0.4-11.1,0.6C162.1,106.7,159,107.2,156.4,107.2z"/>
						</g>
						<g>
							<path class="st10" d="M157.2,118.3c0,0.8,0,1.6,0,2.4c2.6-0.1,5.6-0.6,9-1.4c3.4-0.8,6.5-0.9,9.1-0.7c0-0.8,0.1-1.6,0.2-2.4
								c-2.9-0.2-6.2-0.1-9.9,0.7C162.5,117.8,159.7,118.2,157.2,118.3z"/>
						</g>
						<g>
							<path class="st10" d="M156.2,131.9c2.9,0,6.2-0.5,10.1-1.4c3.4-0.8,6.5-0.9,9.3-0.6c0-0.3,0-0.6-0.1-0.8
								c0-0.5-0.1-1.1-0.1-1.6c-2.8-0.2-6.1-0.1-9.6,0.8c-3.6,0.8-6.6,1.3-9.2,1.3C156.3,130.3,156.2,131.1,156.2,131.9z"/>
						</g>
						<g>
							<path class="st10" d="M155.6,143c3,0,6.5-0.4,10.6-1.4c3.6-0.8,6.8-0.9,9.6-0.6c0-0.8,0-1.6,0-2.5c-3-0.3-6.4-0.2-10.2,0.7
								c-3.9,0.9-7.2,1.4-10.1,1.3C155.6,141.4,155.6,142.2,155.6,143z"/>
						</g>
						<g>
							<path class="st10" d="M156.1,151.7c0.1,0.8,0.2,1.6,0.2,2.4c2.8,0,6.1-0.5,9.9-1.4c3.4-0.8,6.4-0.9,9.1-0.7
								c0.1-0.8,0.1-1.6,0.2-2.4c-2.9-0.2-6.2-0.1-9.8,0.7C162,151.2,158.8,151.6,156.1,151.7z"/>
						</g>
						<g>
							<path class="st10" d="M157.4,162.7c0.1,0.8,0.2,1.6,0.3,2.4c2.5-0.2,5.3-0.6,8.5-1.3c2.9-0.7,5.5-0.8,7.9-0.7
								c0.1-0.8,0.2-1.6,0.3-2.4c-2.6-0.1-5.5,0.1-8.7,0.8C162.6,162.2,159.8,162.6,157.4,162.7z"/>
						</g>
						<g>
							<path class="st10" d="M158.5,173.8c0,0.8,0,1.6,0,2.4c2.3-0.2,4.8-0.6,7.7-1.3c2.5-0.6,4.9-0.8,7-0.8c0-0.8,0-1.6,0.1-2.4
								c-2.3,0-4.9,0.2-7.6,0.8C163,173.2,160.6,173.6,158.5,173.8z"/>
						</g>
						<g>
							<path class="st10" d="M158.2,187.3c2.4-0.2,5-0.6,8-1.3c2.8-0.6,5.4-0.8,7.8-0.7c0-0.8-0.1-1.7-0.2-2.5
								c-2.5-0.1-5.2,0.1-8.2,0.8c-2.7,0.6-5.2,1-7.3,1.2C158.3,185.7,158.3,186.5,158.2,187.3z"/>
						</g>
						<g>
							<path class="st10" d="M157.5,198.5c2.5-0.1,5.4-0.6,8.7-1.4c2.8-0.6,5.4-0.8,7.7-0.8c0-0.8,0.1-1.6,0.1-2.4
								c-2.5-0.1-5.3,0.1-8.4,0.8c-3,0.7-5.6,1.1-8,1.3C157.7,196.9,157.6,197.7,157.5,198.5z"/>
						</g>
						<g>
							<path class="st10" d="M156.6,209.6c2.8-0.1,5.9-0.5,9.6-1.4c2.5-0.6,4.9-0.8,7-0.8c0.1-0.8,0.1-1.6,0.2-2.4
								c-2.4,0-5,0.2-7.8,0.8c-3.4,0.8-6.3,1.2-8.9,1.3C156.7,208,156.7,208.8,156.6,209.6z"/>
						</g>
					</g>
				</g>
				<g>
					<g>
						<path class="st9" d="M175.8,217.6c0.4,0,0.7-0.1,1.1-0.1c2.2-12.9,0.9-31.7,0.5-37.5c-0.5-6,0.4-13.7,2.6-21.2
							c1.6-5.8,0.6-19.2-0.2-30c-0.2-3-0.4-5.9-0.6-8.2c-0.4-7.6,2.3-21.6,3.9-28.7c-0.3-0.2-0.7-0.4-1-0.5
							c-1.5,7-4.4,21.3-3.9,29.3c0.1,2.4,0.3,5.2,0.6,8.3c0.8,10.7,1.8,24,0.2,29.6c-2.1,7.6-3.1,15.4-2.6,21.6
							C176.7,185.8,178,204.8,175.8,217.6z"/>
					</g>
					<g>
						<path class="st9" d="M153.4,165.2c1.3,7.9,0.9,13,0.4,19c-0.2,1.9-0.3,3.9-0.4,6.1c-0.3,6.9-1.5,20.7-2,26.7
							c0.4,0,0.7,0.1,1.1,0.1c0.5-6,1.7-19.9,2-26.8c0.1-2.2,0.3-4.2,0.4-6.1c0.5-6,0.9-11.2-0.4-19.2c-0.3-1.7-0.6-3.5-0.9-5.2
							c-1.5-8.6-3-17.5-2.2-21.8c0.2-1,0.4-2.2,0.6-3.5c1-5.2,2.2-11.6,1.8-17.1c-0.4-5.5-2.6-20.4-3.5-26.1c-0.3,0.2-0.7,0.4-1,0.5
							c0.9,5.9,3.1,20.2,3.4,25.6c0.4,5.4-0.8,11.8-1.8,16.9c-0.2,1.3-0.5,2.4-0.6,3.5c-0.7,4.4,0.7,13,2.3,22.2
							C152.8,161.8,153.1,163.5,153.4,165.2z"/>
					</g>
				</g>
			</g>
			<g>
				<path class="st8" d="M132.1,110.3c0,0-11,36.7-13.7,49.8s-2.9,40.3-2.9,40.3s-4.8,10-4.9,14.4c-0.1,4.7,2.4,8.5,2.1,11.6
					c-0.3,3.1,3.5,1.4,2.4-4.9c-1.1-6.3,2-12,3.3-11.8c1.3,0.2-1.1,6.9,0.1,9.3c1.2,2.4,2.7-2.3,4.2-5.1c1.5-2.9,1.5-9.4,0.8-13.9
					c-0.7-4.6,7.6-32.4,7.6-40.5l10.5-35.6C141.5,123.8,138,109,132.1,110.3z"/>
				<path class="st3" d="M142.8,122.9c-0.4,2.4-1.7,6.4-3.4,11.5v0c-0.1,0.4-0.3,0.9-0.4,1.3c0,0,0,0,0,0.1c-0.4,1.3-0.9,2.6-1.3,4
					c0,0,0,0,0,0c-1.9,5.7-3.9,12.1-5.7,18.8c-0.6,2.3-1.2,4.6-1.6,6.9c-0.6,2.9-1.2,5.9-1.6,8.7c-1.4,10.3-4.1,23.4-4.1,23.4
					c-3.9,1.6-10.1-0.5-10.1-0.5s-0.2-18.8,0.7-26.1c1.1-9,2.5-15.5,4.2-22.8c4.7-20.3,13-40.2,15.3-45.4c0.2-0.4,0.3-0.7,0.4-1h2
					C141.1,104.1,143.8,116.6,142.8,122.9z"/>
				<path class="st2" d="M114.3,193.3l0.3,4.3c0,0,5.9,1.9,10.3,0.6l1.2-3.9C121.8,194.5,117.9,194.4,114.3,193.3z"/>
				<g>
					<path class="st9" d="M139.4,134.4L139.4,134.4c0,0.1,0,0.1,0,0.2c-0.1,0.4-0.3,0.7-0.4,1.1c0,0,0,0,0,0.1
						c-0.4,1.2-0.9,2.6-1.3,4c0,0,0,0,0,0c-2.3,7.3-4.6,16.5-5.7,22.4c0-1.2,0-2.4,0-3.6c-0.6,2.3-1.2,4.6-1.6,6.9
						c0.2-2.2,0.8-5.4,1.7-9c1.7-7.4,4.3-16.6,6.4-22.2c0.1-0.3,0.4-0.4,0.7-0.3C139.3,134,139.4,134.2,139.4,134.4z"/>
				</g>
			</g>
		</g>
		<g>
			<g>
				<g>
					<g>
						<path class="st4" d="M336.3,231.5h26c-0.1-1.8-0.2-3.5-0.3-5.2c-0.5-8.9-0.8-15-0.8-15l-21.1,0.9l-1.8,0.1l-3.1,0.1
							c0,0,0.3,5.4,0.8,13.4C336,227.6,336.1,229.5,336.3,231.5z"/>
					</g>
				</g>
				<path class="st5" d="M338.3,212.4l-3.1,0.1c0,0,0.3,5.4,0.8,13.4c8.1,0.7,17,1,26.1,0.4c-0.5-8.9-0.8-15-0.8-15l-21.1,0.9
					L338.3,212.4z"/>
				<g>
					<path class="st5" d="M341.1,231.5c-0.5-8.2-0.9-15.3-1.1-19.2l-1.8,0.1c0.2,3.9,0.6,10.9,1.1,19.1H341.1z"/>
				</g>
			</g>
			<g>
				<g>
					<g>
						<path class="st4" d="M328.6,231.5c0.1-2.2,0.3-4.3,0.4-6.3c0.4-7.6,0.7-12.7,0.7-12.7l-3.4-0.2l-1.7-0.1l-20.9-0.9
							c0,0-0.2,3.6-0.5,9.4c-0.2,3.1-0.4,6.7-0.5,10.8H328.6z"/>
					</g>
				</g>
				<path class="st5" d="M303.2,220.7c5.7,1.3,14.8,3.2,25.8,4.5c0.4-7.6,0.7-12.7,0.7-12.7l-3.4-0.2l-1.7-0.1l-20.9-0.9
					C303.7,211.3,303.5,215,303.2,220.7z"/>
				<g>
					<path class="st5" d="M325.3,231.5c0.5-8.2,0.9-15.2,1.1-19.1l-1.7-0.1c-0.2,3.9-0.6,10.9-1.1,19.2H325.3z"/>
				</g>
			</g>
			<g>
				<g>
					<g>
						<path class="st3" d="M364.9,215.4c-5.3,1.5-10.6,2.6-15.9,3.3c-1.8,0.3-3.7,0.5-5.5,0.6c-2.5,0.2-5,0.4-7.4,0.5
							c-4.1,0.1-8.2,0-12.3-0.3c-7.9-0.6-15.9-2-23.8-4.1c-0.1-7.4,0-33.9,0.6-59.5c0-1.1,0.1-2.3,0.1-3.4c0-0.2,0-0.5,0-0.7
							c0-0.3,0-0.5,0-0.8c0-0.8,0-1.6,0.1-2.4c0-1.6,0.1-3.3,0.1-4.9c0-1,0.1-1.9,0.1-2.9c0-0.2,0-0.4,0-0.6c0-0.6,0-1.3,0.1-1.9
							c0,0,0,0,0,0c0-0.2,0-0.4,0-0.6c0-0.6,0-1.1,0.1-1.7c0-0.5,0-1,0.1-1.4c0.6-17.3,1.5-30.9,2.8-32.8c2.2-3.3,9.6-7.6,15.6-11.1
							c2.1-1.3,4.7-2.6,6.1-3.5c2.1,1.7,3.7,3.3,6.8,3.1c3.5-0.1,4.4-2.2,5.7-4.1c0.8,0.5,2.9,2.2,4,2.9c0.9,0.5,1.9,1.1,3,1.7
							c1.6,0.9,3.3,1.9,5,2.9c2.5,1.5,5,3,7.1,4.5c2.1,1.5,3.7,2.9,4.5,4.1c1.2,1.8,1.9,13.1,2.4,28c0,0.5,0,1.1,0.1,1.6
							c0,0.1,0,0.1,0,0.2c0,0.5,0,1.1,0,1.7c0,1.7,0.1,3.4,0.1,5.1c0,0.4,0,0.7,0,1.1c0,0.3,0,0.6,0,0.8c0,0.7,0,1.4,0,2.2
							c0,0.1,0,0.3,0,0.4c0,1.9,0.1,3.9,0.1,5.8c0,0.6,0,1.1,0,1.7C365.1,178,365,207.4,364.9,215.4z"/>
					</g>
				</g>
				<path class="st9" d="M364.7,151.1l-8.4,8.5l-7.8-7.9l-7.8,7.9l-7.8-8l-7.8,8l-7.9-8l-7.9,8l-8.5-8.6c0-0.8,0-1.6,0.1-2.4
					c0-1.6,0.1-3.3,0.1-4.9l8.3-8.5l7.9,8l7.9-8l7.8,8l7.8-8l7.8,7.9l7.8-7.9l8.2,8.4c0,1.9,0.1,3.9,0.1,5.8
					C364.7,149.9,364.7,150.5,364.7,151.1z"/>
				<g>
					<path class="st9" d="M350.2,194.9C350.2,194.9,350.2,194.9,350.2,194.9c-11.2,0-20.8-5.2-26.9-9.4c-6.6-4.6-10.5-9.3-10.6-9.4
						c-0.2-0.2-0.2-0.6,0.1-0.8c0.2-0.2,0.6-0.2,0.8,0.1c0,0,3.9,4.6,10.4,9.2c5.9,4.2,15.3,9.2,26.2,9.2c0.3,0,0.5,0.2,0.5,0.5
						C350.8,194.7,350.5,194.9,350.2,194.9z"/>
				</g>
				<g>
					<path class="st9" d="M343.2,188.3c-9.6-1.9-18-9.2-18.4-9.5c-0.2-0.2-0.2-0.5-0.1-0.8c0.2-0.2,0.5-0.2,0.8-0.1
						c0.1,0.1,10.1,8.7,20.2,9.6c0.3,0,0.5,0.3,0.5,0.6c0,0.3-0.3,0.5-0.6,0.5C344.8,188.5,344,188.4,343.2,188.3z"/>
				</g>
				<g>
					<path class="st9" d="M324.1,105.2c-0.3,0-0.5-0.2-0.5-0.4c-0.1-0.3,0.1-0.6,0.4-0.6c13.7-2.6,17.8-11.4,17.9-11.5
						c0.1-0.3,0.4-0.4,0.7-0.3c0.3,0.1,0.4,0.4,0.3,0.7c-0.2,0.4-4.4,9.4-18.6,12.1C324.1,105.2,324.1,105.2,324.1,105.2z"/>
				</g>
				<g>
					<path class="st9" d="M307.4,128.9L307.4,128.9c0,0.1,0,0.1-0.1,0.2c-0.2,0.3-0.4,0.7-0.6,1c0,0,0,0,0,0.1
						c-0.7,1.1-1.4,2.3-2.1,3.6c0,0,0,0,0,0c-1.1,2-2.3,4.2-3.5,6.4c0-0.6,0-1.3,0.1-1.9c0,0,0,0,0,0c0-0.2,0-0.4,0-0.6
						c1.9-3.5,3.7-6.7,5.3-9.2c0.2-0.3,0.5-0.3,0.7-0.2C307.3,128.5,307.4,128.7,307.4,128.9z"/>
				</g>
			</g>
			<g>
				<path class="st8" d="M376.3,108.9c0,0,17.5-5.6,22.7-17.1c1.5-3.3-10.8-37.1-10.8-37.1l-6,0.3c0,0,1.7,11.7,2.7,18.4
					c0.8,5.5,2.2,12,2.7,14.1c0.1,0.5,0.2,0.7,0.2,0.7c-0.3,0.1-0.6,0.1-0.9,0.2c-8.2,1.7-18.6,7-18.6,7L376.3,108.9z"/>
				<g>
					<g>
						<path class="st6" d="M392.2,91.4c0.2,0.2,0.6,0.1,0.8-0.1c0.2-0.3,0.1-0.6-0.1-0.8c-1.3-0.9-3.2-2-5.2-3.1
							c0.1,0.5,0.2,0.7,0.2,0.7c-0.3,0.1-0.6,0.1-0.9,0.2C388.9,89.4,390.9,90.5,392.2,91.4z"/>
					</g>
				</g>
				<path class="st3" d="M349.6,93.4c0,0-5.3,12.4,8.2,19.3c9.3,4.8,30.6-7.7,30.6-7.7L380.7,89C380.7,89,361.3,97,349.6,93.4z"/>
				<path class="st8" d="M385.1,35.7c-0.5,0.4-0.4,2.7-0.2,4.8c-0.1,0-0.2,0-0.2,0c-0.6-2.9-1.9-7.7-2.9-6.8
					c-0.7,0.6,0.2,4.8,0.9,7.3c-0.1,0-0.3,0.1-0.4,0.1c-0.8-3-2.5-8.7-3.7-7.6c-0.8,0.7,0.7,5.8,1.5,8.4c-0.1,0-0.2,0.1-0.3,0.1
					c-0.8-2.5-2.5-7.2-3.6-6.1c-1,1,1.9,8.2,1.9,8.2l0,0l0.8,2.8c0,0-0.9,0.4-2.4-1.2c-1.4-1.6-3.2-1.9-2,0.4
					c1.4,2.7,3.4,4.6,4.3,6.5c0.9,1.9,3.7,2.5,3.7,2.5l5.6-0.3c0,0,1.1-9.5-1-14l0,0C386.7,38.2,386,35,385.1,35.7z"/>
			</g>
			<g>
				<path class="st4" d="M315.9,57.5c0,9.5,5.9,16.1,15.4,16.1c9.5,0,16.2-7.1,16.2-16.6c0-2.6-0.4-5.1-1.3-7.3
					c0-0.1-0.1-0.3-0.1-0.4c-0.1-0.2-0.2-0.5-0.3-0.7c-0.2-0.4-0.4-0.7-0.5-1.1c-2.5-4.5-6.9-7.3-12.9-7.3
					C320.9,40.3,315.9,48,315.9,57.5z"/>
				<g>
					<path class="st6" d="M318.1,61.6c0,0-2.6-3.5-4.6-0.6c-2,2.9,0.8,11.5,5.6,9.4L318.1,61.6z"/>
					<g>
						<path class="st7" d="M318,67.8c-0.2,0-0.3-0.1-0.4-0.3c-0.7-2.7-3.5-3.7-3.5-3.7c-0.2-0.1-0.3-0.3-0.2-0.5
							c0.1-0.2,0.3-0.3,0.5-0.2c0.1,0,3.2,1.2,4,4.3c0.1,0.2-0.1,0.4-0.3,0.5C318.1,67.7,318.1,67.8,318,67.8z"/>
					</g>
					<g>
						<path class="st7" d="M315.3,66.4c-0.1,0-0.2,0-0.2-0.1c-0.2-0.1-0.2-0.4-0.1-0.6c0,0,0.5-0.8,1.5-1.2c0.2-0.1,0.4,0,0.5,0.2
							c0.1,0.2,0,0.4-0.2,0.5c-0.8,0.4-1.2,0.9-1.2,0.9C315.5,66.3,315.4,66.4,315.3,66.4z"/>
					</g>
				</g>
				<g>
					<path class="st6" d="M345.3,61.6c0,0,2.6-3.5,4.6-0.6c2,2.9-0.8,11.5-5.6,9.4L345.3,61.6z"/>
					<g>
						<path class="st7" d="M345.4,67.8c0.2,0,0.3-0.1,0.4-0.3c0.7-2.7,3.5-3.7,3.5-3.7c0.2-0.1,0.3-0.3,0.2-0.5
							c-0.1-0.2-0.3-0.3-0.5-0.2c-0.1,0-3.2,1.2-4,4.3c-0.1,0.2,0.1,0.4,0.3,0.5C345.3,67.7,345.3,67.8,345.4,67.8z"/>
					</g>
					<g>
						<g>
							<g>
								<path class="st7" d="M348.2,66.4c0.1,0,0.2,0,0.2-0.1c0.2-0.1,0.2-0.4,0.1-0.6c0,0-0.5-0.8-1.5-1.2c-0.2-0.1-0.4,0-0.5,0.2
									c-0.1,0.2,0,0.4,0.2,0.5c0.8,0.4,1.2,0.9,1.2,0.9C347.9,66.3,348,66.4,348.2,66.4z"/>
							</g>
						</g>
					</g>
				</g>
				<path class="st8" d="M338.2,77.7v8.6c0,0-2.6,4.4-6,4.7c-3.5,0.3-6.5-3.8-6.5-3.8v-8.9L338.2,77.7z"/>
				<path class="st6" d="M338.2,77.7v3.8c-2.3,2.6-6.4,3.2-12.5,2.3v-5.5L338.2,77.7z"/>
				<path class="st8" d="M347.3,55.7c-0.2,3.3-0.5,7.5-1.1,10.8c-0.2,0.8-0.3,1.6-0.5,2.3c-1.8,6.3-6.3,17.1-18.9,12.6
					c-5.6-2-8.2-8.2-9.3-14.5c-0.8-4.3-0.9-8.6-0.8-11.7c0.1-3.2,1.8-6.1,4.5-7.6c7.5-4.2,15.3-2.7,20.5-0.7
					C345.1,48.3,347.4,51.9,347.3,55.7z"/>
				<path class="st4" d="M326.3,62.7c0,0.9-0.5,1.7-1.1,1.7c-0.6,0-1.1-0.7-1.1-1.7c0-0.9,0.5-1.7,1.1-1.7
					C325.8,61.1,326.3,61.8,326.3,62.7z"/>
				<path class="st4" d="M338.7,62.7c0,0.9-0.5,1.7-1.1,1.7c-0.6,0-1.1-0.7-1.1-1.7c0-0.9,0.5-1.7,1.1-1.7
					C338.2,61,338.7,61.8,338.7,62.7z"/>
				<path class="st4" d="M341.1,57c0,0-3.3-1.3-5.9-0.2l0.3,1.4c0,0,3.8-0.3,5.6,0.4C341.3,58.1,341.3,57.5,341.1,57z"/>
				<path class="st4" d="M321.7,57c0,0,3.3-1.3,5.9-0.2l-0.3,1.4c0,0-3.8-0.3-5.6,0.4C321.5,58.1,321.5,57.5,321.7,57z"/>
				<g>
					<path class="st6" d="M331.8,69.7c0.7,0,1.4-0.3,1.5-0.3c0.2-0.1,0.3-0.3,0.2-0.5c-0.1-0.2-0.3-0.3-0.5-0.2
						c-0.4,0.1-1.3,0.4-1.6,0.2c-0.1,0-0.2-0.1-0.2-0.4c-0.1-1.4,0.2-6.2,0.2-6.2c0-0.2-0.1-0.4-0.4-0.4c-0.2,0-0.4,0.1-0.4,0.4
						c0,0.2-0.4,4.9-0.2,6.4c0.1,0.6,0.4,0.9,0.6,1C331.2,69.6,331.5,69.7,331.8,69.7z"/>
				</g>
				<path class="st0" d="M326.4,71.7c0.7,2.3,2.6,4.7,5.3,4.7c2.6,0,4.6-2.4,5.2-4.7H326.4z"/>
				<g>
					<path class="st6" d="M331.4,79c1.1,0,1.9-0.5,2-0.6c0.2-0.1,0.3-0.4,0.1-0.6c-0.1-0.2-0.4-0.3-0.6-0.1c0,0-0.7,0.4-1.6,0.4
						c-0.8,0-1.5-0.4-1.5-0.4c-0.2-0.1-0.4-0.1-0.6,0.1c-0.1,0.2-0.1,0.4,0.1,0.6C329.5,78.5,330.4,79,331.4,79z"/>
				</g>
				<path class="st4" d="M346.8,61.7H345c0.2-1.9,0.5-5.1-1-5.6c-4.8-1.5,1.4-4.9-0.7-6.6c-2.2-1.7-7.6-1-11.3-1.1
					c-3.8-0.1-9.9-0.1-11.3,0.3c-1.5,0.3-0.7,2.8-0.1,4.7c0.5,1.9-1.8,4-2.2,6c-0.1,0.6-0.1,1.4,0,2.3h-1.5
					c-0.2-2.4-0.2-4.6-0.2-6.4c0.1-3.2,1.8-6.1,4.5-7.6c7.5-4.2,15.3-2.7,20.5-0.7c3.6,1.4,5.9,4.9,5.7,8.7
					C347.2,57.5,347,59.6,346.8,61.7z"/>
				<g>
					<g>
						<path class="st0" d="M325,67.5c-2.5,0-4.6-2.1-4.6-4.6c0-2.5,2.1-4.6,4.6-4.6c2.5,0,4.6,2.1,4.6,4.6
							C329.7,65.4,327.6,67.5,325,67.5z M325,59c-2.1,0-3.9,1.7-3.9,3.9c0,2.1,1.7,3.9,3.9,3.9c2.1,0,3.9-1.7,3.9-3.9
							C328.9,60.8,327.2,59,325,59z"/>
					</g>
					<g>
						<path class="st0" d="M337.6,67.5c-2.5,0-4.6-2.1-4.6-4.6c0-2.5,2.1-4.6,4.6-4.6c2.5,0,4.6,2.1,4.6,4.6
							C342.3,65.4,340.2,67.5,337.6,67.5z M337.6,59c-2.1,0-3.9,1.7-3.9,3.9c0,2.1,1.7,3.9,3.9,3.9s3.9-1.7,3.9-3.9
							C341.5,60.8,339.8,59,337.6,59z"/>
					</g>
					<g>
						<path class="st0" d="M321.2,61.4c-0.1,0-0.2,0-0.3-0.1l0,0c0,0-2.1-2.1-4.9-1.4c-0.2,0-0.4-0.1-0.4-0.3c0-0.2,0.1-0.4,0.3-0.4
							c3.1-0.7,5.4,1.5,5.5,1.6c0.1,0.1,0.1,0.4,0,0.5C321.4,61.4,321.3,61.4,321.2,61.4z"/>
					</g>
					<g>
						<path class="st0" d="M341.6,61.4c-0.1,0-0.2-0.1-0.3-0.2c-0.1-0.2-0.1-0.4,0.1-0.5c0.1-0.1,3.4-2.2,6.2-1.7
							c0.2,0,0.3,0.2,0.3,0.4c0,0.2-0.2,0.3-0.4,0.3c-2.5-0.4-5.6,1.6-5.7,1.6C341.7,61.4,341.6,61.4,341.6,61.4z"/>
					</g>
					<g>
						<path class="st0" d="M333.3,61.9c0,0-0.9-1.2-2-1.2c-1.1,0-1.9,1.2-1.9,1.2l-0.6-0.4c0-0.1,1-1.5,2.5-1.5
							c1.5,0,2.5,1.4,2.6,1.5L333.3,61.9z"/>
					</g>
				</g>
			</g>
			<g>
				<path class="st8" d="M305.9,128.2c0,0-4.9,9.4-10.6,16.8c-1.7,2.2-3.4,4.2-5.2,5.8c-2.8,2.5-5.6,3.9-7.8,2.7
					c-8.3-4.2-26.7-37.4-26.7-37.4l4.5-5.4c0,0,8.2,9.5,14.2,15.2c5.5,5.2,9.8,9.2,9.8,9.2c0.8-1.2,1.6-2.4,2.4-3.8
					c0.9-1.4,1.8-3,2.8-4.5c6.9-11.4,14.6-25,14.6-25L305.9,128.2z"/>
				<path class="st6" d="M295.3,145.1c-1.7,2.2-3.4,4.2-5.2,5.8l-3.5-19.5c0.9-1.4,1.8-3,2.8-4.5L295.3,145.1z"/>
				<path class="st3" d="M304,101.8l-16.6,26.1l5.6,23l13.7-22.4C306.7,128.5,308.3,113.2,304,101.8z"/>
			</g>
		</g>
		<g>
			<g>
				<path class="st3" d="M283.1,231.5c-1.2-6.6-2.4-14-3.4-21.2c-0.2-1.6-0.5-3.2-0.7-4.7c-0.9-6-1.6-11.6-2.2-16.3
					c-0.2-1.8-0.4-3.4-0.6-4.9c-0.6-4.7-0.9-7.6-0.9-7.6l-26.2,1l-26.3-1c0,0-0.7,5.7-1.8,14c-0.2,1.5-0.4,3.1-0.6,4.8
					c-0.6,4.4-1.3,9.2-2,14.1c0,0.1,0,0.1,0,0.2c-0.2,1.5-0.5,3.1-0.7,4.6c0,0,0,0,0,0.1v0c-0.6,3.7-1.2,7.5-1.8,11.1
					c-0.2,1.5-0.5,2.9-0.7,4.4c-0.1,0.4-0.2,0.9-0.2,1.3H283.1z"/>
				<g>
					<path class="st9" d="M228.8,184.7c0,1.4-1.1,2.5-2.5,2.5c-1.4,0-2.5-1.1-2.5-2.5c0-1.4,1.1-2.5,2.5-2.5
						C227.7,182.3,228.8,183.4,228.8,184.7z"/>
					<path class="st9" d="M234.9,194.3c0,1.4-1.1,2.5-2.5,2.5c-1.4,0-2.5-1.1-2.5-2.5c0-1.4,1.1-2.5,2.5-2.5
						C233.8,191.8,234.9,192.9,234.9,194.3z"/>
					<path class="st9" d="M246.9,189.4c0,1.4-1.1,2.5-2.5,2.5c-1.4,0-2.5-1.1-2.5-2.5s1.1-2.5,2.5-2.5
						C245.8,186.9,246.9,188,246.9,189.4z"/>
					<path class="st9" d="M227.9,204.5c0,1.4-1.1,2.5-2.5,2.5c-1.4,0-2.5-1.1-2.5-2.5s1.1-2.5,2.5-2.5
						C226.8,202,227.9,203.1,227.9,204.5z"/>
					<path class="st9" d="M243,203.4c0,1.4-1.1,2.5-2.5,2.5c-1.4,0-2.5-1.1-2.5-2.5s1.1-2.5,2.5-2.5C241.9,200.9,243,202,243,203.4z
						"/>
					<path class="st9" d="M222.6,193.2c0,1.3-1,2.3-2.2,2.5c0.2-1.7,0.4-3.3,0.6-4.8C221.9,191.3,222.6,192.2,222.6,193.2z"/>
					<path class="st9" d="M267.5,217.9c0,1.4-1.1,2.5-2.5,2.5c-1.4,0-2.5-1.1-2.5-2.5c0-1.4,1.1-2.5,2.5-2.5
						C266.4,215.5,267.5,216.6,267.5,217.9z"/>
					<path class="st9" d="M266.4,204.5c0,1.4-1.1,2.5-2.5,2.5s-2.5-1.1-2.5-2.5s1.1-2.5,2.5-2.5S266.4,203.1,266.4,204.5z"/>
					<path class="st9" d="M279.7,210.3c-0.3,0.1-0.6,0.2-1,0.2c-1.4,0-2.5-1.1-2.5-2.5c0-1.4,1.1-2.5,2.5-2.5c0.1,0,0.2,0,0.3,0
						C279.2,207.1,279.5,208.7,279.7,210.3z"/>
					<path class="st9" d="M268.8,227.8c0,1.4-1.1,2.5-2.5,2.5c-1.4,0-2.5-1.1-2.5-2.5c0-1.4,1.1-2.5,2.5-2.5
						C267.7,225.3,268.8,226.4,268.8,227.8z"/>
					<path class="st9" d="M279.4,223.8c0,1.4-1.1,2.5-2.5,2.5c-1.4,0-2.5-1.1-2.5-2.5c0-1.4,1.1-2.5,2.5-2.5
						C278.3,221.4,279.4,222.5,279.4,223.8z"/>
					<path class="st9" d="M257.4,231.5c-0.4-0.6-1.2-1.1-2-1.1s-1.6,0.4-2,1.1H257.4z"/>
					<path class="st9" d="M226.3,220.1c0,1.4-1.1,2.5-2.5,2.5c-1.4,0-2.5-1.1-2.5-2.5c0-1.4,1.1-2.5,2.5-2.5
						C225.2,217.6,226.3,218.7,226.3,220.1z"/>
					<path class="st9" d="M219.8,212.3c0,1.3-0.9,2.3-2.1,2.4c0,0,0,0,0-0.1c0.2-1.5,0.5-3.1,0.7-4.6
						C219.2,210.4,219.8,211.3,219.8,212.3z"/>
					<path class="st9" d="M216.9,227.8c0,1.1-0.7,2.1-1.8,2.4c0.3-1.4,0.5-2.9,0.7-4.4C216.5,226.2,216.9,227,216.9,227.8z"/>
					<path class="st9" d="M232.4,228.8c0,1.4-1.1,2.5-2.5,2.5c-1.4,0-2.5-1.1-2.5-2.5c0-1.4,1.1-2.5,2.5-2.5
						C231.3,226.4,232.4,227.5,232.4,228.8z"/>
					<path class="st9" d="M245.5,226.9c0,1.4-1.1,2.5-2.5,2.5c-1.4,0-2.5-1.1-2.5-2.5c0-1.4,1.1-2.5,2.5-2.5
						C244.3,224.4,245.5,225.5,245.5,226.9z"/>
					<path class="st9" d="M236.2,214.7c0,1.4-1.1,2.5-2.5,2.5c-1.4,0-2.5-1.1-2.5-2.5c0-1.4,1.1-2.5,2.5-2.5
						C235,212.3,236.2,213.4,236.2,214.7z"/>
					<path class="st9" d="M249.4,212.3c0,1.4-1.1,2.5-2.5,2.5s-2.5-1.1-2.5-2.5s1.1-2.5,2.5-2.5S249.4,210.9,249.4,212.3z"/>
					<path class="st9" d="M255.4,199.2c0,1.4-1.1,2.5-2.5,2.5c-1.4,0-2.5-1.1-2.5-2.5c0-1.4,1.1-2.5,2.5-2.5
						C254.3,196.8,255.4,197.9,255.4,199.2z"/>
					<path class="st9" d="M276.8,189.3c-0.2,0-0.3,0.1-0.5,0.1c-1.4,0-2.5-1.1-2.5-2.5c0-1.3,1-2.4,2.4-2.5
						C276.3,185.9,276.6,187.5,276.8,189.3z"/>
					<path class="st9" d="M263.9,189.4c0,1.4-1.1,2.5-2.5,2.5c-1.4,0-2.5-1.1-2.5-2.5s1.1-2.5,2.5-2.5
						C262.8,186.9,263.9,188,263.9,189.4z"/>
					<path class="st9" d="M272.9,198.2c0,1.4-1.1,2.5-2.5,2.5c-1.4,0-2.5-1.1-2.5-2.5c0-1.4,1.1-2.5,2.5-2.5
						C271.8,195.7,272.9,196.8,272.9,198.2z"/>
					<path class="st9" d="M257.9,220.1c0,1.4-1.1,2.5-2.5,2.5c-1.4,0-2.5-1.1-2.5-2.5c0-1.4,1.1-2.5,2.5-2.5
						C256.8,217.6,257.9,218.7,257.9,220.1z"/>
				</g>
				<path class="st1" d="M276.8,177.5c-13.8,9-39.2,8.3-55.2,0c1.5-9.5,3.5-19,3.1-31.6c0-1.4-0.1-2.8-0.2-4.1
					c-0.1-1.2-0.1-2.4-0.2-3.5c-1.4-21-5-38.2-3.2-40.4c0.8-1,2.1-2,3.6-3.1c0.6-0.4,1.3-0.9,2-1.3c1.7-1,3.5-2,5.3-3
					c4.4-2.3,8.8-4.5,11.1-6c2.2,1,4,1.5,5.9,1.5c0.1,0,0.1,0,0.2,0c0.1,0,0.1,0,0.2,0c1.9,0,3.7-0.5,5.9-1.5c2.1,1.4,6,3.3,9.9,5.4
					c2.9,1.5,5.9,3.2,8.2,4.8c1.5,1,2.7,2.1,3.5,3c0.9,1.1,0.5,5.9-0.2,13.1c-0.7,7-1.8,16.3-2.5,26.5c-0.2,2.8-0.3,5.7-0.4,8.7
					C273.3,158.5,275.3,168,276.8,177.5z"/>
				<g>
					<path class="st11" d="M268.4,167C268.4,167,268.4,167,268.4,167c-11.1,0-20.6-5.1-26.6-9.4c-6.5-4.6-10.4-9.2-10.5-9.3
						c-0.2-0.2-0.2-0.6,0.1-0.8c0.2-0.2,0.6-0.2,0.8,0.1c0,0,3.9,4.6,10.3,9.1c5.9,4.1,15.2,9.1,26,9.1c0.3,0,0.5,0.2,0.5,0.5
						C268.9,166.8,268.6,167,268.4,167z"/>
				</g>
				<g>
					<path class="st11" d="M261,160.5c-9.5-1.9-17.9-9.1-18.3-9.5c-0.2-0.2-0.2-0.5-0.1-0.8c0.2-0.2,0.5-0.2,0.8-0.1
						c0.1,0.1,10,8.6,20,9.5c0.3,0,0.5,0.3,0.5,0.6c0,0.3-0.3,0.5-0.6,0.5C262.6,160.8,261.8,160.7,261,160.5z"/>
				</g>
				<g>
					<path class="st11" d="M246.9,111.5c-0.3,0-0.5-0.2-0.5-0.4c-0.1-0.3,0.1-0.6,0.4-0.6c13.6-2.6,17.7-11.3,17.7-11.4
						c0.1-0.3,0.4-0.4,0.7-0.3c0.3,0.1,0.4,0.4,0.3,0.7c-0.2,0.4-4.4,9.3-18.5,12C247,111.5,247,111.5,246.9,111.5z"/>
				</g>
				<path class="st8" d="M265.2,89.8c-2.7,6.1-9.3,12.5-17.9,11c-8.3-1.4-12.3-5.9-15.2-10.4c4.4-2.3,8.8-4.5,11.1-6
					c2.2,1,4,1.5,5.9,1.5c0.1,0,0.1,0,0.2,0c0.1,0,0.1,0,0.2,0c1.9,0,3.7-0.5,5.9-1.5C257.3,85.8,261.2,87.7,265.2,89.8z"/>
				<g>
					<path class="st0" d="M258,84.9c-0.2,0-0.4,0.2-0.4,0.4c0,0.3-0.1,8.5-7.4,9.1c-6.8,0.6-9.6-5.9-10.4-8.6
						c-0.1-0.2-0.2-0.3-0.4-0.3h-0.1c-0.3,0-0.4,0.3-0.4,0.5c0.9,2.8,3.9,9.5,10.8,9.2c0.2,0,0.4,0,0.5,0c8.1-0.7,8.2-9.8,8.2-9.9
						C258.4,85.1,258.2,84.9,258,84.9z"/>
				</g>
			</g>
			<g>
				<path class="st4" d="M263.2,41.7c0,0,6.5,10.1,5.8,20.6c-0.7,10.5,1,22.7-8.4,22.1c-9.4-0.5-26.2,3.8-31.5-4.4
					C223.7,71.8,263.2,41.7,263.2,41.7z"/>
				<path class="st5" d="M265.6,60.3c0,0,1.7,15.2-5.5,19.4c-7.2,4.2-12.5-0.5-12.5-0.5S262.8,58,265.6,60.3z"/>
				<g>
					<g>
						<path class="st6" d="M235.5,60.2c0,0-2.6-3.5-4.5-0.6c-1.9,2.9,0.8,11.3,5.5,9.3L235.5,60.2z"/>
						<g>
							<path class="st7" d="M235.5,66.2c-0.2,0-0.3-0.1-0.4-0.3c-0.7-2.6-3.4-3.7-3.5-3.7c-0.2-0.1-0.3-0.3-0.2-0.5
								c0.1-0.2,0.3-0.3,0.5-0.2c0.1,0,3.1,1.2,4,4.2c0.1,0.2-0.1,0.4-0.3,0.5C235.6,66.2,235.5,66.2,235.5,66.2z"/>
						</g>
						<g>
							<path class="st7" d="M232.8,64.9c-0.1,0-0.1,0-0.2-0.1c-0.2-0.1-0.2-0.4-0.1-0.6c0,0,0.5-0.8,1.5-1.2c0.2-0.1,0.4,0,0.5,0.2
								c0.1,0.2,0,0.4-0.2,0.5c-0.8,0.3-1.2,0.9-1.2,0.9C233,64.8,232.9,64.9,232.8,64.9z"/>
						</g>
					</g>
					<g>
						<path class="st6" d="M262.3,60.2c0,0,2.6-3.5,4.5-0.6c1.9,2.9-0.8,11.3-5.5,9.3L262.3,60.2z"/>
						<g>
							<path class="st7" d="M262.3,66.2c0.2,0,0.3-0.1,0.4-0.3c0.7-2.6,3.4-3.7,3.5-3.7c0.2-0.1,0.3-0.3,0.2-0.5
								c-0.1-0.2-0.3-0.3-0.5-0.2c-0.1,0-3.1,1.2-4,4.2c-0.1,0.2,0.1,0.4,0.3,0.5C262.3,66.2,262.3,66.2,262.3,66.2z"/>
						</g>
						<g>
							<path class="st7" d="M265.1,64.9c0.1,0,0.1,0,0.2-0.1c0.2-0.1,0.2-0.4,0.1-0.6c0,0-0.5-0.8-1.5-1.2c-0.2-0.1-0.4,0-0.5,0.2
								c-0.1,0.2,0,0.4,0.2,0.5c0.8,0.3,1.2,0.9,1.2,0.9C264.8,64.8,264.9,64.9,265.1,64.9z"/>
						</g>
					</g>
					<path class="st8" d="M255.3,76v8.4c0,0-2.5,4.3-5.9,4.6c-3.4,0.3-6.4-3.7-6.4-3.7v-8.7L255.3,76z"/>
					<path class="st6" d="M255.3,76v3.7c-2.3,2.5-6.3,3.4-12.3,2.5l0-5.7L255.3,76z"/>
					<path class="st8" d="M264.2,54.4c-0.2,3.3-0.5,7.4-1.1,10.6c-0.2,0.8-0.3,1.6-0.5,2.3c-1.8,6.2-6.2,16.8-18.6,12.4
						c-5.5-2-8-8-9.1-14.2c-0.8-4.2-0.9-8.5-0.8-11.5c0.1-3.1,1.8-5.9,4.5-7.5c7.3-4.1,15-2.6,20.1-0.6
						C262.1,47.2,264.4,50.7,264.2,54.4z"/>
					<path class="st4" d="M243.5,60.7c0,0.9-0.5,1.6-1,1.6c-0.6,0-1-0.7-1-1.6c0-0.9,0.5-1.6,1-1.6C243,59.1,243.5,59.8,243.5,60.7z
						"/>
					<path class="st4" d="M256.2,60.7c0,0.9-0.5,1.6-1,1.6s-1-0.7-1-1.6c0-0.9,0.5-1.6,1-1.6S256.2,59.8,256.2,60.7z"/>
					<path class="st4" d="M240.4,55.8c0.9-0.2,2.6-0.7,4.4-0.7c0.5,0,0.8,0.4,0.8,0.9l0,0c-0.1,0.4-0.4,0.6-0.8,0.6
						c-1.2-0.1-4.5,0.1-6.1,0.7c0-0.3,0.1-0.6,0.4-0.8C239.4,56.2,239.9,56,240.4,55.8z"/>
					<path class="st4" d="M257.1,55.9c-0.9-0.2-2.6-0.7-4.4-0.7c-0.5,0-0.8,0.4-0.8,0.9l0,0c0.1,0.4,0.4,0.6,0.8,0.6
						c1.2-0.1,4.5,0.1,6.1,0.7c0-0.3-0.1-0.6-0.4-0.8C258,56.3,257.6,56,257.1,55.9z"/>
					<g>
						<path class="st6" d="M249.1,68.1c-0.3,0-0.6-0.1-0.9-0.2c-0.2-0.1-0.5-0.4-0.6-1c-0.2-1.5,0.2-6.1,0.2-6.3
							c0-0.2,0.2-0.4,0.4-0.4c0.2,0,0.4,0.2,0.4,0.4c0,0-0.4,4.7-0.2,6.1c0,0.2,0.1,0.3,0.2,0.4c0.4,0.2,1.2,0,1.6-0.2
							c0.2-0.1,0.4,0,0.5,0.2c0.1,0.2,0,0.4-0.2,0.5C250.4,67.8,249.7,68.1,249.1,68.1z"/>
					</g>
					<path class="st0" d="M244,70.6c0.3,1.5,1.3,4.3,4.7,4.3c3.4,0,4.3-2.6,4.7-4.3H244z"/>
					<g>
						<path class="st6" d="M248.6,77.3c-1,0-1.8-0.5-1.9-0.5c-0.2-0.1-0.2-0.4-0.1-0.5c0.1-0.2,0.4-0.2,0.5-0.1l0,0
							c0,0,0.7,0.4,1.5,0.4c0.8,0,1.5-0.4,1.5-0.4c0.2-0.1,0.4-0.1,0.5,0.1c0.1,0.2,0.1,0.4-0.1,0.5
							C250.5,76.7,249.7,77.3,248.6,77.3z"/>
					</g>
				</g>
				<path class="st4" d="M265.8,53.8c-0.1,0.4-0.5,0.6-1,0.7c0,0.9-0.1,1.9-0.1,3c-0.5,5.8-1.9,6.8-2.3,5.4
					c-0.2-0.9-0.2-6.4-0.1-8.2c-1.1-0.1-2.1-0.3-2.1-0.3l-1.3-5.6l-0.5,5.5c-2,0.7-6.7-0.4-6.7-0.4l-1.6-5.5l-1,5.3
					c-3,1.5-6.8,0.5-6.8,0.5l-0.9-5.7l-2,5.7c0,0-6.4,2.3-6.5,0c0-1.3,0.9-5.1,1.8-8c0.9-3.2,3-5.9,5.8-7.4c8-4.3,16.4-2,19.3-0.3
					C266,42.1,265.8,53.8,265.8,53.8z"/>
				<path class="st4" d="M236.5,42.1c0,0-5.3,6.3-7,17.5c-1.7,11.2-4.2,19.5,2.6,23.3c7.3,4,6.7-4.2,6.6-6.5
					c-0.1-2.2-6.3-8.4-2.2-25.6C237.9,45.3,236.5,42.1,236.5,42.1z"/>
				<path class="st5" d="M235.3,65.4C235.3,65.4,235.3,65.4,235.3,65.4c0,0.1,0,0.5,0,1.2c0,0.4,0,1,0.1,1.6
					c0.2,3.8,1,10.3,3.1,12.6c0.9,0.9,2.5,1.3,4.4,1.5v-3c-2-1-3.6-2.6-4.9-4.5c-0.8-1.7-2.1-4.2-2.7-8.3L235.3,65.4z"/>
				<path class="st0" d="M264.3,69c0,0.5-0.4,0.9-0.9,0.9s-0.9-0.4-0.9-0.9c0-0.5,0.4-0.9,0.9-0.9S264.3,68.5,264.3,69z"/>
			</g>
			<g>
				<path class="st12" d="M283.3,139.5c-2.7,7.6-14.5,7-28,2.9c0,0,0,0-0.1,0c0,0-0.1,0-0.1,0l-1.9-0.6c-0.3-0.1-0.5-0.2-0.8-0.3
					c-1.5-0.5-2.9-1-4.4-1.6c-4.8-1.8-9.7-4-14.3-6.3l0-0.1l1.4-3.6l0.5-1.2c0,0,25.1,2.7,37.7,0.1c0.2,0,0.4-0.1,0.6-0.1
					c0-0.3-0.1-0.6-0.1-0.8c-6.7-22.7,0.6-27.1,3.1-30.3C276.9,97.6,288.3,125.2,283.3,139.5z"/>
				<g>
					<path class="st1" d="M279.3,132.5c-0.1,0-0.2,0.1-0.2,0.1c-0.2,0-0.4-0.1-0.5-0.3c-1-2-4.2-3.1-5.2-3.4c0.2,0,0.4-0.1,0.6-0.1
						c0-0.3-0.1-0.6-0.1-0.8c1.3,0.4,4.6,1.7,5.7,3.9C279.6,132,279.5,132.4,279.3,132.5z"/>
				</g>
				<g>
					<path class="st1" d="M244.1,131.5c-5.1,0-9.3-0.3-9.6-0.3c-0.3,0-0.5-0.3-0.5-0.6c0-0.3,0.3-0.5,0.6-0.5c0.2,0,19,1.3,26.4-1.7
						c0.3-0.1,0.6,0,0.7,0.3c0.1,0.3,0,0.6-0.3,0.7C257.3,131.2,250.1,131.5,244.1,131.5z"/>
				</g>
				<g>
					<path class="st1" d="M253.3,141.8C253.3,141.8,253.3,141.8,253.3,141.8c4.3-1.2,8.2-2.3,10.4-3.1c3.1-1,5.7-4.2,6.9-6.8
						c0.1-0.3,0.4-0.4,0.7-0.3c0.3,0.1,0.4,0.4,0.3,0.7c-1.3,2.9-4.1,6.3-7.5,7.4c-1.6,0.5-4.1,1.3-7,2.1
						C255.8,142.2,254.5,142.2,253.3,141.8L253.3,141.8z"/>
				</g>
				<g>
					<path class="st12" d="M264.8,138.1c-38.7,13-50.7,4.5-50.7,4.5c-2.6-23.6,7-44.8,7-44.8c2.8,4.7,6.1,12.9,6.1,12.9l0.8,18.1
						l-0.1,0.5l0,0.2l-0.2,1.2l0,0c0.1,0,0.2,0,0.2,0.1c11.7,2.5,33.2-0.3,33.2-0.3L264.8,138.1z"/>
					<g>
						<path class="st1" d="M228,130.8c-2.1,1.8-4.1,3.8-5.8,6.1c-0.2,0.2-0.5,0.3-0.8,0.1c-0.2-0.2-0.3-0.5-0.1-0.7c0,0,0,0,0,0
							c2-2.6,4.2-4.9,6.6-6.8l-0.2,1.2l0,0C227.9,130.8,228,130.8,228,130.8z"/>
					</g>
					<path class="st8" d="M261.2,130.5c0,0,4.3-9.7,10.8-8.9l2,7c-3.6,1.5-4.1,7.6-9.2,9.4L261.2,130.5z"/>
				</g>
				<path class="st8" d="M235.7,128.7c0,0-2.7-6.4-9.8-8.2c-7.1-1.8-11.7,1.5-12.1,2.8c-0.5,1.3,2.7,0.1,2.7,0.1s-2.1,0.6-3.2,2.5
					c-1.2,1.9,2.9-0.2,2.9-0.2s-2.9,1.3-3.3,2.5c-0.4,1.2,3.5-0.8,4.2-0.8c0,0-3.4,1.4-3.4,2.6c0,1.2,3.9-0.8,6.9-0.6
					c2.9,0.2,7.4,1.4,7.4,1.4c2.4,0.5,4.7,0.8,6.8,0.9L235.7,128.7z"/>
			</g>
		</g>
		<g>
			<g>
				<g>
					<g>
						<g>
							<path class="st3" d="M304.5,29.9c-2.6,0-4.8-2.1-4.8-4.8s2.1-4.8,4.8-4.8c2.6,0,4.8,2.1,4.8,4.8S307.2,29.9,304.5,29.9z
								 M304.5,21.8c-1.8,0-3.3,1.5-3.3,3.3c0,1.8,1.5,3.3,3.3,3.3c1.8,0,3.3-1.5,3.3-3.3C307.8,23.3,306.3,21.8,304.5,21.8z"/>
						</g>
						<g>
							<path class="st2" d="M346.3,21.7c-2.6,0-4.8-2.1-4.8-4.8s2.1-4.8,4.8-4.8c2.6,0,4.8,2.1,4.8,4.8S348.9,21.7,346.3,21.7z
								 M346.3,13.7c-1.8,0-3.3,1.5-3.3,3.3c0,1.8,1.5,3.3,3.3,3.3c1.8,0,3.3-1.5,3.3-3.3C349.5,15.1,348.1,13.7,346.3,13.7z"/>
						</g>
						<g>
							<g>
								<g>
									<path class="st3" d="M352.2,37.3c-0.4,0-0.8-0.3-0.8-0.8v-3.3c0-0.4,0.3-0.8,0.8-0.8c0.4,0,0.8,0.3,0.8,0.8v3.3
										C352.9,37,352.6,37.3,352.2,37.3z"/>
								</g>
								<g>
									<path class="st3" d="M352.2,43.1c-0.4,0-0.8-0.3-0.8-0.8V39c0-0.4,0.3-0.8,0.8-0.8c0.4,0,0.8,0.3,0.8,0.8v3.3
										C352.9,42.7,352.6,43.1,352.2,43.1z"/>
								</g>
							</g>
							<g>
								<g>
									<path class="st3" d="M356.8,38.5h-3c-0.4,0-0.8-0.3-0.8-0.8s0.3-0.8,0.8-0.8h3c0.4,0,0.8,0.3,0.8,0.8
										S357.2,38.5,356.8,38.5z"/>
								</g>
								<g>
									<path class="st3" d="M350.5,38.5h-3c-0.4,0-0.8-0.3-0.8-0.8s0.3-0.8,0.8-0.8h3c0.4,0,0.8,0.3,0.8,0.8
										S350.9,38.5,350.5,38.5z"/>
								</g>
							</g>
						</g>
						<g>
							<g>
								<g>
									<g>
										<path class="st1" d="M326.9,17.2c-0.4,0-0.8-0.3-0.8-0.8v-3.3c0-0.4,0.3-0.8,0.8-0.8c0.4,0,0.8,0.3,0.8,0.8v3.3
											C327.7,16.9,327.3,17.2,326.9,17.2z"/>
									</g>
									<g>
										<path class="st1" d="M326.9,23c-0.4,0-0.8-0.3-0.8-0.8V19c0-0.4,0.3-0.8,0.8-0.8c0.4,0,0.8,0.3,0.8,0.8v3.3
											C327.7,22.7,327.3,23,326.9,23z"/>
									</g>
								</g>
								<g>
									<g>
										<path class="st1" d="M331.5,18.5h-3c-0.4,0-0.8-0.3-0.8-0.8c0-0.4,0.3-0.8,0.8-0.8h3c0.4,0,0.8,0.3,0.8,0.8
											C332.3,18.1,332,18.5,331.5,18.5z"/>
									</g>
									<g>
										<path class="st1" d="M325.2,18.5h-3c-0.4,0-0.8-0.3-0.8-0.8c0-0.4,0.3-0.8,0.8-0.8h3c0.4,0,0.8,0.3,0.8,0.8
											C326,18.1,325.6,18.5,325.2,18.5z"/>
									</g>
								</g>
							</g>
						</g>
					</g>
				</g>
				<g>
					<g>
						<g>
							<path class="st3" d="M133.5,12.9c0-2.6,2.1-4.8,4.8-4.8c2.6,0,4.8,2.1,4.8,4.8c0,2.6-2.1,4.8-4.8,4.8
								C135.6,17.7,133.5,15.6,133.5,12.9z M135,12.9c0,1.8,1.5,3.3,3.3,3.3c1.8,0,3.3-1.5,3.3-3.3c0-1.8-1.5-3.3-3.3-3.3
								C136.5,9.7,135,11.1,135,12.9z"/>
						</g>
						<g>
							<path class="st2" d="M114.3,31.2c0-2.6,2.1-4.8,4.8-4.8c2.6,0,4.8,2.1,4.8,4.8s-2.1,4.8-4.8,4.8
								C116.4,36,114.3,33.8,114.3,31.2z M115.8,31.2c0,1.8,1.5,3.3,3.3,3.3s3.3-1.5,3.3-3.3c0-1.8-1.5-3.3-3.3-3.3
								S115.8,29.4,115.8,31.2z"/>
						</g>
						<g>
							<g>
								<g>
									<path class="st3" d="M104.3,37.9c0.4,0,0.8-0.3,0.8-0.8v-3.3c0-0.4-0.3-0.8-0.8-0.8s-0.8,0.3-0.8,0.8v3.3
										C103.6,37.6,103.9,37.9,104.3,37.9z"/>
								</g>
								<g>
									<path class="st3" d="M104.3,43.7c0.4,0,0.8-0.3,0.8-0.8v-3.3c0-0.4-0.3-0.8-0.8-0.8s-0.8,0.3-0.8,0.8v3.3
										C103.6,43.4,103.9,43.7,104.3,43.7z"/>
								</g>
							</g>
							<g>
								<g>
									<path class="st3" d="M99.7,39.1h3c0.4,0,0.8-0.3,0.8-0.8c0-0.4-0.3-0.8-0.8-0.8h-3c-0.4,0-0.8,0.3-0.8,0.8
										C98.9,38.8,99.3,39.1,99.7,39.1z"/>
								</g>
								<g>
									<path class="st3" d="M106,39.1h3c0.4,0,0.8-0.3,0.8-0.8c0-0.4-0.3-0.8-0.8-0.8h-3c-0.4,0-0.8,0.3-0.8,0.8
										C105.2,38.8,105.6,39.1,106,39.1z"/>
								</g>
							</g>
						</g>
						<g>
							<g>
								<g>
									<g>
										<path class="st1" d="M121.6,12.5c0.4,0,0.8-0.3,0.8-0.8V8.4c0-0.4-0.3-0.8-0.8-0.8s-0.8,0.3-0.8,0.8v3.3
											C120.9,12.1,121.2,12.5,121.6,12.5z"/>
									</g>
									<g>
										<path class="st1" d="M121.6,18.2c0.4,0,0.8-0.3,0.8-0.8v-3.3c0-0.4-0.3-0.8-0.8-0.8s-0.8,0.3-0.8,0.8v3.3
											C120.9,17.9,121.2,18.2,121.6,18.2z"/>
									</g>
								</g>
								<g>
									<g>
										<path class="st1" d="M117,13.7h3c0.4,0,0.8-0.3,0.8-0.8c0-0.4-0.3-0.8-0.8-0.8h-3c-0.4,0-0.8,0.3-0.8,0.8
											C116.2,13.4,116.6,13.7,117,13.7z"/>
									</g>
									<g>
										<path class="st1" d="M123.3,13.7h3c0.4,0,0.8-0.3,0.8-0.8c0-0.4-0.3-0.8-0.8-0.8h-3c-0.4,0-0.8,0.3-0.8,0.8
											C122.5,13.4,122.9,13.7,123.3,13.7z"/>
									</g>
								</g>
							</g>
						</g>
					</g>
				</g>
			</g>
			<g>
				<g>
					<g>
						<path class="st13" d="M264.7,13.3c-0.1,0-0.2,0-0.3,0c-0.9-0.4-1.4-0.6-1.5-0.6c-0.3-0.1-0.4-0.4-0.3-0.7
							c0.1-0.3,0.4-0.4,0.7-0.3c0,0,0.6,0.2,1.5,0.6c0.3,0.1,0.4,0.4,0.3,0.7C265.1,13.1,264.9,13.3,264.7,13.3z"/>
					</g>
					<g>
						<path class="st13" d="M291.9,41.9c0.4,1,0.7,2,1,3c0.1,0.2,0.3,0.4,0.6,0.4c0,0,0.1,0,0.1,0c0.3-0.1,0.4-0.4,0.4-0.7
							c-0.3-1-0.7-2-1-3c-0.1-0.3-0.4-0.4-0.7-0.3C291.9,41.3,291.8,41.6,291.9,41.9z"/>
						<path class="st13" d="M293.7,47.9c0.2,1,0.5,2,0.7,3.1c0.1,0.3,0.3,0.5,0.6,0.4c0,0,0,0,0,0c0.3-0.1,0.5-0.3,0.4-0.6
							c-0.2-1.1-0.4-2.1-0.7-3.1c-0.1-0.3-0.4-0.5-0.6-0.4C293.8,47.3,293.6,47.6,293.7,47.9z"/>
						<path class="st13" d="M296,63.9c0.3,0,0.5-0.2,0.5-0.5c0-1.1,0-2.1,0-3.2c0-0.3-0.3-0.5-0.5-0.5c-0.3,0-0.5,0.3-0.5,0.5
							c0,1,0,2.1,0,3.1C295.4,63.7,295.6,63.9,296,63.9C295.9,64,295.9,64,296,63.9z"/>
						<path class="st13" d="M295.3,53.4c-0.3,0-0.5,0.3-0.5,0.6c0.1,0.5,0.1,1,0.2,1.4c0.1,0.6,0.1,1.1,0.2,1.7
							c0,0.3,0.3,0.5,0.6,0.5c0,0,0,0,0,0c0.3,0,0.5-0.3,0.5-0.6c0-0.6-0.1-1.1-0.2-1.7c-0.1-0.5-0.1-1-0.2-1.5
							C295.9,53.6,295.6,53.4,295.3,53.4C295.3,53.4,295.3,53.4,295.3,53.4z"/>
						<path class="st13" d="M290.7,39c0.1,0.2,0.3,0.3,0.5,0.3c0.1,0,0.1,0,0.2,0c0.3-0.1,0.4-0.4,0.3-0.7c-0.4-1-0.9-1.9-1.4-2.9
							c-0.1-0.3-0.5-0.4-0.7-0.2c-0.3,0.1-0.4,0.5-0.2,0.7C289.8,37.1,290.3,38,290.7,39z"/>
						<path class="st13" d="M267.3,14.6c0.9,0.5,1.8,1,2.7,1.5c0.1,0.1,0.2,0.1,0.3,0.1c0.2,0,0.3-0.1,0.4-0.3
							c0.1-0.3,0.1-0.6-0.2-0.7c-0.9-0.5-1.9-1.1-2.8-1.5c-0.3-0.1-0.6,0-0.7,0.2C266.9,14.1,267,14.4,267.3,14.6z"/>
						<path class="st13" d="M275.2,19.6c0.1,0.1,0.2,0.1,0.4,0.1c0.1,0,0.3-0.1,0.4-0.2c0.2-0.2,0.1-0.6-0.1-0.7
							c-0.8-0.6-1.7-1.3-2.6-1.9c-0.2-0.2-0.6-0.1-0.7,0.1c-0.2,0.2-0.1,0.6,0.1,0.7C273.5,18.3,274.4,19,275.2,19.6z"/>
						<path class="st13" d="M284.2,28.3c0.1,0.1,0.3,0.2,0.5,0.2c0.1,0,0.2,0,0.3-0.1c0.2-0.2,0.3-0.5,0.1-0.7
							c-0.7-0.8-1.4-1.6-2.1-2.4c-0.2-0.2-0.5-0.2-0.8,0c-0.2,0.2-0.2,0.5,0,0.8C282.8,26.7,283.5,27.5,284.2,28.3z"/>
						<path class="st13" d="M280,23.7c0.1,0.1,0.3,0.2,0.4,0.1c0.1,0,0.2-0.1,0.3-0.2c0.2-0.2,0.2-0.5,0-0.8
							c-0.8-0.7-1.6-1.5-2.4-2.2c-0.2-0.2-0.6-0.2-0.8,0.1c-0.2,0.2-0.2,0.6,0.1,0.8C278.4,22.2,279.2,23,280,23.7z"/>
						<path class="st13" d="M287.8,33.4c0.1,0.2,0.3,0.3,0.5,0.3c0.1,0,0.2,0,0.2-0.1c0.3-0.2,0.3-0.5,0.2-0.7
							c-0.6-0.9-1.1-1.8-1.8-2.7c-0.2-0.2-0.5-0.3-0.7-0.1c-0.2,0.2-0.3,0.5-0.1,0.7C286.7,31.7,287.2,32.6,287.8,33.4z"/>
					</g>
				</g>
				<g>
					<g>
						<polygon class="st2" points="264.7,9.6 267,1 238.5,1.2 						"/>
						<polygon class="st3" points="238.5,1.2 263.3,11.7 263.4,11.8 264.4,13.5 264.7,9.6 						"/>
						<polygon class="st3" points="264.4,13.5 262.1,13.2 263.4,11.8 						"/>
						<polygon class="st2" points="260.3,10.4 263.4,11.8 256.9,19 238.5,1.2 						"/>
					</g>
				</g>
			</g>
		</g>
		<g>
			<path class="st1" d="M396.1,236.9v0.5c0,3-2.4,5.4-5.4,5.4H108.5c-3,0-5.4-2.4-5.4-5.4v-0.5c0-3,2.4-5.4,5.4-5.4h282.2
				C393.7,231.5,396.1,233.9,396.1,236.9z"/>
			<path class="st3" d="M396.1,236.9v0.3H103v-0.3c0-3,2.4-5.4,5.4-5.4h282.2C393.7,231.5,396.1,233.9,396.1,236.9z"/>
		</g>
		<g>
			<path class="st1" d="M291.2,214.3h-85.6c-3,0-5.4-2.4-5.4-5.4v-43.3c0-3,2.4-5.4,5.4-5.4h85.6c3,0,5.4,2.4,5.4,5.4V209
				C296.6,211.9,294.2,214.3,291.2,214.3z"/>
			<rect x="241" y="214.3" class="st5" width="14.9" height="17"/>
			<circle class="st14" cx="248.3" cy="188" r="7.4"/>
			<path class="st4" d="M267.4,231.3H229v-0.2c0-3.2,2.6-5.9,5.9-5.9h26.7c3.2,0,5.9,2.6,5.9,5.9V231.3z"/>
		</g>
	</g>
</g>
<g id="DESIGNED_BY_FREEPIK">
</g>
</svg>
