<?xml version="1.0" encoding="utf-8"?>
<!-- Generator: Adobe Illustrator 21.0.0, SVG Export Plug-In . SVG Version: 6.00 Build 0)  -->
<svg version="1.1" id="Layer_1" xmlns="http://www.w3.org/2000/svg" xmlns:xlink="http://www.w3.org/1999/xlink" x="0px" y="0px"
	 viewBox="0 0 40.9 38.1" style="enable-background:new 0 0 40.9 38.1;" xml:space="preserve">
<style type="text/css">
	.st0{fill:#D1AE6C;}
</style>
<g>
	<g>
		<path class="st0" d="M35.3,10V3.7c0-0.7-0.4-1.3-1-1.7c-0.6-0.4-1.3-0.4-1.9,0c-5.8,3.3-12.1,5.2-18.8,5.6c-0.1,0-6.1,0-6.1,0
			c-1.5,0-2.8,1.1-2.9,2.6H3.3c-1.4,0-2.5,1.1-2.5,2.5v5.4c0,1.4,1.1,2.5,2.5,2.5h1.2c0.1,1.1,0.8,1.9,1.7,2.4l4.4,12.1
			c0.3,0.8,1,1.3,1.8,1.3h4.4c0.6,0,1.2-0.3,1.6-0.8c0.4-0.5,0.4-1.2,0.2-1.8l-3.8-10.4c6.2,0.6,12,2.5,17.4,5.5
			c0.3,0.2,0.6,0.3,1,0.3c0.3,0,0.7-0.1,1-0.3c0.6-0.4,1-1,1-1.7v-6.3c2.7-0.3,4.8-2.7,4.8-5.4C40,12.6,38,10.3,35.3,10z M4.5,18.7
			H3.3c-0.3,0-0.6-0.3-0.6-0.6v-5.4c0-0.3,0.3-0.6,0.6-0.6h1.2V18.7z M7.1,21.2c-0.4-0.2-0.6-0.5-0.6-1v-9.6h0
			c0-0.6,0.5-1.1,1.1-1.1h5.2v11.7c0,0-5.2,0-5.2,0C7.2,21.3,7.2,21.3,7.1,21.2z M16.9,34.4C16.9,34.4,16.9,34.4,16.9,34.4
			C16.9,34.5,16.9,34.5,16.9,34.4l-4.4,0c0,0,0,0,0,0L8.4,23.2h4.5L16.9,34.4z M33.4,27.2C33.4,27.2,33.4,27.2,33.4,27.2
			C33.3,27.2,33.3,27.2,33.4,27.2C27.5,24,21.2,22,14.5,21.4V9.5c6.6-0.6,12.9-2.6,18.8-5.8c0,0,0,0,0.1,0c0,0,0,0,0,0V27.2z
			 M35.3,19v-7.1c1.6,0.3,2.9,1.8,2.9,3.5C38.1,17.2,36.9,18.6,35.3,19z"/>
	</g>
</g>
</svg>
