<?xml version="1.0" encoding="utf-8"?>
<!-- Generator: Adobe Illustrator 21.0.0, SVG Export Plug-In . SVG Version: 6.00 Build 0)  -->
<svg version="1.1" id="Слой_1" xmlns="http://www.w3.org/2000/svg" xmlns:xlink="http://www.w3.org/1999/xlink" x="0px" y="0px"
	 viewBox="0 0 2559.3 1694" style="enable-background:new 0 0 2559.3 1694;" xml:space="preserve">
<style type="text/css">
	.st0{fill:url(#SVGID_5_);}
	.st1{fill:#B0B1B2;}
	.st2{fill:#D1AA67;}
	.st3{fill:url(#SVGID_6_);}
	.st4{fill:url(#SVGID_8_);}
	.st5{fill:url(#SVGID_10_);}
	.st6{fill:#587AA3;}
	.st7{opacity:0.98;fill:#A3CDFF;enable-background:new    ;}
	.st8{fill:#FFE0B6;}
	.st9{fill:url(#SVGID_11_);}
	.st10{opacity:0.42;fill:url(#SVGID_13_);enable-background:new    ;}
	.st11{fill:#DDB273;}
	.st12{clip-path:url(#SVGID_17_);}
	.st13{clip-path:url(#SVGID_18_);fill:url(#SVGID_19_);}
	.st14{fill:#E2E2E2;}
	.st15{fill:#D6985E;}
	.st16{fill:#EEA886;}
	.st17{fill:#B78F55;}
	.st18{fill:#202223;}
	.st19{fill:#454A4C;}
	.st20{fill:#2D3133;}
	.st21{fill:#9B9B9B;}
	.st22{fill:#CFBEB6;}
	.st23{fill:#754836;}
	.st24{fill:#A77860;}
	.st25{fill:#C98462;}
	.st26{fill:#DE9D7D;}
	.st27{fill:#EDDAD3;}
	.st28{fill:#9E773E;}
	.st29{fill:#424240;}
	.st30{fill:#807066;}
	.st31{fill:#6E6760;}
	.st32{fill:#918880;}
	.st33{fill:#BC8551;}
	.st34{fill:#757D28;}
	.st35{fill:#5C9E33;}
	.st36{fill:#4D8B33;}
	.st37{fill:#B1C265;}
	.st38{fill:#92A05B;}
	.st39{fill:#C7CA7F;}
	.st40{fill:#518330;}
	.st41{fill:#6C9F44;}
	.st42{fill:#4A8A33;}
	.st43{fill:#689C2F;}
	.st44{fill:#478B33;}
	.st45{fill:#61A23E;}
	.st46{fill:#5C9B3B;}
	.st47{fill:#31535F;}
	.st48{fill:#27434C;}
	.st49{clip-path:url(#SVGID_22_);}
	.st50{clip-path:url(#SVGID_23_);fill:url(#SVGID_24_);}
	.st51{fill:url(#SVGID_25_);}
	.st52{clip-path:url(#SVGID_28_);}
	.st53{clip-path:url(#SVGID_29_);fill:url(#SVGID_30_);}
	.st54{fill:url(#SVGID_31_);}
	.st55{clip-path:url(#SVGID_34_);}
	.st56{clip-path:url(#SVGID_35_);fill:url(#SVGID_36_);}
	.st57{fill:url(#SVGID_37_);}
	.st58{fill:#FFFFFF;}
	.st59{fill:#D6D6D6;}
	.st60{fill:#E8E8E8;}
	.st61{fill:#C2C2C2;}
	.st62{opacity:0.42;fill:url(#SVGID_38_);enable-background:new    ;}
	.st63{fill:#CEA267;}
	.st64{fill:url(#SVGID_39_);}
	.st65{fill:url(#SVGID_40_);}
	.st66{fill:url(#SVGID_41_);}
	.st67{fill:url(#SVGID_42_);}
	.st68{fill:url(#SVGID_43_);}
	.st69{fill:#353A3D;}
	.st70{fill:#81807E;}
	.st71{fill:#DECBC4;}
	.st72{fill:#495055;}
	.st73{fill:#252E3B;}
	.st74{fill:#3C4145;}
	.st75{fill:#B3A5A0;}
	.st76{fill:#51565C;}
	.st77{fill:#F5E2D9;}
	.st78{fill:#4754CC;}
	.st79{fill:#AD9F99;}
	.st80{fill:#69737A;}
	.st81{enable-background:new    ;}
</style>
<linearGradient id="SVGID_5_" gradientUnits="userSpaceOnUse" x1="-379.8" y1="2269.4841" x2="-379.8" y2="1569.2813" gradientTransform="matrix(1 0 0 -1 0 1694.39)">
	<stop  offset="0" style="stop-color:#D2AA68"/>
	<stop  offset="1" style="stop-color:#FFFFFF"/>
</linearGradient>
<rect x="-653.4" y="-249" class="st0" width="547.2" height="547.2"/>
<rect x="-581.4" y="-546.1" class="st1" width="414" height="183"/>
<rect x="-144.1" y="-546.1" class="st2" width="414" height="183"/>
<linearGradient id="SVGID_6_" gradientUnits="userSpaceOnUse" x1="1279.65" y1="1834.5444" x2="1279.65" y2="363.898" gradientTransform="matrix(1 0 0 -1 0 1694.39)">
	<stop  offset="0" style="stop-color:#D2AA68"/>
	<stop  offset="1" style="stop-color:#FFFFFF"/>
</linearGradient>
<polygon class="st3" points="2474.3,544.7 2474.3,748.6 2404.4,748.6 2342.9,810 2271.9,810 2271.9,721.5 2135.3,721.5 
	2135.3,931.8 1962.4,931.8 1962.4,764.2 1833.6,764.2 1833.6,677.4 1681.8,677.4 1681.8,1014.3 1671.8,1014.3 1671.8,764.2 
	1499.5,764.2 1499.5,931.8 1386.5,931.8 1386.5,810.1 1091.2,810.1 1091.2,920.1 1013.7,920.1 1013.7,847.2 813.9,847.2 
	813.9,544.7 618.4,544.7 618.4,748.6 548.5,748.6 487,810 416,810 416,721.5 279.4,721.5 279.4,931.8 106.4,931.8 106.4,764.2 
	0,764.2 0,1694 2559.3,1694 2559.3,544.7 "/>
<linearGradient id="SVGID_8_" gradientUnits="userSpaceOnUse" x1="-2211.9258" y1="1762.6898" x2="-2105.3777" y2="1300.9806" gradientTransform="matrix(0.8811 -0.473 -0.473 -0.8811 3203.4143 824.7102)">
	<stop  offset="0" style="stop-color:#FFFFFF"/>
	<stop  offset="1" style="stop-color:#F0F0E3"/>
</linearGradient>
<path class="st4" d="M770.7,328.3c-47.8-26.6-108.2-35.5-170-24.6c-32.5,5.7-65.3,16.9-96.9,33.8c-31.6,17-59.1,38.2-81.8,62.1
	c-43.2,45.5-69.1,100.8-73.4,155.3c-2.8,36.1,3.8,71.9,21.2,104.3c12.4,23.1,29.3,42.7,49.5,58.3c47.2,36.6,112.4,52.2,180.3,43.8
	c37.4-4.6,75.7-16.5,112.3-36.1s67.6-45,92.2-73.6c44.6-52,67.6-114.9,63.1-174.5c-1.9-25.5-8.8-50.4-21.3-73.5
	C828.5,371.2,802.3,345.9,770.7,328.3z M721.4,597.2c-14.2,17.3-32.6,32.6-54.5,44.4c-21.9,11.7-44.8,18.6-67.1,20.9
	c-39.9,4.1-77.8-6.3-104.2-29.5c-9.2-8.1-17.1-17.8-23.1-29c-11-20.4-14.4-43.2-11.3-66c4-29.7,19.2-59.5,43.3-83.9
	c12.4-12.6,27.2-23.8,44.1-32.8c16.9-9.1,34.4-15.2,51.7-18.6c33.7-6.6,66.9-2.8,93.9,10.2c20.7,10,37.8,25.5,48.7,45.9
	c6,11.2,9.7,23,11.4,35.2C759.2,528.8,746.9,566.2,721.4,597.2z"/>
<linearGradient id="SVGID_10_" gradientUnits="userSpaceOnUse" x1="-2255.5012" y1="1752.6475" x2="-2148.95" y2="1290.9241" gradientTransform="matrix(0.8811 -0.473 -0.473 -0.8811 3203.4143 824.7102)">
	<stop  offset="0" style="stop-color:#5369E5"/>
	<stop  offset="1" style="stop-color:#4E74D6"/>
</linearGradient>
<path class="st5" d="M804,651.6c-24.5,28.6-55.6,54-92.2,73.6c-36.6,19.6-74.9,31.5-112.3,36.1l0.2-99c22.3-2.3,45.2-9.2,67.1-20.9
	c21.9-11.7,40.3-27.1,54.5-44.4L804,651.6z"/>
<path class="st2" d="M845.9,403.6c12.4,23.1,19.4,48,21.3,73.5L754.4,494c-1.7-12.2-5.4-24.1-11.4-35.2c-11-20.4-28-35.9-48.7-45.9
	l76.4-84.6C802.3,345.9,828.5,371.2,845.9,403.6z"/>
<path class="st2" d="M472.6,604c6,11.2,13.8,20.8,23.1,29l-76.4,84.6c-20.2-15.7-37.1-35.2-49.5-58.3c-17.4-32.4-24-68.2-21.2-104.3
	l112.6-17C458.2,560.8,461.6,583.6,472.6,604z"/>
<path class="st2" d="M600.7,303.7l-0.2,99c-17.4,3.4-34.9,9.6-51.7,18.6c-16.9,9.1-31.7,20.2-44.1,32.8L422,399.6
	c22.7-23.9,50.2-45.1,81.8-62.1C535.3,320.6,568.2,309.4,600.7,303.7z"/>
<path class="st6" d="M563.5,1423h345.1c24.7,0,44.7-20,44.7-44.7V459.1c0-24.7-20-44.7-44.7-44.7H563.5c-24.7,0-44.7,20-44.7,44.7
	v919.1C518.8,1402.9,538.9,1423,563.5,1423z"/>
<path class="st2" d="M1014.8,454.5v930c0,27.1-22,49.1-49.1,49.1H550.5c-27.1,0-49-22-49-49.1v-930c0-0.8,0-1.6,0.1-2.4
	c1.2-26,22.7-46.7,49-46.7h415.2C992.8,405.4,1014.8,427.4,1014.8,454.5z"/>
<path class="st7" d="M584,1423h376.8c25.7,0,46.5-20.8,46.5-46.5V460.9c0-25.7-20.8-46.5-46.5-46.5H584c-25.7,0-46.5,20.8-46.5,46.5
	v915.6C537.5,1402.1,558.3,1423,584,1423z"/>
<path class="st8" d="M972,459.1v919.1c0,24.7-20,44.7-44.7,44.7H582.2c-24.7,0-44.7-20-44.7-44.7V459.1c0-24.7,20-44.7,44.7-44.7
	h345.1C952,414.4,972,434.4,972,459.1z"/>
<linearGradient id="SVGID_11_" gradientUnits="userSpaceOnUse" x1="-2137.8938" y1="1516.6857" x2="-2088.2742" y2="1305.8024" gradientTransform="matrix(0.8811 -0.473 -0.473 -0.8811 3203.4143 824.7102)">
	<stop  offset="0" style="stop-color:#FFFFFF"/>
	<stop  offset="1" style="stop-color:#F0F0E3"/>
</linearGradient>
<path class="st9" d="M867.2,477.1c-1.9-24.8-8.5-49.1-20.4-71.7h-172c6.8,2,13.3,4.5,19.5,7.5c20.7,10,37.8,25.5,48.7,45.9
	c6,11.2,9.7,23,11.4,35.2c4.7,34.8-7.5,72.1-33,103.1c-14.3,17.3-32.6,32.6-54.5,44.3s-44.8,18.6-67.1,20.9
	c-37.1,3.8-72.4-4.8-98.4-24.7v118.6c30.7,7.5,64.1,9.3,98.2,5.1c37.4-4.6,75.6-16.5,112.2-36.1c36.6-19.7,67.6-45,92.2-73.6
	C848.6,599.6,871.6,536.7,867.2,477.1z"/>
<path class="st2" d="M804,651.6c-24.5,28.6-55.6,54-92.2,73.6c-36.6,19.6-74.9,31.5-112.3,36.1l0.2-99c22.3-2.3,45.2-9.2,67.1-20.9
	c21.9-11.7,40.3-27.1,54.5-44.4L804,651.6z"/>
<path class="st2" d="M867.2,477.1L754.5,494c-1.7-12.2-5.4-24.1-11.4-35.2c-11-20.4-28-35.9-48.7-45.9l6.8-7.5h145.7
	C858.7,428,865.3,452.3,867.2,477.1z"/>
<linearGradient id="SVGID_13_" gradientUnits="userSpaceOnUse" x1="224.5905" y1="797.3063" x2="440.644" y2="797.3063" gradientTransform="matrix(1 0 0 -1 0 1694.39)">
	<stop  offset="0" style="stop-color:#D2AA68"/>
	<stop  offset="1" style="stop-color:#FFFFFF"/>
</linearGradient>
<path class="st10" d="M378.8,799.4c-43.4-20.5-93.6-9.6-124.8,23.6c-7.6,8-14,17.4-19,27.9c-15.1,31.8-13.2,67.3,2,96.3
	c10.5,20.1,27.4,37,49.5,47.5c2.2,1,4.4,2,6.6,2.9c10.1,4,20.5,6.3,30.8,7.2c43.5,3.5,86.6-19.7,106.3-61.5
	C455.8,889.3,432.7,824.9,378.8,799.4z M405.8,931.7c-14.8,31.3-47.1,48.7-79.7,46.1c-7.8-0.6-15.6-2.4-23.1-5.4
	c-1.7-0.7-3.3-1.4-5-2.2c-16.5-7.8-29.2-20.5-37.1-35.6c-11.4-21.7-12.8-48.3-1.5-72.2c3.7-7.9,8.6-14.9,14.2-20.9
	c23.4-24.9,61-33.1,93.6-17.7C407.7,843,424.9,891.2,405.8,931.7z"/>
<g>
	<g>
		<path class="st2" d="M260.9,934.6L237,947.2c-15.2-29-17-64.5-2-96.3c5-10.5,11.4-19.8,19-27.9l19.7,18.5
			c-5.7,6-10.5,13-14.2,20.9C248.1,886.3,249.5,912.9,260.9,934.6z"/>
	</g>
</g>
<g>
	<g>
		<path class="st11" d="M303,972.4l-9.9,25.2c-2.2-0.9-4.4-1.8-6.6-2.9c-22.1-10.4-39-27.4-49.5-47.5l23.9-12.5
			c7.9,15.1,20.5,27.8,37.1,35.6C299.6,971,301.3,971.7,303,972.4z"/>
	</g>
</g>
<rect x="160.1" y="1088.9" class="st8" width="55.4" height="14.9"/>
<rect x="160.1" y="1118.8" class="st8" width="55.4" height="14.9"/>
<rect x="160.1" y="1059.1" class="st8" width="55.4" height="14.9"/>
<g>
	<g>
		<defs>
			<polygon id="SVGID_14_" points="1,1 2,1 1,2 			"/>
		</defs>
		<defs>
			<polygon id="SVGID_16_" points="-1,-1 -2,-1 -1,-2 			"/>
		</defs>
		<clipPath id="SVGID_17_">
			<use xlink:href="#SVGID_14_"  style="overflow:visible;"/>
		</clipPath>
		<clipPath id="SVGID_18_" class="st12">
			<use xlink:href="#SVGID_16_"  style="overflow:visible;"/>
		</clipPath>
		
			<linearGradient id="SVGID_19_" gradientUnits="userSpaceOnUse" x1="938" y1="360.5413" x2="938" y2="-12.5165" gradientTransform="matrix(1 0 0 -1 0 1694.39)">
			<stop  offset="0" style="stop-color:#FFFFFF"/>
			<stop  offset="1" style="stop-color:#000000"/>
		</linearGradient>
		<ellipse class="st13" cx="938" cy="1493.6" rx="295.1" ry="24.7"/>
	</g>
</g>
<ellipse class="st14" cx="938" cy="1493.6" rx="295.1" ry="24.7"/>
<path class="st15" d="M2006.3,1274.8c0,0-0.2-16.8,22.9-18c26.5-1.4,198.9-2.5,198.9-2.5l-1.1,17.9L2006.3,1274.8z"/>
<g>
	<path class="st16" d="M1892.4,1191.8c-0.6-2.6-0.3-6.6,7.8-11.2c8.1-4.6,26.3-17.7,32.5-18c6.2-0.4,15.7,2,18.2,1.9
		s7.4,16.7,7.4,16.7L1892.4,1191.8z"/>
</g>
<g>
	<polygon class="st17" points="2109.5,1026.4 2055.2,1133.1 1943.6,1161.8 1954.4,1190 2074.3,1181.5 2133.1,1083.6 	"/>
</g>
<g>
	<g>
		<g>
			<path class="st18" d="M1779.1,1459.7c0,0-24.9,10.5-36.1,14.1s-51.9-0.5-56.5,2.8c-4.5,3.3-4.7,15.6,1.8,17.8
				c6.6,2.2,55.3,13.4,72.3,11.8s46.9,9.1,54,7.7s7.8-38.7,6.3-47.4C1819.5,1457.9,1779.1,1459.7,1779.1,1459.7z"/>
		</g>
	</g>
</g>
<g>
	<g>
		<g>
			<path class="st19" d="M1784.9,1444.7l-5.7,15c0,0,30.1,10,41.9,6.8l3.9-15.3L1784.9,1444.7z"/>
		</g>
	</g>
</g>
<g>
	<g>
		<g>
			<path class="st20" d="M1846.4,1473c0,0-23.5,13.4-34.2,18.3c-10.6,4.9-51.6,5.7-55.7,9.5s-2.8,16,3.9,17.4
				c6.8,1.4,56.5,6.7,73.2,3.1s47.6,3.5,54.6,1.3c6.9-2.2,3.1-39.4,0.6-47.8C1886.2,1466.5,1846.4,1473,1846.4,1473z"/>
		</g>
	</g>
</g>
<g>
	<g>
		<g>
			<path class="st19" d="M1849.9,1457.5l-3.5,15.6c0,0,31,6.4,42.4,1.8l2.1-15.6L1849.9,1457.5z"/>
		</g>
	</g>
</g>
<g>
	<path class="st21" d="M2085.7,1177.3c0,0-107.3,0.9-120.4,2.6c-14.3,1.9-68.2,2.4-74.9,12c-68,96.2-114.3,254.9-114.3,254.9
		l53.8,9.9c0,0,52-93.9,73.8-142.7c19.6-43.8,36.3-55.1,77.3-54.1c41.1,1,172.4-7.5,248.1-16.2L2085.7,1177.3z"/>
</g>
<g>
	<path class="st22" d="M2062.5,957.9c0,0-10.5,46.2-7.9,71.6c2.6,25.4,43.2,89.2,45.1,103.4c1.9,14.2-9.2,43.5-9.2,43.5l140.6,65.1
		c0,0-0.2-40.7-6-89s-24-86.5-30.3-113.8c-21.7-93.2-101.3-106.1-101.3-106.1L2062.5,957.9z"/>
</g>
<g>
	<path class="st1" d="M2091,1175.1c0,0-110.5,0.9-123.6,2.6c-14.3,1.9-71.3,2.8-76.8,13.1c-39,73.4-47.7,269.2-47.7,269.2l50.1,5.7
		c0,0,24.6-99.4,32.4-146.7c7.7-47.3,17.4-54.2,58.5-53.3c41.1,1,201.9,43.8,247.3-24.2L2091,1175.1z"/>
</g>
<g>
	<path class="st16" d="M1956.2,883.7c0,0,1.3,28.3,9,28.2c6.4-0.1,8.7,27,9.4,31.3c0.7,4.2,12.1,0.8,15.5,1.7s26,24.3,34.6,20.3
		c8.6-4.1,37.7-38.9,41.4-55.3c3.8-16.4-16.2-68.3-34.8-84.1C2012.8,810,1954.1,834.1,1956.2,883.7z"/>
</g>
<g>
	<path class="st16" d="M2038.9,942.6c0,0,1.3,2.3,3.3,5.8c1.5,2.6,3.3,5.9,5.2,9.5c5.2,9.7,11.1,21.6,12.4,27.7
		c2.5,11.3,28.3-52.3,28.3-52.3s-18.7-32.5-33.5-71.7C2039.8,822.4,2038.9,942.6,2038.9,942.6z"/>
</g>
<g>
	<path class="st23" d="M1956.7,889.7c0,0-25.6-16-14.5-46s68.6-23.6,73.7-25.1s31-14.8,45.2,37s9.7,44.5,9.7,44.5
		s-17.2-18-26.4-15.1c-9.9,3.2-25.4,9.9-25.4,9.9s-4.5-24.6-18-20.3C1987.5,878.8,1965.9,878.1,1956.7,889.7z"/>
</g>
<g>
	<path class="st16" d="M2024.6,875.8c-0.6-3.4-4.3-17.2,10-16.3c14.3,0.8,11.2,33,9.6,34.3C2042.6,895.2,2029.7,904.2,2024.6,875.8z
		"/>
</g>
<g>
	<path class="st24" d="M2042.3,948.4c1.5,2.6,3.3,5.9,5.2,9.5c9.9-17.8,15.7-37,17.3-42.9C2061.2,925.2,2042.3,948.4,2042.3,948.4z"
		/>
</g>
<g>
	<path class="st25" d="M2032.7,952.3c0,0,0.2-9.4,0.6-12.3c0.4-2.9-5.7-0.9-6.9,2.4C2025.3,945.8,2032.7,952.3,2032.7,952.3z"/>
</g>
<g>
	<path class="st26" d="M1987.6,947.2c0,0-1,4.1-0.5,6.1c0,0,1.1,3.6,1.7,6.2c0.2,0.8,0.4,1.6,0.4,2c0.2,2,0.1,6.4,2,11.1
		c1.9,4.6,11.3,24.9,11.3,24.9l13.3-3.9l10.5-3.5c0,0,8.2-31.9,7-36.5c-0.1-0.4-0.3-0.9-0.4-1.3c-1.4-3.7-4-5.9-5-7.8
		c-0.4-0.7-4.4-7.3-6.7-7.6c-3.2-0.5-5.6,0.5-7,2.2c0,0-6.2-0.6-9.8,1.7c0,0-5.7-0.8-9.3,3.4C1995.1,944.2,1989.2,944,1987.6,947.2z
		"/>
</g>
<g>
	<path class="st27" d="M2085.3,928.1c0,0-16.3,37.9-30.1,50.8l6.6,22.5l31.7-69L2085.3,928.1z"/>
</g>
<g>
	<path class="st21" d="M2091,1175.1c0,0,2-5.4,3.6-10.7s43.2,16.6,43.2,16.6l-10,11.6L2091,1175.1z"/>
</g>
<g>
	<path class="st2" d="M2066.7,1046.8c4,8.1,7.8,16.4,11.4,24.7l0,0c7.9,18.3,15,36.9,21.2,55.1c2.2,6.5,4.3,12.9,6.3,19.3
		c23.9,75.8,33.5,140,33.5,140s89.5-23.8,102.9-35.6c0,0-21.8-317-148.5-317.8l0,0C2092.6,933.7,2045.8,1004.1,2066.7,1046.8z"/>
</g>
<g>
	<path class="st28" d="M2099.2,1126.6c2.2,6.5,4.3,12.9,6.3,19.3c19.7-31.2,54.5-106.1,55-107.3L2099.2,1126.6z"/>
</g>
<g>
	<path class="st2" d="M2030.9,984.7l-34,11.3l31.3,165c3.5,15.6,23.2,20.8,33.9,8.8c29.2-32.8,75.6-87.5,95.9-126.1
		c30.8-58.6-20.6-79-32.9-64.2c-12.3,14.8-66.7,114.3-66.7,114.3L2030.9,984.7z"/>
</g>
<path class="st29" d="M2288.3,905l-52.6,154.2c-0.4,1.2-0.6,2.4-0.7,3.6l-12.6,202.8l-219.9,4.9l-64.1,233.3
	c-1.9,7.1-0.7,14.6,3.5,20.6c2.8,4,6.8,7.4,12.3,8.1c13.9,1.7,296.3,0,296.3,0v-11.7c0-5.8-4.8-10.5-10.7-10.5h-263.9
	c-4.4,0-8.5-1.9-11.2-5.3c-1.6-2-2.7-4.4-2.2-7.2c1.2-7.4,57.5-197.5,57.5-197.5l212.6-3.8c9.7-0.2,17.5-7.7,18-17.2l9.2-218.2
	c0.1-1.4,0.3-2.8,0.7-4.1l43-147.5c0,0,4.5-10.3-3.8-11.3C2291.4,897.4,2289.2,902.3,2288.3,905z"/>
<path class="st15" d="M1887.3,1130.3v8h-381.5v-8c0-7.5,5-13.5,11.2-13.5h359.1C1882.3,1116.7,1887.3,1122.8,1887.3,1130.3z"/>
<path class="st30" d="M1642.7,1528.5h-115.3v-18.4h104c6.3,0,11.3,5.1,11.3,11.3V1528.5z"/>
<rect x="1534.7" y="1138.3" class="st30" width="15.2" height="390.3"/>
<rect x="1565.4" y="1138.3" class="st30" width="15.2" height="390.3"/>
<rect x="1679.7" y="820.7" class="st31" width="12.2" height="270.4"/>
<g>
	<path class="st32" d="M1666.7,1116.7h-67.1v-4.1h67.1c3.5,0,6-0.8,7.5-2.5c1.8-2,1.5-4.6,1.5-4.7v-0.1v-0.1v-86.7h4.1v86.6
		c0.1,0.8,0.2,4.6-2.5,7.7C1675,1115.4,1671.5,1116.7,1666.7,1116.7z"/>
</g>
<path class="st31" d="M1756.3,1109.6h-69v7.1h75.5v-0.6C1762.8,1112.5,1759.9,1109.6,1756.3,1109.6z"/>
<path class="st33" d="M1725.4,1138.3h-219.6v-8c0-7.5,5.2-13.5,11.5-13.5H1691L1725.4,1138.3z"/>
<g>
	<g>
		<path class="st34" d="M1528,1039c0,0,21.1,3.2,51.8,19.5C1610.5,1074.8,1555.7,1063.4,1528,1039z"/>
		<path class="st35" d="M1584,1060.8c0,0-15.3-29.1-39-42.4c0,0,6.9,20.2,32,41.9C1601.9,1082,1584,1060.8,1584,1060.8z"/>
		<path class="st36" d="M1596.2,1040.9c0,0,15.8-19.3,22.1-28.1c6.3-8.8-13.2,41-14.9,46.3
			C1601.8,1064.4,1595.1,1068.9,1596.2,1040.9z"/>
		<path class="st37" d="M1581.1,1070.7c-7-10.5-11.9-57.9-11.9-57.9c12.3,10.2,23.8,55.9,23.8,55.9S1588.1,1081.2,1581.1,1070.7z"/>
		<path class="st38" d="M1582.7,1065.9c-2.1-4.5,0.7-62.5,2.4-57.3c1.7,5.3,11.2,27,11.2,27
			C1597.7,1048.8,1584.8,1070.4,1582.7,1065.9z"/>
		<path class="st39" d="M1598.8,1053.1c3.7-6.8,40.5-43,40.5-43c-0.4,11.2-23.1,37.9-23.1,37.9S1595.1,1059.8,1598.8,1053.1z"/>
		<path class="st35" d="M1581.1,1069.9c42.4-15.6,82.4-7.5,82.4-7.5c-5.8,8-61.4,7.5-61.4,7.5H1581.1z"/>
		<path class="st40" d="M1590,1071.3c21.6-23.5,72.4-34.8,72.4-34.8c-15,15.3-36.6,28.8-36.6,28.8S1568.4,1094.8,1590,1071.3z"/>
		<path class="st41" d="M1585.7,1068.7c12.6-23.4,60.7-46.4,60.7-46.4c0,7.4-38.9,41.6-38.9,41.6S1573,1092.1,1585.7,1068.7z"/>
		<path class="st42" d="M1586,1071c-9.5-1.7-44.5-36.1-44.5-36.1c9.1,1.8,44.5,24.2,44.5,24.2S1595.5,1072.8,1586,1071z"/>
		<path class="st43" d="M1569.2,1071.2c-11.9,0.5-50.1-23.3-50.1-23.3c11.4,0,37.7,6.9,50.5,10.5c4.8,1.4,8.9,4.6,11.4,8.9
			C1587.8,1079.5,1579.6,1070.7,1569.2,1071.2z"/>
		<path class="st44" d="M1525,1060.9c3.6-0.3,26.5,0.7,36.4,1.2c3.9,0.2,7.7,1.6,10.6,4.2c4.3,3.7,3,6.4-2.8,7.6
			C1561.5,1075.4,1520.4,1061.2,1525,1060.9z"/>
		<path class="st45" d="M1587,1067.1c-0.8-3.6-1-7.3-0.5-11c1.7-12.5,7.5-51.2,16-57c0,0,3.8,50.1-4.2,67
			C1592.2,1078.7,1588.6,1074,1587,1067.1z"/>
		<path class="st46" d="M1587.1,1073.9c-4.8-4.6-24.5-49.2-24.5-49.2c18.4,10.8,26.6,32.6,26.6,32.6S1591.9,1078.5,1587.1,1073.9z"
			/>
	</g>
	<polygon class="st47" points="1632.3,1077.3 1626.3,1116.7 1554.7,1116.7 1548.7,1077.3 	"/>
	<path class="st48" d="M1548.7,1077.3h83.7l-6.1,39.4h-15.1c0,0-12.9-25.2-60.8-28L1548.7,1077.3z"/>
	<rect x="1545.4" y="1068.8" class="st47" width="90.3" height="13.2"/>
</g>
<g>
	<g>
		<defs>
			<polygon id="SVGID_20_" points="1,1 2,1 1,2 			"/>
		</defs>
		<defs>
			<polygon id="SVGID_21_" points="-1,-1 -2,-1 -1,-2 			"/>
		</defs>
		<clipPath id="SVGID_22_">
			<use xlink:href="#SVGID_20_"  style="overflow:visible;"/>
		</clipPath>
		<clipPath id="SVGID_23_" class="st49">
			<use xlink:href="#SVGID_21_"  style="overflow:visible;"/>
		</clipPath>
		
			<linearGradient id="SVGID_24_" gradientUnits="userSpaceOnUse" x1="1633.8705" y1="1142.0474" x2="2195.7456" y2="544.8338" gradientTransform="matrix(1 0 0 -1 0 1694.39)">
			<stop  offset="0" style="stop-color:#FFFFFF"/>
			<stop  offset="0.1477" style="stop-color:#D9D9D9"/>
			<stop  offset="1" style="stop-color:#000000"/>
		</linearGradient>
		<path class="st50" d="M1818.5,571.9c0-33.3-27-60.2-60.2-60.2c-2.9,0-5.8,0.3-8.7,0.7c-8.4-33.8-38.9-59-75.4-59
			c-34.9,0-64.4,23-74.3,54.7c-1.2,0-2.3-0.1-3.5-0.1c-46.1,0-83.4,37.3-83.4,83.4c0,41.1,29.8,75.3,69,82.1
			c2.8,14.8,15.8,25.9,31.3,25.9c6.5,0,12.5-1.9,17.5-5.2c14.8,13.3,34.3,21.4,55.7,21.4c46.1,0,83.4-37.3,83.4-83.4
			c0-0.4,0-0.8,0-1.2C1797.6,625.5,1818.5,601.1,1818.5,571.9z"/>
	</g>
</g>
<linearGradient id="SVGID_25_" gradientUnits="userSpaceOnUse" x1="1633.8705" y1="1142.0474" x2="2195.7456" y2="544.8338" gradientTransform="matrix(1 0 0 -1 0 1694.39)">
	<stop  offset="0" style="stop-color:#D2AA68"/>
	<stop  offset="1" style="stop-color:#FFFFFF"/>
</linearGradient>
<path class="st51" d="M1818.5,571.9c0-33.3-27-60.2-60.2-60.2c-2.9,0-5.8,0.3-8.7,0.7c-8.4-33.8-38.9-59-75.4-59
	c-34.9,0-64.4,23-74.3,54.7c-1.2,0-2.3-0.1-3.5-0.1c-46.1,0-83.4,37.3-83.4,83.4c0,41.1,29.8,75.3,69,82.1
	c2.8,14.8,15.8,25.9,31.3,25.9c6.5,0,12.5-1.9,17.5-5.2c14.8,13.3,34.3,21.4,55.7,21.4c46.1,0,83.4-37.3,83.4-83.4
	c0-0.4,0-0.8,0-1.2C1797.6,625.5,1818.5,601.1,1818.5,571.9z"/>
<g>
	<g>
		<defs>
			<polygon id="SVGID_26_" points="1,1 2,1 1,2 			"/>
		</defs>
		<defs>
			<polygon id="SVGID_27_" points="-1,-1 -2,-1 -1,-2 			"/>
		</defs>
		<clipPath id="SVGID_28_">
			<use xlink:href="#SVGID_26_"  style="overflow:visible;"/>
		</clipPath>
		<clipPath id="SVGID_29_" class="st52">
			<use xlink:href="#SVGID_27_"  style="overflow:visible;"/>
		</clipPath>
		
			<linearGradient id="SVGID_30_" gradientUnits="userSpaceOnUse" x1="1645.6405" y1="1153.1212" x2="2207.5149" y2="555.9084" gradientTransform="matrix(1 0 0 -1 0 1694.39)">
			<stop  offset="0" style="stop-color:#FFFFFF"/>
			<stop  offset="1" style="stop-color:#000000"/>
		</linearGradient>
		<circle class="st53" cx="1818.5" cy="725" r="40.8"/>
	</g>
</g>
<linearGradient id="SVGID_31_" gradientUnits="userSpaceOnUse" x1="1645.6405" y1="1153.1212" x2="2207.5149" y2="555.9084" gradientTransform="matrix(1 0 0 -1 0 1694.39)">
	<stop  offset="0" style="stop-color:#D2AA68"/>
	<stop  offset="1" style="stop-color:#FFFFFF"/>
</linearGradient>
<circle class="st54" cx="1818.5" cy="725" r="40.8"/>
<g>
	<g>
		<defs>
			<polygon id="SVGID_32_" points="1,1 2,1 1,2 			"/>
		</defs>
		<defs>
			<polygon id="SVGID_33_" points="-1,-1 -2,-1 -1,-2 			"/>
		</defs>
		<clipPath id="SVGID_34_">
			<use xlink:href="#SVGID_32_"  style="overflow:visible;"/>
		</clipPath>
		<clipPath id="SVGID_35_" class="st55">
			<use xlink:href="#SVGID_33_"  style="overflow:visible;"/>
		</clipPath>
		
			<linearGradient id="SVGID_36_" gradientUnits="userSpaceOnUse" x1="1644.3527" y1="1151.9122" x2="2206.2319" y2="554.694" gradientTransform="matrix(1 0 0 -1 0 1694.39)">
			<stop  offset="0" style="stop-color:#FFFFFF"/>
			<stop  offset="1" style="stop-color:#000000"/>
		</linearGradient>
		<circle class="st56" cx="1890.4" cy="804" r="20"/>
	</g>
</g>
<linearGradient id="SVGID_37_" gradientUnits="userSpaceOnUse" x1="1644.3527" y1="1151.9122" x2="2206.2319" y2="554.694" gradientTransform="matrix(1 0 0 -1 0 1694.39)">
	<stop  offset="0" style="stop-color:#D2AA68"/>
	<stop  offset="1" style="stop-color:#FFFFFF"/>
</linearGradient>
<circle class="st57" cx="1890.4" cy="804" r="20"/>
<g>
	<path class="st58" d="M1646,605c0-5.4,0.9-10.2,2.6-14.5c1.8-4.3,5.4-8,10.8-11.2c1.6-1,3.7-2.1,6.1-3.4c2.4-1.3,4.8-2.8,7.1-4.5
		c2.3-1.8,4.2-3.8,5.8-6.2c1.6-2.4,2.4-5.1,2.4-8.1c0-2.3-0.4-4.3-1.3-6.1s-2-3.2-3.5-4.4c-1.4-1.2-3.1-2.1-5-2.7
		c-1.9-0.6-3.9-0.9-5.8-0.9c-2.4,0-4.6,0.4-6.6,1.2s-3.8,1.9-5.3,3.1c-1.6,1.3-3,2.7-4.3,4.3s-2.3,3.1-3.2,4.5l-14.3-9.9
		c1.4-3.4,3.3-6.4,5.7-9c2.4-2.6,5-4.8,8-6.7c3-1.8,6.3-3.2,9.8-4.1c3.5-0.9,7.1-1.4,10.8-1.4c4.2,0,8.3,0.6,12.3,1.8
		c4.1,1.2,7.7,3.1,10.9,5.8c3.2,2.6,5.9,6,7.9,10.1s3,9,3,14.7c0,3.5-0.4,6.6-1.2,9.3c-0.8,2.7-2,5.1-3.5,7.3s-3.3,4.2-5.4,5.9
		c-2.1,1.8-4.4,3.5-7.1,5.1c-2.2,1.3-4.4,2.6-6.6,3.8s-4.2,2.5-6,4s-3.3,3.2-4.4,5.1c-1.2,1.9-1.7,4.2-1.7,7h-18V605z M1646.3,643.3
		v-22.7h18.2v22.7H1646.3z"/>
</g>
<g>
	<g>
		<g>
			<g>
				<polygon class="st59" points="851.4,313.8 982,240.7 937.1,237.7 				"/>
			</g>
		</g>
	</g>
	<g>
		<g>
			<g>
				<polygon class="st60" points="851.4,313.8 891.6,249.1 925.3,248.2 				"/>
			</g>
		</g>
	</g>
	<g>
		<g>
			<g>
				<polygon class="st61" points="952,257.5 954.6,274 851.4,313.8 				"/>
			</g>
		</g>
	</g>
</g>
<g>
	<path class="st14" d="M1425.5,827.6H998.1c-19.7,0-35.6-16-35.6-35.6V284.1c0-19.7,16-35.6,35.6-35.6h427.4
		c19.7,0,35.6,16,35.6,35.6V792C1461.1,811.7,1445.2,827.6,1425.5,827.6z"/>
</g>
<linearGradient id="SVGID_38_" gradientUnits="userSpaceOnUse" x1="1154.5499" y1="1377.028" x2="1154.5499" y2="1601.2523" gradientTransform="matrix(1 0 0 -1 0 1694.39)">
	<stop  offset="0" style="stop-color:#D2AA68"/>
	<stop  offset="1" style="stop-color:#FFFFFF"/>
</linearGradient>
<path class="st62" d="M1315.2,228.4H993.9c-11.1,0-20.2-9-20.2-20.2v-96.8c0-11.1,9-20.2,20.2-20.2h321.3c11.1,0,20.2,9,20.2,20.2
	v96.8C1335.4,219.4,1326.3,228.4,1315.2,228.4z"/>
<g>
	<g>
		<path class="st58" d="M1265.2,488.7c-19.1-53.3-70.1-86.1-123.8-84.5c-13,0.4-26.2,2.8-39.1,7.4c-39.1,14-67.2,45.2-78.7,82
			c-8,25.5-8,53.8,1.7,80.9c1,2.7,2,5.4,3.1,7.9c5.1,11.8,11.8,22.4,19.8,31.7c33.3,39.2,88.7,55.8,140,37.4
			C1254.4,627.9,1288.9,555,1265.2,488.7z M1177.4,621.6c-38.5,13.8-80,1.3-105-28c-6-7-11-15-14.8-23.8c-0.8-1.9-1.6-3.9-2.4-6
			c-7.3-20.3-7.2-41.5-1.2-60.6c8.6-27.6,29.7-51,59-61.5c9.7-3.5,19.6-5.3,29.3-5.6c40.3-1.2,78.5,23.4,92.8,63.3
			C1253,549.1,1227.1,603.8,1177.4,621.6z"/>
	</g>
</g>
<g>
	<g>
		<path class="st2" d="M1054,503.1l-30.4-9.5c11.5-36.8,39.6-68,78.7-82c12.9-4.6,26.1-7,39.1-7.4l1,31.9
			c-9.8,0.3-19.6,2.1-29.3,5.6C1083.7,452.2,1062.7,475.5,1054,503.1z"/>
	</g>
</g>
<g>
	<g>
		<path class="st11" d="M1057.6,569.7l-29.2,12.7c-1.1-2.6-2.2-5.2-3.1-7.9c-9.7-27.1-9.7-55.4-1.7-80.9l30.4,9.5
			c-6,19.1-6,40.3,1.2,60.6C1056,565.8,1056.8,567.8,1057.6,569.7z"/>
	</g>
</g>
<g>
	<g>
		<path class="st2" d="M1048.1,614.2c-8-9.3-14.6-20-19.8-31.7l29.2-12.7c3.8,8.8,8.8,16.8,14.8,23.8L1048.1,614.2z"/>
	</g>
</g>
<g>
	<g>
		<path class="st58" d="M1375.7,566.5c-21.2-10-45.7-4.7-60.9,11.5c-3.7,3.9-6.8,8.5-9.3,13.6c-7.4,15.5-6.4,32.9,1,47
			c5.1,9.8,13.4,18.1,24.1,23.2c1.1,0.5,2.2,1,3.2,1.4c4.9,1.9,10,3.1,15.1,3.5c21.2,1.7,42.3-9.6,51.9-30
			C1413.3,610.4,1402,579,1375.7,566.5z M1388.9,631.1c-7.2,15.3-23,23.8-38.9,22.5c-3.8-0.3-7.6-1.2-11.3-2.6
			c-0.8-0.3-1.6-0.7-2.4-1.1c-8.1-3.8-14.3-10-18.1-17.4c-5.5-10.6-6.2-23.6-0.7-35.2c1.8-3.8,4.2-7.3,6.9-10.2
			c11.4-12.1,29.8-16.1,45.7-8.6C1389.8,587.8,1398.2,611.4,1388.9,631.1z"/>
	</g>
</g>
<g>
	<g>
		<path class="st17" d="M1318.1,632.5l-11.7,6.1c-7.4-14.1-8.3-31.5-1-47c2.4-5.1,5.6-9.7,9.3-13.6l9.6,9c-2.8,2.9-5.1,6.4-6.9,10.2
			C1311.9,608.9,1312.6,621.9,1318.1,632.5z"/>
	</g>
</g>
<g>
	<g>
		<path class="st63" d="M1338.7,651l-4.8,12.3c-1.1-0.4-2.2-0.9-3.2-1.4c-10.8-5.1-19-13.4-24.1-23.2l11.7-6.1
			c3.8,7.3,10,13.6,18.1,17.4C1337.1,650.3,1337.9,650.6,1338.7,651z"/>
	</g>
</g>
<g>
	<g>
		<path class="st58" d="M1400.8,476.2c10-21.2,4.7-45.7-11.5-60.9c-3.9-3.7-8.5-6.8-13.6-9.3c-15.5-7.4-32.9-6.4-47,1
			c-9.8,5.1-18.1,13.4-23.2,24.1c-0.5,1.1-1,2.2-1.4,3.2c-1.9,4.9-3.1,10-3.5,15.1c-1.7,21.2,9.6,42.3,30,51.9
			C1356.9,513.8,1388.3,502.5,1400.8,476.2z M1336.3,489.4c-15.3-7.2-23.8-23-22.5-38.9c0.3-3.8,1.2-7.6,2.6-11.3
			c0.3-0.8,0.7-1.6,1.1-2.4c3.8-8.1,10-14.3,17.4-18.1c10.6-5.5,23.6-6.2,35.3-0.7c3.8,1.8,7.3,4.2,10.2,6.9
			c12.1,11.4,16.1,29.8,8.6,45.7C1379.5,490.3,1356,498.7,1336.3,489.4z"/>
	</g>
</g>
<g>
	<g>
		<path class="st11" d="M1334.8,418.7l-6.1-11.7c14.1-7.4,31.5-8.3,47-1c5.1,2.4,9.7,5.6,13.6,9.3l-9,9.6c-2.9-2.8-6.4-5.1-10.2-6.9
			C1358.4,412.4,1345.4,413.1,1334.8,418.7z"/>
	</g>
</g>
<g>
	<g>
		<path class="st17" d="M1316.4,439.2l-12.3-4.8c0.4-1.1,0.9-2.2,1.4-3.2c5.1-10.8,13.4-19,23.2-24.1l6.1,11.7
			c-7.3,3.8-13.6,10-17.4,18.1C1317,437.6,1316.7,438.4,1316.4,439.2z"/>
	</g>
</g>
<g>
	<g>
		<path class="st2" d="M1300.6,449.4c0.4-5.1,1.6-10.1,3.5-15.1l12.3,4.8c-1.5,3.7-2.3,7.5-2.6,11.3L1300.6,449.4z"/>
	</g>
</g>
<g>
	<polygon class="st58" points="1337,701.5 1238.5,701.5 1238.5,699.5 1335,699.5 1335,662.3 1337,662.3 	"/>
</g>
<g>
	<polygon class="st58" points="1151.6,701.5 1023.6,701.5 1023.6,699.5 1149.6,699.5 1149.6,638.7 1151.6,638.7 	"/>
</g>
<g>
	
		<linearGradient id="SVGID_39_" gradientUnits="userSpaceOnUse" x1="1023.6" y1="1009.34" x2="1111.7" y2="1009.34" gradientTransform="matrix(1 0 0 -1 0 1694.39)">
		<stop  offset="0" style="stop-color:#D2AA68"/>
		<stop  offset="1" style="stop-color:#FFFFFF"/>
	</linearGradient>
	<rect x="1023.6" y="679.2" class="st64" width="88.1" height="11.7"/>
</g>
<g>
	
		<linearGradient id="SVGID_40_" gradientUnits="userSpaceOnUse" x1="1238.5" y1="1009.34" x2="1290.3" y2="1009.34" gradientTransform="matrix(1 0 0 -1 0 1694.39)">
		<stop  offset="0" style="stop-color:#D2AA68"/>
		<stop  offset="1" style="stop-color:#FFFFFF"/>
	</linearGradient>
	<rect x="1238.5" y="679.2" class="st65" width="51.8" height="11.7"/>
</g>
<g>
	<path class="st2" d="M1256.7,203.9c-23.2,0-42.1-18.9-42.1-42.1s18.9-42.1,42.1-42.1s42.1,18.9,42.1,42.1
		C1298.7,185,1279.9,203.9,1256.7,203.9z M1256.7,120.8c-22.6,0-41.1,18.4-41.1,41.1c0,22.6,18.4,41.1,41.1,41.1
		c22.6,0,41.1-18.4,41.1-41.1C1297.7,139.2,1279.3,120.8,1256.7,120.8z"/>
</g>
<linearGradient id="SVGID_41_" gradientUnits="userSpaceOnUse" x1="1054.4" y1="1561.14" x2="1180.6" y2="1561.14" gradientTransform="matrix(1 0 0 -1 0 1694.39)">
	<stop  offset="0" style="stop-color:#D2AA68"/>
	<stop  offset="1" style="stop-color:#FFFFFF"/>
</linearGradient>
<rect x="1054.4" y="127.7" class="st66" width="126.2" height="11.1"/>
<linearGradient id="SVGID_42_" gradientUnits="userSpaceOnUse" x1="1073" y1="1532.54" x2="1180.6" y2="1532.54" gradientTransform="matrix(1 0 0 -1 0 1694.39)">
	<stop  offset="0" style="stop-color:#D2AA68"/>
	<stop  offset="1" style="stop-color:#FFFFFF"/>
</linearGradient>
<rect x="1073" y="156.3" class="st67" width="107.6" height="11.1"/>
<linearGradient id="SVGID_43_" gradientUnits="userSpaceOnUse" x1="1007.6" y1="1503.9401" x2="1180.7" y2="1503.9401" gradientTransform="matrix(1 0 0 -1 0 1694.39)">
	<stop  offset="0" style="stop-color:#D2AA68"/>
	<stop  offset="1" style="stop-color:#FFFFFF"/>
</linearGradient>
<rect x="1007.6" y="184.9" class="st68" width="173.1" height="11.1"/>
<g>
	<rect x="1003.6" y="298.2" class="st2" width="42.2" height="9"/>
</g>
<g>
	<rect x="1179.4" y="332.1" class="st58" width="65.4" height="9"/>
</g>
<g>
	<rect x="1094.8" y="332.1" class="st58" width="39.9" height="9"/>
</g>
<g>
	<rect x="1003.6" y="332.1" class="st58" width="79.1" height="9"/>
</g>
<g>
	<rect x="1058.6" y="298.2" class="st2" width="62.5" height="9"/>
</g>
<g>
	<rect x="1147.2" y="332.1" class="st58" width="17.2" height="9"/>
</g>
<g>
	<rect x="1198.1" y="298.7" class="st58" width="46.7" height="9"/>
</g>
<g>
	<rect x="1261.4" y="332.1" class="st58" width="39.8" height="9"/>
</g>
<g>
	<rect x="1136.4" y="298.7" class="st58" width="49.5" height="9"/>
</g>
<g>
	<g>
		<path class="st14" d="M991,220.9l-2.9-4.2c0,0,3-2.1,8.7-5.5l2.6,4.4C993.9,218.8,991,220.8,991,220.9z"/>
	</g>
	<g>
		<path class="st14" d="M1483.3,607.4c-1.3-6.1-2-12.8-2.3-20.5l5.1-0.2c0.3,7.4,1,13.9,2.2,19.6L1483.3,607.4z M1486.3,566.7
			l-5.1-0.3c0.3-6.2,0.9-12.9,1.7-20.3l5.1,0.5C1487.2,554,1486.7,560.5,1486.3,566.7z M1490.4,526.7l-5-0.7
			c0.9-6.5,1.8-13.2,2.8-20.1l5,0.7C1492.3,513.5,1491.3,520.1,1490.4,526.7z M1496.3,486.7l-5-0.8c1-6.6,2-13.2,2.9-20l5,0.7
			C1498.2,473.4,1497.3,480.1,1496.3,486.7z M1502,446.6l-5.1-0.7c0.9-6.6,1.7-13.3,2.4-20l5.1,0.6
			C1503.7,433.2,1502.9,439.9,1502,446.6z M1506.4,406.2l-5.1-0.4c0.6-6.9,1-13.6,1.3-20.1l5.1,0.2
			C1507.4,392.4,1506.9,399.3,1506.4,406.2z M1508.2,365.6h-5.1v-0.8c0-6.6-0.2-13.1-0.5-19.3l5.1-0.3c0.3,6.3,0.5,12.8,0.5,19.5
			V365.6z M1500.9,325.6c-0.8-6.8-1.9-13.5-3.1-19.8l5-1c1.3,6.4,2.4,13.2,3.2,20.2L1500.9,325.6z M1493,286.4
			c-1.9-6.5-4.2-12.8-6.7-18.8l4.7-2c2.6,6.1,4.9,12.6,6.9,19.3L1493,286.4z M1477.5,249.8c-3.3-5.8-7-11.3-11-16.6l4.1-3.1
			c4.1,5.4,7.9,11.2,11.3,17.1L1477.5,249.8z M1453.5,218.3c-4.6-4.6-9.6-9.1-14.9-13.2l3.1-4c5.4,4.2,10.6,8.8,15.4,13.6
			L1453.5,218.3z M1017,205.7l-2.4-4.5c5.8-3.1,12-6.2,18.2-9.1l2.2,4.6C1028.8,199.6,1022.7,202.7,1017,205.7z M1422.2,193.8
			c-5.5-3.4-11.4-6.5-17.6-9.5l2.2-4.6c6.3,3,12.3,6.3,18,9.7L1422.2,193.8z M1053.3,188.4l-2-4.7c6.2-2.6,12.5-5.2,18.8-7.6
			l1.8,4.8C1065.7,183.3,1059.4,185.8,1053.3,188.4z M1386.2,176.5c-6.2-2.4-12.6-4.7-18.9-6.8l1.6-4.8c6.4,2.1,12.8,4.5,19.1,6.9
			L1386.2,176.5z M1090.9,174.1l-1.6-4.8c6.4-2.2,12.9-4.2,19.4-6.1l1.4,4.9C1103.7,169.9,1097.2,171.9,1090.9,174.1z M1348.1,163.8
			c-6.4-1.8-13-3.5-19.5-4.9l1.1-5c6.6,1.5,13.2,3.2,19.7,5L1348.1,163.8z M1129.5,162.8l-1.2-4.9c6.6-1.6,13.3-3.2,19.8-4.5l1,5
			C1142.6,159.6,1136,161.1,1129.5,162.8z M1309,154.9c-6.5-1.1-13.2-2.1-19.9-2.9l0.6-5.1c6.7,0.8,13.5,1.8,20.1,3L1309,154.9z
			 M1168.9,154.7l-0.8-5c6.7-1.1,13.5-2,20.1-2.8l0.6,5.1C1182.2,152.7,1175.5,153.6,1168.9,154.7z M1269.1,150
			c-6.6-0.5-13.4-0.8-20.1-1l0.1-5.1c6.8,0.2,13.6,0.5,20.3,1L1269.1,150z M1208.8,150l-0.4-5.1c6.8-0.5,13.6-0.8,20.3-1l0.1,5.1
			C1222.3,149.2,1215.5,149.5,1208.8,150z"/>
	</g>
	<g>
		<path class="st14" d="M1497.9,635.5c-2.6-2.4-5-5.1-7-8.3l4.3-2.7c1.8,2.8,3.8,5.2,6.1,7.2L1497.9,635.5z"/>
	</g>
</g>
<g>
	<g>
		<path class="st16" d="M1121.1,901.1c0,0,12.6-0.2,17.1-5c4.5-4.9,12.4-9.2,15-10.5c3.4-1.7,12.8-10.8,14-6.3s-15,15.8-18.1,18.9
			c-3.1,3.1,13.4,4.4,15.8,7.4s-6,34.2-17,31.8s-20-13.5-22.1-13.5s-8.1-1.4-8.1-1.4L1121.1,901.1z"/>
	</g>
	<g>
		<path class="st16" d="M1162.6,904.2c0,0,32.8,10,34.2,12.9c1.4,2.8,0.4,4.9-2.7,4.1c-3.1-0.8-32.1-8.6-32.1-8.6
			s35.9,19.6,37.5,21.6c0.9,1.1-0.6,5.3-2.4,5c-1.7-0.2-38.7-17.2-38.7-17.2s33.5,18.4,34.3,20.6c0.7,1.9-1.5,5.4-4.1,4.3
			c-2.6-1.2-34.8-16.1-34.8-16.1s23.3,15.3,22.9,17.8c-0.2,1.5-1.4,5.1-7.3,0.9c-5.9-4.2-20.9-12.2-20.9-12.2L1162.6,904.2z"/>
	</g>
	<g>
		<path class="st69" d="M1052,1454.8c0,0,10.5,15.8,25.3,19.2c14.8,3.4,29.3,8.8,29.4,18.1c0.1,9.3-42.7,14.9-59.6,5.5
			c-25.2-14-27.8-9.8-30.6-16.8s3.4-25.8,3.2-28C1019.5,1450.1,1052,1454.8,1052,1454.8z"/>
	</g>
	<g>
		<path class="st70" d="M1050.4,1447.1c0,0,1.9,7.6,1.6,7.8c-0.3,0.2-33.3,4.1-32.3-2c0.8-5,2-10.3,2-10.3L1050.4,1447.1z"/>
	</g>
	<g>
		<path class="st69" d="M844.8,1453.8c0,0,7.5,15.1,20.3,20.2c13.7,5.5,24.7,11.8,24.5,20.9c-0.3,9.1-33.5,18.3-57.7,0.9
			c-15.3-11-20.1-11.1-22.6-18s4.3-25,4.2-27.1C813.3,1447.9,844.8,1453.8,844.8,1453.8z"/>
	</g>
	<g>
		<path class="st70" d="M845.2,1446c0,0-0.1,7.7-0.4,7.8c-0.3,0.1-32.2,2.8-31.4-3.2c0.6-4.7,3.1-10.5,3.1-10.5L845.2,1446z"/>
	</g>
	<g>
		<path class="st20" d="M962.1,985.6c0,0,41.9,160.5,57.8,197.6c14.8,34.4,19.7,82.4,21.7,106.6c2.6,30.4,17.8,148.6,19.6,157.5
			c1.8,8.9-49.3,4.9-49.3,4.9s-35.2-204.5-49.8-234.3c-9.8-19.9-66.4-162.7-72.8-154.5c-6.5,8.2-14.5,151.3-19.3,175.1
			c-4.8,23.8-19.5,211.4-19.5,211.4s-32.9,4.9-41.7-2.6c0,0-4-160.2-0.9-204.8c1.2-17-19.9-203.5,7.1-278.6
			C829.1,924.3,962.1,985.6,962.1,985.6z"/>
	</g>
	<g>
		<path class="st71" d="M728.8,870.5c0,1.8,3.5,9.2,9,19.7c8.1-16.2,14.4-29.5,16.5-34.4c6.8-16.1,41.9-53,41.9-53s0,0,0,0.1l0,0
			l0,0c0,0.1,0,0.1,0,0.2c0,0.1,0.1,0.2,0.1,0.3s0,0.1,0.1,0.2c0,0.1,0,0.1,0,0.1c1.9,7.1,13.7,51.7,14.1,73.6
			c0.5,23.9,6.7,68.1,6.7,68.1l0,0l7.3,1l16.2,2.3l1.9,0.3l4.7,0.7l43,6.1l15.3,2.1l2.1,0.3l8.7,1.2l24.1,3.4l6.1,0.9h0.1l4.6,0.6
			l6.4,0.9l0,0c0.2-0.2,6.2-8.5,5.3-26.8c-0.6-11.8-2-34-1.4-54.6c0-0.1,0-0.2,0-0.3c0-0.3,0-0.5,0-0.8c0-0.1,0-0.2,0-0.3l0,0
			c0.4-11.3,1.4-22,3.5-30.2c1.4-5.5,2.4-11,3-16.1c0-0.3,0.1-0.5,0.1-0.7c0.1-1,0.2-1.9,0.3-2.8c1.4-14.3,0.3-25.1,0.2-25.8v0.1
			c0.4,0.9,3.6,12.5,7.7,26.7c7,24,16.7,55.8,20.9,57.3c6,2.2,103.8,31.2,124.9,34.2c2.4,0.3,3.9,0.3,4-0.1c0.1-0.3,0.2-0.6,0.3-1
			c2.6-8.5,6.1-22.8,6.7-25.2c0.1-0.2,0.1-0.3,0.1-0.3l-3.8-1.1l-106.4-31.9l-48.6-140.3c-1-0.8-13-6.6-21.7-10.7
			c-8.9-4.2-19.6-10.5-29.3-15.8c-5-2.7-9.6-5.2-13.7-7l-0.6-0.3l0,0c-6.7-3.1-11.1-5.1-11.1-5.1l0,0c-0.2,0-1.2-0.1-2.9-0.3
			c-9.3-0.9-38.4-3.6-48.1-4.2c-0.8-0.1-1.5-0.1-2-0.1c-0.4,0-0.8,0-1,0c-1.2,0.1-7.2,2.2-15.1,5.2l0,0c-0.3,0.1-0.6,0.2-0.9,0.3
			c-0.4,0.1-0.7,0.3-1.1,0.4c-0.7,0.3-1.4,0.5-2.1,0.8c-1.4,0.5-2.9,1.1-4.3,1.7c-0.5,0.2-1,0.4-1.5,0.6c-15.7,6.2-33.8,14-38.1,17
			c-2.8,2-11.6,18.6-21.9,39.2c-13.2,42.2-29.9,106.7-30.4,122.7C728.8,870.1,728.8,870.3,728.8,870.5z"/>
	</g>
	<g>
		<path class="st72" d="M957.9,965.3c0,0,3.2,3.9,4.2,20.3c0,0-133.2-15.5-147.2-21.7c0,0-0.5-18.1,2.4-18.4
			C820.6,945.2,957.9,965.3,957.9,965.3z"/>
	</g>
	<g>
		<path class="st16" d="M844.4,677.4c0.4,20.9,40.9,32.3,40.9,32.3s16.9-21.2,12.9-23.3c-1.6-0.8-2.2-4-2.4-7.5
			c-0.2-3.4,0-7.1,0.2-9.5c0.1-1.5,0.2-2.4,0.2-2.4s-5.8-6.1-13.1-13.4c-12.9-12.7-30.5-29-30.5-22.5c0,0.3,0,0.8,0.1,1.2
			C855.7,647,844.4,677.4,844.4,677.4z"/>
	</g>
	<g>
		<path class="st69" d="M847.7,948.8c0,0-2.9,18.3-3.2,23.1l-6.2-1.2c0,0,1.7-19.4,2.7-22.6L847.7,948.8z"/>
	</g>
	<g>
		<path class="st69" d="M946.8,963.2c0,0,2.3,16.7,2.4,23l-6.5-0.8c0,0-1.3-20.8-2.1-23L946.8,963.2z"/>
	</g>
	<g>
		<path class="st24" d="M860,646.8L860,646.8c0.1,0.1,1.8,2.7,4.7,6.4c6.2,7.8,17.9,20.6,31,25.8c-0.2-3.4,0-7.1,0.2-9.5
			c1.3,0,2.7-0.2,4-0.5c-3.6-6.3-8.8-12.9-8.8-12.9l-8.1-2.4L860,646.8z"/>
	</g>
	<g>
		<path class="st16" d="M852.2,631.4c3.5,7.6,6.8,13.1,7.8,15.3l0,0c0.6,1.4,2.3,3.7,4.7,6.4c6.7,7.2,19.1,16.7,31.2,16.3
			c1.3,0,2.7-0.2,4-0.5c4.9-1.1,10.7-3.4,13.9-9.6c25.2-49.4,7-89.8,7-89.8s-69-19.5-79.8,1.3C833.5,585.3,844,613.5,852.2,631.4z"
			/>
	</g>
	<g>
		<path class="st73" d="M920.8,569.5c0,0,6.4-0.4,8-12.5c1.6-12-1.6-15.3-1.6-15.3s-28.5-11.9-38.7-13.5s-35.4-3-41.3,3.7
			c0,0-14.3-3.3-18.2,20.5c-6.2,37.7,21.1,74.4,21.1,74.4s-0.2-24.7,5.2-27.9c5.4-3.3,10.1,4.5,10.1,4.5l11.1,2
			c0,0-16.9-36.5,3.4-37.8C900.2,566.1,909.3,571.6,920.8,569.5z"/>
	</g>
	<g>
		<path class="st16" d="M865.1,593.5c-1.1-10.9-20.7-15-19.4-3.6s11,22.3,15.5,21.9C865.7,611.4,865.9,601.8,865.1,593.5z"/>
	</g>
	<g>
		<path class="st74" d="M737.8,890.3c8.6,16.3,22.1,40.3,35.4,63.6c-1.8,3.3-3.5,6.5-5.1,9.7c-4,7.8-7.6,15.4-10.1,22.5
			c-3,8.5-7.3,30.3,0.8,34.4l42.6,23.5c0,0,0.3-0.8,0.9-2.4c1.4-3.8,4.5-12,8.7-22.6c0.1-0.3,0.6-1.4,1.2-2.8c0.8-2,2.1-4.9,3.5-8.1
			c0.6-1.5,1.3-3,2-4.6c0.8-1.8,1.6-3.7,2.4-5.5c1.2-2.7,2.3-5.4,3.4-7.9c2.9-6.8,5.2-12,5.2-12c0.1-0.3,0.3-0.6,0.4-0.9
			c1.4-3,2.8-6,4.3-9c2.2-4.6,4.5-9.3,6.9-13.8c0.2-0.5,0.5-0.9,0.7-1.4c0.4-0.8,0.8-1.6,1.3-2.4c0.3-0.5,0.5-1,0.8-1.4
			c0.1-0.1,0.1-0.2,0.2-0.3c0.1-0.2,0.2-0.4,0.3-0.6c12.3-22.5,26.2-41.2,30.6-68.8c0.4-2.7,0.8-5.3,1.2-7.9
			c0.6-4.4,1.2-8.7,1.8-12.9c0.2-1.6,0.4-3.2,0.6-4.8c2.2-18.4,3.5-34.8,4.6-46.2c3.3-35.5-18.4-74-35.1-97.8
			c-8.9-12.7-16.4-21.2-17.9-22.8l-0.1-0.1c-0.3,0.1-0.6,0.2-0.9,0.3c-0.4,0.1-0.7,0.3-1.1,0.4c-0.7,0.3-1.4,0.5-2.1,0.8
			c-1.4,0.5-2.9,1.1-4.3,1.7c-0.5,0.2-1,0.4-1.5,0.6c-16.2,6.3-50.3,15.7-54.5,18.8c-2.5,1.8-8,18-14.4,38.5
			c-13.2,42.2-21,105.8-21.4,121.7c0,0.3,0,0.5,0,0.7C728.8,872.4,732.3,879.7,737.8,890.3z M802.5,882.3c0,7.9-2.6,17-6.5,26.7
			c-0.1,0.2-0.2,0.5-0.3,0.7c-2.7-5.8-5.3-11.4-7.6-16.6l0,0c-6.3-14.2-10.7-25.3-10.9-29.6c-1.6-28.1,19.2-60.5,19.2-60.5l0,0l0,0
			c0,0.1,0,0.1,0,0.2c0,0.1,0.1,0.2,0.1,0.3s0,0.1,0.1,0.2c0,0.1,0,0.1,0,0.1C800.8,820.6,802.5,882.3,802.5,882.3z"/>
	</g>
	<path class="st75" d="M883.4,988.3l-121.4,54c-6.9,3.1-14.9,0-18-6.9l-33.2-74.7c-3.1-6.9,0-14.9,6.9-18l121.4-54
		c6.9-3.1,14.9,0,18,6.9l33.2,74.7C893.4,977.2,890.3,985.3,883.4,988.3z"/>
	<g>
		<path class="st74" d="M909.6,692.1c0,0,5.7,19,13.1,66.3l0,0c0.3,1.6,0.5,3.2,0.7,4.9c0,0.2,0.1,0.4,0.1,0.6
			c0.2,1.1,0.3,2.2,0.5,3.3c0,0.1,0,0.3,0.1,0.4c0.1,0.8,0.2,1.5,0.3,2.3c0.3,1.9,0.6,3.8,0.8,5.7c3.3,23,7.9,62.2,12.3,101.8l0,0
			c3.5,31.2,11.5,63.2,14,87.1l0,0c0.5,4.7,1.7,10.9,3.3,18c0.2,0.8,0.4,1.6,0.6,2.4c7.1,30.1,21,72.8,21,72.8l4-3.7l11.9-11
			c2.8-2.5,3.8-6.4,2.7-10c-6.6-21.4-29.2-97-33.3-150.2l0,0c2-18.7,7.2-43.8,6.4-47.4c0.1,0.1,0.1,0.3,0.1,0.4
			c2.4,6.6,5,13.8,7.6,20.7l0,0c7.1,18.7,14.4,36.1,17.4,37.2c6.7,2.5,127.8,38.2,128.7,33.2c0.1-0.5,0.2-1,0.3-1.6
			c0.1-0.6,0.2-1.1,0.4-1.8c1.5-6.8,4.2-16.6,6.1-23.2c0.3-1,0.5-1.9,0.8-2.7c0.8-2.7,1.3-4.5,1.3-4.5l-102.4-33.6L977,724.4
			c-1-0.8-14.2-7.9-22.9-12.1c-9.1-4.3-20.6-9.7-30.8-14.4c-4.9-2.3-9.5-4.4-13.3-6.1L909.6,692.1z"/>
	</g>
	<g>
		<path class="st76" d="M840.3,738.9L860,750l-8.4,8.6L874,879.5c4.6-28.3,6.6-55.3,8.2-71.8c5.1-54.9-49.7-116.9-53.1-120.7
			c-2.6,1-5.5,2.1-8.4,3.3L840.3,738.9z"/>
	</g>
	<g>
		<path class="st76" d="M909.3,691.5c0,0,7.4,24,15.9,84c3.3,23,7.9,62.2,12.3,101.8l4.6-113.2l-9.4-10.2l8.3-10.4L923.3,698
			c-4.9-2.3-9.5-4.4-13.3-6.1L909.3,691.5z"/>
	</g>
	<g>
		<path class="st77" d="M828,687.5l16.4-10.1c0,0,0.5,9,40.9,32.3L873.8,742L828,687.5z"/>
	</g>
	<g>
		<path class="st77" d="M896,681.9c0,0-0.6,9.7-10.8,27.8l22.4,29.2l1.6-47.4L896,681.9z"/>
	</g>
	<g>
		<path class="st78" d="M885.2,709.7c0,0-4.3,17.4-2.8,22.2c0,0,9.5,3.5,16.4-0.9C898.8,731.1,894,718.9,885.2,709.7z"/>
	</g>
	<g>
		<g>
			<path class="st79" d="M907.6,960.1c2.4-12.3,0.1-49,0-50.5l-2.1,0.1c0,0.4,2.4,38,0,50L907.6,960.1z"/>
		</g>
	</g>
	<g>
		<path class="st80" d="M890.6,954.5c0,0,19.6,2.3,26.1,4l-0.8,22l-25.7-2.7L890.6,954.5z"/>
	</g>
	<g>
		<path class="st78" d="M894.9,729.5c0,0,21.9,55.2,18.3,116.9c-3.7,64-9.8,87.3-9.8,87.3L890,950.6l-5.9-20.8
			c0,0,18.1-81.6,6.4-161.1c-2.1-14.4-5.3-41.7-5.3-41.7L894.9,729.5z"/>
	</g>
	<g>
		<path class="st16" d="M829.3,990.1c0,0,4.7,9.4,9.4,10.9c4.7,1.6,11.5,9.2,11.5,9.2l-33,17.4c0,0-8.8-17.2-9.2-28.1
			C807.6,988.5,829.3,990.1,829.3,990.1z"/>
	</g>
	<g>
		<path class="st71" d="M832.4,991l2.2,4.4c0,0-21,15.3-26.6,16.3l-1.9-5.9L832.4,991z"/>
	</g>
	<g>
		<path class="st74" d="M834.6,991.2c0,0-15.7,13-29,19l-59.3-104l37.9-20.7C784.2,885.4,833.5,983.4,834.6,991.2z"/>
	</g>
	<g>
		<path class="st20" d="M967.6,807.2c0.7,14.8,0.6,28,0.6,28l0,0c0,0.1,0,0.5,0.1,1.1c0-0.3,0.1-0.5,0.1-0.7
			c2.4,6.6,5,13.8,7.6,20.7c0.6-8.1,0.8-15.6,0.6-22.6c-1.1-41.6-14.1-63.3-14.1-63.3C965.5,777.7,966.9,793.2,967.6,807.2z"/>
	</g>
</g>
<g class="st81">
	<path class="st2" d="M111.9,1275.4c-4.5,0-8.4-0.9-11.6-2.7c-3.3-1.8-5.8-4.4-7.6-7.7c-1.8-3.3-2.7-7.1-2.7-11.5
		c0-4.4,0.9-8.2,2.7-11.5c1.8-3.3,4.3-5.8,7.6-7.7c3.3-1.8,7.2-2.7,11.6-2.7c2.8,0,5.5,0.4,8.1,1.3c2.6,0.8,4.7,2,6.3,3.4l-3.4,8
		c-1.8-1.3-3.6-2.3-5.4-2.9c-1.8-0.6-3.6-0.9-5.4-0.9c-3.4,0-6,1.1-7.9,3.2c-1.9,2.2-2.8,5.4-2.8,9.7s0.9,7.6,2.8,9.8
		c1.9,2.2,4.5,3.3,7.9,3.3c1.8,0,3.6-0.3,5.4-0.9c1.8-0.6,3.6-1.6,5.4-2.9l3.4,8c-1.6,1.4-3.7,2.6-6.3,3.4
		C117.4,1274.9,114.7,1275.4,111.9,1275.4z"/>
	<path class="st2" d="M146.4,1275.3c-3.4,0-6.4-0.6-8.9-1.9c-2.5-1.3-4.4-3.1-5.8-5.5c-1.4-2.4-2-5.2-2-8.5c0-3.2,0.7-6,2-8.4
		c1.4-2.4,3.3-4.2,5.8-5.5c2.5-1.3,5.5-2,8.9-2c3.4,0,6.3,0.7,8.8,2c2.5,1.3,4.4,3.1,5.8,5.5c1.4,2.4,2,5.2,2,8.4
		c0,3.3-0.7,6.1-2,8.5c-1.4,2.4-3.3,4.2-5.8,5.5C152.7,1274.7,149.8,1275.3,146.4,1275.3z M146.4,1267.2c1.9,0,3.3-0.6,4.4-1.9
		c1-1.2,1.5-3.2,1.5-5.9c0-2.7-0.5-4.6-1.5-5.9c-1-1.2-2.5-1.9-4.4-1.9c-2,0-3.5,0.6-4.5,1.9c-1,1.2-1.5,3.2-1.5,5.9
		c0,2.7,0.5,4.7,1.5,5.9C143,1266.6,144.4,1267.2,146.4,1267.2z"/>
	<path class="st2" d="M168.1,1274.8v-21.7c0-1.4,0-2.9-0.1-4.4s-0.2-2.9-0.4-4.4h10.2l0.7,5.8l-0.7-0.5c0.9-1.9,2.2-3.4,3.9-4.5
		c1.7-1.1,3.8-1.6,6.2-1.6c2.7,0,4.9,0.7,6.5,2.1c1.6,1.4,2.7,3.5,3.2,6.3l-1.4-1.9c1-2,2.4-3.5,4.4-4.7c1.9-1.2,4-1.8,6.3-1.8
		c3.6,0,6.2,1.1,7.9,3.3c1.7,2.2,2.5,5.5,2.5,9.9v18.2h-10.9v-17.9c0-1.8-0.3-3-0.8-3.9c-0.5-0.8-1.4-1.2-2.8-1.2
		c-1.5,0-2.7,0.6-3.5,1.7c-0.8,1.1-1.3,2.7-1.3,4.7v16.6h-10.9v-17.9c0-1.8-0.3-3-0.8-3.9c-0.5-0.8-1.5-1.2-2.7-1.2
		c-1.5,0-2.7,0.6-3.5,1.7c-0.8,1.1-1.2,2.7-1.2,4.7v16.6H168.1z"/>
	<path class="st2" d="M223.6,1287.8v-34.7c0-1.4,0-2.9-0.1-4.4s-0.2-2.9-0.4-4.4h10.2l0.7,5.7l-0.4-0.4c0.6-1.8,1.9-3.3,3.7-4.5
		c1.8-1.1,3.9-1.7,6.3-1.7c2.6,0,5,0.7,7,2c2,1.4,3.6,3.3,4.8,5.7c1.2,2.4,1.7,5.2,1.7,8.4c0,3.2-0.6,5.9-1.7,8.3
		c-1.2,2.4-2.8,4.2-4.8,5.5c-2,1.3-4.4,1.9-7,1.9c-2.4,0-4.5-0.5-6.3-1.6c-1.8-1.1-3.1-2.6-3.7-4.4l0.8-1.4v19.9H223.6z
		 M240.4,1267.2c2,0,3.4-0.6,4.4-2c1-1.3,1.5-3.2,1.5-5.6c0-2.5-0.5-4.5-1.5-5.9s-2.5-2.1-4.4-2.1c-2,0-3.5,0.7-4.5,2
		c-1,1.3-1.6,3.3-1.6,5.8c0,2.5,0.5,4.4,1.6,5.7C237,1266.5,238.5,1267.2,240.4,1267.2z"/>
	<path class="st2" d="M274.4,1275.3c-2.6,0-4.9-0.6-7-1.9c-2-1.3-3.6-3.1-4.8-5.5c-1.1-2.4-1.7-5.1-1.7-8.3c0-3.2,0.6-6,1.7-8.4
		c1.2-2.4,2.7-4.3,4.8-5.7c2-1.4,4.3-2,6.9-2c2.3,0,4.4,0.6,6.3,1.7c1.9,1.1,3.1,2.6,3.8,4.5l-0.7,0.4v-5.8h10.7v30.5h-10.7v-5.6
		h0.7c-0.7,1.9-1.9,3.4-3.8,4.4C278.8,1274.8,276.7,1275.3,274.4,1275.3z M277.7,1267.2c1.9,0,3.3-0.7,4.4-2
		c1.1-1.3,1.6-3.2,1.6-5.7c0-2.6-0.5-4.5-1.6-5.8c-1-1.3-2.5-2-4.4-2c-1.9,0-3.4,0.7-4.4,2.1c-1.1,1.4-1.6,3.3-1.6,5.9
		c0,2.4,0.5,4.3,1.6,5.6C274.3,1266.6,275.8,1267.2,277.7,1267.2z"/>
	<path class="st2" d="M300.9,1274.8v-21.7c0-1.4,0-2.9-0.1-4.4s-0.2-2.9-0.4-4.4h10.2l0.7,5.8l-0.7-0.3c1.1-2,2.6-3.5,4.4-4.7
		c1.8-1.1,3.9-1.7,6.3-1.7c7.2,0,10.7,4.4,10.7,13.1v18.2h-10.9v-17.7c0-1.9-0.3-3.2-1-4c-0.6-0.8-1.6-1.2-3-1.2c-1.6,0-3,0.6-4,1.7
		c-1,1.1-1.5,2.5-1.5,4.3v17H300.9z"/>
	<path class="st2" d="M348.4,1277.4l-14.5-33.1h11.3l7.8,20.1L348.4,1277.4z M338.6,1288.5l-2.5-8.3c1.9-0.4,3.4-0.8,4.6-1.3
		c1.2-0.5,2.2-1.2,3-1.9c0.8-0.7,1.4-1.6,1.9-2.6l2.5-5.5l2.9-4.4l8.1-20.1h10.7l-14,31.6c-1.3,2.9-2.8,5.2-4.5,7
		c-1.7,1.7-3.6,3-5.8,3.9C343.5,1287.6,341.2,1288.2,338.6,1288.5z"/>
</g>
<g class="st81">
	<path class="st2" d="M108.3,1346.8l-19.4-42.7h11.7l13.9,32.3h-3.1l14-32.3h11.3l-19.4,42.7H108.3z"/>
	<path class="st2" d="M146.8,1347.3c-2.6,0-4.9-0.6-7-1.9c-2-1.3-3.6-3.1-4.8-5.5c-1.1-2.4-1.7-5.1-1.7-8.3c0-3.2,0.6-6,1.7-8.4
		c1.2-2.4,2.7-4.3,4.8-5.7c2-1.4,4.3-2,6.9-2c2.3,0,4.4,0.6,6.3,1.7c1.9,1.1,3.1,2.6,3.8,4.5l-0.7,0.4v-5.8h10.7v30.5h-10.7v-5.6
		h0.7c-0.7,1.9-1.9,3.4-3.8,4.4C151.3,1346.8,149.2,1347.3,146.8,1347.3z M150.2,1339.2c1.9,0,3.3-0.7,4.4-2
		c1.1-1.3,1.6-3.2,1.6-5.7c0-2.6-0.5-4.5-1.6-5.8c-1-1.3-2.5-2-4.4-2c-1.9,0-3.4,0.7-4.4,2.1c-1.1,1.4-1.6,3.3-1.6,5.9
		c0,2.4,0.5,4.3,1.6,5.6C146.7,1338.6,148.2,1339.2,150.2,1339.2z"/>
	<path class="st2" d="M173.4,1346.8v-44.2h10.9v44.2H173.4z"/>
	<path class="st2" d="M202,1347.3c-3.9,0-6.8-1.1-8.7-3.2c-1.9-2.2-2.9-5.5-2.9-9.9v-17.8h10.9v18.1c0,1.5,0.3,2.7,1,3.4
		c0.6,0.7,1.6,1.1,2.9,1.1c1.5,0,2.8-0.5,3.7-1.6c0.9-1.1,1.4-2.5,1.4-4.3v-16.7h11v30.5h-10.6v-5.9l0.8,0.3c-0.9,2-2.2,3.5-3.8,4.5
		C206.1,1346.8,204.2,1347.3,202,1347.3z"/>
	<path class="st2" d="M239.9,1347.3c-2.6,0-4.9-0.6-7-1.9c-2-1.3-3.6-3.1-4.8-5.5c-1.1-2.4-1.7-5.1-1.7-8.3c0-3.2,0.6-6,1.7-8.4
		c1.2-2.4,2.7-4.3,4.8-5.7c2-1.4,4.3-2,6.9-2c2.3,0,4.4,0.6,6.3,1.7c1.9,1.1,3.1,2.6,3.8,4.5l-0.7,0.4v-5.8h10.7v30.5h-10.7v-5.6
		h0.7c-0.7,1.9-1.9,3.4-3.8,4.4C244.3,1346.8,242.2,1347.3,239.9,1347.3z M243.3,1339.2c1.9,0,3.3-0.7,4.4-2
		c1.1-1.3,1.6-3.2,1.6-5.7c0-2.6-0.5-4.5-1.6-5.8c-1-1.3-2.5-2-4.4-2c-1.9,0-3.4,0.7-4.4,2.1c-1.1,1.4-1.6,3.3-1.6,5.9
		c0,2.4,0.5,4.3,1.6,5.6C239.8,1338.6,241.3,1339.2,243.3,1339.2z"/>
	<path class="st2" d="M263.4,1324.3v-8h23.9v8H263.4z M287.3,1338.2v8.2c-0.9,0.4-1.8,0.6-2.8,0.7c-0.9,0.1-1.9,0.2-2.9,0.2
		c-4.2,0-7.4-1.2-9.5-3.5c-2.1-2.4-3.1-5.6-3.1-9.6v-24.7l10.9-3.5v28.2c0,1,0.2,1.8,0.6,2.5s1,1.1,1.6,1.4c0.7,0.3,1.4,0.5,2.2,0.5
		c0.4,0,0.8,0,1.3-0.1C286.2,1338.4,286.7,1338.3,287.3,1338.2z"/>
	<path class="st2" d="M291.1,1301.4h11.3v9.8h-11.3V1301.4z M291.4,1346.8v-30.5h10.9v30.5H291.4z"/>
	<path class="st2" d="M324.1,1347.3c-3.4,0-6.4-0.6-8.9-1.9c-2.5-1.3-4.4-3.1-5.8-5.5c-1.4-2.4-2-5.2-2-8.5c0-3.2,0.7-6,2-8.4
		c1.4-2.4,3.3-4.2,5.8-5.5c2.5-1.3,5.5-2,8.9-2c3.4,0,6.3,0.7,8.8,2c2.5,1.3,4.4,3.1,5.8,5.5c1.4,2.4,2,5.2,2,8.4
		c0,3.3-0.7,6.1-2,8.5c-1.4,2.4-3.3,4.2-5.8,5.5C330.4,1346.7,327.4,1347.3,324.1,1347.3z M324.1,1339.2c1.9,0,3.3-0.6,4.4-1.9
		c1-1.2,1.5-3.2,1.5-5.9c0-2.7-0.5-4.6-1.5-5.9c-1-1.2-2.5-1.9-4.4-1.9c-2,0-3.5,0.6-4.5,1.9c-1,1.2-1.5,3.2-1.5,5.9
		c0,2.7,0.5,4.7,1.5,5.9C320.6,1338.6,322.1,1339.2,324.1,1339.2z"/>
	<path class="st2" d="M345.8,1346.8v-21.7c0-1.4,0-2.9-0.1-4.4s-0.2-2.9-0.4-4.4h10.2l0.7,5.8l-0.7-0.3c1.1-2,2.6-3.5,4.4-4.7
		c1.8-1.1,3.9-1.7,6.3-1.7c7.2,0,10.7,4.4,10.7,13.1v18.2h-10.9v-17.7c0-1.9-0.3-3.2-1-4c-0.6-0.8-1.6-1.2-3-1.2c-1.6,0-3,0.6-4,1.7
		c-1,1.1-1.5,2.5-1.5,4.3v17H345.8z"/>
</g>
<g>
	<g class="st81">
		<path class="st2" d="M2039.2,1422.9v-42.7h29.8v8.8h-18.7v7.8h17.5v8.8h-17.5v17.3H2039.2z"/>
		<path class="st2" d="M2100.6,1419.8c-1.5,1.2-3.4,2.1-5.5,2.7c-2.2,0.6-4.3,0.9-6.5,0.9c-3.5,0-6.5-0.6-9.1-1.9
			c-2.5-1.3-4.5-3.1-5.8-5.5c-1.4-2.4-2-5.2-2-8.4c0-3.1,0.6-5.9,2-8.3c1.3-2.4,3.1-4.3,5.4-5.6c2.3-1.4,4.9-2,7.9-2
			c2.9,0,5.5,0.6,7.6,1.9c2.1,1.3,3.8,3.1,5,5.5c1.2,2.4,1.7,5.1,1.7,8.3v1.4h-19.9l0.1-5h13.3l-2.6,1.7c0-2.2-0.4-3.8-1.2-4.8
			c-0.8-1.1-2-1.6-3.6-1.6c-1.7,0-3,0.6-3.9,1.9s-1.3,3.2-1.3,5.7c0,3.2,0.6,5.4,1.7,6.8c1.2,1.3,3,2,5.5,2c1.5,0,3-0.3,4.6-0.8
			c1.5-0.5,2.9-1.2,4.1-2.1L2100.6,1419.8z"/>
		<path class="st2" d="M2118.3,1423.4c-2.6,0-4.9-0.6-7-1.9c-2-1.3-3.6-3.1-4.8-5.5c-1.1-2.4-1.7-5.1-1.7-8.3c0-3.2,0.6-6,1.7-8.4
			c1.2-2.4,2.7-4.3,4.8-5.7c2-1.4,4.3-2,6.9-2c2.3,0,4.4,0.6,6.3,1.7c1.9,1.1,3.1,2.6,3.8,4.5l-0.7,0.4v-5.8h10.7v30.5h-10.7v-5.6
			h0.7c-0.7,1.9-2,3.4-3.8,4.4C2122.7,1422.9,2120.6,1423.4,2118.3,1423.4z M2121.6,1415.3c1.9,0,3.3-0.7,4.4-2
			c1.1-1.3,1.6-3.2,1.6-5.7c0-2.6-0.5-4.5-1.6-5.8s-2.5-2-4.4-2c-1.9,0-3.4,0.7-4.4,2.1c-1.1,1.4-1.6,3.3-1.6,5.9
			c0,2.4,0.5,4.3,1.6,5.6C2118.2,1414.7,2119.7,1415.3,2121.6,1415.3z"/>
		<path class="st2" d="M2157.1,1423.4c-6.1,0-10.9-1.2-14.4-3.7l2.8-7.4c1.6,1.1,3.5,2,5.6,2.6c2.1,0.6,4.1,0.9,6.1,0.9
			c1.2,0,2.2-0.2,2.9-0.5c0.7-0.4,1-0.9,1-1.5c0-0.6-0.3-1-0.8-1.3c-0.5-0.3-1.5-0.6-2.9-1l-4.9-1.1c-3.1-0.6-5.4-1.7-6.8-3
			c-1.4-1.4-2.1-3.3-2.1-5.7c0-2,0.6-3.7,1.7-5.2c1.2-1.5,2.8-2.7,4.8-3.6c2.1-0.9,4.4-1.3,7.1-1.3c2.2,0,4.4,0.3,6.5,1
			s4.1,1.6,5.9,2.7l-2.9,7.2c-1.6-1-3.2-1.8-4.9-2.4c-1.7-0.6-3.3-0.8-4.7-0.8c-1.2,0-2.1,0.2-2.8,0.6c-0.7,0.4-1.1,0.9-1.1,1.7
			c0,0.4,0.2,0.8,0.6,1.1c0.4,0.3,1.2,0.5,2.3,0.8l5.1,1.1c3.2,0.7,5.6,1.8,7,3.3s2.1,3.5,2.1,6c0,3-1.2,5.4-3.6,7.1
			C2164.6,1422.6,2161.3,1423.4,2157.1,1423.4z"/>
		<path class="st2" d="M2174.9,1377.5h11.3v9.8h-11.3V1377.5z M2175.2,1422.9v-30.5h10.9v30.5H2175.2z"/>
		<path class="st2" d="M2192.5,1422.9v-44.2h10.9v20.3l-0.8-1.3c0.6-1.8,1.9-3.3,3.7-4.4c1.8-1.1,3.9-1.7,6.3-1.7c2.6,0,5,0.7,7,1.9
			c2,1.3,3.6,3.1,4.8,5.5c1.2,2.4,1.7,5.2,1.7,8.3c0,3.2-0.6,6-1.7,8.4c-1.2,2.4-2.8,4.3-4.8,5.6c-2,1.3-4.3,2-7,2
			c-2.4,0-4.5-0.5-6.3-1.6c-1.8-1.1-3.1-2.6-3.7-4.4l0.7-1.6v7.1H2192.5z M2209.3,1415.3c1.9,0,3.4-0.7,4.4-2c1-1.4,1.5-3.3,1.5-5.9
			c0-2.4-0.5-4.3-1.5-5.6c-1-1.3-2.5-1.9-4.4-1.9c-2,0-3.5,0.7-4.5,2c-1,1.3-1.6,3.2-1.6,5.7c0,2.6,0.5,4.5,1.6,5.8
			C2205.9,1414.7,2207.4,1415.3,2209.3,1415.3z"/>
		<path class="st2" d="M2230.9,1377.5h11.3v9.8h-11.3V1377.5z M2231.2,1422.9v-30.5h10.9v30.5H2231.2z"/>
		<path class="st2" d="M2248.6,1422.9v-44.2h10.9v44.2H2248.6z"/>
		<path class="st2" d="M2265.6,1377.5h11.3v9.8h-11.3V1377.5z M2265.9,1422.9v-30.5h10.9v30.5H2265.9z"/>
		<path class="st2" d="M2280.2,1400.4v-8h23.9v8H2280.2z M2304.1,1414.3v8.2c-0.9,0.4-1.8,0.6-2.8,0.7c-0.9,0.1-1.9,0.2-2.9,0.2
			c-4.2,0-7.3-1.2-9.5-3.5c-2.1-2.4-3.1-5.6-3.1-9.6v-24.7l10.9-3.5v28.2c0,1,0.2,1.8,0.6,2.5s1,1.1,1.6,1.4
			c0.7,0.3,1.4,0.4,2.2,0.4c0.4,0,0.8,0,1.3-0.1C2303,1414.5,2303.5,1414.4,2304.1,1414.3z"/>
		<path class="st2" d="M2319,1425.5l-14.5-33.1h11.3l7.8,20.1L2319,1425.5z M2309.2,1436.6l-2.5-8.3c1.9-0.4,3.4-0.8,4.7-1.3
			c1.2-0.5,2.2-1.2,3-1.9c0.8-0.7,1.4-1.6,1.9-2.6l2.5-5.5l2.9-4.4l8.1-20.1h10.7l-14,31.6c-1.3,2.9-2.8,5.2-4.5,7
			c-1.7,1.7-3.6,3-5.8,3.9C2314,1435.8,2311.7,1436.3,2309.2,1436.6z"/>
		<path class="st2" d="M2375.9,1423.5c-2.1,0-4.2-0.2-6.4-0.6c-2.1-0.4-4.1-0.9-6-1.6c-1.9-0.7-3.5-1.5-4.8-2.5l3.5-8
			c2.1,1.4,4.3,2.4,6.6,3.1c2.3,0.7,4.7,1,7.1,1c2.4,0,4.3-0.3,5.5-1c1.3-0.7,1.9-1.6,1.9-2.8c0-0.7-0.2-1.3-0.7-1.8
			c-0.4-0.5-1.3-1-2.5-1.5c-1.2-0.5-2.9-0.9-5.2-1.4c-3.1-0.6-5.6-1.3-7.7-2.1c-2-0.8-3.6-1.8-4.7-2.8s-1.9-2.3-2.4-3.6
			s-0.7-2.8-0.7-4.4c0-2.6,0.7-4.9,2.2-7c1.5-2.1,3.5-3.7,6.2-4.9c2.6-1.2,5.7-1.8,9.2-1.8c2,0,4.1,0.2,6.1,0.6
			c2,0.4,3.8,0.9,5.6,1.6c1.7,0.7,3.1,1.5,4.2,2.5l-3.5,8c-1.9-1.4-3.9-2.4-6-3.1s-4.1-1-6.2-1s-3.7,0.4-4.9,1.2
			c-1.2,0.8-1.9,1.8-1.9,3.1c0,0.6,0.2,1.2,0.6,1.7c0.4,0.5,1.2,1,2.4,1.5c1.2,0.5,3,1,5.5,1.5c3,0.6,5.4,1.3,7.4,2.2
			c2,0.8,3.5,1.8,4.7,2.8s2,2.2,2.4,3.5c0.5,1.3,0.7,2.7,0.7,4.3c0,2.8-0.7,5.1-2.2,7.1c-1.4,2-3.5,3.5-6.3,4.6
			C2383.2,1422.9,2379.9,1423.5,2375.9,1423.5z"/>
		<path class="st2" d="M2396.4,1400.4v-8h23.9v8H2396.4z M2420.3,1414.3v8.2c-0.9,0.4-1.8,0.6-2.8,0.7c-0.9,0.1-1.9,0.2-2.9,0.2
			c-4.2,0-7.4-1.2-9.5-3.5c-2.1-2.4-3.2-5.6-3.2-9.6v-24.7l10.9-3.5v28.2c0,1,0.2,1.8,0.6,2.5s1,1.1,1.7,1.4
			c0.7,0.3,1.4,0.4,2.2,0.4c0.4,0,0.8,0,1.3-0.1C2419.2,1414.5,2419.7,1414.4,2420.3,1414.3z"/>
		<path class="st2" d="M2435.7,1423.4c-3.9,0-6.8-1.1-8.7-3.2c-1.9-2.2-2.8-5.5-2.8-9.9v-17.8h10.9v18.1c0,1.5,0.3,2.7,1,3.4
			s1.6,1.1,2.9,1.1c1.5,0,2.8-0.5,3.7-1.6s1.4-2.5,1.4-4.3v-16.7h11v30.5h-10.6v-5.9l0.8,0.3c-0.9,2-2.2,3.5-3.8,4.5
			C2439.8,1422.9,2437.9,1423.4,2435.7,1423.4z"/>
		<path class="st2" d="M2493.6,1422.9h-10.7v-7.1l0.7,1.6c-0.7,1.9-2,3.4-3.8,4.4s-4,1.6-6.3,1.6c-2.6,0-4.9-0.7-6.9-2
			c-2-1.3-3.6-3.2-4.8-5.6c-1.2-2.4-1.7-5.2-1.7-8.4c0-3.2,0.6-5.9,1.7-8.3c1.1-2.4,2.7-4.2,4.8-5.5c2-1.3,4.4-1.9,7-1.9
			c2.3,0,4.4,0.6,6.3,1.7c1.9,1.1,3.1,2.6,3.8,4.4l-0.9,1.3v-20.3h10.9V1422.9z M2476.9,1415.3c1.9,0,3.4-0.7,4.4-2
			c1-1.3,1.6-3.3,1.6-5.8c0-2.4-0.5-4.3-1.6-5.7c-1.1-1.3-2.5-2-4.4-2c-2,0-3.5,0.7-4.5,1.9c-1,1.3-1.6,3.2-1.6,5.6
			c0,2.6,0.5,4.5,1.6,5.9S2475.1,1415.3,2476.9,1415.3z"/>
		<path class="st2" d="M2510.2,1425.5l-14.5-33.1h11.3l7.8,20.1L2510.2,1425.5z M2500.4,1436.6l-2.5-8.3c1.9-0.4,3.4-0.8,4.7-1.3
			c1.2-0.5,2.2-1.2,3-1.9s1.4-1.6,1.9-2.6l2.5-5.5l2.9-4.4l8.1-20.1h10.7l-14,31.6c-1.3,2.9-2.8,5.2-4.5,7c-1.7,1.7-3.6,3-5.8,3.9
			C2505.2,1435.8,2502.9,1436.3,2500.4,1436.6z"/>
	</g>
</g>
<g>
	<g class="st81">
		<path class="st2" d="M1523,226.6v-42.7h8.8l14.6,33.4h-3.7l14.6-33.4h8.8v42.7h-9.8l-0.1-25.7l2.3,0.7l-10.4,25h-7.1l-10.6-25
			l2.4-0.7v25.7H1523z"/>
		<path class="st2" d="M1585.4,227.1c-2.6,0-4.9-0.6-7-1.9c-2-1.3-3.6-3.1-4.8-5.5c-1.1-2.4-1.7-5.1-1.7-8.3c0-3.2,0.6-6,1.7-8.4
			c1.2-2.4,2.8-4.3,4.8-5.7c2-1.4,4.3-2,6.9-2c2.3,0,4.4,0.6,6.3,1.7c1.9,1.1,3.1,2.6,3.8,4.5l-0.7,0.4v-5.8h10.7v30.5h-10.7V221
			h0.7c-0.7,1.9-2,3.4-3.8,4.4C1589.9,226.5,1587.8,227.1,1585.4,227.1z M1588.8,219c1.9,0,3.3-0.7,4.4-2c1.1-1.3,1.6-3.2,1.6-5.7
			c0-2.6-0.5-4.5-1.6-5.8s-2.5-2-4.4-2c-1.9,0-3.4,0.7-4.4,2.1s-1.6,3.3-1.6,5.9c0,2.4,0.5,4.3,1.6,5.6
			C1585.3,218.3,1586.8,219,1588.8,219z"/>
		<path class="st2" d="M1612,226.6v-21.7c0-1.4,0-2.9-0.1-4.4c-0.1-1.5-0.2-2.9-0.4-4.4h10.2l0.7,5.8l-0.7-0.3
			c1.1-2,2.6-3.5,4.4-4.7c1.8-1.1,3.9-1.7,6.3-1.7c7.2,0,10.7,4.4,10.7,13.1v18.2h-10.9v-17.7c0-1.9-0.3-3.2-1-4
			c-0.6-0.8-1.6-1.2-3-1.2c-1.6,0-3,0.6-4,1.7c-1,1.1-1.5,2.5-1.5,4.3v17H1612z"/>
		<path class="st2" d="M1661.5,227.1c-2.6,0-4.9-0.6-7-1.9c-2-1.3-3.6-3.1-4.8-5.5c-1.1-2.4-1.7-5.1-1.7-8.3c0-3.2,0.6-6,1.7-8.4
			c1.2-2.4,2.7-4.3,4.8-5.7c2-1.4,4.3-2,6.9-2c2.3,0,4.4,0.6,6.3,1.7c1.9,1.1,3.1,2.6,3.8,4.5l-0.7,0.4v-5.8h10.7v30.5h-10.7V221
			h0.7c-0.7,1.9-1.9,3.4-3.8,4.4S1663.8,227.1,1661.5,227.1z M1664.8,219c1.9,0,3.3-0.7,4.4-2c1.1-1.3,1.6-3.2,1.6-5.7
			c0-2.6-0.5-4.5-1.6-5.8c-1-1.3-2.5-2-4.4-2c-1.9,0-3.4,0.7-4.4,2.1c-1.1,1.4-1.6,3.3-1.6,5.9c0,2.4,0.5,4.3,1.6,5.6
			C1661.4,218.3,1662.9,219,1664.8,219z"/>
		<path class="st2" d="M1702.7,240c-4.9,0-9.2-0.9-12.9-2.6l1.6-7.9c1.8,0.8,3.6,1.5,5.5,1.9c1.9,0.4,3.7,0.7,5.4,0.7
			c2.5,0,4.3-0.5,5.5-1.6c1.2-1.1,1.8-2.7,1.8-5v-6.6l0.7,0.9c-0.5,0.9-1.2,1.8-2.2,2.8s-2.2,1.7-3.6,2.3c-1.4,0.6-2.9,0.9-4.4,0.9
			c-2.6,0-4.9-0.6-7-1.9c-2.1-1.2-3.7-3-4.8-5.3c-1.2-2.3-1.7-5-1.7-8.1c0-3,0.6-5.7,1.7-8c1.2-2.3,2.8-4.1,4.8-5.3
			c2.1-1.3,4.4-1.9,7-1.9c2.4,0,4.5,0.6,6.4,1.7c1.9,1.1,3.2,2.6,3.8,4.4l-0.7,1.1v-6.4h10.8v28.6c0,5-1.5,8.9-4.5,11.5
			C1712.9,238.7,1708.5,240,1702.7,240z M1703.5,217.6c1.9,0,3.4-0.6,4.5-1.9c1.1-1.3,1.6-3,1.6-5.3c0-2.2-0.5-3.9-1.6-5.1
			c-1.1-1.3-2.6-1.9-4.5-1.9c-1.9,0-3.4,0.6-4.5,1.9c-1.1,1.2-1.7,3-1.7,5.2c0,2.2,0.6,3.9,1.7,5.2
			C1700.1,217,1701.6,217.6,1703.5,217.6z"/>
		<path class="st2" d="M1754.4,223.5c-1.5,1.2-3.4,2.1-5.5,2.7c-2.2,0.6-4.3,0.9-6.5,0.9c-3.5,0-6.6-0.6-9.1-1.9
			c-2.5-1.3-4.5-3.1-5.9-5.5c-1.4-2.4-2-5.2-2-8.4c0-3.1,0.7-5.9,2-8.3c1.3-2.4,3.1-4.3,5.4-5.6c2.3-1.4,4.9-2,7.9-2
			c2.9,0,5.5,0.6,7.6,1.9c2.1,1.3,3.8,3.1,5,5.5c1.2,2.4,1.7,5.1,1.7,8.3v1.4H1735l0.1-5h13.3l-2.6,1.7c0-2.2-0.4-3.8-1.2-4.8
			c-0.8-1.1-2-1.6-3.6-1.6c-1.7,0-3,0.6-3.9,1.9s-1.3,3.2-1.3,5.7c0,3.2,0.6,5.4,1.7,6.8c1.2,1.3,3,2,5.5,2c1.5,0,3-0.2,4.6-0.8
			c1.5-0.5,2.9-1.2,4.1-2.1L1754.4,223.5z"/>
		<path class="st2" d="M1760,226.6v-21.7c0-1.4,0-2.9-0.1-4.4c-0.1-1.5-0.2-2.9-0.4-4.4h10.2l0.7,5.8l-0.7-0.5
			c0.9-1.9,2.2-3.4,3.9-4.5s3.8-1.6,6.2-1.6c2.7,0,4.9,0.7,6.5,2.1c1.6,1.4,2.7,3.5,3.2,6.3l-1.4-1.9c1-2,2.4-3.5,4.3-4.7
			c1.9-1.2,4-1.8,6.3-1.8c3.6,0,6.2,1.1,7.9,3.3c1.7,2.2,2.5,5.5,2.5,9.9v18.2h-10.9v-17.9c0-1.8-0.3-3-0.8-3.9
			c-0.5-0.8-1.4-1.2-2.8-1.2c-1.5,0-2.7,0.6-3.5,1.7c-0.8,1.1-1.3,2.7-1.3,4.7v16.6h-10.9v-17.9c0-1.8-0.3-3-0.8-3.9
			c-0.5-0.8-1.5-1.2-2.7-1.2c-1.5,0-2.7,0.6-3.5,1.7c-0.8,1.1-1.2,2.7-1.2,4.7v16.6H1760z"/>
		<path class="st2" d="M1843.1,223.5c-1.5,1.2-3.4,2.1-5.5,2.7c-2.2,0.6-4.3,0.9-6.5,0.9c-3.5,0-6.6-0.6-9.1-1.9
			c-2.5-1.3-4.5-3.1-5.9-5.5c-1.4-2.4-2-5.2-2-8.4c0-3.1,0.7-5.9,2-8.3c1.3-2.4,3.1-4.3,5.4-5.6c2.3-1.4,4.9-2,7.9-2
			c2.9,0,5.5,0.6,7.6,1.9c2.1,1.3,3.8,3.1,5,5.5c1.2,2.4,1.7,5.1,1.7,8.3v1.4h-19.9l0.1-5h13.3l-2.6,1.7c0-2.2-0.4-3.8-1.2-4.8
			c-0.8-1.1-2-1.6-3.6-1.6c-1.7,0-3,0.6-3.9,1.9s-1.3,3.2-1.3,5.7c0,3.2,0.6,5.4,1.7,6.8c1.2,1.3,3,2,5.5,2c1.5,0,3-0.2,4.6-0.8
			c1.5-0.5,2.9-1.2,4.1-2.1L1843.1,223.5z"/>
		<path class="st2" d="M1848.7,226.6v-21.7c0-1.4,0-2.9-0.1-4.4c-0.1-1.5-0.2-2.9-0.4-4.4h10.2l0.7,5.8l-0.7-0.3
			c1.1-2,2.6-3.5,4.4-4.7c1.8-1.1,3.9-1.7,6.3-1.7c7.2,0,10.7,4.4,10.7,13.1v18.2h-10.9v-17.7c0-1.9-0.3-3.2-1-4
			c-0.6-0.8-1.6-1.2-3-1.2c-1.6,0-3,0.6-4,1.7c-1,1.1-1.5,2.5-1.5,4.3v17H1848.7z"/>
		<path class="st2" d="M1883,204.1v-8h23.9v8H1883z M1907,217.9v8.2c-0.9,0.4-1.8,0.6-2.8,0.7s-1.9,0.2-2.9,0.2
			c-4.2,0-7.3-1.2-9.5-3.5c-2.1-2.4-3.1-5.6-3.1-9.6v-24.7l10.9-3.5v28.2c0,1,0.2,1.8,0.6,2.5s1,1.1,1.6,1.4
			c0.7,0.3,1.4,0.5,2.2,0.5c0.4,0,0.8,0,1.3-0.1C1905.8,218.2,1906.4,218.1,1907,217.9z"/>
		<path class="st2" d="M1949.8,227.1c-4.5,0-8.4-0.9-11.6-2.7c-3.3-1.8-5.8-4.4-7.6-7.7c-1.8-3.3-2.7-7.1-2.7-11.5
			c0-4.4,0.9-8.2,2.7-11.5c1.8-3.3,4.3-5.8,7.6-7.7c3.3-1.8,7.2-2.7,11.6-2.7c2.8,0,5.5,0.4,8.1,1.3c2.6,0.8,4.7,2,6.3,3.4l-3.4,8
			c-1.8-1.3-3.6-2.3-5.4-2.9c-1.8-0.6-3.6-0.9-5.4-0.9c-3.4,0-6,1.1-7.9,3.2c-1.9,2.2-2.8,5.4-2.8,9.7s0.9,7.6,2.8,9.8
			s4.5,3.3,7.9,3.3c1.8,0,3.6-0.3,5.4-0.9c1.8-0.6,3.6-1.6,5.4-2.9l3.4,8c-1.6,1.4-3.7,2.6-6.3,3.4
			C1955.3,226.7,1952.6,227.1,1949.8,227.1z"/>
		<path class="st2" d="M1984.3,227.1c-3.4,0-6.4-0.6-8.9-1.9c-2.5-1.3-4.4-3.1-5.8-5.5c-1.4-2.4-2-5.2-2-8.5c0-3.2,0.7-6,2-8.4
			c1.4-2.4,3.3-4.2,5.8-5.5c2.5-1.3,5.5-2,8.9-2c3.4,0,6.3,0.7,8.8,2c2.5,1.3,4.4,3.1,5.8,5.5c1.4,2.4,2,5.2,2,8.4
			c0,3.3-0.7,6.1-2,8.5c-1.4,2.4-3.3,4.2-5.8,5.5C1990.6,226.4,1987.7,227.1,1984.3,227.1z M1984.3,219c1.9,0,3.3-0.6,4.4-1.9
			c1-1.2,1.5-3.2,1.5-5.9c0-2.7-0.5-4.6-1.5-5.9c-1-1.2-2.5-1.9-4.4-1.9c-2,0-3.4,0.6-4.5,1.9c-1,1.2-1.5,3.2-1.5,5.9
			c0,2.7,0.5,4.7,1.5,5.9C1980.9,218.3,1982.4,219,1984.3,219z"/>
		<path class="st2" d="M2006,226.6v-21.7c0-1.4,0-2.9-0.1-4.4c-0.1-1.5-0.2-2.9-0.4-4.4h10.2l0.7,5.8l-0.7-0.3
			c1.1-2,2.6-3.5,4.4-4.7c1.8-1.1,3.9-1.7,6.3-1.7c7.2,0,10.7,4.4,10.7,13.1v18.2h-10.9v-17.7c0-1.9-0.3-3.2-1-4
			c-0.6-0.8-1.6-1.2-3-1.2c-1.6,0-3,0.6-4,1.7c-1,1.1-1.5,2.5-1.5,4.3v17H2006z"/>
		<path class="st2" d="M2055.8,227.1c-6.1,0-10.9-1.2-14.4-3.7l2.8-7.4c1.6,1.1,3.5,2,5.6,2.6c2.1,0.6,4.1,0.9,6.1,0.9
			c1.2,0,2.2-0.2,2.9-0.5c0.7-0.4,1-0.9,1-1.5c0-0.6-0.3-1-0.8-1.3c-0.5-0.3-1.5-0.6-2.8-1l-4.9-1.1c-3.1-0.6-5.4-1.6-6.8-3
			c-1.4-1.4-2.1-3.3-2.1-5.7c0-2,0.6-3.7,1.7-5.2c1.2-1.5,2.8-2.7,4.8-3.6c2.1-0.9,4.4-1.3,7.1-1.3c2.2,0,4.4,0.3,6.5,1
			s4.1,1.6,5.9,2.7l-2.9,7.2c-1.6-1-3.2-1.8-4.9-2.4c-1.7-0.6-3.3-0.8-4.7-0.8c-1.2,0-2.1,0.2-2.8,0.6c-0.7,0.4-1,0.9-1,1.6
			c0,0.4,0.2,0.8,0.6,1.1c0.4,0.3,1.2,0.5,2.3,0.8l5.1,1.1c3.2,0.7,5.6,1.8,7,3.3c1.4,1.5,2.1,3.5,2.1,6c0,3-1.2,5.4-3.6,7.1
			C2063.3,226.2,2060,227.1,2055.8,227.1z"/>
		<path class="st2" d="M2085.2,227.1c-3.9,0-6.8-1.1-8.7-3.2c-1.9-2.2-2.9-5.5-2.9-9.9v-17.8h10.9v18.1c0,1.5,0.3,2.7,1,3.4
			c0.6,0.7,1.6,1.1,2.9,1.1c1.5,0,2.7-0.5,3.7-1.6c0.9-1.1,1.4-2.5,1.4-4.3v-16.7h11v30.5h-10.6v-5.9l0.8,0.3
			c-0.9,2-2.2,3.5-3.8,4.5C2089.3,226.5,2087.4,227.1,2085.2,227.1z"/>
		<path class="st2" d="M2111,226.6v-44.2h10.9v44.2H2111z"/>
		<path class="st2" d="M2125.3,204.1v-8h23.9v8H2125.3z M2149.3,217.9v8.2c-0.9,0.4-1.8,0.6-2.8,0.7c-0.9,0.1-1.9,0.2-2.9,0.2
			c-4.2,0-7.4-1.2-9.5-3.5c-2.1-2.4-3.2-5.6-3.2-9.6v-24.7l10.9-3.5v28.2c0,1,0.2,1.8,0.6,2.5s1,1.1,1.6,1.4
			c0.7,0.3,1.4,0.5,2.2,0.5c0.4,0,0.8,0,1.3-0.1C2148.1,218.2,2148.7,218.1,2149.3,217.9z"/>
		<path class="st2" d="M2165.4,227.1c-2.6,0-4.9-0.6-7-1.9c-2-1.3-3.6-3.1-4.8-5.5c-1.1-2.4-1.7-5.1-1.7-8.3c0-3.2,0.6-6,1.7-8.4
			c1.2-2.4,2.8-4.3,4.8-5.7c2-1.4,4.3-2,6.9-2c2.3,0,4.4,0.6,6.3,1.7c1.9,1.1,3.1,2.6,3.8,4.5l-0.7,0.4v-5.8h10.7v30.5h-10.7V221
			h0.7c-0.7,1.9-2,3.4-3.8,4.4C2169.8,226.5,2167.7,227.1,2165.4,227.1z M2168.8,219c1.9,0,3.3-0.7,4.4-2c1.1-1.3,1.6-3.2,1.6-5.7
			c0-2.6-0.5-4.5-1.6-5.8s-2.5-2-4.4-2c-1.9,0-3.4,0.7-4.4,2.1s-1.6,3.3-1.6,5.9c0,2.4,0.5,4.3,1.6,5.6
			C2165.3,218.3,2166.8,219,2168.8,219z"/>
		<path class="st2" d="M2191.9,226.6v-21.7c0-1.4,0-2.9-0.1-4.4c-0.1-1.5-0.2-2.9-0.4-4.4h10.2l0.7,5.8l-0.7-0.3
			c1.1-2,2.6-3.5,4.4-4.7c1.8-1.1,3.9-1.7,6.3-1.7c7.2,0,10.7,4.4,10.7,13.1v18.2h-10.9v-17.7c0-1.9-0.3-3.2-1-4
			c-0.6-0.8-1.6-1.2-3-1.2c-1.6,0-3,0.6-4,1.7c-1,1.1-1.5,2.5-1.5,4.3v17H2191.9z"/>
		<path class="st2" d="M2244.5,227.1c-3.4,0-6.4-0.6-8.9-1.9c-2.5-1.3-4.4-3.1-5.7-5.4c-1.3-2.4-1.9-5.1-1.9-8.3
			c0-3.2,0.7-6.1,2.1-8.5c1.4-2.4,3.4-4.3,5.9-5.6s5.5-2,8.9-2c2.2,0,4.4,0.3,6.6,1c2.2,0.7,3.9,1.6,5.2,2.7l-2.8,7.5
			c-1.1-0.9-2.3-1.6-3.8-2.1c-1.4-0.5-2.8-0.8-4.1-0.8c-2.2,0-3.9,0.6-5.1,1.9c-1.2,1.2-1.9,3.2-1.9,5.8c0,2.6,0.6,4.6,1.8,5.8
			c1.2,1.3,2.9,1.9,5.2,1.9c1.3,0,2.6-0.3,4.1-0.8c1.4-0.5,2.7-1.2,3.8-2.1l2.8,7.4c-1.4,1.2-3.1,2.1-5.3,2.7
			C2249.2,226.7,2246.9,227.1,2244.5,227.1z"/>
		<path class="st2" d="M2270.3,229.2l-14.5-33.1h11.3l7.8,20.1L2270.3,229.2z M2260.6,240.3l-2.5-8.3c1.9-0.4,3.4-0.8,4.7-1.3
			c1.2-0.5,2.2-1.2,3-1.9c0.8-0.7,1.4-1.6,1.9-2.6l2.5-5.5l2.9-4.4l8.1-20.1h10.7l-14,31.6c-1.3,2.9-2.8,5.2-4.5,7
			c-1.7,1.7-3.6,3-5.8,3.9C2265.4,239.4,2263.1,240,2260.6,240.3z"/>
	</g>
</g>
<g>
	<g class="st81">
		<path class="st2" d="M273.8,226.6v-42.7h17.5c4.8,0,8.8,0.8,12.2,2.5c3.4,1.7,6,4.1,7.8,7.3c1.8,3.2,2.7,7,2.7,11.4
			c0,4.5-0.9,8.3-2.7,11.5c-1.8,3.2-4.4,5.7-7.8,7.4c-3.4,1.7-7.5,2.5-12.3,2.5H273.8z M285.1,217.6h5.4c4.2,0,7.3-1,9.3-3.1
			c2.1-2.1,3.1-5.2,3.1-9.3c0-8.2-4.1-12.3-12.4-12.3h-5.4V217.6z"/>
		<path class="st2" d="M331.4,227.1c-3.9,0-6.8-1.1-8.7-3.2c-1.9-2.2-2.9-5.5-2.9-9.9v-17.8h10.9v18.1c0,1.5,0.3,2.7,1,3.4
			c0.6,0.7,1.6,1.1,2.9,1.1c1.5,0,2.8-0.5,3.7-1.6c0.9-1.1,1.4-2.5,1.4-4.3v-16.7h11v30.5h-10.6v-5.9l0.8,0.3
			c-0.9,2-2.2,3.5-3.8,4.5C335.5,226.5,333.6,227.1,331.4,227.1z"/>
		<path class="st2" d="M384.8,223.5c-1.5,1.2-3.4,2.1-5.5,2.7c-2.2,0.6-4.3,0.9-6.5,0.9c-3.5,0-6.5-0.6-9.1-1.9
			c-2.5-1.3-4.5-3.1-5.8-5.5c-1.4-2.4-2-5.2-2-8.4c0-3.1,0.6-5.9,2-8.3c1.3-2.4,3.1-4.3,5.4-5.6c2.3-1.4,4.9-2,7.9-2
			c2.9,0,5.4,0.6,7.6,1.9c2.1,1.3,3.8,3.1,5,5.5c1.2,2.4,1.7,5.1,1.7,8.3v1.4h-19.9l0.1-5h13.3l-2.6,1.7c0-2.2-0.4-3.8-1.2-4.8
			c-0.8-1.1-2-1.6-3.6-1.6c-1.7,0-3,0.6-3.9,1.9c-0.9,1.3-1.4,3.2-1.4,5.7c0,3.2,0.6,5.4,1.7,6.8c1.2,1.3,3,2,5.5,2
			c1.5,0,3-0.2,4.6-0.8c1.5-0.5,2.9-1.2,4.1-2.1L384.8,223.5z"/>
		<path class="st2" d="M408.4,226.6v-42.7h17.5c4.8,0,8.8,0.8,12.2,2.5c3.4,1.7,6,4.1,7.8,7.3c1.8,3.2,2.7,7,2.7,11.4
			c0,4.5-0.9,8.3-2.7,11.5c-1.8,3.2-4.4,5.7-7.8,7.4c-3.4,1.7-7.5,2.5-12.3,2.5H408.4z M419.7,217.6h5.4c4.2,0,7.3-1,9.3-3.1
			c2.1-2.1,3.1-5.2,3.1-9.3c0-8.2-4.1-12.3-12.4-12.3h-5.4V217.6z"/>
		<path class="st2" d="M454.4,181.2h11.3v9.8h-11.3V181.2z M454.7,226.6v-30.5h10.9v30.5H454.7z"/>
		<path class="st2" d="M472,226.6v-44.2h10.9v44.2H472z"/>
		<path class="st2" d="M489,181.2h11.3v9.8H489V181.2z M489.3,226.6v-30.5h10.9v30.5H489.3z"/>
		<path class="st2" d="M521.4,240c-4.9,0-9.2-0.9-12.9-2.6l1.6-7.9c1.8,0.8,3.6,1.5,5.5,1.9c1.9,0.4,3.7,0.7,5.4,0.7
			c2.5,0,4.3-0.5,5.5-1.6c1.2-1.1,1.8-2.7,1.8-5v-6.6l0.7,0.9c-0.5,0.9-1.2,1.8-2.2,2.8s-2.2,1.7-3.6,2.3c-1.4,0.6-2.9,0.9-4.4,0.9
			c-2.6,0-4.9-0.6-7-1.9c-2.1-1.2-3.7-3-4.8-5.3c-1.2-2.3-1.7-5-1.7-8.1c0-3,0.6-5.7,1.7-8c1.2-2.3,2.8-4.1,4.8-5.3
			c2.1-1.3,4.4-1.9,7-1.9c2.4,0,4.5,0.6,6.4,1.7c1.9,1.1,3.2,2.6,3.8,4.4l-0.7,1.1v-6.4h10.8v28.6c0,5-1.5,8.9-4.5,11.5
			C531.6,238.7,527.2,240,521.4,240z M522.2,217.6c1.9,0,3.4-0.6,4.5-1.9c1.1-1.3,1.6-3,1.6-5.3c0-2.2-0.5-3.9-1.6-5.1
			c-1.1-1.3-2.6-1.9-4.5-1.9c-1.9,0-3.4,0.6-4.5,1.9c-1.1,1.2-1.7,3-1.7,5.2c0,2.2,0.6,3.9,1.7,5.2
			C518.8,217,520.3,217.6,522.2,217.6z"/>
		<path class="st2" d="M573.1,223.5c-1.5,1.2-3.4,2.1-5.5,2.7c-2.2,0.6-4.3,0.9-6.5,0.9c-3.5,0-6.6-0.6-9.1-1.9
			c-2.5-1.3-4.5-3.1-5.9-5.5c-1.4-2.4-2-5.2-2-8.4c0-3.1,0.7-5.9,2-8.3c1.3-2.4,3.1-4.3,5.4-5.6c2.3-1.4,4.9-2,7.9-2
			c2.9,0,5.5,0.6,7.6,1.9c2.1,1.3,3.8,3.1,5,5.5c1.2,2.4,1.7,5.1,1.7,8.3v1.4h-19.9l0.1-5h13.3l-2.6,1.7c0-2.2-0.4-3.8-1.2-4.8
			c-0.8-1.1-2-1.6-3.6-1.6c-1.7,0-3,0.6-3.9,1.9s-1.3,3.2-1.3,5.7c0,3.2,0.6,5.4,1.7,6.8c1.2,1.3,3,2,5.5,2c1.5,0,3-0.2,4.6-0.8
			c1.5-0.5,2.9-1.2,4.1-2.1L573.1,223.5z"/>
		<path class="st2" d="M578.7,226.6v-21.7c0-1.4,0-2.9-0.1-4.4c-0.1-1.5-0.2-2.9-0.4-4.4h10.2l0.7,5.8l-0.7-0.3
			c1.1-2,2.6-3.5,4.4-4.7c1.8-1.1,3.9-1.7,6.3-1.7c7.2,0,10.7,4.4,10.7,13.1v18.2h-10.9v-17.7c0-1.9-0.3-3.2-1-4
			c-0.6-0.8-1.6-1.2-3-1.2c-1.6,0-3,0.6-4,1.7c-1,1.1-1.5,2.5-1.5,4.3v17H578.7z"/>
		<path class="st2" d="M631.2,227.1c-3.4,0-6.4-0.6-8.9-1.9c-2.5-1.3-4.4-3.1-5.7-5.4c-1.3-2.4-2-5.1-2-8.3c0-3.2,0.7-6.1,2.1-8.5
			c1.4-2.4,3.4-4.3,5.9-5.6c2.5-1.3,5.5-2,8.9-2c2.2,0,4.4,0.3,6.6,1s3.9,1.6,5.2,2.7l-2.8,7.5c-1.1-0.9-2.3-1.6-3.8-2.1
			c-1.4-0.5-2.8-0.8-4.1-0.8c-2.2,0-3.9,0.6-5.1,1.9c-1.2,1.2-1.9,3.2-1.9,5.8c0,2.6,0.6,4.6,1.8,5.8c1.2,1.3,2.9,1.9,5.2,1.9
			c1.3,0,2.6-0.3,4.1-0.8c1.4-0.5,2.7-1.2,3.8-2.1l2.8,7.4c-1.4,1.2-3.1,2.1-5.3,2.7C636,226.7,633.7,227.1,631.2,227.1z"/>
		<path class="st2" d="M674.6,223.5c-1.5,1.2-3.4,2.1-5.5,2.7c-2.2,0.6-4.3,0.9-6.5,0.9c-3.5,0-6.5-0.6-9.1-1.9
			c-2.5-1.3-4.5-3.1-5.8-5.5c-1.4-2.4-2-5.2-2-8.4c0-3.1,0.6-5.9,2-8.3c1.3-2.4,3.1-4.3,5.4-5.6c2.3-1.4,4.9-2,7.9-2
			c2.9,0,5.4,0.6,7.6,1.9c2.1,1.3,3.8,3.1,5,5.5c1.2,2.4,1.7,5.1,1.7,8.3v1.4h-19.9l0.1-5h13.3l-2.6,1.7c0-2.2-0.4-3.8-1.2-4.8
			c-0.8-1.1-2-1.6-3.6-1.6c-1.7,0-3,0.6-3.9,1.9c-0.9,1.3-1.4,3.2-1.4,5.7c0,3.2,0.6,5.4,1.7,6.8c1.2,1.3,3,2,5.5,2
			c1.5,0,3-0.2,4.6-0.8c1.5-0.5,2.9-1.2,4.1-2.1L674.6,223.5z"/>
	</g>
</g>
<g>
	<g class="st81">
		<path class="st2" d="M1874.3,584.5v-42.7h20.8c4.4,0,8,1,10.7,3c2.7,2,4,4.7,4,8.1c0,2.3-0.7,4.4-2,6.1c-1.3,1.7-3.2,3-5.5,3.6
			v-0.5c2.8,0.7,4.9,1.9,6.4,3.8s2.3,4.1,2.3,6.9c0,3.5-1.4,6.4-4.1,8.5c-2.7,2.1-6.5,3.2-11.2,3.2H1874.3z M1885.3,558.5h7.9
			c2.1,0,3.6-0.3,4.6-1c1-0.6,1.4-1.7,1.4-3.1c0-1.5-0.5-2.5-1.5-3.2c-1-0.7-2.5-1-4.5-1h-7.9V558.5z M1885.3,576h9
			c2.2,0,3.7-0.3,4.7-1c0.9-0.7,1.4-1.8,1.4-3.4c0-1.6-0.5-2.8-1.4-3.5c-0.9-0.7-2.5-1-4.7-1h-9V576z"/>
		<path class="st2" d="M1927.2,585c-3.9,0-6.8-1.1-8.7-3.2c-1.9-2.2-2.8-5.5-2.8-9.9V554h10.9v18.1c0,1.5,0.3,2.7,1,3.4
			s1.6,1.1,2.9,1.1c1.5,0,2.8-0.5,3.7-1.6c0.9-1.1,1.4-2.5,1.4-4.3V554h11v30.5h-10.6v-5.9l0.8,0.3c-0.9,2-2.2,3.5-3.8,4.5
			C1931.3,584.5,1929.4,585,1927.2,585z"/>
		<path class="st2" d="M1965.3,585c-6.1,0-10.9-1.2-14.4-3.7l2.8-7.4c1.6,1.1,3.5,2,5.6,2.6c2.1,0.6,4.1,0.9,6.1,0.9
			c1.2,0,2.2-0.2,2.9-0.5c0.7-0.4,1-0.9,1-1.5c0-0.6-0.3-1-0.8-1.3c-0.5-0.3-1.5-0.6-2.9-1l-4.9-1.1c-3.1-0.6-5.4-1.6-6.8-3
			s-2.1-3.3-2.1-5.7c0-2,0.6-3.7,1.7-5.2c1.2-1.5,2.8-2.7,4.8-3.6c2.1-0.9,4.4-1.3,7.1-1.3c2.2,0,4.4,0.3,6.5,1
			c2.1,0.7,4.1,1.6,5.9,2.7l-2.9,7.2c-1.6-1-3.2-1.8-4.9-2.4c-1.7-0.6-3.3-0.8-4.7-0.8c-1.2,0-2.1,0.2-2.8,0.6c-0.7,0.4-1,0.9-1,1.6
			c0,0.4,0.2,0.8,0.6,1.1c0.4,0.3,1.2,0.5,2.3,0.8l5.1,1.1c3.2,0.7,5.6,1.8,7,3.3c1.4,1.5,2.1,3.5,2.1,6c0,3-1.2,5.4-3.6,7.1
			C1972.8,584.1,1969.5,585,1965.3,585z"/>
		<path class="st2" d="M1983.1,539.1h11.3v9.8h-11.3V539.1z M1983.4,584.5V554h10.9v30.5H1983.4z"/>
		<path class="st2" d="M2000.7,584.5v-21.7c0-1.4,0-2.9-0.1-4.4c-0.1-1.5-0.2-2.9-0.4-4.4h10.2l0.7,5.8l-0.7-0.3
			c1.1-2,2.6-3.5,4.4-4.7c1.8-1.1,3.9-1.7,6.3-1.7c7.2,0,10.7,4.4,10.7,13.1v18.2H2021v-17.7c0-1.9-0.3-3.2-1-4
			c-0.6-0.8-1.6-1.2-3-1.2c-1.6,0-3,0.6-4,1.7c-1,1.1-1.5,2.5-1.5,4.3v17H2000.7z"/>
		<path class="st2" d="M2065.8,581.4c-1.5,1.2-3.4,2.1-5.5,2.7c-2.2,0.6-4.3,0.9-6.5,0.9c-3.5,0-6.6-0.6-9.1-1.9
			c-2.5-1.3-4.5-3.1-5.9-5.5c-1.4-2.4-2-5.2-2-8.4c0-3.1,0.7-5.9,2-8.3c1.3-2.4,3.1-4.3,5.4-5.6c2.3-1.4,4.9-2,7.9-2
			c2.9,0,5.5,0.6,7.6,1.9c2.1,1.3,3.8,3.1,5,5.5c1.2,2.4,1.7,5.1,1.7,8.3v1.4h-19.9l0.1-5h13.3l-2.6,1.7c0-2.2-0.4-3.8-1.2-4.8
			c-0.8-1.1-2-1.6-3.6-1.6c-1.7,0-3,0.6-3.9,1.9s-1.3,3.2-1.3,5.7c0,3.2,0.6,5.4,1.7,6.8c1.2,1.3,3,2,5.5,2c1.5,0,3-0.2,4.6-0.8
			c1.5-0.5,2.9-1.2,4.1-2.1L2065.8,581.4z"/>
		<path class="st2" d="M2083.7,585c-6.1,0-10.9-1.2-14.4-3.7l2.8-7.4c1.6,1.1,3.5,2,5.6,2.6c2.1,0.6,4.1,0.9,6.1,0.9
			c1.2,0,2.2-0.2,2.9-0.5c0.7-0.4,1-0.9,1-1.5c0-0.6-0.3-1-0.8-1.3c-0.5-0.3-1.5-0.6-2.9-1l-4.9-1.1c-3.1-0.6-5.4-1.6-6.8-3
			s-2.1-3.3-2.1-5.7c0-2,0.6-3.7,1.7-5.2c1.2-1.5,2.8-2.7,4.8-3.6c2.1-0.9,4.4-1.3,7.1-1.3c2.2,0,4.4,0.3,6.5,1
			c2.1,0.7,4.1,1.6,5.9,2.7l-2.9,7.2c-1.6-1-3.2-1.8-4.9-2.4c-1.7-0.6-3.3-0.8-4.7-0.8c-1.2,0-2.1,0.2-2.8,0.6c-0.7,0.4-1,0.9-1,1.6
			c0,0.4,0.2,0.8,0.6,1.1c0.4,0.3,1.2,0.5,2.3,0.8l5.1,1.1c3.2,0.7,5.6,1.8,7,3.3c1.4,1.5,2.1,3.5,2.1,6c0,3-1.2,5.4-3.6,7.1
			C2091.1,584.1,2087.9,585,2083.7,585z"/>
		<path class="st2" d="M2114.1,585c-6.1,0-10.9-1.2-14.4-3.7l2.8-7.4c1.6,1.1,3.5,2,5.6,2.6c2.1,0.6,4.1,0.9,6.1,0.9
			c1.2,0,2.2-0.2,2.9-0.5c0.7-0.4,1-0.9,1-1.5c0-0.6-0.3-1-0.8-1.3c-0.5-0.3-1.5-0.6-2.8-1l-4.9-1.1c-3.1-0.6-5.4-1.6-6.8-3
			s-2.1-3.3-2.1-5.7c0-2,0.6-3.7,1.7-5.2c1.2-1.5,2.8-2.7,4.8-3.6c2.1-0.9,4.4-1.3,7.1-1.3c2.2,0,4.4,0.3,6.5,1s4.1,1.6,5.9,2.7
			l-2.9,7.2c-1.6-1-3.2-1.8-4.9-2.4c-1.7-0.6-3.3-0.8-4.7-0.8c-1.2,0-2.1,0.2-2.8,0.6c-0.7,0.4-1.1,0.9-1.1,1.6
			c0,0.4,0.2,0.8,0.6,1.1c0.4,0.3,1.2,0.5,2.3,0.8l5.1,1.1c3.2,0.7,5.6,1.8,7,3.3c1.4,1.5,2.1,3.5,2.1,6c0,3-1.2,5.4-3.6,7.1
			S2118.3,585,2114.1,585z"/>
		<path class="st2" d="M2150.2,584.5v-42.7h20.3c5,0,8.8,1.2,11.4,3.5c2.6,2.4,4,5.5,4,9.5s-1.3,7.1-4,9.5s-6.5,3.5-11.3,3.5h-9.1
			v16.7H2150.2z M2161.5,559.4h7.6c2.2,0,3.8-0.4,4.8-1.2s1.5-1.9,1.5-3.3c0-1.5-0.5-2.7-1.5-3.5c-1-0.8-2.6-1.2-4.9-1.2h-7.6V559.4
			z"/>
		<path class="st2" d="M2190.7,584.5v-44.2h10.9v44.2H2190.7z"/>
		<path class="st2" d="M2220.1,585c-2.6,0-4.9-0.6-7-1.9c-2-1.3-3.6-3.1-4.8-5.5c-1.1-2.4-1.7-5.1-1.7-8.3c0-3.2,0.6-6,1.7-8.4
			c1.2-2.4,2.7-4.3,4.8-5.7c2-1.4,4.3-2,6.9-2c2.3,0,4.4,0.6,6.3,1.7c1.9,1.1,3.1,2.6,3.8,4.5l-0.7,0.4V554h10.7v30.5h-10.7v-5.6
			h0.7c-0.7,1.9-1.9,3.4-3.8,4.4S2222.4,585,2220.1,585z M2223.4,576.9c1.9,0,3.3-0.7,4.4-2c1.1-1.3,1.6-3.2,1.6-5.7
			c0-2.6-0.5-4.5-1.6-5.8c-1-1.3-2.5-2-4.4-2c-1.9,0-3.4,0.7-4.4,2.1c-1.1,1.4-1.6,3.3-1.6,5.9c0,2.4,0.5,4.3,1.6,5.6
			C2220,576.2,2221.5,576.9,2223.4,576.9z"/>
		<path class="st2" d="M2246.6,584.5v-21.7c0-1.4,0-2.9-0.1-4.4c-0.1-1.5-0.2-2.9-0.4-4.4h10.2l0.7,5.8l-0.7-0.3
			c1.1-2,2.6-3.5,4.4-4.7c1.8-1.1,3.9-1.7,6.3-1.7c7.2,0,10.7,4.4,10.7,13.1v18.2h-10.9v-17.7c0-1.9-0.3-3.2-1-4
			c-0.6-0.8-1.6-1.2-3-1.2c-1.6,0-3,0.6-4,1.7c-1,1.1-1.5,2.5-1.5,4.3v17H2246.6z"/>
	</g>
</g>
<g>
	<g class="st81">
		<path class="st2" d="M1045,1148.3v-42.7h8.8l14.6,33.4h-3.7l14.6-33.4h8.8v42.7h-9.8l-0.1-25.7l2.3,0.7l-10.4,25h-7.1l-10.6-25
			l2.4-0.7v25.7H1045z"/>
		<path class="st2" d="M1107.4,1148.7c-2.6,0-4.9-0.6-7-1.9c-2-1.3-3.6-3.1-4.8-5.5c-1.1-2.4-1.7-5.1-1.7-8.3c0-3.2,0.6-6,1.7-8.4
			c1.2-2.4,2.7-4.3,4.8-5.7c2-1.4,4.3-2,6.9-2c2.3,0,4.4,0.6,6.3,1.7c1.9,1.1,3.1,2.6,3.8,4.5l-0.7,0.4v-5.8h10.7v30.5h-10.7v-5.6
			h0.7c-0.7,1.9-1.9,3.4-3.8,4.4C1111.8,1148.2,1109.7,1148.7,1107.4,1148.7z M1110.7,1140.6c1.9,0,3.3-0.7,4.4-2
			c1.1-1.3,1.6-3.2,1.6-5.7c0-2.6-0.5-4.5-1.6-5.8c-1-1.3-2.5-2-4.4-2c-1.9,0-3.4,0.7-4.4,2.1c-1.1,1.4-1.6,3.3-1.6,5.9
			c0,2.4,0.5,4.3,1.6,5.6C1107.3,1140,1108.8,1140.6,1110.7,1140.6z"/>
		<path class="st2" d="M1133.9,1148.3v-21.7c0-1.4,0-2.9-0.1-4.4s-0.2-2.9-0.4-4.4h10.2l0.7,5.8l-0.7-0.3c1.1-2,2.6-3.5,4.4-4.7
			c1.8-1.1,3.9-1.7,6.3-1.7c7.2,0,10.7,4.4,10.7,13.1v18.2h-10.9v-17.7c0-1.9-0.3-3.2-1-4c-0.6-0.8-1.6-1.2-3-1.2
			c-1.6,0-3,0.6-4,1.7c-1,1.1-1.5,2.5-1.5,4.3v17H1133.9z"/>
		<path class="st2" d="M1183.4,1148.7c-2.6,0-4.9-0.6-7-1.9c-2-1.3-3.6-3.1-4.8-5.5c-1.1-2.4-1.7-5.1-1.7-8.3c0-3.2,0.6-6,1.7-8.4
			c1.2-2.4,2.7-4.3,4.8-5.7c2-1.4,4.3-2,6.9-2c2.3,0,4.4,0.6,6.3,1.7c1.9,1.1,3.1,2.6,3.8,4.5l-0.7,0.4v-5.8h10.7v30.5h-10.7v-5.6
			h0.7c-0.7,1.9-1.9,3.4-3.8,4.4C1187.8,1148.2,1185.7,1148.7,1183.4,1148.7z M1186.7,1140.6c1.9,0,3.3-0.7,4.4-2
			c1.1-1.3,1.6-3.2,1.6-5.7c0-2.6-0.5-4.5-1.6-5.8c-1-1.3-2.5-2-4.4-2c-1.9,0-3.4,0.7-4.4,2.1c-1.1,1.4-1.6,3.3-1.6,5.9
			c0,2.4,0.5,4.3,1.6,5.6C1183.3,1140,1184.8,1140.6,1186.7,1140.6z"/>
		<path class="st2" d="M1224.7,1161.7c-4.9,0-9.2-0.9-12.9-2.6l1.6-7.9c1.8,0.8,3.6,1.5,5.5,1.9c1.9,0.4,3.7,0.7,5.4,0.7
			c2.5,0,4.3-0.5,5.5-1.6c1.2-1.1,1.8-2.7,1.8-5v-6.6l0.7,0.9c-0.5,0.9-1.2,1.8-2.2,2.8c-1,0.9-2.2,1.7-3.6,2.3
			c-1.4,0.6-2.9,0.9-4.4,0.9c-2.6,0-4.9-0.6-7-1.9c-2.1-1.2-3.7-3-4.8-5.3c-1.2-2.3-1.7-5-1.7-8.1c0-3,0.6-5.7,1.7-8
			c1.2-2.3,2.8-4.1,4.8-5.3c2.1-1.3,4.4-1.9,7-1.9c2.4,0,4.5,0.6,6.4,1.7c1.9,1.1,3.2,2.6,3.8,4.4l-0.7,1.1v-6.4h10.8v28.6
			c0,5-1.5,8.9-4.5,11.5C1234.9,1160.4,1230.5,1161.7,1224.7,1161.7z M1225.4,1139.3c1.9,0,3.4-0.6,4.5-1.9c1.1-1.3,1.6-3,1.6-5.3
			c0-2.2-0.5-3.9-1.6-5.1c-1.1-1.3-2.6-1.9-4.5-1.9c-1.9,0-3.4,0.6-4.5,1.9c-1.1,1.2-1.6,3-1.6,5.2c0,2.2,0.6,3.9,1.7,5.2
			C1222.1,1138.7,1223.6,1139.3,1225.4,1139.3z"/>
		<path class="st2" d="M1276.3,1145.1c-1.5,1.2-3.4,2.1-5.5,2.7c-2.2,0.6-4.3,0.9-6.5,0.9c-3.5,0-6.6-0.6-9.1-1.9
			c-2.5-1.3-4.5-3.1-5.9-5.5c-1.4-2.4-2-5.2-2-8.4c0-3.1,0.6-5.9,2-8.3c1.3-2.4,3.1-4.3,5.4-5.6c2.3-1.4,4.9-2,7.9-2
			c2.9,0,5.4,0.6,7.6,1.9c2.1,1.3,3.8,3.1,5,5.5c1.2,2.4,1.7,5.1,1.7,8.3v1.4h-19.9l0.1-5h13.3l-2.6,1.7c0-2.2-0.4-3.8-1.2-4.8
			c-0.8-1.1-2-1.6-3.6-1.6c-1.7,0-3,0.6-3.9,1.9c-0.9,1.3-1.4,3.2-1.4,5.7c0,3.2,0.6,5.4,1.7,6.8c1.2,1.3,3,2,5.5,2
			c1.5,0,3-0.2,4.6-0.8c1.5-0.5,2.9-1.2,4.1-2.1L1276.3,1145.1z"/>
		<path class="st2" d="M1281.9,1148.3v-21.7c0-1.4,0-2.9-0.1-4.4c-0.1-1.5-0.2-2.9-0.4-4.4h10.2l0.7,5.8l-0.7-0.5
			c0.9-1.9,2.2-3.4,3.9-4.5c1.7-1.1,3.8-1.6,6.2-1.6c2.7,0,4.9,0.7,6.5,2.1c1.6,1.4,2.7,3.5,3.2,6.3l-1.4-1.9c1-2,2.5-3.5,4.4-4.7
			c1.9-1.2,4-1.8,6.3-1.8c3.6,0,6.2,1.1,7.9,3.3c1.7,2.2,2.5,5.5,2.5,9.9v18.2h-10.9v-17.9c0-1.8-0.3-3-0.8-3.9
			c-0.5-0.8-1.4-1.2-2.8-1.2c-1.5,0-2.7,0.6-3.5,1.7c-0.8,1.1-1.3,2.7-1.3,4.7v16.6H1301v-17.9c0-1.8-0.3-3-0.8-3.9
			c-0.5-0.8-1.5-1.2-2.7-1.2c-1.5,0-2.7,0.6-3.5,1.7c-0.8,1.1-1.2,2.7-1.2,4.7v16.6H1281.9z"/>
		<path class="st2" d="M1365,1145.1c-1.5,1.2-3.4,2.1-5.5,2.7c-2.2,0.6-4.3,0.9-6.5,0.9c-3.5,0-6.5-0.6-9.1-1.9
			c-2.5-1.3-4.5-3.1-5.8-5.5c-1.4-2.4-2-5.2-2-8.4c0-3.1,0.6-5.9,2-8.3c1.3-2.4,3.1-4.3,5.4-5.6c2.3-1.4,4.9-2,7.9-2
			c2.9,0,5.4,0.6,7.6,1.9c2.1,1.3,3.8,3.1,5,5.5c1.2,2.4,1.7,5.1,1.7,8.3v1.4h-19.9l0.1-5h13.3l-2.6,1.7c0-2.2-0.4-3.8-1.2-4.8
			c-0.8-1.1-2-1.6-3.6-1.6c-1.7,0-3,0.6-3.9,1.9c-0.9,1.3-1.4,3.2-1.4,5.7c0,3.2,0.6,5.4,1.7,6.8c1.2,1.3,3,2,5.5,2
			c1.5,0,3-0.2,4.6-0.8c1.5-0.5,2.9-1.2,4.1-2.1L1365,1145.1z"/>
		<path class="st2" d="M1370.6,1148.3v-21.7c0-1.4,0-2.9-0.1-4.4c-0.1-1.5-0.2-2.9-0.4-4.4h10.2l0.7,5.8l-0.7-0.3
			c1.1-2,2.6-3.5,4.4-4.7c1.8-1.1,3.9-1.7,6.3-1.7c7.2,0,10.7,4.4,10.7,13.1v18.2h-10.9v-17.7c0-1.9-0.3-3.2-1-4
			c-0.6-0.8-1.6-1.2-3-1.2c-1.6,0-3,0.6-4,1.7c-1,1.1-1.5,2.5-1.5,4.3v17H1370.6z"/>
		<path class="st2" d="M1405,1125.8v-8h23.9v8H1405z M1428.9,1139.6v8.2c-0.9,0.4-1.8,0.6-2.8,0.7c-0.9,0.1-1.9,0.2-2.9,0.2
			c-4.2,0-7.4-1.2-9.5-3.5s-3.2-5.6-3.2-9.6v-24.7l10.9-3.5v28.2c0,1,0.2,1.8,0.6,2.5s1,1.1,1.7,1.4c0.7,0.3,1.4,0.5,2.2,0.5
			c0.4,0,0.8,0,1.3-0.1C1427.8,1139.8,1428.3,1139.7,1428.9,1139.6z"/>
	</g>
	<g class="st81">
		<path class="st2" d="M1146.6,1220.3v-42.7h19.9c5.2,0,9.1,1.1,11.7,3.4c2.6,2.2,3.9,5.4,3.9,9.5c0,3.8-1.4,7-4.1,9.3
			c-2.7,2.4-6.4,3.6-11.3,3.6l5.2-1.1c1.4,0,2.8,0.4,4,1.3c1.2,0.9,2.2,2.2,2.9,4l5,12.7h-11.9l-5.5-14.2c-0.4-0.9-1-1.5-1.8-1.9
			c-0.8-0.4-1.7-0.5-2.7-0.5h-4.1v16.6H1146.6z M1157.6,1195.2h7.1c2.4,0,4.2-0.4,5.3-1.1c1.1-0.7,1.6-1.9,1.6-3.5
			c0-1.6-0.5-2.8-1.6-3.5c-1.1-0.7-2.8-1.1-5.3-1.1h-7.1V1195.2z"/>
		<path class="st2" d="M1216.4,1217.1c-1.5,1.2-3.4,2.1-5.5,2.7c-2.2,0.6-4.3,0.9-6.5,0.9c-3.5,0-6.6-0.6-9.1-1.9
			c-2.5-1.3-4.5-3.1-5.9-5.5c-1.4-2.4-2-5.2-2-8.4c0-3.1,0.6-5.9,2-8.3c1.3-2.4,3.1-4.3,5.4-5.6c2.3-1.4,4.9-2,7.9-2
			c2.9,0,5.4,0.6,7.6,1.9c2.1,1.3,3.8,3.1,5,5.5c1.2,2.4,1.7,5.1,1.7,8.3v1.4H1197l0.1-5h13.3l-2.6,1.7c0-2.2-0.4-3.8-1.2-4.8
			c-0.8-1.1-2-1.6-3.6-1.6c-1.7,0-3,0.6-3.9,1.9c-0.9,1.3-1.4,3.2-1.4,5.7c0,3.2,0.6,5.4,1.7,6.8c1.2,1.3,3,2,5.5,2
			c1.5,0,3-0.2,4.6-0.8c1.5-0.5,2.9-1.2,4.1-2.1L1216.4,1217.1z"/>
		<path class="st2" d="M1222,1233.2v-34.7c0-1.4,0-2.9-0.1-4.4s-0.2-2.9-0.4-4.4h10.2l0.7,5.7l-0.4-0.4c0.6-1.8,1.9-3.3,3.7-4.5
			c1.8-1.1,3.9-1.7,6.3-1.7c2.6,0,5,0.7,7,2c2,1.4,3.6,3.3,4.8,5.7c1.2,2.4,1.7,5.2,1.7,8.4c0,3.2-0.6,5.9-1.7,8.3
			c-1.2,2.4-2.8,4.2-4.8,5.5c-2,1.3-4.4,1.9-7,1.9c-2.4,0-4.5-0.5-6.3-1.6c-1.8-1.1-3.1-2.6-3.7-4.4l0.8-1.4v19.9H1222z
			 M1238.8,1212.6c2,0,3.4-0.6,4.4-2c1-1.3,1.5-3.2,1.5-5.6c0-2.5-0.5-4.5-1.5-5.9s-2.5-2.1-4.4-2.1c-2,0-3.5,0.7-4.5,2
			c-1,1.3-1.6,3.3-1.6,5.8c0,2.5,0.5,4.4,1.6,5.7C1235.3,1212,1236.8,1212.6,1238.8,1212.6z"/>
		<path class="st2" d="M1276.1,1220.7c-3.4,0-6.4-0.6-8.9-1.9c-2.5-1.3-4.4-3.1-5.8-5.5c-1.4-2.4-2-5.2-2-8.5c0-3.2,0.7-6,2-8.4
			c1.4-2.4,3.3-4.2,5.8-5.5c2.5-1.3,5.5-2,8.9-2c3.4,0,6.3,0.7,8.8,2c2.5,1.3,4.4,3.1,5.8,5.5c1.4,2.4,2,5.2,2,8.4
			c0,3.3-0.7,6.1-2,8.5c-1.4,2.4-3.3,4.2-5.8,5.5C1282.3,1220.1,1279.4,1220.7,1276.1,1220.7z M1276.1,1212.6c1.9,0,3.3-0.6,4.4-1.9
			c1-1.2,1.5-3.2,1.5-5.9c0-2.7-0.5-4.6-1.5-5.9c-1-1.2-2.5-1.9-4.4-1.9c-2,0-3.5,0.6-4.5,1.9c-1,1.2-1.5,3.2-1.5,5.9
			c0,2.7,0.5,4.7,1.5,5.9C1272.6,1212,1274.1,1212.6,1276.1,1212.6z"/>
		<path class="st2" d="M1297.8,1220.3v-21.7c0-1.4,0-2.9-0.1-4.4c-0.1-1.5-0.2-2.9-0.4-4.4h10.2l1,8.2l-1-0.6
			c0.4-2.8,1.5-4.8,3.3-6.2s3.9-2.1,6.2-2.1c0.8,0,1.4,0.1,2,0.2c0.6,0.1,1,0.3,1.4,0.5v9.9c-1.7-0.8-3.4-1.2-5-1.2
			c-1.4,0-2.7,0.2-3.7,0.7c-1,0.5-1.8,1.2-2.3,2.1c-0.6,1-0.8,2.2-0.8,3.7v15.3H1297.8z"/>
		<path class="st2" d="M1323.8,1197.8v-8h23.9v8H1323.8z M1347.7,1211.6v8.2c-0.9,0.4-1.8,0.6-2.8,0.7c-0.9,0.1-1.9,0.2-2.9,0.2
			c-4.2,0-7.4-1.2-9.5-3.5s-3.2-5.6-3.2-9.6v-24.7l10.9-3.5v28.2c0,1,0.2,1.8,0.6,2.5s1,1.1,1.7,1.4c0.7,0.3,1.4,0.5,2.2,0.5
			c0.4,0,0.8,0,1.3-0.1C1346.6,1211.8,1347.1,1211.7,1347.7,1211.6z"/>
	</g>
</g>
</svg>
