<?xml version="1.0" encoding="utf-8"?>
<!-- Generator: Adobe Illustrator 21.0.0, SVG Export Plug-In . SVG Version: 6.00 Build 0)  -->
<svg version="1.1" id="Layer_1" xmlns="http://www.w3.org/2000/svg" xmlns:xlink="http://www.w3.org/1999/xlink" x="0px" y="0px"
	 viewBox="0 0 1200 630" style="enable-background:new 0 0 1200 630;" xml:space="preserve">
<style type="text/css">
	.st0{fill:#F2F2F2;}
	.st1{fill:#C4A86A;}
	.st2{clip-path:url(#SVGID_6_);}
	.st3{clip-path:url(#SVGID_7_);fill:url(#SVGID_8_);}
	.st4{fill:url(#SVGID_9_);}
	.st5{fill:url(#SVGID_10_);}
	.st6{fill:url(#SVGID_11_);}
	.st7{fill:#C5A76B;}
	.st8{fill:#63799F;}
	.st9{fill:#C9A769;}
	.st10{opacity:0.98;fill:#AECBFC;enable-background:new    ;}
	.st11{fill:#E5D8C3;}
	.st12{fill:url(#SVGID_12_);}
	.st13{fill:url(#SVGID_14_);}
	.st14{fill:url(#SVGID_15_);}
	.st15{fill:url(#SVGID_16_);}
	.st16{fill:url(#SVGID_17_);}
	.st17{fill:url(#SVGID_18_);}
	.st18{fill:#D4D4D4;}
	.st19{fill:#FFFFFF;}
	.st20{fill:#DDDDDD;}
	.st21{fill:url(#SVGID_19_);}
	.st22{clip-path:url(#SVGID_22_);}
	.st23{clip-path:url(#SVGID_23_);fill:url(#SVGID_24_);}
	.st24{fill:url(#SVGID_25_);}
	.st25{fill:#DBA585;}
	.st26{fill:#393D3F;}
	.st27{fill:#807F7D;}
	.st28{fill:#323436;}
	.st29{fill:#D7C9C2;}
	.st30{fill:#4C5155;}
	.st31{fill:#997761;}
	.st32{fill:#2C323D;}
	.st33{fill:#404347;}
	.st34{fill:#ADA29E;}
	.st35{fill:#53575C;}
	.st36{fill:#EEE0D7;}
	.st37{fill:#4C55C6;}
	.st38{fill:#A79D97;}
	.st39{fill:#6C7279;}
	.st40{fill:#C99A5F;}
	.st41{fill:#EBB36F;}
	.st42{fill:#514E57;}
	.st43{fill:#3F3D44;}
	.st44{fill:#DBA686;}
	.st45{fill:#E4D7CE;}
	.st46{fill:#2F2F2F;}
	.st47{fill:#454545;}
	.st48{fill:#B9B59C;}
	.st49{fill:#7C736A;}
</style>
<rect x="1" class="st0" width="1200" height="422"/>
<g id="bg">
</g>
<rect y="324.2" class="st1" width="1200" height="305.8"/>
<g>
	<g>
		<defs>
			<polygon id="SVGID_4_" points="235.6,1.5 236.1,1.5 235.6,1.9 			"/>
		</defs>
		<defs>
			<polygon id="SVGID_5_" points="234.6,0.5 234.1,0.5 234.6,0 			"/>
		</defs>
		<clipPath id="SVGID_6_">
			<use xlink:href="#SVGID_4_"  style="overflow:visible;"/>
		</clipPath>
		<clipPath id="SVGID_7_" class="st2">
			<use xlink:href="#SVGID_5_"  style="overflow:visible;"/>
		</clipPath>
		
			<linearGradient id="SVGID_8_" gradientUnits="userSpaceOnUse" x1="599.4858" y1="821.324" x2="599.4858" y2="333.5494" gradientTransform="matrix(1 0 0 -1 0 630)">
			<stop  offset="0" style="stop-color:#FFFFFF"/>
			<stop  offset="1" style="stop-color:#000000"/>
		</linearGradient>
		<polygon class="st3" points="963.9,136.1 963.9,417 235.1,417 235.1,108.6 262.8,108.6 262.8,164.2 307.7,164.2 307.7,94.5 
			343.2,94.5 343.2,123.8 361.7,123.8 377.7,103.4 395.9,103.4 395.9,35.8 446.7,35.8 446.7,136.1 498.7,136.1 498.7,160.3 
			518.8,160.3 518.8,123.8 595.6,123.8 595.6,164.2 624.9,164.2 624.9,108.6 669.7,108.6 669.7,191.6 672.4,191.6 672.4,79.8 
			711.8,79.8 711.8,108.6 745.3,108.6 745.3,164.2 790.2,164.2 790.2,94.5 825.8,94.5 825.8,123.8 844.2,123.8 860.2,103.4 
			878.4,103.4 878.4,35.8 929.2,35.8 929.2,136.1 		"/>
	</g>
</g>
<linearGradient id="SVGID_9_" gradientUnits="userSpaceOnUse" x1="600" y1="821.324" x2="600" y2="333.5494" gradientTransform="matrix(1 0 0 -1 0 630)">
	<stop  offset="0" style="stop-color:#C5A76B"/>
	<stop  offset="1" style="stop-color:#FFFFFF"/>
</linearGradient>
<polygon class="st4" points="1200,136.1 1200,417 0,417 0,108.6 45.6,108.6 45.6,164.2 119.6,164.2 119.6,94.5 178.1,94.5 
	178.1,123.8 208.5,123.8 234.8,103.4 264.7,103.4 264.7,35.8 348.4,35.8 348.4,136.1 434,136.1 434,160.3 467.1,160.3 467.1,123.8 
	593.5,123.8 593.5,164.2 641.9,164.2 641.9,108.6 715.7,108.6 715.7,191.6 720,191.6 720,79.8 785,79.8 785,108.6 840.1,108.6 
	840.1,164.2 914.1,164.2 914.1,94.5 972.6,94.5 972.6,123.8 1003,123.8 1029.3,103.4 1059.2,103.4 1059.2,35.8 1142.9,35.8 
	1142.9,136.1 "/>
<linearGradient id="SVGID_10_" gradientUnits="userSpaceOnUse" x1="-2609.5566" y1="343.8936" x2="-2559.3831" y2="126.4742" gradientTransform="matrix(0.8811 -0.473 -0.473 -0.8811 2752.7842 -883.7474)">
	<stop  offset="0" style="stop-color:#FFFFFF"/>
	<stop  offset="1" style="stop-color:#E3E8EE"/>
</linearGradient>
<path class="st5" d="M455.6,52.5c-22.5-12.5-51-16.7-80-11.6c-15.3,2.7-30.7,7.9-45.6,15.9c-14.9,8-27.8,17.9-38.5,29.2
	c-20.3,21.4-32.6,47.5-34.6,73.1c-1.3,17,1.8,33.8,9.9,49.1c5.9,10.9,13.8,20.1,23.3,27.5c22.3,17.3,52.9,24.6,84.9,20.6
	c17.6-2.2,35.7-7.8,52.8-17c17.3-9.2,31.8-21.2,43.4-34.7c21-24.5,31.8-54.2,29.7-82.2c-0.9-12-4.2-23.7-10-34.6
	C482.9,72.7,470.5,60.8,455.6,52.5z M432.4,179.1c-6.7,8.2-15.4,15.3-25.7,20.9c-10.3,5.5-21.1,8.8-31.6,9.9
	c-18.8,1.9-36.7-3-49.1-13.9c-4.4-3.9-8-8.4-10.9-13.6c-5.2-9.6-6.8-20.3-5.3-31c1.9-14,9.1-28,20.4-39.5
	c5.9-5.9,12.8-11.2,20.8-15.5c7.9-4.2,16.2-7.2,24.3-8.8c15.9-3.1,31.5-1.3,44.2,4.9c9.7,4.7,17.8,12,23,21.6
	c2.9,5.2,4.6,10.9,5.4,16.6C450.2,146.9,444.4,164.5,432.4,179.1z"/>
<linearGradient id="SVGID_11_" gradientUnits="userSpaceOnUse" x1="-2630.1106" y1="339.1572" x2="-2579.9353" y2="121.7308" gradientTransform="matrix(0.8811 -0.473 -0.473 -0.8811 2752.7842 -883.7474)">
	<stop  offset="0" style="stop-color:#C75454"/>
	<stop  offset="1" style="stop-color:#B94F68"/>
</linearGradient>
<path class="st6" d="M471.3,204.8c-11.6,13.5-26.2,25.4-43.4,34.7c-17.3,9.2-35.3,14.9-52.8,17l0.1-46.6c10.5-1.1,21.3-4.3,31.6-9.9
	c10.3-5.5,18.9-12.7,25.7-20.9L471.3,204.8z"/>
<path class="st7" d="M491,87.9c5.9,10.9,9.1,22.6,10,34.6l-53.1,7.9c-0.8-5.8-2.5-11.3-5.4-16.6c-5.2-9.6-13.2-16.9-23-21.6l36-39.8
	C470.5,60.8,482.9,72.7,491,87.9z"/>
<path class="st7" d="M315.2,182.3c2.9,5.2,6.5,9.8,10.9,13.6l-36,39.8c-9.5-7.4-17.5-16.6-23.3-27.5c-8.2-15.3-11.3-32.1-9.9-49.1
	l53.1-7.9C308.5,162,310.1,172.8,315.2,182.3z"/>
<path class="st7" d="M375.6,41l-0.1,46.6c-8.2,1.6-16.4,4.5-24.3,8.8c-7.9,4.2-14.9,9.6-20.8,15.5l-38.9-25.7
	c10.7-11.2,23.6-21.3,38.5-29.2C344.8,48.9,360.3,43.6,375.6,41z"/>
<path class="st8" d="M371.5,568h135.7c19,0,34.4-15.4,34.4-34.4V127.5c0-19-15.4-34.4-34.4-34.4H371.5c-19,0-34.4,15.4-34.4,34.4
	v406C337,552.6,352.4,568,371.5,568z"/>
<path class="st9" d="M570.6,111.9v437.9c0,12.8-10.3,23.1-23.1,23.1H351.9c-12.7,0-23.1-10.3-23.1-23.1V111.9c0-0.4,0-0.8,0-1.2
	c0.5-12.2,10.7-22,23-22h195.5C560.2,88.8,570.6,99.2,570.6,111.9z"/>
<path class="st10" d="M381.6,568h149.6c19.8,0,35.8-16,35.8-35.8V128.8C567,109,551,93,531.2,93H381.6c-19.8,0-35.8,16-35.8,35.8
	v403.3C345.8,552,361.8,568,381.6,568z"/>
<path class="st11" d="M550.4,114.1V547c0,11.6-9.4,21-21,21H366.8c-11.6,0-21-9.4-21-21V114.1c0-11.6,9.4-21,21-21h162.5
	C541,93.1,550.4,102.5,550.4,114.1z"/>
<linearGradient id="SVGID_12_" gradientUnits="userSpaceOnUse" x1="-2574.7363" y1="228.0403" x2="-2551.3701" y2="128.735" gradientTransform="matrix(0.8811 -0.473 -0.473 -0.8811 2752.7842 -883.7474)">
	<stop  offset="0" style="stop-color:#FFFFFF"/>
	<stop  offset="1" style="stop-color:#E3E8EE"/>
</linearGradient>
<path class="st12" d="M501,122.6c-0.9-11.7-4-23.1-9.6-33.7h-81c3.2,0.9,6.2,2.1,9.2,3.5c9.8,4.7,17.8,12,23,21.6
	c2.9,5.2,4.6,10.9,5.4,16.6c2.2,16.4-3.5,34-15.6,48.5c-6.7,8.2-15.3,15.3-25.7,20.9c-10.3,5.5-21.1,8.8-31.6,9.9
	c-17.5,1.8-34.1-2.3-46.3-11.6V254c14.5,3.5,30.2,4.4,46.2,2.4c17.6-2.2,35.6-7.8,52.8-17c17.3-9.2,31.9-21.2,43.4-34.7
	C492.3,180.2,503.1,150.6,501,122.6z"/>
<path class="st7" d="M471.3,204.8c-11.6,13.5-26.2,25.4-43.4,34.7c-17.3,9.2-35.3,14.9-52.8,17l0.1-46.6c10.5-1.1,21.3-4.3,31.6-9.9
	c10.3-5.5,18.9-12.7,25.7-20.9L471.3,204.8z"/>
<path class="st7" d="M501,122.6l-53.1,7.9c-0.8-5.8-2.5-11.3-5.4-16.6c-5.2-9.6-13.2-16.9-23-21.6l3.2-3.5h68.6
	C497,99.5,500.2,110.9,501,122.6z"/>
<linearGradient id="SVGID_14_" gradientUnits="userSpaceOnUse" x1="708.5247" y1="461.8403" x2="708.5247" y2="628.3832" gradientTransform="matrix(1 0 0 -1 0 630)">
	<stop  offset="0" style="stop-color:#FFFFFF"/>
	<stop  offset="1" style="stop-color:#E3E8EE"/>
</linearGradient>
<path class="st13" d="M857.9,179.4H559.2c-16.7,0-30.4-13.6-30.4-30.4V76.2c0-16.7,13.6-30.4,30.4-30.4h298.7
	c16.7,0,30.4,13.6,30.4,30.4V149C888.1,165.8,874.6,179.4,857.9,179.4z"/>
<linearGradient id="SVGID_15_" gradientUnits="userSpaceOnUse" x1="899.1891" y1="543.4818" x2="803.1706" y2="543.4818" gradientTransform="matrix(1 0 0 -1 0 630)">
	<stop  offset="0" style="stop-color:#D7E2FD"/>
	<stop  offset="1" style="stop-color:#B6C0D6"/>
</linearGradient>
<rect x="813.6" y="84.3" class="st14" width="43.9" height="4.4"/>
<linearGradient id="SVGID_16_" gradientUnits="userSpaceOnUse" x1="899.1891" y1="529.8472" x2="803.1706" y2="529.8472" gradientTransform="matrix(1 0 0 -1 0 630)">
	<stop  offset="0" style="stop-color:#D7E2FD"/>
	<stop  offset="1" style="stop-color:#B6C0D6"/>
</linearGradient>
<rect x="813.6" y="98" class="st15" width="50.5" height="4.4"/>
<linearGradient id="SVGID_17_" gradientUnits="userSpaceOnUse" x1="899.1893" y1="516.2896" x2="803.1707" y2="516.2896" gradientTransform="matrix(1 0 0 -1 0 630)">
	<stop  offset="0" style="stop-color:#D7E2FD"/>
	<stop  offset="1" style="stop-color:#B6C0D6"/>
</linearGradient>
<rect x="813.6" y="111.5" class="st16" width="26.1" height="4.4"/>
<linearGradient id="SVGID_18_" gradientUnits="userSpaceOnUse" x1="899.1894" y1="502.7319" x2="803.1708" y2="502.7319" gradientTransform="matrix(1 0 0 -1 0 630)">
	<stop  offset="0" style="stop-color:#D7E2FD"/>
	<stop  offset="1" style="stop-color:#B6C0D6"/>
</linearGradient>
<rect x="813.6" y="125.1" class="st17" width="40.2" height="4.4"/>
<rect x="575.8" y="167.1" class="st18" width="39.1" height="4.9"/>
<rect x="566.2" y="158.6" class="st18" width="58.2" height="4.9"/>
<circle class="st9" cx="595.4" cy="92.3" r="10.1"/>
<path class="st9" d="M613.6,125.3v19.3c-5.5,2.5-11.8,3.9-18.3,3.9c-6.5,0-12.7-1.4-18.3-3.9v-19.3c0-10.1,8.2-18.3,18.3-18.3
	S613.6,115.2,613.6,125.3z"/>
<rect x="658.6" y="77.4" class="st19" width="94.1" height="6.1"/>
<g>
	<path class="st9" d="M595.3,149.7c-6.5,0-12.9-1.4-18.8-4.1c-16.3-7.4-26.7-23.6-26.7-41.4c0-25.1,20.4-45.5,45.5-45.5
		c25.1,0,45.5,20.4,45.5,45.5c0,17.8-10.5,34.1-26.7,41.4C608.2,148.3,601.9,149.7,595.3,149.7z M595.3,61.1
		c-23.8,0-43.1,19.3-43.1,43.1c0,16.9,9.9,32.3,25.3,39.3c5.6,2.5,11.6,3.9,17.8,3.9c6.2,0,12.2-1.3,17.8-3.9
		c15.4-7,25.3-22.4,25.3-39.3C638.4,80.4,619.1,61.1,595.3,61.1z"/>
</g>
<g>
	<g>
		<rect x="665.2" y="95" class="st20" width="2.4" height="58.3"/>
	</g>
	<g>
		<rect x="676.3" y="95" class="st20" width="2.4" height="58.3"/>
	</g>
	<g>
		<rect x="687.3" y="95" class="st20" width="2.4" height="58.3"/>
	</g>
	<g>
		<rect x="698.4" y="95" class="st20" width="2.4" height="58.3"/>
	</g>
	<g>
		<rect x="709.4" y="95" class="st20" width="2.4" height="58.3"/>
	</g>
	<g>
		<rect x="720.4" y="95" class="st20" width="2.4" height="58.3"/>
	</g>
	<g>
		<rect x="731.5" y="95" class="st20" width="2.4" height="58.3"/>
	</g>
	<g>
		<rect x="742.5" y="95" class="st20" width="2.4" height="58.3"/>
	</g>
	<g>
		<rect x="753.5" y="95" class="st20" width="2.4" height="58.3"/>
	</g>
	<g>
		<rect x="764.6" y="95" class="st20" width="2.4" height="58.3"/>
	</g>
	<g>
		<rect x="775.7" y="95" class="st20" width="2.4" height="58.3"/>
	</g>
	<g>
		<rect x="786.8" y="95" class="st20" width="2.4" height="58.3"/>
	</g>
</g>
<g>
	<g>
		<rect x="665.2" y="112.4" class="st9" width="2.4" height="40.8"/>
	</g>
	<g>
		<rect x="676.3" y="126.5" class="st9" width="2.4" height="26.7"/>
	</g>
	<g>
		<rect x="687.3" y="103.4" class="st9" width="2.4" height="49.8"/>
	</g>
	<g>
		<rect x="698.4" y="138.8" class="st9" width="2.4" height="14.6"/>
	</g>
	<g>
		<rect x="709.4" y="124.1" class="st9" width="2.4" height="29.1"/>
	</g>
	<g>
		<rect x="720.4" y="113.2" class="st9" width="2.4" height="40.1"/>
	</g>
	<g>
		<rect x="731.5" y="127.5" class="st9" width="2.4" height="25.8"/>
	</g>
	<g>
		<rect x="742.5" y="109.5" class="st9" width="2.4" height="43.8"/>
	</g>
	<g>
		<rect x="753.5" y="129.2" class="st9" width="2.4" height="24"/>
	</g>
	<g>
		<rect x="764.6" y="114.8" class="st9" width="2.4" height="38.4"/>
	</g>
	<g>
		<rect x="775.7" y="134.1" class="st9" width="2.4" height="19.3"/>
	</g>
	<g>
		<rect x="786.8" y="114.8" class="st9" width="2.4" height="38.4"/>
	</g>
</g>
<g>
	
		<linearGradient id="SVGID_19_" gradientUnits="userSpaceOnUse" x1="198.4856" y1="309.682" x2="300.2146" y2="309.682" gradientTransform="matrix(1 0 0 -1 0 630)">
		<stop  offset="0" style="stop-color:#C5A76B"/>
		<stop  offset="1" style="stop-color:#FFFFFF"/>
	</linearGradient>
	<path class="st21" d="M271.1,274.4c-20.4-9.7-44.1-4.5-58.8,11.1c-3.5,3.8-6.6,8.2-8.9,13.1c-7.1,15-6.2,31.7,0.9,45.4
		c4.9,9.5,12.9,17.4,23.3,22.3c1,0.5,2.1,0.9,3.2,1.4c4.8,1.8,9.6,3,14.6,3.4c20.5,1.6,40.7-9.3,50.1-29
		C307.3,316.7,296.4,286.4,271.1,274.4z M283.8,336.6c-7,14.7-22.2,23-37.5,21.7c-3.6-0.3-7.3-1.2-10.9-2.5c-0.8-0.3-1.5-0.6-2.3-1
		c-7.8-3.7-13.8-9.7-17.5-16.8c-5.4-10.2-6-22.8-0.7-34c1.8-3.7,4-7,6.7-9.9c11-11.7,28.7-15.6,44.1-8.3
		C284.7,294.9,292.8,317.6,283.8,336.6z"/>
</g>
<g>
	<g>
		<path class="st7" d="M215.6,338l-11.2,5.9c-7.2-13.6-8-30.4-0.9-45.4c2.3-4.9,5.4-9.3,8.9-13.1l9.2,8.7c-2.7,2.9-4.9,6.2-6.7,9.9
			C209.6,315.3,210.2,327.8,215.6,338z"/>
	</g>
</g>
<g>
	<g>
		<path class="st7" d="M235.4,355.8l-4.7,11.9c-1.1-0.4-2.1-0.8-3.2-1.4c-10.4-4.9-18.3-12.9-23.3-22.3l11.2-5.9
			c3.7,7.1,9.7,13.1,17.5,16.8C233.8,355.2,234.6,355.5,235.4,355.8z"/>
	</g>
</g>
<g>
	<g>
		<defs>
			<polygon id="SVGID_20_" points="235.6,1.5 236.1,1.5 235.6,1.9 			"/>
		</defs>
		<defs>
			<polygon id="SVGID_21_" points="234.6,0.5 234.1,0.5 234.6,0 			"/>
		</defs>
		<clipPath id="SVGID_22_">
			<use xlink:href="#SVGID_20_"  style="overflow:visible;"/>
		</clipPath>
		<clipPath id="SVGID_23_" class="st22">
			<use xlink:href="#SVGID_21_"  style="overflow:visible;"/>
		</clipPath>
		
			<linearGradient id="SVGID_24_" gradientUnits="userSpaceOnUse" x1="561.9774" y1="174.4951" x2="561.9774" y2="63.6907" gradientTransform="matrix(1 0 0 -1 0 630)">
			<stop  offset="0" style="stop-color:#FFFFFF"/>
			<stop  offset="1" style="stop-color:#000000"/>
		</linearGradient>
		<ellipse class="st23" cx="562" cy="503" rx="87.6" ry="7.3"/>
	</g>
</g>
<linearGradient id="SVGID_25_" gradientUnits="userSpaceOnUse" x1="534.3941" y1="99.8007" x2="534.3941" y2="-75.8766" gradientTransform="matrix(1 0 0 -1 0 630)">
	<stop  offset="0" style="stop-color:#C5A76B"/>
	<stop  offset="1" style="stop-color:#FFFFFF"/>
</linearGradient>
<ellipse class="st24" cx="534.4" cy="605.4" rx="139" ry="11.6"/>
<g>
	<g>
		<path class="st25" d="M620.6,322.3c0,0,5.9-0.1,8.1-2.4c2.1-2.3,5.9-4.3,7-4.9c1.6-0.8,6-5.1,6.6-3c0.5,2.1-7.1,7.5-8.5,8.9
			c-1.5,1.5,6.3,2.1,7.5,3.5c1.2,1.4-2.9,16.1-8,14.9s-9.4-6.4-10.4-6.3c-1,0-3.9-0.6-3.9-0.6L620.6,322.3z"/>
	</g>
	<g>
		<path class="st25" d="M640.2,323.7c0,0,15.5,4.7,16.1,6.1c0.6,1.3,0.2,2.3-1.2,1.9s-15.1-4.1-15.1-4.1s16.9,9.2,17.6,10.2
			c0.5,0.5-0.3,2.5-1.1,2.4c-0.8-0.1-18.2-8.1-18.2-8.1s15.7,8.6,16.2,9.7c0.3,0.9-0.7,2.5-1.9,2s-16.4-7.5-16.4-7.5
			s10.9,7.2,10.8,8.4c-0.1,0.7-0.7,2.4-3.5,0.5c-2.8-2-9.9-5.8-9.9-5.8L640.2,323.7z"/>
	</g>
	<g>
		<path class="st26" d="M588.1,583c0,0,4.9,7.4,11.9,9c6.9,1.6,13.8,4.2,13.9,8.6c0.1,4.4-20.1,7-28,2.6
			c-11.9-6.6-13.1-4.6-14.4-7.9c-1.3-3.3,1.6-12.1,1.5-13.2C572.8,580.7,588.1,583,588.1,583z"/>
	</g>
	<g>
		<path class="st27" d="M587.3,579.3c0,0,0.9,3.6,0.8,3.7c-0.2,0.1-15.6,1.9-15.2-0.9c0.4-2.3,0.9-4.9,0.9-4.9L587.3,579.3z"/>
	</g>
	<g>
		<path class="st26" d="M490.5,582.5c0,0,3.5,7.1,9.6,9.5c6.5,2.6,11.6,5.5,11.6,9.9c-0.2,4.3-15.8,8.6-27.2,0.4
			c-7.2-5.2-9.5-5.2-10.6-8.5s2-11.8,1.9-12.8C475.7,579.7,490.5,582.5,490.5,582.5z"/>
	</g>
	<g>
		<path class="st27" d="M490.7,578.8c0,0-0.1,3.6-0.2,3.7c-0.2,0.1-15.2,1.3-14.8-1.5c0.3-2.2,1.5-4.9,1.5-4.9L490.7,578.8z"/>
	</g>
	<g>
		<path class="st28" d="M545.8,362c0,0,19.7,75.6,27.3,93.1c6.9,16.2,9.2,38.8,10.2,50.2c1.2,14.3,8.4,70,9.2,74.2
			c0.8,4.2-23.2,2.3-23.2,2.3s-16.6-96.3-23.5-110.3c-4.6-9.4-31.3-76.6-34.3-72.7c-3.1,3.9-6.9,71.3-9.1,82.4
			c-2.2,11.2-9.2,99.5-9.2,99.5s-15.5,2.3-19.6-1.2c0,0-1.8-75.5-0.5-96.4c0.5-8-9.4-95.8,3.3-131.2
			C483.2,333.1,545.8,362,545.8,362z"/>
	</g>
	<g>
		<path class="st29" d="M435.9,307.9c0,0.8,1.6,4.3,4.2,9.3c3.8-7.6,6.8-13.9,7.8-16.2c3.2-7.5,19.7-25,19.7-25l0,0l0,0l0,0v0.1
			c0,0.1,0,0.1,0.1,0.2v0.1v0.1c0.9,3.4,6.4,24.3,6.6,34.7c0.2,11.2,3.2,32,3.2,32l0,0l3.5,0.5l7.6,1.1l0.9,0.2l2.2,0.3L512,348
			l7.2,1l1,0.2l4.1,0.5l11.3,1.6l2.9,0.4l0,0l2.2,0.3l3,0.4l0,0c0.1-0.1,2.9-4,2.5-12.6c-0.3-5.5-0.9-16-0.7-25.7c0-0.1,0-0.1,0-0.2
			c0-0.2,0-0.2,0-0.4c0-0.1,0-0.1,0-0.2l0,0c0.2-5.3,0.6-10.4,1.6-14.2c0.7-2.6,1.2-5.2,1.4-7.5c0-0.2,0-0.2,0.1-0.4
			c0.1-0.5,0.1-0.9,0.2-1.3c0.6-6.7,0.2-11.9,0.1-12.2l0,0c0.2,0.5,1.7,5.9,3.6,12.6c3.3,11.3,7.9,26.3,9.8,27
			c2.9,1.1,48.9,14.7,58.9,16.1c1.2,0.2,1.8,0.2,1.8-0.1c0.1-0.2,0.1-0.3,0.2-0.5c1.2-4,2.9-10.8,3.2-11.9c0-0.1,0.1-0.2,0.1-0.2
			l-1.8-0.5l-50.1-15l-22.9-66c-0.5-0.4-6.1-3.1-10.2-5.1c-4.2-2-9.2-4.9-13.8-7.4c-2.3-1.3-4.5-2.5-6.5-3.3l-0.3-0.2l0,0
			c-3.2-1.5-5.2-2.4-5.2-2.4l0,0c-0.1,0-0.5-0.1-1.4-0.2c-4.4-0.4-18.1-1.7-22.6-2c-0.4,0-0.7-0.1-0.9-0.1c-0.2,0-0.4,0-0.5,0
			c-0.6,0-3.4,1-7.1,2.5l0,0c-0.2,0.1-0.3,0.1-0.4,0.2c-0.2,0.1-0.4,0.2-0.5,0.2c-0.3,0.2-0.6,0.2-1,0.4c-0.7,0.2-1.3,0.5-2,0.8
			c-0.2,0.1-0.5,0.2-0.7,0.3c-7.4,2.9-15.9,6.5-17.9,8c-1.3,0.9-5.5,8.8-10.3,18.5c-6.2,19.9-14,50.3-14.3,57.8
			C435.9,307.6,435.9,307.7,435.9,307.9z"/>
	</g>
	<g>
		<path class="st30" d="M543.8,352.5c0,0,1.5,1.8,2,9.6c0,0-62.7-7.3-69.3-10.2c0,0-0.2-8.6,1.2-8.6
			C479.1,343,543.8,352.5,543.8,352.5z"/>
	</g>
	<g>
		<path class="st25" d="M490.3,216.9c0.2,9.9,19.3,15.3,19.3,15.3s7.9-10,6.1-10.9c-0.8-0.4-1.1-1.8-1.2-3.5c-0.1-1.6,0-3.3,0.1-4.5
			c0.1-0.7,0.1-1.2,0.1-1.2s-2.7-2.9-6.2-6.3c-6.1-6-14.4-13.6-14.4-10.6c0,0.2,0,0.4,0.1,0.6C495.6,202.6,490.3,216.9,490.3,216.9z
			"/>
	</g>
	<g>
		<path class="st26" d="M491.9,344.7c0,0-1.4,8.6-1.5,10.9l-2.9-0.6c0,0,0.8-9.2,1.2-10.6L491.9,344.7z"/>
	</g>
	<g>
		<path class="st26" d="M538.6,351.5c0,0,1.1,7.9,1.2,10.8l-3.1-0.4c0,0-0.6-9.8-1-10.8L538.6,351.5z"/>
	</g>
	<g>
		<path class="st31" d="M497.6,202.5L497.6,202.5c0.1,0.1,0.8,1.2,2.2,3c2.9,3.7,8.4,9.7,14.6,12.2c-0.1-1.6,0-3.3,0.1-4.5
			c0.6,0,1.2-0.1,1.9-0.2c-1.7-2.9-4.2-6.1-4.2-6.1l-3.9-1.2L497.6,202.5z"/>
	</g>
	<g>
		<path class="st25" d="M494,195.2c1.6,3.6,3.2,6.2,3.6,7.2l0,0c0.3,0.7,1.1,1.8,2.2,3c3.2,3.4,9,7.9,14.7,7.7
			c0.6,0,1.2-0.1,1.9-0.2c2.3-0.5,5.1-1.6,6.5-4.5c11.9-23.3,3.3-42.3,3.3-42.3s-32.5-9.2-37.6,0.6
			C485.2,173.5,490.1,186.9,494,195.2z"/>
	</g>
	<g>
		<path class="st32" d="M526.3,166.1c0,0,3-0.2,3.8-5.9c0.8-5.6-0.8-7.2-0.8-7.2s-13.4-5.6-18.3-6.3c-4.9-0.7-16.6-1.5-19.4,1.8
			c0,0-6.8-1.5-8.6,9.6c-2.9,17.8,9.9,35,9.9,35s-0.1-11.6,2.5-13.2c2.5-1.5,4.8,2.2,4.8,2.2l5.2,0.9c0,0-7.9-17.2,1.6-17.8
			C516.6,164.5,520.8,167.1,526.3,166.1z"/>
	</g>
	<g>
		<path class="st25" d="M500.1,177.4c-0.5-5.1-9.8-7.1-9.2-1.7c0.6,5.4,5.2,10.5,7.2,10.3C500.3,185.9,500.5,181.3,500.1,177.4z"/>
	</g>
	<g>
		<path class="st33" d="M440.1,317.1c4,7.7,10.4,19,16.6,30c-0.8,1.5-1.6,3.1-2.4,4.5c-1.9,3.7-3.5,7.2-4.8,10.6
			c-1.5,4-3.4,14.3,0.4,16.2l20,11.1c0,0,0.2-0.4,0.4-1.1c0.7-1.8,2.1-5.6,4.1-10.6c0.1-0.2,0.2-0.6,0.5-1.3c0.4-0.9,1-2.3,1.6-3.9
			c0.3-0.7,0.6-1.4,0.9-2.2c0.4-0.8,0.8-1.7,1.1-2.6c0.5-1.3,1.1-2.5,1.6-3.7c1.4-3.2,2.5-5.7,2.5-5.7c0.1-0.2,0.2-0.3,0.2-0.5
			c0.6-1.4,1.3-2.9,2-4.2c1.1-2.2,2.2-4.4,3.2-6.5c0.1-0.2,0.2-0.5,0.3-0.6c0.2-0.4,0.4-0.8,0.6-1.2c0.2-0.2,0.2-0.5,0.4-0.7
			c0-0.1,0.1-0.1,0.1-0.2c0.1-0.1,0.1-0.2,0.2-0.2c5.8-10.6,12.3-19.4,14.4-32.4c0.2-1.2,0.4-2.5,0.5-3.7c0.3-2.1,0.6-4.1,0.8-6.1
			c0.1-0.8,0.2-1.5,0.3-2.2c1.1-8.6,1.7-16.3,2.2-21.7c1.5-16.7-8.7-34.8-16.6-46.1c-4.2-6-7.7-10-8.4-10.8c0,0,0,0-0.1-0.1
			c-0.2,0.1-0.3,0.1-0.4,0.2c-0.2,0.1-0.4,0.2-0.5,0.2c-0.3,0.2-0.6,0.2-1,0.4c-0.7,0.2-1.3,0.5-2,0.8c-0.2,0.1-0.5,0.2-0.7,0.3
			c-7.6,3-23.6,7.4-25.7,8.9c-1.2,0.8-3.8,8.5-6.8,18.1c-6.2,19.9-9.9,49.8-10.1,57.3c0,0.2,0,0.2,0,0.3
			C435.9,308.7,437.5,312.2,440.1,317.1z M470.6,313.4c0,3.7-1.2,8-3.1,12.6c-0.1,0.1-0.1,0.2-0.2,0.3c-1.3-2.8-2.5-5.4-3.6-7.8l0,0
			c-3-6.7-5-11.9-5.2-13.9c-0.8-13.2,9-28.5,9-28.5l0,0l0,0v0.1c0,0.1,0,0.1,0.1,0.2v0.1v0.1C469.8,284.3,470.6,313.4,470.6,313.4z"
			/>
	</g>
	<path class="st34" d="M508.7,363.3l-57.2,25.4c-3.2,1.5-7,0-8.5-3.2l-15.6-35.1c-1.5-3.2,0-7,3.2-8.5l57.2-25.4
		c3.2-1.5,7,0,8.5,3.2l15.6,35.1C513.4,358.1,511.9,361.9,508.7,363.3z"/>
	<g>
		<path class="st33" d="M521.1,223.8c0,0,2.7,8.9,6.2,31.2l0,0c0.2,0.8,0.2,1.5,0.4,2.3c0,0.1,0,0.2,0.1,0.3c0.1,0.5,0.2,1,0.2,1.5
			c0,0.1,0,0.2,0,0.2c0.1,0.4,0.1,0.7,0.2,1.1c0.2,0.8,0.2,1.8,0.4,2.7c1.5,10.9,3.7,29.3,5.8,47.9l0,0c1.6,14.7,5.4,29.7,6.6,41
			l0,0c0.2,2.2,0.8,5.2,1.5,8.5c0.1,0.4,0.2,0.8,0.2,1.2c3.4,14.2,9.9,34.3,9.9,34.3l1.9-1.8l5.6-5.2c1.3-1.2,1.8-3,1.2-4.7
			c-3.2-10.1-13.7-45.7-15.6-70.7l0,0c0.9-8.8,3.4-20.6,3-22.3c0,0.1,0.1,0.2,0.1,0.2c1.1,3.1,2.4,6.5,3.6,9.8l0,0
			c3.3,8.9,6.8,17,8.2,17.6c3.2,1.2,60.2,17.9,60.6,15.6c0.1-0.2,0.1-0.5,0.2-0.8c0.1-0.2,0.1-0.5,0.2-0.8c0.7-3.2,2-7.9,2.9-10.9
			c0.2-0.5,0.2-0.9,0.4-1.3c0.4-1.3,0.6-2.1,0.6-2.1l-48.2-15.8L552.7,239c-0.5-0.4-6.7-3.7-10.8-5.7c-4.3-2-9.7-4.5-14.5-6.8
			c-2.3-1.1-4.5-2.1-6.3-2.9L521.1,223.8z"/>
	</g>
	<g>
		<path class="st35" d="M488.4,245.9l9.2,5.2l-3.9,4l10.6,56.9c2.2-13.3,3.2-26,3.9-33.8c2.4-25.9-23.4-55.1-25-56.8
			c-1.2,0.5-2.5,1-3.9,1.5L488.4,245.9z"/>
	</g>
	<g>
		<path class="st35" d="M520.9,223.5c0,0,3.5,11.3,7.5,39.5c1.5,10.9,3.7,29.3,5.8,47.9l2.2-53.3l-4.4-4.8l3.9-4.9l-8.4-21.4
			c-2.3-1.1-4.5-2.1-6.3-2.9L520.9,223.5z"/>
	</g>
	<g>
		<path class="st36" d="M482.6,221.7l7.7-4.8c0,0,0.2,4.2,19.3,15.3l-5.4,15.3L482.6,221.7z"/>
	</g>
	<g>
		<path class="st36" d="M514.6,219c0,0-0.3,4.5-5.1,13.1l10.6,13.8l0.8-22.3L514.6,219z"/>
	</g>
	<g>
		<path class="st37" d="M509.5,232.1c0,0-2.1,8.2-1.3,10.5c0,0,4.5,1.6,7.7-0.4C516,242.2,513.7,236.5,509.5,232.1z"/>
	</g>
	<g>
		<g>
			<path class="st38" d="M520.1,350c1.2-5.8,0.1-23,0-23.8l-1,0.1c0,0.2,1.2,17.9,0,23.6L520.1,350z"/>
		</g>
	</g>
	<g>
		<path class="st39" d="M512.1,347.4c0,0,9.2,1.1,12.2,1.8l-0.4,10.3l-12.1-1.3L512.1,347.4z"/>
	</g>
	<g>
		<path class="st37" d="M514.1,241.4c0,0,10.3,26,8.6,55.1c-1.8,30.1-4.6,41.1-4.6,41.1l-6.3,7.9l-2.8-9.8c0,0,8.6-38.4,3-75.9
			c-1-6.8-2.5-19.6-2.5-19.6L514.1,241.4z"/>
	</g>
	<g>
		<path class="st25" d="M483.2,364.2c0,0,2.2,4.4,4.4,5.2c2.2,0.8,5.4,4.3,5.4,4.3l-15.6,8.2c0,0-4.2-8.1-4.3-13.2
			C473,363.4,483.2,364.2,483.2,364.2z"/>
	</g>
	<g>
		<path class="st29" d="M484.7,364.6l1,2.1c0,0-9.9,7.2-12.6,7.7l-0.9-2.8L484.7,364.6z"/>
	</g>
	<g>
		<path class="st33" d="M485.7,364.6c0,0-7.4,6.1-13.6,8.9l-28-49l17.8-9.8C462,314.9,485.2,360.9,485.7,364.6z"/>
	</g>
	<g>
		<path class="st28" d="M548.3,278.1c0.3,7,0.3,13.2,0.3,13.2l0,0c0,0,0,0.2,0,0.5c0-0.2,0-0.2,0.1-0.4c1.1,3.1,2.4,6.5,3.6,9.8
			c0.3-3.8,0.4-7.4,0.3-10.6c-0.5-19.6-6.6-29.8-6.6-29.8C547.3,264.1,548,271.4,548.3,278.1z"/>
	</g>
</g>
<g>
	<path class="st40" d="M906.8,564.2c0,0,1.1,7.9,1.2,9c0.2,1.2,11.9-0.7,11.9-0.7l0.9-9.3C920.8,563.2,908.2,563.1,906.8,564.2z"/>
	<path class="st41" d="M907.8,572.2c0,0-10,5.7-13.6,7.7c-3.6,2.1-14.6,3.2-14.3,5.2c0.4,2.2,3.6,6.9,18.6,6.8
		c14.9-0.2,22.1,0.9,23.7-1.6c1.6-2.5-2.3-18.7-2.3-18.7S916.5,573.9,907.8,572.2z"/>
	<path class="st40" d="M853.3,576.7l1.7,9.9c0,0,12.7-0.8,13.2-2.5c0.5-1.8-1.4-10.9-1.4-10.9L853.3,576.7z"/>
	<path class="st41" d="M868.4,583.4c0,0,4,13.5,1.2,18.6c-2.8,5.1-11.9,6-15.2,5.7c-3.3-0.2-12.4-3.3-20.8-2.9
		c-8.4,0.4-18.3-1.8-15.9-6.9c2.4-5.2,20.7-3.6,26.3-8.4c5.6-4.8,10.6-5.5,10.6-5.5S854.6,588.2,868.4,583.4z"/>
	<g>
		<polygon class="st42" points="822.3,326.4 802.1,296.5 819.6,286.8 837,317.4 		"/>
		<polygon class="st43" points="822.1,323.7 804.7,297.9 819.9,289.5 834.8,316 		"/>
		<path class="st44" d="M836.7,330.1c0,0-3.6-1.8-1.5-6.2c2.2-4.4,0.6-5.9,0.6-5.9l-16.4,9.9c0,0,5.1,7.8,7,8.5
			C828.4,337.3,838.1,333.1,836.7,330.1z"/>
		<path class="st44" d="M819.5,328.1c0,0-7-7.1-7.5-8c-0.6-0.9-3.5-5.2-4.5-7.7c-1-2.4,4.9-0.5,6.1,2c1.2,2.5,2.6,3.5,3.8,4.2
			c1.1,0.8,8.2,2.8,9.2,5.2C827.3,326.4,819.5,328.1,819.5,328.1z"/>
		<path class="st44" d="M832.4,309.7c0,0-0.9,2.5-1.9,1c-1-1.4-1.2-5.9,0.8-5.3C833.6,305.9,832.4,309.7,832.4,309.7z"/>
		<path class="st44" d="M829.8,305.2c0,0-0.7,3.1-1.9,1.8c-0.9-0.9-1.2-6.7,0.9-6.2C830.9,301.5,829.8,305.2,829.8,305.2z"/>
	</g>
	<path class="st44" d="M880.1,333.2c0,0-6.5-4.7-9.4-7c-2.9-2.3-10.5-6.2-11-6.9s-23.6-6.3-24.8-7.8c-1.2-1.5-3.3,2.4,2.5,4.8
		c5.8,2.4,13.6,7.1,13.6,9.6c0.1,2.5-6.7,1.8-7.7,3.6c-1,1.8-0.1,1.5,0.8,2.2c0.8,0.6,8.6-2,11.4-0.4c2.9,1.6,7.8,0.9,10,2.2
		c2.2,1.2,12.9,7.1,12.9,7.1L880.1,333.2z"/>
	<path class="st45" d="M866.3,336l-3.5-2c0,0,6.5-9.9,8.5-9.3c2.2,0.7,5,2,5,2L866.3,336z"/>
	<path class="st40" d="M865.2,337.7c0.5-0.2,10.4-13.1,10.4-13.1l15.3,4.9l-11.5,15.2L865.2,337.7z"/>
	<path class="st26" d="M951.4,434.7c0,0,1.6,25-10.8,29.7h-97.1c0,0,25,108.2,25,109.9l-16.1,4.4c0,0-44.1-92.6-46.2-97.5
		c-2.6-6.2-2.4-22.6,5.2-28.8c7.6-6.2,56.5-23.7,66-24.3C887,427.3,951.4,434.7,951.4,434.7z"/>
	<path class="st44" d="M932.3,298.3c0,0-0.4,6.5-0.5,14.8c-0.2,8.3-22.6,2.9-22.6,2.9s1-8.9-1.5-11.8
		C905.1,301.2,932.3,298.3,932.3,298.3z"/>
	<path class="st44" d="M899.4,264.4c-0.5,3.5-7.3,7.7-2.5,28c4.8,20.3,12.7,17.7,18.8,16.4c6.2-1.3,17.1-4.9,21.2-21.1
		c4.2-16.2-2.7-25.2-7.5-30.9C924.6,251.2,899.4,264.4,899.4,264.4z"/>
	<path class="st41" d="M961.5,325.1c0,0-7.9,41.6-4.9,54.7c-0.2,5.3-1.8,15.2-2,18.3c-0.6,8.4-1.8,35.8-1.8,35.8
		c-24.6,14.6-74.8-4.5-75.4-6c-1.5-3,12.2-23.6,12.2-29.4c0-5.8-7.7-29.1-7.7-29.1s-13.5,18.9-21.3,22.6
		c-7.9,3.7-34.3-50.3-34.3-50.3l14.6-10.7c0,0,17.7,25.5,18.4,26.3c0.7,0.8,18.3-18.6,20.6-22.6c2.2-3.9,29.5-18.9,29.5-18.9
		s20.4-3.2,22.6-2.9C934,313.5,959.7,324.1,961.5,325.1z"/>
	<path class="st46" d="M884.7,476.2c0,0,18,87.3,20.6,87.8c2.6,0.6,16.6-1,16.6-1s2.4-47.8,1.4-58.6s-1.2-31.4-1.2-31.4L884.7,476.2
		z"/>
	<path class="st45" d="M839.5,332l-2.4-3.5c0,0-12.7,7-12.2,8.7c0.5,1.7,2.2,3.9,2.2,3.9L839.5,332z"/>
	<path class="st47" d="M895.5,275.3c0,0-1.8-0.3-2.9-2.6c-1.2-2.3-4.2-19.7,17.8-20.5c16.6-0.6,18.4-1.4,24.3,4.4
		c6.7,6.5,4.9,31-2.4,41.8c0,0-13.2-2.2-18.6-12.1c-1.6-3,1-12.6-5.1-11.3c-4.5,0.9-4.2,12.4-4.2,12.4l-2.9,1.1
		C901.4,288.4,904.1,270.6,895.5,275.3z"/>
	<path class="st41" d="M961.5,325.1c0,0,19.6,15.8-6.5,57.2C943.3,401,961.5,325.1,961.5,325.1z"/>
	<rect x="843.5" y="464.4" class="st48" width="176.1" height="12.2"/>
	<rect x="843.5" y="476.6" class="st49" width="11.2" height="135.5"/>
	<rect x="1008.4" y="476.6" class="st49" width="11.2" height="135.5"/>
	<path class="st45" d="M909.2,316v-2.5c0,0,18.2-5.5,22.6-2.9l-0.1,2.5L909.2,316z"/>
	<path class="st45" d="M877.3,428c0,0,34.4,25,57.5,19.2C951,443,952.8,434,952.8,434L877.3,428z"/>
	<polygon class="st40" points="859.2,357.4 849.3,367 855.1,351.7 	"/>
</g>
</svg>
