<?xml version="1.0" encoding="utf-8"?>
<!-- Generator: Adobe Illustrator 21.0.0, SVG Export Plug-In . SVG Version: 6.00 Build 0)  -->
<svg version="1.1" id="Layer_1" xmlns="http://www.w3.org/2000/svg" xmlns:xlink="http://www.w3.org/1999/xlink" x="0px" y="0px"
	 viewBox="0 0 1200 630" style="enable-background:new 0 0 1200 630;" xml:space="preserve">
<style type="text/css">
	.st0{fill:#F2F2F2;}
	.st1{clip-path:url(#SVGID_7_);}
	.st2{clip-path:url(#SVGID_8_);fill:url(#SVGID_9_);}
	.st3{fill:url(#SVGID_10_);}
	.st4{clip-path:url(#SVGID_14_);}
	.st5{clip-path:url(#SVGID_15_);fill:url(#SVGID_16_);}
	.st6{fill:url(#SVGID_17_);}
	.st7{fill:url(#SVGID_18_);}
	.st8{fill:#D8D6E1;}
	.st9{fill:#363957;}
	.st10{fill:#DBA686;}
	.st11{fill:#CD7250;}
	.st12{fill:#C1BFC9;}
	.st13{fill:#DBA585;}
	.st14{fill:#1F2531;}
	.st15{fill:#997761;}
	.st16{fill:#DCA787;}
	.st17{fill:url(#SVGID_19_);}
	.st18{fill:url(#SVGID_20_);}
	.st19{fill:#5C80D6;}
	.st20{fill:#8A9BA5;}
	.st21{clip-path:url(#SVGID_22_);fill:#8A9BA5;}
	.st22{clip-path:url(#SVGID_24_);fill:#8A9BA5;}
	.st23{clip-path:url(#SVGID_26_);fill:#8A9BA5;}
	.st24{clip-path:url(#SVGID_28_);fill:#8A9BA5;}
	.st25{clip-path:url(#SVGID_30_);fill:#8A9BA5;}
	.st26{clip-path:url(#SVGID_32_);fill:#8A9BA5;}
	.st27{clip-path:url(#SVGID_34_);fill:#8A9BA5;}
	.st28{clip-path:url(#SVGID_36_);fill:#8A9BA5;}
	.st29{clip-path:url(#SVGID_38_);fill:#8A9BA5;}
	.st30{clip-path:url(#SVGID_40_);fill:#8A9BA5;}
	.st31{clip-path:url(#SVGID_42_);fill:#8A9BA5;}
	.st32{clip-path:url(#SVGID_44_);fill:#8A9BA5;}
	.st33{clip-path:url(#SVGID_46_);fill:#8A9BA5;}
	.st34{clip-path:url(#SVGID_48_);fill:#8A9BA5;}
	.st35{clip-path:url(#SVGID_50_);fill:#8A9BA5;}
	.st36{clip-path:url(#SVGID_52_);fill:#8A9BA5;}
	.st37{clip-path:url(#SVGID_54_);fill:#8A9BA5;}
	.st38{clip-path:url(#SVGID_56_);fill:#8A9BA5;}
	.st39{clip-path:url(#SVGID_58_);fill:#8A9BA5;}
	.st40{clip-path:url(#SVGID_60_);fill:#8A9BA5;}
	.st41{clip-path:url(#SVGID_62_);fill:#8A9BA5;}
	.st42{clip-path:url(#SVGID_64_);fill:#8A9BA5;}
	.st43{clip-path:url(#SVGID_66_);fill:#8A9BA5;}
	.st44{clip-path:url(#SVGID_68_);fill:#8A9BA5;}
	.st45{clip-path:url(#SVGID_70_);fill:#8A9BA5;}
	.st46{clip-path:url(#SVGID_72_);fill:#8A9BA5;}
	.st47{clip-path:url(#SVGID_74_);fill:#8A9BA5;}
	.st48{clip-path:url(#SVGID_76_);fill:#8A9BA5;}
	.st49{clip-path:url(#SVGID_78_);fill:#8A9BA5;}
	.st50{clip-path:url(#SVGID_80_);fill:#8A9BA5;}
	.st51{clip-path:url(#SVGID_82_);fill:#8A9BA5;}
	.st52{clip-path:url(#SVGID_84_);fill:#8A9BA5;}
	.st53{clip-path:url(#SVGID_86_);fill:#8A9BA5;}
	.st54{clip-path:url(#SVGID_88_);fill:#8A9BA5;}
	.st55{clip-path:url(#SVGID_90_);fill:#8A9BA5;}
	.st56{clip-path:url(#SVGID_92_);fill:#8A9BA5;}
	.st57{clip-path:url(#SVGID_94_);fill:#8A9BA5;}
	.st58{clip-path:url(#SVGID_96_);fill:#8A9BA5;}
	.st59{clip-path:url(#SVGID_98_);fill:#8A9BA5;}
	.st60{clip-path:url(#SVGID_100_);fill:#8A9BA5;}
	.st61{clip-path:url(#SVGID_102_);fill:#8A9BA5;}
	.st62{clip-path:url(#SVGID_104_);fill:#8A9BA5;}
	.st63{clip-path:url(#SVGID_106_);fill:#8A9BA5;}
	.st64{clip-path:url(#SVGID_108_);fill:#8A9BA5;}
	.st65{clip-path:url(#SVGID_110_);fill:#8A9BA5;}
	.st66{clip-path:url(#SVGID_112_);fill:#8A9BA5;}
	.st67{clip-path:url(#SVGID_114_);fill:#8A9BA5;}
	.st68{clip-path:url(#SVGID_116_);fill:#8A9BA5;}
	.st69{clip-path:url(#SVGID_118_);fill:#8A9BA5;}
	.st70{clip-path:url(#SVGID_120_);fill:#8A9BA5;}
	.st71{clip-path:url(#SVGID_122_);fill:#8A9BA5;}
	.st72{clip-path:url(#SVGID_124_);fill:#8A9BA5;}
	.st73{clip-path:url(#SVGID_126_);fill:#8A9BA5;}
	.st74{clip-path:url(#SVGID_128_);fill:#8A9BA5;}
	.st75{clip-path:url(#SVGID_130_);fill:#8A9BA5;}
	.st76{clip-path:url(#SVGID_132_);fill:#8A9BA5;}
	.st77{clip-path:url(#SVGID_134_);fill:#8A9BA5;}
	.st78{clip-path:url(#SVGID_136_);fill:#8A9BA5;}
	.st79{clip-path:url(#SVGID_138_);fill:#8A9BA5;}
	.st80{clip-path:url(#SVGID_140_);fill:#8A9BA5;}
	.st81{clip-path:url(#SVGID_142_);fill:#8A9BA5;}
	.st82{clip-path:url(#SVGID_144_);fill:#8A9BA5;}
	.st83{clip-path:url(#SVGID_146_);fill:#8A9BA5;}
	.st84{clip-path:url(#SVGID_148_);fill:#8A9BA5;}
	.st85{clip-path:url(#SVGID_150_);fill:#8A9BA5;}
	.st86{clip-path:url(#SVGID_152_);fill:#8A9BA5;}
	.st87{clip-path:url(#SVGID_154_);fill:#8A9BA5;}
	.st88{fill:url(#SVGID_155_);}
	.st89{fill:#5C5C5C;}
	.st90{fill:#FFFFFF;}
	.st91{fill:url(#SVGID_156_);}
	.st92{fill:url(#SVGID_157_);}
	.st93{fill:#DCD0C8;}
	.st94{fill:url(#SVGID_158_);}
	.st95{fill:url(#SVGID_159_);}
	.st96{fill:url(#SVGID_160_);}
	.st97{fill:url(#SVGID_161_);}
	.st98{fill:url(#SVGID_162_);}
	.st99{fill:url(#SVGID_163_);}
	.st100{fill:url(#SVGID_164_);}
	.st101{fill:url(#SVGID_165_);}
	.st102{fill:url(#SVGID_166_);}
	.st103{fill:url(#SVGID_167_);}
	.st104{fill:url(#SVGID_168_);}
	.st105{fill:url(#SVGID_169_);}
	.st106{fill:url(#SVGID_170_);}
	.st107{fill:url(#SVGID_171_);}
	.st108{fill:url(#SVGID_172_);}
	.st109{fill:url(#SVGID_173_);}
	.st110{fill:url(#SVGID_174_);}
	.st111{fill:url(#SVGID_175_);}
	.st112{fill:url(#SVGID_176_);}
	.st113{fill:url(#SVGID_177_);}
	.st114{fill:url(#SVGID_178_);}
	.st115{fill:url(#SVGID_179_);}
</style>
<g id="bg">
</g>
<rect class="st0" width="1200" height="396.5"/>
<g>
	<g>
		<defs>
			<polygon id="SVGID_4_" points="202.1,7.6 202.6,7.6 202.1,8.1 			"/>
		</defs>
		<defs>
			<polygon id="SVGID_6_" points="201,6.5 200.5,6.5 201,6 			"/>
		</defs>
		<clipPath id="SVGID_7_">
			<use xlink:href="#SVGID_4_"  style="overflow:visible;"/>
		</clipPath>
		<clipPath id="SVGID_8_" class="st1">
			<use xlink:href="#SVGID_6_"  style="overflow:visible;"/>
		</clipPath>
		
			<linearGradient id="SVGID_9_" gradientUnits="userSpaceOnUse" x1="599.6898" y1="505.1444" x2="599.6898" y2="379.824" gradientTransform="matrix(1 0 0 -1 0 630)">
			<stop  offset="0" style="stop-color:#FFFFFF"/>
			<stop  offset="1" style="stop-color:#000000"/>
		</linearGradient>
		<polygon class="st2" points="996.4,148 996.4,508.2 203,508.2 203,196.6 209,196.6 222.8,213.8 236.9,213.8 236.9,125.2 
			269.2,125.2 269.2,148 296.7,148 296.7,192.1 333.6,192.1 333.6,136.8 362.7,136.8 362.7,160.1 377.8,160.1 390.9,143.9 
			405.8,143.9 405.8,90.4 447.5,90.4 447.5,169.9 490.1,169.9 490.1,189 506.6,189 506.6,160.1 569.5,160.1 569.5,192.1 
			593.5,192.1 593.5,148 630.3,148 630.3,213.8 632.4,213.8 632.4,125.2 664.7,125.2 664.7,148 692.2,148 692.2,192.1 729.1,192.1 
			729.1,136.8 758.1,136.8 758.1,160.1 773.3,160.1 786.4,143.9 801.3,143.9 801.3,90.4 842.9,90.4 842.9,169.9 885.5,169.9 
			885.5,189 902,189 902,160.1 935.2,160.1 935.2,192.1 989,192.1 989,148 		"/>
	</g>
</g>
<linearGradient id="SVGID_10_" gradientUnits="userSpaceOnUse" x1="600.24" y1="510.8704" x2="600.24" y2="384.1295" gradientTransform="matrix(1 0 0 -1 0 630)">
	<stop  offset="0" style="stop-color:#EBEBEB"/>
	<stop  offset="1" style="stop-color:#FFFFFF"/>
</linearGradient>
<polygon class="st3" points="1198.4,142.6 1198.4,506.8 2.1,506.8 2.1,191.7 11.2,191.7 32.1,209.1 53.3,209.1 53.3,119.5 
	102,119.5 102,142.6 143.4,142.6 143.4,187.1 199,187.1 199,131.3 242.9,131.3 242.9,154.8 265.7,154.8 285.4,138.4 307.9,138.4 
	307.9,84.3 370.7,84.3 370.7,164.6 435,164.6 435,184 459.8,184 459.8,154.8 554.7,154.8 554.7,187.1 591,187.1 591,142.6 
	646.3,142.6 646.3,209.1 649.5,209.1 649.5,119.5 698.3,119.5 698.3,142.6 739.7,142.6 739.7,187.1 795.3,187.1 795.3,131.3 
	839.1,131.3 839.1,154.8 862,154.8 881.7,138.4 904.2,138.4 904.2,84.3 967,84.3 967,164.6 1031.2,164.6 1031.2,184 1056.1,184 
	1056.1,154.8 1106.1,154.8 1106.1,187.1 1187.2,187.1 1187.2,142.6 "/>
<g>
	<g>
		<defs>
			<polygon id="SVGID_12_" points="202.1,7.6 202.6,7.6 202.1,8.1 			"/>
		</defs>
		<defs>
			<polygon id="SVGID_13_" points="201,6.5 200.5,6.5 201,6 			"/>
		</defs>
		<clipPath id="SVGID_14_">
			<use xlink:href="#SVGID_12_"  style="overflow:visible;"/>
		</clipPath>
		<clipPath id="SVGID_15_" class="st4">
			<use xlink:href="#SVGID_13_"  style="overflow:visible;"/>
		</clipPath>
		
			<linearGradient id="SVGID_16_" gradientUnits="userSpaceOnUse" x1="599.6898" y1="459.8774" x2="599.6898" y2="221.8168" gradientTransform="matrix(1 0 0 -1 0 630)">
			<stop  offset="0" style="stop-color:#FFFFFF"/>
			<stop  offset="1" style="stop-color:#000000"/>
		</linearGradient>
		<polygon class="st5" points="996.4,315.2 996.4,630 203,630 203,295.7 215.3,295.7 226.5,322.7 348.6,322.7 367.5,277 405.9,277 
			405.9,200.3 439.4,200.3 439.4,303.7 501.1,303.7 524.9,246.5 601.2,246.5 601.2,343 635.2,343 651.7,303.2 693.4,303.2 
			705.3,331.7 757,331.7 757,224.8 793.7,224.8 793.7,260.1 822.9,260.1 822.9,185.2 849.7,185.2 849.7,298.4 924.6,298.4 
			931.6,315.2 		"/>
	</g>
</g>
<linearGradient id="SVGID_17_" gradientUnits="userSpaceOnUse" x1="600.24" y1="465.0902" x2="600.24" y2="224.3312" gradientTransform="matrix(1 0 0 -1 0 630)">
	<stop  offset="0" style="stop-color:#D2D2D2"/>
	<stop  offset="1" style="stop-color:#FFFFFF"/>
</linearGradient>
<polygon class="st6" points="1198.4,311.7 1198.4,630 2.1,630 2.1,291.9 20.6,291.9 37.6,319.2 221.6,319.2 250.2,273 308,273 
	308,195.4 358.6,195.4 358.6,300 451.6,300 487.5,242.1 602.6,242.1 602.6,339.7 653.8,339.7 678.6,299.5 741.6,299.5 759.4,328.3 
	837.4,328.3 837.4,220.2 892.8,220.2 892.8,255.9 936.8,255.9 936.8,180.2 977.1,180.2 977.1,294.6 1090.2,294.6 1100.7,311.7 "/>
<g>
	
		<linearGradient id="SVGID_18_" gradientUnits="userSpaceOnUse" x1="793.3248" y1="221.9542" x2="587.922" y2="-109.8502" gradientTransform="matrix(1 0 0 -1 0 630)">
		<stop  offset="0" style="stop-color:#E3FFFF"/>
		<stop  offset="1" style="stop-color:#6076FA"/>
	</linearGradient>
	<circle class="st7" cx="711.7" cy="539.9" r="51"/>
	<g>
		<g>
			<g>
				<path class="st8" d="M693.8,350.6c2-26.8,3.4-51.8,4.1-75.2c-6.5-3.4-14.2-7.4-20.4-10.3c-19.2-9.2-46.1-21.5-63.2-29.4
					c-10.1-4.6-19.9-8-19.9-8s-68.7-6.6-74.3-6.2c-1.7,0.1-10.3,3.1-21.6,7.4c-24.3,9.2-71.4,28.1-78.8,33.4
					c-11,7.9-50.2,200.3-51.3,213.3c-1,12.7,53.4,30.1,103.8,43.4c0,19.5-0.4,46.8-0.9,71.8c-0.1,4.3-0.1,8.4-0.2,12.5h220.4
					c-0.3-4.3-0.6-8.5-0.8-12.5c0-0.6-0.1-1-0.1-1.6c-0.8-16.9-4.1-47.2-3.3-76.6c0,0-0.6-31.1,2.6-44.5
					C690.2,409.1,693.8,350.6,693.8,350.6z M414.3,463.8c0.3-25,33.7-71.6,33.7-71.6s1.5-0.7,1.6-0.6l1.7-0.2c0,0,5.2-4.9,5.2-4.9
					c1.2,4.5,12.3,67.4,15,104C440.1,484.2,414.1,475.7,414.3,463.8z"/>
			</g>
		</g>
		<g>
			<g>
				<path class="st9" d="M697.9,590.8c-1.4-10.4-2.8-20.9-4.1-31.1c0-0.1,0-0.1,0-0.1c-0.4-3.4-0.8-6.8-1.2-10.1
					c0-0.1,0-0.3-0.1-0.6c-1.6-14.1-3-27.6-3.9-39.9c-0.8-9.4-0.1-18.7,1.2-27.8c3.9-63.2,5.7-129.8,5.7-129.8
					c2-27.2,3.2-52.7,3.9-76.5c0,0-86.3-40.7-94.1-43.1c0,0,16.3,38.4,28.6,124.3c4.7,33,13.4,88.5,19.8,145.2l0,0
					c3.4,30.6,9.9,61.8,14.8,89.4c0.8,4.3,1.4,8.4,2.1,12.5h28.9C699,599.2,698.5,595,697.9,590.8z"/>
			</g>
		</g>
		<g>
			<g>
				<path class="st9" d="M554.2,489.3c3.4-31.9,6.5-63.8,5-81.3c-11.9-140.4-45.6-177.6-50.5-183c-3.8,1.4-18.1,6.8-22.3,8.5
					c-23,9.1-70,25.7-76.3,30.3c-11,7.9-54.2,209.6-55.5,222.6c-0.9,8.8,55.6,27.2,113.1,43.7c-0.6,15.8,1,38.1-4.3,61.3
					c-0.9,4.1-2.3,6.8-2.5,12.2l80.3-0.3c0.5-4.1,1-8.3,1.5-12.5c1.5-12.5,3.1-25.4,4.7-39.1c24.1,6.2,40.5,10.3,40.5,10.3
					s22.6-38.2,29.2-53.7C618.2,505.6,589.1,498.7,554.2,489.3z M450.4,441c-0.8-28.8-0.6-48.8-0.6-48.8c2.8,9.9,6.8,38,10.3,66
					C448.3,452.3,450.5,446.8,450.4,441z"/>
			</g>
		</g>
		<g>
			<g>
				<path class="st10" d="M516.4,223.7c0,0,8.8-16.5,6.3-63.4c-0.7-13,68.3,30.8,68.3,30.8s-0.2,4.5-0.4,10.5
					c-0.1,2.5-0.1,5.2-0.1,8.1c0,0.8,0,1.6,0,2.3c0,1.3,0,2.6,0.1,3.8c0,1.6,0.1,3.1,0.1,4.6c0.1,1.7,0.2,3.3,0.3,4.8
					c0.3,2.8,1.9,7.9,2.6,9.2C596.8,241.7,542.2,242.2,516.4,223.7z"/>
			</g>
		</g>
		<g>
			<path class="st11" d="M574.2,253.5l12.7,17c0,0-7.4,9.9-20.7,2.6L574.2,253.5z"/>
		</g>
		<g>
			<path class="st11" d="M583.5,271.3c0,0,46.5,113.6,36.6,257.9l-14.7,26.6l-16.5-22.7c0,0-2.7-191.7-15.9-262.4L583.5,271.3z"/>
		</g>
		<g>
			<path class="st10" d="M587.8,237.6l-13.6,15.9c0,0-21.8-4.2-28.2-15.7C539.6,226.5,587.8,237.6,587.8,237.6z"/>
		</g>
		<g>
			<path class="st12" d="M590.9,223.7c0,0-1.6,12.1-16.7,29.9l16.5,22.2l9-46.1L590.9,223.7z"/>
		</g>
		<g>
			<path class="st12" d="M520.6,209.1c0,0,31.6,35.7,53.6,44.4L564,278.8l-50.3-55.6L520.6,209.1z"/>
		</g>
		<g>
			<g>
				<path class="st9" d="M845,532c0,0-41.9-40.6-69.4-47.4c-12.7-3.1-29.4-20.7-45.3-41.2c-5.2-6.8-10.4-13.9-15.2-21l0,0
					c-19.5-28.1-34.8-55.2-34.8-55.2s-57.6-67.6-11.4-97.6c0,0,19.9-0.4,30.7,5.4c11.2,6.1,35,55.8,39.1,64.7
					c4.1,8.8,47.9,90.7,50.7,92.5c3,1.9,7.8,8.5,25.4,18c21.4,11.6,55.2,45.4,55.2,45.4L845,532z"/>
			</g>
		</g>
		<g>
			<path class="st13" d="M577.3,39.3c0,0,75.6-18.3,59.7,77.6s-34.1,103.6-80.1,84.5S514,121,511.2,91
				C508.4,61,553.1,40.7,577.3,39.3z"/>
		</g>
		<g>
			<path class="st13" d="M537.5,105.6c-1.1-8.4-17.9-11.2-19,1.4c-1.2,12.7,8.1,34.7,14.3,32.4C539.2,137.2,539.1,117.2,537.5,105.6
				z"/>
		</g>
		<g>
			<path class="st14" d="M515.6,139.9c0,0,1.5-30.1,12.5-31.2c11-1.1,12.8,11,12.8,11l11.1,1.9c0,0-3.9-26.3,7-31.1
				s71.4,13.4,80,5.6c8.7-7.9,3.8-61.3-12.3-68.4c-16.1-7.1-60.3-22.8-92.3-0.6c0,0-25.2-2.5-28.6,17.9
				C502.6,65.4,508.6,124.9,515.6,139.9z"/>
		</g>
		<g>
			<path class="st15" d="M590.7,220.5L590.7,220.5c-40.6-4.1-56.3-35.4-56.3-35.4c25.5,25.3,56.1,24.6,56.1,24.6c0,0.8,0,1.6,0,2.3
				c0,1.3,0,2.6,0.1,3.8C590.6,217.5,590.6,219,590.7,220.5z"/>
		</g>
		<g>
			<path class="st16" d="M643.9,579c0,0-5.9-0.2-8.3-1.6c0,0-4.3-2.8-7.6-4.6c-1-0.6-1.9-1-2.6-1.3c-2.6-1-8.5-2.5-14.1-6.7
				s-23.4-21-23.4-21l11.6-17.9l5.4-17.7c0,0,41.9,4.1,47.4,7.4c0.6,0.3,1.1,0.7,1.5,1c4.5,3.2,6.4,7.6,8.5,9.6
				c0.8,0.8,8.1,8.5,7.7,11.7c-0.6,4.4-2.8,7.2-5.4,8.5c0,0-1.4,8.5-5.9,12.4c0,0-1.1,7.9-7.9,11.1C650.7,570.1,648.7,578,643.9,579
				z"/>
		</g>
		<g>
			<path class="st9" d="M619.1,508.3L587.9,562c0,0-82.7-21.3-102-26.8l44.1-52.5C530,482.7,595,497.5,619.1,508.3z"/>
		</g>
	</g>
	<g>
		
			<linearGradient id="SVGID_19_" gradientUnits="userSpaceOnUse" x1="839.7438" y1="27.6894" x2="887.3159" y2="599.464" gradientTransform="matrix(1 0 0 -1 0 630)">
			<stop  offset="0" style="stop-color:#9C7B53"/>
			<stop  offset="1" style="stop-color:#C4AA6E"/>
		</linearGradient>
		<polygon class="st17" points="714.6,390.7 692.5,595.9 983,595.9 1005.1,390.7 		"/>
	</g>
	<g>
		
			<linearGradient id="SVGID_20_" gradientUnits="userSpaceOnUse" x1="854.3104" y1="26.4777" x2="901.8825" y2="598.2529" gradientTransform="matrix(1 0 0 -1 0 630)">
			<stop  offset="0" style="stop-color:#E17474"/>
			<stop  offset="1" style="stop-color:#F2D25F"/>
		</linearGradient>
		<path class="st18" d="M999.6,586.4H706.8L729.2,379h292.8L999.6,586.4z M709.4,584.1h288.2l21.9-202.9H731.2L709.4,584.1z"/>
	</g>
	<g>
		<rect x="669.4" y="577.4" class="st19" width="48.5" height="18.5"/>
	</g>
	<g>
		<g>
			<g>
				<rect id="SVGID_11_" x="140" y="595.5" class="st20" width="852.1" height="12.5"/>
			</g>
			<g>
				<defs>
					<rect id="SVGID_21_" x="140" y="595.5" width="852.1" height="12.5"/>
				</defs>
				<clipPath id="SVGID_22_">
					<use xlink:href="#SVGID_21_"  style="overflow:visible;"/>
				</clipPath>
				<path class="st21" d="M140,595.5v12.5V595.5z"/>
			</g>
			<g>
				<defs>
					<rect id="SVGID_23_" x="140" y="595.5" width="852.1" height="12.5"/>
				</defs>
				<clipPath id="SVGID_24_">
					<use xlink:href="#SVGID_23_"  style="overflow:visible;"/>
				</clipPath>
				<rect x="140" y="595.5" class="st22" width="13.1" height="12.5"/>
			</g>
			<g>
				<defs>
					<rect id="SVGID_25_" x="140" y="595.5" width="852.1" height="12.5"/>
				</defs>
				<clipPath id="SVGID_26_">
					<use xlink:href="#SVGID_25_"  style="overflow:visible;"/>
				</clipPath>
				<rect x="153.1" y="595.5" class="st23" width="13.1" height="12.5"/>
			</g>
			<g>
				<defs>
					<rect id="SVGID_27_" x="140" y="595.5" width="852.1" height="12.5"/>
				</defs>
				<clipPath id="SVGID_28_">
					<use xlink:href="#SVGID_27_"  style="overflow:visible;"/>
				</clipPath>
				<rect x="166.2" y="595.5" class="st24" width="13.1" height="12.5"/>
			</g>
			<g>
				<defs>
					<rect id="SVGID_29_" x="140" y="595.5" width="852.1" height="12.5"/>
				</defs>
				<clipPath id="SVGID_30_">
					<use xlink:href="#SVGID_29_"  style="overflow:visible;"/>
				</clipPath>
				<rect x="179.4" y="595.5" class="st25" width="13.1" height="12.5"/>
			</g>
			<g>
				<defs>
					<rect id="SVGID_31_" x="140" y="595.5" width="852.1" height="12.5"/>
				</defs>
				<clipPath id="SVGID_32_">
					<use xlink:href="#SVGID_31_"  style="overflow:visible;"/>
				</clipPath>
				<rect x="192.5" y="595.5" class="st26" width="13.1" height="12.5"/>
			</g>
			<g>
				<defs>
					<rect id="SVGID_33_" x="140" y="595.5" width="852.1" height="12.5"/>
				</defs>
				<clipPath id="SVGID_34_">
					<use xlink:href="#SVGID_33_"  style="overflow:visible;"/>
				</clipPath>
				<rect x="205.6" y="595.5" class="st27" width="13.1" height="12.5"/>
			</g>
			<g>
				<defs>
					<rect id="SVGID_35_" x="140" y="595.5" width="852.1" height="12.5"/>
				</defs>
				<clipPath id="SVGID_36_">
					<use xlink:href="#SVGID_35_"  style="overflow:visible;"/>
				</clipPath>
				<rect x="218.7" y="595.5" class="st28" width="13.1" height="12.5"/>
			</g>
			<g>
				<defs>
					<rect id="SVGID_37_" x="140" y="595.5" width="852.1" height="12.5"/>
				</defs>
				<clipPath id="SVGID_38_">
					<use xlink:href="#SVGID_37_"  style="overflow:visible;"/>
				</clipPath>
				<rect x="231.8" y="595.5" class="st29" width="13.1" height="12.5"/>
			</g>
			<g>
				<defs>
					<rect id="SVGID_39_" x="140" y="595.5" width="852.1" height="12.5"/>
				</defs>
				<clipPath id="SVGID_40_">
					<use xlink:href="#SVGID_39_"  style="overflow:visible;"/>
				</clipPath>
				<rect x="244.9" y="595.5" class="st30" width="13.1" height="12.5"/>
			</g>
			<g>
				<defs>
					<rect id="SVGID_41_" x="140" y="595.5" width="852.1" height="12.5"/>
				</defs>
				<clipPath id="SVGID_42_">
					<use xlink:href="#SVGID_41_"  style="overflow:visible;"/>
				</clipPath>
				<rect x="258" y="595.5" class="st31" width="13.1" height="12.5"/>
			</g>
			<g>
				<defs>
					<rect id="SVGID_43_" x="140" y="595.5" width="852.1" height="12.5"/>
				</defs>
				<clipPath id="SVGID_44_">
					<use xlink:href="#SVGID_43_"  style="overflow:visible;"/>
				</clipPath>
				<rect x="271.1" y="595.5" class="st32" width="13.1" height="12.5"/>
			</g>
			<g>
				<defs>
					<rect id="SVGID_45_" x="140" y="595.5" width="852.1" height="12.5"/>
				</defs>
				<clipPath id="SVGID_46_">
					<use xlink:href="#SVGID_45_"  style="overflow:visible;"/>
				</clipPath>
				<rect x="284.2" y="595.5" class="st33" width="13.1" height="12.5"/>
			</g>
			<g>
				<defs>
					<rect id="SVGID_47_" x="140" y="595.5" width="852.1" height="12.5"/>
				</defs>
				<clipPath id="SVGID_48_">
					<use xlink:href="#SVGID_47_"  style="overflow:visible;"/>
				</clipPath>
				<rect x="297.3" y="595.5" class="st34" width="13.1" height="12.5"/>
			</g>
			<g>
				<defs>
					<rect id="SVGID_49_" x="140" y="595.5" width="852.1" height="12.5"/>
				</defs>
				<clipPath id="SVGID_50_">
					<use xlink:href="#SVGID_49_"  style="overflow:visible;"/>
				</clipPath>
				<rect x="310.4" y="595.5" class="st35" width="13.1" height="12.5"/>
			</g>
			<g>
				<defs>
					<rect id="SVGID_51_" x="140" y="595.5" width="852.1" height="12.5"/>
				</defs>
				<clipPath id="SVGID_52_">
					<use xlink:href="#SVGID_51_"  style="overflow:visible;"/>
				</clipPath>
				<rect x="323.5" y="595.5" class="st36" width="13.1" height="12.5"/>
			</g>
			<g>
				<defs>
					<rect id="SVGID_53_" x="140" y="595.5" width="852.1" height="12.5"/>
				</defs>
				<clipPath id="SVGID_54_">
					<use xlink:href="#SVGID_53_"  style="overflow:visible;"/>
				</clipPath>
				<rect x="336.6" y="595.5" class="st37" width="13.1" height="12.5"/>
			</g>
			<g>
				<defs>
					<rect id="SVGID_55_" x="140" y="595.5" width="852.1" height="12.5"/>
				</defs>
				<clipPath id="SVGID_56_">
					<use xlink:href="#SVGID_55_"  style="overflow:visible;"/>
				</clipPath>
				<rect x="349.7" y="595.5" class="st38" width="13.1" height="12.5"/>
			</g>
			<g>
				<defs>
					<rect id="SVGID_57_" x="140" y="595.5" width="852.1" height="12.5"/>
				</defs>
				<clipPath id="SVGID_58_">
					<use xlink:href="#SVGID_57_"  style="overflow:visible;"/>
				</clipPath>
				<rect x="362.8" y="595.5" class="st39" width="13.1" height="12.5"/>
			</g>
			<g>
				<defs>
					<rect id="SVGID_59_" x="140" y="595.5" width="852.1" height="12.5"/>
				</defs>
				<clipPath id="SVGID_60_">
					<use xlink:href="#SVGID_59_"  style="overflow:visible;"/>
				</clipPath>
				<rect x="376" y="595.5" class="st40" width="13.1" height="12.5"/>
			</g>
			<g>
				<defs>
					<rect id="SVGID_61_" x="140" y="595.5" width="852.1" height="12.5"/>
				</defs>
				<clipPath id="SVGID_62_">
					<use xlink:href="#SVGID_61_"  style="overflow:visible;"/>
				</clipPath>
				<rect x="389.1" y="595.5" class="st41" width="13.1" height="12.5"/>
			</g>
			<g>
				<defs>
					<rect id="SVGID_63_" x="140" y="595.5" width="852.1" height="12.5"/>
				</defs>
				<clipPath id="SVGID_64_">
					<use xlink:href="#SVGID_63_"  style="overflow:visible;"/>
				</clipPath>
				<rect x="402.2" y="595.5" class="st42" width="13.1" height="12.5"/>
			</g>
			<g>
				<defs>
					<rect id="SVGID_65_" x="140" y="595.5" width="852.1" height="12.5"/>
				</defs>
				<clipPath id="SVGID_66_">
					<use xlink:href="#SVGID_65_"  style="overflow:visible;"/>
				</clipPath>
				<rect x="415.3" y="595.5" class="st43" width="13.1" height="12.5"/>
			</g>
			<g>
				<defs>
					<rect id="SVGID_67_" x="140" y="595.5" width="852.1" height="12.5"/>
				</defs>
				<clipPath id="SVGID_68_">
					<use xlink:href="#SVGID_67_"  style="overflow:visible;"/>
				</clipPath>
				<rect x="428.4" y="595.5" class="st44" width="13.1" height="12.5"/>
			</g>
			<g>
				<defs>
					<rect id="SVGID_69_" x="140" y="595.5" width="852.1" height="12.5"/>
				</defs>
				<clipPath id="SVGID_70_">
					<use xlink:href="#SVGID_69_"  style="overflow:visible;"/>
				</clipPath>
				<rect x="441.5" y="595.5" class="st45" width="13.1" height="12.5"/>
			</g>
			<g>
				<defs>
					<rect id="SVGID_71_" x="140" y="595.5" width="852.1" height="12.5"/>
				</defs>
				<clipPath id="SVGID_72_">
					<use xlink:href="#SVGID_71_"  style="overflow:visible;"/>
				</clipPath>
				<rect x="454.6" y="595.5" class="st46" width="13.1" height="12.5"/>
			</g>
			<g>
				<defs>
					<rect id="SVGID_73_" x="140" y="595.5" width="852.1" height="12.5"/>
				</defs>
				<clipPath id="SVGID_74_">
					<use xlink:href="#SVGID_73_"  style="overflow:visible;"/>
				</clipPath>
				<rect x="467.7" y="595.5" class="st47" width="13.1" height="12.5"/>
			</g>
			<g>
				<defs>
					<rect id="SVGID_75_" x="140" y="595.5" width="852.1" height="12.5"/>
				</defs>
				<clipPath id="SVGID_76_">
					<use xlink:href="#SVGID_75_"  style="overflow:visible;"/>
				</clipPath>
				<rect x="480.9" y="595.5" class="st48" width="13.1" height="12.5"/>
			</g>
			<g>
				<defs>
					<rect id="SVGID_77_" x="140" y="595.5" width="852.1" height="12.5"/>
				</defs>
				<clipPath id="SVGID_78_">
					<use xlink:href="#SVGID_77_"  style="overflow:visible;"/>
				</clipPath>
				<rect x="494" y="595.5" class="st49" width="13.1" height="12.5"/>
			</g>
			<g>
				<defs>
					<rect id="SVGID_79_" x="140" y="595.5" width="852.1" height="12.5"/>
				</defs>
				<clipPath id="SVGID_80_">
					<use xlink:href="#SVGID_79_"  style="overflow:visible;"/>
				</clipPath>
				<rect x="507.1" y="595.5" class="st50" width="13.1" height="12.5"/>
			</g>
			<g>
				<defs>
					<rect id="SVGID_81_" x="140" y="595.5" width="852.1" height="12.5"/>
				</defs>
				<clipPath id="SVGID_82_">
					<use xlink:href="#SVGID_81_"  style="overflow:visible;"/>
				</clipPath>
				<rect x="520.2" y="595.5" class="st51" width="13.1" height="12.5"/>
			</g>
			<g>
				<defs>
					<rect id="SVGID_83_" x="140" y="595.5" width="852.1" height="12.5"/>
				</defs>
				<clipPath id="SVGID_84_">
					<use xlink:href="#SVGID_83_"  style="overflow:visible;"/>
				</clipPath>
				<rect x="533.3" y="595.5" class="st52" width="13.1" height="12.5"/>
			</g>
			<g>
				<defs>
					<rect id="SVGID_85_" x="140" y="595.5" width="852.1" height="12.5"/>
				</defs>
				<clipPath id="SVGID_86_">
					<use xlink:href="#SVGID_85_"  style="overflow:visible;"/>
				</clipPath>
				<rect x="546.4" y="595.5" class="st53" width="13.1" height="12.5"/>
			</g>
			<g>
				<defs>
					<rect id="SVGID_87_" x="140" y="595.5" width="852.1" height="12.5"/>
				</defs>
				<clipPath id="SVGID_88_">
					<use xlink:href="#SVGID_87_"  style="overflow:visible;"/>
				</clipPath>
				<rect x="559.5" y="595.5" class="st54" width="13.1" height="12.5"/>
			</g>
			<g>
				<defs>
					<rect id="SVGID_89_" x="140" y="595.5" width="852.1" height="12.5"/>
				</defs>
				<clipPath id="SVGID_90_">
					<use xlink:href="#SVGID_89_"  style="overflow:visible;"/>
				</clipPath>
				<rect x="572.6" y="595.5" class="st55" width="13.1" height="12.5"/>
			</g>
			<g>
				<defs>
					<rect id="SVGID_91_" x="140" y="595.5" width="852.1" height="12.5"/>
				</defs>
				<clipPath id="SVGID_92_">
					<use xlink:href="#SVGID_91_"  style="overflow:visible;"/>
				</clipPath>
				<rect x="585.7" y="595.5" class="st56" width="13.1" height="12.5"/>
			</g>
			<g>
				<defs>
					<rect id="SVGID_93_" x="140" y="595.5" width="852.1" height="12.5"/>
				</defs>
				<clipPath id="SVGID_94_">
					<use xlink:href="#SVGID_93_"  style="overflow:visible;"/>
				</clipPath>
				<rect x="598.8" y="595.5" class="st57" width="13.1" height="12.5"/>
			</g>
			<g>
				<defs>
					<rect id="SVGID_95_" x="140" y="595.5" width="852.1" height="12.5"/>
				</defs>
				<clipPath id="SVGID_96_">
					<use xlink:href="#SVGID_95_"  style="overflow:visible;"/>
				</clipPath>
				<rect x="611.9" y="595.5" class="st58" width="13.1" height="12.5"/>
			</g>
			<g>
				<defs>
					<rect id="SVGID_97_" x="140" y="595.5" width="852.1" height="12.5"/>
				</defs>
				<clipPath id="SVGID_98_">
					<use xlink:href="#SVGID_97_"  style="overflow:visible;"/>
				</clipPath>
				<rect x="625" y="595.5" class="st59" width="13.1" height="12.5"/>
			</g>
			<g>
				<defs>
					<rect id="SVGID_99_" x="140" y="595.5" width="852.1" height="12.5"/>
				</defs>
				<clipPath id="SVGID_100_">
					<use xlink:href="#SVGID_99_"  style="overflow:visible;"/>
				</clipPath>
				<rect x="638.1" y="595.5" class="st60" width="13.1" height="12.5"/>
			</g>
			<g>
				<defs>
					<rect id="SVGID_101_" x="140" y="595.5" width="852.1" height="12.5"/>
				</defs>
				<clipPath id="SVGID_102_">
					<use xlink:href="#SVGID_101_"  style="overflow:visible;"/>
				</clipPath>
				<rect x="651.2" y="595.5" class="st61" width="13.1" height="12.5"/>
			</g>
			<g>
				<defs>
					<rect id="SVGID_103_" x="140" y="595.5" width="852.1" height="12.5"/>
				</defs>
				<clipPath id="SVGID_104_">
					<use xlink:href="#SVGID_103_"  style="overflow:visible;"/>
				</clipPath>
				<rect x="664.4" y="595.5" class="st62" width="13.1" height="12.5"/>
			</g>
			<g>
				<defs>
					<rect id="SVGID_105_" x="140" y="595.5" width="852.1" height="12.5"/>
				</defs>
				<clipPath id="SVGID_106_">
					<use xlink:href="#SVGID_105_"  style="overflow:visible;"/>
				</clipPath>
				<rect x="677.5" y="595.5" class="st63" width="13.1" height="12.5"/>
			</g>
			<g>
				<defs>
					<rect id="SVGID_107_" x="140" y="595.5" width="852.1" height="12.5"/>
				</defs>
				<clipPath id="SVGID_108_">
					<use xlink:href="#SVGID_107_"  style="overflow:visible;"/>
				</clipPath>
				<rect x="690.6" y="595.5" class="st64" width="13.1" height="12.5"/>
			</g>
			<g>
				<defs>
					<rect id="SVGID_109_" x="140" y="595.5" width="852.1" height="12.5"/>
				</defs>
				<clipPath id="SVGID_110_">
					<use xlink:href="#SVGID_109_"  style="overflow:visible;"/>
				</clipPath>
				<rect x="703.7" y="595.5" class="st65" width="13.1" height="12.5"/>
			</g>
			<g>
				<defs>
					<rect id="SVGID_111_" x="140" y="595.5" width="852.1" height="12.5"/>
				</defs>
				<clipPath id="SVGID_112_">
					<use xlink:href="#SVGID_111_"  style="overflow:visible;"/>
				</clipPath>
				<rect x="716.8" y="595.5" class="st66" width="13.1" height="12.5"/>
			</g>
			<g>
				<defs>
					<rect id="SVGID_113_" x="140" y="595.5" width="852.1" height="12.5"/>
				</defs>
				<clipPath id="SVGID_114_">
					<use xlink:href="#SVGID_113_"  style="overflow:visible;"/>
				</clipPath>
				<rect x="729.9" y="595.5" class="st67" width="13.1" height="12.5"/>
			</g>
			<g>
				<defs>
					<rect id="SVGID_115_" x="140" y="595.5" width="852.1" height="12.5"/>
				</defs>
				<clipPath id="SVGID_116_">
					<use xlink:href="#SVGID_115_"  style="overflow:visible;"/>
				</clipPath>
				<rect x="743" y="595.5" class="st68" width="13.1" height="12.5"/>
			</g>
			<g>
				<defs>
					<rect id="SVGID_117_" x="140" y="595.5" width="852.1" height="12.5"/>
				</defs>
				<clipPath id="SVGID_118_">
					<use xlink:href="#SVGID_117_"  style="overflow:visible;"/>
				</clipPath>
				<rect x="756.1" y="595.5" class="st69" width="13.1" height="12.5"/>
			</g>
			<g>
				<defs>
					<rect id="SVGID_119_" x="140" y="595.5" width="852.1" height="12.5"/>
				</defs>
				<clipPath id="SVGID_120_">
					<use xlink:href="#SVGID_119_"  style="overflow:visible;"/>
				</clipPath>
				<rect x="769.3" y="595.5" class="st70" width="13.1" height="12.5"/>
			</g>
			<g>
				<defs>
					<rect id="SVGID_121_" x="140" y="595.5" width="852.1" height="12.5"/>
				</defs>
				<clipPath id="SVGID_122_">
					<use xlink:href="#SVGID_121_"  style="overflow:visible;"/>
				</clipPath>
				<rect x="782.4" y="595.5" class="st71" width="13.1" height="12.5"/>
			</g>
			<g>
				<defs>
					<rect id="SVGID_123_" x="140" y="595.5" width="852.1" height="12.5"/>
				</defs>
				<clipPath id="SVGID_124_">
					<use xlink:href="#SVGID_123_"  style="overflow:visible;"/>
				</clipPath>
				<rect x="795.5" y="595.5" class="st72" width="13.1" height="12.5"/>
			</g>
			<g>
				<defs>
					<rect id="SVGID_125_" x="140" y="595.5" width="852.1" height="12.5"/>
				</defs>
				<clipPath id="SVGID_126_">
					<use xlink:href="#SVGID_125_"  style="overflow:visible;"/>
				</clipPath>
				<rect x="808.6" y="595.5" class="st73" width="13.1" height="12.5"/>
			</g>
			<g>
				<defs>
					<rect id="SVGID_127_" x="140" y="595.5" width="852.1" height="12.5"/>
				</defs>
				<clipPath id="SVGID_128_">
					<use xlink:href="#SVGID_127_"  style="overflow:visible;"/>
				</clipPath>
				<rect x="821.7" y="595.5" class="st74" width="13.1" height="12.5"/>
			</g>
			<g>
				<defs>
					<rect id="SVGID_129_" x="140" y="595.5" width="852.1" height="12.5"/>
				</defs>
				<clipPath id="SVGID_130_">
					<use xlink:href="#SVGID_129_"  style="overflow:visible;"/>
				</clipPath>
				<rect x="834.8" y="595.5" class="st75" width="13.1" height="12.5"/>
			</g>
			<g>
				<defs>
					<rect id="SVGID_131_" x="140" y="595.5" width="852.1" height="12.5"/>
				</defs>
				<clipPath id="SVGID_132_">
					<use xlink:href="#SVGID_131_"  style="overflow:visible;"/>
				</clipPath>
				<rect x="847.9" y="595.5" class="st76" width="13.1" height="12.5"/>
			</g>
			<g>
				<defs>
					<rect id="SVGID_133_" x="140" y="595.5" width="852.1" height="12.5"/>
				</defs>
				<clipPath id="SVGID_134_">
					<use xlink:href="#SVGID_133_"  style="overflow:visible;"/>
				</clipPath>
				<rect x="861.1" y="595.5" class="st77" width="13.1" height="12.5"/>
			</g>
			<g>
				<defs>
					<rect id="SVGID_135_" x="140" y="595.5" width="852.1" height="12.5"/>
				</defs>
				<clipPath id="SVGID_136_">
					<use xlink:href="#SVGID_135_"  style="overflow:visible;"/>
				</clipPath>
				<rect x="874.2" y="595.5" class="st78" width="13.1" height="12.5"/>
			</g>
			<g>
				<defs>
					<rect id="SVGID_137_" x="140" y="595.5" width="852.1" height="12.5"/>
				</defs>
				<clipPath id="SVGID_138_">
					<use xlink:href="#SVGID_137_"  style="overflow:visible;"/>
				</clipPath>
				<rect x="887.3" y="595.5" class="st79" width="13.1" height="12.5"/>
			</g>
			<g>
				<defs>
					<rect id="SVGID_139_" x="140" y="595.5" width="852.1" height="12.5"/>
				</defs>
				<clipPath id="SVGID_140_">
					<use xlink:href="#SVGID_139_"  style="overflow:visible;"/>
				</clipPath>
				<rect x="900.4" y="595.5" class="st80" width="13.1" height="12.5"/>
			</g>
			<g>
				<defs>
					<rect id="SVGID_141_" x="140" y="595.5" width="852.1" height="12.5"/>
				</defs>
				<clipPath id="SVGID_142_">
					<use xlink:href="#SVGID_141_"  style="overflow:visible;"/>
				</clipPath>
				<rect x="913.5" y="595.5" class="st81" width="13.1" height="12.5"/>
			</g>
			<g>
				<defs>
					<rect id="SVGID_143_" x="140" y="595.5" width="852.1" height="12.5"/>
				</defs>
				<clipPath id="SVGID_144_">
					<use xlink:href="#SVGID_143_"  style="overflow:visible;"/>
				</clipPath>
				<rect x="926.6" y="595.5" class="st82" width="13.1" height="12.5"/>
			</g>
			<g>
				<defs>
					<rect id="SVGID_145_" x="140" y="595.5" width="852.1" height="12.5"/>
				</defs>
				<clipPath id="SVGID_146_">
					<use xlink:href="#SVGID_145_"  style="overflow:visible;"/>
				</clipPath>
				<rect x="939.7" y="595.5" class="st83" width="13.1" height="12.5"/>
			</g>
			<g>
				<defs>
					<rect id="SVGID_147_" x="140" y="595.5" width="852.1" height="12.5"/>
				</defs>
				<clipPath id="SVGID_148_">
					<use xlink:href="#SVGID_147_"  style="overflow:visible;"/>
				</clipPath>
				<rect x="952.8" y="595.5" class="st84" width="13.1" height="12.5"/>
			</g>
			<g>
				<defs>
					<rect id="SVGID_149_" x="140" y="595.5" width="852.1" height="12.5"/>
				</defs>
				<clipPath id="SVGID_150_">
					<use xlink:href="#SVGID_149_"  style="overflow:visible;"/>
				</clipPath>
				<rect x="965.9" y="595.5" class="st85" width="13.1" height="12.5"/>
			</g>
			<g>
				<defs>
					<rect id="SVGID_151_" x="140" y="595.5" width="852.1" height="12.5"/>
				</defs>
				<clipPath id="SVGID_152_">
					<use xlink:href="#SVGID_151_"  style="overflow:visible;"/>
				</clipPath>
				<rect x="979" y="595.5" class="st86" width="13.1" height="12.5"/>
			</g>
			<g>
				<defs>
					<rect id="SVGID_153_" x="140" y="595.5" width="852.1" height="12.5"/>
				</defs>
				<clipPath id="SVGID_154_">
					<use xlink:href="#SVGID_153_"  style="overflow:visible;"/>
				</clipPath>
				<path class="st87" d="M992.1,608v-12.5V608z"/>
			</g>
		</g>
	</g>
	
		<linearGradient id="SVGID_155_" gradientUnits="userSpaceOnUse" x1="746.2328" y1="-4887.8955" x2="808.7197" y2="-4711.1743" gradientTransform="matrix(0 -1 -1 0 -4583.2715 1076.4141)">
		<stop  offset="0" style="stop-color:#9C7B53"/>
		<stop  offset="1" style="stop-color:#C4AA6E"/>
	</linearGradient>
	<path class="st88" d="M370.5,243.6L332.8,409c-0.8,3.5-4.2,6-8.2,6h-108c-5.3,0-9.3-4.3-8.2-9L246,240.6c0.8-3.5,4.2-6,8.2-6h108
		C367.6,234.6,371.6,238.9,370.5,243.6z"/>
	<polygon class="st89" points="328.1,234.6 286.3,415.1 310.5,415.1 352.3,234.6 	"/>
	<path class="st90" d="M284.6,360l-8.5,35.6c-0.9,3.9-4.8,6.6-9.1,6.6h-15.4c-5.9,0-10.3-4.9-9.1-10.1l8.5-35.6
		c0.9-3.9,4.8-6.6,9.1-6.6h15.4C281.4,349.9,285.9,354.8,284.6,360z"/>
	
		<linearGradient id="SVGID_156_" gradientUnits="userSpaceOnUse" x1="798.674" y1="-5062.4697" x2="798.674" y2="-4809.083" gradientTransform="matrix(0 -1 -1 0 -4583.2715 1076.4141)">
		<stop  offset="0" style="stop-color:#E17474"/>
		<stop  offset="1" style="stop-color:#F2D25F"/>
	</linearGradient>
	<polygon class="st91" points="289.4,245.4 274.5,310.1 268.8,310.1 283.7,245.4 	"/>
	
		<linearGradient id="SVGID_157_" gradientUnits="userSpaceOnUse" x1="798.674" y1="-5087.8667" x2="798.674" y2="-4834.4805" gradientTransform="matrix(0 -1 -1 0 -4583.2715 1076.4141)">
		<stop  offset="0" style="stop-color:#E17474"/>
		<stop  offset="1" style="stop-color:#F2D25F"/>
	</linearGradient>
	<polygon class="st92" points="279.8,245.4 264.9,310.1 259.2,310.1 274.2,245.4 	"/>
	<g>
		<path class="st93" d="M408.2,406.1l-37.7-165.4c-0.8-3.5-4.2-6-8.2-6H254.2c-5.3,0-9.3,4.3-8.2,9l37.7,165.4c0.8,3.5,4.2,6,8.2,6
			h108C405.3,415.1,409.2,410.7,408.2,406.1z"/>
		<g>
			<path class="st90" d="M334.8,258.3l10.3,43.4c1.2,4.9,6,8.4,11.6,8.4l0,0c7.5,0,13.2-6.2,11.6-12.8l-10.3-43.4
				c-1.2-4.9-6-8.4-11.6-8.4l0,0C338.8,245.4,333.2,251.7,334.8,258.3z"/>
			<path class="st90" d="M309.3,376l5.6,22.8c0.4,1.8-1.1,3.5-3.1,3.5h-17.1c-1.5,0-2.8-1-3.1-2.3l-5.6-22.8
				c-0.4-1.8,1.1-3.5,3.1-3.5h17.1C307.7,373.7,309,374.7,309.3,376z"/>
			<polygon class="st90" points="335.7,345.3 352.9,402.3 348.1,402.3 330.9,345.3 			"/>
			<polygon class="st90" points="346.2,345.3 363.4,402.3 358.6,402.3 341.4,345.3 			"/>
		</g>
	</g>
	
		<linearGradient id="SVGID_158_" gradientUnits="userSpaceOnUse" x1="565.7991" y1="-4852.1343" x2="628.2859" y2="-4675.4131" gradientTransform="matrix(0 -1 -1 0 -4583.2715 1076.4141)">
		<stop  offset="0" style="stop-color:#9C7B53"/>
		<stop  offset="1" style="stop-color:#C4AA6E"/>
	</linearGradient>
	<path class="st94" d="M334.8,424l-37.7,165.4c-0.8,3.5-4.2,6-8.2,6H180.7c-5.3,0-9.3-4.3-8.2-9L210.2,421c0.8-3.5,4.2-6,8.2-6h108
		C331.8,414.9,335.8,419.4,334.8,424z"/>
	<polygon class="st89" points="292.4,414.9 250.5,595.5 274.7,595.5 316.6,414.9 	"/>
	<path class="st90" d="M248.9,540.4l-8.5,35.6c-0.9,3.9-4.8,6.6-9.1,6.6h-15.4c-5.9,0-10.3-4.9-9.1-10.1l8.5-35.6
		c0.9-3.9,4.8-6.6,9.1-6.6h15.4C245.7,530.3,250.1,535.2,248.9,540.4z"/>
	
		<linearGradient id="SVGID_159_" gradientUnits="userSpaceOnUse" x1="618.2692" y1="-5026.7202" x2="618.2692" y2="-4773.3335" gradientTransform="matrix(0 -1 -1 0 -4583.2715 1076.4141)">
		<stop  offset="0" style="stop-color:#E17474"/>
		<stop  offset="1" style="stop-color:#F2D25F"/>
	</linearGradient>
	<polygon class="st95" points="253.7,425.8 238.7,490.4 233.1,490.4 248,425.8 	"/>
	
		<linearGradient id="SVGID_160_" gradientUnits="userSpaceOnUse" x1="618.2692" y1="-5052.1177" x2="618.2692" y2="-4798.7305" gradientTransform="matrix(0 -1 -1 0 -4583.2715 1076.4141)">
		<stop  offset="0" style="stop-color:#E17474"/>
		<stop  offset="1" style="stop-color:#F2D25F"/>
	</linearGradient>
	<polygon class="st96" points="244,425.8 229.1,490.4 223.4,490.4 238.4,425.8 	"/>
	<g>
		<path class="st93" d="M372.4,586.4L334.7,421c-0.8-3.5-4.2-6-8.2-6h-108c-5.3,0-9.3,4.3-8.2,9L248,589.5c0.8,3.5,4.2,6,8.2,6h108
			C369.5,595.5,373.5,591.1,372.4,586.4z"/>
		<g>
			<path class="st90" d="M299,438.7l10.3,43.4c1.2,4.9,6,8.4,11.6,8.4l0,0c7.5,0,13.2-6.2,11.6-12.8l-10.3-43.4
				c-1.2-4.9-6-8.4-11.6-8.4l0,0C303.1,425.8,297.4,432,299,438.7z"/>
			<path class="st90" d="M273.5,556.4l5.6,22.8c0.4,1.8-1.1,3.5-3.1,3.5h-17.1c-1.5,0-2.8-1-3.1-2.3l-5.6-22.8
				c-0.4-1.8,1.1-3.5,3.1-3.5h17.1C271.9,554.2,273.2,555.1,273.5,556.4z"/>
			<polygon class="st90" points="299.9,525.7 317.2,582.7 312.4,582.7 295.2,525.7 			"/>
			<polygon class="st90" points="310.4,525.7 327.7,582.7 322.8,582.7 305.7,525.7 			"/>
		</g>
	</g>
	
		<linearGradient id="SVGID_161_" gradientUnits="userSpaceOnUse" x1="565.7999" y1="-4927.4927" x2="628.2868" y2="-4750.7715" gradientTransform="matrix(0 -1 -1 0 -4583.2715 1076.4141)">
		<stop  offset="0" style="stop-color:#9C7B53"/>
		<stop  offset="1" style="stop-color:#C4AA6E"/>
	</linearGradient>
	<path class="st97" d="M410.1,424l-37.7,165.4c-0.8,3.5-4.2,6-8.2,6H256.1c-5.3,0-9.3-4.3-8.2-9L285.6,421c0.8-3.5,4.2-6,8.2-6h108
		C407.2,414.9,411.2,419.4,410.1,424z"/>
	<polygon class="st89" points="367.7,414.9 325.9,595.5 350.1,595.5 391.9,414.9 	"/>
	<path class="st90" d="M324.2,540.4l-8.5,35.6c-0.9,3.9-4.8,6.6-9.1,6.6h-15.4c-5.9,0-10.3-4.9-9.1-10.1l8.5-35.6
		c0.9-3.9,4.8-6.6,9.1-6.6h15.4C321,530.3,325.5,535.2,324.2,540.4z"/>
	
		<linearGradient id="SVGID_162_" gradientUnits="userSpaceOnUse" x1="618.2692" y1="-5102.0786" x2="618.2692" y2="-4848.6919" gradientTransform="matrix(0 -1 -1 0 -4583.2715 1076.4141)">
		<stop  offset="0" style="stop-color:#E17474"/>
		<stop  offset="1" style="stop-color:#F2D25F"/>
	</linearGradient>
	<polygon class="st98" points="329,425.8 314.1,490.4 308.4,490.4 323.4,425.8 	"/>
	
		<linearGradient id="SVGID_163_" gradientUnits="userSpaceOnUse" x1="618.2692" y1="-5127.4756" x2="618.2692" y2="-4874.0889" gradientTransform="matrix(0 -1 -1 0 -4583.2715 1076.4141)">
		<stop  offset="0" style="stop-color:#E17474"/>
		<stop  offset="1" style="stop-color:#F2D25F"/>
	</linearGradient>
	<polygon class="st99" points="319.4,425.8 304.5,490.4 298.8,490.4 313.7,425.8 	"/>
	<g>
		<path class="st93" d="M447.8,586.4L410.1,421c-0.8-3.5-4.2-6-8.2-6h-108c-5.3,0-9.3,4.3-8.2,9l37.7,165.4c0.8,3.5,4.2,6,8.2,6h108
			C444.9,595.5,448.9,591.1,447.8,586.4z"/>
		<g>
			<path class="st90" d="M374.3,438.7l10.3,43.4c1.2,4.9,6,8.4,11.6,8.4l0,0c7.5,0,13.2-6.2,11.6-12.8l-10.3-43.4
				c-1.2-4.9-6-8.4-11.6-8.4l0,0C378.4,425.8,372.8,432,374.3,438.7z"/>
			<path class="st90" d="M348.9,556.4l5.6,22.8c0.4,1.8-1.1,3.5-3.1,3.5h-17.1c-1.5,0-2.8-1-3.1-2.3l-5.6-22.8
				c-0.4-1.8,1.1-3.5,3.1-3.5h17.1C347.2,554.2,348.6,555.1,348.9,556.4z"/>
			<polygon class="st90" points="375.3,525.7 392.5,582.7 387.7,582.7 370.6,525.7 			"/>
			<polygon class="st90" points="385.8,525.7 403,582.7 398.2,582.7 381,525.7 			"/>
		</g>
	</g>
	
		<linearGradient id="SVGID_164_" gradientUnits="userSpaceOnUse" x1="746.31" y1="-4963.2715" x2="808.7968" y2="-4786.5508" gradientTransform="matrix(0 -1 -1 0 -4583.2715 1076.4141)">
		<stop  offset="0" style="stop-color:#9C7B53"/>
		<stop  offset="1" style="stop-color:#C4AA6E"/>
	</linearGradient>
	<path class="st100" d="M445.8,243.5l-37.7,165.4c-0.8,3.5-4.2,6-8.2,6h-108c-5.3,0-9.3-4.3-8.2-9l37.7-165.4c0.8-3.5,4.2-6,8.2-6
		h108C442.9,234.4,446.9,238.9,445.8,243.5z"/>
	<polygon class="st89" points="403.4,234.4 361.7,414.9 385.9,414.9 427.6,234.4 	"/>
	<path class="st90" d="M360,359.9l-8.5,35.6c-0.9,3.9-4.8,6.6-9.1,6.6h-15.4c-5.9,0-10.3-4.9-9.1-10.1l8.5-35.6
		c0.9-3.9,4.8-6.6,9.1-6.6h15.4C356.8,349.8,361.2,354.7,360,359.9z"/>
	
		<linearGradient id="SVGID_165_" gradientUnits="userSpaceOnUse" x1="798.7774" y1="-5137.8496" x2="798.7774" y2="-4884.4692" gradientTransform="matrix(0 -1 -1 0 -4583.2715 1076.4141)">
		<stop  offset="0" style="stop-color:#E17474"/>
		<stop  offset="1" style="stop-color:#F2D25F"/>
	</linearGradient>
	<polygon class="st101" points="364.8,245.3 349.9,309.9 344.2,309.9 359.2,245.3 	"/>
	
		<linearGradient id="SVGID_166_" gradientUnits="userSpaceOnUse" x1="798.7774" y1="-5163.2466" x2="798.7774" y2="-4909.8652" gradientTransform="matrix(0 -1 -1 0 -4583.2715 1076.4141)">
		<stop  offset="0" style="stop-color:#E17474"/>
		<stop  offset="1" style="stop-color:#F2D25F"/>
	</linearGradient>
	<polygon class="st102" points="355.2,245.3 340.2,309.9 334.6,309.9 349.5,245.3 	"/>
	<g>
		<path class="st93" d="M483.6,405.9l-37.7-165.4c-0.8-3.5-4.2-6-8.2-6h-108c-5.3,0-9.3,4.3-8.2,9l37.7,165.4c0.8,3.5,4.2,6,8.2,6
			h108C480.7,414.9,484.7,410.6,483.6,405.9z"/>
		<g>
			<path class="st90" d="M410.1,258.2l10.3,43.4c1.2,4.9,6,8.4,11.6,8.4l0,0c7.5,0,13.2-6.2,11.6-12.8l-10.3-43.4
				c-1.2-4.9-6-8.4-11.6-8.4l0,0C414.2,245.3,408.5,251.5,410.1,258.2z"/>
			<path class="st90" d="M384.7,375.9l5.6,22.8c0.4,1.8-1.1,3.5-3.1,3.5h-17.1c-1.5,0-2.8-1-3.1-2.3l-5.6-22.8
				c-0.4-1.8,1.1-3.5,3.1-3.5h17.1C383,373.6,384.3,374.5,384.7,375.9z"/>
			<polygon class="st90" points="411.1,345.2 428.3,402.2 423.5,402.2 406.3,345.2 			"/>
			<polygon class="st90" points="421.6,345.2 438.8,402.2 434,402.2 416.8,345.2 			"/>
		</g>
	</g>
	
		<linearGradient id="SVGID_167_" gradientUnits="userSpaceOnUse" x1="565.8049" y1="-5002.6851" x2="628.2918" y2="-4825.9634" gradientTransform="matrix(0 -1 -1 0 -4583.2715 1076.4141)">
		<stop  offset="0" style="stop-color:#9C7B53"/>
		<stop  offset="1" style="stop-color:#C4AA6E"/>
	</linearGradient>
	<path class="st103" d="M485.3,424l-37.7,165.4c-0.8,3.5-4.2,6-8.2,6h-108c-5.3,0-9.3-4.3-8.2-9L360.8,421c0.8-3.5,4.2-6,8.2-6h108
		C482.4,414.9,486.4,419.4,485.3,424z"/>
	<polygon class="st89" points="442.9,414.9 401.1,595.5 425.3,595.5 467.1,414.9 	"/>
	<path class="st90" d="M399.4,540.4l-8.5,35.6c-0.9,3.9-4.8,6.6-9.1,6.6h-15.5c-5.9,0-10.3-4.9-9.1-10.1l8.5-35.6
		c0.9-3.9,4.8-6.6,9.1-6.6h15.4C396.2,530.3,400.7,535.2,399.4,540.4z"/>
	
		<linearGradient id="SVGID_168_" gradientUnits="userSpaceOnUse" x1="618.2692" y1="-5177.269" x2="618.2692" y2="-4923.8818" gradientTransform="matrix(0 -1 -1 0 -4583.2715 1076.4141)">
		<stop  offset="0" style="stop-color:#E17474"/>
		<stop  offset="1" style="stop-color:#F2D25F"/>
	</linearGradient>
	<polygon class="st104" points="404.2,425.8 389.3,490.4 383.6,490.4 398.5,425.8 	"/>
	
		<linearGradient id="SVGID_169_" gradientUnits="userSpaceOnUse" x1="618.2692" y1="-5202.666" x2="618.2692" y2="-4949.2793" gradientTransform="matrix(0 -1 -1 0 -4583.2715 1076.4141)">
		<stop  offset="0" style="stop-color:#E17474"/>
		<stop  offset="1" style="stop-color:#F2D25F"/>
	</linearGradient>
	<polygon class="st105" points="394.6,425.8 379.7,490.4 374,490.4 389,425.8 	"/>
	<g>
		<path class="st93" d="M523,586.4L485.3,421c-0.8-3.5-4.2-6-8.2-6H369c-5.3,0-9.3,4.3-8.2,9l37.7,165.4c0.8,3.5,4.2,6,8.2,6h108
			C520.1,595.5,524,591.1,523,586.4z"/>
		<g>
			<path class="st90" d="M449.6,438.7l10.3,43.4c1.2,4.9,6,8.4,11.6,8.4l0,0c7.5,0,13.2-6.2,11.6-12.8l-10.3-43.4
				c-1.2-4.9-6-8.4-11.6-8.4l0,0C453.6,425.8,448,432,449.6,438.7z"/>
			<path class="st90" d="M424.1,556.4l5.6,22.8c0.4,1.8-1.1,3.5-3.1,3.5h-17.1c-1.5,0-2.8-1-3.1-2.3l-5.6-22.8
				c-0.4-1.8,1.1-3.5,3.1-3.5H421C422.5,554.2,423.7,555.1,424.1,556.4z"/>
			<polygon class="st90" points="450.5,525.7 467.7,582.7 462.9,582.7 445.7,525.7 			"/>
			<polygon class="st90" points="461,525.7 478.2,582.7 473.4,582.7 456.2,525.7 			"/>
		</g>
	</g>
	<g>
		
			<linearGradient id="SVGID_170_" gradientUnits="userSpaceOnUse" x1="562.7811" y1="28.4759" x2="723.8458" y2="28.4759" gradientTransform="matrix(1 0 0 -1 0 630)">
			<stop  offset="0" style="stop-color:#E59148"/>
			<stop  offset="1" style="stop-color:#F1CC52"/>
		</linearGradient>
		<rect x="562.8" y="591.7" class="st106" width="161.1" height="19.6"/>
		
			<linearGradient id="SVGID_171_" gradientUnits="userSpaceOnUse" x1="568.6418" y1="48.0574" x2="729.7064" y2="48.0574" gradientTransform="matrix(1 0 0 -1 0 630)">
			<stop  offset="0" style="stop-color:#DB843A"/>
			<stop  offset="1" style="stop-color:#E4C04C"/>
		</linearGradient>
		<rect x="568.6" y="572.2" class="st107" width="161.1" height="19.6"/>
		
			<linearGradient id="SVGID_172_" gradientUnits="userSpaceOnUse" x1="565.4012" y1="67.6389" x2="726.4659" y2="67.6389" gradientTransform="matrix(1 0 0 -1 0 630)">
			<stop  offset="0" style="stop-color:#E59148"/>
			<stop  offset="1" style="stop-color:#F1CC52"/>
		</linearGradient>
		<rect x="565.4" y="552.6" class="st108" width="161.1" height="19.6"/>
		
			<linearGradient id="SVGID_173_" gradientUnits="userSpaceOnUse" x1="568.6418" y1="87.1514" x2="729.7064" y2="87.1514" gradientTransform="matrix(1 0 0 -1 0 630)">
			<stop  offset="0" style="stop-color:#DB843A"/>
			<stop  offset="1" style="stop-color:#E4C04C"/>
		</linearGradient>
		<rect x="568.6" y="533.1" class="st109" width="161.1" height="19.6"/>
		
			<linearGradient id="SVGID_174_" gradientUnits="userSpaceOnUse" x1="571.3998" y1="106.7329" x2="732.4644" y2="106.7329" gradientTransform="matrix(1 0 0 -1 0 630)">
			<stop  offset="0" style="stop-color:#E59148"/>
			<stop  offset="1" style="stop-color:#F1CC52"/>
		</linearGradient>
		<rect x="571.4" y="513.5" class="st110" width="161.1" height="19.6"/>
		
			<linearGradient id="SVGID_175_" gradientUnits="userSpaceOnUse" x1="575.5367" y1="9.7908" x2="736.6013" y2="9.7908" gradientTransform="matrix(1 0 0 -1 0 630)">
			<stop  offset="0" style="stop-color:#DB843A"/>
			<stop  offset="1" style="stop-color:#E4C04C"/>
		</linearGradient>
		<rect x="575.5" y="610.4" class="st111" width="161.1" height="19.6"/>
	</g>
	<g>
		
			<linearGradient id="SVGID_176_" gradientUnits="userSpaceOnUse" x1="749.3569" y1="10.2734" x2="910.4214" y2="10.2734" gradientTransform="matrix(1 0 0 -1 0 630)">
			<stop  offset="0" style="stop-color:#DB843A"/>
			<stop  offset="1" style="stop-color:#E4C04C"/>
		</linearGradient>
		<rect x="749.4" y="609.9" class="st112" width="161.1" height="19.6"/>
		
			<linearGradient id="SVGID_177_" gradientUnits="userSpaceOnUse" x1="745.7715" y1="29.7859" x2="906.8362" y2="29.7859" gradientTransform="matrix(1 0 0 -1 0 630)">
			<stop  offset="0" style="stop-color:#E59148"/>
			<stop  offset="1" style="stop-color:#F1CC52"/>
		</linearGradient>
		<rect x="745.8" y="590.4" class="st113" width="161.1" height="19.6"/>
		
			<linearGradient id="SVGID_178_" gradientUnits="userSpaceOnUse" x1="752.3217" y1="49.3674" x2="913.3863" y2="49.3674" gradientTransform="matrix(1 0 0 -1 0 630)">
			<stop  offset="0" style="stop-color:#DB843A"/>
			<stop  offset="1" style="stop-color:#E4C04C"/>
		</linearGradient>
		<rect x="752.3" y="570.8" class="st114" width="161.1" height="19.6"/>
		
			<linearGradient id="SVGID_179_" gradientUnits="userSpaceOnUse" x1="1493.6792" y1="1580.7972" x2="1655.3982" y2="1580.7972" gradientTransform="matrix(0.9754 0.2204 0.2204 -0.9754 -1036.5962 1756.7614)">
			<stop  offset="0" style="stop-color:#E59148"/>
			<stop  offset="1" style="stop-color:#F1CC52"/>
		</linearGradient>
		<polygon class="st115" points="927.9,573.6 766.9,569.7 767.4,550.2 928.3,554 		"/>
	</g>
</g>
</svg>
