<?xml version="1.0" encoding="utf-8"?>
<!-- Generator: Adobe Illustrator 21.0.0, SVG Export Plug-In . SVG Version: 6.00 Build 0)  -->
<svg version="1.1" id="Layer_1" xmlns="http://www.w3.org/2000/svg" xmlns:xlink="http://www.w3.org/1999/xlink" x="0px" y="0px"
	 viewBox="0 0 1200 630" style="enable-background:new 0 0 1200 630;" xml:space="preserve">
<style type="text/css">
	.st0{fill:#D2AC67;}
	.st1{fill:#F2F2F2;}
	.st2{fill:#EAEAEA;}
	.st3{fill:#AF8C54;}
	.st4{fill:#C9A769;}
	.st5{fill:#DDBB85;}
	.st6{fill:#A7D162;}
	.st7{fill:#A63F22;}
	.st8{fill:#BE522D;}
	.st9{fill:#D16035;}
	.st10{fill:#D3D3D3;}
	.st11{fill:#FFFFFF;}
	.st12{fill:#B59259;}
	.st13{fill:#D6B580;}
	.st14{fill:#6C91CA;}
	.st15{fill:#A7AAAC;}
	.st16{fill:#727272;}
	.st17{fill:#C4C5C6;}
	.st18{fill:#383838;}
	.st19{fill:#96733B;}
	.st20{fill:#725428;}
	.st21{fill:#C6A06A;}
	.st22{fill:#D1D1D1;}
</style>
<g id="bg">
</g>
<rect y="426.8" class="st0" width="1200" height="203.2"/>
<rect class="st1" width="1200" height="422"/>
<g>
	<polygon class="st2" points="598.1,280.2 627.2,263.5 598.1,246.6 569,263.5 569,263.5 539.9,280.2 569,297.1 569,297.1 
		598.1,313.7 627.2,297.1 	"/>
	<polygon class="st3" points="598.1,238.4 598.1,115.3 627.2,98.6 627.2,221.5 	"/>
	<polygon class="st4" points="598.1,115.3 569,98.6 569,221.5 598.1,238.4 	"/>
	<polygon class="st5" points="627.2,98.6 598.1,81.7 569,98.6 598.1,115.3 	"/>
	<g>
		<polygon class="st6" points="627.2,243.9 598.1,227.2 598.1,238.4 627.2,255.1 		"/>
	</g>
	<polygon class="st7" points="569,255.1 569,165.8 598.1,148.9 598.1,238.4 	"/>
	<polygon class="st8" points="569,165.8 539.9,148.9 539.9,238.4 569,255.1 	"/>
	<polygon class="st9" points="598.1,148.9 569,132.2 539.9,148.9 569,165.8 	"/>
	<polygon class="st4" points="569,255.1 569,165.8 598.1,148.9 598.1,238.4 	"/>
	<polygon class="st3" points="569,165.8 539.9,148.9 539.9,238.4 569,255.1 	"/>
	<polygon class="st5" points="598.1,148.9 569,132.2 539.9,148.9 569,165.8 	"/>
	<polygon class="st3" points="598.1,272 598.1,221.5 627.2,204.8 627.2,255.1 	"/>
	<polygon class="st4" points="598.1,221.5 569,204.8 569,255.1 598.1,272 	"/>
	<polygon class="st5" points="627.2,204.8 598.1,188.2 569,204.8 598.1,221.5 	"/>
	<g>
		
			<rect x="966.2" y="364" transform="matrix(0.9687 -0.2482 0.2482 0.9687 -60.3669 252.3947)" class="st10" width="9.2" height="3.2"/>
		
			<rect x="961.9" y="368.4" transform="matrix(0.9687 -0.2483 0.2483 0.9687 -61.6054 251.5704)" class="st10" width="9.2" height="3.2"/>
		
			<rect x="957.4" y="372.8" transform="matrix(0.9687 -0.2483 0.2483 0.9687 -62.8348 250.5869)" class="st10" width="9.2" height="3.2"/>
		
			<rect x="952.7" y="377" transform="matrix(0.9687 -0.2482 0.2482 0.9687 -64.0138 249.4481)" class="st10" width="9.2" height="3.2"/>
	</g>
	<path class="st2" d="M720.2,585.3L500.6,458.5c-6.2-3.5-5.5-9.9,1.7-13.9l149.5-86.3c7.2-4.2,17.9-4.5,24.1-1l219.6,126.8
		c6.2,3.5,5.5,9.9-1.7,13.9l-149.5,86.3C737.4,588.3,726.5,588.8,720.2,585.3z"/>
	<path class="st4" d="M903.8,234.7L680.7,105.8c-3-1.7-5.5-2-7.7-1l0,0l-0.2,0.2l0,0l-7.2,3.5l8,4c0,0.2,0,0.2,0,0.5v183.3
		c0,9.2,5.7,19.9,12.7,23.9l217.1,125.3l1.2,10.2l8-3.7c2.7-1.5,4.2-5,4.2-9.9V258.8C916.5,249.3,910.8,238.6,903.8,234.7z"/>
	<path class="st4" d="M903.8,234.7L680.7,105.8c-3-1.7-5.5-2-7.7-1l0,0l-0.2,0.2l0,0l-7.2,3.5l8,4c0,0.2,0,0.2,0,0.5v120.9
		L775,314.2l137.8-69.4C910.5,240.4,907.3,236.6,903.8,234.7z"/>
	<path class="st4" d="M907.5,237.6l-21.9,9.2l16.4,12.7l13.7-6C914.7,247.6,911.5,241.6,907.5,237.6z"/>
	<path class="st10" d="M896.6,454.8L673.5,325.9c-7-4-12.7-14.7-12.7-23.9V118.8c0-9.2,5.7-13.4,12.7-9.2l223.1,128.8
		c7,4,12.7,14.7,12.7,23.9v183.3C909.3,454.5,903.5,458.7,896.6,454.8z"/>
	<path class="st11" d="M889.1,441.1L680.7,321c-6.5-3.7-11.7-13.4-11.7-21.9V131.4c0-8.5,5.2-12.2,11.7-8.5L889.1,243
		c6.5,3.7,11.7,13.4,11.7,21.9v167.6C900.8,440.8,895.6,444.8,889.1,441.1z"/>
	<path class="st11" d="M889.1,441.1L680.7,321c-6.5-3.7-11.7-13.4-11.7-21.9V131.4c0-8.5,5.2-12.2,11.7-8.5L889.1,243
		c6.5,3.7,11.7,13.4,11.7,21.9v167.6C900.8,440.8,895.6,444.8,889.1,441.1z"/>
	<path class="st12" d="M899.8,460.2l-30.1-4L676,344.3c-6.2-3.5-17.2-3.2-24.1,1l-137.3,79.3l-18.2-2.5v10.2l0,0
		c0,2.5,1.2,4.7,4.2,6.5l219.6,126.8c6.2,3.5,17.2,3.2,24.1-1l149.5-86.3c4-2.2,6-5.2,6-8.2l0,0L899.8,460.2L899.8,460.2z"/>
	<path class="st12" d="M754.3,389.6l-13.7-8H589.4l-74.6,43l-18.2-2.5v10.2l0,0c0,2.5,1.2,4.7,4.2,6.5l219.6,126.8
		c3.2,2,8,2.7,12.4,2.2L754.3,389.6z"/>
	<path class="st12" d="M504.6,423.4l-8-1v10.2l0,0c0,2.5,1.2,4.7,4.2,6.5l4,2.2v-17.9L504.6,423.4L504.6,423.4z"/>
	<path class="st12" d="M722.5,566.7c6,2.2,14.4,1.7,20.6-1.2v-22.9h-20.6V566.7z"/>
	<path class="st10" d="M720.2,555.5L500.6,428.6c-6.2-3.5-5.5-9.9,1.7-13.9l149.5-86.3c7.2-4.2,17.9-4.5,24.1-1l219.6,126.8
		c6.2,3.5,5.5,9.9-1.7,13.9l-149.5,86.3C737.4,558.7,726.5,559,720.2,555.5z"/>
	<path class="st11" d="M894.1,464.5l-149.5,86.3c-7.2,4.2-17.9,4.5-24.1,1L500.9,424.9c-2-1.2-3.2-2.7-4-4.2c-1,3,0.2,6,4,8
		l219.6,126.8c6.2,3.5,17.2,3.2,24.1-1l149.5-86.3c4.7-2.7,6.7-6.5,5.7-9.7C898.8,460.5,897.1,462.7,894.1,464.5z"/>
	<g>
		<path class="st12" d="M594.2,386.9l-9.9-5.7c-0.7-0.5-0.7-1.2,0.2-1.7l11.7-6.7c1-0.5,2.2-0.5,3.2-0.2l9.9,5.7
			c0.7,0.5,0.7,1.2-0.2,1.7l-11.9,6.7C596.4,387.1,594.9,387.1,594.2,386.9z"/>
		<path class="st12" d="M609.6,395.6l-9.9-5.7c-0.7-0.5-0.7-1.2,0.2-1.7l11.7-6.7c1-0.5,2.2-0.5,3.2-0.2l9.9,5.7
			c0.7,0.5,0.7,1.2-0.2,1.7l-11.7,6.7C611.6,396.1,610.3,396.1,609.6,395.6z"/>
		<path class="st12" d="M624.7,404.5l-9.9-5.7c-0.7-0.5-0.7-1.2,0.2-1.7l11.7-6.7c1-0.5,2.2-0.5,3.2-0.2l9.9,5.7
			c0.7,0.5,0.7,1.2-0.2,1.7l-11.7,6.7C627,404.8,625.5,405,624.7,404.5z"/>
		<path class="st12" d="M645.9,397.1l-9.9-5.7c-0.7-0.5-0.7-1.2,0.2-1.7l9.9-5.7c1-0.5,2.2-0.5,3.2-0.2l9.9,5.7
			c0.7,0.5,0.7,1.2-0.2,1.7l-9.9,5.7C648.1,397.6,646.9,397.6,645.9,397.1z"/>
		<path class="st12" d="M661.3,406l-9.9-5.7c-0.7-0.5-0.7-1.2,0.2-1.7l9.9-5.7c1-0.5,2.2-0.5,3.2-0.2l9.9,5.7
			c0.7,0.5,0.7,1.2-0.2,1.7l-9.9,5.7C663.5,406.5,662.1,406.5,661.3,406z"/>
		<path class="st12" d="M676.7,415l-9.9-5.7c-0.7-0.5-0.7-1.2,0.2-1.7l9.9-5.7c1-0.5,2.2-0.5,3.2-0.2l9.9,5.7
			c0.7,0.5,0.7,1.2-0.2,1.7l-9.9,5.7C679,415.2,677.5,415.5,676.7,415z"/>
		<path class="st12" d="M692.1,423.7l-9.9-5.7c-0.7-0.5-0.7-1.2,0.2-1.7l9.9-5.7c1-0.5,2.2-0.5,3.2-0.2l9.9,5.7
			c0.7,0.5,0.7,1.2-0.2,1.7l-9.9,5.7C694.1,424.2,692.9,424.2,692.1,423.7z"/>
		<path class="st12" d="M707.3,432.6l-9.9-5.7c-0.7-0.5-0.7-1.2,0.2-1.7l9.9-5.7c1-0.5,2.2-0.5,3.2-0.2l9.9,5.7
			c0.7,0.5,0.7,1.2-0.2,1.7l-9.9,5.7C709.6,433.1,708.1,433.1,707.3,432.6z"/>
		<path class="st12" d="M722.7,441.6l-9.9-5.7c-0.7-0.5-0.7-1.2,0.2-1.7l9.9-5.7c1-0.5,2.2-0.5,3.2-0.2l9.9,5.7
			c0.7,0.5,0.7,1.2-0.2,1.7l-9.9,5.7C725,441.8,723.5,441.8,722.7,441.6z"/>
		<path class="st12" d="M738.2,450.3l-9.9-5.7c-0.7-0.5-0.7-1.2,0.2-1.7l9.9-5.7c1-0.5,2.2-0.5,3.2-0.2l9.9,5.7
			c0.7,0.5,0.7,1.2-0.2,1.7l-9.9,5.7C740.1,450.8,738.9,450.8,738.2,450.3z"/>
		<path class="st12" d="M753.3,459.2l-9.9-5.7c-0.7-0.5-0.7-1.2,0.2-1.7l9.9-5.7c1-0.5,2.2-0.5,3.2-0.2l9.9,5.7
			c0.7,0.5,0.7,1.2-0.2,1.7l-9.9,5.7C755.6,459.5,754.1,459.7,753.3,459.2z"/>
		<path class="st12" d="M768.7,467.9l-9.9-5.7c-0.7-0.5-0.7-1.2,0.2-1.7l9.9-5.7c1-0.5,2.2-0.5,3.2-0.2l9.9,5.7
			c0.7,0.5,0.7,1.2-0.2,1.7l-9.9,5.7C771,468.4,769.5,468.4,768.7,467.9z"/>
		<path class="st12" d="M784.2,476.9l-9.9-5.7c-0.7-0.5-0.7-1.2,0.2-1.7l9.9-5.7c1-0.5,2.2-0.5,3.2-0.2l9.9,5.7
			c0.7,0.5,0.7,1.2-0.2,1.7l-9.9,5.7C786.2,477.4,784.9,477.4,784.2,476.9z"/>
		<path class="st12" d="M668.5,393.1l-9.9-5.7c-0.7-0.5-0.7-1.2,0.2-1.7l9.9-5.7c1-0.5,2.2-0.5,3.2-0.2l9.9,5.7
			c0.7,0.5,0.7,1.2-0.2,1.7l-9.9,5.7C670.8,393.3,669.5,393.3,668.5,393.1z"/>
		<path class="st12" d="M653.1,383.9l-9.9-5.7c-0.7-0.5-0.7-1.2,0.2-1.7l9.9-5.7c1-0.5,2.2-0.5,3.2-0.2l9.9,5.7
			c0.7,0.5,0.7,1.2-0.2,1.7l-9.9,5.7C655.3,384.4,653.8,384.4,653.1,383.9z"/>
		<path class="st12" d="M637.4,374.9L616,362.5c-0.7-0.5-0.7-1.2,0.2-1.7l9.9-5.7c1-0.5,2.2-0.5,3.2-0.2l21.4,12.4
			c0.7,0.5,0.7,1.2-0.2,1.7l-9.9,5.7C639.7,375.4,638.2,375.4,637.4,374.9z"/>
		<path class="st12" d="M648.4,364L631,354c-0.7-0.5-0.7-1.2,0.2-1.7l9.9-5.7c1-0.5,2.2-0.5,3.2-0.2l17.4,9.9
			c0.7,0.5,0.7,1.2-0.2,1.7l-9.9,5.7C650.6,364.5,649.1,364.5,648.4,364z"/>
		<path class="st12" d="M683.9,401.8l-9.9-5.7c-0.7-0.5-0.7-1.2,0.2-1.7l9.9-5.7c1-0.5,2.2-0.5,3.2-0.2l9.9,5.7
			c0.7,0.5,0.7,1.2-0.2,1.7l-9.9,5.7C686.2,402.3,684.7,402.3,683.9,401.8z"/>
		<path class="st12" d="M699.4,410.7l-9.9-5.7c-0.7-0.5-0.7-1.2,0.2-1.7l9.9-5.7c1-0.5,2.2-0.5,3.2-0.2l9.9,5.7
			c0.7,0.5,0.7,1.2-0.2,1.7l-9.9,5.7C701.6,411,700.1,411.2,699.4,410.7z"/>
		<path class="st12" d="M714.5,419.4l-9.9-5.7c-0.7-0.5-0.7-1.2,0.2-1.7l9.9-5.7c1-0.5,2.2-0.5,3.2-0.2l9.9,5.7
			c0.7,0.5,0.7,1.2-0.2,1.7l-9.9,5.7C716.8,419.9,715.5,419.9,714.5,419.4z"/>
		<path class="st12" d="M729.9,428.4l-9.9-5.7c-0.7-0.5-0.7-1.2,0.2-1.7l9.9-5.7c1-0.5,2.2-0.5,3.2-0.2l9.9,5.7
			c0.7,0.5,0.7,1.2-0.2,1.7l-9.9,5.7C732.2,428.9,730.7,428.9,729.9,428.4z"/>
		<path class="st12" d="M745.4,437.4l-9.9-5.7c-0.7-0.5-0.7-1.2,0.2-1.7l9.9-5.7c1-0.5,2.2-0.5,3.2-0.2l9.9,5.7
			c0.7,0.5,0.7,1.2-0.2,1.7l-9.9,5.7C747.6,437.6,746.1,437.6,745.4,437.4z"/>
		<path class="st12" d="M760.5,446.1l-9.9-5.7c-0.7-0.5-0.7-1.2,0.2-1.7l9.9-5.7c1-0.5,2.2-0.5,3.2-0.2l9.9,5.7
			c0.7,0.5,0.7,1.2-0.2,1.7l-9.9,5.7C762.8,446.6,761.5,446.6,760.5,446.1z"/>
		<path class="st12" d="M776,455l-9.9-5.7c-0.7-0.5-0.7-1.2,0.2-1.7l9.9-5.7c1-0.5,2.2-0.5,3.2-0.2l9.9,5.7c0.7,0.5,0.7,1.2-0.2,1.7
			l-9.9,5.7C778.2,455.3,776.7,455.5,776,455z"/>
		<path class="st12" d="M791.4,463.7l-9.9-5.7c-0.7-0.5-0.7-1.2,0.2-1.7l9.9-5.7c1-0.5,2.2-0.5,3.2-0.2l9.9,5.7
			c0.7,0.5,0.7,1.2-0.2,1.7l-9.9,5.7C793.6,464.2,792.1,464.2,791.4,463.7z"/>
		<path class="st12" d="M806.5,472.7l-9.9-5.7c-0.7-0.5-0.7-1.2,0.2-1.7l9.9-5.7c1-0.5,2.2-0.5,3.2-0.2l9.9,5.7
			c0.7,0.5,0.7,1.2-0.2,1.7l-9.9,5.7C808.8,473.2,807.5,473.2,806.5,472.7z"/>
		<path class="st12" d="M833.9,488.3l-21.6-12.4c-0.7-0.5-0.7-1.2,0.2-1.7l9.9-5.7c1-0.5,2.2-0.5,3.2-0.2l21.6,12.4
			c0.7,0.5,0.7,1.2-0.2,1.7l-9.9,5.7C836.1,488.8,834.7,488.8,833.9,488.3z"/>
		<path class="st12" d="M863.7,471.2l-18.4-10.4c-0.7-0.5-0.7-1.2,0.2-1.7l9.9-5.7c1-0.5,2.2-0.5,3.2-0.2l18.4,10.4
			c0.7,0.5,0.7,1.2-0.2,1.7l-9.9,5.7C866,471.7,864.5,471.7,863.7,471.2z"/>
		<path class="st12" d="M710.8,400l-9.9-5.7c-0.7-0.5-0.7-1.2,0.2-1.7l9.9-5.7c1-0.5,2.2-0.5,3.2-0.2l9.9,5.7
			c0.7,0.5,0.7,1.2-0.2,1.7l-9.9,5.7C713,400.5,711.5,400.5,710.8,400z"/>
		<path class="st12" d="M695.1,391.1l-9.9-5.7c-0.7-0.5-0.7-1.2,0.2-1.7l9.9-5.7c1-0.5,2.2-0.5,3.2-0.2l9.9,5.7
			c0.7,0.5,0.7,1.2-0.2,1.7l-9.9,5.7C697.4,391.3,695.9,391.6,695.1,391.1z"/>
		<path class="st12" d="M679.5,381.9l-9.9-5.7c-0.7-0.5-0.7-1.2,0.2-1.7l9.9-5.7c1-0.5,2.2-0.5,3.2-0.2l9.9,5.7
			c0.7,0.5,0.7,1.2-0.2,1.7l-9.9,5.7C681.5,382.4,680.2,382.4,679.5,381.9z"/>
		<path class="st12" d="M663.5,372.9l-9.9-5.7c-0.7-0.5-0.7-1.2,0.2-1.7l9.9-5.7c1-0.5,2.2-0.5,3.2-0.2l9.9,5.7
			c0.7,0.5,0.7,1.2-0.2,1.7l-9.9,5.7C665.8,373.2,664.5,373.4,663.5,372.9z"/>
		<path class="st12" d="M726.2,409l-9.9-5.7c-0.7-0.5-0.7-1.2,0.2-1.7l9.9-5.7c1-0.5,2.2-0.5,3.2-0.2l9.9,5.7
			c0.7,0.5,0.7,1.2-0.2,1.7l-9.9,5.7C728.5,409.2,727,409.5,726.2,409z"/>
		<path class="st12" d="M741.4,417.7l-9.9-5.7c-0.7-0.5-0.7-1.2,0.2-1.7l9.9-5.7c1-0.5,2.2-0.5,3.2-0.2l9.9,5.7
			c0.7,0.5,0.7,1.2-0.2,1.7l-9.9,5.7C743.6,418.2,742.4,418.2,741.4,417.7z"/>
		<path class="st12" d="M756.8,426.7l-9.9-5.7c-0.7-0.5-0.7-1.2,0.2-1.7l9.9-5.7c1-0.5,2.2-0.5,3.2-0.2l9.9,5.7
			c0.7,0.5,0.7,1.2-0.2,1.7l-9.9,5.7C759,427.2,757.6,427.2,756.8,426.7z"/>
		<path class="st12" d="M772.2,435.6l-9.9-5.7c-0.7-0.5-0.7-1.2,0.2-1.7l9.9-5.7c1-0.5,2.2-0.5,3.2-0.2l9.9,5.7
			c0.7,0.5,0.7,1.2-0.2,1.7l-9.9,5.7C774.5,435.9,773,436.1,772.2,435.6z"/>
		<path class="st12" d="M787.4,444.3l-9.9-5.7c-0.7-0.5-0.7-1.2,0.2-1.7l9.9-5.7c1-0.5,2.2-0.5,3.2-0.2l9.9,5.7
			c0.7,0.5,0.7,1.2-0.2,1.7l-9.9,5.7C789.6,444.8,788.4,444.8,787.4,444.3z"/>
		<path class="st12" d="M802.8,453.3l-9.9-5.7c-0.7-0.5-0.7-1.2,0.2-1.7l9.9-5.7c1-0.5,2.2-0.5,3.2-0.2l9.9,5.7
			c0.7,0.5,0.7,1.2-0.2,1.7l-9.9,5.7C805.1,453.8,803.6,453.8,802.8,453.3z"/>
		<path class="st12" d="M818.2,462.2l-9.9-5.7c-0.7-0.5-0.7-1.2,0.2-1.7l9.9-5.7c1-0.5,2.2-0.5,3.2-0.2l9.9,5.7
			c0.7,0.5,0.7,1.2-0.2,1.7l-9.9,5.7C820.5,462.5,819,462.5,818.2,462.2z"/>
		<path class="st12" d="M833.4,470.9l-9.9-5.7c-0.7-0.5-0.7-1.2,0.2-1.7l9.9-5.7c1-0.5,2.2-0.5,3.2-0.2l9.9,5.7
			c0.7,0.5,0.7,1.2-0.2,1.7l-9.9,5.7C835.6,471.4,834.4,471.4,833.4,470.9z"/>
		<path class="st12" d="M848.8,479.9l-9.9-5.7c-0.7-0.5-0.7-1.2,0.2-1.7l9.9-5.7c1-0.5,2.2-0.5,3.2-0.2l9.9,5.7
			c0.7,0.5,0.7,1.2-0.2,1.7l-9.9,5.7C851.1,480.1,849.6,480.4,848.8,479.9z"/>
		<path class="st12" d="M702.8,378.2l-9.9-5.7c-0.7-0.5-0.7-1.2,0.2-1.7l9.9-5.7c1-0.5,2.2-0.5,3.2-0.2l9.9,5.7
			c0.7,0.5,0.7,1.2-0.2,1.7L706,378C704.8,378.7,703.6,378.7,702.8,378.2z"/>
		<path class="st12" d="M687.4,369.5l-9.9-5.7c-0.7-0.5-0.7-1.2,0.2-1.7l9.9-5.7c1-0.5,2.2-0.5,3.2-0.2l9.9,5.7
			c0.7,0.5,0.7,1.2-0.2,1.7l-9.9,5.7C689.7,369.7,688.2,370,687.4,369.5z"/>
		<path class="st12" d="M672.2,360.5l-9.9-5.7c-0.7-0.5-0.7-1.2,0.2-1.7l9.9-5.7c1-0.5,2.2-0.5,3.2-0.2l9.9,5.7
			c0.7,0.5,0.7,1.2-0.2,1.7l-9.9,5.7C674.5,361,673,361,672.2,360.5z"/>
		<path class="st12" d="M656.8,351.8l-9.9-5.7c-0.7-0.5-0.7-1.2,0.2-1.7l9.9-5.7c1-0.5,2.2-0.5,3.2-0.2l9.9,5.7
			c0.7,0.5,0.7,1.2-0.2,1.7l-9.9,5.7C659.1,352,657.8,352.3,656.8,351.8z"/>
		<path class="st12" d="M672.7,342.6l-9.9-5.7c-0.7-0.5-0.7-1.2,0.2-1.7l3.2-2c1-0.5,2.2-0.5,3.2-0.2l9.9,5.7
			c0.7,0.5,0.7,1.2-0.2,1.7l-3.2,2C674.7,343.1,673.5,343.1,672.7,342.6z"/>
		<path class="st12" d="M692.6,354.3l-9.9-5.7c-0.7-0.5-0.7-1.2,0.2-1.7l3.2-2c1-0.5,2.2-0.5,3.2-0.2l9.9,5.7
			c0.7,0.5,0.7,1.2-0.2,1.7l-3.2,2C694.6,354.5,693.4,354.8,692.6,354.3z"/>
		<path class="st12" d="M707.8,363l-9.9-5.7c-0.7-0.5-0.7-1.2,0.2-1.7l3.2-2c1-0.5,2.2-0.5,3.2-0.2l9.9,5.7c0.7,0.5,0.7,1.2-0.2,1.7
			l-3.2,2C710.1,363.5,708.6,363.5,707.8,363z"/>
		<path class="st12" d="M723,371.7l-10-5.7c-0.7-0.5-0.7-1.2,0.2-1.7l3.2-2c1-0.5,2.2-0.5,3.2-0.2l9.9,5.7c0.7,0.5,0.7,1.2-0.2,1.7
			l-3.2,2C725.2,372.2,723.7,372.2,723,371.7z"/>
		<path class="st12" d="M738.2,380.6l-9.9-5.7c-0.7-0.5-0.7-1.2,0.2-1.7l3.2-2c1-0.5,2.2-0.5,3.2-0.2l9.9,5.7
			c0.7,0.5,0.7,1.2-0.2,1.7l-3.2,2C740.4,380.9,738.9,380.9,738.2,380.6z"/>
		<path class="st12" d="M823,429.6l-9.9-5.7c-0.7-0.5-0.7-1.2,0.2-1.7l3.2-2c1-0.5,2.2-0.5,3.2-0.2l9.9,5.7c0.7,0.5,0.7,1.2-0.2,1.7
			l-3.2,2C825.2,429.9,823.7,429.9,823,429.6z"/>
		<path class="st12" d="M838.1,438.3l-9.9-5.7c-0.7-0.5-0.7-1.2,0.2-1.7l3.2-2c1-0.5,2.2-0.5,3.2-0.2l9.9,5.7
			c0.7,0.5,0.7,1.2-0.2,1.7l-3.2,2C840.4,438.6,839.1,438.8,838.1,438.3z"/>
		<path class="st12" d="M853.3,447.1l-9.9-5.7c-0.7-0.5-0.7-1.2,0.2-1.7l3.2-2c1-0.5,2.2-0.5,3.2-0.2l9.9,5.7
			c0.7,0.5,0.7,1.2-0.2,1.7l-3.2,2C855.5,447.5,854.3,447.5,853.3,447.1z"/>
		<path class="st12" d="M868.7,455.8l-9.9-5.7c-0.7-0.5-0.7-1.2,0.2-1.7l3.2-2c1-0.5,2.2-0.5,3.2-0.2l9.9,5.7
			c0.7,0.5,0.7,1.2-0.2,1.7l-3.2,2C870.7,456.3,869.5,456.3,868.7,455.8z"/>
		<path class="st12" d="M718,387.1l-9.9-5.7c-0.7-0.5-0.7-1.2,0.2-1.7l9.9-5.7c1-0.5,2.2-0.5,3.2-0.2l9.9,5.7
			c0.7,0.5,0.7,1.2-0.2,1.7l-9.9,5.7C720.2,387.4,718.8,387.6,718,387.1z"/>
		<path class="st12" d="M733.4,395.8l-9.9-5.7c-0.7-0.5-0.7-1.2,0.2-1.7l9.9-5.7c1-0.5,2.2-0.5,3.2-0.2l9.9,5.7
			c0.7,0.5,0.7,1.2-0.2,1.7l-9.9,5.7C735.7,396.3,734.2,396.3,733.4,395.8z"/>
		<path class="st12" d="M748.8,404.8l-9.9-5.7c-0.7-0.5-0.7-1.2,0.2-1.7l9.9-5.7c1-0.5,2.2-0.5,3.2-0.2l9.9,5.7
			c0.7,0.5,0.7,1.2-0.2,1.7l-9.9,5.7C750.8,405.3,749.6,405.3,748.8,404.8z"/>
		<path class="st12" d="M764,413.7l-9.9-5.7c-0.7-0.5-0.7-1.2,0.2-1.7l9.9-5.7c1-0.5,2.2-0.5,3.2-0.2l9.9,5.7
			c0.7,0.5,0.7,1.2-0.2,1.7l-9.9,5.7C766.3,414,764.8,414,764,413.7z"/>
		<path class="st12" d="M779.4,422.4l-9.9-5.7c-0.7-0.5-0.7-1.2,0.2-1.7l9.9-5.7c1-0.5,2.2-0.5,3.2-0.2l9.9,5.7
			c0.7,0.5,0.7,1.2-0.2,1.7l-9.9,5.7C781.7,422.9,780.2,422.9,779.4,422.4z"/>
		<path class="st12" d="M794.9,431.4l-9.9-5.7c-0.7-0.5-0.7-1.2,0.2-1.7l9.9-5.7c1-0.5,2.2-0.5,3.2-0.2l9.9,5.7
			c0.7,0.5,0.7,1.2-0.2,1.7l-9.9,5.7C796.8,431.6,795.6,431.9,794.9,431.4z"/>
		<path class="st12" d="M810,440.1l-9.9-5.7c-0.7-0.5-0.7-1.2,0.2-1.7l9.9-5.7c1-0.5,2.2-0.5,3.2-0.2l9.9,5.7
			c0.7,0.5,0.7,1.2-0.2,1.7l-9.9,5.7C812.3,440.6,811,440.6,810,440.1z"/>
		<path class="st12" d="M825.4,449l-9.9-5.7c-0.7-0.5-0.7-1.2,0.2-1.7l9.9-5.7c1-0.5,2.2-0.5,3.2-0.2l9.9,5.7
			c0.7,0.5,0.7,1.2-0.2,1.7l-9.9,5.7C827.7,449.5,826.2,449.5,825.4,449z"/>
		<path class="st12" d="M840.9,458l-9.9-5.7c-0.7-0.5-0.7-1.2,0.2-1.7l9.9-5.7c1-0.5,2.2-0.5,3.2-0.2l9.9,5.7
			c0.7,0.5,0.7,1.2-0.2,1.7l-9.9,5.7C842.9,458.2,841.6,458.2,840.9,458z"/>
		<path class="st12" d="M630.5,388.1l-29.3-16.9c-0.7-0.5-0.7-1.2,0.2-1.7l9.9-5.7c1-0.5,2.2-0.5,3.2-0.2l29.3,16.9
			c0.7,0.5,0.7,1.2-0.2,1.7l-9.9,5.7C632.5,388.6,631.2,388.6,630.5,388.1z"/>
		<path class="st12" d="M818.7,497l-29.3-16.9c-0.7-0.5-0.7-1.2,0.2-1.7l9.9-5.7c1-0.5,2.2-0.5,3.2-0.2l29.3,16.9
			c0.7,0.5,0.7,1.2-0.2,1.7l-9.9,5.7C821,497.3,819.7,497.3,818.7,497z"/>
		<path class="st12" d="M757.6,481.1l-9.9-5.7c-0.7-0.5-0.7-1.2,0.2-1.7l11.7-6.7c1-0.5,2.2-0.5,3.2-0.2l9.9,5.7
			c0.7,0.5,0.7,1.2-0.2,1.7l-11.7,6.7C759.8,481.6,758.3,481.6,757.6,481.1z"/>
		<path class="st12" d="M646.1,416.7l-15.9-9.2c-0.7-0.5-0.7-1.2,0.2-1.7l11.7-6.7c1-0.5,2.2-0.5,3.2-0.2l15.9,9.2
			c0.7,0.5,0.7,1.2-0.2,1.7l-11.7,6.7C648.4,417.2,646.9,417.2,646.1,416.7z"/>
		<path class="st12" d="M742.6,472.7l-15.9-9.2c-0.7-0.5-0.7-1.2,0.2-1.7l11.7-6.7c1-0.5,2.2-0.5,3.2-0.2l15.9,9.2
			c0.7,0.5,0.7,1.2-0.2,1.7l-11.7,6.7C744.9,472.9,743.4,472.9,742.6,472.7z"/>
		<path class="st12" d="M668.3,429.6l-15.9-9.2c-0.7-0.5-0.7-1.2,0.2-1.7l11.7-6.7c1-0.5,2.2-0.5,3.2-0.2l15.9,9.2
			c0.7,0.5,0.7,1.2-0.2,1.7l-11.7,6.7C670.5,429.9,669,430.1,668.3,429.6z"/>
		<path class="st12" d="M667.5,411.7l69.1,39.8c0.7,0.5,0.7,1.2,0,1.7l-11.9,7c-0.7,0.5-2.2,0.5-3,0l-69.1-39.8L667.5,411.7z"/>
		<path class="st12" d="M800.3,497l10.9,6.5c0.7,0.5,0.5,1-0.2,1.5l-4.7,2.7c-0.7,0.5-2,0.5-2.5,0l-10.9-6.5c-0.7-0.5-0.5-1,0.2-1.5
			l4.7-2.7C798.6,496.8,799.6,496.8,800.3,497z"/>
		<path class="st12" d="M784.9,488.3l10.9,6.5c0.7,0.5,0.5,1-0.2,1.5l-4.7,2.7c-0.7,0.5-2,0.5-2.5,0l-10.9-6.5
			c-0.7-0.5-0.5-1,0.2-1.5l4.7-2.7C783.2,487.8,784.2,487.8,784.9,488.3z"/>
		<path class="st12" d="M769.5,479.4l10.9,6.5c0.7,0.5,0.5,1-0.2,1.5l-4.7,2.7c-0.7,0.5-2,0.5-2.5,0l-10.9-6.5
			c-0.7-0.5-0.5-1,0.2-1.5l4.7-2.7C767.8,479.1,769,478.9,769.5,479.4z"/>
		<path class="st12" d="M793.4,483.4l10.9,6.5c0.7,0.5,0.5,1-0.2,1.5l-4.7,2.7c-0.7,0.5-2,0.5-2.5,0l-10.9-6.5
			c-0.7-0.5-0.5-1,0.2-1.5l4.7-2.7C791.6,483.1,792.6,482.9,793.4,483.4z"/>
	</g>
	<g>
		<g>
			<path class="st10" d="M809.8,265.2l-9.5-5.5c-1-0.5-1.5-2-1.7-3l0,0c0-1.2,0.7-1.7,1.5-1.2l9.5,5.5c1,0.5,1.5,2,1.7,3l0,0
				C811.5,265.2,810.8,265.7,809.8,265.2z"/>
			<path class="st10" d="M832.4,278.4l-13.9-8.2c-1-0.5-1.5-2-1.7-3l0,0c0-1.2,0.7-1.7,1.5-1.2l13.9,8.2c1,0.5,1.5,2,1.7,3l0,0
				C833.9,278.2,833.4,278.9,832.4,278.4z"/>
			<path class="st10" d="M805.1,316l-9.5-5.5c-1-0.5-1.5-2-1.7-3l0,0c0-1.2,0.7-1.7,1.5-1.2l9.5,5.5c1,0.5,1.5,2,1.7,3l0,0
				C806.8,316,806.1,316.5,805.1,316z"/>
			<path class="st10" d="M825.2,327.7l-13.9-8.2c-1-0.5-1.5-2-1.7-3l0,0c0-1.2,0.7-1.7,1.5-1.2l13.9,8.2c1,0.5,1.5,2,1.7,3l0,0
				C826.9,327.4,826.2,328.2,825.2,327.7z"/>
			<path class="st10" d="M783.7,259l-6-3.5c-1-0.5-1.5-2-1.7-3l0,0c0-1.2,0.7-1.7,1.5-1.2l6,3.5c1,0.5,1.5,2,1.7,3l0,0
				C785.4,259,784.7,259.5,783.7,259z"/>
			<path class="st10" d="M804.1,279.7l-18.2-10.4c-1-0.5-1.5-2-1.7-3l0,0c0-1.2,0.7-1.7,1.5-1.2l18.2,10.4c1,0.5,1.5,2,1.7,3l0,0
				C805.6,279.7,804.8,280.2,804.1,279.7z"/>
			<path class="st10" d="M792.1,290.6l-6-3.5c-1-0.5-1.5-2-1.7-3l0,0c0-1.2,0.7-1.7,1.5-1.2l6,3.5c1,0.5,1.5,2,1.7,3l0,0
				C793.6,290.6,793.1,291.1,792.1,290.6z"/>
			<path class="st10" d="M832.2,349.3l-15.9-9.2c-1-0.5-1.5-2-1.7-3l0,0c0-1.2,0.7-1.7,1.5-1.2l15.9,9.2c1,0.5,1.5,2,1.7,3l0,0
				C833.9,349.3,833.2,349.8,832.2,349.3z"/>
			<path class="st10" d="M790.4,307.3l-3.7-2.2c-1-0.5-1.5-2-1.7-3l0,0c0-1.2,0.7-1.7,1.5-1.2l3.7,2.2c1,0.5,1.5,2,1.7,3l0,0
				C791.9,307.3,791.1,307.8,790.4,307.3z"/>
			<path class="st10" d="M791.6,325.9l-4.7-2.7c-1-0.5-1.5-2-1.7-3l0,0c0-1.2,0.7-1.7,1.5-1.2l4.7,2.7c1,0.5,1.5,2,1.7,3l0,0
				C793.1,325.9,792.4,326.4,791.6,325.9z"/>
			<path class="st10" d="M810,336.4l-12.4-7.2c-1-0.5-1.5-2-1.7-3l0,0c0-1.2,0.7-1.7,1.5-1.2l12.4,7.2c1,0.5,1.5,2,1.7,3l0,0
				C811.5,336.4,810.8,336.9,810,336.4z"/>
			<path class="st10" d="M795.9,337.4l-9-5.2c-1-0.5-1.5-2-1.7-3l0,0c0-1.2,0.7-1.7,1.5-1.2l9,5.2c1,0.5,1.5,2,1.7,3l0,0
				C797.3,337.1,796.8,337.9,795.9,337.4z"/>
			<path class="st10" d="M845.8,357.3l-5.7-3.2c-1-0.5-1.5-2-1.7-3l0,0c0-1.2,0.7-1.7,1.5-1.2l5.7,3.2c1,0.5,1.5,2,1.7,3l0,0
				C847.6,357.3,846.8,357.8,845.8,357.3z"/>
			<path class="st10" d="M814.3,303.3l-15.9-9.2c-1-0.5-1.5-2-1.7-3l0,0c0-1.2,0.7-1.7,1.5-1.2l15.9,9.2c1,0.5,1.5,2,1.7,3l0,0
				C815.7,303.3,815,303.8,814.3,303.3z"/>
			<path class="st10" d="M813.8,294.1l-27.6-15.9c-1-0.5-1.5-2-1.7-3l0,0c0-1.2,0.7-1.7,1.5-1.2l27.6,15.9c1,0.5,1.5,2,1.7,3l0,0
				C815.3,294.1,814.5,294.6,813.8,294.1z"/>
			<path class="st10" d="M802.1,305.3l-15.9-9.2c-1-0.5-1.5-2-1.7-3l0,0c0-1.2,0.7-1.7,1.5-1.2l15.9,9.2c1,0.5,1.5,2,1.7,3l0,0
				C803.8,305.3,803.1,305.8,802.1,305.3z"/>
			<path class="st10" d="M826.2,310.3l-5.7-3.2c-1-0.5-1.5-2-1.7-3l0,0c0-1.2,0.7-1.7,1.5-1.2l5.7,3.2c1,0.5,1.5,2,1.7,3l0,0
				C827.7,310.3,827.2,310.8,826.2,310.3z"/>
			<path class="st10" d="M875.2,303.1l-34.1-19.6c-1-0.5-1.5-2-1.7-3l0,0c0-1.2,0.7-1.7,1.5-1.2l34.1,19.6c1,0.5,1.5,2,1.7,3l0,0
				C876.7,303.1,875.9,303.5,875.2,303.1z"/>
			<path class="st10" d="M805.8,325.2l-19.2-10.9c-1-0.5-1.5-2-1.7-3l0,0c0-1.2,0.7-1.7,1.5-1.2l19.2,10.9c1,0.5,1.5,2,1.7,3l0,0
				C807.3,325.2,806.5,325.7,805.8,325.2z"/>
			<path class="st10" d="M791.6,254.8l-13.9-8.2c-1-0.5-1.5-2-1.7-3l0,0c0-1.2,0.7-1.7,1.5-1.2l13.9,8.2c1,0.5,1.5,2,1.7,3l0,0
				C793.4,254.8,792.6,255.3,791.6,254.8z"/>
			<path class="st10" d="M795.4,345.8l-16.2-9.5c-1-0.5-1.5-2-1.7-3l0,0c0-1.2,0.7-1.7,1.5-1.2l16.2,9.5c1,0.5,1.5,2,1.7,3l0,0
				C796.8,345.8,796.4,346.3,795.4,345.8z"/>
		</g>
	</g>
	<g>
		<path class="st12" d="M380.5,360l83.6-48.7c16.7-9.5,32.1-11.2,44-4.2c11.7,6.7,18.4,21.1,18.4,40.3v6.2c-0.5,0.5-1.2,0.7-1.7,1.2
			v-7.2c0-18.4-6.2-32.1-17.4-38.5s-26.1-5-42,4.2L381.8,362c-0.5,0.2-1,0-1.2-0.2C380,360.8,380,360.3,380.5,360z"/>
		<path class="st12" d="M641.2,302.1V113.8c0-37.8,26.6-83.8,59.2-102.5c15.9-9.2,31.1-10.7,42.5-4.2s17.7,20.4,17.7,38.8v13.2
			c-0.5,0.5-1.2,1.2-1.7,1.7V45.9c0-17.7-6-31.1-16.7-37.3s-25.1-4.7-40.5,4.2c-32.1,18.7-58.2,63.9-58.2,101v188.3
			c0,31.3-18.4,68.1-43.3,90.5c0-0.7,0-1.7,0-2.5C623.5,368,641.2,332.4,641.2,302.1z"/>
		<path class="st12" d="M760.5,64.8L760.5,64.8c3-3,17.2-15.4,37.8-18.4c23.4-3.5,33.1,23.6,33.1,23.6s2.7,14.2,2.5,22.6
			c0,8.5-0.7,38.8-0.7,38.8l-73.9-42.5l0,0c-0.2-0.2-0.5-0.5-0.5-0.7V66.5C759.3,65.8,759.8,65.3,760.5,64.8z"/>
	</g>
	<path class="st10" d="M812.8,47.4L742.9,7.1l0.2,1c-10.7-7-27.1-7.7-49,8.2c-43.3,31.8-48.5,76.1-50.7,84.3
		c-2.2,8.2-1.2,60.9-1.2,60.9S642,288.3,642,303c-0.2,14.7-4.5,31.3-12.7,49.2c-8.2,17.9-29.6,39.5-29.6,39.5v25.9
		c3.5,27.9,15.2,34.3,32.8,36.1c14.2,1.2,29.3-9,41.5-20.1c-0.5,0.5-0.7,0.7-0.7,0.7v25.9c3.5,27.9,15.2,34.3,32.8,36.1
		c17.7,1.5,36.8-14.7,49.7-28.4c12.9-13.7,23.9-34.6,29.8-53.5c6-18.9,4-43.3,4-43.3s0.2-138.5,0.2-165.9c0.2-27.4,1-22.6,9.9-50
		c9-27.4,32.8-46.8,32.8-46.8l57-16.9L812.8,47.4z"/>
	<path class="st4" d="M690.9,493.6c-1-1.2-13.4-9.7-16.7-24.4c-1.7-8.2-1.5-20.6-1.5-20.6s0-7,0.2-13.2c0.2,0,0.2-0.2,0.5-0.2
		c0-0.7,0-1.7,0-2.5l-0.2,0.2c0-1.5,0-2.7,0.2-4c0.2-6.5-4.5-20.6-4.5-20.6s-7-18.7-27.4-19.4c-18.2-0.7-37.3,12.4-41.3,15.4v-8.5
		c-0.2,0.2-0.5,0.2-0.7,0.5c0-1.2,0-2.2,0-3.5c0.2,0,0.2-0.2,0.5-0.2c0-0.7,0-1.7,0-2.5l-0.2,0.2c0-1.5,0-2.7,0.2-4
		c0.2-6.5-4.5-20.6-4.5-20.6s-7-18.7-27.4-19.4c-18.2-0.7-37.3,12.4-41.3,15.4v-8.5c-0.5,0.5-1.2,0.7-1.7,1.2v14.7
		c0,17.9,6,31.3,16.9,38.1l0,0l0.5,0.2l0.2,0.2h0.2l75.1,43.3l0,0L690.9,493.6z"/>
	<g>
		<path class="st10" d="M581.7,349.3c0,0-0.5-0.2-1.5-0.7c-0.2-0.2-0.5-0.2-1-0.5l-71.1-41c0,0-13.2-7-28.8-1
			c-15.9,5.7-98.7,55.5-98.7,55.5l74.1,42.8l0,0h0.2l73.4,42.3c0,0,41.5-25.9,70.4-42.3l1.7-1c11.7-6.7,21.1-11.7,24.1-12.7
			c17.7-4.7,30.1,1,33.3,2.7L581.7,349.3z"/>
		<path class="st10" d="M657.6,393.3l0.7,0.5C658.6,393.8,658.1,393.6,657.6,393.3z"/>
	</g>
	<path class="st12" d="M834.2,107.1L834.2,107.1c3-3,17.2-15.4,37.8-18.4c23.4-3.5,33.1,23.6,33.1,23.6s2.7,14.2,2.5,22.6
		c0,8.5-0.7,38.8-0.7,38.8L833,131.2l0,0c-0.2-0.2-0.5-0.5-0.5-0.7v-21.6C832.9,108.1,833.4,107.8,834.2,107.1z"/>
	<g>
		<path class="st13" d="M705.3,496.8c8.2,0,17.2-2.7,26.6-8.2c32.3-18.7,58.7-64.4,58.7-101.7V198.6c0-37.1,26.1-82.3,58.2-101
			c15.4-9,29.8-10.4,40.5-4.2c10.7,6.2,16.7,19.4,16.7,37.3v42c0,0.5,0.5,1,1,1s1-0.5,1-1v-41.8c0-18.4-6.2-32.3-17.7-38.8
			c-11.4-6.5-26.4-5.2-42.5,4.2c-32.6,18.7-59.2,64.7-59.2,102.2v188.3c0,36.8-25.9,81.8-57.9,100.2c-15.2,8.7-29.6,10.2-40.3,4
			s-16.7-19.4-16.7-37.1v-22.1c0-19.2-6.5-33.3-18.4-40.3c-11.7-6.7-27.4-5.2-44,4.2l-83.6,48.7c-0.5,0.2-0.5,0.7-0.2,1.2
			c0.2,0.5,0.7,0.5,1.2,0.2l83.6-48.7c15.9-9.2,30.8-10.7,42-4.2s17.4,20.1,17.4,38.5v22.1c0,18.4,6.2,32.1,17.7,38.5
			C694.4,495.5,699.6,496.8,705.3,496.8z"/>
	</g>
	<path class="st14" d="M711,244.9l-12.4-7.2c-1.2-0.7-2-2.5-2.2-4l0,0c0-1.5,1-2.2,2-1.5l12.4,7.2c1.2,0.7,2,2.5,2.2,4l0,0
		C713,244.9,712.3,245.6,711,244.9z"/>
	<path class="st14" d="M737.4,260l-18.2-10.4c-1.2-0.7-2-2.5-2.2-4l0,0c0-1.5,1-2.2,2-1.5l18.2,10.4c1.2,0.7,2,2.5,2.2,4l0,0
		C739.4,260,738.4,260.5,737.4,260z"/>
	<path class="st14" d="M709.8,197.9l-23.6-13.7c-1.2-0.7-2-2.5-2.2-4l0,0c0-1.5,1-2.2,2-1.5l23.6,13.7c1.2,0.7,2,2.5,2.2,4l0,0
		C711.8,197.6,710.8,198.3,709.8,197.9z"/>
	<path class="st14" d="M694.1,212l-7.7-4.5c-1.2-0.7-2-2.5-2.2-4l0,0c0-1.5,1-2.2,2-1.5l7.7,4.5c1.2,0.7,2,2.5,2.2,4l0,0
		C696.4,211.8,695.4,212.5,694.1,212z"/>
	<path class="st14" d="M691.9,233.7l-5-2.7c-1.2-0.7-2-2.5-2.2-4l0,0c0-1.5,1-2.2,2-1.5l5,2.7c1.2,0.7,2,2.5,2.2,4l0,0
		C693.9,233.7,692.9,234.4,691.9,233.7z"/>
	<path class="st14" d="M723,228.4l-20.6-11.9c-1.2-0.7-2-2.5-2.2-4l0,0c0-1.5,1-2.2,2-1.5l20.6,11.9c1.2,0.7,2,2.5,2.2,4l0,0
		C725,228.4,724,229.2,723,228.4z"/>
	<path class="st14" d="M722.2,216.5l-35.8-20.6c-1.2-0.7-2-2.5-2.2-4l0,0c0-1.5,1-2.2,2-1.5L722,211c1.2,0.7,2,2.5,2.2,4l0,0
		C724.2,216.5,723.5,217.2,722.2,216.5z"/>
	<path class="st14" d="M707.3,231.2l-20.6-11.9c-1.2-0.7-2-2.5-2.2-4l0,0c0-1.5,1-2.2,2-1.5l20.6,11.9c1.2,0.7,2,2.5,2.2,4l0,0
		C709.3,230.9,708.3,231.7,707.3,231.2z"/>
	<path class="st14" d="M738.7,237.6l-7.5-4.2c-1.2-0.7-2-2.5-2.2-4l0,0c0-1.5,1-2.2,2-1.5l7.5,4.2c1.2,0.7,2,2.5,2.2,4l0,0
		C740.6,237.4,739.6,238.1,738.7,237.6z"/>
	<g>
		<g>
			<path class="st15" d="M717.3,178.9l-12.4-7.2c-1.2-0.7-2-2.5-2.2-4l0,0c0-1.5,1-2.2,2-1.5l12.4,7.2c1.2,0.7,2,2.5,2.2,4l0,0
				C719.3,178.9,718.3,179.7,717.3,178.9z"/>
			<path class="st15" d="M746.6,195.9l-18.2-10.4c-1.2-0.7-2-2.5-2.2-4l0,0c0-1.5,1-2.2,2-1.5l18.2,10.4c1.2,0.7,2,2.5,2.2,4l0,0
				C748.6,195.9,747.9,196.6,746.6,195.9z"/>
			<path class="st15" d="M711,244.9l-12.4-7.2c-1.2-0.7-2-2.5-2.2-4l0,0c0-1.5,1-2.2,2-1.5l12.4,7.2c1.2,0.7,2,2.5,2.2,4l0,0
				C713,244.9,712.3,245.6,711,244.9z"/>
			<path class="st15" d="M737.4,260l-18.2-10.4c-1.2-0.7-2-2.5-2.2-4l0,0c0-1.5,1-2.2,2-1.5l18.2,10.4c1.2,0.7,2,2.5,2.2,4l0,0
				C739.4,260,738.4,260.5,737.4,260z"/>
			<path class="st15" d="M683.4,171l-7.7-4.5c-1.2-0.7-2-2.5-2.2-4l0,0c0-1.5,1-2.2,2-1.5l7.7,4.5c1.2,0.7,2,2.5,2.2,4l0,0
				C685.4,171,684.4,171.7,683.4,171z"/>
			<path class="st15" d="M709.8,197.9l-23.6-13.7c-1.2-0.7-2-2.5-2.2-4l0,0c0-1.5,1-2.2,2-1.5l23.6,13.7c1.2,0.7,2,2.5,2.2,4l0,0
				C711.8,197.6,710.8,198.3,709.8,197.9z"/>
			<path class="st15" d="M694.1,212l-7.7-4.5c-1.2-0.7-2-2.5-2.2-4l0,0c0-1.5,1-2.2,2-1.5l7.7,4.5c1.2,0.7,2,2.5,2.2,4l0,0
				C696.4,211.8,695.4,212.5,694.1,212z"/>
			<path class="st15" d="M746.4,288.4l-20.6-11.9c-1.2-0.7-2-2.5-2.2-4l0,0c0-1.5,1-2.2,2-1.5l20.6,11.9c1.2,0.7,2,2.5,2.2,4l0,0
				C748.6,288.4,747.6,289.1,746.4,288.4z"/>
			<path class="st15" d="M691.9,233.7l-5-2.7c-1.2-0.7-2-2.5-2.2-4l0,0c0-1.5,1-2.2,2-1.5l5,2.7c1.2,0.7,2,2.5,2.2,4l0,0
				C693.9,233.7,692.9,234.4,691.9,233.7z"/>
			<path class="st15" d="M693.4,257.8l-6.2-3.5c-1.2-0.7-2-2.5-2.2-4l0,0c0-1.5,1-2.2,2-1.5l6.2,3.5c1.2,0.7,2,2.5,2.2,4l0,0
				C695.4,257.8,694.6,258.3,693.4,257.8z"/>
			<path class="st15" d="M717.3,271.5l-16.2-9.5c-1.2-0.7-2-2.5-2.2-4l0,0c0-1.5,1-2.2,2-1.5L717,266c1.2,0.7,2,2.5,2.2,4l0,0
				C719.5,271.5,718.5,272.2,717.3,271.5z"/>
			<path class="st15" d="M699.1,272.7l-11.7-6.7c-1.2-0.7-2-2.5-2.2-4l0,0c0-1.5,1-2.2,2-1.5l11.7,6.7c1.2,0.7,2,2.5,2.2,4l0,0
				C701.1,272.5,700.4,273.2,699.1,272.7z"/>
			<path class="st15" d="M723,228.4l-20.6-11.9c-1.2-0.7-2-2.5-2.2-4l0,0c0-1.5,1-2.2,2-1.5l20.6,11.9c1.2,0.7,2,2.5,2.2,4l0,0
				C725,228.4,724,229.2,723,228.4z"/>
			<path class="st15" d="M722.2,216.5l-35.8-20.6c-1.2-0.7-2-2.5-2.2-4l0,0c0-1.5,1-2.2,2-1.5L722,211c1.2,0.7,2,2.5,2.2,4l0,0
				C724.2,216.5,723.5,217.2,722.2,216.5z"/>
			<path class="st15" d="M707.3,231.2l-20.6-11.9c-1.2-0.7-2-2.5-2.2-4l0,0c0-1.5,1-2.2,2-1.5l20.6,11.9c1.2,0.7,2,2.5,2.2,4l0,0
				C709.3,230.9,708.3,231.7,707.3,231.2z"/>
			<path class="st15" d="M738.7,237.6l-7.5-4.2c-1.2-0.7-2-2.5-2.2-4l0,0c0-1.5,1-2.2,2-1.5l7.5,4.2c1.2,0.7,2,2.5,2.2,4l0,0
				C740.6,237.4,739.6,238.1,738.7,237.6z"/>
			<path class="st15" d="M711.8,256.8l-24.9-14.4c-1.2-0.7-2-2.5-2.2-4l0,0c0-1.5,1-2.2,2-1.5l24.9,14.4c1.2,0.7,2,2.5,2.2,4l0,0
				C713.8,256.8,713,257.5,711.8,256.8z"/>
			<path class="st15" d="M693.6,165.3l-18.2-10.4c-1.2-0.7-2-2.5-2.2-4l0,0c0-1.5,1-2.2,2-1.5l18.2,10.4c1.2,0.7,2,2.5,2.2,4l0,0
				C695.6,165.3,694.9,166,693.6,165.3z"/>
			<path class="st15" d="M698.4,283.9l-21.1-12.2c-1.2-0.7-2-2.5-2.2-4l0,0c0-1.5,1-2.2,2-1.5l21.1,12.2c1.2,0.7,2,2.5,2.2,4l0,0
				C700.4,283.7,699.6,284.4,698.4,283.9z"/>
		</g>
		<g>
			<path class="st15" d="M708.1,355.5l-12.4-7.2c-1.2-0.7-2-2.5-2.2-4l0,0c0-1.5,1-2.2,2-1.5l12.4,7.2c1.2,0.7,2,2.5,2.2,4l0,0
				C710.3,355.5,709.3,356.3,708.1,355.5z"/>
			<path class="st15" d="M734.4,370.7l-18.2-10.4c-1.2-0.7-2-2.5-2.2-4l0,0c0-1.5,1-2.2,2-1.5l18.2,10.4c1.2,0.7,2,2.5,2.2,4l0,0
				C736.4,370.7,735.7,371.4,734.4,370.7z"/>
			<path class="st15" d="M706.8,308.5l-23.6-13.7c-1.2-0.7-2-2.5-2.2-4l0,0c0-1.5,1-2.2,2-1.5l23.6,13.7c1.2,0.7,2,2.5,2.2,4l0,0
				C708.8,308.5,707.8,309.3,706.8,308.5z"/>
			<path class="st15" d="M691.4,322.7l-7.7-4.5c-1.2-0.7-2-2.5-2.2-4l0,0c0-1.5,1-2.2,2-1.5l7.7,4.5c1.2,0.7,2,2.5,2.2,4l0,0
				C693.4,322.7,692.4,323.4,691.4,322.7z"/>
			<path class="st15" d="M688.9,344.6l-5-2.7c-1.2-0.7-2-2.5-2.2-4l0,0c0-1.5,1-2.2,2-1.5l5,2.7c1.2,0.7,2,2.5,2.2,4l0,0
				C690.9,344.6,690.2,345.1,688.9,344.6z"/>
			<path class="st15" d="M720,339.4l-20.6-11.9c-1.2-0.7-2-2.5-2.2-4l0,0c0-1.5,1-2.2,2-1.5l20.6,11.9c1.2,0.7,2,2.5,2.2,4l0,0
				C722,339.4,721.2,340.1,720,339.4z"/>
			<path class="st15" d="M719.3,327.4l-35.8-20.6c-1.2-0.7-2-2.5-2.2-4l0,0c0-1.5,1-2.2,2-1.5L719,322c1.2,0.7,2,2.5,2.2,4l0,0
				C721.5,327.4,720.5,327.9,719.3,327.4z"/>
			<path class="st15" d="M704.3,341.8l-20.6-11.9c-1.2-0.7-2-2.5-2.2-4l0,0c0-1.5,1-2.2,2-1.5l20.6,11.9c1.2,0.7,2,2.5,2.2,4l0,0
				C706.3,341.8,705.6,342.6,704.3,341.8z"/>
			<path class="st15" d="M735.7,348.3l-7.5-4.2c-1.2-0.7-2-2.5-2.2-4l0,0c0-1.5,1-2.2,2-1.5l7.5,4.2c1.2,0.7,2,2.5,2.2,4l0,0
				C737.7,348.3,736.7,349.1,735.7,348.3z"/>
		</g>
	</g>
	<polygon class="st2" points="798.6,613.7 821.5,600.3 844.4,613.7 821.5,626.9 	"/>
	<polygon class="st2" points="847.1,585.1 870,571.9 892.8,585.1 870,598.3 	"/>
	<polygon class="st2" points="895.6,557.5 918.5,544.3 941.3,557.5 918.5,570.7 	"/>
	<g>
		<polygon class="st3" points="870,585.1 870,514.7 847.1,501.5 847.1,571.9 		"/>
		<polygon class="st3" points="870,514.7 892.8,501.5 892.8,571.9 870,585.1 		"/>
		<polygon class="st3" points="870,585.1 870,514.7 847.1,501.5 847.1,571.9 		"/>
	</g>
	<g>
		<polygon class="st3" points="821.5,613.7 821.5,573.9 798.6,560.7 798.6,600.3 		"/>
		<polygon class="st3" points="821.5,573.9 844.4,560.7 844.4,600.3 821.5,613.7 		"/>
	</g>
	<polygon class="st5" points="798.6,560.7 821.5,547.5 844.4,560.7 821.5,573.9 	"/>
	<g>
		<polygon class="st3" points="918.5,557.5 918.5,460.5 895.6,447.3 895.6,544.3 		"/>
		<polygon class="st3" points="918.5,460.5 941.3,447.3 941.3,544.3 918.5,557.5 		"/>
	</g>
	<polygon class="st5" points="895.6,447.3 918.5,434.1 941.3,447.3 918.5,460.5 	"/>
	<polygon class="st5" points="847.1,501.5 870,488.3 892.8,501.5 870,514.7 	"/>
	<path class="st16" d="M473,481.4c0,0-7-3.5-11.4,1.7c-4.2,5.2-10.4,17.9-10.7,26.4c-0.2,8.5,6.7,8,10.7,6s16.2-19.4,16.7-22.6
		c0.7-3.5-0.7-8-2-9C475.3,482.9,473,481.4,473,481.4z"/>
	<path class="st17" d="M474.5,479.6l0.2,7.2c0,1.5-0.7,3-2,3.7c-1.2,0.7-3,1.2-5.5,0.7c-5.2-0.7-5.7-2.5-6.2-9.7
		C460.9,474.7,474.5,479.6,474.5,479.6z"/>
	<path class="st16" d="M447.2,467.4c0,0-7-3.5-11.4,1.7c-4.2,5.2-10.4,17.9-10.7,26.4c-0.2,8.5,6.7,8,10.7,6s16.2-19.4,16.7-22.6
		c0.7-3.5-0.7-8-2-9C449.4,468.7,447.2,467.4,447.2,467.4z"/>
	<path class="st17" d="M448.7,465.7l0.2,7.2c0,1.5-0.7,3-2,3.7c-1.2,0.7-3,1.2-5.5,0.7c-5.2-0.7-5.7-2.5-6.2-9.7
		C435,460.7,448.7,465.7,448.7,465.7z"/>
	<path class="st18" d="M511.6,331.4c-2-34.1-36.8,5-36.8,5l-23.9,23.4l-21.4,23.6c-4.2,4.5-6.2,10.7-5.2,16.9l8.7,65.9
		c0.5,3.2,3.2,5.7,6.5,5.7c1,0,2,0,3.2-0.2c7.7-1.2,7.2-8.5,7.2-8.5l-1.5-61.7l45-27.1C493.2,374.2,513.8,365.2,511.6,331.4z"/>
	<path class="st18" d="M537.5,344.3c-2-34.1-36.8,5-36.8,5l-23.9,23.4l-21.4,23.6c-4.2,4.5-6.2,10.7-5.2,16.9l8.7,65.9
		c0.5,3.2,3.2,5.7,6.5,5.7c1,0,2,0,3.2-0.2c7.7-1.2,7.2-8.5,7.2-8.5l-1.5-61.7l45-27.1C519,387.1,539.7,378.2,537.5,344.3z"/>
	<path class="st19" d="M517.1,235.2c26.4,10.9,25.9,26.6,25.9,26.6s-5.2,57.2-3.5,95.3c0.7,15.9-84.6,17.2-71.9-25.4
		c14.9-50.2,9.5-90.8,16.4-96.7C490.9,228.4,510.1,232.2,517.1,235.2z"/>
	
		<ellipse transform="matrix(0.2494 -0.9684 0.9684 0.2494 146.8755 680.474)" class="st5" cx="512.4" cy="245.5" rx="9.9" ry="13.7"/>
	<path class="st11" d="M514.3,257c-1.5,0-3.2-0.2-4.7-0.5c-3.7-1-7-3-9.2-5.7s-3-6-2.2-9c1.5-6,9.2-9.2,17.2-7.2c3.7,1,7,3,9.2,5.7
		s3,6,2.2,9l0,0C525.5,254.1,520.3,257,514.3,257z M510.3,236.4c-5,0-9,2.2-9.9,6c-0.5,2.2,0,4.5,1.7,6.7s4.7,4,8,4.7
		c6.5,1.7,12.9-0.7,14.2-5.5l0,0c0.5-2.2,0-4.5-1.7-6.7s-4.7-4-8-4.7C513.1,236.6,511.6,236.4,510.3,236.4z"/>
	<path class="st5" d="M506.4,233.9c0,0,0.2,1-0.2,9.5c-0.2,2.7,9,5,11.4,2.7c2.5-2.5,1.5-4.7,2-13.7
		C520.3,223.2,506.4,233.9,506.4,233.9z"/>
	<path class="st4" d="M519.5,232.2c0,0-2.2,8.2-13.4,11.4l0.2-7.5L519.5,232.2z"/>
	
		<ellipse transform="matrix(0.9682 -0.2503 0.2503 0.9682 -37.9976 133.8154)" class="st5" cx="507.1" cy="216.3" rx="20.4" ry="20.4"/>
	<path class="st4" d="M511.8,217c0,0-11.2,4.7-18.9,4.7c-7.7,0-6-6.5-6-6.5l22.9-3.2L511.8,217z"/>
	<path class="st18" d="M490.4,218.2c0,0,9.7-4.2,18.2-2.5c2,0.5,4,1.5,5.2,3c0.5,0.5,1,1,1.5,1.2c1.5,0.2,4-6,7-6c3-0.2,5,2,2.5,5.7
		c-2.5,4-1.5,8.2-0.5,8.7s12.9-8.5,2.5-28.8c-10.4-20.6-36.8-9.5-40.8-5.2c0,0-4.2,3.7-7.7,0.5C478.3,194.6,474.3,224.2,490.4,218.2
		z"/>
	<path class="st5" d="M528,303.3v15.4c0,1.7-0.7,3.5-2,4.7l-31.6,28.8l3.5,5.5l41.8-30.3c2-1.5,3.2-3.5,3.5-6l2.7-26.9L528,303.3z"
		/>
	<path class="st19" d="M540.7,253.8c0,0,9.7,14.4,13.2,52.5c0,0-16.4,5.2-25.6,2.2C518.8,305.5,540.7,253.8,540.7,253.8z"/>
	<path class="st20" d="M526.3,272.2c0,0-3.7,20.1-4,29.6c0,2.5,1.5,5,4,5.7l0,0V272.2z"/>
	<path class="st13" d="M518.1,372.2l-7-1l-45.3-26.1c-1.5-0.7-4-0.7-5.7,0.2L428,363.7l-4.2-0.5v4.2l0,0c0,0.5,0.2,1,1,1.5
		l51.2,29.6c1.5,0.7,4,0.7,5.7-0.2l34.8-20.1c1-0.5,1.5-1.2,1.5-2l0,0L518.1,372.2L518.1,372.2z"/>
	<path class="st21" d="M484,355.8l-3.2-1.7h-35.3L428,364l-4.2-0.5v4.2l0,0c0,0.5,0.2,1,1,1.5l51.2,29.6c0.7,0.5,1.7,0.5,3,0.5
		L484,355.8z"/>
	<path class="st14" d="M425.8,363.7l-2-0.2v4.2l0,0c0,0.5,0.2,1,1,1.5l1,0.5V363.7z"/>
	<path class="st11" d="M476.8,399.1c1.5,0.5,3.2,0.5,4.7-0.2v-7.2h-4.7V399.1z"/>
	<path class="st11" d="M476,394.6L424.8,365c-1.5-0.7-1.2-2.2,0.5-3.2l34.8-20.1c1.7-1,4.2-1,5.7-0.2l51.2,29.6
		c1.5,0.7,1.2,2.2-0.5,3.2l-34.8,20.1C480,395.3,477.5,395.3,476,394.6z"/>
	<path class="st22" d="M475.3,390.1l-42.5-24.6c-1.2-0.7-1-2,0.2-2.7l18.7-10.4c1.5-0.7,3.5-1,4.7-0.2l42.5,24.6
		c1.2,0.7,1,2-0.2,2.7L480,389.8C478.5,390.6,476.5,390.6,475.3,390.1z"/>
	<path class="st5" d="M462.1,340.6l-0.5,3.5c-0.5,3-0.5,6,0.2,9l0.7,3.2c0.2,1.7,1.7,3.2,3.5,3.5l0,0c1.5,0.2,2.7-0.7,2.7-2l0.7-7.5
		c0,0,2,2.5,3,2.5s-1-7.5-3.2-11.9C467.3,336.4,462.1,340.6,462.1,340.6z"/>
	<path class="st5" d="M479.5,284.4l-5.5,10.9c-1.2,2.5-2,5.5-2.2,8.2l-2.5,37.3l-7.2-0.2l-3.2-41.8c0-1.2,0-2.5,0.2-4l3.7-21.1
		L479.5,284.4z"/>
	<path class="st19" d="M474.3,397.3l-4.2-5.7l-45.3-26.1c-1.5-0.7-2.7-3-2.7-5v-37.1l-2.5-3.5l2.5-1.5l0,0c0.5-0.2,1-0.2,1.7,0
		L475,348c1.5,0.7,2.7,3,2.7,5v40.3c0,1-0.5,1.7-1,2.2l0,0L474.3,397.3z"/>
	<path class="st12" d="M443.2,376.2l-3.2-1.7l-17.7-30.6v-20.1l-2.5-3.5l2.5-1.5l0,0c0.5-0.2,1-0.2,1.7,0l51.2,29.6
		c0.7,0.5,1.5,1.2,2,2.2L443.2,376.2z"/>
	<path class="st21" d="M420.8,321.7l-1.2-1.5l2.5-1.5l0,0c0.5-0.2,1-0.2,1.7,0l1,0.5L420.8,321.7z"/>
	<path class="st21" d="M475.5,348.8c1.2,1,2,2.7,2.2,4.2l-5,3l-2.5-4.2L475.5,348.8z"/>
	<path class="st13" d="M472.8,349.8l-51.2-29.6c-1.5-0.7-2.7,0-2.7,2v40.3c0,2,1.2,4.2,2.7,5l51.2,29.6c1.5,0.7,2.7,0,2.7-2v-40.3
		C475.3,353,474.3,350.8,472.8,349.8z"/>
	<path class="st5" d="M497.9,357.8l-0.7,1.7c-1,2-2.5,3.5-4.2,4.7l-5,3.2c-1.5,1-3.5,1-5.2,0c0,0,0,0-0.2,0c-1.5-1-1.7-3.2-0.5-4.7
		l5.2-5.5c0,0-3,2.2-3.7,1.2c-0.5-0.7,3-4,5.5-4c2.7,0,5.2-2.2,5.2-2.2L497.9,357.8z"/>
	<path class="st19" d="M484.5,234.4c0,0-19.4,21.1-27.4,40.5c0,0,6.7,11.9,22.9,16.7C496.4,296.6,484.5,234.4,484.5,234.4z"/>
	<path class="st20" d="M476.3,290.6l3.2-30.6l-7.5,28.6C473.5,289.4,474.8,290.1,476.3,290.6z"/>
	<path class="st11" d="M498.9,230.2l-5.2-1.5c0,0,2.5,4,6.2,5s4.2-2,4.2-2L498.9,230.2z"/>
	<circle class="st11" cx="524" cy="221.7" r="3"/>
	<path class="st4" d="M960.2,271.7l-8-16.2l16.2-8l8,16.2L960.2,271.7z M957,257.3l4.7,9.7l9.7-4.7l-4.7-9.7L957,257.3z"/>
	<g>
		
			<rect x="247.7" y="365.1" transform="matrix(0.9687 -0.2482 0.2482 0.9687 -83.3028 74.9627)" class="st10" width="15.9" height="5.5"/>
		
			<rect x="239.8" y="372.8" transform="matrix(0.9687 -0.2483 0.2483 0.9687 -85.4897 73.281)" class="st10" width="15.9" height="5.5"/>
		
			<rect x="231.9" y="380.4" transform="matrix(0.9687 -0.2483 0.2483 0.9687 -87.623 71.5562)" class="st10" width="15.9" height="5.5"/>
		
			<rect x="224" y="388.2" transform="matrix(0.9687 -0.2482 0.2482 0.9687 -89.7774 69.8041)" class="st10" width="15.9" height="5.5"/>
	</g>
	<path class="st4" d="M331.3,429.1l-8-16.2l16.2-8l8,16.2L331.3,429.1z M328,414.7l4.7,9.7l9.7-4.7l-4.7-9.7L328,414.7z"/>
	<path class="st2" d="M585.5,573.1c-19.4-11.2-51.2-11.2-70.6,0c-19.4,11.2-19.4,29.6,0,40.8c19.4,11.2,51.2,11.2,70.6,0
		C605.1,602.7,605.1,584.6,585.5,573.1z M566.3,603c-9,5.2-23.4,5.2-32.6,0c-9-5.2-9-13.7,0-18.7c9-5.2,23.4-5.2,32.6,0
		C575.3,589.6,575.3,597.8,566.3,603z"/>
	<path class="st12" d="M507.6,566.7l17.9,0.2c1.2-1.7,3.2-3.2,5.7-4.7c9.7-5.7,25.1-6,35.8-1.2l10.7-9.9l16.4,0.2
		c-0.7-0.5-1.7-1-2.5-1.5c-22.6-13.2-59.4-13.2-82.1,0c-4.2,2.5-7.5,5-10.2,8L507.6,566.7z"/>
	<polygon class="st4" points="593.7,525.1 593.7,551 577.5,550.8 577.5,524.9 	"/>
	<polygon class="st12" points="566.8,534.8 566.8,560.7 577.5,550.8 577.5,524.9 	"/>
	<path class="st4" d="M525.3,541.1V567l23.4-19.2l18.2,12.9v-25.9l-16.7-8c0,0-22.9,7-24.1,7.2C525,534.6,525.3,541.1,525.3,541.1z"
		/>
	<polygon class="st12" points="507.6,540.8 507.6,566.7 525.3,566.9 525.3,541.1 	"/>
	<polygon class="st4" points="498.9,531.6 498.9,557.5 507.6,566.7 507.6,540.8 	"/>
	<path class="st5" d="M507.6,540.8l17.9,0.2c1.2-1.7,3.2-3.2,5.7-4.7c9.7-5.7,25.1-6,35.8-1.2l10.7-9.9l16.4,0.2
		c-0.7-0.5-1.7-1-2.5-1.5c-22.6-13.2-59.4-13.2-82.1,0c-4.2,2.5-7.5,5-10.2,8L507.6,540.8z"/>
	<path class="st12" d="M572.3,538.1V562l15.4-3.7c0,0-1-13.9-1.2-14.2C585.9,543.5,572.3,538.1,572.3,538.1z"/>
	<path class="st3" d="M560.6,562v25.9l1.7,1.7l10.9-6.2c0,0-1.7-19.6-2-20.1C571,562.7,560.6,562,560.6,562z"/>
	<path class="st12" d="M581.5,555.2l-9.2,8.7c7.7,6.2,7,14.9-2.7,20.4c-2.7,1.5-5.7,2.7-9,3.5l9.7,10.2l-8.5,8
		c10.9-1.2,21.1-4.2,29.6-9.2c19.4-11.2,22.1-28.6,8.2-41.5h-18.1V555.2z"/>
	<polygon class="st12" points="561.6,580.1 561.6,606 582.7,598 608.1,573.6 608.1,546.3 581.2,567.4 	"/>
	<path class="st10" d="M581.5,529.4l-9.2,8.7c7.7,6.2,7,14.9-2.7,20.4c-2.7,1.5-5.7,2.7-9,3.5l9.7,10.2l-8.5,8
		c10.9-1.2,21.1-4.2,29.6-9.2c19.4-11.2,22.1-28.6,8.2-41.5h-18.1V529.4z"/>
	<path class="st12" d="M561.6,598l-8.5-9c-8,0.5-16.2-1-22.1-4.5c-6.2-3.5-8.7-8.5-7.7-13.2l-20.1-0.2l-7.7-8.2
		c-6.7,11.7-2.2,25.1,13.9,34.3c11.9,6.7,27.6,10.2,43,9.7L561.6,598z"/>
	<polygon class="st12" points="552.1,580.9 552.1,606.7 492.2,573.4 492.2,547.5 500.9,551 	"/>
	<polygon class="st3" points="561.6,572.1 561.6,598 552.1,606.7 552.1,580.9 	"/>
	<path class="st5" d="M561.6,572.1l-8.5-9c-8,0.5-16.2-1-22.1-4.5c-6.2-3.5-8.7-8.5-7.7-13.2l-20.1-0.2l-7.7-8.2
		c-6.7,11.7-2.2,25.1,13.9,34.3c11.9,6.7,27.6,10.2,43,9.7L561.6,572.1z"/>
	<path class="st5" d="M427,154.8c-7.2,0-12.9-5.7-12.9-12.9S419.8,129,427,129s12.9,5.7,12.9,12.9S434.2,154.8,427,154.8z
		 M427,132.9c-5,0-9,4-9,9s4,9,9,9s9-4,9-9S432,132.9,427,132.9z"/>
	<path class="st5" d="M276.8,209c-7.2,0-12.9-5.7-12.9-12.9s5.7-12.9,12.9-12.9s12.9,5.7,12.9,12.9C289.7,203.3,284,209,276.8,209z
		 M276.8,187.2c-5,0-9,4-9,9s4,9,9,9s9-4,9-9C285.8,191.1,281.8,187.2,276.8,187.2z"/>
	<circle class="st5" cx="239.8" cy="472.9" r="8.5"/>
	<circle class="st5" cx="322.8" cy="508.2" r="8.5"/>
	<circle class="st5" cx="864.5" cy="21.5" r="11.2"/>
	<circle class="st5" cx="300.9" cy="296.6" r="11.2"/>
	<path class="st12" d="M815,137.4l-53.2-30.8c-1-0.5-2-0.7-2.7-0.2l0,0l-5.2,3c0,0,2.2,0.7,3.7,1.2v38.8c0,3.2,2,6.7,4.2,8.2
		l51,29.3v4.5l5.2-3l0,0c1-0.5,1.5-1.7,1.5-3.5v-39.3C819.5,142.4,817.5,138.7,815,137.4z"/>
	<path class="st4" d="M809.8,191.4l-53.2-30.8c-2.5-1.2-4.2-5-4.2-8.2v-39.5c0-3.2,2-4.7,4.2-3.2l53.2,30.8c2.5,1.2,4.2,5,4.2,8.2
		v39.5C814.3,191.4,812.3,192.6,809.8,191.4z"/>
	<g>
		<path class="st11" d="M774.5,147.1c0,2.2-1.5,3.2-3.5,2s-3.5-4-3.5-6.2s1.5-3.2,3.5-2C773,141.9,774.5,144.6,774.5,147.1z"/>
		<path class="st11" d="M785.4,153.3c0,2.2-1.5,3.2-3.5,2s-3.5-4-3.5-6.2s1.5-3.2,3.5-2C783.9,148.1,785.4,151.1,785.4,153.3z"/>
		<path class="st11" d="M796.4,159.5c0,2.2-1.5,3.2-3.5,2s-3.5-4-3.5-6.2s1.5-3.2,3.5-2C794.6,154.6,796.4,157.3,796.4,159.5z"/>
	</g>
	<path class="st3" d="M556.4,77l-52.2-30.1c-1-0.5-2-0.5-2.7-0.2l0,0l-5,3c0,0,2.2,0.7,3.5,1.2V89c0,3,2,6.7,4.2,8l50,28.6v4.5
		l5.2-3l0,0c0.7-0.5,1.5-1.7,1.5-3.2v-39C560.6,82,558.6,78.2,556.4,77z"/>
	<path class="st5" d="M551.1,130l-52.2-30.1c-2.2-1.2-4.2-5-4.2-8v-39c0-3,2-4.5,4.2-3.2l52.2,30.1c2.2,1.2,4.2,5,4.2,8v38.8
		C555.4,129.7,553.6,131.2,551.1,130z"/>
	<g>
		<path class="st11" d="M516.6,86.4c0,2.2-1.5,3.2-3.5,2s-3.5-3.7-3.5-6.2c0-2.2,1.5-3.2,3.5-2C515.1,81.5,516.6,84.2,516.6,86.4z"
			/>
		<path class="st11" d="M527.3,92.6c0,2.2-1.5,3.2-3.5,2s-3.5-3.7-3.5-6.2c0-2.2,1.5-3.2,3.5-2S527.3,90.4,527.3,92.6z"/>
		<path class="st11" d="M537.9,98.6c0,2.2-1.5,3.2-3.5,2s-3.5-3.7-3.5-6.2c0-2.2,1.5-3.2,3.5-2S537.9,96.4,537.9,98.6z"/>
	</g>
</g>
</svg>
