<?xml version="1.0" encoding="utf-8"?>
<!-- Generator: Adobe Illustrator 21.0.0, SVG Export Plug-In . SVG Version: 6.00 Build 0)  -->
<svg version="1.1" id="Layer_1" xmlns="http://www.w3.org/2000/svg" xmlns:xlink="http://www.w3.org/1999/xlink" x="0px" y="0px"
	 viewBox="0 0 1200 630" style="enable-background:new 0 0 1200 630;" xml:space="preserve">
<style type="text/css">
	.st0{fill:#F2F2F2;}
	.st1{fill:#C4A86A;}
	.st2{fill:#CFE4FF;}
	.st3{fill:#69B78B;}
	.st4{fill:#FFFFFF;}
	.st5{fill:#C4EDB9;}
	.st6{fill:#428E60;}
	.st7{fill:#E29EA6;}
	.st8{opacity:0.32;fill:#E29EA6;enable-background:new    ;}
	.st9{fill:#5E3C69;}
	.st10{fill:#5B89C2;}
	.st11{fill:#CD4B76;}
	.st12{fill:url(#SVGID_1_);}
	.st13{fill:url(#SVGID_2_);}
	.st14{fill:url(#SVGID_3_);}
	.st15{fill:#BD9398;}
	.st16{opacity:0.32;fill:#BD9398;enable-background:new    ;}
	.st17{fill:url(#SVGID_4_);}
	.st18{fill:url(#SVGID_5_);}
	.st19{fill:url(#SVGID_6_);}
	.st20{fill:#C7857C;}
	.st21{fill:#E2BEBE;}
	.st22{opacity:0.32;fill:#E2BEBE;enable-background:new    ;}
	.st23{fill:url(#SVGID_7_);}
	.st24{fill:url(#SVGID_8_);}
	.st25{opacity:0.32;fill:#9E6F74;enable-background:new    ;}
	.st26{fill:#9E6F74;}
	.st27{fill:none;stroke:#FFFFFF;stroke-width:0.8177;stroke-miterlimit:10;}
	.st28{fill:#F9FBFC;}
	.st29{fill:url(#SVGID_9_);}
	.st30{opacity:0.1;fill:#CCCCCC;enable-background:new    ;}
	.st31{fill:url(#SVGID_10_);}
	.st32{fill:url(#SVGID_11_);}
	.st33{fill:url(#SVGID_12_);}
	.st34{fill:url(#SVGID_13_);}
	.st35{fill:url(#SVGID_14_);}
	.st36{fill:url(#SVGID_15_);}
</style>
<g id="bg">
</g>
<rect class="st0" width="1200" height="399.2"/>
<rect y="320" class="st1" width="1200" height="310"/>
<g>
	<path class="st2" d="M299.7,191c-15.8,7-33,15.4-39,30.6c-13,32.9,35.3,63.4,30.2,98.1c-4.3,29.7-42.8,41.9-64.1,64.3
		c-17,17.8-23,44.1-15.4,66.8s28.9,41,53.8,46.5c39.2,8.6,84.6-12.1,118.8,7.7c25.1,14.5,34.7,46.7,61.5,58.3
		c28.8,12.5,61.8-4.7,87.5-22c25.7-17.3,56.3-36.5,86.7-27.9c29.3,8.3,47.9,40.6,78.5,42c30.7,1.4,52-29.1,81.5-37.2
		c30-8.2,60.7,8.2,91.6,12.5c44.8,6.2,92.5-16.3,113.7-53.5c5.6-9.8,9.4-20.4,13.2-30.9c6.2-17.1,12.3-34.1,18.5-51.2
		c8.5-23.6,17.1-47.7,17.5-72.6c0.6-33.3-14.3-66.6-40.1-89.7c-25.8-23.1-62.2-35.7-97.9-33.9c-15.9,0.8-34.5,3.4-45.2-7.7
		c-15.1-15.8,2.3-41.1-3.4-61.6c-4.5-16.2-23.4-26.2-41.4-26.9s-35.4,5.8-51.9,12.5c-16.5,6.7-33.4,13.8-51.5,14.5
		c-29.5,1-56-15.3-83.9-24.3c-27.9-9-65.7-7.3-78.5,17.4c-8.1,15.6-5.3,38.4-22.1,45.9c-16.4,7.3-33.4-8-44.1-21.7
		c-7.8-9.9-20.8-25-35.8-22.3c-10.6,2-24.2,15.5-34.2,20.1C369.7,160.7,334.5,175.5,299.7,191z"/>
	<g>
		<g>
			<path class="st3" d="M168.4,292.7c-15.4-28.1-15.1-68.9-4.1-99c24.9,8.8,50.7,18.1,69.6,36.5c19.8,19.3,31.6,51.1,26.3,78.7
				c-5.8,30.4-41.1,29.7-62.6,14.7C183.4,313.8,176.7,307.9,168.4,292.7z"/>
			<g>
				<path class="st4" d="M235.9,303.2c-3.4-28,0.1-33,1.6-40.4c-5.8,10.1-8.4,22.1-7.5,33.7c-7.1-8.2-14-16.6-20.7-25.2
					c-1.9-19.7,0.8-23.8,1.9-29.6c-4,7.1-6.3,15.3-6.5,23.4c-8.8-11.7-17.1-23.9-24.8-36.3c7.9,19.8,18,38.8,29.9,56.5
					c-8.8-1.6-18.2-0.7-26.5,2.5c6-0.2,10.5-2.3,30.3,2.9c9.8,13.8,20.7,26.9,32.7,38.8c3.2-1.8,5.9-4.1,8.2-7.1
					C248.1,316.3,242,309.8,235.9,303.2z"/>
			</g>
		</g>
		<g>
			<path class="st5" d="M195.6,394.2c-32-1-67-22-87.3-46.7c20.2-17,41.3-34.5,66.9-41.4c26.7-7.3,60-1.2,81.1,17.3
				c23.2,20.4,4.8,50.4-19.2,61.4C221.3,392,212.8,394.7,195.6,394.2z"/>
			<g>
				<path class="st4" d="M239,341.3c-25.8-11.3-28.4-16.9-34-21.9c5.8,10.1,14.7,18.5,25.2,23.6c-10.7,2-21.4,3.6-32.2,5
					c-17.9-8.4-20.1-12.7-24.5-16.7c4,7.1,9.9,13.2,16.9,17.5c-14.6,1.6-29.2,2.6-43.9,2.9c21.1,3.3,42.6,4.2,63.8,2.9
					c-5.8,6.9-9.8,15.3-11.3,24.1c2.9-5.3,3.4-10.2,17.9-24.6c16.9-1.4,33.7-4.2,50-8.4c0.1-3.6-0.5-7.2-1.9-10.6
					C256.4,337.6,247.7,339.5,239,341.3z"/>
			</g>
		</g>
		<g>
			<path class="st6" d="M225.9,465.4c-29.5,12.4-70,7.8-98.8-6.3c11.4-23.9,23.3-48.5,43.7-65.5c21.3-17.7,54.1-26,81-17.9
				c29.5,9,25.3,43.9,8,63.8C248.5,452.6,241.9,458.7,225.9,465.4z"/>
			<g>
				<path class="st4" d="M243.5,399.3c-28.2,0.4-32.8-3.6-40-5.8c9.5,6.9,21,10.7,32.8,11c-8.9,6.2-18,12.2-27.2,17.9
					c-19.7-0.1-23.6-3.3-29.3-4.9c6.6,4.8,14.5,7.9,22.7,8.9c-12.6,7.5-25.5,14.5-38.7,20.9c20.6-5.8,40.4-13.8,59.3-23.8
					c-2.5,8.6-2.6,18-0.3,26.7c0.4-6-1.2-10.7,6-29.8c14.8-8.3,28.9-17.8,42-28.4c-1.4-3.3-3.4-6.3-6.2-8.9
					C257.7,388.5,250.7,394,243.5,399.3z"/>
			</g>
		</g>
	</g>
	<g>
		<g>
			<path class="st3" d="M1031.6,292.7c15.4-28.1,15.1-68.9,4.1-99c-24.9,8.8-50.7,18.1-69.6,36.5c-19.8,19.3-31.6,51.1-26.3,78.7
				c5.8,30.4,41.1,29.7,62.6,14.7C1016.6,313.8,1023.3,307.9,1031.6,292.7z"/>
			<g>
				<path class="st4" d="M964.1,303.2c3.4-28-0.1-33-1.6-40.4c5.8,10.1,8.4,22.1,7.5,33.7c7.1-8.2,14-16.6,20.7-25.2
					c1.9-19.7-0.8-23.8-1.9-29.6c4,7.1,6.3,15.3,6.5,23.4c8.8-11.7,17.1-23.9,24.8-36.3c-7.9,19.8-18,38.8-29.9,56.5
					c8.8-1.6,18.2-0.7,26.5,2.5c-6-0.2-10.5-2.3-30.3,2.9c-9.8,13.8-20.7,26.9-32.7,38.8c-3.2-1.8-5.9-4.1-8.2-7.1
					C951.9,316.3,958,309.8,964.1,303.2z"/>
			</g>
		</g>
		<g>
			<path class="st5" d="M1004.4,394.2c32-1,67-22,87.3-46.7c-20.2-17-41.3-34.5-66.9-41.4c-26.7-7.3-60-1.2-81.1,17.3
				c-23.2,20.4-4.8,50.4,19.2,61.4C978.7,392,987.2,394.7,1004.4,394.2z"/>
			<g>
				<path class="st4" d="M961,341.3c25.8-11.3,28.4-16.9,34-21.9c-5.8,10.1-14.7,18.5-25.2,23.6c10.7,2,21.4,3.6,32.2,5
					c17.9-8.4,20.1-12.7,24.5-16.7c-4,7.1-9.9,13.2-16.9,17.5c14.6,1.6,29.2,2.6,43.9,2.9c-21.1,3.3-42.6,4.2-63.8,2.9
					c5.8,6.9,9.8,15.3,11.3,24.1c-2.9-5.3-3.4-10.2-17.9-24.6c-16.9-1.4-33.7-4.2-50-8.4c-0.1-3.6,0.5-7.2,1.9-10.6
					C943.6,337.6,952.3,339.5,961,341.3z"/>
			</g>
		</g>
		<g>
			<path class="st6" d="M974.1,465.4c29.5,12.4,70,7.8,98.8-6.3c-11.4-23.9-23.3-48.5-43.7-65.5c-21.3-17.7-54.1-26-81-17.9
				c-29.5,9-25.3,43.9-8,63.8C951.5,452.6,958.1,458.7,974.1,465.4z"/>
			<g>
				<path class="st4" d="M956.5,399.3c28.2,0.4,32.8-3.6,40-5.8c-9.5,6.9-21,10.7-32.8,11c8.9,6.2,18,12.2,27.2,17.9
					c19.7-0.1,23.6-3.3,29.3-4.9c-6.6,4.8-14.5,7.9-22.7,8.9c12.6,7.5,25.5,14.5,38.7,20.9c-20.6-5.8-40.4-13.8-59.3-23.8
					c2.5,8.6,2.6,18,0.3,26.7c-0.4-6,1.2-10.7-6-29.8c-14.8-8.3-28.9-17.8-42-28.4c1.4-3.3,3.4-6.3,6.2-8.9
					C942.3,388.5,949.3,394,956.5,399.3z"/>
			</g>
		</g>
	</g>
	<g>
		<g>
			<path class="st7" d="M893.3,454.1c0,0,4.1,23.1,39.7,116.1c-0.4,4.2-0.4,10.9,3,14.3s23-12.5,16.9-18.4
				c-18.9-18.5-18.1-93.9-22.3-115.3l-11.8-5.3L893.3,454.1z"/>
			<path class="st8" d="M893.3,454.1c0,0,4.1,23.1,39.7,116.1c-0.4,4.2-0.4,10.9,3,14.3s23-12.5,16.9-18.4
				c-18.9-18.5-18.1-93.9-22.3-115.3l-11.8-5.3L893.3,454.1z"/>
			<path class="st9" d="M949.1,558.1c-6.2,5.8-8.8,6.8-16.8,9.9l-7.8,16.4c0,0-9.3,18.2-5.9,21.5C922,609.3,956,577,956,577
				s5.8-5.4-0.3-11.2C952.1,562.3,950.4,562.2,949.1,558.1z"/>
		</g>
		<g>
			<path class="st7" d="M892.5,464.1c0,0-7.5,22.2-21.3,120.8c-2.4,3.4-5.6,9.3-4.2,13.9c1.4,4.6,23.8,0.5,23.7-7.9
				c-0.3-26,24.3-85,31-105.8l-2.6-16.4L892.5,464.1z"/>
			<path class="st9" d="M891.1,582.2c-8.2,2.1-11,1.6-19.5,0.6l-14.7,10.6c0,0-16.9,11.4-15.6,16c1.4,4.6,46.7-7.2,46.7-7.2
				s7.6-1.9,5.2-10C891.8,587.3,890.3,586.4,891.1,582.2z"/>
		</g>
		<path class="st7" d="M946.9,306.2c0,0,13.6,14,15.1,43.8c1.9,37-67,202.9-67,202.9s-18.2,36-21.9,29.7c-3.6-6.2,32.6-228,32.6-228
			l-37.6-15.1c0,0,1.6-20.4,11.4-30.8C886.3,319.3,946.9,306.2,946.9,306.2z"/>
		<path class="st8" d="M943.6,401.3c6.3-4.2,10.8-11.7,10.1-19.2c-4,3.8-9.7,5.1-15.1,6.1c-8.2,1.6-16.3,3.2-24.4,4.9
			c-5.5,1.2-9.2,2.1-5.1,7.6C916.2,410.5,935.1,406.8,943.6,401.3z"/>
		<path class="st10" d="M883,295.4c3.6-8.4,6.9-17.1,9.6-25.8c0.1-0.4,25,5.3,27.3,5.8c8.2,1.6,13.4,6.5,18.2,13.4
			c3.7,5.2,9.3,5.5,13.3,9.7c4.6,4.9,6,16,8.5,22.3c6.9,16.9,15.6,33.1,26.1,48.1c-18.3,20.1-45.6,31.8-72.7,31.1
			c-27.2-0.7-53.8-13.8-71.1-34.8c-1-1.4,12.5-19.5,14.2-21.4c4.3-4.6,9.3-8.9,11.4-14.9c2.1-6,4.4-11.2,7.4-17
			C878.1,306.4,880.6,301,883,295.4z"/>
		<g>
			<path class="st7" d="M904,191c-8.6,23.8-25.4,44.3-46.4,57.4c-20.1,12.5-42.4,17.1-65.6,17.8c-2.4,0.1-4.8,0.1-7.1-0.7
				c-1-0.3-16.5-7.1-10.1,0c1,1,2.3,1.8,3,3c-1-1.5-14.1-1.9-16.3-2c-0.9-0.1-1.8-0.1-2.5,0.3s-1.3,1.4-0.9,2.2
				c0.2,0.4,0.5,0.7,0.9,0.9c1.8,1.2,3.6,2.5,5.3,3.8c-0.9,1.6-0.5,3.7,0.5,5.2c1,1.5,2.6,2.5,4.2,3.3c13.4,6.5,22.5-2.7,35.6-4.3
				c5.3-0.6,10.8-0.1,16.2-0.1c50.9-0.1,92-31.6,115.7-76.8c0.7-1.2,0.5-3.6-0.8-3.2"/>
			<path class="st11" d="M938.1,207.4c-6.8,10.8-16.2,19.5-25.5,28c-11.4,10.6-23.1,21.2-36.8,28.4c-10.6,5.6-22.1,9-33.7,11.4
				c-15.6,3.2-31.5,4.5-47.4,3.8c-1.3-4.7-2.6-9.4-4-14.1c13.8-1.5,27.2-5.6,40.5-9.8c11.9-3.8,23.8-7.7,34.3-14.4
				c10.6-6.6,19.8-16.4,23.6-28.6c2.8-8.9,8.4-17,16.2-22.3c5.7-3.9,13.2-5.1,19.7-3.2c6.6,1.9,12.3,6.9,15.1,13.2"/>
			<path class="st8" d="M938.1,207.4c-6.8,10.8-16.2,19.5-25.5,28c-11.4,10.6-23.1,21.2-36.8,28.4c-10.6,5.6-22.1,9-33.7,11.4
				c-15.6,3.2-31.5,4.5-47.4,3.8c-1.3-4.7-2.6-9.4-4-14.1c13.8-1.5,27.2-5.6,40.5-9.8c11.9-3.8,23.8-7.7,34.3-14.4
				c10.6-6.6,19.8-16.4,23.6-28.6c2.8-8.9,8.4-17,16.2-22.3c5.7-3.9,13.2-5.1,19.7-3.2c6.6,1.9,12.3,6.9,15.1,13.2"/>
		</g>
		<path class="st11" d="M893.1,250.9c2.2,13.2-0.8,27.2-8,38.4c18.5,14.7,45.4,17.9,66.8,7.9c-8.8-12.8-8.7-36.7,1-50
			c9.9-13.8,6.4-27.7,11.6-43.7c1-3.2,2.1-6.4,2-9.7c-0.2-10.6-11.2-12.9-20.9-13.5c-6.1-0.3-11.8-2.3-17.5-0.5
			c-8,2.5-20.2,5.6-25.1,12.9c-3.9,5.9-7.1,13.2-10.3,20c-1.2,2.5-2.3,4.9-3.6,7.1c-2.7,5.1-5.5,10.3-6,16
			c-0.7,8.1,3.6,16.3,10.7,20.3c4.9,2.7,10.6,3.5,16.2,3.6c8,0.3,20.3,4.8,27.7,1.9c6.9-2.7,11.5-7.5,14.7-13.5"/>
		<path class="st11" d="M932.4,199l34.1,60.8l-30,50.3c0,0,11.9,10.6,15.9,8.6c4-1.9,46-61.7,44.8-66.6
			c-1.2-4.9-40.2-62.8-40.2-62.8L932.4,199z"/>
		
			<linearGradient id="SVGID_1_" gradientUnits="userSpaceOnUse" x1="929.9682" y1="469.6925" x2="988.3963" y2="469.6925" gradientTransform="matrix(1 0 0 -1 0 630)">
			<stop  offset="0.2012" style="stop-color:#FFD584"/>
			<stop  offset="0.9175" style="stop-color:#FCD271"/>
		</linearGradient>
		<path class="st12" d="M955.8,188.9c2.6,5.3,5.6,10.6,6.7,16.7c1.2,6.1,0.1,13.5-3.8,17.1c6.6-0.8,13.6-1.6,19.5-5.6
			c6-4,10.8-12.1,10.1-20.8c-0.5-6.4-3.8-12-4.9-18.3c-1.8-10.1,2.1-20.1,3.2-30.4c1.9-17.1-4.9-35.3-16.4-43.9
			c-9.3-6.9-21.2-7.3-30.8-1.6c-4.2,2.5-11.2,7.1-9,14.4c1.6,5.4,7.7,9.3,11,12.5c4.5,4.5,9.4,9.8,11.1,17.2
			c1.4,6-0.1,11.5-1.1,17.5C949.7,173.3,951.7,180.7,955.8,188.9z"/>
		<path class="st8" d="M959.3,129.8c0,3.1-0.5,6.2-1.9,9c-1.4,2.7-3.8,5.1-6.8,5.9c-3.8,1-8-0.7-10.8-3.4c-2.9-2.7-4.8-6.2-6.7-9.7
			c-4.5-8.3-8.4-24.4,5.7-25.1C951.7,105.9,959.3,118.3,959.3,129.8z"/>
		
			<linearGradient id="SVGID_2_" gradientUnits="userSpaceOnUse" x1="894.5089" y1="494.0677" x2="954.803" y2="494.0677" gradientTransform="matrix(1 0 0 -1 0 630)">
			<stop  offset="0.2012" style="stop-color:#FFD584"/>
			<stop  offset="0.9175" style="stop-color:#FCD271"/>
		</linearGradient>
		<path class="st13" d="M953.8,145.2c3.4-13.4-1.8-28.6-12.5-37.4c-10.8-8.7-26.7-10.6-39.1-4.5c-4.7,2.3-9.4,7.5-6.9,12.1
			c1.9,3.5,6.6,4,10.4,5.3c7.3,2.7,11.7,9.8,15.6,16.4c2.8,4.8,5.7,9.7,6.4,15.1c1,6.6-1.5,12.7-5.6,17.9
			C934.7,178.6,951.3,155.1,953.8,145.2z"/>
		<g>
			<path class="st7" d="M923.6,162.4c1.6,3.2,3.2,6.5,4.7,9.7c0.1,0.3,4.6,7.7,5.3,6.3c-3.4,6.4-7.7,12.5-12.7,17.9
				c-1.1,1.2-2.3,2.5-3.8,3.1c-1.5,0.7-3.5,0.6-4.7-0.5c-1.4-1.4-1.3-3.7-1-5.8c0.5-3.7,1.6-7.3,0.3-10.8c-0.8-2.3-2.2-4.6-3.3-6.9
				c-1-1.9-4.4-11.2-7.3-11C901.2,164.7,923.6,162.4,923.6,162.4z"/>
			<path class="st8" d="M912,182.3l-9.3-17.6l21.2-2.2l6.5,14.1C924.9,180.1,918.6,181.7,912,182.3z"/>
			<path class="st7" d="M886.8,159.3c0.8,4.3,2.9,8.4,5.4,11.7c2.6,3.3,5.6,4.2,9.2,5.3c11.5,3.2,27.5,0.5,31.4-14.5
				c2.1,1.2,4.5-0.8,5.2-3.4c0.6-2.3-0.1-4.5-0.2-6.8c-0.1-1.9,0-3.8-0.1-5.8c-0.5-4.8-1.2-9.7-3.4-14c-2.3-4.5-5.9-7.7-9.7-9.9
				c-3.9-2.1-8-3.3-12.1-4.4c-7.1-1.9-17.5-4.1-22.3,4.1c-2.8,4.8-1.2,13.7-2,19.3C887.1,147,885.7,153.1,886.8,159.3z"/>
			<g>
				<path class="st7" d="M943.4,143.4c1.9,1,2.7,3.4,2.7,5.6c0.2,6.4-4.5,12.5-10.6,14.1c-1.9,0.5-4.2,0.4-5.3-1.1
					c-1.2-1.6-0.5-3.8,0.3-5.6C932.1,152.9,938.2,140.7,943.4,143.4z"/>
				<g>
					<g>
						<path class="st9" d="M944.1,148.7c0-0.1-1-0.1-2.4,0.6c-1.4,0.6-3.2,2.1-4.4,4c-1.2,2-1.9,4.1-2.2,5.6
							c-0.3,1.5-0.4,2.4-0.3,2.5c0.1,0,0.3-0.9,0.8-2.3c0.5-1.4,1.1-3.4,2.3-5.3s2.8-3.3,4-4C943.2,148.9,944.1,148.7,944.1,148.7z"
							/>
					</g>
					<g>
						<path class="st9" d="M936.9,160.3c0.1,0.1,0.4-0.3,0.9-1c0.5-0.6,1.1-1.6,1.5-2.7c0.4-1.2,0.4-2.4,0.1-3.2
							c-0.2-0.8-0.6-1.2-0.7-1.2c-0.1,0.1,0.1,0.5,0.2,1.2c0.1,0.8,0.1,1.8-0.3,2.9c-0.3,1.1-0.9,2-1.3,2.7
							C937,159.8,936.8,160.3,936.9,160.3z"/>
					</g>
				</g>
			</g>
			<g>
				<g>
					<path class="st9" d="M926,141.7c0.2-0.1,0-0.7-0.9-1.4c-0.8-0.8-2.3-1.6-4.2-2.1c-1.9-0.5-3.8-0.4-5.1-0.2
						c-1.3,0.2-1.9,0.6-1.9,0.8c0.2,0.4,3,0.1,6.2,0.8C923.5,140.4,925.5,142,926,141.7z"/>
				</g>
				<g>
					<path class="st9" d="M899.8,138.3c0-0.2-0.5-0.5-1.6-0.6c-1-0.1-2.4-0.2-3.8,0.1s-2.5,0.9-3.1,1.4c-0.6,0.6-0.6,1.2-0.3,1.2
						c0.3,0.1,0.7-0.1,1.4-0.3c0.7-0.3,1.7-0.5,2.9-0.8C897.6,138.7,899.7,138.7,899.8,138.3z"/>
				</g>
				<path class="st9" d="M903.1,143.9c0.4,1.5,0.5,3.1,0.7,4.7c0.1,1.6,0.1,3.2-0.1,4.7l-0.1,1.2l-0.1,0.3c0,0.1-0.1,0.3-0.1,0.4
					c-0.1,0.3-0.1,0.5-0.3,0.7c-0.3,0.4-0.6,0.8-1.2,1.1c-0.2,0.1-0.5,0.2-0.8,0.2c-0.1,0-0.2,0-0.3,0.1c-0.3,0.2-0.5,0.9-0.3,1.5
					c0.2,0.7,0.7,1.2,1.2,1.9c-0.7-0.3-1.4-0.8-1.9-1.6c-0.2-0.4-0.3-0.8-0.3-1.4c0-0.5,0.2-1,0.6-1.4c0.2-0.2,0.5-0.3,0.8-0.4
					c0.1-0.1,0.2-0.1,0.3-0.1c0.2-0.1,0.3-0.3,0.5-0.5c0.1-0.1,0.1-0.3,0.1-0.3c0-0.1,0-0.1,0-0.2v-0.3l0.1-1.2l0.5-4.6
					C902.7,147,902.9,145.4,903.1,143.9z"/>
				<g>
					<path class="st9" d="M910.9,151.8c0.8-0.9,1.6-1.5,2.6-1.8s2-0.3,2.9-0.2c1,0.1,2,0.4,2.9,0.8c1,0.4,1.9,1,2.7,1.7l0.1,0.1
						c0.1,0.1,0.3,0.1,0.4,0c0.4-0.3,0.8-0.8,1.2-1.2c-0.5,0.1-1.1,0.3-1.6,0.5l0.5,0.1c-0.5-1.1-1.4-2-2.5-2.7
						c-1-0.7-2.3-1.1-3.5-1.2c-1.2-0.1-2.6,0.1-3.7,0.8C911.9,149.5,911.2,150.6,910.9,151.8z"/>
					<path class="st9" d="M922,151.5l0.7-1l-1.2,0.2c-0.3,0.1-0.4,0.3-0.4,0.5c0.1,0.3,0.3,0.4,0.5,0.4
						C921.8,151.7,921.9,151.6,922,151.5z"/>
				</g>
				<g>
					<path class="st9" d="M899.4,151.6c-0.5-1-1.1-1.7-1.9-2.2c-0.8-0.5-1.6-0.7-2.5-0.8c-0.9-0.1-1.9,0-2.7,0.3
						c-0.9,0.2-1.9,0.6-2.7,1.2l-0.1,0.1c-0.1,0.1-0.3,0.1-0.3-0.1c-0.3-0.4-0.5-0.8-0.8-1.3c0.4,0.2,0.8,0.5,1.2,0.8H889
						c0.8-1,1.8-1.6,2.8-2.1c1.1-0.4,2.2-0.6,3.4-0.5c1.1,0.1,2.2,0.6,3,1.4C899.1,149.2,899.5,150.4,899.4,151.6z"/>
					<path class="st9" d="M889.8,149.2l-0.3-1l1,0.4c0.2,0.1,0.3,0.3,0.2,0.6c-0.1,0.2-0.3,0.3-0.5,0.3
						C890,149.4,889.9,149.3,889.8,149.2z"/>
				</g>
				<path class="st9" d="M897.5,164l16.6-2.5c0,0,2.2,6.4-4.4,8.4C900.7,172.5,897.5,164,897.5,164z"/>
				<path class="st11" d="M907.4,166.4c2.1-1.3,4.5-1.7,6.9-1h0.1c-0.3,1.8-1.5,3.6-4.6,4.6c-2.1,0.6-3.9,0.6-5.4,0.3
					C905,168.6,905.8,167.3,907.4,166.4z"/>
			</g>
			
				<linearGradient id="SVGID_3_" gradientUnits="userSpaceOnUse" x1="958.5563" y1="501.0162" x2="1019.501" y2="501.0162" gradientTransform="matrix(0.9809 -0.1948 -0.1948 -0.9809 41.7726 809.9478)">
				<stop  offset="0.2012" style="stop-color:#FFD584"/>
				<stop  offset="0.9175" style="stop-color:#FCD271"/>
			</linearGradient>
			<path class="st14" d="M909.7,129.3c-4.6,3-18,7.1-22.9,3.7c-3.4-2.3-4.1-7.3-2.7-11.2c6.5-17.8,26.5-26,42.8-16.1
				c6.6,4,10.8,9.7,14,16.7c1.9,4.2,6.6,9.4,6.2,14.3c-0.5,6-9.3,8.3-13.9,11c-1.2-3.9-4.2-8.3-7.7-10.4c-2.7-1.6-6.5-0.9-10.1-2.6
				C914.9,134.2,908.9,129.8,909.7,129.3z"/>
		</g>
		<g>
			<path class="st11" d="M943.6,105.7c-2.4,3.5-9.4,2.9-13,0.5c-3.5-2.4-2.2-5.6,0.2-9.2c2.4-3.5,4.9-6,8.4-3.6
				C942.8,95.9,946,102.2,943.6,105.7z"/>
			<path class="st11" d="M940.6,103.6c2.4-3.5,9.4-2.9,13-0.5c3.5,2.4,2.2,5.6-0.2,9.2c-2.4,3.5-4.9,6-8.4,3.6
				C941.4,113.5,938.2,107.2,940.6,103.6z"/>
			
				<ellipse transform="matrix(0.562 -0.8271 0.8271 0.562 325.8535 824.3832)" class="st11" cx="941.3" cy="104.5" rx="4.7" ry="4.7"/>
			
				<ellipse transform="matrix(0.562 -0.8271 0.8271 0.562 325.8535 824.3832)" class="st8" cx="941.3" cy="104.5" rx="4.7" ry="4.7"/>
		</g>
	</g>
	<g>
		<g>
			<g>
				<path class="st9" d="M263.9,78.7c-15.1,12.1-5.1,44,3.2,57.4c5.9,9.6,16.4,18.2,28.2,18c5.9-0.1,11.3-2.6,15.6-6.6
					c5.1-4.9,4.3-11.9,4.2-18.6c-0.2-8.3-0.3-16.6-0.5-24.9c-0.1-3.2-0.2-6.6-1.4-9.3c-2.1-4.7-6.5-5.2-10.3-5.3
					c-12.5-0.3-25-0.5-37.5-0.8"/>
				<path class="st15" d="M282.3,137.9l-13.6,28.6l6.4,5.1c8.1,6.4,20.1,2.7,23.2-7.2l7.9-25.1L282.3,137.9z"/>
				<path class="st16" d="M297.3,163.4l9.9-23.9l-24.8-1.6l-6.9,19.1C282.3,161.4,289.7,163.1,297.3,163.4z"/>
				<path class="st15" d="M322.2,132.5c-0.4,4.7-2.3,9.3-4.7,12.9c-2.4,3.8-5.5,5.1-9.3,6.5c-10.7,4.1-30.7,2.7-36.5-9.4
					c-0.8-1.7-1.2-3.6-1.4-5.5c-2.5-14.5-6-31.1,8-40.6c3.9-2.7,8.2-4.3,12.5-5.9c7.3-2.7,18.2-6.1,24.2,2.2
					c3.5,4.8,2.6,14.5,4,20.4C320.6,119.4,322.8,125.8,322.2,132.5z"/>
				<g>
					<g>
						<path class="st9" d="M280.8,116.8c-0.2-0.1-0.1-0.7,0.5-1.6c0.6-0.9,1.9-2.1,3.7-2.9c1.8-0.9,3.6-1.2,4.9-1.3
							c1.3-0.1,2,0.2,2,0.4c-0.1,0.4-2.9,0.7-5.9,2.2C283,115,281.4,116.9,280.8,116.8z"/>
					</g>
					<g>
						<path class="st9" d="M305.1,107.3c-0.1-0.2,0.5-0.5,1.4-0.9c1-0.3,2.3-0.5,3.7-0.4c1.4,0.1,2.5,0.5,3.3,1
							c0.7,0.5,0.8,1,0.5,1.2c-0.3,0.1-0.7,0-1.4-0.1c-0.7-0.1-1.8-0.3-2.9-0.4C307.3,107.5,305.2,107.8,305.1,107.3z"/>
					</g>
					<path class="st9" d="M301.6,116c0.6,1.4,1.1,2.9,1.6,4.4l1.4,4.4l0.3,1.1l0.1,0.5c0,0.1,0.1,0.2,0.1,0.3
						c0.1,0.1,0.3,0.3,0.5,0.4c0.1,0.1,0.3,0.1,0.4,0.1c0.3,0,0.6,0.1,0.9,0.2c0.5,0.3,0.8,0.8,0.9,1.3c0.1,0.5,0.1,1-0.1,1.4
						c-0.3,0.8-0.9,1.4-1.5,1.9c0.3-0.7,0.7-1.4,0.8-2.1c0.1-0.6-0.3-1.3-0.6-1.4c-0.1,0-0.1,0-0.3,0c-0.2,0-0.5,0-0.8-0.1
						c-0.5-0.1-1-0.3-1.4-0.8c-0.2-0.2-0.3-0.5-0.4-0.8l-0.2-0.5l-0.4-1.1c-0.5-1.5-0.8-3-1.1-4.6
						C301.7,119.2,301.5,117.6,301.6,116z"/>
					<path class="st9" d="M310.9,133.5l-22.5,3.1c0,0-0.4,9.2,8.9,9.2C310,145.9,310.9,133.5,310.9,133.5z"/>
					<path class="st11" d="M298.9,140.4c-3.2-0.9-6.4-0.5-9.3,1.2c0,0-0.1,0-0.1,0.1c1.2,2.1,3.4,4.2,7.7,4.2c2.9,0,5.3-0.7,7.1-1.6
						C302.9,142.4,301.3,141,298.9,140.4z"/>
					<g>
						<path class="st9" d="M295,121.7c-1-0.8-1.9-1.2-2.9-1.3c-1-0.1-2,0-2.9,0.3c-1,0.3-1.9,0.8-2.7,1.3c-0.8,0.5-1.6,1.2-2.3,2.1
							l-0.1,0.1c-0.1,0.1-0.3,0.1-0.4,0.1c-0.5-0.3-0.3-0.8,0.3-0.7l-0.5,0.2c0.3-1.2,1.1-2.2,2-3c0.9-0.8,2.1-1.4,3.2-1.7
							c1.2-0.3,2.5-0.3,3.8,0.1C293.6,119.7,294.6,120.6,295,121.7z"/>
					</g>
					<g>
						<path class="st9" d="M306.8,120.7c0.5-1.1,1.1-1.9,1.9-2.5c0.8-0.6,1.7-1,2.7-1.1c1-0.2,2-0.2,3-0.1c1,0.1,2.1,0.3,3,0.8
							l0.1,0.1c0.1,0.1,0.3,0,0.3-0.1c0.3-0.5-0.1-0.8-0.5-0.5l0.5-0.1c-0.9-0.9-2-1.4-3.2-1.7c-1.2-0.3-2.5-0.3-3.7,0
							s-2.4,0.9-3.2,1.9C307,118.2,306.6,119.5,306.8,120.7z"/>
					</g>
				</g>
				<g>
					<path class="st15" d="M261.7,113.3c-2,0.9-2.9,3.2-3,5.3c-0.5,6.3,3.6,12.7,9.7,14.7c1.8,0.6,4.1,0.7,5.3-0.8
						c1.2-1.5,0.8-3.7,0.1-5.6C272.4,123.5,267.1,110.9,261.7,113.3z"/>
					<g>
						<g>
							<path class="st9" d="M260.7,118.5c0-0.1,1,0,2.3,0.8c1.4,0.8,3,2.3,4.1,4.3c1.1,2.1,1.6,4.2,1.9,5.7c0.3,1.5,0.3,2.5,0.2,2.5
								c-0.1,0-0.3-0.9-0.6-2.3c-0.3-1.4-0.9-3.4-2-5.4c-1.1-2-2.5-3.4-3.8-4.2C261.6,118.9,260.6,118.6,260.7,118.5z"/>
						</g>
						<g>
							<path class="st9" d="M267.1,130.6c-0.1,0.1-0.4-0.3-0.8-1c-0.4-0.7-1-1.6-1.3-2.8c-0.3-1.2-0.3-2.4,0.1-3.2
								c0.3-0.8,0.7-1.2,0.8-1.1c0.1,0.1-0.1,0.5-0.3,1.2c-0.1,0.8-0.1,1.8,0.1,2.9c0.3,1.1,0.8,2.1,1.1,2.7
								C267.1,130,267.3,130.5,267.1,130.6z"/>
						</g>
					</g>
				</g>
				<path class="st9" d="M275.5,110.2c0-2.1,0.5-4.2,1.7-6c12.3,3.4,25.2,4.7,37.9,3.9c1.1-1.6,2.2-3.4,3.3-5c2.3-0.1,4.5,1.6,5,3.9
					c3.7-7.7,2-17.2-3.1-24.1c-5.1-6.8-13-11-21.4-12.8c-13.2-2.8-38.5-0.1-41.7,16.1c-2.6,13.2,10.1,28.1,22.1,32.6
					C276.9,116.6,275.5,113.4,275.5,110.2z"/>
			</g>
		</g>
		<path class="st9" d="M266.5,614.4c8.6,7.6,30.2,14.3,34.7,4.4c1.8-4-0.8-8.7-3.2-12.3c-7.3-10.8-14.5-18.5-12-32.6
			c-7,1-13.9,2-20.9,2.9c1.1-0.1-0.3,11.7-0.6,13c-1.4,7.1-4.4,13.5-1.1,20.7C263.9,611.8,265,613.1,266.5,614.4z"/>
		<g>
			<path class="st9" d="M335.2,573.4c9.5,2.1,12.7,1.5,22.5-0.1l17.3,11.7c0,0,19.9,12.5,18.4,17.8c-1.4,5.3-53.9-6.6-53.9-6.6
				s-8.8-1.9-6.3-11.2C334.6,579.3,336.3,578.2,335.2,573.4z"/>
		</g>
		<path class="st10" d="M247,333.3c0,0-1.9,45.4,0.8,49.6s15.1,203.4,15.1,203.4s14.6,3.6,23.4-2.1c8.8-5.8,17.2-189.8,17.2-189.8
			l9.7-1l19.5,70.4c0,0-4.7,111.6-1,112.1c3.6,0.5,28.7,4.7,30.2-1.6c1.6-6.2,9.9-119.5,9.9-119.5l-40.7-125.7L247,333.3z"/>
		<path class="st16" d="M343.7,368c-7.9,15.4-30.6,25.3-30.6,25.3l19.5,70.4c0,0-4.7,111.6-1,112.1c3.6,0.5,28.7,4.7,30.2-1.6
			c1.6-6.2,9.9-119.5,9.9-119.5L343.7,368z"/>
		<path class="st15" d="M459,56.6c0.4-0.8,0.9-1.5,1.4-2.3c0.8-1.2,2-3.9,3.4-4.3c0.1,0,3.4-0.4,2.9,0.5c4-6,6.2,2.4,6.4,5.7
			c0.3,7.1-1.8,18-5.2,24.3c-2.9,5.6-9.3,16.4-17.1,12.1c-10.5-5.7-4.5-23.9-2.4-32.6c3.5,1.6,3.6,5.1,5,8.1
			C454.9,65.9,457.6,59,459,56.6z"/>
		
			<linearGradient id="SVGID_4_" gradientUnits="userSpaceOnUse" x1="307.4186" y1="483.1784" x2="460.4694" y2="483.1784" gradientTransform="matrix(1 0 0 -1 0 630)">
			<stop  offset="0.2012" style="stop-color:#FFD584"/>
			<stop  offset="0.9175" style="stop-color:#FCD271"/>
		</linearGradient>
		<path class="st17" d="M307.4,167.5l26.3,1.9l55.4-25.7l51.8-67.3c0,0,21.9,8.8,19.3,14c-2.5,5.3-51.9,85.1-51.9,85.1L329,217.3
			L307.4,167.5z"/>
		<polygon class="st16" points="331,216.3 320.8,184.1 396.3,164.6 460.3,90.5 408.4,175.6 		"/>
		
			<linearGradient id="SVGID_5_" gradientUnits="userSpaceOnUse" x1="222.0224" y1="379.9945" x2="334.3675" y2="379.9945" gradientTransform="matrix(1 0 0 -1 0 630)">
			<stop  offset="0.2012" style="stop-color:#FFD584"/>
			<stop  offset="0.9175" style="stop-color:#FCD271"/>
		</linearGradient>
		<path class="st18" d="M222,181.1c7.5,19.9,18.9,26.4,17.8,47.7c-1.4,24.9,7.7,50.6,6.4,75.5c-0.4,7.5-3.1,15.8-2.1,23.3
			c1.1,8.5,12.5,9.1,19.9,10.8c23,5.2,47.6,3.5,69.7-5.1c1.9-0.8-0.5-30.4-0.6-33.3c-0.4-14.7-0.9-29.4-1.5-44.1
			c-1-24.6-0.3-52.4-2.3-68.9c-1.5-12.3-16.6-21.4-18.8-21.9c-11.9-2.9-20.6-5.7-32.8-6.2C247.9,157.4,222.2,181.6,222,181.1z"/>
		<path class="st16" d="M300.8,160.8c6.9,1.2,12.4,3.1,11.9,6.8c-0.3,2.5-2.5,4.7-5.1,6.4c-11.4,6.9-43.9,1.6-48.5-8.5
			c-4.6-10.1,13.6-8,21.5-6.9C284.8,159.3,293.6,159.6,300.8,160.8z"/>
		
			<linearGradient id="SVGID_6_" gradientUnits="userSpaceOnUse" x1="259.7437" y1="466.7547" x2="313.7896" y2="466.7547" gradientTransform="matrix(1 0 0 -1 0 630)">
			<stop  offset="0.2012" style="stop-color:#FFD584"/>
			<stop  offset="0.9175" style="stop-color:#FCD271"/>
		</linearGradient>
		<path class="st19" d="M302.1,158.8c2.3,0.1,4.6,0.3,6.7,0.9c7.3,2.1,5.6,7,0.1,10.3c-8.4,5.1-22.3,3.4-31.3,1.2
			c-7.1-1.7-26.9-10.1-13.4-16.9c2.7-1.4,6.1-1.6,9-0.8c2.9,0.9,5.1,2.9,8,3.9c2.5,0.8,5.2,0.9,7.9,1c3.7,0.1,7.3,0.2,11,0.3
			C300.9,158.7,301.5,158.7,302.1,158.8z"/>
		<path class="st16" d="M260.4,218.8c1.7,8.3-3.9,55.6,2.5,58.7c19.9,9.9,37,23.1,41.6,27.6c4.5,4.3,0.5,11.7-5.6,10.6
			c-14.3-2.7-30.3-11.2-39-19.3c-12.3-11.4-19.2-28-20.6-44.8c-1-12.3,0.2-26.5,4.7-38.1C249.6,198.8,258,206.9,260.4,218.8z"/>
	</g>
	<g>
		<g>
			<path class="st7" d="M472.1,464.1c0,0,7.5,22.2,21.3,120.8c2.4,3.4,5.6,9.3,4.2,13.9c-1.4,4.6-26.1,0.1-23.7-7.9
				c7.7-25.3-22.9-76.3-29.5-97.2l1.1-25L472.1,464.1z"/>
			<path class="st3" d="M473.5,582.2c8.2,2.1,11,1.6,19.5,0.6l14.7,10.6c0,0,16.9,11.4,15.6,16c-1.4,4.6-46.7-7.2-46.7-7.2
				s-7.6-1.9-5.2-10C472.9,587.3,474.3,586.4,473.5,582.2z"/>
		</g>
		<g>
			<path class="st7" d="M472.4,457.7c0,0-4.1,23.1-39.7,116.1c0.4,4.2,0.4,10.9-3,14.3s-23-12.5-16.9-18.4
				c18.9-18.5,16.9-77.9,21.1-99.3l13-21.4L472.4,457.7z"/>
			<path class="st3" d="M416.7,561.8c6.2,5.8,8.8,6.8,16.8,9.9l7.8,16.4c0,0,9.3,18.2,5.9,21.5c-3.4,3.4-37.4-28.9-37.4-28.9
				s-5.8-5.4,0.3-11.2C413.6,565.9,415.3,565.9,416.7,561.8z"/>
		</g>
		<path class="st20" d="M467,118.6c-7.1,26.7-1.6,56.6,14.5,79.1c3.2,4.4,6.8,8.6,8.7,13.6c2,5.1,2,11.3-1.6,15.4
			c0.4-6.4-3.8-12.3-8.9-16.2c-5.1-3.9-11.2-6.3-16.7-9.7c-14.4-8.7-24.7-23.9-27.4-40.4c-2.7-16.6,2.1-34.3,12.8-47.2"/>
		<path class="st8" d="M467,118.6c-7.1,26.7-1.6,56.6,14.5,79.1c3.2,4.4,6.8,8.6,8.7,13.6c2,5.1,2,11.3-1.6,15.4
			c0.4-6.4-3.8-12.3-8.9-16.2c-5.1-3.9-11.2-6.3-16.7-9.7c-14.4-8.7-24.7-23.9-27.4-40.4c-2.7-16.6,2.1-34.3,12.8-47.2"/>
		<path class="st9" d="M496.5,338.5c0,0,0.5,5.3,0.5,17.8c-0.1,19.9-5.8,44-8.4,52.7c-4.2,14-43.8,139.8-43.8,139.8s-24-0.5-25.6-11
			c-1.6-10.4,33.9-187.2,33.9-187.2L496.5,338.5z"/>
		<path class="st8" d="M496.5,338.5c0,0,0.5,5.3,0.5,17.8c-0.1,19.9-5.8,44-8.4,52.7c-4.2,14-43.8,139.8-43.8,139.8s-24-0.5-25.6-11
			c-1.6-10.4,33.9-187.2,33.9-187.2L496.5,338.5z"/>
		<path class="st7" d="M415.2,312.5c10.9,8.3,18.9,10.3,28.6,9.9c12.2-0.6,39.6,0.1,41.2-13.6c-6.2-20.4-4.7-45.1-4.9-67.9
			c-10.1,2.9-20.2,5.7-30.3,8.6c-6.5,1.9-21,2.9-23,9.5c-1.2,3.7,0.2,9.8-0.1,13.8c-0.3,4.6-1,9.2-2,13.7
			C424.1,289.6,418.6,312.5,415.2,312.5z"/>
		<path class="st7" d="M438,187.4c24.7-5.4,47.2-19.3,63-38.4c15.1-18.3,22.5-39.8,26.3-62.6c0.4-2.3,0.8-4.8,0.3-7.1
			c-0.2-1.1-4.8-17.3,1.3-10.1c0.9,1.1,1.4,2.5,2.5,3.4c-1.4-1.2,0-14.3,0.2-16.4c0.1-0.9,0.1-1.8,0.6-2.5c0.5-0.7,1.6-1.1,2.3-0.6
			c0.3,0.3,0.6,0.6,0.8,1c1,1.9,2.1,3.8,3,5.8c1.7-0.7,3.7,0,5.1,1.2c1.4,1.2,2.1,2.9,2.7,4.6c4.7,14.2-5.6,21.9-9,34.8
			c-1.4,5.2-1.5,10.6-2.3,16c-6.9,50.4-43.5,87-91.4,104.5c-1.3,0.5-3.6,0.1-3.1-1.2"/>
		<path class="st11" d="M460.9,175.7c12.5-2.2,23.4-10.1,31.5-19.7c8-9.6,13.5-20.9,18.8-32.1c6-12.6,11.7-25.4,15-38.9
			c4.5,1.9,9,3.8,13.5,5.8c-1.5,15.8-4.9,31.4-10,46.4c-3.8,11.2-8.8,22.2-15.7,31.9c-9,12.6-21.1,22.8-33.1,32.7
			c-9.7,8.1-19.5,16.3-31.1,21.6"/>
		<path class="st7" d="M428.7,180.3c-24-8-45-24.1-58.6-44.8c-13.1-19.8-18.3-41.9-19.6-65c-0.1-2.4-0.2-4.8,0.5-7.1
			c0.3-1,6.6-16.7-0.3-10.1c-1,1-1.7,2.3-2.9,3.2c1.5-1,1.4-14.2,1.5-16.4c0-0.9,0.1-1.8-0.4-2.5c-0.4-0.8-1.4-1.2-2.3-0.9
			c-0.4,0.2-0.7,0.5-0.9,1c-1.2,1.9-2.4,3.6-3.6,5.5c-1.6-0.8-3.7-0.4-5.2,0.7c-1.4,1.1-2.4,2.7-3.2,4.3
			c-6.1,13.6,3.3,22.3,5.3,35.5c0.8,5.3,0.4,10.8,0.5,16.2c1.6,50.8,34.1,91.2,79.9,113.5c1.3,0.6,3.6,0.4,3.2-0.9"/>
		<path class="st11" d="M424.5,174.2c-12.3-3.5-41.3-20.6-48.2-30.9s-11.2-22.2-15.4-33.9c-4.6-13.2-9-26.5-10.9-40.2
			c-4.7,1.4-9.3,2.9-14,4.3c-0.2,15.8,1.5,31.7,5.1,47.2c2.7,11.6,6.4,23,12.3,33.4c7.6,13.4,18.6,24.8,29.5,36
			c8.8,9,17.8,18.2,28.7,24.7"/>
		<path class="st11" d="M430.2,267.9c21-2.9,42.1-5.8,63.1-8.7c0.1,0-0.4-23.7-0.3-25.4c0.1-6.5,1-11.4,2.3-17.6
			c1-4.6-0.8-9.4-3.5-13.2c-3.4-4.9-8-8.6-11.5-13.4c-2.5-3.4-6.3-10.8-9.3-13.8c-4-4-15.6,3.3-21,1c0.9-1.2,1.8-3.7-0.4-2.6
			c-6.2,3.2-2.9,6.3-8.8,2.6c-2.1-1.2-13.8-2.1-16.2-2.6c-5.3-1-13,2.4-15.6,6.8c-6.2,10.6-1.1,27.1,0,38.7
			c1.4,15.1,3.7,35.4,5.2,50.5C419.5,269.4,424.9,268.7,430.2,267.9z"/>
		<g>
			<path class="st7" d="M433,153.3c0.3,8.6-3,18,2.3,25.5c4.5,6.3,10.8,11,17.3,15c1.5,0.9,7.1,5.3,9,3.9c2.5-1.9-2.7-11.4-3.8-13.9
				c-3.1-7.3-3.7-12.7-3.6-20.6c0.1-6.3,0.2-12.5,0.3-18.8C454.6,144.3,433,153.3,433,153.3z"/>
			<path class="st8" d="M454.3,165.1l0.3-20.8l-21.5,9l0.7,16.2C440.9,169.8,447.7,168,454.3,165.1z"/>
			<path class="st7" d="M472.3,146.4c-1,4.5-3.3,8.6-6,11.9c-2.7,3.4-5.9,4.2-9.7,5.2c-12,3-28.4-0.3-32-16c-2.2,1.2-4.7-1-5.3-3.6
				c-0.6-2.5,0.2-4.6,0.4-7c0.1-2,0.1-4,0.3-6c0.6-4.9,1.6-10,3.9-14.3c2.5-4.5,6.3-7.8,10.4-9.9c4-2.1,8.4-3.2,12.7-4.2
				c7.3-1.7,18.2-3.7,23,4.9c2.7,5,0.8,14.2,1.5,20.1C472.3,133.7,473.7,140,472.3,146.4z"/>
			<g>
				<path class="st7" d="M414.2,128.2c-2,1-2.9,3.4-2.9,5.6c-0.4,6.6,4.2,13.2,10.6,14.9c1.9,0.5,4.2,0.5,5.5-1
					c1.2-1.6,0.7-3.9-0.1-5.8C425.6,138.5,419.6,125.6,414.2,128.2z"/>
				<g>
					<g>
						<path class="st9" d="M413.3,133.7c0-0.1,1,0,2.5,0.7c1.4,0.7,3.2,2.2,4.5,4.3s1.8,4.2,2.1,5.8c0.3,1.6,0.3,2.5,0.3,2.5
							s-0.3-1-0.8-2.4c-0.4-1.5-1-3.6-2.3-5.6c-1.2-2-2.8-3.5-4.1-4.2C414.2,133.9,413.2,133.7,413.3,133.7z"/>
					</g>
					<g>
						<path class="st9" d="M420.4,145.9c-0.1,0.1-0.4-0.3-0.9-1c-0.5-0.7-1.1-1.6-1.5-2.9c-0.4-1.2-0.3-2.5-0.1-3.3
							c0.3-0.8,0.6-1.2,0.7-1.2c0.1,0.1-0.1,0.5-0.3,1.3c-0.1,0.8-0.1,1.9,0.3,3s0.9,2.1,1.2,2.8
							C420.3,145.5,420.5,145.9,420.4,145.9z"/>
					</g>
				</g>
			</g>
			<g>
				<g>
					<path class="st20" d="M432.3,127c-0.2-0.1,0.1-0.8,1-1.5c0.9-0.8,2.5-1.6,4.5-2c2-0.4,4-0.3,5.2-0.1c1.3,0.3,2,0.7,1.9,0.9
						c-0.2,0.4-3.2-0.1-6.5,0.7C434.9,125.7,432.8,127.3,432.3,127z"/>
				</g>
				<g>
					<path class="st9" d="M443.2,148.3c0.2-0.1,0.6,0.5,1.4,1.2c0.8,0.7,2.1,1.5,3.9,2.1c1.7,0.5,3.5,0.5,4.7,0.5
						c1.2-0.1,2.1-0.3,2.1-0.1c0.1,0.1-0.5,0.5-1.9,0.8c-1.3,0.3-3.4,0.4-5.4-0.2s-3.5-1.7-4.2-2.6
						C443.1,148.9,443,148.3,443.2,148.3z"/>
				</g>
				<g>
					<path class="st9" d="M459.5,124.3c0-0.2,0.6-0.5,1.6-0.6c1-0.1,2.5-0.1,3.9,0.3c1.4,0.3,2.5,1,3.2,1.6c0.6,0.6,0.6,1.2,0.3,1.3
						c-0.3,0.1-0.7-0.1-1.4-0.4c-0.7-0.3-1.8-0.6-2.9-1C461.8,124.8,459.6,124.8,459.5,124.3z"/>
				</g>
				<path class="st9" d="M455.9,129.9c-0.5,1.6-0.7,3.2-0.8,4.8c-0.1,1.6-0.1,3.2,0,4.9l0.1,1.2l0.1,0.3c0,0.1,0.1,0.3,0.1,0.4
					c0.1,0.3,0.1,0.5,0.3,0.8c0.3,0.5,0.6,0.9,1.2,1.2c0.2,0.1,0.5,0.2,0.8,0.3c0.1,0,0.2,0,0.3,0.1c0.3,0.2,0.5,1,0.3,1.6
					c-0.2,0.7-0.8,1.3-1.2,1.9c0.8-0.3,1.4-0.8,2-1.6c0.3-0.4,0.4-0.9,0.4-1.4s-0.1-1.1-0.6-1.5c-0.2-0.2-0.5-0.4-0.8-0.5
					c-0.1-0.1-0.2-0.1-0.3-0.1c-0.2-0.1-0.3-0.3-0.5-0.6c-0.1-0.1-0.1-0.3-0.1-0.4c0-0.1,0-0.1,0-0.2v-0.3l-0.1-1.2l-0.3-4.7
					C456.2,133.1,456.1,131.5,455.9,129.9z"/>
				<g>
					<path class="st9" d="M447.5,137.9c-0.8-1-1.7-1.6-2.7-1.9c-1-0.3-2-0.4-3.1-0.3c-1,0.1-2.1,0.3-3.1,0.8c-1,0.4-1.9,1-2.8,1.7
						l-0.1,0.1c-0.1,0.1-0.3,0.1-0.4,0c-0.4-0.4-0.8-0.8-1.2-1.2c0.5,0.1,1.1,0.3,1.6,0.5l-0.5,0.1c0.6-1.1,1.6-2.1,2.7-2.7
						c1.1-0.6,2.4-1,3.7-1.1c1.3-0.1,2.7,0.2,3.8,0.9C446.6,135.5,447.4,136.7,447.5,137.9z"/>
					<path class="st9" d="M436.1,137.3l-0.7-1l1.2,0.3c0.3,0.1,0.4,0.3,0.4,0.5c-0.1,0.3-0.3,0.4-0.5,0.4
						C436.3,137.4,436.1,137.4,436.1,137.3z"/>
				</g>
				<g>
					<path class="st9" d="M459.5,138c0.5-1,1.2-1.8,1.9-2.3c0.8-0.5,1.7-0.7,2.6-0.7c1-0.1,1.9,0.1,2.8,0.3c1,0.3,1.9,0.7,2.8,1.2
						l0.1,0.1c0.1,0.1,0.3,0.1,0.3-0.1c0.3-0.4,0.5-0.9,0.8-1.4c-0.5,0.2-0.9,0.5-1.3,0.8h0.5c-0.8-1-1.8-1.8-2.9-2.3
						c-1.1-0.5-2.3-0.7-3.4-0.6c-1.2,0.1-2.3,0.5-3.2,1.4C459.8,135.6,459.4,136.8,459.5,138z"/>
					<path class="st9" d="M469.4,135.9l0.4-1.1l-1,0.4c-0.2,0.1-0.3,0.3-0.2,0.6c0.1,0.3,0.3,0.4,0.6,0.3
						C469.3,136.1,469.4,136,469.4,135.9z"/>
				</g>
			</g>
			<path class="st20" d="M455,89.9c4.1,1.8,7.8,4.4,10.8,7.7c2.7,3,5.3,6.5,5.6,10.4c0.2,2.3-0.4,4.6-0.4,6.9
				c0.1,4.6,4.5,7.1,4.7,11.9c0.1,1.4,0.1,2.9-0.5,4.2c-0.5,1.3-1.9,2.4-3.4,2.5c2.1-1.9,0.9-5.7-1.9-6.3c-3.3-0.8-5.8-0.9-9.3-1
				c-9.6-0.1-19.1-4.8-24.5-12.1c-1,4.8-4,9.2-8.2,12c-1,0.7-2.1,1.4-2.7,2.4c-0.6,1.4,0,3,0.5,4.5c3,8.1,1.6,17.4-3.8,24.3
				c1.9-6.9,1-14.5-2.3-21c-0.9-1.9-2.2-3.7-4.3-4.4c-2.1-0.6-4.9,0.9-4.4,2.9c-3.2-8.5-5.6-17.5-3.7-26.2
				C411.7,88.4,437.2,82,455,89.9z"/>
		</g>
		<path class="st9" d="M417.8,306.2c0,0-13.6,14-15.1,43.8c-1.9,37,61.5,200.3,61.5,200.3s21.4,3.6,25-2.6
			c3.6-6.2-30.2-193-30.2-193l37.6-15.1c0,0-1.6-20.4-11.4-30.8C478.3,319.3,417.8,306.2,417.8,306.2z"/>
		<path class="st20" d="M418,93.4c-10.6,7.6-12.6,22.3-13.6,35.3c-1,11.7-1.9,23.5-0.5,35.2s5.3,23.3,13.1,32.1
			c6.6,7.5,15.6,12.5,23.2,18.8c7.7,6.4,14.5,15.3,14,25.3c9.7-8.1,10.4-23.2,6.2-35.1c-4.2-11.9-12.3-22.1-18-33.4
			c-8.5-17-11.4-36.7-8.1-55.4c0.7-3.9,1.6-7.9,1.2-11.9c-0.5-4-2.9-8-6.7-9.1"/>
		<path class="st8" d="M468.1,250.2c6.5-1.6,12.8-3.9,19-6.8c-0.6,3.6-3.1,6.5-5.8,8.1c-2.8,1.6-6,2.1-9,2.7
			c-5.3,0.9-42.4,11-39.5-2.2c1.6-7.7,8.6-3.3,12.1-2.1C452.7,252.5,460.1,252.2,468.1,250.2z"/>
		<path class="st8" d="M456.1,272.8c5.4-0.1,11-0.8,15.8-3.4c4.8-2.5,8.7-7.4,8.8-12.8c-16.4,2.3-32.7,4.7-49.1,7.1
			c-10.8,1.6-3.2,5.6,2.9,7.1C441.5,272.5,449,272.9,456.1,272.8z"/>
		<path class="st8" d="M412.1,176.4c4,14.3,13.8,25.5,24.9,28.6c-7.6-11.2-13.6-24.5-17.5-38.7c2.4,2.9,4.9,5.9,7.3,8.8
			c-3.4-4-4.5-15.6-5.3-21.2c-0.8-6.4-2.1-12.4-2.3-18.9c-0.2-5.8-0.8-12.3-4-16.2C410.8,137.2,406.7,157,412.1,176.4z"/>
		<g>
			<path class="st11" d="M415.7,118c1.1,4.1-4,9-8.1,10.1s-5.7-2.1-6.8-6.2c-1.1-4.1-1.3-7.6,2.8-8.7
				C407.8,112.1,414.6,113.9,415.7,118z"/>
			<path class="st11" d="M412.2,118.9c-1.1-4.1,4-9,8.1-10.1c4.1-1.1,5.7,2.1,6.8,6.2s1.3,7.6-2.8,8.7
				C420.2,124.7,413.3,123,412.2,118.9z"/>
			
				<ellipse transform="matrix(0.9661 -0.258 0.258 0.9661 -16.6519 110.6729)" class="st11" cx="413.4" cy="118.8" rx="4.7" ry="4.7"/>
			
				<ellipse transform="matrix(0.9661 -0.258 0.258 0.9661 -16.6519 110.6729)" class="st8" cx="413.4" cy="118.8" rx="4.7" ry="4.7"/>
		</g>
	</g>
	<g>
		<g>
			<path class="st9" d="M658.6,578.7c9.3,2.9,12.5,2.7,22.3,2.1l16.2,13.2c0,0,18.6,14.3,16.7,19.4s-53.1-11.5-53.1-11.5
				s-8.6-2.7-5.3-11.8C657.4,584.6,659.2,583.6,658.6,578.7z"/>
		</g>
		<g>
			<path class="st9" d="M614.7,580.2c-9.5,2.1-12.7,1.5-22.5-0.1l-17.3,11.7c0,0-19.9,12.5-18.4,17.8c1.4,5.3,53.9-6.6,53.9-6.6
				s8.8-1.9,6.3-11.2C615.4,586.1,613.7,585,614.7,580.2z"/>
		</g>
		<path class="st21" d="M743.4,16.7c0.2-0.8,0.5-1.7,0.8-2.5c0.5-1.3,0.9-4.3,2.1-5.1c0.1-0.1,3.2-1.3,2.9-0.3
			c2.3-6.9,6.6,0.7,7.7,3.8c2.2,6.8,3.1,17.8,1.5,24.9c-1.4,6.1-4.6,18.3-13.2,16.3c-11.7-2.7-10.7-21.9-11-30.8
			c3.8,0.7,4.9,3.9,7,6.5C742,26.7,742.7,19.4,743.4,16.7z"/>
		<path class="st10" d="M629.7,164.3l25.9-5.2l46.4-39.6l31.8-78.7c0,0,23.4,2.6,22.4,8.4c-1,5.8-27.1,96-27.1,96l-65.2,61.5
			L629.7,164.3z"/>
		<polygon class="st22" points="665.5,205 657.2,159.1 714.5,137.7 756.3,49 729.2,145 		"/>
		<path class="st3" d="M674.4,311.4l12,270.2c0,0-30.2,4.7-33.4-3.6c-3.2-8.4-26.1-253-26.1-253L674.4,311.4z"/>
		<path class="st22" d="M673.9,319.2l12.5,262.4c0,0-30.2,4.7-33.4-3.6c-3.2-8.4-26.1-249.3-26.1-249.3L673.9,319.2z"/>
		<path class="st3" d="M575.3,324.4l6.8,258.2c0,0,33.4,5.8,36.5,0c3.2-5.8,11.4-213.8,11.4-213.8l11.4-18.2l29.2-38.6L575.3,324.4z
			"/>
		
			<linearGradient id="SVGID_7_" gradientUnits="userSpaceOnUse" x1="577.432" y1="381.9125" x2="672.6313" y2="381.9125" gradientTransform="matrix(1 0 0 -1 0 630)">
			<stop  offset="0.2012" style="stop-color:#FFD584"/>
			<stop  offset="0.9175" style="stop-color:#FCD271"/>
		</linearGradient>
		<path class="st23" d="M581.4,289.7c1.8,13.5,4.1,27.2,2.3,40.7c21.1,7.6,44.8,7.8,66.1,0.6c7.2-2.4,14.4-6,18.6-12.3
			c6.1-9.2,4.2-21.3,1.9-32.1c-6.6-31.7-14.1-63.1-22.3-94.4c-1.8-6.7-3.8-16.3-8.2-21.7c-7.3-8.8-19.3-8.6-30.3-7.7
			c-7,0.5-17.7-5.9-23.4-1.2c-7.6,6.2-7.4,27.8-8,36.5c-0.9,14.3-1.1,28.6-0.8,42.9C578.1,257.4,579.3,273.5,581.4,289.7z"/>
		<polygon class="st10" points="548.7,184.7 524.2,277.5 571.6,319.2 		"/>
		<polygon class="st22" points="548.7,184.7 524.2,277.5 571.6,319.2 		"/>
		<g>
			<g>
				<path class="st21" d="M571.2,104.2c-2.1,1-3.1,3.4-3.3,5.8c-0.6,6.9,4,13.8,10.6,15.9c2,0.6,4.5,0.7,5.8-0.9
					c1.4-1.6,0.8-4,0.1-6C582.8,115.2,577,101.7,571.2,104.2z"/>
				<g>
					<g>
						<path class="st9" d="M570.1,109.8c0-0.1,1.1,0,2.5,0.8c1.5,0.8,3.2,2.4,4.5,4.7s1.7,4.5,2.1,6.1c0.3,1.6,0.3,2.6,0.2,2.7
							c-0.1,0-0.3-1-0.7-2.5c-0.4-1.6-1-3.8-2.1-5.9s-2.8-3.7-4.1-4.6C571.1,110.2,570.1,109.9,570.1,109.8z"/>
					</g>
					<g>
						<path class="st9" d="M577.2,122.8c-0.1,0.1-0.4-0.3-0.9-1c-0.5-0.7-1.1-1.8-1.4-3.1c-0.3-1.3-0.3-2.6,0-3.4s0.7-1.2,0.8-1.2
							c0.1,0.1-0.1,0.5-0.3,1.3c-0.1,0.8-0.1,1.9,0.1,3.1c0.3,1.2,0.8,2.2,1.2,3C577,122.3,577.2,122.8,577.2,122.8z"/>
					</g>
				</g>
			</g>
			<g>
				<path class="st21" d="M642.1,104.2c2.1,1,3.1,3.4,3.3,5.8c0.6,6.9-4,13.8-10.6,15.9c-2,0.6-4.5,0.7-5.8-0.9
					c-1.4-1.6-0.8-4-0.1-6C630.6,115.2,636.4,101.7,642.1,104.2z"/>
				<g>
					<g>
						<path class="st9" d="M643.2,109.8c0-0.1-1.1,0-2.5,0.8c-1.5,0.8-3.2,2.4-4.5,4.7s-1.7,4.5-2.1,6.1c-0.3,1.6-0.3,2.6-0.2,2.7
							c0.1,0,0.3-1,0.7-2.5c0.4-1.6,1-3.8,2.1-5.9s2.8-3.7,4.1-4.6C642.3,110.2,643.3,109.9,643.2,109.8z"/>
					</g>
					<g>
						<path class="st9" d="M636.2,122.8c0.1,0.1,0.4-0.3,0.9-1c0.5-0.7,1.1-1.8,1.4-3.1c0.3-1.3,0.3-2.6,0-3.4
							c-0.3-0.8-0.7-1.2-0.8-1.2c-0.1,0.1,0.1,0.5,0.3,1.3c0.1,0.8,0.1,1.9-0.1,3.1c-0.3,1.2-0.8,2.2-1.2,3
							C636.3,122.3,636.1,122.8,636.2,122.8z"/>
					</g>
				</g>
			</g>
			<path class="st21" d="M619.5,138.6l1.2,18.8c0.3,5.2-3.8,9.7-9,9.7h-4.5c-4.6,0-8.5-3.4-9-8l-3.4-27.8L619.5,138.6z"/>
			<path class="st22" d="M597.6,154.1l-2.7-22.8l24.7,7.3l1.2,17.8C612.8,157.7,605.1,156.5,597.6,154.1z"/>
			<path class="st21" d="M634.5,124.1c-0.6,6.4-3.6,12.7-8.2,17.2c-8.6,8.4-19.2,8.7-29.8,4.2c-8.8-3.7-13.1-8.4-14.4-17.9
				c-1.3-9.9-4-19.7-0.3-29.3c2-5.3,5.6-9.5,9.7-12.4c4-2.9,8.5-4.7,12.9-6.4c7.5-2.9,18.8-6.6,25,2.3c7.1,10.3,6.2,30,5.3,41.9
				C634.5,123.8,634.5,123.9,634.5,124.1z"/>
			<g>
				<path class="st9" d="M590.9,123c-3.8-2.3-3.2-12.9-6.5-14.3c-1.1-0.5-2.3,0.4-2.8,1.5c-0.4,1.1-0.3,2.3-0.1,3.5
					c1,6.8-3,14.7-1.2,21.4c2,7.3,12.9,13.3,19.5,15.4c8.5,2.7,18,2,26-1.9c3.6-1.7,7-4.1,9.1-7.5c2.3-3.6,4.5-13.6-0.1-16.5
					c1.5-3.2,1-7.3-1.4-9.9c1.6-2.9,1.6-6.6,0-9.5c-3.1,3.8-1.8,11-4.4,15c-3.2,5.1-13.4,6-18.7,6
					C605.1,126.1,595.5,125.8,590.9,123z"/>
				<g>
					<path class="st9" d="M590.6,102.4c-0.2-0.1,0-0.8,0.9-1.6c0.9-0.8,2.5-1.7,4.6-2.3c2.1-0.5,4.1-0.5,5.4-0.3
						c1.4,0.2,2.1,0.6,2,0.8c-0.2,0.5-3.3,0.1-6.7,1C593.3,101,591.2,102.7,590.6,102.4z"/>
				</g>
				<g>
					<path class="st9" d="M614.5,99.6c0.1-0.2,1-0.3,2.5-0.3c1.5,0.1,3.6,0.4,5.6,1.1c2,0.7,3.4,1.5,4.2,2.3
						c0.8,0.8,0.5,1.4,0.1,1.4c-0.4,0.1-1-0.3-1.9-0.8c-1-0.4-2.4-1-4-1.6C617.6,100.6,614.4,100.1,614.5,99.6z"/>
				</g>
				<g>
					<g>
						<path class="st9" d="M619.7,113.7c1,0,2.1-1.4,1.9-3.1c-0.1-1.7-1.4-3-2.4-3c-1,0.1-1.5,1.4-1.4,3.1
							C618,112.3,618.6,113.7,619.7,113.7z"/>
					</g>
				</g>
				<g>
					<g>
						<path class="st9" d="M596.5,115c1,0.2,2.3-1,2.4-2.7s-0.8-3.2-1.9-3.4c-1-0.1-1.7,1.1-1.9,2.7
							C595,113.4,595.5,114.8,596.5,115z"/>
					</g>
				</g>
				<path class="st9" d="M608.9,107.5c0.3,1.7,0.5,3.4,0.7,5l0.5,4.9l0.1,1.2l0.1,0.6c0,0.1,0.1,0.2,0.1,0.3
					c0.1,0.2,0.3,0.4,0.5,0.5c0.1,0.1,0.3,0.1,0.4,0.1c0.3,0.1,0.6,0.2,0.9,0.4c0.5,0.5,0.7,1,0.7,1.6c0,0.5-0.1,1-0.4,1.4
					c-0.5,0.8-1.3,1.3-2.1,1.7c0.5-0.7,1.1-1.4,1.2-2.1c0.2-0.7,0-1.4-0.3-1.6c-0.1-0.1-0.1-0.1-0.3-0.1c-0.3,0-0.5-0.1-0.8-0.2
					c-0.5-0.2-1-0.6-1.3-1.2c-0.1-0.3-0.3-0.5-0.3-0.9l-0.1-0.6l-0.1-1.2c-0.2-1.7-0.2-3.4-0.1-5.1
					C608.3,110.8,608.5,109.1,608.9,107.5z"/>
				<g>
					<path class="st4" d="M614.5,133.1c-0.1-0.1-0.6,0.3-1.4,0.8c-0.8,0.4-2.1,1-3.6,1.1c-1.5,0.1-3-0.1-4-0.3
						c-1-0.3-1.6-0.5-1.8-0.4c-0.1,0.1,0.4,0.5,1.5,1c1.1,0.5,2.7,0.9,4.6,0.7c1.9-0.2,3.2-0.9,3.9-1.5
						C614.5,133.7,614.7,133.2,614.5,133.1z"/>
				</g>
			</g>
			<path class="st9" d="M589.9,93.3c2.1,0.4,4.2,0.3,6.2-0.2c-1.5-1.6,0.4-4.9,2.5-4.2c4.5,5.3,12.1,7.6,18.7,5.8
				c-1.5-2,0.5-5.4,3-5c1.3,2.7,2.6,5.3,4,8c8.2-0.7,15.1-8.3,15.1-16.4c0-19.9-28.2-19.5-41.9-18.1c-9.7,1-21.7,6-20,18
				C578.5,87.3,583.9,92.1,589.9,93.3z"/>
			<path class="st9" d="M584.9,72.1c-5,0.7-8.6,5.3-10.3,10.1c-2.6,7.3-2.2,15.6,1.2,22.5c0.8,1.5,1.6,2.9,2.5,4.4
				c1.6,2.5,4.8,10.2,7.4,5.1c0.8-1.6-0.3-6.3-0.3-8.2c0.1-2.7,0.2-5.5,0.7-8.2c1.2-6.8,4.5-13.5,10.2-17.4
				c5.1-3.4,11.9-4.3,17.7-2.3c5.8,1.9,10.7,6.6,13.1,12.2c3.9,9.2,1.5,20.1,5.1,29.3c-1.8-4.5,4.1-9.9,6.2-13.2
				c2.6-4,3.6-8.8,3.6-13.6c-0.1-6.9-2.1-15.7-6.5-21.1c-4-4.9-16.4-2.9-20.4,1.4"/>
		</g>
		<path class="st22" d="M632.9,168.4c0.8-4-2.5-7.5-6.6-7.1c-8.2,1-16.5,1.3-24.8,0.9c-3.6-0.2-10.3-2.3-13.6-1.3
			c-3.4,1-3.5,3.4-3.2,7.6c0.2,2.7,1.2,5.4,3.3,7.1c2.1,1.6,4.7,2.1,7.3,2.5c11,1.2,24,1.8,33.8-1C633,176,632.1,172.4,632.9,168.4
			C632.9,168.5,632.9,168.5,632.9,168.4z"/>
		<path class="st10" d="M586.2,161.7l-37.6,23l19.9,195.1c0,0,22.4-8.4,24.5-15.6C595.1,356.7,586.2,161.7,586.2,161.7z"/>
		<path class="st10" d="M629.7,164.3L665,343.7c0,0,5.8,16.7,16.7,18.2c11,1.6-22.8-191.4-22.8-191.4L629.7,164.3z"/>
		
			<linearGradient id="SVGID_8_" gradientUnits="userSpaceOnUse" x1="583.8957" y1="468.2374" x2="632.3203" y2="468.2374" gradientTransform="matrix(1 0 0 -1 0 630)">
			<stop  offset="0.2012" style="stop-color:#FFD584"/>
			<stop  offset="0.9175" style="stop-color:#FCD271"/>
		</linearGradient>
		<path class="st24" d="M632.2,160.3c0.8-4-2.5-7.5-6.6-7.1c-8.2,1-16.5,1.3-24.8,0.9c-3.6-0.2-10.3-2.3-13.6-1.3
			c-3.4,1-3.5,3.4-3.2,7.6c0.2,2.7,1.2,5.4,3.3,7.1c2.1,1.6,4.7,2.1,7.3,2.5c11,1.2,24,1.8,33.8-1
			C632.3,167.9,631.5,164.2,632.2,160.3C632.2,160.3,632.2,160.3,632.2,160.3z"/>
		<path class="st22" d="M614.5,302.7c-3.4,0.3-7.1,0.3-10.3,1.2s-5.6,3-4.1,4.8c1.5,1.7,5.5,2,8.9,2c3.8,0,7.6-0.1,11.4-0.2
			c8.9-0.4,18.6-1.5,24.3-5.5c3.6-2.5,4.9-5.9,3.8-9c-0.8-1.9-3.2-5.2-6.8-5.8c-5.2-0.9-5.5,1.4-7.4,3.4
			C630.1,298.1,623.6,301.7,614.5,302.7z"/>
	</g>
	<g>
		<path class="st11" d="M678.7,27c-14.3,0.1-25.8,11.1-25.7,24.5c0,3.7,1,7.2,2.5,10.3l-7.8,11l14.4-2.9c4.6,3.6,10.5,5.8,17,5.8
			c14.3-0.1,25.8-11.1,25.7-24.5C704.7,37.7,692.9,26.9,678.7,27z"/>
		<path class="st4" d="M692.1,49c-0.3-4-3.8-7.1-7.8-6.7c-2.4,0.2-4.4,1.5-5.6,3.4c-1.4-1.6-3.6-2.7-6-2.5c-4,0.3-7.1,3.8-6.7,7.8
			c0.4,5.2,8.3,9.4,12.1,12.4c0.9,0.7,2.1,0.6,2.9-0.2C684.6,59.4,692.5,55,692.1,49z"/>
	</g>
	<g>
		<path class="st11" d="M774.1,610.7c1.9,5.1,4,9.1,5.8,10.7c3.3,2.7,8.2,3.7,11.9,1.6c3.4-2,5.1-6.2,5.1-10.2
			c0-6.2-3.2-9.8-5.8-14.9c-3.6-7.2-5.4-15.9-8-23.5c-1-3-2.3-6.4-5.3-7.6C763.1,560.4,767.5,592.7,774.1,610.7z"/>
		<path class="st25" d="M774.1,610.7c1.9,5.1,4,9.1,5.8,10.7c3.3,2.7,8.2,3.7,11.9,1.6c3.4-2,5.1-6.2,5.1-10.2
			c0-6.2-3.2-9.8-5.8-14.9c-3.6-7.2-5.4-15.9-8-23.5c-1-3-2.3-6.4-5.3-7.6C763.1,560.4,767.5,592.7,774.1,610.7z"/>
		<path class="st9" d="M803.8,304.4c0,0,17.3,24.5,13.3,118.5c-3.1,73.3-32.1,151.1-32.1,151.1s-19.5,1.2-23.7-4.9
			c-4.2-6.2,13.5-148.2,11.6-159.9c-1.9-11.7-8.4-81.2-8.4-81.2l2.5-31.4L803.8,304.4z"/>
		<path class="st25" d="M803.8,304.4c0,0,17.3,24.5,13.3,118.5c-3.1,73.3-32.1,151.1-32.1,151.1s-19.5,1.2-23.7-4.9
			c-4.2-6.2,13.5-148.2,11.6-159.9c-1.9-11.7-8.4-81.2-8.4-81.2l2.5-31.4L803.8,304.4z"/>
		<path class="st26" d="M731.4,303.2c21.7,10.7,50.2,2.9,72.9,0.1c-5.4,0.7-12.1-61.3-13.1-67.6c-0.3-2-46.7,4.7-52.2,5.4
			c1,12.4,0.5,24.3,0,36.7C738.8,280.6,735.4,305.1,731.4,303.2z"/>
		<g>
			<path class="st26" d="M736.1,470.4c0,0,2.5,23.3,31.4,118.6c-0.7,4.1-1.2,10.8,2,14.4c3.2,3.6,23.8-10.8,18.2-17.1
				c-17.5-19.7-11.3-78.9-14-100.5l-11.5-22.3L736.1,470.4z"/>
			<path class="st11" d="M784.4,578.2c-6.6,5.3-9.3,6.2-17.5,8.8l-8.9,15.8c0,0-10.6,17.4-7.4,21c3.2,3.6,39.4-26.2,39.4-26.2
				s6.1-4.9,0.5-11.2C787.1,582.6,785.5,582.4,784.4,578.2z"/>
		</g>
		<path class="st3" d="M805.3,198.6c6.8,20.8,10.7,42.5,11.7,64.4c5.3-0.1,10.6-0.3,15.8-0.5c1.6-0.1,3.2-0.1,4.5-0.9
			c2.5-1.4,3.1-4.7,3.4-7.6c1.1-12.7,0.2-25.6-2.5-38c-1.4-6.1-3-12.3-5.6-18c-2.1-4.7-3.4-10.1-7.6-13.5c-3-2.5-7.1-3.4-11-3.2
			c-3.9,0.2-7.7,1.6-11.1,3.4"/>
		<path class="st3" d="M702.5,249c-1.1,2.9-2.2,6.3-0.5,8.8c1.1,1.6,3,2.5,4.9,3.2c3.6,1.4,7.5,2.6,11.2,1.7c4.5-1.1,7.8-5,10.5-8.8
			c7.4-10.6,13-22.6,16.3-35.1c1.9-7.1,3.1-14.7,0.8-21.6c-2.4-7.3-14.8-18.6-19.9-7.8c-5.8,12.3-10,25.8-14.9,38.4
			C707.9,235,705.2,242,702.5,249z"/>
		<path class="st25" d="M702.5,249c-1.1,2.9-2.2,6.3-0.5,8.8c1.1,1.6,3,2.5,4.9,3.2c3.6,1.4,7.5,2.6,11.2,1.7
			c4.5-1.1,7.8-5,10.5-8.8c7.4-10.6,13-22.6,16.3-35.1c1.9-7.1,3.1-14.7,0.8-21.6c-2.4-7.3-14.8-18.6-19.9-7.8
			c-5.8,12.3-10,25.8-14.9,38.4C707.9,235,705.2,242,702.5,249z"/>
		<path class="st9" d="M802.6,164.2c-4.5,4.1-11.8,7.1-18,6.2c-2.7-0.4-4.3-2.4-7.1-3c-3.3-0.8-6.9-0.3-10.1,0.5
			c-5,1.2-9.9,3.4-15.1,3.2c-8.2-0.3-15.8-7.2-16.8-15.4c-3-0.4-6.1-0.8-8.8-2.3s-4.9-4.2-4.7-7.2c0.1-2.9,2.3-5.6,2.5-8.5
			c0.3-4.7-3.4-8.8-3.2-13.7c0.2-6,2.9-8.8,8.1-11.4c2.2-1.2,4.5-2.5,5.6-4.8c1.4-2.9,0.7-6.5,2.4-9.3c1.6-2.5,4.7-3.6,7.6-4.3
			c7.6-2.1,15.1-4.1,22.8-6.1c6-1.6,12.3-3.2,18.2-1.3c2.2,0.7,4.2,1.9,6.1,3c8.6,4.3,15.4,8.3,19.3,17.3c2.1,4.9,4.3,9.9,6.4,14.9
			c1.6,3.7,3.2,8.1,1.1,11.6c-1.4,2.3-4.1,3.7-4.7,6.3c-0.5,2.5,1.3,4.8,2.3,7.2C820.2,156.1,811.6,164.6,802.6,164.2z"/>
		<path class="st9" d="M731,303.2c-12.7,34.1-15.8,67.7-9.6,103.6c0.7,4,1.5,11.5,2.3,15.4c1,4.8,1.4,9.7,2.2,14.6
			c1.6,9.7,3.4,19.3,5.3,28.9c3.6,17.8,7.8,35.4,12.5,52.8c4.7,17.9,11.5,41.8,17.4,59.4c0,0,17.8-1.6,21.9-7.8
			c4-6.2-17.1-151.5-15.5-163.3c3.2-23,4.2-46.5,6.1-69.6c2.9-0.8,38.2-10.7,38.2-10.8c-3.2-10.4-6.3-20.8-9.5-31.2
			c-22.4,5.8-46.1,6.3-68.8,1.7C732.5,299,731.7,301.1,731,303.2z"/>
		<path class="st25" d="M786.3,274.6c3-0.9,6-2.1,8.2-4.5c2.1-2.3,3-6,1.4-8.6c0.1,0.1-26.7,6-29.4,6.2c-9.7,1-19.3-0.4-28.9,0
			c3,5.3,13.9,7.5,19.5,8.5C766.7,277.9,776.9,277.5,786.3,274.6z"/>
		<path class="st3" d="M763.7,171.2c-11.7,4.8-23.3,9.6-35,14.4c6.8,4.5,7.5,14.2,5.6,22.1c-1.9,7.9-5.4,15.8-4.3,23.8
			c0.8,6,4.1,11.4,5.8,17.3c1.4,5.2-3.8,13.8-2.6,16.8c2,5,16.8,5.3,21.7,5.8c10.3,0.8,46,1,50.9-11c1.7-4.2-2.7-12.1-2.7-16.7
			c0.1-9.9,3.8-21,6.9-30.3c2.9-8.4,6.4-16.5,10.7-24.3c1.1-2.1,3.8-4,2.2-6c-1-1.3-4-1.6-5.4-2.2c-3.9-1.3-7.8-2.6-11.7-4
			c-7.8-2.6-15.6-5.3-23.4-7.9"/>
		<g>
			<g>
				<path class="st26" d="M776.3,150.1c3.4,8.4,6.1,18.9,14.9,22c-4.4,10.7-13.5,19.3-24.4,23.1c-1.3,0.5-2.9,0.8-4.1,0.1
					c-0.7-0.5-1.2-1.2-1.5-2c-1.6-3.1-2.9-6.4-3.8-9.7c-0.6-2.3-1.2-4.7-0.7-6.9c0.6-3.2,4.5-3.9,4.9-6.5c0.3-2.5-2.8-5.9-3.8-8.1
					c-1.8-3.8-3.6-7.5-5.3-11.4L776.3,150.1z"/>
				<path class="st25" d="M761.4,170.2l-9-19.4l24-0.7l6.2,15.5C776,169,768.8,170.1,761.4,170.2z"/>
				<path class="st26" d="M737.4,143.9c0.5,4.6,2.5,9.1,4.9,12.7c2.5,3.7,5.6,4.9,9.3,6.3c12,4.3,29.1,2.6,34.4-13
					c2.1,1.4,4.9-0.5,5.8-3.2c0.8-2.5,0.3-4.7,0.3-7.2c0.1-2.1,0.3-4,0.3-6.2c-0.1-5.1-0.5-10.4-2.5-15.1c-2.1-4.9-5.6-8.6-9.6-11.2
					c-4-2.6-8.3-4.1-12.5-5.6c-7.3-2.5-18.2-5.7-24.1,2.7c-3.4,4.9-2.3,14.5-3.6,20.4C738.7,130.9,736.7,137.3,737.4,143.9z"/>
				<g>
					<path class="st26" d="M798.8,131.4c1.9,1.2,2.5,3.8,2.5,6.1c-0.3,6.8-5.7,13-12.4,14.2c-2,0.3-4.5,0.1-5.6-1.6
						c-1.1-1.8-0.3-4,0.8-5.9C786,140.7,793.5,128.1,798.8,131.4z"/>
					<g>
						<g>
							<path class="st9" d="M799.1,137c0-0.1-1-0.1-2.6,0.5c-1.6,0.5-3.5,1.9-5,4c-1.5,2.1-2.3,4.2-2.7,5.8s-0.6,2.5-0.5,2.5
								c0.1,0,0.4-0.9,1-2.4c0.6-1.5,1.4-3.6,2.9-5.5c1.4-1.9,3.2-3.3,4.7-3.9C798.1,137.2,799.2,137.2,799.1,137z"/>
						</g>
						<g>
							<path class="st9" d="M790.5,148.9c0.1,0.1,0.5-0.3,1-0.9s1.3-1.6,1.8-2.8c0.5-1.2,0.6-2.5,0.4-3.4c-0.2-0.9-0.5-1.3-0.6-1.2
								c-0.1,0.1,0.1,0.5,0.1,1.3c0.1,0.8-0.1,1.9-0.5,3c-0.5,1.1-1.1,2.1-1.6,2.7C790.7,148.3,790.5,148.8,790.5,148.9z"/>
						</g>
					</g>
				</g>
				<g>
					<g>
						<path class="st9" d="M777.3,131.5c0.2-0.1,0.1-0.8-0.8-1.6c-0.8-0.8-2.3-1.9-4.4-2.5c-2-0.6-4-0.8-5.3-0.6
							c-1.4,0.1-2.1,0.5-2,0.7c0.1,0.5,3.2,0.3,6.6,1.4C774.8,130,776.8,131.8,777.3,131.5z"/>
					</g>
					<g>
						<path class="st9" d="M767,148.9c-0.2-0.1-0.7,0.4-1.6,1c-0.9,0.6-2.3,1.3-4.2,1.6s-3.6,0.2-4.9,0s-2.1-0.5-2.2-0.3
							c-0.1,0.1,0.5,0.6,1.9,1.1c1.3,0.4,3.4,0.8,5.6,0.3s3.8-1.4,4.5-2.2C767.1,149.6,767.2,148.9,767,148.9z"/>
					</g>
					<g>
						<path class="st9" d="M752.2,125.6c0-0.2-0.5-0.5-1.6-0.8c-1-0.3-2.5-0.3-4-0.1c-1.5,0.2-2.7,0.8-3.4,1.3
							c-0.7,0.5-0.8,1.2-0.5,1.3c0.3,0.1,0.8-0.1,1.5-0.3c0.8-0.2,1.9-0.5,3.2-0.7C749.8,125.9,752.1,126.1,752.2,125.6z"/>
					</g>
					<path class="st9" d="M756,128.8c0.3,1.6,0.4,3.4,0.3,5s-0.2,3.4-0.5,5l-0.2,1.2l-0.1,0.3c0,0.1-0.1,0.3-0.1,0.4
						c-0.1,0.3-0.2,0.5-0.3,0.8c-0.3,0.5-0.8,0.8-1.3,1c-0.3,0.1-0.5,0.2-0.8,0.2c-0.1,0-0.2,0-0.3,0.1c-0.3,0.1-0.6,0.9-0.5,1.6
						c0.1,0.7,0.6,1.4,1.1,2.1c-0.7-0.4-1.4-1-1.9-1.8c-0.2-0.4-0.3-1-0.3-1.4c0.1-0.5,0.3-1.1,0.8-1.5c0.3-0.2,0.5-0.3,0.9-0.4
						c0.1,0,0.3-0.1,0.3-0.1c0.2-0.1,0.4-0.3,0.5-0.5c0.1-0.1,0.1-0.3,0.1-0.4c0-0.1,0.1-0.1,0.1-0.2l0.1-0.3l0.2-1.2l0.8-4.9
						C755.3,132,755.6,130.4,756,128.8z"/>
					<g>
						<g>
							<path class="st9" d="M767.4,139.4c0.9,0.2,1.9-0.8,2.1-2.2c0.2-1.4-0.6-2.7-1.4-2.9c-0.9-0.1-1.5,0.9-1.7,2.3
								C766.1,138,766.5,139.2,767.4,139.4z"/>
						</g>
						<path class="st9" d="M768.1,135.6c0.9-0.2,1.7-0.8,2.2-1.6c0.3,1-0.4,2.3-1.5,2.5c1,0.4,2.2,0.3,3.1-0.3
							c-0.9,1.2-2.5,1.6-3.8,1"/>
					</g>
					<g>
						<g>
							<path class="st9" d="M748.5,138.1c-0.9,0.1-1.8-1-1.8-2.5s1-2.7,1.9-2.7c0.9-0.1,1.4,1.1,1.4,2.5
								C749.9,136.9,749.4,138,748.5,138.1z"/>
						</g>
						<path class="st9" d="M748.3,134.2c-0.9-0.3-1.6-1-1.9-1.9c-0.5,1,0.1,2.3,1.2,2.6c-1,0.3-2.2,0-2.9-0.8
							c0.7,1.2,2.3,1.9,3.6,1.5"/>
					</g>
				</g>
			</g>
			
				<ellipse transform="matrix(5.276461e-02 -0.9986 0.9986 5.276461e-02 568.1924 867.1342)" class="st27" cx="741.2" cy="134.1" rx="11.4" ry="11.4"/>
			
				<ellipse transform="matrix(5.275750e-02 -0.9986 0.9986 5.275750e-02 591.7117 898.5697)" class="st27" cx="769.5" cy="137.4" rx="11.4" ry="11.4"/>
			<path class="st27" d="M750.8,137.5c2.7-1.6,6.2-1.6,9-0.2"/>
			<path class="st27" d="M780.4,136.6c5.2-2.7,10.8-4.7,16.5-5.9c1-0.2,2.5-0.1,2.6,0.9"/>
			<path class="st9" d="M754,119.9c3.2,2.2,7.2,3.2,10.9,2.3c3.2-0.8,6.3-2.6,9.5-2c6.5,1.3,2.9,7.6,6.2,10.6
				c0.6,0.5,1.5,0.9,2.1,1.4c2.3,2.1,0.3,6-1.7,8.3c-2.1,2.4-4.2,6-2.1,8.3c2.1,2.3,6.2,0.2,7.6-2.6c1.4-2.8,1.7-6.2,3.8-8.6
				c1.1-1.3,2.6-2.2,3.9-3.3c4.8-4,6.4-10.8,6.1-16.9c-0.5-11-6.5-21.5-15.6-27.7c-9.1-6.2-21.1-7.7-31.5-4.2
				c-2.7,1-5.5,2.3-7.2,4.7c-1.8,2.5-2.1,5.6-3.5,8.3c-2.1,4.2-8.8,9.7-8.6,14.8c0.4,7.1,12.1,6.4,16.5,2.9
				C751.4,117.7,752.6,118.9,754,119.9z"/>
		</g>
		<path class="st25" d="M756.7,251.1c-1.4,0.4-3,1.2-2.9,2.7c0.1,1.2,1.6,1.9,2.9,2.1c12.2,2.3,25.8-2.1,34.1-11.3
			C784.2,238.8,764.1,248.9,756.7,251.1z"/>
	</g>
	<path class="st28" d="M327.5,360.2c3.7,34.3,2,68.9,0.3,103.3c201.6-11.3,403.9-9.3,605.2,6.1c-6.6-71.1-3.2-145.5,13.2-215.1
		c-187.4-1.4-373.2-0.6-560.6-2c-13.8-0.1-27.7-0.2-41.5-0.3c-10.6-0.1-24.3-2.3-34.1,2.7c-10.6,5.4-5.1,14.8-1.9,23.4
		c4.7,12.4,8.6,25.2,11.7,38C323.4,330.7,325.9,345.4,327.5,360.2z"/>
	<g>
		<path class="st15" d="M339.3,340c0-0.1,0-0.1,0-0.1c-0.1-12.3-12.9-27.3-25.9-21.9c-3.5,1.5-6.4,3.6-8.3,6.9c-2.9,4.9-1,6,3.2,9.4
			C314.8,339.7,339.4,360.9,339.3,340z"/>
		
			<linearGradient id="SVGID_9_" gradientUnits="userSpaceOnUse" x1="213.2587" y1="374.0001" x2="317.4249" y2="374.0001" gradientTransform="matrix(1 0 0 -1 0 630)">
			<stop  offset="0.2012" style="stop-color:#FFD584"/>
			<stop  offset="0.9175" style="stop-color:#FCD271"/>
		</linearGradient>
		<path class="st29" d="M252.5,205l-1.9,70.5l66.9,40.8c0,0-7.7,14.5-13.7,14.5s-89-34.5-90.3-41.2c-1.4-6.7,8.7-108.4,8.7-108.4
			L252.5,205z"/>
	</g>
	<g>
		<path class="st7" d="M939.7,310.1c4.2,0.2,7.9,1.9,8,6.5c0.1,4.5-6.4,8.1-9.7,9.9c-4.2,2.5-8.5,4.9-12.7,7.3
			c-2.7,1.6-6.5,3-8.6,0.7c-1.3-1.4-1.2-3.6-0.9-5.4c1.4-7.5,6.7-13.8,13.5-17.1C931.6,311,935.9,310,939.7,310.1z"/>
		<path class="st11" d="M965,262.3l-28.4,47.8c0,0,11.9,10.6,15.9,8.6c3.4-1.6,33.8-44.4,42.5-60.7
			C984.9,259.4,974.9,260.8,965,262.3z"/>
	</g>
	<path class="st7" d="M527.5,244.1c-4.5,0.1-8.7,1.1-11.8,4.7c-5.1,5.8-0.5,14.5,3.4,18.7c2.6,2.9,5.7,6.6,9,8.7
		c4.2,2.5,9.5,4.1,14,6.2c2.6,1.1,5.1-4.1,5.3-5.8c0.5-2.9-0.3-6.1-1.1-8.8c-1.4-4.8-4.3-11.3-9-13.8c0.8-0.2,10.8,0.1,11.6-0.2
		c0,0-6.5-5.6-8.3-6.5C536.2,245,532.4,244,527.5,244.1z"/>
	<g>
		<path class="st26" d="M706.7,247.2c-3.2,0.1-6.4,0.8-8.6,3.4c-3.7,4.2-0.3,10.6,2.5,13.6c1.9,2.1,4.2,4.9,6.6,6.4
			c3.1,1.9,6.9,3,10.2,4.5c1.9,0.8,3.7-2.9,3.9-4.2c0.3-2.1-0.2-4.5-0.8-6.4c-1-3.5-3.2-8.2-6.6-10c0.6-0.1,7.9,0.1,8.4-0.1
			c0,0-4.7-4.1-6-4.7C713.1,247.9,710.3,247.2,706.7,247.2z"/>
		<path class="st26" d="M837.1,247.2c3.2,0.1,6.4,0.8,8.6,3.4c3.7,4.2,0.3,10.6-2.5,13.6c-1.9,2.1-4.2,4.9-6.6,6.4
			c-3.1,1.9-6.9,3-10.2,4.5c-1.9,0.8-3.7-2.9-3.9-4.2c-0.3-2.1,0.2-4.5,0.8-6.4c1-3.5,3.2-8.2,6.6-10c-0.6-0.1-7.9,0.1-8.4-0.1
			c0,0,4.7-4.1,6-4.7C830.7,247.9,833.5,247.2,837.1,247.2z"/>
	</g>
	<path class="st30" d="M393.4,400.9c3.4,6.9,13.6,12,24.7,14.7s23.3,3.2,35.3,3.7c116.7,4.5,234.2,2.1,350.2-7.1
		c5.9-0.5,12.6-1.2,15.8-4.2c4.2-4-0.7-9.5-7.8-11.5c-7.1-2-15.3-1.4-23-0.8c-93.4,7.2-187.7,10.3-281.8,9.3
		c-12.5-0.1-25.1-0.3-37.1-2.4c-12-2-23.5-6-30.2-12.3c-7.2-6.7-11.4-28.1-31.6-23.2C391.6,370.8,389.4,392.9,393.4,400.9z"/>
	<g>
		<path class="st10" d="M190.4,113.4l33.5,0.3c4,0.1,7.3,2.8,7.3,6.2l-0.2,24.5c0,3.4-3.4,6-7.4,6l-4.5-0.1c0.2,2.6,1.2,5.1,2.9,7.1
			c-3.1-0.5-6.2-1-9-2.5c-1.9-1.1-3.6-2.7-4.4-4.7l-18.7-0.2c-4-0.1-7.3-2.8-7.3-6.2l0.2-24.5C183,116,186.4,113.3,190.4,113.4z"/>
		<ellipse transform="matrix(9.697658e-03 -1 1 9.697658e-03 85.55 350.3278)" class="st4" cx="219.6" cy="132" rx="4.2" ry="4.2"/>
		
			<ellipse transform="matrix(9.678521e-03 -1 1 9.678521e-03 73.0385 337.4717)" class="st4" cx="206.9" cy="131.9" rx="4.2" ry="4.2"/>
		
			<ellipse transform="matrix(9.678704e-03 -1 1 9.678704e-03 60.5228 324.6136)" class="st4" cx="194.1" cy="131.8" rx="4.2" ry="4.2"/>
	</g>
	<g>
		<path class="st9" d="M1046.3,129.2l-33.5,0.3c-4,0.1-7.3,2.8-7.3,6.2l0.2,24.5c0,3.4,3.4,6,7.4,6l4.5-0.1
			c-0.2,2.6-1.2,5.1-2.9,7.1c3.1-0.5,6.2-1,9-2.5c1.9-1.1,3.6-2.7,4.4-4.7l18.7-0.2c4-0.1,7.3-2.8,7.3-6.2l-0.2-24.5
			C1053.7,131.9,1050.4,129.2,1046.3,129.2z"/>
		
			<ellipse transform="matrix(1 -9.697567e-03 9.697567e-03 1 -1.3867 9.8709)" class="st4" cx="1017.2" cy="147.9" rx="4.2" ry="4.2"/>
		
			<ellipse transform="matrix(1 -9.678521e-03 9.678521e-03 1 -1.3822 9.9749)" class="st4" cx="1029.9" cy="147.8" rx="4.2" ry="4.2"/>
		
			<ellipse transform="matrix(1 -9.678886e-03 9.678886e-03 1 -1.3803 10.0986)" class="st4" cx="1042.7" cy="147.7" rx="4.2" ry="4.2"/>
	</g>
	<g>
		
			<linearGradient id="SVGID_10_" gradientUnits="userSpaceOnUse" x1="1144.0739" y1="538.9669" x2="1160.1399" y2="538.9669" gradientTransform="matrix(-1 0 0 -1 2015.2719 630)">
			<stop  offset="0.2012" style="stop-color:#FFD584"/>
			<stop  offset="0.9175" style="stop-color:#FCD271"/>
		</linearGradient>
		<polygon class="st31" points="863.2,99.1 866,93.9 871.2,91 866,88.2 863.2,83 860.4,88.2 855.2,91 860.4,93.9 		"/>
		
			<linearGradient id="SVGID_11_" gradientUnits="userSpaceOnUse" x1="1146.7467" y1="574.3659" x2="1157.62" y2="574.3659" gradientTransform="matrix(-1 0 0 -1 2015.2719 630)">
			<stop  offset="0.2012" style="stop-color:#FFD584"/>
			<stop  offset="0.9175" style="stop-color:#FCD271"/>
		</linearGradient>
		<polygon class="st32" points="863.1,61.1 865,57.5 868.5,55.6 865,53.7 863.1,50.2 861.2,53.7 857.6,55.6 861.2,57.5 		"/>
		
			<linearGradient id="SVGID_12_" gradientUnits="userSpaceOnUse" x1="1172.3108" y1="561.0699" x2="1195.9558" y2="561.0699" gradientTransform="matrix(-1 0 0 -1 2015.2719 630)">
			<stop  offset="0.2012" style="stop-color:#FFD584"/>
			<stop  offset="0.9175" style="stop-color:#FCD271"/>
		</linearGradient>
		<polygon class="st33" points="831.1,80.8 835.3,73.1 843,68.9 835.3,64.7 831.1,57.1 826.9,64.7 819.3,68.9 826.9,73.1 		"/>
	</g>
	<g>
		
			<linearGradient id="SVGID_13_" gradientUnits="userSpaceOnUse" x1="380.2727" y1="563.5372" x2="396.3388" y2="563.5372" gradientTransform="matrix(1 0 0 -1 0 630)">
			<stop  offset="0.2012" style="stop-color:#FFD584"/>
			<stop  offset="0.9175" style="stop-color:#FCD271"/>
		</linearGradient>
		<polygon class="st34" points="388.3,74.5 385.5,69.3 380.3,66.5 385.5,63.6 388.3,58.4 391.2,63.6 396.4,66.5 391.2,69.3 		"/>
		
			<linearGradient id="SVGID_14_" gradientUnits="userSpaceOnUse" x1="382.9728" y1="598.9705" x2="393.8461" y2="598.9705" gradientTransform="matrix(1 0 0 -1 0 630)">
			<stop  offset="0.2012" style="stop-color:#FFD584"/>
			<stop  offset="0.9175" style="stop-color:#FCD271"/>
		</linearGradient>
		<polygon class="st35" points="388.4,36.5 386.5,33 382.9,31.1 386.5,29.1 388.4,25.6 390.3,29.1 393.8,31.1 390.3,33 		"/>
		
			<linearGradient id="SVGID_15_" gradientUnits="userSpaceOnUse" x1="408.5782" y1="585.6744" x2="432.2232" y2="585.6744" gradientTransform="matrix(1 0 0 -1 0 630)">
			<stop  offset="0.2012" style="stop-color:#FFD584"/>
			<stop  offset="0.9175" style="stop-color:#FCD271"/>
		</linearGradient>
		<polygon class="st36" points="420.4,56.1 416.2,48.5 408.6,44.4 416.2,40.2 420.4,32.5 424.5,40.2 432.2,44.4 424.5,48.5 		"/>
	</g>
</g>
</svg>
