<?xml version="1.0" encoding="utf-8"?>
<!-- Generator: Adobe Illustrator 21.0.0, SVG Export Plug-In . SVG Version: 6.00 Build 0)  -->
<svg version="1.1" id="Layer_1" xmlns="http://www.w3.org/2000/svg" xmlns:xlink="http://www.w3.org/1999/xlink" x="0px" y="0px"
	 viewBox="0 0 1200 630" style="enable-background:new 0 0 1200 630;" xml:space="preserve">
<style type="text/css">
	.st0{fill:#F2F2F2;}
	.st1{fill:#C4A86A;}
	.st2{fill:#F3F3F3;}
	.st3{fill:#C2C2C2;}
	.st4{fill:#D6D6D6;}
	.st5{fill:#363331;}
	.st6{fill:#D6BA83;}
	.st7{fill:#3E3E3D;}
	.st8{fill:#E2C798;}
	.st9{fill:#A58A53;}
	.st10{fill:#736B69;}
	.st11{fill:#A7AAAC;}
	.st12{fill:#C1452D;}
	.st13{fill:#CE5B4A;}
	.st14{fill:#D2D4D5;}
	.st15{fill:#E4BB42;}
	.st16{fill:#E8D25D;}
</style>
<g id="bg">
</g>
<rect y="-3.6" class="st0" width="1200" height="403.7"/>
<rect y="320" class="st1" width="1200" height="313.6"/>
<g>
	<g id="Paper_Sheet">
		<path class="st2" d="M617.3,12.6H325.9v515.2h387.8V88C682.4,24.3,617.3,12.6,617.3,12.6z"/>
		<rect x="548.2" y="64.5" class="st3" width="127.8" height="28.2"/>
		<rect x="548.2" y="100.8" class="st3" width="127.8" height="7.9"/>
		<rect x="548.2" y="110.5" class="st3" width="127.8" height="7.9"/>
		<path class="st4" d="M617.3,12.6c29.4,42.1,16.2,89.6,16.2,89.6C681,74.3,713.7,88,713.7,88C682.4,24.3,617.3,12.6,617.3,12.6z"/>
		<rect x="388.1" y="162.4" class="st1" width="18.6" height="147.9"/>
		<rect x="411.6" y="217.9" class="st5" width="18.6" height="92.4"/>
		<rect x="437.1" y="191.2" class="st6" width="18.6" height="119.2"/>
		<polygon class="st7" points="373.5,322.5 373.5,117.2 371,117.2 371,322.5 371,323.8 371,325 577.6,325 577.6,322.5 		"/>
		<rect x="520.3" y="233.4" class="st1" width="18.6" height="76.9"/>
		<rect x="497.4" y="191.2" class="st5" width="18.6" height="119.2"/>
		<rect x="544.8" y="206.5" class="st8" width="18.6" height="103.8"/>
		<circle class="st9" cx="501.2" cy="92.7" r="32.3"/>
		<rect x="584.7" y="210.8" class="st1" width="24.1" height="24.1"/>
		<rect x="584.7" y="249.9" class="st5" width="24.1" height="24.1"/>
		<rect x="584.7" y="289.1" class="st1" width="24.1" height="24.1"/>
		<rect x="620.5" y="210.8" class="st3" width="55.5" height="7.2"/>
		<rect x="620.5" y="221.3" class="st3" width="55.5" height="10.4"/>
		<rect x="620.5" y="249.9" class="st3" width="55.5" height="7.2"/>
		<rect x="620.5" y="260.5" class="st3" width="55.5" height="10.4"/>
		<rect x="620.5" y="289.1" class="st3" width="55.5" height="7.2"/>
		<rect x="620.5" y="299.6" class="st3" width="55.5" height="10.4"/>
		<rect x="371" y="344.6" class="st3" width="158.7" height="40.1"/>
		<rect x="371" y="393.2" class="st9" width="66.1" height="63"/>
		<rect x="446.4" y="393.2" class="st3" width="83.2" height="4.2"/>
		<rect x="446.4" y="403" class="st3" width="83.2" height="4.2"/>
		<rect x="446.4" y="412.8" class="st3" width="83.2" height="4.2"/>
		<rect x="446.4" y="422.6" class="st3" width="83.2" height="4.2"/>
		<rect x="446.4" y="432.4" class="st3" width="83.2" height="4.2"/>
		<rect x="446.4" y="442.2" class="st3" width="83.2" height="4.2"/>
		<rect x="446.4" y="452" class="st3" width="83.2" height="4.2"/>
		<rect x="371" y="466" class="st3" width="158.7" height="16.6"/>
		<rect x="554.1" y="344.6" class="st3" width="121.9" height="9.5"/>
		<rect x="554.1" y="364.7" class="st3" width="121.9" height="69.9"/>
		<rect x="592.8" y="440.1" class="st3" width="83.2" height="4.2"/>
		<rect x="592.8" y="449.9" class="st3" width="83.2" height="4.2"/>
		<rect x="592.8" y="459.7" class="st3" width="83.2" height="4.2"/>
	</g>
	<path class="st5" d="M950.2,571.8c0,6.6-5.4,12-12,12H697.5c-6.6,0-12-5.4-12-12V251.3c0-6.6,5.4-12,12-12h240.6
		c6.6,0,12,5.4,12,12V571.8z"/>
	<path class="st6" d="M916.1,264.2h-11.3h-14.7H877h-25.8H719.5c-6.6,0-12,5.4-12,12V331c0,6.6,5.4,12,12,12h71.6h26.5h98.5
		c6.6,0,12-5.4,12-12v-54.8C928.1,269.6,922.7,264.2,916.1,264.2z"/>
	<path class="st8" d="M877,264.2h-25.8l-58.6,76.3c-0.6,0.8-1.1,1.7-1.5,2.6h26.5l57.6-74.9C876.1,266.9,876.7,265.5,877,264.2z"/>
	<path class="st8" d="M861.1,311.5c2.6,2,6.2,1.5,8.1-1l35.5-46.3h-14.7L860,303.4C858.1,305.9,858.6,309.6,861.1,311.5z"/>
	<path class="st6" d="M927.8,545.3c0,6.6-5.4,12-12,12h-30.1c-6.6,0-12-5.4-12-12v-81.5c0-6.6,5.4-12,12-12h30.1c6.6,0,12,5.4,12,12
		V545.3z"/>
	<path class="st10" d="M756.6,549c0,4.6-3.7,8.4-8.4,8.4h-31.9c-4.6,0-8.4-3.7-8.4-8.4v-31.9c0-4.6,3.7-8.4,8.4-8.4h31.9
		c4.6,0,8.4,3.7,8.4,8.4V549z"/>
	<path class="st10" d="M811.3,549c0,4.6-3.7,8.4-8.4,8.4H771c-4.6,0-8.4-3.7-8.4-8.4v-31.9c0-4.6,3.7-8.4,8.4-8.4h31.9
		c4.6,0,8.4,3.7,8.4,8.4V549z"/>
	<path class="st10" d="M867.5,549c0,4.6-3.7,8.4-8.4,8.4h-31.9c-4.6,0-8.4-3.7-8.4-8.4v-31.9c0-4.6,3.7-8.4,8.4-8.4h31.9
		c4.6,0,8.4,3.7,8.4,8.4V549z"/>
	<path class="st10" d="M756.6,491.9c0,4.6-3.7,8.4-8.4,8.4h-31.9c-4.6,0-8.4-3.7-8.4-8.4V460c0-4.6,3.7-8.4,8.4-8.4h31.9
		c4.6,0,8.4,3.7,8.4,8.4V491.9z"/>
	<path class="st10" d="M811.3,491.9c0,4.6-3.7,8.4-8.4,8.4H771c-4.6,0-8.4-3.7-8.4-8.4V460c0-4.6,3.7-8.4,8.4-8.4h31.9
		c4.6,0,8.4,3.7,8.4,8.4V491.9z"/>
	<path class="st10" d="M867.5,491.9c0,4.6-3.7,8.4-8.4,8.4h-31.9c-4.6,0-8.4-3.7-8.4-8.4V460c0-4.6,3.7-8.4,8.4-8.4h31.9
		c4.6,0,8.4,3.7,8.4,8.4V491.9z"/>
	<path class="st10" d="M755.9,434.8c0,4.6-3.7,8.4-8.4,8.4h-31.9c-4.6,0-8.4-3.7-8.4-8.4v-31.9c0-4.6,3.7-8.4,8.4-8.4h31.9
		c4.6,0,8.4,3.7,8.4,8.4V434.8z"/>
	<path class="st10" d="M810.6,434.8c0,4.6-3.7,8.4-8.4,8.4h-31.9c-4.6,0-8.4-3.7-8.4-8.4v-31.9c0-4.6,3.7-8.4,8.4-8.4h31.9
		c4.6,0,8.4,3.7,8.4,8.4V434.8z"/>
	<path class="st10" d="M866.7,434.8c0,4.6-3.7,8.4-8.4,8.4h-31.9c-4.6,0-8.4-3.7-8.4-8.4v-31.9c0-4.6,3.7-8.4,8.4-8.4h31.9
		c4.6,0,8.4,3.7,8.4,8.4V434.8z"/>
	<path class="st1" d="M927.8,406.5c0-6.6-5.4-12-12-12h-30.1c-6.6,0-12,5.4-12,12v24.5c0,6.6,5.4,12,12,12h30.1c6.6,0,12-5.4,12-12
		V406.5z"/>
	<path class="st11" d="M866.7,369.5c0,6.6-5.4,12-12,12H719.3c-6.6,0-12-5.4-12-12v-0.3c0-6.6,5.4-12,12-12h135.3
		c6.6,0,12,5.4,12,12L866.7,369.5L866.7,369.5z"/>
	<path class="st9" d="M927.8,370.3c0,6.6-5.4,12-12,12H889c-6.6,0-12-5.4-12-12v-1.2c0-6.6,5.4-12,12-12h26.7c6.6,0,12,5.4,12,12
		V370.3z"/>
	<g id="Pen">
		<path class="st5" d="M285.8,341.9c-4.8,3.8-11.7,2.9-15.5-1.9l-18-23c-3.8-4.8-2.9-11.7,1.9-15.5l6-4.7c4.8-3.8,11.7-2.9,15.5,1.9
			l18,23c3.8,4.8,2.9,11.7-1.9,15.5L285.8,341.9z"/>
		<path class="st12" d="M446.3,509.1c-0.4-1.2-1-2.3-1.7-3.3L314,339.4l-7.7-9.8l-6.8-8.7c-0.1-0.2-0.3-0.3-0.4-0.5
			c-3.8-4.4-10.5-5-15.1-1.4L269.9,330c-4.8,3.8-5.6,10.7-1.9,15.5l6.8,8.7l7.7,9.8l130.5,166.5c0.8,1,1.8,1.9,2.9,2.6
			c0.4,0.3,0.9,0.7,1.3,1c11.2,8.2,26.7,8.6,29.2,6.6C449.7,538.2,452.7,522.1,446.3,509.1z"/>
		<path class="st5" d="M455.2,550.7c-1.6,1.3-3.9,1-5.2-0.6l-11.8-15c-1.3-1.6-1-3.9,0.6-5.2l0,0c1.6-1.3,3.9-1,5.2,0.6l11.8,15
			C457,547.1,456.8,549.4,455.2,550.7L455.2,550.7z"/>
		<path class="st13" d="M446.5,540.7c3.2-2.5,6.3-18.6-0.2-31.6c-0.4-1.2-1-2.3-1.7-3.3L314,339.4l-7.7-9.8l-6.8-8.7
			c-0.1-0.2-0.3-0.3-0.4-0.5l118.1,213.7C428.4,542.3,443.9,542.7,446.5,540.7z"/>
		
			<rect x="274.4" y="340.6" transform="matrix(0.7869 -0.617 0.617 0.7869 -151.2551 255.5426)" class="st5" width="40" height="12.4"/>
		<path class="st5" d="M341.4,399.3c-2,1.6-4.8,1.2-6.3-0.8l-49.7-63.3c-1.6-2-1.2-4.8,0.8-6.3l0,0c2-1.6,4.8-1.2,6.3,0.8l49.7,63.3
			C343.7,395,343.3,397.8,341.4,399.3L341.4,399.3z"/>
	</g>
	<g id="Pie_Chart">
		<path class="st14" d="M755.4,40.7v80.6H836C836,76.7,799.9,40.7,755.4,40.7z"/>
		<path class="st1" d="M749.3,48.4c-44.6,0-80.6,36.1-80.6,80.6c0,44.6,36.1,80.6,80.6,80.6c23.7,0,44.9-10.2,59.7-26.4L749.3,129
			L749.3,48.4L749.3,48.4z"/>
		<path class="st9" d="M755.9,126.2l59.7,54.2c13-14.3,20.9-33.3,20.9-54.2H755.9z"/>
	</g>
	<g id="Coin">
		<g>
			<g>
				<path class="st15" d="M674.9,568.8c0-6.2-3.6-11.1-8-11.1H573c-4.4,0-8,5-8,11.1v11.7c0,0.3,0,0.7,0.1,1c0,0.2-0.1,0.5-0.1,0.6
					c0,13.5,24.6,24.5,55,24.5s55-10.9,55-24.5c0-0.2,0-0.5-0.1-0.6c0-0.3,0.1-0.7,0.1-1L674.9,568.8L674.9,568.8z"/>
				<ellipse class="st16" cx="619.9" cy="567.1" rx="55" ry="24.5"/>
			</g>
			<g>
				<path class="st15" d="M662.7,545.4c0-6.2-3.6-11.1-8-11.1h-93.8c-4.4,0-8,5-8,11.1v11.7c0,0.3,0,0.7,0.1,1
					c0,0.2-0.1,0.5-0.1,0.6c0,13.5,24.6,24.5,55,24.5s55-10.9,55-24.5c0-0.2,0-0.5-0.1-0.6c0-0.3,0.1-0.7,0.1-1L662.7,545.4
					L662.7,545.4z"/>
				<ellipse class="st16" cx="607.7" cy="543.7" rx="55" ry="24.5"/>
			</g>
			<g>
				<path class="st15" d="M679.2,522.5c0-6.2-3.6-11.1-8-11.1h-93.8c-4.4,0-8,5-8,11.1v11.7c0,0.3,0,0.7,0.1,1
					c0,0.2-0.1,0.5-0.1,0.6c0,13.6,24.6,24.5,55,24.5s55-10.9,55-24.5c0-0.2,0-0.5-0.1-0.6c0-0.3,0.1-0.7,0.1-1L679.2,522.5
					L679.2,522.5z"/>
				<ellipse class="st16" cx="624.3" cy="520.8" rx="55" ry="24.5"/>
			</g>
		</g>
		<g>
			<path class="st15" d="M548.6,582c0.1-5.9-3.3-10.8-7.5-10.9l-90.6-2c-4.3-0.1-7.9,4.7-8,10.6l-0.2,11.3c0,0.3,0,0.6,0,1
				c0,0.2-0.1,0.4-0.1,0.6c-0.3,13,23.2,24.1,52.5,24.8c29.3,0.6,53.3-9.4,53.6-22.5c0-0.2,0-0.4,0-0.6c0-0.3,0.1-0.6,0.1-1
				L548.6,582z"/>
			
				<ellipse transform="matrix(2.212892e-02 -0.9998 0.9998 2.212892e-02 -94.3851 1061.8237)" class="st16" cx="495.6" cy="579.2" rx="23.6" ry="53"/>
		</g>
		<g>
			<path class="st15" d="M398.3,549.7c0-6.2-3.6-11.2-8.1-11.2h-94.3c-4.5,0-8.1,5-8.1,11.2v11.7c0,0.3,0,0.7,0.1,1
				c0,0.2-0.1,0.5-0.1,0.6c0,13.6,24.7,24.6,55.2,24.6c30.5,0,55.2-11,55.2-24.6c0-0.2,0-0.5-0.1-0.6c0-0.3,0.1-0.7,0.1-1
				L398.3,549.7L398.3,549.7z"/>
			<ellipse class="st16" cx="343.1" cy="548" rx="55.2" ry="24.6"/>
		</g>
		<g>
			<path class="st15" d="M571.4,496.2c-4.3-4.1-10.2-4.9-13.1-1.9l-62.9,65.5c-3,3.1-1.9,9,2.4,13.1l8.1,7.9
				c0.2,0.2,0.5,0.5,0.8,0.6c0.1,0.2,0.3,0.3,0.5,0.5c9.4,9.1,33.6-0.8,54-21.9c20.4-21.2,29.2-45.7,19.8-54.8
				c-0.2-0.2-0.3-0.3-0.5-0.4c-0.2-0.2-0.5-0.5-0.7-0.7L571.4,496.2z"/>
			
				<ellipse transform="matrix(0.693 -0.7209 0.7209 0.693 -220.8578 548.2576)" class="st16" cx="533.3" cy="533.5" rx="53.2" ry="23.7"/>
		</g>
		<g>
			<path class="st15" d="M389.6,530c0-6.2-3.6-11.2-8.1-11.2h-94.3c-4.5,0-8.1,5-8.1,11.2v11.7c0,0.3,0,0.7,0.1,1
				c0,0.2-0.1,0.5-0.1,0.6c0,13.6,24.7,24.6,55.2,24.6s55.2-11,55.2-24.6c0-0.2,0-0.5-0.1-0.6c0-0.3,0.1-0.7,0.1-1L389.6,530
				L389.6,530z"/>
			<ellipse class="st16" cx="334.4" cy="528.3" rx="55.2" ry="24.6"/>
		</g>
	</g>
</g>
</svg>
