<?xml version="1.0" encoding="utf-8"?>
<!-- Generator: Adobe Illustrator 21.0.0, SVG Export Plug-In . SVG Version: 6.00 Build 0)  -->
<svg version="1.1" id="Layer_1" xmlns="http://www.w3.org/2000/svg" xmlns:xlink="http://www.w3.org/1999/xlink" x="0px" y="0px"
	 viewBox="0 0 40.9 38.1" style="enable-background:new 0 0 40.9 38.1;" xml:space="preserve">
<style type="text/css">
	.st0{fill:#D1AE6C;}
</style>
<g>
	<path class="st0" d="M5.7,34.8h3.2c0.6,0,1.1-0.5,1.1-1.1v-1.1h11.9c2.6,0,5.2-0.7,7.5-2.1c3.4-2.1,5.7-5.6,6.4-9.5l0.2-1.3
		c0.1-0.6-0.1-1.2-0.4-1.6s-0.9-0.7-1.5-0.7c-0.3,0-0.6,0.1-0.9,0.2v-2.3h0.5c0.2,0,0.4-0.1,0.5-0.3c0.1-0.2,0-0.4-0.1-0.6l-4.2-4.2
		c-0.2-0.2-0.5-0.2-0.7,0l-1.2,1.2V4.3c0-0.3-0.2-0.5-0.5-0.5H22c-0.3,0-0.5,0.2-0.5,0.5v5.8h-2.1c-0.4-0.9-0.7-1.4-0.9-1.7l1.3-3.2
		c0.1-0.4,0.1-0.8-0.2-1c-0.3-0.3-0.7-0.3-1-0.1l-1,0.5l-0.6-0.8c-0.2-0.2-0.4-0.3-0.7-0.4c-0.3,0-0.5,0.1-0.7,0.3l-0.8,0.8
		l-0.5-0.7c-0.2-0.2-0.4-0.3-0.7-0.4c-0.3,0-0.5,0.1-0.7,0.3l-1,1l-1.5-0.4c-0.4-0.1-0.7,0-1,0.3c-0.2,0.3-0.3,0.7-0.1,1l1.6,2.9
		c-1.1,1-2.5,3.8-2.5,6.4v1.6c0,1.7,1.4,3.2,3.2,3.2h5.8H22h4.2h5.5l-1.1,2.2l-2.9,1.2c-0.3-1.1-1.3-1.9-2.5-1.9h-7.6
		c-2.7,0-5.4,0.8-7.7,2.2v-1.1c0-0.6-0.5-1.1-1.1-1.1H5.7c-0.6,0-1.1,0.5-1.1,1.1v11.6C4.7,34.4,5.1,34.8,5.7,34.8L5.7,34.8z
		 M11.6,5.6c0.3,0.1,0.7,0,0.9-0.2l1-1L14,5.1c0.2,0.2,0.4,0.3,0.7,0.4c0.3,0,0.5-0.1,0.7-0.3l0.8-0.8l0.6,0.8
		c0.3,0.4,0.7,0.5,1.1,0.3l0.8-0.4L17.5,8H16l0.7-1.3l-0.9-0.5L14.9,8h-0.9l-0.7-1.5L12.3,7L12.8,8h-1l-1.5-2.8L11.6,5.6z
		 M16.8,10.7v7.9h-5.3c-1.2,0-2.1-0.9-2.1-2.1v-1.6c0-2.8,1.7-5.4,2.2-5.7h6c0.1,0.1,0.3,0.4,0.6,1.1h-0.9
		C17,10.1,16.8,10.4,16.8,10.7L16.8,10.7z M17.8,11.2h3.7v7.4h-3.7V11.2z M29.4,11.4l2.9,2.9h-5.9L29.4,11.4z M22.6,4.9h4.2v7.7
		l-1.9,1.9c-0.2,0.2-0.2,0.4-0.1,0.6c0.1,0.2,0.3,0.3,0.5,0.3h0.5v3.2h-3.2V4.9z M26.8,15.4H32v3.2H31v-2.1c0-0.3-0.2-0.5-0.5-0.5
		h-2.1c-0.3,0-0.5,0.2-0.5,0.5v2.1h-1.1V15.4z M29.9,18.5h-1.1V17h1.1V18.5z M17.6,22.2h7.6c0.9,0,1.6,0.7,1.6,1.6
		c0,0.9-0.7,1.6-1.6,1.6h-8.4v1.1h8.4c1.3,0,2.4-1,2.6-2.3l3.4-1.5c0.1,0,0.2-0.1,0.3-0.2l1.7-3.4c0.2-0.3,0.5-0.5,0.8-0.5
		c0.3,0,0.5,0.1,0.7,0.3c0.2,0.2,0.3,0.5,0.2,0.8l-0.2,1.3c-0.6,3.6-2.8,6.8-5.9,8.8c-2.1,1.3-4.5,2-6.9,2H9.9v-7.1
		C12.2,23.1,14.8,22.2,17.6,22.2L17.6,22.2z M5.7,22.2h3.2l0,11.6H5.7V22.2z"/>
	<path class="st0" d="M6.8,23.8h1.1v1.6H6.8V23.8z"/>
	<path class="st0" d="M23.6,5.9h0.5V7h-0.5V5.9z"/>
	<path class="st0" d="M25.2,5.9h0.5V7h-0.5V5.9z"/>
	<path class="st0" d="M23.6,8h0.5v1.1h-0.5V8z"/>
	<path class="st0" d="M25.2,8h0.5v1.1h-0.5V8z"/>
	<path class="st0" d="M23.6,10.1h0.5v1.1h-0.5V10.1z"/>
	<path class="st0" d="M25.2,10.1h0.5v1.1h-0.5V10.1z"/>
	<path class="st0" d="M18.9,12.2h0.5v1.1h-0.5V12.2z"/>
	<path class="st0" d="M20.4,12.2H21v1.1h-0.5V12.2z"/>
	<path class="st0" d="M18.9,14.3h0.5v1.1h-0.5V14.3z"/>
	<path class="st0" d="M20.4,14.3H21v1.1h-0.5V14.3z"/>
	<path class="st0" d="M18.9,16.4h0.5v1.1h-0.5V16.4z"/>
	<path class="st0" d="M20.4,16.4H21v1.1h-0.5V16.4z"/>
	<path class="st0" d="M23.6,12.2h0.5v1.1h-0.5V12.2z"/>
	<path class="st0" d="M25.2,12.2h0.5v1.1h-0.5V12.2z"/>
	<path class="st0" d="M15.2,11.7h-0.5v-0.5h-1.1v0.5h-0.5c-0.3,0-0.5,0.2-0.5,0.5v1.6c0,0.3,0.2,0.5,0.5,0.5h1.6v0.5h-2.1v0.5
		c0,0.3,0.2,0.5,0.5,0.5h0.5v0.5h1.1v-0.5h0.5c0.3,0,0.5-0.2,0.5-0.5v-1.6c0-0.3-0.2-0.5-0.5-0.5h-1.6v-0.5h2.1v-0.5
		C15.7,11.9,15.5,11.7,15.2,11.7z"/>
	<path class="st0" d="M31.5,4.3h1.1v1.1h-1.1V4.3z"/>
	<path class="st0" d="M32.5,3.3h1.1v1.1h-1.1V3.3z"/>
	<path class="st0" d="M33.6,4.3h1.1v1.1h-1.1V4.3z"/>
	<path class="st0" d="M32.5,5.4h1.1v1.1h-1.1V5.4z"/>
	<path class="st0" d="M35.2,7h1.1V8h-1.1V7z"/>
	<path class="st0" d="M31.5,8.6h1.1v1.1h-1.1V8.6z"/>
	<path class="st0" d="M4.7,8h1.1v1.1H4.7V8z"/>
	<path class="st0" d="M5.7,7h1.1V8H5.7V7z"/>
	<path class="st0" d="M6.8,8h1.1v1.1H6.8V8z"/>
	<path class="st0" d="M5.7,9.1h1.1v1.1H5.7V9.1z"/>
	<path class="st0" d="M4.7,12.2h1.1v1.1H4.7V12.2z"/>
	<path class="st0" d="M6.8,3.3h1.1v1.1H6.8V3.3z"/>
</g>
</svg>
