<?xml version="1.0" encoding="utf-8"?>
<!-- Generator: Adobe Illustrator 21.0.0, SVG Export Plug-In . SVG Version: 6.00 Build 0)  -->
<svg version="1.1" id="Layer_1" xmlns="http://www.w3.org/2000/svg" xmlns:xlink="http://www.w3.org/1999/xlink" x="0px" y="0px"
	 viewBox="0 0 400 424" style="enable-background:new 0 0 400 424;" xml:space="preserve">
<style type="text/css">
	.st0{fill:#A27B41;}
	.st1{fill:#D0A967;}
	.st2{fill:url(#SVGID_1_);}
	.st3{fill:#FFDB93;}
	.st4{opacity:0.31;}
	.st5{fill:#AFB0B1;}
	.st6{opacity:0.24;fill:#3F444F;}
	.st7{fill:#BB9155;}
	.st8{opacity:0.3;fill:#C1C1C1;}
	.st9{fill:#EDA785;}
	.st10{fill:#162D40;}
	.st11{fill:#0E1E2B;}
	.st12{fill:#ECD9D2;}
	.st13{fill:#DA9B7C;}
	.st14{fill:#EA4747;}
	.st15{fill:#1D3B54;}
	.st16{fill:#FBCBA1;}
	.st17{fill:#AA3434;}
	.st18{fill:#285173;}
	.st19{fill:#D5C4BD;}
	.st20{fill:#252E3B;}
	.st21{fill:#F9E5DD;}
	.st22{fill:#A67860;}
	.st23{fill:#2C5395;}
	.st24{fill:#202338;}
	.st25{fill:#80807E;}
	.st26{fill:#292C47;}
	.st27{fill:#D7D4DF;}
	.st28{fill:#5D676C;}
	.st29{fill:#7F817F;}
	.st30{fill:#B3B0B9;}
	.st31{fill:#E9E5F1;}
	.st32{fill:#1F3B6B;}
	.st33{fill:#323657;}
	.st34{fill:#FFFFFF;}
	.st35{opacity:0.31;fill:#D0A967;}
</style>
<path class="st0" d="M325.5,104.4H178c-37.8,2.5-37.7,44.2-37.7,44.2l0,0v199.2H288V148.6C288,148.6,288.7,106.7,325.5,104.4z"/>
<g>
	<rect x="130" y="151.1" class="st1" width="1.7" height="153.3"/>
</g>
<linearGradient id="SVGID_1_" gradientUnits="userSpaceOnUse" x1="265.9478" y1="314.86" x2="162.4527" y2="71.5061">
	<stop  offset="0" style="stop-color:#E8B965"/>
	<stop  offset="1" style="stop-color:#C5A162"/>
</linearGradient>
<path class="st2" d="M319.6,101.7c-36.8,2.4-37.5,44.2-37.5,44.2V345H134.4V145.9c0,0-0.2-41.7,37.7-44.2H319.6z"/>
<rect x="153.8" y="153.7" class="st3" width="101.4" height="9"/>
<rect x="153.8" y="174.4" class="st3" width="86.6" height="6.3"/>
<rect x="153.8" y="191.1" class="st3" width="43.5" height="9.4"/>
<rect x="210.2" y="191.1" class="st3" width="45" height="9.4"/>
<rect x="153.8" y="209.3" class="st3" width="69.4" height="6.7"/>
<rect x="153.8" y="226" class="st3" width="78.2" height="3.7"/>
<rect x="153.8" y="242.8" class="st3" width="94" height="3.7"/>
<g>
	<path class="st3" d="M197.7,280.4h-44.2v-21.2h44.2V280.4z M154.2,279.8h42.9v-19.9h-42.9V279.8z"/>
</g>
<rect x="208.3" y="259.6" class="st3" width="39.5" height="4.8"/>
<rect x="208.3" y="269.9" class="st3" width="28" height="4.8"/>
<rect x="153.8" y="293.2" class="st3" width="84.5" height="3.7"/>
<rect x="153.8" y="310" class="st3" width="44.5" height="3.7"/>
<g class="st4">
	<polygon class="st5" points="320.5,266.4 293.1,266.4 293.1,264.7 318.8,264.7 318.8,234.3 320.5,234.3 	"/>
</g>
<g class="st4">
	<polygon class="st5" points="189.4,98.7 187.7,98.7 187.7,89.8 247,89.8 247,83.6 248.7,83.6 248.7,91.5 189.4,91.5 	"/>
</g>
<g class="st4">
	<polygon class="st5" points="123.1,203.3 92,203.3 92,136.2 93.7,136.2 93.7,201.6 123.1,201.6 	"/>
</g>
<g>
	<path class="st1" d="M293.2,176h-1.7v-20.3c0-0.3-2.2-39.2,30.6-44.9l0.3,1.7c-31.3,5.4-29.2,42.8-29.2,43.2L293.2,176z"/>
</g>
<g>
	<polygon class="st1" points="294,353.6 262.1,353.6 262.1,351.9 292.3,351.9 292.3,303.5 294,303.5 	"/>
</g>
<g>
	<path class="st3" d="M269.6,319.8h-27.8V292h27.8V319.8z M244.3,317.2H267v-22.7h-22.7V317.2z"/>
</g>
<g>
	<polygon class="st3" points="256.1,311.7 246.4,302.5 249.3,299.4 256.3,306 271.6,293.4 274.3,296.7 	"/>
</g>
<path class="st6" d="M247.2,239.8c-20.8-35.9-66.8-48.1-102.7-27.2c-3.6,2.1-7,4.4-10.1,7v17.2c4.5-5.3,9.9-9.9,16.3-13.6
	c30-17.4,68.4-7.2,85.9,22.8c5.3,9.2,8.1,19.2,8.5,29.2c0,0.8,0,1.5,0,2.3c0,21.7-11.2,42.7-31.3,54.4
	c-26.7,15.5-60.1,9.1-79.4-13.6v17.3c4.5,3.7,9.5,6.9,14.7,9.5h66.3c1.5-0.8,3.1-1.6,4.6-2.5C255.9,321.7,268.1,275.7,247.2,239.8z"
	/>
<rect x="-3.7" y="360.4" transform="matrix(-0.7682 0.6402 -0.6402 -0.7682 338.2386 618.9368)" class="st1" width="121.4" height="20.6"/>
<rect x="103" y="321.9" transform="matrix(-0.7682 0.6402 -0.6402 -0.7682 398.9079 515.0645)" class="st7" width="6.5" height="15.7"/>
<path class="st5" d="M97.8,315.3c20.8,35.9,66.8,48.1,102.7,27.2c35.9-20.8,48.1-66.8,27.2-102.7c-20.8-35.9-66.8-48.1-102.7-27.2
	C89.2,233.4,77,279.4,97.8,315.3z M108.5,309.1c-9.2-15.9-10.7-34.2-5.6-50.5c4.5-14.4,14.3-27.2,28.3-35.4
	c30-17.4,68.4-7.2,85.9,22.8c5.3,9.2,8.1,19.2,8.5,29.2c0,0,0,0,0,0c0.8,22.5-10.4,44.6-31.2,56.7
	C164.4,349.3,125.9,339.1,108.5,309.1z"/>
<path class="st8" d="M102.9,258.6c0,0,65.4-49.7,122.7,16.6c0,0,0,0,0,0c-0.4-9.9-3.1-19.9-8.5-29.2c-17.4-30-55.9-40.2-85.9-22.8
	C117.2,231.4,107.5,244.2,102.9,258.6z"/>
<g>
	<path class="st9" d="M274.3,307.2c0,0-1.4,0.5-2.5,0.6c-1.1,0.1-2.7,1.2-3.1,1.7c-0.4,0.5-3.7,4-3.7,4.5c-0.1,0.5,0.8,0.3,1.1-0.1
		c0.3-0.4,3.2-3.2,3.2-3.2s-3.2,3.6-3.2,4c0,0.4,0.5,0.8,1.1,0.4c0,0,0.5,1,1.3,0.1l1.7-1.7c0,0-0.7,1,0.2,0.7
		c0.5-0.2,2.2-2.3,2.6-2.6c0.5-0.3,2.2-3,2.2-3L274.3,307.2z"/>
	<path class="st10" d="M285.8,376.6c0,0-1.2,2.4-2,2.9c-0.7,0.5-4.9,4.5-5.8,4.9c-0.9,0.4-3.6,0.9-3.6,2.2c0,1.3,7.1,0.9,8.5,0.4
		c1.4-0.5,3.7-3.6,4.6-3.6c0.9,0,0.6,3.8,0.6,3.8h1c0,0,1.3-4,1.2-5.4c0-1.4-0.8-5.3-0.8-5.3H285.8z"/>
	<path class="st10" d="M302.9,375.1c0,0-0.5,2.4-1.4,3.3c-0.9,0.8-4.2,4.4-5,4.8c-0.8,0.4-2.5,0.7-3,1.3c-0.5,0.6-0.2,2.4,3,2.2
		c3.2-0.2,4.2-0.2,4.9-0.8c0.8-0.6,3.2-2.8,3.9-2.9v3.5h0.9c0,0,1.5-4.6,1-6.5c-0.5-1.9-0.5-4.6-0.5-4.6L302.9,375.1z"/>
	<path class="st9" d="M301.7,271.3c0,0,1.4,3.7,0.3,6.6c0,0,5.3-0.3,5.5-0.9c0.2-0.6-0.2-6.2,0.5-7.8S301.7,271.3,301.7,271.3z"/>
	<g>
		<g>
			<g>
				<path class="st9" d="M311.3,321c0,0-0.3,0.8-0.3,1.4c0,0.5-0.2,1.2-0.3,1.7c-0.1,0.4-0.3,2.3-0.3,2.7c0,0.2,0.6,1.3,0.6,1.6
					c0,0.4-0.1,1.2,0.3,1.1c0.3,0,0.6-0.7,0.6-0.7s0,0.3,0.3,0.4c0.6,0.1,0.8-0.1,0.8-0.1s0.3,0.3,0.5,0.3c0.6,0,0.8-0.3,0.8-0.3
					s0.3,0.2,0.7,0.1c0.5-0.1,0.6-0.6,0.6-0.6s0.6,0,0.8-0.3c0.1-0.3,0-0.6,0.1-0.9c0-0.3-0.4-2.7-1.5-4.2c-1.1-1.6-0.5-3.5-0.5-3.5
					L311.3,321z"/>
			</g>
		</g>
	</g>
	<g>
		<path class="st11" d="M309.6,334.1l-0.7-4.5c-0.1-0.7,0.4-1.4,1.1-1.5l7.2-1c0.7-0.1,1.4,0.4,1.5,1.1l0.7,4.5
			c0.1,0.7-0.4,1.4-1.1,1.5l-7.2,1C310.4,335.3,309.7,334.8,309.6,334.1z M310.2,328.9c-0.2,0-0.4,0.3-0.4,0.5l0.7,4.5
			c0,0.2,0.3,0.4,0.5,0.4l7.2-1c0.2,0,0.4-0.3,0.4-0.5l-0.7-4.5c0-0.2-0.3-0.4-0.5-0.4L310.2,328.9z"/>
	</g>
	<g>
		
			<rect x="302.6" y="332.3" transform="matrix(-0.9896 0.1435 -0.1435 -0.9896 677.7632 635.1006)" class="st12" width="26.7" height="19.5"/>
	</g>
	<g>
		<g>
			<path class="st13" d="M311.8,328.7c0,0-0.4-2.1,0.1-2.7c0.5-0.6,0.7,0.2,0.7,0.2s-0.2-0.8,0.4-1c0.6-0.2,0.8,0.7,0.8,0.7
				s0-0.6,0.7-0.6c0.7,0,0.6,0.8,0.6,0.8s0.5-0.9,1-0.2c0.9,1.1,0.5,2.6,0.5,2.6s-0.1,0.4-0.8,0.3c0,0-0.3,0.9-1.3,0.5
				c0,0-0.8,0.7-1.3,0C313,329.2,312.1,329.9,311.8,328.7z"/>
		</g>
	</g>
	<path class="st14" d="M301.2,276.6c0,0-3.1,1.1-4.5,1.4c-1.4,0.3-4.4,1.7-4.1,6.8c0.2,5.1,1.1,9.6,1.4,11.8
		c0.3,2.2,0.1,7.8-0.4,10.5c0,0,7.5,1.8,16.3,0c0,0-1.6-4.6-1.5-5.8c0-1.2,5.2-11.1,5.4-12.7c0.2-1.6,1.3-8.4-1.1-10
		c-2.4-1.5-4.3-1.3-5.3-2C306.4,275.9,302.6,276.1,301.2,276.6z"/>
	<path class="st14" d="M297.2,277.8c0,0-3.4-0.1-5.9,5.3c-2.4,5.4-3,8.6-3.6,9.3c-0.6,0.8-2.5,3.7-4.4,5.2c-1.9,1.4-9.9,9.6-9.9,9.6
		l2.2,2.8c0,0,11.5-8.2,12.7-9.6c1.2-1.4,8.5-12,8.9-13.6C297.6,285.2,301,279.5,297.2,277.8z"/>
	<path class="st14" d="M317.8,304.7c0,2.2-2.2,16.9-2.2,16.9l-4.2,0.2c0,0,1.4-14.6,1.8-18c0.1-1,0-2.5-0.2-4.2v0
		c-0.2-1.1-0.4-2.2-0.6-3.3c-0.6-3-1.3-5.6-1.3-5.6s-3.8-12.6,2.1-11.7c0,0,2,2.4,2.7,6.2c0.7,3.8,1.3,9.4,1.2,11.7
		C317,299.2,317.8,303.1,317.8,304.7z"/>
	<path class="st15" d="M293.6,307.1c0,0-1.4,3.2-1.5,4c-0.1,0.8-4.4,11.4-4.7,14.5c-0.3,3.1-1.2,11.5-1.5,12.7
		c-0.3,1.2,0.7,6.6,0.9,7.8c0.2,1.2,0.1,20.8-1.4,30.5c0,0,3.4,1.4,5.9,0c0,0,4.2-15.1,4-23.9c-0.2-8.7-1.3-12.4,0-15.9
		c1.4-3.5,9.3-14.1,10.1-15.2c0.8-1.1,5.8-7.3,1.1-14C301.7,300.9,293.6,307.1,293.6,307.1z"/>
	<path class="st15" d="M310,335.7c-0.4,2.8,0,6.5,0.9,16.7c0.9,10.2-1.5,22.7-1.5,22.7c-3,1-6.5,0-6.5,0c0.1-0.7,0-25,0-27.1
		c0-2.2-0.6-4.6-0.8-7.1c-0.1-1.7-0.9-4.8-1.8-8c-0.3-1-0.5-1.9-0.8-2.8c0,0,0,0,0,0c-0.2-0.5-0.3-1-0.4-1.5c-1.2-4.3-2.9-21-2.9-21
		s9.3-7.5,13.8-0.4c4.5,7,2.2,12.2,2,13.1C311.7,321,310.4,332.9,310,335.7z"/>
	<path class="st14" d="M292.8,293.9c0,0,0.6,12.6-2.4,19.9c0,0,9.9,3.3,22.7,0c0,0-2.7-9-2.5-10.4c0.2-1.4,5-17.3,3.5-21.1
		C312.7,278.6,294.3,282.1,292.8,293.9z"/>
	<path class="st9" d="M304.6,256.6c-2.2-0.3-8,0.2-7.6,8.9c0.4,8.7,3.6,8.2,6.8,7.2c3.2-0.9,6.9-7.6,6.9-9.4S311,257.4,304.6,256.6z
		"/>
	<path class="st16" d="M297.4,261.6c0,0,2.5,3.2,5,4c0,0,1.9,3.5,5.3,4.4c0,0,7.2-6.9,1.2-12.1C302.8,252.6,297.4,258.9,297.4,261.6
		z"/>
	<path class="st9" d="M302,264.3c0.1-0.5,1.1-1.4,2-0.4c0.8,1.1-0.7,3.6-1.2,3.6S301.6,266.1,302,264.3z"/>
	<path class="st16" d="M310,259.3c0.2-0.3,5.7-2.7,6.8,2.4c1.1,5.2-4.4,11.2-5.4,13.8c-1,2.6,0,8.7,0,8.7s-2.9-3.2-3.9-6.4
		C306.3,274.3,306,265.4,310,259.3z"/>
	<path class="st10" d="M306.1,320.7c-0.1,0.2-4.7,10.4-5.9,12.2c-0.3-1-0.5-1.9-0.8-2.8c0,0,0,0,0,0S305.9,320.9,306.1,320.7z"/>
	<path class="st17" d="M314,289.1c0,0-0.1,6.5-1,10.5c-0.2-1.1-0.4-2.2-0.6-3.3C312.5,296.2,313.8,290.1,314,289.1z"/>
</g>
<g>
	<g>
		<g>
			<path class="st9" d="M149.7,322.5c0,0,0.6,0.5,0.8,1.1c0.2,0.4,0.7,0.9,0.9,1.2c0.2,0.3,1.2,1.7,1.3,2.1c0.1,0.2,0,1.3,0.1,1.6
				s0.5,0.9,0.2,1c-0.3,0.1-0.8-0.3-0.8-0.3s0.1,0.3-0.1,0.5c-0.4,0.3-0.8,0.1-0.8,0.1s-0.1,0.5-0.3,0.6c-0.5,0.2-0.8,0-0.8,0
				s-0.2,0.3-0.5,0.4c-0.4,0.1-0.7-0.3-0.7-0.3s-0.5,0.2-0.8,0c-0.2-0.2-0.3-0.4-0.4-0.6c-0.1-0.2-0.7-2.4-0.4-4.1c0.3-1.7-1-3-1-3
				L149.7,322.5z"/>
		</g>
	</g>
</g>
<g>
	<path class="st11" d="M154.4,335.6H147c-0.7,0-1.4-0.6-1.4-1.4v-4.6c0-0.7,0.6-1.4,1.4-1.4h7.4c0.7,0,1.4,0.6,1.4,1.4v4.6
		C155.7,335,155.1,335.6,154.4,335.6z M147,329.2c-0.2,0-0.4,0.2-0.4,0.4v4.6c0,0.2,0.2,0.4,0.4,0.4h7.4c0.2,0,0.4-0.2,0.4-0.4v-4.6
		c0-0.2-0.2-0.4-0.4-0.4H147z"/>
</g>
<g>
	<rect x="136.9" y="333.6" class="st1" width="27.6" height="19.8"/>
</g>
<g>
	<path class="st9" d="M139,280.7c0,0-1.4,0-2,4.2c-0.6,4.2,0.5,6,0.7,7.8c0.1,1.8,2.2,13.1,2.3,13.6s0.3,6.5,1.1,8.2
		c0.8,1.6,6.7,10.7,6.8,11.1s2.9-1.6,2.9-1.6s-4.6-9.7-4.9-10.8c-0.3-1.1-2.1-6.8-1.8-8.5c0.3-1.7-0.8-11.3-0.7-12.3
		C143.3,291.3,141.7,281.4,139,280.7z"/>
</g>
<g>
	<path class="st18" d="M139,280.7c0,0-1.4,0-2,4.2c-0.6,4.2-0.1,5.7,0.3,7.6c0.3,1.7,1.5,12.3,1.6,12.8c0.1,0.5,1.5,6.9,2.2,9.1
		c0.6,1.7,5.8,10.6,5.9,11.1s4.1-2.1,4.1-2.1s-5.2-10.1-5.4-11.2c-0.3-1.1-1.1-5-1.2-6.7c0-2.1-1.3-12.2-1.2-13.2
		C143.3,291.3,142.9,282.2,139,280.7z"/>
</g>
<path class="st12" d="M127.1,379.3c0,0,2.5,3.7,3.5,4.5c0,0,2.3,0.8,2.4,2.4c0.1,1,0,2.6-2.6,2.7c-2.6,0.1-4.3-0.8-4.8-2.4
	c-0.5-1.6-1.4-2.3-1.4-2.3v3.3h-0.6c0,0-0.1-3.2-0.2-3.8c0-0.6-0.4-2.8,0.8-3.8C125.6,378.9,127.1,379.3,127.1,379.3z"/>
<path class="st12" d="M143.8,376.4c0,0,0.4,1,1.2,2.1c0.6,0.8,2.4,3.9,3.2,4.2c0.8,0.2,3.3,0.7,3.5,2.1c0.2,1.4,0.3,2.4-2.1,2.5
	c-2.5,0.1-4.1,0.3-5.3-1.5c-1.2-1.7-3-3-3-3v4.5h-1c0,0-0.4-4.7-0.7-5c-0.3-0.3-0.9-3.9,1.4-5.8
	C143.4,374.5,143.8,376.4,143.8,376.4z"/>
<path class="st9" d="M125.5,308.7c0,0-3.1,4-4,8.8c-0.8,4.8,0.5,20.9,0.5,23.3c0,2.4-2.2,8.3-1.8,12.7c0.4,4.5,4.1,26.3,4.1,26.3
	l2.8-0.6c0,0-0.3-22.6,0-24.5c0.3-1.9,0.8-8.7,0.9-9.5c0.1-0.8,7-21,7-24.5C135.1,317.4,133,303.1,125.5,308.7z"/>
<path class="st9" d="M141.1,310.3c0,0,5.1,19.5,5.7,22.2c0.6,2.7,1.5,4.9,1.5,6.1c0,2.7-1,6.9-1,6.9l-3.5,30.9h-2.7
	c0,0-1.7-18-2-21.7c-0.3-3.6,2-9.3,1.4-10.8c-0.6-1.5-8.9-19.3-8.9-19.3S125.4,304.7,141.1,310.3z"/>
<path class="st9" d="M131,384c0,0-2.1,1.1-4.1-0.4c-1.9-1.5-2.6-3.8-2.6-3.8l2.8-0.6L131,384z"/>
<path class="st9" d="M148.3,382.6c0,0-2.2,0.6-3,0c-0.8-0.6-3.7-5.4-4.7-5.7c0,0,0.9-1.9,3.3-0.5
	C143.8,376.4,147.7,381.8,148.3,382.6z"/>
<path class="st15" d="M147.6,335.6c0,0-9.4,5.5-27,5.5c0,0-1-20.4,1.6-26.1c2.6-5.7,19.5-2.2,19.5-2.2S147,331.4,147.6,335.6z"/>
<g>
	<path class="st12" d="M134.8,279.2c0,0,2.7,1.3,3.7,1.5c0.9,0.2,4.6,5,5.3,6.7s0,4.4-1.3,7.4c-1.3,3.1-0.1,4.1-0.7,7.2
		c-0.6,3.1-1.1,9.6-1,11.3c0.1,1.7-15.3,2-18.8-1.1c0,0,3.5-5.3,4-6.1c0.5-0.8,0.1-4.9-0.3-5.9c-0.4-1.1-3.2-10.1-3.2-10.1
		s-2.3-6.9-0.2-8.5c1.8-1.4,6.6-1.9,7.5-2.2S133,278.9,134.8,279.2z"/>
</g>
<g>
	<path class="st19" d="M135.7,285.3l1.7-1.9l-1.4-5.1C135.9,278.2,135.4,281.1,135.7,285.3z"/>
</g>
<g>
	<path class="st9" d="M131.4,259.9c1.6-0.6,7.6-2,9,5.6c1.4,7.6-2.8,13-6.7,11.6c-3.9-1.4-6.2-6.7-6.5-10.7
		C127,262.4,129.3,260.6,131.4,259.9z"/>
</g>
<g>
	<path class="st20" d="M140.4,265.5c0,0,0.3-6.5-6.2-6.7c-6.5-0.2-8.2,5.1-7.7,9c0.5,3.9,3.2,5.9,3.2,5.9s-0.2-3.1,1-4
		c1.3-0.8,6.3-2.4,8.5-6.2C139.2,263.5,140.2,264.7,140.4,265.5z"/>
</g>
<g>
	
		<ellipse transform="matrix(0.3124 -0.9499 0.9499 0.3124 -162.1396 302.9091)" class="st20" cx="128.2" cy="263.5" rx="4.9" ry="4.3"/>
</g>
<g>
	<path class="st9" d="M136.1,276.1c0,0-0.5,5-0.4,6.6c0,0-2.8,2.8-6.1-3.3c0,0,1.4-2.5,0.3-6C129,269.9,136.1,276.1,136.1,276.1z"/>
</g>
<g>
	<polygon class="st9" points="135.7,282.7 135.7,285.3 132.4,282.8 	"/>
</g>
<g>
	<polygon class="st19" points="135.7,285.3 134.3,283.6 129.8,279.1 128.3,280.5 	"/>
</g>
<g>
	<path class="st18" d="M129.1,279.5c0,0,3.8,5.8,4,8.4c0.2,2.6-1.4,21.7-2.7,27.8c-1.3,6.1-10.6-0.7-10.6-0.7s6.2-10.1,3.8-18.2
		c-2.4-8.1-3.3-11.3-3.3-11.3s0.8-4.5,3.7-5.1C126.8,279.8,129.1,279.5,129.1,279.5z"/>
</g>
<g>
	<path class="st18" d="M144,288.2c0,0,0.7,2.4-2,7.8c0,0,0,6.9,0.1,9.1c0.1,2.2,0.6,10.3,0.6,10.3l-2.7,1.6
		c-0.5,0.3-1.2-0.1-1.1-0.7c0.8-6.2,3.2-29.8-2.1-36.1l2.1,0.6C139,280.7,142.7,283.8,144,288.2z"/>
</g>
<g>
	<path class="st9" d="M131.4,268.3c-0.2-0.6-1-0.8-1.5-0.4c-0.5,0.3-0.7,1.4,0,2.7C130.6,271.9,133.1,272.9,131.4,268.3z"/>
</g>
<g>
	<polygon class="st21" points="137.3,283.3 139.4,283.9 135.9,278.2 	"/>
</g>
<g>
	<polygon class="st21" points="134.3,283.6 132.4,286.1 128.5,279.6 129.8,279.1 	"/>
</g>
<g>
	<path class="st22" d="M136,277.2l-0.1,1c0,0-2.3,0.4-5.2-3.2C130.7,275,132.8,277.5,136,277.2z"/>
</g>
<g>
	<g>
		<g>
			<path class="st9" d="M147.6,307.8c0,0,1.3,0.9,2.1,0.4c0.6-0.4,1.8-0.5,2.1-0.5c0.5,0,1.9-0.6,1.9,0c0,0.6-2.3,1.1-2.7,1.3
				c-0.5,0.2,1.6,1.2,1.8,1.7c0.2,0.5-1.6,3.7-2.9,2.9c-1.3-0.8-2.2-2.6-2.4-2.7c-0.3-0.1-1-0.6-1-0.6L147.6,307.8z"/>
		</g>
	</g>
</g>
<g>
	<path class="st9" d="M122.4,281.3c0,0,1.8-0.5,3.4,1.2c1.6,1.7,2.4,4.5,2.8,5.4c0.4,0.9,5.7,9.3,6,9.5c0.3,0.2,5.7,4.5,8.1,6.8
		c2.4,2.3,7.1,4.9,7.1,4.9l-1.8,2.5c0,0-14.4-7.6-16.2-10.5c-1.8-2.8-9.1-10.6-9.1-10.6S118.5,284.1,122.4,281.3z"/>
</g>
<g>
	<g>
		<g>
			<path class="st9" d="M152.5,310.4c0,0,3.8,2.8,3.9,3.2c0.1,0.4-0.1,0.6-0.4,0.4c-0.4-0.3-3.8-2.6-3.8-2.6s4,4.1,4.1,4.4
				c0.1,0.2-0.2,0.6-0.4,0.5c-0.2-0.1-4.4-4-4.4-4s3.7,3.9,3.8,4.2c0,0.3-0.3,0.6-0.6,0.3c-0.3-0.3-3.9-3.7-3.9-3.7s2.5,3,2.4,3.3
				c-0.1,0.2-0.3,0.5-0.9-0.3c-0.6-0.8-2.3-2.5-2.3-2.5L152.5,310.4z"/>
		</g>
	</g>
</g>
<path class="st15" d="M142.6,294.7c0,0,0.1,8.6-0.4,12.8L142,296L142.6,294.7z"/>
<g>
	<path class="st18" d="M123.4,280.6c0,0,1,0.2,2.6,1.9c1.6,1.7,2.4,4.5,2.8,5.4c0.4,0.9,5.7,9.3,6,9.5c0.3,0.2,4.7,3.2,7.1,5.5
		c2.4,2.3,6.9,5.1,6.9,5.1l-2.3,3.4c0,0-12.7-7-14.7-9.7c-2.1-2.9-9.8-11.2-9.8-11.2S117.1,282.9,123.4,280.6z"/>
</g>
<g>
	<g>
		<path class="st13" d="M152.3,329c0,0-0.5-1.9-1.1-2.2c-0.6-0.3-0.5,0.4-0.5,0.4s-0.1-0.7-0.7-0.7c-0.6,0-0.4,0.9-0.4,0.9
			s-0.2-0.5-0.8-0.3c-0.5,0.2-0.2,0.9-0.2,0.9s-0.7-0.5-0.9,0.2c-0.3,1.2,0.6,2.3,0.6,2.3s0.3,0.2,0.8,0c0,0,0.6,0.7,1.2-0.1
			c0,0,1,0.3,1.1-0.6C151.4,329.9,152.5,330.1,152.3,329z"/>
	</g>
</g>
<path class="st15" d="M132,303.8l-4.3-7c0,0,3.7,4.4,4.1,4.8c0.4,0.5,0.4,0.5,0.4,0.5S132.1,303.5,132,303.8z"/>
<g>
	<path class="st9" d="M177.2,320.6c0,0,0.3,1.4,0.8,2.7c0.3,0.7,0.4,5.1,0.4,5.7c0,0.5-0.3,0.2-0.5-0.1c-0.1-0.2-0.4-1.7-0.7-2.5
		c-0.2-0.7-0.4-0.9-0.6-0.7s-0.3,3.1-0.1,4.3c0.3,1.2,0,4-0.7,3.6c-0.6-0.4-2.1-5.5-2-7.4c0.1-1.9,0.8-4.3,0.8-4.3L177.2,320.6z"/>
	<g>
		<path class="st23" d="M176.6,323.2c0,0,2.1-13.9,2.6-16.5c0.3-1.2,0.9-4.2,1.4-6.6c0.1-0.8,0.3-1.6,0.4-2.4c0,0,0,0,0,0
			c0.4-3.2,0.5-6.2,0.5-6.2s1.8-8.3-3.4-8.8c0,0-1.4,0.4-1.5,1c-0.3,2.2-1,7-1.1,8.1c0,0.9-1.4,10.2-1.4,10.5c0,0.6-0.4,4.9-0.5,6.8
			c-0.3,4.4-0.4,14.3-0.4,14.3L176.6,323.2z"/>
	</g>
	<g>
		<path class="st24" d="M175,382.3c0,0-2,2.3-4.1,2.7c-2,0.5-3.5,1.1-3.5,2.4c0,1.3,5.9,2.1,8.2,0.8c3.5-1.9,3.9-1.4,4.2-2.3
			c0.4-1-0.5-3.6-0.4-3.9C179.5,381.6,175,382.3,175,382.3z"/>
	</g>
	<g>
		<path class="st24" d="M195.5,382.9c0,0-1.5,2.2-3.5,2.7c-2,0.5-3.2,1.4-3.3,2.7c-0.1,1.3,4.6,2.9,7.9,0.7c2.2-1.5,3-1.4,3.4-2.3
			c0.4-0.9-0.2-3.5-0.2-3.8C200,382.5,195.5,382.9,195.5,382.9z"/>
	</g>
	<g>
		<path class="st25" d="M175.2,381.2c0,0-0.3,1.1-0.2,1.1c0,0,4.6,0.6,4.5-0.3c-0.1-0.7-0.3-1.4-0.3-1.4L175.2,381.2z"/>
	</g>
	<g>
		<path class="st25" d="M195.6,381.8c0,0-0.1,1.1-0.1,1.1c0,0,4.4,0.8,4.4,0c0-0.7-0.3-1.5-0.3-1.5L195.6,381.8z"/>
	</g>
	<g>
		<path class="st26" d="M179.3,318c0,0-1.7,16.2-2.5,21.7c-1,6.5-1.4,11.8-1.6,15.2c-0.4,4.2-0.4,24.9-0.7,26.2
			c-0.2,1.2,5.5,0.3,5.5,0.3s2.8-27.1,3.9-31.6c1-4.2,4.6-22.2,5.5-21c0.9,1.1,2,21,2.7,24.3c0.7,3.3,2.7,29.1,2.7,29.1
			s4.6,0.9,5.8-0.1c0,0,0.6-22.2,0.1-28.4c-0.2-2.4,2.8-28.2-1-38.6C197.8,309.5,179.3,318,179.3,318z"/>
	</g>
	<g>
		<path class="st27" d="M207.9,320.3c0,0-2.8,0.9-4,0.6c-1.2-0.2-0.6-14.6-0.6-17.6c0-2.4-1.4-8.9-1.4-8.9s0,0,0,0c0,0,0,0,0,0
			c0,0,0,0,0,0c-0.1,0.5-1.9,7.2-2,10.4c-0.1,3.3,0.4,16,0.4,16l-4.5,2.1l-15.4,0.4l-2.3,0c0,0,0.4-7.5,0.5-10.1
			c0.1-1.6,0.4-4.6,0.3-7.4c0,0,0.1-3-0.2-4.3c0-5.7-0.4-11.4-0.4-11.4c-0.2-2.6-0.3-5-0.4-7.3c0.6-0.3,1.4-0.7,2-1
			c1.9-0.9,4.5-2.1,6.1-2.9c1-0.4,1.9-0.8,1.9-0.8s6.7-0.6,7.2-0.6c0.2,0,1,0.3,2.1,0.7c2.4,0.9,6.9,2.7,7.7,3.3
			c1.1,0.8,3.3,18.9,3.4,20.2C208.6,304,207.9,320.3,207.9,320.3z"/>
	</g>
	<g>
		<path class="st9" d="M195.2,277.6c-0.5,4.5-5.5,4.5-5.5,4.5s-2.1-1.8-2-3.1c0,0,0-0.1,0-0.1c0-0.2,0.3-0.6,0.3-1
			c0-0.1,0-0.1,0-0.2c0-0.1,0-0.1,0-0.2c0-0.3,0-0.7,0-0.9c0-0.1,0-0.2,0-0.2c0-0.1,0-0.1,0-0.1s0.8-0.8,1.8-1.9
			c1.8-1.8,4.3-4,4.3-3.1c0,0,0,0.1,0,0.2C193.6,273.3,195.2,277.6,195.2,277.6z"/>
	</g>
	<g>
		<path class="st28" d="M194.7,314.8c0,0,0.4,2.6,0.4,3.2l0.9-0.2c0,0-0.2-2.7-0.4-3.2L194.7,314.8z"/>
	</g>
	<g>
		<path class="st29" d="M208.8,329.6c0,0-0.3-3.6-1.2-4.1c-1-0.5-0.4,0.6-0.4,0.6s0.6,2.6,0.7,3.6
			C207.9,329.8,208.8,329.6,208.8,329.6z"/>
	</g>
	<g>
		<g>
			<polygon class="st29" points="199.3,332.1 211.9,328.4 212.1,344 199.6,351.7 			"/>
		</g>
	</g>
	<g>
		<polygon class="st29" points="199.6,351.7 201.2,352 213.4,344.2 213,328.4 211.9,328.4 		"/>
	</g>
	<path class="st30" d="M191.8,280.2l-2.1,1.9c0,0,2.4-0.2,2.9-0.6L191.8,280.2z"/>
	<path class="st26" d="M178.6,321c0,0,9.8,0.8,18.3,0v2.8c0,0-12.9,1.9-18.8-0.5L178.6,321z"/>
	<g>
		<path class="st23" d="M186.1,279c-0.5,0.2-1.2,0.5-1.9,0.9c-1.4,0.7-3,1.4-4.3,2c-0.7,0.3-1.5,0.7-2.1,1c0.1,2.3,0.2,4.8,0.4,7.4
			c0,0,0.2,6.5,0.6,12.6c0.1,0.9,0.2,1.8,0.1,2.7c-0.1,1.2-0.2,2.5-0.4,3.9c0,0,0,0,0,0.1c0,0.3-0.1,0.7-0.1,1c0,0,0,0,0,0
			c-0.8,6.8-2.2,14.7-3,17.1c-0.2,0.5,0.4,1,0.8,1.3l2.7,1.7c0,0,1.1-10.1,1.5-13.6c0.4-3.3,1.5-7.8,2-12.1v0
			c0.6-5.5,1.5-10.9,1.9-14.1c1.2-8.3,2.8-12.1,2.8-12.1L186.1,279z"/>
	</g>
	<g>
		<path class="st23" d="M203.1,303.4c0.2,2.8-1,18.2,0.2,18.4c1.2,0.2,5.5-0.7,5.5-0.7s0.5-16.6,0.4-18.4
			c-0.1-1.3-2.1-20.3-3.2-21.1c-0.6-0.4-5.2-2.1-7.4-2.9c-0.4-0.2-0.8-0.3-1.2-0.5c-0.5,0.5-5.5,9.8-5.9,17.4
			c-0.1,2.3,0.4,7.2,0.8,11.1c0.4,4.2,0.9,7.6,1.3,11.1c0.7,7,1.2,12.5,1.2,12.5l7-3.1c1.1-0.6,2.7-2.9,2.3-4.1
			c-1.6-4.5-3.6-12.2-3.6-16.1c0,0,0.8-9.7,1.4-11.8C201.7,295.4,202.8,299.9,203.1,303.4z"/>
	</g>
	<g>
		<path class="st9" d="M204.4,321.7c0,0-0.3,1.6-0.8,3.1c-0.5,1.6-0.9,2.1-0.7,2.9c0.2,0.7,0.9,1.2,1.1,0.9c0.2-0.2,0.2-2.8,1.3-2.8
			c1.1,0-0.3,3.2,0.4,3c0.6-0.2,3.1-1.6,2.9-2.9c-0.2-1.3-1.2-2.2-1.1-4.2c0-1.8-0.5-2.5-0.5-2.5L204.4,321.7z"/>
	</g>
	<g>
		<g>
			<path class="st29" d="M205.2,325.7c0,0-1.4,0.4-1.3,5.2l1.6-0.3c0,0-0.1-2.7,0.4-4.2C205.9,326.5,205.8,325.6,205.2,325.7z"/>
		</g>
	</g>
	<g>
		<path class="st23" d="M202.9,311.2l0.1,12.2c0,0,2.4-0.1,5.8-1.4l0.2-17.3L202.9,311.2z"/>
	</g>
	<path class="st27" d="M187.4,280.6c0,0-0.2,2.6,2,2.6c2.2,0.1,3.9-2,3.9-2l-3.6,0.9l-2.2-1.9L187.4,280.6z"/>
	<path class="st31" d="M194.9,276.7c0,0-2,2.6-3.1,3.5l1.8,2.9l3-5.1L194.9,276.7z"/>
	<path class="st30" d="M187.9,280.7l1.9,1.4c0,0-1.6-3-1.7-4.3L187.9,280.7z"/>
	<polygon class="st31" points="188.1,277.8 186.9,278.6 185.5,282.6 187.9,280.7 	"/>
	<path class="st32" d="M178.5,298.2c0,0,0.5,4.6,0.2,8.7c-0.3,4.2-1.4,10.8-1.4,10.8S177.3,303.1,178.5,298.2z"/>
	<g>
		<path class="st9" d="M182.2,264.6c0,0-1.3,3.2-0.5,3.6c0.7,0.3-0.4,3.4-0.6,3.9c-0.1,0.5,1.3,0.7,1.6,1c0.3,0.3,1.6,4,2.8,4
			c1.2,0,6.1-2.3,7.4-4c1.3-1.6,1.7-8.3,0.5-11C192.2,259.4,184.5,259.1,182.2,264.6z"/>
	</g>
	<g>
		<path class="st33" d="M181.9,265.3c0,0-2-3.1,0.8-5.8c2.8-2.7,8.7,0.9,9.4,1c0.6,0.1,4.4,0.9,3.2,6.6c-1.1,5.1-1.2,5.2-1.2,5.2
			s-1.5-2.7-2.2-3.1c-1.1-0.6-3.3-0.2-3.3-0.2s0.8-2.9-0.9-3.2C185.9,265.7,183.5,264.5,181.9,265.3z"/>
	</g>
	<g>
		<path class="st9" d="M190.1,267.3c0.1-0.4,0.4-2.1,1.9-1.3s-0.5,4.2-0.7,4.3C191.1,270.3,189.2,270.6,190.1,267.3z"/>
	</g>
	<path class="st22" d="M192.7,273.4c0,0.1-1.2,2.8-4.7,4.2c0-0.1,0-0.1,0-0.2c0-0.3,0-0.7,0-0.9c0-0.1,0-0.2,0-0.2
		C188,276.3,191.7,274.5,192.7,273.4z"/>
</g>
<g>
	<path class="st34" d="M154.6,139.4v-15.2h6.8c1.8,0,3.1,0.4,4,1.2c0.9,0.8,1.4,1.9,1.4,3.3c0,1.3-0.5,2.4-1.4,3.2
		c-0.9,0.8-2.2,1.2-3.9,1.2l1.7-0.4c0.5,0,1,0.2,1.4,0.5c0.4,0.3,0.7,0.8,1,1.4l1.8,4.7h-3.5l-1.9-5c-0.2-0.4-0.4-0.7-0.7-0.8
		c-0.3-0.1-0.7-0.2-1.2-0.2h-2.2v6.1H154.6z M157.9,130.8h3c1,0,1.6-0.2,2.1-0.5c0.4-0.3,0.7-0.8,0.7-1.5c0-0.7-0.2-1.2-0.6-1.5
		c-0.4-0.3-1.1-0.5-2.1-0.5h-3V130.8z"/>
	<path class="st34" d="M179,138.3c-0.5,0.4-1.2,0.7-1.9,1c-0.8,0.2-1.5,0.4-2.3,0.4c-1.2,0-2.2-0.2-3.1-0.7c-0.9-0.5-1.5-1.1-2-1.9
		c-0.5-0.8-0.7-1.8-0.7-3c0-1.1,0.2-2.1,0.7-2.9c0.5-0.9,1.1-1.5,1.9-2c0.8-0.5,1.7-0.7,2.8-0.7c1,0,1.9,0.2,2.6,0.7
		c0.7,0.4,1.3,1.1,1.7,1.9c0.4,0.8,0.6,1.8,0.6,2.9v0.5h-7.4l0-1.6h5.4l-0.8,0.7c0-0.9-0.2-1.6-0.5-2.1c-0.4-0.5-0.9-0.7-1.6-0.7
		c-0.7,0-1.3,0.3-1.7,0.8c-0.4,0.5-0.6,1.3-0.6,2.3c0,1.2,0.2,2.1,0.7,2.6c0.5,0.5,1.2,0.8,2.2,0.8c0.6,0,1.1-0.1,1.7-0.3
		c0.6-0.2,1.1-0.4,1.5-0.8L179,138.3z"/>
	<path class="st34" d="M181.2,144v-12.3c0-0.5,0-1,0-1.5c0-0.5-0.1-1-0.1-1.5h3l0.2,2.1h-0.1c0.2-0.7,0.7-1.3,1.3-1.7
		c0.7-0.4,1.4-0.6,2.3-0.6c0.9,0,1.8,0.2,2.5,0.7c0.7,0.5,1.3,1.1,1.7,2c0.4,0.9,0.6,1.8,0.6,3c0,1.1-0.2,2.1-0.6,2.9
		c-0.4,0.8-1,1.5-1.7,1.9c-0.7,0.5-1.5,0.7-2.5,0.7c-0.9,0-1.7-0.2-2.3-0.6c-0.7-0.4-1.1-1-1.3-1.7l0.3-0.4v7.2H181.2z M186.9,137.1
		c0.8,0,1.4-0.3,1.8-0.8c0.4-0.5,0.6-1.3,0.6-2.3c0-1-0.2-1.8-0.6-2.4c-0.4-0.6-1-0.9-1.8-0.9c-0.8,0-1.4,0.3-1.9,0.8
		c-0.4,0.5-0.6,1.3-0.6,2.4c0,1,0.2,1.8,0.6,2.3C185.5,136.9,186.1,137.1,186.9,137.1z"/>
	<path class="st34" d="M199.8,139.6c-1.2,0-2.2-0.2-3-0.7c-0.9-0.5-1.5-1.1-2-1.9c-0.5-0.8-0.7-1.8-0.7-3c0-1.2,0.2-2.1,0.7-3
		c0.5-0.8,1.1-1.5,2-1.9c0.9-0.5,1.9-0.7,3-0.7c1.1,0,2.1,0.2,3,0.7c0.9,0.5,1.5,1.1,2,1.9c0.5,0.8,0.7,1.8,0.7,3
		c0,1.2-0.2,2.1-0.7,3c-0.5,0.8-1.1,1.5-2,1.9C202,139.4,201,139.6,199.8,139.6z M199.8,137.1c0.8,0,1.4-0.3,1.8-0.8
		c0.4-0.5,0.6-1.3,0.6-2.4c0-1.1-0.2-1.9-0.6-2.4c-0.4-0.5-1-0.8-1.8-0.8c-0.8,0-1.4,0.3-1.8,0.8c-0.4,0.5-0.6,1.3-0.6,2.4
		c0,1.1,0.2,1.9,0.6,2.4C198.4,136.9,199,137.1,199.8,137.1z"/>
	<path class="st34" d="M207.5,139.4v-7.7c0-0.5,0-1,0-1.5c0-0.5-0.1-1-0.1-1.5h3l0.3,2.9l-0.3-0.2c0.2-1,0.6-1.7,1.2-2.2
		c0.6-0.5,1.4-0.7,2.2-0.7c0.2,0,0.5,0,0.6,0.1c0.2,0,0.4,0.1,0.5,0.1l0,2.9c-0.5-0.2-1.1-0.4-1.6-0.4c-0.6,0-1.1,0.1-1.4,0.3
		c-0.4,0.2-0.7,0.5-0.9,0.9c-0.2,0.4-0.3,0.9-0.3,1.4v5.6H207.5z"/>
	<path class="st34" d="M216.1,131v-2.4h8v2.4H216.1z M224.1,136.8v2.5c-0.3,0.1-0.6,0.2-0.9,0.2c-0.3,0-0.6,0.1-1,0.1
		c-1.3,0-2.4-0.4-3.1-1.1c-0.7-0.8-1.1-1.8-1.1-3.2v-9.2l3.2-1v10.2c0,0.4,0.1,0.8,0.2,1c0.2,0.3,0.4,0.4,0.6,0.5
		c0.3,0.1,0.5,0.2,0.8,0.2c0.2,0,0.3,0,0.5,0C223.7,136.9,223.9,136.9,224.1,136.8z"/>
</g>
<g>
	<path class="st34" d="M241.9,288v-9.6h2.1v9.6H241.9z"/>
	<path class="st34" d="M245.9,288v-9.6h6.4v1.7H248v2.2h4.1v1.7H248v4H245.9z"/>
	<path class="st34" d="M253.7,288v-9.6h4.3c1.1,0,2,0.2,2.5,0.7c0.6,0.5,0.9,1.2,0.9,2.1c0,0.9-0.3,1.5-0.9,2
		c-0.6,0.5-1.4,0.8-2.5,0.8l1.1-0.2c0.3,0,0.6,0.1,0.9,0.3c0.3,0.2,0.5,0.5,0.6,0.9l1.2,3h-2.2l-1.2-3.2c-0.1-0.3-0.3-0.4-0.5-0.5
		c-0.2-0.1-0.5-0.1-0.7-0.1h-1.4v3.9H253.7z M255.7,282.6h1.9c0.6,0,1-0.1,1.3-0.3c0.3-0.2,0.4-0.5,0.4-0.9c0-0.4-0.1-0.7-0.4-0.9
		c-0.3-0.2-0.7-0.3-1.3-0.3h-1.9V282.6z"/>
	<path class="st34" d="M266.4,288.1c-0.5,0-1,0-1.4-0.1c-0.5-0.1-0.9-0.2-1.3-0.4c-0.4-0.2-0.8-0.4-1-0.6l0.7-1.5
		c0.5,0.3,1,0.6,1.5,0.7c0.5,0.2,1,0.2,1.6,0.2c0.6,0,1.1-0.1,1.4-0.3c0.3-0.2,0.5-0.5,0.5-0.8c0-0.2-0.1-0.4-0.2-0.5
		c-0.1-0.1-0.3-0.3-0.6-0.4c-0.3-0.1-0.7-0.2-1.2-0.3c-0.6-0.1-1.1-0.3-1.6-0.4c-0.4-0.2-0.8-0.4-1.1-0.6c-0.3-0.2-0.5-0.5-0.6-0.8
		c-0.1-0.3-0.2-0.6-0.2-1c0-0.6,0.2-1.1,0.5-1.5c0.3-0.5,0.8-0.8,1.3-1.1c0.6-0.3,1.2-0.4,2-0.4c0.5,0,0.9,0,1.3,0.1
		c0.4,0.1,0.8,0.2,1.2,0.4c0.4,0.2,0.7,0.4,0.9,0.6l-0.7,1.5c-0.4-0.3-0.9-0.6-1.3-0.7c-0.5-0.2-0.9-0.2-1.4-0.2
		c-0.5,0-1,0.1-1.3,0.3c-0.3,0.2-0.5,0.5-0.5,0.9c0,0.2,0.1,0.4,0.2,0.5c0.1,0.1,0.3,0.3,0.6,0.4c0.3,0.1,0.7,0.2,1.2,0.3
		c0.6,0.1,1.1,0.3,1.6,0.4c0.4,0.2,0.8,0.4,1.1,0.6c0.3,0.2,0.5,0.5,0.6,0.8c0.1,0.3,0.2,0.6,0.2,1c0,0.6-0.2,1.1-0.5,1.5
		c-0.3,0.4-0.8,0.8-1.4,1C268,288,267.3,288.1,266.4,288.1z"/>
</g>
<g>
	<path class="st1" d="M390.8,230.9h-94.3V162h94.3V230.9z M298.3,228.5h90.7v-64.2h-90.7V228.5z"/>
</g>
<g>
	<polygon class="st1" points="395.8,205.5 394,205.5 394,158.2 355.4,158.2 355.4,155.8 395.8,155.8 	"/>
</g>
<g>
	<path class="st1" d="M293.4,80.2h-94.3V11.3h94.3V80.2z M200.8,77.8h90.7V13.6h-90.7V77.8z"/>
</g>
<g>
	<polygon class="st1" points="298.3,55.6 296.5,55.6 296.5,8.3 257.9,8.3 257.9,6 298.3,6 	"/>
</g>
<g>
	<path class="st1" d="M211.8,68.4c-1.1,0-2-0.2-2.8-0.7c-0.8-0.4-1.4-1.1-1.8-1.9c-0.4-0.8-0.6-1.8-0.6-2.9c0-1.1,0.2-2.1,0.6-2.9
		c0.4-0.8,1-1.4,1.8-1.9c0.8-0.4,1.7-0.7,2.8-0.7c1.1,0,2,0.2,2.8,0.7c0.8,0.4,1.4,1.1,1.8,1.9c0.4,0.8,0.6,1.8,0.6,2.9
		c0,1.1-0.2,2.1-0.6,2.9c-0.4,0.8-1,1.4-1.8,1.9C213.7,68.1,212.8,68.4,211.8,68.4z M211.8,66.6c0.9,0,1.6-0.3,2.1-0.9
		c0.5-0.6,0.8-1.5,0.8-2.7c0-1.2-0.3-2.1-0.8-2.7c-0.5-0.6-1.2-0.9-2.1-0.9c-0.9,0-1.6,0.3-2.1,0.9c-0.5,0.6-0.8,1.5-0.8,2.7
		c0,1.2,0.3,2.1,0.8,2.7C210.2,66.2,210.9,66.6,211.8,66.6z"/>
	<path class="st1" d="M218.6,71.4v-8.6c0-0.4,0-0.7,0-1.1c0-0.4,0-0.7-0.1-1.1h2.1l0.2,1.5h-0.1c0.2-0.5,0.5-0.9,0.9-1.2
		c0.5-0.3,1-0.4,1.6-0.4c0.7,0,1.2,0.2,1.7,0.5c0.5,0.3,0.9,0.8,1.2,1.4c0.3,0.6,0.4,1.3,0.4,2.1c0,0.8-0.1,1.5-0.4,2.1
		c-0.3,0.6-0.7,1-1.2,1.4c-0.5,0.3-1.1,0.5-1.7,0.5c-0.6,0-1.2-0.1-1.6-0.4c-0.5-0.3-0.8-0.7-0.9-1.2l0.2-0.3v5H218.6z M222.6,66.6
		c0.6,0,1-0.2,1.3-0.6c0.3-0.4,0.4-0.9,0.4-1.6c0-0.7-0.2-1.3-0.5-1.7c-0.3-0.4-0.7-0.6-1.3-0.6c-0.6,0-1,0.2-1.3,0.6
		c-0.3,0.4-0.4,0.9-0.4,1.6c0,0.7,0.1,1.3,0.4,1.6C221.6,66.4,222,66.6,222.6,66.6z"/>
	<path class="st1" d="M234.7,67.4c-0.4,0.3-0.8,0.5-1.3,0.7c-0.5,0.2-1.1,0.2-1.6,0.2c-0.8,0-1.6-0.2-2.2-0.5
		c-0.6-0.3-1.1-0.8-1.4-1.4c-0.3-0.6-0.5-1.3-0.5-2.1c0-0.8,0.2-1.5,0.5-2.1c0.3-0.6,0.8-1.1,1.3-1.4c0.6-0.3,1.2-0.5,1.9-0.5
		c0.7,0,1.3,0.2,1.8,0.5c0.5,0.3,0.9,0.8,1.2,1.3c0.3,0.6,0.4,1.3,0.4,2v0.3h-5.2l0-1.1h3.8l-0.6,0.5c0-0.6-0.1-1.1-0.4-1.4
		c-0.3-0.3-0.6-0.5-1.1-0.5c-0.5,0-0.9,0.2-1.2,0.6s-0.4,0.9-0.4,1.6c0,0.8,0.2,1.5,0.5,1.8c0.3,0.4,0.8,0.6,1.5,0.6
		c0.4,0,0.8-0.1,1.2-0.2c0.4-0.1,0.7-0.3,1.1-0.6L234.7,67.4z"/>
	<path class="st1" d="M236.2,68.2v-5.4c0-0.4,0-0.7,0-1.1c0-0.4,0-0.7-0.1-1.1h2.1l0.2,2l-0.2-0.1c0.1-0.7,0.4-1.2,0.9-1.5
		c0.5-0.3,1-0.5,1.5-0.5c0.2,0,0.3,0,0.5,0c0.1,0,0.3,0.1,0.4,0.1l0,2.1c-0.4-0.2-0.7-0.3-1.1-0.3c-0.4,0-0.7,0.1-1,0.2
		c-0.3,0.1-0.5,0.4-0.6,0.6c-0.1,0.3-0.2,0.6-0.2,1v4H236.2z"/>
	<path class="st1" d="M245.1,68.3c-0.7,0-1.2-0.2-1.7-0.5c-0.5-0.3-0.9-0.8-1.2-1.4c-0.3-0.6-0.4-1.3-0.4-2.1c0-0.8,0.1-1.5,0.4-2.1
		c0.3-0.6,0.7-1.1,1.2-1.4c0.5-0.3,1.1-0.5,1.7-0.5c0.6,0,1.1,0.1,1.6,0.4c0.5,0.3,0.8,0.7,1,1.2l-0.2,0.1v-1.6h2.2v7.6h-2.2v-1.6
		l0.2,0c-0.2,0.5-0.5,0.9-1,1.2C246.3,68.2,245.7,68.3,245.1,68.3z M245.8,66.6c0.5,0,1-0.2,1.3-0.6c0.3-0.4,0.5-0.9,0.5-1.6
		c0-0.7-0.2-1.3-0.5-1.6c-0.3-0.4-0.7-0.6-1.3-0.6c-0.5,0-1,0.2-1.3,0.6c-0.3,0.4-0.5,0.9-0.5,1.7c0,0.7,0.2,1.2,0.5,1.6
		C244.8,66.4,245.2,66.6,245.8,66.6z"/>
	<path class="st1" d="M250.7,62.3v-1.7h5.6v1.7H250.7z M256.3,66.4v1.7c-0.2,0.1-0.4,0.1-0.6,0.2c-0.2,0-0.4,0-0.7,0
		c-0.9,0-1.6-0.3-2.1-0.8c-0.5-0.5-0.7-1.3-0.7-2.2v-6.4l2.3-0.7v7.1c0,0.3,0.1,0.5,0.2,0.7c0.1,0.2,0.3,0.3,0.4,0.4
		c0.2,0.1,0.4,0.1,0.6,0.1c0.1,0,0.2,0,0.4,0C256,66.5,256.2,66.4,256.3,66.4z"/>
	<path class="st1" d="M257.4,57.1h2.4v2.1h-2.4V57.1z M257.5,68.2v-7.6h2.3v7.6H257.5z"/>
	<path class="st1" d="M265.2,68.3c-0.8,0-1.5-0.2-2.1-0.5c-0.6-0.3-1.1-0.8-1.4-1.4c-0.3-0.6-0.5-1.3-0.5-2.1c0-0.8,0.2-1.5,0.5-2.1
		c0.3-0.6,0.8-1,1.4-1.4c0.6-0.3,1.3-0.5,2.1-0.5c0.8,0,1.5,0.2,2.1,0.5c0.6,0.3,1.1,0.8,1.4,1.4c0.3,0.6,0.5,1.3,0.5,2.1
		c0,0.8-0.2,1.5-0.5,2.1c-0.3,0.6-0.8,1-1.4,1.4C266.7,68.2,266,68.3,265.2,68.3z M265.2,66.6c0.5,0,1-0.2,1.3-0.5
		c0.3-0.4,0.4-0.9,0.4-1.7c0-0.7-0.1-1.3-0.4-1.7c-0.3-0.4-0.7-0.5-1.3-0.5c-0.6,0-1,0.2-1.3,0.5c-0.3,0.4-0.5,0.9-0.5,1.7
		c0,0.8,0.1,1.3,0.4,1.7C264.2,66.4,264.6,66.6,265.2,66.6z"/>
	<path class="st1" d="M270.6,68.2v-5.4c0-0.4,0-0.7,0-1.1c0-0.4,0-0.7-0.1-1.1h2.1l0.2,1.5l-0.2,0c0.3-0.5,0.6-0.9,1.1-1.2
		c0.5-0.3,1-0.4,1.6-0.4c1.8,0,2.7,1.1,2.7,3.2v4.6h-2.3v-4.5c0-0.5-0.1-0.9-0.3-1.2s-0.5-0.4-0.9-0.4c-0.5,0-0.9,0.2-1.2,0.5
		c-0.3,0.3-0.4,0.7-0.4,1.3v4.2H270.6z"/>
	<path class="st1" d="M282.6,68.3c-1.4,0-2.6-0.3-3.4-0.9l0.6-1.6c0.4,0.3,0.8,0.5,1.3,0.7c0.5,0.2,1,0.2,1.5,0.2
		c0.4,0,0.7-0.1,0.9-0.2c0.2-0.1,0.3-0.3,0.3-0.5c0-0.2-0.1-0.3-0.2-0.4c-0.1-0.1-0.4-0.2-0.8-0.3l-1.2-0.3
		c-0.7-0.1-1.3-0.4-1.6-0.7c-0.3-0.3-0.5-0.8-0.5-1.4c0-0.5,0.1-0.9,0.4-1.2c0.3-0.4,0.7-0.6,1.1-0.9c0.5-0.2,1.1-0.3,1.7-0.3
		c0.5,0,1.1,0.1,1.6,0.2c0.5,0.2,1,0.4,1.4,0.7l-0.6,1.5c-0.4-0.3-0.8-0.5-1.2-0.6c-0.4-0.1-0.8-0.2-1.2-0.2c-0.4,0-0.7,0.1-0.9,0.2
		c-0.2,0.1-0.3,0.3-0.3,0.5c0,0.2,0.1,0.3,0.2,0.4c0.1,0.1,0.3,0.2,0.7,0.3l1.3,0.3c0.8,0.2,1.3,0.4,1.7,0.8
		c0.3,0.4,0.5,0.8,0.5,1.4c0,0.7-0.3,1.3-0.9,1.7C284.4,68.1,283.6,68.3,282.6,68.3z"/>
</g>
<g>
	<g>
		<g>
			<g>
				<path class="st1" d="M222,25.2l-1-0.4c0-0.2-0.1-0.3-0.1-0.5l0.6-1c0.1-0.2,0.1-0.4,0-0.6c-0.3-0.5-0.6-0.9-1-1.4
					c-0.1-0.2-0.4-0.2-0.6-0.2l-1,0.2c-0.1-0.1-0.2-0.2-0.4-0.3l-0.1-1.1c0-0.2-0.1-0.4-0.3-0.5c-0.5-0.2-1-0.4-1.6-0.5
					c-0.2,0-0.4,0-0.5,0.2l-0.7,0.8h-0.4l-0.7-0.8c-0.1-0.2-0.3-0.2-0.5-0.2c-0.5,0.1-1.1,0.3-1.6,0.5c-0.2,0.1-0.3,0.3-0.3,0.5
					l-0.1,1.1c-0.1,0.1-0.3,0.2-0.4,0.3l-1-0.2c-0.2,0-0.4,0-0.6,0.2c-0.4,0.4-0.7,0.9-1,1.4c-0.1,0.2-0.1,0.4,0,0.6l0.6,1
					c-0.1,0.2-0.1,0.3-0.1,0.5l-1,0.4c-0.2,0.1-0.3,0.3-0.3,0.5v1.6c0,0.2,0.1,0.4,0.3,0.5l1,0.4c0,0.2,0.1,0.3,0.1,0.5l-0.6,1
					c-0.1,0.2-0.1,0.4,0,0.6c0.3,0.5,0.6,0.9,1,1.4c0.1,0.2,0.4,0.2,0.6,0.2l1-0.2c0.1,0.1,0.2,0.2,0.4,0.3l0.1,1.1
					c0,0.2,0.1,0.4,0.3,0.5c0.5,0.2,1,0.4,1.6,0.5c0.2,0,0.4,0,0.5-0.2l0.7-0.8h0.4l0.7,0.8c0.1,0.1,0.3,0.2,0.4,0.2
					c0,0,0.1,0,0.1,0c0.5-0.1,1.1-0.3,1.6-0.5c0.2-0.1,0.3-0.3,0.3-0.5l0.1-1.1c0.1-0.1,0.3-0.2,0.4-0.3l1,0.2c0.2,0,0.4,0,0.6-0.2
					c0.4-0.4,0.7-0.9,1-1.4c0.1-0.2,0.1-0.4,0-0.6l-0.6-1c0.1-0.2,0.1-0.3,0.1-0.5l1-0.4c0.2-0.1,0.3-0.3,0.3-0.5v-1.6
					C222.4,25.5,222.2,25.3,222,25.2z M221.2,26.9l-0.9,0.4c-0.2,0.1-0.3,0.2-0.3,0.4c-0.1,0.3-0.2,0.6-0.3,0.8
					c-0.1,0.2-0.1,0.4,0,0.5l0.5,0.9c-0.1,0.2-0.3,0.4-0.4,0.6l-1-0.2c-0.2,0-0.4,0-0.5,0.1c-0.2,0.2-0.5,0.4-0.7,0.5
					c-0.2,0.1-0.3,0.3-0.3,0.4l-0.1,1c-0.2,0.1-0.5,0.2-0.7,0.2l-0.7-0.8c-0.1-0.1-0.3-0.2-0.4-0.2h-1c-0.2,0-0.3,0.1-0.4,0.2
					l-0.7,0.8c-0.2-0.1-0.5-0.1-0.7-0.2l-0.1-1c0-0.2-0.1-0.3-0.3-0.4c-0.2-0.2-0.5-0.3-0.7-0.5c-0.1-0.1-0.3-0.2-0.5-0.1l-1,0.2
					c-0.2-0.2-0.3-0.4-0.4-0.6l0.5-0.9c0.1-0.2,0.1-0.3,0-0.5c-0.1-0.3-0.2-0.6-0.3-0.8c0-0.2-0.2-0.3-0.3-0.4l-0.9-0.4v-0.8
					l0.9-0.4c0.2-0.1,0.3-0.2,0.3-0.4c0.1-0.3,0.2-0.6,0.3-0.8c0.1-0.2,0.1-0.4,0-0.5l-0.5-0.9c0.1-0.2,0.3-0.4,0.4-0.6l1,0.2
					c0.2,0,0.4,0,0.5-0.1c0.2-0.2,0.5-0.4,0.7-0.5c0.2-0.1,0.3-0.3,0.3-0.4l0.1-1c0.2-0.1,0.5-0.2,0.7-0.2l0.7,0.8
					c0.1,0.1,0.3,0.2,0.4,0.2h1c0.2,0,0.3-0.1,0.4-0.2l0.7-0.8c0.2,0.1,0.5,0.1,0.7,0.2l0.1,1c0,0.2,0.1,0.3,0.3,0.4
					c0.2,0.2,0.5,0.3,0.7,0.5c0.1,0.1,0.3,0.2,0.5,0.1l1-0.2c0.2,0.2,0.3,0.4,0.4,0.6l-0.5,0.9c-0.1,0.2-0.1,0.3,0,0.5
					c0.1,0.3,0.2,0.6,0.3,0.8c0,0.2,0.2,0.3,0.3,0.4l0.9,0.4L221.2,26.9L221.2,26.9z"/>
			</g>
		</g>
		<g>
			<g>
				<path class="st1" d="M215,22.5c-2.2,0-4,1.8-4,4c0,2.2,1.8,4,4,4c2.2,0,4-1.8,4-4S217.2,22.5,215,22.5z M215,29.4
					c-1.6,0-2.9-1.3-2.9-2.9c0-1.6,1.3-2.9,2.9-2.9c1.6,0,2.9,1.3,2.9,2.9C217.8,28.1,216.6,29.4,215,29.4z"/>
			</g>
		</g>
		<g>
			<g>
				<path class="st1" d="M241.4,24.2l-0.8-0.3c0-0.1-0.1-0.2-0.1-0.3l0.4-0.8c0.1-0.2,0.1-0.4,0-0.6c-0.2-0.4-0.5-0.8-0.8-1.1
					c-0.1-0.2-0.4-0.2-0.6-0.2l-0.8,0.2c-0.1-0.1-0.2-0.1-0.3-0.2l-0.1-0.9c0-0.2-0.1-0.4-0.3-0.5c-0.4-0.2-0.9-0.3-1.3-0.4
					c-0.2,0-0.4,0-0.5,0.2l-0.6,0.7h-0.3l-0.6-0.7c-0.1-0.2-0.3-0.2-0.5-0.2c-0.5,0.1-0.9,0.2-1.3,0.4c-0.2,0.1-0.3,0.3-0.3,0.5
					l-0.1,0.9c-0.1,0.1-0.2,0.1-0.3,0.2l-0.8-0.2c-0.2,0-0.4,0-0.6,0.2c-0.3,0.4-0.6,0.7-0.8,1.1c-0.1,0.2-0.1,0.4,0,0.6l0.4,0.8
					c0,0.1-0.1,0.2-0.1,0.3l-0.8,0.3c-0.2,0.1-0.3,0.3-0.3,0.5V26c0,0.2,0.1,0.4,0.3,0.5l0.8,0.3c0,0.1,0.1,0.2,0.1,0.3l-0.4,0.8
					c-0.1,0.2-0.1,0.4,0,0.6c0.2,0.4,0.5,0.8,0.8,1.1c0.1,0.2,0.4,0.2,0.6,0.2l0.8-0.2c0.1,0.1,0.2,0.1,0.3,0.2l0.1,0.9
					c0,0.2,0.1,0.4,0.3,0.5c0.4,0.2,0.9,0.3,1.3,0.4c0.2,0,0.4,0,0.5-0.2l0.6-0.7h0.3l0.6,0.7c0.1,0.1,0.3,0.2,0.4,0.2
					c0,0,0.1,0,0.1,0c0.5-0.1,0.9-0.2,1.3-0.4c0.2-0.1,0.3-0.3,0.3-0.5l0.1-0.9c0.1-0.1,0.2-0.1,0.3-0.2l0.8,0.2
					c0.2,0,0.4,0,0.6-0.2c0.3-0.4,0.6-0.7,0.8-1.1c0.1-0.2,0.1-0.4,0-0.6l-0.4-0.8c0-0.1,0.1-0.2,0.1-0.3l0.8-0.3
					c0.2-0.1,0.3-0.3,0.3-0.5v-1.3C241.8,24.5,241.7,24.3,241.4,24.2z M240.6,25.6l-0.7,0.3c-0.2,0.1-0.3,0.2-0.3,0.4
					c-0.1,0.2-0.1,0.5-0.2,0.7c-0.1,0.2-0.1,0.4,0,0.5l0.4,0.7c-0.1,0.1-0.2,0.3-0.3,0.4l-0.8-0.2c-0.2,0-0.4,0-0.5,0.1
					c-0.2,0.2-0.4,0.3-0.6,0.4c-0.2,0.1-0.3,0.3-0.3,0.4l-0.1,0.8c-0.2,0.1-0.3,0.1-0.5,0.2l-0.5-0.6c-0.1-0.1-0.3-0.2-0.4-0.2h-0.8
					c-0.2,0-0.3,0.1-0.4,0.2l-0.5,0.6c-0.2,0-0.3-0.1-0.5-0.2l-0.1-0.8c0-0.2-0.1-0.3-0.3-0.4c-0.2-0.1-0.4-0.3-0.6-0.4
					c-0.1-0.1-0.3-0.2-0.5-0.1l-0.8,0.2c-0.1-0.1-0.2-0.3-0.3-0.4l0.4-0.7c0.1-0.2,0.1-0.3,0-0.5c-0.1-0.2-0.2-0.5-0.2-0.7
					c0-0.2-0.2-0.3-0.3-0.4l-0.7-0.3v-0.5l0.7-0.3c0.2-0.1,0.3-0.2,0.3-0.4c0.1-0.2,0.1-0.5,0.2-0.7c0.1-0.2,0.1-0.4,0-0.5l-0.4-0.7
					c0.1-0.1,0.2-0.3,0.3-0.4l0.8,0.2c0.2,0,0.4,0,0.5-0.1c0.2-0.2,0.4-0.3,0.6-0.4c0.2-0.1,0.3-0.3,0.3-0.4l0.1-0.8
					c0.2-0.1,0.3-0.1,0.5-0.2l0.5,0.6c0.1,0.1,0.3,0.2,0.4,0.2h0.8c0.2,0,0.3-0.1,0.4-0.2l0.5-0.6c0.2,0,0.3,0.1,0.5,0.2l0.1,0.8
					c0,0.2,0.1,0.3,0.3,0.4c0.2,0.1,0.4,0.3,0.6,0.4c0.1,0.1,0.3,0.2,0.5,0.1l0.8-0.2c0.1,0.1,0.2,0.3,0.3,0.4l-0.4,0.7
					c-0.1,0.2-0.1,0.3,0,0.5c0.1,0.2,0.2,0.5,0.2,0.7c0,0.2,0.2,0.3,0.3,0.4l0.7,0.3V25.6z"/>
			</g>
		</g>
		<g>
			<g>
				<path class="st1" d="M235.5,22.5c-1.6,0-2.9,1.3-2.9,2.9c0,1.6,1.3,2.9,2.9,2.9c1.6,0,2.9-1.3,2.9-2.9S237.1,22.5,235.5,22.5z
					 M235.5,27.1c-0.9,0-1.7-0.8-1.7-1.7c0-0.9,0.8-1.7,1.7-1.7c0.9,0,1.7,0.8,1.7,1.7C237.3,26.3,236.5,27.1,235.5,27.1z"/>
			</g>
		</g>
		<g>
			<g>
				<path class="st1" d="M241.3,43.2l-0.8-0.2c0-0.1-0.1-0.3-0.1-0.4l0.6-0.6c0.2-0.2,0.2-0.4,0.1-0.6c-0.3-0.6-0.6-1.2-1-1.8
					c-0.1-0.2-0.4-0.3-0.6-0.2l-0.8,0.3c-0.1-0.1-0.2-0.2-0.3-0.3l0.3-0.8c0.1-0.2,0-0.5-0.2-0.6c-0.6-0.4-1.2-0.8-1.8-1.1
					c-0.2-0.1-0.5,0-0.6,0.1l-0.6,0.6c-0.1,0-0.3-0.1-0.4-0.1l-0.2-0.8c-0.1-0.3-0.3-0.5-0.6-0.5h-1.9c-0.3,0-0.5,0.2-0.6,0.5
					l-0.2,0.8c-0.1,0-0.3,0.1-0.4,0.1l-0.6-0.6c-0.2-0.2-0.4-0.2-0.6-0.1c-0.6,0.3-1.2,0.6-1.8,1c-0.2,0.1-0.3,0.4-0.2,0.6l0.3,0.8
					c-0.1,0.1-0.2,0.2-0.3,0.3l-0.8-0.3c-0.2-0.1-0.5,0-0.6,0.2c-0.4,0.6-0.8,1.2-1.1,1.8c-0.1,0.2,0,0.5,0.1,0.6l0.6,0.6
					c0,0.1-0.1,0.3-0.1,0.4l-0.8,0.2c-0.3,0.1-0.5,0.3-0.5,0.6v1.9c0,0.3,0.2,0.5,0.5,0.6l0.8,0.2c0,0.1,0.1,0.3,0.1,0.4l-0.6,0.6
					c-0.2,0.2-0.2,0.4-0.1,0.6c0.3,0.6,0.6,1.2,1,1.8c0.1,0.2,0.4,0.3,0.6,0.2l0.8-0.3c0.1,0.1,0.2,0.2,0.3,0.3l-0.3,0.8
					c-0.1,0.2,0,0.5,0.2,0.6c0.6,0.4,1.2,0.8,1.8,1.1c0.2,0.1,0.5,0,0.6-0.1l0.6-0.6c0.1,0,0.3,0.1,0.4,0.1l0.2,0.8
					c0.1,0.3,0.3,0.5,0.6,0.5h1.9c0.3,0,0.5-0.2,0.6-0.5L235,52c0.1,0,0.3-0.1,0.4-0.1l0.6,0.6c0.2,0.2,0.4,0.2,0.6,0.1
					c0.6-0.3,1.2-0.6,1.8-1c0.2-0.1,0.3-0.4,0.2-0.6l-0.3-0.8c0.1-0.1,0.2-0.2,0.3-0.3l0.8,0.3c0.2,0.1,0.5,0,0.6-0.2
					c0.4-0.6,0.8-1.2,1.1-1.8c0.1-0.2,0-0.5-0.1-0.6l-0.6-0.6c0-0.1,0.1-0.3,0.1-0.4l0.8-0.2c0.3-0.1,0.5-0.3,0.5-0.6v-1.9
					C241.8,43.5,241.6,43.3,241.3,43.2z M240.6,45.3l-0.7,0.2c-0.2,0-0.4,0.2-0.4,0.5c-0.1,0.3-0.2,0.7-0.3,1
					c-0.1,0.2,0,0.5,0.2,0.6l0.6,0.5c-0.1,0.3-0.3,0.6-0.5,0.9l-0.8-0.2c-0.2-0.1-0.5,0-0.6,0.2c-0.2,0.3-0.5,0.5-0.7,0.7
					c-0.2,0.2-0.2,0.4-0.2,0.6l0.2,0.8c-0.3,0.2-0.6,0.4-0.9,0.5l-0.5-0.6c-0.2-0.2-0.4-0.2-0.6-0.2c-0.3,0.1-0.7,0.2-1,0.3
					c-0.2,0-0.4,0.2-0.5,0.4l-0.2,0.7h-1l-0.2-0.7c0-0.2-0.2-0.4-0.5-0.4c-0.3-0.1-0.7-0.2-1-0.3h0c-0.2-0.1-0.5,0-0.6,0.2l-0.5,0.6
					c-0.3-0.1-0.6-0.3-0.9-0.5l0.2-0.8c0.1-0.2,0-0.5-0.2-0.6c-0.3-0.2-0.5-0.5-0.7-0.7c-0.2-0.2-0.4-0.2-0.6-0.2l-0.8,0.2
					c-0.2-0.3-0.4-0.6-0.5-0.9l0.6-0.5c0.2-0.2,0.2-0.4,0.2-0.6c-0.1-0.3-0.2-0.7-0.3-1c0-0.2-0.2-0.4-0.4-0.5l-0.7-0.2v-1l0.7-0.2
					c0.2,0,0.4-0.2,0.4-0.5c0.1-0.3,0.2-0.7,0.3-1c0.1-0.2,0-0.5-0.2-0.6l-0.6-0.5c0.1-0.3,0.3-0.6,0.5-0.9l0.8,0.2
					c0.2,0.1,0.5,0,0.6-0.2c0.2-0.3,0.5-0.5,0.7-0.7c0.2-0.2,0.2-0.4,0.2-0.6l-0.2-0.8c0.3-0.2,0.6-0.4,0.9-0.5l0.5,0.6
					c0.2,0.2,0.4,0.2,0.6,0.2c0.3-0.1,0.7-0.2,1-0.3c0.2,0,0.4-0.2,0.5-0.4l0.2-0.7h1l0.2,0.7c0,0.2,0.2,0.4,0.5,0.4
					c0.3,0.1,0.7,0.2,1,0.3c0.2,0.1,0.5,0,0.6-0.2l0.5-0.6c0.3,0.1,0.6,0.3,0.9,0.5l-0.2,0.8c-0.1,0.2,0,0.5,0.2,0.6
					c0.3,0.2,0.5,0.5,0.7,0.7c0.2,0.2,0.4,0.2,0.6,0.2l0.8-0.2c0.2,0.3,0.4,0.6,0.5,0.9l-0.6,0.5c-0.2,0.2-0.2,0.4-0.2,0.6
					c0.1,0.3,0.2,0.7,0.3,1c0,0.2,0.2,0.4,0.4,0.5l0.7,0.2V45.3z"/>
			</g>
		</g>
		<g>
			<g>
				<path class="st1" d="M233.3,39.6c-2.8,0-5.1,2.3-5.1,5.1c0,2.8,2.3,5.1,5.1,5.1c2.8,0,5.1-2.3,5.1-5.1
					C238.4,41.9,236.1,39.6,233.3,39.6z M233.3,48.8c-2.2,0-4-1.8-4-4c0-2.2,1.8-4,4-4s4,1.8,4,4C237.3,47,235.5,48.8,233.3,48.8z"
					/>
			</g>
		</g>
		<g>
			<g>
				<rect x="223.5" y="25.4" class="st1" width="4.6" height="1.1"/>
			</g>
		</g>
		<g>
			<g>
				<path class="st1" d="M223.5,44c-0.1-0.1-0.2-0.2-0.3-0.3l0,0l-4-1.7c-0.3-0.1-0.6,0-0.7,0.3c0,0.1,0,0.1,0,0.2v1.1h-6.9v-9.1
					h-1.1v9.7c0,0.3,0.3,0.6,0.6,0.6c0,0,0,0,0,0h7.4v1.1c0,0.3,0.3,0.6,0.6,0.6h0c0.1,0,0.2,0,0.2,0l4-1.7
					C223.5,44.6,223.6,44.3,223.5,44z M219.5,45.1v-1.7l2,0.8L219.5,45.1z"/>
			</g>
		</g>
		<g>
			<g>
				<path class="st1" d="M235.1,42.7l-2.5,2.9l-1.3-1.3l-0.8,0.8l1.7,1.7c0.1,0.1,0.3,0.2,0.4,0.2c0,0,0,0,0,0
					c0.2,0,0.3-0.1,0.4-0.2l2.9-3.4L235.1,42.7z"/>
			</g>
		</g>
	</g>
	<g>
		<rect x="251.9" y="22.7" class="st35" width="35.4" height="5"/>
		<rect x="251.9" y="33.7" class="st35" width="27.8" height="5"/>
		<rect x="251.9" y="44.7" class="st35" width="31.2" height="5"/>
	</g>
</g>
<g>
	<path class="st1" d="M132.5,131.1H38.2V62.2h94.3V131.1z M40,128.8h90.7V64.6H40V128.8z"/>
</g>
<g>
	<polygon class="st1" points="137.3,106.7 135.5,106.7 135.5,59.4 96.8,59.4 96.8,57 137.3,57 	"/>
</g>
<g>
	<path class="st1" d="M306.6,220.8h-2.3l4.9-10.6h1.9l4.9,10.6h-2.3l-3.8-8.8h0.6L306.6,220.8z M306.4,218.4l0.9-1.8h5.3l0.9,1.8
		H306.4z"/>
	<path class="st1" d="M319.4,220.9c-1.4,0-2.6-0.3-3.4-0.9l0.6-1.6c0.4,0.3,0.8,0.5,1.3,0.7c0.5,0.2,1,0.2,1.5,0.2
		c0.4,0,0.7-0.1,0.9-0.2c0.2-0.1,0.3-0.3,0.3-0.5c0-0.2-0.1-0.3-0.2-0.4c-0.1-0.1-0.4-0.2-0.8-0.3l-1.2-0.3
		c-0.7-0.1-1.3-0.4-1.6-0.7c-0.3-0.3-0.5-0.8-0.5-1.4c0-0.5,0.1-0.9,0.4-1.2c0.3-0.4,0.7-0.6,1.1-0.9c0.5-0.2,1.1-0.3,1.7-0.3
		c0.5,0,1.1,0.1,1.6,0.2c0.5,0.2,1,0.4,1.4,0.7l-0.6,1.5c-0.4-0.3-0.8-0.5-1.2-0.6c-0.4-0.1-0.8-0.2-1.2-0.2c-0.4,0-0.7,0.1-0.9,0.2
		c-0.2,0.1-0.3,0.3-0.3,0.5c0,0.2,0.1,0.3,0.2,0.4c0.1,0.1,0.3,0.2,0.7,0.3l1.3,0.3c0.8,0.2,1.3,0.4,1.7,0.8
		c0.3,0.4,0.5,0.8,0.5,1.4c0,0.7-0.3,1.3-0.9,1.7C321.2,220.7,320.4,220.9,319.4,220.9z"/>
	<path class="st1" d="M326.9,220.9c-1.4,0-2.6-0.3-3.4-0.9l0.6-1.6c0.4,0.3,0.8,0.5,1.3,0.7c0.5,0.2,1,0.2,1.5,0.2
		c0.4,0,0.7-0.1,0.9-0.2c0.2-0.1,0.3-0.3,0.3-0.5c0-0.2-0.1-0.3-0.2-0.4c-0.1-0.1-0.4-0.2-0.8-0.3l-1.2-0.3
		c-0.7-0.1-1.3-0.4-1.6-0.7c-0.3-0.3-0.5-0.8-0.5-1.4c0-0.5,0.1-0.9,0.4-1.2c0.3-0.4,0.7-0.6,1.1-0.9c0.5-0.2,1.1-0.3,1.7-0.3
		c0.5,0,1.1,0.1,1.6,0.2c0.5,0.2,1,0.4,1.4,0.7l-0.6,1.5c-0.4-0.3-0.8-0.5-1.2-0.6c-0.4-0.1-0.8-0.2-1.2-0.2c-0.4,0-0.7,0.1-0.9,0.2
		c-0.2,0.1-0.3,0.3-0.3,0.5c0,0.2,0.1,0.3,0.2,0.4c0.1,0.1,0.3,0.2,0.7,0.3l1.3,0.3c0.8,0.2,1.3,0.4,1.7,0.8
		c0.3,0.4,0.5,0.8,0.5,1.4c0,0.7-0.3,1.3-0.9,1.7C328.7,220.7,327.9,220.9,326.9,220.9z"/>
	<path class="st1" d="M338.1,220c-0.4,0.3-0.8,0.5-1.3,0.7c-0.5,0.2-1.1,0.2-1.6,0.2c-0.8,0-1.6-0.2-2.2-0.5
		c-0.6-0.3-1.1-0.8-1.4-1.4c-0.3-0.6-0.5-1.3-0.5-2.1c0-0.8,0.2-1.5,0.5-2.1c0.3-0.6,0.8-1.1,1.3-1.4c0.6-0.3,1.2-0.5,1.9-0.5
		c0.7,0,1.3,0.2,1.8,0.5c0.5,0.3,0.9,0.8,1.2,1.3c0.3,0.6,0.4,1.3,0.4,2v0.3h-5.2l0-1.1h3.8l-0.6,0.5c0-0.6-0.1-1.1-0.4-1.4
		c-0.3-0.3-0.6-0.5-1.1-0.5c-0.5,0-0.9,0.2-1.2,0.6c-0.3,0.4-0.4,0.9-0.4,1.6c0,0.8,0.2,1.5,0.5,1.8c0.3,0.4,0.8,0.6,1.5,0.6
		c0.4,0,0.8-0.1,1.2-0.2c0.4-0.1,0.7-0.3,1.1-0.6L338.1,220z"/>
	<path class="st1" d="M342.6,220.9c-1.4,0-2.6-0.3-3.4-0.9l0.6-1.6c0.4,0.3,0.8,0.5,1.3,0.7c0.5,0.2,1,0.2,1.5,0.2
		c0.4,0,0.7-0.1,0.9-0.2c0.2-0.1,0.3-0.3,0.3-0.5c0-0.2-0.1-0.3-0.2-0.4c-0.1-0.1-0.4-0.2-0.8-0.3l-1.2-0.3
		c-0.7-0.1-1.3-0.4-1.6-0.7c-0.3-0.3-0.5-0.8-0.5-1.4c0-0.5,0.1-0.9,0.4-1.2c0.3-0.4,0.7-0.6,1.1-0.9c0.5-0.2,1.1-0.3,1.7-0.3
		c0.5,0,1.1,0.1,1.6,0.2c0.5,0.2,1,0.4,1.4,0.7l-0.6,1.5c-0.4-0.3-0.8-0.5-1.2-0.6c-0.4-0.1-0.8-0.2-1.2-0.2c-0.4,0-0.7,0.1-0.9,0.2
		c-0.2,0.1-0.3,0.3-0.3,0.5c0,0.2,0.1,0.3,0.2,0.4c0.1,0.1,0.3,0.2,0.7,0.3l1.3,0.3c0.8,0.2,1.3,0.4,1.7,0.8
		c0.3,0.4,0.5,0.8,0.5,1.4c0,0.7-0.3,1.3-0.9,1.7C344.4,220.7,343.6,220.9,342.6,220.9z"/>
	<path class="st1" d="M347.2,220.8v-5.4c0-0.4,0-0.7,0-1.1c0-0.4,0-0.7-0.1-1.1h2.1l0.2,1.5l-0.2-0.1c0.2-0.5,0.5-0.9,1-1.2
		c0.4-0.3,1-0.4,1.6-0.4c0.7,0,1.2,0.2,1.6,0.5c0.4,0.4,0.7,0.9,0.8,1.6l-0.4-0.4c0.2-0.5,0.6-0.9,1-1.3c0.5-0.3,1-0.5,1.6-0.5
		c0.9,0,1.5,0.3,1.9,0.8c0.4,0.5,0.6,1.3,0.6,2.4v4.6h-2.3v-4.5c0-0.5-0.1-0.9-0.3-1.1c-0.2-0.2-0.4-0.4-0.8-0.4
		c-0.4,0-0.8,0.2-1.1,0.5c-0.3,0.3-0.4,0.8-0.4,1.3v4.2H352v-4.5c0-0.5-0.1-0.9-0.3-1.1c-0.2-0.2-0.4-0.4-0.8-0.4
		c-0.5,0-0.8,0.2-1.1,0.5c-0.3,0.3-0.4,0.8-0.4,1.3v4.2H347.2z"/>
	<path class="st1" d="M367.4,220c-0.4,0.3-0.8,0.5-1.3,0.7c-0.5,0.2-1.1,0.2-1.6,0.2c-0.8,0-1.6-0.2-2.2-0.5
		c-0.6-0.3-1.1-0.8-1.4-1.4c-0.3-0.6-0.5-1.3-0.5-2.1c0-0.8,0.2-1.5,0.5-2.1c0.3-0.6,0.8-1.1,1.3-1.4c0.6-0.3,1.2-0.5,1.9-0.5
		c0.7,0,1.3,0.2,1.8,0.5c0.5,0.3,0.9,0.8,1.2,1.3c0.3,0.6,0.4,1.3,0.4,2v0.3h-5.2l0-1.1h3.8l-0.6,0.5c0-0.6-0.1-1.1-0.4-1.4
		c-0.3-0.3-0.6-0.5-1.1-0.5c-0.5,0-0.9,0.2-1.2,0.6c-0.3,0.4-0.4,0.9-0.4,1.6c0,0.8,0.2,1.5,0.5,1.8c0.3,0.4,0.8,0.6,1.5,0.6
		c0.4,0,0.8-0.1,1.2-0.2c0.4-0.1,0.7-0.3,1.1-0.6L367.4,220z"/>
	<path class="st1" d="M369,220.8v-5.4c0-0.4,0-0.7,0-1.1c0-0.4,0-0.7-0.1-1.1h2.1l0.2,1.5l-0.2,0c0.3-0.5,0.6-0.9,1.1-1.2
		c0.5-0.3,1-0.4,1.6-0.4c1.8,0,2.7,1.1,2.7,3.2v4.6h-2.3v-4.5c0-0.5-0.1-0.9-0.3-1.2s-0.5-0.4-0.9-0.4c-0.5,0-0.9,0.2-1.2,0.5
		c-0.3,0.3-0.4,0.7-0.4,1.3v4.2H369z"/>
	<path class="st1" d="M377.3,214.9v-1.7h5.6v1.7H377.3z M382.9,219v1.7c-0.2,0.1-0.4,0.1-0.6,0.2c-0.2,0-0.4,0-0.7,0
		c-0.9,0-1.6-0.3-2.1-0.8c-0.5-0.5-0.7-1.3-0.7-2.2v-6.4l2.3-0.7v7.1c0,0.3,0.1,0.5,0.2,0.7c0.1,0.2,0.3,0.3,0.4,0.4
		c0.2,0.1,0.4,0.1,0.6,0.1c0.1,0,0.2,0,0.4,0C382.6,219,382.7,219,382.9,219z"/>
</g>
<g>
	<g>
		<path class="st1" d="M337.9,167.9h-21.4c-1.6,0-3,1.3-3,3v12.7c-0.4-0.1-0.8-0.2-1.2-0.2c-2.6,0-4.8,2.1-4.8,4.8
			c0,1.5,0.7,2.8,1.8,3.7c-3,0.6-5.3,3.2-5.3,6.4v6.5h13.7v-7.6c0-0.3,0.1-0.6,0.3-0.8l1.1-1.1h17.6v-1.8c0-1.6-1.3-3-3-3h-0.6v-2.4
			h4.8c1.6,0,3-1.3,3-3v-14.3C340.9,169.2,339.6,167.9,337.9,167.9z M308.8,188.1c0-2,1.6-3.6,3.6-3.6c2,0,3.6,1.6,3.6,3.6
			c0,2-1.6,3.6-3.6,3.6C310.4,191.7,308.8,190.1,308.8,188.1z M327.5,184.6c-0.4-0.7-1.1-1.2-2-1.2c-0.6,0-1.2,0.2-1.6,0.7l-0.5,0.5
			h-6.3v-13.1h20.2v13.1H327.5z M322.2,185.7l-1.2,1.2h-4.1c-0.1-0.4-0.3-0.8-0.5-1.2H322.2z M317.1,188.1h2.7l-1.2,1.2
			c-0.7,0.7-1.6,1.3-2.5,1.7C316.7,190.2,317.1,189.2,317.1,188.1z M317.2,195.5c-0.4,0.4-0.7,1-0.7,1.6v6.4h-8.3v-7.1H307v7.1h-1.8
			v-5.4c0-3,2.4-5.4,5.4-5.4h2.4l1.5-0.2c1.9-0.3,3.7-1.2,5.1-2.5l5.3-5.3c0.2-0.2,0.5-0.3,0.8-0.3c0.6,0,1.1,0.5,1.1,1.1
			c0,0.3-0.1,0.6-0.3,0.8L317.2,195.5z M335.5,193.5v0.6h-15.2l2.4-2.4h11.1C334.7,191.7,335.5,192.5,335.5,193.5z M332,190.5h-8.1
			l2.4-2.4h5.7V190.5z M339.7,185.2c0,1-0.8,1.8-1.8,1.8h-10.5c0.2-0.3,0.4-0.8,0.4-1.2h9.5c0.7,0,1.2-0.5,1.2-1.2v-13.1
			c0-0.7-0.5-1.2-1.2-1.2h-20.2c-0.7,0-1.2,0.5-1.2,1.2V185c-0.3-0.4-0.7-0.7-1.2-1v-13.1c0-1,0.8-1.8,1.8-1.8h21.4
			c1,0,1.8,0.8,1.8,1.8V185.2z"/>
		<path class="st1" d="M327.2,172.6c-3,0-5.4,2.4-5.4,5.4c0,3,2.4,5.4,5.4,5.4c3,0,5.4-2.4,5.4-5.4
			C332.6,175.1,330.2,172.6,327.2,172.6z M330.6,175.6h-1.5c-0.2-0.6-0.5-1.2-0.7-1.6C329.3,174.3,330.1,174.9,330.6,175.6z
			 M331.4,178c0,0.4-0.1,0.8-0.2,1.2h-1.7c0.1-0.4,0.1-0.8,0.1-1.2s0-0.8-0.1-1.2h1.7C331.3,177.2,331.4,177.6,331.4,178z
			 M326.2,179.2c-0.1-0.4-0.2-0.8-0.2-1.2s0.1-0.8,0.2-1.2h2.1c0.1,0.4,0.2,0.8,0.2,1.2s-0.1,0.8-0.2,1.2H326.2z M327.9,180.4
			c-0.2,0.5-0.4,0.9-0.6,1.3c-0.2-0.3-0.4-0.8-0.6-1.3H327.9z M323,178c0-0.4,0.1-0.8,0.2-1.2h1.7c-0.1,0.4-0.1,0.8-0.1,1.2
			s0,0.8,0.1,1.2h-1.7C323.1,178.8,323,178.4,323,178z M326.6,175.6c0.2-0.5,0.4-0.9,0.6-1.3c0.2,0.3,0.4,0.8,0.6,1.3H326.6z
			 M326,174c-0.2,0.4-0.5,1-0.7,1.6h-1.5C324.3,174.9,325.1,174.3,326,174z M323.8,180.4h1.5c0.2,0.6,0.5,1.2,0.7,1.6
			C325.1,181.7,324.3,181.2,323.8,180.4z M328.4,182c0.2-0.4,0.5-1,0.7-1.6h1.5C330.1,181.2,329.3,181.7,328.4,182z"/>
		<path class="st1" d="M334.9,172.6h1.2v1.2h-1.2V172.6z"/>
		<path class="st1" d="M334.9,175h1.2v1.2h-1.2V175z"/>
		<path class="st1" d="M334.9,177.4h1.2v1.2h-1.2V177.4z"/>
		<path class="st1" d="M318.3,182.2h1.2v1.2h-1.2V182.2z"/>
		<path class="st1" d="M318.3,179.8h1.2v1.2h-1.2V179.8z"/>
		<path class="st1" d="M318.3,177.4h1.2v1.2h-1.2V177.4z"/>
	</g>
	<g>
		<rect x="349.7" y="172.8" class="st35" width="35.4" height="5"/>
		<rect x="349.7" y="183.8" class="st35" width="27.8" height="5"/>
		<rect x="349.7" y="194.8" class="st35" width="31.2" height="5"/>
	</g>
</g>
<g>
	<path class="st1" d="M45.7,118.9v-10.6h4.8c1.2,0,2.1,0.3,2.8,0.8c0.6,0.6,1,1.3,1,2.3c0,1-0.3,1.7-1,2.3c-0.7,0.6-1.6,0.9-2.7,0.9
		H48v4.3H45.7z M48,112.8h2.2c0.6,0,1.1-0.1,1.4-0.4c0.3-0.2,0.4-0.6,0.4-1c0-0.4-0.1-0.8-0.4-1c-0.3-0.2-0.8-0.4-1.4-0.4H48V112.8z
		"/>
	<path class="st1" d="M55.5,118.9v-5.4c0-0.4,0-0.7,0-1.1c0-0.4,0-0.7-0.1-1.1h2.1l0.2,2l-0.2-0.1c0.1-0.7,0.4-1.2,0.9-1.5
		c0.5-0.3,1-0.5,1.5-0.5c0.2,0,0.3,0,0.5,0c0.1,0,0.3,0.1,0.4,0.1l0,2.1c-0.4-0.2-0.7-0.3-1.1-0.3c-0.4,0-0.7,0.1-1,0.2
		c-0.3,0.1-0.5,0.4-0.6,0.6c-0.1,0.3-0.2,0.6-0.2,1v4H55.5z"/>
	<path class="st1" d="M65,119c-0.8,0-1.5-0.2-2.1-0.5c-0.6-0.3-1.1-0.8-1.4-1.4c-0.3-0.6-0.5-1.3-0.5-2.1c0-0.8,0.2-1.5,0.5-2.1
		c0.3-0.6,0.8-1,1.4-1.4c0.6-0.3,1.3-0.5,2.1-0.5c0.8,0,1.5,0.2,2.1,0.5c0.6,0.3,1.1,0.8,1.4,1.4c0.3,0.6,0.5,1.3,0.5,2.1
		c0,0.8-0.2,1.5-0.5,2.1c-0.3,0.6-0.8,1-1.4,1.4C66.5,118.9,65.8,119,65,119z M65,117.3c0.5,0,1-0.2,1.3-0.5
		c0.3-0.4,0.4-0.9,0.4-1.7c0-0.7-0.1-1.3-0.4-1.7c-0.3-0.4-0.7-0.5-1.3-0.5c-0.6,0-1,0.2-1.3,0.5c-0.3,0.4-0.5,0.9-0.5,1.7
		c0,0.8,0.1,1.3,0.4,1.7C64,117.1,64.5,117.3,65,117.3z"/>
	<path class="st1" d="M74,119c-0.8,0-1.5-0.2-2.1-0.5c-0.6-0.3-1.1-0.8-1.4-1.3c-0.3-0.6-0.5-1.3-0.5-2.1c0-0.8,0.2-1.5,0.5-2.1
		c0.3-0.6,0.8-1.1,1.4-1.4c0.6-0.3,1.3-0.5,2.1-0.5c0.5,0,1.1,0.1,1.6,0.3c0.5,0.2,0.9,0.4,1.3,0.7l-0.6,1.6c-0.3-0.2-0.6-0.4-1-0.6
		c-0.4-0.1-0.7-0.2-1-0.2c-0.6,0-1.1,0.2-1.4,0.6c-0.3,0.4-0.5,0.9-0.5,1.6c0,0.7,0.2,1.3,0.5,1.7c0.3,0.4,0.8,0.6,1.4,0.6
		c0.3,0,0.7-0.1,1-0.2c0.4-0.1,0.7-0.3,1-0.6l0.6,1.6c-0.3,0.3-0.8,0.5-1.3,0.7C75.1,118.9,74.6,119,74,119z"/>
	<path class="st1" d="M84.7,118.1c-0.4,0.3-0.8,0.5-1.3,0.7c-0.5,0.2-1.1,0.2-1.6,0.2c-0.8,0-1.6-0.2-2.2-0.5
		c-0.6-0.3-1.1-0.8-1.4-1.4c-0.3-0.6-0.5-1.3-0.5-2.1c0-0.8,0.2-1.5,0.5-2.1c0.3-0.6,0.8-1.1,1.3-1.4c0.6-0.3,1.2-0.5,1.9-0.5
		c0.7,0,1.3,0.2,1.8,0.5c0.5,0.3,0.9,0.8,1.2,1.3c0.3,0.6,0.4,1.3,0.4,2v0.3h-5.2l0-1.1h3.8l-0.6,0.5c0-0.6-0.1-1.1-0.4-1.4
		c-0.3-0.3-0.6-0.5-1.1-0.5c-0.5,0-0.9,0.2-1.2,0.6c-0.3,0.4-0.4,0.9-0.4,1.6c0,0.8,0.2,1.5,0.5,1.8c0.3,0.4,0.8,0.6,1.5,0.6
		c0.4,0,0.8-0.1,1.2-0.2c0.4-0.1,0.7-0.3,1.1-0.6L84.7,118.1z"/>
	<path class="st1" d="M93.8,118.9h-2.2V117l0.2,0.3c-0.2,0.5-0.5,0.9-1,1.2c-0.5,0.3-1,0.4-1.6,0.4c-0.7,0-1.2-0.2-1.7-0.5
		c-0.5-0.3-0.9-0.8-1.2-1.4c-0.3-0.6-0.4-1.3-0.4-2.1c0-0.8,0.1-1.5,0.4-2.1c0.3-0.6,0.7-1,1.2-1.4c0.5-0.3,1.1-0.5,1.7-0.5
		c0.6,0,1.1,0.2,1.6,0.5c0.5,0.3,0.8,0.7,1,1.2l-0.2,0.3v-5.1h2.3V118.9z M89.8,117.3c0.5,0,1-0.2,1.3-0.6c0.3-0.4,0.5-0.9,0.5-1.7
		c0-0.7-0.2-1.2-0.5-1.6c-0.3-0.4-0.7-0.6-1.3-0.6c-0.6,0-1,0.2-1.3,0.6c-0.3,0.4-0.5,0.9-0.5,1.6c0,0.7,0.2,1.3,0.5,1.7
		C88.9,117.1,89.3,117.3,89.8,117.3z"/>
	<path class="st1" d="M98.4,119c-0.9,0-1.7-0.3-2.1-0.8c-0.5-0.5-0.7-1.3-0.7-2.4v-4.5h2.3v4.5c0,0.5,0.1,0.8,0.3,1
		c0.2,0.2,0.5,0.3,0.9,0.3c0.5,0,0.8-0.2,1.1-0.5c0.3-0.3,0.4-0.7,0.4-1.3v-4.2h2.3v7.6h-2.2v-1.5l0.2,0c-0.2,0.5-0.5,0.9-1,1.2
		C99.4,118.9,99,119,98.4,119z"/>
	<path class="st1" d="M104.6,118.9v-5.4c0-0.4,0-0.7,0-1.1c0-0.4,0-0.7-0.1-1.1h2.1l0.2,2l-0.2-0.1c0.1-0.7,0.4-1.2,0.9-1.5
		c0.5-0.3,1-0.5,1.5-0.5c0.2,0,0.3,0,0.5,0c0.1,0,0.3,0.1,0.4,0.1l0,2.1c-0.4-0.2-0.7-0.3-1.1-0.3c-0.4,0-0.7,0.1-1,0.2
		c-0.3,0.1-0.5,0.4-0.6,0.6c-0.1,0.3-0.2,0.6-0.2,1v4H104.6z"/>
	<path class="st1" d="M117.3,118.1c-0.4,0.3-0.8,0.5-1.3,0.7c-0.5,0.2-1.1,0.2-1.6,0.2c-0.8,0-1.6-0.2-2.2-0.5
		c-0.6-0.3-1.1-0.8-1.4-1.4c-0.3-0.6-0.5-1.3-0.5-2.1c0-0.8,0.2-1.5,0.5-2.1c0.3-0.6,0.8-1.1,1.3-1.4c0.6-0.3,1.2-0.5,1.9-0.5
		c0.7,0,1.3,0.2,1.8,0.5c0.5,0.3,0.9,0.8,1.2,1.3c0.3,0.6,0.4,1.3,0.4,2v0.3h-5.2l0-1.1h3.8l-0.6,0.5c0-0.6-0.1-1.1-0.4-1.4
		c-0.3-0.3-0.6-0.5-1.1-0.5c-0.5,0-0.9,0.2-1.2,0.6s-0.4,0.9-0.4,1.6c0,0.8,0.2,1.5,0.5,1.8c0.3,0.4,0.8,0.6,1.5,0.6
		c0.4,0,0.8-0.1,1.2-0.2c0.4-0.1,0.7-0.3,1.1-0.6L117.3,118.1z"/>
</g>
<g>
	<g>
		<rect x="90.7" y="73.7" class="st35" width="35.4" height="5"/>
		<rect x="90.7" y="84.7" class="st35" width="27.8" height="5"/>
		<rect x="90.7" y="95.7" class="st35" width="31.2" height="5"/>
	</g>
	<g>
		<path class="st1" d="M72,91.1c-3.4,0-6.2,2.6-6.5,6H61v-4.4h-7.6V90H61v-8.7h2.2v5.5h10.9v-8l3.5-3.5c0.5-0.5,0.8-1.3,0.8-2
			c0-1.6-1.3-2.9-2.9-2.9c-0.8,0-1.5,0.3-2,0.8L69,75.8h-5.8v4.4H61v-9.8H49.3L44.6,75v15h7.6v2.7h-7.6v9.8H61v-4.4h4.4
			c0.3,3.4,3.1,6,6.5,6c3.6,0,6.6-2.9,6.6-6.6S75.6,91.1,72,91.1z M68.9,77.4l4.1-4.1l0.9,0.9l-4.1,4.1L68.9,77.4z M68.4,78.4l2,2
			l-2.3,0.8c-0.3,0.1-0.5-0.1-0.5-0.4c0,0,0-0.1,0-0.1L68.4,78.4z M71.4,79.9l-0.9-0.9l4.1-4.1l0.9,0.9L71.4,79.9z M75.7,71.4
			c1,0,1.8,0.8,1.8,1.8c0,0.5-0.2,0.9-0.5,1.3L76.3,75l-2.5-2.5l0.6-0.6C74.7,71.6,75.2,71.4,75.7,71.4z M64.3,76.9h3.6l-0.3,0.3
			l-1.1,3.3c0,0.2-0.1,0.3-0.1,0.5c0,0.8,0.7,1.5,1.5,1.5c0.2,0,0.3,0,0.5-0.1l3.3-1.1l1.3-1.3v5.8h-8.7V76.9z M46.5,74.7l2.5-2.5
			v2.5H46.5z M47.9,75.8h2.2v-2.2h7.6v3.3h-9.8V75.8z M45.7,75.8h1.1V78h12v-5.5h-8.7v-1.1h9.8v17.5H45.7V75.8z M59.9,101.5H45.7
			v-7.6h14.2V101.5z M72,103.1c-3,0-5.5-2.5-5.5-5.5s2.5-5.5,5.5-5.5s5.5,2.5,5.5,5.5S75,103.1,72,103.1z"/>
		<path class="st1" d="M70.9,100.1l-1.8-1.8l-0.8,0.8l2.6,2.6l5.3-5.3l-0.8-0.8L70.9,100.1z"/>
		<path class="st1" d="M48.5,99.3c0.9,0,1.6-0.7,1.6-1.6c0-0.9-0.7-1.6-1.6-1.6c-0.9,0-1.6,0.7-1.6,1.6
			C46.8,98.5,47.6,99.3,48.5,99.3z M48.5,97.1c0.3,0,0.5,0.2,0.5,0.5s-0.2,0.5-0.5,0.5c-0.3,0-0.5-0.2-0.5-0.5S48.2,97.1,48.5,97.1z
			"/>
		<path class="st1" d="M52.8,99.3c0.9,0,1.6-0.7,1.6-1.6c0-0.9-0.7-1.6-1.6-1.6s-1.6,0.7-1.6,1.6C51.2,98.5,51.9,99.3,52.8,99.3z
			 M52.8,97.1c0.3,0,0.5,0.2,0.5,0.5s-0.2,0.5-0.5,0.5c-0.3,0-0.5-0.2-0.5-0.5S52.5,97.1,52.8,97.1z"/>
		<path class="st1" d="M57.2,99.3c0.9,0,1.6-0.7,1.6-1.6c0-0.9-0.7-1.6-1.6-1.6s-1.6,0.7-1.6,1.6C55.6,98.5,56.3,99.3,57.2,99.3z
			 M57.2,97.1c0.3,0,0.5,0.2,0.5,0.5s-0.2,0.5-0.5,0.5c-0.3,0-0.5-0.2-0.5-0.5S56.9,97.1,57.2,97.1z"/>
		<path class="st1" d="M65.4,83.4H72v1.1h-6.6V83.4z"/>
		<path class="st1" d="M46.8,79.1h1.1v1.1h-1.1V79.1z"/>
		<path class="st1" d="M49,79.1h9.8v1.1H49V79.1z"/>
		<path class="st1" d="M46.8,81.2h12v1.1h-12V81.2z"/>
		<path class="st1" d="M46.8,87.8h12v-4.4h-12V87.8z M47.9,84.5h9.8v2.2h-9.8V84.5z"/>
	</g>
</g>
<g>
	<path class="st34" d="M31.9,398c-0.8,0.7-1.6,1.1-2.5,1.3c-0.9,0.2-1.7,0.1-2.5-0.3c-0.8-0.3-1.6-0.9-2.3-1.7
		c-0.7-0.8-1.1-1.6-1.3-2.5c-0.2-0.9-0.1-1.7,0.2-2.5c0.3-0.8,0.9-1.6,1.6-2.2c0.5-0.4,1.1-0.8,1.7-1c0.6-0.2,1.2-0.3,1.7-0.3
		l0.5,1.7c-0.6,0-1.1,0.1-1.5,0.3c-0.4,0.2-0.8,0.4-1.2,0.7c-0.7,0.6-1,1.3-1,2c0,0.8,0.4,1.6,1.1,2.4c0.7,0.9,1.5,1.3,2.2,1.5
		c0.8,0.1,1.5-0.1,2.2-0.7c0.4-0.3,0.7-0.7,0.9-1.1c0.2-0.4,0.4-0.9,0.5-1.4l1.6,0.8c-0.1,0.5-0.3,1.1-0.6,1.6
		C32.8,397.1,32.4,397.6,31.9,398z"/>
	<path class="st34" d="M38.1,392.7c-0.6,0.5-1.2,0.8-1.8,1c-0.6,0.1-1.2,0.1-1.9-0.1c-0.6-0.2-1.2-0.6-1.7-1.2
		c-0.5-0.6-0.8-1.2-0.9-1.8c-0.1-0.6-0.1-1.2,0.2-1.8c0.2-0.6,0.7-1.2,1.2-1.7c0.6-0.5,1.2-0.8,1.8-0.9c0.6-0.1,1.3-0.1,1.9,0.1
		c0.6,0.2,1.1,0.6,1.6,1.2c0.5,0.6,0.8,1.2,0.9,1.8c0.1,0.6,0.1,1.2-0.2,1.8C39.1,391.7,38.7,392.3,38.1,392.7z M37,391.5
		c0.4-0.3,0.6-0.7,0.6-1.2c0-0.4-0.2-0.9-0.7-1.5c-0.5-0.5-0.9-0.9-1.4-0.9c-0.4-0.1-0.9,0-1.3,0.4c-0.4,0.3-0.6,0.7-0.6,1.2
		c0,0.5,0.2,1,0.7,1.5c0.5,0.6,0.9,0.9,1.4,0.9C36.2,392,36.6,391.8,37,391.5z"/>
	<path class="st34" d="M42,389.3l-3.3-3.9c-0.2-0.3-0.5-0.5-0.7-0.8c-0.2-0.3-0.5-0.5-0.7-0.7l1.5-1.3l1,1l-0.2,0.1
		c-0.2-0.5-0.2-1,0-1.5c0.1-0.5,0.4-0.9,0.9-1.3c0.5-0.4,1-0.6,1.5-0.6c0.5,0,1,0.2,1.6,0.7l-0.5-0.1c-0.2-0.5-0.2-1,0-1.6
		c0.2-0.5,0.4-1,0.9-1.4c0.6-0.5,1.3-0.7,1.9-0.6c0.6,0.1,1.3,0.6,1.9,1.4l2.8,3.3l-1.6,1.4l-2.8-3.3c-0.3-0.4-0.6-0.6-0.9-0.7
		c-0.3-0.1-0.5,0-0.8,0.3c-0.3,0.3-0.5,0.6-0.5,1c0,0.4,0.2,0.8,0.6,1.2l2.6,3l-1.6,1.4l-2.8-3.3c-0.3-0.4-0.6-0.6-0.9-0.7
		c-0.3-0.1-0.5,0-0.8,0.2c-0.3,0.3-0.5,0.6-0.5,1c0,0.4,0.2,0.8,0.6,1.2l2.6,3L42,389.3z"/>
	<path class="st34" d="M53.9,383.3l-5.3-6.3c-0.2-0.3-0.5-0.5-0.7-0.8c-0.2-0.3-0.5-0.5-0.7-0.7l1.5-1.3l1,1l-0.1,0.1
		c-0.2-0.5-0.2-1-0.1-1.5c0.2-0.5,0.5-0.9,0.9-1.3c0.5-0.4,1-0.6,1.6-0.7c0.6-0.1,1.2,0,1.7,0.3c0.6,0.3,1.1,0.7,1.6,1.3
		c0.5,0.6,0.8,1.2,1,1.8c0.2,0.6,0.1,1.2,0,1.7c-0.2,0.5-0.5,1-1,1.4c-0.4,0.4-0.9,0.6-1.4,0.7c-0.5,0.1-1,0-1.4-0.3l0-0.3l3.1,3.7
		L53.9,383.3z M53.8,377.3c0.4-0.3,0.6-0.7,0.6-1.2c0-0.5-0.2-0.9-0.7-1.5c-0.4-0.5-0.9-0.8-1.4-0.9c-0.5-0.1-0.9,0-1.3,0.4
		c-0.4,0.4-0.6,0.8-0.6,1.2c0,0.5,0.3,1,0.7,1.5c0.4,0.5,0.9,0.8,1.3,0.9C52.9,377.8,53.4,377.6,53.8,377.3z"/>
	<path class="st34" d="M58.7,375.1l-6.8-8l1.6-1.4l6.8,8L58.7,375.1z"/>
	<path class="st34" d="M54.8,364.5l1.8-1.5l1.3,1.5l-1.8,1.5L54.8,364.5z M61.7,372.5L57,367l1.6-1.4l4.7,5.5L61.7,372.5z"/>
	<path class="st34" d="M66.9,368.3c-0.5,0.4-1,0.7-1.6,0.7c-0.6,0.1-1.1,0-1.7-0.3c-0.6-0.3-1.1-0.7-1.6-1.2c-0.5-0.6-0.8-1.2-1-1.8
		c-0.2-0.6-0.2-1.2,0-1.8c0.2-0.6,0.5-1,1-1.4c0.4-0.4,0.9-0.6,1.5-0.7c0.5-0.1,1,0,1.4,0.3l-0.1,0.2l-1-1.2l1.6-1.4l4.7,5.5
		l-1.6,1.4l-1-1.1l0.1-0.1c0.2,0.5,0.2,1,0.1,1.5C67.7,367.4,67.4,367.9,66.9,368.3z M66.4,366.6c0.4-0.3,0.6-0.7,0.6-1.2
		c0-0.5-0.2-1-0.7-1.5c-0.4-0.5-0.9-0.8-1.4-0.9c-0.5-0.1-0.9,0-1.3,0.4c-0.4,0.3-0.6,0.8-0.6,1.2c0,0.5,0.2,1,0.7,1.5
		c0.4,0.5,0.9,0.8,1.3,0.9C65.5,367.1,66,367,66.4,366.6z"/>
	<path class="st34" d="M71.6,364.2l-3.3-3.9c-0.2-0.3-0.5-0.5-0.7-0.8c-0.2-0.3-0.5-0.5-0.7-0.7l1.5-1.3l1,1l-0.1,0.1
		c-0.1-0.6-0.1-1.1,0-1.6c0.2-0.5,0.5-0.9,0.9-1.3c1.3-1.1,2.6-0.9,3.9,0.7l2.8,3.3l-1.6,1.4l-2.8-3.3c-0.3-0.4-0.6-0.6-0.9-0.7
		c-0.3-0.1-0.6,0-0.9,0.3c-0.4,0.3-0.6,0.7-0.6,1.1c0,0.4,0.1,0.8,0.5,1.2l2.6,3.1L71.6,364.2z"/>
	<path class="st34" d="M80.9,356.4c-0.6,0.5-1.2,0.8-1.8,1c-0.6,0.1-1.2,0.1-1.8-0.1c-0.6-0.2-1.1-0.6-1.6-1.2
		c-0.5-0.6-0.8-1.2-0.9-1.8c-0.1-0.6-0.1-1.3,0.2-1.9c0.2-0.6,0.7-1.2,1.2-1.7c0.4-0.3,0.8-0.6,1.3-0.8c0.5-0.2,0.9-0.3,1.3-0.3
		l0.5,1.5c-0.4,0-0.7,0.1-1.1,0.2c-0.3,0.1-0.6,0.3-0.9,0.5c-0.4,0.4-0.7,0.8-0.7,1.3s0.2,1,0.6,1.5c0.5,0.5,0.9,0.8,1.4,0.9
		c0.5,0.1,0.9-0.1,1.4-0.5c0.2-0.2,0.5-0.5,0.6-0.8c0.2-0.3,0.3-0.7,0.4-1l1.4,0.8c-0.1,0.4-0.2,0.8-0.5,1.3
		C81.7,355.7,81.3,356.1,80.9,356.4z"/>
	<path class="st34" d="M88.1,349.1c-0.1,0.4-0.3,0.9-0.6,1.3c-0.3,0.4-0.6,0.8-1,1.2c-0.6,0.5-1.2,0.9-1.9,1
		c-0.6,0.1-1.3,0.1-1.9-0.1c-0.6-0.2-1.2-0.6-1.7-1.2c-0.5-0.6-0.8-1.2-0.9-1.8c-0.1-0.6-0.1-1.2,0.1-1.8c0.2-0.6,0.6-1.1,1.1-1.6
		c0.5-0.4,1.1-0.7,1.6-0.8c0.6-0.1,1.1,0,1.7,0.2c0.6,0.2,1.1,0.7,1.6,1.2l0.2,0.2l-3.8,3.2l-0.7-0.8l2.8-2.4l-0.1,0.7
		c-0.4-0.5-0.8-0.7-1.2-0.8c-0.4-0.1-0.8,0-1.1,0.3c-0.4,0.3-0.6,0.7-0.5,1.2c0,0.4,0.3,0.9,0.7,1.5c0.5,0.6,1,1,1.5,1
		c0.5,0.1,1-0.1,1.5-0.5c0.3-0.2,0.5-0.5,0.7-0.9c0.2-0.3,0.4-0.7,0.4-1.1L88.1,349.1z"/>
</g>
</svg>
