<?xml version="1.0" encoding="utf-8"?>
<!-- Generator: Adobe Illustrator 21.0.0, SVG Export Plug-In . SVG Version: 6.00 Build 0)  -->
<svg version="1.1" id="Layer_1" xmlns="http://www.w3.org/2000/svg" xmlns:xlink="http://www.w3.org/1999/xlink" x="0px" y="0px"
	 viewBox="0 0 652.9 545.2" style="enable-background:new 0 0 652.9 545.2;" xml:space="preserve">
<style type="text/css">
	.st0{fill:#A27B41;}
	.st1{fill:#D0A967;}
	.st2{fill:url(#SVGID_1_);}
	.st3{fill:#FFDB93;}
	.st4{opacity:0.31;}
	.st5{fill:#AFB0B1;}
	.st6{opacity:0.24;fill:#3F444F;}
	.st7{fill:#BB9155;}
	.st8{opacity:0.3;fill:#C1C1C1;}
	.st9{fill:#EDA785;}
	.st10{fill:#162D40;}
	.st11{fill:#0E1E2B;}
	.st12{fill:#ECD9D2;}
	.st13{fill:#DA9B7C;}
	.st14{fill:#EA4747;}
	.st15{fill:#1D3B54;}
	.st16{fill:#FBCBA1;}
	.st17{fill:#AA3434;}
	.st18{fill:#285173;}
	.st19{fill:#D5C4BD;}
	.st20{fill:#252E3B;}
	.st21{fill:#F9E5DD;}
	.st22{fill:#A67860;}
	.st23{fill:#2C5395;}
	.st24{fill:#202338;}
	.st25{fill:#80807E;}
	.st26{fill:#292C47;}
	.st27{fill:#D7D4DF;}
	.st28{fill:#5D676C;}
	.st29{fill:#7F817F;}
	.st30{fill:#B3B0B9;}
	.st31{fill:#E9E5F1;}
	.st32{fill:#1F3B6B;}
	.st33{fill:#323657;}
	.st34{fill:#FFFFFF;stroke:#231F20;stroke-miterlimit:10;}
	.st35{fill:#FFFFFF;}
	.st36{opacity:0.31;fill:#D0A967;}
</style>
<g>
	<path class="st0" d="M461.6,152.3H296.3c-42.4,2.8-42.2,49.5-42.2,49.5l0,0V425h165.5V201.8C419.6,201.8,420.4,154.9,461.6,152.3z"
		/>
	<g>
		<rect x="242.6" y="204.6" class="st1" width="1.9" height="171.8"/>
	</g>
	<linearGradient id="SVGID_1_" gradientUnits="userSpaceOnUse" x1="394.859" y1="388.1462" x2="278.8763" y2="115.4296">
		<stop  offset="0" style="stop-color:#E8B965"/>
		<stop  offset="1" style="stop-color:#C5A162"/>
	</linearGradient>
	<path class="st2" d="M455,149.2c-41.2,2.7-42,49.5-42,49.5v223.2H247.5V198.8c0,0-0.2-46.7,42.2-49.5H455z"/>
	<rect x="269.2" y="207.5" class="st3" width="113.7" height="10"/>
	<rect x="269.2" y="230.7" class="st3" width="97.1" height="7.1"/>
	<rect x="269.2" y="249.5" class="st3" width="48.8" height="10.6"/>
	<rect x="332.4" y="249.5" class="st3" width="50.5" height="10.6"/>
	<rect x="269.2" y="269.8" class="st3" width="77.7" height="7.5"/>
	<rect x="269.2" y="288.6" class="st3" width="87.6" height="4.2"/>
	<rect x="269.2" y="307.4" class="st3" width="105.3" height="4.2"/>
	<g>
		<path class="st3" d="M318.4,349.6h-49.5v-23.7h49.5V349.6z M269.6,348.9h48.1v-22.3h-48.1V348.9z"/>
	</g>
	<rect x="330.2" y="326.2" class="st3" width="44.3" height="5.4"/>
	<rect x="330.2" y="337.7" class="st3" width="31.4" height="5.4"/>
	<rect x="269.2" y="363.8" class="st3" width="94.7" height="4.2"/>
	<rect x="269.2" y="382.7" class="st3" width="49.9" height="4.2"/>
	<g class="st4">
		<polygon class="st5" points="456,333.9 425.3,333.9 425.3,332 454,332 454,297.8 456,297.8 		"/>
	</g>
	<g class="st4">
		<polygon class="st5" points="309,145.9 307.1,145.9 307.1,135.9 373.6,135.9 373.6,129 375.5,129 375.5,137.9 309,137.9 		"/>
	</g>
	<g class="st4">
		<polygon class="st5" points="234.8,263.1 199.9,263.1 199.9,187.9 201.8,187.9 201.8,261.2 234.8,261.2 		"/>
	</g>
	<g>
		<path class="st1" d="M425.3,232.6h-1.9v-22.7c0-0.4-2.5-44,34.3-50.3l0.3,1.9c-35.1,6.1-32.8,47.9-32.8,48.4L425.3,232.6z"/>
	</g>
	<g>
		<polygon class="st1" points="426.3,431.5 390.5,431.5 390.5,429.6 424.4,429.6 424.4,375.4 426.3,375.4 		"/>
	</g>
	<g>
		<path class="st3" d="M398.9,393.7h-31.1v-31.1h31.1V393.7z M370.6,390.8H396v-25.4h-25.4V390.8z"/>
	</g>
	<g>
		<polygon class="st3" points="383.8,384.6 372.9,374.3 376.2,370.8 384.1,378.2 401.2,364.1 404.3,367.8 		"/>
	</g>
	<path class="st6" d="M373.9,304.1c-23.4-40.2-74.9-53.9-115.1-30.5c-4,2.3-7.8,5-11.3,7.8v19.3c5-5.9,11.1-11.1,18.2-15.2
		c33.6-19.5,76.7-8.1,96.2,25.5c6,10.3,9.1,21.5,9.5,32.7c0,0.9,0.1,1.7,0.1,2.6c0,24.3-12.6,47.9-35.1,60.9
		c-29.9,17.4-67.3,10.2-88.9-15.2v19.3c5.1,4.2,10.6,7.7,16.4,10.6h74.3c1.7-0.9,3.4-1.8,5.1-2.8
		C383.6,395.8,397.3,344.3,373.9,304.1z"/>
	
		<rect x="92.7" y="439.2" transform="matrix(-0.7682 0.6402 -0.6402 -0.7682 572.8477 694.0392)" class="st1" width="136.1" height="23.1"/>
	
		<rect x="212.2" y="396.1" transform="matrix(-0.7682 0.6402 -0.6402 -0.7682 640.8373 577.634)" class="st7" width="7.3" height="17.6"/>
	<path class="st5" d="M206.5,388.7c23.4,40.2,74.9,53.9,115.1,30.5c40.2-23.4,53.9-74.9,30.5-115.1c-23.4-40.2-74.9-53.9-115.1-30.5
		C196.8,296.9,183.1,348.4,206.5,388.7z M218.4,381.7c-10.4-17.8-12-38.3-6.2-56.6c5.1-16.1,16-30.5,31.8-39.6
		c33.6-19.5,76.7-8.1,96.2,25.5c6,10.3,9.1,21.5,9.5,32.7c0,0,0,0,0,0c0.9,25.2-11.7,50-35,63.5C281,426.7,237.9,415.3,218.4,381.7z
		"/>
	<path class="st8" d="M212.2,325.1c0,0,73.3-55.7,137.5,18.6c0,0,0,0,0,0c-0.4-11.1-3.5-22.4-9.5-32.7c-19.5-33.6-62.6-45-96.2-25.5
		C228.2,294.7,217.3,309,212.2,325.1z"/>
	<g>
		<path class="st9" d="M404.2,379.6c0,0-1.6,0.6-2.8,0.7s-3,1.4-3.4,1.9c-0.5,0.6-4.1,4.5-4.2,5c-0.1,0.5,0.9,0.3,1.3-0.1
			c0.3-0.4,3.6-3.6,3.6-3.6s-3.6,4-3.6,4.5c0,0.5,0.6,0.9,1.2,0.5c0,0,0.5,1.1,1.5,0.1l1.9-1.9c0,0-0.8,1.1,0.2,0.8
			c0.6-0.2,2.4-2.5,2.9-2.9c0.5-0.4,2.5-3.4,2.5-3.4L404.2,379.6z"/>
		<path class="st10" d="M417.1,457.4c0,0-1.4,2.7-2.2,3.3c-0.8,0.5-5.5,5.1-6.4,5.5c-1,0.4-4,1-4,2.5c0,1.5,7.9,1,9.5,0.5
			c1.5-0.5,4.1-4,5.2-4c1,0,0.7,4.3,0.7,4.3h1.1c0,0,1.4-4.5,1.4-6.1c0-1.6-0.9-5.9-0.9-5.9H417.1z"/>
		<path class="st10" d="M436.3,455.7c0,0-0.6,2.7-1.6,3.7c-1,0.9-4.7,5-5.7,5.4c-0.9,0.4-2.8,0.7-3.3,1.4c-0.6,0.7-0.2,2.7,3.3,2.5
			c3.5-0.2,4.7-0.2,5.5-0.9c0.8-0.7,3.6-3.2,4.4-3.2v3.9h1c0,0,1.7-5.1,1.1-7.3c-0.6-2.2-0.6-5.1-0.6-5.1L436.3,455.7z"/>
		<path class="st9" d="M434.9,339.3c0,0,1.6,4.2,0.4,7.4c0,0,5.9-0.4,6.1-1c0.2-0.7-0.2-6.9,0.6-8.7
			C442.8,335,434.9,339.3,434.9,339.3z"/>
		<g>
			<g>
				<g>
					<path class="st9" d="M445.6,395.1c0,0-0.3,0.9-0.3,1.6c0,0.5-0.3,1.4-0.4,1.9c-0.1,0.5-0.4,2.5-0.3,3c0,0.2,0.7,1.4,0.7,1.8
						c0,0.4-0.1,1.3,0.3,1.3c0.4,0,0.7-0.8,0.7-0.8s0,0.4,0.4,0.5c0.7,0.2,0.9-0.2,0.9-0.2s0.3,0.4,0.6,0.4c0.6,0,0.9-0.3,0.9-0.3
						s0.3,0.2,0.7,0.1c0.5-0.1,0.7-0.7,0.7-0.7s0.7,0,0.9-0.4c0.1-0.4,0-0.7,0.1-1c0-0.3-0.5-3-1.7-4.7c-1.2-1.7-0.6-3.9-0.6-3.9
						L445.6,395.1z"/>
				</g>
			</g>
		</g>
		<g>
			<path class="st11" d="M443.8,409.7l-0.7-5.1c-0.1-0.8,0.4-1.6,1.3-1.7l8-1.2c0.8-0.1,1.6,0.4,1.7,1.3l0.7,5.1
				c0.1,0.8-0.4,1.6-1.3,1.7l-8,1.2C444.7,411.1,443.9,410.5,443.8,409.7z M444.5,403.9c-0.3,0-0.5,0.3-0.4,0.6l0.7,5.1
				c0,0.3,0.3,0.5,0.6,0.4l8-1.2c0.3,0,0.5-0.3,0.4-0.6l-0.7-5.1c0-0.3-0.3-0.5-0.6-0.4L444.5,403.9z"/>
		</g>
		<g>
			
				<rect x="435.9" y="407.7" transform="matrix(-0.9896 0.1435 -0.1435 -0.9896 957.2494 768.06)" class="st12" width="30" height="21.8"/>
		</g>
		<g>
			<g>
				<path class="st13" d="M446.2,403.7c0,0-0.5-2.4,0.1-3c0.5-0.6,0.8,0.2,0.8,0.2s-0.2-0.8,0.4-1.1c0.7-0.3,0.9,0.8,0.9,0.8
					s0-0.7,0.7-0.7c0.7,0,0.7,0.9,0.7,0.9s0.5-1,1.1-0.3c1,1.2,0.5,2.9,0.5,2.9s-0.1,0.4-0.9,0.4c0,0-0.3,1-1.4,0.6
					c0,0-0.9,0.8-1.5,0C447.6,404.2,446.6,405,446.2,403.7z"/>
			</g>
		</g>
		<path class="st14" d="M434.3,345.3c0,0-3.5,1.2-5.1,1.5c-1.6,0.3-4.9,1.9-4.6,7.6c0.3,5.7,1.3,10.7,1.6,13.2
			c0.4,2.5,0.1,8.7-0.4,11.8c0,0,8.4,2.1,18.3,0c0,0-1.7-5.2-1.7-6.6c0-1.3,5.8-12.4,6.1-14.2c0.3-1.7,1.4-9.5-1.2-11.2
			c-2.6-1.7-4.8-1.5-5.9-2.2C440.2,344.5,436,344.7,434.3,345.3z"/>
		<path class="st14" d="M429.8,346.7c0,0-3.9-0.1-6.6,6c-2.7,6.1-3.4,9.6-4,10.5c-0.6,0.9-2.8,4.2-5,5.8
			c-2.2,1.6-11.1,10.7-11.1,10.7l2.5,3.2c0,0,12.9-9.2,14.3-10.7c1.3-1.6,9.5-13.5,10-15.3C430.3,354.9,434.1,348.5,429.8,346.7z"/>
		<path class="st14" d="M453,376.8c0,2.4-2.5,19-2.5,19l-4.8,0.2c0,0,1.5-16.4,2.1-20.2c0.2-1.1,0-2.8-0.2-4.7v0
			c-0.2-1.2-0.4-2.5-0.6-3.7c-0.7-3.3-1.4-6.2-1.4-6.2s-4.3-14.1,2.3-13.1c0,0,2.3,2.7,3,7c0.7,4.2,1.5,10.6,1.3,13.1
			C452.1,370.6,453,375,453,376.8z"/>
		<path class="st15" d="M425.8,379.4c0,0-1.5,3.6-1.7,4.5c-0.1,0.9-4.9,12.8-5.2,16.3c-0.3,3.5-1.3,12.9-1.7,14.3
			c-0.4,1.3,0.8,7.4,1,8.7c0.2,1.3,0.1,23.3-1.5,34.2c0,0,3.8,1.6,6.6,0c0,0,4.8-17,4.5-26.7c-0.3-9.8-1.5-13.9,0-17.9
			c1.5-3.9,10.4-15.8,11.3-17c0.9-1.3,6.5-8.2,1.2-15.7C435,372.5,425.8,379.4,425.8,379.4z"/>
		<path class="st15" d="M444.2,411.5c-0.5,3.1,0,7.3,1,18.8c1,11.5-1.7,25.4-1.7,25.4c-3.4,1.2-7.3,0-7.3,0c0.1-0.8,0-28,0-30.4
			c0-2.4-0.7-5.2-0.9-8c-0.1-1.9-1-5.4-2-9c-0.3-1.1-0.6-2.1-0.9-3.2c0,0,0,0,0,0c-0.2-0.6-0.3-1.2-0.5-1.7
			c-1.4-4.8-3.3-23.6-3.3-23.6s10.4-8.4,15.5-0.5c5.1,7.9,2.5,13.6,2.3,14.6C446.2,395,444.6,408.4,444.2,411.5z"/>
		<path class="st14" d="M425,364.7c0,0,0.7,14.1-2.7,22.3c0,0,11.1,3.7,25.4,0c0,0-3.1-10.1-2.8-11.7c0.2-1.5,5.6-19.4,4-23.6
			C447.2,347.5,426.6,351.5,425,364.7z"/>
		<path class="st9" d="M438.2,322.9c-2.5-0.3-9,0.2-8.5,10c0.5,9.7,4,9.2,7.6,8.1c3.5-1,7.8-8.6,7.8-10.6
			C445.1,328.4,445.4,323.7,438.2,322.9z"/>
		<path class="st16" d="M430.1,328.4c0,0,2.8,3.6,5.6,4.5c0,0,2.2,3.9,6,4.9c0,0,8.1-7.8,1.3-13.6
			C436.2,318.3,430.1,325.4,430.1,328.4z"/>
		<path class="st9" d="M435.2,331.5c0.1-0.5,1.3-1.6,2.2-0.4c0.9,1.2-0.7,4-1.4,4C435.4,335.2,434.9,333.5,435.2,331.5z"/>
		<path class="st16" d="M444.2,325.9c0.2-0.3,6.4-3.1,7.6,2.7c1.3,5.8-5,12.5-6,15.4c-1.1,2.9,0,9.8,0,9.8s-3.3-3.5-4.4-7.1
			C440.1,342.7,439.7,332.7,444.2,325.9z"/>
		<path class="st10" d="M439.9,394.6c-0.1,0.2-5.3,11.7-6.6,13.7c-0.3-1.1-0.6-2.1-0.9-3.2c0,0,0,0,0,0S439.7,394.9,439.9,394.6z"/>
		<path class="st17" d="M448.7,359.3c0,0-0.2,7.3-1.1,11.8c-0.2-1.2-0.4-2.5-0.6-3.7C447,367.2,448.5,360.4,448.7,359.3z"/>
	</g>
	<g>
		<g>
			<g>
				<path class="st9" d="M264.5,396.7c0,0,0.6,0.6,0.9,1.2c0.2,0.5,0.8,1,1,1.4c0.3,0.3,1.3,1.9,1.5,2.4c0.1,0.2,0,1.4,0.1,1.8
					c0.2,0.4,0.6,1,0.3,1.2c-0.3,0.1-0.9-0.4-0.9-0.4s0.1,0.3-0.1,0.5c-0.5,0.4-0.9,0.1-0.9,0.1s-0.1,0.5-0.3,0.6
					c-0.5,0.2-0.9,0-0.9,0s-0.2,0.4-0.6,0.5c-0.5,0.1-0.8-0.3-0.8-0.3s-0.6,0.3-0.8,0c-0.3-0.2-0.3-0.5-0.5-0.7
					c-0.2-0.2-0.8-2.6-0.5-4.6c0.3-1.9-1.2-3.3-1.2-3.3L264.5,396.7z"/>
			</g>
		</g>
	</g>
	<g>
		<path class="st11" d="M269.8,411.4h-8.2c-0.8,0-1.5-0.7-1.5-1.5v-5.2c0-0.8,0.7-1.5,1.5-1.5h8.2c0.8,0,1.5,0.7,1.5,1.5v5.2
			C271.3,410.7,270.6,411.4,269.8,411.4z M261.6,404.2c-0.3,0-0.5,0.2-0.5,0.5v5.2c0,0.3,0.2,0.5,0.5,0.5h8.2c0.3,0,0.5-0.2,0.5-0.5
			v-5.2c0-0.3-0.2-0.5-0.5-0.5H261.6z"/>
	</g>
	<g>
		<rect x="250.2" y="409.2" class="st1" width="30.9" height="22.2"/>
	</g>
	<g>
		<path class="st9" d="M252.6,349.9c0,0-1.6,0-2.3,4.8c-0.7,4.7,0.6,6.7,0.8,8.7c0.2,2,2.5,14.7,2.5,15.3c0.1,0.6,0.4,7.3,1.3,9.1
			c0.9,1.8,7.5,12,7.6,12.5c0.1,0.5,3.2-1.8,3.2-1.8s-5.2-10.9-5.5-12.1s-2.4-7.6-2.1-9.5c0.3-1.9-0.9-12.6-0.8-13.8
			C257.4,361.8,255.6,350.6,252.6,349.9z"/>
	</g>
	<g>
		<path class="st18" d="M252.6,349.9c0,0-1.6,0-2.3,4.8c-0.7,4.7-0.1,6.4,0.3,8.5c0.4,1.9,1.7,13.8,1.8,14.4
			c0.1,0.6,1.6,7.7,2.5,10.2c0.6,1.9,6.5,11.9,6.6,12.4c0.1,0.5,4.6-2.3,4.6-2.3s-5.8-11.3-6.1-12.5c-0.3-1.2-1.3-5.5-1.3-7.5
			c0-2.3-1.5-13.6-1.4-14.8C257.4,361.8,257,351.5,252.6,349.9z"/>
	</g>
	<path class="st12" d="M239.3,460.3c0,0,2.8,4.1,3.9,5.1c0,0,2.6,0.9,2.7,2.6c0.1,1.1,0,3-2.9,3c-2.9,0.1-4.8-0.9-5.3-2.7
		c-0.5-1.8-1.5-2.6-1.5-2.6v3.7h-0.7c0,0-0.2-3.6-0.2-4.2c0-0.7-0.5-3.2,0.9-4.3C237.5,459.9,239.3,460.3,239.3,460.3z"/>
	<path class="st12" d="M258,457.1c0,0,0.5,1.1,1.4,2.3c0.7,0.9,2.7,4.4,3.6,4.7c0.9,0.2,3.7,0.7,4,2.3c0.2,1.6,0.4,2.7-2.4,2.8
		c-2.8,0.1-4.6,0.3-5.9-1.6c-1.3-1.9-3.4-3.3-3.4-3.3v5h-1.1c0,0-0.5-5.3-0.8-5.6c-0.3-0.4-1-4.4,1.5-6.5
		C257.5,455,258,457.1,258,457.1z"/>
	<path class="st9" d="M237.5,381.3c0,0-3.5,4.5-4.4,9.9c-0.9,5.4,0.6,23.4,0.5,26.1c0,2.7-2.5,9.3-2,14.3c0.5,5,4.6,29.5,4.6,29.5
		l3.2-0.6c0,0-0.3-25.4,0-27.5c0.3-2.1,0.9-9.8,1.1-10.6c0.1-0.9,7.8-23.6,7.8-27.4C248.2,390.9,245.9,375,237.5,381.3z"/>
	<path class="st9" d="M255,383.1c0,0,5.7,21.8,6.4,24.9c0.7,3,1.7,5.5,1.7,6.8c0,3-1.1,7.8-1.1,7.8l-3.9,34.6H255
		c0,0-1.9-20.2-2.2-24.3c-0.3-4.1,2.2-10.4,1.6-12.1s-9.9-21.7-9.9-21.7S237.3,376.7,255,383.1z"/>
	<path class="st9" d="M243.7,465.6c0,0-2.4,1.2-4.6-0.4c-2.2-1.6-2.9-4.2-2.9-4.2l3.2-0.6L243.7,465.6z"/>
	<path class="st9" d="M263,464c0,0-2.5,0.6-3.4,0c-0.9-0.6-4.2-6.1-5.2-6.4c0,0,1-2.1,3.6-0.6C258,457.1,262.3,463.1,263,464z"/>
	<path class="st15" d="M262.3,411.4c0,0-10.5,6.2-30.2,6.2c0,0-1.1-22.9,1.7-29.3c2.9-6.4,21.9-2.4,21.9-2.4
		S261.6,406.7,262.3,411.4z"/>
	<g>
		<path class="st12" d="M247.9,348.2c0,0,3.1,1.4,4.1,1.7c1.1,0.2,5.2,5.6,5.9,7.5c0.7,2,0,4.9-1.5,8.3c-1.5,3.4-0.1,4.6-0.8,8
			c-0.7,3.4-1.3,10.7-1.1,12.6c0.1,1.9-17.2,2.3-21.1-1.2c0,0,4-5.9,4.5-6.8c0.5-0.8,0.1-5.5-0.4-6.7c-0.5-1.2-3.6-11.3-3.6-11.3
			s-2.5-7.8-0.2-9.5c2-1.5,7.4-2.1,8.4-2.4C243.1,348,245.9,347.9,247.9,348.2z"/>
	</g>
	<g>
		<path class="st19" d="M248.9,355l1.9-2.2l-1.6-5.7C249.1,347.1,248.6,350.3,248.9,355z"/>
	</g>
	<g>
		<path class="st9" d="M244.1,326.5c1.8-0.6,8.5-2.2,10.1,6.3c1.6,8.5-3.1,14.6-7.5,13c-4.3-1.6-7-7.5-7.3-12
			S241.8,327.3,244.1,326.5z"/>
	</g>
	<g>
		<path class="st20" d="M254.1,332.8c0,0,0.3-7.3-6.9-7.6c-7.3-0.3-9.2,5.7-8.6,10.1c0.6,4.4,3.6,6.7,3.6,6.7s-0.3-3.5,1.1-4.4
			c1.4-0.9,7.1-2.7,9.5-7C252.8,330.6,254,331.9,254.1,332.8z"/>
	</g>
	<g>
		
			<ellipse transform="matrix(0.3124 -0.9499 0.9499 0.3124 -148.6591 455.7019)" class="st20" cx="240.5" cy="330.5" rx="5.5" ry="4.8"/>
	</g>
	<g>
		<path class="st9" d="M249.4,344.7c0,0-0.6,5.6-0.5,7.4c0,0-3.2,3.2-6.8-3.7c0,0,1.5-2.8,0.4-6.7
			C241.3,337.8,249.4,344.7,249.4,344.7z"/>
	</g>
	<g>
		<polygon class="st9" points="248.9,352.1 248.9,355 245.2,352.3 		"/>
	</g>
	<g>
		<polygon class="st19" points="248.9,355 247.4,353.1 242.3,348 240.6,349.6 		"/>
	</g>
	<g>
		<path class="st18" d="M241.6,348.5c0,0,4.3,6.5,4.5,9.4c0.2,2.9-1.6,24.3-3,31.2c-1.4,6.9-11.8-0.8-11.8-0.8s7-11.3,4.3-20.4
			c-2.7-9.1-3.7-12.7-3.7-12.7s0.9-5,4.2-5.8C238.9,348.8,241.6,348.5,241.6,348.5z"/>
	</g>
	<g>
		<path class="st18" d="M258.2,358.2c0,0,0.8,2.7-2.2,8.8c0,0,0,7.7,0.1,10.2c0.1,2.4,0.7,11.6,0.7,11.6l-3,1.7
			c-0.6,0.4-1.3-0.1-1.3-0.8c0.8-7,3.6-33.4-2.3-40.5l2.4,0.7C252.6,349.9,256.8,353.4,258.2,358.2z"/>
	</g>
	<g>
		<path class="st9" d="M244,336c-0.3-0.7-1.1-0.9-1.7-0.5c-0.5,0.4-0.8,1.5,0,3C243.2,340,246,341.1,244,336z"/>
	</g>
	<g>
		<polygon class="st21" points="250.7,352.8 253.1,353.5 249.1,347.1 		"/>
	</g>
	<g>
		<polygon class="st21" points="247.4,353.1 245.2,355.9 240.8,348.6 242.3,348 		"/>
	</g>
	<g>
		<path class="st22" d="M249.2,345.9l-0.1,1.1c0,0-2.5,0.5-5.8-3.6C243.3,343.5,245.7,346.3,249.2,345.9z"/>
	</g>
	<g>
		<g>
			<g>
				<path class="st9" d="M262.2,380.2c0,0,1.5,1,2.3,0.4c0.7-0.5,2-0.5,2.4-0.5c0.5,0,2.1-0.7,2.1,0c0,0.7-2.5,1.2-3.1,1.5
					c-0.5,0.2,1.8,1.3,2,1.9c0.3,0.5-1.8,4.2-3.3,3.2c-1.5-0.9-2.4-2.9-2.7-3c-0.3-0.1-1.1-0.6-1.1-0.6L262.2,380.2z"/>
			</g>
		</g>
	</g>
	<g>
		<path class="st9" d="M234,350.5c0,0,2.1-0.5,3.8,1.4c1.8,1.9,2.7,5.1,3.1,6.1c0.5,1,6.4,10.4,6.7,10.7c0.3,0.2,6.3,5,9,7.6
			c2.7,2.6,8,5.5,8,5.5l-2,2.8c0,0-16.1-8.6-18.1-11.7c-2-3.1-10.2-11.8-10.2-11.8S229.7,353.6,234,350.5z"/>
	</g>
	<g>
		<g>
			<g>
				<path class="st9" d="M267.8,383.1c0,0,4.3,3.2,4.4,3.6c0.1,0.5-0.1,0.7-0.5,0.4c-0.4-0.3-4.3-3-4.3-3s4.5,4.6,4.6,5
					c0.1,0.2-0.2,0.7-0.5,0.5c-0.2-0.1-4.9-4.5-4.9-4.5s4.2,4.3,4.2,4.7c0,0.3-0.4,0.6-0.7,0.3c-0.3-0.3-4.4-4.1-4.4-4.1
					s2.8,3.3,2.7,3.6c-0.1,0.2-0.3,0.6-1-0.3c-0.7-0.9-2.6-2.8-2.6-2.8L267.8,383.1z"/>
			</g>
		</g>
	</g>
	<path class="st15" d="M256.7,365.5c0,0,0.1,9.7-0.4,14.3L256,367L256.7,365.5z"/>
	<g>
		<path class="st18" d="M235.1,349.8c0,0,1.2,0.2,3,2.1c1.8,1.9,2.7,5.1,3.1,6.1c0.5,1,6.4,10.4,6.7,10.7c0.3,0.2,5.3,3.6,8,6.2
			c2.7,2.6,7.8,5.7,7.8,5.7l-2.6,3.9c0,0-14.2-7.9-16.4-10.8c-2.4-3.2-11-12.6-11-12.6S228.1,352.3,235.1,349.8z"/>
	</g>
	<g>
		<g>
			<path class="st13" d="M267.5,404c0,0-0.6-2.2-1.2-2.5c-0.7-0.3-0.5,0.5-0.5,0.5s-0.1-0.8-0.8-0.7c-0.6,0-0.4,1-0.4,1
				s-0.3-0.6-0.9-0.3c-0.6,0.3-0.2,1-0.2,1s-0.8-0.6-1,0.2c-0.3,1.4,0.7,2.6,0.7,2.6s0.3,0.3,0.9,0c0,0,0.6,0.7,1.4-0.1
				c0,0,1.1,0.3,1.2-0.6C266.5,405,267.7,405.3,267.5,404z"/>
		</g>
	</g>
	<path class="st15" d="M244.8,375.7l-4.9-7.8c0,0,4.1,4.9,4.6,5.4c0.4,0.5,0.5,0.6,0.5,0.6S244.8,375.5,244.8,375.7z"/>
	<g>
		<path class="st9" d="M295.4,394.6c0,0,0.3,1.5,0.9,3.1c0.3,0.8,0.4,5.7,0.4,6.4c0,0.5-0.4,0.2-0.6-0.1c-0.1-0.2-0.4-1.9-0.7-2.8
			c-0.3-0.8-0.5-1.1-0.6-0.8c-0.1,0.2-0.4,3.4-0.1,4.8c0.3,1.4,0,4.5-0.7,4c-0.7-0.5-2.4-6.1-2.3-8.3c0.1-2.1,0.9-4.8,0.9-4.8
			L295.4,394.6z"/>
		<g>
			<path class="st23" d="M294.8,397.5c0,0,2.3-15.5,3-18.5c0.3-1.3,1.1-4.7,1.5-7.4c0.2-0.9,0.3-1.8,0.4-2.7c0,0,0,0,0,0
				c0.5-3.6,0.6-6.9,0.6-6.9s2-9.3-3.8-9.9c0,0-1.6,0.5-1.7,1.1c-0.4,2.5-1.2,7.8-1.2,9.1c0,1-1.5,11.5-1.6,11.8
				c0,0.7-0.4,5.5-0.5,7.7c-0.3,4.9-0.5,16-0.5,16L294.8,397.5z"/>
		</g>
		<g>
			<path class="st24" d="M292.9,463.7c0,0-2.3,2.5-4.6,3.1c-2.3,0.5-3.9,1.2-3.9,2.7c0,1.4,6.6,2.4,9.2,0.9c3.9-2.2,4.3-1.5,4.8-2.6
				c0.4-1.1-0.5-4-0.5-4.4C297.9,463,292.9,463.7,292.9,463.7z"/>
		</g>
		<g>
			<path class="st24" d="M316,464.4c0,0-1.7,2.5-3.9,3c-2.2,0.6-3.6,1.6-3.7,3c-0.1,1.4,5.2,3.3,8.9,0.8c2.4-1.6,3.3-1.5,3.8-2.6
				c0.5-1-0.3-3.9-0.2-4.3C320.9,464,316,464.4,316,464.4z"/>
		</g>
		<g>
			<path class="st25" d="M293.1,462.5c0,0-0.3,1.2-0.3,1.2c0,0,5.2,0.6,5-0.3c-0.1-0.8-0.3-1.6-0.3-1.6L293.1,462.5z"/>
		</g>
		<g>
			<path class="st25" d="M316,463.2c0,0-0.1,1.2-0.1,1.2c0,0,4.9,0.9,4.9,0c0-0.7-0.3-1.7-0.3-1.7L316,463.2z"/>
		</g>
		<g>
			<path class="st26" d="M297.8,391.7c0,0-1.9,18.1-2.8,24.3c-1.1,7.3-1.5,13.2-1.8,17c-0.4,4.7-0.5,27.9-0.8,29.3
				c-0.3,1.4,6.2,0.4,6.2,0.4s3.2-30.3,4.4-35.4c1.1-4.7,5.2-24.8,6.2-23.6c1,1.3,2.3,23.5,3,27.2c0.7,3.7,3,32.6,3,32.6
				s5.1,1,6.5-0.1c0,0,0.6-24.9,0.1-31.8c-0.2-2.6,3.1-31.6-1.1-43.3C318.5,382.2,297.8,391.7,297.8,391.7z"/>
		</g>
		<g>
			<path class="st27" d="M329.8,394.3c0,0-3.1,1-4.5,0.7c-1.3-0.2-0.7-16.4-0.7-19.8c0-2.7-1.5-9.9-1.5-9.9s0,0,0,0c0,0,0,0,0,0
				c0,0,0,0,0,0c-0.1,0.5-2.2,8-2.2,11.6c-0.1,3.7,0.5,18,0.5,18l-5,2.4l-17.3,0.5l-2.5,0c0,0,0.4-8.5,0.5-11.3
				c0.1-1.8,0.4-5.1,0.4-8.3c0,0,0.1-3.4-0.3-4.8c0-6.4-0.4-12.8-0.4-12.8c-0.2-2.9-0.4-5.6-0.5-8.2c0.7-0.4,1.5-0.8,2.2-1.1
				c2.1-1,5-2.3,6.9-3.2c1.1-0.5,2.2-0.9,2.2-0.9s7.5-0.7,8.1-0.7c0.2,0,1.1,0.3,2.4,0.8c2.7,1,7.8,3.1,8.6,3.6
				c1.2,0.9,3.7,21.2,3.8,22.6C330.6,376,329.8,394.3,329.8,394.3z"/>
		</g>
		<g>
			<path class="st9" d="M315.6,346.4c-0.5,5-6.2,5-6.2,5s-2.3-2-2.2-3.5c0,0,0-0.1,0-0.1c0-0.3,0.3-0.6,0.4-1.2c0-0.1,0-0.2,0-0.2
				c0-0.1,0-0.2,0-0.2c0-0.4,0-0.8,0-1c0-0.1,0-0.2,0-0.2c0-0.1,0-0.1,0-0.1s0.9-1,2.1-2.1c2-2,4.8-4.5,4.8-3.5c0,0.1,0,0.1,0,0.2
				C313.8,341.6,315.6,346.4,315.6,346.4z"/>
		</g>
		<g>
			<path class="st28" d="M315,388c0,0,0.5,2.9,0.5,3.6l1-0.2c0,0-0.3-3-0.4-3.5L315,388z"/>
		</g>
		<g>
			<path class="st29" d="M330.8,404.7c0,0-0.3-4-1.4-4.6c-1.1-0.6-0.4,0.6-0.4,0.6s0.6,2.9,0.8,4.1
				C329.8,404.8,330.8,404.7,330.8,404.7z"/>
		</g>
		<g>
			<g>
				<polygon class="st29" points="320.2,407.5 334.3,403.3 334.5,420.8 320.5,429.4 				"/>
			</g>
		</g>
		<g>
			<polygon class="st29" points="320.5,429.4 322.3,429.7 335.9,421 335.5,403.3 334.3,403.3 			"/>
		</g>
		<path class="st30" d="M311.8,349.3l-2.3,2.1c0,0,2.7-0.2,3.2-0.6L311.8,349.3z"/>
		<path class="st26" d="M297,395.1c0,0,11,0.9,20.5,0v3.1c0,0-14.4,2.1-21-0.6L297,395.1z"/>
		<g>
			<path class="st23" d="M305.3,347.9c-0.6,0.3-1.3,0.6-2.1,1c-1.6,0.7-3.4,1.6-4.8,2.2c-0.8,0.4-1.7,0.8-2.4,1.1
				c0.1,2.6,0.2,5.4,0.4,8.3c0,0,0.2,7.3,0.6,14.1c0.1,1,0.2,2,0.1,3c-0.1,1.3-0.2,2.8-0.4,4.3c0,0,0,0,0,0.1c0,0.4-0.1,0.7-0.1,1.1
				c0,0,0,0,0,0c-0.9,7.7-2.5,16.5-3.3,19.1c-0.2,0.6,0.4,1.1,0.9,1.5l3,1.9c0,0,1.2-11.4,1.6-15.2c0.4-3.7,1.6-8.7,2.2-13.6v0
				c0.7-6.2,1.6-12.2,2.2-15.8c1.3-9.4,3.1-13.5,3.1-13.5L305.3,347.9z"/>
		</g>
		<g>
			<path class="st23" d="M324.4,375.4c0.2,3.1-1.1,20.4,0.2,20.6c1.3,0.2,6.2-0.8,6.2-0.8s0.6-18.6,0.4-20.6
				c-0.1-1.4-2.4-22.7-3.6-23.6c-0.7-0.5-5.8-2.3-8.3-3.3c-0.5-0.2-0.9-0.4-1.3-0.5c-0.5,0.6-6.2,11-6.6,19.5
				c-0.1,2.6,0.5,8,0.9,12.5c0.5,4.8,1,8.5,1.4,12.4c0.8,7.8,1.3,14.1,1.3,14.1l7.8-3.5c1.3-0.6,3-3.2,2.5-4.5
				c-1.8-5-4.1-13.7-4.1-18.1c0,0,0.9-10.8,1.6-13.2C322.9,366.4,324.1,371.4,324.4,375.4z"/>
		</g>
		<g>
			<path class="st9" d="M325.8,395.8c0,0-0.4,1.7-0.9,3.5c-0.5,1.7-1,2.3-0.8,3.3c0.2,0.7,1,1.3,1.2,1.1c0.2-0.2,0.3-3.2,1.5-3.2
				c1.2,0-0.3,3.6,0.4,3.3c0.7-0.3,3.5-1.8,3.3-3.3c-0.2-1.5-1.3-2.5-1.3-4.7c0-2-0.6-2.8-0.6-2.8L325.8,395.8z"/>
		</g>
		<g>
			<g>
				<path class="st29" d="M326.8,400.3c0,0-1.6,0.4-1.4,5.9l1.8-0.3c0,0-0.1-3,0.4-4.7C327.6,401.2,327.5,400.2,326.8,400.3z"/>
			</g>
		</g>
		<g>
			<path class="st23" d="M324.2,384.1l0.1,13.7c0,0,2.7-0.1,6.5-1.5l0.3-19.4L324.2,384.1z"/>
		</g>
		<path class="st27" d="M306.9,349.7c0,0-0.2,2.9,2.2,2.9c2.4,0.1,4.3-2.3,4.3-2.3l-4,1l-2.4-2.1L306.9,349.7z"/>
		<path class="st31" d="M315.2,345.4c0,0-2.3,2.9-3.5,3.9l2,3.3l3.4-5.8L315.2,345.4z"/>
		<path class="st30" d="M307.3,349.9l2.1,1.5c0,0-1.8-3.3-1.9-4.8L307.3,349.9z"/>
		<polygon class="st31" points="307.6,346.6 306.2,347.6 304.7,352 307.3,349.9 		"/>
		<path class="st32" d="M296.8,369.5c0,0,0.6,5.1,0.3,9.8c-0.3,4.7-1.6,12.1-1.6,12.1S295.5,375,296.8,369.5z"/>
		<g>
			<path class="st9" d="M301,331.8c0,0-1.5,3.6-0.5,4c0.8,0.4-0.5,3.8-0.6,4.4c-0.2,0.6,1.4,0.8,1.8,1.1c0.4,0.3,1.8,4.5,3.1,4.5
				c1.3,0,6.9-2.6,8.3-4.4c1.4-1.8,1.9-9.3,0.5-12.3C312.2,326,303.6,325.6,301,331.8z"/>
		</g>
		<g>
			<path class="st33" d="M300.7,332.6c0,0-2.2-3.4,0.8-6.5c3.1-3.1,9.8,1,10.5,1.1c0.7,0.1,4.9,1,3.5,7.4c-1.2,5.7-1.4,5.9-1.4,5.9
				s-1.7-3-2.5-3.5c-1.2-0.7-3.7-0.2-3.7-0.2s0.9-3.3-1-3.5C305.1,333,302.5,331.7,300.7,332.6z"/>
		</g>
		<g>
			<path class="st9" d="M309.8,334.8c0.1-0.4,0.5-2.4,2.2-1.4s-0.5,4.7-0.8,4.8C310.9,338.2,308.8,338.6,309.8,334.8z"/>
		</g>
		<path class="st22" d="M312.8,341.6c0,0.1-1.3,3.2-5.2,4.7c0-0.1,0-0.2,0-0.2c0-0.4,0-0.8,0-1c0-0.1,0-0.2,0-0.2
			C307.5,344.9,311.7,342.9,312.8,341.6z"/>
	</g>
	<path class="st34" d="M593,198.9"/>
	<path class="st34" d="M635.8,240.7"/>
	<path class="st34" d="M625.7,299.6"/>
	<g>
		<path class="st35" d="M284.5,191.5h-3.9l-2.2-5.7c-0.2-0.4-0.4-0.8-0.8-0.9c-0.4-0.2-0.8-0.3-1.3-0.3h-2.4v6.9h-3.7v-17h7.6
			c2,0,3.5,0.4,4.5,1.3c1,0.9,1.5,2.1,1.5,3.7c0,1.1-0.3,2.1-0.9,2.9c-0.6,0.8-1.5,1.4-2.6,1.7c1,0.2,1.7,0.9,2.2,2.1L284.5,191.5z
			 M277.1,181.8c1.1,0,1.8-0.2,2.3-0.5c0.5-0.4,0.7-0.9,0.7-1.7s-0.2-1.3-0.7-1.7c-0.5-0.4-1.3-0.5-2.3-0.5h-3.4v4.4H277.1z"/>
		<path class="st35" d="M297.6,185.8h-8c0.1,1.1,0.4,2,0.9,2.5c0.5,0.5,1.3,0.8,2.3,0.8c0.6,0,1.2-0.1,1.9-0.3
			c0.6-0.2,1.2-0.5,1.7-0.9l1,2.4c-0.6,0.5-1.3,0.8-2.1,1.1c-0.9,0.3-1.7,0.4-2.6,0.4c-2,0-3.6-0.6-4.8-1.7
			c-1.2-1.1-1.7-2.7-1.7-4.6c0-1.2,0.3-2.3,0.8-3.3c0.5-1,1.2-1.7,2.1-2.2c0.9-0.5,1.9-0.8,3.1-0.8c1.7,0,3,0.6,4,1.7
			c1,1.1,1.5,2.6,1.5,4.5V185.8z M290.6,182.3c-0.4,0.4-0.7,1-0.8,1.7h4.8c-0.2-1.6-1-2.3-2.3-2.3
			C291.5,181.7,291,181.9,290.6,182.3z"/>
		<path class="st35" d="M310.1,179.9c0.8,0.5,1.4,1.3,1.9,2.3c0.5,1,0.7,2.1,0.7,3.3s-0.2,2.3-0.7,3.3c-0.4,0.9-1.1,1.7-1.9,2.2
			s-1.7,0.8-2.8,0.8c-0.8,0-1.6-0.2-2.3-0.5c-0.7-0.4-1.2-0.8-1.5-1.5v6.9h-3.6v-13.8c0-1.3-0.1-2.4-0.2-3.5h3.4l0.2,2
			c0.3-0.7,0.8-1.3,1.5-1.7c0.7-0.4,1.5-0.6,2.4-0.6C308.3,179.1,309.3,179.4,310.1,179.9z M308.3,188.1c0.5-0.6,0.7-1.5,0.7-2.6
			c0-1.1-0.2-2-0.7-2.6c-0.5-0.6-1.2-1-2-1c-0.9,0-1.6,0.3-2.1,0.9c-0.5,0.6-0.7,1.5-0.7,2.6c0,1.1,0.2,2,0.7,2.6
			c0.5,0.6,1.2,0.9,2.1,0.9C307.2,189,307.8,188.7,308.3,188.1z"/>
		<path class="st35" d="M317.4,191c-1-0.5-1.7-1.2-2.2-2.2c-0.5-1-0.8-2.1-0.8-3.3s0.3-2.4,0.8-3.3c0.5-1,1.3-1.7,2.2-2.2
			c1-0.5,2.1-0.8,3.4-0.8c1.3,0,2.4,0.3,3.3,0.8c1,0.5,1.7,1.2,2.2,2.2s0.8,2.1,0.8,3.3s-0.3,2.4-0.8,3.3c-0.5,1-1.3,1.7-2.2,2.2
			c-1,0.5-2.1,0.8-3.3,0.8C319.4,191.7,318.3,191.5,317.4,191z M322.8,188.1c0.5-0.6,0.7-1.5,0.7-2.7c0-1.2-0.2-2.1-0.7-2.7
			s-1.1-0.9-2-0.9c-0.9,0-1.6,0.3-2.1,0.9s-0.7,1.5-0.7,2.7c0,2.4,0.9,3.6,2.8,3.6C321.6,189,322.3,188.7,322.8,188.1z"/>
		<path class="st35" d="M337.7,179.4l0,3.3c-0.6-0.3-1.2-0.4-1.8-0.4c-1,0-1.7,0.3-2.2,0.8c-0.5,0.5-0.8,1.2-0.8,2.2v6.3h-3.6v-8.6
			c0-1.3-0.1-2.4-0.2-3.5h3.4l0.2,2.1c0.3-0.8,0.8-1.3,1.4-1.8s1.4-0.6,2.2-0.6C336.9,179.1,337.4,179.2,337.7,179.4z"/>
		<path class="st35" d="M344.9,182.1v4.7c0,0.7,0.2,1.2,0.5,1.5c0.4,0.3,0.8,0.5,1.4,0.5c0.3,0,0.7-0.1,1.2-0.2v2.8
			c-0.6,0.2-1.3,0.3-2.1,0.3c-1.5,0-2.6-0.4-3.4-1.3c-0.8-0.8-1.2-2-1.2-3.6v-4.8H339v-2.7h2.3v-2.8l3.6-1.2v4h3.1v2.7H344.9z"/>
	</g>
	<g>
		<path class="st35" d="M367.9,358.1v-10.7h2.3v10.7H367.9z"/>
		<path class="st35" d="M372.4,358.1v-10.7h7.2v1.8h-4.9v2.5h4.6v1.9h-4.6v4.5H372.4z"/>
		<path class="st35" d="M390.1,358.1h-2.5l-1.4-3.6c-0.1-0.3-0.3-0.5-0.5-0.6s-0.5-0.2-0.8-0.2h-1.5v4.3h-2.3v-10.7h4.8
			c1.2,0,2.2,0.3,2.8,0.8c0.6,0.5,1,1.3,1,2.3c0,0.7-0.2,1.3-0.6,1.8c-0.4,0.5-0.9,0.9-1.6,1.1c0.6,0.1,1.1,0.6,1.4,1.3L390.1,358.1
			z M385.5,352c0.7,0,1.2-0.1,1.5-0.3c0.3-0.2,0.5-0.6,0.5-1.1s-0.2-0.8-0.5-1.1c-0.3-0.2-0.8-0.3-1.5-0.3h-2.1v2.8H385.5z"/>
		<path class="st35" d="M393.1,357.9c-0.7-0.2-1.4-0.5-1.9-0.9l0.8-1.7c1,0.7,2.2,1.1,3.5,1.1c0.7,0,1.2-0.1,1.6-0.3
			s0.5-0.5,0.5-0.9c0-0.3-0.2-0.6-0.5-0.8s-0.9-0.4-1.8-0.6c-0.9-0.2-1.7-0.4-2.2-0.7s-1-0.6-1.2-1c-0.3-0.4-0.4-0.9-0.4-1.5
			c0-0.6,0.2-1.2,0.5-1.7c0.4-0.5,0.9-0.9,1.5-1.2c0.6-0.3,1.4-0.4,2.2-0.4c0.8,0,1.5,0.1,2.2,0.3c0.7,0.2,1.3,0.5,1.7,0.9l-0.8,1.7
			c-0.9-0.7-2-1.1-3.1-1.1c-0.6,0-1.1,0.1-1.4,0.4c-0.4,0.2-0.5,0.6-0.5,1c0,0.2,0.1,0.4,0.2,0.6c0.1,0.2,0.4,0.3,0.7,0.4
			c0.3,0.1,0.8,0.2,1.4,0.4c1.4,0.3,2.4,0.7,3,1.2c0.6,0.5,0.9,1.1,0.9,2c0,1-0.4,1.8-1.2,2.4c-0.8,0.6-1.9,0.9-3.3,0.9
			C394.6,358.2,393.8,358.1,393.1,357.9z"/>
	</g>
	<g>
		<path class="st1" d="M534.8,294H429.2v-77.2h105.7V294z M431.2,291.4h101.7v-71.9H431.2V291.4z"/>
	</g>
	<g>
		<polygon class="st1" points="540.3,265.5 538.3,265.5 538.3,212.5 495.1,212.5 495.1,209.9 540.3,209.9 		"/>
	</g>
	<g>
		<path class="st1" d="M425.6,125.1H319.9V47.9h105.7V125.1z M321.9,122.5h101.7V50.6H321.9V122.5z"/>
	</g>
	<g>
		<polygon class="st1" points="431.1,97.6 429.1,97.6 429.1,44.6 385.8,44.6 385.8,42 431.1,42 		"/>
	</g>
	<g>
		<path class="st1" d="M331.1,111.2c-0.9-0.5-1.5-1.2-2-2.1c-0.5-0.9-0.7-2-0.7-3.2s0.2-2.3,0.7-3.2c0.5-0.9,1.1-1.6,2-2.1
			c0.9-0.5,1.9-0.7,3.1-0.7s2.2,0.2,3.1,0.7c0.9,0.5,1.5,1.2,2,2.1c0.5,0.9,0.7,2,0.7,3.2s-0.2,2.3-0.7,3.2c-0.5,0.9-1.1,1.6-2,2.1
			c-0.9,0.5-1.9,0.7-3.1,0.7S331.9,111.7,331.1,111.2z M336.5,108.8c0.6-0.7,0.8-1.7,0.8-3s-0.3-2.3-0.8-3c-0.6-0.7-1.3-1-2.3-1
			s-1.8,0.3-2.3,1c-0.6,0.7-0.8,1.7-0.8,3c0,1.3,0.3,2.3,0.8,3s1.3,1,2.3,1S335.9,109.5,336.5,108.8z"/>
		<path class="st1" d="M348.9,103.6c0.6,0.4,1,0.9,1.3,1.6c0.3,0.7,0.5,1.5,0.5,2.3c0,0.9-0.2,1.6-0.5,2.3c-0.3,0.7-0.8,1.2-1.3,1.5
			c-0.6,0.4-1.2,0.5-2,0.5c-0.6,0-1.1-0.1-1.6-0.4c-0.5-0.2-0.8-0.6-1.1-1v4.9h-2.5v-9.7c0-0.9,0-1.7-0.1-2.4h2.4l0.2,1.4
			c0.2-0.5,0.6-0.9,1.1-1.2s1.1-0.4,1.7-0.4C347.7,103.1,348.3,103.2,348.9,103.6z M347.7,109.3c0.3-0.4,0.5-1,0.5-1.8
			s-0.2-1.4-0.5-1.9c-0.3-0.4-0.8-0.7-1.4-0.7c-0.6,0-1.1,0.2-1.4,0.6c-0.3,0.4-0.5,1-0.5,1.8c0,0.8,0.2,1.4,0.5,1.8
			c0.3,0.4,0.8,0.6,1.4,0.6C346.9,110,347.4,109.8,347.7,109.3z"/>
		<path class="st1" d="M359.9,107.7h-5.6c0,0.8,0.3,1.4,0.6,1.7c0.4,0.4,0.9,0.5,1.6,0.5c0.4,0,0.9-0.1,1.3-0.2
			c0.4-0.1,0.8-0.4,1.2-0.6l0.7,1.7c-0.4,0.3-0.9,0.6-1.5,0.8c-0.6,0.2-1.2,0.3-1.8,0.3c-1.4,0-2.5-0.4-3.4-1.2
			c-0.8-0.8-1.2-1.9-1.2-3.2c0-0.9,0.2-1.6,0.5-2.3c0.4-0.7,0.8-1.2,1.5-1.6s1.4-0.6,2.2-0.6c1.2,0,2.1,0.4,2.8,1.2
			c0.7,0.8,1,1.8,1,3.1V107.7z M355,105.3c-0.3,0.3-0.5,0.7-0.6,1.2h3.4c-0.1-1.1-0.7-1.6-1.6-1.6C355.7,104.8,355.3,105,355,105.3z
			"/>
		<path class="st1" d="M367.4,103.2l0,2.3c-0.4-0.2-0.8-0.3-1.2-0.3c-0.7,0-1.2,0.2-1.5,0.5c-0.4,0.4-0.5,0.9-0.5,1.5v4.4h-2.5v-6
			c0-0.9,0-1.7-0.1-2.4h2.4l0.2,1.5c0.2-0.5,0.5-0.9,1-1.2s1-0.4,1.5-0.4C366.8,103.1,367.1,103.1,367.4,103.2z"/>
		<path class="st1" d="M376.7,103.3v8.5h-2.5v-1.3c-0.3,0.4-0.6,0.8-1.1,1c-0.5,0.2-1,0.4-1.6,0.4c-0.7,0-1.4-0.2-1.9-0.5
			s-1-0.9-1.3-1.5c-0.3-0.7-0.5-1.4-0.5-2.3c0-0.9,0.2-1.6,0.5-2.3c0.3-0.7,0.8-1.2,1.3-1.6s1.2-0.6,1.9-0.6c0.6,0,1.1,0.1,1.6,0.4
			c0.5,0.3,0.8,0.6,1.1,1v-1.2H376.7z M373.7,109.3c0.3-0.4,0.5-1,0.5-1.8c0-0.8-0.2-1.4-0.5-1.8c-0.3-0.4-0.8-0.6-1.4-0.6
			c-0.6,0-1.1,0.2-1.5,0.7c-0.3,0.4-0.5,1.1-0.5,1.9s0.2,1.4,0.5,1.8c0.3,0.4,0.8,0.6,1.5,0.6C372.9,110,373.4,109.8,373.7,109.3z"
			/>
		<path class="st1" d="M381.9,105.2v3.3c0,0.5,0.1,0.8,0.4,1c0.2,0.2,0.6,0.3,1,0.3c0.2,0,0.5,0,0.8-0.1v2c-0.4,0.2-0.9,0.2-1.5,0.2
			c-1,0-1.8-0.3-2.4-0.9c-0.6-0.6-0.8-1.4-0.8-2.5v-3.3h-1.6v-1.9h1.6v-2l2.5-0.8v2.8h2.2v1.9H381.9z"/>
		<path class="st1" d="M385.3,99.3h2.7v2.4h-2.7V99.3z M385.3,111.8v-8.5h2.5v8.5H385.3z"/>
		<path class="st1" d="M391.6,111.3c-0.7-0.4-1.2-0.9-1.6-1.5c-0.4-0.7-0.5-1.4-0.5-2.3s0.2-1.7,0.5-2.3c0.4-0.7,0.9-1.2,1.6-1.5
			c0.7-0.4,1.5-0.5,2.4-0.5c0.9,0,1.7,0.2,2.3,0.5c0.7,0.4,1.2,0.9,1.5,1.5c0.4,0.7,0.5,1.4,0.5,2.3s-0.2,1.7-0.5,2.3
			c-0.4,0.7-0.9,1.2-1.5,1.5c-0.7,0.4-1.4,0.5-2.3,0.5C393.1,111.9,392.3,111.7,391.6,111.3z M395.4,109.3c0.3-0.4,0.5-1,0.5-1.9
			c0-0.8-0.2-1.4-0.5-1.9c-0.3-0.4-0.8-0.6-1.4-0.6c-0.6,0-1.1,0.2-1.5,0.6c-0.3,0.4-0.5,1-0.5,1.9c0,1.7,0.7,2.5,2,2.5
			C394.6,110,395.1,109.8,395.4,109.3z"/>
		<path class="st1" d="M408.3,106.6v5.1h-2.5v-5c0-0.6-0.1-1-0.3-1.3c-0.2-0.3-0.6-0.4-1-0.4c-0.6,0-1,0.2-1.3,0.5
			c-0.3,0.4-0.5,0.8-0.5,1.4v4.7H400v-6c0-0.9,0-1.7-0.1-2.4h2.4l0.2,1.3c0.3-0.5,0.7-0.9,1.2-1.2c0.5-0.3,1-0.4,1.6-0.4
			C407.3,103.1,408.3,104.2,408.3,106.6z"/>
		<path class="st1" d="M409.7,110.8l0.7-1.8c0.4,0.3,0.9,0.6,1.5,0.7c0.5,0.2,1.1,0.3,1.7,0.3c0.4,0,0.8-0.1,1-0.2
			c0.2-0.1,0.4-0.3,0.4-0.6c0-0.2-0.1-0.4-0.3-0.5s-0.5-0.2-0.9-0.3l-1.4-0.3c-0.8-0.2-1.4-0.5-1.8-0.9c-0.4-0.4-0.6-0.9-0.6-1.6
			c0-0.5,0.2-1,0.5-1.4c0.3-0.4,0.7-0.7,1.3-1c0.5-0.2,1.2-0.3,1.9-0.3c0.6,0,1.2,0.1,1.8,0.3s1.1,0.4,1.6,0.8l-0.7,1.7
			c-0.4-0.3-0.9-0.5-1.3-0.7c-0.5-0.2-0.9-0.2-1.3-0.2c-0.4,0-0.7,0.1-1,0.2c-0.2,0.1-0.4,0.3-0.4,0.6c0,0.2,0.1,0.3,0.2,0.5
			c0.1,0.1,0.4,0.2,0.7,0.3l1.4,0.3c0.9,0.2,1.5,0.5,1.9,0.9c0.4,0.4,0.6,0.9,0.6,1.6c0,0.8-0.3,1.4-1,1.9c-0.6,0.5-1.5,0.7-2.7,0.7
			C411.9,111.9,410.6,111.5,409.7,110.8z"/>
	</g>
	<g>
		<g>
			<g>
				<g>
					<path class="st1" d="M345.6,63.5l-1.1-0.5c-0.1-0.2-0.1-0.4-0.2-0.5l0.6-1.1c0.1-0.2,0.1-0.4,0-0.6c-0.3-0.5-0.7-1.1-1.1-1.5
						c-0.2-0.2-0.4-0.3-0.6-0.2l-1.2,0.3c-0.1-0.1-0.3-0.2-0.4-0.3l-0.1-1.2c0-0.2-0.2-0.4-0.4-0.5c-0.6-0.3-1.1-0.5-1.8-0.6
						c-0.2,0-0.5,0-0.6,0.2l-0.8,1h-0.5l-0.8-1c-0.2-0.2-0.4-0.3-0.6-0.2c-0.6,0.1-1.2,0.3-1.8,0.6c-0.2,0.1-0.3,0.3-0.4,0.5
						l-0.1,1.2c-0.1,0.1-0.3,0.2-0.4,0.3l-1.2-0.3c-0.2-0.1-0.5,0-0.6,0.2c-0.4,0.5-0.8,1-1.1,1.5c-0.1,0.2-0.1,0.4,0,0.6l0.6,1.1
						c-0.1,0.2-0.1,0.3-0.2,0.5l-1.1,0.5c-0.2,0.1-0.4,0.3-0.4,0.6v1.7c0,0.3,0.1,0.5,0.4,0.6l1.1,0.5c0.1,0.2,0.1,0.4,0.2,0.5
						l-0.6,1.1c-0.1,0.2-0.1,0.4,0,0.6c0.3,0.5,0.7,1.1,1.1,1.5c0.2,0.2,0.4,0.2,0.6,0.2l1.2-0.3c0.1,0.1,0.3,0.2,0.4,0.3l0.1,1.2
						c0,0.2,0.2,0.4,0.4,0.5c0.6,0.3,1.1,0.5,1.8,0.6c0.2,0,0.5,0,0.6-0.2l0.8-1h0.5l0.8,1c0.1,0.1,0.3,0.2,0.5,0.2c0,0,0.1,0,0.1,0
						c0.6-0.1,1.2-0.3,1.8-0.6c0.2-0.1,0.3-0.3,0.4-0.5l0.1-1.2c0.1-0.1,0.3-0.2,0.4-0.3l1.2,0.3c0.2,0.1,0.5,0,0.6-0.2
						c0.4-0.5,0.8-1,1.1-1.5c0.1-0.2,0.1-0.4,0-0.6l-0.6-1.1c0.1-0.2,0.1-0.3,0.2-0.5l1.1-0.5c0.2-0.1,0.4-0.3,0.4-0.6v-1.7
						C346,63.9,345.9,63.6,345.6,63.5z M344.7,65.4l-1,0.5c-0.2,0.1-0.3,0.2-0.4,0.4c-0.1,0.3-0.2,0.6-0.3,0.9
						c-0.1,0.2-0.1,0.4,0,0.6l0.6,1c-0.2,0.2-0.3,0.5-0.5,0.7l-1.1-0.3c-0.2,0-0.4,0-0.6,0.1c-0.2,0.2-0.5,0.4-0.8,0.6
						c-0.2,0.1-0.3,0.3-0.3,0.5l-0.1,1.2c-0.3,0.1-0.5,0.2-0.8,0.3l-0.8-0.9c-0.1-0.1-0.3-0.2-0.5-0.2h-1.1c-0.2,0-0.4,0.1-0.5,0.2
						L336,72c-0.3-0.1-0.5-0.2-0.8-0.3l-0.1-1.2c0-0.2-0.1-0.4-0.3-0.5c-0.3-0.2-0.5-0.4-0.8-0.6c-0.2-0.1-0.4-0.2-0.6-0.1l-1.1,0.3
						c-0.2-0.2-0.3-0.5-0.5-0.7l0.6-1c0.1-0.2,0.1-0.4,0-0.6c-0.1-0.3-0.2-0.6-0.3-0.9c0-0.2-0.2-0.4-0.4-0.4l-1-0.5v-0.9l1-0.5
						c0.2-0.1,0.3-0.2,0.4-0.4c0.1-0.3,0.2-0.6,0.3-0.9c0.1-0.2,0.1-0.4,0-0.6l-0.6-1c0.2-0.2,0.3-0.5,0.5-0.7l1.1,0.3
						c0.2,0,0.4,0,0.6-0.1c0.2-0.2,0.5-0.4,0.8-0.6c0.2-0.1,0.3-0.3,0.3-0.5l0.1-1.2c0.3-0.1,0.5-0.2,0.8-0.3l0.8,0.9
						c0.1,0.1,0.3,0.2,0.5,0.2h1.1c0.2,0,0.4-0.1,0.5-0.2l0.8-0.9c0.3,0.1,0.5,0.2,0.8,0.3l0.1,1.2c0,0.2,0.1,0.4,0.3,0.5
						c0.3,0.2,0.5,0.4,0.8,0.6c0.2,0.1,0.4,0.2,0.6,0.1l1.1-0.3c0.2,0.2,0.3,0.5,0.5,0.7l-0.6,1c-0.1,0.2-0.1,0.4,0,0.6
						c0.1,0.3,0.2,0.6,0.3,0.9c0,0.2,0.2,0.4,0.4,0.4l1,0.5L344.7,65.4L344.7,65.4z"/>
				</g>
			</g>
			<g>
				<g>
					<path class="st1" d="M337.7,60.5c-2.5,0-4.5,2-4.5,4.5c0,2.5,2,4.5,4.5,4.5c2.5,0,4.5-2,4.5-4.5
						C342.2,62.5,340.2,60.5,337.7,60.5z M337.7,68.2c-1.8,0-3.2-1.4-3.2-3.2c0-1.8,1.4-3.2,3.2-3.2c1.8,0,3.2,1.4,3.2,3.2
						C340.9,66.8,339.5,68.2,337.7,68.2z"/>
				</g>
			</g>
			<g>
				<g>
					<path class="st1" d="M367.4,62.4l-0.9-0.4c0-0.1-0.1-0.2-0.1-0.4l0.5-0.8c0.1-0.2,0.1-0.4,0-0.6c-0.3-0.5-0.6-0.9-0.9-1.3
						c-0.2-0.2-0.4-0.2-0.6-0.2l-0.9,0.2c-0.1-0.1-0.2-0.1-0.3-0.2l-0.1-1c0-0.2-0.2-0.4-0.4-0.5c-0.5-0.2-1-0.4-1.5-0.5
						c-0.2,0-0.5,0-0.6,0.2l-0.7,0.8h-0.3l-0.7-0.8c-0.2-0.2-0.4-0.3-0.6-0.2c-0.5,0.1-1,0.3-1.5,0.5c-0.2,0.1-0.3,0.3-0.4,0.5
						l-0.1,1c-0.1,0.1-0.2,0.1-0.3,0.2l-0.9-0.2c-0.2-0.1-0.5,0-0.6,0.2c-0.4,0.4-0.7,0.8-0.9,1.3c-0.1,0.2-0.1,0.4,0,0.6l0.5,0.8
						c0,0.1-0.1,0.2-0.1,0.4l-0.9,0.4c-0.2,0.1-0.4,0.3-0.4,0.6v1.4c0,0.3,0.1,0.5,0.4,0.6l0.9,0.4c0,0.1,0.1,0.2,0.1,0.4l-0.5,0.8
						c-0.1,0.2-0.1,0.4,0,0.6c0.3,0.5,0.6,0.9,0.9,1.3c0.2,0.2,0.4,0.2,0.6,0.2l0.9-0.2c0.1,0.1,0.2,0.1,0.3,0.2l0.1,1
						c0,0.2,0.2,0.4,0.4,0.5c0.5,0.2,1,0.4,1.5,0.5c0.2,0,0.5,0,0.6-0.2l0.7-0.8h0.3l0.7,0.8c0.1,0.1,0.3,0.2,0.5,0.2
						c0,0,0.1,0,0.1,0c0.5-0.1,1-0.3,1.5-0.5c0.2-0.1,0.3-0.3,0.4-0.5l0.1-1c0.1-0.1,0.2-0.1,0.3-0.2l0.9,0.2c0.2,0.1,0.5,0,0.6-0.2
						c0.4-0.4,0.7-0.8,0.9-1.3c0.1-0.2,0.1-0.4,0-0.6l-0.5-0.8c0-0.1,0.1-0.2,0.1-0.4l0.9-0.4c0.2-0.1,0.4-0.3,0.4-0.6V63
						C367.8,62.7,367.6,62.5,367.4,62.4z M366.5,64l-0.8,0.3c-0.2,0.1-0.3,0.2-0.4,0.4c-0.1,0.3-0.1,0.5-0.2,0.8
						c-0.1,0.2-0.1,0.4,0,0.6l0.5,0.8c-0.1,0.2-0.2,0.3-0.3,0.5l-0.9-0.2c-0.2,0-0.4,0-0.6,0.1c-0.2,0.2-0.4,0.3-0.6,0.5
						c-0.2,0.1-0.3,0.3-0.3,0.5l-0.1,0.9c-0.2,0.1-0.3,0.1-0.5,0.2l-0.6-0.7c-0.1-0.1-0.3-0.2-0.5-0.2h-0.9c-0.2,0-0.4,0.1-0.5,0.2
						l-0.6,0.7c-0.2,0-0.3-0.1-0.5-0.2l-0.1-0.9c0-0.2-0.1-0.4-0.3-0.5c-0.2-0.1-0.4-0.3-0.6-0.5c-0.2-0.1-0.4-0.2-0.6-0.1l-0.9,0.2
						c-0.1-0.2-0.2-0.3-0.3-0.5l0.5-0.8c0.1-0.2,0.1-0.4,0-0.6c-0.1-0.3-0.2-0.5-0.2-0.8c0-0.2-0.2-0.4-0.4-0.4l-0.8-0.3v-0.6
						l0.8-0.3c0.2-0.1,0.3-0.2,0.4-0.4c0.1-0.3,0.1-0.5,0.2-0.8c0.1-0.2,0.1-0.4,0-0.6l-0.5-0.8c0.1-0.2,0.2-0.3,0.3-0.5l0.9,0.2
						c0.2,0,0.4,0,0.6-0.1c0.2-0.2,0.4-0.3,0.6-0.5c0.2-0.1,0.3-0.3,0.3-0.5l0.1-0.9c0.2-0.1,0.3-0.1,0.5-0.2l0.6,0.7
						c0.1,0.1,0.3,0.2,0.5,0.2h0.9c0.2,0,0.4-0.1,0.5-0.2l0.6-0.7c0.2,0,0.3,0.1,0.5,0.2l0.1,0.9c0,0.2,0.1,0.4,0.3,0.5
						c0.2,0.1,0.4,0.3,0.6,0.5c0.2,0.1,0.4,0.2,0.6,0.1l0.9-0.2c0.1,0.2,0.2,0.3,0.3,0.5l-0.5,0.8c-0.1,0.2-0.1,0.4,0,0.6
						c0.1,0.3,0.2,0.5,0.2,0.8c0,0.2,0.2,0.4,0.4,0.4l0.8,0.3V64z"/>
				</g>
			</g>
			<g>
				<g>
					<path class="st1" d="M360.8,60.5c-1.8,0-3.2,1.4-3.2,3.2c0,1.8,1.4,3.2,3.2,3.2c1.8,0,3.2-1.4,3.2-3.2S362.5,60.5,360.8,60.5z
						 M360.8,65.6c-1.1,0-1.9-0.9-1.9-1.9c0-1.1,0.9-1.9,1.9-1.9c1.1,0,1.9,0.9,1.9,1.9C362.7,64.8,361.8,65.6,360.8,65.6z"/>
				</g>
			</g>
			<g>
				<g>
					<path class="st1" d="M367.2,83.8l-0.9-0.2c0-0.2-0.1-0.3-0.1-0.5l0.7-0.6c0.2-0.2,0.3-0.5,0.2-0.7c-0.3-0.7-0.7-1.4-1.2-2
						c-0.2-0.2-0.5-0.3-0.7-0.2l-0.9,0.3c-0.1-0.1-0.2-0.2-0.4-0.4l0.3-0.9c0.1-0.3,0-0.5-0.2-0.7c-0.6-0.5-1.3-0.9-2-1.2
						c-0.3-0.1-0.5,0-0.7,0.2l-0.6,0.7c-0.2,0-0.3-0.1-0.5-0.1l-0.2-0.9c-0.1-0.3-0.3-0.5-0.6-0.5h-2.2c-0.3,0-0.6,0.2-0.6,0.5
						l-0.2,0.9c-0.2,0-0.3,0.1-0.5,0.1l-0.6-0.7c-0.2-0.2-0.5-0.3-0.7-0.2c-0.7,0.3-1.4,0.7-2,1.2c-0.2,0.2-0.3,0.5-0.2,0.7l0.3,0.9
						c-0.1,0.1-0.2,0.2-0.4,0.4l-0.9-0.3c-0.3-0.1-0.5,0-0.7,0.2c-0.5,0.6-0.9,1.3-1.2,2c-0.1,0.3,0,0.5,0.2,0.7l0.7,0.6
						c0,0.2-0.1,0.3-0.1,0.5l-0.9,0.2c-0.3,0.1-0.5,0.3-0.5,0.6v2.2c0,0.3,0.2,0.6,0.5,0.6l0.9,0.2c0,0.2,0.1,0.3,0.1,0.5l-0.7,0.6
						c-0.2,0.2-0.3,0.5-0.2,0.7c0.3,0.7,0.7,1.4,1.2,2c0.2,0.2,0.5,0.3,0.7,0.2l0.9-0.3c0.1,0.1,0.2,0.2,0.4,0.4l-0.3,0.9
						c-0.1,0.3,0,0.5,0.2,0.7c0.6,0.5,1.3,0.9,2,1.2c0.3,0.1,0.5,0,0.7-0.2l0.6-0.7c0.2,0,0.3,0.1,0.5,0.1l0.2,0.9
						c0.1,0.3,0.3,0.5,0.6,0.5h2.2c0.3,0,0.6-0.2,0.6-0.5l0.2-0.9c0.2,0,0.3-0.1,0.5-0.1l0.6,0.7c0.2,0.2,0.5,0.3,0.7,0.2
						c0.7-0.3,1.4-0.7,2-1.2c0.2-0.2,0.3-0.5,0.2-0.7l-0.3-0.9c0.1-0.1,0.2-0.2,0.4-0.4l0.9,0.3c0.3,0.1,0.5,0,0.7-0.2
						c0.5-0.6,0.9-1.3,1.2-2c0.1-0.3,0-0.5-0.2-0.7l-0.7-0.6c0-0.2,0.1-0.3,0.1-0.5l0.9-0.2c0.3-0.1,0.5-0.3,0.5-0.6v-2.2
						C367.7,84.1,367.5,83.8,367.2,83.8z M366.5,86l-0.8,0.2c-0.3,0.1-0.5,0.3-0.5,0.5c-0.1,0.4-0.2,0.8-0.3,1.1
						c-0.1,0.2,0,0.5,0.2,0.7l0.7,0.6c-0.2,0.3-0.4,0.7-0.6,1l-0.8-0.3c-0.2-0.1-0.5,0-0.7,0.2c-0.2,0.3-0.5,0.6-0.8,0.8
						c-0.2,0.2-0.3,0.4-0.2,0.7l0.3,0.8c-0.3,0.2-0.6,0.4-1,0.6l-0.6-0.7c-0.2-0.2-0.4-0.3-0.7-0.2c-0.4,0.1-0.7,0.2-1.1,0.3
						c-0.3,0-0.5,0.2-0.5,0.5l-0.2,0.8h-1.1l-0.2-0.8c-0.1-0.3-0.3-0.5-0.5-0.5c-0.4-0.1-0.8-0.2-1.1-0.3h0c-0.2-0.1-0.5,0-0.7,0.2
						l-0.6,0.7c-0.3-0.2-0.7-0.4-1-0.6l0.3-0.8c0.1-0.2,0-0.5-0.2-0.7c-0.3-0.2-0.6-0.5-0.8-0.8c-0.2-0.2-0.4-0.3-0.7-0.2l-0.8,0.3
						c-0.2-0.3-0.4-0.6-0.6-1l0.7-0.6c0.2-0.2,0.3-0.4,0.2-0.7c-0.1-0.4-0.2-0.7-0.3-1.1c0-0.3-0.2-0.5-0.5-0.5L350,86v-1.1l0.8-0.2
						c0.3-0.1,0.5-0.3,0.5-0.5c0.1-0.4,0.2-0.8,0.3-1.1c0.1-0.2,0-0.5-0.2-0.7l-0.7-0.6c0.2-0.3,0.4-0.7,0.6-1l0.8,0.3
						c0.2,0.1,0.5,0,0.7-0.2c0.2-0.3,0.5-0.6,0.8-0.8c0.2-0.2,0.3-0.4,0.2-0.7l-0.3-0.8c0.3-0.2,0.6-0.4,1-0.6l0.6,0.7
						c0.2,0.2,0.4,0.3,0.7,0.2c0.4-0.1,0.7-0.2,1.1-0.3c0.3,0,0.5-0.2,0.5-0.5l0.2-0.8h1.1l0.2,0.8c0.1,0.3,0.3,0.5,0.5,0.5
						c0.4,0.1,0.8,0.2,1.1,0.3c0.2,0.1,0.5,0,0.7-0.2l0.6-0.7c0.3,0.2,0.7,0.4,1,0.6l-0.3,0.8c-0.1,0.2,0,0.5,0.2,0.7
						c0.3,0.2,0.6,0.5,0.8,0.8c0.2,0.2,0.4,0.3,0.7,0.2l0.8-0.3c0.2,0.3,0.4,0.6,0.6,1l-0.7,0.6c-0.2,0.2-0.3,0.4-0.2,0.7
						c0.1,0.4,0.2,0.7,0.3,1.1c0,0.3,0.2,0.5,0.5,0.5l0.8,0.2V86z"/>
				</g>
			</g>
			<g>
				<g>
					<path class="st1" d="M358.2,79.7c-3.2,0-5.8,2.6-5.8,5.8c0,3.2,2.6,5.8,5.8,5.8c3.2,0,5.8-2.6,5.8-5.8
						C364,82.3,361.4,79.7,358.2,79.7z M358.2,90c-2.5,0-4.5-2-4.5-4.5c0-2.5,2-4.5,4.5-4.5s4.5,2,4.5,4.5
						C362.7,88,360.7,90,358.2,90z"/>
				</g>
			</g>
			<g>
				<g>
					<rect x="347.3" y="63.7" class="st1" width="5.1" height="1.3"/>
				</g>
			</g>
			<g>
				<g>
					<path class="st1" d="M347.3,84.6c-0.1-0.2-0.2-0.3-0.3-0.3l0,0l-4.5-1.9c-0.3-0.1-0.7,0-0.8,0.3c0,0.1-0.1,0.2-0.1,0.3v1.3
						h-7.7V74h-1.3v10.9c0,0.4,0.3,0.6,0.6,0.6c0,0,0,0,0,0h8.3v1.3c0,0.4,0.3,0.6,0.6,0.6h0c0.1,0,0.2,0,0.3-0.1l4.5-1.9
						C347.3,85.3,347.4,84.9,347.3,84.6z M342.9,85.8v-1.9l2.2,0.9L342.9,85.8z"/>
				</g>
			</g>
			<g>
				<g>
					<path class="st1" d="M360.3,83.1l-2.8,3.3l-1.4-1.4l-0.9,0.9l1.9,1.9c0.1,0.1,0.3,0.2,0.5,0.2c0,0,0,0,0,0
						c0.2,0,0.3-0.1,0.5-0.2l3.2-3.8L360.3,83.1z"/>
				</g>
			</g>
		</g>
		<g>
			<rect x="379.1" y="60.7" class="st36" width="39.7" height="5.6"/>
			<rect x="379.1" y="73" class="st36" width="31.2" height="5.6"/>
			<rect x="379.1" y="85.3" class="st36" width="35" height="5.6"/>
		</g>
	</g>
	<g>
		<path class="st1" d="M245.3,182.2H139.6V105h105.7V182.2z M141.6,179.6h101.7v-71.9H141.6V179.6z"/>
	</g>
	<g>
		<polygon class="st1" points="250.6,154.8 248.6,154.8 248.6,101.8 205.4,101.8 205.4,99.2 250.6,99.2 		"/>
	</g>
	<g>
		<path class="st1" d="M448.2,282.7l-1.1-2.6h-5.6l-1.1,2.6h-2.6l5.5-11.9h2.1l5.5,11.9H448.2z M442.4,278.1h3.8l-1.9-4.5
			L442.4,278.1z"/>
		<path class="st1" d="M450.9,281.8l0.7-1.8c0.4,0.3,0.9,0.6,1.5,0.7c0.5,0.2,1.1,0.3,1.7,0.3c0.4,0,0.8-0.1,1-0.2
			c0.2-0.1,0.4-0.3,0.4-0.6c0-0.2-0.1-0.4-0.3-0.5c-0.2-0.1-0.5-0.2-0.9-0.3l-1.4-0.3c-0.8-0.2-1.4-0.5-1.8-0.9
			c-0.4-0.4-0.6-0.9-0.6-1.6c0-0.5,0.2-1,0.5-1.4c0.3-0.4,0.7-0.7,1.3-1c0.5-0.2,1.2-0.3,1.9-0.3c0.6,0,1.2,0.1,1.8,0.3
			s1.1,0.4,1.6,0.8l-0.7,1.7c-0.4-0.3-0.9-0.5-1.3-0.7s-0.9-0.2-1.3-0.2c-0.4,0-0.7,0.1-1,0.2c-0.2,0.1-0.4,0.3-0.4,0.6
			c0,0.2,0.1,0.3,0.2,0.5c0.1,0.1,0.4,0.2,0.7,0.3l1.4,0.3c0.9,0.2,1.5,0.5,1.9,0.9c0.4,0.4,0.6,0.9,0.6,1.6c0,0.8-0.3,1.4-1,1.9
			c-0.6,0.5-1.5,0.7-2.7,0.7C453.1,282.9,451.8,282.5,450.9,281.8z"/>
		<path class="st1" d="M459.3,281.8l0.7-1.8c0.4,0.3,0.9,0.6,1.5,0.7c0.5,0.2,1.1,0.3,1.7,0.3c0.4,0,0.8-0.1,1-0.2
			c0.2-0.1,0.4-0.3,0.4-0.6c0-0.2-0.1-0.4-0.3-0.5c-0.2-0.1-0.5-0.2-0.9-0.3l-1.4-0.3c-0.8-0.2-1.4-0.5-1.8-0.9
			c-0.4-0.4-0.6-0.9-0.6-1.6c0-0.5,0.2-1,0.5-1.4c0.3-0.4,0.7-0.7,1.3-1c0.5-0.2,1.2-0.3,1.9-0.3c0.6,0,1.2,0.1,1.8,0.3
			s1.1,0.4,1.6,0.8l-0.7,1.7c-0.4-0.3-0.9-0.5-1.3-0.7s-0.9-0.2-1.3-0.2c-0.4,0-0.7,0.1-1,0.2c-0.2,0.1-0.4,0.3-0.4,0.6
			c0,0.2,0.1,0.3,0.2,0.5c0.1,0.1,0.4,0.2,0.7,0.3l1.4,0.3c0.9,0.2,1.5,0.5,1.9,0.9c0.4,0.4,0.6,0.9,0.6,1.6c0,0.8-0.3,1.4-1,1.9
			c-0.6,0.5-1.5,0.7-2.7,0.7C461.5,282.9,460.2,282.5,459.3,281.8z"/>
		<path class="st1" d="M475.9,278.7h-5.6c0,0.8,0.3,1.4,0.6,1.7s0.9,0.5,1.6,0.5c0.4,0,0.9-0.1,1.3-0.2c0.4-0.1,0.8-0.4,1.2-0.6
			l0.7,1.7c-0.4,0.3-0.9,0.6-1.5,0.8s-1.2,0.3-1.8,0.3c-1.4,0-2.5-0.4-3.4-1.2c-0.8-0.8-1.2-1.9-1.2-3.2c0-0.9,0.2-1.6,0.5-2.3
			s0.8-1.2,1.5-1.6s1.4-0.6,2.2-0.6c1.2,0,2.1,0.4,2.8,1.2c0.7,0.8,1,1.8,1,3.1V278.7z M470.9,276.2c-0.3,0.3-0.5,0.7-0.6,1.2h3.4
			c-0.1-1.1-0.7-1.6-1.6-1.6C471.6,275.8,471.2,276,470.9,276.2z"/>
		<path class="st1" d="M476.9,281.8l0.7-1.8c0.4,0.3,0.9,0.6,1.5,0.7c0.5,0.2,1.1,0.3,1.7,0.3c0.4,0,0.8-0.1,1-0.2
			c0.2-0.1,0.4-0.3,0.4-0.6c0-0.2-0.1-0.4-0.3-0.5c-0.2-0.1-0.5-0.2-0.9-0.3l-1.4-0.3c-0.8-0.2-1.4-0.5-1.8-0.9
			c-0.4-0.4-0.6-0.9-0.6-1.6c0-0.5,0.2-1,0.5-1.4c0.3-0.4,0.7-0.7,1.3-1c0.5-0.2,1.2-0.3,1.9-0.3c0.6,0,1.2,0.1,1.8,0.3
			s1.1,0.4,1.6,0.8l-0.7,1.7c-0.4-0.3-0.9-0.5-1.3-0.7s-0.9-0.2-1.3-0.2c-0.4,0-0.7,0.1-1,0.2c-0.2,0.1-0.4,0.3-0.4,0.6
			c0,0.2,0.1,0.3,0.2,0.5c0.1,0.1,0.4,0.2,0.7,0.3l1.4,0.3c0.9,0.2,1.5,0.5,1.9,0.9c0.4,0.4,0.6,0.9,0.6,1.6c0,0.8-0.3,1.4-1,1.9
			c-0.6,0.5-1.5,0.7-2.7,0.7C479.1,282.9,477.8,282.5,476.9,281.8z"/>
		<path class="st1" d="M498.4,274.9c0.5,0.6,0.7,1.5,0.7,2.7v5.1h-2.5v-5c0-0.6-0.1-1-0.3-1.3c-0.2-0.3-0.5-0.4-0.9-0.4
			c-0.5,0-0.9,0.2-1.2,0.5s-0.4,0.9-0.4,1.5v4.7h-2.5v-5c0-0.6-0.1-1-0.3-1.3c-0.2-0.3-0.5-0.4-0.9-0.4c-0.5,0-0.9,0.2-1.2,0.5
			c-0.3,0.4-0.4,0.9-0.4,1.5v4.7h-2.5v-6c0-0.9,0-1.7-0.1-2.4h2.4l0.2,1.3c0.3-0.5,0.6-0.8,1.1-1.1c0.5-0.3,1-0.4,1.6-0.4
			c1.3,0,2.1,0.5,2.5,1.6c0.3-0.5,0.7-0.9,1.2-1.1c0.5-0.3,1-0.4,1.6-0.4C497.2,274,497.9,274.3,498.4,274.9z"/>
		<path class="st1" d="M508.7,278.7h-5.6c0,0.8,0.3,1.4,0.6,1.7s0.9,0.5,1.6,0.5c0.4,0,0.9-0.1,1.3-0.2c0.4-0.1,0.8-0.4,1.2-0.6
			l0.7,1.7c-0.4,0.3-0.9,0.6-1.5,0.8s-1.2,0.3-1.8,0.3c-1.4,0-2.5-0.4-3.4-1.2c-0.8-0.8-1.2-1.9-1.2-3.2c0-0.9,0.2-1.6,0.5-2.3
			s0.8-1.2,1.5-1.6s1.4-0.6,2.2-0.6c1.2,0,2.1,0.4,2.8,1.2c0.7,0.8,1,1.8,1,3.1V278.7z M503.7,276.2c-0.3,0.3-0.5,0.7-0.6,1.2h3.4
			c-0.1-1.1-0.7-1.6-1.6-1.6C504.4,275.8,504,276,503.7,276.2z"/>
		<path class="st1" d="M518.5,277.6v5.1H516v-5c0-0.6-0.1-1-0.3-1.3c-0.2-0.3-0.6-0.4-1-0.4c-0.6,0-1,0.2-1.3,0.5
			c-0.3,0.4-0.5,0.8-0.5,1.4v4.7h-2.5v-6c0-0.9,0-1.7-0.1-2.4h2.4l0.2,1.3c0.3-0.5,0.7-0.9,1.2-1.2c0.5-0.3,1-0.4,1.6-0.4
			C517.5,274,518.5,275.2,518.5,277.6z"/>
		<path class="st1" d="M523.7,276.2v3.3c0,0.5,0.1,0.8,0.4,1s0.6,0.3,1,0.3c0.2,0,0.5,0,0.8-0.1v2c-0.4,0.2-0.9,0.2-1.5,0.2
			c-1,0-1.8-0.3-2.4-0.9c-0.6-0.6-0.8-1.4-0.8-2.5v-3.3h-1.6v-1.9h1.6v-2l2.5-0.8v2.8h2.2v1.9H523.7z"/>
	</g>
	<g>
		<g>
			<path class="st1" d="M475.5,223.4h-24c-1.8,0-3.3,1.5-3.3,3.3V241c-0.4-0.1-0.9-0.2-1.3-0.2c-2.9,0-5.3,2.4-5.3,5.3
				c0,1.7,0.8,3.2,2,4.1c-3.4,0.6-6,3.6-6,7.2v7.3h15.3v-8.6c0-0.3,0.1-0.6,0.4-0.9l1.3-1.3h19.7v-2c0-1.8-1.5-3.3-3.3-3.3h-0.7
				v-2.7h5.3c1.8,0,3.3-1.5,3.3-3.3v-16C478.9,224.9,477.4,223.4,475.5,223.4z M442.8,246.1c0-2.2,1.8-4,4-4c2.2,0,4,1.8,4,4
				s-1.8,4-4,4C444.6,250.1,442.8,248.3,442.8,246.1z M463.9,242.1c-0.4-0.8-1.3-1.3-2.2-1.3c-0.7,0-1.3,0.3-1.8,0.7l-0.6,0.6h-7.1
				v-14.7h22.7v14.7H463.9z M457.9,243.5l-1.3,1.3H452c-0.1-0.5-0.3-0.9-0.5-1.3H457.9z M452.2,246.1h3.1l-1.3,1.3
				c-0.8,0.8-1.8,1.4-2.8,1.9C451.8,248.4,452.2,247.3,452.2,246.1z M452.2,254.4c-0.5,0.5-0.7,1.1-0.7,1.8v7.2h-9.3v-8h-1.3v8h-2
				v-6c0-3.3,2.7-6,6-6h2.7l1.7-0.2c2.1-0.3,4.1-1.3,5.7-2.8l5.9-5.9c0.2-0.2,0.5-0.4,0.9-0.4c0.7,0,1.2,0.5,1.2,1.2
				c0,0.3-0.1,0.6-0.4,0.9L452.2,254.4z M472.9,252.1v0.7h-17.1l2.7-2.7h12.4C472,250.1,472.9,251,472.9,252.1z M468.8,248.8h-9.1
				l2.7-2.7h6.4V248.8z M477.5,242.8c0,1.1-0.9,2-2,2h-11.8c0.3-0.4,0.4-0.9,0.4-1.3h10.7c0.7,0,1.3-0.6,1.3-1.3v-14.7
				c0-0.7-0.6-1.3-1.3-1.3h-22.7c-0.7,0-1.3,0.6-1.3,1.3v15.2c-0.4-0.4-0.8-0.8-1.3-1.1v-14.7c0-1.1,0.9-2,2-2h24c1.1,0,2,0.9,2,2
				V242.8z"/>
			<path class="st1" d="M463.5,228.8c-3.3,0-6,2.7-6,6c0,3.3,2.7,6,6,6c3.3,0,6-2.7,6-6C469.5,231.5,466.8,228.8,463.5,228.8z
				 M467.3,232.1h-1.7c-0.2-0.7-0.5-1.3-0.8-1.8C465.9,230.6,466.7,231.3,467.3,232.1z M468.2,234.8c0,0.5-0.1,0.9-0.2,1.3H466
				c0.1-0.4,0.1-0.9,0.1-1.3s-0.1-0.9-0.1-1.3h1.9C468.1,233.9,468.2,234.3,468.2,234.8z M462.3,236.1c-0.1-0.4-0.2-0.9-0.2-1.3
				s0.1-0.9,0.2-1.3h2.3c0.1,0.4,0.2,0.9,0.2,1.3s-0.1,0.9-0.2,1.3H462.3z M464.2,237.4c-0.2,0.6-0.5,1.1-0.7,1.4
				c-0.2-0.4-0.5-0.9-0.7-1.4H464.2z M458.8,234.8c0-0.5,0.1-0.9,0.2-1.3h1.9c-0.1,0.4-0.1,0.9-0.1,1.3s0.1,0.9,0.1,1.3H459
				C458.9,235.7,458.8,235.2,458.8,234.8z M462.8,232.1c0.2-0.6,0.5-1.1,0.7-1.4c0.2,0.4,0.5,0.9,0.7,1.4H462.8z M462.2,230.3
				c-0.3,0.5-0.6,1.1-0.8,1.8h-1.7C460.3,231.3,461.2,230.6,462.2,230.3z M459.7,237.4h1.7c0.2,0.7,0.5,1.3,0.8,1.8
				C461.2,238.9,460.3,238.3,459.7,237.4z M464.8,239.3c0.3-0.5,0.6-1.1,0.8-1.8h1.7C466.7,238.3,465.9,238.9,464.8,239.3z"/>
			<path class="st1" d="M472.2,228.8h1.3v1.3h-1.3V228.8z"/>
			<path class="st1" d="M472.2,231.4h1.3v1.3h-1.3V231.4z"/>
			<path class="st1" d="M472.2,234.1h1.3v1.3h-1.3V234.1z"/>
			<path class="st1" d="M453.5,239.4h1.3v1.3h-1.3V239.4z"/>
			<path class="st1" d="M453.5,236.8h1.3v1.3h-1.3V236.8z"/>
			<path class="st1" d="M453.5,234.1h1.3v1.3h-1.3V234.1z"/>
		</g>
		<g>
			<rect x="488.7" y="229" class="st36" width="39.7" height="5.6"/>
			<rect x="488.7" y="241.3" class="st36" width="31.2" height="5.6"/>
			<rect x="488.7" y="253.6" class="st36" width="35" height="5.6"/>
		</g>
	</g>
	<g>
		<path class="st1" d="M148,156.6h5.4c1.3,0,2.3,0.3,3.1,1s1.1,1.5,1.1,2.6c0,1.1-0.4,1.9-1.1,2.6c-0.7,0.6-1.8,1-3.1,1h-2.8v4.8
			H148V156.6z M153.1,161.7c1.4,0,2-0.5,2-1.5c0-1-0.7-1.6-2-1.6h-2.5v3.1H153.1z"/>
		<path class="st1" d="M164.8,160l0,2.3c-0.4-0.2-0.8-0.3-1.2-0.3c-0.7,0-1.2,0.2-1.5,0.5c-0.4,0.4-0.5,0.9-0.5,1.5v4.4H159v-6
			c0-0.9,0-1.7-0.1-2.4h2.4l0.2,1.5c0.2-0.5,0.5-0.9,1-1.2s1-0.4,1.5-0.4C164.3,159.9,164.6,159.9,164.8,160z"/>
		<path class="st1" d="M167.3,168.1c-0.7-0.4-1.2-0.9-1.6-1.5c-0.4-0.7-0.5-1.4-0.5-2.3s0.2-1.7,0.5-2.3c0.4-0.7,0.9-1.2,1.6-1.5
			c0.7-0.4,1.5-0.5,2.4-0.5c0.9,0,1.7,0.2,2.3,0.5c0.7,0.4,1.2,0.9,1.5,1.5c0.4,0.7,0.5,1.4,0.5,2.3s-0.2,1.7-0.5,2.3
			c-0.4,0.7-0.9,1.2-1.5,1.5s-1.4,0.5-2.3,0.5C168.8,168.7,168,168.5,167.3,168.1z M171.1,166.1c0.3-0.4,0.5-1,0.5-1.9
			c0-0.8-0.2-1.4-0.5-1.9c-0.3-0.4-0.8-0.6-1.4-0.6c-0.6,0-1.1,0.2-1.5,0.6c-0.3,0.4-0.5,1-0.5,1.9c0,1.7,0.7,2.5,2,2.5
			C170.3,166.7,170.8,166.5,171.1,166.1z"/>
		<path class="st1" d="M176.5,167.5c-0.8-0.8-1.2-1.8-1.2-3.2c0-0.9,0.2-1.7,0.6-2.3c0.4-0.7,0.9-1.2,1.6-1.6s1.5-0.6,2.4-0.6
			c0.6,0,1.2,0.1,1.8,0.3c0.6,0.2,1,0.4,1.4,0.8l-0.7,1.8c-0.3-0.3-0.7-0.5-1.1-0.6c-0.4-0.2-0.8-0.2-1.2-0.2
			c-0.7,0-1.2,0.2-1.6,0.6c-0.4,0.4-0.6,1-0.6,1.8c0,0.8,0.2,1.4,0.6,1.8c0.4,0.4,0.9,0.6,1.6,0.6c0.4,0,0.8-0.1,1.2-0.2
			c0.4-0.2,0.8-0.4,1.1-0.6l0.7,1.8c-0.4,0.3-0.8,0.6-1.4,0.8c-0.6,0.2-1.2,0.3-1.9,0.3C178.4,168.7,177.3,168.3,176.5,167.5z"/>
		<path class="st1" d="M191.9,164.5h-5.6c0,0.8,0.3,1.4,0.6,1.7c0.4,0.4,0.9,0.5,1.6,0.5c0.4,0,0.9-0.1,1.3-0.2
			c0.4-0.1,0.8-0.4,1.2-0.6l0.7,1.7c-0.4,0.3-0.9,0.6-1.5,0.8c-0.6,0.2-1.2,0.3-1.8,0.3c-1.4,0-2.5-0.4-3.4-1.2
			c-0.8-0.8-1.2-1.9-1.2-3.2c0-0.9,0.2-1.6,0.5-2.3c0.4-0.7,0.8-1.2,1.5-1.6s1.4-0.6,2.2-0.6c1.2,0,2.1,0.4,2.8,1.2
			c0.7,0.8,1,1.8,1,3.1V164.5z M186.9,162c-0.3,0.3-0.5,0.7-0.6,1.2h3.4c-0.1-1.1-0.7-1.6-1.6-1.6
			C187.6,161.6,187.2,161.8,186.9,162z"/>
		<path class="st1" d="M201.9,156.2v12.3h-2.5v-1.3c-0.3,0.4-0.6,0.8-1.1,1c-0.5,0.2-1,0.4-1.6,0.4c-0.7,0-1.4-0.2-1.9-0.6
			c-0.6-0.4-1-0.9-1.3-1.6s-0.5-1.4-0.5-2.3c0-0.9,0.2-1.6,0.5-2.3s0.8-1.2,1.3-1.5c0.6-0.4,1.2-0.5,1.9-0.5c0.6,0,1.1,0.1,1.6,0.4
			c0.5,0.2,0.8,0.6,1.1,1v-5H201.9z M198.9,166.1c0.3-0.4,0.5-1,0.5-1.8c0-0.8-0.2-1.4-0.5-1.8c-0.3-0.4-0.8-0.6-1.4-0.6
			c-0.6,0-1.1,0.2-1.5,0.6s-0.5,1-0.5,1.8c0,0.8,0.2,1.4,0.5,1.9s0.8,0.7,1.5,0.7C198.1,166.7,198.6,166.5,198.9,166.1z"/>
		<path class="st1" d="M212.1,160.1v8.5h-2.5v-1.2c-0.3,0.4-0.6,0.8-1.1,1c-0.4,0.2-0.9,0.4-1.5,0.4c-1.1,0-1.8-0.3-2.4-0.9
			c-0.5-0.6-0.8-1.5-0.8-2.7v-5h2.5v5.1c0,1,0.4,1.5,1.3,1.5c0.5,0,0.9-0.2,1.3-0.5c0.3-0.4,0.5-0.8,0.5-1.4v-4.7H212.1z"/>
		<path class="st1" d="M219.9,160l0,2.3c-0.4-0.2-0.8-0.3-1.2-0.3c-0.7,0-1.2,0.2-1.5,0.5c-0.4,0.4-0.5,0.9-0.5,1.5v4.4h-2.5v-6
			c0-0.9,0-1.7-0.1-2.4h2.4l0.2,1.5c0.2-0.5,0.5-0.9,1-1.2s1-0.4,1.5-0.4C219.4,159.9,219.7,159.9,219.9,160z"/>
		<path class="st1" d="M228.4,164.5h-5.6c0,0.8,0.3,1.4,0.6,1.7c0.4,0.4,0.9,0.5,1.6,0.5c0.4,0,0.9-0.1,1.3-0.2
			c0.4-0.1,0.8-0.4,1.2-0.6l0.7,1.7c-0.4,0.3-0.9,0.6-1.5,0.8c-0.6,0.2-1.2,0.3-1.8,0.3c-1.4,0-2.5-0.4-3.4-1.2
			c-0.8-0.8-1.2-1.9-1.2-3.2c0-0.9,0.2-1.6,0.5-2.3c0.4-0.7,0.8-1.2,1.5-1.6s1.4-0.6,2.2-0.6c1.2,0,2.1,0.4,2.8,1.2
			c0.7,0.8,1,1.8,1,3.1V164.5z M223.4,162c-0.3,0.3-0.5,0.7-0.6,1.2h3.4c-0.1-1.1-0.7-1.6-1.6-1.6
			C224.1,161.6,223.7,161.8,223.4,162z"/>
	</g>
	<g>
		<g>
			<rect x="198.4" y="117.9" class="st36" width="39.7" height="5.6"/>
			<rect x="198.4" y="130.3" class="st36" width="31.2" height="5.6"/>
			<rect x="198.4" y="142.6" class="st36" width="35" height="5.6"/>
		</g>
		<g>
			<path class="st1" d="M177.5,137.4c-3.8,0-7,3-7.3,6.7h-4.9v-4.9h-8.6v-3.1h8.6v-9.8h2.4v6.1h12.2v-8.9l4-4
				c0.6-0.6,0.9-1.4,0.9-2.3c0-1.8-1.4-3.2-3.2-3.2c-0.9,0-1.7,0.3-2.3,0.9l-5.2,5.2h-6.5v4.9h-2.4v-11h-13.1l-5.3,5.3v16.8h8.6v3.1
				h-8.6v11h18.4v-4.9h4.9c0.3,3.8,3.5,6.7,7.3,6.7c4.1,0,7.3-3.3,7.3-7.3C184.8,140.7,181.5,137.4,177.5,137.4z M174,122.1l4.6-4.6
				l1,1L175,123L174,122.1z M173.4,123.2l2.3,2.3l-2.6,0.9c-0.3,0.1-0.6-0.1-0.6-0.4c0,0,0-0.1,0-0.1L173.4,123.2z M176.9,124.9
				l-1-1l4.6-4.6l1,1L176.9,124.9z M181.6,115.3c1.1,0,2,0.9,2,2c0,0.5-0.2,1-0.6,1.4l-0.6,0.6l-2.8-2.8l0.6-0.6
				C180.6,115.5,181.1,115.3,181.6,115.3z M168.9,121.4h4l-0.3,0.3l-1.2,3.7c-0.1,0.2-0.1,0.3-0.1,0.5c0,0.9,0.7,1.7,1.7,1.7
				c0.2,0,0.4,0,0.5-0.1l3.6-1.2l1.5-1.5v6.5h-9.8V121.4z M148.9,119l2.8-2.8v2.8H148.9z M150.5,120.2h2.4v-2.4h8.6v3.7h-11V120.2z
				 M148.1,120.2h1.2v2.4h13.5v-6.1H153v-1.2h11v19.6h-15.9V120.2z M164,149h-15.9v-8.6H164V149z M177.5,150.8
				c-3.4,0-6.1-2.7-6.1-6.1s2.7-6.1,6.1-6.1s6.1,2.7,6.1,6.1S180.8,150.8,177.5,150.8z"/>
			<path class="st1" d="M176.2,147.5l-2-2l-0.9,0.9l2.9,2.9l5.9-5.9l-0.9-0.9L176.2,147.5z"/>
			<path class="st1" d="M151.1,146.5c1,0,1.8-0.8,1.8-1.8c0-1-0.8-1.8-1.8-1.8c-1,0-1.8,0.8-1.8,1.8
				C149.3,145.7,150.1,146.5,151.1,146.5z M151.1,144.1c0.3,0,0.6,0.3,0.6,0.6s-0.3,0.6-0.6,0.6c-0.3,0-0.6-0.3-0.6-0.6
				S150.8,144.1,151.1,144.1z"/>
			<path class="st1" d="M156,146.5c1,0,1.8-0.8,1.8-1.8c0-1-0.8-1.8-1.8-1.8c-1,0-1.8,0.8-1.8,1.8C154.2,145.7,155,146.5,156,146.5z
				 M156,144.1c0.3,0,0.6,0.3,0.6,0.6s-0.3,0.6-0.6,0.6s-0.6-0.3-0.6-0.6S155.7,144.1,156,144.1z"/>
			<path class="st1" d="M160.9,146.5c1,0,1.8-0.8,1.8-1.8c0-1-0.8-1.8-1.8-1.8c-1,0-1.8,0.8-1.8,1.8
				C159.1,145.7,159.9,146.5,160.9,146.5z M160.9,144.1c0.3,0,0.6,0.3,0.6,0.6s-0.3,0.6-0.6,0.6s-0.6-0.3-0.6-0.6
				S160.6,144.1,160.9,144.1z"/>
			<path class="st1" d="M170.1,128.8h7.3v1.2h-7.3V128.8z"/>
			<path class="st1" d="M149.3,123.9h1.2v1.2h-1.2V123.9z"/>
			<path class="st1" d="M151.7,123.9h11v1.2h-11V123.9z"/>
			<path class="st1" d="M149.3,126.3h13.5v1.2h-13.5V126.3z"/>
			<path class="st1" d="M149.3,133.7h13.5v-4.9h-13.5V133.7z M150.5,130h11v2.4h-11V130z"/>
		</g>
	</g>
	<g>
		<path class="st35" d="M129.8,482.8c-1,0.2-1.9,0.1-2.8-0.3s-1.8-1-2.5-1.9c-0.8-0.9-1.2-1.8-1.5-2.8c-0.2-1-0.2-1.9,0.2-2.8
			c0.3-0.9,1-1.8,1.8-2.5c0.6-0.5,1.2-0.9,1.9-1.1c0.7-0.3,1.3-0.4,1.9-0.4l0.6,1.9c-0.6,0-1.2,0.1-1.7,0.3
			c-0.5,0.2-0.9,0.4-1.3,0.8c-0.8,0.7-1.2,1.4-1.2,2.3c0,0.8,0.4,1.7,1.2,2.7c0.8,1,1.6,1.5,2.5,1.7c0.8,0.1,1.6-0.1,2.4-0.8
			c0.4-0.3,0.7-0.7,1-1.2c0.3-0.4,0.5-1,0.6-1.6l1.8,0.9c-0.1,0.6-0.3,1.2-0.7,1.8c-0.4,0.6-0.9,1.2-1.4,1.7
			C131.7,482.1,130.7,482.6,129.8,482.8z"/>
		<path class="st35" d="M137.5,476.5c-0.7,0.2-1.4,0.1-2.1-0.2c-0.7-0.3-1.3-0.7-1.8-1.4c-0.6-0.7-0.9-1.3-1.1-2
			c-0.2-0.7-0.1-1.4,0.2-2.1c0.3-0.7,0.7-1.3,1.4-1.9c0.7-0.6,1.3-0.9,2-1.1c0.7-0.2,1.4-0.1,2.1,0.2c0.7,0.3,1.3,0.7,1.8,1.4
			c0.6,0.6,0.9,1.3,1.1,2c0.1,0.7,0.1,1.4-0.2,2.1c-0.3,0.7-0.7,1.3-1.4,1.8C138.9,476,138.2,476.3,137.5,476.5z M139,472.7
			c0-0.5-0.3-1.1-0.8-1.7c-0.5-0.6-1-1-1.5-1.1s-1,0-1.4,0.4c-0.5,0.4-0.7,0.8-0.7,1.4c0,0.5,0.3,1.1,0.8,1.7c1,1.2,2,1.4,3,0.6
			C138.8,473.6,139,473.2,139,472.7z"/>
		<path class="st35" d="M148.1,458.1c0.7,0.1,1.4,0.6,2.2,1.5l3.2,3.7l-1.8,1.6l-3.1-3.7c-0.4-0.4-0.7-0.7-1-0.8
			c-0.3-0.1-0.6,0-0.9,0.3c-0.4,0.3-0.6,0.7-0.5,1.1c0,0.4,0.2,0.9,0.6,1.4l2.9,3.4l-1.8,1.6l-3.1-3.7c-0.4-0.4-0.7-0.7-1-0.7
			c-0.3-0.1-0.6,0-0.9,0.3c-0.4,0.3-0.6,0.7-0.5,1.1s0.2,0.9,0.6,1.4l2.9,3.4l-1.8,1.6l-3.7-4.4c-0.6-0.7-1.1-1.2-1.6-1.7l1.7-1.5
			l0.9,0.8c-0.1-0.5-0.1-1,0.1-1.5c0.2-0.5,0.5-0.9,0.9-1.3c0.9-0.8,1.9-0.9,2.8-0.4c-0.1-0.5,0-1,0.1-1.6s0.5-1,0.9-1.3
			C146.7,458.2,147.4,458,148.1,458.1z"/>
		<path class="st35" d="M155.1,451.8c0.6-0.1,1.3,0,1.9,0.3c0.7,0.3,1.2,0.8,1.8,1.4c0.5,0.6,0.9,1.3,1.1,2c0.2,0.7,0.2,1.3,0,1.9
			c-0.2,0.6-0.6,1.1-1.1,1.6c-0.4,0.4-0.9,0.6-1.4,0.7c-0.5,0.1-1,0.1-1.4-0.1l3,3.5l-1.8,1.6l-6-7c-0.6-0.7-1.1-1.2-1.6-1.7
			l1.7-1.5l1,0.9c-0.1-0.5-0.1-1,0.1-1.5c0.2-0.5,0.5-1,1-1.4C153.9,452.2,154.5,451.9,155.1,451.8z M157.8,456.7
			c0-0.5-0.3-1.1-0.8-1.6c-0.5-0.6-1-0.9-1.5-1c-0.5-0.1-1,0-1.5,0.4c-0.5,0.4-0.7,0.8-0.7,1.4c0,0.5,0.3,1.1,0.8,1.7
			c0.5,0.6,1,0.9,1.5,1c0.5,0.1,1,0,1.4-0.4C157.6,457.7,157.8,457.3,157.8,456.7z"/>
		<path class="st35" d="M162.6,455.6l-7.6-9l1.8-1.6l7.6,9L162.6,455.6z"/>
		<path class="st35" d="M158.2,443.8l2-1.7l1.5,1.7l-2,1.7L158.2,443.8z M166,452.8l-5.2-6.2l1.8-1.6l5.2,6.2L166,452.8z"/>
		<path class="st35" d="M170.3,438.5l5.2,6.2l-1.8,1.5l-0.8-0.9c0.1,0.5,0,0.9-0.2,1.4c-0.2,0.5-0.5,0.9-0.9,1.3
			c-0.5,0.5-1.1,0.7-1.8,0.8c-0.6,0.1-1.3,0-1.9-0.3c-0.6-0.3-1.2-0.7-1.8-1.4c-0.5-0.6-0.9-1.3-1.1-2c-0.2-0.7-0.2-1.4,0-2
			s0.5-1.2,1.1-1.6c0.4-0.4,0.9-0.6,1.4-0.7c0.5-0.1,1-0.1,1.4,0.1l-0.7-0.9L170.3,438.5z M171.8,444.8c0-0.5-0.3-1.1-0.8-1.7
			c-0.5-0.6-1-0.9-1.5-1c-0.5-0.1-1,0-1.4,0.4c-0.5,0.4-0.7,0.8-0.6,1.4c0,0.5,0.3,1.1,0.8,1.7s1,0.9,1.5,1c0.5,0.1,1-0.1,1.5-0.4
			C171.6,445.8,171.9,445.3,171.8,444.8z"/>
		<path class="st35" d="M179.8,434.6l3.2,3.7l-1.8,1.6l-3.1-3.7c-0.4-0.4-0.7-0.7-1-0.7c-0.3-0.1-0.7,0-1,0.3
			c-0.4,0.3-0.6,0.8-0.6,1.2s0.2,0.9,0.5,1.4l2.9,3.5l-1.8,1.6l-3.7-4.4c-0.6-0.7-1.1-1.2-1.6-1.7l1.7-1.5l1,0.9
			c-0.1-0.6,0-1.1,0.1-1.6c0.2-0.5,0.5-0.9,1-1.3C176.9,432.6,178.4,432.9,179.8,434.6z"/>
		<path class="st35" d="M184.4,435.9c-1.1-0.1-2-0.6-2.8-1.6c-0.5-0.6-0.9-1.3-1-2.1c-0.1-0.7-0.1-1.4,0.2-2.1
			c0.3-0.7,0.7-1.3,1.4-1.9c0.4-0.4,0.9-0.7,1.5-0.9c0.5-0.2,1-0.3,1.5-0.3l0.6,1.7c-0.4,0-0.8,0.1-1.2,0.2c-0.4,0.1-0.7,0.3-1,0.6
			c-0.5,0.4-0.8,0.9-0.8,1.5c0,0.5,0.2,1.1,0.7,1.7c0.5,0.6,1,0.9,1.6,1c0.5,0.1,1.1-0.1,1.6-0.5c0.3-0.2,0.5-0.5,0.7-0.9
			c0.2-0.4,0.3-0.7,0.4-1.1l1.6,0.9c-0.1,0.5-0.3,0.9-0.6,1.4c-0.3,0.5-0.7,0.9-1.2,1.3C186.5,435.6,185.5,436,184.4,435.9z"/>
		<path class="st35" d="M193.7,424.2l-4.1,3.5c0.5,0.5,1,0.8,1.5,0.9c0.5,0,1-0.2,1.5-0.6c0.3-0.3,0.6-0.6,0.8-1
			c0.2-0.4,0.4-0.8,0.5-1.2l1.5,0.8c-0.1,0.5-0.3,1-0.6,1.5c-0.3,0.5-0.7,0.9-1.1,1.3c-1,0.9-2.1,1.3-3.2,1.2
			c-1.1-0.1-2-0.6-2.9-1.6c-0.5-0.6-0.9-1.3-1-2c-0.2-0.7-0.1-1.4,0.1-2.1s0.6-1.2,1.2-1.7c0.9-0.7,1.8-1,2.8-0.9
			c1,0.1,1.9,0.7,2.7,1.6L193.7,424.2z M188.6,425.4c0,0.4,0.1,0.8,0.3,1.2l2.5-2.1c-0.8-0.7-1.5-0.8-2.2-0.2
			C188.8,424.7,188.6,425.1,188.6,425.4z"/>
	</g>
</g>
</svg>
