<?xml version="1.0" encoding="utf-8"?>
<!-- Generator: Adobe Illustrator 21.0.0, SVG Export Plug-In . SVG Version: 6.00 Build 0)  -->
<svg version="1.1" id="Layer_1" xmlns="http://www.w3.org/2000/svg" xmlns:xlink="http://www.w3.org/1999/xlink" x="0px" y="0px"
	 viewBox="0 0 40.9 38.1" style="enable-background:new 0 0 40.9 38.1;" xml:space="preserve">
<style type="text/css">
	.st0{fill:#D1AE6C;}
</style>
<g>
	<path class="st0" d="M33.9,5.4c0-0.3-0.3-0.6-0.6-0.6H7.6C7.3,4.8,7,5,7,5.4v18.2c0,0.3,0.3,0.6,0.6,0.6h25.6
		c0.3,0,0.6-0.3,0.6-0.6V5.4z M8.3,22.9v-2.8h5.1c0.2,0.6,0.8,1,1.5,1c0.9,0,1.7-0.7,1.7-1.7c0-0.9-0.7-1.7-1.7-1.7
		c-0.7,0-1.3,0.4-1.5,1H8.3v-1.4h9.5l1.6,1.6c-0.1,0.2-0.1,0.4-0.1,0.7c0,0.9,0.7,1.7,1.7,1.7s1.7-0.7,1.7-1.7
		c0-0.9-0.7-1.7-1.7-1.7c-0.2,0-0.4,0-0.6,0.1l-1.8-1.8c-0.1-0.1-0.3-0.2-0.4-0.2H8.3v-1.2h17c0.2,0.6,0.8,1,1.5,1
		c0.9,0,1.7-0.7,1.7-1.7c0-0.9-0.7-1.7-1.7-1.7c-0.7,0-1.3,0.4-1.5,1h-17v-1.2h4.3c0.2,0,0.3-0.1,0.4-0.2l1.8-1.8
		c0.2,0.1,0.4,0.1,0.6,0.1c0.9,0,1.7-0.7,1.7-1.7c0-0.9-0.7-1.7-1.7-1.7c-0.9,0-1.7,0.7-1.7,1.7c0,0.2,0.1,0.5,0.1,0.7l-1.6,1.6h-4
		V6h24.4v1.5H23c-0.2,0-0.3,0.1-0.4,0.2l-1.8,1.8c-0.2-0.1-0.4-0.1-0.6-0.1c-0.9,0-1.7,0.7-1.7,1.7c0,0.9,0.7,1.7,1.7,1.7
		c0.9,0,1.7-0.7,1.7-1.7c0-0.2-0.1-0.5-0.1-0.7l1.6-1.6h9.4v10.4h-4.9c-0.2-0.6-0.8-1-1.5-1c-0.9,0-1.7,0.7-1.7,1.7
		c0,0.9,0.7,1.7,1.7,1.7c0.7,0,1.3-0.4,1.5-1h4.9v2.6L8.3,22.9L8.3,22.9z M14.5,19.5c0-0.2,0.2-0.4,0.4-0.4c0.2,0,0.4,0.2,0.4,0.4
		S15.1,20,14.9,20C14.7,20,14.5,19.8,14.5,19.5z M20.8,19.4c0.2,0,0.4,0.2,0.4,0.4s-0.2,0.4-0.4,0.4s-0.4-0.2-0.4-0.4
		S20.6,19.4,20.8,19.4z M26.4,14.5c0-0.2,0.2-0.4,0.4-0.4s0.4,0.2,0.4,0.4c0,0.2-0.2,0.4-0.4,0.4S26.4,14.7,26.4,14.5z M14.9,9.2
		c0-0.2,0.2-0.4,0.4-0.4c0.2,0,0.4,0.2,0.4,0.4c0,0.2-0.2,0.4-0.4,0.4C15.1,9.6,14.9,9.4,14.9,9.2z M20.6,11c0,0.2-0.2,0.4-0.4,0.4
		s-0.4-0.2-0.4-0.4c0-0.2,0.2-0.4,0.4-0.4S20.6,10.8,20.6,11z M26.6,19.8c0,0.2-0.2,0.4-0.4,0.4s-0.4-0.2-0.4-0.4s0.2-0.4,0.4-0.4
		S26.6,19.5,26.6,19.8z"/>
	<path class="st0" d="M34.1,28.1h-5.9v-1.5h5.6c1.4,0,2.5-1.1,2.5-2.5V4.8c0-1.4-1.1-2.5-2.5-2.5H7c-1.4,0-2.5,1.1-2.5,2.5v19.4
		c0,1.4,1.1,2.5,2.5,2.5h5.6v1.5H6.8c-1.3,0-2.4,1.1-2.4,2.4v2.9c0,1.3,1.1,2.4,2.4,2.4h27.4c1.3,0,2.4-1.1,2.4-2.4v-2.9
		C36.5,29.2,35.5,28.1,34.1,28.1L34.1,28.1z M5.8,24.2V4.8c0-0.7,0.6-1.3,1.3-1.3h26.8c0.7,0,1.3,0.6,1.3,1.3v19.4
		c0,0.7-0.6,1.3-1.3,1.3H7C6.3,25.4,5.8,24.9,5.8,24.2L5.8,24.2z M13.9,26.7H27v1.5H13.9V26.7z M35.3,33.4c0,0.6-0.5,1.2-1.2,1.2
		H6.8c-0.6,0-1.2-0.5-1.2-1.2v-2.9c0-0.6,0.5-1.2,1.2-1.2h27.4c0.6,0,1.2,0.5,1.2,1.2L35.3,33.4L35.3,33.4z"/>
	<path class="st0" d="M18.7,31.4H8c-0.3,0-0.6,0.3-0.6,0.6s0.3,0.6,0.6,0.6h10.6c0.3,0,0.6-0.3,0.6-0.6S19,31.4,18.7,31.4z"/>
	<path class="st0" d="M33,31.4h-1.9c-0.3,0-0.6,0.3-0.6,0.6s0.3,0.6,0.6,0.6H33c0.3,0,0.6-0.3,0.6-0.6S33.4,31.4,33,31.4z"/>
</g>
</svg>
