<?xml version="1.0" encoding="utf-8"?>
<!-- Generator: Adobe Illustrator 21.0.0, SVG Export Plug-In . SVG Version: 6.00 Build 0)  -->
<svg version="1.1" id="Layer_1" xmlns="http://www.w3.org/2000/svg" xmlns:xlink="http://www.w3.org/1999/xlink" x="0px" y="0px"
	 viewBox="0 0 652.9 545.2" style="enable-background:new 0 0 652.9 545.2;" xml:space="preserve">
<style type="text/css">
	.st0{opacity:0.9;fill:#B2B4B4;}
	.st1{fill:#FFFFFF;}
	.st2{opacity:0.9;fill:#99999A;}
	.st3{fill:#D3AE6C;}
	.st4{fill:#B79259;}
	.st5{opacity:0.76;fill:#D3AE6C;}
	.st6{opacity:0.9;fill:#D3AE6C;}
	.st7{opacity:0.28;fill:#D3AE6C;}
	.st8{opacity:0.9;}
	.st9{fill:#868686;}
	.st10{fill:#BE985B;}
	.st11{fill:#BE9657;}
	.st12{opacity:0.9;fill:#EACA95;}
	.st13{fill:#383838;}
	.st14{fill:#B2B4B4;}
</style>
<g>
	<g>
		<rect x="288.3" y="272.1" class="st0" width="25.3" height="93.1"/>
		<rect x="303.5" y="272.1" class="st0" width="10.2" height="93.1"/>
		<rect x="289.5" y="275.3" class="st1" width="1.1" height="90"/>
		<rect x="291.9" y="275.3" class="st1" width="1.1" height="90"/>
		<rect x="294.2" y="275.3" class="st1" width="1.1" height="90"/>
		<rect x="296.6" y="275.3" class="st1" width="1.1" height="90"/>
		<rect x="299" y="275.3" class="st1" width="1.1" height="90"/>
		<rect x="301.4" y="275.3" class="st1" width="1.1" height="90"/>
		<rect x="304.4" y="275.3" class="st1" width="1.1" height="90"/>
		<rect x="306.8" y="275.3" class="st1" width="1.1" height="90"/>
		<rect x="309.2" y="275.3" class="st1" width="1.1" height="90"/>
		<rect x="311.6" y="275.3" class="st1" width="1.1" height="90"/>
		<rect x="290.9" y="270.6" class="st2" width="4.3" height="1.5"/>
		<rect x="297.2" y="270.6" class="st2" width="4.3" height="1.5"/>
		<rect x="426" y="303.9" class="st3" width="14.1" height="61.3"/>
		<rect x="440.1" y="303.9" class="st4" width="5.8" height="61.3"/>
		<rect x="426" y="307.1" class="st1" width="19.9" height="1.6"/>
		<rect x="426" y="311" class="st1" width="19.9" height="1.6"/>
		<rect x="426" y="314.8" class="st1" width="19.9" height="1.6"/>
		<rect x="426" y="318.6" class="st1" width="19.9" height="1.6"/>
		<rect x="426" y="322.4" class="st1" width="19.9" height="1.6"/>
		<rect x="426" y="326.2" class="st1" width="19.9" height="1.6"/>
		<rect x="426" y="330" class="st1" width="19.9" height="1.6"/>
		<rect x="426" y="333.9" class="st1" width="19.9" height="1.6"/>
		<rect x="426" y="337.7" class="st1" width="19.9" height="1.6"/>
		<rect x="426" y="341.5" class="st1" width="19.9" height="1.6"/>
		<rect x="426" y="345.3" class="st1" width="19.9" height="1.6"/>
		<rect x="426" y="349.1" class="st1" width="19.9" height="1.6"/>
		<rect x="426" y="352.9" class="st1" width="19.9" height="1.6"/>
		<rect x="426" y="356.8" class="st1" width="19.9" height="1.6"/>
		<rect x="426" y="360.6" class="st1" width="19.9" height="1.6"/>
		<rect x="324.2" y="192.1" class="st5" width="5" height="24.4"/>
		<rect x="326.1" y="192.1" class="st6" width="3.1" height="24.4"/>
		<path class="st5" d="M334.6,365.3h3.8v-81.5c-0.9-1-2.3-1.8-3.8-1.8V365.3z"/>
		<path class="st6" d="M338.5,365.3h3.8v-48.8c-0.9-1-2.3-1.8-3.8-1.8V365.3z"/>
		<path class="st5" d="M342.3,365.3h3.8v-21.6c-0.9-1-2.3-1.8-3.8-1.8V365.3z"/>
		<rect x="326.3" y="178.7" class="st6" width="0.8" height="13.4"/>
		<path class="st7" d="M338.5,326.1v3.4c1.6,0,3,0.8,3.8,1.8v-3.4C341.5,326.8,340.1,326.1,338.5,326.1z"/>
		<path class="st7" d="M334.6,292.6v3.4c1.6,0,3,0.8,3.8,1.8v-3.4C337.6,293.4,336.2,292.6,334.6,292.6z"/>
		<rect x="334.6" y="326.1" class="st7" width="3.8" height="3.4"/>
		<rect x="213.5" y="365.3" class="st0" width="237.5" height="1.3"/>
		<polygon class="st5" points="332.3,245.7 326.1,245.7 326.1,216 332.3,217.1 		"/>
		<polygon class="st6" points="326.1,234.6 322.2,234.6 322.2,211.7 326.1,210.7 		"/>
		<path class="st5" d="M329.9,365.3h-7.7V229c1.6-0.9,5.7-1.6,7.7-0.5V365.3z"/>
		<path class="st7" d="M329.9,231.9v-3.4c-2-1.1-6.1-0.4-7.7,0.5v3.3C324.3,231.8,327.6,231.4,329.9,231.9z"/>
		<path class="st7" d="M329.9,257v-3.4c-2-1.1-6.1-0.4-7.7,0.5v3.3C324.3,256.9,327.6,256.6,329.9,257z"/>
		<path class="st6" d="M329.9,365.3h4.7V246.5c-1-1-2.8-1.8-4.7-1.8V365.3z"/>
		<path class="st7" d="M329.9,253.6v3.4c1.9,0,3.7,0.8,4.7,1.8v-3.4C333.6,254.4,331.9,253.6,329.9,253.6z"/>
		<path class="st7" d="M329.9,290.8v3.4c1.9,0,3.7,0.8,4.7,1.8v-3.4C333.6,291.6,331.9,290.8,329.9,290.8z"/>
		<path class="st6" d="M328.1,365.3h-6.7v-94.4c1.4-0.9,5-1.6,6.7-0.5V365.3z"/>
		<path class="st5" d="M326.1,365.3h-5.9v-59.7c1.2-0.9,4.4-1.6,5.9-0.5V365.3z"/>
		<path class="st6" d="M324.2,365.3h-5.9v-30.2c1.2-0.9,4.4-1.6,5.9-0.5V365.3z"/>
		<path class="st7" d="M328.1,294.1v-3.4c-1.7-1.1-5.3-0.4-6.7,0.5v3.3C323.2,294,326.1,293.6,328.1,294.1z"/>
		<polygon class="st7" points="329.9,294.2 328.1,294.1 328.1,290.7 329.9,290.8 		"/>
		<path class="st7" d="M329.9,324.3v3.4c1.9,0,3.7,0.8,4.7,1.8v-3.4C333.6,325,331.9,324.3,329.9,324.3z"/>
		<path class="st7" d="M326.1,327.5v-3.4c-1.5-1.1-4.7-0.4-5.9,0.5v3.3C321.8,327.5,324.3,327.1,326.1,327.5z"/>
		<rect x="328.1" y="324.3" class="st7" width="1.8" height="3.4"/>
		<polygon class="st7" points="328.1,327.7 326.1,327.6 326.1,324.2 328.1,324.3 		"/>
		<polygon class="st6" points="329.9,245.7 332.3,245.7 332.3,217.1 329.9,216.7 		"/>
		<path class="st7" d="M332.3,228.9c-0.7-0.2-1.5-0.4-2.4-0.4v3.4c0.8,0,1.6,0.2,2.4,0.4V228.9z"/>
		<polygon class="st0" points="354.3,279.9 354.3,365.3 372.6,365.3 372.6,261.2 		"/>
		<g class="st8">
			<rect x="356" y="283.5" class="st9" width="1" height="81.7"/>
			<rect x="358.3" y="283.5" class="st9" width="1" height="81.7"/>
			<rect x="360.6" y="283.5" class="st9" width="1" height="81.7"/>
			<rect x="362.9" y="283.5" class="st9" width="1" height="81.7"/>
			<rect x="365.2" y="283.5" class="st9" width="1" height="81.7"/>
			<rect x="367.5" y="283.5" class="st9" width="1" height="81.7"/>
			<rect x="369.9" y="283.5" class="st9" width="1" height="81.7"/>
		</g>
		<polygon class="st5" points="372.6,261.2 372.6,247 371.6,247 371.6,255.3 369,257.7 369,264.8 		"/>
		<polygon class="st3" points="418.3,293.8 418.3,365.3 402.9,365.3 402.9,278.1 		"/>
		<g>
			
				<rect x="416" y="296.8" transform="matrix(-1 -1.224647e-16 1.224647e-16 -1 832.8185 662.0966)" class="st10" width="0.8" height="68.4"/>
			
				<rect x="414.1" y="296.8" transform="matrix(-1 -1.224647e-16 1.224647e-16 -1 828.941 662.0966)" class="st10" width="0.8" height="68.4"/>
			
				<rect x="412.1" y="296.8" transform="matrix(-1 -1.224647e-16 1.224647e-16 -1 825.0632 662.0966)" class="st10" width="0.8" height="68.4"/>
			
				<rect x="410.2" y="296.8" transform="matrix(-1 -1.224647e-16 1.224647e-16 -1 821.1857 662.0966)" class="st10" width="0.8" height="68.4"/>
			
				<rect x="408.2" y="296.8" transform="matrix(-1 -1.224647e-16 1.224647e-16 -1 817.3081 662.0966)" class="st10" width="0.8" height="68.4"/>
			
				<rect x="406.3" y="296.8" transform="matrix(-1 -1.224647e-16 1.224647e-16 -1 813.4304 662.0966)" class="st10" width="0.8" height="68.4"/>
			
				<rect x="404.4" y="296.8" transform="matrix(-1 -1.224647e-16 1.224647e-16 -1 809.553 662.0966)" class="st10" width="0.8" height="68.4"/>
		</g>
		<polygon class="st4" points="402.9,278.1 402.9,266.2 403.8,266.2 403.8,273.2 405.9,275.2 405.9,281.2 		"/>
		<path class="st6" d="M377.2,292.9h12.6c4.3,10.2,11.2,45.4,11.2,63.2h-23.8V292.9z"/>
		<path class="st3" d="M400.7,348.3c-1.4-18.8-7.1-46.5-10.9-55.5H380C383.7,325.2,391.7,348.3,400.7,348.3z"/>
		<g>
			<path class="st10" d="M377.2,330.4v1.4h23c-0.1-0.5-0.1-1-0.2-1.4H377.2z"/>
			<path class="st10" d="M377.2,333.9v1.4h23.5c-0.1-0.5-0.1-1-0.2-1.4H377.2z"/>
			<path class="st10" d="M377.2,326.9v1.4h22.4c-0.1-0.5-0.2-1-0.2-1.4H377.2z"/>
			<path class="st10" d="M401.8,344.5h-24.6v1.4h24.7C401.9,345.4,401.8,345,401.8,344.5z"/>
			<path class="st10" d="M377.2,323.4v1.4h21.8c-0.1-0.5-0.2-1-0.2-1.4H377.2z"/>
			<path class="st10" d="M377.2,337.5v1.4h23.9c-0.1-0.5-0.1-0.9-0.2-1.4H377.2z"/>
			<path class="st10" d="M377.2,341v1.4h24.3c-0.1-0.5-0.1-1-0.2-1.4H377.2z"/>
			<path class="st10" d="M377.2,309.4v1.4h19.1c-0.1-0.5-0.2-1-0.3-1.4H377.2z"/>
			<path class="st10" d="M377.2,302.3v1.4h17.5c-0.1-0.5-0.2-1-0.4-1.4H377.2z"/>
			<path class="st10" d="M377.2,319.9v1.4h21.2c-0.1-0.5-0.2-1-0.3-1.4H377.2z"/>
			<path class="st10" d="M377.2,295.3v1.4h15.5c-0.2-0.5-0.3-1-0.5-1.4H377.2z"/>
			<path class="st10" d="M377.2,298.8v1.4h16.5c-0.1-0.5-0.3-1-0.4-1.4H377.2z"/>
			<path class="st10" d="M377.2,305.9v1.4h18.3c-0.1-0.5-0.2-1-0.3-1.4H377.2z"/>
			<path class="st10" d="M377.2,316.4v1.4h20.6c-0.1-0.5-0.2-1-0.3-1.4H377.2z"/>
			<path class="st10" d="M377.2,312.9v1.4h19.8c-0.1-0.5-0.2-1-0.3-1.4H377.2z"/>
		</g>
		<circle class="st3" cx="383.7" cy="286.4" r="4.4"/>
		<path class="st3" d="M375.5,288.9v76.4h30v-10.8c-9.1,0-27.7-3.3-27.7-65.5H375.5z"/>
		<polygon class="st3" points="386.8,290 383.7,290 380.6,290 378.7,292.9 383.7,292.9 388.8,292.9 		"/>
		<rect x="220.2" y="325.4" class="st6" width="21.5" height="39.8"/>
		<rect x="241.7" y="325.4" class="st11" width="8.9" height="39.8"/>
		<polygon class="st1" points="223.4,327.1 223.4,365.3 224.5,365.3 224.5,328.4 246.3,328.4 246.3,365.3 247.3,365.3 247.3,327.1 
					"/>
		<rect x="224.5" y="333.2" class="st1" width="21.9" height="1.4"/>
		<rect x="224.5" y="336.1" class="st1" width="21.9" height="1.4"/>
		<rect x="224.5" y="339.1" class="st1" width="21.9" height="1.4"/>
		<rect x="224.5" y="342" class="st1" width="21.9" height="1.4"/>
		<rect x="224.5" y="345" class="st1" width="21.9" height="1.4"/>
		<rect x="224.5" y="347.9" class="st1" width="21.9" height="1.4"/>
		<rect x="224.5" y="350.9" class="st1" width="21.9" height="1.4"/>
		<rect x="224.5" y="353.9" class="st1" width="21.9" height="1.4"/>
		<rect x="224.5" y="356.8" class="st1" width="21.9" height="1.4"/>
		<rect x="224.5" y="359.8" class="st1" width="21.9" height="1.4"/>
		<rect x="224.5" y="362.7" class="st1" width="21.9" height="1.4"/>
		<path class="st1" d="M227.7,333.2h-0.6v-4.8h0.6V333.2z M230.9,328.4h-0.6v4.8h0.6V328.4z M234.1,328.4h-0.6v4.8h0.6V328.4z
			 M237.2,328.4h-0.6v4.8h0.6V328.4z M240.4,328.4h-0.6v4.8h0.6V328.4z M243.6,328.4H243v4.8h0.6V328.4z"/>
		<rect x="256.8" y="305.4" class="st12" width="24.8" height="59.9"/>
		<rect x="274.4" y="305.4" class="st12" width="7.2" height="59.9"/>
		<rect x="259.6" y="305.4" class="st6" width="1" height="59.9"/>
		<rect x="268.8" y="305.4" class="st6" width="1" height="59.9"/>
		<rect x="277.9" y="305.4" class="st6" width="1" height="59.9"/>
		<rect x="256.8" y="307.3" class="st6" width="24.8" height="1.1"/>
		<rect x="256.8" y="310.7" class="st6" width="24.8" height="1.1"/>
		<rect x="256.8" y="314.1" class="st6" width="24.8" height="1.1"/>
		<rect x="256.8" y="317.5" class="st6" width="24.8" height="1.1"/>
		<rect x="256.8" y="320.9" class="st6" width="24.8" height="1.1"/>
		<rect x="256.8" y="324.3" class="st6" width="24.8" height="1.1"/>
		<rect x="256.8" y="327.8" class="st6" width="24.8" height="1.1"/>
		<rect x="256.8" y="331.2" class="st6" width="24.8" height="1.1"/>
		<rect x="256.8" y="334.6" class="st6" width="24.8" height="1.1"/>
		<rect x="256.8" y="338" class="st6" width="24.8" height="1.1"/>
		<rect x="256.8" y="341.4" class="st6" width="24.8" height="1.1"/>
		<rect x="256.8" y="344.8" class="st6" width="24.8" height="1.1"/>
		<rect x="256.8" y="348.2" class="st6" width="24.8" height="1.1"/>
		<rect x="256.8" y="351.7" class="st6" width="24.8" height="1.1"/>
		<rect x="256.8" y="355.1" class="st6" width="24.8" height="1.1"/>
		<rect x="256.8" y="358.5" class="st6" width="24.8" height="1.1"/>
		<rect x="256.8" y="361.9" class="st6" width="24.8" height="1.1"/>
		<rect x="259.6" y="279.7" class="st12" width="19.3" height="25.7"/>
		<rect x="273.2" y="279.7" class="st12" width="5.6" height="25.7"/>
		<rect x="261.7" y="279.7" class="st6" width="0.7" height="25.7"/>
		<rect x="268.9" y="279.7" class="st6" width="0.7" height="25.7"/>
		<rect x="276" y="279.7" class="st6" width="0.7" height="25.7"/>
		<rect x="259.6" y="281.6" class="st6" width="19.3" height="1.1"/>
		<rect x="259.6" y="285" class="st6" width="19.3" height="1.1"/>
		<rect x="259.6" y="288.4" class="st6" width="19.3" height="1.1"/>
		<rect x="259.6" y="291.8" class="st6" width="19.3" height="1.1"/>
		<rect x="259.6" y="295.2" class="st6" width="19.3" height="1.1"/>
		<rect x="259.6" y="298.7" class="st6" width="19.3" height="1.1"/>
		<rect x="259.6" y="302.1" class="st6" width="19.3" height="1.1"/>
		<rect x="261.7" y="260.9" class="st12" width="15.1" height="18.8"/>
		<rect x="272.4" y="260.9" class="st12" width="4.4" height="18.8"/>
		<rect x="263.4" y="260.9" class="st6" width="0.6" height="18.8"/>
		<rect x="268.9" y="260.9" class="st6" width="0.6" height="18.8"/>
		<rect x="274.5" y="260.9" class="st6" width="0.6" height="18.8"/>
		<rect x="261.7" y="262.7" class="st6" width="15.1" height="1.1"/>
		<rect x="261.7" y="266.1" class="st6" width="15.1" height="1.1"/>
		<rect x="261.7" y="269.5" class="st6" width="15.1" height="1.1"/>
		<rect x="261.7" y="273" class="st6" width="15.1" height="1.1"/>
		<rect x="261.7" y="276.4" class="st6" width="15.1" height="1.1"/>
	</g>
	<g>
		<path class="st13" d="M534.7,272.8c0-28.1-5.5-55.4-16.4-81.1c-10.5-24.8-25.5-47.1-44.6-66.2c-19.1-19.1-41.4-34.1-66.2-44.6
			c-25.7-10.9-53-16.4-81.1-16.4c-28.1,0-55.4,5.5-81.1,16.4c-24.8,10.5-47.1,25.5-66.2,44.6c-19.1,19.1-34.1,41.4-44.6,66.2
			c-10.9,25.7-16.4,53-16.4,81.1c0,3.5,0.1,6.9,0.3,10.4H195c-0.3-3.4-0.4-6.9-0.4-10.4c0-72.7,59.1-131.8,131.8-131.8
			s131.8,59.1,131.8,131.8c0,3.5-0.1,7-0.4,10.4h76.5C534.6,279.7,534.7,276.3,534.7,272.8z"/>
		<path class="st0" d="M316.1,160.7V46.4c-26.9,1.2-53.1,7.1-77.9,17.6c-27,11.4-51.2,27.8-72,48.6s-37.1,45-48.6,72
			c-10.5,24.8-16.4,51-17.6,77.9h114.4C219.3,208.6,262.3,165.7,316.1,160.7z"/>
		<path class="st6" d="M438.5,262.4h114.4c-1.2-26.9-7.1-53.1-17.6-77.9c-11.4-27-27.8-51.2-48.6-72c-20.8-20.8-45-37.1-72-48.6
			c-24.8-10.5-51-16.4-77.9-17.6v114.4C390.6,165.7,433.6,208.6,438.5,262.4z"/>
		<g>
			<path class="st13" d="M195,283.2h-76.5c1.2,24.4,6.6,48.2,16.1,70.7c10.5,24.8,25.5,47.1,44.6,66.2
				c19.1,19.1,41.4,34.1,66.2,44.6c22.5,9.5,46.2,14.9,70.7,16.1v-76.5C251.6,399.2,200.1,347.6,195,283.2z"/>
			<path class="st13" d="M326.5,404.6c-3.5,0-7-0.1-10.4-0.4v76.5c3.4,0.2,6.9,0.3,10.4,0.3s6.9-0.1,10.4-0.3v-76.5
				C333.4,404.5,329.9,404.6,326.5,404.6z"/>
			<path class="st13" d="M473.7,420c19.1-19.1,34.1-41.4,44.6-66.2c9.5-22.5,14.9-46.2,16.1-70.7h-76.5c-5,64.4-56.6,116-121,121
				v76.5c24.4-1.2,48.2-6.6,70.7-16.1C432.3,454.1,454.6,439.1,473.7,420z"/>
		</g>
		<g>
			<path class="st14" d="M457.9,283.2h-19.4c-4.9,53.8-47.9,96.7-101.7,101.7v19.4C401.3,399.2,452.8,347.6,457.9,283.2z"/>
			<g>
				<path class="st0" d="M534,282.8c-1.2,24.4-6.6,48.2-16.1,70.7c-10.5,24.8-25.5,47.1-44.6,66.2c-19.1,19.1-41.4,34.1-66.2,44.6
					c-22.5,9.5-46.2,14.9-70.7,16.1v18.5c26.9-1.2,53.1-7.1,77.9-17.6c27-11.4,51.2-27.8,72-48.6c20.8-20.8,37.1-45,48.6-72
					c10.5-24.8,16.4-51,17.6-77.9H534z"/>
				<path class="st0" d="M473.3,419.6c19.1-19.1,34.1-41.4,44.6-66.2c9.5-22.5,14.9-46.2,16.1-70.7h-76.5c-5,64.4-56.6,116-121,121
					v76.5c24.4-1.2,48.2-6.6,70.7-16.1C431.9,453.7,454.2,438.7,473.3,419.6z"/>
			</g>
		</g>
		<g>
			<path class="st3" d="M316.1,404.2v-19.4c-53.8-4.9-96.7-47.9-101.7-101.7H195C200.1,347.6,251.6,399.2,316.1,404.2z"/>
			<g>
				<path class="st6" d="M179.6,419.6c-19.1-19.1-34.1-41.4-44.6-66.2c-9.5-22.5-14.9-46.2-16.1-70.7h-18.5
					c1.2,26.9,7.1,53.1,17.6,77.9c11.4,27,27.8,51.2,48.6,72c20.8,20.8,45,37.1,72,48.6c24.8,10.5,51,16.4,77.9,17.6v-18.5
					c-24.4-1.2-48.2-6.6-70.7-16.1C221,453.7,198.7,438.7,179.6,419.6z"/>
				<path class="st6" d="M195.4,282.8h-76.5c1.2,24.4,6.6,48.2,16.1,70.7c10.5,24.8,25.5,47.1,44.6,66.2
					c19.1,19.1,41.4,34.1,66.2,44.6c22.5,9.5,46.2,14.9,70.7,16.1v-76.5C252,398.8,200.5,347.2,195.4,282.8z"/>
			</g>
		</g>
		<g>
			<g>
				<path class="st1" d="M281.7,448.8l-4.6-1l13.7-18.7l3.6,0.8l4.9,22.6l-4.7-1l-3.2-16.4L281.7,448.8z"/>
				<path class="st1" d="M267.3,422l0.4,5.1l9.3,3.2l3.4-3.8l4.4,1.5l-16.1,16.8l-3.5-1.2l-2.3-23.1L267.3,422z M274.4,433.2
					l-6.4-2.2l0.6,8.6L274.4,433.2z"/>
				<path class="st1" d="M260,418.7l-7.4,15.7l6,2.8l-1.6,3.4l-16.2-7.7l1.6-3.4l6,2.8l7.4-15.7L260,418.7z"/>
				<path class="st1" d="M241.2,408.8l-12,17.4l-12-8.3l2-3l8.3,5.7l2.8-4.1l-7.8-5.4l2.1-3l7.8,5.4l3-4.4l-8.3-5.7l2-3L241.2,408.8
					z"/>
				<path class="st1" d="M215.5,399l0.2-10l4,3.4l-0.2,5.9l5.8-1.1l4,3.4l-9.9,1.8l-0.2,9.4l-4-3.4l0.3-5.3l-5.2,1.1l-4-3.4
					L215.5,399z"/>
				<path class="st1" d="M201,383.9l6.9,7.1c1-1,1.4-2,1.4-2.9c0-0.9-0.4-1.8-1.3-2.8c-0.5-0.6-1.2-1-1.9-1.4
					c-0.7-0.4-1.5-0.6-2.3-0.8l1.4-3c0.9,0.1,1.8,0.4,2.8,1c1,0.5,1.8,1.2,2.6,2c1.8,1.8,2.6,3.7,2.6,5.7c0,2-0.9,3.8-2.6,5.5
					c-1.1,1.1-2.3,1.8-3.6,2.2c-1.3,0.4-2.6,0.4-3.8,0c-1.3-0.4-2.4-1-3.4-2.1c-1.5-1.5-2.1-3.2-2-5c0.1-1.8,1-3.6,2.7-5.2
					L201,383.9z M203.9,393.3c0.7,0,1.5-0.2,2.3-0.8l-4.1-4.3c-1.2,1.5-1.3,2.9-0.1,4.1C202.5,392.9,203.2,393.3,203.9,393.3z"/>
				<path class="st1" d="M180.1,367.8c0.3-1.3,1.4-2.6,3.1-3.8l7.3-5.4l2.7,3.6l-7.2,5.3c-0.8,0.6-1.4,1.2-1.5,1.8
					c-0.2,0.5,0,1.1,0.4,1.8c0.5,0.7,1.2,1.1,2,1.1c0.8,0,1.7-0.3,2.6-1l6.7-4.9l2.7,3.6l-7.2,5.3c-0.8,0.6-1.3,1.2-1.5,1.8
					c-0.2,0.6,0,1.1,0.4,1.7c0.5,0.7,1.2,1.1,2,1.1c0.8,0,1.7-0.3,2.6-1l6.7-4.9l2.7,3.6l-8.6,6.4c-1.3,1-2.4,1.9-3.3,2.7l-2.5-3.4
					l1.7-1.6c-1,0.1-1.9,0-2.7-0.4c-0.9-0.4-1.6-1-2.2-1.9c-1.3-1.8-1.5-3.5-0.4-5.2c-1,0.1-1.9,0-2.9-0.4c-0.9-0.4-1.7-1-2.3-1.9
					C180.1,370.5,179.8,369.1,180.1,367.8z"/>
				<path class="st1" d="M170.5,351.8c0.1-1.2,0.5-2.3,1.3-3.4c0.8-1.1,1.9-2,3.2-2.7c1.4-0.7,2.7-1.1,4-1.2
					c1.3-0.1,2.5,0.2,3.5,0.8c1,0.6,1.9,1.4,2.5,2.6c0.5,0.9,0.8,1.8,0.8,2.8c0,0.9-0.2,1.8-0.7,2.5l7.6-4.1l2.1,3.9l-15.1,8.2
					c-1.4,0.8-2.6,1.5-3.7,2.3l-2-3.7l2-1.5c-1,0.1-1.9-0.1-2.8-0.7c-0.9-0.5-1.6-1.3-2.1-2.3C170.7,354.2,170.4,353,170.5,351.8z
					 M180.4,348.9c-0.9-0.2-2,0.1-3.3,0.8c-1.2,0.7-2.1,1.5-2.5,2.4c-0.4,0.9-0.3,1.8,0.2,2.8c0.5,1,1.3,1.5,2.2,1.7
					c1,0.2,2.1-0.1,3.3-0.8c1.3-0.7,2.1-1.5,2.4-2.4c0.4-0.9,0.3-1.8-0.2-2.8C182.1,349.6,181.4,349,180.4,348.9z"/>
				<path class="st1" d="M167.8,339.4l5.4-2.3c0.8-0.3,1.2-0.8,1.4-1.3c0.2-0.6,0.1-1.1-0.1-1.8c-0.2-0.4-0.4-0.8-0.8-1.3l3.2-1.4
					c0.5,0.5,1,1.3,1.4,2.2c0.7,1.7,0.8,3.2,0.2,4.5c-0.6,1.3-1.7,2.3-3.5,3.1l-5.4,2.4l1.1,2.6l-3.1,1.3l-1.1-2.6l-3.2,1.4
					l-3.1-3.5l4.6-2l-1.5-3.5l3.1-1.3L167.8,339.4z"/>
				<path class="st1" d="M165.3,319l3.1,9.4c1.3-0.5,2.2-1.2,2.6-2c0.4-0.8,0.4-1.8,0-3.1c-0.2-0.7-0.6-1.4-1.1-2.1
					c-0.5-0.7-1.1-1.2-1.7-1.7l2.5-2.1c0.8,0.5,1.5,1.2,2.1,2.1c0.6,0.9,1.1,1.9,1.5,2.9c0.8,2.4,0.8,4.5-0.1,6.3
					c-0.9,1.8-2.4,3.1-4.7,3.9c-1.4,0.5-2.8,0.6-4.2,0.4c-1.3-0.2-2.5-0.7-3.5-1.6c-1-0.9-1.7-2-2.2-3.3c-0.7-2-0.5-3.8,0.4-5.4
					c0.9-1.6,2.5-2.8,4.7-3.5L165.3,319z M163.9,328.8c0.6,0.3,1.4,0.4,2.4,0.3l-1.9-5.7c-1.8,0.8-2.4,2.1-1.8,3.6
					C162.8,327.9,163.3,328.4,163.9,328.8z"/>
				<path class="st1" d="M146.9,304.5l21.3-4.7l0.9,4.3l-2.2,0.5c0.9,0.3,1.6,0.8,2.2,1.5c0.6,0.7,1,1.6,1.2,2.6
					c0.3,1.3,0.2,2.4-0.2,3.6c-0.4,1.1-1.2,2.1-2.2,2.9c-1,0.8-2.3,1.4-3.8,1.7c-1.5,0.3-2.9,0.3-4.2,0c-1.3-0.3-2.3-0.9-3.2-1.7
					c-0.8-0.8-1.4-1.9-1.7-3.2c-0.2-1-0.2-1.9,0-2.8c0.2-0.9,0.7-1.7,1.3-2.3l-8.6,1.9L146.9,304.5z M165.2,306
					c-0.9-0.4-2-0.5-3.4-0.2c-1.4,0.3-2.4,0.8-3,1.6c-0.6,0.8-0.8,1.7-0.6,2.7c0.2,1.1,0.8,1.8,1.7,2.3c0.9,0.4,2,0.5,3.3,0.2
					c1.4-0.3,2.4-0.8,3-1.6c0.6-0.8,0.8-1.7,0.6-2.8C166.6,307.1,166,306.4,165.2,306z"/>
			</g>
			<g>
				<path class="st1" d="M163.3,191.6l1.5-3.4l19.8,8.9L183,201l-10.8-4.9l8.8,9.4l-1.3,2.8l-12.8-0.2l10.7,4.8l-1.7,3.8l-19.8-8.9
					l1.6-3.4l17.5,0.2L163.3,191.6z"/>
				<path class="st1" d="M181.6,172.9l13.1,8.2l-2.4,3.9l-1.9-1.2c0.4,0.8,0.6,1.7,0.5,2.7s-0.4,1.9-1,2.8c-0.7,1.1-1.6,2-2.7,2.5
					c-1.1,0.5-2.3,0.7-3.6,0.6c-1.3-0.2-2.7-0.7-4-1.5c-1.3-0.8-2.4-1.8-3.1-3c-0.7-1.2-1.1-2.3-1.2-3.6c0-1.2,0.3-2.4,1-3.5
					c0.6-0.9,1.3-1.6,2.1-2.1c0.9-0.5,1.7-0.7,2.7-0.7l-1.9-1.2L181.6,172.9z M188.1,183.4c-0.3-0.9-1.1-1.8-2.4-2.6
					c-1.2-0.8-2.4-1.1-3.3-1c-1,0.1-1.8,0.6-2.4,1.6c-0.6,1-0.7,1.9-0.4,2.9c0.4,1,1.1,1.8,2.4,2.6c1.2,0.8,2.3,1.1,3.3,1
					c1-0.1,1.8-0.7,2.4-1.7C188.3,185.3,188.4,184.3,188.1,183.4z"/>
				<path class="st1" d="M178.5,165l2.9-3.9l3.5,2.6l-2.9,3.9L178.5,165z M196.8,178.5l-12.4-9.3l2.8-3.7l12.4,9.3L196.8,178.5z"/>
				<path class="st1" d="M204.5,154.7l7,6.2l-3.1,3.4l-6.9-6.1c-0.8-0.7-1.5-1.1-2.2-1.1c-0.6,0-1.2,0.3-1.8,0.9
					c-0.7,0.8-1,1.6-0.9,2.5c0.1,0.9,0.5,1.7,1.4,2.4l6.5,5.7l-3.1,3.4l-8.3-7.3c-1.2-1.1-2.4-2-3.5-2.8l2.9-3.2l2,1.4
					c-0.3-1-0.4-2-0.1-3c0.2-1,0.7-1.9,1.4-2.7C198.4,151.7,201.2,151.8,204.5,154.7z"/>
				<path class="st1" d="M213.9,158.7l-15.5-16.2l3.3-3.2l15.5,16.2L213.9,158.7z"/>
				<path class="st1" d="M221.8,131.3l9.7,12l-3.5,2.9l-1.4-1.8c0.1,0.9,0,1.8-0.4,2.7c-0.4,0.9-1,1.7-1.8,2.3
					c-1,0.8-2.2,1.3-3.4,1.5c-1.2,0.1-2.4-0.1-3.6-0.7c-1.2-0.6-2.3-1.5-3.3-2.7c-1-1.2-1.7-2.5-2-3.8c-0.3-1.3-0.3-2.6,0.1-3.8
					c0.4-1.2,1.1-2.2,2.1-3c0.8-0.7,1.7-1.1,2.7-1.3c1-0.2,1.9-0.1,2.7,0.2l-1.4-1.7L221.8,131.3z M224.6,143.4c0-1-0.5-2-1.4-3.2
					c-0.9-1.1-1.9-1.8-2.8-2c-1-0.2-1.9,0-2.8,0.7c-0.9,0.7-1.3,1.6-1.3,2.6c0,1,0.5,2.1,1.4,3.2c0.9,1.1,1.8,1.8,2.8,2
					c1,0.2,1.9-0.1,2.8-0.8C224.1,145.2,224.6,144.3,224.6,143.4z"/>
				<path class="st1" d="M241.8,125.5l5,7.9l-3.9,2.5l-4.9-7.7c-0.6-0.9-1.2-1.5-1.8-1.7c-0.6-0.2-1.3-0.1-2,0.4
					c-0.9,0.5-1.4,1.3-1.5,2.1c-0.2,0.9,0,1.8,0.6,2.7l4.7,7.3l-3.9,2.5l-5.9-9.3c-0.9-1.4-1.7-2.6-2.6-3.6l3.7-2.3l1.6,1.9
					c0-1.1,0.2-2,0.7-2.9c0.5-0.9,1.2-1.6,2.1-2.2C236.8,121,239.5,121.9,241.8,125.5z"/>
				<path class="st1" d="M253.6,105l9.8,20.2l-4.1,2l-1-2.1c-0.1,0.9-0.4,1.8-1,2.5c-0.6,0.8-1.3,1.4-2.3,1.9
					c-1.2,0.6-2.4,0.8-3.6,0.6c-1.2-0.2-2.4-0.7-3.4-1.5c-1.1-0.9-1.9-2-2.6-3.4s-1-2.8-1.1-4.2c0-1.3,0.3-2.5,0.9-3.6
					c0.6-1,1.6-1.9,2.8-2.4c0.9-0.5,1.9-0.7,2.8-0.7c1,0,1.8,0.3,2.6,0.8l-4-8.2L253.6,105z M256.6,123.6c0.2-1,0-2.1-0.7-3.4
					c-0.6-1.3-1.4-2.2-2.3-2.6c-0.9-0.4-1.9-0.4-2.9,0.1c-1,0.5-1.7,1.2-1.9,2.2c-0.2,1,0,2.1,0.6,3.4c0.6,1.3,1.4,2.2,2.3,2.6
					c0.9,0.4,1.9,0.4,2.9-0.1C255.8,125.3,256.4,124.5,256.6,123.6z"/>
			</g>
			<g>
				<path class="st1" d="M473.4,339.8c1.5-1,3.1-1.5,5-1.5c1.8,0,3.7,0.5,5.7,1.4c2,1,3.5,2.2,4.6,3.7c1.1,1.5,1.7,3.1,1.8,4.9
					c0.1,1.8-0.3,3.6-1.3,5.5c-0.9,1.9-2.1,3.3-3.6,4.3c-1.5,1-3.1,1.5-4.9,1.5c-1.8,0-3.7-0.5-5.7-1.4c-2-1-3.5-2.2-4.6-3.7
					c-1.1-1.5-1.7-3.1-1.8-4.9c-0.1-1.8,0.3-3.6,1.3-5.5C470.7,342.2,471.9,340.8,473.4,339.8z M472.8,350.3c0.7,1.4,2,2.7,4.1,3.7
					c2.1,1,3.9,1.4,5.4,1c1.5-0.3,2.7-1.3,3.5-2.9c0.8-1.6,0.9-3.1,0.2-4.6c-0.7-1.4-2-2.7-4.1-3.7c-2.1-1.1-3.9-1.4-5.5-1.1
					c-1.6,0.3-2.7,1.3-3.5,2.9C472.2,347.3,472.1,348.8,472.8,350.3z"/>
				<path class="st1" d="M475.3,370.5c-0.1-0.6-0.5-1.1-1.2-1.5l-0.7-0.4l-1.7,2.7l-2.8-1.8l1.7-2.7l-9.9-6.3l2.4-3.8l9.9,6.3
					l1.5-2.4l2.8,1.8l-1.5,2.4l0.8,0.5c1.6,1,2.6,2.2,2.9,3.6c0.4,1.4,0,2.8-0.9,4.4c-0.6,0.9-1.1,1.5-1.7,1.9l-3-1.9
					c0.4-0.4,0.7-0.8,1-1.1C475.3,371.6,475.4,371,475.3,370.5z"/>
				<path class="st1" d="M468.5,380.1c-0.1-0.6-0.4-1.1-1.1-1.6l-0.7-0.5l-1.9,2.5l-2.7-2l1.9-2.5l-9.4-6.9l2.7-3.6l9.4,6.9l1.7-2.3
					l2.7,2l-1.7,2.3l0.8,0.6c1.5,1.1,2.4,2.4,2.7,3.8c0.3,1.4-0.1,2.8-1.2,4.3c-0.6,0.8-1.2,1.4-1.8,1.8l-2.8-2.1
					c0.5-0.4,0.8-0.7,1-1C468.4,381.3,468.6,380.7,468.5,380.1z"/>
				<path class="st1" d="M453.3,373.6l1.6,2.9c-1,0.2-1.9,0.6-2.7,1.1c-0.9,0.5-1.6,1.2-2.3,1.9c-0.5,0.6-0.8,1.1-0.9,1.6
					c-0.1,0.5,0,0.9,0.4,1.2c0.3,0.2,0.6,0.3,1,0.2c0.4-0.1,0.8-0.4,1.5-0.8l2-1.5c1.2-0.9,2.3-1.4,3.2-1.4c1-0.1,1.9,0.3,2.8,1
					c0.7,0.6,1.2,1.4,1.4,2.2c0.2,0.9,0.1,1.8-0.2,2.8c-0.3,1-0.9,2-1.7,2.9c-0.7,0.8-1.5,1.5-2.4,2.1c-0.9,0.6-1.9,1-2.8,1.2
					l-1.5-2.9c0.9-0.2,1.7-0.6,2.5-1c0.7-0.4,1.3-0.9,1.8-1.5c0.5-0.6,0.8-1.1,0.8-1.6c0.1-0.5-0.1-0.9-0.4-1.2
					c-0.3-0.2-0.5-0.3-0.9-0.3c-0.3,0.1-0.7,0.3-1.3,0.7L453,385c-1.3,0.9-2.4,1.4-3.4,1.5c-1,0.1-1.9-0.3-2.8-1.1
					c-1.1-0.9-1.6-2.1-1.4-3.5c0.1-1.4,0.8-2.9,2.1-4.4C449.3,375.4,451.3,374.1,453.3,373.6z"/>
				<path class="st1" d="M437.6,400.9l-6.3-6.6l3.3-3.1l6.1,6.5c0.7,0.8,1.4,1.2,2,1.3c0.6,0.1,1.2-0.2,1.8-0.7
					c0.7-0.7,1.1-1.5,1.1-2.3c0-0.9-0.4-1.7-1.1-2.5l-5.8-6.1l3.3-3.1l15,15.9l-3.3,3.1l-6.1-6.4c0.2,0.9,0.1,1.8-0.2,2.7
					s-0.8,1.7-1.6,2.3C443.2,404.2,440.5,403.9,437.6,400.9z"/>
				<path class="st1" d="M427.1,398.6c1.3-0.2,2.6-0.1,3.8,0.5c1.2,0.6,2.3,1.5,3.3,2.7c1,1.3,1.5,2.6,1.7,3.9
					c0.2,1.3,0,2.6-0.5,3.8c-0.6,1.2-1.5,2.3-2.8,3.3c-1.3,1-2.6,1.5-3.9,1.8c-1.3,0.2-2.6,0-3.8-0.5c-1.2-0.6-2.3-1.5-3.3-2.7
					c-1-1.3-1.5-2.6-1.7-3.9c-0.2-1.3,0-2.6,0.5-3.8c0.6-1.2,1.5-2.3,2.7-3.3C424.4,399.4,425.7,398.8,427.1,398.6z M423.9,405.5
					c0,0.9,0.4,2,1.3,3.2c0.9,1.2,1.8,1.9,2.7,2.1c0.9,0.2,1.8,0,2.7-0.6c0.9-0.7,1.4-1.5,1.4-2.4c0-0.9-0.4-2-1.3-3.2
					c-1.8-2.3-3.6-2.8-5.4-1.4C424.3,403.7,423.9,404.5,423.9,405.5z"/>
				<path class="st1" d="M414.2,424.8l-2.1-3.5c0.8-0.1,1.5-0.3,2.1-0.7c1-0.6,1.6-1.4,1.8-2.3c0.2-0.9,0-1.8-0.6-2.8l-4.2-6.7
					l3.8-2.4l5.7,9.1c0.8,1.4,1.7,2.5,2.5,3.5l-3.6,2.2l-1.6-2c0.2,1,0.1,1.9-0.3,2.8c-0.4,0.9-1,1.5-1.9,2.1
					C415.2,424.6,414.7,424.8,414.2,424.8z"/>
				<path class="st1" d="M396.5,425.1l8.8-4.5c-0.7-1.2-1.5-2-2.4-2.2c-0.9-0.3-1.9-0.1-3,0.5c-0.7,0.4-1.3,0.8-1.9,1.4
					c-0.6,0.6-1,1.2-1.4,2l-2.4-2.1c0.4-0.8,1-1.6,1.7-2.4c0.8-0.8,1.7-1.4,2.6-1.9c2.3-1.2,4.3-1.4,6.3-0.9
					c1.9,0.6,3.4,1.9,4.5,4.1c0.7,1.4,1,2.7,1,4.1c0,1.3-0.4,2.6-1.1,3.7c-0.7,1.1-1.7,2-3,2.6c-1.9,1-3.7,1.1-5.4,0.5
					c-1.7-0.7-3.1-2-4.2-4.1L396.5,425.1z M406.3,425c0.2-0.7,0.2-1.5-0.1-2.4l-5.3,2.7c1.1,1.6,2.4,2,3.9,1.3
					C405.6,426.2,406.1,425.7,406.3,425z"/>
			</g>
			<g>
				<path class="st1" d="M394.2,127.3l9.7-18.8l12.7,6.5l-1.7,3.2l-8.6-4.4l-2.2,4.3l8.1,4.2l-1.7,3.3l-8.1-4.2l-4.1,7.9
					L394.2,127.3z"/>
				<path class="st1" d="M425.2,127.7l-2.2,3.4c-0.4-0.7-1-1.2-1.6-1.6c-1-0.6-1.9-0.8-2.8-0.6c-0.9,0.2-1.6,0.8-2.2,1.8l-4.2,6.6
					l-3.8-2.4l5.7-9.1c0.9-1.4,1.6-2.6,2.1-3.8l3.6,2.3l-1.1,2.3c0.8-0.6,1.7-0.9,2.7-0.9c0.9,0,1.8,0.3,2.7,0.8
					C424.6,127,425,127.3,425.2,127.7z"/>
				<path class="st1" d="M433.1,143.5l-7.9-6c-0.8,1.2-1.1,2.2-1,3.1c0.1,0.9,0.7,1.7,1.7,2.5c0.6,0.5,1.3,0.8,2.1,1.1
					c0.8,0.3,1.6,0.4,2.4,0.4l-0.9,3.1c-0.9,0-1.9-0.1-2.9-0.5c-1-0.4-2-0.9-2.8-1.5c-2-1.5-3.2-3.3-3.5-5.3c-0.3-2,0.3-3.9,1.7-5.9
					c0.9-1.2,2-2.1,3.2-2.7c1.2-0.6,2.5-0.8,3.8-0.6c1.3,0.2,2.5,0.7,3.7,1.5c1.7,1.3,2.6,2.8,2.8,4.7c0.1,1.8-0.5,3.7-1.9,5.5
					L433.1,143.5z M428.8,134.7c-0.7,0.1-1.4,0.4-2.1,1.1l4.8,3.6c1-1.7,0.8-3-0.5-4.1C430.2,134.9,429.5,134.7,428.8,134.7z"/>
				<path class="st1" d="M445.3,154.7l-7.3-6.7c-0.9,1.1-1.3,2.1-1.3,3c0,0.9,0.5,1.8,1.5,2.7c0.6,0.5,1.2,1,2,1.3
					c0.7,0.3,1.5,0.5,2.3,0.6l-1.2,3c-0.9-0.1-1.9-0.3-2.9-0.8c-1-0.5-1.9-1.1-2.7-1.8c-1.9-1.7-2.8-3.6-3-5.6
					c-0.1-2,0.6-3.9,2.3-5.7c1-1.1,2.2-1.9,3.5-2.4c1.3-0.5,2.5-0.5,3.8-0.3c1.3,0.3,2.4,0.9,3.5,1.9c1.6,1.4,2.3,3.1,2.3,4.9
					c0,1.8-0.8,3.6-2.4,5.3L445.3,154.7z M441.9,145.5c-0.7,0-1.5,0.3-2.2,0.9l4.4,4c1.1-1.6,1.1-2.9-0.1-4.1
					C443.3,145.8,442.6,145.5,441.9,145.5z"/>
				<path class="st1" d="M447.5,162.7l5.3,6l-2.5,2.2l-8.9-9.9l2.3-2.1l11.4,0l-5-5.6l2.5-2.2l8.6,9.6l-2.3,2L447.5,162.7z"/>
				<path class="st1" d="M454,174.4c-0.2-1.3,0-2.6,0.6-3.8c0.6-1.2,1.5-2.3,2.8-3.2c1.3-0.9,2.6-1.5,3.9-1.7c1.3-0.2,2.6,0,3.8,0.6
					c1.2,0.6,2.3,1.5,3.2,2.8c0.9,1.3,1.5,2.6,1.7,3.9c0.2,1.3,0,2.6-0.6,3.8c-0.6,1.2-1.5,2.3-2.8,3.2c-1.3,0.9-2.6,1.5-3.9,1.7
					c-1.3,0.2-2.6,0-3.8-0.6s-2.3-1.5-3.2-2.8C454.7,177,454.1,175.7,454,174.4z M460.8,177.7c0.9,0,2-0.4,3.2-1.3
					c1.2-0.9,1.9-1.8,2.2-2.7c0.3-0.9,0.1-1.8-0.6-2.7c-0.7-0.9-1.5-1.4-2.4-1.4c-0.9,0-2,0.4-3.2,1.2c-2.4,1.7-2.9,3.5-1.5,5.4
					C459.1,177.2,459.9,177.7,460.8,177.7z"/>
				<path class="st1" d="M477,194.6l-7.9,4.6l-2.2-3.9l7.7-4.4c0.9-0.5,1.5-1.1,1.7-1.7c0.2-0.6,0.1-1.2-0.3-1.9
					c-0.5-0.9-1.2-1.4-2-1.6c-0.8-0.2-1.7,0-2.7,0.5l-7.3,4.2l-2.2-3.9l9.3-5.4c1.4-0.8,2.6-1.6,3.6-2.4l2.1,3.6l-1.9,1.4
					c1,0,2,0.3,2.8,0.8c0.8,0.5,1.5,1.2,2.1,2.2C481.5,189.9,480.6,192.5,477,194.6z"/>
				<path class="st1" d="M482.4,211.3l-4-9.1c-1.3,0.6-2,1.4-2.4,2.3c-0.3,0.9-0.2,1.9,0.3,3c0.3,0.7,0.7,1.4,1.3,2
					c0.5,0.6,1.2,1.1,1.9,1.5l-2.3,2.3c-0.8-0.4-1.6-1-2.3-1.9c-0.7-0.8-1.3-1.7-1.7-2.7c-1-2.3-1.2-4.4-0.5-6.3
					c0.7-1.9,2.1-3.3,4.3-4.3c1.4-0.6,2.8-0.9,4.1-0.8c1.3,0.1,2.6,0.5,3.6,1.3c1.1,0.8,1.9,1.8,2.5,3.1c0.9,1.9,0.9,3.7,0.2,5.4
					c-0.8,1.7-2.2,3-4.3,3.9L482.4,211.3z M482.9,201.5c-0.7-0.3-1.5-0.3-2.4-0.1l2.4,5.4c1.7-1,2.2-2.3,1.5-3.8
					C484,202.3,483.5,201.8,482.9,201.5z"/>
			</g>
		</g>
	</g>
</g>
</svg>
