<?xml version="1.0" encoding="utf-8"?>
<!-- Generator: Adobe Illustrator 21.0.0, SVG Export Plug-In . SVG Version: 6.00 Build 0)  -->
<svg version="1.1" id="Layer_1" xmlns="http://www.w3.org/2000/svg" xmlns:xlink="http://www.w3.org/1999/xlink" x="0px" y="0px"
	 viewBox="0 0 40.9 38.1" style="enable-background:new 0 0 40.9 38.1;" xml:space="preserve">
<style type="text/css">
	.st0{fill:#D1AE6C;}
</style>
<g>
	<g>
		<g>
			<path class="st0" d="M34.2,26.4c-0.2-0.1-0.4,0-0.6,0.1l-5.7,5.7c-0.2,0.2-0.2,0.4-0.1,0.6c0.1,0.2,0.3,0.3,0.5,0.3H34
				c0.3,0,0.5-0.2,0.5-0.5v-5.7C34.5,26.7,34.4,26.5,34.2,26.4z M29.5,32.1l3.9-3.9v3.9H29.5z"/>
		</g>
	</g>
	<g>
		<g>
			<path class="st0" d="M38,18c-0.2-0.1-0.4,0-0.6,0.1l-1.6,1.6V9c0-0.3-0.2-0.5-0.5-0.5h-4L32.8,7c0,0,0,0,0,0l1.4-1.4
				c0.3-0.3,0.5-0.7,0.5-1.1c0-0.4-0.2-0.8-0.5-1.1l-1.6-1.6c-0.3-0.3-0.7-0.5-1.1-0.5s-0.8,0.2-1.1,0.5l-1.4,1.4l-1.7,1.7l-3.7,3.7
				H7.2V3.3C7.2,3,7,2.7,6.7,2.7c-2.3,0-4.1,1.9-4.1,4.1v22.3c0,0,0,0.1,0,0.1c0.1,1,0.5,1.9,1.2,2.5C4.5,32.6,5.5,33,6.5,33h16
				l-3,3c-0.2,0.2-0.2,0.4-0.1,0.6c0.1,0.2,0.3,0.3,0.5,0.3h17.9c0.3,0,0.5-0.2,0.5-0.5V18.5C38.3,18.3,38.2,18.1,38,18z M31,2.4
				c0.2-0.2,0.6-0.2,0.8,0l1.6,1.6c0.2,0.2,0.2,0.6,0,0.8l-1,1L30,3.5L31,2.4z M29.2,4.2l2.4,2.4l-1,1l-2.4-2.4L29.2,4.2z
				 M37.3,24.4h-1c-0.3,0-0.5,0.2-0.5,0.5c0,0.3,0.2,0.5,0.5,0.5h1V27h-1c-0.3,0-0.5,0.2-0.5,0.5c0,0.3,0.2,0.5,0.5,0.5h1v1.6h-1
				c-0.3,0-0.5,0.2-0.5,0.5c0,0.3,0.2,0.5,0.5,0.5h1v1.6h-1c-0.3,0-0.5,0.2-0.5,0.5c0,0.3,0.2,0.5,0.5,0.5h1v2.5H21.2l5.3-5.3
				c0.2-0.2,0.2-0.5,0-0.7c0,0,0,0-0.1-0.1c-0.2-0.1-0.5-0.1-0.7,0.1l-2.1,2.1H6.5c-1.6,0-2.9-1.2-2.9-2.8c0-0.1,0-0.2,0-0.3
				c0,0,0,0,0,0c0,0,0-0.1,0-0.1c0,0,0,0,0,0c0,0,0-0.1,0-0.1c0,0,0,0,0,0c0,0,0-0.1,0-0.1c0,0,0,0,0-0.1c0,0,0-0.1,0-0.1
				c0,0,0-0.1,0-0.1c0,0,0,0,0-0.1c0,0,0-0.1,0-0.1c0,0,0,0,0,0c0,0,0-0.1,0.1-0.1c0,0,0,0,0,0c0.4-0.8,1.2-1.5,2.1-1.7c0,0,0,0,0,0
				c0,0,0.1,0,0.1,0c0,0,0,0,0,0c0,0,0.1,0,0.1,0c0,0,0,0,0,0c0,0,0.1,0,0.1,0c0,0,0,0,0,0c0.1,0,0.1,0,0.2,0c0.3,0,0.5-0.2,0.5-0.5
				v-3.8c0-0.3-0.2-0.5-0.5-0.5c-0.3,0-0.5,0.2-0.5,0.5v3.3c-0.9,0.1-1.7,0.5-2.4,1.1c-0.1,0.1-0.1,0.1-0.2,0.2V6.9
				c0-1.5,1.1-2.8,2.6-3V9v10.7v0c0,0.3,0.2,0.5,0.5,0.5c0.3,0,0.5-0.2,0.5-0.5v0V9.5h15.2l-2.9,2.9c-0.2,0.2-0.2,0.5,0,0.7
				c0.2,0.2,0.5,0.2,0.7,0l3.8-3.8l0,0l3.4-3.4L30,8.3l-0.3,0.3l0,0L19.1,19.2l-2.4-2.4l2.1-2.1c0.2-0.2,0.2-0.5,0-0.7
				c-0.2-0.2-0.5-0.2-0.7,0l-2.5,2.5c0,0,0,0,0,0c0,0,0,0,0,0c0,0,0,0,0,0c0,0,0,0,0,0c0,0,0,0,0,0c0,0,0,0,0,0c0,0,0,0,0,0
				c0,0,0,0,0,0l-1,2.9l-0.7,2c0,0,0,0.1,0,0.1h-1.7c-0.3,0-0.5,0.2-0.5,0.5c0,0.3,0.2,0.5,0.5,0.5h14.5c0.3,0,0.5-0.2,0.5-0.5
				c0-0.3-0.2-0.5-0.5-0.5H16.1l3.2-1.1c0,0,0,0,0,0c0,0,0,0,0,0c0,0,0,0,0,0c0,0,0,0,0,0c0,0,0,0,0,0c0,0,0,0,0,0c0,0,0,0,0,0
				c0,0,0,0,0,0L30.3,9.5h4.6v11.2l-7.5,7.5c-0.2,0.2-0.2,0.5,0,0.7c0,0,0,0,0,0c0.1,0.1,0.2,0.1,0.3,0.1c0.1,0,0.2,0,0.3-0.1
				c0,0,0,0,0,0c0,0,0,0,0,0l9.2-9.2V24.4z M18.1,19.7l-1.5,0.5l-1-1l0.5-1.5L18.1,19.7z"/>
		</g>
	</g>
</g>
</svg>
