<?xml version="1.0" encoding="utf-8"?>
<!-- Generator: Adobe Illustrator 21.0.0, SVG Export Plug-In . SVG Version: 6.00 Build 0)  -->
<svg version="1.1" id="Layer_1" xmlns="http://www.w3.org/2000/svg" xmlns:xlink="http://www.w3.org/1999/xlink" x="0px" y="0px"
	 viewBox="0 0 652.9 545.2" style="enable-background:new 0 0 652.9 545.2;" xml:space="preserve">
<style type="text/css">
	.st0{filter:url(#Adobe_OpacityMaskFilter);}
	.st1{filter:url(#Adobe_OpacityMaskFilter_1_);}
	.st2{mask:url(#SVGID_1_);fill:url(#SVGID_2_);}
	.st3{fill:#E2E2E2;}
	.st4{fill:#B0B1B2;}
	.st5{fill:#D1AA67;}
	.st6{fill:#F2E1C7;}
	.st7{fill:#07090A;}
	.st8{fill:#33393A;}
	.st9{fill:#2C1E1E;}
	.st10{fill:#999999;}
	.st11{fill:#9CC6DB;}
	.st12{fill:#A0753C;}
	.st13{fill:#BC9153;}
</style>
<g>
	<defs>
		<filter id="Adobe_OpacityMaskFilter" filterUnits="userSpaceOnUse" x="59.8" y="442" width="173.1" height="58.1">
			<feFlood  style="flood-color:white;flood-opacity:1" result="back"/>
			<feBlend  in="SourceGraphic" in2="back" mode="normal"/>
		</filter>
	</defs>
	<mask maskUnits="userSpaceOnUse" x="59.8" y="442" width="173.1" height="58.1" id="SVGID_1_">
		<g class="st0">
			<defs>
				<filter id="Adobe_OpacityMaskFilter_1_" filterUnits="userSpaceOnUse" x="59.8" y="442" width="173.1" height="58.1">
					<feFlood  style="flood-color:white;flood-opacity:1" result="back"/>
					<feBlend  in="SourceGraphic" in2="back" mode="normal"/>
				</filter>
			</defs>
			<mask maskUnits="userSpaceOnUse" x="59.8" y="442" width="173.1" height="58.1" id="SVGID_1_">
				<g class="st1">
				</g>
			</mask>
			<linearGradient id="SVGID_2_" gradientUnits="userSpaceOnUse" x1="146.3342" y1="283.1871" x2="146.3342" y2="721.9581">
				<stop  offset="0" style="stop-color:#FFFFFF"/>
				<stop  offset="1" style="stop-color:#000000"/>
			</linearGradient>
			<ellipse class="st2" cx="146.3" cy="471.1" rx="86.5" ry="29.1"/>
		</g>
	</mask>
	<g>
		<ellipse class="st3" cx="146.3" cy="471.1" rx="86.5" ry="29.1"/>
	</g>
	<g>
		<g>
			<g>
				<path class="st4" d="M560.8,321.4H163.6V69.1h397.2V321.4z M165,320h394.4V70.5H165V320z"/>
			</g>
		</g>
		<g>
			<g>
				<rect x="164.3" y="278.2" class="st4" width="395.8" height="1.4"/>
			</g>
		</g>
		<g>
			<g>
				<rect x="164.3" y="236.4" class="st4" width="395.8" height="1.4"/>
			</g>
		</g>
		<g>
			<g>
				<rect x="164.3" y="194.6" class="st4" width="395.8" height="1.4"/>
			</g>
		</g>
		<g>
			<g>
				<rect x="164.3" y="152.7" class="st4" width="395.8" height="1.4"/>
			</g>
		</g>
		<g>
			<g>
				<rect x="164.3" y="110.9" class="st4" width="395.8" height="1.4"/>
			</g>
		</g>
		<g>
			<g>
				<rect x="493.5" y="69.8" class="st4" width="1.4" height="250.9"/>
			</g>
		</g>
		<g>
			<g>
				<rect x="427.5" y="69.8" class="st4" width="1.4" height="250.9"/>
			</g>
		</g>
		<g>
			<g>
				<rect x="361.5" y="69.8" class="st4" width="1.4" height="250.9"/>
			</g>
		</g>
		<g>
			<g>
				<rect x="295.6" y="69.8" class="st4" width="1.4" height="250.9"/>
			</g>
		</g>
		<g>
			<g>
				<rect x="229.6" y="69.8" class="st4" width="1.4" height="250.9"/>
			</g>
		</g>
	</g>
	<g>
		<path class="st5" d="M546.5,298.8l-14.2-41.3l-7.1,6.2l-65.2-94.9L424.2,188l-47.1-84.2L317,151.2l-36.1-71.1l-36.5,46.7
			l-30.8-54.5l-39.8,28.3l5.4,8l31.4-22.3l32.6,57.7l36-46.2l34.6,68.2l60.5-47.7l46.3,82.7l36.4-19.6l60.9,88.6l-7.1,6.2
			L546.5,298.8z"/>
	</g>
	<g>
		<polygon class="st5" points="570.5,318 570.5,324.9 158.6,324.9 158.6,68.4 165.6,68.4 154.5,45.1 143.6,68.4 150.2,68.4 
			150.2,333.1 154.6,333.1 154.6,333.5 570.5,333.5 570.5,340.8 593.1,329.3 		"/>
	</g>
	<g>
		<path class="st6" d="M187.4,143.4c0,0,1.3,10.9,0,10.9c-1.3,0-11.6-0.3-12-0.9c-0.4-0.6-3.6-12.4-3.6-12.4l3.5-13L187.4,143.4z"/>
	</g>
	<g>
		<polygon class="st6" points="160.3,170.4 152.8,179.8 135.2,170 145,153.5 		"/>
	</g>
	<g>
		<path class="st7" d="M124.3,446.6c0.1-0.8,0.3-1.5,0.7-2.2c0.5-0.8,1.5-1.2,2.4-1.6c2.4-1,4.8-2.1,7.4-1.9
			c2.6,0.1,5.2,1.8,5.6,4.4c0.1,0.9,0,1.7,0,2.6c0.1,3.1,2.5,5.7,4.9,7.7c5.8,4.7,12.7,8,19.9,9.5c1.7,0.3,5.8,0.6,6.5,2.5
			c0.4,1.1,0,2-0.7,2.8c-15.1,2.6-31.4-2.9-46.2-8.6c-1.3-3-1.3-6.5-1-9.8C123.8,450.2,124,448.4,124.3,446.6z"/>
	</g>
	<g>
		<path class="st8" d="M170.9,470.4c-1.8,1.8-6,2.8-7.8,2.9c-3.1,0.1-6.1-0.7-9-1.5c-3.9-1-7.7-2.1-11.7-2.5c-5-0.6-11.2,0-15.1-3.7
			c-1.2-1.1-2-2.4-2.6-3.8C139.5,467.5,155.8,473,170.9,470.4z"/>
	</g>
	<g>
		<path class="st6" d="M167,123.9c2.5,1,5.3,1.5,7.4,3.3c2.9,2.4,2.7,5.4,4.1,8.6c0.2,0.4,0.4,0.8,0.4,1.3c0.1,0.8-0.4,1.5-0.7,2.2
			c-2.4,4.5-3.1,9-4,13.8c-1.3,6.7-5.6,12-9.7,17.3c-5,6.4-13.3,0.4-18.3-3c-0.8-0.5-1.5-1.1-2.2-1.7c-10.5-9.2-12.4-30.9-2.2-41
			C149.2,117.7,158.8,120.7,167,123.9z"/>
	</g>
	<g>
		<path class="st9" d="M130.7,118.8c0.9-0.7,2-0.6,3.1-1c0.9-0.3,1.7-1,2-1.9c0.5-1.3-0.3-2.9-0.8-4.1c-0.7-1.4-1.8-2.7-1.9-4.3
			c2.6,1.4,5.3,2.8,7.9,4.1c0.8,0.4,1.6,0.8,2.5,1c0.8,0.1,1.6,0,2.4-0.2c3.8-0.9,7.4-3.2,9.8-6.3c0.3,2.1-0.1,4.4-1.2,6.3
			c2-1.6,5.4-2.4,7.7-3.6c-0.3,1.7-1,3.2-2.2,4.5c3.3,1,6.8,1.1,10.1,2c2.5,0.7,5.1,1.9,6.6,4.1c-2.6-0.2-5.2-0.5-7.7-0.9
			c6.5,4,12.9,10,15,17.5l-7.6-2.3c0,0-7.1-5.3-12.1-3.2c-5,2.1-8.5,6.4-8.5,6.4s-4-0.7-5.4,5.7c-2.1-1.8-8.7-8.1-9.4,3.4
			c0.8,5.5,2.9,9,3.3,8.7c-2.9,2.5-5.5-1.2-6.3,2.3c-0.8,3.4-6.5-10.1-6.5-10.1c0-4,0-8,0-12.1c0-2.5,0.9-4.3,1.2-6.7
			c0.4-2.8-0.9-6-2-8.6c-0.1-0.2-0.1-0.3-0.1-0.5C130.6,119,130.7,118.9,130.7,118.8z"/>
	</g>
	<g>
		<path class="st10" d="M187.4,143.4c0.2-0.3,1.8,1.1,3.8,2.9c-3.1,4.9-8,8.5-13.4,10.7c-1.2-1.7-2.3-3.4-3.5-5.2
			C174.4,151.9,183.1,148.8,187.4,143.4z"/>
	</g>
	<g>
		<path class="st4" d="M187.7,177.5c-0.6-0.8-1.2-1.7-1.8-2.5c1.8,0.5,3.5,1,5.3,1.6c-4.1-6.6-8.8-13-13.2-19.4
			c5.3-2.2,10.2-5.8,13.4-10.7c3.2,2.9,7.3,7.1,7.9,7.8c3.2,4,5.5,8.8,6.8,13.6c0.2-1.1,0.4-2.3,0.6-3.4c-0.1,0.7,2.6,5.5,3.1,6.6
			c1.4,2.9,3.3,5.5,4.9,8.2c0.3,0.5,0.6,1.1,0.5,1.6c-0.1,0.5-0.4,0.9-0.6,1.2c-3.6,4.7-5.6,7.7-10.8,10.5
			c-4.7,2.5-9.3,5.1-13.9,7.9c-5.9,3.5-11.7,7.1-17.4,10.8l-9.3-29.1c0,0,9.2-3.2,9.7-3.4C177.7,177.1,182.9,174,187.7,177.5z"/>
	</g>
	<g>
		<path class="st10" d="M130.8,166.5l-25.9,31.5c1.1,3.5,1.9,7.2,3.3,10.6c0.3,0.7,0.5,1.4,0.7,2.1c6.5,1.9,13.4,2.2,19.6-1.3
			c10.5-5.5,15.8-17.1,14.2-27.8l0,0v0v0c3.1-0.8,6.4-1.1,9.8-0.9c3,2.3,4.7,5.8,5.9,8.8c7.5,16.8,8.8,37.9,16.5,54.9
			c2.1-40.5-8-60.7-8-60.7l-0.5-0.6l-6.5-8.6l-11.1,0.4l-11.4-5.1L130.8,166.5z M155.4,180.7c0.8,0.1,1.6,0.2,2.3,0.3
			C156.9,180.9,156.2,180.8,155.4,180.7z M152.9,180.5c0.6,0,1.2,0.1,1.8,0.1C154.1,180.6,153.5,180.5,152.9,180.5z"/>
	</g>
	<g>
		<polygon class="st11" points="142.7,181.4 142.7,181.4 142.7,181.4 		"/>
	</g>
	<g>
		<path class="st4" d="M128.5,209.3c10.5-5.5,15.8-17.1,14.2-27.8c3.1-0.8,6.4-1.1,9.8-1c3,2.3,4.8,5.8,6,8.8
			c7.5,16.8,8.8,37.9,16.5,54.9c-0.2,3.5-0.4,7.2-0.8,11c-7.2,1.1-51.2,0-51.5,0c-0.9,0-3.8-19.1-4.2-20.7c-0.1,1.2-0.6,2.4-1.2,3.4
			c-1.6-4.9-3.3-9.8-4.9-14.7c-1.4-4.2-2.1-8.5-3.4-12.6C115.4,212.5,122.4,212.8,128.5,209.3z"/>
	</g>
	<g>
		<path class="st5" d="M163.5,181.4c0.4-0.6,0.6-1.1,0.7-1.7c0.9,1.2,1.6,2.1,1.6,2.1c3,4.1,13.6,21.3,14.7,24.9
			c1.4,4.7,10.3,24.9,13.7,30.2c0.3,0.4-1.5,18.7-3.4,20.6l-14.5-15.7c0,0-14.5-55.6-15.6-58.2l-0.4-0.4
			C161.5,183.2,162.7,182.8,163.5,181.4z"/>
	</g>
	<g>
		<path class="st5" d="M158.6,173.5c1.6,0.7,2.5,2,2.7,2.4c0.9,1.3,1.9,2.5,2.8,3.8c-0.1,0.6-0.3,1.1-0.7,1.7
			c-0.8,1.4-2,1.8-3.2,1.7c-1-0.3-3-1.2-4.8-3.1c-2-2.1-2.6-4.4-2.9-5.5c0.6-0.4,1.1-0.8,1.7-1.2
			C154.7,173.2,156.6,172.6,158.6,173.5z"/>
	</g>
	<g>
		<path class="st10" d="M142.2,166.1c-1.5,2.5-3.8,4.6-6.4,6.3c-3.1-1.3-5.4-2.3-5.5-2.3c-0.5,0,1.1-10.5,1.1-10.5L142.2,166.1z"/>
	</g>
	<g>
		<path class="st4" d="M142.2,166.1l12,7.2l-1.4,6.5c0,0-10.3-4.6-16.9-7.4C138.4,170.7,140.7,168.6,142.2,166.1z"/>
	</g>
	<g>
		<path class="st6" d="M133.8,116.3c0,0,1.2-0.9,1.5-0.8c0.3,0.1,0.9,1.2,0.9,1.2l-1.3,7.7v7.2l0.9-8.9l1.3-7.9l1.1-0.7
			c0,0,1.8,0.7,1.7,0.7c-0.1,0-1.2,8.5-1.2,8.5v8.7l1.7-8.4l6.5-4.5l0.9-0.1l1,1.4l-5.1,4.8l-0.4,7.9l4.5-6.4l5.1-4.6l1.5,0.2
			c0,0,0.1,0.8,0,1.3c-0.1,0.5-4.8,6-4.8,6l-1.5,4l-0.8,9.5l-2.3,8.6l-15-1.5l0.1-15.2l-0.1-8.4L133.8,116.3z"/>
	</g>
	<g>
		<path class="st10" d="M131.2,145.3c1.4,0.6,2.8,1.1,4.1,1.7c2.8,1.1,5.8,2.1,8.6,3.4c0.9,0.5,1.8,1,2.7,1.5
			c-0.5,2.1-1.3,4.1-2.3,6c-6.3-3.5-12.9-5.9-19.2-8.7c1.8-1.7,4.7-4.2,5.1-4.1C130.2,145.1,130.6,145.1,131.2,145.3z"/>
	</g>
	<g>
		<path class="st4" d="M97.5,173.3c7.4-5.6,14-12.2,21-18.5c0,0.9-0.1,1.8-0.1,2.6c2.1-2.1,2.8-5.3,5.2-7c0.2-0.1,0.8-0.7,1.5-1.4
			c6.4,2.8,13,5.2,19.2,8.7c-1,1.8-2.1,3.5-3.2,4.7c-1.6,1.7-4,5-5.7,6.6c-1.5,1.5-2.8,4.1-5.2,4.1c-1.2,0-2.4-0.5-3.5-0.9
			c0.9,1.6,1.9,3.1,2.8,4.7c-1.7-0.3-3.4-0.9-5-1.6c1.1,1.4,2.1,2.9,3.2,4.3c-0.9,0.2-1.9-0.1-2.7-0.6c3,2.3,4.8,5.6,6.3,8.9
			c0.8,1.8,1.5,3.8,2.2,5.6c1.1,2.8-0.2,3.2-1.8,5.2c-3.3,4.2-3,7.8-8.6,9.5c-6.7,2-17.3,0.5-19.8-7.3c-1.7-5.5-5.3-11.6-5.4-17.4
			c0.9,1,1.8,1.9,2.8,2.9C100.5,185.2,97,173.7,97.5,173.3z"/>
	</g>
	<g>
		<path d="M116.2,451.9c1.8-1.3,19.3-3.1,19.5-1.9c0.3,1.8,0.7,3.6,1,5.4c0.2,0.9,0.3,1.8,0.5,2.7c0.5,2.8,1,5.6,2,8.3
			c3,8.5,14.8,16.7,22.9,21c0.8,0.4,1.8,1.3,1.4,2.1c-0.2,0.3-0.5,0.5-0.8,0.6c-0.7,0.3-1.4,0.6-2.2,0.9c-14.5,1.3-29.8-4.7-38.7-18
			c-1.3-2-4.5-3.1-7.6-3.6C111.4,463.8,111.9,455,116.2,451.9z"/>
	</g>
	<g>
		<path class="st8" d="M121.8,473c8.9,13.3,24.3,19.3,38.7,18c-6.7,2.2-17.6,1.4-22.9-1.9c-3.5-2.2-6.5-4.9-9.4-7.8
			c-2.4-2.4-4.7-6.4-8.2-7c-0.6-0.1-1.2-0.1-1.7-0.4c-1.7-0.9-3.1-2.5-4.1-4.4C117.3,469.9,120.5,471,121.8,473z"/>
	</g>
	<g>
		<path class="st12" d="M131.4,304.5l-8.3-43.5l45.5,1.6c-0.1-0.3-0.1-0.6-0.2-0.9l5.6,0.2c0,0,3.6,55.3,3.6,56.3
			c0,10.7-3.3,21.7-5.4,32.1c-0.9-1.2-1.6-2.6-1.8-4.1c0.2,4.9,0.4,9.8,0.6,14.6c0,1.2,0.1,2.4-0.2,3.6c-0.3,1.3-1,2.4-1.6,3.6
			c-3.8,6.9-4.3,13.9-6.9,21.1c-2.8,7.8-5.7,15.6-8.5,23.4c-4.4,12.1-8.8,24.2-13.2,36.3h-3.3c-0.1,0.3-0.1,0.6-0.2,0.9h-21.9
			c3.7-16.5,25.9-90.7,25.5-91.5C140.3,357.2,131.4,304.5,131.4,304.5z"/>
	</g>
	<g>
		<path class="st13" d="M124.3,372.8c-2.1-11.5-3.7-23.8-3.9-35.5c-0.2-8.5-0.3-17-0.5-25.5c0.9,0.6,1.8,1.2,2.7,1.8
			c-4.8-10.1-4.5-21.7-5.1-32.6l5.9-25.3l2.1,0.1l4.4,0.3l12.5,0.9l24.8,1.7l7,0.5l-5,39.6l-17.8,70.6l-12.8,85.6l-2.5-0.2
			l-16.7-1.5l-4.7-0.4c0-13.1,0-26.2,0-39.3c0-15.2,1.9-30.5,6.6-44.9C122.7,369.5,123.8,371,124.3,372.8z"/>
	</g>
	<g>
		<path class="st5" d="M124.3,372.8c-2.1-11.5-3.7-23.8-3.9-35.5c-0.2-8.5-0.3-17-0.5-25.5c0.9,0.6,1.8,1.2,2.7,1.8
			c-4.8-10.1-4.5-21.7-5.1-32.6l5.9-25.3l2.1,0.1c-5.6,22.2-2,43.8,4.5,65.5c-2.1-0.7-5-2.1-5-1.4c-4.3,20,9.3,40.7,1.4,57.8
			c-1.4,2.1-5.7,11.4-5.7,16.4c1.1,20-1.4,39.5-1.3,59.3l-4.7-0.4c0-13.1,0-26.2,0-39.3c0-15.2,1.9-30.5,6.6-44.9
			C122.7,369.5,123.8,371,124.3,372.8z"/>
	</g>
	<g>
		<path class="st12" d="M142.4,256.9c-3.7,10.5-11.3,32-12.2,32.5c-0.8,0.5-0.5-19.8-0.3-33.4L142.4,256.9z"/>
	</g>
	<g>
		<polygon class="st12" points="174.2,255.6 174.2,262.7 121.8,262.2 122.6,255.1 		"/>
	</g>
	<g>
		<polygon class="st9" points="164.7,145.1 159,137 166.6,142.2 		"/>
	</g>
	<g>
		<polygon class="st9" points="175.8,145.9 171.8,147.6 171.8,145.1 176.5,143.4 		"/>
	</g>
	<g>
		<polygon class="st9" points="168.2,161.7 169.8,163.5 168.1,165.9 166.6,162.8 160.3,161.7 150.5,166.1 150.5,163.5 162.8,159.5 
					"/>
	</g>
	<g>
		<polygon class="st9" points="152.5,166.6 159,170.8 161.4,171.1 166.6,167.9 161.9,173.4 157.9,174.7 146.3,167.5 150.5,163.5 		
			"/>
	</g>
	<g>
		<path class="st5" d="M185.3,360.8v-16h4.2v16H185.3z"/>
		<path class="st5" d="M202.8,350.3c0.7,0.8,1,2,1,3.7v6.8h-4.1v-6.6c0-0.7-0.1-1.2-0.4-1.5c-0.2-0.3-0.6-0.5-1.1-0.5
			c-0.6,0-1.1,0.2-1.5,0.6s-0.6,1-0.6,1.6v6.4h-4.1v-8.1c0-1.2-0.1-2.3-0.2-3.3h3.8l0.2,1.7c0.4-0.6,1-1.1,1.6-1.5
			c0.6-0.3,1.4-0.5,2.2-0.5C201.1,349.1,202.1,349.5,202.8,350.3z"/>
		<path class="st5" d="M205.3,359.6l1-2.8c0.6,0.4,1.3,0.7,2.1,1c0.8,0.2,1.5,0.3,2.3,0.3c0.5,0,0.8-0.1,1.1-0.2s0.4-0.3,0.4-0.6
			c0-0.2-0.1-0.4-0.3-0.5s-0.5-0.2-1.1-0.3l-1.8-0.4c-1.2-0.2-2-0.6-2.5-1.1c-0.5-0.5-0.8-1.2-0.8-2.1c0-0.7,0.2-1.4,0.7-2
			c0.4-0.6,1-1,1.8-1.3c0.8-0.3,1.7-0.5,2.7-0.5c0.8,0,1.6,0.1,2.4,0.4c0.8,0.2,1.5,0.6,2.2,1l-1.1,2.7c-0.6-0.4-1.2-0.7-1.8-0.9
			c-0.6-0.2-1.2-0.3-1.8-0.3c-0.4,0-0.8,0.1-1.1,0.2c-0.3,0.1-0.4,0.3-0.4,0.6c0,0.2,0.1,0.3,0.2,0.4c0.1,0.1,0.4,0.2,0.9,0.3
			l1.9,0.4c1.2,0.3,2.1,0.7,2.6,1.2c0.5,0.5,0.8,1.3,0.8,2.2c0,1.1-0.4,2-1.3,2.6c-0.9,0.6-2.1,1-3.7,1
			C208.5,361,206.7,360.5,205.3,359.6z"/>
		<path class="st5" d="M219.9,360.3c-0.9-0.5-1.7-1.2-2.2-2.1c-0.5-0.9-0.8-2-0.8-3.2c0-1.2,0.3-2.3,0.8-3.2
			c0.5-0.9,1.2-1.6,2.2-2.1c0.9-0.5,2.1-0.7,3.3-0.7c1.3,0,2.4,0.2,3.3,0.7c0.9,0.5,1.7,1.2,2.2,2.1c0.5,0.9,0.8,1.9,0.8,3.2
			c0,1.2-0.3,2.3-0.8,3.2c-0.5,0.9-1.2,1.6-2.2,2.1s-2,0.7-3.3,0.7C222,361,220.9,360.7,219.9,360.3z M225.5,355
			c0-1-0.2-1.7-0.5-2.2c-0.4-0.5-0.9-0.7-1.7-0.7c-0.7,0-1.3,0.2-1.7,0.7c-0.4,0.5-0.6,1.2-0.6,2.2c0,1,0.2,1.7,0.6,2.2
			c0.4,0.5,0.9,0.7,1.7,0.7C224.7,358,225.5,357,225.5,355z"/>
		<path class="st5" d="M231.4,360.8v-16.5h4.1v16.5H231.4z"/>
		<path class="st5" d="M245.7,349.4h4l-5.1,11.4h-3.3l-5-11.4h4.2l2.6,6.6L245.7,349.4z"/>
		<path class="st5" d="M260.7,355.5h-7.2c0.1,0.9,0.3,1.5,0.8,1.9c0.4,0.4,1.1,0.6,1.9,0.6c0.6,0,1.1-0.1,1.7-0.3
			c0.6-0.2,1.1-0.4,1.5-0.8l1,2.7c-0.6,0.4-1.3,0.7-2.1,1s-1.6,0.4-2.4,0.4c-1.3,0-2.4-0.2-3.4-0.7c-1-0.5-1.7-1.2-2.2-2.1
			c-0.5-0.9-0.8-1.9-0.8-3.2c0-1.2,0.2-2.2,0.7-3.1c0.5-0.9,1.2-1.6,2-2.1c0.9-0.5,1.8-0.8,3-0.8c1.1,0,2,0.2,2.8,0.7
			c0.8,0.5,1.4,1.2,1.9,2.1c0.4,0.9,0.7,1.9,0.7,3.1V355.5z M253.6,353.6h3.6c-0.1-1.2-0.7-1.8-1.8-1.8
			C254.5,351.9,253.8,352.5,253.6,353.6z"/>
		<path class="st5" d="M273.3,350.3c0.7,0.8,1,2,1,3.7v6.8h-4.1v-6.6c0-0.7-0.1-1.2-0.4-1.5c-0.2-0.3-0.6-0.5-1.1-0.5
			c-0.6,0-1.1,0.2-1.5,0.6s-0.6,1-0.6,1.6v6.4h-4.1v-8.1c0-1.2-0.1-2.3-0.2-3.3h3.8l0.2,1.7c0.4-0.6,1-1.1,1.6-1.5
			c0.6-0.3,1.4-0.5,2.2-0.5C271.6,349.1,272.6,349.5,273.3,350.3z"/>
		<path class="st5" d="M277.7,359.4c-1.1-1-1.6-2.5-1.6-4.3c0-1.2,0.3-2.3,0.8-3.2c0.5-0.9,1.3-1.6,2.2-2.1c1-0.5,2.1-0.8,3.3-0.8
			c0.8,0,1.7,0.1,2.5,0.4c0.8,0.2,1.5,0.6,1.9,1l-1,2.8c-0.4-0.3-0.9-0.6-1.4-0.8c-0.5-0.2-1.1-0.3-1.5-0.3c-0.8,0-1.5,0.2-1.9,0.7
			c-0.4,0.5-0.7,1.2-0.7,2.1c0,1,0.2,1.7,0.7,2.2c0.4,0.5,1.1,0.7,2,0.7c0.5,0,1-0.1,1.5-0.3c0.5-0.2,1-0.5,1.4-0.8l1,2.8
			c-0.5,0.4-1.1,0.8-2,1c-0.8,0.2-1.7,0.4-2.6,0.4C280.3,361,278.8,360.5,277.7,359.4z"/>
		<path class="st5" d="M300,349.4l-5.2,11.8c-0.7,1.5-1.6,2.7-2.6,3.4c-1,0.7-2.3,1.2-3.9,1.3l-0.9-3.1c1-0.2,1.8-0.5,2.4-0.8
			c0.5-0.3,0.9-0.8,1.2-1.4l0.3-0.6l-4.6-10.6h4.2l2.6,6.6l2.6-6.6H300z"/>
		<path class="st5" d="M319.2,349.4v11.4h-4v-1.5c-0.3,0.5-0.8,1-1.4,1.3c-0.6,0.3-1.3,0.5-2.1,0.5c-1,0-1.8-0.2-2.6-0.7
			c-0.8-0.5-1.4-1.2-1.8-2.1c-0.4-0.9-0.6-1.9-0.6-3.1c0-1.2,0.2-2.2,0.7-3.1c0.4-0.9,1-1.6,1.8-2.1c0.8-0.5,1.6-0.8,2.6-0.8
			c0.7,0,1.4,0.2,2.1,0.5s1.1,0.8,1.4,1.3v-1.5H319.2z M314.7,357.2c0.4-0.5,0.6-1.2,0.6-2.1c0-0.9-0.2-1.7-0.6-2.2
			c-0.4-0.5-0.9-0.8-1.7-0.8c-0.7,0-1.3,0.3-1.7,0.8c-0.4,0.5-0.6,1.2-0.6,2.2c0,0.9,0.2,1.6,0.6,2.1c0.4,0.5,1,0.7,1.7,0.7
			C313.7,358,314.3,357.7,314.7,357.2z"/>
		<path class="st5" d="M332.3,350.3c0.7,0.8,1,2,1,3.7v6.8h-4.1v-6.6c0-0.7-0.1-1.2-0.4-1.5s-0.6-0.5-1.1-0.5
			c-0.6,0-1.1,0.2-1.5,0.6s-0.6,1-0.6,1.6v6.4h-4.1v-8.1c0-1.2-0.1-2.3-0.2-3.3h3.8l0.2,1.7c0.4-0.6,1-1.1,1.6-1.5s1.4-0.5,2.2-0.5
			C330.6,349.1,331.7,349.5,332.3,350.3z"/>
		<path class="st5" d="M347.7,344.3v16.5h-4v-1.5c-0.3,0.5-0.8,1-1.4,1.3c-0.6,0.3-1.3,0.5-2.1,0.5c-1,0-1.8-0.3-2.6-0.8
			c-0.8-0.5-1.4-1.2-1.8-2.1c-0.4-0.9-0.6-1.9-0.6-3.1c0-1.2,0.2-2.2,0.6-3.1c0.4-0.9,1-1.6,1.8-2.1c0.8-0.5,1.6-0.7,2.6-0.7
			c0.7,0,1.4,0.1,2,0.4s1.1,0.7,1.4,1.2v-6.5H347.7z M343.1,357.2c0.4-0.5,0.6-1.2,0.6-2.2c0-0.9-0.2-1.6-0.6-2.1
			c-0.4-0.5-0.9-0.8-1.6-0.8c-0.7,0-1.3,0.2-1.7,0.7c-0.4,0.5-0.6,1.2-0.6,2.1c0,0.9,0.2,1.7,0.6,2.2c0.4,0.5,1,0.8,1.7,0.8
			C342.2,358,342.7,357.7,343.1,357.2z"/>
		<path class="st5" d="M370.7,360.8h-4.5l-2.1-5.3c-0.2-0.6-0.8-0.9-1.7-0.9H361v6.2h-4.2v-16h7.4c1.9,0,3.4,0.4,4.4,1.2
			c1,0.8,1.5,2,1.5,3.6c0,1.1-0.3,2-0.9,2.8s-1.4,1.3-2.4,1.7c0.4,0.1,0.9,0.3,1.2,0.6s0.6,0.8,0.9,1.3L370.7,360.8z M365.6,351
			c0.4-0.3,0.6-0.7,0.6-1.3c0-0.6-0.2-1.1-0.6-1.3c-0.4-0.3-1.1-0.4-2-0.4H361v3.4h2.6C364.5,351.4,365.2,351.3,365.6,351z"/>
		<path class="st5" d="M383.2,355.5H376c0.1,0.9,0.3,1.5,0.8,1.9c0.4,0.4,1.1,0.6,1.9,0.6c0.6,0,1.1-0.1,1.7-0.3
			c0.6-0.2,1.1-0.4,1.5-0.8l1,2.7c-0.6,0.4-1.3,0.7-2.1,1c-0.8,0.2-1.6,0.4-2.4,0.4c-1.3,0-2.4-0.2-3.4-0.7s-1.7-1.2-2.2-2.1
			c-0.5-0.9-0.8-1.9-0.8-3.2c0-1.2,0.2-2.2,0.7-3.1c0.5-0.9,1.2-1.6,2-2.1c0.9-0.5,1.8-0.8,3-0.8c1.1,0,2,0.2,2.8,0.7
			c0.8,0.5,1.4,1.2,1.9,2.1c0.4,0.9,0.7,1.9,0.7,3.1V355.5z M376.1,353.6h3.6c-0.1-1.2-0.7-1.8-1.8-1.8
			C376.9,351.9,376.3,352.5,376.1,353.6z"/>
		<path class="st5" d="M384.3,359.6l1-2.8c0.6,0.4,1.3,0.7,2.1,1s1.5,0.3,2.3,0.3c0.5,0,0.8-0.1,1.1-0.2c0.3-0.1,0.4-0.3,0.4-0.6
			c0-0.2-0.1-0.4-0.3-0.5s-0.5-0.2-1.1-0.3l-1.8-0.4c-1.2-0.2-2-0.6-2.5-1.1c-0.5-0.5-0.8-1.2-0.8-2.1c0-0.7,0.2-1.4,0.7-2
			c0.4-0.6,1-1,1.8-1.3c0.8-0.3,1.7-0.5,2.7-0.5c0.8,0,1.6,0.1,2.4,0.4s1.5,0.6,2.2,1l-1.1,2.7c-0.6-0.4-1.2-0.7-1.8-0.9
			c-0.6-0.2-1.2-0.3-1.8-0.3c-0.4,0-0.8,0.1-1.1,0.2c-0.3,0.1-0.4,0.3-0.4,0.6c0,0.2,0.1,0.3,0.2,0.4c0.1,0.1,0.4,0.2,0.9,0.3
			l1.9,0.4c1.2,0.3,2.1,0.7,2.6,1.2c0.5,0.5,0.8,1.3,0.8,2.2c0,1.1-0.4,2-1.3,2.6s-2.1,1-3.7,1C387.4,361,385.6,360.5,384.3,359.6z"
			/>
		<path class="st5" d="M404.1,357.6v3.1c-0.6,0.2-1.3,0.3-2.1,0.3c-1.5,0-2.7-0.4-3.5-1.3c-0.8-0.9-1.2-2.1-1.2-3.6v-3.7h-2.1v-3
			h2.1v-2.6l4.1-1.3v3.9h2.7v3h-2.7v3.7c0,0.5,0.2,0.9,0.5,1.2c0.3,0.3,0.7,0.4,1.2,0.4C403.3,357.7,403.7,357.7,404.1,357.6z"/>
		<path class="st5" d="M414.2,349.4v3.7c-0.6-0.3-1.3-0.4-1.9-0.4c-1.7,0-2.6,0.8-2.6,2.4v5.7h-4.1v-8.1c0-1.2-0.1-2.3-0.2-3.3h3.8
			l0.2,1.9c0.3-0.7,0.7-1.2,1.3-1.6c0.6-0.4,1.3-0.6,2-0.6C413.4,349.1,413.9,349.2,414.2,349.4z"/>
		<path class="st5" d="M426.8,349.4v11.4h-4v-1.5c-0.7,1.1-1.8,1.7-3.3,1.7c-1.5,0-2.5-0.4-3.2-1.2s-1.1-2-1.1-3.7v-6.7h4.1v6.8
			c0,1.1,0.5,1.7,1.5,1.7c0.6,0,1-0.2,1.4-0.6c0.4-0.4,0.5-0.9,0.5-1.6v-6.2H426.8z"/>
		<path class="st5" d="M430.3,359.4c-1.1-1-1.6-2.5-1.6-4.3c0-1.2,0.3-2.3,0.8-3.2c0.5-0.9,1.3-1.6,2.2-2.1c1-0.5,2.1-0.8,3.3-0.8
			c0.8,0,1.7,0.1,2.5,0.4c0.8,0.2,1.5,0.6,1.9,1l-1,2.8c-0.4-0.3-0.9-0.6-1.4-0.8c-0.5-0.2-1.1-0.3-1.5-0.3c-0.8,0-1.5,0.2-1.9,0.7
			c-0.4,0.5-0.7,1.2-0.7,2.1c0,1,0.2,1.7,0.7,2.2c0.4,0.5,1.1,0.7,2,0.7c0.5,0,1-0.1,1.5-0.3c0.5-0.2,1-0.5,1.4-0.8l1,2.8
			c-0.5,0.4-1.1,0.8-2,1s-1.7,0.4-2.6,0.4C432.9,361,431.4,360.5,430.3,359.4z"/>
		<path class="st5" d="M448.7,357.6v3.1c-0.6,0.2-1.3,0.3-2.1,0.3c-1.5,0-2.7-0.4-3.5-1.3c-0.8-0.9-1.2-2.1-1.2-3.6v-3.7h-2.1v-3
			h2.1v-2.6l4.1-1.3v3.9h2.7v3H446v3.7c0,0.5,0.2,0.9,0.5,1.2c0.3,0.3,0.7,0.4,1.2,0.4C447.9,357.7,448.3,357.7,448.7,357.6z"/>
		<path class="st5" d="M461.7,349.4v11.4h-4v-1.5c-0.7,1.1-1.8,1.7-3.3,1.7c-1.5,0-2.5-0.4-3.2-1.2s-1.1-2-1.1-3.7v-6.7h4.1v6.8
			c0,1.1,0.5,1.7,1.5,1.7c0.6,0,1-0.2,1.4-0.6c0.4-0.4,0.5-0.9,0.5-1.6v-6.2H461.7z"/>
		<path class="st5" d="M472.6,349.4v3.7c-0.6-0.3-1.3-0.4-1.9-0.4c-1.7,0-2.6,0.8-2.6,2.4v5.7h-4.1v-8.1c0-1.2-0.1-2.3-0.2-3.3h3.8
			l0.2,1.9c0.3-0.7,0.7-1.2,1.3-1.6c0.6-0.4,1.3-0.6,2-0.6C471.9,349.1,472.3,349.2,472.6,349.4z"/>
		<path class="st5" d="M473.7,343.8h4.2v3.7h-4.2V343.8z M473.8,360.8v-11.4h4.1v11.4H473.8z"/>
		<path class="st5" d="M490.9,350.3c0.7,0.8,1,2,1,3.7v6.8h-4.1v-6.6c0-0.7-0.1-1.2-0.4-1.5s-0.6-0.5-1.1-0.5
			c-0.6,0-1.1,0.2-1.5,0.6s-0.6,1-0.6,1.6v6.4h-4.1v-8.1c0-1.2-0.1-2.3-0.2-3.3h3.8l0.2,1.7c0.4-0.6,1-1.1,1.6-1.5s1.4-0.5,2.2-0.5
			C489.3,349.1,490.3,349.5,490.9,350.3z"/>
		<path class="st5" d="M506.5,349.4v10.7c0,1.9-0.6,3.3-1.7,4.3c-1.1,1-2.8,1.5-4.9,1.5c-1.9,0-3.5-0.3-4.8-1l0.6-3
			c0.7,0.3,1.4,0.5,2.1,0.7s1.4,0.3,2,0.3c0.9,0,1.6-0.2,2.1-0.6c0.4-0.4,0.7-1,0.7-1.9v-1.7c-0.4,0.5-0.9,0.9-1.5,1.3
			c-0.6,0.3-1.3,0.5-2,0.5c-1,0-1.8-0.2-2.6-0.7c-0.8-0.5-1.4-1.1-1.8-2c-0.4-0.9-0.7-1.9-0.7-3c0-1.1,0.2-2.1,0.7-3
			c0.4-0.9,1-1.5,1.8-2c0.8-0.5,1.6-0.7,2.6-0.7c0.8,0,1.5,0.2,2.1,0.5c0.6,0.3,1.1,0.7,1.5,1.3v-1.4H506.5z M501.8,356.8
			c0.4-0.5,0.6-1.1,0.6-2c0-0.8-0.2-1.4-0.6-1.9c-0.4-0.5-1-0.7-1.7-0.7c-0.7,0-1.3,0.2-1.7,0.7c-0.4,0.5-0.6,1.1-0.6,1.9
			s0.2,1.5,0.6,2s1,0.7,1.7,0.7C500.8,357.5,501.4,357.2,501.8,356.8z"/>
	</g>
</g>
</svg>
