<?xml version="1.0" encoding="utf-8"?>
<!-- Generator: Adobe Illustrator 26.0.0, SVG Export Plug-In . SVG Version: 6.00 Build 0)  -->
<svg version="1.1" id="Layer_1" xmlns="http://www.w3.org/2000/svg" xmlns:xlink="http://www.w3.org/1999/xlink" x="0px" y="0px"
	 viewBox="0 0 1280 673" style="enable-background:new 0 0 1280 673;" xml:space="preserve">
<style type="text/css">
	.st0{fill:#FFFFFF;}
	.st1{fill:#FFECD4;}
	.st2{fill:#D0A967;}
	.st3{fill:#AAC9F8;}
	.st4{fill:#727272;}
	.st5{fill:#FECC86;}
	.st6{fill:#21111D;}
	.st7{fill:#F75553;}
	.st8{fill:#FE9F73;}
	.st9{fill:#472A31;}
	.st10{fill:#9D9D9D;}
	.st11{fill:#FDEACF;}
	.st12{fill:#F07162;}
	.st13{fill:#49263E;}
	.st14{fill:#FBFDFC;}
	.st15{fill:#4CB7D8;}
	.st16{opacity:0.3;fill:#FECC86;}
	.st17{fill:#F99247;}
	.st18{opacity:0.5;}
	.st19{fill:#F3FFFE;}
	.st20{fill:#683D46;}
	.st21{fill:#2C2C2C;}
	.st22{fill:#4C222E;}
	.st23{fill:#EA5942;}
</style>
<rect x="-2520" class="st0" width="2500" height="2000"/>
<g>
	<g>
		<g>
			<g>
				<g>
					<path class="st1" d="M340.3,633.4L200.7,632c0,0-105.5-86.7-91.7-289.1C121.6,159.6,357.3,45.7,509.5,39
						c185.7-8.2,177.7,54.8,381.9,68.2c95.4,6.3,213.6,65.1,253.1,150.8c50.9,110.5,36.3,240-83.4,375.3H340.3z"/>
				</g>
			</g>
		</g>
	</g>
	<g>
		<path class="st0" d="M438.1,147.9c33.2-8.6,60.9-14.7,82.5,6.9c20.6,20.7,17.5,44.7,5.5,59.3c-12.1,14.6-41.3,22.6-69.5,16.7
			c-28.2-6-41.3-8.9-46.4-34.1C405.2,173,421.7,152.1,438.1,147.9z"/>
		<path class="st0" d="M448.3,222.9c-2.8,4.9-13.4,16.1-26.9,17.7c9.2-7.8,10-19.9,10.3-25.3L448.3,222.9z"/>
	</g>
	<g>
		<g>
			<g>
				<g>
					<g>
						<g>
							<path class="st0" d="M833.4,570.5c0,0-12.6,31.6-2,55.5L590,628l-22.3-2l-19.6-12.2v-18.6l5.5-15.4l17.8-9.3H833.4z"/>
						</g>
					</g>
				</g>
			</g>
		</g>
		<g>
			<g>
				<g>
					<g>
						<path class="st2" d="M578.7,631.1h260.8c1.7,0,3.1-1.4,3.1-3.1c0-1.7-1.4-3.1-3.1-3.1H578.7c-15.7,0-28.6-11.9-28.6-26.5
							c0-14.6,12.8-26.5,28.6-26.5h260.8c1.7,0,3.1-1.4,3.1-3.1c0-1.7-1.4-3.1-3.1-3.1H578.7c-19.1,0-34.7,14.6-34.7,32.6
							C544,616.4,559.5,631.1,578.7,631.1z"/>
					</g>
				</g>
			</g>
		</g>
		<g>
			<g>
				<g>
					<path class="st3" d="M701.9,599.1h128c0.4,0,0.7-0.3,0.7-0.7c0-0.4-0.3-0.7-0.7-0.7h-128c-0.4,0-0.7,0.3-0.7,0.7
						C701.2,598.8,701.5,599.1,701.9,599.1z"/>
				</g>
			</g>
		</g>
		<g>
			<g>
				<g>
					<path class="st3" d="M559.5,599.1h124.4c0.4,0,0.7-0.3,0.7-0.7c0-0.4-0.3-0.7-0.7-0.7H559.5c-0.4,0-0.7,0.3-0.7,0.7
						C558.8,598.8,559.1,599.1,559.5,599.1z"/>
				</g>
			</g>
		</g>
		<g>
			<g>
				<g>
					<path class="st3" d="M562.8,611.4h63.8c0.4,0,0.7-0.3,0.7-0.7s-0.3-0.7-0.7-0.7h-63.8c-0.4,0-0.7,0.3-0.7,0.7
						S562.5,611.4,562.8,611.4z"/>
				</g>
			</g>
		</g>
		<g>
			<g>
				<g>
					<path class="st3" d="M636,611.4h193.9c0.4,0,0.7-0.3,0.7-0.7s-0.3-0.7-0.7-0.7H636c-0.4,0-0.7,0.3-0.7,0.7
						S635.6,611.4,636,611.4z"/>
				</g>
			</g>
		</g>
		<g>
			<g>
				<g>
					<g>
						<g>
							<path class="st0" d="M550.6,505.8c0,0,12.6,31.6,2,55.5l241.4,2l22.3-2l19.6-12.2v-18.6l-5.5-15.4l-17.8-9.3H550.6z"/>
						</g>
					</g>
				</g>
			</g>
		</g>
		<g>
			<g>
				<g>
					<g>
						<path class="st4" d="M805.3,566.4H544.5c-1.7,0-3.1-1.4-3.1-3.1c0-1.7,1.4-3.1,3.1-3.1h260.8c15.7,0,28.6-11.9,28.6-26.5
							s-12.8-26.5-28.6-26.5H544.5c-1.7,0-3.1-1.4-3.1-3.1c0-1.7,1.4-3.1,3.1-3.1h260.8c19.1,0,34.7,14.6,34.7,32.6
							C840.1,551.7,824.5,566.4,805.3,566.4z"/>
					</g>
				</g>
			</g>
		</g>
		<g>
			<g>
				<g>
					<path class="st3" d="M554.1,534.4h128c0.4,0,0.7-0.3,0.7-0.7s-0.3-0.7-0.7-0.7h-128c-0.4,0-0.7,0.3-0.7,0.7
						S553.8,534.4,554.1,534.4z"/>
				</g>
			</g>
		</g>
		<g>
			<g>
				<g>
					<path class="st3" d="M700.2,534.4h124.4c0.4,0,0.7-0.3,0.7-0.7s-0.3-0.7-0.7-0.7H700.2c-0.4,0-0.7,0.3-0.7,0.7
						S699.8,534.4,700.2,534.4z"/>
				</g>
			</g>
		</g>
		<g>
			<g>
				<g>
					<path class="st3" d="M757.4,546.7h63.8c0.4,0,0.7-0.3,0.7-0.7c0-0.4-0.3-0.7-0.7-0.7h-63.8c-0.4,0-0.7,0.3-0.7,0.7
						C756.7,546.4,757,546.7,757.4,546.7z"/>
				</g>
			</g>
		</g>
		<g>
			<g>
				<g>
					<path class="st3" d="M554.1,546.7H748c0.4,0,0.7-0.3,0.7-0.7c0-0.4-0.3-0.7-0.7-0.7H554.1c-0.4,0-0.7,0.3-0.7,0.7
						C553.5,546.4,553.8,546.7,554.1,546.7z"/>
				</g>
			</g>
		</g>
		<g>
			<g>
				<g>
					<g>
						<g>
							<path class="st0" d="M792.7,456.7c0,0-11.7,23.2-1.9,40.8L566.7,499l-20.7-1.5l-18.2-8.9v-13.7l5.1-11.3l16.5-6.8H792.7z"/>
						</g>
					</g>
				</g>
			</g>
		</g>
		<g>
			<g>
				<g>
					<g>
						<path class="st5" d="M556.2,501.2h242.1c1.6,0,2.9-1,2.9-2.3c0-1.2-1.3-2.3-2.9-2.3H556.2c-14.6,0-26.5-8.7-26.5-19.5
							c0-10.7,11.9-19.5,26.5-19.5h242.1c1.6,0,2.9-1,2.9-2.3c0-1.2-1.3-2.3-2.9-2.3H556.2c-17.8,0-32.2,10.8-32.2,24
							C524,490.5,538.5,501.2,556.2,501.2z"/>
					</g>
				</g>
			</g>
		</g>
		<g>
			<g>
				<g>
					<path class="st3" d="M670.6,477.8h118.8c0.4,0,0.7-0.2,0.7-0.5c0-0.3-0.3-0.5-0.7-0.5H670.6c-0.4,0-0.7,0.2-0.7,0.5
						C669.9,477.5,670.2,477.8,670.6,477.8z"/>
				</g>
			</g>
		</g>
		<g>
			<g>
				<g>
					<path class="st3" d="M541.5,477.9h59.2c0.4,0,0.7-0.3,0.7-0.7c0-0.4-0.3-0.7-0.7-0.7h-59.2c-0.4,0-0.7,0.3-0.7,0.7
						C540.9,477.6,541.2,477.9,541.5,477.9z"/>
				</g>
			</g>
		</g>
		<g>
			<g>
				<g>
					<path class="st3" d="M541.5,468.8h247.8c0.4,0,0.7-0.2,0.7-0.5c0-0.3-0.3-0.5-0.7-0.5H541.5c-0.4,0-0.7,0.2-0.7,0.5
						C540.9,468.5,541.2,468.8,541.5,468.8z"/>
				</g>
			</g>
		</g>
		<g>
			<g>
				<g>
					<g>
						<path class="st6" d="M544.5,567.1h260.8c19.5,0,35.4-15,35.4-33.3s-15.9-33.3-35.4-33.3H544.5c-2.1,0-3.8,1.7-3.8,3.8
							c0,2.1,1.7,3.8,3.8,3.8c0.4,0,0.7-0.3,0.7-0.7c0-0.4-0.3-0.7-0.7-0.7c-1.3,0-2.4-1.1-2.4-2.4c0-1.3,1.1-2.4,2.4-2.4h260.8
							c18.8,0,34,14.3,34,32c0,17.6-15.3,32-34,32H544.5c-1.3,0-2.4-1.1-2.4-2.4c0-1.3,1.1-2.4,2.4-2.4c0.4,0,0.7-0.3,0.7-0.7
							s-0.3-0.7-0.7-0.7c-2.1,0-3.8,1.7-3.8,3.8C540.8,565.4,542.5,567.1,544.5,567.1z"/>
					</g>
				</g>
			</g>
		</g>
		<g>
			<g>
				<g>
					<g>
						<path class="st6" d="M556.2,501.8h242.1c2,0,3.5-1.3,3.5-2.8c0-1.5-1.6-2.8-3.5-2.8c-0.4,0-0.7,0.2-0.7,0.5
							c0,0.3,0.3,0.5,0.7,0.5c1.2,0,2.2,0.8,2.2,1.7c0,0.9-1,1.7-2.2,1.7H556.2c-17.4,0-31.5-10.5-31.5-23.5
							c0-12.9,14.1-23.5,31.5-23.5h242.1c1.2,0,2.2,0.8,2.2,1.7c0,0.9-1,1.7-2.2,1.7c-0.4,0-0.7,0.2-0.7,0.5c0,0.3,0.3,0.5,0.7,0.5
							c2,0,3.5-1.3,3.5-2.8c0-1.5-1.6-2.8-3.5-2.8H556.2c-18.1,0-32.9,11-32.9,24.5C523.3,490.8,538.1,501.8,556.2,501.8z"/>
					</g>
				</g>
			</g>
		</g>
		<g>
			<g>
				<g>
					<g>
						<path class="st6" d="M578.7,631.8h260.8c2.1,0,3.8-1.7,3.8-3.8c0-2.1-1.7-3.8-3.8-3.8c-0.4,0-0.7,0.3-0.7,0.7s0.3,0.7,0.7,0.7
							c1.3,0,2.4,1.1,2.4,2.4c0,1.3-1.1,2.4-2.4,2.4H578.7c-18.8,0-34-14.3-34-32s15.3-32,34-32h260.8c1.3,0,2.4,1.1,2.4,2.4
							s-1.1,2.4-2.4,2.4c-0.4,0-0.7,0.3-0.7,0.7c0,0.4,0.3,0.7,0.7,0.7c2.1,0,3.8-1.7,3.8-3.8c0-2.1-1.7-3.8-3.8-3.8H578.7
							c-19.5,0-35.4,15-35.4,33.3C543.3,616.8,559.2,631.8,578.7,631.8z"/>
					</g>
				</g>
			</g>
		</g>
		<g>
			<g>
				<g>
					<path class="st7" d="M760.9,586.2c0,0,8.2,20.5,3.5,35.5l-6.7-10.3c0,0-4.6,5.5-7.4,10.3c0,0-5.1-33.6-15-35.5H760.9z"/>
				</g>
			</g>
		</g>
		<g>
			<g>
				<g>
					<path class="st3" d="M562.8,586.9h267c0.4,0,0.7-0.3,0.7-0.7s-0.3-0.7-0.7-0.7h-267c-0.4,0-0.7,0.3-0.7,0.7
						S562.5,586.9,562.8,586.9z"/>
				</g>
			</g>
		</g>
		<g>
			<g>
				<g>
					<path class="st3" d="M554.1,522.2h267c0.4,0,0.7-0.3,0.7-0.7s-0.3-0.7-0.7-0.7h-267c-0.4,0-0.7,0.3-0.7,0.7
						S553.8,522.2,554.1,522.2z"/>
				</g>
			</g>
		</g>
		<g>
			<g>
				<g>
					<path class="st3" d="M609.4,486.8h179.9c0.4,0,0.7-0.2,0.7-0.5c0-0.3-0.3-0.5-0.7-0.5H609.4c-0.4,0-0.7,0.2-0.7,0.5
						C608.8,486.5,609.1,486.8,609.4,486.8z"/>
				</g>
			</g>
		</g>
		<g>
			<g>
				<g>
					<g>
						<g>
							<path class="st0" d="M550.6,392c0,0,12.6,31.8,2,55.9l241.4,2l22.3-2l19.6-12.3v-18.8l-5.5-15.5l-17.8-9.4H550.6z"/>
						</g>
					</g>
				</g>
			</g>
		</g>
		<g>
			<g>
				<g>
					<g>
						<path d="M805.3,453.1H544.5c-1.7,0-3.1-1.4-3.1-3.1c0-1.7,1.4-3.1,3.1-3.1h260.8c15.7,0,28.6-12,28.6-26.7
							c0-14.7-12.8-26.7-28.6-26.7H544.5c-1.7,0-3.1-1.4-3.1-3.1c0-1.7,1.4-3.1,3.1-3.1h260.8c19.1,0,34.7,14.7,34.7,32.9
							C840.1,438.3,824.5,453.1,805.3,453.1z"/>
					</g>
				</g>
			</g>
		</g>
		<g>
			<g>
				<g>
					<path class="st3" d="M554.1,420.9h128c0.4,0,0.7-0.3,0.7-0.7c0-0.4-0.3-0.7-0.7-0.7h-128c-0.4,0-0.7,0.3-0.7,0.7
						C553.5,420.6,553.8,420.9,554.1,420.9z"/>
				</g>
			</g>
		</g>
		<g>
			<g>
				<g>
					<path class="st3" d="M700.2,420.9h124.4c0.4,0,0.7-0.3,0.7-0.7c0-0.4-0.3-0.7-0.7-0.7H700.2c-0.4,0-0.7,0.3-0.7,0.7
						C699.5,420.6,699.8,420.9,700.2,420.9z"/>
				</g>
			</g>
		</g>
		<g>
			<g>
				<g>
					<path class="st3" d="M757.4,433.2h63.8c0.4,0,0.7-0.3,0.7-0.7c0-0.4-0.3-0.7-0.7-0.7h-63.8c-0.4,0-0.7,0.3-0.7,0.7
						C756.7,432.9,757,433.2,757.4,433.2z"/>
				</g>
			</g>
		</g>
		<g>
			<g>
				<g>
					<path class="st3" d="M554.1,433.2H748c0.4,0,0.7-0.3,0.7-0.7c0-0.4-0.3-0.7-0.7-0.7H554.1c-0.4,0-0.7,0.3-0.7,0.7
						C553.5,432.9,553.8,433.2,554.1,433.2z"/>
				</g>
			</g>
		</g>
		<g>
			<g>
				<g>
					<g>
						<g>
							<path class="st0" d="M792.7,341.2c0,0-11.7,24-1.9,42.1l-224.1,1.5l-20.7-1.5l-18.2-9.2v-14.1l5.1-11.7l16.5-7.1H792.7z"/>
						</g>
					</g>
				</g>
			</g>
		</g>
		<g>
			<g>
				<g>
					<g>
						<path class="st2" d="M556.2,387.2h242.1c1.6,0,2.9-1,2.9-2.3c0-1.3-1.3-2.3-2.9-2.3H556.2c-14.6,0-26.5-9-26.5-20.1
							c0-11.1,11.9-20.1,26.5-20.1h242.1c1.6,0,2.9-1,2.9-2.3s-1.3-2.3-2.9-2.3H556.2c-17.8,0-32.2,11.1-32.2,24.8
							C524,376.1,538.5,387.2,556.2,387.2z"/>
					</g>
				</g>
			</g>
		</g>
		<g>
			<g>
				<g>
					<path class="st3" d="M670.6,363h118.8c0.4,0,0.7-0.3,0.7-0.6c0-0.3-0.3-0.6-0.7-0.6H670.6c-0.4,0-0.7,0.3-0.7,0.6
						C669.9,362.7,670.2,363,670.6,363z"/>
				</g>
			</g>
		</g>
		<g>
			<g>
				<g>
					<path class="st3" d="M538.4,363h115.4c0.4,0,0.7-0.3,0.7-0.6c0-0.3-0.3-0.6-0.7-0.6H538.4c-0.4,0-0.7,0.3-0.7,0.6
						C537.8,362.7,538.1,363,538.4,363z"/>
				</g>
			</g>
		</g>
		<g>
			<g>
				<g>
					<path class="st3" d="M541.5,372.3h59.2c0.4,0,0.7-0.3,0.7-0.6c0-0.3-0.3-0.6-0.7-0.6h-59.2c-0.4,0-0.7,0.3-0.7,0.6
						C540.9,372,541.2,372.3,541.5,372.3z"/>
				</g>
			</g>
		</g>
		<g>
			<g>
				<g>
					<path class="st3" d="M541.5,353.7h247.8c0.4,0,0.7-0.3,0.7-0.6c0-0.3-0.3-0.6-0.7-0.6H541.5c-0.4,0-0.7,0.3-0.7,0.6
						C540.9,353.4,541.2,353.7,541.5,353.7z"/>
				</g>
			</g>
		</g>
		<g>
			<g>
				<g>
					<g>
						<path class="st6" d="M544.5,453.8h260.8c19.5,0,35.4-15.1,35.4-33.6s-15.9-33.6-35.4-33.6H544.5c-2.1,0-3.8,1.7-3.8,3.8
							c0,2.1,1.7,3.8,3.8,3.8c0.4,0,0.7-0.3,0.7-0.7c0-0.4-0.3-0.7-0.7-0.7c-1.3,0-2.4-1.1-2.4-2.4c0-1.3,1.1-2.4,2.4-2.4h260.8
							c18.8,0,34,14.4,34,32.2s-15.3,32.2-34,32.2H544.5c-1.3,0-2.4-1.1-2.4-2.4c0-1.3,1.1-2.4,2.4-2.4c0.4,0,0.7-0.3,0.7-0.7
							c0-0.4-0.3-0.7-0.7-0.7c-2.1,0-3.8,1.7-3.8,3.8C540.8,452.1,542.5,453.8,544.5,453.8z"/>
					</g>
				</g>
			</g>
		</g>
		<g>
			<g>
				<g>
					<g>
						<path class="st6" d="M556.2,387.7h242.1c2,0,3.5-1.3,3.5-2.9c0-1.6-1.6-2.9-3.5-2.9c-0.4,0-0.7,0.3-0.7,0.6
							c0,0.3,0.3,0.6,0.7,0.6c1.2,0,2.2,0.8,2.2,1.8s-1,1.8-2.2,1.8H556.2c-17.4,0-31.5-10.9-31.5-24.2c0-13.4,14.1-24.2,31.5-24.2
							h242.1c1.2,0,2.2,0.8,2.2,1.8c0,1-1,1.8-2.2,1.8c-0.4,0-0.7,0.3-0.7,0.6c0,0.3,0.3,0.6,0.7,0.6c2,0,3.5-1.3,3.5-2.9
							c0-1.6-1.6-2.9-3.5-2.9H556.2c-18.1,0-32.9,11.4-32.9,25.3C523.3,376.4,538.1,387.7,556.2,387.7z"/>
					</g>
				</g>
			</g>
		</g>
		<g>
			<g>
				<g>
					<path class="st3" d="M554.1,408.5h267c0.4,0,0.7-0.3,0.7-0.7c0-0.4-0.3-0.7-0.7-0.7h-267c-0.4,0-0.7,0.3-0.7,0.7
						C553.5,408.2,553.8,408.5,554.1,408.5z"/>
				</g>
			</g>
		</g>
		<g>
			<g>
				<g>
					<path class="st3" d="M609.4,372.3h179.9c0.4,0,0.7-0.3,0.7-0.6c0-0.3-0.3-0.6-0.7-0.6H609.4c-0.4,0-0.7,0.3-0.7,0.6
						C608.8,372,609.1,372.3,609.4,372.3z"/>
				</g>
			</g>
		</g>
	</g>
	<g>
		<g>
			<g>
				<g>
					<g>
						<g>
							<g>
								<g>
									<g>
										<g>
											<g>
												<path class="st8" d="M616.6,434.8c4.6,10,15.8,1.6,31.5-3.3l-2.3-22.8h-30L616.6,434.8z"/>
											</g>
										</g>
									</g>
								</g>
							</g>
						</g>
					</g>
				</g>
			</g>
			<g>
				<g>
					<g>
						<g>
							<g>
								<g>
									<path class="st4" d="M589.4,459.4l62.2-15.6l-3.1-12.4c0,0-6-4.8-12.1,0c0,0-8.4,9.9-19.7,3.4L596,450.4
										C596,450.4,588.3,455.2,589.4,459.4z"/>
								</g>
							</g>
						</g>
					</g>
				</g>
				<g>
					<g>
						<g>
							<g>
								<g>
									<path class="st9" d="M652.7,448.1l-62.7,15.8c-1.2,0.3-2.4-0.4-2.7-1.6l0,0c-0.3-1.2,0.4-2.4,1.6-2.7l62.7-15.8
										L652.7,448.1z"/>
								</g>
							</g>
						</g>
					</g>
				</g>
			</g>
			<g>
				<g>
					<g>
						<g>
							<path class="st10" d="M682.5,277.2c0,0-66.2,10.3-68.1,18c-1.9,7.7-7.4,89.2-3.3,124c0,0,25.2,1.7,37.3-1.2l2.9-84.8
								l19.9-2.3l45.6-54.8L682.5,277.2z"/>
						</g>
					</g>
				</g>
			</g>
			<g>
				<g>
					<g>
						<g>
							<path class="st6" d="M692.4,402.9c1.3-4.9,1.6-53,1.7-55.1l-0.9,0c0,0.5-0.4,50-1.6,54.8L692.4,402.9z"/>
						</g>
					</g>
				</g>
			</g>
			<g>
				<g>
					<g>
						<g>
							<path class="st6" d="M644.8,334.9c6.1-2,14.4-2.3,14.5-2.3l0-0.9c-0.1,0-8.6,0.3-14.8,2.3L644.8,334.9z"/>
						</g>
					</g>
				</g>
			</g>
			<g>
				<g>
					<g>
						<g>
							<path class="st6" d="M631.1,420.1c10.2,0,17.3-1.7,17.4-1.7l0.3-0.1l3-85.8l-3.8,3l0.6,0.7l2.2-1.8l-2.9,83
								c-1.6,0.3-8.4,1.7-17.7,1.6l0,0.9C630.5,420.1,630.8,420.1,631.1,420.1z"/>
						</g>
					</g>
				</g>
			</g>
			<g>
				<g>
					<g>
						<g>
							<g>
								<path class="st11" d="M716,256.1c-0.9,0-37.7,15.8-37.7,15.8l7.4,14.2l20.6-4.5L716,256.1z"/>
							</g>
						</g>
					</g>
				</g>
			</g>
			<g>
				<g>
					<g>
						<path class="st11" d="M769.3,190.2c0,0,15.6-0.5,23.1,3.7c11.1,6.3,7.2,42.5,7.2,42.5s-9.5-5.2-10-6.9
							C789,227.8,769.3,190.2,769.3,190.2z"/>
					</g>
				</g>
			</g>
			<g>
				<g>
					<g>
						<path class="st2" d="M784.5,193c-8.9-1.2-32.4-2.1-32.4-2.1s-3.1,0.8-2.1,0.4c-25.9,4.6-28.8,23.8-28.8,23.8l-12.6,55.5
							l-14.1,0.8c-4.6,8.6-1.2,31.9-1.2,31.9l68.2,7.7c0,0,14.7,2.4,27.2-13.6c8.2-10.6,11.1-43,11-66.8
							C799.7,230.7,798.3,194.9,784.5,193z"/>
					</g>
				</g>
			</g>
			<g>
				<g>
					<g>
						<g>
							<g>
								<path class="st6" d="M761.6,271.6c-0.1,0-0.2,0-0.3,0c-0.2-0.1-0.4-0.3-0.3-0.5c0.1-0.3,7.2-30.6,10.2-49.7
									c0-0.2,0.3-0.4,0.5-0.4c0.2,0,0.4,0.3,0.4,0.5c-3,19.1-10.2,49.4-10.2,49.7C761.8,271.4,761.7,271.5,761.6,271.6z"/>
							</g>
						</g>
					</g>
				</g>
			</g>
			<g>
				<g>
					<g>
						<g>
							<g>
								<path class="st6" d="M717.5,271.1c-0.1,0-0.2,0-0.3,0c-0.2-0.1-0.4-0.3-0.3-0.5c0.1-0.3,10.7-33.9,12.9-45.5
									c0-0.2,0.3-0.4,0.5-0.3c0.2,0,0.4,0.3,0.3,0.5c-2.2,11.6-12.8,45.2-12.9,45.6C717.7,270.9,717.6,271,717.5,271.1z"/>
							</g>
						</g>
					</g>
				</g>
			</g>
			<g>
				<g>
					<g>
						<g>
							<g>
								<path class="st6" d="M760.5,207.2c-0.3,0-0.7,0.1-1,0.1c-0.2,0-0.4-0.1-0.4-0.3c0-0.2,0.1-0.4,0.3-0.4
									c14.8-1,17.6-11.9,17.6-12c0-0.2,0.2-0.3,0.4-0.3c0.2,0,0.3,0.2,0.3,0.4C777.7,194.8,774.9,205.7,760.5,207.2z"/>
							</g>
						</g>
					</g>
				</g>
			</g>
			<g>
				<g>
					<g>
						<g>
							<g>
								<path class="st6" d="M714.5,263.1c-0.2,0.1-0.4,0-0.5-0.2l-2.9-5l0-0.2l9.7-42.8c0.1-0.4,0.9-5.4,5.1-10.9
									c4-5.2,11.8-11.7,26.5-13.7c0.2,0,0.5,0.1,0.5,0.4c0,0.2-0.1,0.5-0.4,0.5c-14.4,1.9-22,8.3-25.9,13.3
									c-4.2,5.4-5,10.5-5,10.5l0,0l-9.7,42.6l2.7,4.7C714.8,262.7,714.7,262.9,714.5,263.1C714.5,263.1,714.5,263.1,714.5,263.1z"
									/>
							</g>
						</g>
					</g>
				</g>
			</g>
			<g>
				<g>
					<g>
						<g>
							<g>
								<g>
									<g>
										<g>
											<path class="st8" d="M748.6,158.7l-0.5,18.7c0,0-0.4,6,4.8,6.9l-1.2,8c-0.4,3,1.3,5.9,4.1,6.9c1.4,0.5,3.1,0.8,5,0.9
												c6,0.2,9.4-4.3,10-6.5c0.6-2.2-0.7-13.1-0.7-13.1l0.3-5.3l-0.2-20.6L748.6,158.7z"/>
										</g>
									</g>
								</g>
							</g>
						</g>
					</g>
				</g>
				<g>
					<g>
						<g>
							<g>
								<g>
									<g>
										<g>
											<path class="st12" d="M765.3,179.5c0,0-0.6,10.1-13.2,10.7l0.9-5.9C753,184.3,761.1,186.1,765.3,179.5z"/>
										</g>
									</g>
								</g>
							</g>
						</g>
					</g>
				</g>
				<g>
					<g>
						<g>
							<g>
								<g>
									<g>
										<g>
											<path class="st13" d="M762.9,168.9c0.1,0,0.1,0,0.2-0.1c0.1-0.1,0.1-0.3,0-0.4c0,0-3.4-3.7-6.6-1.2
												c-0.1,0.1-0.1,0.2,0,0.4c0.1,0.1,0.2,0.1,0.4,0c2.9-2.2,5.8,1,5.9,1.1C762.8,168.8,762.8,168.9,762.9,168.9z"/>
										</g>
									</g>
								</g>
							</g>
						</g>
					</g>
				</g>
				<g>
					<g>
						<g>
							<g>
								<g>
									<path class="st13" d="M771.6,166.4l-5.4,1l-1,1c0,0,0.7-9.1,1.8-10.8C768,155.8,771.6,166.4,771.6,166.4z"/>
								</g>
							</g>
						</g>
					</g>
				</g>
				<g>
					<g>
						<g>
							<g>
								<g>
									<g>
										<g>
											<path class="st13" d="M752.6,167.1c0.1,0,0.1,0,0.2-0.1c0.1-0.1,0.1-0.3,0-0.4c-0.1-0.1-2.4-2.2-4-0.9
												c-0.1,0.1-0.1,0.2,0,0.4c0.1,0.1,0.2,0.1,0.4,0c1.2-1,3.3,0.9,3.3,0.9C752.5,167.1,752.5,167.1,752.6,167.1z"/>
										</g>
									</g>
								</g>
							</g>
						</g>
					</g>
				</g>
				<g>
					<g>
						<g>
							<g>
								<g>
									<g>
										<g>
											<path d="M757.8,169.7c0,0.4,0.3,0.8,0.7,0.8c0.4,0,0.8-0.3,0.8-0.7c0-0.4-0.3-0.8-0.7-0.8
												C758.1,169,757.8,169.3,757.8,169.7z"/>
										</g>
									</g>
								</g>
							</g>
						</g>
					</g>
				</g>
				<g>
					<g>
						<g>
							<g>
								<g>
									<g>
										<g>
											<path d="M749.8,168.8c0,0.4,0.3,0.8,0.7,0.8c0.4,0,0.8-0.3,0.8-0.7c0-0.4-0.3-0.8-0.7-0.8
												C750.2,168,749.8,168.4,749.8,168.8z"/>
										</g>
									</g>
								</g>
							</g>
						</g>
					</g>
				</g>
				<g>
					<g>
						<g>
							<g>
								<g>
									<g>
										<g>
											<path class="st8" d="M764,169.6c-0.1,2.5,1.9,4.6,4.4,4.6c2.5,0.1,4.6-1.9,4.6-4.4c0.1-2.5-1.9-4.6-4.4-4.6
												C766.1,165.2,764.1,167.1,764,169.6z"/>
										</g>
									</g>
								</g>
							</g>
						</g>
					</g>
				</g>
				<g>
					<g>
						<g>
							<g>
								<g>
									<g>
										<g>
											<path class="st12" d="M769.2,172.3c0.9,0,1.6-0.7,1.8-1.4c0.3-0.8,0-1.6-0.7-2.1c-1-0.6-1.9-0.3-2.4,0
												c0.2-0.5,0.5-0.9,0.9-1.1c0.9-0.5,2-0.1,2-0.1c0.1,0,0.1,0,0.2-0.1c0-0.1,0-0.1-0.1-0.2c0,0-1.2-0.4-2.2,0.1
												c-0.6,0.3-1,0.8-1.2,1.6l-0.1,0.4l0.3-0.3c0,0,1.1-1.1,2.4-0.2c0.7,0.5,0.7,1.3,0.6,1.8c-0.2,0.6-0.7,1.2-1.6,1.2
												c0,0,0,0,0,0c-0.1,0-0.1,0.1-0.1,0.1C769.1,172.2,769.2,172.3,769.2,172.3C769.2,172.3,769.2,172.3,769.2,172.3z"/>
										</g>
									</g>
								</g>
							</g>
						</g>
					</g>
				</g>
				<g>
					<g>
						<g>
							<g>
								<g>
									<g>
										<g>
											<path class="st12" d="M755,174.7c0.1,0,0.1,0,0.1-0.1c0-0.1,0-0.1-0.1-0.2l-2.5-0.9l0.9-5.9c0-0.1,0-0.1-0.1-0.1
												c-0.1,0-0.1,0-0.1,0.1l-1,6.1L755,174.7C755,174.7,755,174.7,755,174.7z"/>
										</g>
									</g>
								</g>
							</g>
						</g>
					</g>
				</g>
				<g>
					<g>
						<g>
							<g>
								<g>
									<g>
										<g>
											<path class="st14" d="M756.9,177.2c-0.1,0-5-0.3-5-0.3s0.6,2,2.4,2.1C756.1,179.2,756.9,177.2,756.9,177.2z"/>
										</g>
									</g>
								</g>
							</g>
						</g>
					</g>
				</g>
				<g>
					<g>
						<g>
							<g>
								<g>
									<path class="st13" d="M771.6,166.4c0,0,1.8-8.8-0.9-12.1c-2.6-3.3-17.9-9.5-19.8-7.9c-1.9,1.6-0.1,3.6-0.1,3.6
										s-6.2-2.2-7.7,3.3c-1.5,5.5,11.7,8.2,19.8,5.8C762.9,159.2,768.1,160.8,771.6,166.4z"/>
								</g>
							</g>
						</g>
					</g>
				</g>
			</g>
			<g>
				<g>
					<g>
						<g>
							<g>
								<path class="st6" d="M773.1,268.7C773.1,268.7,773.1,268.7,773.1,268.7l-11.6,2.7c-0.2,0.1-0.5-0.1-0.5-0.3
									c-0.1-0.2,0.1-0.5,0.3-0.5l11.5-2.6c0.2-0.1,0.5,0.1,0.5,0.3C773.5,268.4,773.3,268.6,773.1,268.7z"/>
							</g>
						</g>
					</g>
				</g>
			</g>
			<g>
				<g>
					<g>
						<g>
							<g>
								<path class="st6" d="M699.2,263.2c-0.2,0.1-0.5,0-0.6-0.2c-0.1-0.2,0-0.5,0.2-0.6l12.4-5c0.2-0.1,0.5,0,0.6,0.2
									c0.1,0.2,0,0.5-0.2,0.6L699.2,263.2C699.2,263.2,699.2,263.2,699.2,263.2z"/>
							</g>
						</g>
					</g>
				</g>
			</g>
			<g>
				<g>
					<g>
						<g>
							<g>
								<g>
									<g>
										<g>
											<g>
												<path class="st8" d="M662.9,434.4c8.8,9.6,18.2,2.3,31.4-5.1l-2.4-21.8l-29.3,1.3L662.9,434.4z"/>
											</g>
										</g>
									</g>
								</g>
							</g>
						</g>
					</g>
				</g>
			</g>
			<g>
				<path class="st10" d="M761.5,311l-44.2-5c-6.4,8.3-10.6,14.6-10.6,14.6l5.2,17.8c0,0,27,0.4,46-0.2c6.1-0.2,11.5,0.2,14.7-0.5
					c7.9-1.8,12.3-17.3,11.2-34.9C772.7,312.8,761.5,311,761.5,311z"/>
			</g>
			<g>
				<path class="st10" d="M693.3,303.3c0,0-1-6.7-1.2-14.3c-14,4.8-29.6,10.9-30.6,15.1c-1.9,7.7-7.4,80.4-3.3,115.2
					c0,0,27.1,1.6,39.2-1.4l3.2-80l11.7,0.4l17.6-30.9L693.3,303.3z"/>
			</g>
			<g>
				<g>
					<g>
						<g>
							<g>
								<path class="st6" d="M773.4,309.7c-1,0.4-2,0.7-2.8,0.9c-5.3,1.4-9,0.8-9.1,0.8c-0.2,0-0.4-0.3-0.4-0.5
									c0-0.2,0.3-0.4,0.5-0.4c0,0,3.7,0.6,8.8-0.8c4.7-1.3,11.6-4.5,18-12.6c8-10.2,10.9-41.7,11-65.5c0-0.2,0.2-0.4,0.4-0.4
									c0.2,0,0.4,0.2,0.4,0.4c-0.1,24-3,55.7-11.1,66.1C783.7,304.5,777.9,308,773.4,309.7z"/>
							</g>
						</g>
					</g>
				</g>
			</g>
			<g>
				<g>
					<g>
						<path class="st6" d="M732.3,339.2c11.8,0,25.9-0.4,41.8-1.6l-0.1-0.9c-47.4,3.6-79.2,0-79.5,0l-0.1,0.9
							C694.7,337.6,708.8,339.2,732.3,339.2z"/>
					</g>
				</g>
			</g>
			<g>
				<g>
					<g>
						<g>
							<path class="st6" d="M681.2,420.3c12,0,16.2-1.8,16.4-1.9l0.3-0.1l3.1-80.5l-4.9,2.3l0.4,0.8l3.6-1.7l-3.1,78.4
								c-1.3,0.4-7.5,2.2-22.2,1.6l0,0.9C677.1,420.2,679.3,420.3,681.2,420.3z"/>
						</g>
					</g>
				</g>
			</g>
			<g>
				<g>
					<g>
						<g>
							<path class="st5" d="M708.1,190.6c-3.3-26.7-27.7-45.7-54.4-42.4c-26.7,3.3-45.7,27.7-42.4,54.4c1.6,13.3,8.5,24.6,18.2,32.3
								l0,0c0,0,16.6,13.8,23.7,30.3c0,0,8.8,1.8,15.2,1.2c6.4-1,14.5-4.9,14.5-4.9c2.8-17.7,15.5-35.2,15.5-35.2h0
								C705.9,216.5,709.7,203.8,708.1,190.6z"/>
						</g>
						<g>
							<path class="st15" d="M671.5,291.7L671.5,291.7c-4.2,0.5-7.9-2.4-8.5-6.6l0,0l15-1.9l0,0
								C678.6,287.4,675.6,291.2,671.5,291.7z"/>
						</g>
						<g>
							<path class="st15" d="M670.8,286.3L670.8,286.3c-8.9,1.1-17-5.2-18.1-14.1l-1.3-10.7l32.3-4l1.3,10.7
								C686,277,679.7,285.2,670.8,286.3z"/>
						</g>
						<path class="st16" d="M708.1,190.6c-1.2-9.9-5.3-18.7-11.4-25.8c-9.8,36.6-29.5,62.9-60.9,76c4.8,4.9,11.2,12.3,15.6,20.6
							l32.2-4l0,0c3.9-16.2,14.7-31.1,14.7-31.1l0,0C705.9,216.5,709.7,203.8,708.1,190.6z"/>
					</g>
					<g>
						<path class="st17" d="M675.4,258.6l-1.4-0.2c0-0.2,2.5-17.3,3.5-34.7c1.8-30.2-2.1-36-4.6-36.8c-2.5-0.8-4.4-0.4-5.5,1.3
							c-0.1,0.1-0.2,0.3-0.2,0.4c3.6,1.6,4.8,4.5,5.2,5.8c1,3.4-0.1,7-2.5,8c-0.6,0.3-1.7,0.5-2.8-0.9c-1.8-2.1-3-7.9-1.8-12.1
							c-1.7-0.5-3.8-0.6-6.1-0.3l-1.4,0.2c-2.3,0.3-4.3,0.9-5.9,1.8c2.2,3.7,2.5,9.6,1.2,12.1c-0.8,1.6-1.9,1.6-2.5,1.5
							c-2.5-0.5-4.5-3.7-4.4-7.2c0-1.3,0.5-4.4,3.6-6.8c-0.1-0.1-0.2-0.2-0.3-0.3c-1.5-1.4-3.4-1.3-5.7,0.1c-2.2,1.4-4.6,8,4.5,36.9
							c5.2,16.6,11.8,32.6,11.9,32.8l-1.3,0.6c-0.1-0.2-6.7-16.2-11.9-32.9c-7.3-23-8.5-35.6-3.9-38.5c3.6-2.3,6-1.2,7.4,0.1
							c0.2,0.2,0.4,0.4,0.6,0.6c1.6-0.9,3.7-1.7,6.6-2l1.4-0.2c2.8-0.4,5.1-0.2,6.9,0.4c0.1-0.2,0.3-0.5,0.4-0.7
							c1.1-1.6,3.2-3.2,7.2-1.9c5.2,1.7,7,14.2,5.6,38.3C677.9,241.3,675.4,258.5,675.4,258.6z M650.5,191.9c-1.9,1.4-3,3.4-3,5.7
							c-0.1,3,1.6,5.4,3.2,5.7c0.2,0,0.6,0.1,1-0.7C652.7,200.4,652.4,195.1,650.5,191.9z M666.5,189.9c-1.1,3.6,0,8.8,1.5,10.6
							c0.6,0.7,1,0.5,1.1,0.5c1.5-0.7,2.5-3.4,1.7-6.3C670.2,192.5,668.7,190.9,666.5,189.9z"/>
					</g>
					<g>
						<path class="st6" d="M651.1,261.8c-0.5-1.1-0.7-1.4-1.2-2.3l-0.3-0.5c-7.8-13.4-20.3-23.9-20.4-24l0,0
							c-10.2-8.1-16.7-19.6-18.3-32.5c-3.3-26.9,15.8-51.5,42.7-54.8c16.5-2,32.8,4.3,43.6,17l-0.6,0.5
							c-10.6-12.5-26.7-18.8-42.9-16.8c-26.5,3.3-45.4,27.5-42.1,54c1.6,12.7,8,24.1,18,32l0.5,0.4l0,0c2.4,2.1,13.1,11.8,20.1,23.7
							l0.3,0.5c0.5,0.9,0.7,1.2,1.3,2.3L651.1,261.8z"/>
					</g>
					<g>
						<path class="st6" d="M623.1,178.4l-0.7-0.1c0-0.1,2.1-12.5,13.6-18.5l0.3,0.6C625.2,166.3,623.1,178.3,623.1,178.4z"/>
					</g>
					<g>
						<path class="st6" d="M625.8,182.4l-0.7-0.1c0-0.1,2.1-12.5,13.6-18.5l0.3,0.6C627.9,170.3,625.9,182.3,625.8,182.4z"/>
					</g>
					<g>
						<path class="st6" d="M672.6,286.4l-3.5,0.4c-8.1,1-15.6-4.8-16.6-12.9l-1.6-12.8l32.6-4l0.1,0.7l-31.9,4l1.5,12.1
							c1,7.7,8,13.2,15.8,12.3l3.5-0.4c3.7-0.5,7-2.3,9.3-5.2l0.6,0.4C680,284,676.5,285.9,672.6,286.4z"/>
					</g>
					<g>
						<path class="st6" d="M671.7,292.1c-7,0.9-8.8-5.8-8.9-5.9l0.7-0.2c0.1,0.3,1.8,6.3,8.3,5.3l0.1,0.7
							C671.9,292,671.8,292.1,671.7,292.1z"/>
					</g>
					<g>
						<path class="st6" d="M696.2,219.5l-0.5-0.5c5.8-5.5,5.8-13.6,5.8-13.6l0.7,0C702.3,205.4,702.2,213.8,696.2,219.5z"/>
					</g>
					<g>
						<path class="st6" d="M694.4,216.3l-0.5-0.5c4.2-4,4.2-9.9,4.2-10l0.7,0C698.8,206,698.8,212,694.4,216.3z"/>
					</g>
					<g>
						<path class="st6" d="M650.6,268.1l-0.1-0.7c0.3,0,27.4-3.8,35.7-8l0.3,0.6C678.2,264.3,651.8,267.9,650.6,268.1z"/>
					</g>
					<g>
						<path class="st6" d="M651.4,274.1l-0.1-0.7c0.3,0,29.7-4.3,34.9-7.9l0.4,0.6C681.3,269.8,652.6,274,651.4,274.1z"/>
					</g>
					<g>
						<path class="st6" d="M653.6,280.2l-0.1-0.7c0.3,0,26.7-3.6,33.4-8.1l0.4,0.6C680.5,276.6,654.7,280,653.6,280.2z"/>
					</g>
				</g>
				<g>
					<g>
						<path class="st5" d="M598,196.5C598,196.5,597.9,196.5,598,196.5l-17.4,0.7c-0.6,0-1.1-0.4-1.1-1c0-0.6,0.4-1.1,1-1.1
							l17.3-0.7c0.6,0,1.1,0.4,1.1,1C599,195.9,598.5,196.4,598,196.5z"/>
					</g>
				</g>
				<g>
					<g>
						<path class="st5" d="M603.5,168.1c-0.2,0-0.4,0-0.6-0.1l-15.4-7.9c-0.5-0.3-0.7-0.9-0.5-1.5c0.3-0.5,0.9-0.7,1.5-0.5l15.4,7.9
							c0.5,0.3,0.7,0.9,0.5,1.5C604.1,167.8,603.8,168,603.5,168.1z"/>
					</g>
				</g>
				<g>
					<g>
						<path class="st5" d="M626.7,145.3c-0.4,0.1-0.9-0.2-1.1-0.5l-8.4-15.1c-0.3-0.5-0.1-1.2,0.4-1.5c0.5-0.3,1.2-0.1,1.5,0.4
							l8.4,15.1c0.3,0.5,0.1,1.2-0.4,1.5C626.9,145.3,626.8,145.3,626.7,145.3z"/>
					</g>
				</g>
				<g>
					<g>
						<path class="st5" d="M719,184.6c-0.6,0.1-1.1-0.3-1.2-0.9c-0.1-0.6,0.3-1.2,0.9-1.3l17-3.3c0.6-0.1,1.2,0.3,1.3,0.9
							c0.1,0.6-0.3,1.2-0.9,1.3L719,184.6C719,184.6,719,184.6,719,184.6z"/>
					</g>
				</g>
				<g>
					<g>
						<path class="st5" d="M707.2,158.2c-0.4,0-0.7-0.1-1-0.4c-0.4-0.5-0.3-1.1,0.1-1.5l13.2-11.2c0.5-0.4,1.1-0.3,1.5,0.1
							c0.4,0.5,0.3,1.1-0.1,1.5L707.8,158C707.6,158.1,707.4,158.2,707.2,158.2z"/>
					</g>
				</g>
				<g>
					<g>
						<path class="st5" d="M682.5,138.3c-0.1,0-0.3,0-0.4,0c-0.6-0.2-0.9-0.8-0.7-1.3l4.8-16.6c0.2-0.6,0.8-0.9,1.3-0.7
							c0.6,0.2,0.9,0.8,0.7,1.3l-4.8,16.6C683.3,138,682.9,138.3,682.5,138.3z"/>
					</g>
				</g>
				<g>
					<g>
						<path class="st5" d="M653.8,133.4C653.8,133.4,653.8,133.4,653.8,133.4c-0.6,0.1-1.1-0.4-1.2-1l-1.9-17.2
							c-0.1-0.6,0.4-1.1,0.9-1.2c0,0,0,0,0,0c0.6-0.1,1.1,0.4,1.2,1l1.9,17.2C654.8,132.8,654.4,133.3,653.8,133.4z"/>
					</g>
				</g>
				<g class="st18">
					
						<ellipse transform="matrix(0.4341 -0.9009 0.9009 0.4341 236.2064 704.0294)" class="st19" cx="678.5" cy="164" rx="5.7" ry="11.9"/>
				</g>
			</g>
			<g>
				<path class="st8" d="M665.8,293.4c-0.2-1.1,0.6-2.1,1.7-2.4l6.8-1.5c0.2,0,0.4-0.2,0.4-0.4l0,0c0-0.3-0.2-0.6-0.5-0.6l-10.2,0.8
					c-1.2,0.1-2-0.8-1.9-1.9l0,0c0.1-1.2,1.2-2.2,2.4-2.3l10.4-0.8c0.2,0,0.4-0.2,0.5-0.4l0-0.2c0-0.3-0.2-0.5-0.4-0.6l-11.5-1.3
					c-1.1-0.1-2-1.1-1.9-2.2c0.1-1.2,1.1-2.1,2.3-2l11.6,1.4c0.3,0,0.5-0.2,0.6-0.4l0.1-0.5c0-0.3-0.1-0.5-0.4-0.6l-10.5-2.6
					c-1.1-0.3-1.8-1.3-1.6-2.4c0.2-1.2,1.4-1.9,2.6-1.7c0,0,16.2,3.2,18.8,3.5l-2.8-5.4c-0.7-0.9-0.6-2.2,0.3-2.9l0,0
					c0.9-0.7,2.2-0.6,2.9,0.3l9.5,9.5c0.5,0.6,0.3,2.1-0.1,3.3c-0.5,12.3-0.7,14.2-1.1,17.5l-13-2c-3.8-0.6-7.6-0.4-11.3,0.4
					l-0.9,0.2C667.2,295.4,666,294.6,665.8,293.4z"/>
			</g>
			<g>
				<g>
					<g>
						<path class="st11" d="M694.5,271.4c0,0-4.5,10.6-1.2,31.9l4.5-15.1l7-9.7L694.5,271.4z"/>
					</g>
				</g>
			</g>
			<g>
				<g>
					<g>
						<g>
							<g>
								<path class="st6" d="M776.4,272c-0.1,0-0.1,0-0.2,0c-0.6,0-61.5-1.8-81.5-0.2c-0.5,1.3-2.7,8.1-2.1,20.4
									c0,0.2-0.2,0.4-0.4,0.5c-0.2,0-0.4-0.2-0.5-0.4c-0.7-14,2.1-20.8,2.3-21.1l0.1-0.2l0.3,0c19.7-1.7,81.2,0.2,81.8,0.2
									c0.2,0,0.4,0.2,0.4,0.4C776.7,271.7,776.6,271.9,776.4,272z"/>
							</g>
						</g>
					</g>
				</g>
			</g>
			<g>
				<g>
					<g>
						<g>
							<g>
								<g>
									<path class="st4" d="M637.5,460.8l61-19.9l-4-12.2c0,0-6.3-4.4-12.1,0.8c0,0-7.7,10.4-19.5,4.8l-19.5,17
										C643.5,451.3,636.2,456.7,637.5,460.8z"/>
								</g>
							</g>
						</g>
					</g>
				</g>
				<g>
					<g>
						<g>
							<g>
								<g>
									<path class="st20" d="M699.9,445.2l-62.5,20.4c-0.6,0.2-1.2-0.1-1.4-0.7l-0.7-2.1c-0.2-0.6,0.1-1.2,0.7-1.4l62.5-20.4
										L699.9,445.2z"/>
								</g>
							</g>
						</g>
					</g>
				</g>
			</g>
		</g>
	</g>
	<g>
		<rect x="263.9" y="631.3" class="st6" width="627.5" height="3.4"/>
	</g>
	<g>
		<g>
			<path class="st8" d="M498.4,378.4c-2.3-0.1-4.3-1.1-5-1.2c0,0-0.4-0.2,1.7-4.9c0.7-1.6,0.9-2.7,0.3-3.4c-0.6-0.7-1.6-1-2.2,0.1
				l-7.9,7.6c-0.5,0.4-0.6,1.6-0.5,2.5c-1.8,9.6-2,11.1-2.3,13.8l9.6,0.1c1.3,0.1,5.1,0.1,5.8-0.3c1.2-0.8,0.8-2.1,0.9-3.6
				c0.1-2.1,0.4-4.7,0.6-6.6c-0.1-0.1-0.1-0.2-0.1-0.3l0-0.4c0-0.1,0-0.1,0.1-0.2v0h0l0,0L498.4,378.4z"/>
		</g>
		<g>
			<g>
				<g>
					<path class="st8" d="M401.5,357.1c0,0,10.7,23.2,15.5,27.8c4.8,4.6,60.8,8.1,60.8,8.1l1.5-17.3l-45.1-10.3l-11.8-22.3
						L401.5,357.1z"/>
				</g>
			</g>
		</g>
		<g>
			<g>
				<g>
					<path class="st12" d="M425.7,372.4c0.1,0,0.2-0.1,0.3-0.1l8.6-6.2c0.3-0.2,0.4-0.6,0.2-0.9c-0.2-0.3-0.6-0.4-0.9-0.2l-8.6,6.2
						c-0.3,0.2-0.4,0.6-0.2,0.9C425.3,372.3,425.5,372.4,425.7,372.4z"/>
				</g>
			</g>
		</g>
		<g>
			<path class="st8" d="M488.6,374.4c0,0-4.4,1.9-5.6,1.9c-1.2-0.1-6.2-1.1-6.2-1.1l-2.4,17.6c0,0,3.7,0.4,10.1,0.1
				C490.9,392.5,488.6,374.4,488.6,374.4z"/>
		</g>
		<g>
			<g>
				<path class="st8" d="M504.6,382.6c0,1.1-0.8,2-1.1,1.9l-8.5-0.3c-1,0-1.8-0.8-1.8-1.7c0-1.1,0.8-1.9,1.9-1.9l8.7,0.3
					C503.8,381,504.6,381.5,504.6,382.6z"/>
			</g>
			<g>
				<path class="st8" d="M504.4,386.2c0,1.1-0.8,2-1.1,2l-8.5-0.1c-1,0-1.8-0.8-1.8-1.7c0-1,0.8-1.9,1.8-1.9l8.8,0.1
					C503.6,384.5,504.4,385,504.4,386.2z"/>
			</g>
			<g>
				<path class="st8" d="M503.5,389.3c0,0.9-0.6,1.6-0.8,1.6l-7,0c-0.8,0-1.5-0.6-1.5-1.4c-0.1-0.9,0.6-1.6,1.5-1.6l7.1,0
					C502.8,388,503.5,388.4,503.5,389.3z"/>
			</g>
			<g>
				<g>
					<path class="st12" d="M503.5,384.9c0.2,0,0.3-0.2,0.3-0.3c0-0.2-0.1-0.3-0.3-0.3l-8.5-0.3c-0.8,0-1.4-0.7-1.5-1.4
						c0-0.4,0.1-0.8,0.4-1.1c0.3-0.3,0.7-0.4,1.1-0.4l7.8,0.3c0.2,0,0.3-0.1,0.4-0.3c0-0.2-0.1-0.3-0.3-0.4l-7.8-0.3
						c-0.6,0-1.2,0.2-1.6,0.6c-0.4,0.4-0.6,1-0.6,1.6c0,1.1,1,2,2.1,2.1L503.5,384.9C503.5,384.9,503.5,384.9,503.5,384.9z"/>
				</g>
			</g>
			<g>
				<path class="st8" d="M503.8,379.2c0,1-0.7,1.7-1,1.7l-7.6-0.3c-0.9,0-1.6-0.7-1.6-1.6c0-0.9,0.7-1.7,1.7-1.6l7.8,0.3
					C503.1,377.7,503.8,378.2,503.8,379.2z"/>
			</g>
			<g>
				<g>
					<path class="st12" d="M502.9,381.2c0.1,0,0.2-0.1,0.2-0.3c0-0.2-0.1-0.3-0.3-0.3l-7.6-0.2c-0.7,0-1.3-0.6-1.3-1.3
						c0-0.4,0.1-0.7,0.4-1c0.3-0.3,0.6-0.4,1-0.4l6.9,0.3c0.2,0,0.3-0.1,0.3-0.3c0-0.2-0.1-0.3-0.3-0.3l-6.9-0.3
						c-0.5,0-1,0.2-1.4,0.6c-0.4,0.4-0.6,0.9-0.6,1.4c0,1,0.9,1.8,1.9,1.8L502.9,381.2C502.8,381.2,502.8,381.2,502.9,381.2z"/>
				</g>
			</g>
			<g>
				<g>
					<path class="st12" d="M503.1,388.3c0.2,0,0.3-0.2,0.3-0.3c0-0.2-0.2-0.3-0.3-0.3l-8.3,0c-0.8,0-1.4-0.6-1.4-1.3
						c0-0.4,0.1-0.8,0.4-1.1c0.3-0.3,0.7-0.5,1.1-0.4l8.8,0.2c0.2,0,0.3-0.1,0.3-0.3c0-0.2-0.1-0.3-0.3-0.3l-8.8-0.2
						c-0.6,0-1.2,0.2-1.6,0.6c-0.4,0.4-0.6,1-0.6,1.6c0.1,1.1,0.9,1.9,2.1,2L503.1,388.3C503.1,388.3,503.1,388.3,503.1,388.3z"/>
				</g>
			</g>
			<g>
				<g>
					<path class="st12" d="M502.7,391.2c0.1,0,0.2-0.1,0.2-0.3c0-0.2-0.1-0.3-0.3-0.3l-7,0c-0.6,0-1.2-0.5-1.2-1.1
						c0-0.3,0.1-0.6,0.3-0.9c0.2-0.2,0.5-0.4,0.9-0.4l7.1,0c0.2,0,0.3-0.1,0.3-0.3c0-0.2-0.1-0.3-0.3-0.3l-7.1,0
						c-0.5,0-1,0.2-1.3,0.6c-0.3,0.4-0.5,0.8-0.5,1.3c0.1,0.9,0.8,1.7,1.8,1.7L502.7,391.2C502.6,391.2,502.7,391.2,502.7,391.2z"/>
				</g>
			</g>
		</g>
		<g>
			<g>
				<path class="st21" d="M399.4,278.7c0,0,3.2-8-6-14.4c-9.2-6.3-10.4,5-13.8,6.1c-3.5,1.2-9.8,0.1-12,6.7
					c-2.1,6.6-0.6,11.4-4.3,12.5c-3.7,1.1-15.4,10.9-11.9,23.1s15.5,11.1,15.5,11.1s47,0.3,49.7-12c2.7-12.3-2-17.4-8.1-21.3
					C404.8,288.1,397.4,286.3,399.4,278.7z"/>
			</g>
		</g>
		<g>
			<g>
				<g>
					<g>
						<path class="st8" d="M394.7,282.7c0,0,4.6,16.5,2.2,20.6c0,0-1.1,2.2-4.5,2.6l1.3,10.5l-14.9,1.8l-4.2-34.6L394.7,282.7z"/>
					</g>
				</g>
			</g>
			<g>
				<g>
					<g>
						<path class="st12" d="M391.4,296.5c-0.1,0-0.1,0-0.1-0.1c0-0.1,0-0.1,0.1-0.2c0.9-0.3,1.3-1.4,1.4-1.8
							c-1.3-0.5-2.2-1.3-2.6-2.3c-0.6-1.6,0.3-3.3,0.3-3.4c0-0.1,0.1-0.1,0.2-0.1c0.1,0,0.1,0.1,0.1,0.2c0,0-0.9,1.6-0.3,3.1
							c0.4,1,1.2,1.7,2.5,2.2l0.1,0l0,0.1C393,294.5,392.6,296.1,391.4,296.5C391.4,296.5,391.4,296.5,391.4,296.5z"/>
					</g>
				</g>
			</g>
			<g>
				<g>
					<g>
						<path class="st12" d="M392.9,310.2l-0.5-4.2c0,0-7.2,0.4-12-1.8C380.5,304.2,387.1,309.2,392.9,310.2z"/>
					</g>
				</g>
			</g>
			<g>
				<g>
					<g>
						<path class="st22" d="M382.3,290.4c-0.1,0-0.1,0-0.2-0.1c-0.1-0.1-0.1-0.3-0.1-0.4c0,0,3.1-4,6.6-1.8c0.1,0.1,0.2,0.2,0.1,0.4
							c-0.1,0.1-0.2,0.2-0.4,0.1c-3.1-1.9-5.7,1.6-5.8,1.7C382.4,290.4,382.3,290.4,382.3,290.4z"/>
					</g>
				</g>
			</g>
			<g>
				<g>
					<g>
						<path class="st22" d="M391.6,288.7c-0.1,0-0.2,0-0.2-0.1c-0.1-0.1-0.1-0.3,0-0.4c0.1-0.1,2.3-2.5,3.9-1.3
							c0.1,0.1,0.2,0.3,0.1,0.4c-0.1,0.1-0.3,0.2-0.4,0.1c-1.3-0.9-3.2,1.2-3.2,1.2C391.7,288.6,391.7,288.7,391.6,288.7z"/>
					</g>
				</g>
			</g>
			<g>
				<g>
					<g>
						<ellipse transform="matrix(0.6167 -0.7872 0.7872 0.6167 -77.5659 421.6739)" cx="394.2" cy="290.5" rx="0.8" ry="0.8"/>
					</g>
				</g>
			</g>
			<g>
				<g>
					<g>
						<path class="st8" d="M379.1,295.6c0.3,2.3-1.4,4.5-3.7,4.7s-4.5-1.4-4.7-3.7c-0.3-2.3,1.4-4.5,3.7-4.7
							C376.6,291.6,378.8,293.3,379.1,295.6z"/>
					</g>
				</g>
			</g>
			<g>
				<g>
					<g>
						<path class="st12" d="M374.8,298.8c-0.9,0.1-1.6-0.5-1.8-1.1c-0.3-0.8-0.2-1.6,0.4-2c0.8-0.7,1.7-0.4,2.2-0.2
							c-0.2-0.4-0.6-0.7-0.9-0.9c-0.9-0.4-1.9,0.1-1.9,0.1c-0.1,0-0.1,0-0.2-0.1c0-0.1,0-0.1,0.1-0.2c0,0,1.1-0.5,2.1-0.1
							c0.6,0.2,1,0.7,1.3,1.4l0.2,0.5l-0.4-0.3c0,0-1.2-0.9-2.3,0c-0.6,0.5-0.6,1.2-0.4,1.7c0.2,0.5,0.8,1.1,1.6,1
							c0.1,0,0.1,0,0.2,0.1C375,298.7,374.9,298.8,374.8,298.8C374.8,298.8,374.8,298.8,374.8,298.8z"/>
					</g>
				</g>
			</g>
		</g>
		<g>
			<g>
				<path class="st8" d="M394.7,282.7c0,0-2.1-6.4-10.9-6c-8.8,0.3-9.2,7-9.2,7l10.2,0.8l9.2-1.8L394.7,282.7z"/>
			</g>
		</g>
		<g>
			<g>
				<path class="st22" d="M394,277.2c0,0-4.8,6-12,5.6c0,0-1.3,8.9-6.4,9.1c-5.1,0.2-3.8-12-3.8-12s9-5,9.7-5.1s10.6-1.9,10.6-1.9
					L394,277.2z"/>
			</g>
		</g>
		<g>
			<g>
				<g>
					<path class="st23" d="M388.8,293.6c-0.2,0-0.3-0.3,0-0.3C389,293.2,389,293.6,388.8,293.6L388.8,293.6z"/>
				</g>
			</g>
		</g>
		<g>
			<g>
				<g>
					<path class="st23" d="M387.9,294.3c-0.2,0-0.3-0.3,0-0.3C388.1,293.9,388.1,294.3,387.9,294.3L387.9,294.3z"/>
				</g>
			</g>
		</g>
		<g>
			<g>
				<g>
					<path class="st23" d="M385.9,293.3c-0.2,0-0.3-0.3,0-0.3C386.1,293,386.1,293.3,385.9,293.3L385.9,293.3z"/>
				</g>
			</g>
		</g>
		<g>
			<g>
				<g>
					<path class="st23" d="M384.4,294.7c-0.2,0-0.3-0.3,0-0.3C384.6,294.4,384.7,294.7,384.4,294.7L384.4,294.7z"/>
				</g>
			</g>
		</g>
		<g>
			<g>
				<g>
					<path class="st23" d="M382.6,293.3c-0.2,0-0.3-0.3,0-0.3C382.8,292.9,382.8,293.3,382.6,293.3L382.6,293.3z"/>
				</g>
			</g>
		</g>
		<g>
			<g>
				<g>
					<path class="st23" d="M382.3,295.8c-0.2,0-0.3-0.3,0-0.3C382.4,295.4,382.5,295.8,382.3,295.8L382.3,295.8z"/>
				</g>
			</g>
		</g>
		<g>
			<g>
				<g>
					<path class="st23" d="M392.1,292.2c-0.2,0-0.3-0.3,0-0.3C392.3,291.8,392.3,292.2,392.1,292.2L392.1,292.2z"/>
				</g>
			</g>
		</g>
		<g>
			<g>
				<g>
					<path class="st23" d="M393.5,293.4c-0.2,0-0.3-0.3,0-0.3C393.7,293,393.7,293.4,393.5,293.4L393.5,293.4z"/>
				</g>
			</g>
		</g>
		<g>
			<g>
				<g>
					<path class="st23" d="M394.9,292.6c-0.2,0-0.3-0.3,0-0.3C395.1,292.2,395.1,292.6,394.9,292.6L394.9,292.6z"/>
				</g>
			</g>
		</g>
		<g>
			<g>
				<g>
					<path class="st23" d="M395.3,295c-0.2,0-0.3-0.3,0-0.3C395.5,294.6,395.5,295,395.3,295L395.3,295z"/>
				</g>
			</g>
		</g>
		<g>
			<g>
				<g>
					<path class="st23" d="M396.3,293.4c-0.2,0-0.3-0.3,0-0.3C396.5,293.1,396.5,293.4,396.3,293.4L396.3,293.4z"/>
				</g>
			</g>
		</g>
		<g>
			<g>
				<g>
					<path class="st23" d="M395.8,291.4c-0.2,0-0.3-0.3,0-0.3C396,291,396,291.4,395.8,291.4L395.8,291.4z"/>
				</g>
			</g>
		</g>
		<g>
			<g>
				<g>
					<path class="st23" d="M386.8,295.5c-0.2,0-0.3-0.3,0-0.3C387,295.2,387,295.5,386.8,295.5L386.8,295.5z"/>
				</g>
			</g>
		</g>
		<g>
			<g>
				<path d="M384.6,292.4C384.6,292.4,384.7,292.4,384.6,292.4c1.1-0.7,3.1-0.8,3.1-0.8l0.6,0l-0.5-0.3c-2.1-1.5-4-0.4-4.1-0.3
					c-0.1,0.1-0.1,0.2-0.1,0.3c0.1,0.1,0.2,0.1,0.3,0.1c0.1,0,1.4-0.8,3.1,0c-0.7,0.1-1.8,0.3-2.6,0.7c-0.1,0.1-0.1,0.2-0.1,0.3
					C384.5,292.3,384.5,292.4,384.6,292.4z"/>
			</g>
		</g>
		<g>
			<g>
				<g>
					<polygon class="st8" points="385.4,466 390.1,618.3 413.2,620.6 430.3,460.1 					"/>
				</g>
			</g>
		</g>
		<g>
			<g>
				<g>
					<polygon class="st8" points="388.4,466 348.4,618.3 324.6,620.6 344.9,460.1 					"/>
				</g>
			</g>
		</g>
		<g>
			<path class="st4" d="M325.1,484.2c1.1-8.2,11.7-44.4,15.7-55.9c5.9-16.8,18-39.2,20.7-44.2l-6.8-18.3l-1.8,4
				c-16.3-5.1-27.7-15.9-27.7-15.9c15.4-21.7,19.8-25.6,25.3-31.3c5-3,9.1-5.2,19.7-6c14.1-1,30.5-0.1,30.6-0.1
				c2.3,0.3,16.3,1.7,19,4.5c0.7,0.7,4.5,8.1,8.4,23.2l1.8,8.4c-6.3,4.5-1.5,2.4-8.3,4.9l-1,1.4c-1.8,27.9-1.6,23.8-1.6,25.8
				l2.1,3.8c5.7,12.6,4.1,8.6,7.6,18c3.9,12.7,3.6,10.1,8.7,35.8c1.4,8.4,0.9,5.2,2,14c1,6,0.8,3.1,2.3,27.6
				c-0.8,20.9-0.3,8.8-0.9,23.7c-51.7,22.3-119.4-4.5-119.4-4.5L325.1,484.2z"/>
		</g>
		<g>
			<g>
				<g>
					<g>
						<g>
							<path class="st6" d="M355.3,326.5c0.1,0,0.2,0,0.2-0.1c2.4-3.2,6.4-4.5,6.4-4.6c0.1,0,0.2-0.2,0.2-0.3c0-0.1-0.2-0.2-0.3-0.2
								c-0.2,0.1-4.1,1.4-6.7,4.7c-0.1,0.1-0.1,0.3,0,0.4C355.2,326.5,355.3,326.5,355.3,326.5z"/>
						</g>
					</g>
				</g>
			</g>
			<g>
				<g>
					<g>
						<g>
							<path class="st6" d="M355.8,328.9c0.1,0,0.2,0,0.2-0.1c2.4-3.2,6.4-4.5,6.4-4.6c0.1,0,0.2-0.2,0.2-0.3c0-0.1-0.2-0.2-0.3-0.2
								c-0.2,0.1-4.1,1.4-6.7,4.7c-0.1,0.1-0.1,0.3,0,0.4C355.7,328.9,355.8,328.9,355.8,328.9z"/>
						</g>
					</g>
				</g>
			</g>
		</g>
		<g>
			<path d="M325,485.2C324.9,485.2,324.9,485.2,325,485.2c-0.3-0.1-0.5-0.3-0.4-0.5c12-60.6,34.6-97.8,36.4-100.7l-6.4-17.1
				l-1.5,3.5l-0.4-0.1c-18.2-5.8-27.9-15.7-28-15.8l-0.3-0.3l0.2-0.3c0.8-1.1,18.8-27,26.6-32.3c7.8-5.3,20.6-5.5,21.1-5.5h0
				c0.2,0,0.5,0.2,0.5,0.5c0,0.3-0.2,0.5-0.5,0.5c-0.1,0-13,0.1-20.6,5.3c-7.2,4.9-24,28.7-26.1,31.8c1.6,1.6,10.9,10,27,15.2
				l2.1-4.8l7.4,19.7l-0.1,0.2c-0.2,0.4-24,37.9-36.4,100.6C325.4,485.1,325.2,485.2,325,485.2z"/>
		</g>
		<g>
			<path d="M352.8,370.2c-0.1,0-0.1,0-0.2,0c-0.2-0.1-0.4-0.3-0.3-0.6l7.6-20.1c0.1-0.2,0.3-0.4,0.6-0.3c0.2,0.1,0.4,0.3,0.3,0.6
				l-7.6,20.1C353.2,370.1,353,370.2,352.8,370.2z"/>
		</g>
		<g>
			<path d="M367.9,385.1C367.9,385.1,367.9,385.1,367.9,385.1l-6.5-0.7c-0.2,0-0.4-0.2-0.4-0.5c0-0.2,0.2-0.4,0.5-0.4l6.5,0.7
				c0.2,0,0.4,0.2,0.4,0.5C368.4,385,368.2,385.1,367.9,385.1z"/>
		</g>
		<g>
			<path d="M440.8,508.1C440.8,508.1,440.8,508.1,440.8,508.1c-0.3,0-0.5-0.2-0.5-0.5c2.6-41.6-3.5-72.7-9-91.5
				c-6-20.4-12.7-31-12.7-31.1l-0.1-0.1l2-26.4l0.1-0.1c8.3-12.7-1.3-22.7-1.7-23.1c-0.2-0.2-0.2-0.5,0-0.6c0.2-0.2,0.5-0.2,0.6,0
				c0.1,0.1,10.5,10.9,1.9,24.1l-1.9,25.9c0.8,1.3,7.1,11.9,12.7,31.2c5.6,18.9,11.6,50.1,9,91.9
				C441.3,507.9,441.1,508.1,440.8,508.1z"/>
		</g>
		<g>
			<path d="M413.4,358.7h-25c-0.2,0-0.5-0.2-0.5-0.5c0-0.3,0.2-0.5,0.5-0.5h25c0.3,0,0.5,0.2,0.5,0.5
				C413.8,358.5,413.6,358.7,413.4,358.7z"/>
		</g>
		<g>
			<path d="M409.8,363h-16.6c-0.3,0-0.5-0.2-0.5-0.5c0-0.3,0.2-0.5,0.5-0.5h16.6c0.3,0,0.5,0.2,0.5,0.5
				C410.2,362.8,410,363,409.8,363z"/>
		</g>
		<g>
			<g>
				<g>
					<g>
						<g>
							<g>
								<g>
									<path class="st2" d="M437.3,627.9h-47.2v-9.6c0,0,3.4-4.6,8.7-2.3c0,0,7.7,5.7,14.7-1.1l17.5,7.6
										C430.9,622.5,437.3,624.6,437.3,627.9z"/>
								</g>
							</g>
						</g>
					</g>
				</g>
			</g>
			<g>
				<g>
					<g>
						<g>
							<g>
								<g>
									<path class="st0" d="M390.1,631.3h47.6c0.9,0,1.7-0.8,1.7-1.7l0,0c0-0.9-0.8-1.7-1.7-1.7h-47.6V631.3z"/>
								</g>
							</g>
						</g>
					</g>
				</g>
			</g>
		</g>
		<g>
			<g>
				<g>
					<g>
						<g>
							<g>
								<g>
									<path class="st2" d="M301.4,627.9h47.2v-9.6c0,0-3.4-4.6-8.7-2.3c0,0-7.7,5.7-14.7-1.1l-17.5,7.6
										C307.7,622.5,301.4,624.6,301.4,627.9z"/>
								</g>
							</g>
						</g>
					</g>
				</g>
			</g>
			<g>
				<g>
					<g>
						<g>
							<g>
								<g>
									<path class="st0" d="M348.6,631.3H301c-0.9,0-1.7-0.8-1.7-1.7l0,0c0-0.9,0.8-1.7,1.7-1.7h47.6V631.3z"/>
								</g>
							</g>
						</g>
					</g>
				</g>
			</g>
		</g>
		<g>
			<path d="M421.6,357.9c-0.2,0-0.4-0.2-0.4-0.4c0-0.2,0.1-0.5,0.4-0.5c4.2-0.6,7.2-4,7.9-4.8c-0.2-0.7-0.4-1.7-0.7-3
				c-1.9-8.2-6.5-27.3-11.3-29c-5.7-2-15.3-3.2-15.4-3.2c-0.2,0-0.4-0.3-0.4-0.5c0-0.2,0.3-0.4,0.5-0.4c0.1,0,9.8,1.2,15.6,3.3
				c5.3,1.9,9.7,20.6,11.8,29.6c0.3,1.4,0.6,2.5,0.8,3.2l0.1,0.2l-0.1,0.2C430.2,352.8,426.8,357.2,421.6,357.9
				C421.7,357.9,421.7,357.9,421.6,357.9z"/>
		</g>
		<g>
			<g>
				<g>
					<g>
						<path class="st14" d="M393,298.3c-0.1,0-5.2-0.4-5.2-0.4s0.5,2.2,2.4,2.3C392.1,300.3,393,298.3,393,298.3z"/>
					</g>
				</g>
			</g>
		</g>
		<g>
			<g>
				<path class="st12" d="M346.9,421.4c0,0,2.9-0.9,5.4-2.3c2.6-1.4,2.7,0.8,2.2,1.7c-0.5,0.9-3.3,3.8-3.3,3.8L346.9,421.4z"/>
			</g>
			<g>
				<path class="st8" d="M345,420.9c0,0.1,0.1,0.2,0.1,0.2c4.2,0.6,9,1.3,10.2,1.4c2.2,0.3,9.2,3.7,11.2,5.9c3.6,4,1,3.9,1,3.9
					c3.3,4.5-0.8,3.8-0.8,3.8c3.3,3.8-0.7,3.8-0.7,3.8c1.6,2.2,1,3.1,0.3,3.4c-0.5,0.2-1.2,0.2-1.7-0.1c-1-0.5-3-1.7-5.2-2.9l0,0
					c0,0-7.1-2.3-19.9-4.9l-5-1.5L345,420.9z"/>
			</g>
			<g>
				<g>
					<g>
						<g>
							<g>
								<g>
									<g>
										<g>
											<g>
												<path class="st12" d="M361.9,436.5c-0.1,0-0.2,0-0.3,0.1c-0.1,0.1,0,0.3,0.1,0.4c1.8,1,4.2,3.2,4.2,3.2
													c0.1,0.1,0.3,0.1,0.4,0c0.1-0.1,0.1-0.3,0-0.4C366.2,439.7,363.8,437.6,361.9,436.5
													C361.9,436.5,361.9,436.5,361.9,436.5z"/>
											</g>
										</g>
									</g>
								</g>
							</g>
						</g>
					</g>
				</g>
				<g>
					<g>
						<g>
							<g>
								<g>
									<g>
										<g>
											<g>
												<path class="st12" d="M362.6,433.2c-0.1,0-0.3,0-0.3,0.2c-0.1,0.1,0,0.3,0.1,0.3c2.3,0.9,4.2,2.6,4.2,2.6
													c0.1,0.1,0.3,0.1,0.4,0c0.1-0.1,0.1-0.3,0-0.4C366.9,435.9,365,434.2,362.6,433.2C362.6,433.2,362.6,433.2,362.6,433.2z
													"/>
											</g>
										</g>
									</g>
								</g>
							</g>
						</g>
					</g>
				</g>
				<g>
					<g>
						<g>
							<g>
								<g>
									<g>
										<g>
											<g>
												<path class="st12" d="M363.9,429.6c-0.1,0-0.2,0-0.3,0.2c-0.1,0.1,0,0.3,0.1,0.4c2,0.9,3.6,2.5,3.6,2.5
													c0.1,0.1,0.3,0.1,0.4,0c0.1-0.1,0.1-0.3,0-0.4C367.7,432.1,366,430.5,363.9,429.6C364,429.6,363.9,429.6,363.9,429.6z"
													/>
											</g>
										</g>
									</g>
								</g>
							</g>
						</g>
					</g>
				</g>
			</g>
		</g>
		<g>
			<path class="st8" d="M311.3,386.9c-0.1-4.2,10.7-22.8,15.1-30.9c6.7,5.9,16.5,10.6,20.9,12.3c-4.3,6.8-9.2,15.8-11.2,19
				c-2,3.2,5.7,27.2,9,33.7c0.1,0.3,0,0.6,0.2,0.8L334.6,434C327.3,427.2,311.6,401.5,311.3,386.9z"/>
		</g>
	</g>
</g>
</svg>
