<?xml version="1.0" encoding="utf-8"?>
<!-- Generator: Adobe Illustrator 21.0.0, SVG Export Plug-In . SVG Version: 6.00 Build 0)  -->
<svg version="1.1" id="Layer_1" xmlns="http://www.w3.org/2000/svg" xmlns:xlink="http://www.w3.org/1999/xlink" x="0px" y="0px"
	 viewBox="0 0 40.9 38.1" style="enable-background:new 0 0 40.9 38.1;" xml:space="preserve">
<style type="text/css">
	.st0{fill:#D1AE6C;}
</style>
<g>
	<g>
		<g>
			<path class="st0" d="M33.5,16.6c-0.3-0.7-1-1.2-1.7-1.2c-0.8,0-1.5,0.5-1.7,1.2h-3.8v-2.5h2.5c0.3,0,0.6-0.3,0.6-0.6v0V11
				c1-0.3,1.5-1.4,1.1-2.3c-0.3-1-1.4-1.5-2.3-1.1c-1,0.3-1.5,1.4-1.1,2.3c0.2,0.5,0.6,0.9,1.1,1.1v2h-1.8v-1.2
				c0-0.3-0.3-0.6-0.6-0.6h0h-1.2V7.9c1-0.3,1.5-1.4,1.1-2.3c-0.3-1-1.4-1.5-2.3-1.1c-1,0.3-1.5,1.4-1.1,2.3
				c0.2,0.5,0.6,0.9,1.1,1.1v3.2h-2.5V1.3c0-0.3-0.3-0.6-0.6-0.6h0c-7.6,0-13.5,5.5-13.5,12.5c0,3.3,1.3,7.7,3.4,11.5
				c0.4,0.7,0.9,1.4,1.4,2.1c1.1,1.6,2.4,3.4,2.5,4.9c-0.5,0.3-0.7,0.9-0.7,1.5c0,0.4,0.1,0.8,0.4,1.1c-0.4,0.4-0.6,0.8-0.6,1.4
				c0,1,0.8,1.8,1.8,1.8h10.4c1,0,1.8-0.8,1.8-1.9c0,0,0,0,0,0c0-0.5-0.2-1-0.6-1.3c0.3-0.3,0.4-0.7,0.4-1.2c0-1-0.8-1.8-1.8-1.8
				c0,0-0.1,0-0.1,0h-4.4V19.7H22v1.8c0,0.3,0.3,0.6,0.6,0.6h0h1.8v0.7c-1,0.3-1.5,1.4-1.1,2.3c0.3,1,1.4,1.5,2.3,1.1
				c1-0.3,1.5-1.4,1.1-2.3c-0.2-0.5-0.6-0.9-1.1-1.1v-1.3c0-0.3-0.3-0.6-0.6-0.6h0h-1.8v-1.2h2.5c0.3,0,0.6-0.3,0.6-0.6v0v-1.2h3.8
				c0.3,1,1.4,1.5,2.3,1.1C33.4,18.6,33.9,17.5,33.5,16.6z M28.7,8.6c0.3,0,0.6,0.3,0.6,0.6s-0.3,0.6-0.6,0.6s-0.6-0.3-0.6-0.6
				C28.1,8.9,28.4,8.6,28.7,8.6z M12.5,26c-0.5-0.7-1-1.4-1.3-2c-2-3.5-3.3-7.8-3.3-10.9C7.9,7,12.9,2.2,19.5,1.9v4.3
				c-0.2,0-0.3,0-0.5,0c-0.3,0-0.5,0.2-0.5,0.5l-0.2,0.9c-0.2,0-0.3,0.1-0.5,0.1L17.2,7c-0.2-0.2-0.5-0.3-0.7-0.2
				c-0.7,0.3-1.3,0.7-1.9,1.1c-0.2,0.2-0.3,0.4-0.2,0.7l0.3,0.9c-0.1,0.1-0.2,0.2-0.3,0.3l-0.9-0.3c-0.2-0.1-0.5,0-0.7,0.2
				c-0.5,0.6-0.8,1.2-1.1,1.9c-0.1,0.2,0,0.5,0.2,0.7l0.7,0.6c0,0.2-0.1,0.3-0.1,0.5l-1,0.2c-0.3,0.1-0.5,0.3-0.5,0.6v2.1
				c0,0.3,0.2,0.5,0.5,0.6l1,0.2c0,0.2,0.1,0.3,0.1,0.5l-0.7,0.6c-0.2,0.2-0.3,0.5-0.2,0.7c0.3,0.7,0.7,1.3,1.1,1.9
				c0.2,0.2,0.4,0.3,0.7,0.2l0.9-0.3c0.1,0.1,0.2,0.2,0.3,0.3L14.4,22c-0.1,0.2,0,0.5,0.2,0.7c0.6,0.5,1.2,0.8,1.9,1.1
				c0.2,0.1,0.5,0,0.7-0.2l0.6-0.7c0.2,0,0.3,0.1,0.5,0.1l0.2,0.9c0.1,0.3,0.3,0.5,0.5,0.5c0.2,0,0.3,0,0.5,0v6.8h-4.3
				C14.9,29.5,13.7,27.7,12.5,26z M14.6,15.4c0,2.8,2.1,5.2,4.9,5.5V23l-0.1-0.5c-0.1-0.2-0.2-0.4-0.5-0.5c-0.4-0.1-0.7-0.2-1.1-0.3
				c-0.1,0-0.1,0-0.2,0c-0.2,0-0.3,0.1-0.5,0.2l-0.6,0.6c-0.3-0.2-0.6-0.3-0.9-0.5l0.3-0.8c0.1-0.2,0-0.5-0.2-0.7
				c-0.3-0.2-0.5-0.5-0.8-0.8c-0.2-0.2-0.4-0.3-0.7-0.2l-0.8,0.3c-0.2-0.3-0.4-0.6-0.5-0.9l0.6-0.6c0.2-0.2,0.3-0.4,0.2-0.7
				c-0.1-0.3-0.2-0.7-0.3-1.1c0-0.2-0.2-0.4-0.5-0.5l-0.9-0.2v-1.1l0.9-0.2c0.2,0,0.4-0.2,0.5-0.5c0.1-0.4,0.2-0.7,0.3-1.1
				c0.1-0.2,0-0.5-0.2-0.7L13,11.8c0.2-0.3,0.3-0.6,0.5-0.9l0.8,0.3c0.2,0.1,0.5,0,0.7-0.2c0.2-0.3,0.5-0.5,0.8-0.8
				C16,10.1,16,9.8,16,9.6l-0.3-0.8c0.3-0.2,0.6-0.4,0.9-0.5l0.6,0.6C17.4,9,17.6,9.1,17.9,9c0.3-0.1,0.7-0.2,1.1-0.3
				c0.2,0,0.4-0.2,0.5-0.5l0.1-0.5v2.1C16.7,10.2,14.6,12.6,14.6,15.4z M19.5,11.1v8.5c-2.3-0.3-4-2.5-3.6-4.9
				C16.2,12.9,17.6,11.4,19.5,11.1z M26,35.6c0,0.3-0.3,0.6-0.6,0.6H14.9c-0.3,0-0.6-0.3-0.6-0.6c0,0,0,0,0,0c0-0.3,0.3-0.6,0.6-0.6
				h10.4C25.7,35,26,35.3,26,35.6C26,35.6,26,35.6,26,35.6z M25.2,32.6c0.3,0,0.6,0.2,0.6,0.5c0,0,0,0,0,0.1c0,0.3-0.3,0.6-0.6,0.6
				H15.1c-0.3,0-0.6-0.3-0.6-0.6c0,0,0,0,0,0c0-0.3,0.3-0.5,0.6-0.5c0,0,0,0,0,0L25.2,32.6L25.2,32.6z M25,23.9
				c0.3,0,0.6,0.3,0.6,0.6s-0.3,0.6-0.6,0.6s-0.6-0.3-0.6-0.6C24.4,24.2,24.7,23.9,25,23.9z M23.8,5.5c0.3,0,0.6,0.3,0.6,0.6
				s-0.3,0.6-0.6,0.6s-0.6-0.3-0.6-0.6C23.2,5.8,23.5,5.5,23.8,5.5z M25,18.4h-4.3v-6.1H25V18.4z M31.8,17.8c-0.3,0-0.6-0.3-0.6-0.6
				s0.3-0.6,0.6-0.6c0.3,0,0.6,0.3,0.6,0.6C32.4,17.5,32.1,17.8,31.8,17.8z"/>
		</g>
	</g>
	<g>
		<g>
			<path class="st0" d="M26.1,28.7c-0.2,0.4-0.4,0.8-0.6,1.2l1.1,0.5c0.1-0.4,0.3-0.7,0.5-1.1L26.1,28.7z"/>
		</g>
	</g>
	<g>
		<g>
			<path class="st0" d="M27.4,26.5c-0.2,0.3-0.5,0.7-0.7,1.1l1,0.7c0.2-0.3,0.5-0.7,0.7-1L27.4,26.5z"/>
		</g>
	</g>
	<g>
		<g>
			<path class="st0" d="M28.8,24.5c-0.2,0.3-0.4,0.7-0.7,1l1,0.7c0.3-0.4,0.5-0.7,0.7-1.1L28.8,24.5z"/>
		</g>
	</g>
	<g>
		<g>
			<path class="st0" d="M30,22.4c-0.2,0.4-0.4,0.7-0.6,1.1l1.1,0.6c0.2-0.4,0.4-0.8,0.6-1.1L30,22.4z"/>
		</g>
	</g>
	<g>
		<g>
			<path class="st0" d="M30.9,20.1c-0.1,0.4-0.3,0.8-0.5,1.1l1.1,0.5c0.2-0.4,0.3-0.8,0.5-1.2L30.9,20.1z"/>
		</g>
	</g>
	<g>
		<g>
			<path class="st0" d="M33.6,13l-1.2,0l0,0.1c0,0.3,0,0.7,0,1.1l1.2,0.1c0-0.4,0.1-0.8,0.1-1.2L33.6,13z"/>
		</g>
	</g>
	<g>
		<g>
			<path class="st0" d="M33.3,10.4l-1.2,0.3c0.1,0.4,0.2,0.8,0.2,1.2l1.2-0.1C33.5,11.3,33.4,10.8,33.3,10.4z"/>
		</g>
	</g>
	<g>
		<g>
			<path class="st0" d="M32.4,7.9l-1.1,0.5c0.2,0.4,0.3,0.7,0.5,1.1l1.2-0.4C32.8,8.7,32.6,8.3,32.4,7.9z"/>
		</g>
	</g>
	<g>
		<g>
			<path class="st0" d="M31,5.7l-1,0.8c0.2,0.3,0.5,0.6,0.7,1l1-0.7C31.6,6.4,31.3,6,31,5.7z"/>
		</g>
	</g>
	<g>
		<g>
			<path class="st0" d="M29.2,3.8l-0.8,0.9C28.7,5,29,5.3,29.3,5.6l0.9-0.9C29.9,4.4,29.5,4.1,29.2,3.8z"/>
		</g>
	</g>
	<g>
		<g>
			<path class="st0" d="M27,2.4l-0.6,1.1c0.4,0.2,0.7,0.4,1,0.6l0.7-1C27.8,2.8,27.4,2.6,27,2.4z"/>
		</g>
	</g>
	<g>
		<g>
			<path class="st0" d="M24.6,1.4l-0.4,1.2c0.4,0.1,0.8,0.3,1.1,0.4l0.5-1.1C25.5,1.6,25,1.5,24.6,1.4z"/>
		</g>
	</g>
	<g>
		<g>
			<path class="st0" d="M22.1,0.8L21.9,2c0.4,0.1,0.8,0.1,1.2,0.2L23.4,1C22.9,0.9,22.5,0.8,22.1,0.8z"/>
		</g>
	</g>
	<g>
		<g>
			<rect x="3" y="33.8" class="st0" width="1.2" height="1.2"/>
		</g>
	</g>
	<g>
		<g>
			<rect x="3" y="36.2" class="st0" width="1.2" height="1.2"/>
		</g>
	</g>
	<g>
		<g>
			<rect x="4.2" y="35" class="st0" width="1.2" height="1.2"/>
		</g>
	</g>
	<g>
		<g>
			<rect x="1.7" y="35" class="st0" width="1.2" height="1.2"/>
		</g>
	</g>
	<g>
		<g>
			<rect x="36.7" y="0.6" class="st0" width="1.2" height="1.2"/>
		</g>
	</g>
	<g>
		<g>
			<rect x="36.7" y="3.1" class="st0" width="1.2" height="1.2"/>
		</g>
	</g>
	<g>
		<g>
			<rect x="37.9" y="1.9" class="st0" width="1.2" height="1.2"/>
		</g>
	</g>
	<g>
		<g>
			<rect x="35.5" y="1.9" class="st0" width="1.2" height="1.2"/>
		</g>
	</g>
</g>
</svg>
