<?xml version="1.0" encoding="utf-8"?>
<!-- Generator: Adobe Illustrator 21.0.0, SVG Export Plug-In . SVG Version: 6.00 Build 0)  -->
<svg version="1.1" id="_x3C_Layer_x3E_" xmlns="http://www.w3.org/2000/svg" xmlns:xlink="http://www.w3.org/1999/xlink" x="0px"
	 y="0px" viewBox="0 0 1863.2 1802.9" style="enable-background:new 0 0 1863.2 1802.9;" xml:space="preserve">
<style type="text/css">
	.st0{fill:url(#SVGID_1_);}
	.st1{fill:url(#SVGID_2_);}
	.st2{fill:url(#SVGID_3_);}
	.st3{fill:url(#SVGID_4_);}
	.st4{fill:url(#SVGID_5_);}
	.st5{fill:url(#SVGID_6_);}
	.st6{fill:url(#SVGID_7_);}
	.st7{opacity:0.18;fill:#A7A9AC;}
	.st8{fill:#CAA669;}
	.st9{fill:#FFFFFF;}
	.st10{fill:url(#SVGID_8_);}
	.st11{fill:url(#SVGID_9_);}
	.st12{fill:#BDC1C9;}
	.st13{fill:#323657;}
	.st14{opacity:0.18;fill:url(#SVGID_10_);}
	.st15{opacity:0.18;fill:url(#SVGID_11_);}
	.st16{filter:url(#Adobe_OpacityMaskFilter);}
	.st17{filter:url(#Adobe_OpacityMaskFilter_1_);}
	.st18{mask:url(#SVGID_12_);fill:url(#SVGID_13_);}
	.st19{fill:url(#SVGID_14_);}
	.st20{opacity:0.18;fill:url(#SVGID_15_);}
	.st21{opacity:0.18;fill:url(#SVGID_16_);}
	.st22{opacity:0.18;fill:url(#SVGID_17_);}
	.st23{opacity:0.18;fill:url(#SVGID_18_);}
	.st24{opacity:0.18;fill:url(#SVGID_19_);}
	.st25{fill:url(#SVGID_20_);}
	.st26{fill:url(#SVGID_21_);}
	.st27{fill:#A7A9AC;}
	.st28{fill:url(#SVGID_22_);}
	.st29{fill:#353A3D;}
	.st30{fill:#81807E;}
	.st31{fill:#514E58;}
	.st32{fill:#3E3B42;}
	.st33{fill:#EEA886;}
	.st34{fill:#EAD8CF;}
	.st35{fill:#495055;}
	.st36{fill:#D5BCB1;}
	.st37{fill:#5D676C;}
	.st38{fill:#BEA698;}
	.st39{fill:#A77860;}
	.st40{fill:#515154;}
	.st41{fill:#EB4747;}
	.st42{fill:#A89C95;}
	.st43{fill:#D5BBAF;}
	.st44{fill:#807066;}
	.st45{fill:#EEA987;}
	.st46{fill:#C78D71;}
	.st47{fill:#C49B60;}
	.st48{fill:#434343;}
	.st49{opacity:0.45;fill:url(#SVGID_23_);}
	.st50{opacity:0.42;fill:url(#SVGID_24_);}
	.st51{opacity:0.42;fill:url(#SVGID_25_);}
	.st52{opacity:0.42;fill:url(#SVGID_26_);}
	.st53{fill:url(#SVGID_27_);}
	.st54{fill:url(#SVGID_28_);}
	.st55{fill:#344052;}
	.st56{fill:#EDDAD3;}
	.st57{fill:#393D63;}
	.st58{fill:url(#SVGID_29_);}
	.st59{fill:#EFAA88;}
	.st60{fill:#424773;}
	.st61{fill:#E2D2CA;}
	.st62{fill:url(#SVGID_30_);}
</style>
<linearGradient id="SVGID_1_" gradientUnits="userSpaceOnUse" x1="1369.6853" y1="1424.2915" x2="702.2706" y2="-72.3347">
	<stop  offset="0" style="stop-color:#D9D9D9"/>
	<stop  offset="1" style="stop-color:#FFFFFF"/>
</linearGradient>
<polygon class="st0" points="1059.8,148.3 1055.9,153.4 1730.8,671.5 1332.7,1429.9 299.4,576 783.5,530.4 786.4,532.5 790.2,527.3 
	787.9,525.7 787.7,523.5 785.3,523.8 246.7,130.8 242.9,136 775.7,524.7 283.4,571 1334.7,1439.9 1737.7,672.1 1739,669.7 "/>
<linearGradient id="SVGID_2_" gradientUnits="userSpaceOnUse" x1="1813.981" y1="873.1273" x2="1712.1851" y2="612.4308">
	<stop  offset="0" style="stop-color:#D9D9D9"/>
	<stop  offset="1" style="stop-color:#FFFFFF"/>
</linearGradient>
<circle class="st1" cx="1734.9" cy="670.6" r="78.6"/>
<linearGradient id="SVGID_3_" gradientUnits="userSpaceOnUse" x1="1152.4618" y1="423.8325" x2="1005.1775" y2="46.6416">
	<stop  offset="0" style="stop-color:#D9D9D9"/>
	<stop  offset="1" style="stop-color:#FFFFFF"/>
</linearGradient>
<circle class="st2" cx="1038" cy="130.8" r="113.7"/>
<linearGradient id="SVGID_4_" gradientUnits="userSpaceOnUse" x1="413.1465" y1="473.3807" x2="265.8622" y2="96.1898">
	<stop  offset="0" style="stop-color:#D9D9D9"/>
	<stop  offset="1" style="stop-color:#FFFFFF"/>
</linearGradient>
<circle class="st3" cx="298.7" cy="180.4" r="113.7"/>
<linearGradient id="SVGID_5_" gradientUnits="userSpaceOnUse" x1="875.9664" y1="644.2058" x2="803.9643" y2="448.062">
	<stop  offset="0" style="stop-color:#D9D9D9"/>
	<stop  offset="1" style="stop-color:#FFFFFF"/>
</linearGradient>
<circle class="st4" cx="819" cy="489.1" r="132.4"/>
<linearGradient id="SVGID_6_" gradientUnits="userSpaceOnUse" x1="1354.3341" y1="1495.5271" x2="1312.5162" y2="1372.957">
	<stop  offset="0" style="stop-color:#D9D9D9"/>
	<stop  offset="1" style="stop-color:#FFFFFF"/>
</linearGradient>
<circle class="st5" cx="1333.7" cy="1434.9" r="45.6"/>
<linearGradient id="SVGID_7_" gradientUnits="userSpaceOnUse" x1="335.112" y1="704.6979" x2="273.0417" y2="518.4865">
	<stop  offset="0" style="stop-color:#D9D9D9"/>
	<stop  offset="1" style="stop-color:#FFFFFF"/>
</linearGradient>
<circle class="st6" cx="291.4" cy="573.5" r="64.7"/>
<path class="st7" d="M1610.6,1069H946.2c-9.4,0-17-7.6-17-17V446.5c0-9.4,7.6-17,17-17h664.3c9.4,0,17,7.6,17,17V1052
	C1627.6,1061.4,1619.9,1069,1610.6,1069z"/>
<g>
	<polygon class="st8" points="1544.4,653.1 1543.8,649.4 1453.8,664.1 1424.6,726.3 1327.6,732.9 1296.2,779.2 1222,777.4 
		1222,781.1 1298.2,783 1329.7,736.5 1427.1,729.9 1456.3,667.5 	"/>
</g>
<path class="st8" d="M1426.1,549h113.6c1.5,0,2.8-1.2,2.8-2.8v-16.7c0-1.5-1.2-2.8-2.8-2.8h-113.6c-1.5,0-2.8,1.2-2.8,2.8v16.7
	C1423.3,547.7,1424.6,549,1426.1,549z"/>
<path class="st9" d="M1426.1,587.6h113.6c1.5,0,2.8-1.2,2.8-2.8v-16.7c0-1.5-1.2-2.8-2.8-2.8h-113.6c-1.5,0-2.8,1.2-2.8,2.8v16.7
	C1423.3,586.4,1424.6,587.6,1426.1,587.6z"/>
<path class="st9" d="M1426.1,626.3h113.6c1.5,0,2.8-1.2,2.8-2.8v-16.7c0-1.5-1.2-2.8-2.8-2.8h-113.6c-1.5,0-2.8,1.2-2.8,2.8v16.7
	C1423.3,625.1,1424.6,626.3,1426.1,626.3z"/>
<path class="st8" d="M1354.5,580H992.7c-2.5,0-4.6-2.1-4.6-4.6v-44c0-2.5,2.1-4.6,4.6-4.6h361.9c2.5,0,4.6,2.1,4.6,4.6v44
	C1359.1,578,1357.1,580,1354.5,580z"/>
<path class="st9" d="M1354.5,656.4H992.7c-2.5,0-4.6-2.1-4.6-4.6v-44c0-2.5,2.1-4.6,4.6-4.6h361.9c2.5,0,4.6,2.1,4.6,4.6v44
	C1359.1,654.3,1357.1,656.4,1354.5,656.4z"/>
<g>
	<g>
		<g>
			<path class="st9" d="M1565.8,876.4c-24.5-33.5-67.2-45.9-104.6-33.5c-9.1,3-17.8,7.4-25.9,13.4c-24.6,18-37.8,45.7-38.2,74
				c-0.3,19.6,5.6,39.4,18,56.5c1.2,1.7,2.5,3.3,3.9,4.9c6,7.2,13,13.3,20.5,18.2c31.6,20.6,73.9,20.7,106.1-2.9
				C1587.2,976.5,1596.2,918,1565.8,876.4z M1531.8,988.1c-24.2,17.7-55.9,17.6-79.6,2.2c-5.6-3.7-10.8-8.2-15.4-13.6
				c-1-1.2-2-2.4-2.9-3.7c-9.3-12.8-13.7-27.6-13.5-42.3c0.3-21.2,10.2-42,28.6-55.5c6.1-4.5,12.6-7.8,19.4-10
				c28-9.2,60,0,78.4,25.1C1569.8,921.4,1563,965.2,1531.8,988.1z"/>
		</g>
	</g>
</g>
<g>
	
		<linearGradient id="SVGID_8_" gradientUnits="userSpaceOnUse" x1="-1892.6265" y1="1198.3204" x2="-1578.5659" y2="1198.3204" gradientTransform="matrix(0.9221 -0.3869 0.3869 0.9221 1727.119 -1072.7805)">
		<stop  offset="0" style="stop-color:#F3B266"/>
		<stop  offset="1" style="stop-color:#CAA568"/>
	</linearGradient>
	<path class="st10" d="M496.8,798.6c8.9,8.8,18.9,16.2,29.7,22l-1.2,26l27.4,6.9l27.4,6.9l11.2-23.5c12.2-0.1,24.6-1.8,36.6-5.4
		l17.5,19.3l24.3-14.5l24.3-14.5l-8.7-24.5c8.8-8.9,16.2-18.9,22-29.7l26,1.2l6.9-27.4l6.9-27.4l-23.5-11.2
		c-0.1-12.2-1.8-24.6-5.4-36.6l19.3-17.5L723,624.3l-14.5-24.3l-24.5,8.7c-8.9-8.8-18.9-16.2-29.7-22l1.2-26l-27.4-6.9l-27.4-6.9
		l-11.2,23.5c-12.2,0.1-24.6,1.8-36.6,5.4l-17.5-19.3L511,571l-24.3,14.5l8.7,24.5c-8.8,8.9-16.2,18.9-22,29.7l-26-1.2l-6.9,27.4
		l-6.9,27.4l23.5,11.2c0.1,12.2,1.8,24.6,5.4,36.6l-19.3,17.5l14.5,24.3l14.5,24.3L496.8,798.6z M539.4,618.6
		c47-28.1,107.9-12.8,136,34.2c28.1,47,12.8,107.9-34.2,136c-47,28.1-107.9,12.8-136-34.2C477.1,707.6,492.4,646.7,539.4,618.6z"/>
</g>
<g>
	
		<linearGradient id="SVGID_9_" gradientUnits="userSpaceOnUse" x1="-1874.1788" y1="936.2949" x2="-1730.1993" y2="936.2949" gradientTransform="matrix(0.9221 -0.3869 0.3869 0.9221 1727.119 -1072.7805)">
		<stop  offset="0" style="stop-color:#F3B266"/>
		<stop  offset="1" style="stop-color:#CAA568"/>
	</linearGradient>
	<path class="st11" d="M384.7,531.4c4.1,4,8.7,7.4,13.6,10.1l-0.6,11.9l12.6,3.2l12.6,3.2L428,549c5.6,0,11.3-0.8,16.8-2.5l8,8.8
		l11.1-6.7l11.1-6.7l-4-11.2c4-4.1,7.4-8.7,10.1-13.6l11.9,0.6l3.2-12.6l3.2-12.6l-10.8-5.1c0-5.6-0.8-11.3-2.5-16.8l8.8-8
		l-6.7-11.1l-6.7-11.1l-11.2,4c-4.1-4-8.7-7.4-13.6-10.1l0.6-11.9l-12.6-3.2l-12.6-3.2l-5.1,10.8c-5.6,0-11.3,0.8-16.8,2.5l-8-8.8
		l-11.1,6.7l-11.1,6.7l4,11.2c-4,4.1-7.4,8.7-10.1,13.6L362,458l-3.2,12.6l-3.2,12.6l10.8,5.1c0,5.6,0.8,11.3,2.5,16.8l-8.8,8
		l6.7,11.1l6.7,11.1L384.7,531.4z M404.2,448.8c21.5-12.9,49.5-5.9,62.4,15.7c12.9,21.5,5.9,49.5-15.7,62.4
		c-21.5,12.9-49.5,5.9-62.4-15.7C375.7,489.6,382.7,461.7,404.2,448.8z"/>
</g>
<rect x="929.2" y="1033.8" class="st12" width="134.1" height="10.3"/>
<rect x="929.2" y="1055.8" class="st12" width="100.4" height="10.3"/>
<g>
	<g>
		<g>
			<path class="st13" d="M1444.5,931.5C1444.5,931.5,1444.5,931.5,1444.5,931.5C1444.2,931.6,1444.2,931.6,1444.5,931.5z"/>
		</g>
	</g>
</g>
<rect x="1127.4" y="1033.5" class="st12" width="74" height="10.3"/>
<rect x="1127.4" y="1055.5" class="st12" width="109.8" height="10.3"/>
<linearGradient id="SVGID_10_" gradientUnits="userSpaceOnUse" x1="1324.2544" y1="881.6622" x2="1444.5175" y2="881.6622">
	<stop  offset="0" style="stop-color:#D5E4FF"/>
	<stop  offset="1" style="stop-color:#EDFFFE"/>
</linearGradient>
<rect x="1324.3" y="872.1" class="st14" width="120.3" height="19.1"/>
<linearGradient id="SVGID_11_" gradientUnits="userSpaceOnUse" x1="1324.2544" y1="846.0082" x2="1469.9078" y2="846.0082">
	<stop  offset="0" style="stop-color:#D5E4FF"/>
	<stop  offset="1" style="stop-color:#EDFFFE"/>
</linearGradient>
<rect x="1324.3" y="836.5" class="st15" width="145.7" height="19.1"/>
<g>
	<defs>
		<filter id="Adobe_OpacityMaskFilter" filterUnits="userSpaceOnUse" x="827.4" y="1132.7" width="602.9" height="16.8">
			<feFlood  style="flood-color:white;flood-opacity:1" result="back"/>
			<feBlend  in="SourceGraphic" in2="back" mode="normal"/>
		</filter>
	</defs>
	<mask maskUnits="userSpaceOnUse" x="827.4" y="1132.7" width="602.9" height="16.8" id="SVGID_12_">
		<g class="st16">
			<defs>
				<filter id="Adobe_OpacityMaskFilter_1_" filterUnits="userSpaceOnUse" x="827.4" y="1132.7" width="602.9" height="16.8">
					<feFlood  style="flood-color:white;flood-opacity:1" result="back"/>
					<feBlend  in="SourceGraphic" in2="back" mode="normal"/>
				</filter>
			</defs>
			<mask maskUnits="userSpaceOnUse" x="827.4" y="1132.7" width="602.9" height="16.8" id="SVGID_12_">
				<g class="st17">
				</g>
			</mask>
			<linearGradient id="SVGID_13_" gradientUnits="userSpaceOnUse" x1="827.3633" y1="1141.0951" x2="1430.2524" y2="1141.0951">
				<stop  offset="0" style="stop-color:#FFFFFF"/>
				<stop  offset="0.8171" style="stop-color:#2F2F2F"/>
				<stop  offset="1" style="stop-color:#000000"/>
			</linearGradient>
			<polygon class="st18" points="1430.3,1149.5 875.5,1149.5 861.7,1135.7 827.4,1135.7 827.4,1132.7 863,1132.7 876.8,1146.4 
				1430.3,1146.4 			"/>
		</g>
	</mask>
	<linearGradient id="SVGID_14_" gradientUnits="userSpaceOnUse" x1="827.3633" y1="1141.0951" x2="1430.2524" y2="1141.0951">
		<stop  offset="0" style="stop-color:#D5E4FF"/>
		<stop  offset="0.8171" style="stop-color:#E9FAFE"/>
		<stop  offset="1" style="stop-color:#EDFFFE"/>
	</linearGradient>
	<polygon class="st19" points="1430.3,1149.5 875.5,1149.5 861.7,1135.7 827.4,1135.7 827.4,1132.7 863,1132.7 876.8,1146.4 
		1430.3,1146.4 	"/>
</g>
<linearGradient id="SVGID_15_" gradientUnits="userSpaceOnUse" x1="900.5588" y1="371.4449" x2="981.7733" y2="371.4449">
	<stop  offset="0" style="stop-color:#D5E4FF"/>
	<stop  offset="1" style="stop-color:#EDFFFE"/>
</linearGradient>
<polygon class="st20" points="900.6,378.8 981.8,378.8 981.8,364.1 900.6,364.1 "/>
<linearGradient id="SVGID_16_" gradientUnits="userSpaceOnUse" x1="900.5588" y1="358.607" x2="981.7733" y2="358.607">
	<stop  offset="0" style="stop-color:#D5E4FF"/>
	<stop  offset="1" style="stop-color:#EDFFFE"/>
</linearGradient>
<polygon class="st21" points="900.6,360 981.8,360 981.8,357.2 900.6,357.2 "/>
<linearGradient id="SVGID_17_" gradientUnits="userSpaceOnUse" x1="485.0695" y1="874.613" x2="527.3537" y2="874.613">
	<stop  offset="0" style="stop-color:#D5E4FF"/>
	<stop  offset="1" style="stop-color:#EDFFFE"/>
</linearGradient>
<polygon class="st22" points="495,884.9 527.4,884.9 517.4,864.3 485.1,864.3 "/>
<linearGradient id="SVGID_18_" gradientUnits="userSpaceOnUse" x1="469.9199" y1="874.613" x2="487.5441" y2="874.613">
	<stop  offset="0" style="stop-color:#D5E4FF"/>
	<stop  offset="1" style="stop-color:#EDFFFE"/>
</linearGradient>
<polygon class="st23" points="479.8,884.9 487.5,884.9 477.6,864.3 469.9,864.3 "/>
<linearGradient id="SVGID_19_" gradientUnits="userSpaceOnUse" x1="363.6252" y1="855.2738" x2="499.0684" y2="855.2738">
	<stop  offset="0" style="stop-color:#D5E4FF"/>
	<stop  offset="1" style="stop-color:#EDFFFE"/>
</linearGradient>
<polygon class="st24" points="368,860.4 499.1,860.4 494.7,850.1 363.6,850.1 "/>
<g>
	<linearGradient id="SVGID_20_" gradientUnits="userSpaceOnUse" x1="945.2033" y1="1592.9784" x2="945.2033" y2="1458.0575">
		<stop  offset="0" style="stop-color:#FFE9D9"/>
		<stop  offset="1" style="stop-color:#BABABA"/>
	</linearGradient>
	<polygon class="st25" points="896.1,1452.1 994.3,1452.1 994.3,1154 896.1,1154 	"/>
</g>
<g>
	<linearGradient id="SVGID_21_" gradientUnits="userSpaceOnUse" x1="945.2037" y1="752.9548" x2="945.2037" y2="1356.129">
		<stop  offset="0" style="stop-color:#FFE9D9"/>
		<stop  offset="1" style="stop-color:#D9D3CA"/>
	</linearGradient>
	<path class="st26" d="M533.4,1297.6H1357c6.6,0,11.9-5.3,11.9-11.9v-574c0-6.6-5.3-11.9-11.9-11.9H533.4c-6.6,0-11.9,5.3-11.9,11.9
		v574C521.5,1292.2,526.8,1297.6,533.4,1297.6z"/>
</g>
<g>
	<rect x="551.4" y="729" class="st27" width="786.1" height="459.9"/>
</g>
<linearGradient id="SVGID_22_" gradientUnits="userSpaceOnUse" x1="945.2033" y1="1440.8157" x2="945.2033" y2="1463.3174">
	<stop  offset="0" style="stop-color:#FFE9D9"/>
	<stop  offset="1" style="stop-color:#FFE9D9"/>
</linearGradient>
<rect x="724.4" y="1440.8" class="st28" width="441.5" height="22.5"/>
<g>
	<g>
		<g>
			<path class="st13" d="M585.4,1139.8C585.4,1139.8,585.4,1139.7,585.4,1139.8C585.6,1139.8,585.6,1139.8,585.4,1139.8z"/>
		</g>
	</g>
</g>
<path class="st29" d="M1475.6,1590.6c0,0-18.4,11.3-32.5,12.5c-14.1,1.2-22,3-23,12.3c-1,9.3,38,6.3,44.7,4.9
	c6.7-1.4,37.1,1.2,41.3-1.4c4.1-2.6-0.3-27.2-2.1-30.8C1502.2,1584.6,1475.6,1590.6,1475.6,1590.6z"/>
<path class="st30" d="M1476.4,1582.1l-0.1,8.5c0,0,19.8,2.9,25.7-2.3l0.8-7.9L1476.4,1582.1z"/>
<path class="st29" d="M1571,1588c0,0-11.3,13.3-23,16.4c-11.7,3.1-24.8,8.8-24.7,16.2c0.1,7.4,38.6,8.2,52.5,1.5
	c13.9-6.7,22-8.5,24.1-14.1c2.1-5.7-3.3-20.5-3.2-22.3C1596.9,1583.5,1571,1588,1571,1588z"/>
<path class="st30" d="M1570.8,1581.6c0,0,0.2,7.6,0.4,7.7c0.2,0.1,23.7,2.4,25.2-2.3c1.3-4.1,1.2-9,1.2-9L1570.8,1581.6z"/>
<path class="st8" d="M1509.3,1289c0,0-59.1,88.1-71.5,111.8c-11.6,21.9,6.5,62,9.3,77.8c2.9,16.5,26.6,98,24.9,103.8
	c-1.6,5.8,34.2-2,34.2-2s-18.6-136.9-20.5-151.5c-1.9-14.6,63.8-90.4,67.7-84.7c3.8,5.8,6.1,84.1,8,100
	c1.9,15.9,4.3,136.9,4.3,136.9s32.4,4.7,38.7-5.5c0,0,1.6-127.2,1.9-138.5c0.3-11.3,15.3-103.7,1.4-154.7
	C1600.3,1255.5,1509.3,1289,1509.3,1289z"/>
<polygon class="st31" points="1542.6,1066.1 1578.7,1032.1 1558.1,1013.8 1525.6,1049.5 "/>
<polygon class="st32" points="1543.6,1062.5 1574.8,1033.1 1557.1,1017.3 1528.9,1048.2 "/>
<path class="st33" d="M1522.2,1066.6c0,0,5.4-1.3,3.8-7.8c-1.6-6.5,0.9-8,0.9-8l18.9,18.3c0,0-9.2,8.8-12,9.2
	C1531.1,1078.7,1519.4,1070.2,1522.2,1066.6z"/>
<path class="st33" d="M1545.8,1069.1c0,0,11.5-7.4,12.6-8.5c1.1-1.1,6.2-6,8.3-8.9c2.1-2.9-6.3-2.2-8.7,0.8c-2.4,3-4.6,3.9-6.3,4.5
	c-1.7,0.7-11.9,1.3-13.9,4.3C1535.8,1064.4,1545.8,1069.1,1545.8,1069.1z"/>
<path class="st33" d="M1530.5,1046.9c0,0,1.4,1.8,2.5-0.3c1.1-2.1,1-6.9-1.8-5.7C1528.4,1042,1530.5,1046.9,1530.5,1046.9z"/>
<path class="st33" d="M1534,1040.5c0,0,0.5,3.6,2.2,2c1.7-1.6,3.5-7.5,0.5-7.4C1533.7,1035.2,1534,1040.5,1534,1040.5z"/>
<path class="st33" d="M1539,1035.3c0,0,0,4.3,2,3.1c1.5-0.9,3.7-8.6,0.7-8.5C1538.6,1030,1539,1035.3,1539,1035.3z"/>
<path class="st33" d="M1700.5,1284.3c0,0,6.7,4.8,10.7,3.9c4-0.9,9.7-0.2,11.5,0.2c2.4,0.4,10.4-0.9,9.5,2c-0.9,2.8-13.3,2.7-16,3.2
	c-2.7,0.5,5.6,7.5,5.8,10c0.3,2.5-14.9,16-19.8,10.5c-5-5.5-5.9-14.9-7-15.7c-1.1-0.8-3.8-3.9-3.8-3.9L1700.5,1284.3z"/>
<path class="st33" d="M1721.3,1301.9c0,0,13.9,18,13.6,20c-0.3,2-1.5,2.8-2.8,1.2c-1.4-1.6-14-17-14-17s12.2,24.3,12.4,26
	c0.1,1-2.1,2.6-3,1.8c-0.8-0.8-14.5-24.1-14.5-24.1s11.4,22.7,11.1,24.2c-0.3,1.3-2.7,2.3-3.6,0.7c-1-1.6-12.9-22-12.9-22
	s7.1,17.1,6,18.4c-0.6,0.7-2.5,2.2-4.2-2.3c-1.7-4.5-6.9-14.6-6.9-14.6L1721.3,1301.9z"/>
<path class="st34" d="M1710.5,1286.6c0,0-13.9,11-19.4,9.5c-5.5-1.5-51.3-64.5-55-75.5c-3.7-11-7.7-43.6-7.7-43.6
	s-11.8,32.8-13.4,48.5c-1.6,15.7-8,44.6-8,44.6l-93.9,5.7c0,0-3.7-5.7-2.1-18c1.6-12.2,5.9-41.3,3.1-57c-2.7-15.7-0.4-42.6-0.4-42.6
	s-39.3,11.8-43.9,13.1c-4.6,1.3-16.5-5.9-19.6-13.2c-3.1-7.3,71.4-95.6,71.4-95.6l17.2,14.7l-21.2,36.2c0.7-0.5,5.2-2.3,11.2-4.5
	c14.6-5.6,38.3-14.2,38.3-14.2s33.3-0.5,35.9-0.2c2.6,0.4,35.5,16.5,40.3,20.5c4.8,4,18,87.2,20.5,92.7
	C1666.5,1213.3,1710.5,1286.6,1710.5,1286.6z"/>
<path class="st35" d="M1513.1,1275.8c0,0-2.3,2.4-3.8,13.2c0,0,88.8-3.3,98.4-6.6c0,0,1.3-11.9-0.6-12.3
	C1604.8,1269.7,1513.1,1275.8,1513.1,1275.8z"/>
<path class="st33" d="M1603.1,1094.6c-0.9,4-31.7,27.7-31.7,27.7s-7-26.3-4.2-27.5c1.1-0.4,1.7-2.5,2-4.8c0.3-2.2,0.4-4.7,0.3-6.3
	c0-1,0-1.6,0-1.6s4.1-3.7,9.4-8.1c9.2-7.7,21.7-17.5,21.4-13.3c0,0.2-0.1,0.5-0.2,0.8C1597.3,1070.9,1603.1,1094.6,1603.1,1094.6z"
	/>
<polygon class="st36" points="1568.1,1093.9 1559.3,1097.9 1563.2,1133.1 1571.4,1122.2 "/>
<polygon class="st36" points="1602.7,1092.8 1571.4,1122.2 1575.4,1134.2 1612.9,1098.7 "/>
<path class="st37" d="M1586.7,1270.7c0,0,1,12.3,0.9,15.4l4.1-0.5c0,0-0.1-12.9-0.6-15.1L1586.7,1270.7z"/>
<path class="st37" d="M1520.5,1275c0,0-2.4,10.9-2.8,15l4.3-0.2c0,0,2-13.7,2.6-15.1L1520.5,1275z"/>
<g>
	<path class="st38" d="M1547.1,1272.9c0-0.1-0.1-3.9,0.4-19.6c0.2-6.4,0.7-23.9,3-34.4c3.3-15.5,3.6-22.7,2.4-36.1
		c-2-22.4,15.4-50,15.5-50.3l2.2,0.6c-0.1,0.3-16.5,27.4-14.5,49.4c1.2,13.7,0.8,22.3-2.6,38c-2.1,9.9-2.4,26.5-2.6,32.7
		c-0.4,15.3-0.6,19.3-0.6,19.4L1547.1,1272.9z"/>
</g>
<path class="st8" d="M1573.4,1133.9c0,0-2.3,42.8-30,49c-27.7,6.2-64.5,30.2-75.3,43.6l-13.2,17.4v-19.4c0,0,5.5-31.9,87.4-45.2
	c0,0,23.5-1.6,22.6-46.4C1564.9,1132.8,1573.5,1132,1573.4,1133.9z"/>
<path class="st39" d="M1594.5,1070.5C1594.5,1070.5,1594.5,1070.5,1594.5,1070.5c-0.1,0.1-1.3,1.7-3.5,4
	c-4.5,4.8-12.9,12.7-21.8,15.4c0.3-2.2,0.4-4.7,0.3-6.3c-0.9-0.1-1.8-0.3-2.6-0.5c2.7-4,6.5-8,6.5-8l5.5-1.2L1594.5,1070.5z"/>
<path class="st33" d="M1600.2,1060.6c-2.7,4.8-5,8.5-5.8,9.9c0,0,0,0,0,0c-0.5,0.9-1.7,2.4-3.5,4c-4.8,4.4-13.5,10-21.5,9.1
	c-0.9-0.1-1.8-0.3-2.6-0.5c-3.2-1-6.9-2.8-8.7-7.1c-14.1-34,0.1-59.7,0.1-59.7s46.6-9.3,52.7,5
	C1615.2,1031.4,1606.6,1049.2,1600.2,1060.6z"/>
<path class="st40" d="M1558.3,1016.3c0,0-6.6-9.7-7-17.8c-0.4-8,0.5-10.2,0.5-10.2s13.3,4.1,20.1,3.6c6.8-0.5,33.4-1.4,36.9,3.4
	c0,0,9.6-1.4,11,14.5c2.1,25.2-18,47.8-18,47.8s1.6-16-1.8-18.5c-3.4-2.4-6.9,2.4-6.9,2.4l-7.5,0.7c0,0,13.1-23.2-0.2-25.2
	C1572.1,1015.2,1565.9,1018.3,1558.3,1016.3z"/>
<path class="st33" d="M1593.9,1035.1c1.3-7.1,14.5-8.8,13-1.4c-1.5,7.5-8.4,14.2-11.4,13.7
	C1592.6,1046.9,1592.9,1040.5,1593.9,1035.1z"/>
<path class="st41" d="M1563.8,1132.3c0,0,5.3,4.5,11.3,0.8c0,0-2.3-10.4-3.6-10.8C1570,1121.9,1563.1,1130.4,1563.8,1132.3z"/>
<path class="st42" d="M1558.1,1272.2c0,0-13.1,0.5-17.4,1.2l0.6,14.5l17.7-1.1L1558.1,1272.2z"/>
<path class="st43" d="M1528.9,1108.9l-29.5,33.9l18.3-29.4C1518.5,1113,1522.9,1111.2,1528.9,1108.9z"/>
<circle class="st44" cx="981.4" cy="508.4" r="29.4"/>
<circle class="st44" cx="852.7" cy="508.4" r="29.4"/>
<g>
	<path class="st44" d="M836.1,501c-0.7-2.2-16-53.2,9.2-89.2c14.4-20.5,38.7-31.7,72.3-33.3c32.1-1.5,55.6,7.1,70,25.5
		c27.8,35.6,10.4,94.4,9.6,96.9l-11.8-3.6c0.2-0.5,16.3-55.2-7.6-85.8c-11.8-15.1-31.9-22.1-59.7-20.8c-29.6,1.4-50.7,10.8-62.8,28
		c-21.8,31-7.7,78.1-7.6,78.5L836.1,501z"/>
</g>
<g>
	<path class="st45" d="M929,395.8c0,0,69.5,11.7,57.7,120.6c-11.8,108.8-73.2,99.2-77.3,99.1c-4.1-0.2-61.7,1.3-64.8-131.8
		C844.7,483.7,843.9,385.3,929,395.8z"/>
</g>
<g>
	<path class="st45" d="M959.5,585.7c0,0-2.7,45.1,1.6,54.9c4.2,9.7-55.6,40.3-92.9,5.1c0,0,7.5-49,5.2-66.3
		C871.1,562.1,959.5,585.7,959.5,585.7z"/>
</g>
<path class="st46" d="M878.2,600.9c0,0,11.1,15.4,36.9,14.8c25.8-0.6,37-14,37-14s-12.2,25.5-37.1,25.3
	C890,626.7,878.2,600.9,878.2,600.9z"/>
<g>
	<g>
		<g>
			<path class="st33" d="M1332.6,858.4c0,0,21-6.6,22.7-19c1.4-10.6,10.9-23.2,13.8-27.1c3.9-5.2,9.9-25.6,16.5-20.8
				c6.6,4.9-8.3,34.2-10.2,40.9c-1.9,6.8,26.8-6.1,33.9-4.3c7.1,1.8,25.7,50.5,5,57c-20.7,6.6-47.2-0.1-50.6,1.8
				c-3.4,1.9-14.9,5.4-14.9,5.4L1332.6,858.4z"/>
		</g>
	</g>
</g>
<g>
	<g>
		<g>
			<path class="st33" d="M1404.1,828.5c0,0,64.7-15.9,69.9-13.3c5.2,2.6,5.8,6.1-0.1,7.8c-6,1.7-62.1,17.2-62.1,17.2
				s79.8-5.9,84.5-4.8c2.8,0.7,4.4,7.5,1.3,8.7c-3.1,1.2-81.8,11.6-81.8,11.6s74.5-5.4,78.1-3.3c3.2,1.9,3.2,8.5-2.3,9.3
				c-5.5,0.8-74.3,9.7-74.3,9.7s54.4-0.5,56.5,3.1c1.2,2.2,3,8-11.1,7.7c-14.1-0.3-47.3,2.5-47.3,2.5L1404.1,828.5z"/>
		</g>
	</g>
</g>
<g>
	<path class="st8" d="M1025.2,788.6c0,0,16.8,29.7,39.3,63c2.1,3.1,4.2,6.2,6.3,9.3c0,0,0,0,0,0c2.9,4.2,5.9,8.4,9,12.6
		c3.6,5,7.3,10,11.1,14.8c20.8,27,42.8,50,59.4,54.1c36,8.9,217.1-31.3,217.1-31.3l-14-71.2c0,0-63.5,21.6-105.9,25.1
		c-26,2.2-58.5,10.7-62.3,8.3c-3.9-2.4-78.1-109.5-83.4-121c-5.3-11.6-29-56.9-49.3-78.5c-20.2-21.7-42.2-13.4-42.2-13.4
		C949.6,700,1025.2,788.6,1025.2,788.6z"/>
</g>
<path class="st8" d="M1049.9,942.6c-8.8,32.5-7.1,177.3-2.2,246.3H745.4c9.3-50.2,26.9-153.1,22.3-190.8
	c-7.9-64.8-23.4-223.9-23.4-223.9s-0.1-21.3,1.2-45.1c1.5-27.1,4.7-57.6,12-63.8c13.7-11.6,114.7-24.4,114.7-24.4h81.4
	c0,0,77.8,16.1,87,24.3c5.7,5,13.9,34.8,20.1,63.9c4.7,22,8.2,43.5,8.6,53.7C1070.4,806.5,1059.9,905.6,1049.9,942.6z"/>
<path class="st8" d="M801.4,660.5c0,0,48.7,13.4,21.9,102.9c-21,70.1-23.8,85.1-23.8,85.1L687,820.5c0,0,28.8-148,82.6-160.8
	C769.7,659.7,791,655.8,801.4,660.5z"/>
<path class="st47" d="M1064.5,851.6c2.1,3.1,4.2,6.2,6.3,9.3c0,0,0,0,0,0c2.9,4.2,5.9,8.4,9,12.6c2.3-41.7-8.7-99.5-8.7-99.5
	C1073.2,793.5,1064.5,851.6,1064.5,851.6z"/>
<path class="st47" d="M959.1,629.4c0,0-48.1,14.1-88.4-2.5l-2.8,19.7c0,0,54,20.5,96.3,11.1L959.1,629.4z"/>
<path class="st33" d="M683.3,1209.5c0,0,4.1,25.2,7.5,29.9c3.4,4.7,12.3,28.3,13.2,31.6c0.9,3.3,6.1,27,7,30c0.9,3-5.9,7.5-10.3,1.1
	c-2.7-4-7.3-19.3-9.2-24.3c-1.9-5-7.7-20.7-9.5-17.9c-1.8,2.8-1.9,23.6-2.3,29c-0.4,5.3,2.5,21.9,3.9,28.8c1.4,6.9,9.7,35.7,6,37.2
	c-3.7,1.4-6.8,0.9-11.2-6.9c0,0-7.6,4-11.6-5.6c0,0-6.7,2.2-10.5-10.2c0,0-4.7-2.7-6.4-7.2c-1.7-4.5-11.5-42.4-11-57.7
	c0.5-15.3,4.4-25.9,4-36.8c-0.4-10.9-5.3-34.2-5.3-34.2L683.3,1209.5z"/>
<g>
	<path class="st8" d="M696.6,1236.1c0,0-26.8,4.2-65.4,1c0,0,21.8-248.1,20.7-262.2c-1-13,50.1-243.5,78.2-278.5l42.7,134.9
		c-3.3-1-46.5,137.5-47.1,151.8C724.9,1002.3,696.6,1236.1,696.6,1236.1z"/>
</g>
<path class="st48" d="M993.1,465.5c2.1-28.9,0-52.8-3.8-67.6c-4.6-18.2-34.1-13.2-34.1-13.2v0c-44.9-13.5-72-7.3-89,0
	c-25.5,20.9-27.4,56.4-26.2,75.9c0.5,4.6,1,9.3,1.6,13.8c0,0.1,0,0.1,0,0.1c2.3,19.4,4.6,36.4,4.6,36.4l8.1,9.3
	c0,0-2.1-32.4,2.9-34.2c2.7-1,3.3-7.5,3.3-13.3c0-5-0.4-9.5-0.4-9.5c51.9-23.9,110.2-6.9,111.5-3.6c0.8,2.1,2,8.3,3.2,13.8
	c0.7,3.3,1.4,6.4,2,8.2c1.5,4.6,0.9,33.8,0.9,33.8l10.1-13.2c0,0,1.3-6.3,3-15.8l0,0v0c0.5-3.1,1.1-6.5,1.7-10.2
	C992.6,476.3,993.1,472.2,993.1,465.5z"/>
<g>
	<path class="st44" d="M947.1,583.2l-3.1-5.1c38.8-23.1,53.1-58.5,53.3-58.8l5.6,2.2C1002.3,523,987.6,559.1,947.1,583.2z"/>
</g>
<circle class="st44" cx="943.6" cy="580.7" r="8.2"/>
<linearGradient id="SVGID_23_" gradientUnits="userSpaceOnUse" x1="65.9494" y1="823.8632" x2="485.0695" y2="823.8632">
	<stop  offset="0" style="stop-color:#F3B266"/>
	<stop  offset="1" style="stop-color:#CAA568"/>
</linearGradient>
<path class="st49" d="M475.7,903.3H75.3c-5.2,0-9.3-4.2-9.3-9.3V753.7c0-5.2,4.2-9.3,9.3-9.3h400.4c5.2,0,9.3,4.2,9.3,9.3V894
	C485.1,899.2,480.9,903.3,475.7,903.3z"/>
<g>
	<path class="st9" d="M393.9,879.7c-29.5,0-53.5-24-53.5-53.5c0-29.5,24-53.5,53.5-53.5c29.5,0,53.5,24,53.5,53.5
		C447.4,855.7,423.4,879.7,393.9,879.7z M393.9,783.4c-23.6,0-42.8,19.2-42.8,42.8c0,23.6,19.2,42.8,42.8,42.8
		c23.6,0,42.8-19.2,42.8-42.8C436.7,802.6,417.5,783.4,393.9,783.4z"/>
</g>
<linearGradient id="SVGID_24_" gradientUnits="userSpaceOnUse" x1="159.3602" y1="793.0257" x2="305.6895" y2="793.0257">
	<stop  offset="0" style="stop-color:#F3B266"/>
	<stop  offset="1" style="stop-color:#CAA568"/>
</linearGradient>
<rect x="159.4" y="786.6" class="st50" width="146.3" height="12.9"/>
<linearGradient id="SVGID_25_" gradientUnits="userSpaceOnUse" x1="180.946" y1="826.1733" x2="305.6895" y2="826.1733">
	<stop  offset="0" style="stop-color:#F3B266"/>
	<stop  offset="1" style="stop-color:#CAA568"/>
</linearGradient>
<rect x="180.9" y="819.7" class="st51" width="124.7" height="12.9"/>
<linearGradient id="SVGID_26_" gradientUnits="userSpaceOnUse" x1="105.1038" y1="859.3204" x2="305.6895" y2="859.3204">
	<stop  offset="0" style="stop-color:#F3B266"/>
	<stop  offset="1" style="stop-color:#CAA568"/>
</linearGradient>
<rect x="105.1" y="852.9" class="st52" width="200.6" height="12.9"/>
<g>
	<g>
		<polygon class="st8" points="534.6,220.5 802.3,221.2 801.8,415.2 801.7,456 761,415.1 534.2,414.5 		"/>
	</g>
</g>
<circle class="st9" cx="668.2" cy="325.6" r="20.4"/>
<circle class="st9" cx="601.1" cy="325.6" r="20.4"/>
<circle class="st9" cx="733.8" cy="325.7" r="20.4"/>
<g>
	<linearGradient id="SVGID_27_" gradientUnits="userSpaceOnUse" x1="528.259" y1="1590.5619" x2="1329.8815" y2="1590.5619">
		<stop  offset="0" style="stop-color:#FFE9D9"/>
		<stop  offset="1" style="stop-color:#D9D3CA"/>
	</linearGradient>
	<polygon class="st53" points="1255,1507.2 943.1,1507.2 631.1,1507.2 586.5,1673.9 943.1,1673.9 1299.6,1673.9 	"/>
	<path class="st9" d="M636,1551.5h40.8c1.7,0,3,1.3,2.7,2.8l-4,17.8c-0.2,1.1-1.4,1.9-2.7,1.9h-41.5c-1.7,0-3-1.4-2.7-2.8l4.7-17.8
		C633.7,1552.2,634.8,1551.5,636,1551.5z"/>
	<polygon class="st9" points="695.6,1551.5 726.4,1551.5 722.3,1573.9 690.9,1573.9 	"/>
	<polygon class="st9" points="741.9,1551.5 772.7,1551.5 769.5,1573.9 738,1573.9 	"/>
	<polygon class="st9" points="788.2,1551.5 819,1551.5 816.7,1573.9 785.2,1573.9 	"/>
	<polygon class="st9" points="834.4,1551.5 865.3,1551.5 863.8,1573.9 832.4,1573.9 	"/>
	<polygon class="st9" points="880.7,1551.5 911.6,1551.5 911,1573.9 879.6,1573.9 	"/>
	<polygon class="st9" points="1251.2,1551.5 1204.9,1551.5 1209.9,1573.9 1257,1573.9 	"/>
	<polygon class="st9" points="1189.4,1551.5 1158.6,1551.5 1162.7,1573.9 1194.1,1573.9 	"/>
	<polygon class="st9" points="1143.2,1551.5 1112.3,1551.5 1115.5,1573.9 1147,1573.9 	"/>
	<polygon class="st9" points="1096.9,1551.5 1066,1551.5 1068.4,1573.9 1099.8,1573.9 	"/>
	<polygon class="st9" points="1050.6,1551.5 1019.7,1551.5 1021.2,1573.9 1052.6,1573.9 	"/>
	<polygon class="st9" points="1004.3,1551.5 973.4,1551.5 974,1573.9 1005.5,1573.9 	"/>
	<polygon class="st9" points="927,1551.5 957.9,1551.5 958.4,1573.9 927,1573.9 	"/>
	<polygon class="st9" points="622.5,1590.6 686.9,1590.6 683.3,1613.7 617.6,1613.7 	"/>
	<polygon class="st9" points="1261.2,1590.6 1181.5,1590.6 1186.1,1613.7 1267.3,1613.7 	"/>
	<polygon class="st9" points="1165.6,1590.6 1133.7,1590.6 1137.3,1613.7 1169.8,1613.7 	"/>
	<polygon class="st9" points="1117.8,1590.6 1085.9,1590.6 1088.6,1613.7 1121.1,1613.7 	"/>
	<polygon class="st9" points="1069.9,1590.6 1038,1590.6 1039.9,1613.7 1072.4,1613.7 	"/>
	<polygon class="st9" points="1022.1,1590.6 990.2,1590.6 991.1,1613.7 1023.6,1613.7 	"/>
	<polygon class="st9" points="612.8,1631.8 678.8,1631.8 673.9,1654.7 606.8,1654.7 	"/>
	<polygon class="st9" points="695.2,1631.8 728.2,1631.8 724.3,1654.7 690.7,1654.7 	"/>
	<polygon class="st9" points="744.7,1631.8 777.6,1631.8 991.9,1631.8 992.8,1654.7 741.1,1654.7 	"/>
	<polygon class="st9" points="1008.4,1631.8 1041.4,1631.8 1043.2,1654.7 1009.6,1654.7 	"/>
	<polygon class="st9" points="1057.8,1631.8 1090.8,1631.8 1093.5,1654.7 1059.9,1654.7 	"/>
	<polygon class="st9" points="1107.3,1631.8 1140.2,1631.8 1143.8,1654.7 1110.3,1654.7 	"/>
	<polygon class="st9" points="1156.7,1631.8 1189.7,1631.8 1194.2,1654.7 1160.6,1654.7 	"/>
	<polygon class="st9" points="1206.2,1631.8 1272.1,1631.8 1278.1,1654.7 1211,1654.7 	"/>
	<polygon class="st9" points="974.3,1590.6 942.7,1590.6 942.7,1613.7 975,1613.7 	"/>
	<polygon class="st9" points="926.5,1590.6 894.6,1590.6 893.7,1613.7 926.2,1613.7 	"/>
	<polygon class="st9" points="878.7,1590.6 846.8,1590.6 845,1613.7 877.5,1613.7 	"/>
	<polygon class="st9" points="830.9,1590.6 799,1590.6 796.3,1613.7 828.7,1613.7 	"/>
	<polygon class="st9" points="783,1590.6 751.2,1590.6 747.5,1613.7 780,1613.7 	"/>
	<polygon class="st9" points="735.2,1590.6 703.3,1590.6 698.8,1613.7 731.3,1613.7 	"/>
	<polygon class="st9" points="637.5,1537.4 642.8,1517.4 657.8,1517.4 652.9,1537.4 	"/>
	<polygon class="st9" points="672.7,1517.4 702.7,1517.4 698.5,1537.4 668,1537.4 	"/>
	<polygon class="st9" points="717.7,1517.4 747.7,1517.4 744.3,1537.4 713.8,1537.4 	"/>
	<polygon class="st9" points="762.7,1517.4 792.6,1517.4 790,1537.4 759.5,1537.4 	"/>
	<polygon class="st9" points="807.6,1517.4 837.6,1517.4 835.7,1537.4 805.2,1537.4 	"/>
	<polygon class="st9" points="852.6,1517.4 882.5,1517.4 881.5,1537.4 851,1537.4 	"/>
	<polygon class="st9" points="897.5,1517.4 927.5,1517.4 927.2,1537.4 896.7,1537.4 	"/>
	<polygon class="st9" points="942.5,1517.4 972.4,1517.4 973,1537.4 942.5,1537.4 	"/>
	<polygon class="st9" points="987.4,1517.4 1017.4,1517.4 1018.7,1537.4 988.2,1537.4 	"/>
	<polygon class="st9" points="1032.4,1517.4 1062.3,1517.4 1064.4,1537.4 1033.9,1537.4 	"/>
	<polygon class="st9" points="1077.3,1517.4 1107.3,1517.4 1110.2,1537.4 1079.7,1537.4 	"/>
	<polygon class="st9" points="1122.3,1517.4 1152.2,1517.4 1155.9,1537.4 1125.4,1537.4 	"/>
	<polygon class="st9" points="1167.2,1517.4 1197.2,1517.4 1201.6,1537.4 1171.2,1537.4 	"/>
	<polygon class="st9" points="1212.2,1517.4 1242.1,1517.4 1247.4,1537.4 1216.9,1537.4 	"/>
	<linearGradient id="SVGID_28_" gradientUnits="userSpaceOnUse" x1="255.9722" y1="1678.8685" x2="969.1086" y2="1678.8685">
		<stop  offset="0" style="stop-color:#E37E30"/>
		<stop  offset="1" style="stop-color:#DED6CC"/>
	</linearGradient>
	<rect x="586.5" y="1673.9" class="st54" width="713.1" height="9.8"/>
</g>
<g>
	<g>
		<g>
			<path class="st55" d="M421.5,990.6c0,0,19.9,10.9,13.6,37.7c-6.3,26.8-8.7,30.4-3.6,41.2c5.1,10.8,9.6,56.3,4.2,64.6
				s-60.9-40.5-67-79.6c-6.2-39.1,7.7-55.7,12.6-61.9C386.1,986.5,403.9,980.7,421.5,990.6z"/>
		</g>
	</g>
</g>
<g>
	<path class="st33" d="M415.9,1085.2c0,0-15.3,4.7-14.3,16.5c1,11.8,8.9,24.3,10.9,28.9c2,4.6,23.5,61,23.2,62.8
		c-0.3,1.8,2.5,20.5,3.6,42.4c1.2,24.9,1.2,37.3,1.2,37.3l17.1,0.2c0,0,3.6-65-0.8-81.3c-4.4-16.3-13.1-74.4-13.1-74.4
		S436.6,1088.9,415.9,1085.2z"/>
</g>
<path class="st8" d="M448.1,1131.6l-31.7,13.4c0,0-29.1-72.2-4.7-64.2C436,1088.8,447,1103.9,448.1,1131.6z"/>
<path class="st56" d="M469.7,1599.3c-6.4-4.6-20.8-31.8-20.8-31.8s-6.3-18.7-18.3-13.4c-7.3,3.2-8.3,11.4-6.8,17.8l2.6,31.4l2.2,0.2
	l0.4-21.6c3.1,6.4,4.8,19,8.7,23.8c4.5,5.7,26.3,5.1,30.6,5.3C472.5,1611.3,478.3,1605.6,469.7,1599.3z"/>
<path class="st56" d="M339.2,1587.7c-3.7-7-4.4-37.8-4.4-37.8s2.7-19.5-10.4-20.1c-8-0.4-12.5,6.5-14,12.9l-11.7,29.3l1.9,1.2
	l9.9-19.2c-0.1,7.1-4.2,19.2-2.9,25.2c1.5,7.1,21.3,16.3,25,18.4C336.4,1599.7,344.2,1597.2,339.2,1587.7z"/>
<g>
	<path class="st45" d="M392.4,1306.7c0.6,3.8,4.8,19.8,9.6,37.5v0c4.3,16.2,9.1,33.8,11.9,45.1c1.1,4.2,1.8,7.5,2.2,9.5
		c2.6,13.3-2,33.7-4,50.9c-2,17.2,18.4,114.8,18.4,114.8c4.3,2.2,13.2-11.2,13.2-11.2c-2.9-6.3,2.7-115,4.7-121.7
		c2.1-6.6,4.1-25.2,2.7-32.6c-0.3-1.5-0.4-3.5-0.3-5.9c0.3-9.2,2.9-24.3,4.9-41c2.5-20.9-3.2-73.5-4.2-78.3c-0.1-0.4-0.2-1-0.4-1.8
		c-1.8-7.4-7.7-28.5-7.7-28.5c-13.8-4.8-24.4-6.1-32.3-4.9c-10.5,1.6-16.6,7.6-19.8,15.4C383.4,1272.8,391.6,1301.8,392.4,1306.7z"
		/>
</g>
<g>
	<path class="st45" d="M322.7,1532.3l13.5,6.1c3.5-11.4,69.2-86.8,73.6-95.5c4.4-8.7,9.8-25.7,10.5-32.1c0.1-1.1,0.4-3.1,0.8-5.5
		c1.6-9.6,5.1-27.7,9.1-41.7c0.7-2.6,1.5-5.1,2.2-7.3c4-12,8.6-53.9,11.1-78.5c1.1-11,1.8-18.5,1.8-18.5s-0.2-0.2-0.6-0.6
		c-4.9-4.5-50.2-38.2-64.3-16.5c-3.7,5.7-6.5,14-8.4,20.7c-5.8,20.3-2.8,42.8,2,63.8c5.4,23.3,8.5,31.3,12.1,63.5
		c1.2,10.5-2.1,25-4.9,28.9c-7.8,11-15.3,20.2-32.9,59.9C342.4,1491.7,322.7,1532.3,322.7,1532.3z"/>
</g>
<g>
	<path class="st8" d="M451.1,1272.1c-13.2,1.9-98.9-15.8-99.1-19.5c-0.2-3.7,11.4-45.4,15.1-57.7c3.7-12.3,0.2-15.6-1.7-25.4
		c-0.7-3.9-3.3-11.2-6.1-19.4c-0.9-2.8-1.9-5.6-2.8-8.5c-3.4-10.4-4.9-21.1-5.9-27.3c-4.6-29.4,18-32.2,18-32.2
		c8.4-1.6,23.1-6.1,23.1-6.1l23,4.8c0,0,2.2,0.8,5.4,3.2c0,0,0,0,0,0c1.5,1.1,3.3,2.6,5.2,4.5c2.5,2.6,7.5,10,12.5,18.1
		c1.5,2.5,3.1,5,4.5,7.6c4.7,8.1,8,14.6,7.9,22c-0.1,7.2-8.1,22.4-9,29.5c-0.9,7.2-4.7,32.6-3.9,39.4
		C438,1211.9,451.1,1272.1,451.1,1272.1z"/>
</g>
<path class="st27" d="M359.5,1323c11.8,37,18.7,47.3,11,63.7c0,0,2.9-4,24.5-0.3c5.8,1,12.2,2,18.9,2.9c11.6,1.6,28.3,4.3,41.1,5.1
	c0.3-9.2,1.8-45.6,1.9-62.4c0.1-24.9-4.4-53.4-5.3-58.1c-0.1-0.4-0.2-1-0.4-1.8c-10.2-6.3-25.1-10.9-40.2-14.2
	c-6.6-1.5-13.3-2.7-19.7-3.7c-19.9-3.2-36.8-4.3-38.8-4.5C347.6,1270.3,349.4,1291.1,359.5,1323z"/>
<path class="st33" d="M414.6,1080.7c0,0,14.4,24.6,9,26.4c-5.4,1.8-33.6-4.4-44.6-27.6C379.1,1079.6,397.6,1071.2,414.6,1080.7z"/>
<path class="st33" d="M412.5,1092c0,0-12.8,5.4-24.4-12.4c0,0,3.1-20.2-3.5-31.9c-6.6-11.7,28.7,14,28.7,14s-0.6,2.4-1.2,6
	c-0.3,1.8-0.6,3.9-0.9,6.2c-0.2,1.9-0.4,3.8-0.4,5.8C410.9,1084.2,411.2,1088.7,412.5,1092z"/>
<g>
	<path class="st45" d="M443.7,1553.3c0,0,15.4,34,18.3,38.8c2.9,4.7-6,4.3-11.4,1.9c-5.4-2.4-18.7-25.2-20-29.5
		c-1.4-4.3,0.1-10.4,0.1-10.4L443.7,1553.3z"/>
</g>
<g>
	<path class="st45" d="M336.3,1533.5c0,0-1.4,37.3-0.9,42.8c0.5,5.5-7.3,1.2-11.1-3.4c-3.8-4.6-5.5-30.8-4.8-35.3
		c0.7-4.5,5-9.3,5-9.3L336.3,1533.5z"/>
</g>
<path class="st57" d="M380.8,1119.5c-2.6,13.5-21.5,30.5-21.5,30.5c-0.9-2.8-1.9-5.6-2.8-8.5
	C369.5,1133.2,380.8,1119.5,380.8,1119.5z"/>
<linearGradient id="SVGID_29_" gradientUnits="userSpaceOnUse" x1="358.6186" y1="1264.525" x2="467.8997" y2="1264.525">
	<stop  offset="0" style="stop-color:#FFE9D9"/>
	<stop  offset="1" style="stop-color:#D9D3CA"/>
</linearGradient>
<polygon class="st58" points="467.9,1290.6 366.9,1303.4 358.6,1238.5 459.7,1225.7 "/>
<g>
	<path class="st33" d="M365.1,1086.1c0,0,15.9,2.1,16.9,13.9c1,11.8-4.7,25.4-5.9,30.3c-1.2,4.9-6.7,54.9-6.1,56.6
		c0.6,1.7,8.3,35.7,10.7,52.5c2.4,16.8,11.1,40,11.1,40l-12.7,3.3c0,0-33.3-72.6-31.7-89.5c1.6-16.9-4.1-70.6-4.1-70.6
		S338.1,1090.2,365.1,1086.1z"/>
</g>
<g>
	<g>
		<g>
			<g>
				<g>
					<path class="st33" d="M383.3,1307.2c0,0-1.6-1.6-1.9-2.6c0,0-0.5-1.9-0.9-3.3c-0.1-0.4-0.3-0.8-0.4-1c-0.5-1-1.8-2.9-2.2-5.5
						c-0.5-2.6,0.5-14.4,0.5-14.4l6.5-1.3l5.9-2.1c0,0,10.7,12.3,11.4,14.6c0.1,0.2,0.1,0.5,0.2,0.7c0.4,2.1-0.2,3.8-0.1,4.9
						c0,0.4,0.1,4.5-0.9,5.3c-1.3,1.1-2.6,1.3-3.8,1c0,0-2.6,2-4.9,2c0,0-2.4,1.9-5.1,1.1C387.5,1306.5,384.9,1308.2,383.3,1307.2z"
						/>
				</g>
			</g>
		</g>
	</g>
</g>
<path class="st8" d="M341.2,1137.2l33.5,7.8c0,0,26.6-51.5,2.6-61C352.1,1074.1,335.2,1109.1,341.2,1137.2z"/>
<g>
	<g>
		<g>
			<g>
				<g>
					<path class="st33" d="M457.5,1300c0,0,1.3-1.8,1.5-2.9c0,0,0.2-2,0.4-3.4c0.1-0.4,0.1-0.8,0.2-1.1c0.3-1,1.2-3.2,1.3-5.8
						c0-2.7-2.9-14.1-2.9-14.1l-6.6-0.2l-6.2-1.1c0,0-8.4,13.9-8.7,16.3c0,0.2,0,0.5,0,0.7c0,2.1,0.8,3.7,0.9,4.8
						c0,0.4,0.7,4.4,1.8,5.1c1.5,0.9,2.8,0.9,3.9,0.3c0,0,2.9,1.5,5.1,1.1c0,0,2.7,1.5,5.2,0.2C453.3,1300,456.2,1301.2,457.5,1300z
						"/>
				</g>
			</g>
		</g>
	</g>
</g>
<path class="st33" d="M445.2,1271.4c0,0,1.2-23.3-2.9-40.7c-4.2-17.4,16.7-5.2,16.7-5.2l-0.7,49.1L445.2,1271.4z"/>
<g>
	<g>
		<g>
			<path class="st45" d="M418.4,993.5c0,0,29.1,10.7,10.7,60.9c-18.4,50.2-56.1-8.6-50.4-39.4C384.3,984.1,418.4,993.5,418.4,993.5z
				"/>
		</g>
	</g>
</g>
<g>
	<g>
		<g>
			<path class="st55" d="M433.5,1024c0,0-15.4,13.7-40,14.3c0,0-5.8,14-6.7,18.3c0,0-24.3-41.8,3.6-62.9
				C418.4,972.7,443.8,1015.2,433.5,1024z"/>
		</g>
	</g>
</g>
<g>
	<g>
		<g>
			<path class="st45" d="M396.8,1041.3c0-3.7-1.9-12.3-7.5-10.2c-5.6,2.1-0.6,19.6,3.1,18.7C392.4,1049.8,396.9,1050.1,396.8,1041.3
				z"/>
		</g>
	</g>
</g>
<path class="st39" d="M411.1,1078.8c-13.7-3.8-19-16.8-19.1-17.2c11.1,14.4,19.5,12.3,19.5,12.3
	C411.2,1075.7,411.2,1076.9,411.1,1078.8z"/>
<path class="st59" d="M848.2,1364.2c0,0-2.9,0.1-4.2-0.5c0,0-2.3-1.3-3.9-2.1c-0.5-0.3-1-0.5-1.3-0.6c-1.3-0.4-4.3-1-7.2-2.9
	c-2.9-1.9-12.4-9.7-12.4-9.7l5.2-9.3l2.1-9c0,0,21,0.7,23.9,2.2c0.3,0.1,0.6,0.3,0.8,0.5c2.3,1.5,3.4,3.6,4.6,4.5
	c0.4,0.3,4.3,4,4.2,5.6c-0.1,2.2-1.1,3.7-2.4,4.4c0,0-0.5,4.3-2.5,6.4c0,0-0.3,4-3.6,5.8C851.3,1359.5,850.6,1363.5,848.2,1364.2z"
	/>
<path class="st27" d="M580.6,1226.2c0,0-4.6,64.6,8,72.4c7.9,4.8,39.4,21.2,38.5,24.3c-0.9,3.1-17.8,27.3-17.8,27.3
	s-60.6-39.9-62.5-52.5c-1.9-12.3,3-94.6,11.3-98.4c6.2-2.8,9.5-0.5,17.4,5.3C586.5,1212.7,580.6,1226.2,580.6,1226.2z"/>
<g>
	<g>
		<path class="st60" d="M573.5,1696.5c0,0-1.9,13.1-2.1,15c-0.2,2-21-1.2-21-1.2l-1.7-15.6C548.8,1694.8,570.9,1694.6,573.5,1696.5z
			"/>
	</g>
</g>
<g>
	<g>
		<path class="st29" d="M571.6,1709.8c0,0,6.6,7.9,12.9,11.3c6.3,3.4,16.3,4.8,20.1,8.4c2.7,2.6,9.9,13.6-16.5,13.4
			c-26.4-0.2-39.1,1.6-41.9-2.7c-2.8-4.2,4.1-31.3,4.1-31.3S556.5,1711.2,571.6,1709.8z"/>
	</g>
</g>
<g>
	<g>
		<path class="st60" d="M677.2,1696.5c0,0-1.9,13.1-2.1,15c-0.2,2-21-1.2-21-1.2l-1.7-15.6C652.5,1694.8,674.6,1694.6,677.2,1696.5z
			"/>
	</g>
</g>
<g>
	<g>
		<path class="st29" d="M675.3,1709.8c0,0,6.6,7.9,12.9,11.3c6.4,3.4,29.7,6.3,33.5,9.8c2.7,2.6,7.2,12.9-29.9,11.9
			c-26.4-0.7-39.1,1.6-41.9-2.7c-2.8-4.2,4.1-31.3,4.1-31.3S659.9,1711.4,675.3,1709.8z"/>
	</g>
</g>
<g>
	<g>
		<path class="st8" d="M581,1360.5c0,0-19.5,30.9-18,58.9c1.5,28-1.7,57.8-4.7,87c-3.3,32.6-12.1,100.3-12.6,117.8
			c-0.5,17.4,0.6,83,0.6,83l33.8-0.3c0,0,12-132.4,17.8-146.2c5.8-13.8,29.7-113.2,30.6-124.2C629.5,1425.5,581,1360.5,581,1360.5z"
			/>
	</g>
</g>
<g>
	<g>
		<path class="st8" d="M683.5,1364.7c0,0,7.7,76,9.6,93.1c1.9,17.1,0.6,91.3,1.6,102c1,10.7-6.5,123.8-8.3,145.4l-37.1-0.2
			c0,0-2.6-91.5-2.6-136c0-44.5-11.4-96.2-24.5-125.6c-13.1-29.3-43-30-51-84.5C571.2,1358.9,672.6,1347.4,683.5,1364.7z"/>
	</g>
</g>
<g>
	<g>
		<path class="st33" d="M601.5,1099.7c0,0,23.2-15.5,39.5,1.1c16.3,16.6,24.3,55.6,12.6,63.4c-11.7,7.8-31.5,9.8-41-0.7
			c-9.4-10.6-19.5-26.7-21.9-38.5C588.2,1113.2,595.6,1104.6,601.5,1099.7z"/>
	</g>
</g>
<g>
	<g>
		<path class="st33" d="M645.7,1166.8c0,0-0.3,16.3,1.5,19.8c1.8,3.5-33.9,3.6-33.9,3.6s-2.9-18.9-8.4-34.9
			C599.5,1139.3,645.7,1166.8,645.7,1166.8z"/>
	</g>
</g>
<g>
	<g>
		<path class="st61" d="M605.9,1155c0,0,3.3,3.4,12.7-0.4c9.4-3.8,18.3-19.7,22-22c3.7-2.4,3.2-4.8,3.2-4.8l3.4,3.1l4.4-0.7
			c0,0-6.7-10.7-1.9-16.9c4.8-6.2-15.1-36.2-43.8-17.9c0,0-22.5,12.3-18.4,25.8C591.7,1134.7,598.9,1149.5,605.9,1155z"/>
	</g>
</g>
<g>
	<g>
		<path class="st61" d="M649.3,1186.2c0,0-0.1-6.6-3.1-7.3c-3-0.6-33.2-3.5-36.9-2.1v7.7C609.3,1184.5,616.4,1188.9,649.3,1186.2z"
			/>
	</g>
</g>
<g>
	<g>
		<path class="st33" d="M642,1122.9c-1.1-2.2-8.5-7.4-9.1,0.2c-0.6,7.6,7.3,15.7,10.2,14.1C646.1,1135.7,644.8,1128.4,642,1122.9z"
			/>
	</g>
</g>
<g>
	<g>
		<path class="st27" d="M693.5,1195.4c-21.5-3.8-44.1-9.2-44.1-9.2l-40-1.6c0,0-36.8,8.1-51.2,14.6c-1.4,0.6-1.4,32.8-5.1,41.2
			l12,25.3c0,0,6.9,50.1,8.4,72.5c0.7,10.2-14.3,96-14.3,96s16,4.7,43.4,7.7c27.3,3,95.6-1.1,96-4.3c0.4-3.2-13.2-120.2-13.8-126.3
			c-0.9-9.3,2.7-52.3,2.7-52.3c5.1,6.9,29.6,37,43.3,51.9c8,8.7,37.6,23.9,44.5,27c14.8,6.6,38.6,21.8,39.5,20.3
			c0.7-1,16.7-27.9,14.8-28.6c-1.6-0.5-51.4-31-65.6-38.5c-5.2-2.8-25.4-37.4-25.4-37.4S705.3,1200.7,693.5,1195.4z"/>
	</g>
</g>
<g>
	<g>
		<path class="st61" d="M594.8,1103.7c0,0-33.2,8.9,9.7,50.1L594.8,1103.7z"/>
	</g>
</g>
<rect x="-419.4" y="539.2" class="st27" width="333" height="297"/>
<rect x="-419.4" y="913" class="st8" width="333" height="297"/>
<linearGradient id="SVGID_30_" gradientUnits="userSpaceOnUse" x1="-419.4102" y1="267.4387" x2="-86.3769" y2="267.4387">
	<stop  offset="0" style="stop-color:#F3B266"/>
	<stop  offset="1" style="stop-color:#CAA568"/>
</linearGradient>
<rect x="-419.4" y="118.9" class="st62" width="333" height="297"/>
</svg>
