<?xml version="1.0" encoding="utf-8"?>
<!-- Generator: Adobe Illustrator 21.0.0, SVG Export Plug-In . SVG Version: 6.00 Build 0)  -->
<svg version="1.1" id="Layer_1" xmlns="http://www.w3.org/2000/svg" xmlns:xlink="http://www.w3.org/1999/xlink" x="0px" y="0px"
	 viewBox="0 0 40.9 38.1" style="enable-background:new 0 0 40.9 38.1;" xml:space="preserve">
<style type="text/css">
	.st0{fill:#D1AE6C;}
</style>
<g>
	<g>
		<g>
			<g>
				<path class="st0" d="M36.5,8.4V5.2H22.6V3.1h-4.3v2.1H4.4v3.2h1.1v17.1H4.4v3.2h13.9v3.2h-3.7v3.2h11.7v-3.2h-3.7v-3.2h13.9
					v-3.2h-1.1V8.4H36.5z M19.4,4.1h2.1v1.1h-2.1V4.1z M25.2,32.9V34h-9.6v-1.1H25.2z M19.4,31.9v-3.2h2.1v3.2H19.4z M35.4,27.6H5.5
					v-1.1h29.9V27.6z M6.6,25.5V8.4h27.8v17.1H6.6z M5.5,7.3V6.3h29.9v1.1H5.5z"/>
				<rect x="8.2" y="9.5" class="st0" width="4.3" height="1.1"/>
				<rect x="8.2" y="11.6" class="st0" width="1.1" height="1.1"/>
				<rect x="29" y="23.3" class="st0" width="4.3" height="1.1"/>
				<rect x="31.1" y="21.2" class="st0" width="2.1" height="1.1"/>
				<path class="st0" d="M19.9,9.5L19.9,9.5c-4.2,0-7.5,3.4-7.5,7.5c0,2.1,0.9,4,2.4,5.4c0.2,0.2,0.4,0.3,0.5,0.5
					c1.3,1,2.9,1.6,4.5,1.6h0.1c4.1,0,7.5-3.3,7.5-7.5S24.1,9.5,19.9,9.5z M16.1,11.8c0.1-0.1,0.2-0.1,0.3-0.2c0,0,0.1,0,0.1-0.1
					c0,0,0.1,0,0.1-0.1c0.1-0.1,0.2-0.1,0.4-0.2c0,0,0.1,0,0.1-0.1c0.1-0.1,0.3-0.1,0.4-0.2c0.1,0,0.1,0,0.2-0.1
					c0.1,0,0.2-0.1,0.3-0.1c0.1,0,0.1,0,0.2-0.1c0.1,0,0.2,0,0.3-0.1c-0.4,0.5-0.8,1-1.1,1.6v0C17,12.1,16.5,12,16.1,11.8L16.1,11.8
					z M15.3,12.5c0.5,0.3,1.1,0.5,1.6,0.7c-0.4,1-0.7,2.1-0.7,3.1h-2.7C13.7,15,14.3,13.6,15.3,12.5z M15.3,21.3
					c-1-1.1-1.6-2.4-1.7-3.9h2.7c0.1,1.1,0.3,2.1,0.7,3.1C16.3,20.8,15.8,21.1,15.3,21.3z M18.3,23.1c-0.1,0-0.1,0-0.2,0
					c0,0-0.1,0-0.1,0c-0.1,0-0.2-0.1-0.3-0.1c-0.1,0-0.1,0-0.2-0.1c0,0,0,0-0.1,0c-0.1,0-0.2-0.1-0.3-0.1c-0.1,0-0.2-0.1-0.2-0.1
					c-0.1-0.1-0.2-0.1-0.3-0.2c-0.1,0-0.1-0.1-0.2-0.1c0,0-0.1,0-0.1-0.1c-0.1-0.1-0.2-0.1-0.2-0.2l0,0c0.4-0.2,0.8-0.4,1.3-0.5
					c0.3,0.6,0.7,1.1,1.1,1.6C18.4,23.2,18.4,23.2,18.3,23.1z M19.4,22.6c-0.3-0.4-0.6-0.8-0.9-1.2c0.3-0.1,0.6-0.1,0.9-0.1V22.6z
					 M19.4,20.2c-0.5,0-0.9,0.1-1.4,0.2c-0.4-0.9-0.6-1.9-0.7-2.9h2.1V20.2z M19.4,16.4h-2.1c0.1-1,0.3-2,0.7-2.9v0
					c0.5,0.1,0.9,0.2,1.4,0.2V16.4z M19.4,12.7c-0.3,0-0.6-0.1-0.9-0.1c0.3-0.4,0.6-0.9,0.9-1.2V12.7z M21.5,10.7c0.1,0,0.1,0,0.2,0
					c0,0,0.1,0,0.1,0c0.1,0,0.2,0.1,0.3,0.1c0.1,0,0.1,0,0.2,0.1c0,0,0,0,0.1,0c0.1,0,0.2,0.1,0.3,0.1c0.1,0,0.2,0.1,0.2,0.1
					c0.1,0.1,0.2,0.1,0.3,0.2c0.1,0,0.1,0.1,0.2,0.1c0,0,0.1,0,0.1,0.1c0.1,0.1,0.2,0.1,0.2,0.2l0,0c-0.4,0.2-0.8,0.4-1.3,0.5
					c-0.3-0.6-0.7-1.1-1.1-1.6C21.4,10.7,21.5,10.7,21.5,10.7z M20.4,11.3c0.3,0.4,0.6,0.8,0.9,1.2c-0.3,0.1-0.6,0.1-0.9,0.1V11.3z
					 M20.4,13.7c0.5,0,0.9-0.1,1.4-0.2c0.4,0.9,0.6,1.9,0.7,2.9h-2.1V13.7z M20.4,17.5h2.1c-0.1,1-0.3,2-0.7,2.9
					c-0.5-0.1-0.9-0.2-1.4-0.2L20.4,17.5L20.4,17.5z M20.4,21.2c0.3,0,0.6,0.1,0.9,0.1c-0.3,0.4-0.6,0.9-0.9,1.2V21.2z M23.7,22.1
					c-0.1,0.1-0.2,0.1-0.3,0.2c0,0-0.1,0-0.1,0.1c0,0-0.1,0-0.1,0.1c-0.1,0.1-0.2,0.1-0.4,0.2c0,0-0.1,0-0.1,0.1
					c-0.1,0.1-0.3,0.1-0.4,0.2c-0.1,0-0.1,0-0.2,0.1c-0.1,0-0.2,0.1-0.3,0.1c-0.1,0-0.1,0-0.2,0.1c-0.1,0-0.2,0-0.3,0.1
					c0.4-0.5,0.8-1,1.1-1.6C22.9,21.7,23.3,21.9,23.7,22.1L23.7,22.1z M24.5,21.3L24.5,21.3c-0.5-0.3-1.1-0.5-1.6-0.7
					c0.4-1,0.7-2.1,0.7-3.1h2.7C26.2,18.9,25.6,20.3,24.5,21.3z M23.6,16.4c-0.1-1.1-0.3-2.1-0.7-3.1c0.6-0.2,1.1-0.4,1.6-0.7
					c1,1.1,1.6,2.4,1.7,3.9H23.6z"/>
				<path class="st0" d="M28.8,12.1h0.7v-1.1h-2.7v2.7h1.1v-1.1c1.6,2.9,1.4,6.5-0.5,9.3l0.9,0.6C30.4,19.5,30.6,15.4,28.8,12.1z"/>
				<path class="st0" d="M11.9,21.2c-1.6-2.9-1.4-6.5,0.5-9.3l-0.9-0.6c-2.2,3.3-2.3,7.6-0.2,11h-1v1.1H13v-2.7h-1.1V21.2z"/>
			</g>
		</g>
	</g>
</g>
</svg>
