<?xml version="1.0" encoding="utf-8"?>
<!-- Generator: Adobe Illustrator 21.0.0, SVG Export Plug-In . SVG Version: 6.00 Build 0)  -->
<svg version="1.1" id="Layer_1" xmlns="http://www.w3.org/2000/svg" xmlns:xlink="http://www.w3.org/1999/xlink" x="0px" y="0px"
	 viewBox="0 0 40.9 38.1" style="enable-background:new 0 0 40.9 38.1;" xml:space="preserve">
<style type="text/css">
	.st0{fill:#D1AE6C;}
</style>
<g>
	<path class="st0" d="M31.6,29.8v-3.1c0-1.8-1.2-3.4-2.9-3.8l-5.6-1.5v-1.2c0.9-0.9,1.5-2.1,1.7-3.5c1.3-0.3,2.3-1.4,2.3-2.8
		c0-0.6-0.2-1.2-0.6-1.7c1.3-0.6,2.3-1.9,2.3-3.4c0-1-0.4-2-1.1-2.7c0-0.1,0-0.1,0-0.2c0-2.2-1.8-4-4-4c-0.7,0-1.3,0.2-1.9,0.5
		c-0.7-0.7-1.7-1-2.7-1c-1,0-1.9,0.4-2.7,1c-0.6-0.3-1.2-0.5-1.9-0.5c-2.2,0-4,1.8-4,4c0,0.1,0,0.3,0,0.4C10,7.2,9.5,8.1,9.5,9.1
		c0,1.5,0.9,2.8,2.1,3.3c-0.3,0.4-0.4,0.9-0.4,1.5c0,1.4,1,2.5,2.3,2.8c0.1,1.4,0.7,2.6,1.7,3.5v1.2l-5.6,1.5
		c-1.7,0.5-2.9,2-2.9,3.8v3.1H5.8L3,36.6h32.2l-2.7-6.8H31.6z M24.8,15.5v-3.2c0.7,0.2,1.1,0.9,1.1,1.6C26,14.7,25.5,15.3,24.8,15.5
		z M10.7,9.1c0-0.8,0.4-1.5,1-2l0.3-0.2l-0.1-0.3c0-0.2-0.1-0.4-0.1-0.6c0-1.6,1.3-2.8,2.8-2.8c0.6,0,1.1,0.2,1.6,0.5L16.7,4L17,3.6
		c0.5-0.6,1.3-1,2.1-1c0.8,0,1.6,0.4,2.1,1L21.7,4l0.4-0.3c0.5-0.3,1-0.5,1.6-0.5c1.6,0,2.8,1.3,2.8,2.8c0,0.1,0,0.2,0,0.3l0,0.3
		l0.2,0.2c0.6,0.5,0.9,1.2,0.9,2c0,1.3-1,2.4-2.2,2.5c-0.2-0.1-0.4-0.2-0.6-0.2V9.4h-1.1c0,0.9-0.8,1.7-1.7,1.7
		c-0.4,0-0.7-0.1-1.1-0.4l-0.4-0.3l-0.4,0.3c-0.6,0.5-1.5,0.5-2.1,0l-0.4-0.3l-0.4,0.3c-0.3,0.3-0.7,0.4-1.1,0.4
		c-0.9,0-1.7-0.8-1.7-1.7h-1.1v1.8c-0.4,0.1-0.7,0.2-1,0.4C11.4,11.3,10.7,10.3,10.7,9.1z M12.4,14c0-0.4,0.2-0.9,0.5-1.2
		c0,0,0,0,0.1,0l0-0.1c0.2-0.2,0.4-0.3,0.6-0.4v3.2C12.9,15.3,12.4,14.7,12.4,14z M14.6,16.2v-4.5c0.5,0.4,1.1,0.6,1.7,0.6
		c0.5,0,1-0.1,1.4-0.4c0.9,0.5,2,0.5,2.8,0c0.4,0.3,0.9,0.4,1.4,0.4c0.6,0,1.2-0.2,1.7-0.6v4.5c0,2.5-2,4.5-4.5,4.5
		S14.6,18.7,14.6,16.2z M19.2,21.9c1,0,2-0.3,2.8-0.8v0.6C21.7,22,20.8,23,19.2,23c-1.6,0-2.5-1-2.8-1.3v-0.6
		C17.2,21.6,18.1,21.9,19.2,21.9z M15.8,35.5c-1.4,0-2.5-1-2.8-2.3h12.3c-0.3,1.3-1.4,2.3-2.8,2.3H15.8z M25.3,35.5
		c0.7-0.7,1.2-1.7,1.2-2.8v-0.6H11.8v0.6c0,1.1,0.5,2.1,1.2,2.8H4.7l1.8-4.5h5.8v-1.1H7.8v-3.1c0-1.3,0.9-2.4,2.1-2.7l5.6-1.5
		c0.5,0.6,1.7,1.6,3.6,1.6c1.9,0,3.1-1.1,3.6-1.6l5.6,1.5c1.2,0.3,2.1,1.5,2.1,2.7v3.1H26v1.1h5.8l1.8,4.5H25.3z"/>
	<path class="st0" d="M15.8,28.9c0.4-0.4,0.6-0.9,0.6-1.4c0-0.5-0.2-1-0.6-1.4L15.6,26l-0.8,0.8L15,27c0.2,0.2,0.2,0.4,0.2,0.6
		c0,0.2-0.1,0.4-0.2,0.6l-0.1,0.1c-0.3,0.3-0.5,0.7-0.5,1.2c0,0.4,0.1,0.7,0.3,1l0.6,0.8l0.9-0.7l-0.6-0.8c-0.1-0.1-0.1-0.2-0.1-0.3
		c0-0.2,0.1-0.3,0.2-0.4L15.8,28.9z"/>
	<path class="st0" d="M19.7,27.8c0.4-0.4,0.6-0.9,0.6-1.4c0-0.5-0.2-1-0.6-1.4l-0.2-0.2l-0.8,0.8l0.2,0.2c0.2,0.2,0.2,0.4,0.2,0.6
		c0,0.2-0.1,0.4-0.2,0.6l-0.1,0.1c-0.3,0.3-0.5,0.7-0.5,1.2c0,0.4,0.1,0.7,0.3,1l0.6,0.8l0.9-0.7l-0.6-0.8c-0.1-0.1-0.1-0.2-0.1-0.3
		c0-0.2,0.1-0.3,0.2-0.4L19.7,27.8z"/>
	<path class="st0" d="M23.1,28.9c0.4-0.4,0.6-0.9,0.6-1.4c0-0.5-0.2-1-0.6-1.4L23,26l-0.8,0.8l0.2,0.2c0.2,0.2,0.2,0.4,0.2,0.6
		c0,0.2-0.1,0.4-0.2,0.6l-0.1,0.1c-0.3,0.3-0.5,0.7-0.5,1.2c0,0.4,0.1,0.7,0.3,1l0.6,0.8l0.9-0.7L23,29.8c-0.1-0.1-0.1-0.2-0.1-0.3
		c0-0.2,0.1-0.3,0.2-0.4L23.1,28.9z"/>
	<path class="st0" d="M22.6,13.4c0,0.3-0.3,0.6-0.6,0.6s-0.6-0.3-0.6-0.6c0-0.3,0.3-0.6,0.6-0.6S22.6,13.1,22.6,13.4z"/>
	<path class="st0" d="M16.9,13.4c0,0.3-0.3,0.6-0.6,0.6s-0.6-0.3-0.6-0.6c0-0.3,0.3-0.6,0.6-0.6S16.9,13.1,16.9,13.4z"/>
	<path class="st0" d="M16.3,18.5H22v-1.7c0-0.9-0.8-1.7-1.7-1.7s-1.7,0.8-1.7,1.7v0.6h-2.3V18.5z M19.7,16.8c0-0.3,0.3-0.6,0.6-0.6
		c0.3,0,0.6,0.3,0.6,0.6v0.6h-1.1V16.8z"/>
	<path class="st0" d="M33.8,14c-0.4,0-0.8,0.1-1.1,0.4c-0.3-0.2-0.7-0.4-1.1-0.4c-1,0-1.8,0.8-1.8,1.8c0,0.5,0.2,0.9,0.5,1.2
		l2.3,2.3l2.3-2.3c0.3-0.3,0.5-0.8,0.5-1.2C35.6,14.7,34.8,14,33.8,14z M34.3,16.2l-1.5,1.5l-1.5-1.5c-0.1-0.1-0.2-0.3-0.2-0.4
		c0-0.4,0.3-0.6,0.6-0.6c0.2,0,0.3,0.1,0.4,0.2l0.6,0.6l0.6-0.6c0.1-0.1,0.3-0.2,0.4-0.2c0.4,0,0.6,0.3,0.6,0.6
		C34.5,15.9,34.4,16.1,34.3,16.2z"/>
	<path class="st0" d="M32.8,11.1c-2.8,0-5.1,2.3-5.1,5.1c0,0.6,0.1,1.3,0.4,1.9l-1.2,2.7h3.6c0.7,0.4,1.5,0.6,2.3,0.6
		c2.8,0,5.1-2.3,5.1-5.1S35.6,11.1,32.8,11.1z M32.8,20.2c-0.7,0-1.3-0.2-1.9-0.5l-0.1-0.1h-2.2l0.7-1.5l-0.1-0.2
		c-0.2-0.5-0.4-1.1-0.4-1.6c0-2.2,1.8-4,4-4s4,1.8,4,4S34.9,20.2,32.8,20.2z"/>
</g>
</svg>
