<?xml version="1.0" encoding="utf-8"?>
<!-- Generator: Adobe Illustrator 21.0.0, SVG Export Plug-In . SVG Version: 6.00 Build 0)  -->
<svg version="1.1" id="Layer_1" xmlns="http://www.w3.org/2000/svg" xmlns:xlink="http://www.w3.org/1999/xlink" x="0px" y="0px"
	 viewBox="0 0 40.9 38.1" style="enable-background:new 0 0 40.9 38.1;" xml:space="preserve">
<style type="text/css">
	.st0{fill:#D1AE6C;}
</style>
<g>
	<g>
		<g>
			<path class="st0" d="M11.2,9.8c-0.4,0-0.7,0.3-0.7,0.7s0.3,0.7,0.7,0.7c0.4,0,0.7-0.3,0.7-0.7S11.6,9.8,11.2,9.8z"/>
		</g>
	</g>
	<g>
		<g>
			<path class="st0" d="M17.6,23.1h-2.1V21c0-0.4-0.3-0.7-0.7-0.7c-0.4,0-0.7,0.3-0.7,0.7v2.1h-2.1c-0.4,0-0.7,0.3-0.7,0.7
				s0.3,0.7,0.7,0.7H14v2.1c0,0.4,0.3,0.7,0.7,0.7s0.7-0.3,0.7-0.7v-2.1h2.1c0.4,0,0.7-0.3,0.7-0.7S18,23.1,17.6,23.1z"/>
		</g>
	</g>
	<g>
		<g>
			<path class="st0" d="M36.8,23.8c-1.6-2.7-5.1-3.7-7.8-2.1l-2.9,1.7v-6.2c0-0.8-0.3-1.5-0.7-2.1l-3.6-4.7v-2
				c0.8-0.3,1.4-1.1,1.4-2V3c0-1.2-1-2.1-2.1-2.1H8.3c-1.2,0-2.1,1-2.1,2.1v3.3c0,0.9,0.6,1.7,1.4,2v2L4.1,15
				c-0.5,0.6-0.7,1.4-0.7,2.1V31c0,2,1.6,3.6,3.6,3.6h11.4c1.6,2.7,5,3.6,7.7,2l8.6-5C37.4,30,38.4,26.5,36.8,23.8z M7.6,3
				c0-0.4,0.3-0.7,0.7-0.7h12.8c0.4,0,0.7,0.3,0.7,0.7v3.3c0,0.4-0.3,0.7-0.7,0.7H8.3C7.9,7,7.6,6.7,7.6,6.3L7.6,3L7.6,3z M5.2,15.9
				L8.9,11C9,10.8,9,10.7,9,10.5V8.4h11.4v1.4H14c-0.4,0-0.7,0.3-0.7,0.7c0,0.4,0.3,0.7,0.7,0.7h6.8l3.5,4.6c0.2,0.3,0.4,0.7,0.4,1
				H4.8C4.8,16.6,5,16.2,5.2,15.9z M6.9,33.1c-1.2,0-2.1-1-2.1-2.1v-0.7h12.9c-0.2,0.9-0.2,1.9,0,2.9L6.9,33.1L6.9,33.1z M18.3,28.8
				H4.8V18.4h19.9v5.8l-4.3,2.5C19.5,27.2,18.8,27.9,18.3,28.8z M25.4,35.3c-2,1.2-4.7,0.5-5.8-1.6c-1.2-2.1-0.5-4.7,1.6-5.8
				l3.9-2.2l4.3,7.4L25.4,35.3z M34,30.3l-3.5,2L26.2,25l3.5-2c2-1.2,4.7-0.5,5.8,1.6C36.7,26.5,36,29.1,34,30.3z"/>
		</g>
	</g>
</g>
</svg>
