<?xml version="1.0" encoding="utf-8"?>
<!-- Generator: Adobe Illustrator 21.0.0, SVG Export Plug-In . SVG Version: 6.00 Build 0)  -->
<svg version="1.1" id="Layer_1" xmlns="http://www.w3.org/2000/svg" xmlns:xlink="http://www.w3.org/1999/xlink" x="0px" y="0px"
	 viewBox="0 0 100 100" style="enable-background:new 0 0 100 100;" xml:space="preserve">
<style type="text/css">
	.st0{fill:#FFFFFF;}
	.st1{fill:#DCA952;}
</style>
<g>
	<g>
		<path class="st0" d="M56.2,60h-53C1.4,60,0,58.6,0,56.9v-53c0-1.7,1.4-3.2,3.2-3.2h53c1.7,0,3.2,1.4,3.2,3.2v53
			C59.4,58.6,57.9,60,56.2,60z"/>
		<g>
			<path class="st1" d="M18.8,47.9H9.6L26,12.8h7.3l16.5,35.1h-9.1L28.8,20.3h2L18.8,47.9z M17.2,40.7l3.6-7H38l3.6,7H17.2z"/>
		</g>
	</g>
	<g>
		<path class="st0" d="M96.8,99.3h-53c-1.7,0-3.2-1.4-3.2-3.2v-53c0-1.7,1.4-3.2,3.2-3.2h53c1.7,0,3.2,1.4,3.2,3.2v53
			C100,97.9,98.6,99.3,96.8,99.3z"/>
		<g>
			<path class="st1" d="M72.9,53.8c-1.8-1.1-3.5-1.5-5.2-1.5c-3.8,0-7.6,2.6-7.6,3.4c0,1.2,1.3,2.5,2.8,3.8c1.5,1.1,2.9,1.8,3.8,1.8
				c1,0,5.1-2.1,12.2-4.8l0.4,0.3c-0.6,2.3-1.2,4.6-2,6.9C65.4,67.7,59,72.4,59,76.3c0,4.8,6.4,8.9,17.5,8.9c2.9,0,5.7-0.2,8.4-0.7
				l0.6,0.9c-3.2,2.8-6.1,5.1-9,6.7c-1.4,0.5-2.9,0.5-4.5,0.5c-9.3,0-16.7-4.3-16.7-13.8c0-4,1.6-8.2,5.4-12.5
				c-2.8-2-4.8-4.4-4.8-7.6c0-1.9,0.5-4,2-6.5c1.8-3.1,4.8-5.4,8.1-5.4c3.2,0,5.9,2,8.2,5.8L72.9,53.8z"/>
		</g>
	</g>
</g>
<rect x="-350" y="-100.5" class="st1" width="87.5" height="64.5"/>
</svg>
