<?xml version="1.0" encoding="utf-8"?>
<!-- Generator: Adobe Illustrator 21.0.0, SVG Export Plug-In . SVG Version: 6.00 Build 0)  -->
<svg version="1.1" id="Layer_1" xmlns="http://www.w3.org/2000/svg" xmlns:xlink="http://www.w3.org/1999/xlink" x="0px" y="0px"
	 viewBox="0 0 336 293" style="enable-background:new 0 0 336 293;" xml:space="preserve">
<style type="text/css">
	.st0{filter:url(#Adobe_OpacityMaskFilter);}
	.st1{filter:url(#Adobe_OpacityMaskFilter_1_);}
	.st2{mask:url(#SVGID_1_);fill:url(#SVGID_2_);}
	.st3{fill:#E2E2E2;}
	.st4{fill:#B0B1B2;}
	.st5{fill:#D1AA67;}
	.st6{fill:#F2E1C7;}
	.st7{fill:#07090A;}
	.st8{fill:#33393A;}
	.st9{fill:#2C1E1E;}
	.st10{fill:#999999;}
	.st11{fill:#9CC6DB;}
	.st12{fill:#A0753C;}
	.st13{fill:#BC9153;}
	.st14{font-family:'Muli-Black';}
	.st15{font-size:13.8075px;}
</style>
<g>
	<defs>
		<filter id="Adobe_OpacityMaskFilter" filterUnits="userSpaceOnUse" x="4" y="252.2" width="106.5" height="35.8">
			<feFlood  style="flood-color:white;flood-opacity:1" result="back"/>
			<feBlend  in="SourceGraphic" in2="back" mode="normal"/>
		</filter>
	</defs>
	<mask maskUnits="userSpaceOnUse" x="4" y="252.2" width="106.5" height="35.8" id="SVGID_1_">
		<g class="st0">
			<defs>
				<filter id="Adobe_OpacityMaskFilter_1_" filterUnits="userSpaceOnUse" x="4" y="252.2" width="106.5" height="35.8">
					<feFlood  style="flood-color:white;flood-opacity:1" result="back"/>
					<feBlend  in="SourceGraphic" in2="back" mode="normal"/>
				</filter>
			</defs>
			<mask maskUnits="userSpaceOnUse" x="4" y="252.2" width="106.5" height="35.8" id="SVGID_1_">
				<g class="st1">
				</g>
			</mask>
			<linearGradient id="SVGID_2_" gradientUnits="userSpaceOnUse" x1="57.2256" y1="154.5113" x2="57.2256" y2="424.3631">
				<stop  offset="0" style="stop-color:#FFFFFF"/>
				<stop  offset="1" style="stop-color:#000000"/>
			</linearGradient>
			<ellipse class="st2" cx="57.2" cy="270.1" rx="53.2" ry="17.9"/>
		</g>
	</mask>
	<ellipse class="st3" cx="57.2" cy="270.1" rx="53.2" ry="17.9"/>
	<g>
		<g>
			<path class="st4" d="M312.1,178H67.9V22.9h244.3V178z M68.7,177.2h242.6V23.7H68.7V177.2z"/>
		</g>
		<g>
			<rect x="68.3" y="151.4" class="st4" width="243.4" height="0.9"/>
		</g>
		<g>
			<rect x="68.3" y="125.7" class="st4" width="243.4" height="0.9"/>
		</g>
		<g>
			<rect x="68.3" y="100" class="st4" width="243.4" height="0.9"/>
		</g>
		<g>
			<rect x="68.3" y="74.3" class="st4" width="243.4" height="0.9"/>
		</g>
		<g>
			<rect x="68.3" y="48.6" class="st4" width="243.4" height="0.9"/>
		</g>
		<g>
			<rect x="270.7" y="23.3" class="st4" width="0.8" height="154.3"/>
		</g>
		<g>
			<rect x="230.2" y="23.3" class="st4" width="0.8" height="154.3"/>
		</g>
		<g>
			<rect x="189.6" y="23.3" class="st4" width="0.8" height="154.3"/>
		</g>
		<g>
			<rect x="149" y="23.3" class="st4" width="0.8" height="154.3"/>
		</g>
		<g>
			<rect x="108.4" y="23.3" class="st4" width="0.8" height="154.3"/>
		</g>
	</g>
	<path class="st5" d="M303.3,164.1l-8.8-25.4l-4.4,3.8l-40.1-58.4l-22,11.8l-29-51.8l-37,29.2L140,29.6l-22.4,28.7L98.6,24.8
		L74.2,42.3l3.3,4.9l19.3-13.7l20,35.5L139,40.5l21.3,41.9l37.2-29.3l28.4,50.9l22.4-12.1l37.5,54.5l-4.4,3.8L303.3,164.1z"/>
	<polygon class="st5" points="318.1,175.9 318.1,180.2 64.8,180.2 64.8,22.4 69.1,22.4 62.2,8.1 55.5,22.4 59.6,22.4 59.6,185.2 
		62.3,185.2 62.3,185.5 318.1,185.5 318.1,189.9 332,182.9 	"/>
	<path class="st6" d="M82.5,68.5c0,0,0.8,6.7,0,6.7s-7.1-0.2-7.4-0.5c-0.3-0.4-2.2-7.6-2.2-7.6l2.1-8L82.5,68.5z"/>
	<polygon class="st6" points="65.8,85.1 61.2,90.9 50.4,84.9 56.4,74.7 	"/>
	<path class="st7" d="M43.6,255c0.1-0.5,0.2-0.9,0.4-1.3c0.3-0.5,0.9-0.8,1.5-1c1.4-0.6,3-1.3,4.5-1.2c1.6,0.1,3.2,1.1,3.4,2.7
		c0.1,0.5,0,1.1,0,1.6c0.1,1.9,1.5,3.5,3,4.7c3.5,2.9,7.8,4.9,12.3,5.8c1,0.2,3.5,0.4,4,1.5c0.2,0.7,0,1.3-0.5,1.7
		c-9.3,1.6-19.3-1.8-28.4-5.3c-0.8-1.9-0.8-4-0.6-6C43.3,257.2,43.5,256.1,43.6,255z"/>
	<path class="st8" d="M72.3,269.6c-1.1,1.1-3.7,1.7-4.8,1.8c-1.9,0.1-3.7-0.4-5.5-0.9c-2.4-0.6-4.7-1.3-7.2-1.6
		c-3.1-0.3-6.9,0-9.3-2.3c-0.7-0.7-1.3-1.5-1.6-2.3C53,267.9,63,271.2,72.3,269.6z"/>
	<path class="st6" d="M69.9,56.6c1.6,0.6,3.3,1,4.6,2.1c1.8,1.5,1.7,3.3,2.5,5.3c0.1,0.3,0.2,0.5,0.3,0.8c0,0.5-0.2,0.9-0.5,1.4
		c-1.5,2.8-1.9,5.5-2.4,8.5c-0.8,4.1-3.4,7.4-5.9,10.6c-3.1,3.9-8.2,0.3-11.2-1.9c-0.5-0.3-0.9-0.7-1.4-1.1
		c-6.4-5.6-7.7-19-1.3-25.2C59,52.8,64.9,54.6,69.9,56.6z"/>
	<path class="st9" d="M47.6,53.4c0.5-0.4,1.3-0.4,1.9-0.6c0.5-0.2,1-0.6,1.2-1.1c0.3-0.8-0.2-1.8-0.5-2.5c-0.4-0.9-1.1-1.7-1.2-2.7
		c1.6,0.8,3.2,1.7,4.9,2.5c0.5,0.3,1,0.5,1.5,0.6c0.5,0.1,1,0,1.5-0.1c2.4-0.6,4.5-2,6-3.9c0.2,1.3-0.1,2.7-0.7,3.9
		c1.2-1,3.3-1.5,4.8-2.2c-0.2,1-0.6,2-1.3,2.8c2,0.6,4.2,0.7,6.2,1.2c1.6,0.4,3.2,1.1,4,2.5c-1.6-0.1-3.2-0.3-4.8-0.6
		c4,2.4,7.9,6.2,9.2,10.7l-4.6-1.4c0,0-4.3-3.3-7.4-2c-3.1,1.3-5.2,3.9-5.2,3.9s-2.4-0.4-3.3,3.5c-1.3-1.1-5.4-5-5.8,2.1
		c0.5,3.4,1.8,5.6,2,5.3c-1.8,1.5-3.4-0.7-3.9,1.4c-0.5,2.1-4-6.2-4-6.2c0-2.5,0-4.9,0-7.4c0-1.5,0.6-2.7,0.7-4.1
		c0.2-1.7-0.6-3.7-1.2-5.3c0-0.1-0.1-0.2,0-0.3C47.5,53.5,47.6,53.5,47.6,53.4z"/>
	<path class="st10" d="M82.5,68.5c0.1-0.2,1.1,0.7,2.4,1.8c-1.9,3-4.9,5.2-8.2,6.6c-0.7-1.1-1.4-2.1-2.1-3.2
		C74.5,73.8,79.9,71.8,82.5,68.5z"/>
	<path class="st4" d="M82.6,89.5c-0.4-0.5-0.7-1-1.1-1.5c1.1,0.3,2.2,0.6,3.2,1c-2.5-4.1-5.4-8-8.1-12c3.3-1.4,6.3-3.6,8.2-6.6
		c2,1.8,4.5,4.4,4.8,4.8c2,2.4,3.4,5.4,4.2,8.4c0.1-0.7,0.3-1.4,0.4-2.1c-0.1,0.4,1.6,3.4,1.9,4.1c0.9,1.8,2,3.4,3,5.1
		c0.2,0.3,0.4,0.7,0.3,1c0,0.3-0.2,0.5-0.4,0.8c-2.2,2.9-3.4,4.8-6.7,6.5c-2.9,1.5-5.7,3.2-8.5,4.8c-3.6,2.2-7.2,4.4-10.7,6.7
		l-5.7-17.9c0,0,5.6-2,6-2.1C76.5,89.3,79.7,87.4,82.6,89.5z"/>
	<path class="st10" d="M47.6,82.7l-15.9,19.4c0.7,2.1,1.2,4.4,2,6.5c0.2,0.4,0.3,0.9,0.5,1.3c4,1.2,8.3,1.4,12.1-0.8
		c6.5-3.4,9.7-10.5,8.7-17.1l0,0v0v0c1.9-0.5,3.9-0.7,6-0.6c1.9,1.4,2.9,3.6,3.7,5.4c4.6,10.3,5.4,23.3,10.1,33.7
		c1.3-24.9-4.9-37.3-4.9-37.3l-0.3-0.4l-4-5.3l-6.8,0.3l-7-3.2L47.6,82.7z M62.8,91.5c0.5,0,1,0.1,1.4,0.2
		C63.7,91.6,63.3,91.5,62.8,91.5z M61.3,91.4c0.4,0,0.8,0,1.1,0.1C62,91.4,61.7,91.4,61.3,91.4z"/>
	<polygon class="st11" points="55,91.9 55,91.9 55,91.9 	"/>
	<path class="st4" d="M46.3,109c6.5-3.4,9.7-10.5,8.7-17.1c1.9-0.5,3.9-0.7,6-0.6c1.9,1.4,2.9,3.6,3.7,5.4
		c4.6,10.3,5.4,23.3,10.1,33.7c-0.1,2.2-0.3,4.4-0.5,6.8c-4.4,0.7-31.5,0-31.7,0c-0.6,0-2.3-11.8-2.6-12.7c-0.1,0.7-0.3,1.5-0.8,2.1
		c-1-3-2-6-3-9c-0.9-2.6-1.3-5.2-2.1-7.8C38.2,111,42.5,111.2,46.3,109z"/>
	<path class="st5" d="M67.8,91.9c0.2-0.4,0.4-0.7,0.4-1.1c0.6,0.7,1,1.3,1,1.3c1.9,2.5,8.4,13.1,9,15.3c0.9,2.9,6.3,15.3,8.4,18.6
		c0.2,0.3-0.9,11.5-2.1,12.7l-8.9-9.7c0,0-8.9-34.2-9.6-35.8L65.8,93C66.6,93,67.3,92.8,67.8,91.9z"/>
	<path class="st5" d="M64.8,87c1,0.4,1.5,1.2,1.7,1.5c0.6,0.8,1.2,1.6,1.7,2.4c-0.1,0.4-0.2,0.7-0.4,1.1c-0.5,0.8-1.2,1.1-2,1
		c-0.6-0.2-1.9-0.7-3-1.9c-1.2-1.3-1.6-2.7-1.8-3.4c0.3-0.3,0.7-0.5,1-0.8C62.4,86.8,63.5,86.5,64.8,87z"/>
	<path class="st10" d="M54.7,82.5c-1,1.6-2.3,2.8-3.9,3.9c-1.9-0.8-3.3-1.4-3.4-1.4c-0.3,0,0.7-6.5,0.7-6.5L54.7,82.5z"/>
	<path class="st4" d="M54.7,82.5l7.4,4.5l-0.9,4c0,0-6.3-2.8-10.4-4.6C52.4,85.3,53.8,84,54.7,82.5z"/>
	<path class="st6" d="M49.5,51.9c0,0,0.8-0.5,0.9-0.5c0.2,0.1,0.6,0.8,0.6,0.8l-0.8,4.7v4.4l0.5-5.5l0.8-4.8l0.7-0.4
		c0,0,1.1,0.4,1,0.4c-0.1,0-0.7,5.3-0.7,5.3v5.3l1-5.2l4-2.7l0.6-0.1l0.6,0.9l-3.2,2.9l-0.2,4.8l2.8-3.9l3.1-2.9l0.9,0.2
		c0,0,0.1,0.5,0,0.8c-0.1,0.3-3,3.7-3,3.7l-0.9,2.5l-0.5,5.9l-1.4,5.3l-9.2-0.9l0.1-9.4l-0.1-5.2L49.5,51.9z"/>
	<path class="st10" d="M47.9,69.7c0.9,0.3,1.7,0.7,2.5,1c1.7,0.7,3.6,1.3,5.3,2.1c0.6,0.3,1.1,0.6,1.7,0.9c-0.3,1.3-0.8,2.5-1.4,3.7
		c-3.9-2.1-7.9-3.6-11.8-5.3c1.1-1,2.9-2.6,3.2-2.5C47.3,69.6,47.5,69.6,47.9,69.7z"/>
	<path class="st4" d="M27.2,86.9c4.6-3.5,8.6-7.5,12.9-11.3c0,0.5-0.1,1.1-0.1,1.6c1.3-1.3,1.7-3.3,3.2-4.3c0.1-0.1,0.5-0.4,0.9-0.8
		c3.9,1.7,8,3.2,11.8,5.3c-0.6,1.1-1.3,2.1-2,2.9c-1,1-2.5,3-3.5,4c-0.9,0.9-1.7,2.5-3.2,2.6c-0.8,0-1.5-0.3-2.2-0.6
		c0.6,1,1.2,1.9,1.7,2.9c-1.1-0.2-2.1-0.5-3.1-1c0.7,0.9,1.3,1.8,2,2.7c-0.6,0.1-1.2,0-1.7-0.4c1.8,1.4,3,3.4,3.9,5.5
		c0.5,1.1,0.9,2.3,1.4,3.5c0.6,1.7-0.1,2-1.1,3.2c-2,2.6-1.9,4.8-5.3,5.8c-4.1,1.2-10.7,0.3-12.2-4.5c-1.1-3.4-3.2-7.1-3.3-10.7
		c0.6,0.6,1.1,1.2,1.7,1.8C29.1,94.3,26.9,87.2,27.2,86.9z"/>
	<path d="M38.7,258.3c1.1-0.8,11.9-1.9,12-1.1c0.2,1.1,0.4,2.2,0.6,3.3c0.1,0.6,0.2,1.1,0.3,1.7c0.3,1.7,0.6,3.4,1.2,5.1
		c1.8,5.2,9.1,10.3,14.1,12.9c0.5,0.3,1.1,0.8,0.9,1.3c-0.1,0.2-0.3,0.3-0.5,0.4c-0.4,0.2-0.9,0.4-1.3,0.6
		c-8.9,0.8-18.3-2.9-23.8-11.1c-0.8-1.2-2.8-1.9-4.7-2.2C35.8,265.6,36,260.2,38.7,258.3z"/>
	<path class="st8" d="M42.2,271.3c5.5,8.2,14.9,11.9,23.8,11.1c-4.1,1.4-10.8,0.9-14.1-1.2c-2.1-1.4-4-3-5.8-4.8
		c-1.5-1.5-2.9-3.9-5.1-4.3c-0.3-0.1-0.7-0.1-1-0.3c-1.1-0.5-1.9-1.5-2.5-2.7C39.4,269.4,41.3,270,42.2,271.3z"/>
	<path class="st12" d="M48,167.6l-5.1-26.8l28,1c0-0.2-0.1-0.4-0.1-0.6l3.4,0.1c0,0,2.2,34,2.2,34.7c0,6.6-2,13.3-3.3,19.7
		c-0.6-0.7-1-1.6-1.1-2.5c0.1,3,0.2,6,0.4,9c0,0.7,0.1,1.5-0.1,2.2c-0.2,0.8-0.6,1.5-1,2.2c-2.4,4.2-2.7,8.5-4.3,13
		c-1.7,4.8-3.5,9.6-5.2,14.4c-2.7,7.4-5.4,14.9-8.1,22.3h-2c0,0.2-0.1,0.4-0.1,0.6H38c2.3-10.1,15.9-55.8,15.7-56.3
		C53.5,200.1,48,167.6,48,167.6z"/>
	<path class="st13" d="M43.7,209.6c-1.3-7.1-2.3-14.6-2.4-21.8c-0.1-5.2-0.2-10.4-0.3-15.7c0.6,0.4,1.1,0.7,1.7,1.1
		c-3-6.2-2.8-13.3-3.2-20l3.6-15.6l1.3,0.1l2.7,0.2l7.7,0.5l15.2,1.1l4.3,0.3l-3.1,24.3l-11,43.4l-7.9,52.6l-1.5-0.1l-10.2-0.9
		l-2.9-0.3c0-8.1,0-16.1,0-24.2c0-9.4,1.2-18.7,4-27.6C42.7,207.6,43.4,208.5,43.7,209.6z"/>
	<path class="st5" d="M43.7,209.6c-1.3-7.1-2.3-14.6-2.4-21.8c-0.1-5.2-0.2-10.4-0.3-15.7c0.6,0.4,1.1,0.7,1.7,1.1
		c-3-6.2-2.8-13.3-3.2-20l3.6-15.6l1.3,0.1c-3.4,13.6-1.3,27,2.8,40.3c-1.3-0.4-3.1-1.3-3.1-0.9c-2.6,12.3,5.7,25,0.9,35.5
		c-0.9,1.3-3.5,7-3.5,10.1c0.7,12.3-0.8,24.3-0.8,36.4l-2.9-0.3c0-8.1,0-16.1,0-24.2c0-9.4,1.2-18.7,4-27.6
		C42.7,207.6,43.4,208.5,43.7,209.6z"/>
	<path class="st12" d="M54.8,138.4c-2.3,6.4-7,19.7-7.5,20c-0.5,0.3-0.3-12.2-0.2-20.6L54.8,138.4z"/>
	<polygon class="st12" points="74.4,137.6 74.4,141.9 42.2,141.6 42.6,137.3 	"/>
	<polygon class="st9" points="68.5,69.6 65,64.6 69.7,67.8 	"/>
	<polygon class="st9" points="75.3,70.1 72.9,71.1 72.9,69.6 75.8,68.5 	"/>
	<polygon class="st9" points="70.7,79.8 71.7,80.9 70.6,82.4 69.7,80.5 65.8,79.8 59.8,82.5 59.8,80.9 67.3,78.4 	"/>
	<polygon class="st9" points="61,82.8 65,85.4 66.5,85.6 69.7,83.6 66.8,87 64.3,87.8 57.2,83.4 59.8,80.9 	"/>
	<text transform="matrix(1 0 0 1 80.2793 202.25)" class="st5 st14 st15">Insolvency and Restructuring</text>
</g>
</svg>
