<?xml version="1.0" encoding="utf-8"?>
<!-- Generator: Adobe Illustrator 21.0.0, SVG Export Plug-In . SVG Version: 6.00 Build 0)  -->
<svg version="1.1" id="Layer_1" xmlns="http://www.w3.org/2000/svg" xmlns:xlink="http://www.w3.org/1999/xlink" x="0px" y="0px"
	 viewBox="0 0 938.7 256" style="enable-background:new 0 0 938.7 256;" xml:space="preserve">
<style type="text/css">
	.st0{fill:#9FA0A3;}
	.st1{fill:#DCA953;}
</style>
<g>
	<g>
		<g>
			<path class="st0" d="M243.7,176.7C225,223.2,179.6,256,126.6,256C56.5,256,0,199,0,128.9c0-18,3.7-35,10.1-50.5l115.3-1.8
				l-9.7,12.9l-14.5,34.6c20.1,17.5,34.8,8.5,45.4-20.7L165,102l47.9,46.1l0,0c12,10.4-3,23.1-11.1,14.5l-29-28.8
				c-2.1-0.5-3.5,0.5-4.1,2.3l28.8,28.6c3.7,3.5,3.7,9.2,0.2,12.7l0,0c-3.5,3.5-9.2,3.7-12.9,0L156,148.8c-0.2-0.2-0.7-0.7-0.9-0.9
				l0,0c-2.3-1.2-4.1,0.9-3.2,3l24.4,24.2c3.5,3.5,3.7,9.2,0,12.9l0,0c-3.5,3.5-9.2,3.5-12.7,0l-15.4-15.2c0,0-2.5-2.5-3.2-3.2
				c0-0.5,0-0.9,0-1.2c0.2-3.2-0.7-6.5-2.8-8.8c0-0.2,0-0.2-0.2-0.5c-0.2-0.5-0.7-0.7-1.2-1.2c0,0-0.2,0-0.2-0.2
				c-1.4-1.2-3-2.1-5.1-2.5l0,0c-3-0.7-5.8-0.5-8.5,0.7v0.2l0,0l0,0h-0.2l0,0l0,0h-0.2v0.2h-0.2l0,0h-0.2v0.2H126l0,0l0,0h-0.2v0.2
				h-0.2l0,0v0.2h-0.2l0,0l0,0h-0.2v0.2l0,0c0,0,0,0-0.2,0l0,0l0,0v0.2h-0.2l0,0l0,0l0,0l0,0c-0.2,0.2-0.2,0.2-0.2,0.2l0,0H124v0.2
				l0,0c0,0,0,0-0.2,0l0,0l0,0v0.2l0,0h-0.2l0,0l0,0c0,0.2-0.2,0.2-0.2,0.2l0,0c0,0.2-0.2,0.2-0.2,0.5l0,0l0,0H123l0,0
				c0,0,0,0.2-0.2,0.2l0,0l0,0c0,0,0,0,0,0.2l0,0l0,0h-0.2l0,0c0,0.2,0,0.2-0.2,0.2l0.5-0.9c0-0.2,0-0.2,0-0.2v-0.2v0.1l0,0
				c0-0.2,0-0.2,0.2-0.2v-0.2l0,0v-0.2v-0.2l0,0V157v-0.2v-0.2l0,0v-0.2l0,0v-0.2V156v-0.2l0,0v-0.2l0,0c0-0.2,0-0.2,0-0.2v-0.2V155
				l0,0c0-0.2,0-0.2,0-0.2v-0.2c0,0,0,0,0-0.2l0,0v-0.2V154l0,0v-0.2l0,0l-0.2-0.2v-0.2l0,0v-0.2V153l0,0l-0.2-0.2l0,0v-0.2v-0.2
				l0,0v-0.2c-0.2,0-0.2,0-0.2-0.2l0,0c0-0.2-0.2-0.5-0.2-0.7l0,0v-0.2h-0.2c0-0.2,0-0.2,0-0.2l0,0v-0.2l-0.2-0.2l0,0v-0.2h-0.2V149
				l0,0l-0.2-0.2c0,0,0,0,0-0.2l0,0c0,0-0.2,0-0.2-0.2l0,0c-0.2-0.5-0.7-0.9-1.2-1.4l0,0c0-0.2-0.2-0.2-0.2-0.2l0,0
				c0-0.2,0-0.2-0.2-0.2l0,0c0-0.2,0-0.2-0.2-0.2l0,0V146h-0.2c0,0,0,0,0-0.2h-0.2c0,0,0,0,0-0.2h-0.2c-0.5-0.2-0.9-0.7-1.6-1.2l0,0
				c0,0,0,0-0.2,0l0,0c0,0,0-0.2-0.2-0.2l0,0h-0.2l0,0c0-0.2-0.2-0.2-0.2-0.2l0,0c-0.2,0-0.2,0-0.2,0l0,0c-0.2-0.2-0.2-0.2-0.2-0.2
				H115c0,0,0,0-0.2,0l0,0l0,0c-0.5-0.2-0.9-0.5-1.4-0.5l0,0c-1.6-0.5-3-0.5-4.4-0.5l0,0h-0.2l0,0c-0.5,0-0.7,0.2-1.2,0.2l0,0
				c-0.2,0-0.7,0.2-1.2,0.2l0,0c-0.2,0.2-0.5,0.2-0.7,0.2v0.2h-0.2l0,0h-0.2l0,0c-0.2,0.2-0.5,0.2-0.5,0.2l0,0l-0.2,0.2l0,0h-0.2
				l0,0h-0.2v0.2H104h-0.2v0.2l0,0h-0.2l0,0l-0.2,0.2l0,0H103v0.2h-0.2l0,0l-0.2,0.2l0,0l0,0h-0.2v0.2h-0.2l0,0l0,0l0,0
				c0,0.2-0.2,0.2-0.2,0.2l0,0l-0.2,0.2l0,0l0,0l-0.2,0.2l0,0l0,0h-0.2v0.2l0,0l0,0l-0.2,0.2l0,0H101v0.2l0,0h-0.2v0.2l0,0l0,0l0,0
				c-0.2,0.2-0.2,0.2-0.2,0.2l0,0l-0.2,0.2l0,0v0.2h-0.2c0,0,0,0,0,0.2l0,0c0,0-0.2,0-0.2,0.2l0,0l0,0l-0.2,0.2l0,0v0.2h-0.2l0,0
				c0,0.2,0,0.2,0,0.2c0-5.5-3.9-10.6-9.7-12.2c-5.3-1.2-10.6,0.9-13.6,5.1c0,0,0-0.2-0.2-0.2l0,0l0,0l0,0v-0.2l0,0l0,0l0,0l0,0
				v-0.2l0,0v-0.2l0,0l0,0l0,0l0,0h-0.2v-0.2l0,0l0,0l0,0l0,0l0,0l0,0l0,0v-0.2l0,0l0,0l0,0l0,0l0,0l0,0v-0.2h-0.2l0,0l0,0l0,0l0,0
				v0.3l0,0l0,0l0,0l0,0l0,0v-0.2l0,0l-0.2-0.2l0,0l0,0v-0.2l0,0l-0.2-0.2l0,0l0,0V139h-0.2l0,0v-0.2l0,0v-0.2h-0.2l0,0v-0.2l0,0
				v-0.2H74l0,0V138c0,0,0,0-0.2,0l0,0v-0.2l0,0v-0.2h-0.2l0,0V137l0,0h-0.2v-0.2l0,0h-0.2c0-0.2,0-0.2,0-0.2l0,0l-0.2-0.2l0,0l0,0
				l0,0l-0.2-0.2l0,0l0,0l-0.2-0.2l0,0l0,0v-0.2h-0.2v-0.2h-0.2l0,0v-0.2H72l0,0l0,0l-0.2-0.2l0,0l0,0l-0.2-0.2l0,0l0,0l0,0
				l-0.2-0.2l0,0l0,0h-0.2v-0.2H71l0,0l0,0l-0.2-0.2l0,0h-0.2l0,0v-0.2l0,0h-0.2l0,0l0,0l-0.2-0.2l0,0H70l0,0l0,0l-0.2-0.2l0,0h-0.2
				l0,0v-0.2l0,0c-0.2,0-0.2,0-0.5,0l0,0l-0.2-0.2l0,0H68l0,0h-0.2v-0.2h-0.2l0,0c0,0,0,0-0.2,0l0,0l0,0l-0.2-0.2l0,0H67l0,0l0,0
				h-0.2l0,0l-0.2-0.2l0,0h-0.2c0,0,0,0-0.2,0l0,0c-6.9-1.8-14.3,2.8-15.9,9.7l-2.5,11.3H29.7c11.1,44,56.2,77.2,110.4,77.2
				c37.8,0,69.8-12.2,90.1-37.1C233.7,188.9,238.8,183.1,243.7,176.7L243.7,176.7z M89.4,136.8L89.4,136.8L89.4,136.8z M144.1,173.4
				c-0.9,6.9-2.8,13.4-6.2,18.7l4.8,5.5l3.2,3c3.5,3.7,9.2,3.7,12.7,0l0,0c3.7-3.5,3.5-9.2,0-12.7l-10.4-10.4L144.1,173.4z"/>
			<path class="st1" d="M127.5,0.1c33.9-1.4,64.8,13.1,87.6,36.2c14.8,14.8,26.3,33.4,32.7,53.5c9.5,28.4,7.6,55.3-2.3,83.4
				c-11.3-11.8-22.8-22.8-34.6-34.1l-43.8-42.4l-22.6,1.8c-4.4,8.1-11.1,24.4-20.1,27.7c-5.3,2.1-14.1,0.5-18.2-3.9l12-28.4
				c1.4-2.8,7.1-11.1,9.7-13.1c3-2.5,7.1-3.9,13.1-4.1c4.1-0.2,8.8,0,13.1,0h56.7C187.9,45.5,148.2,25.2,109,25.2
				c-39,0-72.8,21.7-95.9,46.1C34.8,32.6,66.6,2.6,127.5,0.1z"/>
		</g>
		<path class="st1" d="M112,148.5L112,148.5c5.3,1.2,8.3,6.7,6.9,12l-4.4,16.4c-1.4,5.3-6.9,8.5-12.2,7.1l0,0
			c-5.3-1.2-8.3-6.7-6.9-11.8l4.4-16.6C101.2,150.4,106.7,147.2,112,148.5z"/>
		<path class="st1" d="M88.1,142.1L88.1,142.1c5.3,1.2,8.5,6.7,7.1,12l-4.4,16.6c-1.4,5.5-7.1,8.8-12.4,7.4l0,0
			c-5.3-1.4-8.5-6.7-7.1-12l4.6-16.8C77.2,143.9,82.8,140.7,88.1,142.1z"/>
		<path class="st1" d="M65,136.8L65,136.8c5.1,1.2,8.3,6.5,7.1,11.5l-2.8,12.4c-1.4,5.3-6.5,8.3-11.5,7.1l0,0
			c-5.1-1.4-8.3-6.7-7.1-11.8l3-12.4C54.9,138.6,59.9,135.4,65,136.8z"/>
		<path class="st1" d="M133.9,159.8L133.9,159.8c5.1,1.2,8.1,6.2,6.7,11.3l-2.1,8.1l-0.9,3.7c-3.2,12.2-21.7,7.6-18.4-4.4l0.7-3
			l2.3-8.8C123.6,161.7,128.9,158.5,133.9,159.8z"/>
	</g>
	<path class="st1" d="M394.7,148.6h-44.3L344,170h-40l47.7-129.9h42.8L442,170h-41L394.7,148.6L394.7,148.6z M386.4,120.5
		l-13.8-46.7l-13.9,46.7H386.4L386.4,120.5z M459.9,40.1h51.6l19.7,79.1l19.7-79.1h51.4V170h-32V71l-24.7,99h-29l-24.7-99v99h-32
		V40.1L459.9,40.1z M717.5,116.8l34.3,10.6c-2.3,9.9-5.9,18.1-10.9,24.7s-11.1,11.6-18.5,15c-7.3,3.4-16.7,5.1-28,5.1
		c-13.8,0-25-2.1-33.8-6.1c-8.7-4.1-16.2-11.3-22.6-21.7c-6.3-10.3-9.5-23.6-9.5-39.7c0-21.5,5.6-38,16.7-49.5
		c11.2-11.5,26.9-17.3,47.4-17.3c16,0,28.5,3.3,37.7,9.9c9.1,6.6,15.9,16.8,20.3,30.5l-34.5,7.8c-1.2-3.9-2.5-6.8-3.8-8.6
		c-2.2-3.1-4.9-5.4-8-7c-3.2-1.7-6.7-2.5-10.6-2.5c-8.9,0-15.7,3.7-20.4,10.9c-3.6,5.4-5.4,13.9-5.4,25.5c0,14.4,2.1,24.2,6.4,29.6
		c4.3,5.3,10.3,8,18,8c7.5,0,13.2-2.1,17-6.5C713,131.3,715.8,125,717.5,116.8L717.5,116.8z M854.5,148.6h-44.3l-6.4,21.4h-39.9
		l47.7-129.9h42.8L901.9,170h-41L854.5,148.6L854.5,148.6z M846.3,120.5l-13.8-46.7l-13.9,46.7H846.3z"/>
	<g>
		<path class="st0" d="M272.3,210.4c0,0.1,0,0.2-0.1,0.3s-0.2,0.2-0.4,0.3c-0.2,0.1-0.5,0.1-0.8,0.2c-0.3,0-0.7,0.1-1.2,0.1
			s-0.9,0-1.2-0.1c-0.3,0-0.6-0.1-0.8-0.2c-0.2-0.1-0.3-0.2-0.4-0.3s-0.1-0.2-0.1-0.3v-23.6c0-0.1,0-0.2,0.1-0.3s0.2-0.2,0.4-0.3
			c0.2-0.1,0.5-0.1,0.8-0.2c0.3,0,0.7-0.1,1.2-0.1s0.9,0,1.2,0.1c0.3,0,0.6,0.1,0.8,0.2c0.2,0.1,0.3,0.2,0.4,0.3s0.1,0.2,0.1,0.3
			V210.4L272.3,210.4z M298.3,209.3c0,0.3-0.1,0.6-0.2,0.8s-0.2,0.4-0.4,0.6c-0.2,0.2-0.4,0.3-0.6,0.3c-0.2,0.1-0.5,0.1-0.7,0.1
			h-2.2c-0.5,0-0.8,0-1.2-0.1c-0.3-0.1-0.6-0.3-0.9-0.5s-0.5-0.6-0.8-1s-0.5-0.9-0.9-1.6l-6.2-11.7c-0.4-0.7-0.7-1.4-1.1-2.3
			c-0.4-0.8-0.7-1.6-1-2.3l0,0c0.1,0.9,0.1,1.8,0.1,2.8c0,0.9,0,1.9,0,2.8v13.1c0,0.1,0,0.2-0.1,0.3s-0.2,0.2-0.4,0.3
			c-0.2,0.1-0.4,0.1-0.7,0.2c-0.3,0-0.7,0.1-1.1,0.1c-0.5,0-0.8,0-1.1-0.1c-0.3,0-0.5-0.1-0.7-0.2c-0.2-0.1-0.3-0.2-0.3-0.3
			c-0.1-0.1-0.1-0.2-0.1-0.3v-22.4c0-0.6,0.2-1.1,0.5-1.4c0.3-0.3,0.8-0.5,1.3-0.5h2.7c0.5,0,0.9,0,1.2,0.1c0.3,0.1,0.6,0.2,0.9,0.4
			s0.5,0.5,0.7,0.8s0.5,0.8,0.7,1.3l4.8,9.1c0.3,0.6,0.6,1.1,0.8,1.6c0.3,0.5,0.5,1.1,0.8,1.6s0.5,1.1,0.8,1.6
			c0.2,0.5,0.5,1,0.7,1.5l0,0c0-0.9-0.1-1.8-0.1-2.8s0-1.9,0-2.8v-11.7c0-0.1,0-0.2,0.1-0.3s0.2-0.2,0.4-0.3
			c0.2-0.1,0.4-0.1,0.7-0.2c0.3,0,0.7,0,1.1,0s0.8,0,1.1,0c0.3,0,0.5,0.1,0.7,0.2c0.2,0.1,0.3,0.2,0.3,0.3c0.1,0.1,0.1,0.2,0.1,0.3
			v22.6H298.3z M320.3,188.2c0,0.4,0,0.7,0,1s-0.1,0.5-0.1,0.6c-0.1,0.2-0.1,0.3-0.2,0.4c-0.1,0.1-0.2,0.1-0.3,0.1h-6.2v20.1
			c0,0.1,0,0.2-0.1,0.3s-0.2,0.2-0.4,0.3c-0.2,0.1-0.5,0.1-0.8,0.2c-0.3,0-0.7,0.1-1.2,0.1s-0.9,0-1.2-0.1c-0.3,0-0.6-0.1-0.8-0.2
			c-0.2-0.1-0.3-0.2-0.4-0.3s-0.1-0.2-0.1-0.3v-20.1H302c-0.1,0-0.2,0-0.3-0.1c-0.1-0.1-0.2-0.2-0.2-0.4c-0.1-0.2-0.1-0.4-0.1-0.6
			c0-0.3,0-0.6,0-1s0-0.7,0-1s0.1-0.5,0.1-0.6c0.1-0.2,0.1-0.3,0.2-0.3c0.1-0.1,0.2-0.1,0.3-0.1h17.6c0.1,0,0.2,0,0.3,0.1
			c0.1,0.1,0.2,0.2,0.2,0.3c0.1,0.2,0.1,0.4,0.1,0.6C320.3,187.5,320.3,187.8,320.3,188.2L320.3,188.2z M338,209c0,0.4,0,0.7,0,0.9
			c0,0.3-0.1,0.5-0.1,0.6c-0.1,0.2-0.1,0.3-0.2,0.3c-0.1,0.1-0.2,0.1-0.3,0.1h-12.5c-0.4,0-0.8-0.1-1.1-0.4
			c-0.3-0.3-0.4-0.7-0.4-1.2v-21.8c0-0.6,0.1-1,0.4-1.2s0.6-0.4,1.1-0.4h12.5c0.1,0,0.2,0,0.3,0.1c0.1,0.1,0.2,0.2,0.2,0.3
			c0.1,0.2,0.1,0.4,0.1,0.6c0,0.3,0,0.6,0,1s0,0.7,0,0.9c0,0.3-0.1,0.5-0.1,0.6c-0.1,0.2-0.1,0.3-0.2,0.3c-0.1,0.1-0.2,0.1-0.3,0.1
			h-8.9v6.1h7.5c0.1,0,0.2,0,0.3,0.1c0.1,0.1,0.2,0.2,0.2,0.3c0.1,0.1,0.1,0.3,0.1,0.6s0,0.6,0,0.9c0,0.4,0,0.7,0,0.9
			s-0.1,0.4-0.1,0.6c-0.1,0.2-0.1,0.3-0.2,0.3c-0.1,0.1-0.2,0.1-0.3,0.1h-7.5v7h9c0.1,0,0.2,0,0.3,0.1c0.1,0.1,0.2,0.2,0.2,0.3
			c0.1,0.2,0.1,0.4,0.1,0.6C338,208.4,338,208.7,338,209L338,209z M361.9,190c0,0.4,0,0.7,0,1s-0.1,0.5-0.1,0.6
			c-0.1,0.2-0.1,0.3-0.2,0.3c-0.1,0.1-0.2,0.1-0.3,0.1c-0.2,0-0.4-0.1-0.8-0.3s-0.9-0.5-1.5-0.8s-1.3-0.5-2.2-0.8
			c-0.9-0.2-1.8-0.3-3-0.3s-2.3,0.2-3.3,0.6c-1,0.4-1.8,1-2.5,1.8s-1.2,1.7-1.6,2.8s-0.6,2.3-0.6,3.6c0,1.4,0.2,2.7,0.6,3.8
			s0.9,2,1.6,2.7s1.5,1.3,2.5,1.7s2,0.6,3.2,0.6c0.6,0,1.1-0.1,1.7-0.2c0.6-0.1,1.1-0.3,1.5-0.6v-5.8h-4.7c-0.2,0-0.4-0.1-0.5-0.4
			c-0.1-0.3-0.2-0.8-0.2-1.5c0-0.4,0-0.7,0-0.9s0.1-0.4,0.1-0.6c0.1-0.2,0.1-0.3,0.2-0.3c0.1-0.1,0.2-0.1,0.3-0.1h8.4
			c0.2,0,0.4,0,0.5,0.1c0.2,0.1,0.3,0.2,0.4,0.3s0.2,0.3,0.3,0.5c0.1,0.2,0.1,0.4,0.1,0.7v9.9c0,0.4-0.1,0.7-0.2,1s-0.4,0.5-0.8,0.7
			s-0.9,0.3-1.6,0.5c-0.6,0.2-1.3,0.3-1.9,0.5c-0.7,0.1-1.3,0.2-2,0.3s-1.3,0.1-2,0.1c-2,0-3.8-0.3-5.4-0.9c-1.6-0.6-2.9-1.4-4-2.5
			s-1.9-2.4-2.5-4s-0.9-3.3-0.9-5.3s0.3-3.9,0.9-5.5s1.5-3,2.6-4.2c1.1-1.1,2.5-2,4.1-2.6s3.4-0.9,5.3-0.9c1.1,0,2.1,0.1,3,0.2
			c0.9,0.2,1.7,0.3,2.3,0.5c0.7,0.2,1.2,0.4,1.6,0.7s0.7,0.5,0.9,0.6c0.2,0.2,0.3,0.4,0.4,0.8C361.9,188.8,361.9,189.3,361.9,190
			L361.9,190z M385.6,210.4c0,0.1,0,0.3-0.1,0.4c-0.1,0.1-0.2,0.2-0.4,0.2c-0.2,0.1-0.5,0.1-0.8,0.1c-0.4,0-0.9,0-1.5,0
			c-0.5,0-1,0-1.3,0s-0.6-0.1-0.8-0.1c-0.2-0.1-0.3-0.2-0.4-0.3s-0.1-0.2-0.2-0.4l-2.3-5.6c-0.3-0.6-0.5-1.2-0.8-1.7
			s-0.5-0.9-0.9-1.2c-0.3-0.3-0.7-0.6-1.1-0.7c-0.4-0.2-0.9-0.3-1.4-0.3H372v9.5c0,0.1,0,0.2-0.1,0.3s-0.2,0.2-0.4,0.3
			c-0.2,0.1-0.4,0.1-0.8,0.2c-0.3,0-0.7,0.1-1.2,0.1s-0.9,0-1.2-0.1c-0.3,0-0.6-0.1-0.8-0.2c-0.2-0.1-0.3-0.2-0.4-0.3
			s-0.1-0.2-0.1-0.3v-22.7c0-0.6,0.1-1,0.4-1.2s0.6-0.4,1.1-0.4h6.5c0.7,0,1.2,0,1.6,0s0.8,0.1,1.2,0.1c1,0.1,1.9,0.4,2.7,0.7
			c0.8,0.3,1.5,0.8,2,1.4c0.6,0.6,1,1.2,1.3,2s0.4,1.6,0.4,2.6c0,0.8-0.1,1.6-0.3,2.3c-0.2,0.7-0.5,1.3-0.9,1.8s-0.9,1-1.5,1.4
			s-1.3,0.7-2.1,1c0.4,0.2,0.7,0.4,1.1,0.7c0.3,0.3,0.6,0.6,0.9,0.9c0.3,0.4,0.6,0.8,0.8,1.3c0.3,0.5,0.5,1,0.7,1.6l2.1,4.9
			c0.2,0.5,0.3,0.8,0.4,1.1C385.5,210.1,385.6,210.3,385.6,210.4L385.6,210.4z M379,193.5c0-0.8-0.2-1.5-0.6-2.1s-1-1-1.8-1.2
			c-0.3-0.1-0.5-0.1-0.9-0.2c-0.3,0-0.8-0.1-1.4-0.1H372v7.1h2.6c0.7,0,1.3-0.1,1.9-0.3c0.5-0.2,1-0.4,1.4-0.7s0.6-0.7,0.8-1.1
			C378.9,194.5,379,194,379,193.5L379,193.5z M394.4,210.4c0,0.1,0,0.2-0.1,0.3s-0.2,0.2-0.4,0.3c-0.2,0.1-0.5,0.1-0.8,0.2
			c-0.3,0-0.7,0.1-1.2,0.1s-0.9,0-1.2-0.1c-0.3,0-0.6-0.1-0.8-0.2c-0.2-0.1-0.3-0.2-0.4-0.3s-0.1-0.2-0.1-0.3v-23.6
			c0-0.1,0-0.2,0.1-0.3s0.2-0.2,0.4-0.3c0.2-0.1,0.5-0.1,0.8-0.2c0.3,0,0.7-0.1,1.2-0.1s0.9,0,1.2,0.1c0.3,0,0.6,0.1,0.8,0.2
			c0.2,0.1,0.3,0.2,0.4,0.3s0.1,0.2,0.1,0.3V210.4L394.4,210.4z M416.4,188.2c0,0.4,0,0.7,0,1s-0.1,0.5-0.1,0.6
			c-0.1,0.2-0.1,0.3-0.2,0.4c-0.1,0.1-0.2,0.1-0.3,0.1h-6.2v20.1c0,0.1,0,0.2-0.1,0.3s-0.2,0.2-0.4,0.3c-0.2,0.1-0.5,0.1-0.8,0.2
			c-0.3,0-0.7,0.1-1.2,0.1s-0.9,0-1.2-0.1c-0.3,0-0.6-0.1-0.8-0.2c-0.2-0.1-0.3-0.2-0.4-0.3s-0.1-0.2-0.1-0.3v-20.1h-6.2
			c-0.1,0-0.2,0-0.3-0.1c-0.1-0.1-0.2-0.2-0.2-0.4c-0.1-0.2-0.1-0.4-0.1-0.6c0-0.3,0-0.6,0-1s0-0.7,0-1s0.1-0.5,0.1-0.6
			c0.1-0.2,0.1-0.3,0.2-0.3c0.1-0.1,0.2-0.1,0.3-0.1H416c0.1,0,0.2,0,0.3,0.1c0.1,0.1,0.2,0.2,0.2,0.3c0.1,0.2,0.1,0.4,0.1,0.6
			C416.4,187.5,416.4,187.8,416.4,188.2L416.4,188.2z M429.4,201.6v8.8c0,0.1,0,0.2-0.1,0.3s-0.2,0.2-0.4,0.3
			c-0.2,0.1-0.5,0.1-0.8,0.2c-0.3,0-0.7,0.1-1.2,0.1s-0.9,0-1.2-0.1c-0.3,0-0.6-0.1-0.8-0.2c-0.2-0.1-0.3-0.2-0.4-0.3
			s-0.1-0.2-0.1-0.3v-8.8l-6.8-13.6c-0.2-0.5-0.4-0.8-0.5-1.1s0-0.5,0.1-0.6s0.4-0.2,0.8-0.3c0.4,0,0.9,0,1.7,0c0.6,0,1.1,0,1.4,0
			c0.4,0,0.6,0.1,0.8,0.1c0.2,0.1,0.4,0.2,0.5,0.3s0.2,0.3,0.3,0.4l2.8,6.1c0.3,0.6,0.5,1.2,0.8,1.9s0.5,1.3,0.8,2.1l0,0
			c0.2-0.7,0.5-1.4,0.7-2c0.3-0.7,0.5-1.3,0.8-1.9l2.7-6.1c0.1-0.2,0.1-0.4,0.2-0.5s0.2-0.2,0.4-0.3c0.2-0.1,0.5-0.1,0.8-0.2
			c0.3,0,0.8,0,1.3,0c0.7,0,1.3,0,1.7,0c0.4,0,0.7,0.1,0.8,0.3c0.2,0.1,0.2,0.3,0.1,0.6s-0.2,0.6-0.5,1.1L429.4,201.6L429.4,201.6z
			 M462.2,217.3c0,0.1,0,0.2-0.1,0.3s-0.2,0.2-0.4,0.3c-0.2,0.1-0.4,0.1-0.7,0.2c-0.3,0-0.7,0-1.1,0s-0.8,0-1.1,0
			c-0.3,0-0.5-0.1-0.7-0.2c-0.2-0.1-0.3-0.2-0.4-0.3s-0.1-0.2-0.1-0.3V184c0-0.1,0-0.2,0.1-0.3s0.2-0.2,0.4-0.3
			c0.2-0.1,0.4-0.1,0.7-0.2c0.3,0,0.7-0.1,1.1-0.1s0.8,0,1.1,0.1c0.3,0,0.5,0.1,0.7,0.2c0.2,0.1,0.3,0.2,0.4,0.3s0.1,0.2,0.1,0.3
			V217.3L462.2,217.3z M502.6,207.3c0,0.3,0,0.6,0,0.8s-0.1,0.4-0.1,0.6c0,0.2-0.1,0.3-0.2,0.4c-0.1,0.1-0.2,0.2-0.3,0.4
			c-0.1,0.1-0.4,0.3-0.8,0.6c-0.4,0.2-0.9,0.4-1.5,0.7c-0.6,0.2-1.3,0.4-2,0.5c-0.8,0.1-1.6,0.2-2.4,0.2c-1.7,0-3.2-0.3-4.6-0.8
			s-2.5-1.3-3.5-2.4c-1-1-1.7-2.3-2.2-3.9c-0.5-1.6-0.8-3.4-0.8-5.5s0.3-4,0.8-5.6c0.6-1.6,1.4-3,2.4-4.1s2.2-2,3.7-2.5
			c1.4-0.6,3-0.9,4.7-0.9c0.7,0,1.4,0.1,2,0.2c0.6,0.1,1.2,0.3,1.8,0.5c0.5,0.2,1,0.4,1.5,0.6c0.4,0.3,0.7,0.5,0.9,0.6
			c0.2,0.2,0.3,0.3,0.4,0.4c0.1,0.1,0.1,0.3,0.2,0.4c0,0.2,0.1,0.4,0.1,0.6c0,0.2,0,0.5,0,0.9s0,0.7,0,1s-0.1,0.5-0.1,0.7
			c-0.1,0.2-0.1,0.3-0.2,0.4c-0.1,0.1-0.2,0.1-0.3,0.1c-0.2,0-0.4-0.1-0.7-0.3c-0.3-0.2-0.7-0.5-1.1-0.8c-0.5-0.3-1-0.5-1.7-0.7
			c-0.6-0.2-1.4-0.3-2.3-0.3c-1,0-1.9,0.2-2.6,0.6c-0.8,0.4-1.4,1-2,1.7c-0.5,0.8-1,1.7-1.2,2.7c-0.3,1.1-0.4,2.3-0.4,3.6
			c0,1.5,0.2,2.7,0.5,3.8s0.7,2,1.3,2.6c0.6,0.7,1.2,1.2,2,1.5s1.7,0.5,2.7,0.5c0.9,0,1.7-0.1,2.3-0.3c0.7-0.2,1.2-0.4,1.7-0.7
			s0.9-0.5,1.2-0.7c0.3-0.2,0.5-0.3,0.7-0.3c0.1,0,0.2,0,0.3,0.1c0.1,0.1,0.1,0.2,0.2,0.3c0,0.2,0.1,0.4,0.1,0.6
			C502.6,206.4,502.6,206.8,502.6,207.3L502.6,207.3z M528.4,198.3c0,2.1-0.3,3.9-0.8,5.5s-1.3,3-2.3,4.2c-1,1.1-2.3,2-3.8,2.6
			s-3.2,0.9-5.2,0.9c-1.9,0-3.6-0.3-5.1-0.8c-1.4-0.5-2.7-1.3-3.6-2.3c-1-1-1.7-2.4-2.2-4s-0.7-3.5-0.7-5.7c0-2,0.3-3.8,0.8-5.4
			c0.5-1.6,1.3-3,2.3-4.1s2.3-2,3.8-2.6s3.2-0.9,5.2-0.9c1.9,0,3.6,0.3,5,0.7c1.4,0.5,2.7,1.3,3.6,2.3c1,1,1.7,2.3,2.2,3.9
			C528.2,194.3,528.4,196.1,528.4,198.3L528.4,198.3z M523.1,198.5c0-1.3-0.1-2.5-0.3-3.6s-0.6-2-1-2.8c-0.5-0.8-1.2-1.4-2-1.8
			c-0.8-0.4-1.8-0.6-3.1-0.6c-1.2,0-2.3,0.2-3.1,0.7s-1.5,1.1-2,1.9c-0.5,0.8-0.9,1.7-1.1,2.7c-0.2,1.1-0.3,2.2-0.3,3.3
			c0,1.4,0.1,2.6,0.3,3.7c0.2,1.1,0.6,2,1,2.8c0.5,0.8,1.1,1.4,2,1.8c0.8,0.4,1.9,0.6,3.1,0.6c1.2,0,2.3-0.2,3.1-0.7s1.5-1.1,2-1.9
			c0.5-0.8,0.9-1.7,1.1-2.8C523,200.9,523.1,199.7,523.1,198.5L523.1,198.5z M553.3,209.3c0,0.3-0.1,0.6-0.2,0.8
			c-0.1,0.2-0.2,0.4-0.4,0.6c-0.2,0.2-0.4,0.3-0.6,0.3c-0.2,0.1-0.5,0.1-0.7,0.1h-2.2c-0.5,0-0.8,0-1.2-0.1
			c-0.3-0.1-0.6-0.3-0.9-0.5c-0.3-0.2-0.5-0.6-0.8-1s-0.5-0.9-0.9-1.6l-6.2-11.7c-0.4-0.7-0.7-1.4-1.1-2.3c-0.4-0.8-0.7-1.6-1-2.3
			l0,0c0.1,0.9,0.1,1.8,0.1,2.8c0,0.9,0,1.9,0,2.8v13.1c0,0.1,0,0.2-0.1,0.3s-0.2,0.2-0.4,0.3s-0.4,0.1-0.7,0.2
			c-0.3,0-0.7,0.1-1.1,0.1c-0.5,0-0.8,0-1.1-0.1c-0.3,0-0.5-0.1-0.7-0.2c-0.2-0.1-0.3-0.2-0.3-0.3c-0.1-0.1-0.1-0.2-0.1-0.3v-22.4
			c0-0.6,0.2-1.1,0.5-1.4c0.3-0.3,0.8-0.5,1.3-0.5h2.7c0.5,0,0.9,0,1.2,0.1s0.6,0.2,0.9,0.4s0.5,0.5,0.7,0.8s0.5,0.8,0.7,1.3
			l4.8,9.1c0.3,0.6,0.6,1.1,0.8,1.6c0.3,0.5,0.5,1.1,0.8,1.6s0.5,1.1,0.8,1.6c0.2,0.5,0.5,1,0.7,1.5l0,0c0-0.9-0.1-1.8-0.1-2.8
			s0-1.9,0-2.8v-11.7c0-0.1,0-0.2,0.1-0.3s0.2-0.2,0.4-0.3s0.4-0.1,0.7-0.2c0.3,0,0.7,0,1.1,0c0.4,0,0.8,0,1.1,0s0.5,0.1,0.7,0.2
			c0.2,0.1,0.3,0.2,0.3,0.3c0.1,0.1,0.1,0.2,0.1,0.3v22.6H553.3z M572.7,188.2c0,0.4,0,0.7,0,1s-0.1,0.5-0.2,0.6
			c-0.1,0.2-0.2,0.3-0.2,0.3c-0.1,0.1-0.2,0.1-0.3,0.1h-8.2v6.7h7.7c0.1,0,0.2,0,0.3,0.1s0.2,0.2,0.2,0.3c0.1,0.2,0.1,0.4,0.2,0.6
			c0,0.3,0.1,0.6,0.1,1s0,0.7-0.1,1c0,0.3-0.1,0.5-0.2,0.6c-0.1,0.2-0.2,0.3-0.2,0.4c-0.1,0.1-0.2,0.1-0.3,0.1h-7.7v9.3
			c0,0.1,0,0.3-0.1,0.4c-0.1,0.1-0.2,0.2-0.4,0.3s-0.5,0.1-0.8,0.2c-0.3,0-0.7,0.1-1.2,0.1s-0.9,0-1.2-0.1c-0.3,0-0.6-0.1-0.8-0.2
			c-0.2-0.1-0.3-0.2-0.4-0.3c-0.1-0.1-0.1-0.2-0.1-0.4v-22.6c0-0.6,0.1-1,0.4-1.2c0.3-0.2,0.6-0.4,1.1-0.4H572c0.1,0,0.2,0,0.3,0.1
			s0.2,0.2,0.2,0.3c0.1,0.2,0.1,0.4,0.2,0.6C572.7,187.5,572.7,187.8,572.7,188.2L572.7,188.2z M581.9,210.4c0,0.1,0,0.2-0.1,0.3
			s-0.2,0.2-0.4,0.3s-0.5,0.1-0.8,0.2c-0.3,0-0.7,0.1-1.2,0.1s-0.9,0-1.2-0.1c-0.3,0-0.6-0.1-0.8-0.2c-0.2-0.1-0.3-0.2-0.4-0.3
			c-0.1-0.1-0.1-0.2-0.1-0.3v-23.6c0-0.1,0-0.2,0.1-0.3s0.2-0.2,0.4-0.3s0.5-0.1,0.8-0.2c0.3,0,0.7-0.1,1.2-0.1s0.9,0,1.2,0.1
			c0.3,0,0.6,0.1,0.8,0.2c0.2,0.1,0.3,0.2,0.4,0.3c0.1,0.1,0.1,0.2,0.1,0.3V210.4L581.9,210.4z M608.1,198.2c0,2.3-0.3,4.2-0.9,5.9
			c-0.6,1.6-1.5,2.9-2.6,4c-1.1,1-2.5,1.8-4.1,2.3s-3.5,0.7-5.7,0.7h-6c-0.4,0-0.8-0.1-1.1-0.4c-0.3-0.3-0.4-0.7-0.4-1.2v-21.8
			c0-0.6,0.1-1,0.4-1.2c0.3-0.2,0.6-0.4,1.1-0.4h6.4c2.2,0,4.1,0.3,5.7,0.8c1.6,0.5,2.9,1.3,3.9,2.3c1.1,1,1.9,2.3,2.4,3.8
			C607.8,194.5,608.1,196.2,608.1,198.2L608.1,198.2z M602.8,198.4c0-1.2-0.1-2.3-0.4-3.3c-0.3-1-0.7-1.9-1.3-2.6
			c-0.6-0.7-1.4-1.3-2.3-1.7c-1-0.4-2.2-0.6-3.8-0.6h-2.6V207h2.6c1.4,0,2.6-0.2,3.5-0.5c0.9-0.4,1.7-0.9,2.4-1.6
			c0.6-0.7,1.1-1.6,1.4-2.7C602.6,201.1,602.8,199.8,602.8,198.4L602.8,198.4z M627,209c0,0.4,0,0.7,0,0.9c0,0.3-0.1,0.5-0.1,0.6
			c-0.1,0.2-0.1,0.3-0.2,0.3c-0.1,0.1-0.2,0.1-0.3,0.1h-12.5c-0.4,0-0.8-0.1-1.1-0.4c-0.3-0.3-0.4-0.7-0.4-1.2v-21.8
			c0-0.6,0.1-1,0.4-1.2c0.3-0.2,0.6-0.4,1.1-0.4h12.5c0.1,0,0.2,0,0.3,0.1s0.2,0.2,0.2,0.3c0.1,0.2,0.1,0.4,0.1,0.6c0,0.3,0,0.6,0,1
			s0,0.7,0,0.9c0,0.3-0.1,0.5-0.1,0.6c-0.1,0.2-0.1,0.3-0.2,0.3c-0.1,0.1-0.2,0.1-0.3,0.1h-8.9v6.1h7.5c0.1,0,0.2,0,0.3,0.1
			s0.2,0.2,0.2,0.3c0.1,0.1,0.1,0.3,0.1,0.6s0,0.6,0,0.9c0,0.4,0,0.7,0,0.9s-0.1,0.4-0.1,0.6c-0.1,0.2-0.1,0.3-0.2,0.3
			c-0.1,0.1-0.2,0.1-0.3,0.1h-7.5v7h9c0.1,0,0.2,0,0.3,0.1s0.2,0.2,0.2,0.3c0.1,0.2,0.1,0.4,0.1,0.6C627,208.4,627,208.7,627,209z"
			/>
		<path class="st0" d="M652,209.3c0,0.3-0.1,0.6-0.2,0.8c-0.1,0.2-0.2,0.4-0.4,0.6c-0.2,0.2-0.4,0.3-0.6,0.3
			c-0.2,0.1-0.5,0.1-0.7,0.1H648c-0.5,0-0.8,0-1.2-0.1c-0.3-0.1-0.6-0.3-0.9-0.5c-0.3-0.2-0.5-0.6-0.8-1s-0.5-0.9-0.9-1.6l-6.2-11.7
			c-0.4-0.7-0.7-1.4-1.1-2.3c-0.4-0.8-0.7-1.6-1-2.3l0,0c0.1,0.9,0.1,1.8,0.1,2.8c0,0.9,0,1.9,0,2.8v13.1c0,0.1,0,0.2-0.1,0.3
			s-0.2,0.2-0.4,0.3s-0.4,0.1-0.7,0.2c-0.3,0-0.7,0.1-1.1,0.1c-0.5,0-0.8,0-1.1-0.1c-0.3,0-0.5-0.1-0.7-0.2
			c-0.2-0.1-0.3-0.2-0.3-0.3c-0.1-0.1-0.1-0.2-0.1-0.3v-22.4c0-0.6,0.2-1.1,0.5-1.4c0.3-0.3,0.8-0.5,1.3-0.5h2.7
			c0.5,0,0.9,0,1.2,0.1s0.6,0.2,0.9,0.4c0.3,0.2,0.5,0.5,0.7,0.8s0.5,0.8,0.7,1.3l4.8,9.1c0.3,0.6,0.6,1.1,0.8,1.6
			c0.3,0.5,0.5,1.1,0.8,1.6s0.5,1.1,0.8,1.6c0.2,0.5,0.5,1,0.7,1.5l0,0c0-0.9-0.1-1.8-0.1-2.8s0-1.9,0-2.8v-11.7
			c0-0.1,0-0.2,0.1-0.3s0.2-0.2,0.4-0.3s0.4-0.1,0.7-0.2s0.7,0,1.1,0c0.4,0,0.8,0,1.1,0s0.5,0.1,0.7,0.2c0.2,0.1,0.3,0.2,0.3,0.3
			c0.1,0.1,0.1,0.2,0.1,0.3v22.6H652z M674,188.2c0,0.4,0,0.7,0,1s-0.1,0.5-0.1,0.6c-0.1,0.2-0.1,0.3-0.2,0.4
			c-0.1,0.1-0.2,0.1-0.3,0.1h-6.2v20.1c0,0.1,0,0.2-0.1,0.3s-0.2,0.2-0.4,0.3s-0.5,0.1-0.8,0.2c-0.3,0-0.7,0.1-1.2,0.1
			s-0.9,0-1.2-0.1c-0.3,0-0.6-0.1-0.8-0.2c-0.2-0.1-0.3-0.2-0.4-0.3c-0.1-0.1-0.1-0.2-0.1-0.3v-20.1H656c-0.1,0-0.2,0-0.3-0.1
			s-0.2-0.2-0.2-0.4c-0.1-0.2-0.1-0.4-0.1-0.6c0-0.3,0-0.6,0-1s0-0.7,0-1s0.1-0.5,0.1-0.6c0.1-0.2,0.1-0.3,0.2-0.3
			c0.1-0.1,0.2-0.1,0.3-0.1h17.6c0.1,0,0.2,0,0.3,0.1s0.2,0.2,0.2,0.3c0.1,0.2,0.1,0.4,0.1,0.6C674,187.5,674,187.8,674,188.2
			L674,188.2z M682.1,210.4c0,0.1,0,0.2-0.1,0.3s-0.2,0.2-0.4,0.3s-0.5,0.1-0.8,0.2c-0.3,0-0.7,0.1-1.2,0.1s-0.9,0-1.2-0.1
			c-0.3,0-0.6-0.1-0.8-0.2c-0.2-0.1-0.3-0.2-0.4-0.3c-0.1-0.1-0.1-0.2-0.1-0.3v-23.6c0-0.1,0-0.2,0.1-0.3s0.2-0.2,0.4-0.3
			s0.5-0.1,0.8-0.2c0.3,0,0.7-0.1,1.2-0.1s0.9,0,1.2,0.1c0.3,0,0.6,0.1,0.8,0.2c0.2,0.1,0.3,0.2,0.4,0.3c0.1,0.1,0.1,0.2,0.1,0.3
			V210.4L682.1,210.4z M708,209.2c0.2,0.5,0.3,0.8,0.3,1.1s0,0.5-0.2,0.6c-0.1,0.1-0.4,0.2-0.8,0.3c-0.4,0-0.9,0-1.5,0
			c-0.7,0-1.2,0-1.5,0c-0.4,0-0.6-0.1-0.8-0.1c-0.2-0.1-0.3-0.1-0.4-0.2c-0.1-0.1-0.1-0.2-0.2-0.4l-1.6-5h-9.4l-1.6,4.9
			c-0.1,0.2-0.1,0.3-0.2,0.5c-0.1,0.1-0.2,0.2-0.4,0.3s-0.4,0.1-0.8,0.1c-0.3,0-0.8,0-1.3,0c-0.6,0-1.1,0-1.4-0.1
			c-0.3,0-0.6-0.1-0.7-0.3c-0.1-0.2-0.2-0.4-0.1-0.6c0-0.3,0.1-0.6,0.3-1.1l7.7-22.1c0.1-0.2,0.2-0.4,0.3-0.5s0.3-0.2,0.5-0.3
			s0.5-0.1,0.9-0.1s0.9,0,1.6,0c0.8,0,1.4,0,1.8,0c0.5,0,0.8,0.1,1.1,0.1c0.3,0.1,0.4,0.2,0.5,0.3s0.2,0.3,0.3,0.6L708,209.2
			L708,209.2z M696.5,190.8L696.5,190.8l-3.5,10.6h7L696.5,190.8L696.5,190.8z M725.2,208.9c0,0.4,0,0.7,0,1s-0.1,0.5-0.1,0.7
			c-0.1,0.2-0.1,0.3-0.2,0.4c-0.1,0.1-0.2,0.1-0.3,0.1H713c-0.4,0-0.8-0.1-1.1-0.4c-0.3-0.3-0.4-0.7-0.4-1.2v-22.7
			c0-0.1,0-0.2,0.1-0.3s0.2-0.2,0.4-0.3s0.5-0.1,0.8-0.2c0.3,0,0.7-0.1,1.2-0.1s0.9,0,1.2,0.1c0.3,0,0.6,0.1,0.8,0.2
			s0.3,0.2,0.4,0.3c0.1,0.1,0.1,0.2,0.1,0.3v20.1h7.8c0.1,0,0.2,0,0.3,0.1s0.2,0.2,0.2,0.3c0.1,0.2,0.1,0.4,0.1,0.6
			C725.1,208.2,725.2,208.5,725.2,208.9L725.2,208.9z M733.2,210.4c0,0.1,0,0.2-0.1,0.3s-0.2,0.2-0.4,0.3s-0.5,0.1-0.8,0.2
			c-0.3,0-0.7,0.1-1.2,0.1s-0.9,0-1.2-0.1c-0.3,0-0.6-0.1-0.8-0.2c-0.2-0.1-0.3-0.2-0.4-0.3c-0.1-0.1-0.1-0.2-0.1-0.3v-23.6
			c0-0.1,0-0.2,0.1-0.3s0.2-0.2,0.4-0.3s0.5-0.1,0.8-0.2c0.3,0,0.7-0.1,1.2-0.1s0.9,0,1.2,0.1c0.3,0,0.6,0.1,0.8,0.2
			c0.2,0.1,0.3,0.2,0.4,0.3c0.1,0.1,0.1,0.2,0.1,0.3V210.4L733.2,210.4z M755.3,188.2c0,0.4,0,0.7,0,1s-0.1,0.5-0.1,0.6
			c-0.1,0.2-0.1,0.3-0.2,0.4c-0.1,0.1-0.2,0.1-0.3,0.1h-6.2v20.1c0,0.1,0,0.2-0.1,0.3s-0.2,0.2-0.4,0.3s-0.5,0.1-0.8,0.2
			c-0.3,0-0.7,0.1-1.2,0.1s-0.9,0-1.2-0.1c-0.3,0-0.6-0.1-0.8-0.2c-0.2-0.1-0.3-0.2-0.4-0.3c-0.1-0.1-0.1-0.2-0.1-0.3v-20.1h-6.2
			c-0.1,0-0.2,0-0.3-0.1s-0.2-0.2-0.2-0.4c-0.1-0.2-0.1-0.4-0.1-0.6c0-0.3,0-0.6,0-1s0-0.7,0-1s0.1-0.5,0.1-0.6
			c0.1-0.2,0.1-0.3,0.2-0.3c0.1-0.1,0.2-0.1,0.3-0.1h17.6c0.1,0,0.2,0,0.3,0.1s0.2,0.2,0.2,0.3c0.1,0.2,0.1,0.4,0.1,0.6
			C755.2,187.5,755.3,187.8,755.3,188.2L755.3,188.2z M768.3,201.6v8.8c0,0.1,0,0.2-0.1,0.3s-0.2,0.2-0.4,0.3s-0.5,0.1-0.8,0.2
			c-0.3,0-0.7,0.1-1.2,0.1s-0.9,0-1.2-0.1c-0.3,0-0.6-0.1-0.8-0.2c-0.2-0.1-0.3-0.2-0.4-0.3c-0.1-0.1-0.1-0.2-0.1-0.3v-8.8
			l-6.8-13.6c-0.2-0.5-0.4-0.8-0.5-1.1s0-0.5,0.1-0.6s0.4-0.2,0.8-0.3c0.4,0,0.9,0,1.7,0c0.6,0,1.1,0,1.4,0c0.4,0,0.6,0.1,0.8,0.1
			c0.2,0.1,0.4,0.2,0.5,0.3s0.2,0.3,0.3,0.4l2.8,6.1c0.3,0.6,0.5,1.2,0.8,1.9s0.5,1.3,0.8,2.1l0,0c0.2-0.7,0.5-1.4,0.7-2
			c0.3-0.7,0.5-1.3,0.8-1.9l2.7-6.1c0.1-0.2,0.1-0.4,0.2-0.5c0.1-0.1,0.2-0.2,0.4-0.3s0.5-0.1,0.8-0.2c0.3,0,0.8,0,1.3,0
			c0.7,0,1.3,0,1.7,0s0.7,0.1,0.8,0.3c0.2,0.1,0.2,0.3,0.1,0.6c-0.1,0.3-0.2,0.6-0.5,1.1L768.3,201.6L768.3,201.6z M801.1,217.3
			c0,0.1,0,0.2-0.1,0.3s-0.2,0.2-0.4,0.3s-0.4,0.1-0.7,0.2c-0.3,0-0.7,0-1.1,0c-0.4,0-0.8,0-1.1,0s-0.5-0.1-0.7-0.2
			c-0.2-0.1-0.3-0.2-0.4-0.3c-0.1-0.1-0.1-0.2-0.1-0.3V184c0-0.1,0-0.2,0.1-0.3s0.2-0.2,0.4-0.3s0.4-0.1,0.7-0.2
			c0.3,0,0.7-0.1,1.1-0.1c0.4,0,0.8,0,1.1,0.1c0.3,0,0.5,0.1,0.7,0.2c0.2,0.1,0.3,0.2,0.4,0.3c0.1,0.1,0.1,0.2,0.1,0.3V217.3
			L801.1,217.3z M840.8,188.2c0,0.4,0,0.7,0,1s-0.1,0.5-0.1,0.6c-0.1,0.2-0.1,0.3-0.2,0.4c-0.1,0.1-0.2,0.1-0.3,0.1H834v20.1
			c0,0.1,0,0.2-0.1,0.3s-0.2,0.2-0.4,0.3s-0.5,0.1-0.8,0.2c-0.3,0-0.7,0.1-1.2,0.1s-0.9,0-1.2-0.1c-0.3,0-0.6-0.1-0.8-0.2
			c-0.2-0.1-0.3-0.2-0.4-0.3c-0.1-0.1-0.1-0.2-0.1-0.3v-20.1h-6.2c-0.1,0-0.2,0-0.3-0.1s-0.2-0.2-0.2-0.4c-0.1-0.2-0.1-0.4-0.1-0.6
			c0-0.3,0-0.6,0-1s0-0.7,0-1s0.1-0.5,0.1-0.6c0.1-0.2,0.1-0.3,0.2-0.3c0.1-0.1,0.2-0.1,0.3-0.1h17.6c0.1,0,0.2,0,0.3,0.1
			s0.2,0.2,0.2,0.3c0.1,0.2,0.1,0.4,0.1,0.6C840.8,187.5,840.8,187.8,840.8,188.2L840.8,188.2z M848.9,210.4c0,0.1,0,0.2-0.1,0.3
			s-0.2,0.2-0.4,0.3s-0.5,0.1-0.8,0.2c-0.3,0-0.7,0.1-1.2,0.1s-0.9,0-1.2-0.1c-0.3,0-0.6-0.1-0.8-0.2c-0.2-0.1-0.3-0.2-0.4-0.3
			c-0.1-0.1-0.1-0.2-0.1-0.3v-23.6c0-0.1,0-0.2,0.1-0.3s0.2-0.2,0.4-0.3s0.5-0.1,0.8-0.2c0.3,0,0.7-0.1,1.2-0.1s0.9,0,1.2,0.1
			c0.3,0,0.6,0.1,0.8,0.2c0.2,0.1,0.3,0.2,0.4,0.3c0.1,0.1,0.1,0.2,0.1,0.3V210.4L848.9,210.4z M883.4,210.4c0,0.1,0,0.2-0.1,0.3
			s-0.2,0.2-0.4,0.3s-0.4,0.1-0.7,0.2c-0.3,0-0.7,0.1-1.2,0.1s-0.9,0-1.2-0.1c-0.3,0-0.6-0.1-0.7-0.2c-0.2-0.1-0.3-0.2-0.4-0.3
			c-0.1-0.1-0.1-0.2-0.1-0.3V190l0,0l-7.2,20.3c-0.1,0.2-0.1,0.3-0.3,0.4c-0.1,0.1-0.3,0.2-0.5,0.3s-0.5,0.1-0.8,0.1s-0.7,0-1.1,0
			c-0.4,0-0.8,0-1.1,0s-0.6-0.1-0.8-0.2c-0.2-0.1-0.4-0.2-0.5-0.3s-0.2-0.2-0.2-0.4l-7-20.3l0,0v20.3c0,0.1,0,0.2-0.1,0.3
			s-0.2,0.2-0.4,0.3s-0.4,0.1-0.8,0.2c-0.3,0-0.7,0.1-1.2,0.1s-0.9,0-1.2-0.1c-0.3,0-0.6-0.1-0.7-0.2c-0.2-0.1-0.3-0.2-0.4-0.3
			c-0.1-0.1-0.1-0.2-0.1-0.3V188c0-0.7,0.2-1.2,0.5-1.5s0.8-0.5,1.4-0.5h3.3c0.6,0,1.1,0,1.5,0.1s0.8,0.3,1.1,0.5s0.6,0.5,0.8,0.9
			s0.4,0.8,0.5,1.4l5.4,14.9h0.1l5.6-14.8c0.2-0.5,0.3-1,0.5-1.4s0.4-0.7,0.7-0.9s0.6-0.4,0.9-0.5c0.4-0.1,0.8-0.1,1.3-0.1h3.4
			c0.3,0,0.6,0,0.9,0.1c0.3,0.1,0.5,0.2,0.6,0.4c0.2,0.2,0.3,0.4,0.4,0.6c0.1,0.3,0.1,0.5,0.1,0.9v22.3H883.4z M903.6,209
			c0,0.4,0,0.7,0,0.9c0,0.3-0.1,0.5-0.1,0.6c-0.1,0.2-0.1,0.3-0.2,0.3c-0.1,0.1-0.2,0.1-0.3,0.1h-12.5c-0.4,0-0.8-0.1-1.1-0.4
			c-0.3-0.3-0.4-0.7-0.4-1.2v-21.8c0-0.6,0.1-1,0.4-1.2c0.3-0.2,0.6-0.4,1.1-0.4H903c0.1,0,0.2,0,0.3,0.1s0.2,0.2,0.2,0.3
			c0.1,0.2,0.1,0.4,0.1,0.6c0,0.3,0,0.6,0,1s0,0.7,0,0.9c0,0.3-0.1,0.5-0.1,0.6c-0.1,0.2-0.1,0.3-0.2,0.3c-0.1,0.1-0.2,0.1-0.3,0.1
			h-8.9v6.1h7.5c0.1,0,0.2,0,0.3,0.1s0.2,0.2,0.2,0.3c0.1,0.1,0.1,0.3,0.1,0.6s0,0.6,0,0.9c0,0.4,0,0.7,0,0.9s-0.1,0.4-0.1,0.6
			c-0.1,0.2-0.1,0.3-0.2,0.3c-0.1,0.1-0.2,0.1-0.3,0.1h-7.5v7h9c0.1,0,0.2,0,0.3,0.1s0.2,0.2,0.2,0.3c0.1,0.2,0.1,0.4,0.1,0.6
			C903.6,208.4,903.6,208.7,903.6,209L903.6,209z M921.8,208.9c0,0.4,0,0.7,0,1s-0.1,0.5-0.1,0.7c-0.1,0.2-0.1,0.3-0.2,0.4
			c-0.1,0.1-0.2,0.1-0.3,0.1h-11.4c-0.4,0-0.8-0.1-1.1-0.4c-0.3-0.3-0.4-0.7-0.4-1.2v-22.7c0-0.1,0-0.2,0.1-0.3s0.2-0.2,0.4-0.3
			s0.5-0.1,0.8-0.2c0.3,0,0.7-0.1,1.2-0.1s0.9,0,1.2,0.1c0.3,0,0.6,0.1,0.8,0.2c0.2,0.1,0.3,0.2,0.4,0.3c0.1,0.1,0.1,0.2,0.1,0.3
			v20.1h7.8c0.1,0,0.2,0,0.3,0.1s0.2,0.2,0.2,0.3c0.1,0.2,0.1,0.4,0.1,0.6C921.8,208.2,921.8,208.5,921.8,208.9L921.8,208.9z
			 M931.4,201.6l6.8-13.6c0.2-0.5,0.4-0.8,0.5-1.1s0-0.5-0.1-0.6s-0.4-0.2-0.8-0.3c-0.4,0-1,0-1.7,0c-0.6,0-1,0-1.3,0
			s-0.6,0.1-0.8,0.2c-0.2,0.1-0.3,0.2-0.4,0.3c-0.1,0.1-0.2,0.3-0.2,0.5l-2.7,6.1c-0.2,0.6-0.5,1.2-0.8,1.9s-0.5,1.3-0.7,2l0,0
			c-0.3-0.7-0.5-1.4-0.8-2.1c-0.3-0.7-0.5-1.3-0.8-1.9l-2.8-6.1c-0.1-0.2-0.2-0.3-0.3-0.4c-0.1-0.1-0.3-0.2-0.5-0.3
			s-0.5-0.1-0.8-0.1c-0.4,0-0.8,0-1.4,0c-0.7,0-1.3,0-1.7,0s-0.7,0.1-0.8,0.3c-0.2,0.1-0.2,0.3-0.1,0.6c0.1,0.3,0.2,0.6,0.5,1.1
			l6.8,13.6v8.8c0,0.1,0,0.2,0.1,0.3s0.2,0.2,0.4,0.3s0.5,0.1,0.8,0.2c0.3,0,0.7,0.1,1.2,0.1s0.9,0,1.2-0.1c0.3,0,0.6-0.1,0.8-0.2
			c0.2-0.1,0.3-0.2,0.4-0.3c0.1-0.1,0.1-0.2,0.1-0.3v-8.9H931.4z"/>
	</g>
</g>
</svg>
