<?xml version="1.0" encoding="utf-8"?>
<!-- Generator: Adobe Illustrator 21.0.0, SVG Export Plug-In . SVG Version: 6.00 Build 0)  -->
<svg version="1.1" xmlns="http://www.w3.org/2000/svg" xmlns:xlink="http://www.w3.org/1999/xlink" x="0px" y="0px"
	 viewBox="0 0 520 439.2" style="enable-background:new 0 0 520 439.2;" xml:space="preserve">
<style type="text/css">
	.st0{fill:#FFFFFF;}
	.st1{fill:#F2F1EF;}
	.st2{fill:url(#XMLID_25_);}
	.st3{fill:#CAA669;}
	.st4{opacity:0.66;}
	.st5{fill:#5B5D61;}
	.st6{fill:#728BF2;}
	.st7{fill:#AA8652;}
	.st8{fill:#EDEDED;}
	.st9{opacity:0.78;fill:#DDBB8A;}
	.st10{fill:#DDBB8A;}
	.st11{fill:#47494C;}
	.st12{fill:#E5E5E5;}
	.st13{fill:#3E6AFA;}
	.st14{fill:#FFFFFF;stroke:#AF8B58;stroke-width:1.3;stroke-linecap:square;stroke-linejoin:round;stroke-miterlimit:10;}
	.st15{fill:#FFFFFF;stroke:#AF8B58;stroke-width:1.3;stroke-linecap:round;stroke-linejoin:round;stroke-miterlimit:10;}
	.st16{fill:none;stroke:#AF8B58;stroke-width:1.5;stroke-linecap:round;stroke-linejoin:round;}
	.st17{fill:none;stroke:#AF8B58;stroke-width:1.5;stroke-linecap:round;stroke-linejoin:round;stroke-dasharray:5.0256,3.0154;}
	
		.st18{fill:none;stroke:#2E3062;stroke-width:1.5;stroke-linecap:round;stroke-linejoin:round;stroke-miterlimit:10;stroke-dasharray:5,3;}
</style>
<g id="BACKGROUND">
	<rect id="XMLID_1_" x="-114.4" y="-29.1" class="st0" width="750" height="500"/>
</g>
<g id="OBJECTS">
	<path id="XMLID_36_" class="st1" d="M314.1,326.2c0,0-134.2,0.9-142.1,17.7c-7.9,16.7-151,4.8-146.3,32.4
		c4.7,27.6,187.8,13.2,203.1,25.8c15.3,12.6-28.6,21.7,52.8,27.1c81.3,5.3,212.8,6.8,215.2-29.8c2.4-36.7-65.6-39.1-89.7-39.1
		C355.5,360.2,385.6,330.6,314.1,326.2z"/>
	<ellipse id="XMLID_2246_" class="st1" cx="183.9" cy="353.9" rx="34.7" ry="4.4"/>
	<path id="XMLID_2050_" class="st1" d="M376.2,290.3c0,0,141.1,16.5,132.7-110C500.4,53.7,379.5-22.6,258.9,25.8
		c-69.6,27.9-74.2,77.6-188.3,114.4C-43.6,177,10.4,313.8,143.1,310.5C275.7,307.2,347.1,249.4,376.2,290.3z"/>
	<linearGradient id="XMLID_25_" gradientUnits="userSpaceOnUse" x1="254.0723" y1="200.5134" x2="428.4097" y2="200.5134">
		<stop  offset="2.513970e-02" style="stop-color:#EEBE2D"/>
		<stop  offset="1" style="stop-color:#E48A20"/>
	</linearGradient>
	<path id="XMLID_2004_" class="st2" d="M424.6,199.7l1.8,1.6C425.9,200.7,425.3,200.2,424.6,199.7z"/>
	<g id="XMLID_1506_">
		<path id="XMLID_1521_" class="st3" d="M131.9,235.9c0,0,0.4,0.3,1.1,1c0.7,0.6,1.7,1.6,3,2.9c1.3,1.3,2.7,2.9,4.4,4.8
			c1.6,1.9,3.3,4.1,5.2,6.6c1.8,2.5,3.7,5.3,5.5,8.3c1.8,3,3.6,6.3,5.3,9.7c1.8,3.4,3.3,7,4.9,10.7c1.5,3.7,2.9,7.6,4.1,11.5
			c0.6,1.9,1.2,3.9,1.8,5.9c0.3,1,0.5,2,0.8,2.9c0.2,1,0.5,2,0.7,2.9c0.2,1,0.5,1.9,0.7,2.9c0.2,1,0.4,1.9,0.6,2.9
			c0.4,1.9,0.8,3.8,1.2,5.7c0.3,1.9,0.7,3.7,1,5.6c0.3,1.8,0.5,3.6,0.8,5.3c0.4,3.5,0.9,6.8,1.1,9.8c0.1,1.5,0.3,3,0.4,4.4
			c0.1,1.4,0.2,2.7,0.3,4c0.2,2.5,0.3,4.7,0.4,6.5c0.1,1.8,0.1,3.2,0.1,4.2c0,0.5,0,0.8,0.1,1.1c0.1,0.1,0.5,0.2,0.7,0.3
			c0.4,0.1,0.5,0.1,0.5,0.1s0.2,0,0.5-0.1c0.3-0.1,0.6-0.2,0.7-0.3c0-0.3,0-0.6,0-1.1c0-1,0-2.4,0-4.2c0-1.8,0-4-0.1-6.5
			c0-1.3-0.1-2.6-0.1-4c-0.1-1.4-0.2-2.9-0.3-4.5c-0.2-3.1-0.6-6.5-0.9-10c-0.5-3.5-1-7.3-1.7-11.1c-0.3-1.9-0.8-3.9-1.2-5.8
			c-0.2-1-0.4-2-0.7-3c-0.3-1-0.5-2-0.8-3c-0.3-1-0.5-2-0.8-3c-0.3-1-0.6-2-0.9-3c-0.6-2-1.2-4-1.9-5.9c-1.3-3.9-2.9-7.8-4.5-11.6
			c-1.7-3.7-3.4-7.4-5.3-10.8c-1.8-3.4-3.9-6.6-5.9-9.6c-2-3-4.1-5.7-6-8.1c-3.9-4.8-7.7-8.4-10.4-10.8
			C133.7,237,131.9,235.9,131.9,235.9z"/>
		<path id="XMLID_1520_" class="st3" d="M147.1,253.1c0,0,1.3-3.2-4.1-11c-5.4-7.9-8.4-20.4-2.8-19.5
			C145.8,223.4,150.3,246.2,147.1,253.1z"/>
		<path id="XMLID_1519_" class="st3" d="M158.1,270.2c0,0,0.3-7.4-1.4-17.2c-1.8-10.4-3.4-15.4,1.9-12.8
			C163.9,242.8,162.3,264.4,158.1,270.2z"/>
		<path id="XMLID_1518_" class="st3" d="M140.1,244c0,0-13.4-17.4-22.7-13.1C108.1,235.3,136.7,240,140.1,244z"/>
		<path id="XMLID_1517_" class="st3" d="M151.2,256.9c0,0-22.5-18.6-28.8-10.9C116,253.7,149.2,253.4,151.2,256.9z"/>
		<path id="XMLID_1516_" class="st3" d="M159.2,268.3c0,0-23.2-13.9-26.3-5.6C129.5,271.9,155.7,263.8,159.2,268.3z"/>
		<path id="XMLID_1514_" class="st3" d="M166.7,289.6c0,0-0.4-27.7,2.1-32C171.4,253.3,176.5,265.3,166.7,289.6z"/>
		<path id="XMLID_1512_" class="st3" d="M162.2,278.2c0,0-19-10.9-23-9.3C135.2,270.5,141.7,281.2,162.2,278.2z"/>
		<path id="XMLID_1511_" class="st3" d="M175.2,320.4c0,0-17.2-15.3-21.3-14.7C149.7,306.3,154.6,318.4,175.2,320.4z"/>
		<path id="XMLID_1510_" class="st3" d="M176.1,339.6c0,0-10.3-18.3-14.3-17.3C157.7,323.3,157.8,338.2,176.1,339.6z"/>
		<path id="XMLID_1509_" class="st3" d="M176.8,345.2c0,0,7-33.2,11.6-36.7C193.1,304.9,196.5,322.4,176.8,345.2z"/>
		<path id="XMLID_1508_" class="st3" d="M173,314.2c0,0,1.5-31.6,6.1-35.2C183.7,275.4,191,291.7,173,314.2z"/>
		<path id="XMLID_1507_" class="st3" d="M169.1,301.1c0,0-13.7-18.5-20.3-11.6C143,295.7,169.1,301.1,169.1,301.1z"/>
	</g>
	<g id="XMLID_2298_" class="st4">
		<g id="XMLID_2315_">
			<path class="st5" d="M459.5,182.5c-2.7-19-7.5-38.1-4.1-60.1c-17.5,20.7-28.9,46.4-32.7,73.2c-2.3,16.9-1.9,34.9-10.3,49.8
				c-5.9,10.5-15.7,18.2-23.5,27.4c-15.9,18.6-23.6,43.8-21.4,68.1c0.7,7.2,6.6,12.8,13.8,13.1l0,0c17.4,5.8,38.5-5,43.9-22.5
				c2.6-8.4,1.9-17.5,4.1-26c3.2-13,12.6-23.5,19.4-35.1C464.6,243.2,464.9,220.1,459.5,182.5z"/>
		</g>
		<path id="XMLID_2269_" class="st5" d="M445.6,146c0,0-0.2,0.8-0.6,2.4c-0.3,1.6-0.9,3.9-1.4,6.9c-0.5,3-0.8,6.7-0.9,10.9
			c-0.1,4.2,0.3,8.9,0.7,14.1c0.5,5.2,0.9,10.9,0.9,16.9c0,6-0.4,12.4-1.2,18.9c-0.8,6.5-2.4,13.3-4.8,19.8
			c-2.4,6.5-5.5,12.9-9.1,18.9c-7.1,12.1-15.6,23.2-22.1,34.3c-3.3,5.6-6.1,11.1-8.4,16.5c-2.3,5.4-3.9,10.8-5.3,15.7
			c-0.6,2.5-1.2,4.9-1.6,7.2c-0.5,2.3-0.8,4.5-1.1,6.6c-0.3,2.1-0.4,4-0.6,5.8c-0.2,1.8-0.2,3.5-0.3,5c-0.2,3-0.2,5.4-0.2,7
			c0,1.6,0,2.5,0,2.5l-2.7,0.1c0,0,0-0.9,0-2.5c0-1.6-0.1-4.1,0.1-7.1c0.1-1.5,0.1-3.2,0.3-5.1c0.2-1.8,0.3-3.8,0.6-6
			c0.3-2.1,0.5-4.4,1-6.8c0.4-2.4,1-4.8,1.5-7.4c1.3-5.1,3-10.6,5.4-16.2c2.3-5.6,5.2-11.3,8.6-16.9c3.3-5.7,7.1-11.3,11-17
			c3.9-5.7,7.8-11.4,11.3-17.3c3.5-5.9,6.6-12.1,9-18.4c2.4-6.3,3.9-12.7,4.8-19.2c1-6.4,1.5-12.6,1.6-18.6
			c0.1-5.9-0.2-11.5-0.4-16.7c-0.2-5.2-0.4-10-0.1-14.3c0.2-4.3,0.8-7.9,1.5-10.9c0.6-3,1.3-5.3,1.8-6.8
			C445.3,146.8,445.6,146,445.6,146z"/>
	</g>
	<g id="XMLID_2264_">
		<path id="XMLID_166_" class="st6" d="M378.7,342.7c-4.6-10.9-1-24.7,8.4-31.9c8.7-6.8,22.3-9.1,25.8-19.6
			c1.1-3.4,0.9-7.1,1.7-10.6c2.2-9.4,11.2-15.7,20.1-19.5c8.9-3.9,18.6-6.5,25.8-13c11.9-10.6,13.7-28.2,19.1-43.2
			c2.9-8,9.8-16.9,17.9-14.4c6.8,2.1,8.8,11,7.3,18c-1.5,7-5.2,13.5-5.3,20.6c-0.2,11.4,8.7,20.9,11,32c2.5,12.2-4.1,25.8-15.3,31.3
			c-6.7,3.3-14.4,3.8-21.5,6c-7.1,2.2-14.4,7-15.7,14.3c-1.5,8.3,5.1,16.4,3.8,24.7c-0.9,6.1-5.8,10.9-11,14.1
			C435.9,361,389.9,368.8,378.7,342.7"/>
	</g>
	<g id="XMLID_11_">
		<path class="st3" d="M378.7,342.7c-4.6-10.9-1-24.7,8.4-31.9c8.7-6.8,22.3-9.1,25.8-19.6c1.1-3.4,0.9-7.1,1.7-10.6
			c2.2-9.4,11.2-15.7,20.1-19.5c8.9-3.9,18.6-6.5,25.8-13c11.9-10.6,13.7-28.2,19.1-43.2c2.9-8,9.8-16.9,17.9-14.4
			c6.8,2.1,8.8,11,7.3,18c-1.5,7-5.2,13.5-5.3,20.6c-0.2,11.4,8.7,20.9,11,32c2.5,12.2-4.1,25.8-15.3,31.3c-6.7,3.3-14.4,3.8-21.5,6
			c-7.1,2.2-14.4,7-15.7,14.3c-1.5,8.3,5.1,16.4,3.8,24.7c-0.9,6.1-5.8,10.9-11,14.1C435.9,361,389.9,368.8,378.7,342.7"/>
	</g>
	<path id="XMLID_2294_" class="st6" d="M492.2,210c0,0-0.1,0.2-0.3,0.5c-0.2,0.3-0.5,0.8-0.7,1.4c-0.6,1.2-1.4,3.1-2.1,5.6
		c-0.7,2.5-1.4,5.6-1.9,9.1c-0.6,3.6-1.1,7.6-1.9,12c-0.8,4.4-1.8,9.1-3.7,13.9c-1.8,4.8-4.5,9.5-8.3,13.7c-1.8,2.1-4.1,4-6.6,5.4
		c-2.5,1.5-5.2,2.7-7.9,3.7c-5.4,2.1-11.2,3.6-16.2,6.7c-2.5,1.5-4.6,3.5-6.2,5.8c-1.6,2.3-2.7,5-3.3,7.8c-0.6,2.8-0.9,5.6-0.9,8.4
		c-0.1,2.9-0.6,5.8-1.6,8.5c-1.9,5.5-5.6,9.9-9.5,13.2c-4,3.4-8.1,5.9-11.7,8.4c-3.7,2.5-6.8,4.9-9.1,7.5c-2.3,2.6-3.6,5.3-4.1,7.6
		c-0.6,2.3-0.5,4.3-0.5,5.6c0,0.7,0.1,1.2,0.1,1.5c0,0.3,0.1,0.5,0.1,0.5l-2.7,0.3c0,0,0-0.2-0.1-0.6c0-0.4-0.1-0.9-0.1-1.7
		c-0.1-1.5-0.1-3.6,0.6-6.3c0.7-2.7,2.2-5.8,4.8-8.6c2.5-2.8,5.9-5.3,9.7-7.7c3.7-2.5,7.8-4.9,11.7-8.1c3.8-3.1,7.3-7.2,9.2-12.3
		c0.9-2.5,1.4-5.2,1.6-8c0.1-2.8,0.4-5.8,1.1-8.7c0.7-2.9,1.9-5.8,3.7-8.2c1.8-2.5,4.1-4.5,6.7-6.1c5.2-3.1,11.1-4.5,16.5-6.5
		c5.4-1.9,10.6-4.6,14.3-8.7c3.7-4.1,6.5-8.7,8.3-13.4c1.9-4.7,3-9.4,3.8-13.8c0.8-4.4,1.4-8.4,2-11.9c0.6-3.6,1.3-6.6,2-9.1
		c0.7-2.5,1.6-4.4,2.2-5.6c0.3-0.6,0.6-1.1,0.8-1.4C492.1,210.2,492.2,210,492.2,210z"/>
	<path id="XMLID_13_" class="st7" d="M492.2,210c0,0-0.1,0.2-0.3,0.5c-0.2,0.3-0.5,0.8-0.7,1.4c-0.6,1.2-1.4,3.1-2.1,5.6
		c-0.7,2.5-1.4,5.6-1.9,9.1c-0.6,3.6-1.1,7.6-1.9,12c-0.8,4.4-1.8,9.1-3.7,13.9c-1.8,4.8-4.5,9.5-8.3,13.7c-1.8,2.1-4.1,4-6.6,5.4
		c-2.5,1.5-5.2,2.7-7.9,3.7c-5.4,2.1-11.2,3.6-16.2,6.7c-2.5,1.5-4.6,3.5-6.2,5.8c-1.6,2.3-2.7,5-3.3,7.8c-0.6,2.8-0.9,5.6-0.9,8.4
		c-0.1,2.9-0.6,5.8-1.6,8.5c-1.9,5.5-5.6,9.9-9.5,13.2c-4,3.4-8.1,5.9-11.7,8.4c-3.7,2.5-6.8,4.9-9.1,7.5c-2.3,2.6-3.6,5.3-4.1,7.6
		c-0.6,2.3-0.5,4.3-0.5,5.6c0,0.7,0.1,1.2,0.1,1.5c0,0.3,0.1,0.5,0.1,0.5l-2.7,0.3c0,0,0-0.2-0.1-0.6c0-0.4-0.1-0.9-0.1-1.7
		c-0.1-1.5-0.1-3.6,0.6-6.3c0.7-2.7,2.2-5.8,4.8-8.6c2.5-2.8,5.9-5.3,9.7-7.7c3.7-2.5,7.8-4.9,11.7-8.1c3.8-3.1,7.3-7.2,9.2-12.3
		c0.9-2.5,1.4-5.2,1.6-8c0.1-2.8,0.4-5.8,1.1-8.7c0.7-2.9,1.9-5.8,3.7-8.2c1.8-2.5,4.1-4.5,6.7-6.1c5.2-3.1,11.1-4.5,16.5-6.5
		c5.4-1.9,10.6-4.6,14.3-8.7c3.7-4.1,6.5-8.7,8.3-13.4c1.9-4.7,3-9.4,3.8-13.8c0.8-4.4,1.4-8.4,2-11.9c0.6-3.6,1.3-6.6,2-9.1
		c0.7-2.5,1.6-4.4,2.2-5.6c0.3-0.6,0.6-1.1,0.8-1.4C492.1,210.2,492.2,210,492.2,210z"/>
	<path id="XMLID_17_" class="st5" d="M296.7,148.8h119c2.6,0,4.7,2.1,4.7,4.7v203.9c0,2.6-2.1,4.7-4.7,4.7h-119
		c-2.6,0-4.7-2.1-4.7-4.7V153.5C292.1,150.9,294.2,148.8,296.7,148.8z"/>
	<rect id="XMLID_115_" x="299.1" y="164.7" class="st0" width="114.3" height="179.8"/>
	<path id="XMLID_117_" class="st0" d="M376,158.2h-39.5c-0.5,0-1-0.4-1-1l0,0c0-0.5,0.4-1,1-1H376c0.5,0,1,0.4,1,1l0,0
		C377,157.7,376.6,158.2,376,158.2z"/>
	<rect id="XMLID_2132_" x="303.5" y="174.6" class="st8" width="58.8" height="57.3"/>
	<rect id="XMLID_2322_" x="303.5" y="239" class="st8" width="104.9" height="8.6"/>
	<rect id="XMLID_2328_" x="303.5" y="254.5" class="st8" width="104.9" height="8.6"/>
	<rect id="XMLID_2333_" x="303.5" y="269.9" class="st8" width="104.9" height="8.6"/>
	<rect id="XMLID_2336_" x="303.5" y="301.1" class="st8" width="104.9" height="8.6"/>
	<rect id="XMLID_2342_" x="303.5" y="332.4" class="st8" width="104.9" height="8.6"/>
	<rect id="XMLID_2335_" x="303.5" y="285.3" class="st8" width="81.3" height="8.6"/>
	<rect id="XMLID_2151_" x="369.9" y="175.2" class="st8" width="38.4" height="14.2"/>
	<rect id="XMLID_2286_" x="369.9" y="196.4" class="st8" width="38.4" height="14.2"/>
	<rect id="XMLID_2321_" x="369.9" y="217.6" class="st8" width="38.4" height="14.2"/>
	<g id="XMLID_1304_">
		<path id="XMLID_2022_" class="st3" d="M193,89.5c0,7.2-3,11.6-8,11.6c-2.7,0-4.6-1.3-5.3-3.6c-1.6,2.4-4.2,3.6-7.5,3.6
			c-5.8,0-10-4.4-10-10.6c0-6.2,4.3-10.5,10-10.5c2.9,0,5.3,1,7,3v-2.7h4.6v14.2c0,2.1,1,2.8,2.2,2.8c2.3,0,3.5-2.6,3.5-7.5
			c0-8.9-6.5-14.9-16-14.9c-9.7,0-16.1,6.5-16.1,15.6c0,9.2,6.3,15.6,15.9,15.6c2.5,0,5.5-0.5,8.1-1.8l1.1,3.3c-2.5,1.3-6.1,2-9.2,2
			c-11.8,0-19.8-8-19.8-19.1c0-10.9,8-19,19.9-19C184.9,71.3,193,78.9,193,89.5z M179.2,90.4c0-4.1-2.7-6.5-6.2-6.5
			c-3.6,0-6.2,2.5-6.2,6.5c0,4,2.5,6.6,6.2,6.6C176.5,97,179.2,94.6,179.2,90.4z"/>
	</g>
	<g id="XMLID_2029_">
		<path id="XMLID_113_" class="st3" d="M368,115.1"/>
		<g id="XMLID_143_">
			<path id="XMLID_146_" class="st3" d="M368,118.6c4.5,0,4.5-7,0-7C363.5,111.6,363.5,118.6,368,118.6L368,118.6z"/>
		</g>
	</g>
	<path id="XMLID_139_" class="st9" d="M209.3,203.2H92.1c-3.3,0-6-2.7-6-6v-64c0-3.3,2.7-6,6-6h117.2c3.3,0,6,2.7,6,6v64
		C215.3,200.5,212.6,203.2,209.3,203.2z"/>
	<path id="XMLID_2018_" class="st3" d="M206.5,203.2c1.8,0,3.4-0.5,4.8-1.4l-58.6-39.4l-62.4,39.5c1.3,0.8,2.9,1.3,4.6,1.3H206.5z"
		/>
	<path id="XMLID_137_" class="st10" d="M213.7,130.1c-1.4-1.7-3.5-2.8-5.8-2.8H93.6c-0.6,0-1.3,0.1-1.9,0.2l51.9,40
		c4.3,3.3,10.1,3.4,14.6,0.4L213.7,130.1z"/>
	<g id="XMLID_2137_">
		
			<rect id="XMLID_2144_" x="26.7" y="148.5" transform="matrix(-1 -1.224647e-16 1.224647e-16 -1 109.2175 300.8659)" class="st3" width="55.9" height="3.8"/>
		
			<rect id="XMLID_2143_" x="46.9" y="160.8" transform="matrix(-1 -1.224647e-16 1.224647e-16 -1 131.2201 325.4728)" class="st3" width="37.4" height="3.8"/>
		
			<rect id="XMLID_2142_" x="19.4" y="172.5" transform="matrix(-1 -1.224647e-16 1.224647e-16 -1 90.2965 348.847)" class="st3" width="51.6" height="3.8"/>
	</g>
	<ellipse id="XMLID_2262_" class="st1" cx="125.4" cy="378.9" rx="60.9" ry="4.6"/>
	<ellipse id="XMLID_2296_" class="st1" cx="353.4" cy="361.8" rx="89.2" ry="5.4"/>
	<g id="XMLID_2130_">
		<path id="XMLID_2124_" class="st11" d="M173.2,222.7c0,0,0.5-2,1-3.3c0.4-1.1,1.2,0.6,1.2,0.9c0,0.2,0,0.2,0,0.2s1.8-3.7,3-3.1
			c1.2,0.6,2.1,1.5,2.4,4c0.2,2.1-0.2,1.3-1.6,2.8c-1.4,1.5-3.1,2.6-3.1,2.6L173.2,222.7z"/>
		<path id="XMLID_2128_" class="st11" d="M130.6,234.7c0,0,11.8,2.2,22.2-1c10.2-3.2,20.3-12.4,20.3-12.4l4.7,4.6
			c0,0-9.7,18.4-25.1,26.5c-11.5,6-27.9,9.8-32.8,8.4C115.1,259.4,123.4,233.7,130.6,234.7z"/>
	</g>
	<g id="XMLID_2030_">
		<path id="XMLID_196_" class="st3" d="M96.3,224.9"/>
		<g id="XMLID_293_">
			<path id="XMLID_314_" class="st3" d="M96.3,228.4c4.5,0,4.5-7,0-7C91.8,221.4,91.8,228.4,96.3,228.4L96.3,228.4z"/>
		</g>
	</g>
	<g id="XMLID_23_">
		<path id="XMLID_144_" class="st3" d="M134.9,115.4"/>
		<g id="XMLID_24_">
			<path id="XMLID_106_" class="st3" d="M134.9,121.6c8.3,0,8.3-12.3,0-12.3C126.6,109.3,126.6,121.6,134.9,121.6L134.9,121.6z"/>
		</g>
	</g>
	<g id="XMLID_7_">
		<path id="XMLID_31_" class="st3" d="M183.9,317.4"/>
		<g id="XMLID_32_">
			<path id="XMLID_33_" class="st3" d="M183.9,319.2c2.3,0,2.4-3.6,0-3.6C181.5,315.6,181.5,319.2,183.9,319.2L183.9,319.2z"/>
		</g>
	</g>
	<path id="XMLID_1994_" class="st3" d="M346.7,204.5l-77.3-70.7c-3.4-3.1-8.6-3.1-12,0.1l-75.5,69.5l-5,4.6l86.4,50.7l85.2-52.6
		L346.7,204.5z"/>
	<path id="XMLID_2108_" class="st3" d="M334.6,276.2l-117.8-14c-2.4-0.3-4.1-2.5-3.8-4.9l16-134.6c0.3-2.4,2.5-4.1,4.9-3.8l117.8,14
		c2.4,0.3,4.1,2.5,3.8,4.9l-16,134.6C339.2,274.7,337,276.5,334.6,276.2z"/>
	<g id="XMLID_2096_">
		
			<rect id="XMLID_2107_" x="237.3" y="146.2" transform="matrix(0.993 0.1183 -0.1183 0.993 19.8091 -33.2378)" class="st12" width="105.1" height="8"/>
		
			<rect id="XMLID_2106_" x="235.2" y="164" transform="matrix(0.993 0.1183 -0.1183 0.993 21.9009 -32.8616)" class="st12" width="105.1" height="8"/>
		
			<rect id="XMLID_2105_" x="233.3" y="177.9" transform="matrix(0.993 0.1183 -0.1183 0.993 23.3015 -28.6375)" class="st12" width="39.1" height="8"/>
		
			<rect id="XMLID_2104_" x="231.1" y="197.5" transform="matrix(0.993 0.1183 -0.1183 0.993 25.7707 -31.0761)" class="st12" width="87" height="8"/>
		
			<rect id="XMLID_2097_" x="229" y="215.3" transform="matrix(0.993 0.1183 -0.1183 0.993 27.928 -31.778)" class="st12" width="105.1" height="8"/>
	</g>
	<path id="XMLID_123_" class="st5" d="M322.6,286.1H204c-2.4,0-4.4-2-4.4-4.4V146.2c0-2.4,2-4.4,4.4-4.4h118.7c2.4,0,4.4,2,4.4,4.4
		v135.5C327,284.1,325.1,286.1,322.6,286.1z"/>
	<g id="XMLID_2001_">
		<rect id="XMLID_1998_" x="210.7" y="162.3" class="st12" width="105.1" height="8"/>
		<rect id="XMLID_2007_" x="210.7" y="180.2" class="st12" width="105.1" height="8"/>
		<rect id="XMLID_2010_" x="210.7" y="198.1" class="st12" width="39.1" height="8"/>
		<rect id="XMLID_2011_" x="210.7" y="215" class="st12" width="87" height="8"/>
		<rect id="XMLID_2012_" x="210.7" y="231.9" class="st12" width="105.1" height="8"/>
	</g>
	<path id="XMLID_2005_" class="st10" d="M348.5,206.1l-85.2,52.6l-86.4-50.7l5-4.6c-3.4,1.2-5.8,4.5-5.8,8.3v84.9
		c0,4.9,3.9,8.8,8.8,8.8h156.7c4.9,0,8.8-3.9,8.8-8.8v-84.9C350.5,209.6,349.7,207.7,348.5,206.1z"/>
	<polygon id="XMLID_2119_" class="st5" points="134.9,363.9 137.3,373.7 145,373.7 143.6,362.3 	"/>
	<path id="XMLID_2122_" class="st11" d="M137.3,373.7l0.6,6.5c0,0,11.3,0.7,13,0.7c8.2,0.1-5.9-7.2-5.9-7.2H137.3z"/>
	<polygon id="XMLID_2131_" class="st5" points="97.1,352.2 89.8,359.3 93.7,365.9 102.9,358.8 	"/>
	<path id="XMLID_2126_" class="st11" d="M89.8,359.3l-5.3,3.9c0,0,5.1,10.1,6,11.6c4.1,7.1,3.2-8.8,3.2-8.8L89.8,359.3z"/>
	<path id="XMLID_2114_" class="st11" d="M112.1,293.9c0,0-3-1.4-3,0c0,1.4,4,35.1,3,37c-0.9,1.9-20.4,25-20.4,25l7.3,7.5
		c0,0,28.4-19.2,32.2-27.6C135,327.3,112.1,293.9,112.1,293.9z"/>
	<path id="XMLID_2118_" class="st13" d="M106,284.3c0,0-0.5,10.1,2.6,18.5c3,8.4,16.6,38.4,19,44.5c2.3,6.1,6.6,20.8,6.6,20.8h11
		c0,0,0-41.6,0-53.6c0-11.9-1.2-24.6-5.6-31.4C135,276.3,106,284.3,106,284.3z"/>
	<path id="XMLID_16_" class="st5" d="M106,284.3c0,0-0.5,10.1,2.6,18.5c3,8.4,16.6,38.4,19,44.5c2.3,6.1,6.6,20.8,6.6,20.8h11
		c0,0,0-41.6,0-53.6c0-11.9-1.2-24.6-5.6-31.4C135,276.3,106,284.3,106,284.3z"/>
	<path id="XMLID_2129_" class="st11" d="M126.5,284.8c0,0,3.4,27.2,7.7,49.5c4.3,22.3,5.8,33.7,5.8,33.7"/>
	<path id="XMLID_2064_" class="st10" d="M132.3,230.1c0,0-2,3.4,0,8.9c0,0-9.3-3.1-10.4-4.5c0,0,3.2-4.2,4.7-5.6L132.3,230.1z"/>
	<path id="XMLID_2062_" d="M134.9,219.6c0,0,2.1-2.4,2-4.6c0-2.2-3.1,0-4.3,0c-1.4,0-6.1-2.9-8.3,0.6c-2.3,3.6-3.6,2.3-4.1,4.9
		c-0.5,2.6,1.2,3.2,1,5.6c-0.2,2.4,2.4,2.5,2.8,4.9c0.3,1.6,1.7,0.2,3.1-0.9c0.9-0.8,3.1-0.7,3.3-1.2
		C130.8,227.6,134.9,219.6,134.9,219.6z"/>
	<path id="XMLID_2047_" class="st10" d="M135.2,218.7c0,0,1.3,1.2,1.9,6.6c0,0,1.6-0.1,1.5,1.3c-0.1,0.8-1.1,0.8-1.1,0.8
		s0.3,5-2.2,5.5c-2.5,0.5-5.6,0.1-7.1-1.1c-1.5-1.2-1.6-3.6-0.4-4c1.2-0.3,1.8,1.6,1.8,1.6s0.7-1.5-0.6-3.9
		c-1.3-2.4-1.1-3.4,0.6-3.4c1.7,0,0.5-2.3,1.9-3.2C132.9,218.2,133.9,221.2,135.2,218.7z"/>
	<path id="XMLID_2112_" class="st3" d="M121.9,234.5c0,0-10.7,14-13.8,33.4c-3.1,19.4-3,25.8-0.7,26.5c2.2,0.7,26.8,6.4,36.7,0
		c0,0-1.2-25.9-5.9-39.5c-4.7-13.6-5.8-16.7-5.8-16.7L121.9,234.5z"/>
	<g id="XMLID_2134_">
		<path id="XMLID_2141_" class="st5" d="M176.9,248.1c0,0,1.3-1.6,2.4-2.6c0.8-0.8,0.8,1.1,0.7,1.3c-0.1,0.2-0.1,0.2-0.1,0.2
			s3.3-2.5,4.1-1.4c0.8,1.1,1.2,2.2,0.3,4.7c-0.7,2-0.8,1.1-2.7,1.8c-1.9,0.7-3.9,1-3.9,1L176.9,248.1z"/>
		<path id="XMLID_2135_" class="st5" d="M133.5,239.7c0,0,9.6,7.3,20.3,9.1c10.6,1.8,23.8-2,23.8-2l2.2,6.2c0,0-16.9,12.1-34.3,12.4
			c-12.9,0.2-29.3-3.7-33.1-7.2C108.5,254.8,127.4,235.6,133.5,239.7z"/>
	</g>
	<path id="XMLID_2021_" class="st9" d="M351.4,115h-84.2c-3.3,0-6-2.7-6-6V64.4c0-3.3,2.7-6,6-6h84.2c3.3,0,6,2.7,6,6V109
		C357.3,112.3,354.7,115,351.4,115z"/>
	<path id="XMLID_2014_" class="st3" d="M265.1,113.5c1.4,1,3.1,1.5,4.9,1.5h78.5c1.9,0,3.6-0.6,5-1.6l-42.8-28.8L265.1,113.5z"/>
	<path id="XMLID_2148_" class="st10" d="M354.4,60.8c-0.4-0.4-0.8-0.7-1.2-0.9c0,0,0,0,0,0c-0.4-0.3-0.9-0.5-1.4-0.7
		c0,0-0.1,0-0.1,0c-0.5-0.2-1-0.3-1.5-0.4c0,0-0.1,0-0.1,0c-0.5-0.1-1-0.2-1.6-0.2H270c-0.4,0-0.8,0-1.1,0.1c-0.1,0-0.2,0-0.3,0
		c-0.3,0.1-0.7,0.1-1,0.2c0,0-0.1,0-0.1,0c-0.8,0.2-1.5,0.6-2.2,1c0,0,0,0,0,0l37.1,28.6c0.4,0.3,0.7,0.5,1.1,0.7
		c3,1.7,6.8,1.6,9.7-0.4l1.7-1.2L354.4,60.8L354.4,60.8z"/>
	<path id="XMLID_35_" class="st3" d="M326.9,281l-9.3-6.9l-36.2-26.6l-18.1,11.2l-15.8-9.3l-19.1,14.1L201,283.6L177.3,301
		c1.5,2.6,4.4,4.4,7.6,4.4h156.7c4.3,0,7.9-3.1,8.6-7.2L326.9,281z"/>
	<g id="XMLID_95_">
		<g id="XMLID_34_">
			<polygon id="XMLID_42_" class="st14" points="387.5,195.4 372.1,182.2 341.7,220.2 			"/>
			<polygon id="XMLID_43_" class="st14" points="397.8,199.6 420.1,210.1 341.7,220.2 			"/>
		</g>
		<polygon id="XMLID_101_" class="st15" points="342.8,218.8 387.5,195.4 386.9,203.6 		"/>
	</g>
	<g id="XMLID_99_">
		<g>
			<path class="st16" d="M202.6,115.2c0,0,0.5-0.8,1.4-2"/>
			<path class="st17" d="M206,110.9c8.3-9.2,32.4-27.8,77.4,0.2c68,42.1,154.1,13.6,150.4-19.6c-5.4-48.3-82.3-0.9-35.4,52.9
				c27.9,31.9,6.8,44.5-2.5,48.2"/>
			<path class="st16" d="M394.5,193c-1.5,0.5-2.4,0.7-2.4,0.7"/>
		</g>
	</g>
	<path id="XMLID_100_" class="st18" d="M110.4,226.8c0,0-10.3,25.1-26.1,30.6C68.5,263,41.5,279.9,66.5,309"/>
	
		<ellipse id="XMLID_2049_" transform="matrix(0.9836 -0.1804 0.1804 0.9836 -14.8591 19.4797)" class="st1" cx="99.7" cy="91.4" rx="42" ry="25"/>
</g>
<g id="DESIGNED_BY_FREEPIK">
	<g id="XMLID_4_">
		<g id="XMLID_875_">
			<g id="XMLID_1129_">
				<g id="XMLID_1148_">
					<path id="XMLID_1156_" class="st0" d="M270.7,436.4c-0.4,0.4-0.8,0.9-1.1,1.5l-0.5-0.2c-0.1-0.3-0.3-0.5-0.7-0.5
						c-0.3,0-0.6,0.3-0.5,0.7c0,0.3,0.3,0.6,0.7,0.5c0.1,0,0.1,0,0.2-0.1l0.5,0.2c-0.3,0.6-0.4,1.1-0.5,1.7l0.7,0.1
						c0.2-1.3,0.8-2.5,1.8-3.5L270.7,436.4z"/>
					<path id="XMLID_1155_" class="st0" d="M276.2,434.1c-0.2,0-0.3,0-0.5,0l-0.1-0.6c0.2-0.1,0.3-0.4,0.3-0.6
						c0-0.4-0.4-0.7-0.8-0.6c-0.4,0-0.7,0.4-0.6,0.8c0,0.3,0.2,0.5,0.4,0.6l0.1,0.6c-0.7,0.1-1.4,0.3-2.1,0.6l0.3,0.7
						c0.9-0.4,1.9-0.7,3-0.7c0.5,0,1,0.1,1.5,0.2l0.2-0.7C277.3,434.2,276.8,434.1,276.2,434.1z"/>
					<path id="XMLID_1154_" class="st0" d="M282.8,436.7c0.3,0,0.6-0.3,0.5-0.7c0-0.3-0.3-0.6-0.7-0.5c-0.3,0-0.5,0.3-0.5,0.6
						l-0.4,0.4c-0.4-0.4-0.9-0.8-1.4-1.1l-0.4,0.6c1.1,0.7,2,1.7,2.6,2.9l0.7-0.3c-0.3-0.6-0.6-1.1-0.9-1.5l0.4-0.4
						C282.7,436.7,282.8,436.7,282.8,436.7z"/>
					<path id="XMLID_1153_" class="st0" d="M275.7,444.3c-0.4,0-0.8,0-1.2,0c-0.9,0-1.7-0.1-2.5-0.2c-0.4-0.1-0.8-0.2-1.3-0.3
						c1,1.9,3.1,3.1,5.4,3.1c2.9,0,5.3-1.9,5.9-4.5c-0.7,0.4-1.5,0.8-2.5,1.1C278.5,444,277.1,444.2,275.7,444.3z"/>
					<path id="XMLID_1149_" class="st0" d="M276.2,435.6c-3.4,0-6.1,2.7-6.1,5.9c0,0.4,0,0.8,0.1,1.3c0.7,0.5,2.7,0.9,5.3,0.7
						c2.9-0.2,5.3-1,6.7-2.2c0-0.2,0-0.4,0-0.6C281.9,437.9,279.3,435.6,276.2,435.6z M274.1,442.1c-1,0-1.8-0.8-1.8-1.8
						c0-1,0.8-1.9,1.8-1.9c1,0,1.8,0.8,1.8,1.9C275.9,441.3,275.1,442.1,274.1,442.1z M278.8,441.2c-0.8,0-1.4-0.6-1.4-1.4
						s0.6-1.4,1.4-1.4s1.4,0.6,1.4,1.4S279.6,441.2,278.8,441.2z"/>
				</g>
				<path id="XMLID_1146_" class="st0" d="M292.2,437.5c-0.3-0.1-0.8-0.3-1.4-0.2c-0.6,0.1-0.8,0.3-0.8,1v0.9h2.2v1.7H290v5.5h-1.9
					v-5.5h-1.3v-1.7h1.3v-0.9c0-1.7,0.9-2.8,2.6-2.8c0.6,0,1.2,0.1,1.6,0.3V437.5z"/>
				<path id="XMLID_1144_" class="st0" d="M296.9,440.8c-0.2,0-0.4,0-0.5,0c-0.9,0-1.5,0.5-1.5,1.6v3.9H293v-7.2h1.9v0.8
					c0.5-0.7,1.1-1,2-1c0.4,0,0.8,0.1,1.1,0.3L296.9,440.8z"/>
				<path id="XMLID_1141_" class="st0" d="M304.6,442.7c0,0.2,0,0.5,0,0.7h-5.1c0.2,1,0.9,1.5,1.8,1.5c0.6,0,1.3-0.3,1.8-0.7
					l1.1,1.2c-0.8,0.7-1.9,1.1-3.1,1.1c-2.2,0-3.7-1.5-3.7-3.8c0-2.3,1.5-3.8,3.6-3.8C303.2,438.9,304.6,440.5,304.6,442.7z
					 M299.5,442h3.2c-0.2-0.9-0.7-1.4-1.6-1.4C300.2,440.6,299.7,441.2,299.5,442z"/>
				<path id="XMLID_1138_" class="st0" d="M312.3,442.7c0,0.2,0,0.5,0,0.7h-5.1c0.2,1,0.9,1.5,1.8,1.5c0.6,0,1.3-0.3,1.8-0.7
					l1.1,1.2c-0.8,0.7-1.9,1.1-3.1,1.1c-2.2,0-3.7-1.5-3.7-3.8c0-2.3,1.5-3.8,3.6-3.8C310.8,438.9,312.3,440.5,312.3,442.7z
					 M307.1,442h3.2c-0.2-0.9-0.7-1.4-1.6-1.4C307.8,440.6,307.3,441.2,307.1,442z"/>
				<path id="XMLID_1135_" class="st0" d="M320.6,442.7c0,2.2-1.5,3.8-3.5,3.8c-1,0-1.6-0.4-2.1-0.9v3.7h-1.9v-10.1h1.9v0.8
					c0.5-0.6,1.2-1,2.1-1C319.1,438.9,320.6,440.6,320.6,442.7z M314.9,442.7c0,1.1,0.7,2,1.8,2c1.1,0,1.8-0.9,1.8-2
					c0-1.1-0.7-2-1.8-2C315.7,440.7,314.9,441.6,314.9,442.7z"/>
				<path id="XMLID_1132_" class="st0" d="M323.7,436.8c0,0.7-0.5,1.2-1.2,1.2c-0.7,0-1.2-0.5-1.2-1.2c0-0.7,0.5-1.2,1.2-1.2
					C323.2,435.5,323.7,436.1,323.7,436.8z M323.4,446.3h-1.9v-7.2h1.9V446.3z"/>
				<path id="XMLID_1130_" class="st0" d="M326.7,441.7l2.7-2.6h2.4l-3.5,3.4l3.5,3.8h-2.4l-2.7-2.9v2.9h-1.9v-10.7h1.9V441.7z"/>
			</g>
			<g id="XMLID_876_">
				<path id="XMLID_1126_" class="st0" d="M195.1,446.2v-1.1c-0.5,0.7-1.4,1.2-2.4,1.2c-1.8,0-3.1-1.4-3.1-3.7
					c0-2.3,1.3-3.7,3.1-3.7c1,0,1.8,0.5,2.4,1.2v-3.8h1.1v9.8H195.1z M195.1,444.3v-3.2c-0.4-0.6-1.2-1.1-2.1-1.1
					c-1.4,0-2.3,1.2-2.3,2.7c0,1.6,0.8,2.7,2.3,2.7C193.8,445.4,194.7,444.9,195.1,444.3z"/>
				<path id="XMLID_1123_" class="st0" d="M197.6,442.7c0-2.1,1.5-3.7,3.5-3.7c2.1,0,3.4,1.7,3.4,3.8v0.3h-5.7
					c0.1,1.3,1,2.4,2.5,2.4c0.8,0,1.6-0.3,2.2-0.9l0.5,0.7c-0.7,0.7-1.7,1.1-2.8,1.1C199.1,446.4,197.6,444.9,197.6,442.7z
					 M201,439.9c-1.5,0-2.3,1.3-2.3,2.4h4.6C203.4,441.2,202.7,439.9,201,439.9z"/>
				<path id="XMLID_1121_" class="st0" d="M205.2,445.3l0.6-0.8c0.5,0.5,1.4,1,2.3,1c1.1,0,1.7-0.5,1.7-1.2c0-1.7-4.4-0.7-4.4-3.3
					c0-1.1,1-2,2.6-2c1.2,0,2.1,0.5,2.6,1l-0.5,0.8c-0.4-0.5-1.2-0.9-2.1-0.9c-1,0-1.6,0.5-1.6,1.1c0,1.6,4.4,0.5,4.4,3.3
					c0,1.2-1,2.1-2.8,2.1C206.9,446.4,206,446.1,205.2,445.3z"/>
				<path id="XMLID_1118_" class="st0" d="M212.1,437.4c0-0.4,0.3-0.7,0.7-0.7c0.4,0,0.7,0.3,0.7,0.7c0,0.4-0.3,0.7-0.7,0.7
					C212.5,438.2,212.1,437.8,212.1,437.4z M212.3,446.2v-7.1h1.1v7.1H212.3z"/>
				<path id="XMLID_1104_" class="st0" d="M215.2,448.1l0.6-0.8c0.6,0.7,1.3,1,2.3,1c1.2,0,2.3-0.6,2.3-2.1v-1
					c-0.5,0.7-1.4,1.3-2.4,1.3c-1.8,0-3.1-1.4-3.1-3.7c0-2.3,1.3-3.7,3.1-3.7c1,0,1.8,0.5,2.4,1.2v-1.1h1.1v6.9
					c0,2.3-1.6,3.1-3.4,3.1C216.9,449.1,216.1,448.9,215.2,448.1z M220.3,444.2v-3.1c-0.4-0.6-1.2-1.1-2.1-1.1
					c-1.4,0-2.3,1.1-2.3,2.7c0,1.6,0.8,2.7,2.3,2.7C219.1,445.4,220,444.8,220.3,444.2z"/>
				<path id="XMLID_1095_" class="st0" d="M228.1,446.2v-4.6c0-1.2-0.6-1.6-1.6-1.6c-0.9,0-1.7,0.5-2.1,1.1v5.2h-1.1v-7.1h1.1v1
					c0.5-0.6,1.5-1.2,2.5-1.2c1.5,0,2.3,0.7,2.3,2.3v5H228.1z"/>
				<path id="XMLID_1054_" class="st0" d="M230.6,442.7c0-2.1,1.5-3.7,3.5-3.7c2.1,0,3.4,1.7,3.4,3.8v0.3h-5.7
					c0.1,1.3,1,2.4,2.5,2.4c0.8,0,1.6-0.3,2.2-0.9l0.5,0.7c-0.7,0.7-1.7,1.1-2.8,1.1C232.1,446.4,230.6,444.9,230.6,442.7z
					 M234,439.9c-1.5,0-2.3,1.3-2.3,2.4h4.6C236.4,441.2,235.7,439.9,234,439.9z"/>
				<path id="XMLID_1013_" class="st0" d="M244,446.2v-1.1c-0.5,0.7-1.4,1.2-2.4,1.2c-1.8,0-3.1-1.4-3.1-3.7c0-2.3,1.3-3.7,3.1-3.7
					c1,0,1.8,0.5,2.4,1.2v-3.8h1.1v9.8H244z M244,444.3v-3.2c-0.4-0.6-1.2-1.1-2.1-1.1c-1.4,0-2.3,1.2-2.3,2.7
					c0,1.6,0.8,2.7,2.3,2.7C242.7,445.4,243.6,444.9,244,444.3z"/>
				<path id="XMLID_879_" class="st0" d="M250.3,446.2v-9.8h1.1v3.8c0.6-0.8,1.4-1.2,2.4-1.2c1.8,0,3.1,1.5,3.1,3.7
					c0,2.3-1.3,3.7-3.1,3.7c-1,0-1.9-0.5-2.4-1.2v1.1H250.3z M253.5,445.4c1.4,0,2.3-1.2,2.3-2.7c0-1.6-0.8-2.7-2.3-2.7
					c-0.9,0-1.7,0.5-2.1,1.1v3.2C251.8,444.9,252.7,445.4,253.5,445.4z"/>
				<path id="XMLID_877_" class="st0" d="M258.2,448c0.2,0.1,0.4,0.1,0.6,0.1c0.5,0,0.8-0.2,1.1-0.7l0.5-1.1l-3-7.1h1.2l2.4,5.8
					l2.3-5.8h1.2l-3.5,8.5c-0.4,1-1.1,1.4-2.1,1.4c-0.2,0-0.6,0-0.8-0.1L258.2,448z"/>
			</g>
		</g>
	</g>
</g>
</svg>
