<?xml version="1.0" encoding="utf-8"?>
<!-- Generator: Adobe Illustrator 21.0.0, SVG Export Plug-In . SVG Version: 6.00 Build 0)  -->
<svg version="1.1" id="Layer_1" xmlns="http://www.w3.org/2000/svg" xmlns:xlink="http://www.w3.org/1999/xlink" x="0px" y="0px"
	 viewBox="0 0 40.9 38.1" style="enable-background:new 0 0 40.9 38.1;" xml:space="preserve">
<style type="text/css">
	.st0{fill:#D1AE6C;}
</style>
<path class="st0" d="M38.6,25.9c-0.3-0.9-1-1.6-2-1.7V10.3h1.2c0.3,0,0.6-0.3,0.6-0.6v-6c0-0.3-0.3-0.6-0.6-0.6H11.3
	c-0.3,0-0.6,0.3-0.6,0.6v6c0,0.3,0.3,0.6,0.6,0.6h1.2v12.1h-0.6c-1.5,0-3,0.4-4.2,1.2v-3c0-0.3-0.3-0.6-0.6-0.6H2.8
	c-0.3,0-0.6,0.3-0.6,0.6v13.9c0,0.3,0.3,0.6,0.6,0.6h4.2c0.3,0,0.6-0.3,0.6-0.6v-3c1.3,0.8,2.7,1.2,4.2,1.2h9.9c0.7,0,1.4-0.1,2-0.3
	l13-3.5C38.1,28.5,38.9,27.2,38.6,25.9z M11.9,4.3h25.3v4.8H11.9V4.3z M13.7,10.3h21.7v13.9l-7,1.9c-0.3-0.7-0.9-1.2-1.6-1.4
	l-8.1-2.2c-0.5-0.1-0.9-0.2-1.4-0.2h-3.6V10.3z M6.5,33.8h-3V21.2h3V33.8z M36.5,27.7l-13,3.5c-0.6,0.1-1.1,0.2-1.7,0.2h-9.9
	c-1.4,0-2.8-0.5-4-1.3l-0.2-0.2v-4.8l0.2-0.2c1.1-0.9,2.5-1.3,4-1.3h5.4c0.4,0,0.7,0,1.1,0.1l8.1,2.2c0.5,0.1,0.8,0.5,0.9,1
	c0,0,0,0,0,0.1c0,0,0,0.1,0,0.1c0,0.1,0,0.2,0,0.3c-0.1,0.5-0.6,0.9-1.2,0.9c-0.1,0-0.2,0-0.3,0l-5.1-1.4c-0.2-0.1-0.4,0-0.6,0.1
	c-0.2,0.2-0.2,0.4-0.2,0.6c0.1,0.2,0.2,0.4,0.4,0.4l5.1,1.4c0.2,0.1,0.4,0.1,0.6,0.1c1.1,0,2-0.7,2.3-1.8c0-0.1,0.1-0.2,0.1-0.4
	l7.3-2c0.1,0,0.1,0,0.2,0c0.6-0.1,1.2,0.3,1.3,0.9c0,0.1,0,0.2,0,0.3C37.4,27.1,37.1,27.6,36.5,27.7z"/>
</svg>
