<?xml version="1.0" encoding="utf-8"?>
<!-- Generator: Adobe Illustrator 21.0.0, SVG Export Plug-In . SVG Version: 6.00 Build 0)  -->
<svg version="1.1" id="Layer_1" xmlns="http://www.w3.org/2000/svg" xmlns:xlink="http://www.w3.org/1999/xlink" x="0px" y="0px"
	 viewBox="0 0 40.9 38.1" style="enable-background:new 0 0 40.9 38.1;" xml:space="preserve">
<style type="text/css">
	.st0{fill:#D1AE6C;}
</style>
<g>
	<g>
		<g>
			<path class="st0" d="M27.2,15.8C27.2,15.8,27.2,15.8,27.2,15.8c0-0.1,0-0.1-0.1-0.1c0,0,0,0,0-0.1c0,0,0,0-0.1-0.1c0,0,0,0-0.1,0
				c0,0,0,0-0.1,0l-6.1-3.7c-0.2-0.1-0.4-0.1-0.6,0L14,15.5c0,0,0,0-0.1,0c0,0,0,0-0.1,0c0,0,0,0-0.1,0.1c0,0,0,0,0,0.1
				c0,0,0,0.1,0,0.1c0,0,0,0,0,0.1c0,0.1,0,0.1,0,0.2v6.1c0,0.2,0.1,0.4,0.3,0.5l6.1,3.7l0,0l0,0c0,0,0.1,0,0.1,0c0,0,0,0,0,0
				c0.1,0,0.2,0,0.3,0c0,0,0,0,0,0c0,0,0.1,0,0.1,0l0,0l0,0l6.1-3.7c0.2-0.1,0.3-0.3,0.3-0.5V16C27.2,15.9,27.2,15.9,27.2,15.8z
				 M20.5,13l1.9,1.1l-4.9,3L15.5,16L20.5,13z M19.8,24.7l-4.9-2.9v-4.7l4.9,2.9V24.7z M20.5,18.9l-1.9-1.1l4.9-3l1.9,1.1L20.5,18.9
				z M26,21.8l-4.9,2.9V20l4.9-2.9V21.8z"/>
		</g>
	</g>
	<g>
		<g>
			<path class="st0" d="M20.9,0.9c-0.2-0.3-0.6-0.3-0.9-0.1c0,0-0.1,0.1-0.1,0.1l-1.8,2.5l1,0.7l0.7-1V8h1.2V3.1l0.7,1l1-0.7
				L20.9,0.9z"/>
		</g>
	</g>
	<g>
		<g>
			<path class="st0" d="M21.8,34l-0.7,1v-4.9h-1.2V35l-0.7-1l-1,0.7l1.8,2.5c0.2,0.3,0.6,0.3,0.9,0.1c0,0,0.1-0.1,0.1-0.1l1.8-2.5
				L21.8,34z"/>
		</g>
	</g>
	<g>
		<g>
			<rect x="19.8" y="9.2" class="st0" width="1.2" height="1.2"/>
		</g>
	</g>
	<g>
		<g>
			<rect x="19.8" y="27.6" class="st0" width="1.2" height="1.2"/>
		</g>
	</g>
	<g>
		<g>
			<path class="st0" d="M9.4,18.4H4.5l1-0.7l-0.7-1l-2.5,1.8C2,18.8,2,19.1,2.2,19.4c0,0,0.1,0.1,0.1,0.1l2.5,1.8l0.7-1l-1-0.7h4.9
				V18.4z"/>
		</g>
	</g>
	<g>
		<g>
			<path class="st0" d="M38.7,18.7c0,0-0.1-0.1-0.1-0.1l-2.5-1.8l-0.7,1l1,0.7h-4.9v1.2h4.9l-1,0.7l0.7,1l2.5-1.8
				C38.9,19.3,38.9,18.9,38.7,18.7z"/>
		</g>
	</g>
	<g>
		<g>
			<rect x="10.6" y="18.4" class="st0" width="1.2" height="1.2"/>
		</g>
	</g>
	<g>
		<g>
			<rect x="29" y="18.4" class="st0" width="1.2" height="1.2"/>
		</g>
	</g>
	<g>
		<g>
			<path class="st0" d="M13.1,10.8L9.6,7.3l1.2,0.2L11,6.3L8,5.9C7.6,5.8,7.3,6,7.3,6.4c0,0.1,0,0.1,0,0.2l0.4,3l1.2-0.2L8.7,8.2
				l3.5,3.5L13.1,10.8z"/>
		</g>
	</g>
	<g>
		<g>
			<path class="st0" d="M33.6,31.5l-0.4-3L32,28.7l0.2,1.2l-3.5-3.5l-0.9,0.9l3.5,3.5l-1.2-0.2l-0.2,1.2l3,0.4c0,0,0.1,0,0.1,0
				C33.4,32.2,33.6,31.9,33.6,31.5C33.6,31.6,33.6,31.6,33.6,31.5z"/>
		</g>
	</g>
	<g>
		<g>
			
				<rect x="13.3" y="11.9" transform="matrix(0.7071 -0.7071 0.7071 0.7071 -4.7839 13.5387)" class="st0" width="1.2" height="1.2"/>
		</g>
	</g>
	<g>
		<g>
			
				<rect x="26.3" y="24.9" transform="matrix(0.7071 -0.7071 0.7071 0.7071 -10.1677 26.5376)" class="st0" width="1.2" height="1.2"/>
		</g>
	</g>
	<g>
		<g>
			<path class="st0" d="M9.6,30.7l3.5-3.5l-0.9-0.9l-3.5,3.5l0.2-1.2l-1.2-0.2l-0.4,3c0,0.3,0.2,0.6,0.5,0.7c0,0,0.1,0,0.1,0
				c0,0,0.1,0,0.1,0l3-0.4l-0.2-1.2L9.6,30.7z"/>
		</g>
	</g>
	<g>
		<g>
			<path class="st0" d="M33.4,6c-0.1-0.1-0.3-0.2-0.5-0.2l-3,0.4l0.2,1.2l1.2-0.2l-3.5,3.5l0.9,0.9l3.5-3.5L32,9.4l1.2,0.2l0.4-3
				C33.6,6.4,33.6,6.2,33.4,6z"/>
		</g>
	</g>
	<g>
		<g>
			
				<rect x="13.3" y="24.9" transform="matrix(0.7071 -0.7071 0.7071 0.7071 -13.9753 17.3463)" class="st0" width="1.2" height="1.2"/>
		</g>
	</g>
	<g>
		<g>
			
				<rect x="26.3" y="11.9" transform="matrix(0.7071 -0.7071 0.7071 0.7071 -0.975 22.7299)" class="st0" width="1.2" height="1.2"/>
		</g>
	</g>
</g>
</svg>
