<?xml version="1.0" encoding="utf-8"?>
<!-- Generator: Adobe Illustrator 21.0.0, SVG Export Plug-In . SVG Version: 6.00 Build 0)  -->
<svg version="1.1" id="Layer_1" xmlns="http://www.w3.org/2000/svg" xmlns:xlink="http://www.w3.org/1999/xlink" x="0px" y="0px"
	 viewBox="0 0 40.9 38.1" style="enable-background:new 0 0 40.9 38.1;" xml:space="preserve">
<style type="text/css">
	.st0{fill:#D1AE6C;}
</style>
<g>
	<path class="st0" d="M10.2,11.6c0.8,0,1.5-0.7,1.5-1.5V7.3c0-1.6,1.3-2.9,2.8-2.9c1.6,0,2.8,1.3,2.8,2.9v2.8c0,0.8,0.7,1.5,1.5,1.5
		c0.8,0,1.5-0.7,1.5-1.5V7.4c0-3.3-2.6-6-5.9-6.1l0,0l0,0c-3.2,0-5.9,2.8-5.9,6.1v2.7C8.7,10.9,9.4,11.6,10.2,11.6z M9.7,7.4
		c0-2.7,2.2-5,4.9-5c2.7,0,4.9,2.3,4.9,5v2.7c0,0.3-0.2,0.5-0.5,0.5c-0.3,0-0.5-0.2-0.5-0.5V7.3c0-2.1-1.7-3.9-3.8-3.9l-0.1,0v0
		c-2.1,0.1-3.8,1.8-3.8,3.9v2.8c0,0.3-0.2,0.5-0.5,0.5s-0.5-0.2-0.5-0.5V7.4z"/>
	<path class="st0" d="M30.2,24.2c-0.7,0-1.3,0.6-1.3,1.3v1c0,0.6-0.2,1.1-0.7,1.6c-0.4,0.4-1,0.6-1.6,0.6c-1.2,0-2.1-1-2.1-2.2v-0.9
		c0-0.7-0.6-1.3-1.3-1.3s-1.3,0.6-1.3,1.3v1c0,1.3,0.5,2.5,1.4,3.4c0.9,0.9,2.1,1.4,3.4,1.4c0,0,0.1,0,0.1,0c2.6,0,4.7-2.2,4.7-4.9
		v-0.9C31.5,24.8,30.9,24.2,30.2,24.2z M30.5,26.4c0,2.1-1.7,3.8-3.7,3.8c-1,0-2-0.4-2.7-1.1c-0.7-0.7-1.1-1.7-1.1-2.7v-1
		c0-0.2,0.1-0.3,0.3-0.3c0.2,0,0.3,0.1,0.3,0.3v0.9c0,1.8,1.4,3.2,3.1,3.3c0.9,0,1.7-0.3,2.3-0.9c0.6-0.6,1-1.4,1-2.3v-1
		c0-0.2,0.1-0.3,0.3-0.3s0.3,0.1,0.3,0.3V26.4z"/>
	<path class="st0" d="M36.7,22.3h-20l-1.5,12.9l1.4,1.5h20.2l1.4-1.5L36.7,22.3z M36.3,35.7H17.1l-0.8-0.8l1.3-11.6h18.1l1.3,11.6
		L36.3,35.7z"/>
	<path class="st0" d="M19.3,17.3h0.4v-1h-9.2l-0.3-1.1H7.7v1h1.9l1.8,6.8h0.2c-0.1,0.2-0.1,0.3-0.1,0.5c0,0.8,0.7,1.5,1.5,1.5
		c0.8,0,1.5-0.7,1.5-1.5c0-0.2,0-0.3-0.1-0.5h1.4v-1h-3.7L12,21.5h6.2L19.3,17.3z M13,23c0.3,0,0.5,0.2,0.5,0.5
		c0,0.3-0.2,0.5-0.5,0.5c-0.3,0-0.5-0.2-0.5-0.5C12.5,23.2,12.8,23,13,23z M12.9,20.5h-1.1l-0.3-1.1h1.4V20.5z M12.9,18.4h-1.7
		l-0.3-1.1h2V18.4z M15.3,20.5h-1.3v-1.1h1.3V20.5z M15.3,18.4h-1.3v-1.1h1.3V18.4z M17.4,20.5h-1.1v-1.1h1.4L17.4,20.5z M16.3,18.4
		v-1.1h2L18,18.4H16.3z"/>
	<path class="st0" d="M4.7,35.6c-0.3-0.3-0.6-0.6-0.9-0.9l0-0.2h7.6v-1H3.8l1-25.2h3v-1h-4l-1.1,28l0.2,0.2c0.4,0.4,0.7,0.7,1.1,1.1
		l0.4,0.4H15v-1H4.8L4.7,35.6z"/>
	<path class="st0" d="M12.6,7.1h3.9v1h-3.9V7.1z"/>
	<path class="st0" d="M25,21.4l1,0L25.5,7.1h-4.2v1h3.2L25,21.4z"/>
	<path class="st0" d="M23.2,20.9l-0.3-8l1,0l0.3,8L23.2,20.9z M22.9,12.2l0-1l1,0l0,1L22.9,12.2z M22.8,10.5l0-1l1,0l0,1L22.8,10.5z
		"/>
	<path class="st0" d="M35.2,34.5l-0.7-6.4l1-0.1l0.7,6.4L35.2,34.5z M34.4,27.4l-0.1-1l1-0.1l0.1,1L34.4,27.4z M34.2,25.7l-0.1-1
		l1-0.1l0.1,1L34.2,25.7z"/>
</g>
</svg>
