<?xml version="1.0" encoding="utf-8"?>
<!-- Generator: Adobe Illustrator 21.0.0, SVG Export Plug-In . SVG Version: 6.00 Build 0)  -->
<svg version="1.1" id="Layer_1" xmlns="http://www.w3.org/2000/svg" xmlns:xlink="http://www.w3.org/1999/xlink" x="0px" y="0px"
	 viewBox="0 0 40.9 38.1" style="enable-background:new 0 0 40.9 38.1;" xml:space="preserve">
<style type="text/css">
	.st0{fill:#D1AE6C;}
</style>
<g>
	<path class="st0" d="M18.5,19.7c0-4.6-3.7-8.2-8.2-8.2s-8.2,3.7-8.2,8.2c0,4,6.4,11.6,8.2,13.6C12.1,31.3,18.5,23.7,18.5,19.7z
		 M4,19.7c0-3.5,2.8-6.3,6.3-6.3s6.3,2.8,6.3,6.3S13.8,26,10.3,26C6.8,26,4,23.2,4,19.7z"/>
	<path class="st0" d="M15.4,19.7c0,2.8-2.3,5.1-5.1,5.1s-5.1-2.3-5.1-5.1s2.3-5.1,5.1-5.1S15.4,16.9,15.4,19.7z"/>
	<path class="st0" d="M35,5.1C35,6.1,34.2,7,33.1,7c-1.1,0-1.9-0.9-1.9-1.9s0.9-1.9,1.9-1.9C34.2,3.2,35,4,35,5.1z"/>
	<path class="st0" d="M37.6,5.1c0-2.5-2-4.4-4.4-4.4s-4.4,2-4.4,4.4c0,1.9,2.9,5.2,4.4,6.7C34.7,10.3,37.6,7,37.6,5.1z M30,5.1
		c0-1.8,1.4-3.2,3.2-3.2c1.8,0,3.2,1.4,3.2,3.2s-1.4,3.2-3.2,3.2C31.4,8.3,30,6.8,30,5.1z"/>
	<path class="st0" d="M36.3,32.4H21.1c-1.1,0-1.9-0.9-1.9-1.9c0-1.1,0.9-1.9,1.9-1.9h14c2.1,0,3.8-1.7,3.8-3.8S37.1,21,35,21H24.9
		c-1.4,0-2.5-1.1-2.5-2.5s1.1-2.5,2.5-2.5h8.2v-1.3h-8.2c-2.1,0-3.8,1.7-3.8,3.8s1.7,3.8,3.8,3.8H35c1.4,0,2.5,1.1,2.5,2.5
		s-1.1,2.5-2.5,2.5h-14c-1.8,0-3.2,1.4-3.2,3.2c0,1.8,1.4,3.2,3.2,3.2h15.2c0.7,0,1.3,0.6,1.3,1.3c0,0.7-0.6,1.3-1.3,1.3h-26v1.3h26
		c1.4,0,2.5-1.1,2.5-2.5C38.8,33.5,37.7,32.4,36.3,32.4z"/>
</g>
</svg>
