<?xml version="1.0" encoding="utf-8"?>
<!-- Generator: Adobe Illustrator 21.0.0, SVG Export Plug-In . SVG Version: 6.00 Build 0)  -->
<svg version="1.1" id="Layer_1" xmlns="http://www.w3.org/2000/svg" xmlns:xlink="http://www.w3.org/1999/xlink" x="0px" y="0px"
	 viewBox="0 0 330 346" style="enable-background:new 0 0 330 346;" xml:space="preserve">
<style type="text/css">
	.st0{fill:#D1AA67;}
	.st1{fill:#A6A8AB;}
	.st2{fill:#FFFFFF;}
	.st3{fill:none;stroke:#A6A8AB;stroke-width:5;stroke-miterlimit:10;}
</style>
<g>
	<g>
		<path id="Shape_19_" class="st0" d="M172.5,105l-1.6,8.2c-1.6,0.5-3.1,1.2-4.6,1.9l-7-4.7c-2.2-1.4-5.1-1.1-6.9,0.7l-4.6,4.6
			c-1.9,1.8-2.2,4.8-0.7,7l4.6,6.9c-0.8,1.5-1.4,3-1.9,4.6l-8.2,1.6c-2.6,0.5-4.4,2.8-4.4,5.4v6.5c0,2.6,1.8,4.9,4.4,5.4l8.2,1.6
			c0.5,1.6,1.2,3.1,1.9,4.6l-4.7,7c-1.4,2.2-1.1,5.1,0.7,6.9l4.6,4.6c1.9,1.9,4.8,2.2,7,0.7l6.9-4.6c1.5,0.8,3,1.4,4.6,1.9l1.6,8.2
			c0.5,2.6,2.8,4.4,5.4,4.4h6.5c2.6,0,4.9-1.8,5.4-4.4l1.6-8.2c1.6-0.5,3.1-1.2,4.6-1.9l7,4.7c2.2,1.4,5.1,1.1,6.9-0.7l4.6-4.6
			c1.9-1.8,2.2-4.8,0.7-7l-4.6-6.9c0.8-1.5,1.4-3,1.9-4.6l8.2-1.6c1.6-0.3,3-1.4,3.8-2.9l4.1,2.8c0.8,0.5,1.7,0.8,2.7,0.8
			c1.3,0,2.6-0.5,3.5-1.5l3.7-3.7c1.7-1.7,1.9-4.3,0.6-6.2l-3.5-5.3c0.5-1,1-2.1,1.3-3.2l6.2-1.2c2.3-0.5,4-2.5,4-4.9v-5.2
			c0-2.4-1.7-4.4-4-4.9l-6.2-1.2c-0.4-1.1-0.8-2.2-1.3-3.2l3.6-5.4c1.2-2,1-4.5-0.7-6.2l-3.7-3.7c-1.7-1.7-4.3-1.9-6.2-0.6l-5.3,3.5
			c-1-0.5-2.1-1-3.2-1.3l-1.2-6.2c-0.5-2.3-2.5-4-4.9-4h-5.2c-2.4,0-4.4,1.7-4.9,4l-1.2,6.2c-1.1,0.4-2.2,0.8-3.2,1.3l-5.4-3.6
			c-2-1.2-4.5-1-6.2,0.7l-2.5,2.5c-0.4-0.1-0.7-0.1-1.1-0.1h-6.5C175.2,100.6,173,102.4,172.5,105z M214.5,115.7l-1.3-1.3
			c4.8,0.6,8.6,4.3,9.3,9.1c0.8,4.7-1.6,9.4-5.9,11.6l-4.2-0.8c-0.5-1.6-1.2-3.1-1.9-4.6l4.7-7C216.6,120.5,216.3,117.6,214.5,115.7
			L214.5,115.7z M191.5,102.4l6.3,4.2c0.9,0.6,2,0.6,2.9,0.1c1.6-0.9,3.3-1.6,5-2.1c1-0.3,1.8-1.1,2-2.1l1.5-7.4h4.3l1.5,7.4
			c0.2,1,1,1.8,2,2.1c1.8,0.5,3.5,1.2,5,2.1c0.9,0.5,2.1,0.5,2.9-0.1l6.3-4.2l3.1,3.1l-4.2,6.3c-0.6,0.9-0.6,2-0.1,2.9
			c0.9,1.6,1.6,3.3,2.1,5c0.3,1,1.1,1.8,2.1,2l7.4,1.5v4.3l-7.4,1.5c-1,0.2-1.8,1-2.1,2c-0.5,1.8-1.2,3.5-2.1,5
			c-0.5,0.9-0.5,2.1,0.1,2.9l4.2,6.3l-3.1,3.1l-6.1-4.1v-2.8c0-1.6-0.7-3.1-1.9-4.2c4.8-4.7,6.4-11.8,3.8-18
			c-2.5-6.2-8.6-10.3-15.3-10.3c-1.7,0-3.3,0.3-4.9,0.8c-1.3-0.2-2.7,0.1-3.8,0.8l-6.9,4.6c-1.5-0.8-3-1.4-4.6-1.9l-1.6-8.2
			c0-0.2-0.1-0.4-0.2-0.6L191.5,102.4z M175.9,115.9l2-9.8h6.5l2,9.8c0.2,1,1,1.8,2,2.1c2.3,0.6,4.5,1.5,6.5,2.7
			c0.9,0.5,2,0.5,2.9-0.1l8.3-5.6l4.6,4.6L205,128c-0.6,0.9-0.6,2-0.1,2.9c1.2,2,2.1,4.2,2.7,6.5c0.3,1,1.1,1.8,2.1,2l9.8,2v6.5
			l-9.8,2c-1,0.2-1.8,1-2.1,2c-0.6,2.3-1.5,4.5-2.7,6.5c-0.5,0.9-0.5,2,0.1,2.9l5.6,8.3l-4.6,4.6l-8.3-5.6c-0.9-0.6-2-0.6-2.9-0.1
			c-2,1.2-4.2,2.1-6.5,2.7c-1,0.3-1.8,1.1-2,2.1l-2,9.8h-6.5l-2-9.8c-0.2-1-1-1.8-2-2.1c-2.3-0.6-4.5-1.5-6.5-2.7
			c-0.9-0.5-2-0.5-2.9,0.1l-8.3,5.6l-4.6-4.6l5.6-8.3c0.6-0.9,0.6-2,0.1-2.9c-1.2-2-2.1-4.2-2.7-6.5c-0.3-1-1.1-1.8-2.1-2l-9.8-2
			v-6.5l9.8-2c1-0.2,1.8-1,2.1-2c0.6-2.3,1.5-4.5,2.7-6.5c0.5-0.9,0.5-2-0.1-2.9l-5.6-8.3l4.6-4.6l8.3,5.6c0.9,0.6,2,0.6,2.9,0.1
			c2-1.2,4.2-2.1,6.5-2.7C174.9,117.7,175.7,116.9,175.9,115.9z"/>
		<path id="Shape_18_" class="st0" d="M181.1,163.8c10.6,0,19.2-8.6,19.2-19.2c0-10.6-8.6-19.2-19.2-19.2
			c-10.6,0-19.2,8.6-19.2,19.2C161.9,155.2,170.5,163.8,181.1,163.8z M181.1,130.8c7.6,0,13.7,6.2,13.7,13.7
			c0,7.6-6.2,13.7-13.7,13.7c-7.6,0-13.7-6.2-13.7-13.7C167.4,137,173.5,130.8,181.1,130.8z"/>
		<circle id="Oval_9_" class="st0" cx="181.1" cy="144.5" r="2.7"/>
	</g>
</g>
<g>
	<path id="Shape" class="st0" d="M11.4,214.5c1.9,1.3,3.8,2.4,5.8,3.4c2.4,1.2,6.5,3.3,6.8,4.8c0.4,1.9,0.1,3.9-0.7,5.7
		c-0.8,1.8-1.7,3.4-2.5,4.7c-2.1,3.6-5.5,9.7-0.3,14c1.2,1.1,3.3,2.8,5.2,4.2c-1.4,2.5-2.1,5.3-1.8,8.1c0.3,2.2,1.5,4.2,3.3,5.5
		c1.3,0.9,2.6,1.7,3.9,2.4c3.3,1.9,4.6,2.8,5.1,4.5c0.3,2.3,0.1,4.6-0.6,6.8c-0.3,1.5-0.7,2.9-0.9,4.4c-0.6,5.1,0.1,10.3,1.9,15.2
		c2.5,9,10.6,15.2,19.9,15.4c1.5,0,3.1-0.2,4.6-0.5c16.1-3.8,31.9-8.6,47.5-14.2c12.7,7.4,20.7,30.1,22.8,38.6
		c0.6,2.5,2.9,4.3,5.5,4.3l141.3-0.4c1.8,0,3.5-0.9,4.5-2.3c1.1-1.4,1.4-3.3,0.8-5c-1.4-3.8-3.3-7.4-5.7-10.7
		c-1.4-1.9-2.6-4-3.6-6.1c-2.5-5.2-4.7-10.5-6.4-16c-3.2-10.9-5.4-22-6.7-33.3c-2-16.8,0.6-33.9,7.4-49.4
		c4.2-8.6,9.3-16.7,15.3-24.2c3.4-4.6,6.9-9.3,10-14.2c5.4-8.4,9.3-17.7,11.6-27.4c0.6-3-1.2-6-4.2-6.7c-3-0.7-6,1.1-6.7,4.1
		c-2,8.5-5.4,16.6-10.1,23.9c-2.9,4.6-6.3,9.2-9.6,13.6c-6.5,8.1-12.1,17-16.6,26.4c-7.6,17.4-10.5,36.5-8.3,55.3
		c1.3,12,3.7,23.8,7.1,35.3c1.8,6.1,4.2,12,7,17.6c1.3,2.5,2.7,5,4.4,7.3l0.4,0.6l-127.7,0.4c-3.7-13.4-10.5-25.7-19.8-36l5.1-1.8
		c3.8-1.3,6.6-2.3,8.1-2.8c24.1-7.7,36.2-18.7,35.8-32.7c0-1.5-0.6-2.9-1.7-3.9c-1.1-1-2.5-1.6-4-1.5c-3.1,0.1-5.6,2.7-5.5,5.8
		c0.1,5.8-4.6,14.2-28,21.6c-1.5,0.5-4.5,1.5-8.4,2.9c-4.2,1.5-9.5,3.3-15.3,5.3h0c-15.8,5.8-32,10.7-48.4,14.6
		c-5.2,1-10.3-2.3-11.6-7.5c-1.2-3.2-1.7-6.6-1.4-10c0.2-1.1,0.4-2.3,0.7-3.5c1.2-3.9,1.4-8.1,0.6-12.1c-1.6-5.2-5.4-9.3-10.4-11.5
		l-1.2-0.7c0.6-1.2,1.3-2.4,2.2-3.5c0.9-1.2,1.4-2.7,1.2-4.2c-0.2-1.5-1-2.9-2.2-3.8c-1.3-1-4.5-3.4-6.9-5.3c0.3-0.5,0.6-1,0.9-1.5
		c0.9-1.6,1.9-3.4,2.9-5.4c1.8-3.9,2.3-8.3,1.5-12.6c-1.3-6.9-7.9-10.2-12.7-12.7c-1.6-0.8-3.2-1.7-4.6-2.7
		c-1.2-0.8-2.3-1.7-3.4-2.7c0-0.9,0.9-2.9,5.2-8.1c10.1-13,18.7-27,25.8-41.9c1.3-2.3,2.1-4.9,2.2-7.6c-0.6-5.7-3.6-10.8-8.3-14.1
		c-2.3-2.1-4.4-4.1-4.7-5.7c0.1-1.4,0.4-2.7,0.9-4c0.9-2.4,2-4.8,3-7.1c2.4-4.9,4.3-10,5.6-15.3c1.3-6.3,3-12.5,5.1-18.6
		c4.4-12.3,11.3-23.5,20.2-33c10.8-11.4,27.7-19.5,50.5-24c17.4-3.8,35.1-6.4,52.8-7.6c6-0.3,12-0.2,17.9,0.4c2,0.2,4-0.7,5.1-2.4
		c1.2-1.6,1.4-3.8,0.5-5.6c-0.8-1.8-2.6-3.1-4.6-3.3c-6.5-0.6-13-0.7-19.6-0.4c-18.3,1.3-36.5,3.9-54.5,7.8
		c-25.4,5.1-43.8,14-56.4,27.3c-9.9,10.6-17.6,23.2-22.6,36.8c-2.3,6.7-4.1,13.5-5.5,20.3c-1.2,4.4-2.8,8.7-4.8,12.8
		c-1.1,2.6-2.3,5.1-3.3,7.8c-1.3,3-1.8,6.2-1.5,9.5c1.2,5,4.1,9.5,8.2,12.5c2.8,2.5,4.6,4.3,4.6,5.9c-0.2,0.9-0.5,1.7-1,2.4
		c-6.7,14.2-15,27.6-24.6,40c-4.1,5-8.4,10.8-7.5,16.6C4.4,208.5,7.4,212.3,11.4,214.5z"/>
	<path id="Shape_1_" class="st0" d="M70.3,87.8c3.4-9.4,8.6-18,15.4-25.3c7.5-7.9,20.5-13.8,38.6-17.4c3.1-0.6,5-3.6,4.4-6.6
		c-0.6-3.1-3.6-5-6.6-4.4c-20.4,4.1-35.4,11-44.6,20.7C69.8,63.2,63.7,73.1,59.8,84c-1.9,5.6-3.4,11.4-4.6,17.2l11,2.4
		C67.2,98.2,68.6,93,70.3,87.8z"/>
	<circle id="Oval_1_" class="st0" cx="53.8" cy="122.2" r="5.6"/>
</g>
<path class="st1" d="M124.3,204.4h-58c-6.6,0-12-5.4-12-12v-0.2c0-6.6,5.4-12,12-12h58c6.6,0,12,5.4,12,12v0.2
	C136.3,199,130.9,204.4,124.3,204.4z"/>
<path class="st1" d="M180.6,70.3h-37.4c-6.6,0-12-5.4-12-12v-0.2c0-6.6,5.4-12,12-12h37.4c6.6,0,12,5.4,12,12v0.2
	C192.6,64.9,187.2,70.3,180.6,70.3z"/>
<g>
	<path class="st2" d="M142.1,62.2h-2.5l4.5-9.6h2l4.5,9.6H148l-3.2-7.5h0.6L142.1,62.2z M141.6,60.2l1-1.9h4.7l1,1.9H141.6z"/>
	<path class="st2" d="M153.5,62.3c-1.4,0-2.4-0.3-3.2-0.8l0.6-1.7c0.4,0.3,0.8,0.4,1.3,0.6c0.5,0.1,0.9,0.2,1.4,0.2
		c0.3,0,0.5,0,0.6-0.1c0.2-0.1,0.2-0.2,0.2-0.3c0-0.1-0.1-0.2-0.2-0.3c-0.1-0.1-0.3-0.1-0.6-0.2l-1.1-0.3c-0.7-0.1-1.2-0.4-1.5-0.7
		c-0.3-0.3-0.5-0.7-0.5-1.3c0-0.4,0.1-0.8,0.4-1.2s0.6-0.6,1.1-0.8c0.5-0.2,1-0.3,1.6-0.3c0.5,0,1,0.1,1.5,0.2
		c0.5,0.1,0.9,0.3,1.3,0.6l-0.6,1.6c-0.4-0.2-0.7-0.4-1.1-0.5s-0.7-0.2-1.1-0.2c-0.3,0-0.5,0-0.6,0.1c-0.2,0.1-0.2,0.2-0.2,0.4
		c0,0.1,0,0.2,0.1,0.2c0.1,0.1,0.3,0.1,0.5,0.2l1.1,0.3c0.7,0.2,1.2,0.4,1.6,0.7c0.3,0.3,0.5,0.8,0.5,1.3c0,0.7-0.3,1.2-0.8,1.6
		C155.2,62.1,154.5,62.3,153.5,62.3z"/>
	<path class="st2" d="M160.3,62.3c-1.4,0-2.4-0.3-3.2-0.8l0.6-1.7c0.4,0.3,0.8,0.4,1.3,0.6c0.5,0.1,0.9,0.2,1.4,0.2
		c0.3,0,0.5,0,0.6-0.1c0.2-0.1,0.2-0.2,0.2-0.3c0-0.1-0.1-0.2-0.2-0.3c-0.1-0.1-0.3-0.1-0.6-0.2l-1.1-0.3c-0.7-0.1-1.2-0.4-1.5-0.7
		c-0.3-0.3-0.5-0.7-0.5-1.3c0-0.4,0.1-0.8,0.4-1.2s0.6-0.6,1.1-0.8c0.5-0.2,1-0.3,1.6-0.3c0.5,0,1,0.1,1.5,0.2
		c0.5,0.1,0.9,0.3,1.3,0.6l-0.6,1.6c-0.4-0.2-0.7-0.4-1.1-0.5s-0.7-0.2-1.1-0.2c-0.3,0-0.5,0-0.6,0.1c-0.2,0.1-0.2,0.2-0.2,0.4
		c0,0.1,0,0.2,0.1,0.2c0.1,0.1,0.3,0.1,0.5,0.2l1.1,0.3c0.7,0.2,1.2,0.4,1.6,0.7c0.3,0.3,0.5,0.8,0.5,1.3c0,0.7-0.3,1.2-0.8,1.6
		C162,62.1,161.3,62.3,160.3,62.3z"/>
	<path class="st2" d="M170.6,61.5c-0.3,0.3-0.8,0.5-1.2,0.6s-1,0.2-1.5,0.2c-0.8,0-1.5-0.1-2-0.4c-0.6-0.3-1-0.7-1.3-1.2
		c-0.3-0.5-0.5-1.2-0.5-1.9c0-0.7,0.1-1.3,0.4-1.9c0.3-0.5,0.7-1,1.2-1.3c0.5-0.3,1.1-0.5,1.8-0.5c0.7,0,1.2,0.1,1.7,0.4
		c0.5,0.3,0.8,0.7,1.1,1.2s0.4,1.2,0.4,1.9V59h-4.5l0-1.1h3l-0.6,0.4c0-0.5-0.1-0.8-0.3-1.1c-0.2-0.2-0.5-0.4-0.8-0.4
		c-0.4,0-0.7,0.1-0.9,0.4c-0.2,0.3-0.3,0.7-0.3,1.3c0,0.7,0.1,1.2,0.4,1.5c0.3,0.3,0.7,0.5,1.2,0.5c0.3,0,0.7-0.1,1-0.2
		c0.3-0.1,0.7-0.3,0.9-0.5L170.6,61.5z"/>
	<path class="st2" d="M171,57.1v-1.8h5.3v1.8H171z M176.3,60.2v1.8c-0.2,0.1-0.4,0.1-0.6,0.2s-0.4,0-0.6,0c-0.9,0-1.6-0.3-2.1-0.8
		c-0.5-0.5-0.7-1.2-0.7-2.1v-5.5l2.4-0.8v6.3c0,0.2,0,0.4,0.1,0.6c0.1,0.1,0.2,0.3,0.4,0.3c0.2,0.1,0.3,0.1,0.5,0.1
		c0.1,0,0.2,0,0.3,0C176.1,60.3,176.2,60.3,176.3,60.2z"/>
	<path class="st2" d="M180,62.3c-1.4,0-2.4-0.3-3.2-0.8l0.6-1.7c0.4,0.3,0.8,0.4,1.3,0.6c0.5,0.1,0.9,0.2,1.4,0.2
		c0.3,0,0.5,0,0.6-0.1c0.2-0.1,0.2-0.2,0.2-0.3c0-0.1-0.1-0.2-0.2-0.3c-0.1-0.1-0.3-0.1-0.6-0.2l-1.1-0.3c-0.7-0.1-1.2-0.4-1.5-0.7
		c-0.3-0.3-0.5-0.7-0.5-1.3c0-0.4,0.1-0.8,0.4-1.2s0.6-0.6,1.1-0.8c0.5-0.2,1-0.3,1.6-0.3c0.5,0,1,0.1,1.5,0.2
		c0.5,0.1,0.9,0.3,1.3,0.6l-0.6,1.6c-0.4-0.2-0.7-0.4-1.1-0.5s-0.7-0.2-1.1-0.2c-0.3,0-0.5,0-0.6,0.1c-0.2,0.1-0.2,0.2-0.2,0.4
		c0,0.1,0,0.2,0.1,0.2c0.1,0.1,0.3,0.1,0.5,0.2L181,58c0.7,0.2,1.2,0.4,1.6,0.7c0.3,0.3,0.5,0.8,0.5,1.3c0,0.7-0.3,1.2-0.8,1.6
		C181.7,62.1,180.9,62.3,180,62.3z"/>
</g>
<g>
	<path class="st2" d="M64,196.1v-9.6h2.5v7.5h4v2H64z"/>
	<path class="st2" d="M71.6,185.9h2.5v2.2h-2.5V185.9z M71.7,196.1v-6.8h2.4v6.8H71.7z"/>
	<path class="st2" d="M78.2,196.2c-0.6,0-1.1-0.1-1.6-0.4c-0.5-0.3-0.8-0.7-1.1-1.2s-0.4-1.1-0.4-1.9c0-0.7,0.1-1.3,0.4-1.9
		c0.3-0.5,0.6-1,1.1-1.3s1-0.5,1.6-0.5c0.5,0,1,0.1,1.4,0.4c0.4,0.3,0.7,0.6,0.9,1l-0.2,0.1v-1.3h2.4v6.8h-2.4v-1.2h0.2
		c-0.2,0.4-0.4,0.8-0.9,1C79.2,196.1,78.8,196.2,78.2,196.2z M79,194.4c0.4,0,0.8-0.1,1-0.4s0.4-0.7,0.4-1.3c0-0.6-0.1-1-0.3-1.3
		s-0.6-0.4-1-0.4c-0.4,0-0.8,0.2-1,0.5c-0.2,0.3-0.4,0.7-0.4,1.3c0,0.5,0.1,1,0.3,1.3S78.6,194.4,79,194.4z"/>
	<path class="st2" d="M84.2,196.1v-9.9h2.4v4.5l-0.2-0.3c0.1-0.4,0.4-0.7,0.8-1c0.4-0.3,0.9-0.4,1.4-0.4c0.6,0,1.1,0.1,1.6,0.4
		c0.5,0.3,0.8,0.7,1.1,1.2c0.3,0.5,0.4,1.2,0.4,1.9c0,0.7-0.1,1.3-0.4,1.9c-0.3,0.5-0.6,1-1.1,1.3c-0.5,0.3-1,0.5-1.6,0.5
		c-0.5,0-1-0.1-1.4-0.4c-0.4-0.2-0.7-0.6-0.8-1l0.1-0.3v1.6H84.2z M87.9,194.4c0.4,0,0.8-0.2,1-0.5c0.2-0.3,0.3-0.7,0.3-1.3
		c0-0.5-0.1-1-0.3-1.3c-0.2-0.3-0.6-0.4-1-0.4c-0.4,0-0.8,0.2-1,0.5c-0.2,0.3-0.3,0.7-0.3,1.3c0,0.6,0.1,1,0.3,1.3
		C87.2,194.3,87.5,194.4,87.9,194.4z"/>
	<path class="st2" d="M92.8,185.9h2.5v2.2h-2.5V185.9z M92.8,196.1v-6.8h2.4v6.8H92.8z"/>
	<path class="st2" d="M96.7,196.1v-9.9h2.4v9.9H96.7z"/>
	<path class="st2" d="M100.5,185.9h2.5v2.2h-2.5V185.9z M100.6,196.1v-6.8h2.4v6.8H100.6z"/>
	<path class="st2" d="M103.8,191.1v-1.8h5.3v1.8H103.8z M109.2,194.2v1.8c-0.2,0.1-0.4,0.1-0.6,0.2c-0.2,0-0.4,0-0.6,0
		c-0.9,0-1.6-0.3-2.1-0.8c-0.5-0.5-0.7-1.2-0.7-2.1v-5.5l2.4-0.8v6.3c0,0.2,0,0.4,0.1,0.6c0.1,0.1,0.2,0.3,0.4,0.3
		c0.2,0.1,0.3,0.1,0.5,0.1c0.1,0,0.2,0,0.3,0C108.9,194.2,109,194.2,109.2,194.2z"/>
	<path class="st2" d="M110,185.9h2.5v2.2H110V185.9z M110.1,196.1v-6.8h2.4v6.8H110.1z"/>
	<path class="st2" d="M120.1,195.4c-0.3,0.3-0.8,0.5-1.2,0.6s-1,0.2-1.5,0.2c-0.8,0-1.5-0.1-2-0.4c-0.6-0.3-1-0.7-1.3-1.2
		c-0.3-0.5-0.5-1.2-0.5-1.9c0-0.7,0.1-1.3,0.4-1.9c0.3-0.5,0.7-1,1.2-1.3c0.5-0.3,1.1-0.5,1.8-0.5c0.7,0,1.2,0.1,1.7,0.4
		c0.5,0.3,0.8,0.7,1.1,1.2c0.3,0.5,0.4,1.2,0.4,1.9v0.3h-4.5l0-1.1h3l-0.6,0.4c0-0.5-0.1-0.8-0.3-1.1s-0.5-0.4-0.8-0.4
		c-0.4,0-0.7,0.1-0.9,0.4c-0.2,0.3-0.3,0.7-0.3,1.3c0,0.7,0.1,1.2,0.4,1.5s0.7,0.5,1.2,0.5c0.3,0,0.7-0.1,1-0.2
		c0.3-0.1,0.7-0.3,0.9-0.5L120.1,195.4z"/>
	<path class="st2" d="M124.1,196.2c-1.4,0-2.4-0.3-3.2-0.8l0.6-1.7c0.4,0.3,0.8,0.4,1.3,0.6c0.5,0.1,0.9,0.2,1.4,0.2
		c0.3,0,0.5,0,0.6-0.1c0.2-0.1,0.2-0.2,0.2-0.3c0-0.1-0.1-0.2-0.2-0.3c-0.1-0.1-0.3-0.1-0.6-0.2l-1.1-0.3c-0.7-0.1-1.2-0.4-1.5-0.7
		c-0.3-0.3-0.5-0.7-0.5-1.3c0-0.4,0.1-0.8,0.4-1.2c0.3-0.3,0.6-0.6,1.1-0.8c0.5-0.2,1-0.3,1.6-0.3c0.5,0,1,0.1,1.5,0.2
		c0.5,0.1,0.9,0.3,1.3,0.6l-0.6,1.6c-0.4-0.2-0.7-0.4-1.1-0.5s-0.7-0.2-1.1-0.2c-0.3,0-0.5,0-0.6,0.1c-0.2,0.1-0.2,0.2-0.2,0.4
		c0,0.1,0,0.2,0.1,0.2c0.1,0.1,0.3,0.1,0.5,0.2l1.1,0.3c0.7,0.2,1.2,0.4,1.6,0.7c0.3,0.3,0.5,0.8,0.5,1.3c0,0.7-0.3,1.2-0.8,1.6
		C125.8,196,125.1,196.2,124.1,196.2z"/>
</g>
<path class="st1" d="M314.6,125.5h-37.7c-6.6,0-12-5.4-12-12v-0.2c0-6.6,5.4-12,12-12h37.7c6.6,0,12,5.4,12,12v0.2
	C326.6,120.1,321.2,125.5,314.6,125.5z"/>
<g>
	<path class="st2" d="M275,117.3v-9.6h6.8v1.9h-4.4v1.8h4.1v1.9h-4.1v2h4.4v1.9H275z"/>
	<path class="st2" d="M290.1,120.2h-2.4v-4.5l0.2,0.3c-0.2,0.4-0.4,0.8-0.9,1c-0.4,0.2-0.9,0.4-1.4,0.4c-0.6,0-1.1-0.1-1.6-0.4
		s-0.8-0.7-1.1-1.2c-0.3-0.5-0.4-1.1-0.4-1.9c0-0.7,0.1-1.3,0.4-1.9c0.3-0.5,0.6-1,1.1-1.3c0.5-0.3,1-0.5,1.6-0.5
		c0.5,0,1,0.1,1.4,0.4c0.4,0.3,0.7,0.6,0.9,1l-0.1,0.1l0.2-1.3h2.3c-0.1,0.3-0.1,0.6-0.1,1c0,0.3,0,0.7,0,1V120.2z M286.4,115.6
		c0.4,0,0.8-0.1,1-0.4s0.4-0.7,0.4-1.3c0-0.6-0.1-1-0.3-1.3c-0.2-0.3-0.6-0.4-1-0.4c-0.4,0-0.8,0.2-1,0.5c-0.2,0.3-0.4,0.7-0.4,1.3
		c0,0.5,0.1,1,0.3,1.3C285.6,115.4,286,115.6,286.4,115.6z"/>
	<path class="st2" d="M294.1,117.4c-0.9,0-1.5-0.2-1.9-0.7c-0.4-0.5-0.6-1.2-0.6-2.2v-4h2.4v4.1c0,0.3,0.1,0.6,0.2,0.8
		c0.1,0.2,0.4,0.2,0.7,0.2c0.3,0,0.6-0.1,0.8-0.4c0.2-0.2,0.3-0.6,0.3-1v-3.7h2.5v6.8h-2.4V116l0.2,0.1c-0.2,0.4-0.5,0.8-0.9,1
		C295,117.3,294.6,117.4,294.1,117.4z"/>
	<path class="st2" d="M299.8,107.1h2.5v2.2h-2.5V107.1z M299.9,117.3v-6.8h2.4v6.8H299.9z"/>
	<path class="st2" d="M303.1,112.3v-1.8h5.3v1.8H303.1z M308.5,115.4v1.8c-0.2,0.1-0.4,0.1-0.6,0.2s-0.4,0-0.6,0
		c-0.9,0-1.6-0.3-2.1-0.8c-0.5-0.5-0.7-1.2-0.7-2.1v-5.5l2.4-0.8v6.3c0,0.2,0,0.4,0.1,0.6c0.1,0.1,0.2,0.3,0.4,0.3
		c0.2,0.1,0.3,0.1,0.5,0.1c0.1,0,0.2,0,0.3,0C308.2,115.4,308.3,115.4,308.5,115.4z"/>
	<path class="st2" d="M311.8,117.9l-3.2-7.4h2.5l1.7,4.5L311.8,117.9z M309.6,120.4l-0.6-1.9c0.4-0.1,0.8-0.2,1-0.3
		c0.3-0.1,0.5-0.3,0.7-0.4s0.3-0.4,0.4-0.6l0.6-1.2l0.7-1l1.8-4.5h2.4l-3.1,7.1c-0.3,0.7-0.6,1.2-1,1.6c-0.4,0.4-0.8,0.7-1.3,0.9
		C310.7,120.2,310.2,120.3,309.6,120.4z"/>
</g>
<g>
	<g>
		<g>
			<path class="st1" d="M207,225.7l-1.5-0.5c-0.5-0.2-0.8-0.6-0.8-1.2c0-0.8,0.6-1.4,1.4-1.4s1.4,0.6,1.4,1.4h1.4
				c0-1.2-0.8-2.3-2.1-2.6V220h-1.4v1.5c-1.2,0.3-2,1.4-2.1,2.6c0,1.1,0.7,2.1,1.8,2.4l1.5,0.5c0.5,0.2,0.8,0.6,0.8,1.2
				c0,0.8-0.6,1.4-1.4,1.4s-1.4-0.6-1.4-1.4h-1.4c0,1.2,0.8,2.3,2.1,2.6v1.5h1.4v-1.5c1.2-0.3,2-1.4,2.1-2.6
				C208.8,227.1,208.1,226.1,207,225.7z"/>
		</g>
	</g>
	<g>
		<g>
			<path class="st1" d="M230.7,215.2h-13.8c-1.4-1.8-3.3-3.2-5.3-4.2v-3l2.5-1.8c0.2-0.1,0.3-0.3,0.3-0.5v-4.8
				c0-0.4-0.3-0.7-0.7-0.7h-2.7c-0.2,0-0.4,0.1-0.5,0.2l-0.9,0.9l-0.9-0.9c-0.1-0.1-0.3-0.2-0.5-0.2H204c-0.2,0-0.4,0.1-0.5,0.2
				l-0.9,0.9l-0.9-0.9c-0.1-0.1-0.3-0.2-0.5-0.2h-2.7c-0.4,0-0.7,0.3-0.7,0.7v4.8c0,0.2,0.1,0.4,0.3,0.5l2.5,1.8v3
				c-5.2,2.5-10.3,9.2-10.3,17.9c0,7.8,5.7,12.3,15.7,12.3c1.6,0,3.2-0.1,4.8-0.4c0.1,0.3,0.4,0.4,0.6,0.4h19.1
				c0.4,0,0.7-0.3,0.7-0.7v-24.6C231.3,215.5,231,215.2,230.7,215.2z M199.2,205.3v-3.8h1.8l1.2,1.2c0.3,0.3,0.7,0.3,1,0l1.2-1.2
				h3.5l1.2,1.2c0.3,0.3,0.7,0.3,1,0l1.2-1.2h1.8v3.8l-2.3,1.7h-9.1L199.2,205.3z M210.1,208.4v2.1h-8.2v-2.1H210.1z M210.8,231.9
				c-3.2,2.6-7.9,2.2-10.6-1c-2.6-3.2-2.2-7.9,1-10.6c2.8-2.3,6.8-2.3,9.6,0L210.8,231.9L210.8,231.9z M210.8,215.9v2.8
				c-4.1-2.7-9.6-1.4-12.3,2.7s-1.4,9.6,2.7,12.3c2.9,1.9,6.7,1.9,9.6,0v5.8c-1.6,0.3-3.2,0.5-4.8,0.4c-4.3,0-14.4-1.1-14.4-11
				c0-6.5,3.9-14.7,10.5-17.1h7.8c1.9,0.7,3.7,1.9,5.1,3.4h-3.5C211.1,215.2,210.8,215.5,210.8,215.9z M230,239.8h-17.8V222H230
				V239.8z M230,220.7h-17.8v-4.1H230V220.7z"/>
		</g>
	</g>
	<g>
		<g>
			<path class="st1" d="M217,223.4h-2.7c-0.4,0-0.7,0.3-0.7,0.7v2.7c0,0.4,0.3,0.7,0.7,0.7h2.7c0.4,0,0.7-0.3,0.7-0.7v-2.7
				C217.7,223.7,217.4,223.4,217,223.4z M216.3,226.1h-1.4v-1.4h1.4V226.1z"/>
		</g>
	</g>
	<g>
		<g>
			<path class="st1" d="M222.5,223.4h-2.7c-0.4,0-0.7,0.3-0.7,0.7v2.7c0,0.4,0.3,0.7,0.7,0.7h2.7c0.4,0,0.7-0.3,0.7-0.7v-2.7
				C223.1,223.7,222.8,223.4,222.5,223.4z M221.8,226.1h-1.4v-1.4h1.4V226.1z"/>
		</g>
	</g>
	<g>
		<g>
			<path class="st1" d="M227.9,223.4h-2.7c-0.4,0-0.7,0.3-0.7,0.7v2.7c0,0.4,0.3,0.7,0.7,0.7h2.7c0.4,0,0.7-0.3,0.7-0.7v-2.7
				C228.6,223.7,228.3,223.4,227.9,223.4z M227.2,226.1h-1.4v-1.4h1.4V226.1z"/>
		</g>
	</g>
	<g>
		<g>
			<path class="st1" d="M217,228.9h-2.7c-0.4,0-0.7,0.3-0.7,0.7v2.7c0,0.4,0.3,0.7,0.7,0.7h2.7c0.4,0,0.7-0.3,0.7-0.7v-2.7
				C217.7,229.2,217.4,228.9,217,228.9z M216.3,231.6h-1.4v-1.4h1.4V231.6z"/>
		</g>
	</g>
	<g>
		<g>
			<path class="st1" d="M222.5,228.9h-2.7c-0.4,0-0.7,0.3-0.7,0.7v2.7c0,0.4,0.3,0.7,0.7,0.7h2.7c0.4,0,0.7-0.3,0.7-0.7v-2.7
				C223.1,229.2,222.8,228.9,222.5,228.9z M221.8,231.6h-1.4v-1.4h1.4V231.6z"/>
		</g>
	</g>
	<g>
		<g>
			<path class="st1" d="M217,234.3h-2.7c-0.4,0-0.7,0.3-0.7,0.7v2.7c0,0.4,0.3,0.7,0.7,0.7h2.7c0.4,0,0.7-0.3,0.7-0.7V235
				C217.7,234.6,217.4,234.3,217,234.3z M216.3,237.1h-1.4v-1.4h1.4V237.1z"/>
		</g>
	</g>
	<g>
		<g>
			<path class="st1" d="M222.5,234.3h-2.7c-0.4,0-0.7,0.3-0.7,0.7v2.7c0,0.4,0.3,0.7,0.7,0.7h2.7c0.4,0,0.7-0.3,0.7-0.7V235
				C223.1,234.6,222.8,234.3,222.5,234.3z M221.8,237.1h-1.4v-1.4h1.4V237.1z"/>
		</g>
	</g>
	<g>
		<g>
			<path class="st1" d="M227.9,228.9h-2.7c-0.4,0-0.7,0.3-0.7,0.7v8.2c0,0.4,0.3,0.7,0.7,0.7h2.7c0.4,0,0.7-0.3,0.7-0.7v-8.2
				C228.6,229.2,228.3,228.9,227.9,228.9z M227.2,237.1h-1.4v-6.8h1.4V237.1z"/>
		</g>
	</g>
	<g>
		<g>
			<rect x="227.2" y="217.9" class="st1" width="1.4" height="1.4"/>
		</g>
	</g>
	<g>
		<g>
			<rect x="224.5" y="217.9" class="st1" width="1.4" height="1.4"/>
		</g>
	</g>
	<g>
		<g>
			<rect x="221.8" y="217.9" class="st1" width="1.4" height="1.4"/>
		</g>
	</g>
</g>
<g>
	<path class="st1" d="M194.8,252.4c-0.9,0-1.6-0.2-2.2-0.5c-0.6-0.3-1.1-0.8-1.5-1.5c-0.3-0.6-0.5-1.4-0.5-2.2
		c0-0.8,0.2-1.6,0.5-2.2c0.3-0.6,0.8-1.1,1.5-1.5c0.6-0.3,1.4-0.5,2.2-0.5c0.5,0,1.1,0.1,1.6,0.2c0.5,0.2,0.9,0.4,1.2,0.7l-0.7,1.5
		c-0.4-0.3-0.7-0.4-1-0.6c-0.3-0.1-0.7-0.2-1-0.2c-0.7,0-1.2,0.2-1.5,0.6s-0.5,1-0.5,1.9s0.2,1.5,0.5,1.9c0.4,0.4,0.9,0.6,1.5,0.6
		c0.4,0,0.7-0.1,1-0.2c0.3-0.1,0.7-0.3,1-0.6l0.7,1.5c-0.3,0.3-0.7,0.5-1.2,0.7C195.9,252.4,195.3,252.4,194.8,252.4z"/>
	<path class="st1" d="M200.8,252.4c-0.5,0-0.9-0.1-1.3-0.4c-0.4-0.2-0.7-0.6-0.9-1c-0.2-0.5-0.3-1-0.3-1.6c0-0.6,0.1-1.2,0.3-1.6
		c0.2-0.5,0.5-0.8,0.9-1.1c0.4-0.3,0.8-0.4,1.3-0.4c0.4,0,0.8,0.1,1.2,0.3s0.6,0.5,0.7,0.9l-0.1,0.1v-1.1h2.1v5.9h-2.1v-1.1h0.1
		c-0.1,0.4-0.4,0.6-0.7,0.9C201.6,252.3,201.2,252.4,200.8,252.4z M201.4,250.9c0.4,0,0.6-0.1,0.8-0.4c0.2-0.3,0.3-0.6,0.3-1.1
		c0-0.5-0.1-0.9-0.3-1.1c-0.2-0.3-0.5-0.4-0.9-0.4c-0.4,0-0.6,0.1-0.9,0.4c-0.2,0.3-0.3,0.6-0.3,1.1c0,0.5,0.1,0.8,0.3,1.1
		C200.8,250.7,201.1,250.9,201.4,250.9z"/>
	<path class="st1" d="M205.9,254.8v-6.7c0-0.3,0-0.6,0-0.8s0-0.6-0.1-0.8h2l0.1,1.1l-0.1-0.1c0.1-0.4,0.4-0.6,0.7-0.9
		s0.8-0.3,1.2-0.3c0.5,0,1,0.1,1.3,0.4c0.4,0.3,0.7,0.6,0.9,1.1c0.2,0.5,0.3,1,0.3,1.6c0,0.6-0.1,1.1-0.3,1.6
		c-0.2,0.5-0.5,0.8-0.9,1c-0.4,0.2-0.8,0.4-1.3,0.4c-0.5,0-0.9-0.1-1.2-0.3c-0.4-0.2-0.6-0.5-0.7-0.9l0.2-0.3v3.8H205.9z
		 M209.1,250.9c0.4,0,0.7-0.1,0.9-0.4c0.2-0.3,0.3-0.6,0.3-1.1c0-0.5-0.1-0.9-0.3-1.1c-0.2-0.3-0.5-0.4-0.8-0.4
		c-0.4,0-0.7,0.1-0.9,0.4s-0.3,0.6-0.3,1.1c0,0.5,0.1,0.8,0.3,1.1S208.7,250.9,209.1,250.9z"/>
	<path class="st1" d="M213.3,243.6h2.2v1.9h-2.2V243.6z M213.3,252.3v-5.9h2.1v5.9H213.3z"/>
	<path class="st1" d="M216.1,248v-1.5h4.6v1.5H216.1z M220.7,250.7v1.6c-0.2,0.1-0.4,0.1-0.5,0.1s-0.4,0-0.6,0
		c-0.8,0-1.4-0.2-1.8-0.7c-0.4-0.5-0.6-1.1-0.6-1.8v-4.8l2.1-0.7v5.4c0,0.2,0,0.4,0.1,0.5c0.1,0.1,0.2,0.2,0.3,0.3s0.3,0.1,0.4,0.1
		c0.1,0,0.2,0,0.2,0C220.5,250.7,220.6,250.7,220.7,250.7z"/>
	<path class="st1" d="M223.8,252.4c-0.5,0-0.9-0.1-1.3-0.4c-0.4-0.2-0.7-0.6-0.9-1c-0.2-0.5-0.3-1-0.3-1.6c0-0.6,0.1-1.2,0.3-1.6
		c0.2-0.5,0.5-0.8,0.9-1.1c0.4-0.3,0.8-0.4,1.3-0.4c0.4,0,0.8,0.1,1.2,0.3s0.6,0.5,0.7,0.9l-0.1,0.1v-1.1h2.1v5.9h-2.1v-1.1h0.1
		c-0.1,0.4-0.4,0.6-0.7,0.9C224.6,252.3,224.2,252.4,223.8,252.4z M224.4,250.9c0.4,0,0.6-0.1,0.8-0.4c0.2-0.3,0.3-0.6,0.3-1.1
		c0-0.5-0.1-0.9-0.3-1.1c-0.2-0.3-0.5-0.4-0.9-0.4c-0.4,0-0.6,0.1-0.9,0.4c-0.2,0.3-0.3,0.6-0.3,1.1c0,0.5,0.1,0.8,0.3,1.1
		C223.8,250.7,224,250.9,224.4,250.9z"/>
	<path class="st1" d="M228.9,252.3v-8.5h2.1v8.5H228.9z"/>
</g>
<g>
	<path class="st1" d="M234.1,58.3v-8.2h5.7v1.7h-3.6v1.5h3.4V55h-3.4v3.3H234.1z"/>
	<path class="st1" d="M240.6,49.6h2.2v1.9h-2.2V49.6z M240.7,58.3v-5.9h2.1v5.9H240.7z"/>
	<path class="st1" d="M244,58.3v-4.2c0-0.3,0-0.6,0-0.8c0-0.3,0-0.6-0.1-0.8h2l0.1,1.1l-0.1-0.1c0.2-0.4,0.5-0.7,0.8-0.9
		s0.8-0.3,1.2-0.3c1.4,0,2.1,0.8,2.1,2.5v3.5h-2.1v-3.4c0-0.4-0.1-0.6-0.2-0.8c-0.1-0.2-0.3-0.2-0.6-0.2c-0.3,0-0.6,0.1-0.8,0.3
		s-0.3,0.5-0.3,0.8v3.3H244z"/>
	<path class="st1" d="M253.5,58.4c-0.5,0-0.9-0.1-1.3-0.4c-0.4-0.2-0.7-0.6-0.9-1c-0.2-0.5-0.3-1-0.3-1.6c0-0.6,0.1-1.2,0.3-1.6
		c0.2-0.5,0.5-0.8,0.9-1.1c0.4-0.3,0.8-0.4,1.3-0.4c0.4,0,0.8,0.1,1.2,0.3s0.6,0.5,0.7,0.9l-0.1,0.1v-1.1h2.1v5.9h-2.1v-1.1h0.1
		c-0.1,0.4-0.4,0.6-0.7,0.9S254,58.4,253.5,58.4z M254.2,56.9c0.4,0,0.6-0.1,0.8-0.4c0.2-0.3,0.3-0.6,0.3-1.1c0-0.5-0.1-0.9-0.3-1.1
		c-0.2-0.3-0.5-0.4-0.9-0.4c-0.4,0-0.6,0.1-0.9,0.4c-0.2,0.3-0.3,0.6-0.3,1.1c0,0.5,0.1,0.8,0.3,1.1
		C253.5,56.7,253.8,56.9,254.2,56.9z"/>
	<path class="st1" d="M261.5,58.4c-0.7,0-1.2-0.1-1.7-0.4c-0.5-0.2-0.8-0.6-1.1-1c-0.3-0.5-0.4-1-0.4-1.6c0-0.6,0.1-1.2,0.4-1.6
		c0.3-0.5,0.7-0.8,1.1-1.1c0.5-0.3,1.1-0.4,1.7-0.4c0.4,0,0.9,0.1,1.3,0.2s0.7,0.3,1,0.5l-0.5,1.4c-0.2-0.2-0.5-0.3-0.7-0.4
		c-0.3-0.1-0.5-0.1-0.8-0.1c-0.4,0-0.7,0.1-1,0.4s-0.4,0.6-0.4,1.1c0,0.5,0.1,0.9,0.4,1.1c0.2,0.2,0.6,0.4,1,0.4
		c0.2,0,0.5,0,0.8-0.1c0.3-0.1,0.5-0.2,0.7-0.4l0.5,1.4c-0.3,0.2-0.6,0.4-1,0.5S262,58.4,261.5,58.4z"/>
	<path class="st1" d="M264.5,49.6h2.2v1.9h-2.2V49.6z M264.6,58.3v-5.9h2.1v5.9H264.6z"/>
	<path class="st1" d="M270.2,58.4c-0.5,0-0.9-0.1-1.3-0.4c-0.4-0.2-0.7-0.6-0.9-1c-0.2-0.5-0.3-1-0.3-1.6c0-0.6,0.1-1.2,0.3-1.6
		c0.2-0.5,0.5-0.8,0.9-1.1c0.4-0.3,0.8-0.4,1.3-0.4c0.4,0,0.8,0.1,1.2,0.3s0.6,0.5,0.7,0.9l-0.1,0.1v-1.1h2.1v5.9H272v-1.1h0.1
		c-0.1,0.4-0.4,0.6-0.7,0.9S270.7,58.4,270.2,58.4z M270.9,56.9c0.4,0,0.6-0.1,0.8-0.4c0.2-0.3,0.3-0.6,0.3-1.1
		c0-0.5-0.1-0.9-0.3-1.1c-0.2-0.3-0.5-0.4-0.9-0.4c-0.4,0-0.6,0.1-0.9,0.4c-0.2,0.3-0.3,0.6-0.3,1.1c0,0.5,0.1,0.8,0.3,1.1
		C270.2,56.7,270.5,56.9,270.9,56.9z"/>
	<path class="st1" d="M275.3,58.3v-8.5h2.1v8.5H275.3z"/>
	<path class="st1" d="M228.1,68c-0.4,0-0.8,0-1.2-0.1c-0.4-0.1-0.8-0.2-1.1-0.3c-0.4-0.1-0.7-0.3-0.9-0.5l0.7-1.5
		c0.4,0.3,0.8,0.5,1.3,0.6c0.5,0.1,0.9,0.2,1.4,0.2c0.5,0,0.8-0.1,1.1-0.2c0.2-0.1,0.4-0.3,0.4-0.5c0-0.1,0-0.2-0.1-0.4
		c-0.1-0.1-0.2-0.2-0.5-0.3s-0.6-0.2-1-0.3c-0.6-0.1-1.1-0.3-1.5-0.4c-0.4-0.2-0.7-0.3-0.9-0.5s-0.4-0.4-0.5-0.7
		c-0.1-0.3-0.1-0.5-0.1-0.9c0-0.5,0.1-0.9,0.4-1.3c0.3-0.4,0.7-0.7,1.2-0.9c0.5-0.2,1.1-0.3,1.8-0.3c0.4,0,0.8,0,1.2,0.1
		c0.4,0.1,0.7,0.2,1.1,0.3c0.3,0.1,0.6,0.3,0.8,0.5l-0.7,1.5c-0.4-0.3-0.8-0.5-1.2-0.6c-0.4-0.1-0.8-0.2-1.2-0.2s-0.7,0.1-0.9,0.2
		s-0.4,0.4-0.4,0.6c0,0.1,0,0.2,0.1,0.3c0.1,0.1,0.2,0.2,0.5,0.3c0.2,0.1,0.6,0.2,1,0.3c0.6,0.1,1,0.3,1.4,0.4
		c0.4,0.2,0.7,0.3,0.9,0.5c0.2,0.2,0.4,0.4,0.5,0.7c0.1,0.3,0.1,0.5,0.1,0.8c0,0.5-0.1,1-0.4,1.4c-0.3,0.4-0.7,0.7-1.2,0.9
		C229.5,67.9,228.9,68,228.1,68z"/>
	<path class="st1" d="M232.1,63.6v-1.5h4.6v1.5H232.1z M236.7,66.3v1.6c-0.2,0.1-0.4,0.1-0.5,0.1s-0.4,0-0.6,0
		c-0.8,0-1.4-0.2-1.8-0.7s-0.6-1.1-0.6-1.8v-4.8l2.1-0.7v5.4c0,0.2,0,0.4,0.1,0.5c0.1,0.1,0.2,0.2,0.3,0.3s0.3,0.1,0.4,0.1
		c0.1,0,0.2,0,0.2,0C236.5,66.3,236.6,66.3,236.7,66.3z"/>
	<path class="st1" d="M239.8,68c-0.5,0-0.9-0.1-1.3-0.4c-0.4-0.2-0.7-0.6-0.9-1c-0.2-0.5-0.3-1-0.3-1.6c0-0.6,0.1-1.2,0.3-1.6
		c0.2-0.5,0.5-0.8,0.9-1.1c0.4-0.3,0.8-0.4,1.3-0.4c0.4,0,0.8,0.1,1.2,0.3s0.6,0.5,0.7,0.9l-0.1,0.1v-1.1h2.1v5.9h-2.1v-1.1h0.1
		c-0.1,0.4-0.4,0.6-0.7,0.9S240.2,68,239.8,68z M240.4,66.5c0.4,0,0.6-0.1,0.8-0.4c0.2-0.3,0.3-0.6,0.3-1.1c0-0.5-0.1-0.9-0.3-1.1
		c-0.2-0.3-0.5-0.4-0.9-0.4c-0.4,0-0.6,0.1-0.9,0.4c-0.2,0.3-0.3,0.6-0.3,1.1c0,0.5,0.1,0.8,0.3,1.1C239.8,66.3,240,66.5,240.4,66.5
		z"/>
	<path class="st1" d="M244.3,63.6v-1.5h4.6v1.5H244.3z M248.9,66.3v1.6c-0.2,0.1-0.4,0.1-0.5,0.1s-0.4,0-0.6,0
		c-0.8,0-1.4-0.2-1.8-0.7s-0.6-1.1-0.6-1.8v-4.8l2.1-0.7v5.4c0,0.2,0,0.4,0.1,0.5c0.1,0.1,0.2,0.2,0.3,0.3s0.3,0.1,0.4,0.1
		c0.1,0,0.2,0,0.2,0C248.7,66.3,248.8,66.3,248.9,66.3z"/>
	<path class="st1" d="M255,67.3c-0.3,0.2-0.6,0.4-1.1,0.5s-0.8,0.2-1.2,0.2c-0.7,0-1.3-0.1-1.7-0.4c-0.5-0.2-0.9-0.6-1.1-1.1
		c-0.3-0.5-0.4-1-0.4-1.6c0-0.6,0.1-1.1,0.4-1.6c0.2-0.5,0.6-0.8,1-1.1c0.4-0.3,0.9-0.4,1.5-0.4c0.6,0,1,0.1,1.5,0.4s0.7,0.6,1,1
		c0.2,0.5,0.3,1,0.3,1.6v0.3h-3.8l0-1h2.5l-0.5,0.3c0-0.4-0.1-0.7-0.2-0.9c-0.2-0.2-0.4-0.3-0.7-0.3c-0.3,0-0.6,0.1-0.8,0.4
		s-0.3,0.6-0.3,1.1c0,0.6,0.1,1,0.3,1.3c0.2,0.3,0.6,0.4,1.1,0.4c0.3,0,0.6,0,0.9-0.1s0.6-0.2,0.8-0.4L255,67.3z"/>
	<path class="st1" d="M256,67.9v-4.2c0-0.3,0-0.6,0-0.8c0-0.3,0-0.6-0.1-0.8h2l0.1,1.1l-0.1-0.1c0.2-0.4,0.4-0.7,0.8-0.9
		c0.3-0.2,0.7-0.3,1.2-0.3c0.5,0,0.9,0.1,1.3,0.4c0.3,0.3,0.5,0.7,0.6,1.2l-0.3-0.4c0.2-0.4,0.5-0.7,0.8-0.9
		c0.4-0.2,0.8-0.3,1.2-0.3c0.7,0,1.2,0.2,1.5,0.6c0.3,0.4,0.5,1.1,0.5,1.9v3.5h-2.1v-3.4c0-0.3,0-0.6-0.1-0.7s-0.3-0.2-0.5-0.2
		c-0.3,0-0.5,0.1-0.7,0.3c-0.2,0.2-0.2,0.5-0.2,0.9v3.2h-2.1v-3.4c0-0.3-0.1-0.6-0.2-0.7c-0.1-0.2-0.3-0.2-0.5-0.2
		c-0.3,0-0.5,0.1-0.7,0.3c-0.2,0.2-0.2,0.5-0.2,0.9v3.2H256z"/>
	<path class="st1" d="M272,67.3c-0.3,0.2-0.6,0.4-1.1,0.5s-0.8,0.2-1.2,0.2c-0.7,0-1.3-0.1-1.7-0.4c-0.5-0.2-0.9-0.6-1.1-1.1
		c-0.3-0.5-0.4-1-0.4-1.6c0-0.6,0.1-1.1,0.4-1.6c0.2-0.5,0.6-0.8,1-1.1c0.4-0.3,0.9-0.4,1.5-0.4c0.6,0,1,0.1,1.5,0.4s0.7,0.6,1,1
		c0.2,0.5,0.3,1,0.3,1.6v0.3h-3.8l0-1h2.5l-0.5,0.3c0-0.4-0.1-0.7-0.2-0.9c-0.2-0.2-0.4-0.3-0.7-0.3c-0.3,0-0.6,0.1-0.8,0.4
		s-0.3,0.6-0.3,1.1c0,0.6,0.1,1,0.3,1.3c0.2,0.3,0.6,0.4,1.1,0.4c0.3,0,0.6,0,0.9-0.1s0.6-0.2,0.8-0.4L272,67.3z"/>
	<path class="st1" d="M273.1,67.9v-4.2c0-0.3,0-0.6,0-0.8c0-0.3,0-0.6-0.1-0.8h2l0.1,1.1l-0.1-0.1c0.2-0.4,0.5-0.7,0.8-0.9
		s0.8-0.3,1.2-0.3c1.4,0,2.1,0.8,2.1,2.5v3.5H277v-3.4c0-0.4-0.1-0.6-0.2-0.8c-0.1-0.2-0.3-0.2-0.6-0.2c-0.3,0-0.6,0.1-0.8,0.3
		s-0.3,0.5-0.3,0.8v3.3H273.1z"/>
	<path class="st1" d="M279.7,63.6v-1.5h4.6v1.5H279.7z M284.3,66.3v1.6c-0.2,0.1-0.4,0.1-0.5,0.1s-0.4,0-0.6,0
		c-0.8,0-1.4-0.2-1.8-0.7s-0.6-1.1-0.6-1.8v-4.8l2.1-0.7v5.4c0,0.2,0,0.4,0.1,0.5c0.1,0.1,0.2,0.2,0.3,0.3s0.3,0.1,0.4,0.1
		c0.1,0,0.2,0,0.2,0C284.1,66.3,284.2,66.3,284.3,66.3z"/>
	<path class="st1" d="M287.4,68c-1.2,0-2.1-0.2-2.8-0.7l0.5-1.4c0.3,0.2,0.7,0.4,1.1,0.5c0.4,0.1,0.8,0.2,1.2,0.2
		c0.2,0,0.4,0,0.6-0.1c0.1-0.1,0.2-0.2,0.2-0.3c0-0.1,0-0.2-0.1-0.3c-0.1-0.1-0.3-0.1-0.5-0.2l-0.9-0.2c-0.6-0.1-1-0.3-1.3-0.6
		c-0.3-0.3-0.4-0.6-0.4-1.1c0-0.4,0.1-0.7,0.3-1c0.2-0.3,0.5-0.5,0.9-0.7c0.4-0.2,0.9-0.2,1.4-0.2c0.4,0,0.8,0.1,1.3,0.2
		s0.8,0.3,1.1,0.5l-0.6,1.4c-0.3-0.2-0.6-0.4-0.9-0.5c-0.3-0.1-0.6-0.2-0.9-0.2c-0.2,0-0.4,0-0.5,0.1c-0.1,0.1-0.2,0.2-0.2,0.3
		c0,0.1,0,0.2,0.1,0.2c0.1,0.1,0.2,0.1,0.4,0.2l1,0.2c0.6,0.1,1.1,0.3,1.3,0.6c0.3,0.3,0.4,0.7,0.4,1.2c0,0.6-0.2,1-0.7,1.4
		C288.9,67.8,288.2,68,287.4,68z"/>
</g>
<g>
	<path class="st1" d="M95.6,110.1c0-1-0.8-1.9-1.9-1.9h-5.6v-3.1c0-0.5-0.2-0.9-0.5-1.2c1-0.7,1.7-1.8,1.7-3.1v-1.9
		c0-2.1-1.7-3.7-3.7-3.7s-3.7,1.7-3.7,3.7v1.9c0,1.2,0.6,2.4,1.6,3c-0.3,0.6-0.5,1.3-0.6,1.9h-3.4c-1,0-1.9,0.8-1.9,1.9
		c0,1,0.8,1.9,1.9,1.9H80v5.6c0,1.2,0.7,2.3,1.7,2.8l-2.3,6.8c-0.1,0.2-0.1,0.4-0.1,0.5c0,0.9,0.8,1.7,1.7,1.7
		c0.7,0,1.4-0.5,1.6-1.1l0.9-2.6H90v3.7H103v-12.4h1.2v-3.7h-8.8C95.5,110.6,95.6,110.3,95.6,110.1z M93.7,109.5
		c0.3,0,0.6,0.3,0.6,0.6c0,0.3-0.3,0.6-0.6,0.6h-7.5c-0.3,0-0.6-0.3-0.6-0.6v-5c0-0.3,0.3-0.6,0.6-0.6c0.3,0,0.6,0.3,0.6,0.6v4.4
		H93.7z M86.3,112H90v2.5h-6.2v-5.9c0-1.3,0.2-2.6,0.7-3.8c0,0.1,0,0.2,0,0.4v5C84.4,111.2,85.2,112,86.3,112z M83.1,98.9
		c0-1.4,1.1-2.5,2.5-2.5c1.4,0,2.5,1.1,2.5,2.5v1.9c0,1.4-1.1,2.5-2.5,2.5c-1.4,0-2.5-1.1-2.5-2.5V98.9z M79.4,108.3
		c-0.3,0-0.6-0.3-0.6-0.6c0-0.3,0.3-0.6,0.6-0.6h3.2c-0.1,0.5-0.1,1-0.1,1.5v5.9c0,0.7,0.6,1.2,1.2,1.2H90v1.2h-6.8
		c-1,0-1.9-0.8-1.9-1.9v-6.8H79.4z M85.4,118.2H90v1.2h-5L85.4,118.2z M81.6,125.4c-0.1,0.2-0.2,0.3-0.5,0.3c-0.2,0-0.4-0.2-0.4-0.4
		c0,0,0-0.1,0-0.1l2.3-6.9c0.1,0,0.1,0,0.2,0h1L81.6,125.4z M84.1,121.9l0.4-1.2H90v1.2H84.1z M101.8,125.7H91.2v-11.2h10.6V125.7z
		 M103,113.2H91.2V112H103V113.2z"/>
	<path class="st1" d="M112.2,96.9c0.9-0.7,1.4-1.7,1.4-2.9v-1.9c0-2.1-1.7-3.7-3.7-3.7c-2.1,0-3.7,1.7-3.7,3.7V94
		c0,1.4,0.8,2.7,2,3.3c-0.4,0.3-0.7,0.7-0.9,1.1c-0.8,1.3-1.3,2.8-1.5,4.3h-3.3c-1,0-1.9,0.8-1.9,1.9c0,1,0.8,1.9,1.9,1.9h3.1v3.7
		h1.2v16.8h7.5v-26.7C114.2,98.8,113.4,97.5,112.2,96.9z M107.4,94v-1.9c0-1.4,1.1-2.5,2.5-2.5c1.4,0,2.5,1.1,2.5,2.5V94
		c0,1.4-1.1,2.5-2.5,2.5C108.5,96.5,107.4,95.3,107.4,94z M108,99.5v3.2h-1.1C107.1,101.6,107.5,100.5,108,99.5z M101.8,104.5
		c0-0.3,0.3-0.6,0.6-0.6h6.8v-5.6c0-0.1,0.1-0.3,0.1-0.4c0.2-0.1,0.4-0.2,0.7-0.2c0.3,0.1,0.4,0.3,0.4,0.6v6.2
		c0,0.3-0.3,0.6-0.6,0.6h-7.5C102.1,105.2,101.8,104.9,101.8,104.5z M109.9,106.4c1,0,1.9-0.8,1.9-1.9v-6.2c0-0.1,0-0.2,0-0.3
		c0.8,0.4,1.3,1.2,1.3,2.2v8.7h-6.2v-2.5H109.9z M108,110.1h1.2v15.5H108V110.1z M110.5,125.7v-15.5h2.5v15.5H110.5z"/>
	<path class="st1" d="M101.2,90.9h1.2v1.2h-1.2V90.9z"/>
	<path class="st1" d="M98.7,90.9h1.2v1.2h-1.2V90.9z"/>
	<path class="st1" d="M96.2,90.9h1.2v1.2h-1.2V90.9z"/>
	<path class="st1" d="M101.2,96.9v-2.3h3.7v-6.2H93.7v6.2h3.6L101.2,96.9z M95,89.6h8.7v3.7h-3.7v1.4l-2.3-1.4H95V89.6z"/>
	<path class="st1" d="M93.1,100.8h1.2v1.2h-1.2V100.8z"/>
	<path class="st1" d="M95.6,100.8h1.2v1.2h-1.2V100.8z"/>
	<path class="st1" d="M94.3,106.3l2.7-1.8h2.3v-6.2h-8.7v6.2h3.7V106.3z M91.8,103.3v-3.7h6.2v3.7h-1.4l-1.1,0.7v-0.7H91.8z"/>
</g>
<g>
	<path class="st1" d="M66,138.5c-0.4,0-0.8,0-1.2-0.1c-0.4-0.1-0.8-0.2-1.1-0.3c-0.4-0.1-0.7-0.3-0.9-0.5l0.7-1.5
		c0.4,0.3,0.8,0.5,1.3,0.6s0.9,0.2,1.4,0.2c0.5,0,0.8-0.1,1.1-0.2c0.2-0.1,0.4-0.3,0.4-0.5c0-0.1,0-0.2-0.1-0.4
		c-0.1-0.1-0.2-0.2-0.5-0.3c-0.2-0.1-0.6-0.2-1-0.3c-0.6-0.1-1.1-0.3-1.5-0.4c-0.4-0.2-0.7-0.3-0.9-0.5c-0.2-0.2-0.4-0.4-0.5-0.7
		c-0.1-0.3-0.1-0.5-0.1-0.9c0-0.5,0.1-0.9,0.4-1.3c0.3-0.4,0.7-0.7,1.2-0.9s1.1-0.3,1.8-0.3c0.4,0,0.8,0,1.2,0.1
		c0.4,0.1,0.7,0.2,1.1,0.3s0.6,0.3,0.8,0.5l-0.7,1.5c-0.4-0.3-0.8-0.5-1.2-0.6s-0.8-0.2-1.2-0.2s-0.7,0.1-0.9,0.2
		c-0.2,0.1-0.4,0.4-0.4,0.6c0,0.1,0,0.2,0.1,0.3c0.1,0.1,0.2,0.2,0.5,0.3c0.2,0.1,0.6,0.2,1,0.3c0.6,0.1,1,0.3,1.4,0.4
		c0.4,0.2,0.7,0.3,0.9,0.5c0.2,0.2,0.4,0.4,0.5,0.7c0.1,0.3,0.1,0.5,0.1,0.8c0,0.5-0.1,1-0.4,1.4c-0.3,0.4-0.7,0.7-1.2,0.9
		C67.4,138.4,66.7,138.5,66,138.5z"/>
	<path class="st1" d="M72.8,138.5c-0.7,0-1.3-0.2-1.7-0.6s-0.5-1-0.5-1.9v-3.4h2.1v3.5c0,0.3,0.1,0.5,0.2,0.7s0.3,0.2,0.6,0.2
		c0.3,0,0.5-0.1,0.7-0.3c0.2-0.2,0.3-0.5,0.3-0.8v-3.2h2.1v5.9h-2v-1.1l0.2,0.1c-0.2,0.4-0.4,0.7-0.7,0.9
		C73.6,138.4,73.2,138.5,72.8,138.5z"/>
	<path class="st1" d="M77.8,140.9v-6.7c0-0.3,0-0.6,0-0.8c0-0.3,0-0.6-0.1-0.8h2l0.1,1.1l-0.1-0.1c0.1-0.4,0.4-0.6,0.7-0.9
		c0.4-0.2,0.8-0.3,1.2-0.3c0.5,0,1,0.1,1.3,0.4c0.4,0.3,0.7,0.6,0.9,1.1c0.2,0.5,0.3,1,0.3,1.6c0,0.6-0.1,1.1-0.3,1.6
		c-0.2,0.5-0.5,0.8-0.9,1s-0.8,0.4-1.3,0.4c-0.5,0-0.9-0.1-1.2-0.3c-0.4-0.2-0.6-0.5-0.7-0.9l0.1-0.3v3.8H77.8z M81,136.9
		c0.4,0,0.7-0.1,0.9-0.4c0.2-0.3,0.3-0.6,0.3-1.1c0-0.5-0.1-0.9-0.3-1.1c-0.2-0.3-0.5-0.4-0.8-0.4c-0.4,0-0.7,0.1-0.9,0.4
		s-0.3,0.6-0.3,1.1c0,0.5,0.1,0.8,0.3,1.1S80.6,136.9,81,136.9z"/>
	<path class="st1" d="M90.5,137.8c-0.3,0.2-0.6,0.4-1.1,0.5c-0.4,0.1-0.8,0.2-1.2,0.2c-0.7,0-1.3-0.1-1.7-0.4s-0.9-0.6-1.1-1.1
		c-0.3-0.5-0.4-1-0.4-1.6c0-0.6,0.1-1.1,0.4-1.6c0.2-0.5,0.6-0.8,1-1.1c0.4-0.3,0.9-0.4,1.5-0.4c0.6,0,1,0.1,1.5,0.4
		c0.4,0.2,0.7,0.6,1,1c0.2,0.5,0.3,1,0.3,1.6v0.3h-3.8l0-1h2.5l-0.5,0.3c0-0.4-0.1-0.7-0.2-0.9c-0.2-0.2-0.4-0.3-0.7-0.3
		c-0.3,0-0.6,0.1-0.8,0.4c-0.2,0.2-0.3,0.6-0.3,1.1c0,0.6,0.1,1,0.3,1.3c0.2,0.3,0.6,0.4,1.1,0.4c0.3,0,0.6,0,0.9-0.1
		c0.3-0.1,0.6-0.2,0.8-0.4L90.5,137.8z"/>
	<path class="st1" d="M91.6,138.4v-4.2c0-0.3,0-0.6,0-0.8c0-0.3,0-0.6-0.1-0.8h2l0.2,1.6l-0.2-0.1c0.1-0.5,0.3-0.9,0.6-1.2
		c0.4-0.3,0.7-0.4,1.2-0.4c0.1,0,0.3,0,0.4,0c0.1,0,0.2,0.1,0.3,0.1v1.9c-0.3-0.2-0.6-0.2-1-0.2c-0.3,0-0.5,0-0.7,0.1
		c-0.2,0.1-0.3,0.2-0.4,0.4c-0.1,0.2-0.2,0.4-0.2,0.7v2.9H91.6z"/>
	<path class="st1" d="M98.6,138.4l-2.6-5.8h2.2l1.5,3.9h-0.4l1.6-3.9h2.1l-2.6,5.8H98.6z"/>
	<path class="st1" d="M103.3,129.7h2.2v1.9h-2.2V129.7z M103.3,138.4v-5.9h2.1v5.9H103.3z"/>
	<path class="st1" d="M109,138.5c-1.2,0-2.1-0.2-2.8-0.7l0.5-1.4c0.3,0.2,0.7,0.4,1.1,0.5c0.4,0.1,0.8,0.2,1.2,0.2
		c0.2,0,0.4,0,0.6-0.1c0.1-0.1,0.2-0.2,0.2-0.3c0-0.1,0-0.2-0.1-0.3c-0.1-0.1-0.3-0.1-0.5-0.2l-0.9-0.2c-0.6-0.1-1-0.3-1.3-0.6
		c-0.3-0.3-0.4-0.6-0.4-1.1c0-0.4,0.1-0.7,0.3-1c0.2-0.3,0.5-0.5,0.9-0.7c0.4-0.2,0.9-0.2,1.4-0.2c0.4,0,0.8,0.1,1.3,0.2
		c0.4,0.1,0.8,0.3,1.1,0.5l-0.6,1.4c-0.3-0.2-0.6-0.4-0.9-0.5c-0.3-0.1-0.6-0.2-0.9-0.2c-0.2,0-0.4,0-0.5,0.1
		c-0.1,0.1-0.2,0.2-0.2,0.3c0,0.1,0,0.2,0.1,0.2c0.1,0,0.2,0.1,0.4,0.2l1,0.2c0.6,0.1,1.1,0.4,1.3,0.6c0.3,0.3,0.4,0.7,0.4,1.2
		c0,0.6-0.2,1-0.7,1.4C110.5,138.3,109.8,138.5,109,138.5z"/>
	<path class="st1" d="M112.4,129.7h2.2v1.9h-2.2V129.7z M112.5,138.4v-5.9h2.1v5.9H112.5z"/>
	<path class="st1" d="M118.8,138.5c-0.7,0-1.2-0.1-1.7-0.4s-0.9-0.6-1.1-1.1c-0.3-0.5-0.4-1-0.4-1.6c0-0.6,0.1-1.2,0.4-1.6
		c0.3-0.5,0.6-0.8,1.1-1.1c0.5-0.2,1.1-0.4,1.7-0.4c0.6,0,1.2,0.1,1.7,0.4c0.5,0.3,0.9,0.6,1.1,1.1c0.3,0.5,0.4,1,0.4,1.6
		c0,0.6-0.1,1.2-0.4,1.6c-0.3,0.5-0.6,0.8-1.1,1.1S119.4,138.5,118.8,138.5z M118.8,136.9c0.4,0,0.6-0.1,0.8-0.4
		c0.2-0.2,0.3-0.6,0.3-1.1c0-0.5-0.1-0.9-0.3-1.1s-0.5-0.4-0.8-0.4c-0.4,0-0.7,0.1-0.9,0.4c-0.2,0.2-0.3,0.6-0.3,1.1
		c0,0.5,0.1,0.9,0.3,1.1C118.1,136.8,118.4,136.9,118.8,136.9z"/>
	<path class="st1" d="M123,138.4v-4.2c0-0.3,0-0.6,0-0.8s0-0.6-0.1-0.8h2l0.1,1.1l-0.1-0.1c0.2-0.4,0.5-0.7,0.8-0.9
		c0.3-0.2,0.8-0.3,1.2-0.3c1.4,0,2.1,0.8,2.1,2.5v3.5h-2.1V135c0-0.4-0.1-0.6-0.2-0.8c-0.1-0.2-0.3-0.2-0.6-0.2
		c-0.3,0-0.6,0.1-0.8,0.3c-0.2,0.2-0.3,0.5-0.3,0.8v3.3H123z"/>
</g>
<line class="st3" x1="197.2" y1="178.7" x2="203.3" y2="196.7"/>
<line class="st3" x1="161.9" y1="70.4" x2="161.9" y2="106.3"/>
<line class="st3" x1="133.7" y1="154.3" x2="87.7" y2="181.1"/>
<line class="st3" x1="266.5" y1="113.1" x2="240.5" y2="113.6"/>
<line class="st3" x1="143" y1="113.2" x2="116.4" y2="113.5"/>
<line class="st3" x1="258.4" y1="75.4" x2="240.5" y2="98.3"/>
<g>
	<path class="st1" d="M271.7,40.1V10.7c0-1.7-1.4-3.1-3.1-3.1h-27.5c-1.7,0-3.1,1.4-3.1,3.1v16.9h5v15.6c0,1.7,1.4,3.1,3.1,3.1h27.5
		c1.7,0,3.1-1.4,3.1-3.1v-3.1H271.7z M243,26.3h-3.7V10.7c0-1,0.8-1.9,1.9-1.9c1,0,1.9,0.8,1.9,1.9V26.3z M248,43.2
		c0,1-0.8,1.9-1.9,1.9s-1.9-0.8-1.9-1.9V10.7c0-0.7-0.2-1.4-0.6-1.9h25c1,0,1.9,0.8,1.9,1.9v29.4h-1.2v-10h-3.7v10h-1.2v-7.5h-3.7
		v7.5h-1.2v-6.2h-3.7v6.2h-1.2v-3.7h-3.7v3.7H248V43.2z M268,40.1h-1.2v-8.7h1.2V40.1z M263,40.1h-1.2v-6.2h1.2V40.1z M258,40.1
		h-1.2v-5h1.2V40.1z M253,40.1h-1.2v-2.5h1.2V40.1z M275.5,43.2c0,1-0.8,1.9-1.9,1.9h-25c0.4-0.5,0.6-1.2,0.6-1.9v-1.9h26.2V43.2z"
		/>
	<path class="st1" d="M248,18.8c-0.7,0-1.2-0.6-1.2-1.2h-1.2c0,1.2,0.8,2.1,1.9,2.4v1.3h1.2v-1.2h1.9v-2.5c0-1.4-1.1-2.5-2.5-2.5
		c-0.7,0-1.2-0.6-1.2-1.2v-1.2h1.2c0.7,0,1.2,0.6,1.2,1.2h1.2c0-1.2-0.8-2.1-1.9-2.4v-1.3h-1.2v1.2h-1.9v2.5c0,1.4,1.1,2.5,2.5,2.5
		c0.7,0,1.2,0.6,1.2,1.2v1.2H248z"/>
	<path class="st1" d="M269.2,10.1h-17.5v11.2h17.5V10.1z M268,20.1h-15v-8.7h15V20.1z"/>
	<path class="st1" d="M254.2,12.6h1.2v1.2h-1.2V12.6z"/>
	<path class="st1" d="M256.7,12.6h10v1.2h-10V12.6z"/>
	<path class="st1" d="M254.2,15.1h1.2v1.2h-1.2V15.1z"/>
	<path class="st1" d="M256.7,15.1h10v1.2h-10V15.1z"/>
	<path class="st1" d="M254.2,17.6h1.2v1.2h-1.2V17.6z"/>
	<path class="st1" d="M256.7,17.6h10v1.2h-10V17.6z"/>
	<path class="st1" d="M264.6,26.3l-3.5,3.5l-2.5-2.5l-6.7,6.7l0.9,0.9l5.8-5.8l2.5,2.5l4.4-4.4l2.2,2.2l1.8-7.1l-7.1,1.8L264.6,26.3
		z M267,27l-2.2-2.2l2.9-0.7L267,27z"/>
	<path class="st1" d="M245.5,23.8h1.2v1.2h-1.2V23.8z"/>
	<path class="st1" d="M248,23.8h1.2v1.2H248V23.8z"/>
	<path class="st1" d="M250.5,23.8h1.2v1.2h-1.2V23.8z"/>
	<path class="st1" d="M245.5,26.3h6.2v1.2h-6.2V26.3z"/>
	<path class="st1" d="M245.5,28.8h6.2v1.2h-6.2V28.8z"/>
	<path class="st1" d="M273,42.6h1.2v1.2H273V42.6z"/>
	<path class="st1" d="M270.5,42.6h1.2v1.2h-1.2V42.6z"/>
	<path class="st1" d="M268,42.6h1.2v1.2H268V42.6z"/>
	<path class="st1" d="M240.5,23.8h1.2v1.2h-1.2V23.8z"/>
	<path class="st1" d="M240.5,21.3h1.2v1.2h-1.2V21.3z"/>
	<path class="st1" d="M240.5,18.8h1.2v1.2h-1.2V18.8z"/>
</g>
</svg>
