<?xml version="1.0" encoding="utf-8"?>
<!-- Generator: Adobe Illustrator 21.0.0, SVG Export Plug-In . SVG Version: 6.00 Build 0)  -->
<svg version="1.1" id="Layer_1" xmlns="http://www.w3.org/2000/svg" xmlns:xlink="http://www.w3.org/1999/xlink" x="0px" y="0px"
	 viewBox="0 0 652.9 545.2" style="enable-background:new 0 0 652.9 545.2;" xml:space="preserve">
<style type="text/css">
	.st0{fill:#D1AA67;}
	.st1{fill:#A6A8AB;}
	.st2{fill:#FFFFFF;}
</style>
<g>
	<g>
		<g id="Shape_5_">
			<path class="st0" d="M336.2,185.3l-2.1,10.6c-2,0.7-4,1.5-5.9,2.5l-9-6c-2.8-1.8-6.5-1.5-8.9,0.9l-5.9,5.9
				c-2.4,2.4-2.8,6.1-0.9,9l6,8.9c-1,1.9-1.8,3.9-2.5,5.9l-10.6,2.1c-3.3,0.7-5.7,3.6-5.7,6.9v8.3c0,3.4,2.4,6.3,5.7,6.9l10.6,2.1
				c0.7,2,1.5,4,2.5,5.9l-6,9c-1.8,2.8-1.5,6.5,0.9,8.9l5.9,5.9c2.4,2.4,6.1,2.8,9,0.9l8.9-6c1.9,1,3.9,1.8,5.9,2.5l2.1,10.6
				c0.7,3.3,3.6,5.7,6.9,5.7h8.3c3.4,0,6.3-2.4,6.9-5.7l2.1-10.6c2-0.7,4-1.5,5.9-2.5l9,6c2.8,1.8,6.5,1.5,8.9-0.9l5.9-5.9
				c2.4-2.4,2.8-6.1,0.9-9l-6-8.9c1-1.9,1.8-3.9,2.5-5.9l10.6-2.1c2.1-0.4,3.9-1.8,4.9-3.7l5.3,3.6c1,0.6,2.2,1,3.4,1
				c1.7,0,3.3-0.7,4.5-1.9l4.7-4.7c2.1-2.1,2.5-5.5,0.8-8l-4.6-6.8c0.7-1.3,1.2-2.7,1.7-4.1l8-1.6c3-0.6,5.1-3.2,5.1-6.3v-6.6
				c0-3-2.1-5.7-5.1-6.3l-8-1.6c-0.5-1.4-1-2.8-1.7-4.1l4.6-6.9c1.6-2.5,1.2-5.8-0.9-7.9l-4.7-4.7c-2.1-2.1-5.5-2.5-8-0.8l-6.8,4.6
				c-1.3-0.7-2.7-1.2-4.1-1.7l-1.6-8c-0.6-3-3.2-5.1-6.3-5.1h-6.6c-3,0-5.7,2.1-6.3,5.1l-1.6,8c-1.4,0.5-2.8,1-4.1,1.7l-6.9-4.6
				c-2.5-1.6-5.8-1.2-7.9,0.9l-3.2,3.2c-0.5-0.1-0.9-0.1-1.4-0.2H343C339.8,179.6,336.9,182,336.2,185.3z M390.2,199.1l-1.6-1.6
				c6.1,0.8,11,5.5,12,11.6s-2.1,12.1-7.6,14.9l-5.4-1.1c-0.7-2-1.5-4-2.5-5.9l6-9C393,205.2,392.6,201.5,390.2,199.1L390.2,199.1z
				 M360.7,182l8.1,5.4c1.1,0.8,2.6,0.8,3.8,0.1c2-1.2,4.2-2.1,6.5-2.7c1.3-0.3,2.3-1.4,2.5-2.7l1.9-9.5h5.5l1.9,9.5
				c0.3,1.3,1.2,2.4,2.5,2.7c2.3,0.6,4.4,1.5,6.5,2.7c1.2,0.7,2.6,0.6,3.8-0.1l8.1-5.4l3.9,3.9l-5.4,8.1c-0.8,1.1-0.8,2.6-0.1,3.8
				c1.2,2,2.1,4.2,2.7,6.5c0.3,1.3,1.4,2.3,2.7,2.5l9.5,1.9v5.5l-9.5,1.9c-1.3,0.3-2.4,1.2-2.7,2.5c-0.6,2.3-1.5,4.4-2.7,6.5
				c-0.7,1.2-0.7,2.6,0.1,3.8l5.4,8.1l-3.9,3.9l-7.9-5.3V232c0-2.1-0.9-4-2.5-5.4c6.2-6,8.2-15.2,4.9-23.2s-11-13.2-19.7-13.2
				c-2.1,0-4.3,0.4-6.3,1c-1.7-0.3-3.5,0.1-4.9,1.1l-8.9,6c-1.9-1-3.9-1.8-5.9-2.5l-2.1-10.6c-0.1-0.3-0.1-0.6-0.2-0.8L360.7,182z
				 M340.6,199.3l2.5-12.6h8.3l2.5,12.6c0.3,1.3,1.2,2.4,2.5,2.7c2.9,0.8,5.7,2,8.3,3.5c1.2,0.7,2.6,0.6,3.7-0.1l10.7-7.1l5.9,5.9
				l-7.2,10.7c-0.8,1.1-0.8,2.6-0.1,3.7c1.5,2.6,2.7,5.4,3.5,8.3c0.3,1.3,1.4,2.3,2.7,2.5l12.6,2.5v8.3l-12.6,2.5
				c-1.3,0.3-2.4,1.2-2.7,2.5c-0.8,2.9-2,5.7-3.5,8.3c-0.7,1.2-0.6,2.6,0.1,3.7l7.1,10.7l-5.9,5.9l-10.7-7.2
				c-1.1-0.8-2.6-0.8-3.7-0.1c-2.6,1.5-5.4,2.7-8.3,3.5c-1.3,0.3-2.3,1.4-2.5,2.7l-2.5,12.6H343l-2.5-12.6c-0.3-1.3-1.2-2.4-2.5-2.7
				c-2.9-0.8-5.7-2-8.3-3.5c-1.2-0.7-2.6-0.6-3.7,0.1l-10.7,7.1l-5.9-5.9l7.2-10.7c0.8-1.1,0.8-2.6,0.1-3.7
				c-1.5-2.6-2.7-5.4-3.5-8.3c-0.3-1.3-1.4-2.3-2.7-2.5l-12.6-2.5V232l12.6-2.5c1.3-0.3,2.4-1.2,2.7-2.5c0.8-2.9,2-5.7,3.5-8.3
				c0.7-1.2,0.6-2.6-0.1-3.7l-7.1-10.7l5.9-5.9l10.7,7.2c1.1,0.8,2.6,0.8,3.7,0.1c2.6-1.5,5.4-2.7,8.3-3.5
				C339.4,201.7,340.3,200.6,340.6,199.3z"/>
		</g>
		<g id="Shape_4_">
			<path class="st0" d="M347.3,260.9c13.7,0,24.7-11.1,24.7-24.7c0-13.7-11.1-24.7-24.7-24.7s-24.7,11.1-24.7,24.7
				C322.6,249.8,333.7,260.9,347.3,260.9z M347.3,218.5c9.8,0,17.7,7.9,17.7,17.7s-7.9,17.7-17.7,17.7s-17.7-7.9-17.7-17.7
				C329.7,226.4,337.6,218.5,347.3,218.5z"/>
		</g>
		<g id="Oval_2_">
			<circle class="st0" cx="347.3" cy="236.1" r="3.5"/>
		</g>
	</g>
	<g>
		<g id="Shape">
			<path class="st0" d="M129.2,326.1c2.4,1.6,4.9,3.1,7.5,4.3c3.1,1.6,8.4,4.3,8.7,6.2c0.5,2.5,0.2,5-0.8,7.3
				c-1.1,2.3-2.2,4.3-3.2,6c-2.7,4.7-7.1,12.5-0.4,18c1.6,1.4,4.3,3.5,6.7,5.4c-1.8,3.2-2.6,6.8-2.4,10.4c0.4,2.8,1.9,5.4,4.2,7.1
				c1.6,1.2,3.4,2.2,5.1,3.1c4.3,2.4,5.9,3.6,6.5,5.8c0.4,2.9,0.1,5.9-0.8,8.8c-0.4,1.9-0.8,3.8-1.1,5.7c-0.7,6.6,0.1,13.3,2.4,19.5
				c3.2,11.5,13.7,19.6,25.6,19.8c2,0,4-0.2,5.9-0.6c20.7-4.9,41-11,61-18.3c16.3,9.6,26.6,38.7,29.3,49.6c0.8,3.2,3.7,5.5,7,5.5
				l181.6-0.5c2.3,0,4.5-1.1,5.8-3c1.4-1.9,1.8-4.3,1.1-6.4c-1.8-4.9-4.3-9.5-7.3-13.7c-1.7-2.5-3.3-5.1-4.7-7.8
				c-3.3-6.6-6-13.5-8.2-20.6c-4.1-14-7-28.3-8.6-42.8c-2.5-21.7,0.7-43.6,9.5-63.5c5.3-11.1,11.9-21.5,19.7-31.1
				c4.3-5.9,8.9-11.9,12.9-18.3c7-10.8,12-22.7,14.9-35.2c0.8-3.9-1.6-7.7-5.4-8.6c-3.8-0.9-7.7,1.5-8.7,5.3
				c-2.5,10.9-7,21.3-13,30.8c-3.8,5.9-8.1,11.8-12.3,17.4c-8.4,10.4-15.5,21.8-21.3,33.9c-9.8,22.3-13.5,46.9-10.6,71.1
				c1.7,15.4,4.7,30.6,9.1,45.4c2.4,7.8,5.4,15.4,9,22.7c1.6,3.3,3.5,6.4,5.6,9.4l0.5,0.7l-164.1,0.5c-4.8-17.2-13.5-33-25.5-46.2
				l6.5-2.3c4.9-1.7,8.5-3,10.4-3.6c31-9.9,46.5-24,46.1-42c0-1.9-0.8-3.8-2.2-5.1c-1.4-1.3-3.3-2-5.2-2c-4,0.1-7.2,3.4-7.1,7.4
				c0.2,7.4-5.9,18.2-36,27.8c-2,0.6-5.8,2-10.8,3.7c-5.4,1.9-12.2,4.3-19.7,6.8h-0.1c-20.4,7.5-41.1,13.7-62.2,18.8
				c-6.7,1.3-13.3-3-14.9-9.6c-1.6-4.1-2.2-8.5-1.8-12.8c0.2-1.4,0.5-3,0.9-4.4c1.5-5.1,1.8-10.4,0.7-15.6c-2.1-6.6-7-12-13.4-14.8
				l-1.6-0.9c0.8-1.6,1.7-3.1,2.8-4.5c1.2-1.5,1.7-3.5,1.5-5.4c-0.3-1.9-1.3-3.7-2.9-4.9c-1.7-1.3-5.8-4.3-8.8-6.8
				c0.3-0.6,0.7-1.3,1.1-1.9c1.1-2,2.4-4.3,3.7-7c2.3-5.1,3-10.7,1.9-16.2c-1.7-8.8-10.2-13.2-16.4-16.3c-2.1-1-4.1-2.1-6-3.5
				c-1.6-1-3-2.2-4.3-3.5c0-1.1,1.2-3.8,6.7-10.5c12.9-16.7,24.1-34.7,33.1-53.8c1.7-3,2.7-6.3,2.8-9.8c-0.8-7.3-4.6-13.9-10.6-18.1
				c-2.9-2.7-5.7-5.2-6-7.4c0.1-1.8,0.5-3.5,1.2-5.1c1.2-3.1,2.5-6.1,3.9-9.2c3.1-6.3,5.5-12.9,7.2-19.6c1.7-8.1,3.8-16.1,6.5-23.9
				c5.7-15.7,14.5-30.2,26-42.4c13.8-14.7,35.6-25,64.9-30.8c22.4-4.9,45.1-8.2,67.9-9.8c7.7-0.4,15.4-0.2,23,0.5
				c2.6,0.2,5.1-0.9,6.6-3s1.8-4.9,0.7-7.2c-1.1-2.4-3.3-4-5.9-4.2c-8.4-0.8-16.8-0.9-25.2-0.5c-23.5,1.6-46.9,5-70,10
				c-32.6,6.5-56.3,18-72.5,35.1c-12.8,13.7-22.7,29.8-29,47.3c-2.9,8.6-5.3,17.3-7.1,26.2c-1.5,5.7-3.6,11.2-6.2,16.5
				c-1.4,3.3-2.9,6.6-4.2,10c-1.6,3.8-2.3,8-2,12.2c1.5,6.5,5.3,12.2,10.6,16.1c3.5,3.2,5.9,5.5,5.9,7.5c-0.3,1.1-0.7,2.2-1.2,3.1
				c-8.7,18.2-19.3,35.5-31.7,51.5c-5.2,6.4-10.7,13.8-9.6,21.3C120.3,318.3,124,323.2,129.2,326.1z"/>
		</g>
		<g id="Shape_1_">
			<path class="st0" d="M205,163.3c4.4-12.1,11.1-23.2,19.9-32.6c9.6-10.2,26.3-17.7,49.6-22.4c3.9-0.8,6.5-4.6,5.7-8.5
				s-4.6-6.5-8.5-5.7c-26.3,5.2-45.5,14.2-57.3,26.6c-10.1,10.8-17.9,23.6-22.9,37.5c-2.4,7.2-4.4,14.6-5.9,22.1l14.1,3.1
				C201,176.6,202.8,169.9,205,163.3z"/>
		</g>
		<g id="Oval_1_">
			<circle class="st0" cx="183.7" cy="207.5" r="7.2"/>
		</g>
	</g>
	<g>
		<path class="st1" d="M277.7,313h-81.4c-6.6,0-12-5.4-12-12v-7.1c0-6.6,5.4-12,12-12h81.4c6.6,0,12,5.4,12,12v7.1
			C289.7,307.6,284.3,313,277.7,313z"/>
	</g>
	<g>
		<path class="st1" d="M350.1,140.7h-54.9c-6.6,0-12-5.4-12-12v-7.1c0-6.6,5.4-12,12-12h54.9c6.6,0,12,5.4,12,12v7.1
			C362.1,135.3,356.7,140.7,350.1,140.7z"/>
	</g>
	<g>
		<path class="st2" d="M304.8,130.3l-1.1-2.5h-5.5l-1.1,2.5h-3.2l5.7-12.3h2.6l5.8,12.3H304.8z M299.3,125.3h3.3l-1.7-3.9
			L299.3,125.3z"/>
		<path class="st2" d="M307.7,129.3l0.8-2.1c0.5,0.3,1,0.6,1.6,0.8s1.2,0.3,1.8,0.3c0.4,0,0.6-0.1,0.8-0.2c0.2-0.1,0.3-0.2,0.3-0.4
			c0-0.2-0.1-0.3-0.2-0.4s-0.4-0.2-0.8-0.3l-1.4-0.3c-0.9-0.2-1.5-0.5-1.9-0.9s-0.6-0.9-0.6-1.6c0-0.6,0.2-1.1,0.5-1.5
			s0.8-0.8,1.4-1s1.3-0.4,2-0.4c0.6,0,1.3,0.1,1.9,0.3c0.6,0.2,1.2,0.4,1.7,0.8l-0.8,2.1c-0.5-0.3-0.9-0.5-1.4-0.7s-0.9-0.2-1.4-0.2
			c-0.3,0-0.6,0.1-0.8,0.2c-0.2,0.1-0.3,0.3-0.3,0.5c0,0.1,0.1,0.2,0.2,0.3c0.1,0.1,0.3,0.2,0.7,0.2l1.5,0.3c0.9,0.2,1.6,0.5,2,1
			c0.4,0.4,0.6,1,0.6,1.7c0,0.9-0.3,1.5-1,2s-1.6,0.7-2.8,0.7C310.1,130.4,308.7,130,307.7,129.3z"/>
		<path class="st2" d="M316.5,129.3l0.8-2.1c0.5,0.3,1,0.6,1.6,0.8s1.2,0.3,1.8,0.3c0.4,0,0.6-0.1,0.8-0.2c0.2-0.1,0.3-0.2,0.3-0.4
			c0-0.2-0.1-0.3-0.2-0.4s-0.4-0.2-0.8-0.3l-1.4-0.3c-0.9-0.2-1.5-0.5-1.9-0.9s-0.6-0.9-0.6-1.6c0-0.6,0.2-1.1,0.5-1.5
			s0.8-0.8,1.4-1s1.3-0.4,2-0.4c0.6,0,1.3,0.1,1.9,0.3c0.6,0.2,1.2,0.4,1.7,0.8l-0.8,2.1c-0.5-0.3-0.9-0.5-1.4-0.7s-0.9-0.2-1.4-0.2
			c-0.3,0-0.6,0.1-0.8,0.2c-0.2,0.1-0.3,0.3-0.3,0.5c0,0.1,0.1,0.2,0.2,0.3c0.1,0.1,0.3,0.2,0.7,0.2l1.5,0.3c0.9,0.2,1.6,0.5,2,1
			c0.4,0.4,0.6,1,0.6,1.7c0,0.9-0.3,1.5-1,2s-1.6,0.7-2.8,0.7C318.9,130.4,317.5,130,316.5,129.3z"/>
		<path class="st2" d="M333.9,126.2h-5.5c0.1,0.7,0.3,1.2,0.6,1.5c0.3,0.3,0.8,0.4,1.5,0.4c0.4,0,0.9-0.1,1.3-0.2s0.8-0.3,1.2-0.6
			l0.8,2.1c-0.4,0.3-1,0.6-1.6,0.8s-1.2,0.3-1.9,0.3c-1,0-1.9-0.2-2.6-0.6c-0.7-0.4-1.3-0.9-1.7-1.6c-0.4-0.7-0.6-1.5-0.6-2.4
			s0.2-1.7,0.6-2.4c0.4-0.7,0.9-1.2,1.6-1.6s1.4-0.6,2.3-0.6c0.8,0,1.6,0.2,2.2,0.6s1.1,0.9,1.4,1.6s0.5,1.5,0.5,2.4L333.9,126.2
			L333.9,126.2z M328.5,124.7h2.8c-0.1-0.9-0.6-1.3-1.3-1.3C329.1,123.4,328.7,123.8,328.5,124.7z"/>
		<path class="st2" d="M341.2,127.8v2.4c-0.4,0.2-1,0.3-1.6,0.3c-1.2,0-2.1-0.3-2.7-1s-0.9-1.6-0.9-2.8v-2.8h-1.6v-2.3h1.6v-2l3.1-1
			v3h2.1v2.3h-2.1v2.8c0,0.4,0.1,0.7,0.4,0.9c0.2,0.2,0.6,0.3,0.9,0.3C340.6,127.9,340.8,127.8,341.2,127.8z"/>
		<path class="st2" d="M341.8,129.3l0.8-2.1c0.5,0.3,1,0.6,1.6,0.8s1.2,0.3,1.8,0.3c0.4,0,0.6-0.1,0.8-0.2c0.2-0.1,0.3-0.2,0.3-0.4
			c0-0.2-0.1-0.3-0.2-0.4s-0.4-0.2-0.8-0.3l-1.4-0.3c-0.9-0.2-1.5-0.5-1.9-0.9s-0.6-0.9-0.6-1.6c0-0.6,0.2-1.1,0.5-1.5
			s0.8-0.8,1.4-1s1.3-0.4,2-0.4c0.6,0,1.3,0.1,1.9,0.3c0.6,0.2,1.2,0.4,1.7,0.8l-0.8,2.1c-0.5-0.3-0.9-0.5-1.4-0.7s-0.9-0.2-1.4-0.2
			c-0.3,0-0.6,0.1-0.8,0.2c-0.2,0.1-0.3,0.3-0.3,0.5c0,0.1,0.1,0.2,0.2,0.3c0.1,0.1,0.3,0.2,0.7,0.2l1.5,0.3c0.9,0.2,1.6,0.5,2,1
			c0.4,0.4,0.6,1,0.6,1.7c0,0.9-0.3,1.5-1,2s-1.6,0.7-2.8,0.7C344.1,130.4,342.8,130,341.8,129.3z"/>
	</g>
	<g>
		<path class="st2" d="M196.8,302.4v-12.3h3.2v9.7h5.2v2.6L196.8,302.4L196.8,302.4z"/>
		<path class="st2" d="M206.6,289.3h3.3v2.8h-3.3V289.3z M206.7,302.4v-8.8h3.1v8.8H206.7z"/>
		<path class="st2" d="M220.9,293.6v8.8h-3.1v-1.2c-0.3,0.4-0.6,0.7-1.1,1c-0.5,0.2-1,0.4-1.6,0.4c-0.7,0-1.4-0.2-2-0.6
			s-1-0.9-1.4-1.6c-0.3-0.7-0.5-1.5-0.5-2.4s0.2-1.7,0.5-2.4c0.3-0.7,0.8-1.2,1.4-1.6c0.6-0.4,1.2-0.6,2-0.6c0.6,0,1.1,0.1,1.6,0.4
			c0.5,0.2,0.8,0.6,1.1,1v-1.1L220.9,293.6L220.9,293.6z M217.4,299.6c0.3-0.4,0.4-0.9,0.4-1.6s-0.1-1.3-0.4-1.7
			c-0.3-0.4-0.7-0.6-1.3-0.6c-0.5,0-1,0.2-1.3,0.6s-0.5,1-0.5,1.7s0.1,1.2,0.4,1.6c0.3,0.4,0.7,0.6,1.3,0.6
			C216.6,300.2,217.1,300,217.4,299.6z"/>
		<path class="st2" d="M230.6,294c0.6,0.4,1,0.9,1.4,1.6c0.3,0.7,0.5,1.5,0.5,2.4s-0.2,1.7-0.5,2.4c-0.3,0.7-0.8,1.2-1.4,1.6
			c-0.6,0.4-1.3,0.6-2,0.6c-0.6,0-1.1-0.1-1.6-0.4c-0.5-0.2-0.8-0.6-1.1-1v1.2h-3.1v-12.7h3.1v5c0.3-0.4,0.6-0.7,1.1-0.9
			c0.5-0.2,1-0.4,1.6-0.4C229.3,293.4,230,293.6,230.6,294z M228.9,299.6c0.3-0.4,0.4-1,0.4-1.7s-0.1-1.2-0.4-1.6
			c-0.3-0.4-0.7-0.6-1.3-0.6s-1,0.2-1.3,0.6s-0.4,0.9-0.4,1.6s0.1,1.3,0.4,1.7c0.3,0.4,0.7,0.6,1.3,0.6
			C228.1,300.2,228.6,300,228.9,299.6z"/>
		<path class="st2" d="M233.8,289.3h3.3v2.8h-3.3V289.3z M233.9,302.4v-8.8h3.1v8.8H233.9z"/>
		<path class="st2" d="M238.9,302.4v-12.7h3.1v12.7H238.9z"/>
		<path class="st2" d="M243.8,289.3h3.3v2.8h-3.3V289.3z M243.9,302.4v-8.8h3.1v8.8H243.9z"/>
		<path class="st2" d="M254.9,299.9v2.4c-0.4,0.2-1,0.3-1.6,0.3c-1.2,0-2.1-0.3-2.7-1c-0.6-0.7-0.9-1.6-0.9-2.8V296H248v-2.3h1.6v-2
			l3.1-1v3h2.1v2.3h-2.1v2.8c0,0.4,0.1,0.7,0.4,0.9c0.2,0.2,0.6,0.3,0.9,0.3C254.2,300,254.5,300,254.9,299.9z"/>
		<path class="st2" d="M255.9,289.3h3.3v2.8h-3.3L255.9,289.3L255.9,289.3z M256,302.4v-8.8h3.1v8.8H256z"/>
		<path class="st2" d="M269.1,298.3h-5.5c0.1,0.7,0.3,1.2,0.6,1.5c0.3,0.3,0.8,0.4,1.5,0.4c0.4,0,0.9-0.1,1.3-0.2s0.8-0.3,1.2-0.6
			l0.8,2.1c-0.4,0.3-1,0.6-1.6,0.8c-0.6,0.2-1.2,0.3-1.9,0.3c-1,0-1.9-0.2-2.6-0.6s-1.3-0.9-1.7-1.6c-0.4-0.7-0.6-1.5-0.6-2.4
			s0.2-1.7,0.6-2.4c0.4-0.7,0.9-1.2,1.6-1.6s1.4-0.6,2.3-0.6c0.8,0,1.6,0.2,2.2,0.6s1.1,0.9,1.4,1.6s0.5,1.5,0.5,2.4L269.1,298.3
			L269.1,298.3z M263.6,296.9h2.8c-0.1-0.9-0.6-1.3-1.3-1.3C264.3,295.5,263.8,296,263.6,296.9z"/>
		<path class="st2" d="M270,301.5l0.8-2.1c0.5,0.3,1,0.6,1.6,0.8c0.6,0.2,1.2,0.3,1.8,0.3c0.4,0,0.6-0.1,0.8-0.2
			c0.2-0.1,0.3-0.2,0.3-0.4c0-0.2-0.1-0.3-0.2-0.4s-0.4-0.2-0.8-0.3l-1.4-0.3c-0.9-0.2-1.5-0.5-1.9-0.9s-0.6-0.9-0.6-1.6
			c0-0.6,0.2-1.1,0.5-1.5s0.8-0.8,1.4-1s1.3-0.4,2-0.4c0.6,0,1.3,0.1,1.9,0.3c0.6,0.2,1.2,0.4,1.7,0.8l-0.8,2.1
			c-0.5-0.3-0.9-0.5-1.4-0.7s-0.9-0.2-1.4-0.2c-0.3,0-0.6,0.1-0.8,0.2c-0.2,0.1-0.3,0.3-0.3,0.5c0,0.1,0.1,0.2,0.2,0.3
			c0.1,0.1,0.3,0.2,0.7,0.2l1.5,0.3c0.9,0.2,1.6,0.5,2,1c0.4,0.4,0.6,1,0.6,1.7c0,0.9-0.3,1.5-1,2s-1.6,0.7-2.8,0.7
			C272.4,302.5,271,302.2,270,301.5z"/>
	</g>
	<g>
		<path class="st1" d="M522.3,211.6H467c-6.6,0-12-5.4-12-12v-7.1c0-6.6,5.4-12,12-12h55.3c6.6,0,12,5.4,12,12v7.1
			C534.3,206.2,528.9,211.6,522.3,211.6z"/>
	</g>
	<g>
		<path class="st2" d="M468,201.1v-12.3h8.8v2.5h-5.6v2.3h5.2v2.5h-5.2v2.5h5.6v2.5H468z"/>
		<path class="st2" d="M487.6,192.3c-0.1,0.7-0.2,1.5-0.2,2.5v10h-3.1V200c-0.3,0.4-0.6,0.7-1.1,0.9s-1,0.3-1.5,0.3
			c-0.7,0-1.4-0.2-2-0.6c-0.6-0.4-1-0.9-1.4-1.6c-0.3-0.7-0.5-1.5-0.5-2.4s0.2-1.7,0.5-2.4s0.8-1.2,1.4-1.6c0.6-0.4,1.2-0.6,2-0.6
			c0.6,0,1.2,0.1,1.7,0.4c0.5,0.3,0.9,0.7,1.1,1.1l0.2-1.3h2.9V192.3z M483.9,198.4c0.3-0.4,0.4-0.9,0.4-1.6c0-0.7-0.1-1.3-0.4-1.7
			s-0.7-0.6-1.3-0.6c-0.5,0-1,0.2-1.3,0.6c-0.3,0.4-0.5,1-0.5,1.7s0.1,1.2,0.4,1.6c0.3,0.4,0.7,0.6,1.3,0.6
			C483.2,198.9,483.6,198.7,483.9,198.4z"/>
		<path class="st2" d="M498.1,192.3v8.8H495v-1.2c-0.6,0.9-1.4,1.3-2.5,1.3s-1.9-0.3-2.5-0.9c-0.5-0.6-0.8-1.6-0.8-2.8v-5.1h3.1v5.2
			c0,0.9,0.4,1.3,1.1,1.3c0.4,0,0.8-0.2,1.1-0.5c0.3-0.3,0.4-0.7,0.4-1.2v-4.8h3.2V192.3z"/>
		<path class="st2" d="M499.9,188h3.3v2.8h-3.3V188z M500,201.1v-8.8h3.1v8.8H500z"/>
		<path class="st2" d="M511,198.6v2.4c-0.4,0.2-1,0.3-1.6,0.3c-1.2,0-2.1-0.3-2.7-1s-0.9-1.6-0.9-2.8v-2.8h-1.6v-2.3h1.6v-2l3.1-1v3
			h2.1v2.3h-2.1v2.8c0,0.4,0.1,0.7,0.4,0.9c0.2,0.2,0.6,0.3,0.9,0.3C510.4,198.7,510.7,198.7,511,198.6z"/>
		<path class="st2" d="M521.4,192.3l-4,9.1c-0.5,1.2-1.2,2.1-2,2.6s-1.8,0.9-3,1l-0.7-2.4c0.8-0.2,1.4-0.4,1.8-0.6
			c0.4-0.3,0.7-0.6,0.9-1.1l0.2-0.5l-3.6-8.2h3.2l2,5.1l2-5.1L521.4,192.3L521.4,192.3z"/>
	</g>
	<g>
		<g>
			<g>
				<g>
					<g>
						<path class="st1" d="M380.6,340.5l-1.9-0.6c-0.6-0.2-1.1-0.8-1.1-1.5c0-1,0.8-1.8,1.8-1.8s1.8,0.8,1.8,1.8h1.8
							c0-1.6-1.1-3-2.6-3.4v-1.9h-1.8v1.9c-1.5,0.4-2.6,1.8-2.6,3.4c0,1.4,0.9,2.7,2.3,3.1l1.9,0.6c0.6,0.2,1.1,0.8,1.1,1.5
							c0,1-0.8,1.8-1.8,1.8s-1.8-0.8-1.8-1.8h-1.8c0,1.6,1.1,3,2.6,3.4v1.9h1.8V347c1.5-0.4,2.6-1.8,2.6-3.4
							C382.9,342.2,382,340.9,380.6,340.5z"/>
					</g>
				</g>
			</g>
			<g>
				<g>
					<g>
						<path class="st1" d="M411,326.9h-17.8c-1.9-2.3-4.2-4.1-6.8-5.4v-3.8l3.2-2.4c0.2-0.2,0.4-0.4,0.4-0.7v-6.2
							c0-0.5-0.4-0.9-0.9-0.9h-3.5c-0.2,0-0.5,0.1-0.6,0.3l-1.1,1.1l-1.1-1.1c-0.2-0.2-0.4-0.3-0.6-0.3h-5.3c-0.2,0-0.5,0.1-0.6,0.3
							L375,309l-1.1-1.1c-0.2-0.2-0.4-0.3-0.6-0.3h-3.5c-0.5,0-0.9,0.4-0.9,0.9v6.2c0,0.3,0.1,0.5,0.4,0.7l3.2,2.4v3.8
							c-6.7,3.2-13.2,11.9-13.2,23c0,10.1,7.4,15.9,20.2,15.9c2.1,0,4.2-0.2,6.2-0.6c0.1,0.3,0.5,0.6,0.8,0.6H411
							c0.5,0,0.9-0.4,0.9-0.9V328C411.9,327.3,411.5,326.9,411,326.9z M370.6,314.2v-4.8h2.3l1.5,1.5c0.3,0.3,0.9,0.3,1.2,0l1.5-1.5
							h4.5l1.5,1.5c0.3,0.3,0.9,0.3,1.2,0l1.5-1.5h2.3v4.8l-2.9,2.2h-11.7L370.6,314.2z M384.6,318.2v2.6h-10.5v-2.6H384.6z
							 M385.5,348.5c-4.1,3.4-10.2,2.8-13.6-1.3c-3.4-4.1-2.8-10.2,1.3-13.6c3.6-3,8.8-3,12.3,0L385.5,348.5L385.5,348.5z
							 M385.5,327.8v3.6c-5.3-3.4-12.4-1.9-15.8,3.4s-1.9,12.4,3.4,15.8c3.8,2.4,8.6,2.4,12.3,0v7.4c-2,0.4-4.1,0.6-6.2,0.6
							c-5.5,0-18.5-1.4-18.5-14.1c0-8.4,5-18.9,13.5-21.9h10c2.5,0.9,4.7,2.4,6.5,4.4h-4.5C385.9,326.9,385.5,327.3,385.5,327.8z
							 M410.1,358.6h-22.9v-22.9h22.9V358.6z M410.1,334h-22.9v-5.3h22.9V334z"/>
					</g>
				</g>
			</g>
			<g>
				<g>
					<g>
						<path class="st1" d="M393.4,337.5h-3.5c-0.5,0-0.9,0.4-0.9,0.9v3.5c0,0.5,0.4,0.9,0.9,0.9h3.5c0.5,0,0.9-0.4,0.9-0.9v-3.5
							C394.3,337.9,393.9,337.5,393.4,337.5z M392.6,341h-1.8v-1.8h1.8V341z"/>
					</g>
				</g>
			</g>
			<g>
				<g>
					<g>
						<path class="st1" d="M400.5,337.5H397c-0.5,0-0.9,0.4-0.9,0.9v3.5c0,0.5,0.4,0.9,0.9,0.9h3.5c0.5,0,0.9-0.4,0.9-0.9v-3.5
							C401.3,337.9,401,337.5,400.5,337.5z M399.6,341h-1.8v-1.8h1.8V341z"/>
					</g>
				</g>
			</g>
			<g>
				<g>
					<g>
						<path class="st1" d="M407.5,337.5H404c-0.5,0-0.9,0.4-0.9,0.9v3.5c0,0.5,0.4,0.9,0.9,0.9h3.5c0.5,0,0.9-0.4,0.9-0.9v-3.5
							C408.4,337.9,408,337.5,407.5,337.5z M406.6,341h-1.8v-1.8h1.8V341z"/>
					</g>
				</g>
			</g>
			<g>
				<g>
					<g>
						<path class="st1" d="M393.4,344.5h-3.5c-0.5,0-0.9,0.4-0.9,0.9v3.5c0,0.5,0.4,0.9,0.9,0.9h3.5c0.5,0,0.9-0.4,0.9-0.9v-3.5
							C394.3,344.9,393.9,344.5,393.4,344.5z M392.6,348h-1.8v-1.8h1.8V348z"/>
					</g>
				</g>
			</g>
			<g>
				<g>
					<g>
						<path class="st1" d="M400.5,344.5H397c-0.5,0-0.9,0.4-0.9,0.9v3.5c0,0.5,0.4,0.9,0.9,0.9h3.5c0.5,0,0.9-0.4,0.9-0.9v-3.5
							C401.3,344.9,401,344.5,400.5,344.5z M399.6,348h-1.8v-1.8h1.8V348z"/>
					</g>
				</g>
			</g>
			<g>
				<g>
					<g>
						<path class="st1" d="M393.4,351.6h-3.5c-0.5,0-0.9,0.4-0.9,0.9v3.5c0,0.5,0.4,0.9,0.9,0.9h3.5c0.5,0,0.9-0.4,0.9-0.9v-3.5
							C394.3,351.9,393.9,351.6,393.4,351.6z M392.6,355.1h-1.8v-1.8h1.8V355.1z"/>
					</g>
				</g>
			</g>
			<g>
				<g>
					<g>
						<path class="st1" d="M400.5,351.6H397c-0.5,0-0.9,0.4-0.9,0.9v3.5c0,0.5,0.4,0.9,0.9,0.9h3.5c0.5,0,0.9-0.4,0.9-0.9v-3.5
							C401.3,351.9,401,351.6,400.5,351.6z M399.6,355.1h-1.8v-1.8h1.8V355.1z"/>
					</g>
				</g>
			</g>
			<g>
				<g>
					<g>
						<path class="st1" d="M407.5,344.5H404c-0.5,0-0.9,0.4-0.9,0.9v10.5c0,0.5,0.4,0.9,0.9,0.9h3.5c0.5,0,0.9-0.4,0.9-0.9v-10.5
							C408.4,344.9,408,344.5,407.5,344.5z M406.6,355.1h-1.8v-8.8h1.8V355.1z"/>
					</g>
				</g>
			</g>
			<g>
				<g>
					<g>
						<rect x="406.6" y="330.5" class="st1" width="1.8" height="1.8"/>
					</g>
				</g>
			</g>
			<g>
				<g>
					<g>
						<rect x="403.1" y="330.5" class="st1" width="1.8" height="1.8"/>
					</g>
				</g>
			</g>
			<g>
				<g>
					<g>
						<rect x="399.6" y="330.5" class="st1" width="1.8" height="1.8"/>
					</g>
				</g>
			</g>
		</g>
		<g>
			<path class="st1" d="M362.1,374.1c-0.8-0.4-1.4-1.1-1.9-1.9c-0.4-0.8-0.7-1.8-0.7-2.8c0-1.1,0.2-2,0.7-2.8s1.1-1.4,1.9-1.9
				c0.8-0.4,1.8-0.7,2.9-0.7c0.7,0,1.4,0.1,2,0.3s1.2,0.5,1.6,0.8l-0.8,2c-0.9-0.6-1.7-0.9-2.7-0.9c-0.8,0-1.5,0.3-2,0.8
				s-0.7,1.3-0.7,2.4s0.2,1.9,0.7,2.4s1.1,0.8,2,0.8s1.8-0.3,2.7-0.9l0.8,2c-0.4,0.4-0.9,0.6-1.6,0.8s-1.3,0.3-2,0.3
				C363.8,374.8,362.9,374.6,362.1,374.1z"/>
			<path class="st1" d="M377.6,367.2v7.5H375v-1c-0.2,0.4-0.5,0.6-0.9,0.8c-0.4,0.2-0.9,0.3-1.4,0.3c-0.6,0-1.2-0.2-1.7-0.5
				s-0.9-0.8-1.2-1.4c-0.3-0.6-0.4-1.3-0.4-2c0-0.8,0.1-1.5,0.4-2.1s0.7-1.1,1.2-1.4s1.1-0.5,1.7-0.5c0.5,0,0.9,0.1,1.4,0.3
				s0.7,0.5,1,0.9v-1h2.5V367.2z M374.6,372.3c0.3-0.3,0.4-0.8,0.4-1.4s-0.1-1.1-0.4-1.4s-0.6-0.5-1.1-0.5s-0.8,0.2-1.1,0.5
				c-0.3,0.3-0.4,0.8-0.4,1.4s0.1,1.1,0.4,1.4s0.6,0.5,1.1,0.5C373.9,372.8,374.3,372.6,374.6,372.3z"/>
			<path class="st1" d="M385.9,367.5c0.5,0.3,0.9,0.8,1.2,1.4c0.3,0.6,0.4,1.3,0.4,2.1c0,0.8-0.1,1.5-0.4,2c-0.3,0.6-0.7,1-1.2,1.4
				c-0.5,0.3-1.1,0.5-1.7,0.5c-0.5,0-0.9-0.1-1.3-0.3c-0.4-0.2-0.7-0.5-0.9-0.8v4.2h-2.7v-8.6c0-0.8,0-1.5-0.1-2.2h2.5l0.1,1.2
				c0.2-0.4,0.5-0.7,0.9-1s0.9-0.4,1.5-0.4C384.8,366.9,385.4,367.1,385.9,367.5z M384.4,372.3c0.2-0.3,0.4-0.8,0.4-1.4
				s-0.1-1.1-0.4-1.4s-0.6-0.5-1.1-0.5s-0.9,0.2-1.1,0.5c-0.3,0.3-0.4,0.8-0.4,1.4s0.1,1.1,0.4,1.4s0.6,0.5,1.1,0.5
				S384.2,372.6,384.4,372.3z"/>
			<path class="st1" d="M388.7,363.5h2.8v2.4h-2.8V363.5z M388.7,374.7v-7.5h2.7v7.5H388.7z"/>
			<path class="st1" d="M398.2,372.5v2c-0.4,0.1-0.8,0.2-1.4,0.2c-1,0-1.8-0.3-2.3-0.9s-0.8-1.4-0.8-2.4V369h-1.4v-2h1.4v-1.7
				l2.7-0.9v2.6h1.8v2h-1.8v2.4c0,0.4,0.1,0.6,0.3,0.8c0.2,0.2,0.5,0.3,0.8,0.3C397.6,372.6,397.9,372.6,398.2,372.5z"/>
			<path class="st1" d="M407.1,367.2v7.5h-2.6v-1c-0.2,0.4-0.5,0.6-0.9,0.8c-0.4,0.2-0.9,0.3-1.4,0.3c-0.6,0-1.2-0.2-1.7-0.5
				s-0.9-0.8-1.2-1.4c-0.3-0.6-0.4-1.3-0.4-2c0-0.8,0.1-1.5,0.4-2.1s0.7-1.1,1.2-1.4s1.1-0.5,1.7-0.5c0.5,0,0.9,0.1,1.4,0.3
				s0.7,0.5,1,0.9v-1h2.5V367.2z M404.1,372.3c0.3-0.3,0.4-0.8,0.4-1.4s-0.1-1.1-0.4-1.4s-0.6-0.5-1.1-0.5s-0.8,0.2-1.1,0.5
				c-0.3,0.3-0.4,0.8-0.4,1.4s0.1,1.1,0.4,1.4s0.6,0.5,1.1,0.5S403.8,372.6,404.1,372.3z"/>
			<path class="st1" d="M408.7,374.7v-10.9h2.7v10.9H408.7z"/>
		</g>
	</g>
	<g>
		<path class="st1" d="M415.4,125.3v-10.6h7.4v2.2h-4.6v1.9h4.3v2.2h-4.3v4.3H415.4z"/>
		<path class="st1" d="M423.8,114.1h2.8v2.4h-2.8V114.1z M423.9,125.3v-7.5h2.7v7.5H423.9z"/>
		<path class="st1" d="M435.2,118.4c0.4,0.5,0.7,1.4,0.7,2.4v4.5h-2.7v-4.4c0-0.5-0.1-0.8-0.2-1c-0.2-0.2-0.4-0.3-0.7-0.3
			c-0.4,0-0.7,0.1-1,0.4c-0.2,0.3-0.4,0.6-0.4,1.1v4.2h-2.7V120c0-0.8,0-1.5-0.1-2.2h2.5l0.1,1.1c0.3-0.4,0.6-0.8,1.1-1
			c0.4-0.2,0.9-0.3,1.4-0.3C434.1,117.6,434.8,117.9,435.2,118.4z"/>
		<path class="st1" d="M445.4,117.8v7.5h-2.6v-1c-0.2,0.4-0.5,0.6-0.9,0.8c-0.4,0.2-0.9,0.3-1.4,0.3c-0.6,0-1.2-0.2-1.7-0.5
			s-0.9-0.8-1.2-1.4c-0.3-0.6-0.4-1.3-0.4-2c0-0.8,0.1-1.5,0.4-2.1s0.7-1.1,1.2-1.4s1.1-0.5,1.7-0.5c0.5,0,0.9,0.1,1.4,0.3
			c0.4,0.2,0.7,0.5,1,0.9v-1L445.4,117.8L445.4,117.8z M442.4,123c0.3-0.3,0.4-0.8,0.4-1.4s-0.1-1.1-0.4-1.4s-0.6-0.5-1.1-0.5
			s-0.8,0.2-1.1,0.5c-0.3,0.3-0.4,0.8-0.4,1.4s0.1,1.1,0.4,1.4s0.6,0.5,1.1,0.5C441.7,123.4,442.1,123.3,442.4,123z"/>
		<path class="st1" d="M447.7,124.4c-0.7-0.7-1.1-1.6-1.1-2.8c0-0.8,0.2-1.5,0.5-2.1c0.4-0.6,0.8-1.1,1.5-1.4
			c0.6-0.3,1.4-0.5,2.2-0.5c0.6,0,1.1,0.1,1.6,0.2c0.5,0.2,1,0.4,1.3,0.7l-0.7,1.9c-0.3-0.2-0.6-0.4-0.9-0.5c-0.4-0.1-0.7-0.2-1-0.2
			c-0.6,0-1,0.2-1.3,0.5s-0.4,0.8-0.4,1.4s0.1,1.1,0.4,1.4s0.7,0.5,1.3,0.5c0.3,0,0.7-0.1,1-0.2c0.4-0.1,0.7-0.3,0.9-0.5l0.7,1.8
			c-0.3,0.3-0.8,0.5-1.3,0.7s-1.1,0.2-1.7,0.2C449.4,125.4,448.4,125.1,447.7,124.4z"/>
		<path class="st1" d="M454.5,114.1h2.8v2.4h-2.8V114.1z M454.6,125.3v-7.5h2.7v7.5H454.6z"/>
		<path class="st1" d="M466.8,117.8v7.5h-2.6v-1c-0.2,0.4-0.5,0.6-0.9,0.8c-0.4,0.2-0.9,0.3-1.4,0.3c-0.6,0-1.2-0.2-1.7-0.5
			s-0.9-0.8-1.2-1.4c-0.3-0.6-0.4-1.3-0.4-2c0-0.8,0.1-1.5,0.4-2.1s0.7-1.1,1.2-1.4s1.1-0.5,1.7-0.5c0.5,0,0.9,0.1,1.4,0.3
			c0.4,0.2,0.7,0.5,1,0.9v-1L466.8,117.8L466.8,117.8z M463.8,123c0.3-0.3,0.4-0.8,0.4-1.4s-0.1-1.1-0.4-1.4s-0.6-0.5-1.1-0.5
			s-0.8,0.2-1.1,0.5c-0.3,0.3-0.4,0.8-0.4,1.4s0.1,1.1,0.4,1.4s0.6,0.5,1.1,0.5C463.2,123.4,463.5,123.3,463.8,123z"/>
		<path class="st1" d="M468.4,125.3v-10.9h2.7v10.9H468.4z"/>
		<path class="st1" d="M405.4,137.5c-0.8-0.2-1.4-0.5-1.9-0.8l0.9-2c0.5,0.3,1.1,0.6,1.6,0.7c0.6,0.2,1.2,0.3,1.7,0.3
			c0.6,0,1-0.1,1.4-0.2c0.3-0.2,0.5-0.4,0.5-0.7s-0.1-0.5-0.4-0.7s-0.8-0.3-1.6-0.5c-1-0.2-1.8-0.4-2.3-0.7c-0.6-0.3-0.9-0.6-1.2-1
			c-0.2-0.4-0.3-0.9-0.3-1.4c0-0.6,0.2-1.2,0.5-1.7c0.4-0.5,0.9-0.9,1.5-1.2c0.7-0.3,1.4-0.4,2.3-0.4c0.8,0,1.5,0.1,2.2,0.3
			c0.7,0.2,1.3,0.5,1.7,0.8l-0.9,2c-0.5-0.3-1-0.6-1.5-0.7c-0.5-0.2-1-0.3-1.5-0.3s-0.9,0.1-1.2,0.3c-0.3,0.2-0.5,0.5-0.5,0.8
			c0,0.2,0.1,0.3,0.2,0.4c0.1,0.1,0.3,0.2,0.6,0.3c0.3,0.1,0.7,0.2,1.3,0.4c1,0.2,1.7,0.5,2.3,0.7c0.5,0.3,0.9,0.6,1.2,1
			c0.2,0.4,0.3,0.9,0.3,1.4c0,1-0.4,1.8-1.2,2.4c-0.8,0.6-1.9,0.9-3.4,0.9C407,137.8,406.2,137.7,405.4,137.5z"/>
		<path class="st1" d="M418.7,135.5v2c-0.4,0.1-0.8,0.2-1.4,0.2c-1,0-1.8-0.3-2.3-0.9c-0.5-0.6-0.8-1.4-0.8-2.4V132h-1.4v-2h1.4
			v-1.7l2.7-0.9v2.6h1.8v2h-1.8v2.4c0,0.4,0.1,0.6,0.3,0.8c0.2,0.2,0.5,0.3,0.8,0.3C418.2,135.6,418.4,135.6,418.7,135.5z"/>
		<path class="st1" d="M427.7,130.1v7.5H425v-1c-0.2,0.4-0.5,0.6-0.9,0.8s-0.9,0.3-1.4,0.3c-0.6,0-1.2-0.2-1.7-0.5s-0.9-0.8-1.2-1.4
			c-0.3-0.6-0.4-1.3-0.4-2c0-0.8,0.1-1.5,0.4-2.1s0.7-1.1,1.2-1.4c0.5-0.3,1.1-0.5,1.7-0.5c0.5,0,0.9,0.1,1.4,0.3
			c0.4,0.2,0.7,0.5,1,0.9v-1L427.7,130.1L427.7,130.1z M424.7,135.3c0.3-0.3,0.4-0.8,0.4-1.4c0-0.6-0.1-1.1-0.4-1.4
			c-0.3-0.3-0.6-0.5-1.1-0.5s-0.8,0.2-1.1,0.5c-0.3,0.3-0.4,0.8-0.4,1.4c0,0.6,0.1,1.1,0.4,1.4c0.3,0.3,0.6,0.5,1.1,0.5
			C424,135.8,424.4,135.6,424.7,135.3z"/>
		<path class="st1" d="M434.4,135.5v2c-0.4,0.1-0.8,0.2-1.4,0.2c-1,0-1.8-0.3-2.3-0.9c-0.5-0.6-0.8-1.4-0.8-2.4V132h-1.4v-2h1.4
			v-1.7l2.7-0.9v2.6h1.8v2h-1.8v2.4c0,0.4,0.1,0.6,0.3,0.8c0.2,0.2,0.5,0.3,0.8,0.3C433.9,135.6,434.1,135.6,434.4,135.5z"/>
		<path class="st1" d="M442.4,134.2h-4.7c0,0.6,0.2,1,0.5,1.3s0.7,0.4,1.3,0.4c0.4,0,0.8-0.1,1.1-0.2c0.4-0.1,0.7-0.3,1-0.5l0.7,1.8
			c-0.4,0.3-0.8,0.5-1.4,0.7c-0.5,0.2-1.1,0.2-1.6,0.2c-0.9,0-1.6-0.2-2.2-0.5s-1.1-0.8-1.5-1.4c-0.3-0.6-0.5-1.3-0.5-2.1
			s0.2-1.4,0.5-2s0.8-1.1,1.3-1.4s1.2-0.5,1.9-0.5c0.7,0,1.3,0.2,1.9,0.5c0.5,0.3,0.9,0.8,1.2,1.4c0.3,0.6,0.4,1.3,0.4,2.1v0.2
			H442.4z M437.7,132.9h2.4c-0.1-0.8-0.5-1.2-1.2-1.2C438.3,131.8,437.9,132.1,437.7,132.9z"/>
		<path class="st1" d="M455.2,130.7c0.4,0.5,0.6,1.3,0.6,2.4v4.5h-2.7v-4.4c0-0.4-0.1-0.8-0.2-1s-0.4-0.3-0.7-0.3
			c-0.4,0-0.7,0.1-0.9,0.4c-0.2,0.3-0.3,0.7-0.3,1.2v4.1h-2.7v-4.4c0-0.4-0.1-0.8-0.2-1s-0.4-0.3-0.7-0.3c-0.4,0-0.7,0.1-0.9,0.4
			c-0.2,0.3-0.3,0.7-0.3,1.2v4.1h-2.7v-5.4c0-0.8,0-1.5-0.1-2.2h2.5l0.1,1.1c0.2-0.4,0.5-0.7,1-0.9c0.4-0.2,0.9-0.3,1.4-0.3
			c1.1,0,1.8,0.5,2.2,1.4c0.3-0.4,0.6-0.7,1.1-1c0.4-0.2,0.9-0.4,1.4-0.4C454.1,129.9,454.7,130.2,455.2,130.7z"/>
		<path class="st1" d="M464.3,134.2h-4.7c0,0.6,0.2,1,0.5,1.3s0.7,0.4,1.3,0.4c0.4,0,0.8-0.1,1.1-0.2c0.4-0.1,0.7-0.3,1-0.5l0.7,1.8
			c-0.4,0.3-0.8,0.5-1.4,0.7c-0.5,0.2-1.1,0.2-1.6,0.2c-0.9,0-1.6-0.2-2.2-0.5s-1.1-0.8-1.5-1.4c-0.3-0.6-0.5-1.3-0.5-2.1
			s0.2-1.4,0.5-2s0.8-1.1,1.3-1.4s1.2-0.5,1.9-0.5c0.7,0,1.3,0.2,1.9,0.5c0.5,0.3,0.9,0.8,1.2,1.4c0.3,0.6,0.4,1.3,0.4,2.1v0.2
			H464.3z M459.6,132.9h2.4c-0.1-0.8-0.5-1.2-1.2-1.2C460.2,131.8,459.8,132.1,459.6,132.9z"/>
		<path class="st1" d="M472.6,130.7c0.4,0.5,0.7,1.4,0.7,2.4v4.5h-2.7v-4.4c0-0.5-0.1-0.8-0.2-1c-0.2-0.2-0.4-0.3-0.7-0.3
			c-0.4,0-0.7,0.1-1,0.4c-0.2,0.3-0.4,0.6-0.4,1.1v4.2h-2.7v-5.4c0-0.8,0-1.5-0.1-2.2h2.5l0.1,1.1c0.3-0.4,0.6-0.8,1.1-1
			c0.4-0.2,0.9-0.3,1.4-0.3C471.5,129.9,472.1,130.2,472.6,130.7z"/>
		<path class="st1" d="M479.9,135.5v2c-0.4,0.1-0.8,0.2-1.4,0.2c-1,0-1.8-0.3-2.3-0.9c-0.5-0.6-0.8-1.4-0.8-2.4V132H474v-2h1.4v-1.7
			l2.7-0.9v2.6h1.8v2h-1.8v2.4c0,0.4,0.1,0.6,0.3,0.8c0.2,0.2,0.5,0.3,0.8,0.3C479.4,135.6,479.7,135.6,479.9,135.5z"/>
		<path class="st1" d="M480.4,136.9l0.7-1.8c0.4,0.3,0.9,0.5,1.4,0.6c0.5,0.2,1,0.2,1.5,0.2c0.3,0,0.5,0,0.7-0.1s0.3-0.2,0.3-0.4
			c0-0.1-0.1-0.2-0.2-0.3s-0.4-0.2-0.7-0.2l-1.2-0.3c-0.8-0.2-1.3-0.4-1.7-0.7c-0.3-0.3-0.5-0.8-0.5-1.4c0-0.5,0.1-0.9,0.4-1.3
			c0.3-0.4,0.7-0.7,1.2-0.9s1.1-0.3,1.8-0.3c0.5,0,1.1,0.1,1.6,0.2c0.5,0.2,1,0.4,1.5,0.7l-0.7,1.8c-0.4-0.3-0.8-0.5-1.2-0.6
			c-0.4-0.1-0.8-0.2-1.2-0.2c-0.3,0-0.5,0-0.7,0.1s-0.3,0.2-0.3,0.4c0,0.1,0,0.2,0.1,0.3s0.3,0.1,0.6,0.2l1.3,0.3
			c0.8,0.2,1.4,0.5,1.7,0.8c0.4,0.4,0.5,0.9,0.5,1.5c0,0.7-0.3,1.3-0.9,1.7s-1.4,0.6-2.4,0.6C482.5,137.8,481.3,137.5,480.4,136.9z"
			/>
	</g>
	<g>
		<g>
			<path class="st1" d="M237.4,191.9c0-1.3-1.1-2.4-2.4-2.4h-7.2v-4c0-0.6-0.2-1.1-0.6-1.6c1.3-0.9,2.2-2.3,2.2-4v-2.4
				c0-2.6-2.1-4.8-4.8-4.8c-2.6,0-4.8,2.1-4.8,4.8v2.4c0,1.6,0.8,3,2,3.9c-0.3,0.8-0.6,1.6-0.8,2.5h-4.4c-1.3,0-2.4,1.1-2.4,2.4
				s1.1,2.4,2.4,2.4h0.8v7.2c0,1.6,0.9,2.9,2.2,3.6l-2.9,8.8c-0.1,0.2-0.1,0.5-0.1,0.7c0,1.2,1,2.2,2.2,2.2c0.9,0,1.7-0.6,2-1.4
				l1.2-3.3h8.1v4.8H247v-16h1.6v-4.8h-11.3C237.3,192.5,237.4,192.2,237.4,191.9z M235,191.1c0.4,0,0.8,0.4,0.8,0.8
				s-0.4,0.8-0.8,0.8h-9.6c-0.4,0-0.8-0.4-0.8-0.8v-6.4c0-0.4,0.4-0.8,0.8-0.8c0.4,0,0.8,0.4,0.8,0.8v5.6L235,191.1L235,191.1z
				 M225.4,194.3h4.8v3.2h-8v-7.6c0-1.6,0.3-3.3,0.8-4.8c0,0.2,0,0.3,0,0.5v6.4C223,193.2,224.1,194.3,225.4,194.3z M221.4,177.5
				c0-1.8,1.4-3.2,3.2-3.2s3.2,1.4,3.2,3.2v2.4c0,1.8-1.4,3.2-3.2,3.2s-3.2-1.4-3.2-3.2V177.5z M216.6,189.5c-0.4,0-0.8-0.4-0.8-0.8
				s0.4-0.8,0.8-0.8h4.1c-0.1,0.7-0.1,1.3-0.1,2v7.6c0,0.9,0.7,1.6,1.6,1.6h8v1.6h-8.8c-1.3,0-2.4-1.1-2.4-2.4v-8.8L216.6,189.5
				L216.6,189.5z M224.4,202.3h5.8v1.6h-6.4L224.4,202.3z M219.4,211.5c-0.1,0.2-0.3,0.4-0.6,0.4s-0.6-0.3-0.6-0.6
				c0-0.1,0-0.1,0-0.2l2.9-8.8c0.1,0,0.1,0,0.2,0h1.3L219.4,211.5z M222.7,207.1l0.6-1.6h7v1.6H222.7z M245.4,211.9h-13.6v-14.4
				h13.6V211.9z M247,195.9h-15.2v-1.6H247V195.9z"/>
		</g>
		<g>
			<path class="st1" d="M258.7,174.9c1.1-0.9,1.8-2.2,1.8-3.7v-2.4c0-2.6-2.1-4.8-4.8-4.8c-2.6,0-4.8,2.1-4.8,4.8v2.4
				c0,1.8,1,3.4,2.6,4.2c-0.5,0.4-0.9,0.9-1.2,1.4c-1,1.7-1.6,3.6-1.9,5.5h-4.2c-1.3,0-2.4,1.1-2.4,2.4s1.1,2.4,2.4,2.4h4v4.8h1.6
				v21.6h9.6v-34.3C261.4,177.3,260.3,175.7,258.7,174.9z M252.6,171.1v-2.4c0-1.8,1.4-3.2,3.2-3.2s3.2,1.4,3.2,3.2v2.4
				c0,1.8-1.4,3.2-3.2,3.2S252.6,172.9,252.6,171.1z M253.4,178.2v4.1H252C252.2,180.9,252.7,179.5,253.4,178.2z M245.4,184.7
				c0-0.4,0.4-0.8,0.8-0.8h8.8v-7.2c0-0.2,0.1-0.4,0.2-0.5c0.3-0.1,0.6-0.2,0.8-0.3c0.3,0.1,0.6,0.4,0.6,0.8v8
				c0,0.4-0.4,0.8-0.8,0.8h-9.6C245.7,185.5,245.4,185.2,245.4,184.7z M255.8,187.1c1.3,0,2.4-1.1,2.4-2.4v-8c0-0.1,0-0.2,0-0.4
				c1,0.6,1.6,1.6,1.6,2.8v11.1h-8V187L255.8,187.1L255.8,187.1z M253.4,191.9h1.6v20h-1.6V191.9z M256.6,211.9v-20h3.2v20H256.6z"
				/>
		</g>
		<g>
			<path class="st1" d="M244.6,167.1h1.6v1.6h-1.6V167.1z"/>
		</g>
		<g>
			<path class="st1" d="M241.4,167.1h1.6v1.6h-1.6V167.1z"/>
		</g>
		<g>
			<path class="st1" d="M238.2,167.1h1.6v1.6h-1.6V167.1z"/>
		</g>
		<g>
			<path class="st1" d="M244.6,174.9v-3h4.8v-8H235v8h4.6L244.6,174.9z M236.6,165.5h11.2v4.8H243v1.8l-3-1.8h-3.4V165.5z"/>
		</g>
		<g>
			<path class="st1" d="M234.2,179.9h1.6v1.6h-1.6V179.9z"/>
		</g>
		<g>
			<path class="st1" d="M237.4,179.9h1.6v1.6h-1.6V179.9z"/>
		</g>
		<g>
			<path class="st1" d="M235.8,187l3.4-2.3h3v-8H231v8h4.8V187z M232.6,183.1v-4.8h8v4.8h-1.8l-1.4,0.9v-0.9H232.6z"/>
		</g>
	</g>
	<g>
		<path class="st1" d="M197,228c-0.8-0.2-1.4-0.5-1.9-0.8l0.9-2c0.5,0.3,1.1,0.6,1.6,0.7c0.6,0.2,1.2,0.3,1.7,0.3
			c0.6,0,1-0.1,1.4-0.2c0.3-0.2,0.5-0.4,0.5-0.7s-0.1-0.5-0.4-0.7c-0.3-0.2-0.8-0.3-1.6-0.5c-1-0.2-1.8-0.4-2.3-0.7
			c-0.6-0.3-0.9-0.6-1.2-1c-0.2-0.4-0.3-0.9-0.3-1.4c0-0.6,0.2-1.2,0.5-1.7c0.4-0.5,0.9-0.9,1.5-1.2c0.7-0.3,1.4-0.4,2.3-0.4
			c0.8,0,1.5,0.1,2.2,0.3s1.3,0.5,1.7,0.8l-0.9,2c-0.5-0.3-1-0.6-1.5-0.7c-0.5-0.2-1-0.3-1.5-0.3s-0.9,0.1-1.2,0.3s-0.5,0.5-0.5,0.8
			c0,0.2,0.1,0.3,0.2,0.4c0.1,0.1,0.3,0.2,0.6,0.3s0.7,0.2,1.3,0.4c1,0.2,1.7,0.5,2.3,0.7c0.5,0.3,0.9,0.6,1.2,1
			c0.2,0.4,0.3,0.9,0.3,1.4c0,1-0.4,1.8-1.2,2.4c-0.8,0.6-1.9,0.9-3.4,0.9C198.5,228.3,197.8,228.2,197,228z"/>
		<path class="st1" d="M212.9,220.7v7.5h-2.6v-1c-0.5,0.8-1.2,1.1-2.1,1.1c-1,0-1.7-0.3-2.1-0.8c-0.5-0.5-0.7-1.3-0.7-2.4v-4.4h2.7
			v4.5c0,0.7,0.3,1.1,1,1.1c0.4,0,0.7-0.1,0.9-0.4c0.2-0.3,0.3-0.6,0.3-1.1v-4.1L212.9,220.7L212.9,220.7z"/>
		<path class="st1" d="M221.2,221c0.5,0.3,0.9,0.8,1.2,1.4c0.3,0.6,0.4,1.3,0.4,2.1s-0.1,1.5-0.4,2c-0.3,0.6-0.7,1-1.2,1.4
			c-0.5,0.3-1.1,0.5-1.7,0.5c-0.5,0-0.9-0.1-1.3-0.3c-0.4-0.2-0.7-0.5-0.9-0.8v4.2h-2.7v-8.6c0-0.8,0-1.5-0.1-2.2h2.5l0.1,1.2
			c0.2-0.4,0.5-0.7,0.9-1s0.9-0.4,1.5-0.4C220.1,220.5,220.7,220.6,221.2,221z M219.7,225.9c0.2-0.3,0.4-0.8,0.4-1.4
			c0-0.6-0.1-1.1-0.4-1.4c-0.3-0.3-0.6-0.5-1.1-0.5s-0.9,0.2-1.1,0.5c-0.3,0.3-0.4,0.8-0.4,1.4c0,0.6,0.1,1.1,0.4,1.4
			c0.3,0.3,0.6,0.5,1.1,0.5C219.1,226.3,219.5,226.2,219.7,225.9z"/>
		<path class="st1" d="M231,224.7h-4.7c0,0.6,0.2,1,0.5,1.3s0.7,0.4,1.3,0.4c0.4,0,0.8-0.1,1.1-0.2c0.4-0.1,0.7-0.3,1-0.5l0.7,1.8
			c-0.4,0.3-0.8,0.5-1.4,0.7c-0.5,0.2-1.1,0.2-1.6,0.2c-0.9,0-1.6-0.2-2.2-0.5c-0.6-0.3-1.1-0.8-1.5-1.4c-0.3-0.6-0.5-1.3-0.5-2.1
			s0.2-1.4,0.5-2s0.8-1.1,1.3-1.4c0.6-0.3,1.2-0.5,1.9-0.5s1.3,0.2,1.9,0.5c0.5,0.3,0.9,0.8,1.2,1.4s0.4,1.3,0.4,2.1v0.2H231z
			 M226.3,223.5h2.4c-0.1-0.8-0.5-1.2-1.2-1.2C226.9,222.3,226.5,222.7,226.3,223.5z"/>
		<path class="st1" d="M237.8,220.7v2.4c-0.4-0.2-0.8-0.3-1.2-0.3c-1.1,0-1.7,0.5-1.7,1.6v3.8h-2.7v-5.4c0-0.8,0-1.5-0.1-2.2h2.5
			l0.2,1.3c0.2-0.5,0.5-0.8,0.9-1.1c0.4-0.2,0.8-0.4,1.3-0.4C237.4,220.5,237.6,220.6,237.8,220.7z"/>
		<path class="st1" d="M244.2,220.7h2.6l-3.3,7.5h-2.2l-3.3-7.5h2.8l1.7,4.3L244.2,220.7z"/>
		<path class="st1" d="M247.3,217h2.8v2.4h-2.8V217z M247.3,228.2v-7.5h2.7v7.5H247.3z"/>
		<path class="st1" d="M251.1,227.4l0.7-1.8c0.4,0.3,0.9,0.5,1.4,0.6c0.5,0.2,1,0.2,1.5,0.2c0.3,0,0.5,0,0.7-0.1s0.3-0.2,0.3-0.4
			c0-0.1-0.1-0.2-0.2-0.3c-0.1-0.1-0.4-0.2-0.7-0.2l-1.2-0.3c-0.8-0.2-1.3-0.4-1.7-0.7c-0.3-0.3-0.5-0.8-0.5-1.4
			c0-0.5,0.1-0.9,0.4-1.3c0.3-0.4,0.7-0.7,1.2-0.9s1.1-0.3,1.8-0.3c0.5,0,1.1,0.1,1.6,0.2c0.5,0.2,1,0.4,1.5,0.7l-0.7,1.8
			c-0.4-0.3-0.8-0.5-1.2-0.6c-0.4-0.1-0.8-0.2-1.2-0.2c-0.3,0-0.5,0-0.7,0.1s-0.3,0.2-0.3,0.4c0,0.1,0,0.2,0.1,0.3s0.3,0.1,0.6,0.2
			l1.3,0.3c0.8,0.2,1.4,0.5,1.7,0.8c0.4,0.4,0.5,0.9,0.5,1.5c0,0.7-0.3,1.3-0.9,1.7s-1.4,0.6-2.4,0.6
			C253.2,228.3,252,228,251.1,227.4z"/>
		<path class="st1" d="M259.1,217h2.8v2.4h-2.8V217z M259.1,228.2v-7.5h2.7v7.5H259.1z"/>
		<path class="st1" d="M265,227.9c-0.6-0.3-1.1-0.8-1.4-1.4c-0.3-0.6-0.5-1.3-0.5-2.1s0.2-1.5,0.5-2.1s0.8-1,1.4-1.4
			c0.6-0.3,1.4-0.5,2.2-0.5c0.8,0,1.6,0.2,2.2,0.5s1.1,0.8,1.4,1.4c0.3,0.6,0.5,1.3,0.5,2.1s-0.2,1.5-0.5,2.1s-0.8,1-1.4,1.4
			c-0.6,0.3-1.3,0.5-2.2,0.5C266.4,228.3,265.6,228.2,265,227.9z M268.7,224.4c0-0.7-0.1-1.1-0.4-1.4c-0.2-0.3-0.6-0.5-1.1-0.5
			s-0.9,0.2-1.1,0.5s-0.4,0.8-0.4,1.4c0,0.7,0.1,1.1,0.4,1.5c0.2,0.3,0.6,0.5,1.1,0.5C268.2,226.3,268.7,225.7,268.7,224.4z"/>
		<path class="st1" d="M279.6,221.3c0.4,0.5,0.7,1.4,0.7,2.4v4.5h-2.7v-4.4c0-0.5-0.1-0.8-0.2-1c-0.2-0.2-0.4-0.3-0.7-0.3
			c-0.4,0-0.7,0.1-1,0.4c-0.2,0.3-0.4,0.6-0.4,1.1v4.2h-2.7v-5.4c0-0.8,0-1.5-0.1-2.2h2.5l0.1,1.1c0.3-0.4,0.6-0.8,1.1-1
			c0.4-0.2,0.9-0.3,1.4-0.3C278.5,220.5,279.2,220.7,279.6,221.3z"/>
	</g>
	<g>
		
			<rect x="370.7" y="279.4" transform="matrix(0.9465 -0.3226 0.3226 0.9465 -74.192 135.585)" class="st1" width="2.5" height="24.5"/>
	</g>
	<g>
		<rect x="321.4" y="140.8" class="st1" width="2.5" height="46.2"/>
	</g>
	<g>
		
			<rect x="222.6" y="264.7" transform="matrix(0.8637 -0.5041 0.5041 0.8637 -99.0289 165.7441)" class="st1" width="68.5" height="2.5"/>
	</g>
	<g>
		
			<rect x="423.7" y="194.8" transform="matrix(0.9998 -1.992184e-02 1.992184e-02 0.9998 -3.8183 8.8115)" class="st1" width="33.3" height="2.5"/>
	</g>
	<g>
		
			<rect x="264.2" y="194.8" transform="matrix(1 -9.959950e-03 9.959950e-03 1 -1.9388 2.8116)" class="st1" width="34.2" height="2.5"/>
	</g>
	<g>
		
			<rect x="416.5" y="160.7" transform="matrix(0.6142 -0.7892 0.7892 0.6142 40.107 405.92)" class="st1" width="37.4" height="2.5"/>
	</g>
	<g>
		<g>
			<path class="st1" d="M463.8,101.8V64.1c0-2.2-1.8-4-4-4h-35.3c-2.2,0-4,1.8-4,4v21.7h6.4v20.1c0,2.2,1.8,4,4,4h35.3
				c2.2,0,4-1.8,4-4v-4L463.8,101.8L463.8,101.8z M426.9,84.2h-4.8V64.1c0-1.3,1.1-2.4,2.4-2.4s2.4,1.1,2.4,2.4V84.2z M433.3,105.9
				c0,1.3-1.1,2.4-2.4,2.4s-2.4-1.1-2.4-2.4V64.1c0-0.9-0.3-1.7-0.8-2.4h32.1c1.3,0,2.4,1.1,2.4,2.4v37.7h-1.6V89h-4.8v12.8h-1.6
				v-9.6h-4.8v9.6h-1.6v-8H443v8h-1.6V97h-4.8v4.8h-3.2v4.1H433.3z M459,101.8h-1.6V90.6h1.6V101.8z M452.6,101.8H451v-8h1.6V101.8z
				 M446.1,101.8h-1.6v-6.4h1.6V101.8z M439.7,101.8h-1.6v-3.2h1.6V101.8z M468.6,105.9c0,1.3-1.1,2.4-2.4,2.4h-32.1
				c0.5-0.7,0.8-1.5,0.8-2.4v-2.4h33.7V105.9z"/>
		</g>
		<g>
			<path class="st1" d="M433.3,74.5c-0.9,0-1.6-0.7-1.6-1.6h-1.6c0,1.5,1,2.7,2.4,3.1v1.7h1.6v-1.6h2.4v-3.2c0-1.8-1.4-3.2-3.2-3.2
				c-0.9,0-1.6-0.7-1.6-1.6v-1.6h1.6c0.9,0,1.6,0.7,1.6,1.6h1.6c0-1.5-1-2.7-2.4-3.1v-1.7h-1.6v1.6h-2.4v3.2c0,1.8,1.4,3.2,3.2,3.2
				c0.9,0,1.6,0.7,1.6,1.6v1.6H433.3z"/>
		</g>
		<g>
			<path class="st1" d="M460.6,63.3h-22.5v14.5h22.5V63.3z M459,76.1h-19.3V64.9H459V76.1z"/>
		</g>
		<g>
			<path class="st1" d="M441.3,66.5h1.6v1.6h-1.6V66.5z"/>
		</g>
		<g>
			<path class="st1" d="M444.5,66.5h12.8v1.6h-12.8V66.5z"/>
		</g>
		<g>
			<path class="st1" d="M441.3,69.7h1.6v1.6h-1.6V69.7z"/>
		</g>
		<g>
			<path class="st1" d="M444.5,69.7h12.8v1.6h-12.8V69.7z"/>
		</g>
		<g>
			<path class="st1" d="M441.3,72.9h1.6v1.6h-1.6V72.9z"/>
		</g>
		<g>
			<path class="st1" d="M444.5,72.9h12.8v1.6h-12.8V72.9z"/>
		</g>
		<g>
			<path class="st1" d="M454.6,84.2l-4.5,4.5l-3.2-3.2l-8.6,8.6l1.1,1.1l7.5-7.5l3.2,3.2l5.6-5.6l2.8,2.8l2.3-9.1l-9.1,2.3
				L454.6,84.2z M457.7,85l-2.8-2.8l3.7-0.9L457.7,85z"/>
		</g>
		<g>
			<path class="st1" d="M430.1,81h1.6v1.6h-1.6V81z"/>
		</g>
		<g>
			<path class="st1" d="M433.3,81h1.6v1.6h-1.6V81z"/>
		</g>
		<g>
			<path class="st1" d="M436.5,81h1.6v1.6h-1.6V81z"/>
		</g>
		<g>
			<path class="st1" d="M430.1,84.2h8v1.6h-8V84.2z"/>
		</g>
		<g>
			<path class="st1" d="M430.1,87.4h8V89h-8V87.4z"/>
		</g>
		<g>
			<path class="st1" d="M465.4,105h1.6v1.6h-1.6V105z"/>
		</g>
		<g>
			<path class="st1" d="M462.2,105h1.6v1.6h-1.6V105z"/>
		</g>
		<g>
			<path class="st1" d="M459,105h1.6v1.6H459V105z"/>
		</g>
		<g>
			<path class="st1" d="M423.7,81h1.6v1.6h-1.6V81z"/>
		</g>
		<g>
			<path class="st1" d="M423.7,77.7h1.6v1.6h-1.6V77.7z"/>
		</g>
		<g>
			<path class="st1" d="M423.7,74.5h1.6v1.6h-1.6V74.5z"/>
		</g>
	</g>
</g>
</svg>
