<?xml version="1.0" encoding="utf-8"?>
<!-- Generator: Adobe Illustrator 21.0.0, SVG Export Plug-In . SVG Version: 6.00 Build 0)  -->
<svg version="1.1" id="Layer_1" xmlns="http://www.w3.org/2000/svg" xmlns:xlink="http://www.w3.org/1999/xlink" x="0px" y="0px"
	 viewBox="0 0 652.9 545.2" style="enable-background:new 0 0 652.9 545.2;" xml:space="preserve">
<style type="text/css">
	.st0{fill:none;}
	.st1{fill:url(#SVGID_1_);}
	.st2{fill:url(#SVGID_2_);}
	.st3{fill:url(#SVGID_3_);}
	.st4{fill:#D0A967;}
	.st5{fill:#587AA2;}
	.st6{opacity:0.98;fill:#A6C9EA;}
	.st7{fill:#FFDFB4;}
	.st8{fill:url(#SVGID_4_);}
	.st9{opacity:0.42;fill:url(#SVGID_5_);}
	.st10{fill:#DCB172;}
	.st11{filter:url(#Adobe_OpacityMaskFilter);}
	.st12{filter:url(#Adobe_OpacityMaskFilter_1_);}
	.st13{mask:url(#SVGID_6_);fill:url(#SVGID_7_);}
	.st14{fill:#E1E1E1;}
	.st15{fill:#D4975E;}
	.st16{fill:#EDA885;}
	.st17{fill:#B68E55;}
	.st18{fill:#202223;}
	.st19{fill:#464A4C;}
	.st20{fill:#2E3133;}
	.st21{fill:#99999A;}
	.st22{fill:#CFBDB5;}
	.st23{fill:#B0B0B1;}
	.st24{fill:#754836;}
	.st25{fill:#A67861;}
	.st26{fill:#C88362;}
	.st27{fill:#DE9C7D;}
	.st28{fill:#ECD9D2;}
	.st29{fill:#9D773E;}
	.st30{fill:#434340;}
	.st31{fill:#807067;}
	.st32{fill:#6E6760;}
	.st33{fill:#908780;}
	.st34{fill:#BB8451;}
	.st35{fill:#757E33;}
	.st36{fill:#5C9D43;}
	.st37{fill:#4E8B40;}
	.st38{fill:#B0C165;}
	.st39{fill:#919F5B;}
	.st40{fill:#C5C87E;}
	.st41{fill:#50823C;}
	.st42{fill:#6C9E42;}
	.st43{fill:#4A8A40;}
	.st44{fill:#689C41;}
	.st45{fill:#488B40;}
	.st46{fill:#61A143;}
	.st47{fill:#5C9A43;}
	.st48{fill:#325360;}
	.st49{fill:#27444D;}
	.st50{filter:url(#Adobe_OpacityMaskFilter_2_);}
	.st51{filter:url(#Adobe_OpacityMaskFilter_3_);}
	.st52{mask:url(#SVGID_8_);fill:url(#SVGID_9_);}
	.st53{fill:url(#SVGID_10_);}
	.st54{filter:url(#Adobe_OpacityMaskFilter_4_);}
	.st55{filter:url(#Adobe_OpacityMaskFilter_5_);}
	.st56{mask:url(#SVGID_11_);fill:url(#SVGID_12_);}
	.st57{fill:url(#SVGID_13_);}
	.st58{filter:url(#Adobe_OpacityMaskFilter_6_);}
	.st59{filter:url(#Adobe_OpacityMaskFilter_7_);}
	.st60{mask:url(#SVGID_14_);fill:url(#SVGID_15_);}
	.st61{fill:url(#SVGID_16_);}
	.st62{fill:#FFFFFF;}
	.st63{fill:#D5D5D5;}
	.st64{fill:#E8E7E7;}
	.st65{fill:#C1C1C1;}
	.st66{opacity:0.42;fill:url(#SVGID_17_);}
	.st67{fill:#CEA167;}
	.st68{fill:url(#SVGID_18_);}
	.st69{fill:url(#SVGID_19_);}
	.st70{fill:url(#SVGID_20_);}
	.st71{fill:url(#SVGID_21_);}
	.st72{fill:url(#SVGID_22_);}
	.st73{fill:#353A3D;}
	.st74{fill:#80807F;}
	.st75{fill:#DDCBC4;}
	.st76{fill:#495056;}
	.st77{fill:#252E3B;}
	.st78{fill:#3D4145;}
	.st79{fill:#B2A49F;}
	.st80{fill:#51575D;}
	.st81{fill:#F4E1D8;}
	.st82{fill:#505BA7;}
	.st83{fill:#AC9E98;}
	.st84{fill:#69737A;}
</style>
<rect x="382.9" y="177.3" class="st0" width="73.9" height="63.4"/>
<rect x="16.8" y="67.6" class="st0" width="619.3" height="409.9"/>
<rect x="16.8" y="67.6" class="st0" width="619.3" height="409.9"/>
<rect x="16.8" y="67.6" class="st0" width="619.3" height="409.9"/>
<rect x="16.8" y="67.6" class="st0" width="619.3" height="409.9"/>
<rect x="16.8" y="67.6" class="st0" width="619.3" height="409.9"/>
<rect x="16.8" y="67.6" class="st0" width="619.3" height="409.9"/>
<rect x="16.8" y="67.6" class="st0" width="619.3" height="409.9"/>
<rect x="16.8" y="67.6" class="st0" width="619.3" height="409.9"/>
<rect x="16.8" y="67.6" class="st0" width="619.3" height="409.9"/>
<linearGradient id="SVGID_1_" gradientUnits="userSpaceOnUse" x1="326.45" y1="12.8314" x2="326.45" y2="382.718">
	<stop  offset="0" style="stop-color:#D1A968"/>
	<stop  offset="1" style="stop-color:#F2F2F2"/>
</linearGradient>
<polygon class="st1" points="626.9,185.1 626.9,236.4 609.3,236.4 593.9,251.8 576,251.8 576,229.6 541.7,229.6 541.7,282.4 
	498.2,282.4 498.2,240.3 465.8,240.3 465.8,218.5 427.6,218.5 427.6,303.2 425.1,303.2 425.1,240.3 381.7,240.3 381.7,282.4 
	353.3,282.4 353.3,251.8 279,251.8 279,279.5 259.6,279.5 259.6,261.2 209.3,261.2 209.3,185.1 160.1,185.1 160.1,236.4 
	142.5,236.4 127.1,251.8 109.2,251.8 109.2,229.6 74.9,229.6 74.9,282.4 31.4,282.4 31.4,240.3 4.6,240.3 4.6,474.2 648.3,474.2 
	648.3,185.1 "/>
<linearGradient id="SVGID_2_" gradientUnits="userSpaceOnUse" x1="-3023.6719" y1="430.7827" x2="-2996.8735" y2="546.9086" gradientTransform="matrix(0.8811 -0.473 0.473 0.8811 2570.8096 -1681.7313)">
	<stop  offset="0" style="stop-color:#FFFFFF"/>
	<stop  offset="1" style="stop-color:#F0EFE1"/>
</linearGradient>
<path class="st2" d="M198.4,130.7c-12-6.7-27.2-8.9-42.8-6.2c-8.2,1.4-16.4,4.2-24.4,8.5c-7.9,4.3-14.9,9.6-20.6,15.6
	c-10.9,11.4-17.4,25.3-18.5,39.1c-0.7,9.1,1,18.1,5.3,26.2c3.1,5.8,7.4,10.7,12.5,14.7c11.9,9.2,28.3,13.1,45.4,11
	c9.4-1.2,19-4.1,28.2-9.1c9.2-4.9,17-11.3,23.2-18.5c11.2-13.1,17-28.9,15.9-43.9c-0.5-6.4-2.2-12.7-5.3-18.5
	C213,141.4,206.4,135.1,198.4,130.7z M186,198.3c-3.6,4.4-8.2,8.2-13.7,11.2c-5.5,3-11.3,4.7-16.9,5.3c-10,1-19.6-1.6-26.2-7.4
	c-2.3-2-4.3-4.5-5.8-7.3c-2.8-5.1-3.6-10.9-2.8-16.6c1-7.5,4.8-15,10.9-21.1c3.1-3.2,6.8-6,11.1-8.3c4.2-2.3,8.6-3.8,13-4.7
	c8.5-1.7,16.8-0.7,23.6,2.6c5.2,2.5,9.5,6.4,12.3,11.5c1.5,2.8,2.4,5.8,2.9,8.9C195.5,181.1,192.5,190.5,186,198.3z"/>
<linearGradient id="SVGID_3_" gradientUnits="userSpaceOnUse" x1="-3034.6255" y1="433.3071" x2="-3007.8264" y2="549.4365" gradientTransform="matrix(0.8811 -0.473 0.473 0.8811 2570.8096 -1681.7313)">
	<stop  offset="0" style="stop-color:#5868B0"/>
	<stop  offset="1" style="stop-color:#5571B5"/>
</linearGradient>
<path class="st3" d="M206.8,212c-6.2,7.2-14,13.6-23.2,18.5c-9.2,4.9-18.8,7.9-28.2,9.1l0.1-24.9c5.6-0.6,11.4-2.3,16.9-5.3
	c5.5-3,10.1-6.8,13.7-11.2L206.8,212z"/>
<path class="st4" d="M217.3,149.6c3.1,5.8,4.9,12.1,5.3,18.5l-28.3,4.3c-0.4-3.1-1.4-6.1-2.9-8.9c-2.8-5.1-7.1-9-12.3-11.5
	l19.2-21.3C206.4,135.1,213,141.4,217.3,149.6z"/>
<path class="st4" d="M123.5,200c1.5,2.8,3.5,5.2,5.8,7.3L110,228.6c-5.1-3.9-9.3-8.9-12.5-14.7c-4.4-8.1-6-17.1-5.3-26.2l28.3-4.3
	C119.8,189.1,120.7,194.9,123.5,200z"/>
<path class="st4" d="M155.7,124.5l-0.1,24.9c-4.4,0.9-8.8,2.4-13,4.7c-4.2,2.3-8,5.1-11.1,8.3l-20.8-13.7c5.7-6,12.6-11.3,20.6-15.6
	C139.2,128.7,147.5,125.9,155.7,124.5z"/>
<path class="st5" d="M155.4,406h68.7c11.2,0,20.3-9.1,20.3-20.3V172.6c0-11.2-9.1-20.3-20.3-20.3h-68.7c-11.2,0-20.3,9.1-20.3,20.3
	v213.1C135.1,396.9,144.2,406,155.4,406z"/>
<path class="st4" d="M259.8,162.4v233.9c0,6.8-5.5,12.3-12.3,12.3H143c-6.8,0-12.3-5.5-12.3-12.3V162.4c0-0.2,0-0.4,0-0.6
	c0.3-6.5,5.7-11.7,12.3-11.7h104.4C254.3,150,259.8,155.6,259.8,162.4z"/>
<path class="st6" d="M161.7,406H236c12.1,0,22-9.8,22-22V174.3c0-12.1-9.8-22-22-22h-74.3c-12.1,0-22,9.8-22,22V384
	C139.8,396.1,149.6,406,161.7,406z"/>
<path class="st7" d="M249.1,163.6v231.2c0,6.2-5,11.2-11.2,11.2H151c-6.2,0-11.2-5-11.2-11.2V163.6c0-6.2,5-11.2,11.2-11.2h86.8
	C244,152.3,249.1,157.4,249.1,163.6z"/>
<linearGradient id="SVGID_4_" gradientUnits="userSpaceOnUse" x1="-3005.0496" y1="492.6555" x2="-2992.5696" y2="545.6954" gradientTransform="matrix(0.8811 -0.473 0.473 0.8811 2570.8096 -1681.7313)">
	<stop  offset="0" style="stop-color:#FFFFFF"/>
	<stop  offset="1" style="stop-color:#F0EFE1"/>
</linearGradient>
<path class="st8" d="M222.7,168.1c-0.5-6.2-2.1-12.3-5.1-18h-43.3c1.7,0.5,3.3,1.1,4.9,1.9c5.2,2.5,9.5,6.4,12.3,11.6
	c1.5,2.8,2.4,5.8,2.9,8.9c1.2,8.7-1.9,18.1-8.3,25.9c-3.6,4.3-8.2,8.2-13.7,11.2c-5.5,2.9-11.3,4.7-16.9,5.3
	c-9.3,1-18.2-1.2-24.7-6.2v29.8c7.7,1.9,16.1,2.3,24.7,1.3c9.4-1.2,19-4.2,28.2-9.1c9.2-4.9,17-11.3,23.2-18.5
	C218,198.9,223.8,183.1,222.7,168.1z"/>
<path class="st4" d="M206.8,212c-6.2,7.2-14,13.6-23.2,18.5c-9.2,4.9-18.8,7.9-28.2,9.1l0.1-24.9c5.6-0.6,11.4-2.3,16.9-5.3
	c5.5-3,10.1-6.8,13.7-11.2L206.8,212z"/>
<path class="st4" d="M222.7,168.1l-28.3,4.3c-0.4-3.1-1.4-6.1-2.9-8.9c-2.8-5.1-7.1-9-12.3-11.6l1.7-1.9h36.6
	C220.6,155.7,222.2,161.8,222.7,168.1z"/>
<linearGradient id="SVGID_5_" gradientUnits="userSpaceOnUse" x1="61.0892" y1="273.6992" x2="115.4253" y2="273.6992">
	<stop  offset="0" style="stop-color:#D1A968"/>
	<stop  offset="1" style="stop-color:#FFFFFF"/>
</linearGradient>
<path class="st9" d="M99.9,249.1c-10.9-5.2-23.5-2.4-31.4,5.9c-1.9,2-3.5,4.4-4.8,7c-3.8,8-3.3,16.9,0.5,24.2
	c2.6,5.1,6.9,9.3,12.4,11.9c0.6,0.3,1.1,0.5,1.7,0.7c2.5,1,5.2,1.6,7.8,1.8c10.9,0.9,21.8-5,26.7-15.5
	C119.2,271.8,113.4,255.6,99.9,249.1z M106.7,282.4c-3.7,7.9-11.9,12.3-20,11.6c-2-0.2-3.9-0.6-5.8-1.4c-0.4-0.2-0.8-0.3-1.3-0.5
	c-4.2-2-7.3-5.2-9.3-9c-2.9-5.5-3.2-12.2-0.4-18.2c0.9-2,2.2-3.7,3.6-5.3c5.9-6.3,15.4-8.3,23.5-4.4
	C107.1,260.1,111.5,272.2,106.7,282.4z"/>
<g>
	<g>
		<path class="st4" d="M70.2,283.2l-6,3.2c-3.8-7.3-4.3-16.2-0.5-24.2c1.3-2.6,2.9-5,4.8-7l4.9,4.7c-1.4,1.5-2.6,3.3-3.6,5.3
			C67,271,67.4,277.7,70.2,283.2z"/>
	</g>
</g>
<g>
	<g>
		<path class="st10" d="M80.8,292.6l-2.5,6.3c-0.6-0.2-1.1-0.5-1.7-0.7c-5.6-2.6-9.8-6.9-12.4-11.9l6-3.2c2,3.8,5.2,7,9.3,9
			C80,292.3,80.4,292.5,80.8,292.6z"/>
	</g>
</g>
<rect x="44.9" y="322" class="st7" width="13.9" height="3.8"/>
<rect x="44.9" y="329.5" class="st7" width="13.9" height="3.8"/>
<rect x="44.9" y="314.5" class="st7" width="13.9" height="3.8"/>
<defs>
	<filter id="Adobe_OpacityMaskFilter" filterUnits="userSpaceOnUse" x="166.3" y="417.5" width="148.4" height="12.4">
		<feFlood  style="flood-color:white;flood-opacity:1" result="back"/>
		<feBlend  in="SourceGraphic" in2="back" mode="normal"/>
	</filter>
</defs>
<mask maskUnits="userSpaceOnUse" x="166.3" y="417.5" width="148.4" height="12.4" id="SVGID_6_">
	<g class="st11">
		<defs>
			<filter id="Adobe_OpacityMaskFilter_1_" filterUnits="userSpaceOnUse" x="166.3" y="417.5" width="148.4" height="12.4">
				<feFlood  style="flood-color:white;flood-opacity:1" result="back"/>
				<feBlend  in="SourceGraphic" in2="back" mode="normal"/>
			</filter>
		</defs>
		<mask maskUnits="userSpaceOnUse" x="166.3" y="417.5" width="148.4" height="12.4" id="SVGID_6_">
			<g class="st12">
			</g>
		</mask>
		<linearGradient id="SVGID_7_" gradientUnits="userSpaceOnUse" x1="240.5199" y1="383.5623" x2="240.5199" y2="477.3911">
			<stop  offset="0" style="stop-color:#FFFFFF"/>
			<stop  offset="1" style="stop-color:#000000"/>
		</linearGradient>
		<ellipse class="st13" cx="240.5" cy="423.7" rx="74.2" ry="6.2"/>
	</g>
</mask>
<ellipse class="st14" cx="240.5" cy="423.7" rx="74.2" ry="6.2"/>
<path class="st15" d="M509.2,368.7c0,0,0-4.2,5.8-4.5c6.7-0.3,50-0.6,50-0.6l-0.3,4.5L509.2,368.7z"/>
<g>
	<path class="st16" d="M480.5,347.8c-0.2-0.7-0.1-1.7,2-2.8c2-1.1,6.6-4.4,8.2-4.5c1.6-0.1,4,0.5,4.6,0.5c0.6,0,1.9,4.2,1.9,4.2
		L480.5,347.8z"/>
</g>
<g>
	<polygon class="st17" points="535.2,306.2 521.5,333.1 493.4,340.3 496.2,347.4 526.3,345.2 541.1,320.6 	"/>
</g>
<g>
	<g>
		<g>
			<path class="st18" d="M452.1,415.2c0,0-6.3,2.6-9.1,3.6c-2.8,0.9-13.1-0.1-14.2,0.7c-1.1,0.8-1.2,3.9,0.5,4.5
				c1.6,0.5,13.9,3.4,18.2,3c4.3-0.4,11.8,2.3,13.6,1.9c1.8-0.3,2-9.7,1.6-11.9C462.2,414.8,452.1,415.2,452.1,415.2z"/>
		</g>
	</g>
</g>
<g>
	<g>
		<g>
			<path class="st19" d="M453.5,411.4l-1.4,3.8c0,0,7.6,2.5,10.5,1.7l1-3.8L453.5,411.4z"/>
		</g>
	</g>
</g>
<g>
	<g>
		<g>
			<path class="st20" d="M469,418.6c0,0-5.9,3.4-8.6,4.6c-2.7,1.2-13,1.4-14,2.4c-1,1-0.7,4,1,4.4c1.7,0.3,14.2,1.7,18.4,0.8
				c4.2-0.9,12,0.9,13.7,0.3c1.7-0.6,0.8-9.9,0.2-12C479,416.9,469,418.6,469,418.6z"/>
		</g>
	</g>
</g>
<g>
	<g>
		<g>
			<path class="st19" d="M469.9,414.7l-0.9,3.9c0,0,7.8,1.6,10.7,0.5l0.5-3.9L469.9,414.7z"/>
		</g>
	</g>
</g>
<g>
	<path class="st21" d="M529.2,344.2c0,0-27,0.2-30.3,0.7c-3.6,0.5-17.1,0.6-18.8,3c-17.1,24.2-28.8,64.1-28.8,64.1l13.5,2.5
		c0,0,13.1-23.6,18.6-35.9c4.9-11,9.1-13.8,19.5-13.6c10.3,0.2,43.4-1.9,62.4-4.1L529.2,344.2z"/>
</g>
<g>
	<path class="st22" d="M523.3,289c0,0-2.6,11.6-2,18c0.6,6.4,10.9,22.4,11.3,26c0.5,3.6-2.3,10.9-2.3,10.9l35.4,16.4
		c0,0-0.1-10.2-1.5-22.4c-1.5-12.1-6-21.8-7.6-28.6c-5.5-23.4-25.5-26.7-25.5-26.7L523.3,289z"/>
</g>
<g>
	<path class="st23" d="M530.5,343.6c0,0-27.8,0.2-31.1,0.7c-3.6,0.5-17.9,0.7-19.3,3.3c-9.8,18.5-12,67.7-12,67.7l12.6,1.4
		c0,0,6.2-25,8.1-36.9c1.9-11.9,4.4-13.6,14.7-13.4c10.3,0.2,50.8,11,62.2-6.1L530.5,343.6z"/>
</g>
<g>
	<path class="st16" d="M496.6,270.3c0,0,0.3,7.1,2.3,7.1c1.6,0,2.2,6.8,2.4,7.9c0.2,1.1,3,0.2,3.9,0.4c0.9,0.2,6.5,6.1,8.7,5.1
		c2.2-1,9.5-9.8,10.4-13.9c0.9-4.1-4.1-17.2-8.8-21.2C510.9,251.8,496.1,257.9,496.6,270.3z"/>
</g>
<g>
	<path class="st16" d="M517.4,285.2c0,0,0.3,0.6,0.8,1.5c0.4,0.7,0.8,1.5,1.3,2.4c1.3,2.4,2.8,5.4,3.1,7c0.6,2.9,7.1-13.1,7.1-13.1
		s-4.7-8.2-8.4-18C517.6,254.9,517.4,285.2,517.4,285.2z"/>
</g>
<g>
	<path class="st24" d="M496.7,271.9c0,0-6.4-4-3.7-11.6c2.8-7.5,17.2-5.9,18.5-6.3c1.3-0.4,7.8-3.7,11.4,9.3
		c3.6,13,2.4,11.2,2.4,11.2s-4.3-4.5-6.6-3.8c-2.5,0.8-6.4,2.5-6.4,2.5s-1.1-6.2-4.5-5.1C504.5,269.1,499.1,268.9,496.7,271.9z"/>
</g>
<g>
	<path class="st16" d="M513.8,268.4c-0.2-0.8-1.1-4.3,2.5-4.1c3.6,0.2,2.8,8.3,2.4,8.6C518.3,273.2,515.1,275.5,513.8,268.4z"/>
</g>
<g>
	<path class="st25" d="M518.3,286.6c0.4,0.7,0.8,1.5,1.3,2.4c2.5-4.5,3.9-9.3,4.3-10.8C523,280.8,518.3,286.6,518.3,286.6z"/>
</g>
<g>
	<path class="st26" d="M515.8,287.6c0,0,0-2.4,0.1-3.1c0.1-0.7-1.4-0.2-1.7,0.6C514,286,515.8,287.6,515.8,287.6z"/>
</g>
<g>
	<path class="st27" d="M504.5,286.3c0,0-0.2,1-0.1,1.5c0,0,0.3,0.9,0.4,1.6c0,0.2,0.1,0.4,0.1,0.5c0.1,0.5,0,1.6,0.5,2.8
		c0.5,1.2,2.8,6.3,2.8,6.3l3.3-1l2.6-0.9c0,0,2.1-8,1.8-9.2c0-0.1-0.1-0.2-0.1-0.3c-0.4-0.9-1-1.5-1.3-2c-0.1-0.2-1.1-1.8-1.7-1.9
		c-0.8-0.1-1.4,0.1-1.8,0.5c0,0-1.6-0.2-2.5,0.4c0,0-1.4-0.2-2.3,0.9C506.4,285.6,504.9,285.5,504.5,286.3z"/>
</g>
<g>
	<path class="st28" d="M529.1,281.5c0,0-4.1,9.5-7.6,12.8l1.6,5.7l8-17.3L529.1,281.5z"/>
</g>
<g>
	<path class="st21" d="M530.5,343.6c0,0,0.5-1.4,0.9-2.7s10.9,4.2,10.9,4.2l-2.5,2.9L530.5,343.6z"/>
</g>
<g>
	<path class="st4" d="M524.4,311.4c1,2,2,4.1,2.9,6.2l0,0c2,4.6,3.8,9.3,5.3,13.9c0.6,1.6,1.1,3.3,1.6,4.8c6,19.1,8.4,35.2,8.4,35.2
		s22.5-6,25.9-9c0,0-5.5-79.7-37.3-79.9c0,0,0,0,0,0C530.9,282.9,519.1,300.6,524.4,311.4z"/>
</g>
<g>
	<path class="st29" d="M532.6,331.4c0.6,1.6,1.1,3.3,1.6,4.8c5-7.8,13.7-26.7,13.8-27L532.6,331.4z"/>
</g>
<g>
	<path class="st4" d="M515.4,295.7l-8.5,2.8l7.9,41.5c0.9,3.9,5.8,5.2,8.5,2.2c7.4-8.2,19-22,24.1-31.7c7.7-14.7-5.2-19.9-8.3-16.2
		c-3.1,3.7-16.8,28.7-16.8,28.7L515.4,295.7z"/>
</g>
<path class="st30" d="M580.1,275.7l-13.2,38.8c-0.1,0.3-0.2,0.6-0.2,0.9l-3.2,51l-55.3,1.2l-16.1,58.7c-0.5,1.8-0.2,3.7,0.9,5.2
	c0.7,1,1.7,1.9,3.1,2c3.5,0.4,74.5,0,74.5,0v-2.9c0-1.5-1.2-2.6-2.7-2.6h-66.4c-1.1,0-2.1-0.5-2.8-1.3c-0.4-0.5-0.7-1.1-0.6-1.8
	c0.3-1.9,14.5-49.7,14.5-49.7l53.5-0.9c2.4,0,4.4-1.9,4.5-4.3L573,315c0-0.3,0.1-0.7,0.2-1l10.8-37.1c0,0,1.1-2.6-0.9-2.8
	C580.9,273.8,580.4,275,580.1,275.7z"/>
<path class="st15" d="M479.3,332.4v2h-96v-2c0-1.9,1.3-3.4,2.8-3.4h90.3C478,329,479.3,330.5,479.3,332.4z"/>
<path class="st31" d="M417.8,432.5h-29v-4.6H416c1,0,1.7,0.8,1.7,1.7V432.5z"/>
<rect x="390.6" y="334.4" class="st31" width="3.8" height="98.2"/>
<rect x="398.3" y="334.4" class="st31" width="3.8" height="98.2"/>
<rect x="427.1" y="254.5" class="st32" width="3.1" height="68"/>
<g>
	<path class="st33" d="M423.8,329h-16.9v-1h16.9c0.9,0,1.5-0.2,1.9-0.6c0.4-0.5,0.4-1.2,0.4-1.2l0,0l0,0v-21.8h1v21.8
		c0,0.2,0.1,1.2-0.6,1.9C425.9,328.6,425,329,423.8,329z"/>
</g>
<path class="st32" d="M447.3,327.2H429v1.8h19v-1.1C448,327.5,447.7,327.2,447.3,327.2z"/>
<path class="st34" d="M438.6,334.4h-55.2v-2c0-1.9,1.3-3.4,2.9-3.4h43.7L438.6,334.4z"/>
<g>
	<g>
		<path class="st35" d="M388.9,309.4c0,0,5.3,0.8,13,4.9C409.7,318.4,395.9,315.5,388.9,309.4z"/>
		<path class="st36" d="M403,314.9c0,0-3.8-7.3-9.8-10.7c0,0,1.7,5.1,8,10.5C407.5,320.2,403,314.9,403,314.9z"/>
		<path class="st37" d="M406.1,309.9c0,0,4-4.9,5.6-7.1c1.6-2.2-3.3,10.3-3.7,11.6C407.5,315.8,405.8,316.9,406.1,309.9z"/>
		<path class="st38" d="M402.3,317.4c-1.8-2.6-3-14.6-3-14.6c3.1,2.6,6,14.1,6,14.1S404,320,402.3,317.4z"/>
		<path class="st39" d="M402.7,316.2c-0.5-1.1,0.2-15.7,0.6-14.4c0.4,1.3,2.8,6.8,2.8,6.8C406.4,311.9,403.2,317.3,402.7,316.2z"/>
		<path class="st40" d="M406.7,312.9c0.9-1.7,10.2-10.8,10.2-10.8c-0.1,2.8-5.8,9.5-5.8,9.5S405.8,314.6,406.7,312.9z"/>
		<path class="st36" d="M402.3,317.2c10.7-3.9,20.7-1.9,20.7-1.9c-1.5,2-15.4,1.9-15.4,1.9H402.3z"/>
		<path class="st41" d="M404.5,317.5c5.4-5.9,18.2-8.8,18.2-8.8c-3.8,3.9-9.2,7.2-9.2,7.2S399.1,323.4,404.5,317.5z"/>
		<path class="st42" d="M403.4,316.9c3.2-5.9,15.3-11.7,15.3-11.7c0,1.9-9.8,10.5-9.8,10.5S400.2,322.8,403.4,316.9z"/>
		<path class="st43" d="M403.5,317.5c-2.4-0.4-11.2-9.1-11.2-9.1c2.3,0.4,11.2,6.1,11.2,6.1S405.9,317.9,403.5,317.5z"/>
		<path class="st44" d="M399.3,317.5c-3,0.1-12.6-5.9-12.6-5.9c2.9,0,9.5,1.7,12.7,2.6c1.2,0.3,2.2,1.1,2.9,2.2
			C404,319.6,401.9,317.4,399.3,317.5z"/>
		<path class="st45" d="M388.2,314.9c0.9-0.1,6.7,0.2,9.1,0.3c1,0,1.9,0.4,2.7,1c1.1,0.9,0.8,1.6-0.7,1.9
			C397.3,318.6,387,315,388.2,314.9z"/>
		<path class="st46" d="M403.7,316.5c-0.2-0.9-0.2-1.8-0.1-2.8c0.4-3.1,1.9-12.9,4-14.3c0,0,1,12.6-1.1,16.8
			C405.1,319.4,404.2,318.2,403.7,316.5z"/>
		<path class="st47" d="M403.8,318.2c-1.2-1.2-6.2-12.4-6.2-12.4c4.6,2.7,6.7,8.2,6.7,8.2S405,319.3,403.8,318.2z"/>
	</g>
	<polygon class="st48" points="415.2,319 413.6,329 395.6,329 394.1,319 	"/>
	<path class="st49" d="M394.1,319h21l-1.5,9.9h-3.8c0,0-3.2-6.3-15.3-7L394.1,319z"/>
	
		<rect x="393.3" y="316.9" transform="matrix(-1 -1.224647e-16 1.224647e-16 -1 809.2565 637.1304)" class="st48" width="22.7" height="3.3"/>
</g>
<defs>
	<filter id="Adobe_OpacityMaskFilter_2_" filterUnits="userSpaceOnUse" x="385.2" y="162.1" width="76.8" height="65.9">
		<feFlood  style="flood-color:white;flood-opacity:1" result="back"/>
		<feBlend  in="SourceGraphic" in2="back" mode="normal"/>
	</filter>
</defs>
<mask maskUnits="userSpaceOnUse" x="385.2" y="162.1" width="76.8" height="65.9" id="SVGID_8_">
	<g class="st50">
		<defs>
			<filter id="Adobe_OpacityMaskFilter_3_" filterUnits="userSpaceOnUse" x="385.2" y="162.1" width="76.8" height="65.9">
				<feFlood  style="flood-color:white;flood-opacity:1" result="back"/>
				<feBlend  in="SourceGraphic" in2="back" mode="normal"/>
			</filter>
		</defs>
		<mask maskUnits="userSpaceOnUse" x="385.2" y="162.1" width="76.8" height="65.9" id="SVGID_8_">
			<g class="st51">
			</g>
		</mask>
		<linearGradient id="SVGID_9_" gradientUnits="userSpaceOnUse" x1="415.5497" y1="186.9909" x2="556.8685" y2="337.1979">
			<stop  offset="0" style="stop-color:#FFFFFF"/>
			<stop  offset="0.1477" style="stop-color:#D9D9D9"/>
			<stop  offset="1" style="stop-color:#000000"/>
		</linearGradient>
		<path class="st52" d="M462,191.9c0-8.4-6.8-15.2-15.2-15.2c-0.7,0-1.5,0.1-2.2,0.2c-2.1-8.5-9.8-14.8-19-14.8
			c-8.8,0-16.2,5.8-18.7,13.8c-0.3,0-0.6,0-0.9,0c-11.6,0-21,9.4-21,21c0,10.3,7.5,18.9,17.3,20.7c0.7,3.7,4,6.5,7.9,6.5
			c1.6,0,3.1-0.5,4.4-1.3c3.7,3.3,8.6,5.4,14,5.4c11.6,0,21-9.4,21-21c0-0.1,0-0.2,0-0.3C456.7,205.4,462,199.3,462,191.9z"/>
	</g>
</mask>
<linearGradient id="SVGID_10_" gradientUnits="userSpaceOnUse" x1="415.5497" y1="186.9909" x2="556.8685" y2="337.1979">
	<stop  offset="0" style="stop-color:#D1A968"/>
	<stop  offset="1" style="stop-color:#FFFFFF"/>
</linearGradient>
<path class="st53" d="M462,191.9c0-8.4-6.8-15.2-15.2-15.2c-0.7,0-1.5,0.1-2.2,0.2c-2.1-8.5-9.8-14.8-19-14.8
	c-8.8,0-16.2,5.8-18.7,13.8c-0.3,0-0.6,0-0.9,0c-11.6,0-21,9.4-21,21c0,10.3,7.5,18.9,17.3,20.7c0.7,3.7,4,6.5,7.9,6.5
	c1.6,0,3.1-0.5,4.4-1.3c3.7,3.3,8.6,5.4,14,5.4c11.6,0,21-9.4,21-21c0-0.1,0-0.2,0-0.3C456.7,205.4,462,199.3,462,191.9z"/>
<defs>
	<filter id="Adobe_OpacityMaskFilter_4_" filterUnits="userSpaceOnUse" x="451.7" y="220.2" width="20.5" height="20.5">
		<feFlood  style="flood-color:white;flood-opacity:1" result="back"/>
		<feBlend  in="SourceGraphic" in2="back" mode="normal"/>
	</filter>
</defs>
<mask maskUnits="userSpaceOnUse" x="451.7" y="220.2" width="20.5" height="20.5" id="SVGID_11_">
	<g class="st54">
		<defs>
			<filter id="Adobe_OpacityMaskFilter_5_" filterUnits="userSpaceOnUse" x="451.7" y="220.2" width="20.5" height="20.5">
				<feFlood  style="flood-color:white;flood-opacity:1" result="back"/>
				<feBlend  in="SourceGraphic" in2="back" mode="normal"/>
			</filter>
		</defs>
		<mask maskUnits="userSpaceOnUse" x="451.7" y="220.2" width="20.5" height="20.5" id="SVGID_11_">
			<g class="st55">
			</g>
		</mask>
		<linearGradient id="SVGID_12_" gradientUnits="userSpaceOnUse" x1="418.4955" y1="184.2193" x2="559.8142" y2="334.4261">
			<stop  offset="0" style="stop-color:#FFFFFF"/>
			<stop  offset="1" style="stop-color:#000000"/>
		</linearGradient>
		<circle class="st56" cx="462" cy="230.4" r="10.3"/>
	</g>
</mask>
<linearGradient id="SVGID_13_" gradientUnits="userSpaceOnUse" x1="418.4955" y1="184.2193" x2="559.8142" y2="334.4261">
	<stop  offset="0" style="stop-color:#D1A968"/>
	<stop  offset="1" style="stop-color:#FFFFFF"/>
</linearGradient>
<circle class="st57" cx="462" cy="230.4" r="10.3"/>
<defs>
	<filter id="Adobe_OpacityMaskFilter_6_" filterUnits="userSpaceOnUse" x="475" y="245.3" width="10" height="10">
		<feFlood  style="flood-color:white;flood-opacity:1" result="back"/>
		<feBlend  in="SourceGraphic" in2="back" mode="normal"/>
	</filter>
</defs>
<mask maskUnits="userSpaceOnUse" x="475" y="245.3" width="10" height="10" id="SVGID_14_">
	<g class="st58">
		<defs>
			<filter id="Adobe_OpacityMaskFilter_7_" filterUnits="userSpaceOnUse" x="475" y="245.3" width="10" height="10">
				<feFlood  style="flood-color:white;flood-opacity:1" result="back"/>
				<feBlend  in="SourceGraphic" in2="back" mode="normal"/>
			</filter>
		</defs>
		<mask maskUnits="userSpaceOnUse" x="475" y="245.3" width="10" height="10" id="SVGID_14_">
			<g class="st59">
			</g>
		</mask>
		<linearGradient id="SVGID_15_" gradientUnits="userSpaceOnUse" x1="418.1778" y1="184.5176" x2="559.4977" y2="334.7257">
			<stop  offset="0" style="stop-color:#FFFFFF"/>
			<stop  offset="1" style="stop-color:#000000"/>
		</linearGradient>
		<circle class="st60" cx="480.1" cy="250.3" r="5"/>
	</g>
</mask>
<linearGradient id="SVGID_16_" gradientUnits="userSpaceOnUse" x1="418.1778" y1="184.5176" x2="559.4977" y2="334.7257">
	<stop  offset="0" style="stop-color:#D1A968"/>
	<stop  offset="1" style="stop-color:#FFFFFF"/>
</linearGradient>
<circle class="st61" cx="480.1" cy="250.3" r="5"/>
<g>
	<path class="st62" d="M418.6,200.2c0-1.3,0.2-2.6,0.7-3.6c0.4-1.1,1.3-2,2.7-2.8c0.4-0.2,0.9-0.5,1.5-0.8c0.6-0.3,1.2-0.7,1.8-1.1
		c0.6-0.4,1.1-1,1.5-1.5c0.4-0.6,0.6-1.3,0.6-2c0-0.6-0.1-1.1-0.3-1.5c-0.2-0.4-0.5-0.8-0.9-1.1c-0.4-0.3-0.8-0.5-1.3-0.7
		c-0.5-0.2-1-0.2-1.5-0.2c-0.6,0-1.2,0.1-1.7,0.3c-0.5,0.2-0.9,0.5-1.3,0.8c-0.4,0.3-0.8,0.7-1.1,1.1c-0.3,0.4-0.6,0.8-0.8,1.1
		l-3.6-2.5c0.4-0.9,0.8-1.6,1.4-2.3c0.6-0.7,1.3-1.2,2-1.7c0.8-0.5,1.6-0.8,2.5-1c0.9-0.2,1.8-0.4,2.7-0.4c1,0,2.1,0.2,3.1,0.5
		c1,0.3,1.9,0.8,2.7,1.4c0.8,0.7,1.5,1.5,2,2.5c0.5,1,0.8,2.3,0.8,3.7c0,0.9-0.1,1.7-0.3,2.3c-0.2,0.7-0.5,1.3-0.9,1.8
		c-0.4,0.6-0.8,1-1.4,1.5c-0.5,0.4-1.1,0.9-1.8,1.3c-0.6,0.3-1.1,0.6-1.7,1c-0.6,0.3-1.1,0.6-1.5,1c-0.5,0.4-0.8,0.8-1.1,1.3
		c-0.3,0.5-0.4,1.1-0.4,1.8H418.6z M418.7,209.9v-5.7h4.6v5.7H418.7z"/>
</g>
<g>
	<g>
		<g>
			<g>
				<polygon class="st63" points="218.7,127 251.6,108.6 240.3,107.9 				"/>
			</g>
		</g>
	</g>
	<g>
		<g>
			<g>
				<polygon class="st64" points="218.7,127 228.8,110.7 237.3,110.5 				"/>
			</g>
		</g>
	</g>
	<g>
		<g>
			<g>
				<polygon class="st65" points="244,112.8 244.7,117 218.7,127 				"/>
			</g>
		</g>
	</g>
</g>
<g>
	<path class="st14" d="M348.8,256.2H270c-12.9,0-23.3-10.4-23.3-23.3v-99.1c0-12.9,10.4-23.3,23.3-23.3h78.8
		c12.9,0,23.3,10.4,23.3,23.3v99.1C372.1,245.8,361.7,256.2,348.8,256.2z"/>
</g>
<linearGradient id="SVGID_17_" gradientUnits="userSpaceOnUse" x1="294.9869" y1="127.9027" x2="294.9869" y2="71.5074">
	<stop  offset="0" style="stop-color:#D1A968"/>
	<stop  offset="1" style="stop-color:#FFFFFF"/>
</linearGradient>
<path class="st66" d="M334.1,105.5h-78.1c-3.5,0-6.4-2.9-6.4-6.4V77.5c0-3.5,2.9-6.4,6.4-6.4h78.1c3.5,0,6.4,2.9,6.4,6.4v21.7
	C340.5,102.7,337.6,105.5,334.1,105.5z"/>
<g>
	<g>
		<path class="st62" d="M322.8,171c-4.8-13.4-17.6-21.7-31.1-21.3c-3.3,0.1-6.6,0.7-9.8,1.9c-9.8,3.5-16.9,11.4-19.8,20.6
			c-2,6.4-2,13.5,0.4,20.3c0.2,0.7,0.5,1.3,0.8,2c1.3,3,3,5.6,5,8c8.4,9.9,22.3,14,35.2,9.4C320.1,206,328.8,187.7,322.8,171z
			 M300.7,204.4c-9.7,3.5-20.1,0.3-26.4-7.1c-1.5-1.8-2.8-3.8-3.7-6c-0.2-0.5-0.4-1-0.6-1.5c-1.8-5.1-1.8-10.4-0.3-15.3
			c2.2-6.9,7.5-12.8,14.8-15.5c2.4-0.9,4.9-1.3,7.4-1.4c10.1-0.3,19.7,5.9,23.3,15.9C319.7,186.2,313.2,199.9,300.7,204.4z"/>
	</g>
</g>
<g>
	<g>
		<path class="st4" d="M269.7,174.6l-7.7-2.4c2.9-9.3,10-17.1,19.8-20.6c3.3-1.2,6.6-1.8,9.8-1.9l0.2,8c-2.5,0.1-4.9,0.5-7.4,1.4
			C277.2,161.8,271.9,167.7,269.7,174.6z"/>
	</g>
</g>
<g>
	<g>
		<path class="st10" d="M270.6,191.4l-7.4,3.2c-0.3-0.7-0.5-1.3-0.8-2c-2.4-6.8-2.4-13.9-0.4-20.3l7.7,2.4
			c-1.5,4.8-1.5,10.1,0.3,15.3C270.2,190.4,270.4,190.9,270.6,191.4z"/>
	</g>
</g>
<g>
	<g>
		<path class="st4" d="M268.2,202.6c-2-2.3-3.7-5-5-8l7.4-3.2c1,2.2,2.2,4.2,3.7,6L268.2,202.6z"/>
	</g>
</g>
<g>
	<g>
		<path class="st62" d="M350.6,190.6c-5.3-2.5-11.5-1.2-15.3,2.9c-0.9,1-1.7,2.1-2.3,3.4c-1.8,3.9-1.6,8.3,0.2,11.8
			c1.3,2.5,3.4,4.5,6.1,5.8c0.3,0.1,0.5,0.2,0.8,0.4c1.2,0.5,2.5,0.8,3.8,0.9c5.3,0.4,10.6-2.4,13.1-7.5
			C360,201.6,357.2,193.7,350.6,190.6z M353.9,206.8c-1.8,3.8-5.8,6-9.8,5.7c-1-0.1-1.9-0.3-2.8-0.7c-0.2-0.1-0.4-0.2-0.6-0.3
			c-2-1-3.6-2.5-4.6-4.4c-1.4-2.7-1.6-5.9-0.2-8.9c0.5-1,1.1-1.8,1.7-2.6c2.9-3.1,7.5-4.1,11.5-2.2
			C354.1,195.9,356.3,201.8,353.9,206.8z"/>
	</g>
</g>
<g>
	<g>
		<path class="st17" d="M336.1,207.2l-2.9,1.5c-1.9-3.6-2.1-7.9-0.2-11.8c0.6-1.3,1.4-2.4,2.3-3.4l2.4,2.3c-0.7,0.7-1.3,1.6-1.7,2.6
			C334.6,201.2,334.7,204.5,336.1,207.2z"/>
	</g>
</g>
<g>
	<g>
		<path class="st67" d="M341.3,211.8l-1.2,3.1c-0.3-0.1-0.5-0.2-0.8-0.4c-2.7-1.3-4.8-3.4-6.1-5.8l2.9-1.5c1,1.8,2.5,3.4,4.6,4.4
			C340.9,211.6,341.1,211.7,341.3,211.8z"/>
	</g>
</g>
<g>
	<g>
		<path class="st62" d="M356.9,167.9c2.5-5.3,1.2-11.5-2.9-15.3c-1-0.9-2.1-1.7-3.4-2.3c-3.9-1.8-8.3-1.6-11.8,0.2
			c-2.5,1.3-4.5,3.4-5.8,6.1c-0.1,0.3-0.2,0.5-0.4,0.8c-0.5,1.2-0.8,2.5-0.9,3.8c-0.4,5.3,2.4,10.6,7.5,13.1
			C345.9,177.3,353.8,174.5,356.9,167.9z M340.7,171.2c-3.8-1.8-6-5.8-5.7-9.8c0.1-1,0.3-1.9,0.7-2.8c0.1-0.2,0.2-0.4,0.3-0.6
			c1-2,2.5-3.6,4.4-4.6c2.7-1.4,5.9-1.6,8.9-0.2c1,0.5,1.8,1.1,2.6,1.7c3.1,2.9,4.1,7.5,2.2,11.5
			C351.6,171.4,345.6,173.5,340.7,171.2z"/>
	</g>
</g>
<g>
	<g>
		<path class="st10" d="M340.3,153.4l-1.5-2.9c3.6-1.9,7.9-2.1,11.8-0.2c1.3,0.6,2.4,1.4,3.4,2.3l-2.3,2.4c-0.7-0.7-1.6-1.3-2.6-1.7
			C346.3,151.8,343,152,340.3,153.4z"/>
	</g>
</g>
<g>
	<g>
		<path class="st17" d="M335.7,158.5l-3.1-1.2c0.1-0.3,0.2-0.5,0.4-0.8c1.3-2.7,3.4-4.8,5.8-6.1l1.5,2.9c-1.8,1-3.4,2.5-4.4,4.6
			C335.9,158.1,335.8,158.3,335.7,158.5z"/>
	</g>
</g>
<g>
	<g>
		<path class="st4" d="M331.7,161.1c0.1-1.3,0.4-2.5,0.9-3.8l3.1,1.2c-0.4,0.9-0.6,1.9-0.7,2.8L331.7,161.1z"/>
	</g>
</g>
<g>
	<polygon class="st62" points="340.9,224.5 316.1,224.5 316.1,224 340.4,224 340.4,214.7 340.9,214.7 	"/>
</g>
<g>
	<polygon class="st62" points="294.2,224.5 262,224.5 262,224 293.7,224 293.7,208.7 294.2,208.7 	"/>
</g>
<g>
	<linearGradient id="SVGID_18_" gradientUnits="userSpaceOnUse" x1="262.0401" y1="220.3786" x2="284.1951" y2="220.3786">
		<stop  offset="0" style="stop-color:#D1A968"/>
		<stop  offset="1" style="stop-color:#FFFFFF"/>
	</linearGradient>
	<rect x="262" y="218.9" class="st68" width="22.2" height="3"/>
</g>
<g>
	<linearGradient id="SVGID_19_" gradientUnits="userSpaceOnUse" x1="316.1026" y1="220.3786" x2="329.1336" y2="220.3786">
		<stop  offset="0" style="stop-color:#D1A968"/>
		<stop  offset="1" style="stop-color:#FFFFFF"/>
	</linearGradient>
	<rect x="316.1" y="218.9" class="st69" width="13" height="3"/>
</g>
<g>
	<path class="st4" d="M320.7,99.4c-5.8,0-10.6-4.7-10.6-10.6c0-5.8,4.7-10.6,10.6-10.6s10.6,4.7,10.6,10.6
		C331.2,94.6,326.5,99.4,320.7,99.4z M320.7,78.5c-5.7,0-10.3,4.6-10.3,10.3c0,5.7,4.6,10.3,10.3,10.3S331,94.5,331,88.8
		C331,83.1,326.4,78.5,320.7,78.5z"/>
</g>
<linearGradient id="SVGID_20_" gradientUnits="userSpaceOnUse" x1="269.7834" y1="81.5979" x2="301.5359" y2="81.5979">
	<stop  offset="0" style="stop-color:#D1A968"/>
	<stop  offset="1" style="stop-color:#FFFFFF"/>
</linearGradient>
<rect x="269.8" y="80.2" class="st70" width="31.8" height="2.8"/>
<linearGradient id="SVGID_21_" gradientUnits="userSpaceOnUse" x1="274.4674" y1="88.7908" x2="301.5359" y2="88.7908">
	<stop  offset="0" style="stop-color:#D1A968"/>
	<stop  offset="1" style="stop-color:#FFFFFF"/>
</linearGradient>
<rect x="274.5" y="87.4" class="st71" width="27.1" height="2.8"/>
<linearGradient id="SVGID_22_" gradientUnits="userSpaceOnUse" x1="258.0102" y1="95.9835" x2="301.5359" y2="95.9835">
	<stop  offset="0" style="stop-color:#D1A968"/>
	<stop  offset="1" style="stop-color:#FFFFFF"/>
</linearGradient>
<rect x="258" y="94.6" class="st72" width="43.5" height="2.8"/>
<g>
	<rect x="257" y="123.1" class="st4" width="10.6" height="2.3"/>
</g>
<g>
	<rect x="301.2" y="131.6" class="st62" width="16.5" height="2.3"/>
</g>
<g>
	<rect x="280" y="131.6" class="st62" width="10" height="2.3"/>
</g>
<g>
	<rect x="257" y="131.6" class="st62" width="19.9" height="2.3"/>
</g>
<g>
	<rect x="270.9" y="123.1" class="st4" width="15.7" height="2.3"/>
</g>
<g>
	<rect x="293.1" y="131.6" class="st62" width="4.3" height="2.3"/>
</g>
<g>
	<rect x="305.9" y="123.2" class="st62" width="11.7" height="2.3"/>
</g>
<g>
	<rect x="321.9" y="131.6" class="st62" width="10" height="2.3"/>
</g>
<g>
	<rect x="290.4" y="123.2" class="st62" width="12.4" height="2.3"/>
</g>
<g>
	<g>
		<path class="st14" d="M253.8,103.6l-0.7-1.1c0,0,0.8-0.5,2.2-1.4l0.7,1.1C254.6,103.1,253.8,103.6,253.8,103.6z"/>
	</g>
	<g>
		<path class="st14" d="M377.7,200.8c-0.3-1.5-0.5-3.2-0.6-5.2l1.3,0c0.1,1.9,0.2,3.5,0.6,4.9L377.7,200.8z M378.4,190.6l-1.3-0.1
			c0.1-1.6,0.2-3.2,0.4-5.1l1.3,0.1C378.7,187.4,378.5,189.1,378.4,190.6z M379.5,180.5l-1.3-0.2c0.2-1.6,0.5-3.3,0.7-5l1.3,0.2
			C379.9,177.2,379.7,178.9,379.5,180.5z M380.9,170.5l-1.3-0.2c0.2-1.7,0.5-3.3,0.7-5l1.3,0.2C381.4,167.1,381.2,168.8,380.9,170.5
			z M382.4,160.4l-1.3-0.2c0.2-1.7,0.4-3.4,0.6-5l1.3,0.1C382.8,157,382.6,158.7,382.4,160.4z M383.5,150.2l-1.3-0.1
			c0.1-1.7,0.3-3.4,0.3-5.1l1.3,0.1C383.7,146.8,383.6,148.5,383.5,150.2z M383.9,140h-1.3v-0.2c0-1.7,0-3.3-0.1-4.8l1.3-0.1
			c0.1,1.6,0.1,3.2,0.1,4.9V140z M382.1,130c-0.2-1.7-0.5-3.4-0.8-5l1.3-0.3c0.3,1.6,0.6,3.3,0.8,5.1L382.1,130z M380.1,120.1
			c-0.5-1.6-1.1-3.2-1.7-4.7l1.2-0.5c0.6,1.5,1.2,3.2,1.7,4.8L380.1,120.1z M376.2,110.9c-0.8-1.5-1.8-2.9-2.8-4.2l1-0.8
			c1,1.4,2,2.8,2.9,4.3L376.2,110.9z M370.2,103c-1.2-1.2-2.4-2.3-3.7-3.3l0.8-1c1.4,1.1,2.7,2.2,3.9,3.4L370.2,103z M260.4,99.8
			l-0.6-1.1c1.5-0.8,3-1.5,4.6-2.3l0.6,1.2C263.3,98.3,261.8,99.1,260.4,99.8z M362.3,96.8c-1.4-0.8-2.9-1.6-4.4-2.4l0.6-1.2
			c1.6,0.8,3.1,1.6,4.5,2.4L362.3,96.8z M269.5,95.5l-0.5-1.2c1.6-0.7,3.2-1.3,4.7-1.9l0.5,1.2C272.6,94.2,271.1,94.8,269.5,95.5z
			 M353.3,92.5c-1.6-0.6-3.2-1.2-4.8-1.7l0.4-1.2c1.6,0.5,3.2,1.1,4.8,1.7L353.3,92.5z M279,91.9l-0.4-1.2c1.6-0.5,3.3-1.1,4.9-1.5
			l0.4,1.2C282.2,90.8,280.6,91.3,279,91.9z M343.7,89.3c-1.6-0.5-3.3-0.9-4.9-1.2l0.3-1.3c1.7,0.4,3.3,0.8,5,1.3L343.7,89.3z
			 M288.7,89l-0.3-1.2c1.7-0.4,3.3-0.8,5-1.1l0.3,1.3C292,88.2,290.3,88.6,288.7,89z M333.8,87c-1.6-0.3-3.3-0.5-5-0.7L329,85
			c1.7,0.2,3.4,0.5,5.1,0.7L333.8,87z M298.6,87l-0.2-1.3c1.7-0.3,3.4-0.5,5.1-0.7l0.1,1.3C301.9,86.5,300.3,86.7,298.6,87z
			 M323.8,85.8c-1.7-0.1-3.4-0.2-5-0.2l0-1.3c1.7,0,3.4,0.1,5.1,0.2L323.8,85.8z M308.6,85.8l-0.1-1.3c1.7-0.1,3.4-0.2,5.1-0.2
			l0,1.3C312,85.6,310.3,85.7,308.6,85.8z"/>
	</g>
	<g>
		<path class="st14" d="M381.3,207.9c-0.7-0.6-1.2-1.3-1.8-2.1l1.1-0.7c0.4,0.7,1,1.3,1.5,1.8L381.3,207.9z"/>
	</g>
</g>
<g>
	<g>
		<path class="st16" d="M286.6,274.7c0,0,3.2,0,4.3-1.3c1.1-1.2,3.1-2.3,3.8-2.6c0.9-0.4,3.2-2.7,3.5-1.6c0.3,1.1-3.8,4-4.5,4.7
			c-0.8,0.8,3.4,1.1,4,1.9c0.6,0.7-1.5,8.6-4.3,8c-2.8-0.6-5-3.4-5.6-3.4c-0.5,0-2-0.3-2-0.3L286.6,274.7z"/>
	</g>
	<g>
		<path class="st16" d="M297,275.5c0,0,8.3,2.5,8.6,3.2c0.3,0.7,0.1,1.2-0.7,1c-0.8-0.2-8.1-2.2-8.1-2.2s9,4.9,9.4,5.4
			c0.2,0.3-0.2,1.3-0.6,1.3c-0.4-0.1-9.7-4.3-9.7-4.3s8.4,4.6,8.6,5.2c0.2,0.5-0.4,1.4-1,1.1c-0.7-0.3-8.8-4-8.8-4s5.9,3.8,5.8,4.5
			c-0.1,0.4-0.4,1.3-1.8,0.2c-1.5-1-5.3-3.1-5.3-3.1L297,275.5z"/>
	</g>
	<g>
		<path class="st73" d="M269.2,414c0,0,2.6,4,6.4,4.8c3.7,0.9,7.4,2.2,7.4,4.6c0,2.3-10.7,3.7-15,1.4c-6.3-3.5-7-2.5-7.7-4.2
			c-0.7-1.8,0.8-6.5,0.8-7C261,412.8,269.2,414,269.2,414z"/>
	</g>
	<g>
		<path class="st74" d="M268.8,412c0,0,0.5,1.9,0.4,2c-0.1,0-8.4,1-8.1-0.5c0.2-1.2,0.5-2.6,0.5-2.6L268.8,412z"/>
	</g>
	<g>
		<path class="st73" d="M217.1,413.7c0,0,1.9,3.8,5.1,5.1c3.4,1.4,6.2,3,6.2,5.3c-0.1,2.3-8.4,4.6-14.5,0.2
			c-3.8-2.8-5.1-2.8-5.7-4.5c-0.6-1.7,1.1-6.3,1-6.8C209.2,412.2,217.1,413.7,217.1,413.7z"/>
	</g>
	<g>
		<path class="st74" d="M217.2,411.8c0,0,0,1.9-0.1,2c-0.1,0-8.1,0.7-7.9-0.8c0.2-1.2,0.8-2.6,0.8-2.6L217.2,411.8z"/>
	</g>
	<g>
		<path class="st20" d="M246.6,296c0,0,10.5,40.4,14.5,49.7c3.7,8.6,4.9,20.7,5.5,26.8c0.6,7.6,4.5,37.4,4.9,39.6
			c0.5,2.2-12.4,1.2-12.4,1.2s-8.9-51.4-12.5-58.9c-2.5-5-16.7-40.9-18.3-38.9c-1.6,2.1-3.6,38.1-4.9,44c-1.2,6-4.9,53.2-4.9,53.2
			s-8.3,1.2-10.5-0.7c0,0-1-40.3-0.2-51.5c0.3-4.3-5-51.2,1.8-70.1C213.1,280.6,246.6,296,246.6,296z"/>
	</g>
	<g>
		<path class="st75" d="M187.9,267c0,0.5,0.9,2.3,2.3,5c2-4.1,3.6-7.4,4.2-8.6c1.7-4,10.6-13.3,10.6-13.3s0,0,0,0c0,0,0,0,0,0
			c0,0,0,0,0,0c0,0,0,0,0,0c0,0,0,0,0,0.1c0,0,0,0,0,0c0,0,0,0,0,0c0.5,1.8,3.4,13,3.5,18.5c0.1,6,1.7,17.1,1.7,17.1l0,0l1.8,0.3
			l4.1,0.6l0.5,0.1l1.2,0.2l10.8,1.5l3.8,0.5l0.5,0.1l2.2,0.3l6.1,0.9l1.5,0.2l0,0l1.2,0.2l1.6,0.2l0,0c0-0.1,1.6-2.1,1.3-6.7
			c-0.1-3-0.5-8.5-0.4-13.7c0,0,0-0.1,0-0.1c0-0.1,0-0.1,0-0.2c0,0,0,0,0-0.1v0c0.1-2.8,0.3-5.5,0.9-7.6c0.4-1.4,0.6-2.8,0.8-4
			c0-0.1,0-0.1,0-0.2c0-0.2,0.1-0.5,0.1-0.7c0.3-3.6,0.1-6.3,0.1-6.5l0,0c0.1,0.2,0.9,3.1,1.9,6.7c1.8,6,4.2,14,5.2,14.4
			c1.5,0.6,26.1,7.8,31.4,8.6c0.6,0.1,1,0.1,1,0c0-0.1,0-0.2,0.1-0.2c0.6-2.1,1.5-5.7,1.7-6.3c0-0.1,0-0.1,0-0.1l-1-0.3l-26.8-8
			l-12.2-35.3c-0.3-0.2-3.3-1.7-5.5-2.7c-2.2-1.1-4.9-2.6-7.4-4c-1.2-0.7-2.4-1.3-3.4-1.8l-0.2-0.1l0,0c-1.7-0.8-2.8-1.3-2.8-1.3
			s0,0,0,0c0,0-0.3,0-0.7-0.1c-2.3-0.2-9.7-0.9-12.1-1.1c-0.2,0-0.4,0-0.5,0c-0.1,0-0.2,0-0.2,0c-0.3,0-1.8,0.5-3.8,1.3h0
			c-0.1,0-0.1,0.1-0.2,0.1c-0.1,0-0.2,0.1-0.3,0.1c-0.2,0.1-0.3,0.1-0.5,0.2c-0.4,0.1-0.7,0.3-1.1,0.4c-0.1,0.1-0.3,0.1-0.4,0.2
			c-4,1.6-8.5,3.5-9.6,4.3c-0.7,0.5-2.9,4.7-5.5,9.9c-3.3,10.6-7.5,26.8-7.6,30.9C187.9,266.9,187.9,267,187.9,267z"/>
	</g>
	<g>
		<path class="st76" d="M245.5,290.9c0,0,0.8,1,1.1,5.1c0,0-33.5-3.9-37-5.4c0,0-0.1-4.5,0.6-4.6C211,285.8,245.5,290.9,245.5,290.9
			z"/>
	</g>
	<g>
		<path class="st16" d="M217,218.4c0.1,5.3,10.3,8.1,10.3,8.1s4.3-5.3,3.2-5.8c-0.4-0.2-0.6-1-0.6-1.9c0-0.9,0-1.8,0.1-2.4
			c0-0.4,0.1-0.6,0.1-0.6s-1.5-1.5-3.3-3.4c-3.2-3.2-7.7-7.3-7.7-5.7c0,0.1,0,0.2,0,0.3C219.8,210.8,217,218.4,217,218.4z"/>
	</g>
	<g>
		<path class="st73" d="M217.8,286.7c0,0-0.7,4.6-0.8,5.8l-1.5-0.3c0,0,0.4-4.9,0.7-5.7L217.8,286.7z"/>
	</g>
	<g>
		<path class="st73" d="M242.7,290.3c0,0,0.6,4.2,0.6,5.8l-1.6-0.2c0,0-0.3-5.2-0.5-5.8L242.7,290.3z"/>
	</g>
	<g>
		<path class="st25" d="M220.9,210.7C220.9,210.7,220.9,210.7,220.9,210.7c0,0,0.5,0.7,1.2,1.6c1.6,2,4.5,5.2,7.8,6.5
			c0-0.9,0-1.8,0.1-2.4c0.3,0,0.7,0,1-0.1c-0.9-1.6-2.2-3.2-2.2-3.2l-2-0.6L220.9,210.7z"/>
	</g>
	<g>
		<path class="st16" d="M218.9,206.9c0.9,1.9,1.7,3.3,2,3.9c0,0,0,0,0,0c0.2,0.4,0.6,0.9,1.2,1.6c1.7,1.8,4.8,4.2,7.9,4.1
			c0.3,0,0.7,0,1-0.1c1.2-0.3,2.7-0.8,3.5-2.4c6.3-12.4,1.8-22.6,1.8-22.6s-17.4-4.9-20.1,0.3C214.2,195.3,216.9,202.4,218.9,206.9z
			"/>
	</g>
	<g>
		<path class="st77" d="M236.2,191.3c0,0,1.6-0.1,2-3.1c0.4-3-0.4-3.9-0.4-3.9s-7.2-3-9.7-3.4c-2.6-0.4-8.9-0.8-10.4,0.9
			c0,0-3.6-0.8-4.6,5.1c-1.6,9.5,5.3,18.7,5.3,18.7s-0.1-6.2,1.3-7c1.4-0.8,2.5,1.1,2.5,1.1l2.8,0.5c0,0-4.2-9.2,0.8-9.5
			C231,190.5,233.3,191.9,236.2,191.3z"/>
	</g>
	<g>
		<path class="st16" d="M222.2,197.4c-0.3-2.7-5.2-3.8-4.9-0.9c0.3,2.9,2.8,5.6,3.9,5.5C222.3,201.9,222.4,199.4,222.2,197.4z"/>
	</g>
	<g>
		<path class="st78" d="M190.2,272c2.2,4.1,5.5,10.1,8.9,16c-0.4,0.8-0.9,1.6-1.3,2.4c-1,2-1.9,3.9-2.5,5.7
			c-0.8,2.1-1.8,7.6,0.2,8.6l10.7,5.9c0,0,0.1-0.2,0.2-0.6c0.4-1,1.1-3,2.2-5.7c0-0.1,0.1-0.3,0.3-0.7c0.2-0.5,0.5-1.2,0.9-2
			c0.2-0.4,0.3-0.8,0.5-1.2c0.2-0.5,0.4-0.9,0.6-1.4c0.3-0.7,0.6-1.4,0.9-2c0.7-1.7,1.3-3,1.3-3c0-0.1,0.1-0.2,0.1-0.2
			c0.3-0.8,0.7-1.5,1.1-2.3c0.6-1.2,1.1-2.3,1.7-3.5c0.1-0.1,0.1-0.2,0.2-0.3c0.1-0.2,0.2-0.4,0.3-0.6c0.1-0.1,0.1-0.2,0.2-0.4
			c0,0,0-0.1,0-0.1c0,0,0.1-0.1,0.1-0.1c3.1-5.6,6.6-10.4,7.7-17.3c0.1-0.7,0.2-1.3,0.3-2c0.2-1.1,0.3-2.2,0.4-3.2
			c0.1-0.4,0.1-0.8,0.1-1.2c0.6-4.6,0.9-8.7,1.2-11.6c0.8-8.9-4.6-18.6-8.8-24.6c-2.2-3.2-4.1-5.3-4.5-5.7c0,0,0,0,0,0
			c-0.1,0-0.1,0.1-0.2,0.1c-0.1,0-0.2,0.1-0.3,0.1c-0.2,0.1-0.3,0.1-0.5,0.2c-0.4,0.1-0.7,0.3-1.1,0.4c-0.1,0.1-0.3,0.1-0.4,0.2
			c-4.1,1.6-12.6,4-13.7,4.7c-0.6,0.4-2,4.5-3.6,9.7c-3.3,10.6-5.3,26.6-5.4,30.6c0,0.1,0,0.1,0,0.2
			C187.9,267.5,188.8,269.3,190.2,272z M206.4,270c0,2-0.6,4.3-1.6,6.7c0,0.1-0.1,0.1-0.1,0.2c-0.7-1.5-1.3-2.9-1.9-4.2c0,0,0,0,0,0
			c-1.6-3.6-2.7-6.4-2.7-7.5c-0.4-7.1,4.8-15.2,4.8-15.2c0,0,0,0,0,0c0,0,0,0,0,0c0,0,0,0,0,0c0,0,0,0.1,0,0.1c0,0,0,0,0,0
			c0,0,0,0,0,0C206,254.5,206.4,270,206.4,270z"/>
	</g>
	<path class="st79" d="M226.8,296.7l-30.5,13.6c-1.7,0.8-3.8,0-4.5-1.7l-8.4-18.8c-0.8-1.7,0-3.8,1.7-4.5l30.5-13.6
		c1.7-0.8,3.8,0,4.5,1.7l8.4,18.8C229.3,293.9,228.5,295.9,226.8,296.7z"/>
	<g>
		<path class="st78" d="M233.4,222.1c0,0,1.4,4.8,3.3,16.7c0,0,0,0,0,0c0.1,0.4,0.1,0.8,0.2,1.2c0,0,0,0.1,0,0.1
			c0,0.3,0.1,0.6,0.1,0.8c0,0,0,0.1,0,0.1c0,0.2,0.1,0.4,0.1,0.6c0.1,0.5,0.1,0.9,0.2,1.4c0.8,5.8,2,15.7,3.1,25.6v0
			c0.9,7.8,2.9,15.9,3.5,21.9c0,0,0,0,0,0c0.1,1.2,0.4,2.7,0.8,4.5c0,0.2,0.1,0.4,0.1,0.6c1.8,7.6,5.3,18.3,5.3,18.3l1-0.9l3-2.8
			c0.7-0.6,1-1.6,0.7-2.5c-1.7-5.4-7.3-24.4-8.4-37.8c0,0,0,0,0,0c0.5-4.7,1.8-11,1.6-11.9c0,0,0,0.1,0,0.1c0.6,1.7,1.3,3.5,1.9,5.2
			v0c1.8,4.7,3.6,9.1,4.4,9.4c1.7,0.6,32.1,9.6,32.4,8.4c0-0.1,0-0.3,0.1-0.4c0-0.1,0.1-0.3,0.1-0.4c0.4-1.7,1.1-4.2,1.5-5.8
			c0.1-0.2,0.1-0.5,0.2-0.7c0.2-0.7,0.3-1.1,0.3-1.1l-25.7-8.5l-13-34c-0.3-0.2-3.6-2-5.8-3c-2.3-1.1-5.2-2.4-7.7-3.6
			C235.6,223.1,234.4,222.5,233.4,222.1L233.4,222.1z"/>
	</g>
	<g>
		<path class="st80" d="M215.9,233.9l5,2.8l-2.1,2.2l5.6,30.4c1.1-7.1,1.7-13.9,2.1-18c1.3-13.8-12.5-29.4-13.4-30.4
			c-0.7,0.3-1.4,0.5-2.1,0.8L215.9,233.9z"/>
	</g>
	<g>
		<path class="st80" d="M233.3,222c0,0,1.8,6,4,21.1c0.8,5.8,2,15.7,3.1,25.6l1.2-28.5l-2.4-2.6l2.1-2.6l-4.5-11.5
			c-1.2-0.6-2.4-1.1-3.4-1.5L233.3,222z"/>
	</g>
	<g>
		<path class="st81" d="M212.8,221l4.1-2.5c0,0,0.1,2.3,10.3,8.1l-2.9,8.1L212.8,221z"/>
	</g>
	<g>
		<path class="st81" d="M230,219.6c0,0-0.2,2.4-2.7,7l5.6,7.3l0.4-11.9L230,219.6z"/>
	</g>
	<g>
		<path class="st82" d="M227.2,226.6c0,0-1.1,4.4-0.7,5.6c0,0,2.4,0.9,4.1-0.2C230.7,232,229.4,228.9,227.2,226.6z"/>
	</g>
	<g>
		<g>
			<path class="st83" d="M232.9,289.6c0.6-3.1,0-12.3,0-12.7l-0.5,0c0,0.1,0.6,9.6,0,12.6L232.9,289.6z"/>
		</g>
	</g>
	<g>
		<path class="st84" d="M228.6,288.2c0,0,4.9,0.6,6.6,1l-0.2,5.5l-6.5-0.7L228.6,288.2z"/>
	</g>
	<g>
		<path class="st82" d="M229.7,231.6c0,0,5.5,13.9,4.6,29.4c-0.9,16.1-2.5,21.9-2.5,21.9l-3.4,4.2l-1.5-5.2c0,0,4.5-20.5,1.6-40.5
			c-0.5-3.6-1.3-10.5-1.3-10.5L229.7,231.6z"/>
	</g>
	<g>
		<path class="st16" d="M213.2,297.1c0,0,1.2,2.4,2.4,2.8c1.2,0.4,2.9,2.3,2.9,2.3l-8.3,4.4c0,0-2.2-4.3-2.3-7.1
			C207.7,296.7,213.2,297.1,213.2,297.1z"/>
	</g>
	<g>
		<path class="st75" d="M214,297.3l0.6,1.1c0,0-5.3,3.9-6.7,4.1l-0.5-1.5L214,297.3z"/>
	</g>
	<g>
		<path class="st78" d="M214.5,297.4c0,0-4,3.3-7.3,4.8L192.3,276l9.5-5.2C201.8,270.8,214.2,295.4,214.5,297.4z"/>
	</g>
	<g>
		<path class="st20" d="M248,251.1c0.2,3.7,0.2,7,0.2,7v0c0,0,0,0.1,0,0.3c0-0.1,0-0.1,0-0.2c0.6,1.7,1.3,3.5,1.9,5.2
			c0.2-2,0.2-3.9,0.1-5.7c-0.3-10.5-3.6-15.9-3.6-15.9C247.4,243.7,247.8,247.6,248,251.1z"/>
	</g>
</g>
<g>
	<path class="st4" d="M29.9,368.2c-0.8-0.5-1.5-1.1-1.9-1.9s-0.7-1.8-0.7-2.9c0-1.1,0.2-2,0.7-2.9c0.4-0.8,1.1-1.5,1.9-1.9
		c0.8-0.5,1.8-0.7,2.9-0.7c0.7,0,1.4,0.1,2,0.3c0.7,0.2,1.2,0.5,1.6,0.9l-0.9,2c-0.9-0.6-1.8-1-2.7-1c-0.9,0-1.5,0.3-2,0.8
		c-0.5,0.5-0.7,1.4-0.7,2.4c0,1.1,0.2,1.9,0.7,2.5c0.5,0.6,1.1,0.8,2,0.8c0.9,0,1.8-0.3,2.7-1l0.9,2c-0.4,0.4-0.9,0.6-1.6,0.9
		c-0.7,0.2-1.3,0.3-2,0.3C31.7,368.9,30.7,368.6,29.9,368.2z"/>
	<path class="st4" d="M39.3,368.4c-0.6-0.3-1.1-0.8-1.5-1.4c-0.3-0.6-0.5-1.3-0.5-2.1c0-0.8,0.2-1.5,0.5-2.1
		c0.3-0.6,0.8-1.1,1.5-1.4s1.4-0.5,2.2-0.5c0.8,0,1.6,0.2,2.2,0.5c0.6,0.3,1.1,0.8,1.5,1.4c0.3,0.6,0.5,1.3,0.5,2.1
		c0,0.8-0.2,1.5-0.5,2.1c-0.3,0.6-0.8,1.1-1.5,1.4c-0.6,0.3-1.4,0.5-2.2,0.5C40.6,368.8,39.9,368.7,39.3,368.4z M43,364.8
		c0-0.7-0.1-1.2-0.4-1.5c-0.2-0.3-0.6-0.5-1.1-0.5c-0.5,0-0.9,0.2-1.1,0.5c-0.3,0.3-0.4,0.8-0.4,1.5c0,0.7,0.1,1.2,0.4,1.5
		c0.3,0.3,0.6,0.5,1.1,0.5C42.5,366.8,43,366.1,43,364.8z"/>
	<path class="st4" d="M58.7,361.7c0.4,0.5,0.6,1.4,0.6,2.5v4.6h-2.7v-4.5c0-0.5-0.1-0.8-0.2-1c-0.1-0.2-0.4-0.3-0.7-0.3
		c-0.4,0-0.7,0.1-0.9,0.4c-0.2,0.3-0.3,0.7-0.3,1.2v4.2h-2.7v-4.5c0-0.5-0.1-0.8-0.2-1s-0.4-0.3-0.7-0.3c-0.4,0-0.7,0.1-0.9,0.4
		c-0.2,0.3-0.3,0.7-0.3,1.2v4.2H47v-5.5c0-0.8,0-1.6-0.1-2.2h2.6l0.1,1.1c0.2-0.4,0.6-0.7,1-1c0.4-0.2,0.9-0.3,1.4-0.3
		c1.1,0,1.8,0.5,2.2,1.4c0.3-0.4,0.6-0.8,1.1-1c0.4-0.3,0.9-0.4,1.5-0.4C57.6,360.8,58.3,361.1,58.7,361.7z"/>
	<path class="st4" d="M67.7,361.4c0.5,0.3,0.9,0.8,1.2,1.4c0.3,0.6,0.4,1.3,0.4,2.1c0,0.8-0.1,1.5-0.4,2.1c-0.3,0.6-0.7,1.1-1.2,1.4
		c-0.5,0.3-1.1,0.5-1.8,0.5c-0.5,0-1-0.1-1.4-0.3s-0.7-0.5-1-0.8v4.3h-2.7v-8.7c0-0.8,0-1.6-0.1-2.2h2.6l0.2,1.2
		c0.2-0.4,0.5-0.8,1-1c0.4-0.3,0.9-0.4,1.5-0.4C66.6,360.8,67.2,361,67.7,361.4z M66.3,366.3c0.3-0.3,0.4-0.8,0.4-1.4
		c0-0.6-0.1-1.1-0.4-1.5c-0.3-0.3-0.6-0.5-1.1-0.5c-0.5,0-0.9,0.2-1.1,0.5c-0.3,0.3-0.4,0.8-0.4,1.5c0,0.6,0.1,1.1,0.4,1.4
		c0.3,0.3,0.6,0.5,1.1,0.5C65.6,366.8,66,366.6,66.3,366.3z"/>
	<path class="st4" d="M78.7,361.1v7.7H76v-1c-0.2,0.4-0.5,0.6-1,0.9c-0.4,0.2-0.9,0.3-1.4,0.3c-0.7,0-1.2-0.2-1.8-0.5
		c-0.5-0.3-0.9-0.8-1.2-1.4s-0.4-1.3-0.4-2.1c0-0.8,0.1-1.5,0.4-2.1c0.3-0.6,0.7-1.1,1.2-1.4s1.1-0.5,1.7-0.5c0.5,0,1,0.1,1.4,0.3
		c0.4,0.2,0.7,0.5,1,0.9v-1H78.7z M75.6,366.3c0.3-0.3,0.4-0.8,0.4-1.4c0-0.6-0.1-1.1-0.4-1.5c-0.3-0.3-0.6-0.5-1.1-0.5
		c-0.5,0-0.8,0.2-1.1,0.5c-0.3,0.3-0.4,0.8-0.4,1.5c0,0.6,0.1,1.1,0.4,1.4c0.3,0.3,0.6,0.5,1.1,0.5C75,366.8,75.4,366.6,75.6,366.3z
		"/>
	<path class="st4" d="M87.5,361.7c0.4,0.5,0.7,1.4,0.7,2.5v4.6h-2.7v-4.5c0-0.5-0.1-0.8-0.2-1c-0.2-0.2-0.4-0.3-0.8-0.3
		c-0.4,0-0.7,0.1-1,0.4c-0.3,0.3-0.4,0.6-0.4,1.1v4.3h-2.7v-5.5c0-0.8,0-1.6-0.1-2.2h2.6l0.1,1.1c0.3-0.4,0.7-0.8,1.1-1
		s0.9-0.3,1.5-0.3C86.4,360.8,87.1,361.1,87.5,361.7z"/>
	<path class="st4" d="M97.7,361.1l-3.5,7.9c-0.5,1-1,1.8-1.7,2.3c-0.7,0.5-1.6,0.8-2.6,0.9l-0.6-2.1c0.7-0.1,1.2-0.3,1.6-0.5
		c0.4-0.2,0.6-0.5,0.8-0.9l0.2-0.4l-3.1-7.1h2.8l1.7,4.4l1.8-4.4H97.7z"/>
	<path class="st4" d="M36.6,376.1h2.9l-4.9,10.7h-2.2l-4.9-10.7h2.9l3.1,7.2L36.6,376.1z"/>
	<path class="st4" d="M47,379.2v7.7h-2.7v-1c-0.2,0.4-0.5,0.6-1,0.9c-0.4,0.2-0.9,0.3-1.4,0.3c-0.7,0-1.2-0.2-1.8-0.5
		c-0.5-0.3-0.9-0.8-1.2-1.4s-0.4-1.3-0.4-2.1c0-0.8,0.1-1.5,0.4-2.1c0.3-0.6,0.7-1.1,1.2-1.4s1.1-0.5,1.7-0.5c0.5,0,1,0.1,1.4,0.3
		c0.4,0.2,0.7,0.5,1,0.9v-1H47z M44,384.4c0.3-0.3,0.4-0.8,0.4-1.4c0-0.6-0.1-1.1-0.4-1.5c-0.3-0.3-0.6-0.5-1.1-0.5
		c-0.5,0-0.8,0.2-1.1,0.5c-0.3,0.3-0.4,0.8-0.4,1.5c0,0.6,0.1,1.1,0.4,1.4c0.3,0.3,0.6,0.5,1.1,0.5C43.3,384.9,43.7,384.7,44,384.4z
		"/>
	<path class="st4" d="M48.7,386.8v-11.1h2.7v11.1H48.7z"/>
	<path class="st4" d="M60.7,379.2v7.7h-2.7v-1c-0.5,0.8-1.2,1.1-2.2,1.1c-1,0-1.7-0.3-2.2-0.8s-0.7-1.4-0.7-2.5v-4.5h2.7v4.6
		c0,0.8,0.3,1.1,1,1.1c0.4,0,0.7-0.1,0.9-0.4c0.2-0.3,0.4-0.6,0.4-1.1v-4.2H60.7z"/>
	<path class="st4" d="M70.4,379.2v7.7h-2.7v-1c-0.2,0.4-0.5,0.6-1,0.9c-0.4,0.2-0.9,0.3-1.4,0.3c-0.7,0-1.2-0.2-1.8-0.5
		c-0.5-0.3-0.9-0.8-1.2-1.4S62,383.8,62,383c0-0.8,0.1-1.5,0.4-2.1c0.3-0.6,0.7-1.1,1.2-1.4s1.1-0.5,1.7-0.5c0.5,0,1,0.1,1.4,0.3
		c0.4,0.2,0.7,0.5,1,0.9v-1H70.4z M67.4,384.4c0.3-0.3,0.4-0.8,0.4-1.4c0-0.6-0.1-1.1-0.4-1.5c-0.3-0.3-0.6-0.5-1.1-0.5
		c-0.5,0-0.8,0.2-1.1,0.5c-0.3,0.3-0.4,0.8-0.4,1.5c0,0.6,0.1,1.1,0.4,1.4c0.3,0.3,0.6,0.5,1.1,0.5
		C66.7,384.9,67.1,384.7,67.4,384.4z"/>
	<path class="st4" d="M77.3,384.7v2.1c-0.4,0.2-0.8,0.2-1.4,0.2c-1,0-1.8-0.3-2.4-0.9c-0.5-0.6-0.8-1.4-0.8-2.4v-2.5h-1.4v-2h1.4
		v-1.7l2.7-0.9v2.6h1.8v2h-1.8v2.5c0,0.4,0.1,0.6,0.3,0.8c0.2,0.2,0.5,0.3,0.8,0.3C76.8,384.7,77,384.7,77.3,384.7z"/>
	<path class="st4" d="M78.3,375.4h2.9v2.5h-2.9V375.4z M78.4,386.8v-7.7h2.7v7.7H78.4z"/>
	<path class="st4" d="M84.3,386.5c-0.6-0.3-1.1-0.8-1.5-1.4c-0.3-0.6-0.5-1.3-0.5-2.1c0-0.8,0.2-1.5,0.5-2.1
		c0.3-0.6,0.8-1.1,1.5-1.4s1.4-0.5,2.2-0.5c0.8,0,1.6,0.2,2.2,0.5c0.6,0.3,1.1,0.8,1.5,1.4c0.3,0.6,0.5,1.3,0.5,2.1
		c0,0.8-0.2,1.5-0.5,2.1c-0.3,0.6-0.8,1.1-1.5,1.4c-0.6,0.3-1.4,0.5-2.2,0.5C85.7,386.9,85,386.8,84.3,386.5z M88.1,383
		c0-0.7-0.1-1.2-0.4-1.5c-0.2-0.3-0.6-0.5-1.1-0.5c-0.5,0-0.9,0.2-1.1,0.5c-0.3,0.3-0.4,0.8-0.4,1.5c0,0.7,0.1,1.2,0.4,1.5
		c0.3,0.3,0.6,0.5,1.1,0.5C87.6,384.9,88.1,384.3,88.1,383z"/>
	<path class="st4" d="M99.2,379.8c0.4,0.5,0.7,1.4,0.7,2.5v4.6h-2.7v-4.5c0-0.5-0.1-0.8-0.2-1c-0.2-0.2-0.4-0.3-0.8-0.3
		c-0.4,0-0.7,0.1-1,0.4c-0.3,0.3-0.4,0.6-0.4,1.1v4.3H92v-5.5c0-0.8,0-1.6-0.1-2.2h2.6l0.1,1.1c0.3-0.4,0.7-0.8,1.1-1
		s0.9-0.3,1.5-0.3C98.1,379,98.8,379.2,99.2,379.8z"/>
</g>
<g>
	<path class="st4" d="M517.5,406v-10.7h7.5v2.2h-4.7v2h4.4v2.2h-4.4v4.4H517.5z"/>
	<path class="st4" d="M533.1,402.4h-4.8c0.1,0.6,0.2,1,0.5,1.3c0.3,0.3,0.7,0.4,1.3,0.4c0.4,0,0.8-0.1,1.1-0.2
		c0.4-0.1,0.7-0.3,1-0.5l0.7,1.8c-0.4,0.3-0.8,0.5-1.4,0.7c-0.5,0.2-1.1,0.2-1.6,0.2c-0.9,0-1.6-0.2-2.3-0.5
		c-0.6-0.3-1.1-0.8-1.5-1.4c-0.3-0.6-0.5-1.3-0.5-2.1c0-0.8,0.2-1.5,0.5-2.1c0.3-0.6,0.8-1.1,1.4-1.4s1.2-0.5,2-0.5
		c0.7,0,1.4,0.2,1.9,0.5s1,0.8,1.3,1.4c0.3,0.6,0.4,1.3,0.4,2.1V402.4z M528.3,401.1h2.4c-0.1-0.8-0.5-1.2-1.2-1.2
		C528.9,400,528.5,400.4,528.3,401.1z"/>
	<path class="st4" d="M542.4,398.3v7.7h-2.7v-1c-0.2,0.4-0.5,0.6-1,0.9s-0.9,0.3-1.4,0.3c-0.7,0-1.2-0.2-1.8-0.5
		c-0.5-0.3-0.9-0.8-1.2-1.4c-0.3-0.6-0.4-1.3-0.4-2.1c0-0.8,0.1-1.5,0.4-2.1s0.7-1.1,1.2-1.4c0.5-0.3,1.1-0.5,1.7-0.5
		c0.5,0,1,0.1,1.4,0.3c0.4,0.2,0.7,0.5,1,0.9v-1H542.4z M539.3,403.6c0.3-0.3,0.4-0.8,0.4-1.4c0-0.6-0.1-1.1-0.4-1.5
		c-0.3-0.3-0.6-0.5-1.1-0.5c-0.5,0-0.8,0.2-1.1,0.5c-0.3,0.3-0.4,0.8-0.4,1.5c0,0.6,0.1,1.1,0.4,1.4c0.3,0.3,0.6,0.5,1.1,0.5
		C538.7,404.1,539.1,403.9,539.3,403.6z"/>
	<path class="st4" d="M543.5,405.2l0.7-1.9c0.4,0.3,0.9,0.5,1.4,0.7c0.5,0.2,1,0.2,1.5,0.2c0.3,0,0.6,0,0.7-0.1
		c0.2-0.1,0.3-0.2,0.3-0.4c0-0.1-0.1-0.3-0.2-0.3c-0.1-0.1-0.4-0.2-0.7-0.2l-1.2-0.3c-0.8-0.2-1.4-0.4-1.7-0.8
		c-0.3-0.3-0.5-0.8-0.5-1.4c0-0.5,0.1-0.9,0.4-1.3c0.3-0.4,0.7-0.7,1.2-0.9c0.5-0.2,1.1-0.3,1.8-0.3c0.6,0,1.1,0.1,1.6,0.2
		c0.5,0.2,1,0.4,1.5,0.7l-0.7,1.8c-0.4-0.3-0.8-0.5-1.2-0.6c-0.4-0.1-0.8-0.2-1.2-0.2c-0.3,0-0.5,0-0.7,0.1s-0.3,0.2-0.3,0.4
		c0,0.1,0,0.2,0.2,0.3s0.3,0.1,0.6,0.2l1.3,0.3c0.8,0.2,1.4,0.5,1.8,0.8s0.5,0.9,0.5,1.5c0,0.8-0.3,1.3-0.9,1.8s-1.4,0.6-2.5,0.6
		C545.6,406.1,544.4,405.8,543.5,405.2z"/>
	<path class="st4" d="M551.6,394.5h2.9v2.5h-2.9V394.5z M551.7,406v-7.7h2.7v7.7H551.7z"/>
	<path class="st4" d="M562.9,398.6c0.5,0.3,0.9,0.8,1.2,1.4c0.3,0.6,0.4,1.3,0.4,2.1c0,0.8-0.1,1.5-0.4,2.1
		c-0.3,0.6-0.7,1.1-1.2,1.4c-0.5,0.3-1.1,0.5-1.8,0.5c-0.5,0-1-0.1-1.4-0.3s-0.7-0.5-1-0.9v1h-2.7v-11.1h2.7v4.4
		c0.2-0.3,0.5-0.6,1-0.8c0.4-0.2,0.9-0.3,1.4-0.3C561.8,398.1,562.4,398.3,562.9,398.6z M561.4,403.5c0.3-0.3,0.4-0.8,0.4-1.5
		c0-0.6-0.1-1.1-0.4-1.4c-0.3-0.3-0.6-0.5-1.1-0.5s-0.9,0.2-1.1,0.5s-0.4,0.8-0.4,1.4c0,0.6,0.1,1.1,0.4,1.5
		c0.3,0.3,0.6,0.5,1.1,0.5C560.8,404.1,561.1,403.9,561.4,403.5z"/>
	<path class="st4" d="M565.7,394.5h2.9v2.5h-2.9V394.5z M565.8,406v-7.7h2.7v7.7H565.8z"/>
	<path class="st4" d="M570.1,406v-11.1h2.7V406H570.1z"/>
	<path class="st4" d="M574.4,394.5h2.9v2.5h-2.9V394.5z M574.5,406v-7.7h2.7v7.7H574.5z"/>
	<path class="st4" d="M584.1,403.8v2.1c-0.4,0.2-0.8,0.2-1.4,0.2c-1,0-1.8-0.3-2.4-0.9c-0.5-0.6-0.8-1.4-0.8-2.4v-2.5h-1.4v-2h1.4
		v-1.7l2.7-0.9v2.6h1.8v2h-1.8v2.5c0,0.4,0.1,0.6,0.3,0.8c0.2,0.2,0.5,0.3,0.8,0.3C583.6,403.9,583.8,403.9,584.1,403.8z"/>
	<path class="st4" d="M593.2,398.3l-3.5,7.9c-0.5,1-1,1.8-1.7,2.3c-0.7,0.5-1.6,0.8-2.6,0.9l-0.6-2.1c0.7-0.1,1.2-0.3,1.6-0.5
		c0.4-0.2,0.6-0.5,0.8-0.9l0.2-0.4l-3.1-7.1h2.8l1.7,4.4l1.8-4.4H593.2z"/>
	<path class="st4" d="M599.8,405.8c-0.8-0.2-1.4-0.5-1.9-0.9l0.9-2c0.5,0.3,1.1,0.6,1.7,0.8s1.2,0.3,1.8,0.3c0.6,0,1.1-0.1,1.4-0.2
		c0.3-0.2,0.5-0.4,0.5-0.7c0-0.3-0.1-0.5-0.4-0.7c-0.3-0.2-0.8-0.3-1.6-0.5c-1-0.2-1.8-0.5-2.4-0.7s-1-0.6-1.2-1s-0.3-0.9-0.3-1.5
		c0-0.7,0.2-1.2,0.6-1.8c0.4-0.5,0.9-0.9,1.6-1.2c0.7-0.3,1.4-0.4,2.3-0.4c0.8,0,1.5,0.1,2.3,0.3c0.7,0.2,1.3,0.5,1.7,0.9l-0.9,2
		c-0.5-0.3-1-0.6-1.5-0.8c-0.5-0.2-1-0.3-1.6-0.3c-0.5,0-0.9,0.1-1.2,0.3c-0.3,0.2-0.5,0.5-0.5,0.8c0,0.2,0.1,0.3,0.2,0.5
		c0.1,0.1,0.3,0.2,0.6,0.4c0.3,0.1,0.8,0.2,1.4,0.4c1,0.2,1.7,0.5,2.3,0.8c0.6,0.3,1,0.6,1.2,1s0.3,0.9,0.3,1.4c0,1-0.4,1.9-1.2,2.5
		c-0.8,0.6-2,0.9-3.4,0.9C601.4,406.1,600.6,406,599.8,405.8z"/>
	<path class="st4" d="M613.3,403.8v2.1c-0.4,0.2-0.8,0.2-1.4,0.2c-1,0-1.8-0.3-2.4-0.9c-0.5-0.6-0.8-1.4-0.8-2.4v-2.5h-1.4v-2h1.4
		v-1.7l2.7-0.9v2.6h1.8v2h-1.8v2.5c0,0.4,0.1,0.6,0.3,0.8c0.2,0.2,0.5,0.3,0.8,0.3C612.8,403.9,613,403.9,613.3,403.8z"/>
	<path class="st4" d="M622.1,398.3v7.7h-2.7v-1c-0.5,0.8-1.2,1.1-2.2,1.1c-1,0-1.7-0.3-2.2-0.8s-0.7-1.4-0.7-2.5v-4.5h2.7v4.6
		c0,0.8,0.3,1.1,1,1.1c0.4,0,0.7-0.1,0.9-0.4c0.2-0.3,0.4-0.6,0.4-1.1v-4.2H622.1z"/>
	<path class="st4" d="M631.8,394.9V406h-2.7v-1c-0.2,0.4-0.5,0.6-1,0.9s-0.9,0.3-1.4,0.3c-0.7,0-1.2-0.2-1.8-0.5s-0.9-0.8-1.2-1.4
		c-0.3-0.6-0.4-1.3-0.4-2.1c0-0.8,0.1-1.5,0.4-2.1c0.3-0.6,0.7-1.1,1.2-1.4s1.1-0.5,1.8-0.5c0.5,0,0.9,0.1,1.3,0.3s0.7,0.5,1,0.8
		v-4.3H631.8z M628.7,403.5c0.3-0.3,0.4-0.8,0.4-1.5c0-0.6-0.1-1.1-0.4-1.4c-0.3-0.3-0.6-0.5-1.1-0.5c-0.5,0-0.9,0.2-1.1,0.5
		s-0.4,0.8-0.4,1.4c0,0.6,0.1,1.1,0.4,1.5c0.3,0.3,0.6,0.5,1.1,0.5C628.1,404.1,628.4,403.9,628.7,403.5z"/>
	<path class="st4" d="M641.3,398.3l-3.5,7.9c-0.5,1-1,1.8-1.7,2.3c-0.7,0.5-1.6,0.8-2.6,0.9l-0.6-2.1c0.7-0.1,1.2-0.3,1.6-0.5
		c0.4-0.2,0.6-0.5,0.8-0.9l0.2-0.4l-3.1-7.1h2.8l1.7,4.4l1.8-4.4H641.3z"/>
</g>
<g>
	<path class="st4" d="M396.3,94.3h2.2v10.7H396l0-4.9l-2,4.9h-1.8l-2.1-4.9v4.9h-2.5V94.3h2.2l3.2,7.3L396.3,94.3z"/>
	<path class="st4" d="M408.4,97.4v7.7h-2.7v-1c-0.2,0.4-0.5,0.6-1,0.9s-0.9,0.3-1.4,0.3c-0.7,0-1.2-0.2-1.8-0.5
		c-0.5-0.3-0.9-0.8-1.2-1.4c-0.3-0.6-0.4-1.3-0.4-2.1c0-0.8,0.1-1.5,0.4-2.1s0.7-1.1,1.2-1.4c0.5-0.3,1.1-0.5,1.7-0.5
		c0.5,0,1,0.1,1.4,0.3c0.4,0.2,0.7,0.5,1,0.9v-1H408.4z M405.3,102.7c0.3-0.3,0.4-0.8,0.4-1.4c0-0.6-0.1-1.1-0.4-1.5
		c-0.3-0.3-0.6-0.5-1.1-0.5c-0.5,0-0.8,0.2-1.1,0.5c-0.3,0.3-0.4,0.8-0.4,1.5c0,0.6,0.1,1.1,0.4,1.4c0.3,0.3,0.6,0.5,1.1,0.5
		C404.7,103.2,405.1,103,405.3,102.7z"/>
	<path class="st4" d="M417.2,98c0.4,0.5,0.7,1.4,0.7,2.5v4.6h-2.7v-4.5c0-0.5-0.1-0.8-0.2-1s-0.4-0.3-0.8-0.3c-0.4,0-0.7,0.1-1,0.4
		c-0.3,0.3-0.4,0.6-0.4,1.1v4.3H410v-5.5c0-0.8,0-1.6-0.1-2.2h2.6l0.1,1.1c0.3-0.4,0.7-0.8,1.1-1c0.4-0.2,0.9-0.3,1.5-0.3
		C416.1,97.2,416.7,97.5,417.2,98z"/>
	<path class="st4" d="M427.5,97.4v7.7h-2.7v-1c-0.2,0.4-0.5,0.6-1,0.9s-0.9,0.3-1.4,0.3c-0.7,0-1.2-0.2-1.8-0.5
		c-0.5-0.3-0.9-0.8-1.2-1.4c-0.3-0.6-0.4-1.3-0.4-2.1c0-0.8,0.1-1.5,0.4-2.1s0.7-1.1,1.2-1.4c0.5-0.3,1.1-0.5,1.7-0.5
		c0.5,0,1,0.1,1.4,0.3c0.4,0.2,0.7,0.5,1,0.9v-1H427.5z M424.4,102.7c0.3-0.3,0.4-0.8,0.4-1.4c0-0.6-0.1-1.1-0.4-1.5
		c-0.3-0.3-0.6-0.5-1.1-0.5c-0.5,0-0.8,0.2-1.1,0.5c-0.3,0.3-0.4,0.8-0.4,1.5c0,0.6,0.1,1.1,0.4,1.4c0.3,0.3,0.6,0.5,1.1,0.5
		C423.8,103.2,424.2,103,424.4,102.7z"/>
	<path class="st4" d="M437.3,97.4v7.2c0,1.3-0.4,2.2-1.1,2.9c-0.8,0.7-1.9,1-3.3,1c-1.2,0-2.3-0.2-3.2-0.7l0.4-2
		c0.5,0.2,0.9,0.4,1.4,0.5s0.9,0.2,1.4,0.2c0.6,0,1.1-0.1,1.4-0.4s0.4-0.7,0.4-1.2v-1.1c-0.3,0.3-0.6,0.6-1,0.8
		c-0.4,0.2-0.9,0.3-1.4,0.3c-0.7,0-1.2-0.2-1.8-0.5s-0.9-0.8-1.2-1.3c-0.3-0.6-0.4-1.3-0.4-2c0-0.8,0.1-1.4,0.4-2
		c0.3-0.6,0.7-1,1.2-1.4c0.5-0.3,1.1-0.5,1.8-0.5c0.5,0,1,0.1,1.4,0.3c0.4,0.2,0.7,0.5,1,0.9v-1H437.3z M434.2,102.3
		c0.3-0.3,0.4-0.8,0.4-1.3c0-0.5-0.1-1-0.4-1.3s-0.6-0.5-1.1-0.5c-0.5,0-0.9,0.2-1.1,0.5c-0.3,0.3-0.4,0.7-0.4,1.3
		c0,0.6,0.1,1,0.4,1.3c0.3,0.3,0.7,0.5,1.1,0.5C433.5,102.8,433.9,102.7,434.2,102.3z"/>
	<path class="st4" d="M446,101.5h-4.8c0.1,0.6,0.2,1,0.5,1.3c0.3,0.3,0.7,0.4,1.3,0.4c0.4,0,0.8-0.1,1.1-0.2c0.4-0.1,0.7-0.3,1-0.5
		l0.7,1.8c-0.4,0.3-0.8,0.5-1.4,0.7c-0.5,0.2-1.1,0.2-1.6,0.2c-0.9,0-1.6-0.2-2.3-0.5c-0.6-0.3-1.1-0.8-1.5-1.4
		c-0.3-0.6-0.5-1.3-0.5-2.1c0-0.8,0.2-1.5,0.5-2.1c0.3-0.6,0.8-1.1,1.4-1.4c0.6-0.3,1.2-0.5,2-0.5c0.7,0,1.4,0.2,1.9,0.5
		c0.5,0.3,1,0.8,1.3,1.4c0.3,0.6,0.4,1.3,0.4,2.1V101.5z M441.2,100.2h2.4c-0.1-0.8-0.5-1.2-1.2-1.2
		C441.8,99.1,441.4,99.5,441.2,100.2z"/>
	<path class="st4" d="M459,98c0.4,0.5,0.6,1.4,0.6,2.5v4.6h-2.7v-4.5c0-0.5-0.1-0.8-0.2-1c-0.1-0.2-0.4-0.3-0.7-0.3
		c-0.4,0-0.7,0.1-0.9,0.4c-0.2,0.3-0.3,0.7-0.3,1.2v4.2h-2.7v-4.5c0-0.5-0.1-0.8-0.2-1c-0.1-0.2-0.4-0.3-0.7-0.3
		c-0.4,0-0.7,0.1-0.9,0.4c-0.2,0.3-0.3,0.7-0.3,1.2v4.2h-2.7v-5.5c0-0.8,0-1.6-0.1-2.2h2.6l0.1,1.1c0.2-0.4,0.6-0.7,1-1
		c0.4-0.2,0.9-0.3,1.4-0.3c1.1,0,1.8,0.5,2.2,1.4c0.3-0.4,0.6-0.8,1.1-1c0.4-0.3,0.9-0.4,1.5-0.4C457.9,97.2,458.6,97.5,459,98z"/>
	<path class="st4" d="M468.3,101.5h-4.8c0.1,0.6,0.2,1,0.5,1.3c0.3,0.3,0.7,0.4,1.3,0.4c0.4,0,0.8-0.1,1.1-0.2
		c0.4-0.1,0.7-0.3,1-0.5l0.7,1.8c-0.4,0.3-0.8,0.5-1.4,0.7c-0.5,0.2-1.1,0.2-1.6,0.2c-0.9,0-1.6-0.2-2.3-0.5
		c-0.6-0.3-1.1-0.8-1.5-1.4c-0.3-0.6-0.5-1.3-0.5-2.1c0-0.8,0.2-1.5,0.5-2.1c0.3-0.6,0.8-1.1,1.4-1.4c0.6-0.3,1.2-0.5,2-0.5
		c0.7,0,1.4,0.2,1.9,0.5c0.5,0.3,1,0.8,1.3,1.4c0.3,0.6,0.4,1.3,0.4,2.1V101.5z M463.5,100.2h2.4c-0.1-0.8-0.5-1.2-1.2-1.2
		C464.1,99.1,463.7,99.5,463.5,100.2z"/>
	<path class="st4" d="M476.7,98c0.4,0.5,0.7,1.4,0.7,2.5v4.6h-2.7v-4.5c0-0.5-0.1-0.8-0.2-1s-0.4-0.3-0.8-0.3c-0.4,0-0.7,0.1-1,0.4
		c-0.3,0.3-0.4,0.6-0.4,1.1v4.3h-2.7v-5.5c0-0.8,0-1.6-0.1-2.2h2.6l0.1,1.1c0.3-0.4,0.7-0.8,1.1-1c0.4-0.2,0.9-0.3,1.5-0.3
		C475.6,97.2,476.3,97.5,476.7,98z"/>
	<path class="st4" d="M484.2,102.9v2.1c-0.4,0.2-0.8,0.2-1.4,0.2c-1,0-1.8-0.3-2.4-0.9s-0.8-1.4-0.8-2.4v-2.5h-1.4v-2h1.4v-1.7
		l2.7-0.9v2.6h1.8v2h-1.8v2.5c0,0.4,0.1,0.6,0.3,0.8c0.2,0.2,0.5,0.3,0.8,0.3C483.7,103,483.9,103,484.2,102.9z"/>
	<path class="st4" d="M492.1,104.5c-0.8-0.5-1.5-1.1-1.9-1.9s-0.7-1.8-0.7-2.9c0-1.1,0.2-2,0.7-2.9s1.1-1.5,1.9-1.9
		c0.8-0.5,1.8-0.7,2.9-0.7c0.7,0,1.4,0.1,2,0.3c0.7,0.2,1.2,0.5,1.6,0.9l-0.9,2c-0.9-0.6-1.8-1-2.7-1c-0.9,0-1.5,0.3-2,0.8
		c-0.5,0.5-0.7,1.4-0.7,2.4c0,1.1,0.2,1.9,0.7,2.5c0.5,0.6,1.1,0.8,2,0.8c0.9,0,1.8-0.3,2.7-1l0.9,2c-0.4,0.4-0.9,0.6-1.6,0.9
		c-0.7,0.2-1.3,0.3-2,0.3C493.9,105.2,492.9,105,492.1,104.5z"/>
	<path class="st4" d="M501.4,104.7c-0.6-0.3-1.1-0.8-1.5-1.4c-0.3-0.6-0.5-1.3-0.5-2.1s0.2-1.5,0.5-2.1c0.3-0.6,0.8-1.1,1.5-1.4
		c0.6-0.3,1.4-0.5,2.2-0.5c0.8,0,1.6,0.2,2.2,0.5c0.6,0.3,1.1,0.8,1.5,1.4c0.3,0.6,0.5,1.3,0.5,2.1s-0.2,1.5-0.5,2.1
		c-0.3,0.6-0.8,1.1-1.5,1.4s-1.4,0.5-2.2,0.5C502.8,105.2,502.1,105,501.4,104.7z M505.2,101.2c0-0.7-0.1-1.2-0.4-1.5
		c-0.2-0.3-0.6-0.5-1.1-0.5c-0.5,0-0.9,0.2-1.1,0.5c-0.3,0.3-0.4,0.8-0.4,1.5c0,0.7,0.1,1.2,0.4,1.5c0.3,0.3,0.6,0.5,1.1,0.5
		C504.7,103.2,505.2,102.5,505.2,101.2z"/>
	<path class="st4" d="M516.3,98c0.4,0.5,0.7,1.4,0.7,2.5v4.6h-2.7v-4.5c0-0.5-0.1-0.8-0.2-1s-0.4-0.3-0.8-0.3c-0.4,0-0.7,0.1-1,0.4
		c-0.3,0.3-0.4,0.6-0.4,1.1v4.3h-2.7v-5.5c0-0.8,0-1.6-0.1-2.2h2.6l0.1,1.1c0.3-0.4,0.7-0.8,1.1-1c0.4-0.2,0.9-0.3,1.5-0.3
		C515.2,97.2,515.9,97.5,516.3,98z"/>
	<path class="st4" d="M518,104.3l0.7-1.9c0.4,0.3,0.9,0.5,1.4,0.7c0.5,0.2,1,0.2,1.5,0.2c0.3,0,0.6,0,0.7-0.1
		c0.2-0.1,0.3-0.2,0.3-0.4c0-0.1-0.1-0.3-0.2-0.3s-0.4-0.2-0.7-0.2l-1.2-0.3c-0.8-0.2-1.4-0.4-1.7-0.8c-0.3-0.3-0.5-0.8-0.5-1.4
		c0-0.5,0.1-0.9,0.4-1.3c0.3-0.4,0.7-0.7,1.2-0.9c0.5-0.2,1.1-0.3,1.8-0.3c0.6,0,1.1,0.1,1.6,0.2c0.5,0.2,1,0.4,1.5,0.7l-0.7,1.8
		c-0.4-0.3-0.8-0.5-1.2-0.6c-0.4-0.1-0.8-0.2-1.2-0.2c-0.3,0-0.5,0-0.7,0.1s-0.3,0.2-0.3,0.4c0,0.1,0,0.2,0.2,0.3s0.3,0.1,0.6,0.2
		l1.3,0.3c0.8,0.2,1.4,0.5,1.8,0.8c0.4,0.4,0.5,0.9,0.5,1.5c0,0.8-0.3,1.3-0.9,1.8c-0.6,0.4-1.4,0.6-2.5,0.6
		C520.1,105.2,518.9,104.9,518,104.3z"/>
	<path class="st4" d="M533.9,97.4v7.7h-2.7v-1c-0.5,0.8-1.2,1.1-2.2,1.1c-1,0-1.7-0.3-2.2-0.8c-0.5-0.5-0.7-1.4-0.7-2.5v-4.5h2.7
		v4.6c0,0.8,0.3,1.1,1,1.1c0.4,0,0.7-0.1,0.9-0.4s0.4-0.6,0.4-1.1v-4.2H533.9z"/>
	<path class="st4" d="M535.6,105.1V94h2.7v11.1H535.6z"/>
	<path class="st4" d="M545.2,102.9v2.1c-0.4,0.2-0.8,0.2-1.4,0.2c-1,0-1.8-0.3-2.4-0.9s-0.8-1.4-0.8-2.4v-2.5h-1.4v-2h1.4v-1.7
		l2.7-0.9v2.6h1.8v2h-1.8v2.5c0,0.4,0.1,0.6,0.3,0.8c0.2,0.2,0.5,0.3,0.8,0.3C544.6,103,544.9,103,545.2,102.9z"/>
	<path class="st4" d="M554.3,97.4v7.7h-2.7v-1c-0.2,0.4-0.5,0.6-1,0.9s-0.9,0.3-1.4,0.3c-0.7,0-1.2-0.2-1.8-0.5
		c-0.5-0.3-0.9-0.8-1.2-1.4c-0.3-0.6-0.4-1.3-0.4-2.1c0-0.8,0.1-1.5,0.4-2.1s0.7-1.1,1.2-1.4c0.5-0.3,1.1-0.5,1.7-0.5
		c0.5,0,1,0.1,1.4,0.3c0.4,0.2,0.7,0.5,1,0.9v-1H554.3z M551.2,102.7c0.3-0.3,0.4-0.8,0.4-1.4c0-0.6-0.1-1.1-0.4-1.5
		c-0.3-0.3-0.6-0.5-1.1-0.5c-0.5,0-0.8,0.2-1.1,0.5c-0.3,0.3-0.4,0.8-0.4,1.5c0,0.6,0.1,1.1,0.4,1.4c0.3,0.3,0.6,0.5,1.1,0.5
		C550.6,103.2,550.9,103,551.2,102.7z"/>
	<path class="st4" d="M563.1,98c0.4,0.5,0.7,1.4,0.7,2.5v4.6H561v-4.5c0-0.5-0.1-0.8-0.2-1s-0.4-0.3-0.8-0.3c-0.4,0-0.7,0.1-1,0.4
		c-0.3,0.3-0.4,0.6-0.4,1.1v4.3h-2.7v-5.5c0-0.8,0-1.6-0.1-2.2h2.6l0.1,1.1c0.3-0.4,0.7-0.8,1.1-1c0.4-0.2,0.9-0.3,1.5-0.3
		C561.9,97.2,562.6,97.5,563.1,98z"/>
	<path class="st4" d="M566.1,104.1c-0.7-0.7-1.1-1.7-1.1-2.9c0-0.8,0.2-1.5,0.5-2.1c0.4-0.6,0.9-1.1,1.5-1.4
		c0.6-0.3,1.4-0.5,2.2-0.5c0.6,0,1.1,0.1,1.7,0.2s1,0.4,1.3,0.7l-0.7,1.9c-0.3-0.2-0.6-0.4-1-0.5s-0.7-0.2-1-0.2
		c-0.6,0-1,0.2-1.3,0.5c-0.3,0.3-0.5,0.8-0.5,1.4c0,0.6,0.2,1.1,0.5,1.5c0.3,0.3,0.7,0.5,1.3,0.5c0.3,0,0.7-0.1,1-0.2
		c0.4-0.1,0.7-0.3,0.9-0.5l0.7,1.9c-0.3,0.3-0.8,0.5-1.3,0.7c-0.5,0.2-1.1,0.2-1.8,0.2C567.8,105.2,566.8,104.8,566.1,104.1z"/>
	<path class="st4" d="M581,97.4l-3.5,7.9c-0.5,1-1,1.8-1.7,2.3c-0.7,0.5-1.6,0.8-2.6,0.9l-0.6-2.1c0.7-0.1,1.2-0.3,1.6-0.5
		c0.4-0.2,0.6-0.5,0.8-0.9l0.2-0.4l-3.1-7.1h2.8l1.7,4.4l1.8-4.4H581z"/>
</g>
<g>
	<path class="st4" d="M73.5,94.3h4.4c1.2,0,2.2,0.2,3.1,0.6c0.9,0.4,1.5,1,2,1.8c0.5,0.8,0.7,1.8,0.7,2.9c0,1.1-0.2,2.1-0.7,2.9
		c-0.5,0.8-1.1,1.4-2,1.9c-0.9,0.4-1.9,0.6-3.1,0.6h-4.4V94.3z M77.7,102.8c1,0,1.8-0.3,2.3-0.8c0.5-0.5,0.8-1.3,0.8-2.3
		c0-2.1-1-3.1-3.1-3.1h-1.4v6.2H77.7z"/>
	<path class="st4" d="M92.8,97.4v7.7h-2.7v-1c-0.5,0.8-1.2,1.1-2.2,1.1c-1,0-1.7-0.3-2.2-0.8c-0.5-0.5-0.7-1.4-0.7-2.5v-4.5h2.7v4.6
		c0,0.8,0.3,1.1,1,1.1c0.4,0,0.7-0.1,0.9-0.4c0.2-0.3,0.4-0.6,0.4-1.1v-4.2H92.8z"/>
	<path class="st4" d="M101.5,101.5h-4.8c0.1,0.6,0.2,1,0.5,1.3c0.3,0.3,0.7,0.4,1.3,0.4c0.4,0,0.8-0.1,1.1-0.2
		c0.4-0.1,0.7-0.3,1-0.5l0.7,1.8c-0.4,0.3-0.8,0.5-1.4,0.7c-0.5,0.2-1.1,0.2-1.6,0.2c-0.9,0-1.6-0.2-2.3-0.5
		c-0.6-0.3-1.1-0.8-1.5-1.4c-0.3-0.6-0.5-1.3-0.5-2.1c0-0.8,0.2-1.5,0.5-2.1c0.3-0.6,0.8-1.1,1.4-1.4c0.6-0.3,1.2-0.5,2-0.5
		c0.7,0,1.4,0.2,1.9,0.5c0.5,0.3,1,0.8,1.3,1.4c0.3,0.6,0.4,1.3,0.4,2.1V101.5z M96.7,100.2h2.4c-0.1-0.8-0.5-1.2-1.2-1.2
		C97.3,99.1,96.9,99.5,96.7,100.2z"/>
	<path class="st4" d="M107.3,94.3h4.4c1.2,0,2.2,0.2,3.1,0.6c0.9,0.4,1.5,1,2,1.8c0.5,0.8,0.7,1.8,0.7,2.9c0,1.1-0.2,2.1-0.7,2.9
		c-0.5,0.8-1.1,1.4-2,1.9c-0.9,0.4-1.9,0.6-3.1,0.6h-4.4V94.3z M111.5,102.8c1,0,1.8-0.3,2.3-0.8c0.5-0.5,0.8-1.3,0.8-2.3
		c0-2.1-1-3.1-3.1-3.1h-1.4v6.2H111.5z"/>
	<path class="st4" d="M126,101.5h-4.8c0.1,0.6,0.2,1,0.5,1.3c0.3,0.3,0.7,0.4,1.3,0.4c0.4,0,0.8-0.1,1.1-0.2c0.4-0.1,0.7-0.3,1-0.5
		l0.7,1.8c-0.4,0.3-0.8,0.5-1.4,0.7c-0.5,0.2-1.1,0.2-1.6,0.2c-0.9,0-1.6-0.2-2.3-0.5c-0.6-0.3-1.1-0.8-1.5-1.4
		c-0.3-0.6-0.5-1.3-0.5-2.1c0-0.8,0.2-1.5,0.5-2.1c0.3-0.6,0.8-1.1,1.4-1.4c0.6-0.3,1.2-0.5,2-0.5c0.7,0,1.4,0.2,1.9,0.5
		c0.5,0.3,1,0.8,1.3,1.4c0.3,0.6,0.4,1.3,0.4,2.1V101.5z M121.2,100.2h2.4c-0.1-0.8-0.5-1.2-1.2-1.2
		C121.8,99.1,121.4,99.5,121.2,100.2z"/>
	<path class="st4" d="M127.3,105.1V94h2.7v11.1H127.3z"/>
	<path class="st4" d="M131.6,93.6h2.9v2.5h-2.9V93.6z M131.7,105.1v-7.7h2.7v7.7H131.7z"/>
	<path class="st4" d="M144.2,97.4v7.2c0,1.3-0.4,2.2-1.1,2.9c-0.8,0.7-1.9,1-3.3,1c-1.2,0-2.3-0.2-3.2-0.7l0.4-2
		c0.5,0.2,0.9,0.4,1.4,0.5s0.9,0.2,1.4,0.2c0.6,0,1.1-0.1,1.4-0.4s0.4-0.7,0.4-1.2v-1.1c-0.3,0.3-0.6,0.6-1,0.8
		c-0.4,0.2-0.9,0.3-1.4,0.3c-0.7,0-1.2-0.2-1.8-0.5s-0.9-0.8-1.2-1.3c-0.3-0.6-0.4-1.3-0.4-2c0-0.8,0.1-1.4,0.4-2
		c0.3-0.6,0.7-1,1.2-1.4c0.5-0.3,1.1-0.5,1.8-0.5c0.5,0,1,0.1,1.4,0.3s0.7,0.5,1,0.9v-1H144.2z M141.1,102.3
		c0.3-0.3,0.4-0.8,0.4-1.3c0-0.5-0.1-1-0.4-1.3c-0.3-0.3-0.6-0.5-1.1-0.5s-0.9,0.2-1.1,0.5c-0.3,0.3-0.4,0.7-0.4,1.3
		c0,0.6,0.1,1,0.4,1.3c0.3,0.3,0.7,0.5,1.1,0.5C140.4,102.8,140.8,102.7,141.1,102.3z"/>
	<path class="st4" d="M152.9,101.5H148c0.1,0.6,0.2,1,0.5,1.3c0.3,0.3,0.7,0.4,1.3,0.4c0.4,0,0.8-0.1,1.1-0.2c0.4-0.1,0.7-0.3,1-0.5
		l0.7,1.8c-0.4,0.3-0.8,0.5-1.4,0.7c-0.5,0.2-1.1,0.2-1.6,0.2c-0.9,0-1.6-0.2-2.3-0.5c-0.6-0.3-1.1-0.8-1.5-1.4
		c-0.3-0.6-0.5-1.3-0.5-2.1c0-0.8,0.2-1.5,0.5-2.1c0.3-0.6,0.8-1.1,1.4-1.4c0.6-0.3,1.2-0.5,2-0.5c0.7,0,1.4,0.2,1.9,0.5
		c0.5,0.3,1,0.8,1.3,1.4c0.3,0.6,0.4,1.3,0.4,2.1V101.5z M148.1,100.2h2.4c-0.1-0.8-0.5-1.2-1.2-1.2
		C148.7,99.1,148.2,99.5,148.1,100.2z"/>
	<path class="st4" d="M161.3,98c0.4,0.5,0.7,1.4,0.7,2.5v4.6h-2.7v-4.5c0-0.5-0.1-0.8-0.2-1c-0.2-0.2-0.4-0.3-0.8-0.3
		c-0.4,0-0.7,0.1-1,0.4c-0.3,0.3-0.4,0.6-0.4,1.1v4.3h-2.7v-5.5c0-0.8,0-1.6-0.1-2.2h2.6l0.1,1.1c0.3-0.4,0.7-0.8,1.1-1
		s0.9-0.3,1.5-0.3C160.2,97.2,160.8,97.5,161.3,98z"/>
	<path class="st4" d="M164.3,104.1c-0.7-0.7-1.1-1.7-1.1-2.9c0-0.8,0.2-1.5,0.5-2.1c0.4-0.6,0.9-1.1,1.5-1.4
		c0.6-0.3,1.4-0.5,2.2-0.5c0.6,0,1.1,0.1,1.7,0.2c0.5,0.2,1,0.4,1.3,0.7l-0.7,1.9c-0.3-0.2-0.6-0.4-1-0.5c-0.4-0.1-0.7-0.2-1-0.2
		c-0.6,0-1,0.2-1.3,0.5c-0.3,0.3-0.5,0.8-0.5,1.4c0,0.6,0.2,1.1,0.5,1.5c0.3,0.3,0.7,0.5,1.3,0.5c0.3,0,0.7-0.1,1-0.2
		c0.4-0.1,0.7-0.3,0.9-0.5l0.7,1.9c-0.3,0.3-0.8,0.5-1.3,0.7c-0.5,0.2-1.1,0.2-1.8,0.2C166,105.2,165,104.8,164.3,104.1z"/>
	<path class="st4" d="M178.4,101.5h-4.8c0.1,0.6,0.2,1,0.5,1.3c0.3,0.3,0.7,0.4,1.3,0.4c0.4,0,0.8-0.1,1.1-0.2
		c0.4-0.1,0.7-0.3,1-0.5l0.7,1.8c-0.4,0.3-0.8,0.5-1.4,0.7c-0.5,0.2-1.1,0.2-1.6,0.2c-0.9,0-1.6-0.2-2.3-0.5
		c-0.6-0.3-1.1-0.8-1.5-1.4c-0.3-0.6-0.5-1.3-0.5-2.1c0-0.8,0.2-1.5,0.5-2.1c0.3-0.6,0.8-1.1,1.4-1.4c0.6-0.3,1.2-0.5,2-0.5
		c0.7,0,1.4,0.2,1.9,0.5c0.5,0.3,1,0.8,1.3,1.4c0.3,0.6,0.4,1.3,0.4,2.1V101.5z M173.6,100.2h2.4c-0.1-0.8-0.5-1.2-1.2-1.2
		C174.2,99.1,173.8,99.5,173.6,100.2z"/>
</g>
<g>
	<path class="st4" d="M484.7,190.5c0.3,0.5,0.5,1,0.5,1.7c0,0.6-0.2,1.1-0.5,1.6s-0.8,0.8-1.3,1c-0.6,0.2-1.3,0.4-2,0.4H476v-10.7
		h5.2c1.1,0,2,0.3,2.7,0.8c0.7,0.5,1,1.2,1,2c0,0.6-0.1,1-0.4,1.5c-0.3,0.4-0.7,0.7-1.2,0.9C483.9,189.7,484.4,190,484.7,190.5z
		 M478.8,188.6h2c0.5,0,0.9-0.1,1.1-0.2c0.2-0.2,0.4-0.4,0.4-0.8c0-0.4-0.1-0.6-0.4-0.8c-0.2-0.2-0.6-0.3-1.1-0.3h-2V188.6z
		 M482.2,192.7c0.2-0.2,0.4-0.5,0.4-0.9c0-0.4-0.1-0.7-0.3-0.9s-0.6-0.3-1.2-0.3h-2.3v2.2h2.3C481.6,192.9,482,192.9,482.2,192.7z"
		/>
	<path class="st4" d="M494.2,187.4v7.7h-2.7v-1c-0.5,0.8-1.2,1.1-2.2,1.1c-1,0-1.7-0.3-2.2-0.8c-0.5-0.5-0.7-1.4-0.7-2.5v-4.5h2.7
		v4.6c0,0.8,0.3,1.1,1,1.1c0.4,0,0.7-0.1,0.9-0.4s0.4-0.6,0.4-1.1v-4.2H494.2z"/>
	<path class="st4" d="M495.3,194.3l0.7-1.9c0.4,0.3,0.9,0.5,1.4,0.7c0.5,0.2,1,0.2,1.5,0.2c0.3,0,0.6,0,0.7-0.1
		c0.2-0.1,0.3-0.2,0.3-0.4c0-0.1-0.1-0.3-0.2-0.3s-0.4-0.2-0.7-0.2l-1.2-0.3c-0.8-0.2-1.4-0.4-1.7-0.8c-0.3-0.3-0.5-0.8-0.5-1.4
		c0-0.5,0.1-0.9,0.4-1.3c0.3-0.4,0.7-0.7,1.2-0.9c0.5-0.2,1.1-0.3,1.8-0.3c0.6,0,1.1,0.1,1.6,0.2c0.5,0.2,1,0.4,1.5,0.7l-0.7,1.8
		c-0.4-0.3-0.8-0.5-1.2-0.6c-0.4-0.1-0.8-0.2-1.2-0.2c-0.3,0-0.5,0-0.7,0.1s-0.3,0.2-0.3,0.4c0,0.1,0,0.2,0.2,0.3s0.3,0.1,0.6,0.2
		l1.3,0.3c0.8,0.2,1.4,0.5,1.8,0.8c0.4,0.4,0.5,0.9,0.5,1.5c0,0.8-0.3,1.3-0.9,1.8c-0.6,0.4-1.4,0.6-2.5,0.6
		C497.4,195.2,496.2,194.9,495.3,194.3z"/>
	<path class="st4" d="M503.4,183.7h2.9v2.5h-2.9V183.7z M503.4,195.1v-7.7h2.7v7.7H503.4z"/>
	<path class="st4" d="M515,188c0.4,0.5,0.7,1.4,0.7,2.5v4.6h-2.7v-4.5c0-0.5-0.1-0.8-0.2-1s-0.4-0.3-0.8-0.3c-0.4,0-0.7,0.1-1,0.4
		c-0.3,0.3-0.4,0.6-0.4,1.1v4.3h-2.7v-5.5c0-0.8,0-1.6-0.1-2.2h2.6l0.1,1.1c0.3-0.4,0.7-0.8,1.1-1c0.4-0.2,0.9-0.3,1.5-0.3
		C513.8,187.2,514.5,187.5,515,188z"/>
	<path class="st4" d="M524.3,191.5h-4.8c0.1,0.6,0.2,1,0.5,1.3c0.3,0.3,0.7,0.4,1.3,0.4c0.4,0,0.8-0.1,1.1-0.2
		c0.4-0.1,0.7-0.3,1-0.5l0.7,1.8c-0.4,0.3-0.8,0.5-1.4,0.7c-0.5,0.2-1.1,0.2-1.6,0.2c-0.9,0-1.6-0.2-2.3-0.5
		c-0.6-0.3-1.1-0.8-1.5-1.4c-0.3-0.6-0.5-1.3-0.5-2.1c0-0.8,0.2-1.5,0.5-2.1c0.3-0.6,0.8-1.1,1.4-1.4c0.6-0.3,1.2-0.5,2-0.5
		c0.7,0,1.4,0.2,1.9,0.5c0.5,0.3,1,0.8,1.3,1.4c0.3,0.6,0.4,1.3,0.4,2.1V191.5z M519.5,190.3h2.4c-0.1-0.8-0.5-1.2-1.2-1.2
		C520.1,189.1,519.7,189.5,519.5,190.3z"/>
	<path class="st4" d="M525,194.3l0.7-1.9c0.4,0.3,0.9,0.5,1.4,0.7c0.5,0.2,1,0.2,1.5,0.2c0.3,0,0.6,0,0.7-0.1
		c0.2-0.1,0.3-0.2,0.3-0.4c0-0.1-0.1-0.3-0.2-0.3s-0.4-0.2-0.7-0.2l-1.2-0.3c-0.8-0.2-1.4-0.4-1.7-0.8c-0.3-0.3-0.5-0.8-0.5-1.4
		c0-0.5,0.1-0.9,0.4-1.3c0.3-0.4,0.7-0.7,1.2-0.9c0.5-0.2,1.1-0.3,1.8-0.3c0.6,0,1.1,0.1,1.6,0.2c0.5,0.2,1,0.4,1.5,0.7l-0.7,1.8
		c-0.4-0.3-0.8-0.5-1.2-0.6c-0.4-0.1-0.8-0.2-1.2-0.2c-0.3,0-0.5,0-0.7,0.1s-0.3,0.2-0.3,0.4c0,0.1,0,0.2,0.2,0.3s0.3,0.1,0.6,0.2
		l1.3,0.3c0.8,0.2,1.4,0.5,1.8,0.8c0.4,0.4,0.5,0.9,0.5,1.5c0,0.8-0.3,1.3-0.9,1.8c-0.6,0.4-1.4,0.6-2.5,0.6
		C527.1,195.2,525.9,194.9,525,194.3z"/>
	<path class="st4" d="M532.7,194.3l0.7-1.9c0.4,0.3,0.9,0.5,1.4,0.7c0.5,0.2,1,0.2,1.5,0.2c0.3,0,0.6,0,0.7-0.1
		c0.2-0.1,0.3-0.2,0.3-0.4c0-0.1-0.1-0.3-0.2-0.3s-0.4-0.2-0.7-0.2l-1.2-0.3c-0.8-0.2-1.4-0.4-1.7-0.8c-0.3-0.3-0.5-0.8-0.5-1.4
		c0-0.5,0.1-0.9,0.4-1.3c0.3-0.4,0.7-0.7,1.2-0.9c0.5-0.2,1.1-0.3,1.8-0.3c0.6,0,1.1,0.1,1.6,0.2c0.5,0.2,1,0.4,1.5,0.7l-0.7,1.8
		c-0.4-0.3-0.8-0.5-1.2-0.6c-0.4-0.1-0.8-0.2-1.2-0.2c-0.3,0-0.5,0-0.7,0.1s-0.3,0.2-0.3,0.4c0,0.1,0,0.2,0.2,0.3s0.3,0.1,0.6,0.2
		l1.3,0.3c0.8,0.2,1.4,0.5,1.8,0.8c0.4,0.4,0.5,0.9,0.5,1.5c0,0.8-0.3,1.3-0.9,1.8c-0.6,0.4-1.4,0.6-2.5,0.6
		C534.8,195.2,533.6,194.9,532.7,194.3z"/>
	<path class="st4" d="M545.4,184.3h5.1c1.2,0,2.2,0.3,2.9,0.9s1,1.4,1,2.4c0,1-0.3,1.8-1,2.4c-0.7,0.6-1.6,0.9-2.8,0.9h-2.3v4.2
		h-2.8V184.3z M550.1,188.8c1.1,0,1.6-0.4,1.6-1.1c0-0.4-0.1-0.7-0.4-0.9c-0.3-0.2-0.7-0.3-1.2-0.3h-1.9v2.3H550.1z"/>
	<path class="st4" d="M555.6,195.1V184h2.7v11.1H555.6z"/>
	<path class="st4" d="M568,187.4v7.7h-2.7v-1c-0.2,0.4-0.5,0.6-1,0.9s-0.9,0.3-1.4,0.3c-0.7,0-1.2-0.2-1.8-0.5
		c-0.5-0.3-0.9-0.8-1.2-1.4c-0.3-0.6-0.4-1.3-0.4-2.1c0-0.8,0.1-1.5,0.4-2.1s0.7-1.1,1.2-1.4c0.5-0.3,1.1-0.5,1.7-0.5
		c0.5,0,1,0.1,1.4,0.3c0.4,0.2,0.7,0.5,1,0.9v-1H568z M564.9,192.7c0.3-0.3,0.4-0.8,0.4-1.4c0-0.6-0.1-1.1-0.4-1.5
		c-0.3-0.3-0.6-0.5-1.1-0.5c-0.5,0-0.8,0.2-1.1,0.5c-0.3,0.3-0.4,0.8-0.4,1.5c0,0.6,0.1,1.1,0.4,1.4c0.3,0.3,0.6,0.5,1.1,0.5
		C564.3,193.2,564.7,193,564.9,192.7z"/>
	<path class="st4" d="M576.8,188c0.4,0.5,0.7,1.4,0.7,2.5v4.6h-2.7v-4.5c0-0.5-0.1-0.8-0.2-1s-0.4-0.3-0.8-0.3c-0.4,0-0.7,0.1-1,0.4
		c-0.3,0.3-0.4,0.6-0.4,1.1v4.3h-2.7v-5.5c0-0.8,0-1.6-0.1-2.2h2.6l0.1,1.1c0.3-0.4,0.7-0.8,1.1-1c0.4-0.2,0.9-0.3,1.5-0.3
		C575.7,187.2,576.4,187.5,576.8,188z"/>
</g>
<g>
	<path class="st4" d="M276,326.1h2.2v10.7h-2.5l0-4.9l-2,4.9h-1.8l-2.1-4.9v4.9h-2.5v-10.7h2.2l3.2,7.3L276,326.1z"/>
	<path class="st4" d="M288.2,329.2v7.7h-2.7v-1c-0.2,0.4-0.5,0.6-1,0.9c-0.4,0.2-0.9,0.3-1.4,0.3c-0.7,0-1.2-0.2-1.8-0.5
		c-0.5-0.3-0.9-0.8-1.2-1.4s-0.4-1.3-0.4-2.1c0-0.8,0.1-1.5,0.4-2.1c0.3-0.6,0.7-1.1,1.2-1.4s1.1-0.5,1.7-0.5c0.5,0,1,0.1,1.4,0.3
		c0.4,0.2,0.7,0.5,1,0.9v-1H288.2z M285.1,334.5c0.3-0.3,0.4-0.8,0.4-1.4c0-0.6-0.1-1.1-0.4-1.5c-0.3-0.3-0.6-0.5-1.1-0.5
		c-0.5,0-0.8,0.2-1.1,0.5c-0.3,0.3-0.4,0.8-0.4,1.5c0,0.6,0.1,1.1,0.4,1.4c0.3,0.3,0.6,0.5,1.1,0.5
		C284.4,335,284.8,334.8,285.1,334.5z"/>
	<path class="st4" d="M296.9,329.8c0.4,0.5,0.7,1.4,0.7,2.5v4.6h-2.7v-4.5c0-0.5-0.1-0.8-0.2-1c-0.2-0.2-0.4-0.3-0.8-0.3
		c-0.4,0-0.7,0.1-1,0.4c-0.3,0.3-0.4,0.6-0.4,1.1v4.3h-2.7v-5.5c0-0.8,0-1.6-0.1-2.2h2.6l0.1,1.1c0.3-0.4,0.7-0.8,1.1-1
		s0.9-0.3,1.5-0.3C295.8,329,296.5,329.3,296.9,329.8z"/>
	<path class="st4" d="M307.3,329.2v7.7h-2.7v-1c-0.2,0.4-0.5,0.6-1,0.9c-0.4,0.2-0.9,0.3-1.4,0.3c-0.7,0-1.2-0.2-1.8-0.5
		c-0.5-0.3-0.9-0.8-1.2-1.4s-0.4-1.3-0.4-2.1c0-0.8,0.1-1.5,0.4-2.1c0.3-0.6,0.7-1.1,1.2-1.4s1.1-0.5,1.7-0.5c0.5,0,1,0.1,1.4,0.3
		c0.4,0.2,0.7,0.5,1,0.9v-1H307.3z M304.2,334.5c0.3-0.3,0.4-0.8,0.4-1.4c0-0.6-0.1-1.1-0.4-1.5c-0.3-0.3-0.6-0.5-1.1-0.5
		c-0.5,0-0.8,0.2-1.1,0.5c-0.3,0.3-0.4,0.8-0.4,1.5c0,0.6,0.1,1.1,0.4,1.4c0.3,0.3,0.6,0.5,1.1,0.5
		C303.6,335,303.9,334.8,304.2,334.5z"/>
	<path class="st4" d="M317.1,329.2v7.2c0,1.3-0.4,2.2-1.1,2.9s-1.9,1-3.3,1c-1.2,0-2.3-0.2-3.2-0.7l0.4-2c0.5,0.2,0.9,0.4,1.4,0.5
		c0.5,0.1,0.9,0.2,1.4,0.2c0.6,0,1.1-0.1,1.4-0.4s0.4-0.7,0.4-1.2v-1.1c-0.3,0.3-0.6,0.6-1,0.8c-0.4,0.2-0.9,0.3-1.4,0.3
		c-0.7,0-1.2-0.2-1.8-0.5c-0.5-0.3-0.9-0.8-1.2-1.3c-0.3-0.6-0.4-1.3-0.4-2c0-0.8,0.1-1.4,0.4-2c0.3-0.6,0.7-1,1.2-1.4
		s1.1-0.5,1.8-0.5c0.5,0,1,0.1,1.4,0.3s0.7,0.5,1,0.9v-1H317.1z M313.9,334.2c0.3-0.3,0.4-0.8,0.4-1.3c0-0.5-0.1-1-0.4-1.3
		c-0.3-0.3-0.6-0.5-1.1-0.5s-0.9,0.2-1.1,0.5c-0.3,0.3-0.4,0.7-0.4,1.3c0,0.6,0.1,1,0.4,1.3c0.3,0.3,0.7,0.5,1.1,0.5
		C313.3,334.6,313.7,334.5,313.9,334.2z"/>
	<path class="st4" d="M325.7,333.3h-4.8c0.1,0.6,0.2,1,0.5,1.3c0.3,0.3,0.7,0.4,1.3,0.4c0.4,0,0.8-0.1,1.1-0.2
		c0.4-0.1,0.7-0.3,1-0.5l0.7,1.8c-0.4,0.3-0.8,0.5-1.4,0.7c-0.5,0.2-1.1,0.2-1.6,0.2c-0.9,0-1.6-0.2-2.3-0.5
		c-0.6-0.3-1.1-0.8-1.5-1.4c-0.3-0.6-0.5-1.3-0.5-2.1c0-0.8,0.2-1.5,0.5-2.1c0.3-0.6,0.8-1.1,1.4-1.4s1.2-0.5,2-0.5
		c0.7,0,1.4,0.2,1.9,0.5c0.5,0.3,1,0.8,1.3,1.4c0.3,0.6,0.4,1.3,0.4,2.1V333.3z M321,332.1h2.4c-0.1-0.8-0.5-1.2-1.2-1.2
		C321.6,330.9,321.1,331.3,321,332.1z"/>
	<path class="st4" d="M338.7,329.8c0.4,0.5,0.6,1.4,0.6,2.5v4.6h-2.7v-4.5c0-0.5-0.1-0.8-0.2-1c-0.1-0.2-0.4-0.3-0.7-0.3
		c-0.4,0-0.7,0.1-0.9,0.4c-0.2,0.3-0.3,0.7-0.3,1.2v4.2h-2.7v-4.5c0-0.5-0.1-0.8-0.2-1s-0.4-0.3-0.7-0.3c-0.4,0-0.7,0.1-0.9,0.4
		c-0.2,0.3-0.3,0.7-0.3,1.2v4.2H327v-5.5c0-0.8,0-1.6-0.1-2.2h2.6l0.1,1.1c0.2-0.4,0.6-0.7,1-1c0.4-0.2,0.9-0.3,1.4-0.3
		c1.1,0,1.8,0.5,2.2,1.4c0.3-0.4,0.6-0.8,1.1-1s0.9-0.4,1.5-0.4C337.7,329,338.3,329.3,338.7,329.8z"/>
	<path class="st4" d="M348,333.3h-4.8c0.1,0.6,0.2,1,0.5,1.3c0.3,0.3,0.7,0.4,1.3,0.4c0.4,0,0.8-0.1,1.1-0.2c0.4-0.1,0.7-0.3,1-0.5
		l0.7,1.8c-0.4,0.3-0.8,0.5-1.4,0.7c-0.5,0.2-1.1,0.2-1.6,0.2c-0.9,0-1.6-0.2-2.3-0.5c-0.6-0.3-1.1-0.8-1.5-1.4
		c-0.3-0.6-0.5-1.3-0.5-2.1c0-0.8,0.2-1.5,0.5-2.1c0.3-0.6,0.8-1.1,1.4-1.4s1.2-0.5,2-0.5c0.7,0,1.4,0.2,1.9,0.5s1,0.8,1.3,1.4
		c0.3,0.6,0.4,1.3,0.4,2.1V333.3z M343.3,332.1h2.4c-0.1-0.8-0.5-1.2-1.2-1.2C343.9,330.9,343.4,331.3,343.3,332.1z"/>
	<path class="st4" d="M356.5,329.8c0.4,0.5,0.7,1.4,0.7,2.5v4.6h-2.7v-4.5c0-0.5-0.1-0.8-0.2-1c-0.2-0.2-0.4-0.3-0.8-0.3
		c-0.4,0-0.7,0.1-1,0.4c-0.3,0.3-0.4,0.6-0.4,1.1v4.3h-2.7v-5.5c0-0.8,0-1.6-0.1-2.2h2.6l0.1,1.1c0.3-0.4,0.7-0.8,1.1-1
		c0.4-0.2,0.9-0.3,1.5-0.3C355.3,329,356,329.3,356.5,329.8z"/>
	<path class="st4" d="M364,334.7v2.1c-0.4,0.2-0.8,0.2-1.4,0.2c-1,0-1.8-0.3-2.4-0.9c-0.5-0.6-0.8-1.4-0.8-2.4v-2.5H358v-2h1.4v-1.7
		l2.7-0.9v2.6h1.8v2h-1.8v2.5c0,0.4,0.1,0.6,0.3,0.8c0.2,0.2,0.5,0.3,0.8,0.3C363.4,334.8,363.7,334.8,364,334.7z"/>
	<path class="st4" d="M301.9,355h-3l-1.4-3.6c-0.2-0.4-0.5-0.6-1.1-0.6h-1v4.2h-2.8v-10.7h5c1.3,0,2.3,0.3,2.9,0.8
		c0.7,0.6,1,1.4,1,2.4c0,0.7-0.2,1.4-0.6,1.9c-0.4,0.5-0.9,0.9-1.6,1.1c0.3,0.1,0.6,0.2,0.8,0.4c0.2,0.2,0.4,0.5,0.6,0.9L301.9,355z
		 M298.4,348.4c0.3-0.2,0.4-0.5,0.4-0.9c0-0.4-0.1-0.7-0.4-0.9s-0.7-0.3-1.3-0.3h-1.8v2.3h1.8C297.7,348.7,298.2,348.6,298.4,348.4z
		"/>
	<path class="st4" d="M310.3,351.4h-4.8c0.1,0.6,0.2,1,0.5,1.3c0.3,0.3,0.7,0.4,1.3,0.4c0.4,0,0.8-0.1,1.1-0.2
		c0.4-0.1,0.7-0.3,1-0.5l0.7,1.8c-0.4,0.3-0.8,0.5-1.4,0.7c-0.5,0.2-1.1,0.2-1.6,0.2c-0.9,0-1.6-0.2-2.3-0.5
		c-0.6-0.3-1.1-0.8-1.5-1.4c-0.3-0.6-0.5-1.3-0.5-2.1c0-0.8,0.2-1.5,0.5-2.1c0.3-0.6,0.8-1.1,1.4-1.4s1.2-0.5,2-0.5
		c0.7,0,1.4,0.2,1.9,0.5c0.5,0.3,1,0.8,1.3,1.4c0.3,0.6,0.4,1.3,0.4,2.1V351.4z M305.5,350.2h2.4c-0.1-0.8-0.5-1.2-1.2-1.2
		C306.1,349,305.7,349.4,305.5,350.2z"/>
	<path class="st4" d="M318.3,347.6c0.5,0.3,0.9,0.8,1.2,1.4c0.3,0.6,0.4,1.3,0.4,2.1c0,0.8-0.1,1.5-0.4,2.1
		c-0.3,0.6-0.7,1.1-1.2,1.4c-0.5,0.3-1.1,0.5-1.8,0.5c-0.5,0-1-0.1-1.4-0.3s-0.7-0.5-1-0.8v4.3h-2.7v-8.7c0-0.8,0-1.6-0.1-2.2h2.6
		l0.2,1.2c0.2-0.4,0.5-0.8,1-1c0.4-0.3,0.9-0.4,1.5-0.4C317.3,347.1,317.8,347.3,318.3,347.6z M316.9,352.6c0.3-0.3,0.4-0.8,0.4-1.4
		c0-0.6-0.1-1.1-0.4-1.5c-0.3-0.3-0.6-0.5-1.1-0.5c-0.5,0-0.9,0.2-1.1,0.5c-0.3,0.3-0.4,0.8-0.4,1.5c0,0.6,0.1,1.1,0.4,1.4
		c0.3,0.3,0.6,0.5,1.1,0.5C316.3,353.1,316.6,352.9,316.9,352.6z"/>
	<path class="st4" d="M322.9,354.6c-0.6-0.3-1.1-0.8-1.5-1.4c-0.3-0.6-0.5-1.3-0.5-2.1c0-0.8,0.2-1.5,0.5-2.1
		c0.3-0.6,0.8-1.1,1.5-1.4s1.4-0.5,2.2-0.5c0.8,0,1.6,0.2,2.2,0.5c0.6,0.3,1.1,0.8,1.5,1.4c0.3,0.6,0.5,1.3,0.5,2.1
		c0,0.8-0.2,1.5-0.5,2.1c-0.3,0.6-0.8,1.1-1.5,1.4c-0.6,0.3-1.4,0.5-2.2,0.5C324.3,355.1,323.5,355,322.9,354.6z M326.6,351.1
		c0-0.7-0.1-1.2-0.4-1.5c-0.2-0.3-0.6-0.5-1.1-0.5c-0.5,0-0.9,0.2-1.1,0.5c-0.3,0.3-0.4,0.8-0.4,1.5c0,0.7,0.1,1.2,0.4,1.5
		c0.3,0.3,0.6,0.5,1.1,0.5C326.1,353.1,326.6,352.4,326.6,351.1z"/>
	<path class="st4" d="M336.3,347.3v2.5c-0.4-0.2-0.9-0.3-1.3-0.3c-1.1,0-1.7,0.5-1.7,1.6v3.8h-2.7v-5.5c0-0.8,0-1.6-0.1-2.2h2.6
		l0.2,1.3c0.2-0.5,0.5-0.8,0.9-1.1c0.4-0.3,0.9-0.4,1.4-0.4C335.8,347.1,336.1,347.2,336.3,347.3z"/>
	<path class="st4" d="M343.2,352.8v2.1c-0.4,0.2-0.8,0.2-1.4,0.2c-1,0-1.8-0.3-2.4-0.9c-0.5-0.6-0.8-1.4-0.8-2.4v-2.5h-1.4v-2h1.4
		v-1.7l2.7-0.9v2.6h1.8v2h-1.8v2.5c0,0.4,0.1,0.6,0.3,0.8c0.2,0.2,0.5,0.3,0.8,0.3C342.6,352.9,342.9,352.9,343.2,352.8z"/>
</g>
</svg>
