<?xml version="1.0" encoding="utf-8"?>
<!-- Generator: Adobe Illustrator 21.0.0, SVG Export Plug-In . SVG Version: 6.00 Build 0)  -->
<svg version="1.1" id="Layer_1" xmlns="http://www.w3.org/2000/svg" xmlns:xlink="http://www.w3.org/1999/xlink" x="0px" y="0px"
	 viewBox="0 0 1200 630" style="enable-background:new 0 0 1200 630;" xml:space="preserve">
<style type="text/css">
	.st0{fill:#F2F2F2;}
	.st1{fill:#C4A86A;}
	.st2{fill:#869198;}
	.st3{fill:#2E4661;}
	.st4{fill:#3F3F3F;}
	.st5{fill:#C6D9DB;}
	.st6{opacity:0.41;}
	.st7{fill:#FFFFFF;}
	.st8{opacity:0.4;fill:#FFFFFF;enable-background:new    ;}
	.st9{fill:#9B6652;}
	.st10{fill:#658094;}
	.st11{fill:none;stroke:#747474;stroke-width:0.2296;stroke-miterlimit:10;}
	.st12{fill:#D1C2A7;}
	.st13{fill:#40495F;}
	.st14{fill:#3B3631;}
	.st15{fill:#8297B6;}
	.st16{fill:#7F5256;}
	.st17{fill:#6E694F;}
	.st18{fill:#625337;}
	.st19{fill:#343F54;}
	.st20{fill:#3C3C3C;}
	.st21{fill:#D2C3A8;}
	.st22{fill:#C6C6C6;}
	.st23{opacity:0.76;}
	.st24{fill:#DEDFDF;}
	.st25{fill:#CAD1D3;}
	.st26{opacity:0.51;fill:#BABCBC;enable-background:new    ;}
	.st27{opacity:0.51;fill:#B2B2B2;enable-background:new    ;}
	.st28{fill:#E2E0DD;}
	.st29{fill:#CED2D3;}
	.st30{fill:#4D555B;}
	.st31{fill:#DEDEDE;}
	.st32{opacity:8.000000e-02;enable-background:new    ;}
	.st33{fill:#EFECEA;}
	.st34{fill:#86939C;}
	.st35{fill:#DBDCDC;}
	.st36{fill:#C4C4C4;}
	.st37{opacity:7.000000e-02;enable-background:new    ;}
	.st38{fill:#EAEAEA;}
	.st39{opacity:0.53;fill:#EAEAEA;enable-background:new    ;}
	.st40{opacity:0.16;}
	.st41{fill:#6182A7;}
	.st42{opacity:0.75;fill:#FFFFFF;enable-background:new    ;}
	.st43{fill:#D7DDDF;}
	.st44{fill:#EBEBEB;}
	.st45{fill:#D3D3D4;}
	.st46{fill:#CCD1D3;}
	.st47{fill:#E2E0DE;}
	.st48{opacity:0.27;fill:#BABCBC;enable-background:new    ;}
	.st49{fill:#CECECE;}
	.st50{fill:#A3A1A0;}
	.st51{fill:#454446;}
	.st52{fill:#2A3F63;}
	.st53{fill:#62799D;}
	.st54{fill:#816656;}
	.st55{fill:#D39748;}
	.st56{opacity:0.1;fill:#2B2A2A;enable-background:new    ;}
	.st57{fill:#EFC84F;}
	.st58{fill:#E1C84F;}
	.st59{opacity:0.51;fill:#BEBEBE;enable-background:new    ;}
</style>
<g id="bg">
</g>
<rect class="st0" width="1200" height="399.2"/>
<rect y="320" class="st1" width="1200" height="310"/>
<g>
	<g>
		<g>
			<g>
				<g>
					<g>
						<g>
							<g>
								<g>
									
										<rect x="656.6" y="76.8" transform="matrix(0.4992 -0.8665 0.8665 0.4992 221.9054 643.9501)" class="st2" width="22.8" height="106.4"/>
									<path class="st3" d="M744.2,173.7l-0.1,0.2c-3.6,6.2-10.2,9.1-14.9,6.5l-53.3-30.1l13-23.7l53.5,31.1
										C747,160.2,747.8,167.4,744.2,173.7z"/>
								</g>
							</g>
							<g>
								<path class="st4" d="M626.6,25.5c32.6,18.8,43.7,60.6,24.8,93.5c-18.9,32.9-60.7,44.3-93.3,25.5
									c-32.6-18.8-43.7-60.6-24.8-93.5C552.2,18.2,594,6.7,626.6,25.5z"/>
								<path class="st5" d="M621.8,33.8c28.1,16.2,37.6,52.1,21.3,80.4s-52.2,38.1-80.3,21.9S525.3,84,541.6,55.7
									S593.8,17.7,621.8,33.8z"/>
							</g>
						</g>
						<g>
							<g class="st6">
								<path class="st7" d="M550,84.3c-0.9-18.8,10.7-36.2,28.6-42.1c17.8-5.9,37.7,1.3,47.7,17.2c2.8,4.4,9.9,0.4,7.2-4.1
									C621.9,36.9,600,28.1,579,33.4c-20.7,5.3-35.4,23.7-37.2,44.8c-0.2,2-0.2,4.1-0.1,6.1C542,89.6,550.2,89.6,550,84.3
									L550,84.3z"/>
							</g>
							
								<ellipse transform="matrix(0.4992 -0.8665 0.8665 0.4992 256.552 587.0283)" class="st8" cx="636.1" cy="71.6" rx="5.4" ry="5.4"/>
						</g>
					</g>
					<path class="st9" d="M676.5,149.4l12.4-22.6c0.4-0.8,0.2-1.7-0.5-2.2l-0.2-0.2c-0.8-0.6-2-0.3-2.5,0.6l-12.1,22.7
						c-0.5,0.8-0.1,1.9,0.7,2.4h0.1C675,150.6,676.1,150.2,676.5,149.4z"/>
					<g>
						<path class="st10" d="M649.6,83.2c0.4,14.1-4.3,28.1-13.3,39.1c-8.9,10.9-21.4,18.2-35.2,20.7c-14,2.5-28.6-0.5-40.7-7.9
							c-11.7-7.3-20.5-18.8-24.6-32c-4.3-13.7-3.1-28.8,2.8-41.8c5.8-12.5,16-22.8,28.5-28.6c13-6.1,28-7,41.7-2.8
							c13.1,4,24.5,13,31.8,24.6C646.3,63,649.2,73,649.6,83.2c0.1,2,3.2,1.9,3.1-0.1c-0.5-14.1-5.9-27.6-15.1-38.3
							c-9-10.4-21.7-17.5-35.2-19.8c-14-2.5-28.7,0.2-41.1,7.3c-12,6.8-21.4,17.8-26.5,30.6c-5.4,13.3-5.9,28.4-1.5,42
							c4.2,13.1,13,24.5,24.4,32.1c11.7,7.9,26.2,11.2,40.2,9.6c13.9-1.5,27-7.9,36.9-17.9c12-12,18.4-28.7,17.9-45.6
							C652.7,81,649.6,81.1,649.6,83.2z"/>
					</g>
				</g>
			</g>
			<g>
				<path class="st11" d="M735.9,168.6L735.9,168.6L735.9,168.6z M677,122.5L677,122.5L677,122.5z"/>
			</g>
		</g>
		<polygon class="st12" points="729,178.7 732.2,161.5 719.5,149 712.7,156 717.7,168 714.8,173.7 719.9,183.7 		"/>
		<g>
			<g>
				<g>
					<polygon class="st13" points="592.9,359.3 591.8,458.1 602.3,585.3 616.6,585.3 633.8,468 653.4,350.4 					"/>
					<polygon class="st14" points="616.6,591.3 601,599.1 593.4,591.3 601,583.6 616.6,583.6 					"/>
				</g>
				<g>
					<polygon class="st13" points="691.1,359.3 691.4,416.5 681.7,585.3 667.4,585.3 643.4,473.2 630.6,350.4 					"/>
					<polygon class="st14" points="667.5,591.3 683,599.1 690.7,591.3 683,583.6 667.5,583.6 					"/>
				</g>
			</g>
			<path class="st15" d="M706,393.7c0.3,9.1,0.1,21.2-3.7,21.7c-0.7,0.1-1.4-0.2-2-0.5c-6.6-3.3-11.4-7.8-17.9-10.9
				c-6.9-3.3-14.7-5-22.3-6.2c-11.4-1.8-22.9-2.9-34.3-3c-9.8-0.1-20.1,4.4-29.4,6.9c-3.6,0.9-6.5,3.6-9.5,5.6c-4.4,3-6.3,4.2-5.7-2
				c1-10.1,2-20.1,3.3-30.2c2.5-20,5.9-40,11.5-59.4c2.2-7.4,4.7-14.7,7.2-22c3.1-8.9,6.1-17.8,9.2-26.7
				c3.8-11.1,10.2-18.8,21.4-22.7c9.7-3.3,21.7-4.3,31.1,0.4c10.5,5.2,15.4,22.9,20.5,32.4c4.4,8.3,10.1,30.9,11.8,39.8
				c2,10.8,3.8,21.5,5.3,32.1c1.6,11.8,2.8,23.6,3.1,35.3C705.6,385.7,705.8,389.4,706,393.7z"/>
			<path class="st7" d="M654.3,246.3l-19.4,0.2c0,0-20.8,72.6-21.5,85.1c-0.8,12.3-6,62-6,62s21.4,0.5,46.1,3.5
				c24.2,5.1,26.2,2.1,26.2,2.1s-13-52.3-13.4-67.4c-0.4-15.4-2.4-66.2-2.4-66.2L654.3,246.3z"/>
			<path class="st16" d="M651.4,247.5h-9.5c-2.2,0-3.5,2.5-2.1,4.3l3.9,5.1l-10.4,95.9l12.8,12.6l8.8-15l-2.4-93.6l1.5-6.1
				C654.4,249.1,653.2,247.5,651.4,247.5z"/>
			<g>
				<path class="st12" d="M642.5,246.7c0.2,0.2,0.5,0.4,0.8,0.5c0.6,0.2,1.2,0.1,1.9,0.1c2.5-0.3,5.1-0.6,7.7-0.9
					c-0.8-7.8,3.7-9.6,8.2-14.7c4.5-5.1,3.1-12,2.9-18.2c-0.1-1.7-0.2-3.6-0.9-5.1c-1.3-2.8-4.3-4.3-7.2-5.2
					c-7.5-2.3-16-1.8-22.6,2.5c-1.8,1.1-3.4,2.5-4.3,4.4c-1.5,2.8-1.1,6.3-0.7,9.4c0.7,4.9,2.1,9.7,4.9,13.8
					c2.5,3.8,7.5,5.7,8.1,10.3C641.3,244.6,641.7,245.9,642.5,246.7z"/>
				<g>
					<path class="st17" d="M628.5,213.7c0.4,2,1.4,4,0.9,5.9c-3.1-1.1-5.1-4.3-6.3-7.5c-0.5-1.5-0.9-3-0.8-4.6c0.1-1.5,0.8-3.1,2-4
						c1.7-1.2,4.8-0.8,5.3,1.5C630.2,207.2,627.8,210.7,628.5,213.7z"/>
					<path class="st18" d="M611.9,196.4c0.1-2.4,0.9-4.4,3.1-5.9c1.8-1.2,3.9-2.2,5-4.2c0.8-1.5,1-3.4,1.8-4.9
						c1.5-2.7,4.9-3.6,7.8-4.5c7.3-2.3,11.2-5,18.9-2c5.4,2.1,12.5,2.4,17.6,5.5c2.1,1.3,3.9,3.4,5.4,5.7c5.1,8.1,6.3,19.3,3,27.6
						c-0.8,1.9-1.7,3.6-2.7,5.3c-2,3.3-4.2,7.3-7.8,9c-0.2-1.5-1.4-2.4-1.7-4c-0.2-1.1-0.2-2.2-0.1-3.4c0.2-4.4,1.6-11.4-2.8-13.6
						c-5.6-2.8-16-0.3-21.3,2.1c-4.7,2.1-12.7,4.7-17.8,2.5C615.5,209.6,611.7,201.4,611.9,196.4z"/>
				</g>
			</g>
		</g>
		<polygon class="st15" points="660.4,243.7 706.2,224.4 711.7,180.6 733.9,176.7 732.1,219.6 730.1,243.9 685.6,277.1 		"/>
		<polygon class="st12" points="607.4,186.1 615.7,170.6 633.5,168.9 634.4,178.6 622.9,184.9 621.7,191.1 611.4,195.7 		"/>
		<polygon class="st15" points="629.9,246.7 580.7,232.3 617.3,195.9 604.7,182.4 547.8,231.2 557.8,255.8 609.6,282.5 		"/>
	</g>
	<g>
		<polygon class="st12" points="438.3,356.9 429,356.3 432.6,342.2 443.4,338.6 450.6,344.8 		"/>
		<polygon class="st19" points="351.3,258.1 367.2,267.7 398.8,312.9 439,340.8 430.5,357 375.7,327.3 		"/>
		<polygon class="st19" points="347.5,397 347.5,415.6 372.3,496.3 366.2,580 381.7,583.1 406.5,480.7 405.5,450.7 394.1,389.2 		
			"/>
		<polygon class="st20" points="379.6,581.5 391.4,594 388,600.4 363.6,588.6 368.1,579.4 		"/>
		<polygon class="st20" points="342.1,587.2 356.7,596.4 354.9,603.4 328.4,598.1 330.4,588.1 		"/>
		<path class="st19" d="M352.1,258.6l-39.2-9.4c0,0-7.8,34.3-14.1,88.1c-6.4,53.9,25.8,116,25.8,116s80.3-33.3,96.4-39.3l-36.2-90.8
			L352.1,258.6z"/>
		<polygon class="st19" points="367.2,419.1 342.3,589.6 331,589.6 323.8,496.6 308.3,403.6 		"/>
		<g>
			<path class="st21" d="M338.9,204.4c-9.2,4-20.8-0.7-29.5,4.5c-5.6,3.4-8.6,10.4-8.3,17.2c0.1,3.1,0.9,6.3,2.7,8.8
				c1.2,1.7,2.8,2.9,4.4,4c2.2,1.4,4.8,2.4,7.4,2.8c-0.5,2.3-1.2,4.6-2.2,6.8c5,0.2,9.2,2.2,14.2,2.4c0.1-2.8,0.9-7.6,0.9-10.5
				c1.3-0.5,2.5-1.2,3.7-2c7-4.7,11.1-13.8,10.1-22.4C342,212,340.5,208.2,338.9,204.4z"/>
			<polygon class="st4" points="337.6,208.1 307,214.9 309.1,239.2 298.5,235.6 290.1,197.4 331.1,182.1 352.7,186.4 355.6,197.2 
				343.4,213.6 			"/>
		</g>
		<path class="st7" d="M336.8,252.5l-39.1-8.8c0,0-7.2,33.1-13.6,87s25.8,116,25.8,116s68.7-49,84.8-54.9l-24.6-75.2L336.8,252.5z"
			/>
		<path class="st19" d="M283.8,331.9c6.4-53.9,13.9-88.2,13.9-88.2l39,8.6l0.1,0.2c-0.5,2.2-0.9,4.4-1.4,6.7
			c-1.5,8.9-2.2,17.9-2.1,26.9c0.2,15.9,2.5,31.8,5.6,47.4c2.9,14.9,6.9,29.6,11.9,43.9c6.7,18.9,15.4,37.1,25.6,54.3
			c-32.8,12.4-71.3,27-71.3,27S277.4,385.8,283.8,331.9z"/>
		<g>
			<g>
				
					<rect x="372.9" y="280.8" transform="matrix(0.9967 -8.087470e-02 8.087470e-02 0.9967 -25.8723 37.284)" class="st22" width="148.9" height="114.5"/>
				<g class="st23">
					
						<rect x="380.7" y="385.7" transform="matrix(0.9967 -8.087459e-02 8.087459e-02 0.9967 -29.8516 37.7616)" class="st24" width="141" height="3.3"/>
					
						<rect x="379.9" y="375.8" transform="matrix(0.9967 -8.087455e-02 8.087455e-02 0.9967 -29.0503 37.6618)" class="st24" width="141" height="3.3"/>
					
						<rect x="379.1" y="365.9" transform="matrix(0.9967 -8.087455e-02 8.087455e-02 0.9967 -28.2531 37.5675)" class="st24" width="141" height="3.3"/>
					
						<rect x="378.3" y="356" transform="matrix(0.9967 -8.087455e-02 8.087455e-02 0.9967 -27.4518 37.4678)" class="st24" width="141" height="3.3"/>
					
						<rect x="377.5" y="346" transform="matrix(0.9967 -8.087455e-02 8.087455e-02 0.9967 -26.6499 37.3728)" class="st24" width="141" height="3.3"/>
					
						<rect x="376.7" y="336.1" transform="matrix(0.9967 -8.087455e-02 8.087455e-02 0.9967 -25.8533 37.2737)" class="st24" width="141" height="3.3"/>
					
						<rect x="375.9" y="326.2" transform="matrix(0.9967 -8.087459e-02 8.087459e-02 0.9967 -25.052 37.174)" class="st24" width="141" height="3.3"/>
					
						<rect x="375.1" y="316.2" transform="matrix(0.9967 -8.087459e-02 8.087459e-02 0.9967 -24.25 37.079)" class="st24" width="141" height="3.3"/>
					
						<rect x="374.3" y="306.4" transform="matrix(0.9967 -8.087459e-02 8.087459e-02 0.9967 -23.4535 36.9799)" class="st24" width="141" height="3.3"/>
					
						<rect x="373.5" y="296.4" transform="matrix(0.9967 -8.087459e-02 8.087459e-02 0.9967 -22.6516 36.8849)" class="st24" width="141" height="3.3"/>
					
						<rect x="372.7" y="286.5" transform="matrix(0.9967 -8.087459e-02 8.087459e-02 0.9967 -21.8502 36.7852)" class="st24" width="141" height="3.3"/>
				</g>
			</g>
			<g>
				
					<rect x="372.7" y="223.3" transform="matrix(0.9967 -8.087473e-02 8.087473e-02 0.9967 -18.9339 36.9935)" class="st25" width="148.9" height="57.8"/>
				
					<rect x="378.2" y="270.8" transform="matrix(0.9967 -8.087459e-02 8.087459e-02 0.9967 -20.5804 37.1846)" class="st24" width="141" height="3.6"/>
				
					<rect x="377.4" y="260.1" transform="matrix(0.9967 -8.087459e-02 8.087459e-02 0.9967 -19.7115 37.0825)" class="st24" width="141" height="3.6"/>
				
					<rect x="376.5" y="249.2" transform="matrix(0.9967 -8.087459e-02 8.087459e-02 0.9967 -18.8385 36.975)" class="st24" width="141" height="3.6"/>
				
					<rect x="375.6" y="238.4" transform="matrix(0.9967 -8.087505e-02 8.087505e-02 0.9967 -17.9656 36.8678)" class="st24" width="141" height="3.6"/>
				
					<rect x="374.8" y="227.6" transform="matrix(0.9967 -8.087459e-02 8.087459e-02 0.9967 -17.0972 36.7607)" class="st24" width="141" height="3.6"/>
			</g>
			<g>
				
					<rect x="368.7" y="101.7" transform="matrix(0.9967 -8.087458e-02 8.087458e-02 0.9967 -11.0757 35.9103)" class="st22" width="138.1" height="106"/>
				
					<rect x="375.9" y="198.9" transform="matrix(0.9967 -8.087475e-02 8.087475e-02 0.9967 -14.7623 36.3474)" class="st24" width="130.8" height="3.1"/>
				
					<rect x="375.2" y="189.7" transform="matrix(0.9967 -8.087475e-02 8.087475e-02 0.9967 -14.0224 36.26)" class="st24" width="130.8" height="3.1"/>
				
					<rect x="374.5" y="180.5" transform="matrix(0.9967 -8.087479e-02 8.087479e-02 0.9967 -13.2784 36.1673)" class="st24" width="130.8" height="3.1"/>
				
					<rect x="373.7" y="171.3" transform="matrix(0.9967 -8.087479e-02 8.087479e-02 0.9967 -12.5385 36.0799)" class="st24" width="130.8" height="3.1"/>
				
					<rect x="373" y="162.1" transform="matrix(0.9967 -8.087430e-02 8.087430e-02 0.9967 -11.7991 35.9875)" class="st24" width="130.8" height="3.1"/>
				
					<rect x="372.2" y="152.9" transform="matrix(0.9967 -8.087479e-02 8.087479e-02 0.9967 -11.0598 35.8955)" class="st24" width="130.8" height="3.1"/>
				
					<rect x="371.5" y="143.7" transform="matrix(0.9967 -8.087479e-02 8.087479e-02 0.9967 -10.3152 35.8075)" class="st24" width="130.8" height="3.1"/>
				
					<rect x="370.7" y="134.5" transform="matrix(0.9967 -8.087479e-02 8.087479e-02 0.9967 -9.5759 35.7153)" class="st24" width="130.8" height="3.1"/>
				
					<rect x="370" y="125.4" transform="matrix(0.9967 -8.087479e-02 8.087479e-02 0.9967 -8.836 35.6279)" class="st24" width="130.8" height="3.1"/>
				
					<rect x="369.2" y="116.2" transform="matrix(0.9967 -8.087479e-02 8.087479e-02 0.9967 -8.0967 35.5357)" class="st24" width="130.8" height="3.1"/>
				
					<rect x="368.5" y="106.9" transform="matrix(0.9967 -8.087479e-02 8.087479e-02 0.9967 -7.352 35.4477)" class="st24" width="130.8" height="3.1"/>
			</g>
			
				<rect x="364.4" y="207.7" transform="matrix(0.9967 -8.087449e-02 8.087449e-02 0.9967 -16.0102 36.2516)" class="st24" width="150.2" height="16"/>
			<path class="st26" d="M485,168.7c9.7,37.5,24.3,58.1,35.7,69l-5.8-71.4L485,168.7z"/>
			<path class="st27" d="M381.7,212.9c0,0,25.7,8.4,24.8,32.4c0,0,63.7-39.6,89.7-41.7L381.7,212.9z"/>
			<path class="st28" d="M373.2,213.1c0,0,25.6,7.5,24.6,29.3c0,0,63.9-36.5,90-38.6L373.2,213.1z"/>
			<path class="st29" d="M481.3,157.9c0,0,12.5-3.7,19.3-27.8c0,0,25.5,62,53.2,60.4c0,0-26.8,10.2-15.6,45.9
				C538.2,236.5,502.7,227,481.3,157.9z"/>
		</g>
		<g>
			<polygon class="st12" points="387.9,395.3 378.6,394.8 382.2,380.7 392.9,377.1 400.2,383.4 			"/>
			<polygon class="st19" points="294.4,272.5 307.6,278.8 339.4,359.2 384.9,378.8 382.5,395.1 324,381.4 297.3,333.8 			"/>
		</g>
	</g>
	<g>
		<g>
			<g>
				<g>
					<path class="st30" d="M734.3,598.7l30.4-23.9c1.6-1.2,0.7-3.9-1.3-3.9H588.2l-23.6,27.8H734.3z"/>
					<polygon class="st31" points="727.3,563.9 727.3,594.9 756.3,574.6 755.3,553 					"/>
					<path class="st30" d="M734.3,561.5l24.9-10.1c1.4-0.6,1-2.8-0.5-2.8l-163.5-1.1l-30.5,12.5L734.3,561.5z"/>
					<rect x="564.7" y="560.1" class="st30" width="169.6" height="38.7"/>
					<polygon class="st32" points="734.3,561.5 755.4,553 755.5,554.6 734.3,567.9 					"/>
				</g>
			</g>
			<rect x="569.2" y="516.7" class="st33" width="168.8" height="39.3"/>
			<rect x="565.2" y="489" class="st13" width="168.8" height="27.8"/>
			<rect x="571.6" y="456" class="st34" width="168.8" height="33.1"/>
			<rect x="561" y="418.8" class="st35" width="168.8" height="39.4"/>
			<rect x="564.8" y="379.1" class="st36" width="168.8" height="39.4"/>
			<path class="st37" d="M736.4,497.3c-16.6-17.4-18.1-41.3-18.1-41.3s-2.8,28.5,6.8,65.5c0.4,1.5,5.6,5.9,12.7,11.4
				C737.7,521.1,737.1,509.2,736.4,497.3z"/>
			<path class="st38" d="M722.9,445.7c0,0,3.7,58.5,63.2,59l1.4,50.3c0,0-56.4-38.7-57.7-43.7C720,474.2,722.9,445.7,722.9,445.7z"
				/>
			<rect x="582.9" y="470.6" class="st39" width="97.4" height="9.8"/>
			<g class="st40">
				<rect x="590.5" y="497.9" class="st41" width="2.3" height="11.7"/>
				<rect x="595.8" y="497.9" class="st41" width="2.3" height="11.7"/>
				<rect x="602.6" y="497.9" class="st41" width="2.3" height="11.7"/>
			</g>
		</g>
		<rect x="568.9" y="449" class="st42" width="158.1" height="1.4"/>
		<rect x="568.9" y="440.7" class="st42" width="158.1" height="1.4"/>
		<rect x="568.9" y="432.4" class="st42" width="158.1" height="1.4"/>
		<rect x="568.9" y="424.2" class="st42" width="158.1" height="1.4"/>
		<g>
			
				<rect x="579.9" y="327.4" transform="matrix(1 -2.141213e-03 2.141213e-03 1 -0.7573 1.3915)" class="st43" width="139.2" height="54"/>
			
				<rect x="583.8" y="371.9" transform="matrix(1 -2.141483e-03 2.141483e-03 1 -0.7985 1.3922)" class="st44" width="131.8" height="3.4"/>
			
				<rect x="583.8" y="361.7" transform="matrix(1 -2.141483e-03 2.141483e-03 1 -0.7768 1.3922)" class="st44" width="131.8" height="3.4"/>
			
				<rect x="583.8" y="351.6" transform="matrix(1 -2.141483e-03 2.141483e-03 1 -0.7552 1.3921)" class="st44" width="131.8" height="3.4"/>
			
				<rect x="583.7" y="341.5" transform="matrix(1 -2.141483e-03 2.141483e-03 1 -0.7334 1.392)" class="st44" width="131.8" height="3.4"/>
			
				<rect x="583.8" y="331.3" transform="matrix(1 -2.141483e-03 2.141483e-03 1 -0.7117 1.392)" class="st44" width="131.8" height="3.4"/>
		</g>
	</g>
	<g>
		<g>
			
				<rect x="442.6" y="503.1" transform="matrix(1 -2.141213e-03 2.141213e-03 1 -1.1906 1.098)" class="st45" width="139.2" height="107"/>
			<g class="st23">
				
					<rect x="446.6" y="601.4" transform="matrix(1 -2.141484e-03 2.141484e-03 1 -1.2899 1.0988)" class="st24" width="131.8" height="3.1"/>
				
					<rect x="446.5" y="592.1" transform="matrix(1 -2.141484e-03 2.141484e-03 1 -1.2701 1.0987)" class="st24" width="131.8" height="3.1"/>
				
					<rect x="446.5" y="582.8" transform="matrix(1 -2.141483e-03 2.141483e-03 1 -1.2501 1.0987)" class="st24" width="131.8" height="3.1"/>
				
					<rect x="446.5" y="573.4" transform="matrix(1 -2.141483e-03 2.141483e-03 1 -1.2302 1.0986)" class="st24" width="131.8" height="3.1"/>
				
					<rect x="446.5" y="564.1" transform="matrix(1 -2.141484e-03 2.141484e-03 1 -1.2102 1.0985)" class="st24" width="131.8" height="3.1"/>
				
					<rect x="446.5" y="554.9" transform="matrix(1 -2.141484e-03 2.141484e-03 1 -1.1904 1.0985)" class="st24" width="131.8" height="3.1"/>
				
					<rect x="446.4" y="545.5" transform="matrix(1 -2.141483e-03 2.141483e-03 1 -1.1704 1.0984)" class="st24" width="131.8" height="3.1"/>
				
					<rect x="446.4" y="536.2" transform="matrix(1 -2.141483e-03 2.141483e-03 1 -1.1504 1.0983)" class="st24" width="131.8" height="3.1"/>
				
					<rect x="446.4" y="526.9" transform="matrix(1 -2.141484e-03 2.141484e-03 1 -1.1305 1.0983)" class="st24" width="131.8" height="3.1"/>
				
					<rect x="446.4" y="517.6" transform="matrix(1 -2.141484e-03 2.141484e-03 1 -1.1106 1.0982)" class="st24" width="131.8" height="3.1"/>
				
					<rect x="446.3" y="508.3" transform="matrix(1 -2.141483e-03 2.141483e-03 1 -1.0907 1.0981)" class="st24" width="131.8" height="3.1"/>
			</g>
		</g>
		<g>
			
				<rect x="436" y="449.7" transform="matrix(1 -2.141682e-03 2.141682e-03 1 -1.0197 1.0841)" class="st46" width="139.2" height="54"/>
			
				<rect x="440" y="494.2" transform="matrix(1 -2.141484e-03 2.141484e-03 1 -1.0607 1.0844)" class="st24" width="131.8" height="3.4"/>
			
				<rect x="439.9" y="484" transform="matrix(1 -2.141484e-03 2.141484e-03 1 -1.039 1.0843)" class="st24" width="131.8" height="3.4"/>
			
				<rect x="439.9" y="473.9" transform="matrix(1 -2.141484e-03 2.141484e-03 1 -1.0172 1.0843)" class="st24" width="131.8" height="3.4"/>
			
				<rect x="439.9" y="463.7" transform="matrix(1 -2.141484e-03 2.141484e-03 1 -0.9955 1.0842)" class="st24" width="131.8" height="3.4"/>
			
				<rect x="439.9" y="453.6" transform="matrix(1 -2.141484e-03 2.141484e-03 1 -0.9739 1.0841)" class="st24" width="131.8" height="3.4"/>
		</g>
		<polygon class="st26" points="561.4,503 478.3,532.7 452.9,503.2 		"/>
		
			<rect x="439.9" y="434.6" transform="matrix(1 -2.141639e-03 2.141639e-03 1 -0.9457 1.0934)" class="st47" width="140.4" height="15"/>
		<path class="st48" d="M442.6,535.7c30.4,22.5,64.8,2.2,64.8,2.2s-21.3,17.8-56.1,29.9c-0.9,0.3-4.1-0.4-8.6-1.8L442.6,535.7z"/>
		<polygon class="st49" points="551.1,503 467.9,528.6 442.5,503.2 		"/>
		<path class="st49" d="M507.6,530.9c0,0-48.8,28.7-81.4-20.2l-40.9,26.1c0,0,61.6,25.6,66.3,24
			C486.3,548.7,507.6,530.9,507.6,530.9z"/>
	</g>
	<g>
		<polygon class="st30" points="848.7,256.1 836.9,261.7 808.9,323.8 757,338.4 761.4,357.6 821.4,349.6 845.8,311 		"/>
		<g>
			<g>
				<path class="st20" d="M842.2,590.4l12.4-11.5c3.6-1.8,7.5-3.1,10.5-3.1c2.2,0,4.1,0.8,5.3,2.5c1.1,1.7,1.3,3.8,0.6,5.6
					c-0.3,0.7-0.7,1.2-1.1,1.8l0,0l0,0c-0.4,0.5-0.8,0.9-1.2,1.4c-0.2,0.3-0.5,0.6-0.8,0.9c-2.6,2.8-6.9,7.3-8.6,8.3
					c-2.5,1.5-8.1,5.5-14.6,1l0.1-0.1C842.4,595.5,841.7,592.9,842.2,590.4z"/>
				<path class="st12" d="M852,490.2l1,14.4l4.9,70.3l-4.9,8.2c0,0-1,6.5,6.5,6c2.2-0.2,10.2-10.2,10.2-10.2l-1.1-4.6l5.6-52.8
					l-0.1-15.3l2.7-17L852,490.2z"/>
			</g>
			<g>
				<path class="st20" d="M930.9,572.5c2.3-0.7,4.5-0.6,6.2,0.8c1.7,1.3,2.6,3.4,2.4,5.5c-0.1,1.4-0.7,2.7-1.3,4
					c-3,6.5-11.4,21.2-21.1,18.5c-4.1-1.1-5.6-5.3-4.8-8.9C913.6,586.8,923.2,575,930.9,572.5z"/>
			</g>
			<path class="st12" d="M882.1,481.7l1.7,20.8l40.8,73.5c0,0-5.9,10.2-2.1,11.1c3.7,0.9,14.6-2.2,14.7-13.8
				c-4.3-14-21.1-61.6-21.1-61.6l-7.9-12.3l0.1-23.1L882.1,481.7z"/>
			<path class="st50" d="M928.3,412.2c0.3-6.2-1.7-22.1-3.7-27.8c-7.3-20.9-8.8-31.2-8.8-48.2s7.5-70.9,7.5-70.9l-26.2-15.7
				l-31.4,0.9l-17.5,5.7c0,0-3.7,67.8-4.7,89.7c-0.8,15.6-1.8,29.1-3.3,47.2c0,0-4,41.3,2.2,85.4c0,0,1.4,14.7,2,16
				c0.1,0.4,0.1,0.7,0.1,0.7h0.2h69.8v-25.2c2.3-8.1,4.6-16.2,6.6-24.3C924.1,435.2,927.7,423.6,928.3,412.2z"/>
			<path class="st30" d="M913.5,254.3l11.9,9c0,0-9.1,62.1-9.5,72.9c-0.5,10.8,13.5,54.2,13.5,54.2l-57.8,7.5c0,0-8.5-46.2-11-69.2
				c-2.4-23,32.6-79,32.6-79L913.5,254.3z"/>
			<path class="st30" d="M855.5,253.2l-11.8,5.6c0,0,1.7,69-1.4,86.5c-1.8,10.7-9.1,45.3-9.1,45.3L852,397c0,0,11.5-43.3,13.8-66.2
				c2.3-23-0.2-80.1-0.2-80.1L855.5,253.2z"/>
			<g>
				<g>
					<path class="st51" d="M857.8,227.9c-1.5,5.9,2,11.8,5.1,16.8c1.2,2.1,3.2,4.9,1.6,7.2c-1.8,2.6-6.3,2.1-8.3,0.1
						c-1.4-1.4-2.1-3.3-2.7-5.1c-2.7-8.2-6.4-19.6-5.7-28.2c0.6-6.9,9.1-19.1,17.7-14.7c1.6,0.8,2.6,2.3,3.4,3.7
						c0.5,0.9,1,1.8,1.1,2.8c0.4,4-3.4,5-6,7.2C861,220.4,858.8,224.1,857.8,227.9z"/>
					<path class="st12" d="M872.3,249.2c-5.8-0.7-10.7-4.8-13.3-9.7c-2.6-4.9-3.2-10.5-3.1-16c0.4-18.2,24.6-19.2,34-6.2
						C898.1,228.8,889.2,251.3,872.3,249.2z"/>
					<path class="st51" d="M888.8,226c0.2,2.2,1.3,4.6,1.7,6.8c0.6,4.2-0.4,9.6,1.2,13.4c4.3-0.6,9.4-3.3,12.5-6.2
						c3.2-3,2.6-7.4,3.4-11.8c0.7-4,1.5-8.1,1.3-12.3c-1.2-22.4-23.7-34.7-43.4-24.6c-7.5,3.8-10.7,13.6-5.3,19.9
						c5.9,6.9,17.9,3.9,25,9C886.7,221.5,887.9,223.6,888.8,226z"/>
				</g>
				<path class="st12" d="M871.8,247.3c0.3,1.4,0.6,2.7,0.9,4.1c0.1,0.7,0.1,2.4,0.6,2.8c0.3,0.2,0.7,0.2,1.1,0.1
					c1.1-0.1,10.4-1.3,10.4-1.9c-0.3-1.6-0.6-3.2-1.1-4.7c-0.4-1.2-0.5-3.6-1.3-4.5c-1.6,1.1-3.3,1.8-5.1,2.3
					c-1.8,0.5-3.6,1-5.4,1.5C871.8,247.1,871.8,247.2,871.8,247.3z"/>
			</g>
		</g>
		<g>
			<g>
				<path class="st52" d="M784,397.9l91-33.4c2.8-1,4.1-4.3,3-7.2l-47.2-128.4c-1.1-3-4.2-4.6-7-3.6l-91,33.4c-2.8,1-4.1,4.3-3,7.2
					L777,394.4C778.1,397.4,781.2,399,784,397.9z"/>
				<path class="st53" d="M816.6,318l23.8-8.8c1.5-0.5,2.2-2.2,1.6-3.8l-9.2-24.9c-0.6-1.6-2.2-2.4-3.7-1.9l-23.7,8.8
					c-1.5,0.5-2.2,2.2-1.6,3.8l9.2,24.9C813.5,317.7,815.1,318.6,816.6,318z"/>
				<path class="st53" d="M772.8,334.1l23.8-8.8c1.5-0.5,2.2-2.2,1.6-3.8l-9.2-24.9c-0.6-1.6-2.2-2.4-3.7-1.9l-23.8,8.8
					c-1.5,0.5-2.2,2.2-1.6,3.8l9.2,24.9C769.6,333.8,771.3,334.7,772.8,334.1z"/>
				<path class="st53" d="M831.6,358.7l23.8-8.8c1.5-0.5,2.2-2.2,1.6-3.8l-9.2-24.9c-0.6-1.6-2.2-2.4-3.7-1.9l-23.8,8.8
					c-1.5,0.5-2.2,2.2-1.6,3.8l9.2,24.9C828.5,358.3,830.1,359.2,831.6,358.7z"/>
				<path class="st54" d="M787.7,374.8l23.8-8.8c1.5-0.5,2.2-2.2,1.6-3.8l-9.2-24.9c-0.6-1.6-2.2-2.4-3.7-1.9l-23.8,8.8
					c-1.5,0.5-2.2,2.2-1.6,3.8L784,373C784.5,374.5,786.2,375.4,787.7,374.8z"/>
				<path class="st44" d="M818.3,290.1c-0.2-0.5-0.2-0.9-0.1-1.3c0.1-0.4,0.4-0.7,0.8-0.8c0.4-0.2,0.8-0.1,1.2,0.1
					c0.4,0.2,0.7,0.5,0.8,1l2.8,7.5l6.7-2.5c0.4-0.1,0.8-0.1,1.2,0.1c0.4,0.2,0.7,0.5,0.8,0.9c0.2,0.4,0.1,0.8-0.1,1.2
					c-0.2,0.4-0.5,0.7-0.9,0.8l-6.7,2.5l2.8,7.5c0.2,0.4,0.2,0.8,0,1.3c-0.2,0.4-0.4,0.7-0.8,0.8c-0.4,0.2-0.8,0.1-1.2-0.1
					c-0.4-0.2-0.7-0.5-0.8-1l-2.8-7.5l-6.7,2.5c-0.4,0.2-0.8,0.2-1.2,0c-0.4-0.2-0.7-0.5-0.8-0.9c-0.2-0.4-0.2-0.8,0-1.2
					c0.2-0.4,0.5-0.7,0.9-0.8l6.7-2.5L818.3,290.1z"/>
				<path class="st44" d="M772,319.6c-0.2,0.1-0.5,0.1-0.8-0.1c-0.2-0.1-0.4-0.3-0.5-0.5l-0.8-2.1c-0.1-0.2-0.1-0.5,0-0.7
					c0.1-0.2,0.3-0.4,0.6-0.5L786,310c0.2-0.1,0.5-0.1,0.7,0c0.2,0.1,0.4,0.3,0.4,0.5l0.8,2.1c0.1,0.3,0.1,0.5,0.1,0.8
					c-0.1,0.2-0.2,0.4-0.5,0.5L772,319.6z"/>
				<path class="st44" d="M785.1,354.5c-0.2,0.1-0.5,0.1-0.8-0.1c-0.2-0.1-0.4-0.3-0.5-0.5l-0.8-2.1c-0.1-0.2-0.1-0.5,0-0.7
					c0.1-0.2,0.3-0.4,0.6-0.5l15.4-5.7c0.2-0.1,0.5-0.1,0.7,0c0.2,0.1,0.4,0.3,0.4,0.5l0.8,2.1c0.1,0.3,0.1,0.5,0.1,0.8
					c-0.1,0.2-0.2,0.4-0.5,0.5L785.1,354.5z"/>
				<path class="st44" d="M788,362.2c-0.2,0.1-0.5,0.1-0.8-0.1c-0.2-0.1-0.4-0.3-0.5-0.5l-0.8-2.1c-0.1-0.2-0.1-0.5,0-0.7
					c0.1-0.2,0.3-0.4,0.6-0.5l15.4-5.7c0.2-0.1,0.5-0.1,0.7,0c0.2,0.1,0.4,0.3,0.4,0.5l0.8,2.1c0.1,0.3,0.1,0.5,0.1,0.8
					c-0.1,0.2-0.2,0.4-0.5,0.5L788,362.2z"/>
				<g>
					<path class="st44" d="M830.7,343c-0.2,0.1-0.5,0.1-0.8-0.1c-0.2-0.1-0.4-0.3-0.5-0.5l-0.8-2.1c-0.1-0.2-0.1-0.5,0-0.7
						c0.1-0.2,0.3-0.4,0.6-0.5l15.4-5.7c0.2-0.1,0.5-0.1,0.7,0c0.2,0.1,0.4,0.3,0.4,0.5l0.8,2.1c0.1,0.3,0.1,0.5,0.1,0.8
						c-0.1,0.2-0.2,0.4-0.5,0.5L830.7,343z"/>
					
						<ellipse transform="matrix(0.9385 -0.3453 0.3453 0.9385 -63.6751 309.0783)" class="st44" cx="835.7" cy="333.3" rx="2.1" ry="2.3"/>
					
						<ellipse transform="matrix(0.9385 -0.3454 0.3454 0.9385 -66.8836 311.0578)" class="st44" cx="839.5" cy="343.2" rx="2.1" ry="2.3"/>
				</g>
			</g>
			
				<rect x="742.9" y="256.9" transform="matrix(0.9385 -0.3453 0.3453 0.9385 -43.8548 288.0154)" class="st44" width="87.3" height="20.5"/>
		</g>
		<g>
			<polygon class="st12" points="920.3,204.7 908.6,191.1 892.6,192.1 894.6,202.4 906.1,207.7 911.1,215.1 			"/>
			<polygon class="st30" points="895.6,251.7 937.1,256.1 906.4,211.1 920.3,199.8 964.7,254.4 958.5,277.2 910.6,285.5 			"/>
		</g>
		<polygon class="st12" points="765.5,351.3 763.4,359.5 751.6,353.8 750.3,343.8 757,338.4 		"/>
	</g>
	<g>
		<g>
			<g>
				<g>
					
						<ellipse transform="matrix(0.9956 -9.348349e-02 9.348349e-02 0.9956 -49.3646 31.0173)" class="st55" cx="306.4" cy="542.4" rx="59.1" ry="59.1"/>
					<path class="st56" d="M300.4,478.3c-35.5,3.3-61.5,34.7-58.1,70.2c3.3,35.5,34.7,61.5,70.2,58.1c35.5-3.3,61.5-34.7,58.1-70.2
						C367.2,501,335.8,474.9,300.4,478.3z M311.4,595.8c-29.5,2.8-55.6-18.9-58.4-48.4c-2.8-29.5,18.9-55.6,48.4-58.4
						c29.5-2.8,55.6,18.9,58.4,48.4C362.6,566.9,340.9,593.1,311.4,595.8z"/>
					<path class="st57" d="M299.8,471.7c-39.1,3.7-67.8,38.3-64.1,77.4c3.7,39.1,38.3,67.8,77.4,64.1c39.1-3.7,67.8-38.3,64.1-77.4
						C373.5,496.7,338.8,468,299.8,471.7z M311.9,601.3c-32.5,3.1-61.3-20.8-64.4-53.3c-3.1-32.5,20.8-61.3,53.3-64.4
						s61.3,20.8,64.4,53.3C368.3,569.4,344.5,598.2,311.9,601.3z"/>
				</g>
			</g>
			<g>
				<g>
					<path class="st58" d="M288.8,561.9c-0.8-0.4-1-1.5-1.2-2.4c-0.7-2.4,0.7-4.4,3.1-4.9c3.6-0.8,7.5,1.7,10.9,2.9
						c2.8,1.1,5.8,1.4,9.1,1.1c3.5-0.3,6.2-1.4,8.1-3.3c2-1.9,2.8-4.2,2.5-6.9c-0.2-2.8-1.2-4.7-3.1-5.7c-1.8-1-4.7-1.4-8.8-1
						l-2.7,0.2c-6.7,0.6-11.9-0.4-15.6-2.8c-3.7-2.5-5.9-6.4-6.3-11.7c-0.5-5.2,0.9-9.4,4.1-12.5c3.2-3.2,7.9-5,14-5.6
						c2.5-0.2,5.1,0,7.8,0.6c5.6,1.3,15,4.9,13.6,10.5c-1.7,6.4-12-1.7-15.4-2.9c-2-0.7-4.4-0.9-7-0.7c-3.1,0.3-5.5,1.3-7.2,3.1
						s-2.5,4-2.2,6.5c0.2,2.5,1.4,4.1,3.4,5s6.2,1.1,12.6,0.7c6.8-0.4,12,0.6,15.3,3c3.4,2.4,5.3,6.3,5.8,11.9
						c0.5,5.3-0.9,9.7-4.1,13.2c-3.2,3.5-7.8,5.5-13.6,6c-1.9,0.2-4,0.1-6.3-0.1C301.1,565.8,294.1,564.9,288.8,561.9z"/>
				</g>
				<path class="st58" d="M310.9,580.4L310.9,580.4c-2.1,0.2-3.9-1.6-4.1-4l-6.3-72.6c-0.2-2.4,1.3-4.4,3.3-4.6h0.1
					c2-0.2,3.8,1.6,4.1,4l6.4,72.6C314.5,578.2,313,580.2,310.9,580.4z"/>
			</g>
		</g>
	</g>
	<g>
		<path class="st59" d="M385.9,294.5c0,0,7.9,67.7,44.5,100.9l33.6-2L385.9,294.5z"/>
		<path class="st59" d="M493.1,434.6h-15.5c0,0,64.4,56,134.2,54.5L493.1,434.6z"/>
		<path class="st44" d="M385.9,294.5c0,0,62.7-21,85.7-70c0,0,64.1,122.9,196.3,121.8c0,0-67.7,81.2-56.2,142.8
			C611.9,489.1,432.2,447.7,385.9,294.5z"/>
	</g>
	<g>
		<path class="st1" d="M443.8,334.3l26.8-66l12.2,12.9l-21.1,49l-3.3-3.4l50.3-18.2l11.8,12.5l-67.4,23.1L443.8,334.3z"/>
	</g>
	<g>
		<path class="st1" d="M480.4,370.6l-13.1-11.1l65-30l10.3,8.7l-18.5,69.2l-12.9-10.9l16.2-53.2l2.8,2.4L480.4,370.6z M486.7,358.3
			l13.4-5.5l24.3,20.5l-3.3,14L486.7,358.3z"/>
	</g>
	<g>
		<path class="st1" d="M537.3,413.9l32.2-39.6l-15-12.2l8.8-10.8l43.4,35.3l-8.8,10.8l-15-12.2l-32.2,39.6L537.3,413.9z"/>
	</g>
</g>
</svg>
