<?xml version="1.0" encoding="utf-8"?>
<!-- Generator: Adobe Illustrator 21.0.0, SVG Export Plug-In . SVG Version: 6.00 Build 0)  -->
<svg version="1.1" id="Layer_1" xmlns="http://www.w3.org/2000/svg" xmlns:xlink="http://www.w3.org/1999/xlink" x="0px" y="0px"
	 viewBox="0 0 1200 630" style="enable-background:new 0 0 1200 630;" xml:space="preserve">
<style type="text/css">
	.st0{fill:#F2F2F2;}
	.st1{opacity:0.5;fill:url(#SVGID_3_);enable-background:new    ;}
	.st2{clip-path:url(#SVGID_6_);}
	.st3{clip-path:url(#SVGID_7_);fill:url(#SVGID_8_);}
	.st4{fill:url(#SVGID_9_);}
	.st5{fill:#FFFFFF;}
	.st6{fill:#9EBAF9;}
	.st7{fill:#C5D6FB;}
	.st8{fill:#D5E1FB;}
	.st9{fill:#8EABF7;}
	.st10{fill:#DCDCDC;}
	.st11{fill:url(#SVGID_10_);}
	.st12{fill:#D5D4DF;}
	.st13{fill:#3A3C57;}
	.st14{fill:#CBA385;}
	.st15{fill:#6B84CA;}
	.st16{fill:#BEBDC6;}
	.st17{fill:#CCA486;}
	.st18{fill:#CBA284;}
	.st19{fill:#262A34;}
	.st20{fill:#8E7662;}
	.st21{fill:#E9E9E9;}
	.st22{fill:url(#SVGID_11_);}
	.st23{fill:#A1C2F9;}
	.st24{fill:#F3F3F3;}
	.st25{fill:#9DBFF9;}
	.st26{fill:#5471B8;}
	.st27{fill:#6283D9;}
	.st28{fill:#84A9F7;}
	.st29{fill:#353F54;}
	.st30{fill:#272E3A;}
	.st31{fill:#282F3C;}
	.st32{fill:#7F7A76;}
	.st33{fill:#C2BAB4;}
	.st34{fill:#98A04E;}
	.st35{fill:#E3C8A1;}
	.st36{fill:#44536F;}
	.st37{fill:#696E38;}
	.st38{fill:url(#SVGID_12_);}
	.st39{fill:url(#SVGID_13_);}
	.st40{fill:#9B6C35;}
	.st41{fill:url(#SVGID_14_);}
	.st42{fill:#E8F0FB;}
	.st43{fill:#DAAC61;}
	.st44{fill:#DBB162;}
	.st45{fill:#DBAF62;}
	.st46{fill:#E7E7E7;}
	.st47{fill:#B67153;}
	.st48{fill:#E4C765;}
	.st49{fill:#2F3944;}
	.st50{fill:#9D9BDE;}
	.st51{fill:#DBDAFB;}
	.st52{fill:#4A4B76;}
	.st53{fill:#344059;}
	.st54{fill:#616161;}
	.st55{fill:#D3CAC3;}
	.st56{fill:#323349;}
	.st57{fill:#D7CEC6;}
	.st58{fill:#484A6F;}
	.st59{fill:#414349;}
	.st60{fill:#50537D;}
	.st61{fill:#2D2E40;}
</style>
<g id="bg">
</g>
<rect class="st0" width="1200" height="630"/>
<g>
	
		<linearGradient id="SVGID_3_" gradientUnits="userSpaceOnUse" x1="321.6698" y1="-17.1852" x2="856.9476" y2="518.0925" gradientTransform="matrix(1 0 0 -1 0 630)">
		<stop  offset="0" style="stop-color:#B9BBBD"/>
		<stop  offset="0.9948" style="stop-color:#909294"/>
	</linearGradient>
	<path class="st1" d="M953,563.5c75.4-72,93.5-219,23.6-321.2C918.3,157.2,811.1,69.5,675.9,44c-135.2-25.6-253.6-25.5-304.8,8.2
		c-41.9,27.6-22.5,66.1-9.3,98.8c17.5,43.6,20.1,78.3-52,141.7C227.4,365,205.2,392.1,201,462.1c-3.4,56.9,44.1,133.4,106.5,144.4
		c86.8,15.2,119-25,203.9-52.3c68.1-21.8,115.4-11.6,177.1,30.2C750.3,626.2,842.3,669.2,953,563.5z"/>
	<g>
		<g>
			<g>
				<g>
					<g>
						<g>
							<g>
								<g>
									<g>
										<defs>
											<polygon id="SVGID_4_" points="181.4,-7.9 181.9,-7.9 181.4,-7.3 											"/>
										</defs>
										<defs>
											<polygon id="SVGID_5_" points="180.2,-9 179.7,-9 180.2,-9.6 											"/>
										</defs>
										<clipPath id="SVGID_6_">
											<use xlink:href="#SVGID_4_"  style="overflow:visible;"/>
										</clipPath>
										<clipPath id="SVGID_7_" class="st2">
											<use xlink:href="#SVGID_5_"  style="overflow:visible;"/>
										</clipPath>
										
											<linearGradient id="SVGID_8_" gradientUnits="userSpaceOnUse" x1="1137.7047" y1="571.2704" x2="315.588" y2="104.7063" gradientTransform="matrix(1 0 0 -1 0 630)">
											<stop  offset="0" style="stop-color:#000000"/>
											<stop  offset="1" style="stop-color:#FFFFFF"/>
										</linearGradient>
										<polygon class="st3" points="1020.3,117.6 1020.3,133.2 949.1,231.6 811.9,223.8 654.7,403.1 490.1,367.4 331.6,517 
											325.4,510.4 487.4,357.5 651.3,393 808,214.4 944.6,222.2 										"/>
									</g>
								</g>
								
									<linearGradient id="SVGID_9_" gradientUnits="userSpaceOnUse" x1="1137.7047" y1="571.2704" x2="315.588" y2="104.7063" gradientTransform="matrix(1 0 0 -1 0 630)">
									<stop  offset="0" style="stop-color:#799AF7"/>
									<stop  offset="1" style="stop-color:#799AF7"/>
								</linearGradient>
								<polygon class="st4" points="1020.3,117.6 1020.3,133.2 949.1,231.6 811.9,223.8 654.7,403.1 490.1,367.4 331.6,517 
									325.4,510.4 487.4,357.5 651.3,393 808,214.4 944.6,222.2 								"/>
							</g>
						</g>
					</g>
				</g>
				<g>
					<g>
						<g>
							
								<ellipse transform="matrix(0.9774 -0.2116 0.2116 0.9774 -69.453 147.1882)" class="st5" cx="653" cy="398.1" rx="24.4" ry="24.4"/>
						</g>
					</g>
				</g>
				<g>
					<g>
						<g>
							<path class="st6" d="M659.1,426.3c-15.6,3.4-31-6.5-34.4-22.1c-3.4-15.6,6.5-31,22.1-34.4c15.6-3.4,31,6.5,34.4,22.1
								C684.6,407.5,674.7,423,659.1,426.3z M648.8,378.8c-10.7,2.3-17.5,12.8-15.1,23.5c2.3,10.7,12.8,17.5,23.5,15.1
								c10.7-2.3,17.4-12.8,15.1-23.5C670,383.2,659.5,376.4,648.8,378.8z"/>
						</g>
					</g>
				</g>
				<g>
					<g>
						<g>
							
								<ellipse transform="matrix(0.9774 -0.2116 0.2116 0.9774 -28.3595 176.3612)" class="st5" cx="809.9" cy="220.7" rx="24.4" ry="24.4"/>
						</g>
					</g>
				</g>
				<g>
					<g>
						<g>
							<path class="st7" d="M816,248.9c-15.6,3.4-31-6.5-34.4-22.1s6.5-31,22.1-34.4c15.6-3.4,31,6.5,34.4,22.1
								C841.5,230.1,831.6,245.5,816,248.9z M805.7,201.4c-10.7,2.3-17.5,12.8-15.1,23.5c2.3,10.7,12.8,17.5,23.5,15.1
								c10.7-2.3,17.4-12.8,15.1-23.5C826.9,205.8,816.3,199,805.7,201.4z"/>
						</g>
					</g>
				</g>
				<g>
					<g>
						<g>
							
								<ellipse transform="matrix(0.9774 -0.2116 0.2116 0.9774 -26.4381 205.1873)" class="st5" cx="945.5" cy="226.1" rx="24.4" ry="24.4"/>
						</g>
					</g>
				</g>
				<g>
					<g>
						<g>
							<path class="st8" d="M951.6,254.4c-15.6,3.4-31-6.5-34.4-22.1c-3.4-15.6,6.5-31,22.1-34.4c15.6-3.4,31,6.5,34.4,22.1
								S967.2,251,951.6,254.4z M941.3,206.7c-10.7,2.3-17.4,12.8-15.1,23.5c2.3,10.7,12.8,17.4,23.5,15.1s17.5-12.8,15.1-23.5
								C962.5,211.3,952,204.5,941.3,206.7z"/>
						</g>
					</g>
				</g>
				<g>
					<g>
						<g>
							
								<ellipse transform="matrix(0.9774 -0.2116 0.2116 0.9774 -66.1147 111.6548)" class="st5" cx="488.7" cy="364.8" rx="24.4" ry="24.4"/>
						</g>
					</g>
				</g>
				<g>
					<g>
						<g>
							<path class="st9" d="M494.7,393c-15.6,3.4-31-6.5-34.4-22.1c-3.4-15.6,6.5-31,22.1-34.4c15.6-3.4,31,6.5,34.4,22.1
								C520.2,374.2,510.3,389.6,494.7,393z M484.5,345.4c-10.7,2.3-17.4,12.8-15.1,23.5c2.3,10.7,12.8,17.5,23.5,15.1
								c10.7-2.3,17.5-12.8,15.1-23.5C505.7,349.9,495.1,343.1,484.5,345.4z"/>
						</g>
					</g>
				</g>
			</g>
			<g>
				<rect x="560.5" y="258.3" class="st10" width="72.7" height="14"/>
			</g>
			<g>
				<rect x="770.5" y="396.4" class="st10" width="69.5" height="13.4"/>
			</g>
			<g>
				<rect x="865.2" y="126.1" class="st10" width="64.1" height="12.3"/>
			</g>
		</g>
		<g>
			<g>
				
					<linearGradient id="SVGID_10_" gradientUnits="userSpaceOnUse" x1="750.1467" y1="82.2734" x2="750.1467" y2="633.0281" gradientTransform="matrix(1 0 0 -1 0 630)">
					<stop  offset="0" style="stop-color:#CA7D5F"/>
					<stop  offset="1" style="stop-color:#E4C565"/>
				</linearGradient>
				<path class="st11" d="M874.8,186.6c-3.9-3.8-9.6-7.9-16.9-12.4c-8.2-5-16.8-9.2-25.5-13.1c-10-4.5-20.7-8.2-31.5-11.2
					c-11.4-3.3-23.1-5.6-34.9-6.8c0.2,40.9,0.4,81.8,0.6,122.8c4.9,1,7.3,1.4,12.1,2.4c21,4.8,41.9,10.1,62.6,16.3
					c16.7,5,33.2,11.8,47.9,21c12.3,7.7,23.8,18.1,31.4,30.7c8.6,14.1,12.1,29.8,13,45.4c0.9,17.2-1.6,36.2-10.1,52.3
					c-8,15-19.9,28.6-33.6,38.6c-15.8,11.5-33.8,20.1-52,26c-20.7,6.7-42.5,10.3-64.6,12.5c0.1,20.7,0.3,41.4,0.4,62.2
					c-12,0.9-23.9,1.8-35.9,2.7c0.1-21.3,0.1-42.6,0.2-64c-31.6-0.7-62.9-4.5-92.7-13.5c-28.2-8.5-54.4-22-78.8-39.6
					c12.2-19.8,24.4-39.7,36.4-59.5c6,6.4,13.4,11.5,20.6,16.2c10,6.5,21.2,11.8,32.1,16.4c13,5.4,26.9,9.7,40.7,13.2
					c15,3.8,30.8,6,46.4,6.9c0.1-41.2,0.1-82.4,0.2-123.6c-2.6-0.7-5.3-1.4-8.1-2.1c-2.8-0.6-5.5-1.3-8.1-2.1
					c-20.1-5.1-40.5-10.5-59.5-18.3c-14.8-6.1-29-13.6-41.4-24.1c-10.4-8.8-18.6-20.5-24-33c-6.1-14.2-7.3-30.2-6.7-44.9
					c0.7-17.9,4.2-37,12.7-53.3c7.9-14.8,18-27.9,30.9-38.1c13.1-10.4,28.5-17.5,44.8-22.8c17.8-5.6,36.8-7.2,55.6-7.7
					c0.1-20.1,0.1-40.3,0.2-60.4c10.3,0.9,20.6,1.7,31,2.5c0.1,19.9,0.2,39.9,0.3,59.8c25.2,3.4,49.9,8.8,73.2,18.5
					c21,8.7,41.4,18.9,60.5,31.6C894.6,151.7,884.8,169.1,874.8,186.6z M668.8,197.1c-0.3,14.6,5.4,30.3,17.8,39.1
					c16.7,12,37,18.1,56.6,23.6c0.1-39.2,0.1-78.5,0.2-117.7c-19.1,0.5-40,1.9-55.7,14.3C675.3,166.1,669.1,182,668.8,197.1z
					 M855,393.7c-0.5-15.8-9.8-30.4-23.9-37.5c-19.9-10-42.2-16.5-64.1-22.1c0.2,39.1,0.4,78.3,0.6,117.4
					c22.6-1.8,46.2-5.6,65.6-17.6C846.8,425.4,855.5,409.9,855,393.7z"/>
			</g>
		</g>
		<g>
			<g>
				<g>
					<path class="st12" d="M636.7,498.1c1.7,7.4,1.4,24.8,1.4,24.8c0.5,16.4-1.4,33.2-1.8,42.6c0,0.3-0.1,0.6-0.1,0.9
						c-0.1,2.2-0.3,4.6-0.4,6.9h122.6c-0.1-2.2-0.1-4.6-0.1-6.9c-0.2-13.9-0.5-29.1-0.5-39.9c28-7.4,58.3-17.1,57.8-24.1
						c-0.6-7.3-22.4-114.3-28.5-118.7c-4.2-3-30.3-13.5-43.8-18.6c-6.2-2.4-11.1-4.1-12-4.1c-3.1-0.2-41.3,3.5-41.3,3.5
						s-5.5,1.9-11.1,4.5c-9.6,4.4-24.5,11.2-35.2,16.3c-3.4,1.7-7.8,3.8-11.3,5.8c0.5,13,1.2,26.9,2.3,41.8
						C634.5,432.8,636.5,465.3,636.7,498.1z M758.2,510.5c1.5-20.4,7.7-55.4,8.3-57.9c0,0,2.9,2.8,2.9,2.8l1,0.1
						c0-0.1,0.9,0.3,0.9,0.3s18.6,25.9,18.7,39.9C790.1,502.4,775.6,507.1,758.2,510.5z"/>
				</g>
				<g>
					<path class="st13" d="M631.2,573.3h16c0.3-2.3,0.7-4.6,1.2-6.9c2.8-15.4,6.3-32.7,8.2-49.7l0,0c3.6-31.5,8.4-62.5,11-80.8
						c6.8-47.8,15.9-69.2,15.9-69.2c-4.4,1.3-52.4,24-52.4,24c0.4,13.2,1.1,27.4,2.2,42.6c0,0,1,37.1,3.2,72.2
						c0.7,5,1.1,10.2,0.7,15.5c-0.5,6.9-1.3,14.4-2.2,22.2c0,0.1,0,0.2-0.1,0.3c-0.2,1.8-0.5,3.7-0.7,5.6c0,0.1,0,0.1,0,0.1
						c-0.7,5.7-1.4,11.5-2.2,17.3C631.9,568.8,631.6,571,631.2,573.3z"/>
				</g>
				<g>
					<path class="st13" d="M677.2,520.5c3.7,8.6,16.2,29.9,16.2,29.9s9.1-2.2,22.5-5.7c0.9,7.6,1.8,14.7,2.6,21.7
						c0.3,2.3,0.6,4.6,0.9,6.9h47.8c-0.6-2.3-1.1-4.6-1.6-6.9c-2.9-13-5-25-5.3-33.8c32-9.2,63.4-19.4,63-24.3
						c-0.7-7.3-24.8-119.5-30.9-123.9c-3.5-2.5-29.6-11.8-42.5-16.8c-2.3-0.9-10.3-4-12.4-4.8c-2.7,3-21.4,23.7-28.1,101.8
						c-0.8,9.7,0.9,27.4,2.8,45.2C692.8,515.1,676.6,519,677.2,520.5z M764.6,492.6c1.9-15.6,4.1-31.2,5.7-36.7c0,0,5.4,10.9,5,26.9
						C775.2,486,771.1,489.3,764.6,492.6z"/>
				</g>
				<g>
					<path class="st14" d="M733.2,362.2c0,0-4.9-9.2-3.5-35.3c0.3-7.2-38,17.1-38,17.1s0.1,2.5,0.2,5.8c0.1,1.4,0.1,2.9,0.1,4.5
						c0,0.5,0,0.9,0,1.3c0,0.7,0,1.4,0,2.1c0,0.9-0.1,1.7-0.1,2.6c-0.1,0.9-0.1,1.8-0.2,2.6c-0.2,1.6-1.1,4.4-1.4,5.1
						C688.5,372.2,718.8,372.4,733.2,362.2z"/>
				</g>
				<path class="st15" d="M701,378.7l-7,9.5c0,0,4.1,5.6,11.5,1.4L701,378.7z"/>
				<path class="st15" d="M695.9,388.6c0,0-25.9,63.2-20.3,143.6l8.1,14.8l9.2-12.6c0,0,1.5-106.6,8.8-146L695.9,388.6z"/>
				<path class="st14" d="M693.5,369.9l7.6,8.8c0,0,12.1-2.3,15.7-8.7C720.3,363.7,693.5,369.9,693.5,369.9z"/>
				<path class="st16" d="M691.7,362.1c0,0,0.9,6.8,9.3,16.6l-9.2,12.4l-5-25.6L691.7,362.1z"/>
				<path class="st16" d="M730.9,354c0,0-17.5,19.9-29.9,24.7l5.7,14.1l28-30.9L730.9,354z"/>
				<g>
					<path class="st13" d="M550.4,533.7c0,0,23.3-22.6,38.6-26.4c7-1.7,16.4-11.5,25.2-23c2.9-3.8,5.8-7.7,8.5-11.6l0,0
						C633.5,457.1,642,442,642,442s32.1-37.6,6.4-54.3c0,0-11-0.2-17.1,3c-6.2,3.4-19.5,31.1-21.7,36c-2.2,4.9-26.6,50.4-28.3,51.5
						c-1.7,1-4.4,4.8-14.1,10c-11.9,6.4-30.7,25.2-30.7,25.2L550.4,533.7z"/>
				</g>
				<path class="st17" d="M662.2,559.8c0,0,3.3-0.1,4.6-0.9c0,0,2.4-1.5,4.2-2.6c0.6-0.3,1.1-0.6,1.4-0.7c1.4-0.6,4.8-1.4,7.9-3.7
					c3-2.3,13.1-11.7,13.1-11.7l-6.5-9.9l-3-9.8c0,0-23.3,2.3-26.4,4.2c-0.3,0.2-0.6,0.3-0.9,0.6c-2.5,1.8-3.6,4.2-4.8,5.3
					c-0.5,0.4-4.5,4.8-4.2,6.5c0.3,2.5,1.5,4,3,4.8c0,0,0.8,4.8,3.3,6.9c0,0,0.6,4.4,4.4,6.2C658.5,554.9,659.6,559.3,662.2,559.8z"
					/>
				<path class="st18" d="M699.3,259.5c0,0-42.1-10.1-33.2,43.2c8.9,53.3,19,57.7,44.6,47c25.6-10.6,23.8-44.7,25.4-61.4
					C737.7,271.6,712.8,260.3,699.3,259.5z"/>
				<path class="st18" d="M721.4,296.4c0.6-4.7,9.9-6.2,10.5,0.8c0.6,7-4.5,19.3-8,18.1C720.5,314,720.6,302.9,721.4,296.4z"/>
				<path class="st19" d="M733.6,315.5c0,0-0.9-16.8-6.9-17.4c-6.1-0.6-7.2,6.1-7.2,6.1l-6.2,1.1c0,0,2.2-14.7-3.9-17.3
					c-6.1-2.6-39.7,7.5-44.5,3.1c-4.8-4.4-2.1-34.1,6.8-38.1s33.5-12.7,51.3-0.3c0,0,14-1.4,15.9,9.9
					C740.9,274,737.6,307.2,733.6,315.5z"/>
				<path class="st13" d="M676,520.5l17.4,29.9c0,0,46.1-11.9,56.8-14.9l-24.6-29.2C725.7,506.2,689.5,514.5,676,520.5z"/>
				<path class="st20" d="M691.9,360.3L691.9,360.3c22.6-2.3,31.3-19.7,31.3-19.7C709,354.8,692,354.3,692,354.3c0,0.5,0,0.9,0,1.3
					c0,0.7,0,1.4,0,2.1C691.9,358.7,691.9,359.5,691.9,360.3z"/>
			</g>
			<polygon class="st21" points="658.9,455.1 671.2,569.2 509.6,569.2 497.3,455.1 			"/>
			<rect x="657.1" y="559" class="st21" width="27" height="10.3"/>
			
				<linearGradient id="SVGID_11_" gradientUnits="userSpaceOnUse" x1="155.7208" y1="57.5533" x2="717.1002" y2="57.5533" gradientTransform="matrix(1 0 0 -1 0 630)">
				<stop  offset="0" style="stop-color:#E0BC69"/>
				<stop  offset="1" style="stop-color:#BD3D57"/>
			</linearGradient>
			<rect x="357.8" y="569" class="st22" width="439.3" height="6.9"/>
		</g>
		<g>
			<g>
				<path class="st23" d="M561.3,197h-28.1c-1.1,0-2-1.2-2-2.6c0-1.4,0.9-2.6,2-2.6h28.1c1.1,0,2,1.2,2,2.6
					C563.3,195.9,562.4,197,561.3,197z"/>
			</g>
			<g>
				<path class="st23" d="M549.9,180.3v28.1c0,1.1-1.2,2-2.6,2s-2.6-0.9-2.6-2v-28.1c0-1.1,1.2-2,2.6-2S549.9,179.2,549.9,180.3z"/>
			</g>
		</g>
		<g>
			<g>
				<path class="st23" d="M844.3,43.9h-29.2c-1.1,0-2.1-1.3-2.1-2.8c0-1.5,0.9-2.8,2.1-2.8h29.2c1.1,0,2.1,1.2,2.1,2.8
					C846.4,42.7,845.4,43.9,844.3,43.9z"/>
			</g>
			<g>
				<path class="st23" d="M844.3,57.7h-29.2c-1.1,0-2.1-1.2-2.1-2.8c0-1.5,0.9-2.8,2.1-2.8h29.2c1.1,0,2.1,1.2,2.1,2.8
					C846.4,56.4,845.4,57.7,844.3,57.7z"/>
			</g>
		</g>
		<g>
			<path class="st23" d="M975.1,327.3h-18.7c-0.7,0-1.4-0.8-1.4-1.8c0-1,0.6-1.8,1.4-1.8h18.7c0.7,0,1.4,0.8,1.4,1.8
				C976.4,326.5,975.8,327.3,975.1,327.3z"/>
		</g>
		<g>
			<path class="st23" d="M583.7,329.4c-0.7,0-1.5-0.1-2.1-0.4c-0.6-0.3-1.2-0.6-1.7-1.1c-0.5-0.5-0.9-1-1.1-1.5
				c-0.3-0.6-0.4-1.3-0.4-1.9s0.1-1.3,0.4-1.9c0.3-0.6,0.7-1.1,1.1-1.5c0.5-0.5,1-0.8,1.7-1c0.6-0.3,1.4-0.4,2.1-0.4
				s1.4,0.1,2.1,0.4s1.3,0.6,1.7,1c0.5,0.5,0.9,1,1.1,1.5c0.3,0.6,0.4,1.3,0.4,1.9s-0.1,1.4-0.4,1.9c-0.3,0.6-0.7,1.1-1.1,1.5
				c-0.5,0.5-1,0.8-1.7,1.1C585.2,329.3,584.4,329.4,583.7,329.4z M580.1,341.5l9.2-10.8l8.5-11.2l2,1.8l-8.9,10.6l-8.8,11.4
				L580.1,341.5z M583.7,327.1c0.3,0,0.6-0.1,0.9-0.2c0.3-0.2,0.5-0.3,0.7-0.6c0.2-0.2,0.4-0.6,0.5-0.9c0.1-0.3,0.2-0.7,0.2-1.1
				c0-0.7-0.2-1.4-0.7-1.9c-0.5-0.5-1-0.8-1.7-0.8c-0.3,0-0.6,0.1-0.9,0.2c-0.3,0.2-0.5,0.3-0.7,0.6c-0.2,0.2-0.4,0.5-0.5,0.9
				c-0.1,0.3-0.2,0.7-0.2,1c0,0.7,0.2,1.4,0.7,1.9C582.5,326.9,583,327.1,583.7,327.1z M596.4,343.4c-0.7,0-1.5-0.1-2.1-0.4
				s-1.2-0.6-1.7-1c-0.5-0.5-0.9-1-1.1-1.5c-0.3-0.6-0.4-1.3-0.4-1.9s0.1-1.4,0.4-1.9c0.3-0.6,0.7-1.1,1.1-1.5
				c0.5-0.5,1-0.8,1.7-1.1c0.6-0.3,1.4-0.4,2.1-0.4c0.7,0,1.5,0.1,2.1,0.4s1.2,0.6,1.7,1.1c0.5,0.5,0.9,1,1.1,1.5
				c0.3,0.6,0.4,1.3,0.4,1.9s-0.1,1.4-0.4,1.9c-0.3,0.6-0.6,1.1-1.1,1.5c-0.5,0.5-1.1,0.8-1.7,1
				C597.8,343.2,597.1,343.4,596.4,343.4z M596.4,341.2c0.3,0,0.6-0.1,0.9-0.2c0.3-0.2,0.5-0.3,0.7-0.6c0.2-0.2,0.4-0.5,0.5-0.9
				c0.1-0.3,0.2-0.7,0.2-1c0-0.4-0.1-0.7-0.2-1.1s-0.3-0.6-0.5-0.9s-0.5-0.5-0.7-0.6c-0.3-0.1-0.6-0.2-0.9-0.2
				c-0.3,0-0.6,0.1-0.9,0.2c-0.3,0.2-0.5,0.3-0.7,0.6c-0.2,0.2-0.4,0.6-0.5,0.9c-0.1,0.3-0.2,0.7-0.2,1.1c0,0.7,0.2,1.4,0.7,1.9
				C595.2,340.9,595.7,341.2,596.4,341.2z"/>
		</g>
		<g>
			<path class="st24" d="M532.7,269.3H338.2c-7.4,0-13.5,6-13.5,13.5v175.8c0,7.4,6,13.5,13.5,13.5h194.4c7.4,0,13.5-6,13.5-13.5
				V282.8C546.2,275.3,540.1,269.3,532.7,269.3z"/>
			<g>
				<g>
					<path class="st25" d="M406.8,330.8c4.5-12.6,0.5-26.1-9.2-34.2c-2.3-1.9-4.9-3.6-7.7-4.8c-0.6-0.3-1.3-0.5-1.9-0.7
						c-6.6-2.3-13.5-2.3-19.8-0.4c-9,2.8-16.6,9.7-20.1,19.3c-1.1,3.2-1.7,6.4-1.8,9.6c-0.4,13.1,7.6,25.6,20.6,30.3
						C383.2,355.4,401,347,406.8,330.8z M369.6,342.3c-9.8-3.5-15.8-12.8-15.5-22.7c0.1-2.4,0.5-4.8,1.4-7.2
						c2.6-7.2,8.3-12.3,15-14.4c4.7-1.5,9.9-1.5,14.8,0.3c0.5,0.2,1,0.3,1.4,0.6c2.2,0.9,4.1,2.2,5.8,3.6
						c7.2,6.1,10.2,16.3,6.9,25.7C395.1,340.3,381.8,346.6,369.6,342.3z"/>
				</g>
				<g>
					<path class="st26" d="M370.5,298l-2.3-7.4c-9,2.8-16.6,9.7-20.1,19.3c-1.1,3.2-1.7,6.4-1.8,9.6l7.8,0.2
						c0.1-2.4,0.5-4.8,1.4-7.2C358.1,305.2,363.8,300.1,370.5,298z"/>
				</g>
				<g>
					<path class="st27" d="M386.8,298.8l3.1-7.2c-0.6-0.3-1.3-0.5-1.9-0.7c-6.6-2.3-13.5-2.3-19.8-0.4l2.3,7.4
						c4.7-1.5,9.9-1.5,14.8,0.3C385.8,298.4,386.3,298.7,386.8,298.8z"/>
				</g>
				<g>
					<path class="st28" d="M397.6,296.5c-2.3-1.9-4.9-3.6-7.7-4.8l-3.1,7.2c2.2,0.9,4.1,2.2,5.8,3.6L397.6,296.5z"/>
				</g>
			</g>
			<g>
				<rect x="495.1" y="394" class="st28" width="10.8" height="37"/>
			</g>
			<g>
				<rect x="479.1" y="404.4" class="st28" width="10.8" height="26.6"/>
			</g>
			<g>
				<rect x="510.7" y="376.8" class="st28" width="10.8" height="54.2"/>
			</g>
			<g>
				<polygon class="st28" points="519.8,349.8 519.6,348.6 491.1,353.3 481.8,373 451.1,375.1 441.1,389.8 417.6,389.2 417.6,390.4 
					441.7,390.9 451.7,376.2 482.6,374.1 491.9,354.3 				"/>
			</g>
			<path class="st27" d="M484.9,300.4h30.7c1.9,0,3.5-1.5,3.5-3.5l0,0c0-1.9-1.5-3.5-3.5-3.5h-30.7c-1.9,0-3.5,1.5-3.5,3.5l0,0
				C481.4,298.8,483,300.4,484.9,300.4z"/>
			<path class="st28" d="M484.9,312.6h30.7c1.9,0,3.5-1.5,3.5-3.5l0,0c0-1.9-1.5-3.5-3.5-3.5h-30.7c-1.9,0-3.5,1.5-3.5,3.5l0,0
				C481.4,311.1,483,312.6,484.9,312.6z"/>
			<path class="st28" d="M484.9,324.9h30.7c1.9,0,3.5-1.5,3.5-3.5l0,0c0-1.9-1.5-3.5-3.5-3.5h-30.7c-1.9,0-3.5,1.5-3.5,3.5l0,0
				C481.4,323.4,483,324.9,484.9,324.9z"/>
			<g>
				<polygon class="st28" points="429.3,306.5 411.7,306.5 411.7,305.8 429,305.8 438.3,296.5 449.6,296.5 449.6,297.2 438.6,297.2 
									"/>
			</g>
			<g>
				<polygon class="st28" points="446,337.2 423.3,337.2 416,329.9 416.4,329.4 423.6,336.5 446,336.5 				"/>
			</g>
			<rect x="439.9" y="301" class="st27" width="23.4" height="2.9"/>
			<rect x="432.8" y="330.4" class="st27" width="18.9" height="2.9"/>
		</g>
		<g>
			<path class="st18" d="M408,625.2h1.9c0,0-0.6-7.1,1.1-7.2c1.7-0.1,6,5.8,8.6,6.6c2.6,0.9,15.8,1.7,15.8-0.7
				c0.1-2.4-5-3.4-6.6-4.1c-1.6-0.7-9.4-8.3-10.8-9.2s-3.8-7.2-3.8-7.2l-7.3-0.3c0,0-0.4,5.8-0.9,8.9c-0.2,1.1-0.3,2.2-0.3,2.9
				C405.7,617.7,408,625.2,408,625.2z"/>
			<path class="st18" d="M375.5,623.8h1.5v-6.6c1.3,0.1,5.7,4.2,7,5.4s3.2,1.1,8.9,1.5c5.7,0.3,6.2-3,5.3-4.2
				c-0.9-1.1-3.8-1.7-5.3-2.4c-1.5-0.7-7.5-7.5-9.1-9.1c-1.6-1.6-2.6-6.2-2.6-6.2l-6.6,0.6c0,0,0.1,4.2-0.7,7.7l0,0l0,0
				c-0.1,0.3-0.1,0.6-0.2,0.9C372.7,615.1,375.5,623.8,375.5,623.8z"/>
			<path class="st29" d="M400.1,474.4c0,0,2.5,6,2.8,7.4s8.1,21.1,8.7,26.9c0.6,5.8,2.2,21.3,2.8,23.6s-1.3,12.1-1.6,14.4
				c-0.3,2.2-0.2,38.5,2.5,56.4c0,0-6.2,2.7-10.9,0c0,0-7.9-28-7.4-44.1c0.5-16.2,2.5-23,0-29.5c-2.5-6.5-17.2-26.1-18.6-28.1
				c-1.5-2.1-10.8-13.5-1.9-26C385,463,400.1,474.4,400.1,474.4z"/>
			<path class="st29" d="M368.4,527.1c0.8,5.3-0.1,12.4-1.7,31.9c-1.7,19.5,2.9,43.2,2.9,43.2c5.8,2,12.5,0,12.5,0
				c-0.2-1.4,0-47.6,0-51.7s1.2-8.8,1.5-13.5c0.2-3.2,1.7-9.2,3.4-15.2c0.5-1.8,1-3.7,1.5-5.4l0,0c0.3-1,0.6-1.9,0.9-2.9
				c2.3-8.3,5.6-40.1,5.6-40.1s-17.7-14.3-26.4-0.9s-4.2,23.2-3.9,24.9C365,499.1,367.6,521.8,368.4,527.1z"/>
			<path class="st30" d="M375.7,498.4c0.1,0.3,8.9,19.9,11.2,23.3c0.5-1.8,1-3.7,1.5-5.4l0,0C388.5,516.3,376,498.9,375.7,498.4z"/>
			<path class="st31" d="M375.5,623.8h1.5v-6.6c1.3,0.1,5.7,4.2,7,5.4s3.2,1.1,8.9,1.5c5.7,0.3,6.2-3,5.3-4.2
				c-0.9-1.1-3.8-1.7-5.3-2.4c-6.1,0.3-13.5-8.3-17.1-8.3c-1.9,0-1.9,1.1-1.9,1.3l0,0l0,0c-0.1,0.3-0.1,0.6-0.2,0.9
				C372.7,615.1,375.5,623.8,375.5,623.8z"/>
			<path class="st31" d="M408,625.2h1.9c0,0-0.6-7.1,1.1-7.2c1.7-0.1,6,5.8,8.6,6.6c2.6,0.9,15.8,1.7,15.8-0.7
				c0.1-2.4-5-3.4-6.6-4.1c-5.4,0-14.3-6-17-7.2s-5.7-0.5-5.7-0.5c-0.2,1.1-0.3,2.2-0.3,2.9C405.7,617.7,408,625.2,408,625.2z"/>
			<g>
				<path class="st32" d="M410.4,506.1v-7.8c0-1.3,1-2.3,2.3-2.3h12.4c1.3,0,2.3,1,2.3,2.3v7.8c0,1.3-1,2.3-2.3,2.3h-12.4
					C411.4,508.3,410.4,507.3,410.4,506.1z M412.7,497.5c-0.4,0-0.7,0.3-0.7,0.7v7.8c0,0.4,0.3,0.7,0.7,0.7H425
					c0.4,0,0.7-0.3,0.7-0.7v-7.8c0-0.4-0.3-0.7-0.7-0.7H412.7z"/>
			</g>
			<g>
				<rect x="395.7" y="505" class="st33" width="46.4" height="33.2"/>
			</g>
			<path class="st34" d="M361.5,488.9l7.5-1.8c0,0-1.3-26.5-5.8-37.7c-0.1-0.1-0.2,0.1-0.3,0.1c0.1-0.2,0.1-0.5,0.1-0.7
				c0.1-0.5,0.2-1,0.3-1.5c1.1-6,2.5-11.2,2.5-11.2s9.5-23.8-2.1-22c0,0-6,3.3-7.3,10.9c-1.3,7.6-2.6,18.9-2.4,23.3
				c0.2,4.5,1.5,9.9,2.6,15.2C356.8,463.4,361.3,487.3,361.5,488.9z"/>
			<path class="st18" d="M384.5,399.6c0,0-2.8,7.5-0.6,13.2c0,0-10.4-0.7-10.8-1.9s0.4-12.4-1-15.8
				C370.7,392,384.5,399.6,384.5,399.6z"/>
			<path class="st34" d="M385.4,410.4c0,0,6.1,2.2,8.9,2.8c2.8,0.6,8.5,3.3,8.1,13.7c-0.5,10.3-2.2,19.3-2.8,23.7
				s-0.2,15.8,0.8,21.2c0,0-14.7,3.7-32,0c0,0,3-9.3,3-11.8c-0.1-2.4-10.2-22.3-10.7-25.5s-2.5-17,2.1-20.1c4.6-3.1,8.4-2.6,10.4-4
				C375.2,409,382.6,409.4,385.4,410.4z"/>
			<path class="st34" d="M361.8,488.1c25.1,6.6,45,0,45,0c-1.8-3.7-3.2-7.4-4.1-11.1l0,0c-0.7-2.6-1.2-5-1.5-7.4l0,0
				c-2.1-13.7,0.6-24.1,0.6-24.1c-2.9-23.8-39-30.9-41.8-23.4c-2.9,7.6,5.6,40.1,6,42.8C366.4,467.6,361.8,488.1,361.8,488.1z"/>
			<path class="st18" d="M375.4,369.7c4.2-1.4,15.4-3,18.3,14.3c2.9,17.3-3.4,17.6-9.9,17.1c-6.5-0.5-16.6-12.1-17.3-15.7
				C365.8,381.8,363.6,373.7,375.4,369.7z"/>
			<path class="st35" d="M391.4,376.3c0,0-3.4,7.3-8,9.9c0,0-2.8,7.9-8.9,11c0,0-16.3-10.8-6.8-23.6
				C377.1,360.8,390.4,371,391.4,376.3z"/>
			<path class="st18" d="M383.8,383.6c-0.3-0.9-2.8-2.3-3.9,0.1c-1.1,2.5,2.8,6.8,3.9,6.6C384.9,390.1,385.3,387.1,383.8,383.6z"/>
			<path class="st35" d="M368.3,375.6c-0.3-0.6-11.1-5.6-13.4,4.9c-2.2,10.4,8.7,22.5,10.6,27.7c1.9,5.2-0.9,17.4-0.9,17.4
				s6.6-6.2,8.5-12.7C375.4,405.8,376,387.8,368.3,375.6z"/>
			<path class="st36" d="M367.7,375.3c0,0,3.3,2.6,3.7,6.7c0,0,0.6-3.2-0.7-5.2C369.4,374.9,367.7,375.3,367.7,375.3z"/>
			<path class="st18" d="M424.6,492.1c0,0,0.5,2.2,0.9,3.3c0.3,1.1,0.5,2.5-0.2,3.1c-0.8,0.6-2.5,2.6-3.6,3.6
				c-1.1,0.9-7.6-1.9-8.3-3c-0.7-1.1,0.7-7.3,2.6-8.5c1.9-1.2,4.9-3,4.9-3L424.6,492.1z"/>
			<path class="st34" d="M396.1,413.7c0,0,8.6,3.4,9.1,15.4c0.5,11.9,1,18.2,1.4,20c0.5,1.8,1.4,9.2,3.5,13.7
				c2.1,4.3,11.1,25.3,11.1,25.3l-7.9,4.5c0,0-13.2-24.9-14.4-28.4c-1.1-3.5-6-28-6.4-32.1C392.3,428.8,388,414,396.1,413.7z"/>
			<path class="st34" d="M396.4,453.8c0,0,4.5,0.9,9.8-2.1c0,0,2.4,8,3.9,11.2c1.4,2.9,11.1,25.3,11.1,25.3l-7.9,4.5
				c0,0-13.3-24-14.4-28.4C397.9,460,396.4,453.8,396.4,453.8z"/>
			<path class="st37" d="M402.7,476.9c-0.7-2.6-1.2-5-1.5-7.4l0,0c0,0-1.7-3.5-2.2-5.2c-0.6-1.7-4.7-22.3-4.7-22.3
				S389.9,461.4,402.7,476.9z"/>
			<path class="st37" d="M361,441.2c0,0,5,22.9,5,23.6s-1.4,10.1-1.8,12.1L361,441.2z"/>
		</g>
		<g>
			<g>
				<g>
					<g>
						
							<linearGradient id="SVGID_12_" gradientUnits="userSpaceOnUse" x1="808.253" y1="88.3557" x2="908.3107" y2="88.3557" gradientTransform="matrix(1 0 0 -1 0 630)">
							<stop  offset="0" style="stop-color:#D39B5E"/>
							<stop  offset="1" style="stop-color:#E7CE67"/>
						</linearGradient>
						<polygon class="st38" points="814.7,609.3 809.3,474.9 901.9,474.9 907.3,609.4 908.3,609.3 902.9,473.9 808.3,473.9 
							813.6,609.4 						"/>
					</g>
				</g>
			</g>
			<g>
				<g>
					<g>
						
							<linearGradient id="SVGID_13_" gradientUnits="userSpaceOnUse" x1="803.8977" y1="88.3557" x2="904.0127" y2="88.3557" gradientTransform="matrix(1 0 0 -1 0 630)">
							<stop  offset="0" style="stop-color:#D39B5E"/>
							<stop  offset="1" style="stop-color:#E7CE67"/>
						</linearGradient>
						<polygon class="st39" points="810.3,474.9 902.9,474.9 897.5,609.3 898.6,609.4 904,473.9 809.3,473.9 803.9,609.3 
							804.9,609.4 						"/>
					</g>
				</g>
			</g>
			<g>
				<g>
					<polygon class="st40" points="898.1,565.7 804.4,565.7 809.8,430.7 903.4,430.7 					"/>
				</g>
			</g>
			<g>
				<g>
					
						<linearGradient id="SVGID_14_" gradientUnits="userSpaceOnUse" x1="902.6907" y1="90.0503" x2="776.308" y2="216.4329" gradientTransform="matrix(1 0 0 -1 0 630)">
						<stop  offset="0" style="stop-color:#D39B5E"/>
						<stop  offset="1" style="stop-color:#E7CE67"/>
					</linearGradient>
					<polygon class="st41" points="816.8,565.7 910.4,565.7 905,430.7 811.4,430.7 					"/>
				</g>
			</g>
			<g>
				<g>
					<g>
						<rect x="890.7" y="513.4" class="st42" width="4.7" height="35.8"/>
					</g>
				</g>
			</g>
			<g>
				<g>
					<g>
						<rect x="881.4" y="517.5" class="st42" width="4.7" height="31.8"/>
					</g>
				</g>
			</g>
			<g>
				<g>
					<g>
						<rect x="871.2" y="522.7" class="st42" width="4.7" height="26.6"/>
					</g>
				</g>
			</g>
			<g>
				<g>
					<g>
						<rect x="860.9" y="529.3" class="st42" width="4.7" height="20"/>
					</g>
				</g>
			</g>
			<g>
				<g>
					<polygon class="st42" points="832.8,525 831.7,524.6 840.6,499.8 859.9,494.7 866.8,467.3 881.7,460.8 885,439.5 886.1,439.7 
						882.6,461.5 867.7,468.1 860.8,495.5 841.5,500.7 					"/>
				</g>
			</g>
			<g>
				
					<ellipse transform="matrix(0.7743 -0.6328 0.6328 0.7743 -119.1199 656.17)" class="st43" cx="860.3" cy="495.1" rx="2.9" ry="2.9"/>
			</g>
			<g>
				<path class="st42" d="M862.5,497.7c-1.5,1.2-3.6,1-4.8-0.5c-1.2-1.5-1-3.6,0.5-4.8c1.5-1.2,3.6-1,4.8,0.5
					C864.2,494.4,864,496.5,862.5,497.7z M858.9,493.3c-1,0.8-1.1,2.3-0.3,3.3c0.8,1,2.3,1.1,3.3,0.3c1-0.8,1.1-2.3,0.3-3.3
					C861.3,492.6,859.9,492.5,858.9,493.3z"/>
			</g>
			<g>
				
					<ellipse transform="matrix(0.7743 -0.6328 0.6328 0.7743 -100.3271 654.4552)" class="st44" cx="867.3" cy="467.9" rx="2.9" ry="2.9"/>
			</g>
			<g>
				<path class="st42" d="M869.5,470.5c-1.5,1.2-3.6,1-4.8-0.5c-1.2-1.5-1-3.6,0.5-4.8c1.5-1.2,3.6-1,4.8,0.5
					C871.2,467.1,871,469.3,869.5,470.5z M865.8,466.1c-1,0.8-1.1,2.3-0.3,3.3c0.8,1,2.3,1.1,3.3,0.3c1-0.8,1.1-2.3,0.3-3.3
					C868.4,465.4,866.9,465.3,865.8,466.1z"/>
			</g>
			<g>
				
					<ellipse transform="matrix(0.7742 -0.6329 0.6329 0.7742 -92.7115 662.3271)" class="st44" cx="882" cy="461.1" rx="2.9" ry="2.9"/>
			</g>
			<g>
				<path class="st42" d="M884.1,463.8c-1.5,1.2-3.6,1-4.8-0.5c-1.2-1.5-1-3.6,0.5-4.8c1.5-1.2,3.6-1,4.8,0.5
					C885.8,460.4,885.6,462.6,884.1,463.8z M880.5,459.3c-1,0.8-1.1,2.3-0.3,3.3c0.8,1,2.3,1.1,3.3,0.3c1-0.8,1.1-2.3,0.3-3.3
					C883,458.7,881.5,458.5,880.5,459.3z"/>
			</g>
			<g>
				
					<ellipse transform="matrix(0.7745 -0.6326 0.6326 0.7745 -126.9196 644.9866)" class="st45" cx="841.2" cy="500.5" rx="2.9" ry="2.9"/>
			</g>
			<g>
				<path class="st42" d="M843.3,503.1c-1.5,1.2-3.6,1-4.8-0.5c-1.2-1.5-1-3.6,0.5-4.8c1.5-1.2,3.6-1,4.8,0.5
					C845,499.8,844.8,501.9,843.3,503.1z M839.7,498.6c-1,0.8-1.1,2.3-0.3,3.3c0.8,1,2.3,1.1,3.3,0.3s1.1-2.3,0.3-3.3
					C842.2,498,840.7,497.8,839.7,498.6z"/>
			</g>
			<g>
				<g>
					<g>
						<path class="st46" d="M849.7,471.5h-22.9c-1.7,0-3-1.3-3-3l0,0c0-1.7,1.3-3,3-3h22.9c1.7,0,3,1.3,3,3l0,0
							C852.7,470.2,851.4,471.5,849.7,471.5z"/>
					</g>
				</g>
			</g>
			<g>
				<g>
					<g>
						<path class="st46" d="M849.7,461h-22.9c-1.7,0-3-1.3-3-3l0,0c0-1.7,1.3-3,3-3h22.9c1.7,0,3,1.3,3,3l0,0
							C852.7,459.7,851.4,461,849.7,461z"/>
					</g>
				</g>
			</g>
		</g>
		<g>
			<g>
				<g>
					<g>
						<g>
							<g>
								<path class="st47" d="M766.2,361.7c0,0,7.9,3.9,6,14.4c-1.9,10.5-2.8,12-0.6,16.1c2.2,4.1,4.8,21.7,2.8,25
									c-1.9,3.3-24.5-14.7-27.6-29.7c-3.1-15.1,1.9-21.8,3.8-24.3C752.4,360.7,759.3,358.1,766.2,361.7z"/>
							</g>
						</g>
					</g>
				</g>
			</g>
			<g>
				<g>
					<polygon class="st48" points="801.3,350.8 775.9,350.8 775.9,369.2 775.9,373.1 779.8,369.2 801.3,369.2 					"/>
				</g>
			</g>
			<g>
				<path class="st49" d="M763.3,606.7h1.8v-8.5c0,0,3.6,2.3,5.7,5.6c2.2,3.3,5.3,3,9.9,2.8c4.6-0.2,4.4-2.1,4-4.7s-5.1-3.4-6.6-3.9
					c-1.5-0.4-5-6.4-6.1-7.8c-1.5-1.9-2.3-3.9-2.3-3.9s-0.9-3.6-5.2,0c-4.3,3.6-3,10.3-2.6,10.9
					C762.4,597.9,763.3,606.7,763.3,606.7z"/>
			</g>
			<g>
				<path class="st18" d="M772.3,598c1.6,1,5.7,0,5.7,0c-1.1-1.5-8.4-11.7-8.4-11.7c-4.4-2.6-6.1,1-6.1,1
					C765.3,587.8,770.7,596.9,772.3,598z"/>
			</g>
			<g>
				<g>
					<g>
						<g>
							<path class="st18" d="M818.6,441.6c0,0,2.9,0.6,3.8-0.8c0.9-1.1,2.8-2,3.3-2.3c0.8-0.3,2.8-2.4,3.3-1.4
								c0.5,1-3.2,3.5-3.8,4.2c-0.6,0.7,3.6,1,4.2,1.6c0.7,0.6-0.2,7.6-3,7c-2.9-0.5-5.6-3-6.1-3c-0.5,0-2.1-0.3-2.1-0.3
								L818.6,441.6z"/>
						</g>
					</g>
				</g>
			</g>
			<g>
				<g>
					<g>
						<g>
							<path class="st18" d="M828.8,442.6c0,0,8.6,2.2,9.1,2.9c0.5,0.6,0.3,1.1-0.5,0.9c-0.8-0.2-8.4-1.9-8.4-1.9s9.7,4.4,10.2,4.8
								c0.3,0.2,0.1,1.1-0.4,1.1c-0.5-0.1-10.4-3.8-10.4-3.8s9.1,4.1,9.4,4.5c0.2,0.4-0.2,1.2-0.9,0.9c-0.7-0.2-9.3-3.6-9.3-3.6
								s6.4,3.4,6.4,4c0,0.3-0.2,1.1-1.8,0.2c-1.6-0.9-5.7-2.7-5.7-2.7L828.8,442.6z"/>
						</g>
					</g>
				</g>
			</g>
			<g>
				<path class="st49" d="M739.9,607.3h1.1V601c0,0,1.9,2,2.9,5c0.9,3,4.1,3.8,9.1,3.7c4.9-0.1,5-2.1,4.6-5
					c-0.4-2.9-4.6-4.4-4.6-4.4c-1.9-1.7-6.5-8.5-6.5-8.5s-3-0.8-5.3,1.1s-1.6,6.1-1.5,7.2C739.7,601.2,739.9,607.3,739.9,607.3z"/>
			</g>
			<g>
				<path class="st50" d="M743.3,459c0,0-5.8,7.6-7.4,16.6c-1.6,9,0.9,39.3,0.9,43.8c-0.1,4.5-4.2,15.6-3.4,24
					c0.8,8.4,4.1,50.2,4.1,50.2l8.9-1.8c0,0-0.5-42.6,0-46.2c0.5-3.6,1.5-16.4,1.8-17.8c0.2-1.4,13.2-39.6,13.2-46.1
					C761.4,475.2,757.4,448.4,743.3,459z"/>
			</g>
			<g>
				<path class="st50" d="M772.7,462c0,0,9.6,36.7,10.8,41.8c1.1,5.1,2.8,9.3,2.8,11.5c0,5-1.8,13.1-1.8,13.1l-12.2,58.4h-11.6
					c0,0,6.5-35,6.6-41.9c0.2-6.9,5.4-16.6,4.4-19.5c-1-2.9-16.7-36.4-16.7-36.4S743.1,451.3,772.7,462z"/>
			</g>
			<g>
				<path class="st18" d="M753,600.4l-6.5-8.5l-5.3,1.1c0,0,1.4,3.8,4,6.7C748.2,603,753,600.4,753,600.4z"/>
			</g>
			<g>
				<g>
					<path class="st51" d="M768.8,399.6c0,0,4,0.4,6.9,3.6s5.8,8.3,6.6,10s11.8,17.6,12.3,17.9c0.6,0.3,6.1,2.2,9.7,3.4
						c5.7,1.9,17,6,17,6l-2.2,7.1c0,0-21.3-7-26.6-8.3c-6.5-1.6-21.5-20.9-21.5-20.9S759.8,405.5,768.8,399.6z"/>
				</g>
			</g>
			<g>
				<g>
					<path class="st52" d="M761.8,396.8c0,0,5.2,2.4,6.9,2.8c1.8,0.3,8.7,9.3,9.9,12.6c1.2,3.3,0,8.2-2.5,14
						c-2.5,5.8-0.1,7.7-1.3,13.5c-1.1,5.8-0.7,27.4-0.6,30.6c0.2,3.2-33.4,8.1-40,2.2c0,0,4.5-19.5,9.8-25c1.1-1.2,1-9.2,0.2-11.2
						c-0.8-2-9.6-16.9-9.6-16.9s-0.6-15.1,3.2-18.1c3.3-2.6,12.5-3.6,14.1-4.1C753.7,396.6,758.5,396.4,761.8,396.8z"/>
				</g>
			</g>
			<g>
				<g>
					<path class="st18" d="M764.3,390.9c0,0-0.2,1.4-0.3,3.3c-0.1,0.7-0.1,1.6-0.2,2.5c-0.2,2.6-0.3,5.3-0.3,6.7
						c0,0-5.3,5.3-11.4-6.2c0,0,2.6-4.8,0.6-11.3C750.8,379.4,764.3,390.9,764.3,390.9z"/>
				</g>
			</g>
			<g>
				<path class="st53" d="M779.3,428.3c0,0,1.3-8.5-0.1-13.8c0,0,0,4.5-2.5,10.8L779.3,428.3z"/>
			</g>
			<g>
				<path class="st18" d="M748,398c0,0,3.7,10.8,13.8,10c10.1-0.8,4.8-9.2,4.8-9.2s-2.5-1.4-3.2-1.5c-0.7-0.1-11.1-0.3-11.1-0.3
					L748,398z"/>
			</g>
			<g>
				<path class="st51" d="M766.5,398.9c0,0,5.3,14.6,5.3,29.5c0,14.9,0.4,39.1,2.3,46.8c1.8,7.7,7.1,31.3,7.1,31.3l4.1-2.1
					c0,0-9.9-37.8-10.6-40.5c-0.7-2.8,0.6-31.5,1.3-33.9c0.7-2.4,3.7-13.1,3.3-16.1c-0.6-3.7-4.1-9.3-9.7-14.1L766.5,398.9z"/>
			</g>
			<g>
				<path class="st51" d="M750,397.5c0,0,3.3,10.5,4.9,24c1.7,13.5-5.1,75.9-9.6,90l-17.6-2.8c0,0,3.8-44.1,8.9-52.1
					s6.8-15.1,1.2-31.9s2.4-25,2.4-25S748.4,397.7,750,397.5z"/>
			</g>
			<g>
				<polygon class="st54" points="768.9,442 747.6,479 724,465.3 744.3,427.8 				"/>
			</g>
			<g>
				<polygon class="st55" points="766.4,443.4 747.5,476.1 726.4,464 744.5,430.7 				"/>
			</g>
			<g>
				<polygon class="st54" points="759.4,440.4 760.7,438.1 752.2,433.2 750.5,435.3 				"/>
			</g>
			<g>
				<g>
					<g>
						<g>
							<g>
								<g>
									<path class="st18" d="M758.4,466.6c0,0-1,0-1.4-0.2c0,0-0.7-0.5-1.3-0.7c-0.2-0.1-0.3-0.2-0.5-0.2c-0.5-0.2-1.4-0.3-2.3-1
										c-0.9-0.6-4.3-4.5-4.3-4.5l1.6-2.4l1.1-2.5c0,0,7,0.5,8,1c0.1,0.1,0.2,0.1,0.3,0.2c0.7,0.5,1.1,1.2,1.5,1.5
										c0.1,0.1,1.4,1.4,1.4,1.9c-0.1,0.7-0.4,1.2-0.9,1.4c0,0-0.2,1.4-0.9,2.1c0,0-0.1,1.3-1.3,1.9
										C759.4,465.1,759.1,466.4,758.4,466.6z"/>
								</g>
							</g>
						</g>
					</g>
				</g>
			</g>
			<g>
				<g>
					<path class="st51" d="M744,399.6c0,0-6.5-1.8-10.2,5.3c-3.7,7.1-3.7,10.2-4.2,13.6c-0.5,3.3-2.6,12.3-2.8,13.2
						c-0.2,0.9-5,12-2.8,15.8c2.2,3.9,24.6,15.3,24.5,16.2c-0.1,0.9,3.9-8.7,3.9-8.7s-9.1-5-10.5-6.6c-2.4-2.5-7.5-5.3-6.5-8.4
						c1.2-3.7,4.9-16.1,5.8-17.9C741.9,420.4,749.4,401.9,744,399.6z"/>
				</g>
			</g>
			<g>
				<g>
					<g>
						<g>
							<g>
								<path class="st14" d="M765.1,362.8c0,0,11.5,3.6,5.3,23.5c-6.2,19.9-22-2.3-20.3-14.4C751.7,359.8,765.1,362.8,765.1,362.8z
									"/>
							</g>
						</g>
					</g>
				</g>
			</g>
			<g>
				<g>
					<g>
						<g>
							<g>
								<path class="st47" d="M771.5,374.4c0,0-5.7,5.6-15.3,6.3c0,0-3.7,4.3-4,6c0,0-8.5-14.6,1.9-23.3
									C764.8,354.8,775.4,370.9,771.5,374.4z"/>
							</g>
						</g>
					</g>
				</g>
			</g>
			<g>
				<g>
					<g>
						<g>
							<g>
								<path class="st14" d="M756.3,381.2c-0.1-1.4-1-4.8-3.1-3.8c-2.2,0.9,0.1,7.6,1.5,7.2C754.8,384.6,756.5,384.6,756.3,381.2z"
									/>
							</g>
						</g>
					</g>
				</g>
			</g>
			<g>
				<path class="st20" d="M764,394.3c-0.1,0.7-0.1,1.6-0.2,2.5c0,0-5.1-0.3-8.5-7.9C755.5,389.2,759.2,394.7,764,394.3z"/>
			</g>
		</g>
		<g>
			<g>
				<polygon class="st56" points="919.1,427.8 895.9,440.6 872.6,403.8 900.8,394 				"/>
			</g>
			<g>
				<polygon class="st57" points="917.7,426.7 895.9,438.7 874.1,404.3 900.5,395.1 				"/>
			</g>
			<g>
				<path class="st18" d="M925.6,420.3c0,0-4.1-1.9-5.8-2.9c-1.8-1-6.4-2.4-6.7-2.8c-0.3-0.3-13.5-1.1-14.3-1.8
					c-0.8-0.7-1.5,1.6,1.8,2.3c3.4,0.7,8.1,2.6,8.4,3.9s-3.5,1.7-3.9,2.8c-0.4,1.1,0.1,0.9,0.6,1.1c0.5,0.2,4.5-1.9,6.2-1.3
					c1.7,0.6,4.4-0.2,5.7,0.2c1.3,0.5,7.8,2.6,7.8,2.6L925.6,420.3z"/>
			</g>
			<g>
				<path class="st18" d="M894.7,436c0,0-3.4-3-5-4.4c-1.7-1.3-4.8-5-5.2-5.3c-0.5-0.2-6.4-12.3-7.3-12.8c-1-0.5,0.9-2.1,2.9,0.8
					c2,2.9,5.6,6.7,6.9,6.4c1.4-0.3,0.2-4,1.1-4.8c0.9-0.8,0.9-0.2,1.3,0.2c0.5,0.4-0.1,5,1.1,6.4c1.3,1.4,1.5,4.2,2.4,5.3
					c0.9,1.1,5.5,6.3,5.5,6.3L894.7,436z"/>
			</g>
			<g>
				<path class="st58" d="M967.9,599.4c0,0,0.7,5.1,0.8,5.8c0.1,0.7,8.2-0.5,8.2-0.5l0.6-6.1C977.6,598.8,968.9,598.7,967.9,599.4z"
					/>
			</g>
			<g>
				<path class="st56" d="M968.7,604.6c0,0-2.6,3.1-5,4.4c-2.5,1.3-6.4,1.9-7.9,3.3c-1,1-3.8,5.3,6.4,5.2c10.3-0.1,15.2,0.6,16.3-1
					c1.1-1.7-1.6-12.2-1.6-12.2S974.6,605.1,968.7,604.6z"/>
			</g>
			<g>
				<path class="st58" d="M910,599.4c0,0,0.7,5.1,0.8,5.8c0.1,0.7,8.2-0.5,8.2-0.5l0.6-6.1C919.7,598.8,911,598.7,910,599.4z"/>
			</g>
			<g>
				<path class="st56" d="M910.7,604.6c0,0-2.6,3.1-5,4.4c-2.5,1.3-11.6,2.5-13.1,3.8c-1,1-2.8,5,11.6,4.6c10.3-0.3,15.2,0.6,16.3-1
					c1.1-1.7-1.6-12.2-1.6-12.2S916.8,605.2,910.7,604.6z"/>
			</g>
			<g>
				<path class="st56" d="M961.3,468.3c0,0,7.6,12.1,7,23c-0.6,10.9,2.8,22.8,3.9,34.2c1.3,12.7,6.5,42.8,6.6,49.6
					c0.2,6.8-0.8,28.5-0.8,28.5l-10.4,0.2c0,0-8.8-52.6-11-57.9c-2.3-5.4-13.5-43.6-13.9-47.9C942.3,493.7,961.3,468.3,961.3,468.3z
					"/>
			</g>
			<g>
				<path class="st56" d="M921.3,470c0,0-5.7,29.9-6.5,36.6c-0.7,6.7-1.3,32.3-1.7,36.5c-0.4,4.2-2.5,54.6-4.5,60.8h13.3
					c0,0,10.2-36.7,10.2-54s7.9-37.7,13-49.2c5.1-11.5,16.8-11.7,19.9-33C965,467.7,925.5,463.2,921.3,470z"/>
			</g>
			<g>
				<path class="st18" d="M948.5,366.9c0,0-10.2-3.8-14.9,4c-4.7,7.7-4.2,23.3,0.9,25.2s12.8,0.9,15.5-4c2.6-4.9,5-11.9,4.9-16.6
					C954.8,370.8,951.2,368.2,948.5,366.9z"/>
			</g>
			<g>
				<path class="st18" d="M935.6,396.4c0,0,0.4,2.8-0.3,4.1c-0.7,1.4,13.2,1.4,13.2,1.4s1.1-7.4,3.3-13.6
					C954,382,935.6,396.4,935.6,396.4z"/>
			</g>
			<g>
				<path class="st59" d="M951.9,388.3c0,0-1,1.6-4.9,1s-8.7-5.8-10.3-6.4c-1.7-0.6-1.7-1.5-1.7-1.5l-1,1.5l-1.7,0.1
					c0,0,1.6-4.6-0.8-6.6c-2.4-1.9,2.5-15.1,15.1-10.7c0,0,9.6,2.6,9.3,8.1C955.4,379.3,954,385.5,951.9,388.3z"/>
			</g>
			<g>
				<path class="st57" d="M934.6,400.3c0,0,0.1-2.6,1.2-2.9c1.1-0.2,13-1.4,14.4-0.8v3C950.2,399.7,947.4,401.4,934.6,400.3z"/>
			</g>
			<g>
				<path class="st18" d="M935.2,379.3c0.2-0.9,2.6-3.6,3.4-0.7c0.9,2.8-1.4,6.6-2.6,6.3C934.8,384.5,934.7,381.6,935.2,379.3z"/>
			</g>
			<g>
				<path class="st13" d="M887.8,430.9L887.8,430.9C887.7,431,887.7,431,887.8,430.9z"/>
			</g>
			<g>
				<path class="st60" d="M969.8,497.1c0,0-6.2,1.8-16.9,3c-10.7,1.1-37.3-0.4-37.5-1.7c-0.2-1.3,5.7-46.9,5.4-49.3
					c-0.3-2.3-0.5-10.7-0.5-10.7c-0.1,2.3-2.5,11.7-5.3,16.8c-1,1.8-4.4,7.6-6.1,6.3c-8-6.4-20.3-30.4-21.1-30.6
					c0.7-0.3,5.8-2.7,6.6-2.9c0.6-0.2,6.4,5.9,9.9,9.7c1.5,1.7,2.6,2.9,2.6,2.9c1-2.3,4.7-16.6,5.8-21.5c2.6-11.1,2.2-11.6,2.2-11.6
					c7.8-2.3,19.7-7.2,19.7-7.2l15.6-0.6c0,0,14.3,3.2,20,5.7c0.5,0.2,0.5,12.8,2,16.1l-4.7,9.9c0,0-2.7,19.5-3.3,28.3
					C964,463.6,969.8,497.1,969.8,497.1z"/>
			</g>
			<g>
				<path class="st60" d="M972.8,437.7c-0.4,1.3-2.2,2.4-3.4,2.9c-0.7,0.3-1.6,0.4-2.5,0.2l-0.6-0.1l0,0l-10.7-2
					c0,0-2.3-27,14.6-33.5C970.6,405.5,976.6,425.7,972.8,437.7z"/>
			</g>
			<g>
				<path class="st61" d="M969.3,440.7L969.3,440.7c-0.7,0.3-1.6,0.4-2.5,0.2l-0.6-0.1l0,0l1-13.8L969.3,440.7z"/>
			</g>
			<g>
				<path class="st61" d="M906.9,440.6l-1.3,5.6c0,0-1.4-5.6-1.4-8.4C905.8,439.4,906.9,440.6,906.9,440.6z"/>
			</g>
			<g>
				<path class="st59" d="M951.5,367.8c0,0,13.4-1.6,0.2,20.7L951.5,367.8z"/>
			</g>
			<g>
				<polygon class="st56" points="883.3,401.9 881.9,399.5 892.6,395.9 894,398.1 				"/>
			</g>
		</g>
	</g>
</g>
</svg>
