<?xml version="1.0" encoding="utf-8"?>
<!-- Generator: Adobe Illustrator 21.0.0, SVG Export Plug-In . SVG Version: 6.00 Build 0)  -->
<svg version="1.1" id="Layer_1" xmlns="http://www.w3.org/2000/svg" xmlns:xlink="http://www.w3.org/1999/xlink" x="0px" y="0px"
	 viewBox="0 0 1200 630" style="enable-background:new 0 0 1200 630;" xml:space="preserve">
<style type="text/css">
	.st0{fill:#F2F2F2;}
	.st1{fill:#E6CA66;}
	.st2{fill:url(#SVGID_1_);}
	.st3{fill:url(#SVGID_2_);}
	.st4{fill:url(#SVGID_3_);}
	.st5{fill:url(#SVGID_4_);}
	.st6{fill:#E0E6EC;}
	.st7{fill:url(#SVGID_5_);}
	.st8{fill:url(#SVGID_6_);}
	.st9{fill:#CBA284;}
	.st10{fill:#222832;}
	.st11{fill:#5B5C5A;}
	.st12{fill:#464E94;}
	.st13{fill:#E0D6CF;}
	.st14{fill:#353F54;}
	.st15{fill:#C9C1BA;}
	.st16{fill:#31353F;}
	.st17{fill:#EDE2DA;}
	.st18{fill:#8E7662;}
	.st19{fill:#353B6A;}
	.st20{fill:#BB987D;}
	.st21{fill:#FFFFFF;}
	.st22{fill:#3A3C57;}
	.st23{fill:#535467;}
	.st24{fill:#6A6B84;}
	.st25{fill:#2B2C3C;}
	.st26{fill:#323349;}
	.st27{fill:#E3C8A1;}
	.st28{fill:#81A6E9;}
	.st29{fill:#5E5E5B;}
	.st30{fill:#B79464;}
	.st31{fill:#776F66;}
	.st32{fill:#C3AC8A;}
	.st33{fill:#5A7199;}
	.st34{fill:#3D3F41;}
	.st35{fill:#7F7E7C;}
	.st36{fill:#363739;}
	.st37{fill:#D1C7C0;}
	.st38{fill:#4F5256;}
	.st39{fill:#414349;}
	.st40{fill:#789AD6;}
	.st41{fill:#E8DED5;}
	.st42{fill:#A29B95;}
	.st43{fill:#6D7178;}
	.st44{fill:#566D91;}
	.st45{fill:#CDC5BE;}
	.st46{fill:#282A38;}
	.st47{fill:#545782;}
	.st48{fill:#262A34;}
	.st49{fill:#A68671;}
	.st50{fill:#434566;}
	.st51{fill:#CBA385;}
	.st52{fill:#7595CE;}
	.st53{fill:#272736;}
	.st54{fill:#323849;}
	.st55{fill:#C4893E;}
	.st56{fill:#735140;}
	.st57{fill:#BDB5AF;}
	.st58{fill:#565984;}
	.st59{fill:#523C31;}
	.st60{fill:#D9B76F;}
	.st61{fill:#CC9441;}
	.st62{fill:#DEC284;}
	.st63{fill:#F6F6F6;}
</style>
<g id="bg">
</g>
<rect class="st0" width="1200" height="630"/>
<g>
	<g>
		<g>
			<polygon class="st1" points="654.6,40.9 641.4,33.3 641.4,38.3 621.6,38.3 621.6,43.5 641.4,43.5 641.4,48.6 			"/>
			<polygon class="st1" points="621.6,24.1 634.9,31.8 634.9,26.7 654.6,26.7 654.6,21.5 634.9,21.5 634.9,16.5 			"/>
		</g>
		<g>
			<g>
				<path class="st1" d="M574.2,69.7c-1.6-0.1-3.1-0.7-4.3-1.7c-1.3-1.1-2-2.6-2-4.2c-0.2-3.2-1.2-6.4-2-8.6
					c-3.9-3.1-6-7.8-5.6-12.8c0.6-8.2,7.8-14.3,15.9-13.7c8.2,0.6,14.3,7.8,13.7,15.9c-0.3,4.5-2.6,8.5-6.3,11.1
					c-1.1,3-1.8,5.8-2,8.2c-0.1,3.3-3.2,5.9-7,5.9C574.6,69.7,574.5,69.7,574.2,69.7z M576.2,29.8c-7.5-0.6-14.1,5.1-14.7,12.6
					c-0.3,4.6,1.6,9,5.3,11.8l0.2,0.1l0.1,0.2c0.9,2.3,1.9,5.8,2.1,9.2v0.1c0,1.2,0.6,2.4,1.6,3.3c1.1,0.9,2.5,1.4,4.1,1.4
					c3.2,0,5.7-2.1,5.7-4.7l0,0l0,0c0.2-2.6,0.9-5.5,2.1-8.8l0.1-0.2l0.2-0.1c3.4-2.4,5.6-6.1,5.9-10.3
					C589.4,36.9,583.7,30.4,576.2,29.8z"/>
			</g>
			<g>
				<polygon class="st1" points="571.5,64.6 569.6,48.4 572.9,51.2 575,48.9 576.8,51.1 580,48.4 578.1,64.6 576.9,64.5 578.4,51.3 
					576.7,52.8 575,50.7 573.1,52.9 571.1,51.3 572.7,64.5 				"/>
			</g>
			<g>
				
					<rect x="572.7" y="65.1" transform="matrix(6.701646e-03 -1 1 6.701646e-03 500.596 644.6899)" class="st1" width="4.2" height="10.6"/>
			</g>
			<g>
				
					<rect x="571.4" y="60.3" transform="matrix(6.641564e-03 -1 1 6.641564e-03 503.6908 641.7071)" class="st1" width="6.9" height="14"/>
			</g>
		</g>
		<g>
			<path class="st1" d="M521.1,22c-0.1-0.3-0.3-0.7-0.6-1.1c-0.3-0.4-0.6-0.9-1-1.3c-0.4-0.5-0.9-0.9-1.4-1.3
				c-0.5-0.4-1.1-0.8-1.8-1.1l-3,7l0.6,0.4c1.1,0.8,2,1.6,2.8,2.4c0.8,0.8,1.4,1.6,1.9,2.4c0.4,0.8,0.7,1.7,0.8,2.6s-0.2,1.9-0.6,3
				c-0.5,1.2-1.2,2.1-1.9,2.8c-0.8,0.6-1.7,1.1-2.7,1.3c-1,0.2-2,0.3-3.2,0.1s-2.3-0.5-3.4-0.9l-1.5,3.5l-1.8-0.8l1.6-3.6
				c-1.6-0.8-3-1.8-4.2-3c-1.2-1.2-2.3-2.5-3.1-3.9l3.1-2.5c0.1,0.4,0.4,0.8,0.7,1.3s0.8,1.1,1.2,1.6c0.5,0.5,1.1,1.1,1.7,1.7
				c0.6,0.5,1.3,1,2.1,1.5l3-7c-0.1-0.1-0.2-0.2-0.4-0.3c-0.1-0.1-0.3-0.2-0.4-0.3c-1.1-0.8-1.9-1.6-2.7-2.3
				c-0.8-0.8-1.3-1.4-1.7-2.2c-0.4-0.8-0.6-1.5-0.6-2.3c0-0.8,0.2-1.7,0.6-2.6c0.5-1.1,1.1-2,1.8-2.7c0.8-0.7,1.6-1.2,2.6-1.5
				c1-0.3,2-0.4,3.1-0.4s2.2,0.3,3.4,0.6l1.4-3.4l1.8,0.8l-1.4,3.4c1.4,0.7,2.6,1.6,3.7,2.6s1.8,2.1,2.5,3.2L521.1,22z M509.6,18.1
				c-0.4,1-0.4,1.8,0.1,2.5c0.5,0.8,1.3,1.6,2.5,2.5l2.8-6.6c-1.4-0.5-2.5-0.6-3.4-0.3C510.7,16.5,510,17.2,509.6,18.1z M514.5,33.5
				c0.4-1,0.4-1.9-0.2-2.7c-0.6-0.9-1.4-1.8-2.7-2.8l-2.8,6.7c1.4,0.6,2.7,0.8,3.7,0.6C513.4,35.1,514.1,34.5,514.5,33.5z"/>
		</g>
		<g>
			<path class="st1" d="M462.5,46.2c-11.7,0-15.3-3.8-15.3-3.8s-3.5,3.8-15.3,3.8c0,0-2.6,17.5,15.3,26.6
				C465.1,63.6,462.5,46.2,462.5,46.2z M447.2,70.9c-15.6-7.9-13.3-23.3-13.3-23.3c10.3,0,13.3-3.3,13.3-3.3s3.1,3.3,13.3,3.3
				C460.6,47.6,462.8,62.9,447.2,70.9z"/>
			<path class="st1" d="M446.3,47.5v20.1c-11.8-6-10.1-17.6-10.1-17.6C444,50,446.3,47.5,446.3,47.5z"/>
		</g>
		<g>
			<g>
				
					<linearGradient id="SVGID_1_" gradientUnits="userSpaceOnUse" x1="351.9256" y1="472.9948" x2="476.5602" y2="472.9948" gradientTransform="matrix(1 0 0 -1 0 630)">
					<stop  offset="0" style="stop-color:#D39B5E"/>
					<stop  offset="1" style="stop-color:#E7CE67"/>
				</linearGradient>
				<path class="st2" d="M466.3,143.5c-1.3-4.9-3.2-9.5-5.7-13.7l5.8-8.8l-8.1-8.1l-8.1-8.1l-8.8,5.7c-4.2-2.5-8.9-4.5-13.7-5.7
					l-2.1-10.3h-11.4h-11.4l-2.1,10.3c-4.9,1.3-9.5,3.2-13.7,5.7l-8.8-5.8l-8.1,8.1l-8.1,8.1l5.8,8.8c-2.5,4.2-4.5,8.9-5.7,13.7
					l-10.3,2.1V157v11.4l10.3,2.1c1.3,4.9,3.2,9.5,5.7,13.7l-5.8,8.8l8.1,8.1l8.1,8.1l8.8-5.8c4.2,2.5,8.9,4.5,13.7,5.7l2.1,10.3
					h11.4h11.4l2.1-10.3c4.9-1.3,9.5-3.2,13.7-5.7l8.8,5.8l8.1-8.1l8.1-8.1l-5.7-8.8c2.5-4.2,4.5-8.9,5.7-13.7l10.3-2.1V157v-11.4
					L466.3,143.5z M414.2,197c-22.1,0-40-17.9-40-40s17.9-40,40-40c22.1,0,40,17.9,40,40C454.2,179.1,436.3,197,414.2,197z"/>
			</g>
		</g>
		<g>
			<g>
				
					<linearGradient id="SVGID_2_" gradientUnits="userSpaceOnUse" x1="303.2209" y1="553.6771" x2="383.4467" y2="553.6771" gradientTransform="matrix(1 0 0 -1 0 630)">
					<stop  offset="0" style="stop-color:#D39B5E"/>
					<stop  offset="1" style="stop-color:#E7CE67"/>
				</linearGradient>
				<path class="st3" d="M376.8,67.7c-0.8-3.2-2-6.1-3.7-8.9l3.8-5.6l-5.2-5.2l-5.2-5.2l-5.6,3.8c-2.7-1.6-5.7-2.8-8.9-3.7l-1.3-6.6
					h-7.3H336l-1.3,6.6c-3.2,0.8-6.1,2-8.9,3.7l-5.6-3.8l-5.2,5.2l-5.2,5.2l3.8,5.6c-1.6,2.7-2.8,5.7-3.7,8.9l-6.6,1.3v7.3v7.4
					l6.6,1.3c0.8,3.2,2,6.1,3.7,8.9l-3.8,5.6l5.2,5.2l5.2,5.2l5.6-3.8c2.7,1.6,5.7,2.8,8.9,3.7l1.3,6.6h7.4h7.4l1.3-6.6
					c3.2-0.8,6.1-2,8.9-3.7l5.6,3.8l5.2-5.2l5.2-5.2l-3.8-5.6c1.6-2.7,2.8-5.7,3.7-8.9l6.6-1.3v-7.4v-7.4L376.8,67.7z M343.3,102
					c-14.2,0-25.7-11.5-25.7-25.7c0-14.2,11.5-25.7,25.7-25.7c14.2,0,25.7,11.5,25.7,25.7S357.6,102,343.3,102z"/>
			</g>
		</g>
		<g>
			
				<linearGradient id="SVGID_3_" gradientUnits="userSpaceOnUse" x1="395.9737" y1="553.8542" x2="757.4271" y2="-90.8358" gradientTransform="matrix(1 0 0 -1 0 630)">
				<stop  offset="0" style="stop-color:#D39B5E"/>
				<stop  offset="1" style="stop-color:#E7CE67"/>
			</linearGradient>
			<path class="st4" d="M508.2,558.7h88.4c60.5,0,109.5-49,109.5-109.5V261.3c0-60.5-49-109.5-109.5-109.5h-88.4
				c-60.5,0-109.5,49-109.5,109.5v187.7C398.7,509.6,447.7,558.7,508.2,558.7z"/>
		</g>
		
			<linearGradient id="SVGID_4_" gradientUnits="userSpaceOnUse" x1="586.6157" y1="632.6371" x2="586.6157" y2="487.0392" gradientTransform="matrix(1 0 0 -1 0 630)">
			<stop  offset="0" style="stop-color:#E0E6EC"/>
			<stop  offset="1" style="stop-color:#FAF7F3"/>
		</linearGradient>
		<path class="st5" d="M755.4,94.4c-67.1,4.3-68.4,80.6-68.4,80.6v363.1H417.8V175c0,0-0.3-76,68.7-80.6L755.4,94.4L755.4,94.4z"/>
		<rect x="453.1" y="189.3" class="st6" width="184.9" height="16.3"/>
		<rect x="453.1" y="227" class="st6" width="157.9" height="11.5"/>
		<rect x="453.1" y="257.6" class="st6" width="79.4" height="17.2"/>
		<rect x="556" y="257.6" class="st6" width="82.1" height="17.2"/>
		<rect x="453.1" y="290.6" class="st6" width="126.5" height="12.2"/>
		<rect x="453.1" y="321.2" class="st6" width="142.5" height="6.8"/>
		<rect x="453.1" y="351.8" class="st6" width="171.4" height="6.8"/>
		<g>
			<path class="st6" d="M533.1,420.3h-80.5v-38.5h80.5V420.3z M453.7,419.3H532V383h-78.3V419.3z"/>
		</g>
		<rect x="552.4" y="382.4" class="st6" width="72.1" height="8.9"/>
		<rect x="552.4" y="401.1" class="st6" width="51.1" height="8.9"/>
		<rect x="453.1" y="443.6" class="st6" width="141.2" height="6.8"/>
		<rect x="453.1" y="474.2" class="st6" width="81.2" height="6.8"/>
		<g>
			
				<linearGradient id="SVGID_5_" gradientUnits="userSpaceOnUse" x1="608.8738" y1="163.1802" x2="659.6191" y2="163.1802" gradientTransform="matrix(1 0 0 -1 0 630)">
				<stop  offset="0" style="stop-color:#D39B5E"/>
				<stop  offset="1" style="stop-color:#E7CE67"/>
			</linearGradient>
			<path class="st7" d="M659.6,492.2h-50.7v-50.7h50.7V492.2z M613.7,487.4h41.2v-41.2h-41.2V487.4z"/>
		</g>
		<g>
			
				<linearGradient id="SVGID_6_" gradientUnits="userSpaceOnUse" x1="662.2207" y1="155.0199" x2="592.8228" y2="226.7991" gradientTransform="matrix(1 0 0 -1 0 630)">
				<stop  offset="0" style="stop-color:#D39B5E"/>
				<stop  offset="1" style="stop-color:#E7CE67"/>
			</linearGradient>
			<polygon class="st8" points="635.1,477.4 617.3,460.6 622.7,454.9 635.5,466.9 663.3,444 668.4,450.1 			"/>
		</g>
		<g>
			<g>
				<g>
					<g>
						<path class="st9" d="M462,489.8c0,0,1.1,1.1,1.5,2c0.3,0.8,1.3,1.8,1.8,2.4c0.5,0.6,2.3,3.3,2.5,4.1c0.1,0.3-0.1,2.5,0.3,3.1
							c0.3,0.6,1,1.8,0.5,2c-0.5,0.2-1.5-0.6-1.5-0.6s0.2,0.6-0.2,0.9c-0.8,0.6-1.4,0.4-1.4,0.4s-0.2,0.8-0.6,0.9
							c-0.9,0.4-1.5,0.2-1.5,0.2s-0.3,0.5-1,0.6c-0.9,0.2-1.4-0.5-1.4-0.5s-1,0.5-1.4,0.1c-0.4-0.4-0.5-1-0.8-1.4s-1.3-4.6-0.8-7.8
							s-2-5.7-2-5.7L462,489.8z"/>
					</g>
				</g>
			</g>
			<g>
				<path class="st10" d="M471.1,515.2h-14.2c-1.4,0-2.6-1.2-2.6-2.6v-9c0-1.4,1.2-2.6,2.6-2.6h14.2c1.4,0,2.6,1.2,2.6,2.6v9
					C473.8,514,472.6,515.2,471.1,515.2z M456.9,502.7c-0.5,0-0.9,0.4-0.9,0.9v9c0,0.5,0.4,0.9,0.9,0.9h14.2c0.5,0,0.9-0.4,0.9-0.9
					v-9c0-0.5-0.4-0.9-0.9-0.9H456.9z"/>
			</g>
			<g>
				<rect x="437.3" y="511.4" class="st11" width="53.4" height="38.3"/>
			</g>
			<g>
				<path class="st9" d="M441.3,408.9c0,0-2.7,0.1-3.9,8.2s1,11.6,1.3,15c0.3,3.4,4.2,25.4,4.3,26.4c0.1,1,0.6,12.7,2.2,15.8
					c1.6,3.1,13,20.7,13.2,21.6c0.2,0.9,5.6-3.1,5.6-3.1s-9-18.8-9.5-21s-4.1-13.1-3.6-16.5c0.6-3.3-1.6-21.8-1.4-23.9
					C449.8,429.4,446.5,410.1,441.3,408.9z"/>
			</g>
			<g>
				<path class="st12" d="M441.3,408.9c0,0-2.7,0.1-3.9,8.2s-0.1,11.1,0.6,14.7c0.6,3.3,3,23.8,3.1,24.8c0.1,1,2.8,13.3,4.2,17.7
					c1.1,3.3,11.3,20.6,11.4,21.5s7.9-4,7.9-4s-10-19.5-10.5-21.6s-2.2-9.6-2.3-13c-0.1-4-2.6-23.6-2.4-25.6
					C449.8,429.4,449,411.7,441.3,408.9z"/>
			</g>
			<path class="st13" d="M418.4,599.8c0,0,4.8,7.1,6.7,8.8c0,0,4.4,1.6,4.7,4.6c0.2,2,0,5.1-5,5.3s-8.3-1.6-9.2-4.7
				c-0.9-3.1-2.7-4.4-2.7-4.4v6.4h-1.1c0,0-0.3-6.2-0.4-7.3c-0.1-1.1-0.8-5.5,1.6-7.5C415.3,598.9,418.4,599.8,418.4,599.8z"/>
			<path class="st13" d="M450.7,594.1c0,0,0.8,1.9,2.4,4c1.1,1.5,4.7,7.6,6.3,8.1c1.6,0.4,6.4,1.3,6.8,4s0.6,4.6-4.1,4.8
				c-4.8,0.2-7.9,0.5-10.1-2.8s-5.9-5.7-5.9-5.7v8.7h-1.8c0,0-0.9-9.1-1.3-9.7s-1.8-7.6,2.6-11.2S450.7,594.1,450.7,594.1z"/>
			<path class="st9" d="M415.2,463.1c0,0-6,7.8-7.6,17.1c-1.6,9.3,1,40.4,0.9,45.1c-0.1,4.6-4.3,16-3.5,24.6s8,51,8,51l5.5-1.1
				c0,0-0.5-43.9,0-47.5c0.5-3.7,1.6-16.9,1.8-18.4c0.2-1.5,13.5-40.7,13.5-47.4C433.8,479.8,429.7,452.2,415.2,463.1z"/>
			<path class="st9" d="M445.5,466.2c0,0,9.9,37.8,11.1,43c1.2,5.2,2.9,9.6,2.9,11.8c0,5.2-1.9,13.4-1.9,13.4l-6.8,59.8h-5.3
				c0,0-3.3-34.9-3.9-41.9c-0.5-7,3.9-17.9,2.8-20.9c-1.1-3-17.2-37.4-17.2-37.4S415,455.2,445.5,466.2z"/>
			<path class="st9" d="M425.9,608.9c0,0-4.1,2.1-7.9-0.7c-3.8-2.8-5-7.4-5-7.4l5.5-1.1L425.9,608.9z"/>
			<path class="st9" d="M459.4,606.1c0,0-4.2,1.1-5.9,0c-1.6-1.1-7.2-10.5-9-11c0,0,1.8-3.6,6.3-1
				C450.7,594.1,458.2,604.6,459.4,606.1z"/>
			<path class="st14" d="M458.1,515.2c0,0-18.2,10.7-52.2,10.7c0,0-1.9-39.5,3-50.6c4.9-11.1,37.8-4.2,37.8-4.2S457,507,458.1,515.2
				z"/>
			<g>
				<path class="st13" d="M433.3,406c0,0,5.3,2.5,7.1,2.8c1.8,0.4,9,9.6,10.2,13c1.2,3.4,0,8.4-2.6,14.4c-2.6,6-0.2,7.9-1.3,13.9
					c-1.2,6-2.2,18.5-2,21.8c0.2,3.3-29.6,3.9-36.5-2.1c0,0,6.9-10.3,7.7-11.8c0.9-1.4,0.2-9.5-0.6-11.5s-6.2-19.5-6.2-19.5
					s-4.4-13.4-0.4-16.5c3.4-2.7,12.8-3.7,14.6-4.2C425,405.7,429.8,405.5,433.3,406z"/>
			</g>
			<g>
				<path class="st15" d="M435,417.7l3.2-3.8l-2.8-9.9C435.4,404.1,434.5,409.6,435,417.7z"/>
			</g>
			<g>
				<path class="st9" d="M426.6,368.5c3.1-1.1,14.7-3.8,17.4,10.9c2.7,14.8-5.4,25.2-12.9,22.4c-7.5-2.8-12.1-13-12.6-20.8
					C418.1,373.4,422.6,369.9,426.6,368.5z"/>
			</g>
			<g>
				<path class="st16" d="M444,379.4c0,0,0.6-12.6-12-13c-12.6-0.4-15.9,9.9-14.9,17.4c1,7.5,6.2,11.5,6.2,11.5s-0.4-6.1,2-7.7
					c2.4-1.6,12.2-4.7,16.4-12.1C441.8,375.5,443.8,377.9,444,379.4z"/>
			</g>
			<g>
				
					<ellipse transform="matrix(0.3125 -0.9499 0.9499 0.3125 -67.6265 657.4855)" class="st16" cx="420.4" cy="375.5" rx="9.6" ry="8.4"/>
			</g>
			<g>
				<path class="st9" d="M435.8,399.9c0,0-1.1,9.7-0.9,12.8c0,0-5.5,5.5-11.7-6.4c0,0,2.6-4.9,0.6-11.6
					C421.9,388,435.8,399.9,435.8,399.9z"/>
			</g>
			<g>
				<polygon class="st9" points="435,412.7 435,417.7 428.7,413 				"/>
			</g>
			<g>
				<polygon class="st15" points="435,417.7 432.4,414.5 423.5,405.7 420.7,408.4 				"/>
			</g>
			<g>
				<path class="st12" d="M422.3,406.5c0,0,7.4,11.2,7.8,16.2c0.4,4.9-2.7,42-5.3,53.9c-2.5,11.9-20.5-1.3-20.5-1.3
					s12.1-19.5,7.5-35.2c-4.6-15.7-6.3-21.9-6.3-21.9s1.6-8.7,7.2-9.9C417.7,407.1,422.3,406.5,422.3,406.5z"/>
			</g>
			<g>
				<path class="st12" d="M451.3,423.2c0,0,1.2,4.8-4,15.3c0,0,0.1,13.4,0.2,17.6c0.2,4.2,1.1,20,1.1,20l-5.2,3
					c-1,0.6-2.3-0.2-2.2-1.4c1.4-12,6.2-57.7-4-69.9l4.1,1.2C441.3,408.9,448.8,414.8,451.3,423.2z"/>
			</g>
			<g>
				<path class="st9" d="M426.6,385c-0.4-1.2-2-1.5-2.8-0.8c-0.9,0.6-1.4,2.6,0,5.2C425.1,391.9,430.1,393.7,426.6,385z"/>
			</g>
			<g>
				<polygon class="st17" points="438.2,414 442.2,415.1 435.4,404.1 				"/>
			</g>
			<g>
				<polygon class="st17" points="432.4,414.5 428.7,419.3 421.1,406.7 423.5,405.7 				"/>
			</g>
			<g>
				<path class="st18" d="M435.6,402l-0.2,1.9c0,0-4.3,0.8-10-6.1C425.3,397.8,429.4,402.7,435.6,402z"/>
			</g>
			<g>
				<g>
					<g>
						<path class="st9" d="M458,461.3c0,0,2.6,1.7,4,0.8c1.2-0.8,3.4-0.9,4.1-0.9c0.9-0.1,3.6-1.2,3.7-0.1c0.1,1.1-4.4,2.1-5.3,2.5
							c-0.9,0.4,3,2.3,3.5,3.2c0.4,0.9-3.1,7.2-5.6,5.6c-2.5-1.6-4.2-5-4.7-5.3c-0.5-0.2-1.9-1.1-1.9-1.1L458,461.3z"/>
					</g>
				</g>
			</g>
			<g>
				<path class="st9" d="M409.3,409.9c0,0,3.5-0.9,6.7,2.4c3.1,3.3,4.6,8.8,5.4,10.5c0.8,1.8,11,18,11.6,18.4
					c0.6,0.4,11,8.8,15.6,13.2c4.7,4.5,13.9,9.5,13.9,9.5l-3.4,4.8c0,0-27.8-14.8-31.3-20.2c-3.5-5.4-17.6-20.5-17.6-20.5
					S401.8,415.4,409.3,409.9z"/>
			</g>
			<g>
				<g>
					<g>
						<path class="st9" d="M467.6,466.3c0,0,7.5,5.5,7.6,6.3c0.2,0.8-0.1,1.2-0.9,0.7c-0.7-0.5-7.4-5.1-7.4-5.1s7.7,8,8,8.6
							c0.2,0.4-0.4,1.1-0.8,0.9c-0.4-0.2-8.5-7.7-8.5-7.7s7.2,7.5,7.3,8.1c0.1,0.5-0.6,1.1-1.2,0.6c-0.6-0.5-7.6-7.1-7.6-7.1
							s4.9,5.7,4.7,6.3c-0.1,0.3-0.6,1-1.8-0.5c-1.2-1.5-4.5-4.8-4.5-4.8L467.6,466.3z"/>
					</g>
				</g>
			</g>
			<path class="st19" d="M448.4,435.9c0,0,0.3,16.7-0.8,24.8l-0.4-22.1L448.4,435.9z"/>
			<g>
				<path class="st12" d="M411.2,408.7c0,0,2,0.3,5.1,3.7c3.1,3.3,4.6,8.8,5.4,10.5c0.8,1.8,11,18,11.6,18.4
					c0.6,0.4,9.1,6.2,13.7,10.7c4.7,4.5,13.4,9.8,13.4,9.8l-4.5,6.7c0,0-24.5-13.6-28.4-18.7c-4.1-5.5-19-21.7-19-21.7
					S399,413.1,411.2,408.7z"/>
			</g>
			<g>
				<g>
					<path class="st20" d="M467.1,502.4c0,0-1-3.7-2.1-4.3c-1.2-0.5-0.9,0.8-0.9,0.8s-0.3-1.3-1.3-1.3c-1.1,0.1-0.7,1.7-0.7,1.7
						s-0.5-1-1.5-0.5c-1.1,0.5-0.4,1.7-0.4,1.7s-1.4-1-1.8,0.4c-0.6,2.4,1.2,4.6,1.2,4.6s0.5,0.5,1.5,0c0,0,1.1,1.2,2.5-0.2
						c0,0,1.9,0.5,2.1-1C465.5,504.3,467.5,504.6,467.1,502.4z"/>
				</g>
			</g>
			<path class="st19" d="M427.9,453.5l-8.4-13.5c0,0,7.1,8.4,7.9,9.3c0.8,0.9,0.8,1,0.8,1S428,453.1,427.9,453.5z"/>
		</g>
		<polygon class="st1" points="664.8,273.3 587.9,273.3 587.9,331 587.9,343.2 599.7,331 664.8,331 		"/>
		<polygon class="st1" points="313.2,278.2 390.1,278.2 390.1,335.9 390.1,348.1 378.3,335.9 313.2,335.9 		"/>
		<g>
			<g>
				<path class="st21" d="M625.5,321.3c-1.6-0.1-3.1-0.7-4.2-1.7c-1.3-1.1-2-2.6-2-4.1c-0.2-3.1-1.2-6.2-2-8.4
					c-3.8-3-5.8-7.6-5.4-12.4c0.6-7.9,7.6-13.9,15.5-13.3c7.9,0.6,13.9,7.6,13.3,15.5c-0.3,4.3-2.5,8.2-6.1,10.7
					c-1.1,3-1.7,5.6-1.9,8c-0.1,3.2-3.1,5.7-6.8,5.7C625.8,321.3,625.7,321.3,625.5,321.3z M627.4,282.5
					c-7.3-0.5-13.7,4.9-14.2,12.2c-0.3,4.5,1.6,8.8,5.1,11.5l0.1,0.1l0.1,0.2c0.8,2.3,1.9,5.6,2.1,8.9v0.1c0,1.2,0.5,2.4,1.6,3.2
					c1,0.9,2.5,1.4,3.9,1.4c3.1,0,5.5-2,5.6-4.6l0,0l0,0c0.2-2.5,0.9-5.4,2-8.5l0.1-0.2l0.2-0.1c3.3-2.3,5.4-5.9,5.7-9.9
					C640.2,289.4,634.7,283,627.4,282.5z"/>
			</g>
			<g>
				<polygon class="st21" points="622.8,316.3 620.9,300.5 624.2,303.3 626.2,301 628,303.1 631.1,300.5 629.2,316.3 628,316.2 
					629.5,303.4 627.8,304.8 626.2,302.9 624.3,304.9 622.4,303.4 624,316.2 				"/>
			</g>
			<g>
				
					<rect x="624" y="316.8" transform="matrix(6.736846e-03 -1 1 6.736846e-03 299.9358 945.7521)" class="st21" width="4.1" height="10.3"/>
			</g>
			<g>
				
					<rect x="622.7" y="312.2" transform="matrix(6.731847e-03 -1 1 6.731847e-03 302.8654 942.8464)" class="st21" width="6.7" height="13.6"/>
			</g>
		</g>
		<g>
			<path class="st21" d="M361.1,299.1c-0.3-0.3-0.7-0.6-1.2-1c-0.5-0.4-1.2-0.7-1.9-1.1c-0.8-0.3-1.6-0.6-2.4-0.9
				c-0.9-0.2-1.8-0.4-2.7-0.5l-0.1,9.9l0.9,0.2c1.7,0.4,3.3,0.9,4.7,1.4c1.4,0.5,2.5,1.1,3.5,1.9c1,0.8,1.7,1.6,2.2,2.7
				s0.8,2.4,0.8,3.9c0,1.7-0.3,3.1-0.9,4.3c-0.6,1.2-1.4,2.2-2.5,3c-1.1,0.8-2.3,1.4-3.7,1.8c-1.4,0.4-3,0.6-4.6,0.6v5h-2.5v-5.1
				c-2.3-0.2-4.5-0.6-6.6-1.4c-2-0.8-4-1.8-5.7-3.2l2.5-4.6c0.3,0.4,0.9,0.8,1.5,1.2c0.6,0.4,1.4,0.9,2.3,1.3c0.9,0.4,1.9,0.8,3,1.1
				c1.1,0.3,2.1,0.5,3.3,0.7l0.1-9.9c-0.2-0.1-0.4-0.1-0.6-0.2s-0.4-0.1-0.6-0.2c-1.7-0.4-3.2-0.9-4.4-1.4c-1.2-0.5-2.3-1.1-3.1-1.8
				c-0.8-0.7-1.4-1.5-1.9-2.5c-0.4-0.9-0.6-2.1-0.6-3.4c0-1.6,0.3-3,0.8-4.1c0.5-1.2,1.3-2.3,2.3-3.1c1-0.9,2.1-1.6,3.5-2
				s2.8-0.8,4.3-0.9v-4.8h2.5v4.8c2,0.2,4,0.5,5.7,1.2c1.8,0.7,3.3,1.6,4.6,2.5L361.1,299.1z M345.4,300.3c0,1.3,0.5,2.4,1.4,3
				c0.9,0.6,2.4,1.3,4.2,1.8l0.1-9.4c-1.9,0.1-3.4,0.5-4.3,1.3C345.9,297.9,345.4,299,345.4,300.3z M359.1,316.2
				c0-1.4-0.5-2.5-1.7-3.2c-1.1-0.7-2.7-1.3-4.7-1.9l-0.1,9.5c2,0,3.6-0.4,4.7-1.1C358.5,318.7,359.1,317.6,359.1,316.2z"/>
		</g>
		<g>
			<path class="st9" d="M722.1,494.6c0,0-2.7,0.5-4,0.6c-1.3,0.1-7.3-2.7-9.2-2.4s-14.4,5.6-15,6c-0.6,0.4,0.3,1.2,0.3,1.2l28.7,0.3
				L722.1,494.6z"/>
			
				<rect x="705.7" y="478.2" transform="matrix(7.552972e-03 -1 1 7.552972e-03 200.5258 1206.1993)" class="st22" width="4.4" height="47.8"/>
			
				<rect x="676.9" y="456.7" transform="matrix(0.9563 -0.2924 0.2924 0.9563 -110.845 219.5821)" class="st22" width="4.4" height="47.8"/>
			<g>
				<path class="st23" d="M771.4,592.6l1.8,4c0,0,7.8-2.9,7.8-3c0.1-0.1-2.1-5.5-2.1-5.5L771.4,592.6z"/>
			</g>
			<g>
				<path class="st24" d="M704.8,592.5l-2.1,6.3c0,0,8.5,1.9,9.8,1.8c0.1,0,1.6-7.1,1.6-7.1L704.8,592.5z"/>
			</g>
			<path class="st25" d="M713.4,598.7c0,0-6-1.6-6.1-1.9c-0.2-0.3-2.4-1.7-3.5-1.6c-1.1,0.2-1.2,1.6-2.4,1.8s-9.8,3.1-11.1,3.8
				c-1.2,0.7-7-1.4-8.1,0.1c-1.1,1.5-2.2,5.4,6.9,6.8s18.7,5.4,20.9,4.8S713.7,601.1,713.4,598.7z"/>
			<path class="st25" d="M781.6,592.5c0,0-5.5,2.4-5.8,2.3c-0.3-0.1-2.8,0.1-3.6,0.9s0,1.9-0.7,2.8c-0.7,0.9-4.6,6.1-5.8,7.3
				c-1,1-6.1,1.9-7.8,3.7c-1.2,1.3,0.2,6.6,9,4c8.5-2.4,19.2-6.7,20.5-8.4C788.8,603.4,783.3,594.2,781.6,592.5z"/>
			<g>
				<path class="st26" d="M775.9,514.2c0,0-24.3,10.8-29.4,14.5c-5.2,3.7-16.4,10.5-16.8,12.1c-0.4,1.7-2.6,0.1,1.4,8.4
					c4,8.3,22.9,28.3,24.6,30.5c1.8,2.3,15,15.8,15,15.8l9.9-7.4c0,0-19-27.9-21.7-32c-2.7-4.1-4-4.7-2.4-6.5
					c1.6-1.8,8.1-1.8,41.5-15.6c3.3-1.4,12.6-4.6,13.9-9.1c2.2-8.1,0.3-18.4-8.6-22.8C794.2,497.7,775.9,514.2,775.9,514.2z"/>
			</g>
			<g>
				<path class="st9" d="M764.4,436c0.2,0.2,0.4,0.6,0.7,1.2c0.4,0.8,0.7,1.9,1.1,3.2c1.1,3.9,2.1,8.8,2.1,8.8s13.9-11.6,11.9-12.3
					c-2-0.8-3.4-4.1-3.4-4.1S762.9,434.7,764.4,436z"/>
			</g>
			<g>
				<path class="st26" d="M776.3,509.9c0,0-25.1,5.9-31.3,7.9c-6.2,2-16.9,5.5-19.8,7.1c-1.5,0.9-3.9,2.1-6.7,11.2
					c-3.2,10.3-10.4,39.2-12,43.7c-1,2.8-4,14-4,14l12.8,2.2c0,0,15.3-30.8,16.5-38.9c2.1-13.8,7.4-13.9,9.6-15.1
					c2.1-1.2,12.6,1.1,49.6-1.8c3.7-0.3,13.8-0.5,16.4-4.5c4.7-7.2,9.5-15.4,2.1-22.7C802.4,505.7,776.3,509.9,776.3,509.9z"/>
			</g>
			<g>
				<path class="st9" d="M759.5,407c0,0-4.3,7.5-3.3,9.6c1,2-4.5,7-3.7,8.1c0.9,1.1,2.8,2.3,2.7,2.6c-0.1,0.3,1.6,10.1,3.8,10.3
					s16.7-0.5,17.9-5.1c1.2-4.6,4.8-14.6,5.6-16.4C783.3,414.2,775,399.8,759.5,407z"/>
			</g>
			<g>
				<path class="st27" d="M777.4,405.5c1.2,0.9,2.2,1.9,3,2.8c1,0.4,6.6,3.3,5.4,6.3c-1.6,4.1-7.9,15-8.5,16.1
					c-0.1,0.2-0.1-0.2,0-0.8c-0.4-3.9-5.2-8.2-5.2-8.2l-2.5-1.1c1.3-2.5,0.8-4.7,0.8-4.7c-2.8-3.1-12.4-6.4-12.4-6.4
					C759.4,396,771.1,400.8,777.4,405.5z"/>
			</g>
			<g>
				<path class="st9" d="M773.1,418.7c0.7-1,4.2-0.9,3.7,2.1s-4.9,5.5-5.8,4.1C770.1,423.6,772.4,419.8,773.1,418.7z"/>
			</g>
			<path class="st28" d="M780.2,436.9c0,0,17.6,10.3,21.6,28.2c4,17.9,11.2,49.4,11.3,53.1c0,0-23.8-11.5-36.7-8.3
				c0,0-8.1-29.2-12.4-36.1c-4.3-6.9,2.1-23.1,2.1-23.1S772.1,440.9,780.2,436.9z"/>
			<path class="st29" d="M844.4,444.9l-14.2,41.6c-0.1,0.3-0.2,0.6-0.2,1l-3.4,54.7l-59.3,1.3L750,606.5c-0.5,1.9-0.2,3.9,1,5.6
				c0.8,1.1,1.8,2,3.3,2.2c3.8,0.5,79.9,0,79.9,0v-3.2c0-1.6-1.3-2.8-2.9-2.8h-71.2c-1.2,0-2.3-0.5-3-1.4c-0.4-0.5-0.7-1.2-0.6-1.9
				c0.3-2,15.5-53.3,15.5-53.3l57.4-1c2.6-0.1,4.7-2.1,4.8-4.6l2.5-58.9c0-0.4,0.1-0.8,0.2-1.1l11.6-39.8c0,0,1.2-2.8-1-3.1
				C845.2,442.8,844.7,444.2,844.4,444.9z"/>
			<path class="st30" d="M767,544.7c0,0-0.1-4.6,6.2-4.8c7.1-0.4,53.6-0.7,53.6-0.7l-0.3,4.8L767,544.7z"/>
			<path class="st30" d="M738.2,507.7v2.1H637.2v-2.1c0-2,1.3-3.6,3-3.6h95.1C736.9,504.1,738.2,505.7,738.2,507.7z"/>
			<path class="st31" d="M673.5,613.1h-30.6v-4.9h25.7C671.3,608.2,673.5,610.4,673.5,613.1L673.5,613.1z"/>
			<rect x="644.9" y="509.8" class="st31" width="4" height="103.4"/>
			<rect x="653" y="509.8" class="st31" width="4" height="103.4"/>
			<path class="st18" d="M765.1,437.2c0.4,0.8,0.7,1.9,1.1,3.2c2.1-0.9,6.1-4.5,6.2-4.6C770.7,436.4,765.1,437.2,765.1,437.2z"/>
			<path class="st32" d="M695.4,509.8h-72.2v-2.1c0-2,1.7-3.6,3.8-3.6h57.1L695.4,509.8z"/>
			<g>
				<path class="st28" d="M772.5,450.7c0,0-4.2,6-6.8,10.4c-3,5.1-5.9,10.1-6.4,11.3c-1.3,2.3-5.9,3.5-7.9,4.4
					c-1.9,0.8-33.1,17.6-33.6,17.5c-0.4-0.1,3.4,6.2,3.4,6.2s43.4-12.5,45.4-14.2c1.9-1.8,7.7-9.9,10.1-13.3
					c2.3-3.2,5.7-8.4,7.6-10.7c2-2.5,6.3-11.1,0.9-15.4C778,441.6,774.2,448.2,772.5,450.7z"/>
			</g>
			<path class="st33" d="M784.4,462.2c0,0-5,13.6-8.1,18.3c-3,4.6-6.3,8.5-6.3,8.5l-1.6-4.7C768.4,484.2,781.4,466.4,784.4,462.2z"
				/>
		</g>
		<g>
			<g>
				<path class="st34" d="M529.2,601.8c0,0-2.8,4.1-6.7,5c-3.9,0.9-7.7,2.3-7.7,4.8c-0.1,2.5,11.2,3.9,15.7,1.4
					c6.7-3.7,7.3-2.6,8.1-4.4c0.8-1.8-0.9-6.8-0.9-7.4C537.7,600.6,529.2,601.8,529.2,601.8z"/>
			</g>
			<g>
				<path class="st35" d="M529.6,599.8c0,0-0.5,2-0.4,2c0.1,0.1,8.8,1.1,8.5-0.5c-0.2-1.3-0.5-2.7-0.5-2.7L529.6,599.8z"/>
			</g>
			<g>
				<path class="st34" d="M558.4,601.6c0,0-2,4-5.4,5.3c-3.6,1.4-6.5,3.1-6.4,5.5c0.1,2.4,8.8,4.8,15.2,0.2c4-2.9,5.3-2.9,6-4.7
					c0.6-1.8-1.1-6.6-1.1-7.1C566.7,600,558.4,601.6,558.4,601.6z"/>
			</g>
			<g>
				<path class="st35" d="M558.3,599.5c0,0,0,2,0.1,2c0.1,0.1,8.5,0.8,8.3-0.9c-0.2-1.2-0.8-2.7-0.8-2.7L558.3,599.5z"/>
			</g>
			<g>
				<path class="st36" d="M527.5,478.4c0,0-7.8,34.4-9.6,44.8c-1.5,8.9-2.7,18.2-2,24.6c0.9,7.9,12.2,49.2,11.7,51.6
					c-0.5,2.3,11.8,0.4,11.8,0.4s-8.6-46-6.9-54.6c1.3-6.3,12.4-48.5,14.1-46.3c1.7,2.1,3.8,39.8,5.1,46c1.2,6.2,5.2,55.6,5.2,55.6
					s8.6,1.3,11-0.7c0,0,1.1-42.2,0.3-53.9c-0.3-4.5,5.2-53.5-1.9-73.2C562.5,462.3,527.5,478.4,527.5,478.4z"/>
			</g>
			<g>
				<path class="st37" d="M493.6,447.2c5.5-0.8,23,7,24.6,6.4c1.1-0.4,3.7-8.8,5.5-15.1c1.1-3.8,1.9-6.8,2-7l0,0
					c0,0.2-0.3,3,0.1,6.8c0,0.3,0.2,0.4,0.2,0.6c0,0.1,0,0.2,0.1,0.3c0.4,1.3,0.6,2.7,1,4.1c0.5,2.1,1,5,0.6,8.1l0,0v0.1
					c0,0.1,0,0.2,0,0.2c0,0,0,0.1,0,0.1c0.2,5.4-0.2,11.2-0.4,14.3c-0.3,4.8,1.3,7,1.4,7l0,0l1.7-0.2l1.2-0.2l0,0l1.6-0.2l6.3-0.9
					l2.3-0.3l0.5-0.1l4-0.6l11.3-1.6l1.2-0.2l0.5-0.1l4.2-0.6l1.9-0.3l0,0c0,0,1.7-11.6,1.8-17.9c0.1-5.7,3.2-17.5,3.7-19.3
					c0,0,0,0,0-0.1v-0.1c0-0.1,0-0.1,0-0.1c0,0,0,0,0-0.1l0,0l0,0l0,0c0,0,9.2,9.7,11,14c0.5,1.3,2.2,4.8,4.3,9
					c1.4-2.8,2.4-4.7,2.4-5.2c0-0.1,0-0.1,0-0.2c-0.2-4.2-4.5-21.2-8-32.3c-2.7-5.4-5-9.8-5.7-10.3c-1.1-0.8-5.9-2.8-10-4.5
					c-0.2-0.1-0.3-0.1-0.4-0.2c-0.4-0.2-0.8-0.3-1.1-0.4c-0.2-0.1-0.4-0.2-0.5-0.2c-0.1-0.1-0.2-0.1-0.3-0.1
					c-0.1-0.1-0.2-0.1-0.2-0.1l0,0c-2.1-0.8-3.7-1.3-4-1.3c-0.1,0-0.2,0-0.3,0c-0.2,0-0.3,0-0.5,0c-2.6,0.2-10.2,0.9-12.7,1.1
					c-0.4,0.1-0.7,0.1-0.8,0.1l0,0c0,0-1.2,0.5-3,1.3l0,0l-0.2,0.1c-1.1,0.5-2.3,1.1-3.6,1.8c-2.6,1.4-5.4,3.1-7.7,4.1
					c-2.3,1.1-5.4,2.6-5.7,2.8l-11.6,33.5l-20.2-3.7L493.6,447.2z"/>
			</g>
			<g>
				<path class="st38" d="M528.6,473.1c0,0-0.9,1-1.1,5.3c0,0,35-4.1,38.7-5.7c0,0,0.2-4.8-0.6-4.8
					C564.7,467.8,528.6,473.1,528.6,473.1z"/>
			</g>
			<g>
				<path class="st9" d="M558.5,397.4c-0.1,5.5-10.7,8.5-10.7,8.5s-4.5-5.6-3.4-6.1c0.4-0.2,0.6-1,0.6-2c0.1-0.9,0-1.9-0.1-2.5
					c-0.1-0.4-0.1-0.6-0.1-0.6s1.5-1.6,3.4-3.5c3.4-3.3,8-7.6,8.1-5.9c0,0.1,0,0.2-0.1,0.3C555.5,389.4,558.5,397.4,558.5,397.4z"/>
			</g>
			<g>
				<path class="st34" d="M557.6,468.8c0,0,0.8,4.8,0.8,6.1l1.6-0.3c0,0-0.4-5.1-0.7-6L557.6,468.8z"/>
			</g>
			<g>
				<path class="st34" d="M531.5,472.5c0,0-0.6,4.4-0.6,6l1.7-0.2c0,0,0.4-5.5,0.5-6L531.5,472.5z"/>
			</g>
			<g>
				<path class="st18" d="M554.4,389.4L554.4,389.4c0,0.1-0.5,0.7-1.2,1.7c-1.6,2-4.7,5.4-8.2,6.8c0.1-0.9,0-1.9-0.1-2.5
					c-0.4,0-0.7-0.1-1.1-0.1c1-1.7,2.3-3.4,2.3-3.4l2.1-0.6L554.4,389.4z"/>
			</g>
			<g>
				<path class="st9" d="M556.4,385.3c-0.9,2-1.8,3.4-2,4l0,0c-0.2,0.4-0.6,1-1.2,1.7c-1.8,1.9-5,4.4-8.2,4.3
					c-0.4,0-0.7-0.1-1.1-0.1c-1.3-0.3-2.8-0.9-3.7-2.5c-6.7-13-1.8-23.6-1.8-23.6s18.2-5.2,21,0.3
					C561.4,373.2,558.6,380.6,556.4,385.3z"/>
			</g>
			<g>
				<path class="st39" d="M538.4,369c0,0-1.7-0.1-2.1-3.3c-0.4-3.2,0.4-4,0.4-4s7.5-3.1,10.2-3.5s9.3-0.8,10.8,1
					c0,0,3.8-0.9,4.8,5.4c1.6,9.9-5.5,19.5-5.5,19.5s0.1-6.5-1.4-7.4c-1.4-0.9-2.7,1.2-2.7,1.2l-2.9,0.5c0,0,4.5-9.6-0.9-9.9
					C543.8,368.1,541.4,369.6,538.4,369z"/>
			</g>
			<g>
				<path class="st9" d="M553,375.3c0.3-2.8,5.4-3.9,5.1-1c-0.3,3-2.9,5.9-4.1,5.7C552.9,380.1,552.8,377.5,553,375.3z"/>
			</g>
			<g>
				<path class="st28" d="M588.9,448.2c0-0.1,0-0.1,0-0.2c-0.1-4.2-2.1-20.9-5.6-32c-1.7-5.4-2.1-9.1-2.7-9.6
					c-1.1-0.8-11.2-3.8-15.4-5.4c-0.2-0.1-0.3-0.1-0.4-0.2c-0.4-0.2-0.8-0.3-1.1-0.4c-0.2-0.1-0.4-0.2-0.5-0.2
					c-0.1-0.1-0.2-0.1-0.3-0.1c-0.1-0.1-0.2-0.1-0.2-0.1l0,0c-0.4,0.4-2.4,2.7-4.7,6c-4.4,6.2-10.1,16.4-9.2,25.7
					c0.3,3,0.6,7.3,1.2,12.1c0.1,0.4,0.1,0.8,0.2,1.2c0.2,1.1,0.3,2.3,0.5,3.4c0.1,0.7,0.2,1.4,0.3,2.1c1.2,7.2,4.8,12.2,8.1,18.1
					c0.1,0.1,0.1,0.1,0.1,0.2c0,0.1,0.1,0.1,0.1,0.1c0.1,0.1,0.2,0.3,0.2,0.4c0.1,0.2,0.2,0.4,0.3,0.6c0.1,0.1,0.1,0.2,0.2,0.4
					c0.6,1.2,1.2,2.4,1.8,3.7c0.4,0.8,0.8,1.6,1.1,2.4c0.1,0.1,0.1,0.2,0.1,0.3c0,0,0.6,1.4,1.3,3.2c0.3,0.6,0.6,1.3,0.9,2.1
					c0.2,0.5,0.4,1,0.6,1.4c0.2,0.4,0.4,0.8,0.5,1.2c0.4,0.9,0.7,1.6,0.9,2.1c0.2,0.4,0.3,0.6,0.3,0.8c1.1,2.8,1.9,4.9,2.3,6
					c0.2,0.4,0.2,0.6,0.2,0.6l11.2-6.2c2.1-1.1,1-6.8,0.2-9c-0.6-1.9-1.6-3.9-2.6-5.9c-0.4-0.9-0.9-1.7-1.3-2.6
					c3.5-6.1,7-12.5,9.3-16.8C588,450.6,588.9,448.7,588.9,448.2z M571.1,430.7L571.1,430.7c0-0.1,0-0.1,0-0.1c0-0.1,0-0.1,0-0.1
					c0,0,0,0,0-0.1l0,0l0,0c0,0,5.4,8.5,5,15.9c-0.1,1.1-1.2,4.1-2.9,7.8l0,0c-0.6,1.3-1.3,2.8-2,4.3c0-0.1-0.1-0.1-0.1-0.2
					c-1-2.5-1.7-4.9-1.7-7C569.5,451.3,569.9,435.1,571.1,430.7z"/>
			</g>
			<g>
				<path class="st28" d="M486.2,435.9l25.3,5.5l12.1-31.6c0.3-0.2,3.8-2.1,6-3.2c2.4-1.1,5.4-2.5,8.1-3.8c1.3-0.6,2.5-1.1,3.5-1.6
					l0.1,0.1c0,0-1.5,5-3.4,17.5l0,0c-0.1,0.4-0.1,0.9-0.2,1.3c0,0.1,0,0.1,0,0.2c-0.1,0.3-0.1,0.6-0.1,0.9c0,0.1,0,0.1,0,0.1
					c-0.1,0.2-0.1,0.4-0.1,0.6c-0.1,0.5-0.2,1-0.2,1.5c-0.9,6.1-2.1,16.4-3.2,26.8l0,0c-0.9,8.2-3,16.6-3.7,22.9l0,0
					c-0.1,1.2-0.4,2.8-0.9,4.7c-0.1,0.2-0.1,0.4-0.2,0.6c-1.9,7.9-5.5,19.2-5.5,19.2l-1.1-1l-3.2-2.9c-0.7-0.6-1-1.7-0.7-2.6
					c1.7-5.6,7.7-25.5,8.8-39.5l0,0c0.3-4.4-1-8.5-1.7-12.5c0,0.1,0,0.1-0.1,0.1c-0.6,1.7-1.3,3.6-2,5.5l0,0
					c-1.9,4.9-3.8,9.5-4.6,9.8c-1.8,0.6-35.2-8.5-35.4-9.8L486.2,435.9z"/>
			</g>
			<g>
				<path class="st40" d="M559.6,413.6l-5.2,2.9l2.2,2.3l-5.9,31.8c-1.2-7.5-1.8-14.6-2.1-18.8c-1.3-14.4,13-30.7,14-31.7
					c0.7,0.3,1.4,0.5,2.2,0.9L559.6,413.6z"/>
			</g>
			<g>
				<path class="st40" d="M541.4,401.1c0,0-1.9,6.3-4.2,22.1c-0.9,6.1-2.1,16.4-3.2,26.8l-1.2-29.8l2.5-2.7l-2.2-2.7l4.6-12
					c1.3-0.6,2.5-1.1,3.5-1.6L541.4,401.1z"/>
			</g>
			<g>
				<path class="st41" d="M562.8,400l-4.3-2.6c0,0-0.1,2.4-10.7,8.5l3,8.5L562.8,400z"/>
			</g>
			<g>
				<path class="st41" d="M544.9,398.6c0,0,0.2,2.5,2.8,7.3l-5.9,7.7l-0.4-12.5L544.9,398.6z"/>
			</g>
			<g>
				<path class="st22" d="M547.8,405.9c0,0,1.1,4.6,0.8,5.9c0,0-2.5,0.9-4.3-0.2C544.2,411.5,545.5,408.3,547.8,405.9z"/>
			</g>
			<g>
				<g>
					<path class="st42" d="M541.9,471.7c-0.6-3.2-0.1-12.9,0-13.3l0.5,0.1c0,0.1-0.6,10,0,13.2L541.9,471.7z"/>
				</g>
			</g>
			<g>
				<path class="st43" d="M546.3,470.3c0,0-5.2,0.6-6.9,1l0.2,5.8l6.8-0.7L546.3,470.3z"/>
			</g>
			<g>
				<path class="st22" d="M545.2,411.1c0,0-5.7,14.5-4.8,30.8c1,16.9,2.6,22.9,2.6,22.9l3.5,4.5l1.6-5.5c0,0-4.8-21.5-1.7-42.4
					c0.5-3.8,1.4-11,1.4-11L545.2,411.1z"/>
			</g>
			<g>
				<path class="st9" d="M562.5,479.6c0,0-1.2,2.5-2.5,2.9c-1.2,0.4-3,2.4-3,2.4l8.7,4.6c0,0,2.3-4.5,2.4-7.4
					C568.2,479.2,562.5,479.6,562.5,479.6z"/>
			</g>
			<g>
				<path class="st37" d="M561.6,479.8L561,481c0,0,5.5,4,7,4.3l0.5-1.6L561.6,479.8z"/>
			</g>
			<g>
				<path class="st28" d="M561.1,479.9c0,0,4.1,3.4,7.6,5l11.7-21l-6.1-11.7C574.3,452.1,561.4,477.9,561.1,479.9z"/>
			</g>
			<g>
				<path class="st44" d="M525.9,439c-0.6,1.7-1.3,3.6-2,5.5c-0.2-2.1-0.2-4.1-0.2-6c0.3-10.9,3.7-16.6,3.7-16.6
					c-0.8,1.9-1.2,6-1.3,9.7c-0.2,3.9-0.2,7.4-0.2,7.4l0,0L525.9,439z"/>
			</g>
			<g>
				<path class="st44" d="M578.5,472.7l-9.4,11.3l8.1-13.9C577.7,471,578.1,471.8,578.5,472.7z"/>
			</g>
			<g>
				<path class="st45" d="M510.4,458.5h-21.6c-1.5,0-2.8-1-3.1-2.5l-9.4-38.8c-0.5-2,1-4,3.1-4H501c1.5,0,2.8,1,3.1,2.5l9.4,38.8
					C514.1,456.5,512.5,458.5,510.4,458.5z"/>
			</g>
			<g>
				<g>
					<path class="st9" d="M484,447.7c1.1-1,3.1-1.6,4.8-2.7c1.8-1.2,0.3-2.4,0.3-2.4c1.8-0.6,1.6-1.4,1.4-2
						c-0.3-0.8-2.3-0.5-2.3-0.5s1.8-0.4,2.5-0.7c0.7-0.3,0.5-1.6-0.6-2c-1.1-0.4-5.6,0.7-5.6,0.7s0.8-0.4,3-1.5
						c2.3-1.1,2.7-2.1,1.4-2.6c-0.9-0.3-2.7,0.4-6.2,2.7c-2.6,1.8-2.4,2-2.4,2S482.7,448.9,484,447.7z"/>
				</g>
			</g>
		</g>
		<g>
			<g>
				<g>
					<g>
						<path class="st46" d="M863.5,604.9c0,0-5,3.3-7.3,4.6c-2.3,1.3-11.4,2.1-12.2,3s-0.4,3.6,1.1,3.8c1.5,0.2,12.7,0.6,16.3-0.4
							c3.7-1.1,10.7,0.1,12.2-0.6c1.5-0.6,0.1-8.8-0.6-10.6C872.3,602.8,863.5,604.9,863.5,604.9z"/>
					</g>
				</g>
			</g>
			<polygon class="st47" points="872.2,602.4 872.9,604.6 863.5,604.9 863.8,601.8 			"/>
			<g>
				<g>
					<g>
						<path class="st46" d="M917.9,600.3c0,0-3.9,4.7-5.7,6.5c-1.8,1.9-10.3,5.3-10.9,6.4c-0.5,1.1,0.7,3.6,2.2,3.3
							c1.5-0.3,12.4-3.1,15.5-5.2c3.2-2.1,10.2-3.1,11.5-4c1.3-1-2.5-8.5-3.7-10C925.7,595.8,917.9,600.3,917.9,600.3z"/>
					</g>
				</g>
			</g>
			<polygon class="st47" points="925.6,595.5 926.9,597.3 917.9,600.3 917.4,597.3 			"/>
			<g>
				<path class="st9" d="M846.5,412.1c0,0-8.5-4.2-9.2-4c-0.8,0.2-1,0.7-0.2,1.1c0.8,0.4,8.1,4.3,8.1,4.3s-10.8-3.2-11.4-3.2
					c-0.4,0-0.8,1-0.4,1.2c0.4,0.3,11,4.1,11,4.1s-10.1-3-10.6-2.8c-0.5,0.2-0.6,1.1,0.1,1.4c0.8,0.3,9.9,3.6,9.9,3.6
					s-7.5-1.7-7.8-1.2c-0.2,0.3-0.6,1.1,1.3,1.4c1.9,0.4,6.4,1.8,6.4,1.8L846.5,412.1z"/>
			</g>
			<g>
				<g>
					<path class="st9" d="M855.6,418.5c0,0-2.7-1.6-2.6-3.4c0.1-1.6-1-3.7-1.2-4.3c-0.4-0.9-0.8-4-1.8-3.5c-1,0.5,0.3,5.2,0.4,6.2
						c0.1,1-3.5-1.7-4.5-1.6c-1,0.1-4.7,6.6-2,8.1s6.4,1.4,6.9,1.8c0.4,0.4,1.9,1.2,1.9,1.2L855.6,418.5z"/>
				</g>
			</g>
			<g>
				<path class="st28" d="M884.3,439.1c-2,4.4-3.1,4.9-5.5,5.5c-5.1,1.2-29.1-20.5-29.1-20.5l5.2-6.9c0,0,5.9,4.6,10.8,7.9
					c3.1,2.1,9.2,7.1,9.7,6.8s8.7-11.8,9.5-13.4c0.8-1.7,4-14.2,5.9-15.7C890.9,402.9,897.6,410.6,884.3,439.1z"/>
			</g>
			<g>
				<path class="st26" d="M889.9,497.1c0,0,1.8,13.3,3.7,26.1l0,0c0.4,2.4,0.7,4.8,1,7.1l0,0c1.2,8.1,2.3,14.7,2.6,15.8
					c1.2,3.3,17.3,53.4,17.3,53.4s12.6-2.3,13-3.7c0,0-13.7-52.4-13.5-54.3c0.2-1.9-1.7-55.4-1.7-55.4S890.6,494,889.9,497.1z"/>
			</g>
			<g>
				<path class="st26" d="M879.7,480.5c0,0-11.3,54.3-12.3,58.4c-1,4-6.4,65-6.4,65s5.2,0.4,14.2,0c0,0,9.8-61.7,10.8-63.6
					c3.9-7.5,19-44.8,20.9-50c1.9-5.2,5.2-9.8,5.2-9.8S899.1,470.3,879.7,480.5z"/>
			</g>
			<g>
				<path class="st28" d="M904.6,393.7c0,0-11.8,8.7-15.1,12.2c-3.3,3.5-10.2,17.5-9.7,21.9c2.1,16.9,1.4,31.9,0.8,43.4
					c-0.5,8.9-1.4,9.3-0.8,9.5c2.3,0.4,28.2,5.9,32.5,7.2c0,0,1.1-26.5-0.3-30.6C910.7,453.1,916.8,410.4,904.6,393.7z"/>
			</g>
			<g>
				<g>
					<path class="st9" d="M904.6,393.7c0,0-21.6,22.8-20.3,20.2c4.8-9.1,8.1-10.6,8.1-12.3c0-1.3-0.5-5.2-0.5-6.4
						c-0.1-2.4-0.3-4.4-0.3-4.4s10.8-14.6,10.3-9.6S904.6,393.7,904.6,393.7z"/>
				</g>
			</g>
			<g>
				<g>
					<path class="st9" d="M884.9,366.1c0,0-3.1,6.8-3.1,8.4c-0.1,1.6,0.3,2.8,0.1,4.7c-0.3,1.9-2,5.9-1.8,7c0.2,1.3,3.1,0.7,3.4,2.9
						c0.4,2.2,2.3,6.4,3.3,6.5c2.6,0.3,12.8-3.7,13.4-5.7c0.7-2.1,4.5-13.7,5.7-15.9c1.2-2.2-17.5-14.8-19.2-11.3
						C884.9,366.1,884.9,366.1,884.9,366.1z"/>
				</g>
			</g>
			<path class="st48" d="M910.4,371.6c1.4-5.8-5.2-6.6-5.2-6.6s-4.2-5.2-14.7-4.7c-10.4,0.4-9.1,14-9.1,14s7.2-1,10.3-0.1
				c0,0,0.3,5.8-0.1,7.2l3.9-0.3c0,0-0.3-5.2,1.6-5.4s2.3,11,5.8,13.5c0,0,0.1-0.8,0.5-1.6l0,0l0,0c0.7-1.2,1.8-3.3,2.8-5.6
				C907.9,378.7,909.7,374.6,910.4,371.6z"/>
			<g>
				<g>
					<path class="st9" d="M894.6,377c0,0,1.5-3.9,4.9-1.3c2.5,1.9-0.2,8.5-2.7,8.4C894.4,384,893.5,380.4,894.6,377z"/>
				</g>
			</g>
			<path class="st49" d="M900.8,388c0,0-0.5,2.1-1.1,2.6c-0.6,0.5-3.3,2.6-7.9,4l0.4,4.1C892.2,398.6,901.2,395.3,900.8,388z"/>
			<path class="st50" d="M879.4,482.2c0,0,0.2-3.7,0.7-4.7c0,0,19.2,4.9,32.4,6.8c0,0,0.2,2.1-0.1,4.6
				C912.4,489,883.3,483.7,879.4,482.2z"/>
			<g>
				<path class="st51" d="M886,485.2c0,0-0.9,3.2-2.1,3.9c-1.3,0.6,5.7,7.6,5.7,7.6s3-6.3,3-6.9C892.5,489.1,886,485.2,886,485.2z"
					/>
			</g>
			<g>
				<path class="st28" d="M909.6,407.6c0,0,7.7,39.9,8.3,44c0.6,3.9-25.2,40.2-25.2,40.2l-8.3-5.1c0,0,20.9-36.6,20.9-38.2
					c0-1.7-9.1-33.9-9.1-33.9s-3.9-7,3.3-10.3C906.7,401,909.6,407.6,909.6,407.6z"/>
			</g>
			<path class="st26" d="M881.1,487.8c0,0-3,13.5-2.8,17.6c0.1,4.1,15.7-6.2,15-10.4L881.1,487.8z"/>
			<path class="st28" d="M904.6,394.2l-13.6,9.9c0,0-3.5,4.5-7,12.6l22.9-19.1L904.6,394.2z"/>
			<polygon class="st52" points="903.9,391.9 891.9,399.8 890.9,404.6 905.1,394.4 			"/>
			<path class="st26" d="M890.9,404.6c0,0-9.7,18-10,35.2c-0.3,16-0.9,27-0.9,27l-1.6,4.3l-1.3-5.2c0,0,0.3-18.6,0.5-27.1
				c0.3-8.4,4.3-24.3,12.4-35.2L890.9,404.6z"/>
			<path class="st26" d="M890.9,404.6c0,0-0.5,0.4-1.1,0.5c-0.6,0.1-1.5-1,2.1-5.2L890.9,404.6z"/>
			<path class="st44" d="M899.9,428l5.4,20.5l-13.1,24.4c0,0,9.7-20.6,9.4-25.8C901.3,441.8,899.9,428,899.9,428z"/>
			<path class="st53" d="M893.6,523.2L893.6,523.2c0.4,2.4,0.7,4.8,1,7.1c1.9-4.4,8.1-29.2,8.2-29.6L893.6,523.2z"/>
		</g>
		<g>
			<g>
				<path class="st54" d="M299.5,377.4c0,0-2.9-6.3-8.8-3.5c-5.9,2.8-4.9,11.2-2.7,14.8c2.2,3.5,10,8.8,7.4,15.3
					c-2.5,6.4-5.7,11.4-5.7,11.4s15.7-0.7,17.5-9.1C308.9,397.8,299.5,377.4,299.5,377.4z"/>
			</g>
			<path class="st55" d="M330.8,452.8c-0.5-2.3-0.9-2.3-1.1-5.6c-0.3-3.4-0.6-19.4-0.7-21.4c-0.1-2-0.5-11.3-2.6-15.2
				c-2.2-4-9.2-6.4-9.2-6.4s3.7,19.5,3.6,23.6c0,1.2,0.4,3.4,1,6v0.1c0.1,0.5,0.1,1,0.1,1.5c-0.2,1.4-1,2.4-0.5,4.3v1
				c0.1,0.2,0.1,0.4,0.2,0.6c0.7,2.7,1.4,5.7,1.7,7c0.1,0.3,0.1,0.5,0.2,0.6c0.5,1.8-0.1,0.9,0.8,5.3
				C324.1,454.1,331.8,457.2,330.8,452.8z"/>
			<path class="st9" d="M290.9,465.5c0,0-6.1,7.8-7.7,17.2c-1.7,9.3,1,40.6,0.9,45.2c-0.1,4.6-4.3,16.1-3.5,24.8
				c0.9,8.7,8,52.4,8,52.4l5.6-1c0,0-0.7-45.3-0.2-49s1.6-16.9,1.8-18.4c0.2-1.5,13.6-40.9,13.6-47.6S305.4,454.5,290.9,465.5z"/>
			<path class="st9" d="M321.2,468.6c0,0,9.9,37.9,11.1,43.2c1.2,5.3,2.9,9.6,2.9,11.8c0,5.2,2,15.1,2,15.1l10.8,61.1h-6.2
				c0,0-15.4-40-17.1-49c-1.3-7-1.6-15.7-2.6-18.7s-19.3-35.8-19.3-35.8S290.6,457.6,321.2,468.6z"/>
			<path class="st26" d="M335.2,523.6c0,0-23,9.9-57.2,9.9c0,0,1.5-44.6,6.5-55.7c5-11.2,37.5-6.1,37.5-6.1S335.2,514.2,335.2,523.6
				z"/>
			<g>
				<path class="st12" d="M324.8,431.6c-2.6,6-0.2,7.9-1.3,13.9c-1.2,6-1.2,22.2-1,25.6c0.2,3.3-32.3,11.6-39.1,5.5
					c0,0,1.8-6.2,4-12.9c0.3-0.8,0.6-1.7,0.9-2.5c1.1-3.2,2.3-6.3,3.4-8.7c0.7-1.6,1.1-8.5,0.3-10.6c-0.3-0.8-1.9-3.6-3.7-6.7
					c-0.8-1.3-1.6-2.7-2.3-4c-2.1-3.7-4-6.8-4-6.8s-1.9-15.4,2.1-18.5c1.3-1.1,3.8-1.9,6.4-2.5c1-0.3,2-0.5,3-0.6
					c3-0.6,5.6-1,6.4-1.3c1.7-0.6,6.6-0.9,10.1-0.3c0,0,5.3,2.5,7.1,2.8c1.8,0.4,9,9.7,10.3,13C328.6,420.6,327.4,425.7,324.8,431.6
					z"/>
			</g>
			<g>
				<path class="st56" d="M312.5,395.2c0,0-0.1,1.2-0.3,3c-0.1,0.8-0.2,1.7-0.2,2.6c-0.2,2.7-0.4,5.9-0.3,7.4c0,0-5.5,5.5-11.8-6.4
					c0,0,2.6-4.9,0.6-11.7C298.5,383.2,312.5,395.2,312.5,395.2z"/>
			</g>
			<path class="st56" d="M295.6,402.5c0,0,6.7,10.8,14.2,10.4c10.4-0.6,4.9-9.5,4.9-9.5s-2.6-1.5-3.3-1.6
				c-0.8-0.2-11.5-0.3-11.5-0.3L295.6,402.5z"/>
			<g>
				<path class="st12" d="M291.6,404.5c0,0-6.9-1.2-10.7,5c-4.3,7.1-4.3,10.3-4.9,13.9c-0.6,3.4-2.7,8.8-3,9.8
					c-0.3,1-5.3,10.6-3.2,14.7c2.1,4.1,22,7.1,22.2,8c0.2,0.5,2.4-7,2.4-7s-2.9-0.6-5.7-1.6c-3.4-1.1-6.9-3.3-6.4-5
					c1-3.9,4.5-12.7,5.5-14.6C288.6,425.8,297.1,407.1,291.6,404.5z"/>
			</g>
			<path class="st13" d="M342.8,599.1c0,0,2.1-1.9,3.2-2.1c1.1-0.2,2.1-0.2,2.6,0.3c0.4,0.5,1.8,2.6,2.5,3.2c0.7,0.6,5.7,5.5,7,5.9
				c1.2,0.3,6.4,0.1,6.1,3.1c-0.3,3-4.5,4.3-12,3.7c-7.5-0.7-6.6-2.5-10.8-3.3c-4.2-0.9-4.5-3-3.8-5.6s3.7-5.1,3.4-5.8
				C340.6,597.7,342.8,599.1,342.8,599.1z"/>
			<path class="st13" d="M289.7,604.6c0,0,2.4-1.1,4-1c1.6,0.1,1.4,1,1.8,1.6c0.4,0.6,4.2,6.3,5.2,7.3c1,1,4.7,2.1,4.2,4.7
				c-0.5,2.6-5.2,3.6-10.8,2.8c-5.7-0.8-8.5-6.1-9.4-7.2s2.1-8.9,3.1-9.5C288.7,602.8,289.7,604.6,289.7,604.6z"/>
			<path class="st57" d="M327.4,423.9c0,0-1.5,5.4-2.7,8.2c-1.2,2.7-1,6-0.9,8.1c0.1,2,0.1,4.4-0.6,7.8c0,0,0.1,2.8,0.6,2.8
				C323.8,450.7,326.4,443.5,327.4,423.9z"/>
			<g>
				<path class="st58" d="M295,374.3c0,0-3.3,1.6-3.1,6.4c0.2,4.8,4.9,8.5,6.9,7.5C300.8,387.2,295,374.3,295,374.3z"/>
			</g>
			<g>
				<path class="st56" d="M315.7,367c0,0,6.3,4.2,5.8,13s-3.5,17.7-5.3,18.4c-1.8,0.8-9.6-2.1-11.1-2.9c-1.7-0.9-4.7-4.2-5.3-5.3
					c-0.6-1-7-15-0.8-20.4C305.1,364.6,308.3,364.4,315.7,367z"/>
			</g>
			<g>
				<path class="st54" d="M310.6,377.5c0,0,5.4,2,10.9,1.5c0,0,1.8-15.6-13.9-15.6s-13.3,15.6-13,17.7c0.3,2.1,3.2,9.7,6.5,11.5
					c0,0-1.2-8.1,1-9.5C304.4,381.7,309.4,380,310.6,377.5z"/>
			</g>
			<g>
				<path class="st56" d="M305.4,381.5c-0.3-1.8-2-3.4-3.9-1.6s1.3,6.3,2.7,6.1C305.6,385.7,305.8,383.8,305.4,381.5z"/>
			</g>
			<path class="st59" d="M312.2,398.1c-0.1,0.8-0.2,1.7-0.2,2.6c-5.3-1.9-7.5-5.5-7.5-5.5C305.9,396.3,312.2,398.1,312.2,398.1z"/>
			<g>
				
					<ellipse transform="matrix(0.9059 -0.4234 0.4234 0.9059 -144.0728 178.612)" class="st60" cx="330" cy="413.6" rx="48.2" ry="48.1"/>
				<path class="st60" d="M352.9,455.9l-40.7-87c23.5-9.3,50.5,1.2,61.4,24.4C384.5,416.4,375.2,443.9,352.9,455.9z"/>
				<path class="st60" d="M286.4,434c-9.6-20.4-3.5-44.1,13.2-57.7l39.5,84.6C317.9,465,295.9,454.4,286.4,434z"/>
				
					<ellipse transform="matrix(0.9059 -0.4234 0.4234 0.9059 -144.0754 178.6102)" class="st61" cx="330" cy="413.6" rx="36.6" ry="36.6"/>
				<g>
					<path class="st62" d="M325.7,429.1c0.4,0.2,1,0.3,1.8,0.4c0.8,0.1,1.6,0.2,2.5,0.2s1.8-0.1,2.8-0.3c1-0.2,2-0.4,3-0.8l-4.7-10
						l-1,0.2c-1.9,0.4-3.7,0.6-5.4,0.8c-1.7,0.2-3.1,0.1-4.5-0.2s-2.5-0.9-3.5-1.7c-1-0.9-1.9-2-2.6-3.6c-0.8-1.7-1.2-3.3-1.1-4.8
						c0.1-1.5,0.4-2.9,1.1-4.2c0.7-1.3,1.7-2.5,3-3.6c1.2-1.1,2.7-2,4.3-2.8l-2.4-5.1l2.5-1.2l2.4,5.2c2.4-0.9,4.8-1.5,7.3-1.7
						c2.5-0.2,4.9-0.1,7.2,0.5l-0.3,5.8c-0.5-0.2-1.2-0.4-2.1-0.5c-0.9-0.2-1.9-0.2-3-0.2c-1.1,0-2.3,0.1-3.5,0.3
						c-1.2,0.2-2.5,0.5-3.7,0.9l4.7,10c0.2,0,0.4-0.1,0.7-0.1c0.2-0.1,0.5-0.1,0.7-0.1c1.9-0.3,3.7-0.6,5.2-0.6c1.5-0.1,2.8,0,4,0.3
						c1.2,0.3,2.2,0.9,3.1,1.6c0.9,0.8,1.6,1.8,2.3,3.2c0.8,1.6,1.1,3.1,1.1,4.6c0,1.5-0.3,2.9-0.9,4.2c-0.6,1.3-1.4,2.6-2.5,3.7
						c-1.1,1.1-2.4,2.1-4,3l2.3,4.9l-2.5,1.2l-2.3-4.9c-2.1,0.9-4.3,1.3-6.4,1.4c-2.1,0.1-4.1,0-5.9-0.4L325.7,429.1z M341.1,420.3
						c-0.6-1.3-1.6-2.1-2.8-2.4c-1.3-0.2-3-0.2-5.2,0.2l4.5,9.6c1.9-1,3.2-2.1,3.7-3.4C341.8,423.1,341.8,421.7,341.1,420.3z
						 M319.6,410.8c0.6,1.4,1.7,2.3,3.2,2.4c1.4,0.2,3.3,0.1,5.6-0.3l-4.5-9.6c-2,1-3.4,2.1-4.2,3.4C319,408,319,409.4,319.6,410.8z
						"/>
				</g>
				<path class="st63" d="M359.6,451.6c17.3-13.5,23.7-37.6,14-58.4c-9.7-20.7-32.3-31.4-53.8-26.7L359.6,451.6z"/>
				<path class="st63" d="M339.1,460.9l-39.5-84.6c3-2.5,6.3-4.6,10-6.3c0.9-0.4,1.8-0.8,2.6-1.1l40.7,87c-0.9,0.4-1.7,0.9-2.6,1.3
					C346.7,458.9,342.9,460.1,339.1,460.9z"/>
			</g>
			<path class="st9" d="M369.4,437.2c0,0,3.5,2.6,2.6,5.3c-0.9,2.7-3.2,4.8-4.5,5.4c-1.3,0.6-4.7,2.2-5.1,0.6
				C361.3,443.2,369.4,437.2,369.4,437.2z"/>
			<path class="st9" d="M371.3,439.7c0,0,2.1-2.7,1-3.2s-2.1,1.8-2.1,1.8L371.3,439.7z"/>
			<g>
				<path class="st56" d="M293.1,448.9c0,0-2.9,0.5-2.5,1.7c0.4,1.2,1,2.7,1,2.7L293.1,448.9z"/>
				<path class="st9" d="M312.7,457.9l-11.3-5.3c1.2-0.1,3.3-0.4,3.2-1.1c-0.2-0.9-4.1-0.9-5.5-1.3c-1.2-0.4-3.2-0.3-3.4-0.3
					l-2.8-1.3l-1.3,4.5c0,0,5.7,3.4,7.4,4.3c2.7,1.5,12.9,2,13.3,1.6C312.9,458.3,312.7,457.9,312.7,457.9z"/>
			</g>
			<path class="st12" d="M294.3,448.9c0,0-1.1,5.7-2.9,8.1c0,0-11.9-4.3-14.9-5.4l7.4-6.6C283.9,445,288,447.5,294.3,448.9z"/>
		</g>
	</g>
</g>
</svg>
