<?xml version="1.0" encoding="utf-8"?>
<!-- Generator: Adobe Illustrator 21.0.0, SVG Export Plug-In . SVG Version: 6.00 Build 0)  -->
<svg version="1.1" id="Layer_1" xmlns="http://www.w3.org/2000/svg" xmlns:xlink="http://www.w3.org/1999/xlink" x="0px" y="0px"
	 viewBox="0 0 336 334" style="enable-background:new 0 0 336 334;" xml:space="preserve">
<style type="text/css">
	.st0{opacity:0.9;fill:#B2B4B4;}
	.st1{fill:#FFFFFF;}
	.st2{opacity:0.9;fill:#99999A;}
	.st3{fill:#D3AE6C;}
	.st4{fill:#B79259;}
	.st5{opacity:0.76;fill:#D3AE6C;}
	.st6{opacity:0.9;fill:#D3AE6C;}
	.st7{opacity:0.28;fill:#D3AE6C;}
	.st8{opacity:0.9;}
	.st9{fill:#868686;}
	.st10{fill:#BE985B;}
	.st11{fill:#BE9657;}
	.st12{opacity:0.9;fill:#EACA95;}
	.st13{fill:#383838;}
	.st14{fill:#B2B4B4;}
</style>
<g>
	<rect x="136.4" y="166.7" class="st0" width="18.3" height="67.1"/>
	<rect x="147.3" y="166.7" class="st0" width="7.4" height="67.1"/>
	<rect x="137.2" y="168.9" class="st1" width="0.8" height="64.8"/>
	<rect x="138.9" y="168.9" class="st1" width="0.8" height="64.8"/>
	<rect x="140.6" y="168.9" class="st1" width="0.8" height="64.8"/>
	<rect x="142.4" y="168.9" class="st1" width="0.8" height="64.8"/>
	<rect x="144.1" y="168.9" class="st1" width="0.8" height="64.8"/>
	<rect x="145.8" y="168.9" class="st1" width="0.8" height="64.8"/>
	<rect x="148" y="168.9" class="st1" width="0.8" height="64.8"/>
	<rect x="149.7" y="168.9" class="st1" width="0.8" height="64.8"/>
	<rect x="151.4" y="168.9" class="st1" width="0.8" height="64.8"/>
	<rect x="153.1" y="168.9" class="st1" width="0.8" height="64.8"/>
	<rect x="138.2" y="165.6" class="st2" width="3.1" height="1.1"/>
	<rect x="142.8" y="165.6" class="st2" width="3.1" height="1.1"/>
	<rect x="235.6" y="189.6" class="st3" width="10.2" height="44.2"/>
	<rect x="245.7" y="189.6" class="st4" width="4.2" height="44.2"/>
	<rect x="235.6" y="191.9" class="st1" width="14.3" height="1.1"/>
	<rect x="235.6" y="194.6" class="st1" width="14.3" height="1.1"/>
	<rect x="235.6" y="197.4" class="st1" width="14.3" height="1.1"/>
	<rect x="235.6" y="200.1" class="st1" width="14.3" height="1.1"/>
	<rect x="235.6" y="202.9" class="st1" width="14.3" height="1.1"/>
	<rect x="235.6" y="205.6" class="st1" width="14.3" height="1.1"/>
	<rect x="235.6" y="208.4" class="st1" width="14.3" height="1.1"/>
	<rect x="235.6" y="211.1" class="st1" width="14.3" height="1.1"/>
	<rect x="235.6" y="213.9" class="st1" width="14.3" height="1.1"/>
	<rect x="235.6" y="216.6" class="st1" width="14.3" height="1.1"/>
	<rect x="235.6" y="219.4" class="st1" width="14.3" height="1.1"/>
	<rect x="235.6" y="222.1" class="st1" width="14.3" height="1.1"/>
	<rect x="235.6" y="224.9" class="st1" width="14.3" height="1.1"/>
	<rect x="235.6" y="227.6" class="st1" width="14.3" height="1.1"/>
	<rect x="235.6" y="230.4" class="st1" width="14.3" height="1.1"/>
	<rect x="162.2" y="109" class="st5" width="3.6" height="17.6"/>
	<rect x="163.6" y="109" class="st6" width="2.2" height="17.6"/>
	<path class="st5" d="M169.7,233.8h2.8V175c-0.6-0.8-1.6-1.3-2.8-1.3V233.8z"/>
	<path class="st6" d="M172.5,233.8h2.8v-35.2c-0.6-0.8-1.6-1.3-2.8-1.3V233.8z"/>
	<path class="st5" d="M175.3,233.8h2.8v-15.6c-0.6-0.8-1.6-1.3-2.8-1.3V233.8z"/>
	<rect x="163.7" y="99.3" class="st6" width="0.6" height="9.7"/>
	<path class="st7" d="M172.5,205.5v2.5c1.1,0,2.2,0.5,2.8,1.3v-2.5C174.7,206.1,173.6,205.5,172.5,205.5z"/>
	<path class="st7" d="M169.7,181.4v2.5c1.1,0,2.2,0.5,2.8,1.3v-2.5C171.9,182,170.9,181.4,169.7,181.4z"/>
	<rect x="169.7" y="205.5" class="st7" width="2.8" height="2.5"/>
	<rect x="82.5" y="233.8" class="st0" width="171.1" height="0.9"/>
	<polygon class="st5" points="168.1,147.6 163.6,147.6 163.6,126.2 168.1,127 	"/>
	<polygon class="st6" points="163.6,139.6 160.8,139.6 160.8,123.1 163.6,122.4 	"/>
	<path class="st5" d="M166.4,233.8h-5.5v-98.1c1.1-0.6,4.1-1.2,5.5-0.4V233.8z"/>
	<path class="st7" d="M166.4,137.7v-2.4c-1.4-0.8-4.4-0.3-5.5,0.4v2.4C162.3,137.6,164.7,137.3,166.4,137.7z"/>
	<path class="st7" d="M166.4,155.8v-2.4c-1.4-0.8-4.4-0.3-5.5,0.4v2.4C162.3,155.7,164.7,155.4,166.4,155.8z"/>
	<path class="st6" d="M166.4,233.8h3.4v-85.6c-0.8-0.8-2-1.3-3.4-1.3V233.8z"/>
	<path class="st7" d="M166.4,153.3v2.5c1.4,0,2.6,0.5,3.4,1.3v-2.5C169,153.9,167.7,153.3,166.4,153.3z"/>
	<path class="st7" d="M166.4,180.1v2.5c1.4,0,2.6,0.5,3.4,1.3v-2.5C169,180.7,167.7,180.1,166.4,180.1z"/>
	<path class="st6" d="M165,233.8h-4.9v-68c1-0.6,3.6-1.2,4.9-0.4V233.8z"/>
	<path class="st5" d="M163.6,233.8h-4.3v-43c0.9-0.6,3.2-1.2,4.3-0.4V233.8z"/>
	<path class="st6" d="M162.2,233.8h-4.3V212c0.9-0.6,3.2-1.2,4.3-0.4V233.8z"/>
	<path class="st7" d="M165,182.5v-2.4c-1.2-0.8-3.9-0.3-4.9,0.4v2.4C161.5,182.4,163.6,182.2,165,182.5z"/>
	<polygon class="st7" points="166.4,182.6 165,182.5 165,180.1 166.4,180.1 	"/>
	<path class="st7" d="M166.4,204.2v2.5c1.4,0,2.6,0.5,3.4,1.3v-2.5C169,204.8,167.7,204.2,166.4,204.2z"/>
	<path class="st7" d="M163.6,206.6v-2.4c-1.1-0.8-3.4-0.3-4.3,0.4v2.4C160.5,206.5,162.3,206.3,163.6,206.6z"/>
	<rect x="165" y="204.2" class="st7" width="1.3" height="2.5"/>
	<polygon class="st7" points="165,206.7 163.6,206.6 163.6,204.2 165,204.2 	"/>
	<polygon class="st6" points="166.4,147.6 168.1,147.6 168.1,127 166.4,126.7 	"/>
	<path class="st7" d="M168.1,135.5c-0.5-0.2-1.1-0.3-1.7-0.3v2.4c0.6,0,1.2,0.1,1.7,0.3V135.5z"/>
	<polygon class="st0" points="183.9,172.3 183.9,233.8 197.1,233.8 197.1,158.8 	"/>
	<g class="st8">
		<rect x="185.1" y="174.9" class="st9" width="0.7" height="58.9"/>
		<rect x="186.8" y="174.9" class="st9" width="0.7" height="58.9"/>
		<rect x="188.4" y="174.9" class="st9" width="0.7" height="58.9"/>
		<rect x="190.1" y="174.9" class="st9" width="0.7" height="58.9"/>
		<rect x="191.8" y="174.9" class="st9" width="0.7" height="58.9"/>
		<rect x="193.5" y="174.9" class="st9" width="0.7" height="58.9"/>
		<rect x="195.1" y="174.9" class="st9" width="0.7" height="58.9"/>
	</g>
	<polygon class="st5" points="197.1,158.8 197.1,148.5 196.4,148.5 196.4,154.5 194.5,156.3 194.5,161.4 	"/>
	<polygon class="st3" points="230,182.3 230,233.8 218.9,233.8 218.9,171 	"/>
	<g>
		
			<rect x="228.4" y="184.5" transform="matrix(-1 -1.224647e-16 1.224647e-16 -1 457.3116 418.2195)" class="st10" width="0.6" height="49.3"/>
		
			<rect x="227" y="184.5" transform="matrix(-1 -1.224647e-16 1.224647e-16 -1 454.5181 418.2195)" class="st10" width="0.6" height="49.3"/>
		
			<rect x="225.6" y="184.5" transform="matrix(-1 -1.224647e-16 1.224647e-16 -1 451.7242 418.2195)" class="st10" width="0.6" height="49.3"/>
		
			<rect x="224.2" y="184.5" transform="matrix(-1 -1.224647e-16 1.224647e-16 -1 448.9307 418.2195)" class="st10" width="0.6" height="49.3"/>
		
			<rect x="222.8" y="184.5" transform="matrix(-1 -1.224647e-16 1.224647e-16 -1 446.137 418.2195)" class="st10" width="0.6" height="49.3"/>
		
			<rect x="221.4" y="184.5" transform="matrix(-1 -1.224647e-16 1.224647e-16 -1 443.3433 418.2195)" class="st10" width="0.6" height="49.3"/>
		
			<rect x="220" y="184.5" transform="matrix(-1 -1.224647e-16 1.224647e-16 -1 440.5497 418.2195)" class="st10" width="0.6" height="49.3"/>
	</g>
	<polygon class="st4" points="218.9,171 218.9,162.4 219.5,162.4 219.5,167.4 221.1,168.9 221.1,173.2 	"/>
	<path class="st6" d="M200.4,181.6h9.1c3.1,7.4,8.1,32.7,8.1,45.5h-17.2V181.6z"/>
	<path class="st3" d="M217.3,221.6c-1-13.6-5.1-33.5-7.8-39.9h-7.1C205.1,204.9,210.9,221.6,217.3,221.6z"/>
	<g>
		<path class="st10" d="M200.4,208.7v1H217c-0.1-0.3-0.1-0.7-0.2-1H200.4z"/>
		<path class="st10" d="M200.4,211.2v1h16.9c0-0.3-0.1-0.7-0.1-1H200.4z"/>
		<path class="st10" d="M200.4,206.1v1h16.2c-0.1-0.3-0.1-0.7-0.2-1H200.4z"/>
		<path class="st10" d="M218.1,218.8h-17.7v1h17.8C218.2,219.5,218.2,219.1,218.1,218.8z"/>
		<path class="st10" d="M200.4,203.6v1h15.7c-0.1-0.3-0.1-0.7-0.2-1H200.4z"/>
		<path class="st10" d="M200.4,213.7v1h17.2c0-0.3-0.1-0.7-0.1-1H200.4z"/>
		<path class="st10" d="M200.4,216.3v1H218c0-0.3-0.1-0.7-0.1-1H200.4z"/>
		<path class="st10" d="M200.4,193.5v1h13.8c-0.1-0.3-0.2-0.7-0.2-1H200.4z"/>
		<path class="st10" d="M200.4,188.4v1H213c-0.1-0.3-0.2-0.7-0.3-1H200.4z"/>
		<path class="st10" d="M200.4,201.1v1h15.3c-0.1-0.3-0.1-0.7-0.2-1H200.4z"/>
		<path class="st10" d="M200.4,183.4v1h11.2c-0.1-0.4-0.2-0.7-0.3-1H200.4z"/>
		<path class="st10" d="M200.4,185.9v1h11.9c-0.1-0.4-0.2-0.7-0.3-1H200.4z"/>
		<path class="st10" d="M200.4,191v1h13.2c-0.1-0.3-0.2-0.7-0.2-1H200.4z"/>
		<path class="st10" d="M200.4,198.6v1h14.8c-0.1-0.3-0.1-0.7-0.2-1H200.4z"/>
		<path class="st10" d="M200.4,196v1h14.3c-0.1-0.3-0.1-0.7-0.2-1H200.4z"/>
	</g>
	<circle class="st3" cx="205.1" cy="176.9" r="3.2"/>
	<path class="st3" d="M199.2,178.7v55h21.6V226c-6.6,0-19.9-2.4-19.9-47.2H199.2z"/>
	<polygon class="st3" points="207.4,179.6 205.1,179.6 202.9,179.6 201.5,181.6 205.1,181.6 208.8,181.6 	"/>
	<rect x="87.3" y="205.1" class="st6" width="15.5" height="28.7"/>
	<rect x="102.8" y="205.1" class="st11" width="6.4" height="28.7"/>
	<polygon class="st1" points="89.6,206.3 89.6,233.8 90.4,233.8 90.4,207.2 106.1,207.2 106.1,233.8 106.8,233.8 106.8,206.3 	"/>
	<rect x="90.4" y="210.6" class="st1" width="15.7" height="1"/>
	<rect x="90.4" y="212.8" class="st1" width="15.7" height="1"/>
	<rect x="90.4" y="214.9" class="st1" width="15.7" height="1"/>
	<rect x="90.4" y="217" class="st1" width="15.7" height="1"/>
	<rect x="90.4" y="219.2" class="st1" width="15.7" height="1"/>
	<rect x="90.4" y="221.3" class="st1" width="15.7" height="1"/>
	<rect x="90.4" y="223.4" class="st1" width="15.7" height="1"/>
	<rect x="90.4" y="225.5" class="st1" width="15.7" height="1"/>
	<rect x="90.4" y="227.7" class="st1" width="15.7" height="1"/>
	<rect x="90.4" y="229.8" class="st1" width="15.7" height="1"/>
	<rect x="90.4" y="231.9" class="st1" width="15.7" height="1"/>
	<path class="st1" d="M92.7,210.6h-0.4v-3.4h0.4V210.6z M95,207.2h-0.4v3.4H95V207.2z M97.3,207.2h-0.4v3.4h0.4V207.2z M99.6,207.2
		h-0.4v3.4h0.4V207.2z M101.9,207.2h-0.4v3.4h0.4V207.2z M104.1,207.2h-0.4v3.4h0.4V207.2z"/>
	<rect x="113.7" y="190.6" class="st12" width="17.9" height="43.2"/>
	<rect x="126.3" y="190.6" class="st12" width="5.2" height="43.2"/>
	<rect x="115.7" y="190.6" class="st6" width="0.7" height="43.2"/>
	<rect x="122.3" y="190.6" class="st6" width="0.7" height="43.2"/>
	<rect x="128.9" y="190.6" class="st6" width="0.7" height="43.2"/>
	<rect x="113.7" y="192" class="st6" width="17.9" height="0.8"/>
	<rect x="113.7" y="194.4" class="st6" width="17.9" height="0.8"/>
	<rect x="113.7" y="196.9" class="st6" width="17.9" height="0.8"/>
	<rect x="113.7" y="199.4" class="st6" width="17.9" height="0.8"/>
	<rect x="113.7" y="201.8" class="st6" width="17.9" height="0.8"/>
	<rect x="113.7" y="204.3" class="st6" width="17.9" height="0.8"/>
	<rect x="113.7" y="206.7" class="st6" width="17.9" height="0.8"/>
	<rect x="113.7" y="209.2" class="st6" width="17.9" height="0.8"/>
	<rect x="113.7" y="211.7" class="st6" width="17.9" height="0.8"/>
	<rect x="113.7" y="214.1" class="st6" width="17.9" height="0.8"/>
	<rect x="113.7" y="216.6" class="st6" width="17.9" height="0.8"/>
	<rect x="113.7" y="219" class="st6" width="17.9" height="0.8"/>
	<rect x="113.7" y="221.5" class="st6" width="17.9" height="0.8"/>
	<rect x="113.7" y="224" class="st6" width="17.9" height="0.8"/>
	<rect x="113.7" y="226.4" class="st6" width="17.9" height="0.8"/>
	<rect x="113.7" y="228.9" class="st6" width="17.9" height="0.8"/>
	<rect x="113.7" y="231.3" class="st6" width="17.9" height="0.8"/>
	<rect x="115.7" y="172.1" class="st12" width="13.9" height="18.5"/>
	<rect x="125.5" y="172.1" class="st12" width="4.1" height="18.5"/>
	<rect x="117.2" y="172.1" class="st6" width="0.5" height="18.5"/>
	<rect x="122.3" y="172.1" class="st6" width="0.5" height="18.5"/>
	<rect x="127.5" y="172.1" class="st6" width="0.5" height="18.5"/>
	<rect x="115.7" y="173.5" class="st6" width="13.9" height="0.8"/>
	<rect x="115.7" y="175.9" class="st6" width="13.9" height="0.8"/>
	<rect x="115.7" y="178.4" class="st6" width="13.9" height="0.8"/>
	<rect x="115.7" y="180.8" class="st6" width="13.9" height="0.8"/>
	<rect x="115.7" y="183.3" class="st6" width="13.9" height="0.8"/>
	<rect x="115.7" y="185.8" class="st6" width="13.9" height="0.8"/>
	<rect x="115.7" y="188.2" class="st6" width="13.9" height="0.8"/>
	<rect x="117.2" y="158.6" class="st12" width="10.9" height="13.6"/>
	<rect x="124.9" y="158.6" class="st12" width="3.2" height="13.6"/>
	<rect x="118.4" y="158.6" class="st6" width="0.4" height="13.6"/>
	<rect x="122.4" y="158.6" class="st6" width="0.4" height="13.6"/>
	<rect x="126.4" y="158.6" class="st6" width="0.4" height="13.6"/>
	<rect x="117.2" y="159.9" class="st6" width="10.9" height="0.8"/>
	<rect x="117.2" y="162.3" class="st6" width="10.9" height="0.8"/>
	<rect x="117.2" y="164.8" class="st6" width="10.9" height="0.8"/>
	<rect x="117.2" y="167.3" class="st6" width="10.9" height="0.8"/>
	<rect x="117.2" y="169.7" class="st6" width="10.9" height="0.8"/>
</g>
<path class="st13" d="M318,167.1c0-20.2-4-39.9-11.8-58.4c-7.6-17.9-18.4-33.9-32.1-47.7c-13.8-13.8-29.8-24.6-47.7-32.1
	c-18.5-7.8-38.2-11.8-58.4-11.8s-39.9,4-58.4,11.8c-17.9,7.6-33.9,18.4-47.7,32.1c-13.8,13.8-24.6,29.8-32.1,47.7
	C22,127.3,18,146.9,18,167.1c0,2.5,0.1,5,0.2,7.5h55.1c-0.2-2.5-0.3-5-0.3-7.5c0-52.4,42.6-95,95-95s95,42.6,95,95
	c0,2.5-0.1,5-0.3,7.5h55.1C317.9,172.1,318,169.7,318,167.1z"/>
<path class="st0" d="M160.5,86.4V4c-19.4,0.9-38.2,5.1-56.1,12.7c-19.5,8.2-36.9,20-51.9,35s-26.8,32.4-35,51.9
	C10,121.4,5.7,140.3,4.9,159.7h82.4C90.8,120.9,121.8,90,160.5,86.4z"/>
<path class="st6" d="M248.7,159.7h82.4c-0.9-19.4-5.1-38.2-12.7-56.1c-8.2-19.5-20-36.9-35-51.9c-15-15-32.4-26.8-51.9-35
	C213.7,9.1,194.9,4.9,175.5,4v82.4C214.2,90,245.2,120.9,248.7,159.7z"/>
<g>
	<path class="st13" d="M73.3,174.6H18.2c0.9,17.6,4.8,34.7,11.6,50.9c7.6,17.9,18.4,33.9,32.1,47.7c13.8,13.8,29.8,24.6,47.7,32.1
		c16.2,6.9,33.3,10.8,50.9,11.6v-55.1C114.1,258.2,76.9,221.1,73.3,174.6z"/>
	<path class="st13" d="M168,262.1c-2.5,0-5-0.1-7.5-0.3V317c2.5,0.1,5,0.2,7.5,0.2s5-0.1,7.5-0.2v-55.1
		C173,262,170.5,262.1,168,262.1z"/>
	<path class="st13" d="M274.1,273.2c13.8-13.8,24.6-29.8,32.1-47.7c6.9-16.2,10.8-33.3,11.6-50.9h-55.1
		c-3.6,46.4-40.8,83.6-87.2,87.2V317c17.6-0.9,34.7-4.8,50.9-11.6C244.3,297.8,260.3,287,274.1,273.2z"/>
</g>
<g>
	<path class="st14" d="M262.7,174.6h-14c-3.6,38.7-34.5,69.7-73.3,73.3v14C221.9,258.2,259.1,221.1,262.7,174.6z"/>
	<g>
		<path class="st0" d="M317.5,174.3c-0.9,17.6-4.8,34.7-11.6,50.9c-7.6,17.9-18.4,33.9-32.1,47.7c-13.8,13.8-29.8,24.6-47.7,32.1
			c-16.2,6.9-33.3,10.8-50.9,11.6V330c19.4-0.9,38.2-5.1,56.1-12.7c19.5-8.2,36.9-20,51.9-35c15-15,26.8-32.4,35-51.9
			c7.6-17.9,11.8-36.7,12.7-56.1H317.5z"/>
		<path class="st0" d="M273.8,272.9c13.8-13.8,24.6-29.8,32.1-47.7c6.9-16.2,10.8-33.3,11.6-50.9h-55.1
			c-3.6,46.4-40.8,83.6-87.2,87.2v55.1c17.6-0.9,34.7-4.8,50.9-11.6C244,297.5,260,286.7,273.8,272.9z"/>
	</g>
</g>
<g>
	<path class="st3" d="M160.5,261.8v-14c-38.7-3.6-69.7-34.5-73.3-73.3h-14C76.9,221.1,114.1,258.2,160.5,261.8z"/>
	<g>
		<path class="st6" d="M62.2,272.9c-13.8-13.8-24.6-29.8-32.1-47.7c-6.9-16.2-10.8-33.3-11.6-50.9H5.1c0.9,19.4,5.1,38.2,12.7,56.1
			c8.2,19.5,20,36.9,35,51.9c15,15,32.4,26.8,51.9,35c17.9,7.6,36.7,11.8,56.1,12.7v-13.3c-17.6-0.9-34.7-4.8-50.9-11.6
			C92,297.5,76,286.7,62.2,272.9z"/>
		<path class="st6" d="M73.6,174.3H18.5c0.9,17.6,4.8,34.7,11.6,50.9c7.6,17.9,18.4,33.9,32.1,47.7c13.8,13.8,29.8,24.6,47.7,32.1
			c16.2,6.9,33.3,10.8,50.9,11.6v-55.1C114.4,257.9,77.2,220.8,73.6,174.3z"/>
	</g>
</g>
<g>
	<g>
		<path class="st1" d="M145,280.3l3.5,16.3l-3.4-0.7l-2.6-13l1,0.2l-7.7,10.8l-3.3-0.7l9.9-13.4L145,280.3z"/>
		<path class="st1" d="M134.9,277.9l3.2,1.1l-11.6,12.1l-2.5-0.9l-1.6-16.7l3.1,1.1l1,13.6l-0.8-0.3L134.9,277.9z M134,281.2l-2,2
			l-7.2-2.5l-0.4-2.8L134,281.2z"/>
		<path class="st1" d="M120.1,272.3l-5.4,11.3l4.3,2l-1.2,2.5l-11.7-5.5l1.2-2.5l4.3,2l5.4-11.3L120.1,272.3z"/>
		<path class="st1" d="M106.6,265.1l-8.6,12.5l-8.6-6l1.5-2.1l5.9,4.1l2-3l-5.6-3.8l1.5-2.1l5.6,3.8l2.2-3.2l-5.9-4.1l1.5-2.1
			L106.6,265.1z"/>
		<path class="st1" d="M95,256.7l2.9,2.5l-7.1,1.3L88,261l-3.7,0.8l-2.9-2.5l6.7-1.2l2.9-0.5L95,256.7z M91.1,253.3l-0.2,4.2
			l-0.1,2.9l-0.1,6.8l-2.9-2.5L88,261l0-2.9l0.1-7.2L91.1,253.3z"/>
		<path class="st1" d="M80.6,244.5c0.7,0.1,1.3,0.3,2,0.7c0.7,0.4,1.3,0.8,1.8,1.4c0.8,0.9,1.4,1.8,1.7,2.7s0.3,1.9,0,2.8
			c-0.3,0.9-0.8,1.8-1.7,2.6c-0.8,0.8-1.7,1.3-2.6,1.6c-0.9,0.3-1.8,0.3-2.7,0c-0.9-0.2-1.7-0.7-2.4-1.5c-0.7-0.7-1.1-1.5-1.3-2.4
			c-0.2-0.8-0.1-1.7,0.2-2.6c0.3-0.9,0.9-1.7,1.7-2.5l0.3-0.3l5.1,5.3l-1.2,1.1l-3.8-3.9l1.1,0.1c-0.7,0.6-1,1.2-1.1,1.8
			c-0.1,0.6,0.1,1.1,0.6,1.6c0.5,0.5,1.1,0.8,1.8,0.7c0.7-0.1,1.4-0.5,2.1-1.2c0.9-0.8,1.3-1.6,1.4-2.3c0.1-0.7-0.3-1.4-0.9-2.1
			c-0.4-0.4-0.9-0.8-1.4-1c-0.5-0.3-1.1-0.5-1.6-0.6L80.6,244.5z"/>
		<path class="st1" d="M80.1,242.5l-6.2,4.6c-0.4,0.3-0.8,0.6-1.2,0.9c-0.4,0.3-0.8,0.7-1.2,1l-1.8-2.4l1.6-1.4l0.1,0.2
			c-0.8,0.2-1.5,0.2-2.2-0.1c-0.7-0.3-1.3-0.7-1.8-1.4c-0.6-0.8-0.8-1.6-0.8-2.3c0.1-0.8,0.5-1.5,1.2-2.3l-0.2,0.8
			c-0.8,0.2-1.6,0.1-2.3-0.1c-0.8-0.3-1.4-0.8-1.9-1.5c-0.7-1-1-2-0.7-2.9c0.3-0.9,1-1.8,2.2-2.8l5.3-3.9l1.9,2.6l-5.2,3.8
			c-0.6,0.4-1,0.9-1.1,1.3c-0.1,0.4,0,0.8,0.3,1.3c0.4,0.5,0.9,0.8,1.5,0.8c0.6,0,1.2-0.2,1.9-0.7l4.8-3.5L76,237l-5.2,3.8
			c-0.6,0.4-1,0.9-1.1,1.3c-0.1,0.4,0,0.8,0.3,1.3c0.4,0.5,0.9,0.8,1.5,0.8c0.6,0,1.2-0.2,1.9-0.7l4.8-3.5L80.1,242.5z"/>
		<path class="st1" d="M73.1,224.8l-10.9,5.9c-0.5,0.2-0.9,0.5-1.3,0.8c-0.4,0.3-0.9,0.6-1.3,0.9l-1.5-2.7l1.7-1.2l0.1,0.1
			c-0.7,0.1-1.5,0-2.2-0.3s-1.2-1-1.7-1.7c-0.4-0.8-0.6-1.7-0.6-2.5s0.4-1.7,1-2.5s1.3-1.4,2.3-2c1-0.5,2-0.8,2.9-0.9
			c0.9,0,1.8,0.1,2.5,0.6c0.7,0.4,1.3,1,1.8,1.9c0.4,0.8,0.6,1.6,0.6,2.3c0,0.8-0.3,1.4-0.9,2l-0.5,0l6.3-3.4L73.1,224.8z
			 M64.4,223.1c-0.4-0.7-0.9-1.1-1.6-1.2c-0.7-0.1-1.5,0.1-2.3,0.5c-0.9,0.5-1.5,1.1-1.8,1.7c-0.3,0.7-0.3,1.3,0.1,2
			c0.4,0.7,0.9,1.1,1.6,1.2c0.7,0.1,1.5-0.1,2.4-0.6s1.5-1.1,1.8-1.7C64.8,224.5,64.7,223.8,64.4,223.1z"/>
		<path class="st1" d="M57.9,210.2l2.3-1c0.2,0.2,0.4,0.5,0.6,0.7c0.2,0.3,0.3,0.5,0.4,0.9c0.5,1.2,0.6,2.3,0.2,3.3
			c-0.4,0.9-1.3,1.7-2.5,2.2l-8.5,3.7l-2.2-2.6l9.4-4c0.4-0.2,0.7-0.4,0.8-0.6s0.3-0.5,0.3-0.8c0-0.3-0.1-0.6-0.2-0.8
			c-0.1-0.2-0.1-0.3-0.2-0.4C58.2,210.6,58.1,210.4,57.9,210.2z M55.8,219.9l-2.2,1l-3.2-7.4l2.2-1L55.8,219.9z"/>
		<path class="st1" d="M55.7,199.3c0.6,0.4,1.1,0.9,1.5,1.5c0.5,0.6,0.8,1.3,1.1,2.1c0.4,1.1,0.5,2.2,0.3,3.2
			c-0.2,1-0.6,1.8-1.2,2.5c-0.6,0.7-1.5,1.2-2.6,1.6c-1.1,0.4-2.1,0.4-3,0.3c-1-0.2-1.8-0.5-2.5-1.1c-0.7-0.6-1.2-1.4-1.6-2.4
			c-0.3-1-0.4-1.9-0.2-2.7s0.6-1.6,1.3-2.2c0.7-0.6,1.5-1.1,2.6-1.5l0.4-0.1l2.3,7l-1.5,0.5l-1.7-5.2l0.9,0.6
			c-0.9,0.3-1.5,0.7-1.8,1.1c-0.3,0.5-0.4,1.1-0.2,1.7c0.2,0.7,0.7,1.2,1.3,1.4c0.6,0.2,1.4,0.2,2.4-0.2c1.2-0.4,1.9-0.9,2.3-1.5
			c0.4-0.6,0.4-1.4,0.1-2.3c-0.2-0.5-0.4-1-0.8-1.5c-0.4-0.5-0.8-0.9-1.2-1.2L55.7,199.3z"/>
		<path class="st1" d="M54,186.5l0.7,3.1l-2.6,0.6l0.4-0.4c0.8,0.1,1.4,0.4,2,1c0.5,0.6,0.9,1.3,1.1,2.1c0.2,0.9,0.1,1.8-0.2,2.6
			c-0.3,0.8-0.8,1.5-1.6,2.1c-0.7,0.6-1.7,1-2.8,1.2c-1.1,0.2-2.1,0.3-3,0s-1.7-0.6-2.3-1.2c-0.6-0.6-1-1.4-1.2-2.3
			c-0.2-0.8-0.1-1.6,0.1-2.4c0.3-0.7,0.7-1.3,1.4-1.7l0.4,0.2l-7.2,1.6l-0.7-3.2L54,186.5z M53,192.5c-0.2-0.8-0.6-1.3-1.2-1.6
			c-0.6-0.3-1.4-0.4-2.5-0.1c-1,0.2-1.7,0.6-2.1,1.1s-0.6,1.2-0.4,2c0.2,0.8,0.6,1.3,1.2,1.7c0.6,0.3,1.4,0.4,2.4,0.1
			c1-0.2,1.7-0.6,2.2-1.2C53,194,53.1,193.3,53,192.5z"/>
	</g>
	<g>
		<path class="st1" d="M59.5,126.8l-14.3-6.4l1.1-2.5l14.1,0.2l-0.5,1.1l-9.4-10.4l1.1-2.5l14.3,6.4l-1.2,2.8l-9.6-4.3l0.5-0.6
			l7.7,8.3l-0.9,2l-11.3-0.2l0.2-0.8l9.6,4.3L59.5,126.8z"/>
		<path class="st1" d="M69.6,106.9c-0.5,0.8-1.2,1.4-2,1.8c-0.8,0.4-1.7,0.5-2.6,0.4c-1-0.1-1.9-0.5-2.9-1.1c-1-0.6-1.7-1.3-2.3-2.2
			c-0.5-0.8-0.8-1.7-0.8-2.6c0-0.9,0.2-1.7,0.7-2.6c0.5-0.8,1.1-1.3,1.8-1.7c0.7-0.3,1.5-0.4,2.3-0.2l0,0.3l-2-1.2l1.7-2.8l9.4,5.9
			l-1.7,2.8l-1.9-1.2l0.2-0.2c0.5,0.6,0.8,1.3,0.8,2.1C70.4,105.4,70.1,106.2,69.6,106.9z M68,104.8c0.4-0.7,0.5-1.4,0.3-2
			c-0.2-0.7-0.8-1.3-1.7-1.9s-1.7-0.8-2.4-0.7c-0.7,0.1-1.3,0.5-1.7,1.1s-0.5,1.4-0.3,2.1s0.8,1.3,1.7,1.9c0.9,0.6,1.7,0.8,2.4,0.7
			S67.6,105.5,68,104.8z"/>
		<path class="st1" d="M61.4,89.5l2.2-2.9l2.5,1.9l-2.2,2.9L61.4,89.5z M74.6,99.3l-8.9-6.7l2-2.7l8.9,6.7L74.6,99.3z"/>
		<path class="st1" d="M78,94.6l-6-5.3c-0.4-0.3-0.8-0.7-1.2-1s-0.8-0.7-1.3-1l2.1-2.3l1.8,1.3l-0.2,0.2c-0.3-0.8-0.4-1.6-0.3-2.4
			c0.1-0.8,0.5-1.5,1.1-2.2c1.7-2,3.8-1.9,6.1,0.2l5.1,4.5L82.9,89L78,84.6c-0.6-0.5-1.1-0.8-1.6-0.8c-0.5,0-0.9,0.2-1.3,0.7
			c-0.5,0.5-0.7,1.1-0.6,1.8c0.1,0.6,0.4,1.2,1,1.7l4.7,4.1L78,94.6z"/>
		<path class="st1" d="M86.9,85L75.6,73.3L78,71l11.2,11.7L86.9,85z"/>
		<path class="st1" d="M94.5,78.3c-0.8,0.6-1.6,1-2.4,1.1s-1.7,0-2.6-0.5c-0.9-0.4-1.7-1.1-2.4-2c-0.7-0.9-1.2-1.8-1.4-2.8
			s-0.2-1.9,0-2.7c0.3-0.8,0.8-1.6,1.5-2.2c0.7-0.6,1.4-0.9,2.3-1c0.8-0.1,1.6,0.1,2.2,0.5l-0.1,0.3L90,67.3l2.5-2.1l7,8.7L97.1,76
			l-1.4-1.8l0.2-0.1c0.3,0.7,0.3,1.5,0,2.3C95.6,77.1,95.1,77.8,94.5,78.3z M93.6,75.8c0.6-0.5,0.9-1.1,0.9-1.8c0-0.7-0.3-1.5-1-2.3
			s-1.3-1.3-2.1-1.5c-0.7-0.2-1.4,0-2,0.5c-0.6,0.5-0.9,1.1-0.9,1.9s0.3,1.5,1,2.3c0.7,0.8,1.3,1.3,2,1.4
			C92.3,76.5,93,76.3,93.6,75.8z"/>
		<path class="st1" d="M101.4,72.6l-4.3-6.7c-0.3-0.4-0.6-0.9-0.9-1.3c-0.3-0.4-0.6-0.9-1-1.3l2.6-1.7l1.4,1.7l-0.2,0.1
			c-0.1-0.9,0-1.7,0.4-2.4s0.9-1.3,1.7-1.8c2.2-1.4,4.2-0.8,5.8,1.8l3.6,5.7l-2.8,1.8l-3.5-5.6c-0.4-0.7-0.9-1.1-1.3-1.2
			c-0.4-0.1-0.9,0-1.4,0.3c-0.6,0.4-1,0.9-1.1,1.5c-0.1,0.6,0,1.3,0.5,1.9l3.4,5.3L101.4,72.6z"/>
		<path class="st1" d="M122.5,60.8l-2.9,1.4l-1.2-2.5l0.4,0.3c0.1,0.8-0.1,1.5-0.5,2.2c-0.4,0.7-1.1,1.2-1.9,1.6
			c-0.9,0.4-1.7,0.6-2.6,0.5c-0.9-0.1-1.7-0.5-2.5-1.1c-0.8-0.6-1.4-1.4-1.9-2.5c-0.5-1-0.8-2-0.8-3c0-1,0.2-1.8,0.7-2.6
			s1.1-1.3,2-1.8c0.8-0.4,1.6-0.5,2.4-0.4c0.8,0.1,1.5,0.4,2,1l-0.1,0.5l-3.3-6.8l3-1.5L122.5,60.8z M116.3,61.3
			c0.7-0.4,1.2-0.9,1.3-1.6c0.2-0.7,0-1.5-0.5-2.5c-0.4-0.9-1-1.5-1.7-1.9c-0.7-0.3-1.3-0.3-2.1,0.1c-0.8,0.4-1.2,0.9-1.4,1.6
			c-0.2,0.7,0,1.5,0.4,2.4c0.5,1,1,1.6,1.7,1.9C114.8,61.6,115.5,61.6,116.3,61.3z"/>
	</g>
	<g>
		<path class="st1" d="M271.2,218.5c0.7-1.4,1.6-2.4,2.6-3.1c1.1-0.7,2.3-1.1,3.6-1.1c1.3,0,2.7,0.3,4.1,1c1.4,0.7,2.5,1.6,3.3,2.7
			c0.8,1.1,1.2,2.2,1.3,3.5c0.1,1.3-0.2,2.6-0.9,4c-0.7,1.4-1.6,2.4-2.6,3.1c-1.1,0.7-2.2,1.1-3.6,1.1c-1.3,0-2.7-0.3-4.1-1
			c-1.4-0.7-2.5-1.6-3.3-2.7c-0.8-1.1-1.2-2.2-1.3-3.5C270.3,221.2,270.6,219.9,271.2,218.5z M273.6,219.7c-0.6,1.1-0.6,2.2-0.1,3.3
			c0.5,1.1,1.5,2,3,2.7s2.9,1,4,0.7c1.1-0.3,1.9-1,2.5-2.1c0.6-1.1,0.6-2.2,0.2-3.3c-0.5-1-1.5-1.9-3-2.7c-1.5-0.8-2.9-1-4-0.8
			C275,217.8,274.1,218.5,273.6,219.7z"/>
		<path class="st1" d="M274.3,239.6c0.3-0.3,0.5-0.6,0.7-0.8c0.2-0.3,0.3-0.5,0.3-0.8s0-0.5-0.1-0.8s-0.4-0.5-0.8-0.7l-9.6-6.2
			l1.7-2.7l9.7,6.2c1.1,0.7,1.8,1.6,2.1,2.6s0,2.1-0.7,3.2c-0.2,0.3-0.4,0.5-0.6,0.8c-0.2,0.2-0.4,0.4-0.7,0.6L274.3,239.6z
			 M274.7,230.4l2,1.3l-4,6.3l-2-1.3L274.7,230.4z"/>
		<path class="st1" d="M269.2,246.5c0.3-0.3,0.6-0.5,0.7-0.8c0.2-0.2,0.3-0.5,0.4-0.8c0.1-0.3,0-0.5-0.1-0.8s-0.4-0.5-0.7-0.8
			l-9.2-6.8l1.9-2.6l9.3,6.8c1.1,0.8,1.7,1.7,1.9,2.7c0.2,1-0.1,2.1-0.9,3.1c-0.2,0.3-0.4,0.5-0.6,0.7c-0.2,0.2-0.4,0.4-0.7,0.6
			L269.2,246.5z M270.2,237.3l1.9,1.4l-4.5,6.1l-1.9-1.4L270.2,237.3z"/>
		<path class="st1" d="M255.2,242.6c1.4-1.6,2.8-2.5,4.2-2.8l1.1,2.1c-0.7,0.2-1.3,0.4-2,0.8c-0.6,0.4-1.2,0.9-1.6,1.4
			c-0.4,0.4-0.6,0.8-0.6,1.1c-0.1,0.3,0,0.6,0.3,0.8c0.2,0.2,0.4,0.2,0.7,0.2c0.3-0.1,0.6-0.3,1.1-0.6l1.5-1.1
			c0.9-0.7,1.6-1,2.3-1.1c0.7,0,1.4,0.2,2,0.7c0.5,0.4,0.8,1,1,1.6c0.1,0.6,0.1,1.3-0.1,2c-0.2,0.7-0.6,1.4-1.3,2.1
			c-0.5,0.6-1.1,1.1-1.8,1.5s-1.3,0.7-2.1,0.9l-1-2.1c0.7-0.2,1.2-0.4,1.8-0.7c0.5-0.3,1-0.7,1.3-1.1c0.3-0.4,0.5-0.8,0.6-1.1
			s0-0.6-0.3-0.8c-0.2-0.2-0.4-0.2-0.6-0.2c-0.2,0-0.5,0.2-0.9,0.5l-1.5,1.1c-0.9,0.7-1.7,1-2.5,1.1c-0.7,0-1.4-0.2-2-0.8
			c-0.8-0.7-1.1-1.5-1-2.5C253.7,244.8,254.2,243.7,255.2,242.6z"/>
		<path class="st1" d="M251.2,247.4l10.8,11.4l-2.3,2.2l-4.9-5.2l0.3-0.2c0.3,0.8,0.3,1.6,0.1,2.3c-0.2,0.8-0.6,1.4-1.3,2
			c-1.9,1.8-3.8,1.5-5.9-0.7l-4.5-4.8l2.3-2.2l4.4,4.7c0.5,0.6,1,0.9,1.4,0.9c0.4,0.1,0.9-0.1,1.3-0.5c0.5-0.5,0.8-1,0.8-1.7
			s-0.3-1.2-0.8-1.8l-4.2-4.4L251.2,247.4z"/>
		<path class="st1" d="M237.6,259.1c0.9-0.7,1.9-1.1,2.8-1.3c1-0.2,1.9,0,2.8,0.4c0.9,0.4,1.7,1.1,2.4,2c0.7,0.9,1.1,1.9,1.3,2.8
			c0.1,0.9,0,1.9-0.4,2.8s-1.1,1.7-2,2.4c-0.9,0.7-1.8,1.1-2.8,1.3c-1,0.1-1.9,0-2.8-0.4c-0.9-0.4-1.7-1-2.4-2
			c-0.7-0.9-1.1-1.9-1.3-2.8s0-1.9,0.4-2.8C236.1,260.5,236.7,259.8,237.6,259.1z M239.1,261c-0.6,0.5-0.9,1-1,1.7s0.3,1.4,0.9,2.3
			c0.6,0.9,1.3,1.4,2,1.5c0.7,0.2,1.3,0,1.9-0.5c0.6-0.5,1-1.1,1-1.7c0-0.7-0.3-1.4-0.9-2.3c-0.7-0.9-1.3-1.4-2-1.5
			C240.4,260.4,239.8,260.5,239.1,261z"/>
		<path class="st1" d="M231.7,263.5l4.1,6.6c0.3,0.4,0.6,0.9,0.8,1.3c0.3,0.4,0.6,0.8,0.9,1.2l-2.6,1.6l-1.8-2.2l0.4,0
			c0.4,0.9,0.4,1.8,0.1,2.5c-0.3,0.8-0.8,1.4-1.5,1.8c-0.2,0.1-0.4,0.2-0.6,0.3c-0.2,0.1-0.4,0.1-0.5,0.1l-1.5-2.5
			c0.6-0.1,1.1-0.3,1.5-0.5c0.5-0.3,0.8-0.7,1.1-1c0.2-0.4,0.3-0.8,0.3-1.2c0-0.4-0.2-0.9-0.5-1.4l-3-4.8L231.7,263.5z"/>
		<path class="st1" d="M216.7,273.3c0.3-0.6,0.7-1.2,1.3-1.7c0.6-0.6,1.2-1,1.9-1.4c1.1-0.6,2.1-0.8,3.1-0.8c1,0,1.9,0.3,2.7,0.8
			c0.8,0.5,1.5,1.3,2,2.3c0.5,1,0.8,2,0.7,2.9c0,1-0.3,1.8-0.8,2.6c-0.5,0.8-1.2,1.4-2.1,1.9c-0.9,0.5-1.8,0.7-2.6,0.6
			c-0.9-0.1-1.7-0.4-2.4-0.9c-0.7-0.5-1.4-1.3-1.9-2.3l-0.2-0.4l6.6-3.4l0.7,1.4l-4.8,2.5l0.4-1c0.4,0.8,0.9,1.3,1.4,1.6
			c0.5,0.2,1.1,0.2,1.7-0.1c0.7-0.3,1-0.8,1.2-1.5c0.1-0.7-0.1-1.4-0.5-2.4c-0.6-1.1-1.2-1.7-1.8-2c-0.7-0.3-1.4-0.2-2.3,0.3
			c-0.5,0.3-1,0.6-1.4,1c-0.4,0.4-0.7,0.9-1,1.4L216.7,273.3z"/>
	</g>
	<g>
		<path class="st1" d="M216.8,62.4l7-13.5l9.1,4.7l-1.2,2.4l-6.2-3.2l-1.6,3.1l5.8,3l-1.2,2.3l-5.8-3l-2.9,5.7L216.8,62.4z"/>
		<path class="st1" d="M227.1,67.8l4.1-6.5c0.3-0.4,0.5-0.9,0.8-1.3c0.3-0.5,0.5-0.9,0.7-1.4l2.6,1.6l-1.2,2.6l-0.2-0.3
			c0.7-0.7,1.4-1.1,2.2-1.2c0.8-0.1,1.6,0.1,2.3,0.6c0.2,0.1,0.4,0.3,0.5,0.4c0.1,0.1,0.3,0.3,0.3,0.4l-1.6,2.5
			c-0.3-0.5-0.7-0.9-1.1-1.2c-0.5-0.3-1-0.5-1.4-0.5c-0.4,0-0.8,0.1-1.2,0.3c-0.4,0.2-0.7,0.6-1,1l-3,4.8L227.1,67.8z"/>
		<path class="st1" d="M242.3,77.1c-0.7,0-1.4-0.1-2.1-0.4c-0.7-0.3-1.4-0.6-2-1.1c-1-0.7-1.7-1.5-2.1-2.4c-0.4-0.9-0.6-1.8-0.4-2.8
			c0.1-1,0.5-1.9,1.2-2.8c0.7-0.9,1.4-1.5,2.3-1.9c0.9-0.4,1.8-0.6,2.7-0.5s1.8,0.5,2.6,1.1c0.8,0.6,1.4,1.3,1.7,2.1
			c0.3,0.8,0.4,1.7,0.2,2.5s-0.6,1.8-1.3,2.7l-0.3,0.4l-5.9-4.5l1-1.3l4.3,3.3l-1.1,0c0.6-0.7,0.8-1.4,0.8-2c0-0.6-0.3-1.1-0.8-1.5
			c-0.6-0.4-1.2-0.6-1.9-0.4c-0.6,0.2-1.3,0.7-1.9,1.5c-0.7,1-1.1,1.8-1,2.5c0.1,0.7,0.5,1.4,1.3,2c0.5,0.3,1,0.6,1.5,0.8
			s1.1,0.3,1.7,0.3L242.3,77.1z"/>
		<path class="st1" d="M250.8,84.9c-0.7-0.1-1.4-0.3-2.1-0.6c-0.7-0.3-1.4-0.8-1.9-1.3c-0.9-0.8-1.5-1.7-1.8-2.6s-0.4-1.9-0.2-2.8
			c0.2-0.9,0.7-1.8,1.5-2.7c0.8-0.8,1.6-1.4,2.5-1.7c0.9-0.3,1.8-0.4,2.7-0.2c0.9,0.2,1.7,0.6,2.5,1.4c0.7,0.7,1.2,1.4,1.5,2.3
			c0.2,0.8,0.2,1.7,0,2.6s-0.8,1.7-1.5,2.5l-0.3,0.3l-5.4-5l1.1-1.1l4,3.7l-1.1-0.1c0.6-0.7,1-1.3,1-1.9c0-0.6-0.2-1.1-0.7-1.6
			c-0.5-0.5-1.1-0.7-1.8-0.6c-0.7,0.1-1.3,0.6-2,1.3c-0.8,0.9-1.2,1.7-1.3,2.4c0,0.7,0.3,1.4,1.1,2.1c0.4,0.4,0.9,0.7,1.4,0.9
			c0.5,0.2,1.1,0.4,1.7,0.5L250.8,84.9z"/>
		<path class="st1" d="M250.9,86.7l1.7-1.5l9.2,0l-0.4,0.6l-4.1-4.6l1.8-1.6l6.2,6.9l-1.6,1.5l-9.3,0l0.4-0.6l4.4,4.9l-1.8,1.6
			L250.9,86.7z"/>
		<path class="st1" d="M261.1,99.1c-0.7-0.9-1.1-1.9-1.2-2.9c-0.1-1,0-1.9,0.4-2.8c0.4-0.9,1.1-1.7,2-2.3c0.9-0.7,1.9-1.1,2.8-1.2
			s1.9,0,2.7,0.4c0.9,0.4,1.7,1.1,2.4,2c0.7,0.9,1.1,1.9,1.2,2.8c0.1,1,0,1.9-0.4,2.8c-0.4,0.9-1.1,1.6-2,2.3
			c-0.9,0.7-1.9,1.1-2.8,1.2c-1,0.1-1.9,0-2.7-0.4C262.6,100.7,261.8,100,261.1,99.1z M263.1,97.7c0.5,0.6,1,1,1.7,1
			c0.7,0,1.4-0.3,2.3-0.9c0.9-0.6,1.4-1.3,1.5-1.9s0-1.3-0.4-1.9c-0.5-0.6-1-1-1.7-1c-0.7,0-1.4,0.3-2.3,0.9
			c-0.9,0.6-1.4,1.3-1.6,1.9S262.6,97,263.1,97.7z"/>
		<path class="st1" d="M265.5,105l6.7-3.9c0.4-0.3,0.9-0.5,1.3-0.8c0.4-0.3,0.9-0.6,1.3-0.9l1.5,2.6l-1.7,1.3l-0.1-0.2
			c0.9-0.1,1.6,0.1,2.3,0.5c0.7,0.4,1.2,0.9,1.7,1.7c1.3,2.2,0.6,4.1-2,5.6l-5.7,3.3l-1.6-2.8l5.6-3.2c0.7-0.4,1.1-0.8,1.2-1.2
			c0.2-0.4,0.1-0.9-0.2-1.4c-0.4-0.6-0.8-1-1.4-1.1c-0.6-0.1-1.2,0-1.9,0.4l-5.3,3L265.5,105z"/>
		<path class="st1" d="M276.6,124.3c-0.6-0.3-1.1-0.8-1.7-1.4c-0.5-0.6-0.9-1.2-1.3-1.9c-0.5-1.1-0.7-2.2-0.6-3.1
			c0.1-1,0.4-1.9,1-2.6s1.4-1.4,2.4-1.9c1-0.5,2-0.6,3-0.6c1,0.1,1.8,0.4,2.6,0.9c0.8,0.5,1.4,1.3,1.8,2.2c0.4,0.9,0.6,1.8,0.5,2.7
			s-0.5,1.6-1,2.3c-0.6,0.7-1.4,1.3-2.4,1.7l-0.4,0.2l-3-6.8l1.5-0.6l2.2,5l-0.9-0.5c0.8-0.4,1.4-0.8,1.7-1.3c0.3-0.5,0.3-1.1,0-1.7
			c-0.3-0.7-0.8-1.1-1.4-1.2c-0.7-0.2-1.4,0-2.4,0.4c-1.1,0.5-1.8,1.1-2.1,1.7c-0.3,0.7-0.3,1.4,0.1,2.3c0.2,0.5,0.5,1,0.9,1.4
			c0.4,0.4,0.8,0.8,1.3,1.1L276.6,124.3z"/>
	</g>
</g>
</svg>
