<?xml version="1.0" encoding="utf-8"?>
<!-- Generator: Adobe Illustrator 26.0.0, SVG Export Plug-In . SVG Version: 6.00 Build 0)  -->
<svg version="1.1" id="Layer_1" xmlns="http://www.w3.org/2000/svg" xmlns:xlink="http://www.w3.org/1999/xlink" x="0px" y="0px"
	 viewBox="0 0 1280 673" style="enable-background:new 0 0 1280 673;" xml:space="preserve">
<style type="text/css">
	.st0{fill:#FFFBEB;}
	.st1{fill:#999999;}
	.st2{fill:#7C7C7C;}
	.st3{fill:#CDCDCD;}
	.st4{fill:#D4E6F4;}
	.st5{fill:#A9C7D8;}
	.st6{fill:#D0A967;}
	.st7{fill:#F5F5FF;}
	.st8{fill:#FFFFFF;}
	.st9{fill:none;}
	.st10{font-family:'BaskOldFace';}
	.st11{font-size:57.3108px;}
	.st12{fill:none;stroke:#000000;stroke-miterlimit:10;}
	.st13{fill:#033041;}
	.st14{fill:#387BFF;}
	.st15{fill:#387BFF;stroke:#8A7400;stroke-miterlimit:10;}
	.st16{fill:#FFFFFF;stroke:#8A7400;stroke-miterlimit:10;}
	.st17{fill:#D0A983;}
	.st18{fill:#48A2E5;}
	.st19{fill:#FBB433;}
	.st20{fill:#FE4040;}
	.st21{fill:#F7B2A0;}
	.st22{fill:#1D1B3A;}
	.st23{fill:#FFA09A;}
	.st24{fill:#FF6969;}
	.st25{fill:#FF8998;}
	.st26{fill:#FDD95F;}
	.st27{fill:#FFDE80;}
	.st28{fill:#F97C28;}
	.st29{fill:#DD931D;}
	.st30{fill:#EDA320;}
	.st31{fill:#BFD8E8;}
</style>
<rect x="2.7" y="3.1" class="st0" width="1279.4" height="670.1"/>
<g>
	<g>
		<g>
			<path class="st1" d="M306.6,220.2c0,0-61-17.5-69.7-64s-43.6-84.3,0-84.3s90.1,46.5,142.4,34.9s87.2-40.7,122.1-17.4
				c34.9,23.2,81.4,37.4,127.9,37.6s78.5,29.3,55.2,61.2c-23.2,32-113.3,52.3-104.6,93s-5.8,63.9-40.7,81.4
				c-34.9,17.4-23.2,52.3-63.9,69.7S370.7,461.4,330,484.6c-40.7,23.2-119.2-32-66.8-98.8c52.3-66.8,32-78.9,23.3-104.8
				C277.5,255,342.6,237.7,306.6,220.2z"/>
			<path class="st2" d="M579.7,281.2c-8.7-40.7,81.4-61,104.6-93c2.4-3.3,4.1-6.6,5.3-9.8H245.9c19.5,30,60.6,41.8,60.6,41.8
				c36.1,17.5-29,34.8-20.3,60.8c7.2,21.4,22.2,33.5-2.3,74.7h267.2C577.2,339,587.4,316.8,579.7,281.2z"/>
		</g>
		<g>
			<g>
				<path class="st3" d="M418,564.5c0,17.1-13.9,31-31,31H225.5c-17.1,0-31.1-13.9-31.1-31v-326c0-17.2,13.9-31.1,31.1-31.1H387
					c17.1,0,31,13.9,31,31.1V564.5z"/>
			</g>
			<g>
				<path class="st4" d="M402.1,255.1c0-14.7-11.9-26.6-26.6-26.6H237.1c-14.7,0-26.6,11.9-26.6,26.6v279.4c0,0.4,0.1,0.8,0.1,1.2
					h191.3c0-0.4,0.1-0.8,0.1-1.2L402.1,255.1L402.1,255.1z"/>
			</g>
		</g>
		<g>
			<g>
				<g>
					<g>
						<path class="st5" d="M509.4,393.2c0,5.5-4.4,10-10,10H280.8c-5.5,0-10-4.5-10-10V256.1c0-5.5,4.5-10,10-10h218.6
							c5.5,0,10,4.5,10,10V393.2z"/>
					</g>
					<g>
						<path class="st6" d="M499.4,246.2H280.8c-5.5,0-10,4.5-10,10v18.5h238.5v-18.5C509.4,250.6,504.9,246.2,499.4,246.2z"/>
					</g>
					<g>
						<path class="st7" d="M295,260.5c0,2.7-2.2,4.9-4.9,4.9c-2.7,0-5-2.2-5-4.9c0-2.7,2.2-4.9,5-4.9
							C292.7,255.5,295,257.8,295,260.5z"/>
					</g>
					<g>
						<path class="st7" d="M307.5,260.5c0,2.7-2.2,4.9-5,4.9c-2.7,0-4.9-2.2-4.9-4.9c0-2.7,2.2-4.9,4.9-4.9
							C305.2,255.5,307.5,257.8,307.5,260.5z"/>
					</g>
					<g>
						<path class="st7" d="M319.5,260.5c0,2.7-2.2,4.9-4.9,4.9c-2.7,0-4.9-2.2-4.9-4.9c0-2.7,2.2-4.9,4.9-4.9
							C317.3,255.5,319.5,257.8,319.5,260.5z"/>
					</g>
				</g>
				<g>
					<rect x="302.9" y="368.8" class="st8" width="79.9" height="20.2"/>
				</g>
				<g>
					<rect x="393.4" y="368.8" class="st8" width="79.9" height="20.2"/>
				</g>
				<g>
					<rect x="288.7" y="285.4" class="st8" width="203.7" height="73.1"/>
				</g>
			</g>
			<rect x="316.7" y="303.6" class="st9" width="146.5" height="48.5"/>
			<text transform="matrix(1 0 0 1 316.7412 342.7743)" class="st10 st11">CbCR</text>
			<text transform="matrix(1 0 0 1 316.7412 342.7743)" class="st12 st10 st11">CbCR</text>
		</g>
		<g>
			<path class="st8" d="M284.9,304.1c0,0-25.2-21.2-55.9-9.5c-30.8,11.7-68.5,37.8-125.2,14.3L121.3,447c0,0,38.6,27.4,78.2,7.7
				c39.5-19.7,68.5-38,102.3-17.8L284.9,304.1z"/>
			<path class="st3" d="M284.9,304.1l16.8,132.7c-20-11.9-38.3-10.4-58-3.1l-17.5-138.1c0.9-0.4,1.9-0.7,2.8-1.1
				C259.7,282.9,284.9,304.1,284.9,304.1z"/>
			<path class="st1" d="M121.2,446.9l-17.5-138.1c23.9,9.9,44.5,11,62.6,8.1L184.4,460C150.6,467.8,121.2,446.9,121.2,446.9z"/>
			<g>
				
					<rect x="299.1" y="289.4" transform="matrix(0.9921 -0.1254 0.1254 0.9921 -53.0297 41.3893)" class="st13" width="6.3" height="305"/>
			</g>
		</g>
		<g>
			<path class="st2" d="M1093.3,215.7l2.8-2.4c0.3-0.2,5.8-5.1,3.3-10.7h-32.8c-5.7,0-10.3-4.6-10.3-10.3v-6.1
				c0-5.7,4.6-10.3,10.3-10.3h54c5.7,0,10.3,4.6,10.3,10.3v6.1c0,5.7-4.6,10.3-10.3,10.3h-2.6c-3.6,4.9-10.8,12.5-21,12.9
				L1093.3,215.7z M1066.6,178.5c-4.3,0-7.7,3.5-7.7,7.7v6.1c0,4.3,3.5,7.7,7.7,7.7h34.3l0.4,0.7c2.5,4.4,0.9,8.8-1.2,11.8
				c7.8-1.7,13.4-8,16.1-11.9l0.4-0.5h3.9c4.2,0,7.7-3.5,7.7-7.7v-6.1c0-4.3-3.5-7.7-7.7-7.7h-53.9V178.5z"/>
		</g>
		<g>
			<g>
				<g>
					<g>
						<path class="st14" d="M1149.8,551c-2.8,0-5.1-2.3-5.1-5.1s2.3-5.1,5.1-5.1c2.8,0,5.1,2.3,5.1,5.1
							C1155,548.7,1152.7,551,1149.8,551z M1149.8,542.6c-1.8,0-3.3,1.5-3.3,3.3s1.5,3.3,3.3,3.3c1.9,0,3.3-1.5,3.3-3.3
							C1153.2,544.1,1151.7,542.6,1149.8,542.6z"/>
					</g>
				</g>
			</g>
		</g>
		<g>
			<g>
				<path class="st15" d="M718.9,593.7H525.5c-3.7,0-6.6-3.1-6.6-7V352.9c0-3.9,3-7,6.6-7h193.4c3.7,0,6.6,3.1,6.6,7v233.8
					C725.5,590.6,722.6,593.7,718.9,593.7z M525.5,348.3c-2.3,0-4.2,2.1-4.2,4.6v233.8c0,2.5,1.9,4.6,4.2,4.6h193.4
					c2.3,0,4.2-2.1,4.2-4.6V352.9c0-2.5-1.9-4.6-4.2-4.6H525.5z"/>
			</g>
			<g>
				<path class="st16" d="M675.1,586.7c0,3.2,2.9,5.8,6.6,5.8h42.7c3.6,0,6.6-2.6,6.6-5.8V352.9c0-3.2-2.9-5.8-6.6-5.8h-42.7
					c-3.6,0-6.6,2.6-6.6,5.8V586.7z"/>
				<path class="st15" d="M724.3,593.7h-42.7c-4.3,0-7.7-3.1-7.7-7V352.9c0-3.9,3.5-7,7.7-7h42.7c4.3,0,7.8,3.1,7.8,7v233.8
					C732.1,590.6,728.6,593.7,724.3,593.7z M681.6,348.3c-3,0-5.4,2.1-5.4,4.6v233.8c0,2.5,2.4,4.6,5.4,4.6h42.7
					c3,0,5.4-2.1,5.4-4.6V352.9c0-2.5-2.4-4.6-5.4-4.6H681.6z"/>
			</g>
			<g>
				<path class="st15" d="M732.1,388.8h-58.2v-15.9h58.2V388.8z M676.3,386.4h53.4v-11.2h-53.4V386.4z"/>
			</g>
			<g>
				<path class="st15" d="M732.1,415.9h-58.2V400h58.2V415.9z M676.3,413.5h53.4v-11.2h-53.4V413.5z"/>
			</g>
			<g>
				<path class="st15" d="M732.1,443h-58.2v-15.9h58.2V443z M676.3,440.6h53.4v-11.2h-53.4V440.6z"/>
			</g>
		</g>
		<g>
			<g>
				<path class="st1" d="M516.8,585.9c0,5-4,9-9,9H282.2c-5,0-9-4-9-9v-44.7c0-5,4-9,9-9h225.7c5,0,9,4,9,9v44.7H516.8z"/>
			</g>
			<g>
				<path class="st3" d="M643.9,585.9c0,5-4,9-9,9H419.7c-5,0-9-4-9-9v-44.7c0-5,4-9,9-9h215.2c5,0,9,4,9,9V585.9z"/>
			</g>
			<g>
				<path class="st4" d="M643.8,541h-210c-5,0-9,4-9,9v26.2c0,5,4,9,9,9h210v-43.9C643.9,541.1,643.8,541.1,643.8,541z"/>
			</g>
			<g>
				<path class="st4" d="M433.9,585.1h210v-21.5h-219v12.6C424.9,581.1,428.9,585.1,433.9,585.1z"/>
			</g>
		</g>
		<g>
			<g>
				<path class="st6" d="M531.8,523.5c0,4.9-4,9-9,9H297.1c-5,0-9-4-9-9v-44.7c0-4.9,4-9,9-9h225.7c4.9,0,9,4,9,9V523.5z"/>
			</g>
			<g>
				<path class="st17" d="M658.8,523.5c0,4.9-4,9-9,9H434.6c-4.9,0-9-4-9-9v-44.7c0-4.9,4-9,9-9h215.2c5,0,9,4,9,9V523.5z"/>
			</g>
			<g>
				<path class="st4" d="M658.8,478.6h-210c-5,0-9,4-9,9v26.2c0,5,4,9,9,9h210v-43.9C658.8,478.7,658.8,478.6,658.8,478.6z"/>
			</g>
			<g>
				<path class="st4" d="M448.8,522.7h210v-22h-219v13.1C439.8,518.7,443.9,522.7,448.8,522.7z"/>
			</g>
		</g>
		<g>
			<g>
				<g>
					<path class="st18" d="M717,299.8c-1,5.9-4.1,11.5-8.5,15.4c-3.8,3.4-8.7,5.6-13.8,6.4c-0.8,0.1-1.5-0.4-1.6-1.2
						c-0.1-0.8,0.4-1.5,1.2-1.6c4.5-0.7,8.9-2.7,12.3-5.7c4.1-3.7,6.9-9,7.7-14.3l0,0c0.1-0.8,0.9-1.3,1.6-1.2
						c0.8,0.1,1.3,0.8,1.2,1.6C717.1,299.3,717,299.6,717,299.8z"/>
				</g>
				<g>
					<g>
						<polygon class="st18" points="686.4,319.4 697.5,324.8 695.1,320 698.1,315.5 						"/>
					</g>
				</g>
			</g>
			<g>
				<rect x="686.4" y="250.1" class="st19" width="44" height="44"/>
			</g>
			<g>
				<rect x="649.1" y="267.6" class="st20" width="44" height="44"/>
			</g>
			<g>
				<path class="st8" d="M704.3,275.2l-2.6,7.7h-3.3l8.3-24.6h3.8l8.4,24.6h-3.4l-2.6-7.7H704.3z M712.3,272.7l-2.4-7.1
					c-0.5-1.6-0.9-3.1-1.3-4.5h-0.1c-0.4,1.5-0.8,3-1.2,4.4l-2.4,7.1h7.4V272.7z"/>
			</g>
			<g>
				<g>
					<g>
						<rect x="659.2" y="279.2" class="st8" width="23.1" height="3.1"/>
					</g>
				</g>
				<g>
					<g>
						<path class="st8" d="M684.8,302.3c-7.4-0.2-13-2.5-16.7-6.8c-5.6-6.3-4.9-14.6-4.8-14.9l2.7,0.2l-1.3-0.1l1.3,0.1
							c0,0.1-0.6,7.5,4.2,12.9c3.2,3.7,8.2,5.6,14.8,5.9L684.8,302.3z"/>
					</g>
				</g>
				<g>
					<g>
						<path class="st8" d="M657.4,302.3l-0.1-2.7c6.6-0.2,11.5-2.2,14.8-5.9c4.8-5.4,4.2-12.9,4.2-12.9l2.7-0.2
							c0,0.3,0.7,8.6-4.8,14.9C670.3,299.8,664.7,302.1,657.4,302.3z"/>
					</g>
				</g>
				<g>
					<g>
						
							<rect x="667.1" y="270.9" transform="matrix(0.5891 -0.8081 0.8081 0.5891 50.5351 654.1113)" class="st8" width="2.7" height="13"/>
					</g>
				</g>
			</g>
			<g>
				<g>
					<path class="st18" d="M663.5,258.3c1.1-5.9,4.3-11.4,8.9-15.3c3.9-3.3,8.8-5.5,13.9-6.1c0.8-0.1,1.5,0.4,1.6,1.2
						s-0.5,1.5-1.2,1.6c-4.5,0.6-8.9,2.5-12.4,5.5c-4.2,3.6-7.1,8.8-8,14.2l0,0c-0.1,0.8-0.9,1.3-1.6,1.1c-0.8-0.1-1.3-0.9-1.2-1.7
						C663.5,258.7,663.5,258.5,663.5,258.3z"/>
				</g>
				<g>
					<g>
						<polygon class="st18" points="694.6,239.3 683.6,233.6 685.9,238.5 682.7,242.9 						"/>
					</g>
				</g>
			</g>
		</g>
		<g>
			<g>
				<g>
					<path class="st21" d="M509.7,406.6c5.7-4.4,13.3-17.6-5.8-26.2c-7-3.1-19.6,2-30.3-0.9c-7.4-2,22.7-16.2,13.1-29.1
						c0,0-4.2-6.4-5.2-4.3c-0.9,2.1,2.5,8.2,0,10.1c-2.4,1.9-36.1,19.7-30.5,30.7C456.6,397.8,498.2,415.7,509.7,406.6z"/>
				</g>
			</g>
			<g>
				<g>
					<path class="st2" d="M504.2,410.3c8-0.5,20.1-11,7.5-26.3c-3.9-4.8-10-5.7-22.2-4.4c0,0-17.2,2.6-15.9-1.6
						c1-3.1,10.1-9.2,13.7-14.5c0,0-2.1-5.3-7.7-7c0,0-33.5,16.4-29.2,31.3C453.7,398.5,485,411.4,504.2,410.3z"/>
				</g>
			</g>
			<g>
				<g>
					<path class="st21" d="M511.7,416.5c0,0-19.6,7.7-51.8-2.5c-32.2-10.1-39.3-29.9-54.7-22.4c-1.7,0.8-4.4,4.9-6.1,4.3
						c-1.6-0.6,1.2-13,9.5-13.8c0,0,17.8-2.1,40.2,6.4C476,399,502.6,376,515,399.1C517.2,403.2,519.9,408.7,511.7,416.5z"/>
				</g>
			</g>
			<g>
				<g>
					<path class="st3" d="M506.2,384.2c0,0-37.4,8.3-46.8,5.5s-31.7-9.5-41.3-8.7c0,0-4.9,4.2-3.1,10.8c0,0,29.5,18.5,35.3,20.3
						c5.8,1.7,18.8,5.8,33.4,7C552.2,424.4,506.2,384.2,506.2,384.2z"/>
				</g>
			</g>
			<g>
				<g>
					<g>
						<path class="st8" d="M414.8,387.1c0,0.4-0.1,1,0.1,1.2c12.1,7.1,25.6,11.3,37.3,15.3c9.8,3.3,21,7.1,32.3,9.2
							c12.4,2.3,23.6,2.3,33.5,0.1c0.2,0,0.3-0.2,0.3-0.4c0-0.2-0.2-0.3-0.4-0.3c-9.8,2.3-21,2.3-33.2-0.1
							c-11.3-2.1-22.4-5.9-32.3-9.2C440.6,399,427,394.3,414.8,387.1z"/>
					</g>
				</g>
			</g>
			<g>
				<g>
					<path class="st22" d="M495.8,386.6c0,0,2.5,16.8,15.4,31.3c0,0,9.4-2.1,9.8-7.7C521.4,404.6,495.8,386.6,495.8,386.6z"/>
				</g>
			</g>
			<g>
				<g>
					<path class="st22" d="M565.2,341.7c-2.5-4.9-13.3-14.7-26.3-1.9c-2.8,2.8-6.5,8.1-13.9,7.8c-5.2-0.2-18.1,4.3-13.2,19.8
						c4.9,15.6-11.4,12.7-3.5,20.5c21.3,20.8,33.7,8.8,44.5-4C570,363.9,570.2,351.5,565.2,341.7z"/>
				</g>
			</g>
			<g>
				<g>
					<path class="st21" d="M548,373.1c0,0-0.3-9,3.2-10.6s0.3,8,5.2,13.9s33.6,35.6,21.9,40C566.7,420.7,549.2,390.1,548,373.1z"/>
				</g>
			</g>
			<g>
				<g>
					<path class="st19" d="M546.9,371.5c2.5-2.2,9.5-3.9,15.8,4.3c4.1,5.3,6.6,10.7,6.6,10.7s-5.1,11.2-15.8,11.6
						C553.5,398.1,537.5,379.8,546.9,371.5z"/>
				</g>
			</g>
			<g>
				<g>
					<path class="st6" d="M522.7,414.2c13.5-3.3,37.1-12.9,38.7-26.2c1.7-14.1-4.4-17.3-10.7-21.3c-6.7-4.2-12.9-8.8-25.6,3.4
						c-8.9,8.5-13.2,5-25.1,7.4l0,0c-0.3,0.1-0.6,0.1-0.9,0.1l0,0l0,0C485.1,378.5,511,417.1,522.7,414.2z"/>
				</g>
			</g>
			<g>
				<g>
					<g>
						<path class="st21" d="M548.8,352.2c0,0-0.8,8.7-4.3,11.7c-2.3,1.9,9.7,10.7,10.3,7.5c0.8-4.1-0.9-7.2,3-11L548.8,352.2z"/>
					</g>
				</g>
			</g>
			<g>
				<g>
					<g>
						<path class="st21" d="M563.8,343.9c1.2,4.9-0.4,24-9.2,22.7c-4-0.6-8.9-7.4-9-15.4c0-3.3,3.2-8.3,8.4-11.2
							C556.2,338.7,562.4,338.3,563.8,343.9z"/>
					</g>
				</g>
			</g>
			<g>
				<g>
					<g>
						<path class="st22" d="M565.1,351.5c-0.8,2.1-2.1-7-5.5-3.6c-3.5,3.5-7.3-0.1-12.2,7.1c-3.3,4.9-4-7.6-4.1-8.5
							c-0.2-4-0.2-4,6.6-8.4C556.6,333.5,569,341.2,565.1,351.5z"/>
					</g>
				</g>
			</g>
			<g>
				<g>
					<path class="st21" d="M565.1,364.9c0,0,3.3-8.4,7.1-8.5c3.9-0.1-2.9,7.5-0.8,14.8c2.2,7.3,16.7,46,4.3,45.4
						C563.4,416,559.4,381,565.1,364.9z"/>
				</g>
			</g>
			<g>
				<g>
					<path class="st22" d="M526.2,389.6c0,0,0.2,13.8,3.8,22.5l1.6-0.5l-1.3-17.9L526.2,389.6z"/>
				</g>
			</g>
			<g>
				<g>
					<path class="st21" d="M531.1,373.5c2.6,7.2,19.3,45,6.8,45.1C525.4,418.7,528.5,366.3,531.1,373.5z"/>
				</g>
			</g>
			<g>
				<g>
					<path class="st19" d="M536.9,366.5c3.4,0,9.7,3.4,8.9,13.7c-0.5,6.7-2.2,12.4-2.2,12.4s-11.2,5-19.5-1.9
						C524.1,390.7,524.4,366.4,536.9,366.5z"/>
				</g>
			</g>
			<g>
				<g>
					<path class="st21" d="M549,362.1c0,0-3.9-9-8.1-8.9c-4.2,0,3.5,8,1.4,16s-16.3,50.6-2.9,49.4C553,417.5,555.9,379.3,549,362.1z
						"/>
				</g>
			</g>
		</g>
		<g>
			<g>
				<path class="st1" d="M540.1,462.1c0,4.3-3.5,7.7-7.7,7.7h-194c-4.3,0-7.7-3.5-7.7-7.7v-38.5c0-4.3,3.5-7.7,7.7-7.7h194
					c4.3,0,7.7,3.5,7.7,7.7V462.1z"/>
			</g>
			<g>
				<path class="st3" d="M649.3,462.1c0,4.3-3.4,7.7-7.7,7.7h-185c-4.3,0-7.7-3.5-7.7-7.7v-38.5c0-4.3,3.5-7.7,7.7-7.7h185
					c4.3,0,7.7,3.5,7.7,7.7V462.1z"/>
			</g>
			<g>
				<path class="st4" d="M649.3,423.5H468.8c-4.3,0-7.7,3.5-7.7,7.7v22.5c0,4.3,3.5,7.7,7.7,7.7h180.5v-37.7
					C649.3,423.6,649.3,423.5,649.3,423.5z"/>
			</g>
			<g>
				<path class="st4" d="M468.8,461.4h180.5v-18.5H461.1v10.8C461.1,457.9,464.5,461.4,468.8,461.4z"/>
			</g>
		</g>
		<g>
			<g>
				<path class="st8" d="M787,111.8h-62.8c-2.7,0-4.9,2.2-4.9,4.9v39.6c0,2.7,2.2,4.9,4.9,4.9h14.1l14.7,16.6v-16.6h34
					c2.7,0,4.9-2.2,4.9-4.9v-39.6C791.9,114,789.7,111.8,787,111.8z"/>
				<path class="st1" d="M753.6,179.2l-15.5-17.5h-13.9c-3,0-5.4-2.4-5.4-5.4v-39.6c0-3,2.4-5.4,5.4-5.4H787c3,0,5.4,2.4,5.4,5.4
					v39.6c0,3-2.4,5.4-5.4,5.4h-33.5L753.6,179.2L753.6,179.2z M724.2,112.4c-2.4,0-4.3,1.9-4.3,4.3v39.6c0,2.4,1.9,4.3,4.3,4.3
					h14.4l0.2,0.2l13.7,15.5v-15.7H787c2.4,0,4.3-1.9,4.3-4.3v-39.6c0-2.4-1.9-4.3-4.3-4.3H724.2z"/>
			</g>
			<g>
				<g>
					<path class="st2" d="M736,134.9c0,1-0.7,1.7-1.7,1.7s-1.7-0.7-1.7-1.7s0.7-1.8,1.7-1.8C735.3,133.2,736,133.9,736,134.9z
						 M732.8,146.4l0.4-8.7h2.2l0.4,8.7H732.8z"/>
				</g>
				<g>
					<path class="st2" d="M749.9,136c0,4.2-2.6,6.8-6.3,6.8c-3.8,0-6.1-2.9-6.1-6.6c0-3.9,2.5-6.7,6.3-6.7
						C747.8,129.5,749.9,132.5,749.9,136z M740.6,136.2c0,2.5,1.2,4.3,3.1,4.3c2,0,3.1-1.9,3.1-4.4c0-2.3-1.1-4.3-3.1-4.3
						C741.8,131.8,740.6,133.7,740.6,136.2z"/>
				</g>
				<g>
					<path class="st2" d="M751.8,129.7h2.9v10.4h5.1v2.4h-8V129.7z"/>
				</g>
				<g>
					<path class="st2" d="M764.7,139.3l-0.9,3.3h-3l3.9-12.9h3.8l4,12.9h-3.1l-1-3.3H764.7z M768,137.1l-0.8-2.7
						c-0.2-0.8-0.5-1.7-0.7-2.5l0,0c-0.2,0.8-0.4,1.7-0.6,2.5l-0.8,2.7H768z"/>
				</g>
				<g>
					<path class="st2" d="M773.8,141.1c0-1,0.7-1.7,1.7-1.7s1.7,0.7,1.7,1.7s-0.7,1.7-1.7,1.7S773.8,142.1,773.8,141.1z
						 M774.4,138.4l-0.4-8.7h3l-0.4,8.7H774.4z"/>
				</g>
			</g>
		</g>
		<g>
			<g>
				<g>
					<path class="st2" d="M1151.5,487.7l0.8,0.8l-3.5,3.4c-1.1,1-1.1,2.7-0.1,3.8l2.7,2.8c0.7,0.7,1.1,1.7,1,2.7c0,1-0.4,2-1.2,2.7
						l-2.4,2.2c-0.5,0.5-0.8,1.2-0.8,1.9c0,0.7,0.3,1.4,0.8,1.9l2.4,2.5c0.7,0.8,1.1,1.8,1.1,2.8c-0.1,1-0.5,2-1.3,2.7l-1.6,1.4
						c-0.6,0.5-0.9,1.2-0.9,2s0.3,1.5,0.9,2l3.5,3l-0.8,0.9l-3.5-3c-0.8-0.7-1.3-1.8-1.3-2.9c0-1.1,0.5-2.2,1.3-2.9l1.6-1.4
						c0.6-0.5,0.9-1.2,0.9-1.9s-0.2-1.4-0.8-2l-2.4-2.5c-0.7-0.7-1.1-1.7-1.1-2.7s0.4-2,1.2-2.7l2.4-2.2c0.5-0.5,0.8-1.2,0.8-1.9
						c0-0.7-0.2-1.4-0.7-1.9l-2.7-2.8c-1.4-1.5-1.4-3.9,0.1-5.4L1151.5,487.7z"/>
				</g>
			</g>
		</g>
		<g>
			<g>
				<g>
					<g>
						<path class="st14" d="M169.9,543.3c-2.8,0-5.1-2.3-5.1-5.1s2.3-5.1,5.1-5.1s5.1,2.3,5.1,5.1S172.7,543.3,169.9,543.3z
							 M169.9,534.9c-1.8,0-3.3,1.5-3.3,3.3s1.5,3.3,3.3,3.3c1.9,0,3.3-1.5,3.3-3.3C173.3,536.4,171.8,534.9,169.9,534.9z"/>
					</g>
				</g>
			</g>
		</g>
		<g>
			<g>
				<g>
					<path class="st2" d="M171.6,480l0.8,0.8l-3.5,3.4c-1.1,1-1.1,2.7-0.1,3.8l2.7,2.8c0.7,0.7,1.1,1.7,1,2.7c0,1-0.4,2-1.2,2.7
						l-2.4,2.2c-0.5,0.5-0.8,1.2-0.8,1.9c0,0.7,0.3,1.4,0.8,1.9l2.4,2.5c0.8,0.8,1.1,1.8,1.1,2.8s-0.5,2-1.3,2.7l-1.6,1.4
						c-0.6,0.5-0.9,1.2-0.9,2s0.3,1.5,0.9,2l3.5,3l-0.8,0.9l-3.5-3c-0.8-0.7-1.3-1.8-1.3-2.9c0-1.1,0.5-2.2,1.3-2.9l1.6-1.4
						c0.6-0.5,0.9-1.2,0.9-1.9c0-0.7-0.2-1.4-0.8-2l-2.4-2.5c-0.7-0.7-1.1-1.7-1.1-2.7s0.4-2,1.2-2.7l2.4-2.2
						c0.5-0.5,0.8-1.2,0.8-1.9c0-0.7-0.2-1.4-0.7-1.9l-2.7-2.8c-1.4-1.5-1.4-3.9,0.1-5.4L171.6,480z"/>
				</g>
			</g>
		</g>
		<g>
			<path class="st13" d="M1079.8,592.9c0,2.8-43.3,5.1-96.6,5.1c-53.4,0-96.6-2.3-96.6-5.1s43.2-5.1,96.6-5.1
				C1036.5,587.8,1079.8,590.1,1079.8,592.9z"/>
			<g>
				<path class="st13" d="M975.4,539.9L975.4,539.9c-33.1,0-65.6-9.3-94-26.9l-2.5-1.5l178.9-289.2l2.5,1.5
					c39.8,24.6,67.9,62.8,79.2,107.5c11.3,44.8,4.3,90.7-19.6,129.3C1089.2,510.2,1035.1,539.9,975.4,539.9z M886.9,509.5
					c27,16.1,57.5,24.5,88.5,24.5l0,0c57.7,0,109.9-28.6,139.6-76.6c23.1-37.3,29.8-81.6,18.9-124.9c-10.7-42.3-37-78.6-74.2-102.5
					L886.9,509.5z"/>
			</g>
			<g>
				<path class="st6" d="M1123.1,367.4c0,82.7-67,149.7-149.7,149.7s-149.7-67-149.7-149.7s67-149.7,149.7-149.7
					C1056.1,217.6,1123.1,284.7,1123.1,367.4z"/>
			</g>
			<g>
				<path class="st3" d="M1001.9,326c0,0-8.4,10-14,10s-22.6,10.2-19.6,18.6c2.9,8.4-1.7,17.6,8.5,22.3c10.2,4.6,21.3,4.6,21.3,4.6
					s10.2,26,12.1,31.6c1.9,5.6,11.1,22.3,13,13.9c1.9-8.4,1.9-21.3,9.3-43.6c7.4-22.3,8.3-25.1,0-27.8c-8.4-2.8-17.2-5.7-17.4-21.9
					C1014.8,317.5,1001.9,326,1001.9,326z"/>
			</g>
			<g>
				<path class="st3" d="M1067.6,470.9c3.8-8.7,2.5-14,2.5-14s-15.1-5.7-17.7-7.6c-2.5-1.9-14.1-14.5-14.1-14.5l-13.7,19.6
					c0,0-21.4,9.5-27.1,13.9c-5.7,4.4-4.4,18.3-4.4,18.3l-0.1,19.6c0,0,0.5,4.6,2.5,9.3c17.5-2.6,33.9-8.2,48.9-16.2
					C1055.9,487.7,1065.5,475.7,1067.6,470.9z"/>
			</g>
			<g>
				<path class="st3" d="M983.3,265.5c0,0-18.6,16.7-12.1,26.9c6.5,10.2-7.4,18.6-1.4,23.2s32,2.8,30.1,6.5s9.3,8.3,23.2,15.8
					c13.9,7.4,14.8,2.8,25.1,0c10.2-2.8,13.9,9.3,19.5,10.2c5.6,0.9,13.9-16.7,20.4-14.8c4.5,1.3,18-10.4,25.8-17.7
					c-11.7-31.7-33.8-58.3-62.1-75.8c-8.9,6.7-23.1,17-28.6,18.3C1014.8,259.9,983.3,265.5,983.3,265.5z"/>
			</g>
			<g>
				<path class="st3" d="M831.5,345.7c2.5,7.7,27.6,18.2,27.6,18.2s-3.8,21.8-4.2,34.5s26.1,30.8,26.1,30.8s5.6,38.9,10.3,41.6
					s23.3-43.9,28.2-56s-1.6-24.6-14-36.1c-12.4-11.4-23-18.3-23-18.3l-12.7-9c0,0,8.6-13.8,10.2-17.9c1.6-4,19.4-17.8,15.4-22.5
					s-12.8-17.5-20-23.7c-4.3-3.7-5.4-17.4-5.5-28c-16.9,16.3-30.1,36.5-37.9,59.2C829.3,332.6,830.4,342.4,831.5,345.7z"/>
			</g>
			<rect x="973.4" y="537" class="st13" width="19.6" height="55.2"/>
			<g>
				<g>
					<path class="st2" d="M1014.2,232.2L1014.2,232.2c1.3-3,1.9-6.2,1.9-9.6c0-13.6-11-24.6-24.6-24.6s-24.6,11-24.6,24.6
						c0,2.9,0.5,5.7,1.4,8.3l0,0l0,0c0.7,1.8,23.1,46.5,23.1,46.5S1013.8,233.1,1014.2,232.2L1014.2,232.2z M991.5,209.6
						c7.2,0,13,5.9,13,13.1c0,7.2-5.9,13-13,13c-7.2,0-13.1-5.8-13.1-13C978.5,215.4,984.3,209.6,991.5,209.6z"/>
				</g>
			</g>
			<g>
				<g>
					<path class="st1" d="M936.2,348.1L936.2,348.1c0.8-2,1.3-4.2,1.3-6.4c0-9.1-7.4-16.5-16.5-16.5s-16.5,7.4-16.5,16.5
						c0,1.9,0.3,3.8,1,5.5l0,0l0,0c0.4,1.2,15.5,31.2,15.5,31.2S935.9,348.7,936.2,348.1L936.2,348.1z M921,333
						c4.8,0,8.7,3.9,8.7,8.7c0,4.8-3.9,8.7-8.7,8.7s-8.7-3.9-8.7-8.7S916.2,333,921,333z"/>
				</g>
			</g>
			<g>
				<g>
					<path class="st18" d="M1063.7,410.6L1063.7,410.6c0.8-2,1.3-4.2,1.3-6.4c0-9.1-7.4-16.5-16.4-16.5c-9.1,0-16.5,7.4-16.5,16.5
						c0,1.9,0.3,3.8,1,5.5l0,0l0,0c0.4,1.2,15.5,31.2,15.5,31.2S1063.5,411.2,1063.7,410.6L1063.7,410.6z M1048.6,395.5
						c4.8,0,8.7,3.9,8.7,8.7c0,4.8-3.9,8.7-8.7,8.7c-4.8,0-8.7-3.9-8.7-8.7C1039.8,399.4,1043.7,395.5,1048.6,395.5z"/>
				</g>
			</g>
		</g>
		<g>
			<g>
				<g>
					<path class="st19" d="M770.2,348.2l-2.3,1.6c0,0,1,1.5,2.2,3c1.1,1.5,2.4,2.9,2.4,2.9l2-1.9c0,0-1.1-1.3-2.2-2.7
						C771.2,349.6,770.2,348.2,770.2,348.2z"/>
				</g>
				<g>
					<path class="st19" d="M764.6,339.2l-2.4,1.3c0,0,0.9,1.6,1.8,3.2c1,1.6,2,3.1,2,3.1l2.3-1.5c0,0-0.9-1.5-1.9-3
						C765.5,340.7,764.6,339.2,764.6,339.2z"/>
				</g>
				<g>
					<path class="st19" d="M760.2,329.6l-2.6,1c0,0,0.6,1.8,1.4,3.4c0.8,1.7,1.6,3.3,1.6,3.3l2.5-1.2c0,0-0.8-1.6-1.5-3.2
						C760.8,331.2,760.2,329.6,760.2,329.6z"/>
				</g>
				<g>
					<polygon class="st19" points="757.1,319.5 754.4,320 756.3,327.2 759,326.3 					"/>
				</g>
				<g>
					<path class="st19" d="M756,309l-2.8,0.1c0,0,0.1,1.9,0.1,3.7c0.2,1.8,0.5,3.7,0.5,3.7l2.7-0.4c0,0-0.3-1.7-0.5-3.5
						C756,310.8,756,309,756,309z"/>
				</g>
				<g>
					<polygon class="st19" points="756.7,298.6 754,298.1 753.1,305.5 755.9,305.6 					"/>
				</g>
				<g>
					<path class="st19" d="M759.8,288.6l-2.6-1.1c0,0-0.8,1.7-1.4,3.4c-0.5,1.8-0.9,3.6-0.9,3.6l2.7,0.7c0,0,0.4-1.7,0.9-3.4
						C759,290.2,759.8,288.6,759.8,288.6z"/>
				</g>
			</g>
			<g>
				<g>
					<path class="st19" d="M764.7,279.4l-2.3-1.5c0,0-4,6.2-3.7,6.4l2.5,1.2C760.9,285.3,764.8,279.4,764.7,279.4z"/>
				</g>
				<g>
					<path class="st19" d="M771.2,271.1l-2-1.9c0,0-1.2,1.4-2.4,2.8s-2.5,2.8-2.4,2.8l2.2,1.7c-0.1-0.1,1.1-1.4,2.3-2.7
						C770.1,272.5,771.2,271.1,771.2,271.1z"/>
				</g>
				<g>
					<path class="st19" d="M779.1,264.5l-1.4-2.4c0,0-1.7,0.9-3.2,2c-1.4,1.2-2.9,2.4-2.9,2.4l1.9,2.1c0,0,1.3-1.1,2.7-2.2
						S779.1,264.5,779.1,264.5z"/>
				</g>
				<g>
					<path class="st19" d="M788.7,260.6l-0.7-2.7c0,0-1.8,0.5-3.6,1.1s-3.5,1.4-3.5,1.4l1.2,2.5c0,0,1.6-0.8,3.2-1.3
						C787,261.1,788.7,260.6,788.7,260.6z"/>
				</g>
				<g>
					<path class="st19" d="M799.1,259.1l-0.1-2.8c0,0-1.8,0.2-3.7,0.3c-1.9,0.1-3.7,0.5-3.7,0.5l0.5,2.7
						C792,259.7,799.1,259.1,799.1,259.1z"/>
				</g>
				<g>
					<path class="st19" d="M809.5,259.7l0.5-2.7c0,0-1.8-0.3-3.7-0.4c-1.8-0.3-3.7-0.2-3.7-0.2l-0.1,2.8c0,0,1.8,0,3.5,0.2
						C807.8,259.5,809.5,259.7,809.5,259.7z"/>
				</g>
				<g>
					<path class="st19" d="M819.4,262.7l1.2-2.5c0.1-0.2-7-2.7-7.1-2.5l-0.7,2.7C812.9,260.3,819.5,262.5,819.4,262.7z"/>
				</g>
			</g>
			<g>
				<g>
					<path class="st19" d="M827.5,268.7l2.2-1.7c0,0-1.4-1.4-2.7-2.8c-1.5-1.2-3.1-2.2-3.1-2.2l-1.5,2.4c0,0,1.5,0.9,2.8,2
						C826.3,267.5,827.5,268.7,827.5,268.7z"/>
				</g>
				<g>
					<path class="st19" d="M830.6,277.8h2.8c-0.1,0,0.1-2-0.4-3.9c-0.6-1.9-1.2-3.8-1.3-3.7l-2.5,1.2c0.1-0.1,0.5,1.6,1.1,3.1
						C830.7,276.1,830.5,277.8,830.6,277.8z"/>
				</g>
				<g>
					<path class="st19" d="M828.6,287.6l2.5,1.2c0,0,0.8-1.7,1.3-3.6c0.2-0.9,0.5-1.9,0.6-2.6s0.1-1.1,0.1-1.1l-2.8-0.3
						c0,0,0,0.4-0.1,1.1c-0.2,0.6-0.4,1.4-0.5,2.2C829.3,286.1,828.6,287.6,828.6,287.6z"/>
				</g>
				<g>
					<path class="st19" d="M822,294.9l1.4,2.4c0,0,1.7-1,3.1-2.3c1.5-1.3,2.6-2.9,2.6-2.9l-2.2-1.6c0,0-0.9,1.4-2.2,2.5
						C823.5,294,822.1,294.9,822,294.9z"/>
				</g>
				<g>
					<path class="st19" d="M812.4,297.7l0.2,2.8c0,0,1.9-0.1,3.8-0.5c1.9-0.3,3.7-1.1,3.7-1.1l-1-2.6c0,0-1.6,0.6-3.3,0.9
						C814.2,297.6,812.4,297.7,812.4,297.7z"/>
				</g>
				<g>
					<path class="st19" d="M802.2,296.6l-0.7,2.7c-0.1,0.2,7.4,1.4,7.4,1.2l0.2-2.8C809.1,297.9,802.2,296.8,802.2,296.6z"/>
				</g>
				<g>
					<path class="st19" d="M792.6,292.6l-1.4,2.4c0,0,1.6,1,3.3,1.7c1.7,0.8,3.5,1.4,3.5,1.4l0.9-2.6c0,0-1.6-0.6-3.2-1.3
						C794.1,293.5,792.6,292.6,792.6,292.6z"/>
				</g>
			</g>
			<g>
				<g>
					<path class="st19" d="M784.2,286.5l-1.9,2c0,0,1.4,1.3,2.8,2.4c1.5,1.1,3,2.2,3,2.2l1.6-2.3c0,0-1.5-1-2.8-2.1
						C785.5,287.7,784.2,286.5,784.2,286.5z"/>
				</g>
				<g>
					<path class="st19" d="M777.3,278.7l-2.3,1.6c0,0,1,1.6,2.3,2.9c1.1,1.5,2.5,2.8,2.5,2.8l2-1.9c0,0-1.2-1.3-2.3-2.6
						C778.2,280.1,777.3,278.7,777.3,278.7z"/>
				</g>
				<g>
					<path class="st19" d="M772.1,269.6l-2.6,1.1c0,0,0.8,1.7,1.6,3.3c0.8,1.7,1.8,3.2,1.8,3.2l2.4-1.5c0,0-1-1.5-1.7-3.1
						C772.8,271.2,772.1,269.6,772.1,269.6z"/>
				</g>
				<g>
					<path class="st19" d="M768.9,259.6l-2.7,0.6c0,0,0.3,1.8,0.9,3.6c0.6,1.8,1.1,3.5,1.1,3.5l2.6-0.9c0,0-0.5-1.7-1.1-3.4
						C769.2,261.3,768.9,259.6,768.9,259.6z"/>
				</g>
				<g>
					<path class="st19" d="M767.5,249.2l-2.8,0.1c0,0,0.1,1.8,0.3,3.7c0.3,1.8,0.5,3.7,0.5,3.7l2.7-0.4c0,0-0.3-1.8-0.5-3.5
						C767.6,250.9,767.5,249.2,767.5,249.2z"/>
				</g>
				<g>
					<path class="st19" d="M767.8,238.6l-2.8-0.3c0,0-0.2,1.8-0.3,3.7c-0.1,1.8-0.1,3.7-0.1,3.7h2.8c0,0-0.1-1.8,0.1-3.5
						C767.6,240.4,767.8,238.6,767.8,238.6z"/>
				</g>
				<g>
					<path class="st19" d="M769.8,228.3l-2.7-0.7c0,0-0.5,1.8-0.9,3.6s-0.7,3.6-0.7,3.6l2.7,0.5c0,0,0.2-1.8,0.7-3.5
						C769.4,230,769.8,228.3,769.8,228.3z"/>
				</g>
			</g>
			<g>
				<g>
					<path class="st19" d="M773.3,218.3l-2.6-1.1c0,0-0.7,1.7-1.4,3.4c-0.6,1.7-1.2,3.5-1.2,3.5l2.6,0.9c0,0,0.6-1.7,1.1-3.4
						C772.7,219.9,773.3,218.3,773.3,218.3z"/>
				</g>
				<g>
					<path class="st19" d="M778,208.8l-2.4-1.4c0,0-0.9,1.6-1.8,3.2c-0.8,1.6-1.6,3.3-1.6,3.3l2.5,1.2c0,0,0.8-1.6,1.6-3.2
						C777.1,210.3,778,208.8,778,208.8z"/>
				</g>
				<g>
					<path class="st19" d="M783.7,199.8l-2.3-1.6c0,0-1.1,1.5-2.1,3s-2,3.1-2,3.1l2.4,1.4c0,0,1-1.5,1.9-3
						C782.6,201.2,783.7,199.8,783.7,199.8z"/>
				</g>
				<g>
					<path class="st19" d="M790.2,191.4l-2.1-1.8c0,0-1.1,1.4-2.3,2.8c-1.2,1.4-2.3,2.9-2.3,2.9l2.2,1.7c0,0,1.1-1.4,2.2-2.8
						C789.1,192.8,790.2,191.4,790.2,191.4z"/>
				</g>
				<g>
					<path class="st19" d="M797.5,183.5l-2-2c0,0-1.3,1.3-2.5,2.6c-1.3,1.3-2.5,2.7-2.5,2.7l2.1,1.9c0,0,1.1-1.4,2.4-2.6
						C796.2,184.8,797.5,183.5,797.5,183.5z"/>
				</g>
				<g>
					<path class="st19" d="M805.3,176.4l-1.8-2.1c0,0-1.4,1.2-2.8,2.4c-1.3,1.2-2.7,2.5-2.7,2.5l1.9,2c0,0,1.3-1.2,2.6-2.4
						C804,177.5,805.3,176.4,805.3,176.4z"/>
				</g>
				<g>
					<path class="st19" d="M813.7,169.8l-1.6-2.3c0,0-1.5,1-3,2.2c-1.5,1.1-2.9,2.2-2.9,2.2l1.7,2.2c0,0,1.4-1.1,2.8-2.2
						C812.2,170.8,813.7,169.8,813.7,169.8z"/>
				</g>
			</g>
			<g>
				<g>
					<path class="st19" d="M822.7,164l-1.4-2.4c0,0-1.5,1-3.1,1.9s-3.1,2-3.1,2l1.5,2.3c0,0,1.5-1,3-1.9
						C821.2,165,822.7,164,822.7,164z"/>
				</g>
				<g>
					<path class="st19" d="M832.1,159.1l-1.2-2.5c0,0-1.6,0.8-3.3,1.6s-3.2,1.7-3.2,1.7l1.3,2.4c0,0,1.5-0.9,3.2-1.7
						C830.5,159.9,832.1,159.1,832.1,159.1z"/>
				</g>
				<g>
					<path class="st19" d="M842,155.3l-0.9-2.6c0,0-1.7,0.6-3.5,1.2c-1.7,0.7-3.4,1.4-3.4,1.4l1.1,2.6c0,0,1.7-0.7,3.3-1.3
						C840.3,155.8,842,155.3,842,155.3z"/>
				</g>
				<g>
					<path class="st19" d="M852.2,152.6l-0.5-2.7c0,0-1.8,0.4-3.6,0.7c-1.8,0.5-3.6,1-3.6,1l0.7,2.7c0,0,1.7-0.5,3.4-0.9
						C850.5,153,852.2,152.6,852.2,152.6z"/>
				</g>
				<g>
					<path class="st19" d="M862.7,151.5v-2.8c0,0-1.8,0.1-3.7,0.1c-1.8,0.2-3.7,0.4-3.7,0.4l0.4,2.8c0,0,1.8-0.2,3.5-0.4
						C861,151.6,862.7,151.5,862.7,151.5z"/>
				</g>
				<g>
					<path class="st19" d="M873.2,152.3l0.5-2.7c0,0-1.8-0.3-3.7-0.6c-1.9-0.1-3.7-0.2-3.7-0.2l-0.1,2.8c0,0,1.8,0.1,3.5,0.2
						C871.4,152.1,873.2,152.3,873.2,152.3z"/>
				</g>
				<g>
					<path class="st19" d="M883.2,155.3l1.1-2.5c0,0-1.8-0.7-3.5-1.3c-1.7-0.7-3.6-1-3.6-1l-0.7,2.7c0,0,1.7,0.4,3.4,1
						C881.5,154.7,883.2,155.3,883.2,155.3z"/>
				</g>
			</g>
			<g>
				<g>
					<path class="st19" d="M892.2,160.5l1.7-2.2c0,0-1.6-1-3.1-2.1s-3.2-1.9-3.2-1.9l-1.3,2.5c0,0,1.6,0.7,3,1.7
						C890.7,159.6,892.2,160.5,892.2,160.5z"/>
				</g>
				<g>
					<path class="st19" d="M899.7,167.8l2.1-1.8c0,0-1.2-1.4-2.5-2.8c-1.2-1.5-2.7-2.6-2.7-2.6l-1.8,2.1
						C895,162.5,899.7,167.8,899.7,167.8z"/>
				</g>
				<g>
					<polygon class="st19" points="905.5,176.4 908,175.2 904.2,168.8 901.9,170.4 					"/>
				</g>
				<g>
					<path class="st19" d="M908.1,186.3l2.8-0.3c0,0-0.2-1.9-0.4-3.8c-0.5-1.8-1.2-3.6-1.2-3.6l-2.6,0.9c0,0,0.6,1.6,1.1,3.3
						C907.9,184.6,908.1,186.3,908.1,186.3z"/>
				</g>
				<g>
					<path class="st19" d="M907.1,196.3l2.7,0.8c-0.1,0,0.9-1.8,0.9-3.7c0.2-1.9,0.4-3.8,0.4-3.8l-2.8-0.1c0,0-0.2,1.7-0.4,3.4
						C907.9,194.8,906.9,196.3,907.1,196.3z"/>
				</g>
				<g>
					<path class="st19" d="M902.3,205.3l2.2,1.8c0.4,0.3,4.1-6.4,4.1-6.4l-2.5-1.1C906,199.5,902.7,205.5,902.3,205.3z"/>
				</g>
				<g>
					<path class="st19" d="M894.5,211.7l1.3,2.5c0,0,0.4-0.2,1.1-0.5c0.6-0.3,1.3-1,2.1-1.5c1.5-1.1,3.1-2.2,3-2.3l-1.9-2
						c0.1,0.1-1.3,1.1-2.7,2.1c-0.7,0.5-1.4,1.1-1.9,1.4C894.9,211.5,894.5,211.7,894.5,211.7z"/>
				</g>
			</g>
			<g>
				<g>
					<path class="st19" d="M884.8,214.4l0.1,2.8c0,0.5,7.6-1.3,7.5-1.4l-0.9-2.6c0,0.1-1.6,0.5-3.3,0.8c-0.8,0.2-1.7,0.4-2.3,0.5
						C885.3,214.4,884.8,214.4,884.8,214.4z"/>
				</g>
				<g>
					<path class="st19" d="M874.9,212.6l-1.1,2.6c-0.1,0.1,1.8,0.6,3.6,1.1c0.9,0.3,1.8,0.5,2.5,0.7c0.7,0.1,1.2,0.1,1.2,0.1
						l0.3-2.8c0,0-0.4,0-1.1-0.1c-0.6-0.2-1.4-0.4-2.3-0.6C876.6,213.1,874.9,212.7,874.9,212.6z"/>
				</g>
				<g>
					<path class="st19" d="M866.5,206.8l-1.9,2c0,0,1.4,1.2,2.8,2.5c1.4,1.3,3.2,2,3.2,2l1.4-2.4c0.1-0.1-1.6-0.7-2.9-1.9
						C867.8,207.9,866.5,206.8,866.5,206.8z"/>
				</g>
				<g>
					<polygon class="st19" points="859.9,198.8 857.5,200.3 862,206.2 864.1,204.4 					"/>
				</g>
				<g>
					<path class="st19" d="M855.2,189.4l-2.6,1c0,0,0.6,1.8,1.4,3.5c0.9,1.6,1.7,3.3,1.7,3.3l2.4-1.3c0,0-0.8-1.5-1.7-3.1
						C855.8,191.1,855.2,189.4,855.2,189.4z"/>
				</g>
				<g>
					<path class="st19" d="M852.6,179.3l-2.8,0.4c0,0,0.4,1.8,0.7,3.6c0.4,1.8,0.7,3.7,0.8,3.6l2.7-0.8c-0.1,0-0.4-1.7-0.8-3.4
						C852.9,181.1,852.6,179.3,852.6,179.3z"/>
				</g>
				<g>
					<path class="st19" d="M852.6,168.9l-2.8-0.3c0,0-0.2,1.9-0.3,3.7s0.1,3.7,0.1,3.7l2.8-0.1c0,0-0.2-1.7-0.1-3.5
						C852.4,170.7,852.6,168.9,852.6,168.9z"/>
				</g>
			</g>
			<g>
				<g>
					<path class="st19" d="M854.9,158.7l-2.6-0.9c0,0-0.8,1.7-1.1,3.5c-0.4,1.8-0.8,3.6-0.8,3.6l2.7,0.5
						C853.1,165.5,854.6,158.7,854.9,158.7z"/>
				</g>
				<g>
					<path class="st19" d="M859.2,149.2l-2.4-1.4c0,0-3.5,6.5-3.2,6.7l2.6,1.1c0,0,0.1-0.4,0.4-1c0.3-0.6,0.7-1.4,1.1-2.2
						C858.4,150.7,859.2,149.2,859.2,149.2z"/>
				</g>
				<g>
					<path class="st19" d="M865.2,140.5l-2.2-1.8c0,0-1.2,1.4-2.3,2.9c-1,1.5-2,3.1-2,3.1l2.3,1.5c0,0,1-1.5,1.9-3
						C864,141.9,865.2,140.5,865.2,140.5z"/>
				</g>
				<g>
					<path class="st19" d="M872.3,132.7l-1.9-2c0,0-1.3,1.3-2.6,2.6s-2.5,2.7-2.6,2.6l2.1,1.9c0,0,1.2-1.3,2.5-2.6
						C871.1,134,872.3,132.7,872.3,132.7z"/>
				</g>
				<g>
					<path class="st19" d="M880.5,126l-1.6-2.2c0,0-1.6,1-2.9,2.2c-1.4,1.2-2.8,2.4-2.8,2.4l1.8,2.1c0,0,1.4-1.1,2.7-2.3
						S880.5,126,880.5,126z"/>
				</g>
				<g>
					<path class="st19" d="M889.4,120.3l-1.4-2.4c0,0-6.3,3.7-6.3,3.8l1.6,2.3C883.3,123.9,889.4,120.3,889.4,120.3z"/>
				</g>
				<g>
					<polygon class="st19" points="898.9,115.5 897.8,112.9 891.2,116.1 892.5,118.6 					"/>
				</g>
			</g>
			<g>
				<g>
					<path class="st19" d="M908.9,111.8l-0.8-2.7c0,0-1.8,0.4-3.5,1.1s-3.4,1.3-3.4,1.3l1,2.6c0,0,1.7-0.6,3.3-1.3
						C907.2,112.3,908.9,111.8,908.9,111.8z"/>
				</g>
				<g>
					<path class="st19" d="M919.2,109.4l-0.5-2.8c0,0-1.8,0.3-3.6,0.6c-1.8,0.4-3.5,1-3.5,1l0.7,2.7c0,0,1.7-0.6,3.4-0.9
						C917.4,109.6,919.2,109.4,919.2,109.4z"/>
				</g>
				<g>
					<path class="st19" d="M929.7,108.2l-0.1-2.8c0,0-7.4,0.3-7.3,0.6l0.4,2.8C922.6,108.5,929.7,108.2,929.7,108.2z"/>
				</g>
				<g>
					<polygon class="st19" points="940.2,108.6 940.5,105.8 933.2,105.3 933.2,108.1 					"/>
				</g>
				<g>
					<path class="st19" d="M950.6,110.6l0.7-2.7c0.1-0.2-7.2-1.5-7.2-1.5l-0.4,2.7C943.7,109.1,950.7,110.3,950.6,110.6z"/>
				</g>
				<g>
					<path class="st19" d="M960.5,114.1l1.1-2.6c0,0-1.7-0.7-3.4-1.5c-1.8-0.6-3.5-1.1-3.5-1.1l-0.8,2.7c0,0,1.7,0.5,3.4,1.1
						C958.9,113.4,960.5,114.1,960.5,114.1z"/>
				</g>
				<g>
					<path class="st19" d="M969.9,119l1.5-2.4c0,0-6.3-3.8-6.4-3.6l-1.2,2.5c0,0,0.4,0.2,1,0.4c0.6,0.3,1.3,0.8,2.1,1.2
						C968.4,118.1,969.9,119,969.9,119z"/>
				</g>
			</g>
			<g>
				<g>
					<polygon class="st19" points="978.5,125.1 980.3,122.9 974.4,118.5 972.8,120.8 					"/>
				</g>
				<g>
					<path class="st19" d="M986.2,132.4l2-1.9c0.2-0.2-5.2-5.1-5.2-5.1l-1.9,2.1C981.1,127.4,986.3,132.2,986.2,132.4z"/>
				</g>
				<g>
					<path class="st19" d="M992.9,140.6l2.2-1.6c0,0-1.1-1.5-2.1-3c-1.2-1.4-2.4-2.8-2.4-2.8l-2.1,1.8c0,0,1.2,1.3,2.3,2.7
						C991.8,139.2,992.9,140.6,992.9,140.6z"/>
				</g>
				<g>
					<path class="st19" d="M998.6,149.5l2.4-1.4c0,0-0.9-1.6-1.8-3.2c-0.9-1.6-2-3.1-2-3.1l-2.3,1.5c0,0,1.1,1.4,2,3
						C997.7,148,998.6,149.5,998.6,149.5z"/>
				</g>
				<g>
					<path class="st19" d="M1003.3,159.1l2.6-1.1c0,0-2.9-6.7-3.1-6.6l-2.5,1.3C1000.5,152.5,1003.3,159.1,1003.3,159.1z"/>
				</g>
				<g>
					<path class="st19" d="M1007,169l2.6-0.9c0,0-0.6-1.7-1.2-3.5c-0.6-1.7-1.2-3.5-1.2-3.5l-2.6,1c0,0,0.6,1.7,1.2,3.4
						C1006.4,167.3,1007,169,1007,169z"/>
				</g>
				<g>
					<polygon class="st19" points="1009.7,179.3 1012.5,178.7 1010.8,171.6 1008.1,172.3 					"/>
				</g>
			</g>
		</g>
		<g>
			<g>
				<g>
					<g>
						<path class="st23" d="M1103.3,556.6c1.6,12,6.8,27.8,6.5,35.9c0,1.3-0.2,1.8-4.5,2.5s-0.6,3.6,6.5,4.4
							c7.1,0.8,7.3-33.7,5.8-50.1C1116.2,534.9,1101.5,542.7,1103.3,556.6z"/>
					</g>
					<g>
						<path class="st22" d="M1115.3,596.3c0,0-6.5,1.9-10-1.3c0,0-7.1,0.1-3,2.6C1106.5,600,1114.7,602.7,1115.3,596.3z"/>
					</g>
				</g>
				<g>
					<g>
						<path class="st23" d="M1063.1,508.1c5.6,10.7,16,23.7,18.6,31.4c0.4,1.2,0.4,1.7-3.4,3.9c-3.7,2.2,0.7,3.6,7.6,1.8
							s-4.9-34.2-12.1-49C1067.7,483.3,1056.6,495.7,1063.1,508.1z"/>
					</g>
					<g>
						<path class="st22" d="M1088.2,541.2c0,0-5.5,4-9.8,2.2c0,0-6.6,2.6-1.9,3.4C1081.2,547.7,1089.9,547.3,1088.2,541.2z"/>
					</g>
				</g>
				<g>
					<path class="st1" d="M1082.9,471.2c0,0-28.2-13.5-31.2,0.4c-2.7,12.5,20.9,57.8,20.9,57.8s8.1,1.7,14.4-3.7l-6.3-29l17.8-0.4
						l-4.1-20L1082.9,471.2z"/>
				</g>
				<g>
					<path class="st24" d="M1121.1,478.6l-2.2,105.2l-12.5-0.3l-16-108.6C1090.4,474.9,1099.8,480,1121.1,478.6z"/>
				</g>
				<g>
					<path class="st23" d="M1090.3,446.5c0,0,10.5-3,10.5-16.3c0-13.2-7.6-43.5-7.5-48.4c0.3-8.9,13.8-9.5,8.7-10
						c-6.6-0.6-10.7-3.7-12.3,3.1c-1.1,4.7-6.3,50-5.7,57.7C1084.6,440.4,1082.8,446.2,1090.3,446.5z"/>
				</g>
				<g>
					<path class="st19" d="M1121.6,485.4L1121.6,485.4L1121.6,485.4c0-0.3-0.1-0.6-0.1-1l0,0c-0.8-13-1.8-21.4,4.6-32.9
						c9.3-16.6-3.9-21.6-11.8-24.8c-7.9-3.2-21.7-5.9-28.4,7.7c-4.8,9.9-7.9,24.2-6,35.5C1082.1,482.7,1124.6,500.1,1121.6,485.4z"
						/>
				</g>
				<g>
					<path class="st23" d="M1112.9,452.1c0,0,9.4,5.6,19.1-3.3c9.7-9,29.3-34.7,30.8-39.3c1.4-4.7,16.4,0.9,13.1-3.1
						s-4.9-6.8-11-3.3c-4.2,2.4-40.9,29.4-46.2,35C1113.5,443.8,1108,446.5,1112.9,452.1z"/>
				</g>
				<g>
					<g>
						<path class="st25" d="M1124.8,422.6c0,0-7.2,1.7-7.1,7.7c0.2,6.1-19.5-2.4-16.1-4.5c4.3-2.7,8.3-2.6,11.3-8.2L1124.8,422.6z"
							/>
					</g>
					<g>
						<path class="st23" d="M1128.1,406.3c-5.9-0.8-22.8,6.8-23,12.8c-0.1,2.6,6.5,7.8,15.9,6.9c3.8-0.4,10.2-2.1,12.9-8.5
							C1135.1,414.5,1134.9,407.2,1128.1,406.3z"/>
					</g>
					<g>
						<path class="st22" d="M1123.6,404.2c-2.3,0.7-2.6,1.2,0.8,7.1s4.5,6.6,2.8,7c-5,1.4-1.2,4.6-7.2,6.2c-5.9,1.6,0.3,3.9,5.5,2.9
							c1-0.2,6.3-0.8,9.8-7.8C1139.3,411.6,1132.3,401.8,1123.6,404.2z"/>
					</g>
					<g>
						<path class="st22" d="M1135.3,419.7c-2.9,6.7-8.7,7.6-9.8,7.8c-3.9,0.7-8.4-0.3-7.8-1.6c0.6-1.6,3.8,1.5,6.1-2
							c2.3-3.4,4.6-1.9,7-4.6c2.3-2.7,0.2-4.3-3.7-10.9c-1.6-2.7-1-3.9,0.2-4.4C1134.1,404.7,1138.4,412.6,1135.3,419.7z"/>
					</g>
				</g>
			</g>
			<g>
				<path class="st22" d="M1080.6,496.7l12.9-0.3l-1.1-7.8C1092.4,488.6,1092.8,495.1,1080.6,496.7z"/>
			</g>
			<g>
				<path class="st22" d="M1120.9,489.3c0,0-20.7,0.8-33.4-9.7c0,0,16.2,16.3,33.3,16.5L1120.9,489.3z"/>
			</g>
		</g>
		<g>
			<g>
				<rect x="728.7" y="472.7" class="st19" width="84.5" height="30.1"/>
				<rect x="725.1" y="470.8" class="st26" width="92" height="7.6"/>
				<rect x="715.8" y="472.7" class="st3" width="84.5" height="30.1"/>
				<rect x="712.2" y="470.8" class="st27" width="92" height="7.6"/>
				<g>
					<path class="st28" d="M728.5,487c0,0.9,0.9,1.7,1.9,1.7h50.5c1,0,1.9-0.7,1.9-1.7l0,0c0-0.9-0.9-1.7-1.9-1.7h-50.5
						C729.3,485.3,728.5,486,728.5,487L728.5,487z"/>
					<g>
						<path class="st19" d="M730.3,487c0-0.9,0.8-1.7,1.9-1.7h48.7c1,0,1.9,0.7,1.9,1.7c0,0.9-0.9,1.7-1.9,1.7h-48.7
							C731.1,488.6,730.3,487.9,730.3,487z"/>
					</g>
				</g>
				<rect x="728.7" y="478.4" class="st29" width="84.5" height="2.8"/>
				<rect x="715.8" y="478.4" class="st30" width="84.5" height="2.8"/>
			</g>
			<polygon class="st31" points="798.5,545.6 717.2,545.6 717.2,522.3 798.5,528.3 			"/>
			<polygon class="st4" points="752.1,530.7 798.5,535.9 798.5,529.6 			"/>
			<polygon class="st4" points="827.8,535.9 696.2,522 696.2,502.7 827.8,502.7 			"/>
			<polygon class="st31" points="809.1,502.7 696.2,502.7 809.1,510.2 			"/>
			<rect x="703.7" y="545.6" class="st4" width="119.2" height="31.6"/>
			<rect x="714.9" y="577.2" class="st31" width="118.4" height="20.2"/>
			<polygon class="st31" points="795.4,577.2 754.8,577.2 795.4,582.1 			"/>
			<polygon class="st4" points="714.9,585.3 772.9,587.3 714.9,587.3 			"/>
			<polygon class="st31" points="703.7,545.6 754.8,545.6 703.7,549 			"/>
			<polygon class="st31" points="717.2,537 730.2,535.5 717.2,534 			"/>
			<g>
				<rect x="732.3" y="437.8" class="st6" width="51.8" height="33.5"/>
				<rect x="773.4" y="437.8" class="st1" width="40.9" height="33.5"/>
				<polygon class="st6" points="814.1,437.8 820,426 779.6,426 773.7,437.8 				"/>
				<polygon class="st6" points="773.4,437.8 770.4,448.8 732.3,448.8 732.3,437.8 				"/>
				<polygon class="st1" points="732.3,437.8 721.8,446.1 764.8,446.1 773.4,437.8 				"/>
				<path class="st6" d="M809.8,452.8c0,0.5-0.5,0.9-1.1,0.9h-28.1c-0.6,0-1.1-0.4-1.1-0.9l0,0c0-0.5,0.5-0.9,1.1-0.9h28.1
					C809.3,451.9,809.8,452.3,809.8,452.8L809.8,452.8z"/>
				<g>
					<path class="st6" d="M808.8,452.8c0-0.5-0.5-0.9-1.1-0.9h-27.1c-0.6,0-1.1,0.4-1.1,0.9s0.5,0.9,1.1,0.9h27.1
						C808.3,453.7,808.8,453.3,808.8,452.8z"/>
				</g>
				<path class="st6" d="M809.8,456.3c0,0.5-0.5,0.9-1.1,0.9h-28.1c-0.6,0-1.1-0.4-1.1-0.9l0,0c0-0.5,0.5-0.9,1.1-0.9h28.1
					C809.3,455.4,809.8,455.8,809.8,456.3L809.8,456.3z"/>
				<g>
					<path class="st6" d="M808.8,456.3c0-0.5-0.5-0.9-1.1-0.9h-27.1c-0.6,0-1.1,0.4-1.1,0.9s0.5,0.9,1.1,0.9h27.1
						C808.3,457.2,808.8,456.8,808.8,456.3z"/>
				</g>
			</g>
		</g>
		<g>
			<g>
				<g>
					<g>
						<g>
							<g>
								<g>
									<path class="st2" d="M853.9,410.7c8.3-1.6,11.6,2.2,12.4,7.3c1.3,7.8,1.4,20.8-9.7,30.9c-11.1,10.1-42.3-0.6-42.3-0.6
										s-0.2-3.7,0-6.9c0,0,25.3,1.9,33-9.1C851.1,426.8,846.1,412.2,853.9,410.7z"/>
								</g>
							</g>
						</g>
					</g>
				</g>
			</g>
			<g>
				<g>
					<g>
						<g>
							<g>
								<g>
									<g>
										<path class="st21" d="M907.8,592.1c2.5-2.8,2.4-3.3,1.7-4.2c-0.6-0.8-1.3-1.6-2.1-2.3l5.5-3.3c1.1,2,2,3.8,2.4,5.3
											C914.9,588.1,911.7,592.4,907.8,592.1z"/>
									</g>
								</g>
							</g>
						</g>
					</g>
				</g>
				<g>
					<g>
						<g>
							<g>
								<g>
									<g>
										<path class="st22" d="M915.3,587.6L915.3,587.6c3.2,4.6-3.9,7.3-8.1,7.9s0.6-3.4,0.6-3.4
											C911.7,592.4,914.9,588.1,915.3,587.6z"/>
									</g>
								</g>
							</g>
						</g>
					</g>
				</g>
			</g>
			<g>
				<g>
					<g>
						<g>
							<g>
								<g>
									<path class="st2" d="M914.7,581.3c0.8,2.7-5.2,7-6.9,5.6c-14.4-12.2-29.8-38.8-35.5-49.7c-0.3-0.5-0.5-0.9-0.7-1.3
										c-2.9-4.7-4.5-3.7-14.2-25.5c-3.2-7-5.1-19.3-5.1-19.3l9.7-4l21.6-8.9c7.7,7.3,10.9,28.2,12.6,36.8c1.4,7.3,3,19,4.5,24.7
										C905.9,559.3,909.8,563.3,914.7,581.3z"/>
								</g>
							</g>
						</g>
					</g>
				</g>
			</g>
			<g>
				<g>
					<g>
						<g>
							<g>
								<g>
									<g>
										<path class="st21" d="M851.6,597.4c3.5-1.5,3.6-2,3.3-3.1c-0.2-0.9-0.5-1.9-0.9-2.9l6.4-0.7c0.2,2.3,0.2,4.3-0.1,5.8
											C859.7,596.8,855,599.3,851.6,597.4z"/>
									</g>
								</g>
							</g>
						</g>
					</g>
				</g>
				<g>
					<g>
						<g>
							<g>
								<g>
									<g>
										<path class="st22" d="M860.3,596.5L860.3,596.5c1,5.5-6.6,5-10.7,3.8c-4.1-1.2,2-2.8,2-2.8
											C855,599.3,859.7,596.8,860.3,596.5z"/>
									</g>
								</g>
							</g>
						</g>
					</g>
				</g>
			</g>
			<g>
				<g>
					<g>
						<g>
							<g>
								<g>
									<path class="st22" d="M874.2,528.7c-0.9,2.6-1.8,4.8-2.6,7.1c-2.9-4.7-4.5-3.7-14.2-25.5c-3.2-7-5.1-19.3-5.1-19.3l9.7-4
										l9.8,0.7C875.6,497.7,876.9,520.6,874.2,528.7z"/>
								</g>
							</g>
						</g>
					</g>
				</g>
			</g>
			<g>
				<g>
					<g>
						<g>
							<g>
								<g>
									<path class="st3" d="M873.1,522.3c-1.8,7.2-5.8,14.6-5.8,24.7c0,20.5-1.9,25.1-5,43.4c-0.3,2.1-4.8,3.5-7.3,3
										c-0.4-0.1-0.7-0.2-0.9-0.4c-0.2-0.1-0.4-0.3-0.5-0.4c-7.9-17.1-13.3-46.2-14-58.5c-0.4-7.2-0.2-6.3,0-32.1
										c0.1-7.7,3.4-19.7,3.4-19.7l32,1C879.2,493.3,875.1,513.8,873.1,522.3z"/>
								</g>
							</g>
						</g>
					</g>
				</g>
			</g>
			<g>
				<g>
					<g>
						<g>
							<g>
								<g>
									<path class="st8" d="M855.1,593.4c-0.4-0.1-0.7-0.2-0.9-0.4c-4.9-13.5-6.9-27.9-8.7-40.3c-1.5-10.5-3.2-22.5-3.3-34.3
										c0-12.9,2.1-24.3,6.2-33.8c0.1-0.2,0.3-0.3,0.5-0.2c0.2,0.1,0.3,0.3,0.2,0.5c-4.1,9.4-6.2,20.7-6.1,33.5
										c0,11.7,1.7,23.7,3.3,34.2C848,565.2,850.1,579.8,855.1,593.4z"/>
								</g>
							</g>
						</g>
					</g>
				</g>
			</g>
			<g>
				<g>
					<g>
						<g>
							<g>
								<path class="st22" d="M891.8,495.1c-2-6.9-4.6-13.5-8.3-17l-12.5,5.2l-27.8-0.9c0,0-0.7,2.5-1.5,6
									C853.9,498.2,874.8,501.8,891.8,495.1z"/>
							</g>
						</g>
					</g>
				</g>
			</g>
			<g>
				<g>
					<g>
						<g>
							<g>
								<path class="st19" d="M843,430.5c-4.9,6.1-8,18.2-1.3,55.4c1.5,8.2,51.5,10.2,50.5,1.9c-3.1-25.6-13.7-40.7-24.6-58.5
									C864.6,424.5,852.6,418.4,843,430.5z"/>
							</g>
						</g>
					</g>
				</g>
			</g>
			<g>
				<g>
					<g>
						<g>
							<g>
								<g>
									<g>
										<path class="st21" d="M803.8,465.6c0,0-12.6-7-10.9-3.1c1.7,3.9,3.4,7.1,10.2,7.5L803.8,465.6z"/>
									</g>
								</g>
							</g>
						</g>
					</g>
				</g>
				<g>
					<g>
						<g>
							<g>
								<g>
									<g>
										<path class="st2" d="M843,433.8c8.4-1.2,11.6,2.4,12.3,7.5c1.1,7.8,0.9,20.9-10.4,30.7c-11.3,9.8-42.7-1.7-42.7-1.7
											s-1-4.2,1.7-6.4c0,0,24.5,5.9,32.5-5C840.2,453.7,833.9,435,843,433.8z"/>
									</g>
								</g>
							</g>
						</g>
					</g>
				</g>
			</g>
			<g>
				<g>
					<g>
						<g>
							<g>
								<g>
									<path class="st22" d="M838.6,394.1c-4.8,1.9-10,7.6-7.5,17.6c2.5,9.9,2.3,10.2-0.1,14.7c-6.1,11.5,16,4.9,12.7,16.1
										c-9.1,30.8,29.8,16.1,35.4,6.2c6.3-11.2,5.3-27.1-6.3-31.2c-3.8-1.3-0.9-14.5-9.4-14.7
										C854.8,402.4,857.3,386.7,838.6,394.1z"/>
								</g>
							</g>
						</g>
					</g>
				</g>
			</g>
		</g>
	</g>
</g>
</svg>
