<?xml version="1.0" encoding="utf-8"?>
<!-- Generator: Adobe Illustrator 21.0.0, SVG Export Plug-In . SVG Version: 6.00 Build 0)  -->
<svg version="1.1" id="Layer_1" xmlns="http://www.w3.org/2000/svg" xmlns:xlink="http://www.w3.org/1999/xlink" x="0px" y="0px"
	 viewBox="0 0 652.9 545.2" style="enable-background:new 0 0 652.9 545.2;" xml:space="preserve">
<style type="text/css">
	.st0{fill:#EAEAEA;}
	.st1{fill:#DBDADA;}
	.st2{fill:#C7C6C5;}
	.st3{fill:#A6A4A4;}
	.st4{fill:#263238;}
	.st5{fill:#DCA952;}
	.st6{fill:#465B65;}
	.st7{fill:#DC6A57;}
	.st8{opacity:0.1;enable-background:new    ;}
	.st9{fill:#37474F;}
	.st10{fill:#FFFFFF;}
	.st11{opacity:0.8;fill:#FFFFFF;enable-background:new    ;}
	.st12{opacity:0.1;}
</style>
<g>
	<g>
		<g>
			<g id="freepik--background-complete--inject-42">
				<rect x="42.2" y="210.3" class="st0" width="87.4" height="162.5"/>
				<rect x="38" y="205.8" class="st1" width="95.9" height="4.5"/>
				<rect x="133.9" y="205.8" class="st0" width="30.1" height="4.5"/>
				<rect x="129.6" y="210.3" class="st1" width="29.6" height="162.5"/>
				<path class="st2" d="M120.2,266.3H51.6v-38.8h68.6L120.2,266.3z M51.9,266.1H120v-38.4H51.9L51.9,266.1z"/>
				<rect x="76.4" y="238.8" class="st2" width="13.4" height="7.7"/>
				<path class="st2" d="M93.8,246H80.2v-6.7h13.6L93.8,246z M80.4,245.8h13.1v-6.3H80.4V245.8z"/>
				<path class="st2" d="M120.2,314.9H51.6v-38.8h68.6L120.2,314.9z M51.9,314.7H120v-38.3H51.9L51.9,314.7z"/>
				<rect x="76.4" y="287.5" class="st2" width="13.4" height="7.7"/>
				<path class="st2" d="M93.8,294.7H80.2V288h13.6L93.8,294.7z M80.4,294.5h13.1v-6.3H80.4V294.5z"/>
				<path class="st2" d="M120.2,363.6H51.6v-38.8h68.6L120.2,363.6z M51.9,363.4H120v-38.3H51.9L51.9,363.4z"/>
				<rect x="76.4" y="336.2" class="st2" width="13.4" height="7.7"/>
				<path class="st2" d="M93.8,343.4H80.2v-6.7h13.6L93.8,343.4z M80.4,343.1h13.1v-6.3H80.4V343.1z"/>
				<rect x="488.6" y="257.6" class="st0" width="87.4" height="115.2"/>
				<rect x="484.4" y="253.1" class="st1" width="95.9" height="4.5"/>
				<rect x="580.3" y="253.1" class="st0" width="30.1" height="4.5"/>
				<rect x="576" y="257.6" class="st1" width="29.6" height="115.2"/>
				<rect x="498.2" y="275" class="st3" width="68.4" height="38.5"/>
				<rect x="507.8" y="265.1" class="st2" width="52" height="37.7"/>
				<polygon class="st2" points="526.2,261.2 507.8,261.2 507.8,265.1 527.3,265.1 				"/>
				<polygon class="st3" points="559.7,302.8 507.7,302.8 503.7,268.2 555.7,268.2 				"/>
				<polygon class="st3" points="521.6,264.6 503.3,264.6 503.7,268.2 523.1,268.2 				"/>
				<rect x="465.2" y="275" class="st0" width="68.4" height="38.5"/>
				<path class="st2" d="M533.7,313.7h-68.6v-38.8h68.6V313.7z M465.3,313.4h68.1v-38.4h-68.1V313.4z"/>
				<rect x="489.8" y="286.2" class="st2" width="13.4" height="7.7"/>
				<path class="st2" d="M507.2,293.4h-13.6v-6.7h13.6V293.4z M493.9,293.2H507v-6.3h-13.1V293.2z"/>
				<rect x="533.8" y="280.7" class="st1" width="32.8" height="32.8"/>
				<path class="st2" d="M566.6,362.3H498v-38.8h68.6V362.3z M498.3,362.1h68.1v-38.3h-68.1V362.1z"/>
				<rect x="522.8" y="334.9" class="st2" width="13.4" height="7.7"/>
				<path class="st2" d="M540.2,342.1h-13.6v-6.7h13.6V342.1z M526.8,341.8h13.1v-6.3h-13.1V341.8z"/>
			</g>
			<g id="freepik--Floor--inject-42">
				<polygon class="st4" points="32.9,372.8 105.7,372.6 178.6,372.5 324.2,372.3 469.9,372.5 542.7,372.6 615.5,372.8 542.7,373 
					469.9,373.1 324.2,373.2 178.6,373.1 105.7,373 				"/>
			</g>
			<g id="freepik--Shadow--inject-42">
				<ellipse class="st0" cx="324.2" cy="425.7" rx="256.2" ry="28.1"/>
			</g>
			<g id="freepik--Plant--inject-42">
				<path class="st5" d="M591.7,309.1c-0.8,3.1-1.4,6.2-1.7,9.3c0.1,0.2,0.1,0.7,0,0.6c0,0.5-0.8,0.4-0.8-0.1v-1
					c-1.8-2.3-4.5-3.7-6.6-5.7c-1.7-1.5-3-3.5-3.6-5.8c-1.8-6.1-0.1-12.6-2.3-18.8c-1.8-5.3-5.1-9.8-7.9-14.6
					c-2.9-5-5.1-10.4-5.4-16.3c-0.2-4.5,0.4-10.6,3.8-14c3.7-3.6,8.2-0.9,11,2.3c8.1,9.3,11.9,21.1,13.4,33.1
					c0.8,6.7,1.7,13.4,1.5,20.1C593.1,302,592.6,305.6,591.7,309.1z"/>
				<path class="st4" d="M590.1,320.9c0.4-6.3,0.4-12.6-0.2-18.9c0,0,0,0,0-0.1c0.1-5.1,0.5-10.2,0.3-15.3c-0.2-5.5-1-11-2.2-16.4
					c0-0.1-0.1,0-0.1,0c1,5.3,1.6,10.7,1.8,16c0.1,2.9,0.1,5.8-0.1,8.7c-0.1,0.9-0.1,1.9-0.2,2.8l0,0c-2.1-14.3-7.3-28-15.2-40.2
					c-0.1-0.2-0.4,0-0.3,0.2c5.6,9.2,9.8,19.3,12.4,29.8c-3.9-7.2-9.8-13.2-14.2-20.1c0,0-0.1,0-0.1,0c3.9,7.7,10.4,13.8,14.6,21.4
					c0.7,3.1,1.3,6.3,1.7,9.4c0.6,4.3,0.9,8.7,0.9,13.1c-2.4-4.5-4.8-8.7-6.8-13.4c0-0.1-0.2,0-0.2,0.1c1.7,4.9,3.9,10.1,7,14.3
					c0,3.1-0.1,6.2-0.3,9.3c-0.5,8.2-1.9,16.4-2.5,24.6c0,0.1,0.1,0.2,0.2,0.2s0.2-0.1,0.2-0.2C588.5,337.9,589.6,329.4,590.1,320.9
					z"/>
				<path class="st4" d="M581.4,257.3C581.3,257.3,581.3,257.3,581.4,257.3C581.3,257.3,581.3,257.3,581.4,257.3
					c1.4,4.2,2.3,8.4,3.4,12.6c0,0.1,0.1,0.1,0.2,0.1c0.1,0,0.1-0.1,0.1-0.2C584.4,265.6,583.2,261.3,581.4,257.3z"/>
				<path class="st5" d="M619.6,274.8c-1,2.5-2.2,4.8-3.5,7.1c-2.7,4.9-5.5,9.4-6.1,15.2c-0.1,2.6-0.4,5.1-1.1,7.6
					c-0.7,2.1-1.7,4.1-3,5.9c-2.9,4.3-6.6,8-9.3,12.4c-2.8,4.6-4.9,9.7-6.2,15c-0.1,0.3-0.5,0.2-0.5-0.1c0,0,0,0,0-0.1
					c0,0,0,0,0-0.1c-0.4-12.3,0.6-24.7,4.3-36.4c1.7-5.2,3.6-10.3,6-15.2c1.9-4.3,4.6-8.3,8-11.6c2.3-2.1,7.2-6,10.5-3.9
					C620.3,271.6,620.2,273.2,619.6,274.8z"/>
				<path class="st4" d="M607.2,302.6c-2.2,3.6-4.6,7-7.1,10.3c-1.2,1.6-2.4,3.1-3.6,4.6c-0.6,0.7-1.2,1.5-1.7,2.3
					c0.3-1.3,0.6-2.6,1-3.9c1.6-6.2,3.1-12.5,5.5-18.4c2.4-5.8,5.3-11.4,8.5-16.7c0.1-0.1-0.1-0.2-0.2-0.1c-2.6,4.3-5.2,8.5-7.4,13
					c-1.2,2.5-2.3,5.1-3.1,7.7c1-5.6,2.4-11.1,4.2-16.5c0,0-0.1-0.1-0.1,0c-2.3,5.5-3.8,11.2-4.3,17.2l0,0c-0.5,1.6-1,3.2-1.5,4.8
					c-1.9,6.9-3.6,13.8-5.2,20.8c0-4.6,0.4-9.2,1.2-13.7c0,0,0-0.1-0.1-0.1c0,0-0.1,0-0.1,0.1c-1.2,4.7-1.6,9.6-1.2,14.4
					c-0.6,2.7-1.2,5.3-1.7,8c-1.2,5.7-2.7,11.4-3.4,17.2c0,0.1,0.1,0.1,0.1,0.1c0,0,0.1,0,0.1-0.1c0.9-3.1,1.3-6.3,2-9.5
					c0.7-3.1,1.4-6.3,2.1-9.4c1.1-4.6,2.2-9.1,3.3-13.7c0.8-1.7,2.2-3.1,3.3-4.5c1.1-1.4,2.4-3.1,3.6-4.6
					C603.6,308.9,605.6,305.9,607.2,302.6C607.4,302.6,607.3,302.5,607.2,302.6z"/>
				<path class="st4" d="M607.8,297.4c-2.7,3.5-5,7.2-7,11.1c0,0.1,0.1,0.1,0.1,0.1c2.4-3.7,4.7-7.4,7-11.1
					C607.9,297.4,607.8,297.3,607.8,297.4z"/>
				<path class="st5" d="M555.4,286.4c1.6,2.7,3.4,6,2.7,9.3c-0.4,2.1-2,3.8-2.2,5.9c-0.6,4.7,4.1,7.8,7.5,10
					c8.4,5.5,20,10.5,21.5,21.8c0.1,0.4,0.8,0.3,0.7-0.1c0,0,0,0,0-0.1c0,0,0,0,0-0.1c1.1-5.7,1.1-11.6-0.2-17.3
					c-1.3-5.8-3.8-11.1-6.8-16.2c-5.1-8.7-10.5-17.5-18.1-24.1c-2.1-1.8-6.5-5.1-8.2-1C550.6,278.8,553.5,283.1,555.4,286.4z"/>
				<path class="st4" d="M563.2,304.8c5.6,6.1,14.5,9.5,19.3,16.2c-2.7-10.3-7.8-19.9-14.8-27.9c-0.2-0.2,0.1-0.5,0.3-0.3
					c5.1,5,9.3,11,12.1,17.6c-1.3-4.6-3.1-9.1-5.2-13.4c0-0.1,0-0.2,0.1-0.2c0.1,0,0.2,0,0.2,0.1c2.6,4.7,4.5,9.7,5.6,15
					c6.3,15.4,6.9,33.4,5.6,49.6c0,0.2-0.4,0.2-0.4,0c0.4-12.8,0.2-25.7-2.9-38.2c-0.1-0.3-0.1-0.5-0.2-0.8
					c-5.2-7.3-14.1-10.7-19.8-17.6C563,304.8,563.1,304.7,563.2,304.8z"/>
				<path class="st4" d="M561.9,299.6c2.9,2.7,5.8,5.5,8.8,8.1c-3.3-2.2-6.3-5-8.9-8C561.6,299.6,561.8,299.5,561.9,299.6z"/>
				<path class="st4" d="M561.4,287.9c2.6,4.3,5.5,8.3,8.8,12.1c0,0,0,0.1,0,0.1c0,0-0.1,0-0.1,0c-3.6-3.5-6.6-7.6-8.9-12.1
					c0,0,0-0.1,0-0.1C561.3,287.8,561.4,287.9,561.4,287.9L561.4,287.9z"/>
				<polygon class="st6" points="574.6,372.9 600.4,372.9 596.9,338.3 578.6,338.3 				"/>
				<polygon class="st4" points="577.9,343.9 597.4,343.9 596.9,338.3 578.6,338.3 				"/>
				<rect x="575.4" y="334.4" class="st6" width="24.1" height="5.5"/>
			</g>
			<g id="freepik--Character--inject-42">
				<path class="st7" d="M187.2,434.7c-2.1,0.7-61.4-0.1-63.6-1.6c-0.9-0.5-1.3-9.2-1.4-19.7v-0.3c0-2.2-0.1-4.4-0.1-6.6
					c0-0.3,0-0.6,0-0.9c-0.1-15.1,0.2-30.8,0.2-30.8l39.7,0.4l-1.2,30.5l0,1.2l-0.2,6.3v0.7c0,0,22.6,10.4,24.9,12.3
					C187.5,428,189.3,434,187.2,434.7z"/>
				<path class="st5" d="M169.3,417.9c-0.2,0-0.2-0.1-0.2-0.1L169.3,417.9z"/>
				<path class="st5" d="M187.2,434.7c-2.1,0.7-61.4-0.1-63.6-1.6c-0.8-0.5-1.2-7.4-1.4-16.2c10.9,2.3,53,10.8,54.1,7.1
					c0.5-1.4-3.1-3.9-5.4-5.2c6.3,3,13.1,6.4,14.3,7.4C187.5,428,189.3,434,187.2,434.7z"/>
				<path class="st8" d="M149.9,434.6c-13.4-0.3-25.4-0.8-26.4-1.5c-0.8-0.5-1.2-7.4-1.4-16.2c1.5,0.3,3.7,0.8,6.3,1.3L149.9,434.6z
					"/>
				<path class="st9" d="M110,203.9c0,0,8.9,100.2,10.4,107.9c0.3,1.7,0.5,11.2,0.7,23.4c0.3,26.6,0.1,74.5,0.1,74.5H163
					c0,0-1.2-83-3.1-98.3c-1.8-15.3-13.7-107.5-13.7-107.5L110,203.9z"/>
				<path class="st4" d="M161.1,402.4c-6.5-0.1-4.6-0.2-11.2-0.3c-3.2,0-24.2-0.2-27.2,0.3c-0.1,0-0.1,0.1,0,0.1
					c3,0.5,24,0.3,27.2,0.3c6.5-0.1,4.6-0.1,11.2-0.3C161.1,402.6,161.2,402.5,161.1,402.4C161.1,402.4,161.1,402.4,161.1,402.4z"/>
				<path class="st4" d="M129.1,354.9l-0.1-18.2c0-5.9,0-11.8-0.3-17.6c-0.6-11.9-3-23.6-4.7-35.3c-1.7-11.7-3.1-23.6-4.5-35.4
					c-1.5-13.2-2.7-26.5-4.1-39.8c0-0.1-0.2-0.1-0.1,0c2,23.7,4.2,47.4,7.4,70.9c0.8,5.9,1.7,11.7,2.7,17.5c1,5.9,1.9,11.8,2.4,17.8
					s0.5,11.7,0.6,17.6l0.2,18.2c0.1,13.5,0.3,34.2,0.4,47.7c0,0.1,0.1,0.2,0.2,0.2c0.1,0,0.2-0.1,0.2-0.2
					C129.3,386.2,129.2,366.9,129.1,354.9z"/>
				<path class="st4" d="M101.2,203.9c0,0,17.7,100.2,19.2,107.9c0.3,1.7,0.5,11.2,0.7,23.4l0,0l20-131.3H101.2z"/>
				<path class="st7" d="M138.6,438.2c-2.1,0.5-61.2-4.5-63.4-6.1c-0.8-0.6-0.6-9.3,0-19.7c0-0.1,0-0.2,0-0.3
					c0.1-2.2,0.2-4.4,0.4-6.6c0-0.3,0-0.6,0.1-0.9c1-15.1,2.3-30.7,2.3-30.7l39.5,3.1l-3.4,30.3l-0.1,1.2l-0.7,6.3l-0.1,0.7
					c0,0,21.8,12,23.9,14C139.4,431.6,140.7,437.7,138.6,438.2z"/>
				<path class="st5" d="M138.6,438.2c-2.1,0.5-61.2-4.5-63.4-6.1c-0.7-0.5-0.6-6.9-0.3-15.3c9.2,2.3,53.3,13.4,54.6,9.8
					c0.3-0.8-0.7-1.9-1.9-3c4.6,2.7,8.7,5.1,9.6,5.9C139.4,431.6,140.7,437.7,138.6,438.2z"/>
				<path class="st9" d="M115.1,412l-41.8-1.8c0,0,11.4-91.7,11.6-97.3c0.3-8.4,4.3-42.9,7.7-70.9c0,0-6.4-15.2,5.6-38.1h48
					c0,0-3.2,21.8-8.7,35.6c-3.7,1.3-7.3,2.9-10.7,4.9c0,0-4.8,62.4-5,70.2C121.5,329.9,115.1,412,115.1,412z"/>
				<path class="st4" d="M114,404.3c-6.5-0.4-4.6-0.4-11.2-0.7c-3.2-0.2-24.1-1.2-27.1-0.9c-0.1,0-0.1,0.1,0,0.1
					c3,0.6,23.9,1.3,27.1,1.4c6.5,0.2,4.6,0.1,11.2,0.2C114.1,404.5,114.1,404.3,114,404.3z"/>
				<path class="st4" d="M101.4,205.9c-2.5,5.4-4.8,11-5.6,16.9c-0.6,6.3,0.1,12.7,2.1,18.7c0,0-0.3,4.9-0.7,8.1
					c-0.4,3.2-0.7,6.3-1.1,9.5c-0.7,6.4-1.5,12.8-2.2,19.2c-1.5,12.7-2.9,25.5-4.4,38.3c-1.5,12.8-2.9,25.5-4.3,38.3
					c-1.4,12.7-2.9,25.4-4.2,38.2c-0.2,1.6-0.3,3.2-0.5,4.8c0,0.2,0.3,0.2,0.3,0c1.7-12.7,3.1-25.5,4.7-38.2
					c1.5-12.7,3-25.4,4.5-38.1c1.5-12.7,3-25.5,4.4-38.3c1.4-12.6,3.1-25.1,4.3-37.7c0.1-1.5,0.2-2.9,0.1-4.4c0,0-2.7-8.9-2.4-14.7
					c0.3-6.1,1.8-10.6,3.9-16.2c0.5-1.4,1.1-2.8,1.6-4.2C102,205.8,101.5,205.7,101.4,205.9z"/>
				<path class="st4" d="M139.3,238.6c-4.3,1.6-8.5,3.5-12.5,5.8c-0.1,0-0.1,0.1,0,0.2c0,0.1,0.1,0.1,0.2,0.1
					c4.2-1.8,8.5-3.6,12.6-5.6c0.1-0.1,0.2-0.3,0.1-0.4C139.6,238.6,139.4,238.6,139.3,238.6z"/>
				<path class="st4" d="M133.4,231.6c0.4-2.5,0.8-5,1-7.6c0.4-4.7,0.4-9.5-0.2-14.2c0-0.1-0.1-0.1-0.2-0.1c0,0-0.1,0-0.1,0.1
					c0.1,6.5-0.3,13.1-1.1,19.6c-0.5,3.1-2,7.8,1.2,8.3c3.3,0.5,5.5-7.4,5.9-9.5c1-6.1,1.3-12.4,0.7-18.5c0-0.2-0.3-0.2-0.3,0
					c0,4.7-0.2,9.4-0.7,14.1c-0.2,2.2-1.9,14.2-5.7,13.3c-0.6-0.2-0.9-0.8-1-1.7C133,234,133.1,232.8,133.4,231.6"/>
				<path class="st4" d="M134.1,237.3c-0.4,0.8-0.6,1.6-0.9,2.5c-0.2,0.7-0.4,1.3-0.3,2c0,0.1,0.2,0.2,0.3,0.1
					c0.4-0.6,0.7-1.3,0.9-2c0.3-0.8,0.6-1.5,0.9-2.3c0.1-0.2,0-0.5-0.3-0.5S134.2,237.1,134.1,237.3z"/>
				<path class="st4" d="M120.5,116.8c-7.8,6.7-5.6,16.4-8.9,21.7c-2,3.2-8.5,6.6-9.7,10.3c-2.1,6.1,3.1,8.3,1.9,11.6
					c-1.6,4.7-7.9,4.3-9.1,12c-1.1,7.7,7.3,15.9,27.4,18.1c20.1,2.2,31.1-5.1,31.9-11.7c0.7-6.5-6-8.7-6.4-13.6
					c-0.3-3.1,3.8-5.3,4-11c0.2-5.7-5.4-7.6-6.2-12.5c-0.8-4.9,1.8-16.7-5.4-22.7C132.9,113.1,124.3,113.5,120.5,116.8z"/>
				<path class="st4" d="M121.3,117c-2.2,1.5-3.9,3.6-5.2,6c-1.3,2.5-2.2,5.2-2.9,7.9c-0.3,1.6-0.9,3.2-1.6,4.7
					c-0.7,1.3-1.6,2.4-2.7,3.3c-2.2,2-4.8,3.5-6.7,5.7s-3.3,4.9-2.5,7.7c0.4,1.6,1.4,2.8,2.1,4.3c0.6,1.4,0.8,3.1-0.3,4.2
					c-1,1-2.5,1.4-3.6,2.2c-1.1,0.8-2.1,1.7-2.9,2.8c-1.7,2.2-2.3,5-1.8,7.7c1.2,6.3,7.1,9.8,12.5,12l2.3,0.9c0.1,0,0.2-0.1,0.1-0.2
					c-5.4-2.4-11.7-5.3-13.8-11.4c-1-2.7-0.6-5.6,0.9-8c0.8-1.2,1.7-2.2,2.9-3c1.1-0.8,2.4-1.3,3.5-2.1c1.1-0.7,1.8-2,1.7-3.3
					c-0.2-1.4-0.7-2.8-1.5-4c-0.8-1.2-1.3-2.7-1.3-4.2c0.2-1.5,0.7-2.9,1.6-4c1.7-2.4,4.2-4,6.4-5.8c2.3-1.7,4-4.1,4.9-6.8
					c0.4-1.4,0.7-2.9,1-4.4c0.3-1.3,0.7-2.7,1.2-4c0.9-2.6,2.3-5,4.2-7c0.5-0.5,1.1-1,1.7-1.4C121.5,117,121.5,116.9,121.3,117z"/>
				<path class="st4" d="M154.9,174.1c-0.2-1.1-0.7-2.1-1.4-2.9c-0.7-0.9-1.5-1.6-2.3-2.4c-0.8-0.7-1.4-1.7-1.6-2.7
					c-0.1-1.3,0.2-2.5,0.9-3.6c0.7-1.1,1.3-2.3,1.8-3.5c0.4-1.2,0.7-2.5,0.8-3.7c0.1-2.6-0.6-5.2-2-7.5c-0.7-1.1-1.5-2.2-2.1-3.3
					c-0.8-1.2-1.4-2.5-1.8-3.9c-0.9-3-1.1-6.3-1.8-9.3c-0.8-3.2-1.9-6.3-3.3-9.2c0-0.1-0.1,0-0.1,0.1c1.2,2.6,2.2,5.4,2.9,8.2
					c0.6,2.7,0.9,5.4,1.4,8.2c0.2,1.3,0.5,2.6,1,3.9c0.5,1.2,1.1,2.3,1.8,3.4c1.4,2.2,2.8,4.4,3.1,7c0.4,2.6-0.1,5.2-1.3,7.5
					c-1.1,2-2.5,4.2-1.6,6.5c0.8,2,2.7,3.2,3.9,4.8c1.3,1.8,1.8,4.1,1.4,6.4c-1.1,5.6-6.7,8.4-12,8.7c-0.1,0-0.1,0.1-0.1,0.2
					c0,0,0,0.1,0.1,0.1c4.6-0.1,9.6-2.1,11.7-6.4C155.1,178.6,155.4,176.3,154.9,174.1z"/>
				<path class="st7" d="M132.1,165c2.9,7.5,16.3,35,26.3,37.2c11.3,2.4,33.1-6.3,47.1-12.3c5-2.2-7.3-19.6-12.8-21.6
					c-3.3-1.2-26.5,10.7-31.6,10.7c-2.9,0-9.4-10.6-22.3-20.7C131.8,152.8,128.2,154.8,132.1,165z"/>
				<path class="st7" d="M201.9,190.9c3-0.9,20-5.8,23.4-8c3.4-2.2,12.8-9.6,11.3-12.4c-1.5-2.8-4.4-0.9-4.4-0.9s3.5-3.7,1.7-6.4
					c-1.8-2.7-6.2,0.5-6.2,0.5s3.3-4.1,1.3-6.6s-5.9,1.4-5.9,1.4s3.2-3.6,0.7-5c-3-1.7-8.1,5.6-12.1,7.8c-0.9,0.5-19,9.1-19,9.1
					L201.9,190.9z"/>
				<path class="st4" d="M223.6,158c-3.8,5.4-6.3,7-12.3,9.5c-0.1,0-0.1,0.2,0.1,0.2c6-1.9,9.6-3.5,12.5-9.5
					C224,157.9,223.8,157.8,223.6,158z"/>
				<path class="st4" d="M228.1,163.2c-4.4,5.2-7.1,7.1-13.2,10.1c-0.1,0,0,0.2,0.1,0.2c6.2-2.5,9.7-4.2,13.4-10
					C228.5,163.2,228.3,163,228.1,163.2z"/>
				<path class="st4" d="M232,169.7c-4.6,4.7-7.6,6.9-13.8,9.1c-0.1,0-0.1,0.1-0.1,0.1c0,0.1,0.1,0.1,0.1,0.1
					c6.6-1.6,10.3-4.3,13.9-9.2C232.3,169.5,232.2,169.4,232,169.7z"/>
				<path class="st7" d="M187.6,169.8c0,0,4.9-7.4,7.8-9.7c2.9-2.3,16.7-7,17.9-4.1c1.5,3.8-5.9,8-9.8,9.7c0,0,3.6,8.8-1.2,13
					C197.6,182.9,187.6,169.8,187.6,169.8z"/>
				<path class="st4" d="M213.4,157.1c-1.1,4.5-6.4,6.3-10.1,8.1c-0.2,0.1-0.3,0.3-0.2,0.5c0,0,0,0.1,0.1,0.1
					c1.2,3.8,1.9,9.4-0.6,12.8c0,0,0,0.1,0,0.1c0,0,0.1,0,0.1,0c3.2-3.2,3-8.8,1.4-12.9C207.9,164,213.1,162,213.4,157.1
					L213.4,157.1z"/>
				<path class="st5" d="M152.9,204.2l6.1-27.5c-6.1-6.8-12.6-13.2-19.5-19.3c-9.9-8.5-14.6-7.6-8.7,7.6
					C136.7,180.3,145.5,197.9,152.9,204.2z"/>
				<path class="st5" d="M152.9,204.2l6.1-27.5c-6.1-6.8-12.6-13.2-19.5-19.3c-9.9-8.5-14.6-7.6-8.7,7.6
					C136.7,180.3,145.5,197.9,152.9,204.2z"/>
				<path class="st4" d="M155.5,176.2c-1,3.8-1.9,7.5-2.7,11.3c-0.4,1.9-0.8,3.8-1.1,5.8c-0.3,2-0.6,3.9-0.9,5.9
					c0,0.1,0.1,0.1,0.1,0c0.7-3.8,1.6-7.7,2.4-11.5L155.5,176.2C155.7,176.1,155.5,176.1,155.5,176.2z"/>
				<path class="st10" d="M133,169.4c0.3,0.6,0.4,1.2,0.5,1.9c0,0.1,0,0.2,0,0.3c-0.2-0.5-0.4-1-0.6-1.5
					C132.9,169.9,132.9,169.6,133,169.4z M149.3,167.7c-0.1,1.3,0,2.6,0.5,3.8c0.1-0.6,0.1-1.3,0-2
					C149.7,168.9,149.5,168.3,149.3,167.7L149.3,167.7z M143.8,187.4c-0.1,0.6-0.1,1.3,0,1.9c0.1,0.6,0.3,1.3,0.5,1.9
					c0.1-0.6,0.1-1.3,0-2C144.2,188.6,144,188,143.8,187.4L143.8,187.4z M148.9,181.3c1.3,0.2,2.6,0,3.8-0.5c-0.6-0.1-1.3-0.1-2,0
					C150.2,180.8,149.5,181,148.9,181.3L148.9,181.3z M128.9,155.6c0.6,0.1,1.3,0.1,2,0c0.6-0.1,1.3-0.3,1.9-0.5
					c-0.6-0.1-1.3-0.1-2,0C130.1,155.1,129.4,155.3,128.9,155.6L128.9,155.6z M137.8,181.1C137.8,181.1,137.8,181.1,137.8,181.1
					C137.8,181.1,137.8,181,137.8,181.1C137.8,181,137.8,181,137.8,181.1L137.8,181.1z M154.4,190.8c-0.5,0.4-1,0.9-1.4,1.4
					c-0.4,0.5-0.7,1.1-1,1.7c0.5-0.4,1-0.9,1.4-1.4C153.8,192,154.2,191.4,154.4,190.8z M144.3,176.4c-0.4-0.5-0.9-1-1.4-1.4
					c-0.5-0.4-1.1-0.7-1.7-1C142,175.1,143,175.9,144.3,176.4z M140.6,161.9c-0.5,0.4-1,0.9-1.4,1.4c-0.4,0.5-0.7,1.1-1,1.7
					C139.2,164.1,140,163.1,140.6,161.9L140.6,161.9z"/>
				<path class="st4" d="M130.8,165.1c5.9,15.2,14.6,32.8,22,39.2l2.5-11.3l-26.7-40C127.7,154.6,128.2,158.5,130.8,165.1z"/>
				<path class="st5" d="M147.9,210.9c0,0-19,4.5-54.9,1.4c0,0,14.1-44.9,25.4-57c5.2-5.5,10.2-4.7,14.5-1.1
					c1.1,0.9,14.3,17.6,15.4,23.5c1,5.2-3.2,10.9-3.2,10.9L147.9,210.9z"/>
				<path class="st10" d="M133.4,171.3c0.1,0.6,0.1,1.3,0,1.9c-0.3-0.6-0.4-1.2-0.5-1.9c-0.1-0.6-0.1-1.3,0-2
					C133.2,170,133.4,170.6,133.4,171.3z M133.8,201.6c-0.1,0.6-0.1,1.3,0,2c0.1,0.7,0.3,1.3,0.5,1.9c0.1-0.6,0.1-1.3,0-2
					C134.2,202.8,134,202.2,133.8,201.6L133.8,201.6z M143.1,207.4c-0.2,1.3,0,2.6,0.5,3.8c0.1-0.6,0.1-1.3,0-2
					C143.6,208.6,143.4,208,143.1,207.4z M112.9,180.8c-0.1,0.6-0.1,1.3,0,2c0.1,0.6,0.3,1.3,0.5,1.9c0.1-0.6,0.1-1.3,0-1.9
					C113.3,182.1,113.2,181.4,112.9,180.8z M143.7,187.4c-0.1,0.6-0.1,1.3,0,1.9c0.1,0.6,0.3,1.3,0.5,1.9c0.1-0.6,0.1-1.3,0-2
					C144.2,188.6,144,188,143.7,187.4z M121.5,175.5c0.6,0.1,1.3,0.1,2,0c0.6-0.1,1.3-0.3,1.9-0.5c-0.6-0.1-1.3-0.1-2,0
					C122.7,175.1,122.1,175.3,121.5,175.5z M110.3,194.5c1.3,0.2,2.6,0,3.8-0.5c-0.6-0.1-1.3-0.1-2,0
					C111.5,194.1,110.9,194.2,110.3,194.5z M128.9,193c0.6,0.1,1.3,0.1,2,0c0.6-0.1,1.3-0.3,1.9-0.5c-0.6-0.1-1.3-0.1-2,0
					C130.2,192.6,129.5,192.7,128.9,193z M95.1,210.5c0.6,0.1,1.3,0.1,1.9,0c0.7-0.1,1.3-0.3,1.9-0.5
					C97.7,209.8,96.4,210,95.1,210.5L95.1,210.5z M128.8,155.6c0.6,0.1,1.3,0.1,2,0c0.6-0.1,1.3-0.3,1.9-0.5c-0.6-0.1-1.3-0.1-2,0
					C130.1,155.2,129.4,155.3,128.8,155.6L128.8,155.6z M122.5,159c-0.5,0.4-1,0.9-1.4,1.4c-0.4,0.5-0.7,1.1-1,1.7
					c0.5-0.4,1-0.9,1.4-1.4C121.9,160.2,122.3,159.7,122.5,159z M105.5,183.3c-0.5,0.4-1,0.9-1.4,1.4c-0.4,0.5-0.7,1.1-1,1.7
					C104.2,185.6,105,184.5,105.5,183.3z M137.8,181c-0.5,0.4-1,0.9-1.4,1.4c-0.4,0.5-0.7,1.1-1,1.7
					C136.5,183.3,137.3,182.2,137.8,181z M121.7,199.1c-0.5,0.4-1,0.9-1.4,1.4c-0.4,0.5-0.7,1.1-1,1.7c0.5-0.4,1-0.9,1.4-1.4
					C121.1,200.3,121.5,199.7,121.7,199.1L121.7,199.1z M139.5,162.8l-0.4,0.5c-0.4,0.5-0.7,1.1-1,1.7c0.5-0.4,1-0.9,1.4-1.4
					c0.1-0.1,0.2-0.3,0.3-0.4L139.5,162.8z M144.2,176.4c-0.4-0.5-0.9-1-1.4-1.4c-0.5-0.4-1.1-0.7-1.7-1
					C141.9,175.1,143,175.9,144.2,176.4z M103.1,198.9c-0.4-0.5-0.9-1-1.4-1.4c-0.5-0.4-1.1-0.7-1.7-1c0.4,0.5,0.9,1,1.4,1.4
					C101.9,198.4,102.5,198.7,103.1,198.9L103.1,198.9z M145.1,199.6c-0.8-1-1.9-1.8-3.1-2.3c0.4,0.5,0.9,1,1.4,1.4
					C143.9,199.1,144.5,199.4,145.1,199.6L145.1,199.6z M116.1,171.6c-0.4-0.5-0.9-1-1.4-1.4c-0.5-0.4-1.1-0.7-1.7-1
					c0.4,0.5,0.9,1,1.4,1.4C115,171,115.5,171.3,116.1,171.6z M128.1,211.8c-0.8-1-1.9-1.8-3.1-2.3c0.4,0.5,0.9,1,1.4,1.4
					C126.9,211.2,127.5,211.5,128.1,211.8L128.1,211.8z M124.5,187.1c-0.4-0.5-0.8-1-1.4-1.4c-0.5-0.4-1.1-0.7-1.7-1
					C122.2,185.7,123.3,186.5,124.5,187.1L124.5,187.1z M111,206.9c-0.8-1-1.9-1.8-3.1-2.3c0.4,0.5,0.9,1,1.4,1.4
					C109.8,206.3,110.4,206.7,111,206.9L111,206.9z"/>
				<path class="st4" d="M141.3,165.3c1.2,1.6,2.2,3.2,3.2,4.8c-0.4-0.9-0.8-1.9-1.1-2.9c0.3,0.7,0.7,1.4,1,2.1s0.5,1.3,0.8,1.9l0,0
					c1.1,2,2.4,3.9,3,6.2c0.5,2,0.4,4.1-0.1,6c-0.3,1-0.7,2-1.2,2.9c-0.4,0.8-0.9,1.6-1.5,2.3c0.4,2.1,0.6,4.2,0.9,6.3
					c0.3,2,0.5,4.1,0.6,6.1c0,0.1,0,0.1-0.1,0.1c-0.1,0-0.1,0-0.1-0.1l-0.1-0.4c0,0,0-0.1,0-0.1c-0.4-1.9-0.7-3.8-0.9-5.7
					c-0.3-2-0.8-6.1-0.8-6.1c0,0,0.9-1.7,1.3-2.5c0.5-1,0.8-2,1.1-3c0.6-1.9,0.6-4,0.1-5.9c-0.7-2.1-1.6-4.1-2.8-6
					c-1.1-2-2.3-4-3.4-6C141.1,165.4,141.3,165.3,141.3,165.3z"/>
				<path class="st7" d="M115.4,158.4c-9.4,12.7-27.3,42.8-21.3,49.4c9.9,10.9,33.7,20.1,41.1,22.1c3.2,0.9,13.9-22.5,10.9-24.3
					c-3.6-2.2-29.1-10-29.1-12.1c0-1.2,2.7-11.5,4.9-24.8C124.4,153.3,119.8,152.4,115.4,158.4z"/>
				<path class="st7" d="M136.5,203.5c0,0,5.7-1.9,11.8-4.6c3.4-1.5,9.3-3.6,12.3-3.6c4.5,0,23,2.9,22.4,7.5
					c-0.6,4.1-16.2-0.4-16.2-0.4s16.2,3.1,14.6,8c-1.6,4.8-18.6-2.7-18.6-2.7s16.6,3.6,14.2,8.3c-1.8,3.6-17.6-2.3-17.6-2.3
					s14.2,3.2,12.5,7c-1.9,4.1-16.8-0.4-16.8-0.4c-5.9,8.8-15.1,12.2-21.6,9.2C132.4,228.9,136.5,203.5,136.5,203.5z"/>
				<path class="st4" d="M161.2,200.9c1.9,0.3,3.9,0.6,5.7,1.1c1.9,0.5,3.8,1,5.6,1.7c2.4,0.8,4.7,1.9,6.9,3.2
					c-4-2.1-10.7-3.9-12.6-4.3C164.9,202,163.1,201.4,161.2,200.9C161.2,201,161.2,200.9,161.2,200.9z"/>
				<path class="st4" d="M159.4,207.7c2.4,0.5,4.9,0.9,7.3,1.5c2.4,0.6,4.6,1.4,7,2.1c0.2,0.1,0.1,0.1-0.1,0.1
					c-2.4-0.7-4.6-1.1-7-1.7C164.1,209,161.8,208.3,159.4,207.7L159.4,207.7z"/>
				<path class="st4" d="M156.8,213.2c3.7,0.7,7.4,1.7,10.9,3.1c0.2,0.1,0.1,0.2-0.1,0.1c-3.6-1.1-6.5-2-10.8-3.1
					C156.7,213.3,156.7,213.2,156.8,213.2z"/>
				<path class="st4" d="M151.8,197.5c1-0.6,2-1.1,3-1.4c1-0.4,1.9-0.7,3-1c2.2-0.6,4.5-0.6,6.7-0.3c5.3,0.9,10.5,2.4,15.5,4.6
					c0.1,0,0.1,0.2,0,0.2c-4.2-1.1-8.7-2.9-15.1-3.9c-2.2-0.4-4.4-0.4-6.6,0.1c-1.1,0.3-2.2,0.6-3.3,0.9c-1,0.3-1.9,0.7-2.9,1
					c-0.1,0-0.1,0-0.2,0C151.7,197.6,151.7,197.5,151.8,197.5z"/>
				<path class="st5" d="M91.7,203.5l26-10.6c2.1-8.9,3.7-17.9,4.8-27c1.4-13-2-16.3-11.2-2.8C102.3,176.6,92.7,193.8,91.7,203.5z"
					/>
				<path class="st10" d="M112.7,162.5c-0.1-0.3-0.2-0.6-0.3-0.9c0.1-0.2,0.2-0.3,0.3-0.5C112.8,161.6,112.8,162.1,112.7,162.5z
					 M112.9,180.8c-0.1,0.6-0.1,1.3,0,2c0.1,0.6,0.3,1.3,0.5,1.9c0.1-0.6,0.1-1.3,0-1.9C113.3,182.1,113.2,181.4,112.9,180.8z
					 M110.3,194.5c1.3,0.2,2.6,0,3.8-0.5c-0.6-0.1-1.3-0.1-2,0C111.5,194.1,110.9,194.2,110.3,194.5z M104.7,173.7l-0.3,0.5h0.3
					c0.7-0.1,1.3-0.3,1.9-0.5C105.9,173.6,105.3,173.6,104.7,173.7L104.7,173.7z M122.5,159c-0.5,0.4-1,0.9-1.4,1.4
					c-0.4,0.5-0.7,1.1-1,1.7c0.5-0.4,1-0.9,1.4-1.4C121.9,160.2,122.3,159.7,122.5,159z M105.5,183.3c-0.5,0.4-1,0.9-1.4,1.4
					c-0.4,0.5-0.7,1.1-1,1.7C104.2,185.6,105,184.5,105.5,183.3z M103.1,198.9c-0.4-0.5-0.9-1-1.4-1.4c-0.5-0.4-1.1-0.7-1.7-1
					c0.4,0.5,0.9,1,1.4,1.4C102,198.4,102.5,198.7,103.1,198.9L103.1,198.9z M116.1,171.6c-0.4-0.5-0.9-1-1.4-1.4
					c-0.5-0.4-1.1-0.7-1.7-1c0.4,0.5,0.9,1,1.4,1.4C115,171,115.5,171.3,116.1,171.6z"/>
				<path class="st4" d="M122.4,174c-0.4,0.8-0.7,1.5-0.9,2.3c-0.1,0.3-0.2,0.5-0.3,0.8c0.2-1.5,0.4-3,0.6-4.5c0-0.1-0.1-0.1-0.2,0
					c-0.7,3.4-3.7,19.4-3.8,20.2c-0.1,0-0.9,0.5-0.9,0.5c0,0,0,0.2,0.1,0.1s1-0.5,1-0.5c0.3-0.7,2.7-12.9,2.9-14.4
					c0-0.1,0.1-0.1,0.1-0.2c0.1-0.2,0.2-0.4,0.2-0.6c0.2-0.4,0.3-0.8,0.4-1.2c0.3-0.8,0.6-1.6,0.8-2.5c0,0,0-0.1,0-0.1
					C122.4,173.9,122.4,173.9,122.4,174z"/>
				<path class="st4" d="M117.3,190c-1,0.2-2,0.5-3,0.9c-1,0.3-2,0.6-3,0.9c-1.9,0.6-3.9,1.3-5.8,2c-3.9,1.4-7.6,3-11.3,4.7
					c-0.1,0,0,0.2,0.1,0.1c3.9-1.4,7.8-2.9,11.7-4.4l5.8-2.1l2.9-1.1C115.4,190.8,116.4,190.5,117.3,190
					C117.4,190,117.4,189.9,117.3,190z"/>
				<path class="st7" d="M123,153.9c0.2,1,4.8,7.3,9.2,7.1c1.4-0.1,1.5-7.9,1.5-7.9l0.1-0.6l1.9-8.1l-9.5-6.3l-1.4-0.8
					c0,0-0.4,2.3-0.8,5.1c0,0.1,0,0.3-0.1,0.4c0,0.1-0.1,0.3-0.1,0.5c-0.1,0.4-0.1,0.9-0.2,1.3c-0.1,0.4-0.1,0.6-0.1,1
					c0,0.3-0.1,0.7-0.1,1C123.1,149,123,151.4,123,153.9z"/>
				<path class="st4" d="M124,142.4c1.6,4.7,5.2,8.4,9.8,10.1l1.9-8.1l-9.5-6.3l-1.4-0.8C124.9,137.3,124.5,139.6,124,142.4z"/>
				<path class="st7" d="M147.5,131.5c1.9,14.5-6.6,17.3-9.7,17.7c-2.9,0.4-12.6,1.3-16-13s2.8-19.7,9.2-20.9
					C137.5,114.1,145.6,117,147.5,131.5z"/>
				<path class="st4" d="M145.1,129.3c-0.3,0-0.7-0.1-1-0.1c-0.4,0-0.7-0.1-1-0.3c-0.2-0.2-0.2-0.4-0.1-0.6c0.3-0.4,0.8-0.5,1.2-0.4
					c0.5,0,0.9,0.2,1.3,0.5c0.2,0.2,0.2,0.6,0,0.8C145.4,129.2,145.3,129.3,145.1,129.3z"/>
				<path class="st4" d="M135.1,130.3c0.3-0.1,0.6-0.2,1-0.3c0.3-0.1,0.7-0.2,0.9-0.5c0.1-0.2,0.1-0.5-0.1-0.6
					c-0.4-0.3-0.9-0.4-1.3-0.2c-0.5,0.1-0.9,0.4-1.1,0.8c-0.2,0.3-0.1,0.6,0.2,0.8C134.8,130.4,135,130.4,135.1,130.3z"/>
				<path class="st4" d="M137.8,133.7C137.8,133.7,137.7,133.7,137.8,133.7c0.1,1.1,0.1,2.2-0.7,2.7c0,0,0,0.1,0,0.1
					C138.2,136.1,138.1,134.6,137.8,133.7z"/>
				<path class="st4" d="M136.8,132.7c-1.6,0.1-1.3,3.3,0.2,3.2C138.5,135.9,138.1,132.7,136.8,132.7z"/>
				<path class="st4" d="M136.2,133c-0.3,0.2-0.5,0.5-0.8,0.6c-0.3,0.1-0.7-0.2-1-0.5h-0.1c0.1,0.6,0.3,1.2,1,1.3s1-0.6,1.1-1.2
					C136.4,133,136.3,132.9,136.2,133z"/>
				<path class="st4" d="M143.3,133C143.3,133,143.4,133,143.3,133c0.1,1.1,0.4,2.2,1.3,2.5C143.5,135.4,143.2,133.9,143.3,133z"/>
				<path class="st4" d="M144.1,131.8c1.6-0.3,2,2.9,0.5,3.2C143.2,135.2,142.8,132,144.1,131.8z"/>
				<path class="st4" d="M144.8,132c0.3,0.1,0.6,0.4,0.9,0.4c0.3,0,0.6-0.4,0.8-0.8c0,0,0,0,0.1,0c0.1,0.6,0,1.3-0.6,1.5
					s-1-0.3-1.2-0.9C144.6,132.1,144.7,131.9,144.8,132z"/>
				<path class="st4" d="M138.5,141.8c0.3,0.2,0.5,0.5,0.9,0.5c0.4,0,0.7-0.1,1.1-0.3c0,0,0.1,0,0.1,0c-0.3,0.4-0.7,0.6-1.2,0.6
					C138.8,142.6,138.5,142.3,138.5,141.8C138.3,141.8,138.4,141.8,138.5,141.8z"/>
				<path class="st4" d="M142.2,137.8c0,0,0.4,1.5,0.4,2.2c0,0.1-0.2,0.1-0.4,0.2l0,0c-1.2,0.4-2.5,0-3.4-0.9
					c-0.1-0.1,0-0.1,0.1-0.1c1,0.5,2,0.7,3.1,0.6c0-0.2-0.7-2.5-0.6-2.5c0.5,0,1.1,0.1,1.6,0.2c-0.7-3.1-1.8-6-2.4-9.1
					c0-0.1,0-0.1,0.1-0.1c0,0,0.1,0,0.1,0c1.3,3.1,2.3,6.3,3,9.7C144,138.3,142.5,137.9,142.2,137.8z"/>
				<path class="st4" d="M123.2,136.6c2.4-0.1,2.3-5,2.3-5s4.8-0.5,5.5-7.5c0.1,2.1-0.4,4.1-1.5,5.9c0,0,8.3-1.8,11-9.2
					c0,0-1,3.7-2.2,5.1c2.1-0.9,3.7-2.4,4.8-4.4c0,0,1.9,3.9,3.2,4.9c0,0-2-14.6-15.4-11.5c0,0-8.4,1.5-10.7,8.6
					C118,130.4,123.2,136.6,123.2,136.6z"/>
				<path class="st5" d="M135.7,139.3c-2.5,0-4.6-2-4.6-4.5c0-2.5,2-4.6,4.5-4.6c2.1,0,3.9,1.4,4.4,3.4l0,0c0.6,2.4-0.8,4.9-3.2,5.6
					C136.5,139.3,136.1,139.3,135.7,139.3z M135.6,130.8c-0.3,0-0.7,0-1,0.1c-2.1,0.5-3.4,2.7-2.8,4.8s2.7,3.4,4.8,2.8
					c2.1-0.5,3.4-2.7,2.8-4.8C139,132,137.5,130.8,135.6,130.8z"/>
				<path class="st5" d="M146.1,138c-1.8,0-3.3-1.8-3.6-4.1c-0.2-1.1,0-2.3,0.6-3.3c0.6-1.4,2.3-2.1,3.7-1.4
					c0.4,0.2,0.8,0.5,1.1,0.8c0.8,0.8,1.2,1.9,1.3,3c0.3,2.5-0.9,4.7-2.8,4.9C146.3,138,146.2,138,146.1,138z M145.5,129.5h-0.2
					c-0.8,0.1-1.4,0.6-1.8,1.3c-0.5,0.9-0.6,1.9-0.5,2.9c0.3,2.2,1.7,3.8,3.3,3.6c1.5-0.2,2.5-2.1,2.3-4.3c-0.1-1-0.5-1.9-1.2-2.7
					C146.9,129.8,146.2,129.5,145.5,129.5L145.5,129.5z"/>
				<path class="st5" d="M140,134.1l-0.4-0.4c0.6-0.7,2.1-1.6,3.4-0.6l-0.4,0.5C141.4,132.7,140,134.1,140,134.1z"/>
				<path class="st5" d="M120.9,137.9l-0.6-0.2c0.1-0.3,1-2.6,2.3-3s8.5-0.7,8.9-0.7v0.6c-2.9,0.1-5.8,0.3-8.7,0.7
					C122,135.5,121.1,137.2,120.9,137.9z"/>
				<path class="st7" d="M122.5,141.6c0.2,0.1,0.4,0.1,0.7,0.1c0.2,0,0.5,0,0.7,0c0.3,0,0.6-0.1,0.8-0.3c0.2-0.1,0.4-0.3,0.5-0.4
					c0.2-0.3,0.4-0.6,0.5-0.9l-1-3.9c0,0-3.4-4.5-5.4-3.2C117.3,134.3,120,140.8,122.5,141.6z"/>
				<path class="st4" d="M120.1,134.9c1.8,0.6,2.7,2.2,3.4,3.8c-0.4-0.6-1.3-0.8-1.9-0.4c-0.1,0-0.1,0.1-0.2,0.1c0,0,0,0.1,0.1,0.1
					c0.6-0.2,1.3,0,1.7,0.5c0.3,0.4,0.6,0.9,0.9,1.3c0.1,0.2,0.4,0.1,0.3-0.1l0,0C124.3,138,122.5,135,120.1,134.9z"/>
				<path class="st10" d="M122.6,141c0.1,0.4,0.5,0.6,0.8,0.5c0.4-0.1,0.6-0.5,0.5-0.8c-0.1-0.4-0.5-0.6-0.8-0.5
					C122.8,140.2,122.5,140.6,122.6,141z"/>
				<path class="st10" d="M121.2,140c0.1,0.3,0.3,0.4,0.6,0.3c0.3-0.1,0.4-0.3,0.4-0.6c-0.1-0.3-0.3-0.4-0.6-0.4c0,0,0,0,0,0
					C121.3,139.5,121.1,139.8,121.2,140z"/>
				<path class="st0" d="M133.7,153.7l-2.2,6.6l-8.6-7.7l-2.1,2.8c0,0,8.7,12.5,8.7,11.9l2.3-5.8l4.1,3.6l-0.9-9.7L133.7,153.7z"/>
				<path class="st4" d="M135.8,160.5c-0.2-1.6-0.4-3.2-0.7-4.8c0-0.1-0.1-0.1-0.1,0c-0.2,1.6,0.6,7.7,0.7,9.2l0,0
					c-0.2-0.2-3.8-3.2-3.8-3.1c-0.5,0.9-2.2,5.1-2.3,5.5c-1.4-2-6.6-9.2-8.2-11.1c-0.1-0.1-0.1,0-0.1,0.1c1.2,2.1,8.2,11.8,8.3,11.8
					c0.9-2,1.7-4,2.4-6.1c0.6,0.7,4.3,4.1,4.3,3.9C136.2,164,136,162.2,135.8,160.5z"/>
			</g>
			<g id="freepik--Documents--inject-42">
				<rect x="199.2" y="168.4" class="st0" width="103.4" height="132.7"/>
				<path class="st1" d="M302.6,301.1l-51.6,0.2l-51.8,0.1h-0.3v-0.3l-0.2-132.7V168h0.4l103.4,0.1h0.3v0.3l-0.2,66.4L302.6,301.1z
					 M302.6,301.1l-0.2-66.4l-0.1-66.3l0.3,0.3l-103.4,0.1l0.4-0.4l-0.2,132.7l-0.3-0.3l51.6,0.1L302.6,301.1z"/>
				<polygon class="st2" points="210.5,196.8 250.9,196.6 291.3,196.8 250.9,196.8 				"/>
				<polygon class="st2" points="210.5,200 250.9,199.9 291.3,200 250.9,200.1 				"/>
				<polygon class="st2" points="210.5,203.3 250.9,203.2 291.3,203.3 250.9,203.4 				"/>
				<polygon class="st2" points="210.5,206.6 250.9,206.5 291.3,206.6 250.9,206.7 				"/>
				<polygon class="st2" points="210.5,209.9 250.9,209.8 291.3,209.9 250.9,210 				"/>
				<polygon class="st2" points="210.5,213.2 250.9,213.1 291.3,213.2 250.9,213.3 				"/>
				<polygon class="st2" points="210.5,216.5 250.9,216.4 291.3,216.5 250.9,216.6 				"/>
				<polygon class="st2" points="210.5,219.8 250.9,219.7 291.3,219.8 250.9,219.9 				"/>
				<polygon class="st2" points="210.5,223.1 250.9,223 291.3,223.1 250.9,223.2 				"/>
				<polygon class="st2" points="210.5,226.4 250.9,226.3 291.3,226.4 250.9,226.5 				"/>
				<polygon class="st2" points="210.5,229.7 250.9,229.6 291.3,229.7 250.9,229.8 				"/>
				<polygon class="st2" points="210.5,233 250.9,232.9 291.3,233 250.9,233.1 				"/>
				<polygon class="st2" points="210.5,236.3 250.9,236.2 291.3,236.3 250.9,236.4 				"/>
				<polygon class="st2" points="210.5,239.6 250.9,239.4 291.3,239.6 250.9,239.7 				"/>
				<polygon class="st2" points="210.5,242.8 250.9,242.7 291.3,242.8 250.9,243 				"/>
				<rect x="219.1" y="232.9" class="st5" width="6.1" height="13.8"/>
				<rect x="230.4" y="225.5" class="st5" width="6.1" height="21.2"/>
				<rect x="241.8" y="217.2" class="st5" width="6.1" height="29.4"/>
				<rect x="253.1" y="213.7" class="st5" width="6.1" height="33"/>
				<rect x="264.5" y="207.4" class="st5" width="6.1" height="39.3"/>
				<rect x="275.9" y="201.1" class="st5" width="6.1" height="45.5"/>
				<path class="st2" d="M212.7,194.4l0.2,13.1l0.1,13.1c0.1,8.7,0.1,17.4,0.1,26.1l-0.4-0.4h19.7l19.7,0l19.7,0.1l19.7,0.2
					l-19.7,0.2L252,247h-19.7h-19.7h-0.4v-0.4c0-8.7,0-17.4,0.1-26.1l0.1-13.1L212.7,194.4z"/>
				<rect x="219.1" y="249.4" class="st2" width="6.1" height="0.6"/>
				<rect x="230.4" y="249.4" class="st2" width="6.1" height="0.6"/>
				<rect x="241.8" y="249.4" class="st2" width="6.1" height="0.6"/>
				<rect x="253.1" y="249.4" class="st2" width="6.1" height="0.6"/>
				<rect x="264.5" y="249.4" class="st2" width="6.1" height="0.6"/>
				<rect x="275.9" y="249.4" class="st2" width="6.1" height="0.6"/>
				<path class="st4" d="M219.7,234.6c3,0,6-0.3,8.9-0.7c3-0.4,5.9-0.9,8.8-1.6c5.8-1.3,11.5-3.3,16.8-5.9c5.4-2.6,10.3-6,14.7-10
					l0.8-0.8l0.8-0.8l1.6-1.6c1-1.1,2-2.2,2.9-3.4c1.9-2.3,3.5-4.8,5-7.4h0c-4.1,8.1-10.1,15.1-17.6,20.2c-2.5,1.7-5.1,3.2-7.8,4.6
					C243.9,232.4,231.9,234.9,219.7,234.6L219.7,234.6z"/>
				<polygon class="st4" points="281.8,206.7 281,206.9 279.9,202.7 275.8,204.1 275.6,203.2 280.6,201.6 				"/>
				<rect x="208.8" y="267.2" class="st1" width="84.2" height="3.4"/>
				<rect x="208.8" y="275.8" class="st1" width="47.4" height="3.4"/>
				<rect x="227.2" y="183.1" class="st1" width="47.4" height="3.4"/>
				<polygon class="st5" points="283,333.4 181.8,354.2 155.1,224.3 230.3,208.8 261.4,228.2 				"/>
				<polygon class="st11" points="283,333.4 181.8,354.2 155.1,224.3 230.3,208.8 261.4,228.2 				"/>
				<polygon class="st5" points="230.3,208.8 261.4,228.2 235.3,233.6 				"/>
				
					<rect x="169.2" y="238.2" transform="matrix(0.9795 -0.2012 0.2012 0.9795 -44.2341 44.7414)" class="st1" width="57.5" height="3.4"/>
				
					<rect x="170.9" y="246.6" transform="matrix(0.9795 -0.2012 0.2012 0.9795 -45.8936 45.2611)" class="st1" width="57.5" height="3.4"/>
				
					<rect x="172.7" y="255.1" transform="matrix(0.9795 -0.2012 0.2012 0.9795 -47.5523 45.7844)" class="st1" width="57.5" height="3.4"/>
				
					<rect x="174.1" y="260.8" transform="matrix(0.9795 -0.2012 0.2012 0.9795 -48.4035 48.8845)" class="st1" width="84.2" height="3.4"/>
				<rect x="176" y="268.8" transform="matrix(0.9798 -0.2 0.2 0.9798 -49.6895 49.0814)" class="st1" width="84.2" height="3.4"/>
				
					<rect x="177.6" y="277.6" transform="matrix(0.9795 -0.2012 0.2012 0.9795 -51.7222 49.9258)" class="st1" width="84.2" height="3.4"/>
				
					<rect x="179.3" y="286.1" transform="matrix(0.9795 -0.2012 0.2012 0.9795 -53.3829 50.4478)" class="st1" width="84.2" height="3.4"/>
				
					<rect x="181" y="294.5" transform="matrix(0.9795 -0.2012 0.2012 0.9795 -55.0423 50.9675)" class="st1" width="84.2" height="3.4"/>
				
					<rect x="182.8" y="302.9" transform="matrix(0.9795 -0.2012 0.2012 0.9795 -56.7035 51.4878)" class="st1" width="84.2" height="3.4"/>
				
					<rect x="184.5" y="311.3" transform="matrix(0.9795 -0.2012 0.2012 0.9795 -58.363 52.0076)" class="st1" width="84.2" height="3.4"/>
				
					<rect x="186.2" y="319.8" transform="matrix(0.9795 -0.2012 0.2012 0.9795 -60.0217 52.5309)" class="st1" width="84.2" height="3.4"/>
				
					<rect x="188" y="328.2" transform="matrix(0.9795 -0.2012 0.2012 0.9795 -61.6829 53.0511)" class="st1" width="84.2" height="3.4"/>
				<path class="st0" d="M490.7,239l-113.4,8.3c-12.9-49.1,0.9-98.2-9.1-147.3l113.4-8.3C494.4,140.8,480.6,189.9,490.7,239z"/>
				<path class="st1" d="M490.7,239l-113.3,8.6H377c0-0.1-0.1-0.2-0.1-0.3c-13-49.1,0.8-98.2-9.3-147.3c0-0.1-0.1-0.3-0.1-0.4h0.4
					l113.4-8.1h0.3c0,0.1,0.1,0.2,0.1,0.3C494.6,140.7,480.7,189.9,490.7,239z M490.7,239c-10.2-49.1,3.6-98.2-9.5-147.3l0.4,0.3
					l-113.4,8.4l0.3-0.5c10,49.2-3.9,98.2,8.9,147.3l-0.3-0.3L490.7,239z"/>
				<path class="st1" d="M381.8,121l63.7-4.6c0.1,1.3,0.3,2.5,0.4,3.8l-63.8,4.6C382,123.5,381.9,122.2,381.8,121z"/>
				<path class="st1" d="M382.4,130.5l63.9-4.6c0.1,1.3,0.1,2.5,0.2,3.8l-63.9,4.6C382.5,133,382.5,131.8,382.4,130.5z"/>
				<path class="st1" d="M382.7,140.1l64-4.6c0,1.3,0.1,2.5,0.1,3.8l-64.1,4.6C382.8,142.6,382.7,141.3,382.7,140.1z"/>
				<path class="st1" d="M382.8,149.6l94-6.7c0,1.3,0,2.5,0,3.8l-94,6.7C382.7,152.1,382.8,150.9,382.8,149.6z"/>
				<path class="st1" d="M382.6,159.1l94.1-6.7l-0.1,3.8l-94.1,6.7L382.6,159.1z"/>
				<path class="st1" d="M382.4,168.7l94.1-6.7c0,1.3-0.1,2.5-0.1,3.8l-94.1,6.7C382.3,171.2,382.4,170,382.4,168.7z"/>
				<path class="st1" d="M382.2,178.2l94.1-6.7c0,1.3-0.1,2.5-0.1,3.8l-94.1,6.7C382.1,180.8,382.2,179.5,382.2,178.2z"/>
				<path class="st1" d="M382,187.8l94.1-6.7c0,1.3,0,2.5-0.1,3.8l-94,6.7C382,190.3,382,189,382,187.8z"/>
				<path class="st1" d="M382,197.3l93.9-6.7c0,1.3,0,2.5,0,3.8l-93.8,6.7C382.1,199.9,382.1,198.6,382,197.3z"/>
				<path class="st1" d="M382.3,206.9l93.8-6.7c0,1.3,0.1,2.5,0.1,3.8l-93.7,6.7C382.4,209.4,382.4,208.1,382.3,206.9z"/>
				<path class="st1" d="M382.9,216.4l93.5-6.7c0.1,1.3,0.1,2.5,0.2,3.8l-93.4,6.7C383.1,218.9,383,217.7,382.9,216.4z"/>
				<path class="st1" d="M383.9,226l93.2-6.7c0.1,1.3,0.2,2.5,0.4,3.8l-93.1,6.7C384.2,228.5,384,227.2,383.9,226z"/>
				<path class="st5" d="M474.5,291.5c-39.1-6.6-77.8-13.3-116-19.9c5-48.5,29.5-97,28.2-145.5c39.1,6.6,77.8,13.3,116,19.9
					C497.8,194.5,473.3,243.1,474.5,291.5z"/>
				<path class="st11" d="M474.5,291.5c-39.1-6.6-77.8-13.3-116-19.9c5-48.5,29.5-97,28.2-145.5c39.1,6.6,77.8,13.3,116,19.9
					C497.8,194.5,473.3,243.1,474.5,291.5z"/>
				<path class="st1" d="M396.4,149.5c21.2,3.7,42.3,7.4,63.3,11.1c-0.2,1.3-0.4,2.5-0.7,3.7c-21-3.7-42-7.4-63.1-11.1
					C396.1,152,396.2,150.8,396.4,149.5z"/>
				<path class="st1" d="M395,159c21,3.7,42,7.4,62.9,11.1c-0.3,1.3-0.5,2.5-0.8,3.7c-20.8-3.7-41.7-7.4-62.7-11.1
					C394.6,161.5,394.8,160.2,395,159z"/>
				<path class="st1" d="M393.3,168.4l62.5,11.1c-0.3,1.2-0.6,2.5-0.9,3.7c-20.7-3.7-41.5-7.4-62.4-11.1
					C392.8,170.9,393,169.6,393.3,168.4z"/>
				<path class="st1" d="M391.2,177.8c30.5,5.4,60.8,10.8,91.1,16.2c-0.3,1.2-0.7,2.5-1,3.7c-30.2-5.4-60.6-10.8-90.9-16.2
					C390.6,180.3,390.9,179.1,391.2,177.8z"/>
				<path class="st1" d="M388.9,187.3c30.3,5.4,60.6,10.8,90.8,16.2c-0.3,1.2-0.7,2.5-1,3.7L387.9,191
					C388.2,189.7,388.6,188.5,388.9,187.3z"/>
				<path class="st1" d="M386.4,196.7l90.7,16.2c-0.3,1.2-0.7,2.5-1,3.7l-90.7-16.2C385.7,199.2,386.1,197.9,386.4,196.7z"/>
				<path class="st1" d="M383.8,206.1l90.7,16.2c-0.3,1.2-0.7,2.5-1,3.7c-30.3-5.4-60.5-10.8-90.7-16.2
					C383.1,208.6,383.5,207.3,383.8,206.1z"/>
				<path class="st1" d="M381.2,215.5c30.2,5.4,60.5,10.8,90.8,16.2c-0.3,1.3-0.6,2.5-0.9,3.7c-30.4-5.4-60.7-10.8-90.9-16.2
					C380.5,218,380.9,216.8,381.2,215.5z"/>
				<path class="st1" d="M378.7,225c30.3,5.4,60.6,10.8,91.1,16.2c-0.3,1.3-0.6,2.5-0.8,3.7c-30.5-5.4-60.9-10.8-91.2-16.2
					C378,227.4,378.3,226.2,378.7,225z"/>
				<path class="st1" d="M376.3,234.4c30.4,5.4,60.9,10.8,91.5,16.2c-0.3,1.3-0.5,2.5-0.7,3.7c-30.7-5.4-61.3-10.8-91.7-16.2
					C375.6,236.9,375.9,235.6,376.3,234.4z"/>
				<path class="st1" d="M374,243.8c30.5,5.4,61.2,10.8,92,16.2c-0.2,1.2-0.4,2.5-0.6,3.7c-31-5.4-61.7-10.8-92.3-16.2
					C373.5,246.3,373.8,245.1,374,243.8z"/>
				<path class="st1" d="M372.1,253.2c30.7,5.4,61.6,10.8,92.7,16.2c-0.1,1.2-0.3,2.5-0.4,3.7c-31.2-5.4-62.2-10.8-92.9-16.2
					C371.6,255.7,371.8,254.5,372.1,253.2z"/>
			</g>
			<g id="freepik--Folder--inject-42">
				<rect x="226.8" y="271.6" class="st5" width="200.4" height="145.3"/>
				<polygon class="st5" points="297.6,256.6 226.8,256.6 226.8,271.6 301.7,271.6 				"/>
				<g class="st12">
					<rect x="226.8" y="271.6" width="200.4" height="145.3"/>
					<polygon points="297.6,256.6 226.8,256.6 226.8,271.6 301.7,271.6 					"/>
				</g>
				<path class="st0" d="M425.8,362.6c-39.1-11.2-77.4-22.3-115.1-33.2c9.5-44.3,36-87.7,37.8-132.6c39.1,10.6,77.3,21.1,115,31.7
					C454,273.4,427.5,317.2,425.8,362.6z"/>
				<path class="st1" d="M425.8,362.6c-39.1-11.1-77.4-22.1-115.1-33l-0.3-0.1l0.1-0.3c9.4-44.3,35.9-87.7,37.6-132.6
					c0-0.1,0-0.3,0-0.4l0.5,0.1c39.1,10.6,77.4,21.2,115,31.8l0.3,0.1c0,0.1,0,0.2-0.1,0.3C454.2,273.5,427.6,317.3,425.8,362.6z
					 M425.8,362.6c1.5-45.3,27.9-89.1,37.4-134.2c0.1,0.1,0.2,0.3,0.3,0.4c-37.6-10.6-75.9-21.1-114.9-31.6l0.5-0.3
					c-1.9,44.9-28.5,88.3-38,132.5l-0.2-0.3C348.5,340.1,386.8,351.3,425.8,362.6z"/>
				<path class="st6" d="M419.7,280.3c-5.8,15.5-23.4,24.2-39.9,19.3c-16.5-4.9-25.1-21.3-19.4-36.7c5.7-15.5,22.6-24.2,39.3-19.5
					C416.3,248.2,425.5,264.7,419.7,280.3z"/>
				<path class="st1" d="M390,271.6c-6.7,7.7-13.6,15.4-20.2,23.1c-9.9-7.3-13.7-20.2-9.4-31.8c5.6-15.4,22.8-24.2,39.3-19.5
					s25.9,21.4,20,36.9C409.8,277.4,399.9,274.5,390,271.6z"/>
				<path class="st1" d="M390,271.6c5.9,7.9,11.7,15.8,17.6,23.8c-8.2,5.5-18.4,7.1-27.9,4.3c-16.4-4.8-25-21.4-19.4-36.7
					c5.6-15.4,22.8-24.2,39.3-19.5s25.9,21.4,20,36.9C409.8,277.4,399.9,274.5,390,271.6z"/>
				<path class="st5" d="M390,271.6l-31.1,5.2c-0.7-4.7-0.2-9.4,1.4-13.9c5.6-15.4,22.8-24.2,39.3-19.5c16.6,4.7,25.9,21.4,20,36.9
					C409.8,277.4,399.9,274.5,390,271.6z"/>
				<path class="st1" d="M357.5,216.2c15.9,4.4,31.7,8.8,47.3,13.3c-0.3,1.2-0.6,2.3-0.8,3.4c-15.6-4.4-31.3-8.8-47.1-13.3
					C357,218.5,357.3,217.4,357.5,216.2z"/>
				<path class="st1" d="M353.9,304.8c20.9,6.2,42,12.4,63.1,18.6c-0.3,1.1-0.6,2.3-0.9,3.4c-21.3-6.2-42.4-12.4-63.3-18.6
					C353.1,307,353.5,305.9,353.9,304.8z"/>
				<path class="st1" d="M351.1,313.4c21.1,6.2,42.3,12.4,63.6,18.7c-0.3,1.1-0.5,2.3-0.8,3.4c-21.4-6.3-42.7-12.5-63.9-18.7
					C350.5,315.6,350.8,314.5,351.1,313.4z"/>
				<path class="st1" d="M348.7,322c21.2,6.2,42.7,12.5,64.3,18.8c-0.2,1.1-0.4,2.3-0.6,3.4c-21.7-6.3-43.2-12.6-64.5-18.8
					C348.1,324.2,348.4,323.1,348.7,322z"/>
				<path class="st5" d="M341.5,304.9l-7.6-2.2l1.2-3.4l7.6,2.2C342.3,302.6,341.9,303.7,341.5,304.9z"/>
				<path class="st6" d="M338.8,313.4l-7.7-2.3c0.3-1.1,0.7-2.3,1.1-3.4l7.6,2.3C339.5,311.2,339.1,312.3,338.8,313.4z"/>
				<path class="st1" d="M336.4,322l-7.7-2.3c0.3-1.1,0.6-2.3,0.9-3.4l7.7,2.3C337,319.8,336.7,320.9,336.4,322z"/>
				<polygon class="st5" points="426.7,416.9 226.2,416.9 210.8,283.7 411.2,283.7 				"/>
				<polygon class="st5" points="280,269.9 209.2,269.9 210.8,283.7 285.7,283.7 				"/>
				<path class="st4" d="M347.9,181.7c-0.3-1.2-0.5-2.4-0.4-3.6c0-1.2,0.1-2.4,0.4-3.6C348.5,176.9,348.5,179.4,347.9,181.7z"/>
				<path class="st4" d="M340.6,183.8c-0.9-0.9-1.6-1.8-2.2-2.9c-0.6-1-1.1-2.2-1.4-3.3c0.9,0.9,1.6,1.8,2.2,2.9
					C339.8,181.5,340.3,182.6,340.6,183.8z"/>
				<path class="st4" d="M335.3,189.3c-1.2-0.3-2.3-0.8-3.3-1.4c-1.1-0.6-2-1.3-2.9-2.2c1.2,0.3,2.3,0.8,3.3,1.4
					C333.5,187.7,334.5,188.4,335.3,189.3z"/>
				<path class="st4" d="M333.5,196.6c-2.3,0.6-4.8,0.6-7.1,0C328.7,196,331.2,196,333.5,196.6z"/>
				<path class="st4" d="M335.6,203.9c-0.9,0.9-1.8,1.6-2.9,2.2c-1,0.6-2.2,1.1-3.3,1.4C331.2,205.8,333.3,204.5,335.6,203.9
					L335.6,203.9z"/>
				<path class="st4" d="M341.1,209.1c-0.3,1.2-0.8,2.3-1.4,3.3c-0.6,1.1-1.3,2-2.2,2.9c0.3-1.2,0.8-2.3,1.4-3.3
					C339.5,210.9,340.2,209.9,341.1,209.1z"/>
				<path class="st4" d="M348.4,210.9c0.6,2.3,0.6,4.8,0,7.1C347.8,215.7,347.8,213.3,348.4,210.9z"/>
				<path class="st4" d="M355.7,208.8c0.9,0.9,1.6,1.8,2.2,2.9c0.6,1,1.1,2.2,1.4,3.3c-0.9-0.8-1.6-1.8-2.2-2.9
					C356.5,211.1,356,210,355.7,208.8z"/>
				<path class="st4" d="M360.9,203.4c1.2,0.3,2.3,0.8,3.3,1.4c1,0.6,2,1.3,2.9,2.2C364.8,206.3,362.7,205.1,360.9,203.4
					L360.9,203.4z"/>
				<path class="st4" d="M362.8,196c1.2-0.3,2.4-0.5,3.6-0.4c1.2,0,2.4,0.1,3.6,0.4c-1.2,0.3-2.4,0.5-3.6,0.4
					C365.1,196.5,363.9,196.3,362.8,196z"/>
				<path class="st4" d="M360.7,188.8c0.9-0.9,1.8-1.6,2.9-2.2c1-0.6,2.1-1.1,3.3-1.4c-0.8,0.9-1.8,1.6-2.9,2.2
					C362.9,188,361.8,188.5,360.7,188.8z"/>
				<path class="st4" d="M355.2,183.5c0.3-1.2,0.8-2.3,1.4-3.3c0.6-1.1,1.3-2,2.2-2.9c-0.3,1.2-0.8,2.3-1.4,3.3
					C356.8,181.7,356.1,182.7,355.2,183.5z"/>
			</g>
			<g id="freepik--Note--inject-42">
				<path class="st6" d="M351.5,344.4h45.9c1.3-2.9,2.1-6,2.3-9.1v-36.8h-45.9v37.3C353.8,339.4,351.5,344.4,351.5,344.4z"/>
				<path class="st10" d="M359.4,309.3c5.4-0.4,10.8-0.5,16.2-0.6c5.4,0,10.8,0.1,16.2,0.6c-5.4,0.4-10.8,0.5-16.2,0.6
					C370.2,309.9,364.8,309.7,359.4,309.3z"/>
				<path class="st10" d="M359.4,315.3c4.9-0.4,9.7-0.5,14.6-0.6c4.9,0,9.7,0.1,14.6,0.6c-4.9,0.4-9.7,0.5-14.6,0.6
					C369.1,315.9,364.3,315.8,359.4,315.3z"/>
				<path class="st10" d="M359.4,321.4c4.2-0.4,8.5-0.5,12.7-0.6c4.3,0,8.5,0.2,12.8,0.6c-4.3,0.4-8.5,0.5-12.8,0.6
					C367.9,322,363.6,321.8,359.4,321.4z"/>
				<path class="st10" d="M359.4,327.4c5.4-0.4,10.8-0.5,16.2-0.6c5.4,0,10.8,0.1,16.2,0.6c-5.4,0.4-10.8,0.5-16.2,0.6
					C370.2,328,364.8,327.9,359.4,327.4z"/>
			</g>
		</g>
	</g>
</g>
</svg>
