<?xml version="1.0" encoding="utf-8"?>
<!-- Generator: Adobe Illustrator 21.0.0, SVG Export Plug-In . SVG Version: 6.00 Build 0)  -->
<svg version="1.1" id="_x33_0" xmlns="http://www.w3.org/2000/svg" xmlns:xlink="http://www.w3.org/1999/xlink" x="0px" y="0px"
	 viewBox="0 0 512 512" style="enable-background:new 0 0 512 512;" xml:space="preserve">
<style type="text/css">
	.st0{fill:#D2AC67;}
</style>
<g>
	<path class="st0" d="M154.4,234.2c-20,0-36.3,16.3-36.3,36.3c0,11.5,5.5,22.2,14.5,29v43.6h43.5v-43.6c9.1-6.8,14.5-17.5,14.5-29
		C190.7,250.5,174.4,234.2,154.4,234.2z M165.3,289.3l-3.6,2.1v37.1h-14.5v-37.1l-3.6-2.1c-6.7-3.9-10.9-11.1-10.9-18.8
		c0-12,9.8-21.8,21.8-21.8s21.8,9.8,21.8,21.8C176.2,278.3,172,285.5,165.3,289.3z"/>
	<path class="st0" d="M221.4,326.9c8.4-16.8,12.8-35.5,12.8-54.2v-51.8l-13.8-2.3c-22.3-3.7-43.6-12.8-61.7-26.4l-4.4-3.3l-4.4,3.3
		c-18.1,13.6-39.4,22.7-61.7,26.4l-13.8,2.3v51.8c0,18.7,4.4,37.5,12.8,54.2c11.7,23.3,30.9,42.6,54.2,54.2l12.8,6.4l12.8-6.4
		C190.5,369.4,209.8,350.2,221.4,326.9z M154.4,371.3l-6.3-3.2c-20.5-10.3-37.5-27.2-47.7-47.7c-7.4-14.7-11.3-31.3-11.3-47.7v-39.5
		l1.7-0.3c22.8-3.8,44.7-12.7,63.6-25.9c19,13.2,40.8,22.2,63.6,25.9l1.7,0.3v39.5c0,16.5-3.9,33-11.3,47.7
		c-10.3,20.5-27.2,37.5-47.7,47.7L154.4,371.3z"/>
	<path class="st0" d="M481,31H205.2v43.5h-43.5V158l-7.3-5.4l-21.8,16.3c-14.4,10.8-31.3,18-49,21l-38.1,6.3v76.4
		c0,21.4,5.1,41,16.5,63.8c14.4,28.9,38.3,52.8,67.2,67.2l9.5,4.8H67.3c-20,0-36.3,16.3-36.3,36.3S47.3,481,67.3,481h146.9l29-14.5
		h194.2V423H481V31z M219.7,45.5h246.8v203.2c0-18.9-12.1-35-29-41V74.5H219.7V45.5z M422.9,321.3h-29c-16,0-29-13-29-29h15.9
		c3,8.4,11,14.5,20.4,14.5h14.5c9.5,0,17.4-6.1,20.4-14.5H452C452,308.3,438.9,321.3,422.9,321.3z M452,248.7h-15.9
		c-3-8.4-11-14.5-20.4-14.5h-14.5c-9.5,0-17.4,6.1-20.4,14.5h-15.9c0-16,13-29,29-29h29C438.9,219.7,452,232.7,452,248.7z
		 M420.9,290.1c-1.3,1.4-3.1,2.2-5.2,2.2h-14.5c-2,0-3.9-0.8-5.2-2.2c7.3-3.5,12.4-10.9,12.4-19.6s-5.1-16.1-12.4-19.6
		c1.3-1.4,3.1-2.2,5.2-2.2h14.5c2,0,3.9,0.8,5.2,2.2c-7.3,3.5-12.4,10.9-12.4,19.6S413.5,286.6,420.9,290.1z M328.6,277.8
		c-4,0-7.3-3.3-7.3-7.3s3.3-7.3,7.3-7.3h58.1c4,0,7.3,3.3,7.3,7.3s-3.3,7.3-7.3,7.3H328.6z M263.3,272.6v-9.4H285
		c4,0,7.3,3.3,7.3,7.3s-3.3,7.3-7.3,7.3h-21.8L263.3,272.6L263.3,272.6z M294.4,250.9c1.3-1.4,3.1-2.2,5.2-2.2h14.5
		c2,0,3.9,0.8,5.2,2.2c-7.3,3.5-12.4,10.9-12.4,19.6s5.1,16.1,12.4,19.6c-1.3,1.4-3.1,2.2-5.2,2.2h-14.5c-2,0-3.9-0.8-5.2-2.2
		c7.3-3.5,12.4-10.9,12.4-19.6C306.8,261.9,301.7,254.4,294.4,250.9z M334.5,248.7c-3-8.4-11-14.5-20.4-14.5h-14.5
		c-9.5,0-17.4,6.1-20.4,14.5h-15.9c0-16,13-29,29-29h29c16,0,29,13,29,29H334.5z M279.1,292.3c3,8.4,11,14.5,20.4,14.5H314
		c9.5,0,17.4-6.1,20.4-14.5h15.9c0,16-13,29-29,29h-29c-16,0-29-13-29-29H279.1z M430.2,277.8c-4,0-7.3-3.3-7.3-7.3s3.3-7.3,7.3-7.3
		h36.3v14.5L430.2,277.8L430.2,277.8z M176.2,89.1H423v116.1h-29c-15.1,0-28.5,7.8-36.3,19.5c-7.8-11.8-21.2-19.5-36.3-19.5h-29
		c-11.2,0-21.3,4.3-29,11.2v-20.2l-38.1-6.3c-17.7-2.9-34.6-10.2-49-21V89.1H176.2z M75,329.9c-10.5-20.9-15-38-15-57.3v-64.1
		l26-4.3c20-3.3,39.1-11.5,55.3-23.7l13.1-9.8l13.1,9.8c16.2,12.2,35.4,20.4,55.3,23.7l25.9,4.3v40.2v23.9
		c0,20.6-4.2,38.3-13.8,57.3c-13.1,26.1-34.6,47.7-60.7,60.7l-19.3,9.6l-19.3-9.6C109.6,377.6,88,356,75,329.9L75,329.9z
		 M103.6,466.5H89.1V423h14.5V466.5z M118.1,452h79.8v14.5h-79.8C118.1,466.5,118.1,452,118.1,452z M197.9,437.5h-79.8V423h79.8
		V437.5z M45.5,444.7c0-12,9.8-21.8,21.8-21.8h7.3v43.5h-7.3C55.3,466.5,45.5,456.7,45.5,444.7z M212.5,465.6v-41.8l33.8,16.9
		c1.5,0.8,2.5,2.3,2.5,4s-1,3.2-2.5,4L212.5,465.6z M422.9,452H261.6c0.9-2.3,1.6-4.7,1.6-7.3c0-7.2-4-13.8-10.5-17l-38.6-19.3h-43
		l9.6-4.8c28.9-14.5,52.8-38.3,67.2-67.2c3.3-6.7,6-13.2,8.2-19.8c7.8,11.6,21.1,19.2,36.1,19.2h29c15.1,0,28.5-7.8,36.3-19.5
		c7.8,11.8,21.1,19.5,36.3,19.5h29V452H422.9z M466.5,408.4h-29v-75.1c16.9-6,29-22.1,29-41V408.4z"/>
	<path class="st0" d="M277.8,437.5h130.6v-87.1H277.8V437.5z M393.9,419.9l-55.1-55.1h15.8l39.3,39.3L393.9,419.9z M376.4,422.9
		h-15.8l-58.1-58.1h15.8L376.4,422.9z M340.1,422.9h-15.8l-32-32v-15.8L340.1,422.9z M292.3,411.4l11.5,11.5h-11.5V411.4z
		 M393.9,383.6l-18.8-18.8h18.8V383.6z"/>
	<path class="st0" d="M190.7,118.1h101.6v14.5H190.7V118.1z"/>
	<path class="st0" d="M306.8,118.1h101.6v14.5H306.8V118.1z"/>
	<path class="st0" d="M190.7,147.1h101.6v14.5H190.7V147.1z"/>
	<path class="st0" d="M306.8,147.1h101.6v14.5H306.8V147.1z"/>
	<path class="st0" d="M306.8,176.2h14.5v14.5h-14.5V176.2z"/>
	<path class="st0" d="M335.8,176.2h14.5v14.5h-14.5V176.2z"/>
	<path class="st0" d="M364.9,176.2h14.5v14.5h-14.5V176.2z"/>
	<path class="st0" d="M393.9,176.2h14.5v14.5h-14.5V176.2z"/>
</g>
</svg>
