<?xml version="1.0" encoding="utf-8"?>
<!-- Generator: Adobe Illustrator 21.0.0, SVG Export Plug-In . SVG Version: 6.00 Build 0)  -->
<svg version="1.1" id="Layer_1" xmlns="http://www.w3.org/2000/svg" xmlns:xlink="http://www.w3.org/1999/xlink" x="0px" y="0px"
	 viewBox="0 0 40.9 38.1" style="enable-background:new 0 0 40.9 38.1;" xml:space="preserve">
<style type="text/css">
	.st0{fill:#D1AE6C;}
</style>
<g>
	<path class="st0" d="M37.2,16.6h-1.9c-0.2-0.8-1-1.4-1.8-1.4h-2v-5c0-0.2-0.1-0.4-0.3-0.5L16.7,1.4c-0.2-0.1-0.4-0.1-0.5,0L1.7,9.7
		C1.5,9.8,1.4,10,1.4,10.2v16.7c0,0.2,0.1,0.4,0.3,0.5l14.4,8.3c0.1,0,0.2,0.1,0.3,0.1c0.1,0,0.2,0,0.3-0.1l7.6-4.4v3.2
		c0,1.3,1,2.3,2.3,2.3c0,0,0,0,0,0h10.6c1.3,0,2.3-1,2.3-2.3c0,0,0,0,0,0V18.9C39.5,17.6,38.4,16.6,37.2,16.6z M33.5,16.3
		c0.4,0,0.8,0.4,0.8,0.8l0,0v0.1c0,0.4-0.4,0.8-0.8,0.8h0h-3.1c-0.4,0-0.8-0.4-0.8-0.8l0,0v-0.1c0-0.4,0.4-0.8,0.8-0.8h0H33.5z
		 M16.4,2.5l6,3.5L9.1,13.7l-6-3.5L16.4,2.5z M15.9,34.3L2.5,26.6V11.1l13.4,7.7V34.3z M16.4,17.9l-6.3-3.6l13.4-7.7l6.3,3.6
		L16.4,17.9z M24.3,18.9v11.1L17,34.3V18.9l13.3-7.7v4.1h0c-0.8,0-1.6,0.6-1.8,1.4h-1.9C25.3,16.6,24.3,17.6,24.3,18.9z M38.4,34.5
		c0,0.7-0.5,1.2-1.2,1.2c0,0,0,0,0,0H26.6c-0.7,0-1.2-0.5-1.2-1.2c0,0,0,0,0,0V18.9c0-0.7,0.5-1.2,1.2-1.2c0,0,0,0,0,0h1.9
		c0.2,0.8,1,1.3,1.8,1.3h3.1c0.8,0,1.5-0.5,1.8-1.3h1.9c0.7,0,1.2,0.6,1.2,1.2V34.5z"/>
	<path class="st0" d="M27.2,24.4h0.6c0.3,0,0.5-0.2,0.5-0.5c0-0.3-0.2-0.5-0.5-0.5h0v-1.5h1.5c0.1,0.2,0.3,0.4,0.5,0.4
		c0.3,0,0.5-0.2,0.5-0.5v-0.4c0-0.3-0.2-0.5-0.5-0.5h-2.5c-0.3,0-0.5,0.2-0.5,0.5c0,0,0,0,0,0v2.5C26.7,24.1,26.9,24.4,27.2,24.4
		C27.2,24.4,27.2,24.4,27.2,24.4z"/>
	<path class="st0" d="M27.2,29.3h2.5c0.3,0,0.5-0.2,0.5-0.5v-2.5c0-0.3-0.2-0.5-0.5-0.5h-2.5c-0.3,0-0.5,0.2-0.5,0.5v2.5
		C26.7,29.1,26.9,29.3,27.2,29.3z M27.8,26.8h1.5v1.5h-1.5V26.8z"/>
	<path class="st0" d="M27.8,33.2L27.8,33.2l0-1.5h1.5c0,0.3,0.3,0.5,0.6,0.5c0.3,0,0.5-0.2,0.5-0.5v-0.5c0-0.3-0.2-0.6-0.5-0.6h-2.5
		c-0.3,0-0.5,0.3-0.5,0.6v2.5c0,0.3,0.2,0.5,0.5,0.5c0,0,0,0,0,0h0.6c0.3,0,0.5-0.2,0.5-0.5S28.1,33.2,27.8,33.2L27.8,33.2z"/>
	<path class="st0" d="M31,21.4L29.4,23l-0.5-0.5c-0.2-0.2-0.6-0.2-0.8,0s-0.2,0.6,0,0.8l0.9,0.9c0.2,0.2,0.6,0.2,0.8,0l0,0l2-2
		c0.2-0.2,0.2-0.6,0-0.8S31.2,21.2,31,21.4L31,21.4z"/>
	<path class="st0" d="M31,31.4l-1.6,1.6l-0.5-0.5c-0.2-0.2-0.6-0.2-0.8,0c-0.2,0.2-0.2,0.6,0,0.8l0.9,0.9c0.2,0.2,0.6,0.2,0.8,0l0,0
		l2-2c0.2-0.2,0.2-0.6,0-0.8S31.2,31.2,31,31.4L31,31.4z"/>
	<path class="st0" d="M36.5,22.1h-3.4c-0.3,0-0.5,0.2-0.5,0.5c0,0.3,0.2,0.5,0.5,0.5h3.4c0.3,0,0.5-0.2,0.5-0.5
		C37.1,22.3,36.8,22.1,36.5,22.1z"/>
	<path class="st0" d="M36.5,27h-3.4c-0.3,0-0.5,0.2-0.5,0.5s0.2,0.5,0.5,0.5h3.4c0.3,0,0.5-0.2,0.5-0.5S36.8,27,36.5,27z"/>
	<path class="st0" d="M36.5,31.9h-3.4c-0.3,0-0.5,0.2-0.5,0.5s0.2,0.5,0.5,0.5h3.4c0.3,0,0.5-0.2,0.5-0.5S36.8,31.9,36.5,31.9z"/>
</g>
</svg>
