<?xml version="1.0" encoding="utf-8"?>
<!-- Generator: Adobe Illustrator 21.0.0, SVG Export Plug-In . SVG Version: 6.00 Build 0)  -->
<svg version="1.1" id="Layer_1" xmlns="http://www.w3.org/2000/svg" xmlns:xlink="http://www.w3.org/1999/xlink" x="0px" y="0px"
	 viewBox="0 0 652.9 545.2" style="enable-background:new 0 0 652.9 545.2;" xml:space="preserve">
<style type="text/css">
	.st0{fill:#EAEAEA;}
	.st1{fill:#FFFFFF;}
	.st2{fill:#263238;}
	.st3{fill:#DCA952;}
	.st4{opacity:0.1;enable-background:new    ;}
	.st5{fill:#C7C6C5;}
	.st6{fill:#DC6A57;}
	.st7{fill:#A6A4A4;}
	.st8{fill:#465B65;}
	.st9{fill:none;}
	.st10{fill:#F396B7;}
	.st11{fill:#DBDADA;}
	.st12{fill:#37474F;}
</style>
<g>
	<g id="freepik--background-complete--inject-40">
		<path class="st0" d="M515.2,144.5l12.1,7.5l2.3-3.7c0.7-1.1,1.9-1.7,3.2-1.6c0.7,0.1,1.4,0.1,2.1,0.1c1.3,0,2.5,0.6,3.1,1.8
			l2.1,3.8l12.5-6.7l-2.1-3.8c-0.6-1.1-0.5-2.5,0.2-3.5c0.4-0.6,0.8-1.1,1.1-1.8c0.6-1.1,1.8-1.8,3.1-1.8l4.3,0.1l0.4-14.2l-4.4-0.1
			c-1.3,0-2.4-0.8-2.9-2c-0.1-0.3-0.3-0.6-0.5-0.9s-0.3-0.6-0.5-0.9c-0.6-1.1-0.6-2.4,0-3.5l2.3-3.7l-12.1-7.5l-2.3,3.7
			c-0.7,1.1-1.9,1.7-3.2,1.6c-0.7-0.1-1.4-0.1-2.1-0.1c-1.3,0-2.4-0.7-3.1-1.8l-2.1-3.8l-12.5,6.7l2.1,3.8c0.6,1.1,0.5,2.5-0.2,3.5
			c-0.4,0.6-0.8,1.2-1.1,1.8c-0.6,1.1-1.8,1.8-3.1,1.8l-4.4-0.1l-0.4,14.2l4.4,0.1c1.3,0.1,2.4,0.8,2.9,2c0.1,0.3,0.3,0.6,0.5,1
			c0.2,0.3,0.3,0.6,0.5,0.9c0.7,1.1,0.7,2.5,0,3.5L515.2,144.5z M524.2,132.5c-3-5.7-0.9-12.7,4.8-15.7c5.7-3,12.7-0.9,15.7,4.8
			c3,5.7,0.9,12.7-4.8,15.7C534.3,140.3,527.2,138.2,524.2,132.5C524.2,132.5,524.2,132.5,524.2,132.5z"/>
		<path class="st0" d="M503.4,201.2l5,8.6l2.6-1.5c0.8-0.5,1.7-0.4,2.5,0.1c0.4,0.3,0.8,0.5,1.3,0.7c0.8,0.4,1.3,1.2,1.3,2.1v3h10
			v-3c0-0.9,0.5-1.7,1.3-2.1c0.4-0.2,0.9-0.5,1.3-0.7c0.7-0.5,1.7-0.5,2.5-0.1l2.6,1.5l5-8.6l-2.6-1.5c-0.8-0.5-1.2-1.3-1.1-2.2
			c0-0.2,0-0.5,0-0.7s0-0.5,0-0.7c-0.1-0.9,0.4-1.7,1.1-2.2l2.7-1.5l-5-8.6l-2.6,1.5c-0.8,0.4-1.7,0.4-2.5-0.1
			c-0.4-0.3-0.8-0.5-1.3-0.7c-0.8-0.4-1.3-1.2-1.3-2.1v-3h-10v3c0,0.9-0.5,1.7-1.3,2.1c-0.4,0.2-0.9,0.5-1.3,0.7
			c-0.7,0.5-1.7,0.5-2.5,0.1l-2.6-1.5l-5,8.6l2.6,1.5c0.8,0.5,1.2,1.3,1.1,2.2c0,0.2,0,0.5,0,0.7c0,0.3,0,0.5,0,0.7
			c0.1,0.9-0.4,1.7-1.1,2.2L503.4,201.2z M512.9,196.8c0-4.5,3.7-8.2,8.2-8.2c4.5,0,8.2,3.7,8.2,8.2s-3.7,8.2-8.2,8.2c0,0,0,0,0,0
			C516.6,204.9,512.9,201.3,512.9,196.8C512.9,196.8,512.9,196.8,512.9,196.8z"/>
		<path class="st0" d="M106.2,299.8l5,8.6l2.6-1.5c0.8-0.4,1.7-0.4,2.5,0.1c0.4,0.3,0.8,0.5,1.3,0.7c0.8,0.4,1.3,1.2,1.3,2.1v3h9.9
			v-3c0-0.9,0.5-1.7,1.3-2.1c0.4-0.2,0.9-0.5,1.3-0.7c0.7-0.5,1.7-0.5,2.5-0.1l2.6,1.5l5-8.6l-2.6-1.5c-0.8-0.5-1.2-1.3-1.1-2.2
			c0-0.2,0-0.5,0-0.7s0-0.5,0-0.7c-0.1-0.9,0.4-1.7,1.1-2.2l2.6-1.5l-5-8.6l-2.6,1.5c-0.8,0.5-1.7,0.4-2.5-0.1
			c-0.4-0.3-0.8-0.5-1.3-0.7c-0.8-0.4-1.3-1.2-1.3-2.1v-3h-9.9v3c0,0.9-0.5,1.7-1.3,2.1c-0.4,0.2-0.9,0.5-1.3,0.7
			c-0.7,0.5-1.7,0.5-2.5,0.1l-2.6-1.5l-5,8.6l2.6,1.5c0.8,0.5,1.2,1.3,1.1,2.2c0,0.3,0,0.5,0,0.7s0,0.5,0,0.7
			c0.1,0.9-0.4,1.7-1.1,2.2L106.2,299.8z M115.8,295.3c0-4.5,3.6-8.1,8.1-8.1s8.1,3.6,8.1,8.1c0,4.5-3.6,8.1-8.1,8.1h0
			C119.4,303.5,115.8,299.8,115.8,295.3z"/>
		<rect x="102" y="31.2" class="st0" width="151" height="231.5"/>
		<rect x="110.2" y="40.5" class="st1" width="63.8" height="103"/>
		<rect x="181" y="40.5" class="st1" width="63.8" height="103"/>
		<rect x="110.2" y="150.5" class="st1" width="63.8" height="103"/>
		<rect x="181" y="150.5" class="st1" width="63.8" height="103"/>
		<polygon class="st0" points="148.8,40.5 110.2,79.1 110.2,56.3 126,40.5 		"/>
		<polygon class="st0" points="110.2,249.7 174,185.9 174,208.7 129.2,253.5 110.2,253.5 		"/>
		<polygon class="st0" points="232.2,150.5 181,201.7 181,178.9 209.4,150.5 		"/>
		<polygon class="st0" points="244.8,115.1 244.8,137.9 239.2,143.5 216.4,143.5 		"/>
		<polygon class="st0" points="244.8,229.6 244.8,252.4 243.7,253.5 220.9,253.5 		"/>
		<polygon class="st0" points="113.8,150.5 125.2,150.5 110.2,165.5 110.2,154.1 		"/>
		<polygon class="st0" points="120.9,143.5 174,90.4 174,101.7 132.2,143.5 		"/>
		<polygon class="st0" points="235.2,40.5 181,94.7 181,83.3 223.9,40.5 		"/>
		<polygon class="st0" points="167.5,40.5 110.2,97.8 110.2,94.9 164.7,40.5 		"/>
		<polygon class="st0" points="145.8,253.5 174,225.3 174,228.2 148.7,253.5 		"/>
		<polygon class="st0" points="244.8,154.6 244.8,157.4 181,221.2 181,218.3 		"/>
		<rect x="286.9" y="31.2" class="st0" width="151" height="231.5"/>
		<rect x="295.1" y="40.5" class="st1" width="63.8" height="103"/>
		<rect x="365.9" y="40.5" class="st1" width="63.8" height="103"/>
		<rect x="295.1" y="150.5" class="st1" width="63.8" height="103"/>
		<rect x="365.9" y="150.5" class="st1" width="63.8" height="103"/>
		<polygon class="st0" points="295.1,150.5 301.1,150.5 295.1,156.5 		"/>
		<polygon class="st0" points="295.1,133.7 358.9,69.9 358.9,92.7 308.1,143.5 295.1,143.5 		"/>
		<polygon class="st0" points="411.1,40.5 365.9,85.7 365.9,62.9 388.4,40.5 		"/>
		<polygon class="st0" points="429.7,183.9 429.7,206.7 382.9,253.5 365.9,253.5 365.9,247.7 		"/>
		<polygon class="st0" points="358.9,40.5 358.9,42.6 295.1,106.4 295.1,95 349.6,40.5 		"/>
		<polygon class="st0" points="333.6,253.5 358.9,228.2 358.9,239.6 345,253.5 		"/>
		<polygon class="st0" points="429.7,157.4 429.7,168.8 365.9,232.5 365.9,221.2 		"/>
		<polygon class="st0" points="308.9,150.5 311.7,150.5 295.1,167.1 295.1,164.2 		"/>
		<polygon class="st0" points="315.9,143.5 358.9,100.5 358.9,103.3 318.7,143.5 		"/>
		<polygon class="st0" points="421.7,40.5 365.9,96.3 365.9,93.4 418.9,40.5 		"/>
		<polygon class="st0" points="295.1,251.3 358.9,187.6 358.9,190.4 295.8,253.5 295.1,253.5 		"/>
		<polygon class="st0" points="398.8,150.5 365.9,183.4 365.9,180.5 396,150.5 		"/>
		<polygon class="st0" points="429.7,116.8 429.7,119.6 405.8,143.5 403,143.5 		"/>
	</g>
	<g id="freepik--Shadows--inject-40">
		<ellipse class="st0" cx="334" cy="469.5" rx="168.4" ry="22.7"/>
		<ellipse class="st0" cx="534.5" cy="469.8" rx="47.3" ry="9.4"/>
		<ellipse class="st0" cx="240.6" cy="493.3" rx="176.5" ry="20.7"/>
	</g>
	<g id="freepik--Floor--inject-40">
		<polygon class="st2" points="85.8,441.7 147.8,441.5 209.9,441.4 334,441.2 458.1,441.4 520.2,441.5 582.3,441.7 520.2,442 
			458.1,442.1 334,442.3 209.9,442.1 147.8,442 		"/>
	</g>
	<g id="freepik--Clock--inject-40">
		<polygon class="st3" points="211,425.4 194.7,469.5 213.8,469.5 249.4,445.3 		"/>
		<polygon class="st4" points="211,425.4 194.7,469.5 213.8,469.5 249.4,445.3 		"/>
		<polygon class="st3" points="457,425.4 473.4,469.5 454.2,469.5 418.7,445.3 		"/>
		<polygon class="st4" points="457,425.4 473.4,469.5 454.2,469.5 418.7,445.3 		"/>
		
			<ellipse transform="matrix(0.7071 -0.7071 0.7071 0.7071 -98.2368 317.4021)" class="st3" cx="334" cy="277.3" rx="196.1" ry="196.1"/>
		<circle class="st4" cx="331.6" cy="274.1" r="187.1"/>
		
			<ellipse transform="matrix(0.7071 -0.7071 0.7071 0.7071 -97.6503 317.1533)" class="st1" cx="334" cy="276.5" rx="175.3" ry="175.3"/>
		<path class="st0" d="M505.3,239.2c-79.8,48.4-211,127.7-284.2,171.2c-20.7-17.5-37.1-39.5-47.9-64.4l242.4-224.7
			C461.4,145.4,494.3,188.6,505.3,239.2z"/>
		<path class="st0" d="M509.1,282.5c-0.6,19.5-4.6,38.8-11.6,57L279,442.9c-9.5-3.1-18.8-7.1-27.6-11.9
			C317.4,392.8,438,323.4,509.1,282.5z"/>
		<rect x="332.3" y="113.9" class="st5" width="3.4" height="26.6"/>
		<rect x="257.7" y="133.9" transform="matrix(0.866 -0.5 0.5 0.866 -38.832 149.4132)" class="st5" width="3.4" height="26.6"/>
		<rect x="203.1" y="188.5" transform="matrix(0.5 -0.866 0.866 0.5 -72.3847 278.2163)" class="st5" width="3.4" height="26.6"/>
		<rect x="171.5" y="274.7" class="st5" width="26.6" height="3.4"/>
		<rect x="191.4" y="349.4" transform="matrix(0.866 -0.5 0.5 0.866 -148.1114 149.4014)" class="st5" width="26.6" height="3.4"/>
		
			<rect x="246.1" y="404" transform="matrix(0.4995 -0.8663 0.8663 0.4995 -221.6664 427.7572)" class="st5" width="26.6" height="3.4"/>
		<rect x="332.3" y="412.4" class="st5" width="3.4" height="26.6"/>
		<rect x="407" y="392.4" transform="matrix(0.866 -0.5 0.5 0.866 -148.1003 258.6789)" class="st5" width="3.4" height="26.6"/>
		<rect x="461.6" y="337.8" transform="matrix(0.5 -0.866 0.866 0.5 -72.382 576.7241)" class="st5" width="3.4" height="26.6"/>
		<rect x="470" y="274.7" class="st5" width="26.6" height="3.4"/>
		<rect x="450" y="200.2" transform="matrix(0.866 -0.5 0.5 0.866 -38.8557 258.6785)" class="st5" width="26.6" height="3.4"/>
		
			<rect x="395.4" y="145.5" transform="matrix(0.4995 -0.8663 0.8663 0.4995 76.9911 427.6856)" class="st5" width="26.6" height="3.4"/>
		<polygon class="st3" points="495.2,278.7 325.2,283.4 325.5,266.8 495.3,274.2 		"/>
		<polygon class="st2" points="335.2,156.9 342.5,286.3 325.9,286.1 330.7,156.9 		"/>
		<circle class="st3" cx="334" cy="276.4" r="5.7"/>
	</g>
	<g id="freepik--Character--inject-40">
		<path class="st6" d="M490.5,276.3c-0.6-1.9-34.4-46.5-36.7-47.3c-0.3-0.1-15.3,10.6-15.3,10.6c-0.6,0.8-29.3-5.2-29.3-5.2
			l-0.3,34.6l52.2-1.1c0,0,7,4.1,13.5,7.5l0,0c2.7,1.5,5.6,2.9,8.5,4.1C485.8,280.2,491.1,278.2,490.5,276.3z"/>
		<path class="st1" d="M483.1,279.5c-2.9-1.2-5.7-2.6-8.5-4.1l0,0c-6.5-3.4-13.5-7.5-13.5-7.5l-11.6,0.3l-18.2-29.4
			c4,0.7,7,1.1,7.2,0.9c0,0,15.1-10.7,15.3-10.6c2.3,0.8,36,45.4,36.7,47.3C491.2,278.3,485.8,280.2,483.1,279.5z"/>
		<path class="st7" d="M490.8,276.4c-0.7-1.9-34.5-46.5-36.9-47.4c-0.9-0.3-8.3,4.2-15.4,10.6l21.9,28.7c0,0,20.2,10.7,22.9,11.4
			C486,280.4,491.5,278.3,490.8,276.4z"/>
		<path class="st2" d="M488.5,277.1c-5.9-7.3-28.8-37.4-34.1-45.1c0-0.1,0-0.1,0,0C460.4,239.1,483.1,269.4,488.5,277.1
			C488.7,277.2,488.7,277.3,488.5,277.1z"/>
		<path class="st2" d="M479.5,278.1c-1.3-1.6-1.9-3.8-1.6-5.8c0.3-1.9,1.2-3.6,2.7-4.7c0,0,0.1,0,0.1,0.1
			C478,270.4,477.6,274.6,479.5,278.1c0.1-0.1,0.1,0,0.1,0C479.6,278.1,479.5,278.1,479.5,278.1
			C479.5,278.1,479.5,278.1,479.5,278.1z"/>
		<path class="st2" d="M462.9,270.1c-2.3-3-3.9-7.2-2.9-10.9c0-0.1,0.3-0.1,0.3,0c0.6,3.7,1.6,7.2,3,10.7c0.1,0.1,0,0.3-0.1,0.3
			C463.1,270.2,463,270.2,462.9,270.1L462.9,270.1z"/>
		<path class="st2" d="M465.6,271.7c-2.3-3-3.9-7.2-2.9-10.9c0-0.1,0.2-0.1,0.3,0c0.6,3.7,1.6,7.2,3,10.7c0.1,0.1,0,0.3-0.1,0.3
			C465.8,271.9,465.6,271.8,465.6,271.7z"/>
		<path class="st2" d="M468.2,273.3c-2.3-3-3.9-7.2-2.9-10.9c0-0.1,0.3-0.1,0.3,0c0.6,3.7,1.6,7.2,3,10.7c0.1,0.1,0,0.3-0.1,0.3
			C468.4,273.5,468.3,273.5,468.2,273.3z"/>
		<path class="st2" d="M470.9,275c-2.3-3-3.9-7.2-2.9-10.9c0-0.1,0.2-0.1,0.3,0c0.6,3.7,1.6,7.2,3,10.7c0.1,0.1,0,0.3-0.1,0.3
			C471.1,275.1,470.9,275.1,470.9,275L470.9,275z"/>
		<path class="st2" d="M448.8,239.3c-2.5-3.4,2.7-7.3,5.2-4C456.6,238.7,451.4,242.7,448.8,239.3z"/>
		<path class="st2" d="M461.6,275.8c0.9-3.2,0.3-6.6,0.1-9.9c0-0.3-0.3-0.4-0.5-0.4c0,0-0.1,0-0.1,0c0,0-0.1-0.1-0.1,0c0,0,0,0,0,0
			c-2.6,2.3-4.5,5.2-5.6,8.5c-0.6,1.9-0.4,4.8,2,5.3C459.8,280,461.1,277.7,461.6,275.8z M459.2,277.8c-3.4,2.2-3.2-2.6-2.7-4.1
			c0.3-0.9,0.7-1.8,1.1-2.6c1-1.7,2-3.4,3.1-5c0,1.6,0.1,3.2,0.1,4.8C461,272.8,461.1,276.6,459.2,277.8L459.2,277.8z"/>
		<path class="st2" d="M450.9,256.4c-1.8,1.7-0.5,4.3,1,5.6c2.6,2.3,5.8,3.8,9.2,4.4c0.1,0,0.1,0,0.1-0.1c0,0,0,0,0,0
			c0.3,0,0.4-0.3,0.4-0.5c0,0,0-0.1,0-0.1c-1.5-2.9-2.9-6.1-5.2-8.4C455,255.9,452.6,254.7,450.9,256.4z M458.4,261.8
			c0.8,1.4,1.5,2.8,2.4,4.2c-1.8-0.8-3.6-1.7-5.3-2.7c-0.8-0.5-1.6-1-2.4-1.6c-1.1-0.9-3.9-5,0.2-4.9
			C455.6,256.8,457.4,260.2,458.4,261.8L458.4,261.8z"/>
		<path class="st8" d="M407.6,223.8h-23.4c0,0-24.5-11.8-44.3-7c-22.6,5.4-25.5,33.9-8.6,43.9c21.4,12.7,116.8,10.3,116.8,10.3
			l-20.6-35c0,0-31.7-6.7-60.5-5.7l40.6,5.5V223.8z"/>
		<path class="st2" d="M428.9,238.3c0-0.1,0-0.1,0-0.2V238c0-0.1-0.1-0.2-0.1-0.3c0-0.1-0.2-0.5-0.2-0.7c-0.1-0.2-0.2-0.4-0.3-0.7
			c-0.1-0.2-0.2-0.4-0.4-0.6c0,0,0,0-0.1,0l0,0l0,0l0,0c-3.5-0.7-27.2-4-30.7-4.4s-7.1-0.7-10.7-1c-7.1-0.6-14.2-0.9-21.4-0.8h-2
			c-0.1,0-0.3-0.1-0.4-0.1l-1-0.2c-0.6-0.1-1.3-0.2-1.9-0.3c-1.4-0.2-2.7-0.4-4.1-0.6c-0.1,0-0.1,0.1,0,0.1c1.4,0.3,2.7,0.7,4,1
			l1.1,0.3c-2.6,0.1-5.2,0.3-7.8,0.6c-0.1,0-0.1,0.1,0,0.1c3.6-0.2,7.1-0.2,10.7-0.2c3.6,0.1,7.1,0.1,10.6,0.3
			c7.1,0.4,14.3,1,21.4,1.8c4,0.4,28.2,3.9,32.2,4.1h0.1c0,0.1,0.1,0.2,0.1,0.3l0.3,0.7c0.1,0.2,0.2,0.4,0.4,0.6l0.2,0.3
			L428.9,238.3c0,0,0.1,0.1,0.1,0.1C429,238.5,429,238.3,428.9,238.3z"/>
		<path class="st2" d="M440.7,268.8c-1.3-2-2.4-4.2-3.6-6.3c-1.1-2.2-2.3-4.2-3.5-6.3c-2.3-4.2-10.8-18.3-11.6-19.4
			c0-0.1-0.2,0-0.1,0.1c0.4,1.1,5.7,10.5,6.9,12.6c2.4,4.2,5,8.3,7.5,12.4c0.7,1.1,1.5,2.3,2.2,3.5c0.7,1.2,1.5,2.3,2.2,3.5
			C440.6,269,440.8,268.9,440.7,268.8z"/>
		<path class="st2" d="M421.8,240.3c-2.1-0.5-4.3-0.8-6.4-1.2l-6.4-1.2c-4.3-0.8-8.5-1.5-12.8-2.3c-8.5-1.4-17.1-2.6-25.7-3.4
			c-4.9-0.5-9.7-0.8-14.6-1.1c-0.1,0-0.1,0.1,0,0.2c8.7,0.4,17.3,1.6,25.9,2.8c8.6,1.2,17,2.6,25.5,4l7.2,1.2
			c2.4,0.4,4.9,0.9,7.3,1.2C421.9,240.5,421.9,240.4,421.8,240.3z"/>
		<path class="st6" d="M446.1,390.1c-2.1-0.2-53.1-23.2-54.5-25.3c-0.5-0.8,2.4-8.4,6.2-17.6c0.8-2,1.7-4,2.6-6.1
			c5.7-13.4,12-27.4,12-27.4l34.2,15.3l-13,27l-2.8,5.9c0,0,15.6,17.5,16.9,20C448.9,384.4,448.1,390.3,446.1,390.1z"/>
		<path class="st1" d="M446.1,390.1c-2.1-0.2-53.1-23.2-54.5-25.3c-0.6-1,3.8-12,8.7-23.6l33.2,14.8l-2.8,5.9c0,0,15.6,17.5,16.9,20
			C448.8,384.4,448.1,390.3,446.1,390.1z"/>
		<path class="st7" d="M446.1,390.1c-2.1-0.2-53.1-23.2-54.5-25.3c-0.5-0.8,2.4-8.4,6.2-17.6l33,14.7c0,0,15.6,17.5,16.9,20
			C448.9,384.4,448.1,390.3,446.1,390.1z"/>
		<path class="st2" d="M446.3,387.7c-8.5-4.1-43-19.6-51.7-23c-0.1,0-0.1,0,0,0C402.9,368.9,437.5,384.2,446.3,387.7
			C446.3,387.9,446.4,387.8,446.3,387.7z"/>
		<path class="st2" d="M445.1,378.6c-1.9-0.9-4.1-1-6.1-0.2c-1.8,0.7-3.2,2-4,3.7c0,0,0.1,0.1,0.1,0
			C437.3,378.9,441.4,377.5,445.1,378.6C445.1,378.7,445.1,378.7,445.1,378.6C445.1,378.6,445.1,378.6,445.1,378.6z"/>
		<path class="st2" d="M433.6,364.3c-3.4-1.6-7.9-2.2-11.3-0.3c-0.1,0.1,0,0.3,0.1,0.2c3.7-0.2,7.4,0,11.1,0.5
			c0.1,0,0.3-0.1,0.3-0.2C433.8,364.4,433.7,364.3,433.6,364.3z"/>
		<path class="st2" d="M435.8,366.5c-3.4-1.6-7.9-2.2-11.3-0.3c-0.1,0.1,0,0.3,0.1,0.3c3.7-0.2,7.4-0.1,11.1,0.5
			c0.1,0,0.3,0,0.3-0.2C436,366.7,435.9,366.5,435.8,366.5z"/>
		<path class="st2" d="M438,368.7c-3.4-1.6-7.9-2.2-11.3-0.3c-0.1,0.1,0,0.3,0.1,0.3c3.7-0.2,7.4-0.1,11.1,0.5
			c0.1,0,0.2-0.1,0.3-0.2C438.1,368.9,438,368.8,438,368.7z"/>
		<path class="st2" d="M440.1,370.9c-3.4-1.6-7.9-2.2-11.3-0.3c-0.1,0.1,0,0.3,0.1,0.3c3.7-0.2,7.4-0.1,11.1,0.5
			c0.1,0,0.3,0,0.3-0.2C440.3,371.1,440.3,371,440.1,370.9z"/>
		<path class="st2" d="M400.4,357.5c-3.9-1.7-6.5,4.3-2.7,6S404.3,359.2,400.4,357.5z"/>
		<path class="st2" d="M441.4,356.8c-1.1-2.2-3.9-1.8-5.7-0.8c-3,1.8-5.4,4.3-7,7.4c0,0,0,0.1,0,0.1c0,0,0,0,0,0
			c-0.1,0.2,0.1,0.5,0.4,0.5c0,0,0.1,0,0.1,0c3.2-0.6,6.7-0.8,9.6-2.4C440.6,360.8,442.5,358.9,441.4,356.8z M433.9,362.2
			c-1.6,0.3-3.1,0.6-4.7,1c1.4-1.4,2.7-2.9,4.2-4.2c0.7-0.6,1.5-1.2,2.3-1.8c1.3-0.8,5.9-2.1,4.6,1.7
			C439.6,361.1,435.8,361.8,433.9,362.2L433.9,362.2z"/>
		<path class="st2" d="M419.6,360.8c2.8,1.8,6.2,2.3,9.4,3.2c0.3,0.1,0.6-0.2,0.5-0.5c0.1,0,0.1-0.1,0.1-0.1c0,0,0,0,0,0
			c-1.4-3.2-3.6-5.9-6.4-7.9c-1.7-1.1-4.4-1.8-5.7,0.3C416.2,357.8,418,359.8,419.6,360.8z M418.4,357.9c-1-4,3.5-2.2,4.7-1.3
			c0.8,0.6,1.5,1.2,2.1,1.9c1.4,1.5,2.6,3,3.8,4.6c-1.5-0.5-3.1-0.9-4.6-1.4C422.7,361.2,419,360.1,418.4,357.9L418.4,357.9z"/>
		<path class="st8" d="M401,338l38.5,17.4c0,0,45.8-87.9,47-114.9c1-22.9-14.9-31.7-66.5-16.9l-12.6,0.2v8.7
			c5.5,0.7,20.3,3.1,20.3,3.1c10.8,4.1,14.2,5.7,14.1,6.1C415,295.9,401,338,401,338z"/>
		<path class="st2" d="M448.1,232c-1.5,2.1-3,4.2-4.4,6.4c-8.4-3.6-17.2-5.9-26.2-6.9c-2.5-0.3-5.1-0.5-7.6-0.7
			c-0.1,0-0.1,0.1,0,0.2c9.1,0.6,18,2.3,26.7,5c2.4,0.7,4.7,1.6,7.1,2.4c-1.7,2.6-3.2,5.4-4.7,8.1c-2.8,5.1-5.3,10.4-7.5,15.8
			c-1.2,3-2.4,6-3.5,9c0,0.1,0.1,0.1,0.1,0.1c4.7-10.5,9.8-20.7,15.4-30.8c1.6-2.8,3.2-5.6,4.7-8.5C448.3,232,448.2,231.9,448.1,232
			z"/>
		<path class="st2" d="M440.3,346.1c-2.3-0.9-4.4-2-6.6-3l-6.6-3c-4.4-2-19.6-8.3-20.9-8.6c-0.1,0-0.1,0.1-0.1,0.1
			c1,0.6,10.8,5,13,5.9c4.4,1.9,8.9,3.7,13.4,5.5c1.3,0.5,2.6,1,3.9,1.5c1.3,0.5,2.6,1,3.8,1.5C440.4,346.3,440.4,346.2,440.3,346.1
			z"/>
		<path class="st2" d="M447.9,236c-3,5.7-5.6,11.8-8.3,17.8s-5.2,11.9-7.7,17.9c-4.9,12-9.5,24-13.8,36.3
			c-2.4,6.9-4.7,13.9-6.9,20.8c0,0.1,0.1,0.1,0.2,0c4.1-12.3,8.5-24.6,13.1-36.7s9.5-24.1,14.7-36c1.5-3.3,2.9-6.7,4.4-10
			c1.5-3.3,3.1-6.6,4.5-10C448.2,235.9,448,235.8,447.9,236z"/>
		<path class="st3" d="M384.4,226.6c0.9,0.9,54.4,0.3,54.6,0c0.7-0.9-7.3-34.7-13.3-47.5c-7.7-16.4-11.8-17.8-14.2-18.7
			c-3.3-0.9-6.7-1-10-0.1c-1.5,0.7-7.9,8.3-9.7,14.4C388.2,187,383.7,225.8,384.4,226.6z"/>
		<path class="st6" d="M420.6,164.7c23.6,16.6,44.4,40,42.7,47.7c-1.8,8.1-17.4,17.7-31.4,19.9c-2.9,0.5-12.5-20.4-9.6-21.5
			c2.3-0.8,12.6-4.1,13.8-5.6c0.8-1-16.1-23.3-21.8-35.1C408.3,157.8,414.2,160.3,420.6,164.7z"/>
		<path class="st6" d="M428.2,210c0,0-8.8,1.1-14.5,2.2c-3.2,0.6-8.5,2.1-10.7,3.6c-3.2,2.2-15.2,13.6-12.5,16.6
			c2.4,2.7,5.8-1.8,5.8-1.8s-4.2,4.6-0.9,6.5c3.2,1.9,7.1-4.3,7.1-4.3s-4.8,4.5-1.1,6.2c3.2,1.5,8.4-5.2,8.4-5.2s-5.5,4.2-2.4,6
			c3.4,2,12.6-7.1,12.6-7.1c5.9,0.7,11.8,0.1,17.4-1.7C438.4,230.6,428.2,210,428.2,210z"/>
		<path class="st2" d="M401.3,234.2l1-1.4c0.6-0.9,1.3-1.9,2-2.7c0.7-0.8,1.5-1.6,2.3-2.4c0.8-0.8,1.7-1.5,2.5-2.4c0,0,0.1,0,0.1,0
			c0,0,0,0.1,0,0.1c0,0,0,0,0,0c-0.8,0.8-1.6,1.7-2.3,2.6l-2.1,2.6c-0.7,0.9-1.4,1.7-2.2,2.5c-0.4,0.4-0.7,0.8-1,1.3
			c-0.3,0.4-0.6,0.8-1,1.2C400.8,235,401,234.6,401.3,234.2z"/>
		<path class="st2" d="M395.5,231.5c1.1-1.8,2.3-3.5,3.6-5.1c1.4-1.6,2.9-3.1,4.5-4.4c0,0,0.1,0,0.1,0c0,0,0,0,0,0.1
			c-1.4,1.6-2.7,3.2-4.1,4.8c-0.7,0.8-3.6,4.4-4,4.8C395.6,231.7,395.5,231.6,395.5,231.5z"/>
		<path class="st2" d="M406.7,236.8c1.1-1.7,2.2-3.2,3.5-4.7c1.4-1.4,3-2.7,4.6-3.9c0,0,0.1,0,0.1,0c0,0,0,0,0,0.1
			c-1.4,1.4-2.9,2.8-4.2,4.3c-0.7,0.7-3.1,3.7-3.8,4.4C406.7,237,406.6,236.9,406.7,236.8z"/>
		<path class="st3" d="M446.9,185.2l-17.2,12c0,0-13.7-19.7-17.4-29.2c-3.7-9.4,0.3-9.6,9.7-3S446.9,185.2,446.9,185.2z"/>
		<path class="st2" d="M442.8,182.8c-4.6,3.7-9.3,7.2-14.3,10.3c-0.1,0-0.1-0.1-0.1-0.1c1.3-0.8,8.3-6.3,14.3-10.3
			C442.8,182.7,442.9,182.8,442.8,182.8z"/>
		<path class="st2" d="M430.8,196.4c-0.1,0-0.9,0.5-1,0.6c-2.1-3.3-4.3-6.6-6.4-9.9c-1-1.6-2.1-3.2-3.1-4.8c-1-1.6-2-3.4-3.2-5.1
			c0.8,1.6,1.6,3.2,2.6,4.7c-0.2-0.2-0.4-0.5-0.6-0.7c-0.4-0.5-0.9-1-1.3-1.5c-0.1-0.1-0.2,0-0.1,0.1c0.4,0.5,0.7,1,1.1,1.6
			c0.3,0.5,0.7,1.1,1.1,1.6s0.8,1,1.1,1.4l0.1,0.2c0.6,1,1.1,1.9,1.7,2.9c2.1,3.3,6.7,10,6.8,10c0.4-0.3,0.8-0.6,1.2-0.9
			C430.9,196.4,430.9,196.4,430.8,196.4z"/>
		<path class="st6" d="M391.6,165c-18.4,10.3-35.5,22.7-38.6,31.1c-1.9,5.2,1,14.5,3.2,20.1c1.1,2.7,26.6-8.8,24.4-11
			c-5.5-5.5-6.4-7.7-5.9-8.8c0.3-0.7,20.2-19.2,25.7-27.4C408.1,157.4,399.7,160.5,391.6,165z"/>
		<path class="st6" d="M391.3,230.2c-2.4,1.5-5.5-4.8-5.5-4.8c-0.1,1.2-0.5,2.4-1.3,3.3c-1.5,1.5-4.5-0.2-4.5-0.2
			c-0.3,1.2-1,2.4-2,3.2c-1.6,1.3-4.9,0-4.9,0c-0.9,1-2.2,1.6-3.5,1.7c-3.6,0.2-6.8-4.2-8.8-7c-2.1-2.8-5.3-12.7-6.1-14.6l17.9-13.4
			c0,0,12.8,10,14.8,13.6C389,215.2,394.9,228,391.3,230.2z"/>
		<path class="st2" d="M385.8,225.3c-1.1-3.7-2.6-7.2-4.6-10.5c0-0.1-0.1,0-0.1,0.1c1.8,3.3,2.9,7.1,4.6,10.5
			C385.8,225.4,385.8,225.4,385.8,225.3C385.8,225.3,385.8,225.3,385.8,225.3z"/>
		<path class="st2" d="M380.1,228.2c-0.3-0.8-0.7-1.6-1.2-2.3c-0.5-0.8-1-1.6-1.5-2.3c-1-1.5-2.1-3.1-3.2-4.6c0-0.1-0.2,0-0.1,0
			c1,1.5,2,3.1,3,4.7c0.5,0.8,0.9,1.6,1.4,2.4c0.4,0.8,0.9,1.5,1.4,2.2C379.9,228.4,380,228.4,380.1,228.2
			C380.1,228.3,380.1,228.3,380.1,228.2z"/>
		<path class="st2" d="M373,231.6c-0.3-0.7-0.7-1.4-1.2-2l-1.4-2.1c-0.9-1.4-1.9-2.8-2.8-4.2c0-0.1-0.2,0-0.1,0.1
			c0.9,1.5,1.8,2.9,2.7,4.4c0.4,0.7,0.9,1.4,1.4,2.1C371.9,230.5,372.4,231.2,373,231.6L373,231.6z"/>
		<path class="st3" d="M365.1,180.4l14.1,13c0,0,17.5-16.5,22.4-25.4c4.9-8.9,1-9.5-9.2-4.3C382.3,169,365.1,180.4,365.1,180.4z"/>
		<path class="st3" d="M365.1,180.4l14.1,13c0,0,17.5-16.5,22.4-25.4c4.9-8.9,1-9.5-9.2-4.3C382.3,169,365.1,180.4,365.1,180.4z"/>
		<path class="st2" d="M382,189.8c-4.4-3.6-8.6-7.5-12.5-11.7c-0.1,0,0-0.1,0.1-0.1C370.6,179.2,377.1,184.8,382,189.8
			C382.2,189.8,382,189.9,382,189.8z"/>
		<path class="st2" d="M393.5,171.5c-0.6,1.5-1.3,3-1.8,4.5c0-0.1,0-0.2,0-0.3c0-0.9,0.2-1.9,0.3-2.8c0-0.1-0.1-0.1-0.1,0
			c-0.2,0.9-0.3,1.8-0.5,2.8c-0.1,0.4-0.1,0.9-0.1,1.3c0,0,0,0.1,0,0.2l0,0c-0.6,2-1,4.1-1.5,6.2c0,0.1,0.1,0.1,0.2,0
			c0.5-2,1.2-4,1.9-5.9c0.6-2,1.1-4,1.8-5.9C393.6,171.5,393.5,171.5,393.5,171.5z"/>
		<path class="st6" d="M403.1,169.6c3,0.7,8.3-3.9,10.3-7.6c0.1-0.3-0.2-3-0.6-6.3c-0.2-2-0.3-4.3-0.3-6.3c0-0.4-13,3.1-13,3.1
			c0.7,2.6,1.1,5.3,1.2,7.9c0,0.3,0,0.6-0.1,0.8c0,0,0,0.1,0,0.1C400.4,163,400.1,168.9,403.1,169.6z"/>
		<path class="st2" d="M411.8,149.4c-0.6,3.5-2.8,11.9-9.8,12.1c-0.4,0-0.9,0-1.3-0.1c0-0.1,0-0.1,0-0.1c0.1-0.3,0.1-0.6,0.1-0.8
			c-0.1-2.7-0.5-5.4-1.2-7.9C399.6,152.4,408.9,149.9,411.8,149.4z"/>
		<path class="st6" d="M411.9,132.2c2.3,4.2,2.5,17.7-0.1,21.3c-3.8,5.1-11.3,7.1-16,2.2c-4.7-4.9-4.6-22.3-1.5-25.7
			C398.7,125,408.5,126,411.9,132.2z"/>
		<path class="st9" d="M412,153.3L412,153.3"/>
		<path class="st2" d="M401.6,144.3C401.6,144.3,401.7,144.3,401.6,144.3c0.1,1,0.2,2,1,2.4l0,0
			C401.6,146.5,401.5,145.1,401.6,144.3z"/>
		<path class="st2" d="M402.4,143.3c1.5-0.1,1.6,2.8,0.3,2.9C401.3,146.4,401.2,143.4,402.4,143.3z"/>
		<path class="st2" d="M396.5,144.6C396.5,144.6,396.5,144.6,396.5,144.6c0,1-0.1,2-0.8,2.4l0,0
			C396.7,146.8,396.8,145.5,396.5,144.6z"/>
		<path class="st2" d="M395.7,143.7c-1.5,0-1.4,2.9,0,2.9C397.1,146.6,396.9,143.7,395.7,143.7z"/>
		<path class="st2" d="M403.6,140.9c-0.4,0-0.8-0.1-1.2-0.1c-0.4,0-0.9-0.1-1.2-0.4c-0.2-0.2-0.2-0.5-0.1-0.8
			c0.4-0.4,0.9-0.6,1.5-0.5c0.6,0,1.1,0.3,1.5,0.6c0.2,0.3,0.2,0.7,0,0.9C403.9,140.8,403.8,140.9,403.6,140.9z"/>
		<path class="st2" d="M394.2,141.6c0.4-0.1,0.8-0.2,1.1-0.4c0.4-0.1,0.8-0.3,1.1-0.6c0.1-0.2,0.1-0.6-0.1-0.8
			c-0.5-0.4-1.1-0.4-1.6-0.2c-0.5,0.1-1,0.5-1.3,1c-0.2,0.3,0,0.7,0.3,0.9C393.9,141.7,394,141.7,394.2,141.6z"/>
		<path class="st2" d="M403.6,152.6c-0.2,0.2-0.4,0.5-0.7,0.6c-0.3,0-0.7,0-1-0.2c0,0-0.1,0,0,0c0.3,0.3,0.7,0.5,1.1,0.4
			C403.4,153.3,403.7,153,403.6,152.6C403.7,152.6,403.7,152.6,403.6,152.6z"/>
		<path class="st2" d="M402.5,149.9c-0.4,0.8-1.1,1.3-2,1.5c-0.4,0.1-0.8,0.1-1.1,0.1h-0.2H399c-0.1,0-0.2-0.1-0.2-0.2l0,0v-0.2l0,0
			l0,0c-0.1-0.7-0.1-1.8-0.1-1.8c-0.3,0.1-1.5,0.8-1.5,0.4c-0.1-3.2,0.1-6.3,0.6-9.4c0,0,0.1-0.1,0.1-0.1c0,0,0,0,0.1,0.1
			c0.1,2.9-0.3,5.8-0.2,8.8c0.5-0.2,0.9-0.4,1.4-0.5c0.1,0,0,2.1,0,2.4l0,0c1.2,0.1,2.3-0.4,3.1-1.1
			C402.5,149.8,402.6,149.9,402.5,149.9z"/>
		<path class="st2" d="M399.8,151.2c0.4,0.5,0.9,0.8,1.5,1.1c0.3,0.1,0.7,0.1,1,0c0.7-0.2,0.7-0.9,0.5-1.5c-0.1-0.3-0.2-0.6-0.4-0.8
			C401.8,150.6,400.8,151.1,399.8,151.2z"/>
		<path class="st10" d="M401.4,152.2c0.3,0.1,0.7,0.1,1,0c0.7-0.2,0.7-0.9,0.5-1.5C402.1,150.8,401.5,151.5,401.4,152.2z"/>
		<path class="st2" d="M393.3,136c4.8,2.5,10.3-2.8,10.3-2.8c1,1.9,3.1,2.9,5.2,2.5c0,0,1.8,7.4,3.7,7.1c3-0.4,2.7-10.7,1.5-12.6
			c-0.9-1.2-2.3-2-3.8-2.1c-0.4-1.2-1.3-2.2-2.4-2.7c-2.3-1.3-9.1,1.6-9.1,1.6c-0.5-0.9-1.2-1.7-2.1-2.3c-0.9-0.6-2-0.4-2.6,0.5
			c0,0,0,0,0,0.1c0.4,0.5,0.8,1.1,0.9,1.8c0.6,2.1-1.1,2.3-1.4,0.4c-0.1-0.7,0-1.5,0.4-2.1c-1-1.1-2.5-1.4-3.3-0.6
			C389.3,126.2,389.3,134,393.3,136z"/>
		<path class="st3" d="M395,148.6c-1.4,0.1-2.6-1.5-2.7-3.6c-0.1-2.1,0.8-3.8,2.2-3.9c1.4-0.1,2.6,1.5,2.7,3.6
			S396.4,148.5,395,148.6z M394.5,141.7c-1.1,0.1-1.9,1.6-1.7,3.4c0.1,1.8,1.1,3.2,2.2,3.1c1.1-0.1,1.9-1.6,1.7-3.4
			C396.6,143,395.6,141.6,394.5,141.7z"/>
		<path class="st3" d="M403.4,148c-2.1,0.3-3.9-1.1-4.2-3.2c-0.3-2.1,1.1-3.9,3.2-4.2c2.1-0.3,3.9,1.1,4.2,3.2c0,0.1,0,0.2,0,0.3
			C406.8,146,405.3,147.8,403.4,148z M402.9,141.1c-1.8,0-3.3,1.4-3.3,3.2c0,1.8,1.4,3.3,3.2,3.3c1.8,0,3.3-1.4,3.3-3.2
			c0-0.1,0-0.2,0-0.3C406,142.4,404.6,141,402.9,141.1z"/>
		<path class="st3" d="M399.8,144.2c-1.9-0.5-2.7,0.1-2.7,0.1l-0.3-0.4c0,0,1-0.9,3.2-0.3L399.8,144.2z"/>
		<path class="st3" d="M406.3,143.7l-0.1-0.5c0.3-0.1,7.8-2,8.7-2.1c1.1,0.1,2.2,0.5,3.2,1l-0.2,0.4c-0.9-0.5-1.9-0.8-2.9-1l0,0
			C414.2,141.7,409,143,406.3,143.7z"/>
		<path class="st6" d="M411.2,143.4c0,0,2.2-4.8,4.3-4s1,7.2-1.1,8.5c-1,0.7-2.5,0.5-3.2-0.5c0,0-0.1-0.1-0.1-0.1L411.2,143.4z"/>
		<path class="st2" d="M415.1,141.2c-1.3,1-2.1,2.5-2.3,4.1c0.2-0.7,1-1,1.6-0.8c0.1,0,0.1,0.1,0.2,0.1v0.1
			c-0.6-0.1-1.2,0.2-1.5,0.8c-0.2,0.4-0.4,0.9-0.5,1.4c0,0.1-0.3,0.1-0.3,0l0,0C412,144.9,413,141.8,415.1,141.2z"/>
		<path class="st2" d="M415,162.9c-1.4,1.8-2.8,3.5-4.4,5.2c-1.4,1.6-3.3,2.7-5.4,3.1c-2,0.3-4.1,0-5-2.5c-0.6-2.1-0.8-4.4-0.4-6.6
			c0-0.1-0.1-0.1-0.2,0c-0.3,3.3-0.6,8.4,2.4,9.4c3.4,1.1,6.6-0.7,8.8-3.1C412.5,166.7,413.9,164.9,415,162.9
			C415.1,163,415.1,162.9,415,162.9z"/>
		<rect x="374" y="237.7" class="st2" width="61.5" height="2.8"/>
		<polygon class="st2" points="419.7,240.4 359.8,240.4 354.8,199.7 414.7,199.7 		"/>
		<path class="st1" d="M390.9,220.1c0,2-1.5,3.6-3.5,3.6c0,0-0.1,0-0.1,0c-2,0-3.7-1.6-3.7-3.6c0-2,1.5-3.6,3.5-3.7c0,0,0.1,0,0.1,0
			C389.2,216.4,390.9,218.1,390.9,220.1z"/>
	</g>
	<g id="freepik--Calendar--inject-40">
		<polygon class="st7" points="380.1,495.3 159,495.3 120.4,334.8 341.5,334.8 		"/>
		<polygon class="st11" points="81.1,495.3 302.2,495.3 340.8,334.8 119.8,334.8 		"/>
		<polygon class="st1" points="308.8,365 303.9,385.5 303.6,386.7 298.5,408 298.2,409.3 293.1,430.5 292.8,431.8 287.6,453.1 
			287.3,454.4 282.3,475.2 120,475.2 125,454.4 125.3,453.1 130.4,431.8 130.8,430.5 135.9,409.3 136.2,408 141.3,386.7 
			141.6,385.5 146.5,365 		"/>
		<polygon class="st0" points="170.3,365 165.3,385.5 165,386.7 159.9,408 159.6,409.3 154.5,430.5 154.2,431.8 149.1,453.1 
			148.8,454.4 143.8,475.2 142.5,475.2 147.5,454.4 147.8,453.1 152.9,431.8 153.2,430.5 158.3,409.3 158.6,408 163.8,386.7 
			164,385.5 169,365 		"/>
		<polygon class="st0" points="193.4,365 188.5,385.5 188.2,386.7 183.1,408 182.8,409.3 177.7,430.5 177.3,431.8 172.2,453.1 
			171.9,454.4 166.9,475.2 165.6,475.2 170.7,454.4 170.9,453.1 176,431.8 176.4,430.5 181.4,409.3 181.8,408 186.9,386.7 
			187.2,385.5 192.1,365 		"/>
		<polygon class="st0" points="216.5,365 211.6,385.5 211.3,386.7 206.2,408 205.9,409.3 200.8,430.5 200.5,431.8 195.4,453.1 
			195.1,454.4 190.1,475.2 188.8,475.2 193.8,454.4 194.1,453.1 199.2,431.8 199.5,430.5 204.6,409.3 204.9,408 210,386.7 
			210.3,385.5 215.2,365 		"/>
		<polygon class="st0" points="239.6,365 234.7,385.5 234.4,386.7 229.3,408 229,409.3 223.9,430.5 223.6,431.8 218.5,453.1 
			218.2,454.4 213.2,475.2 211.9,475.2 216.9,454.4 217.2,453.1 222.3,431.8 222.6,430.5 227.7,409.3 228,408 233.1,386.7 
			233.4,385.5 238.3,365 		"/>
		<polygon class="st0" points="262.8,365 257.8,385.5 257.5,386.7 252.4,408 252.1,409.3 247,430.5 246.7,431.8 241.6,453.1 
			241.3,454.4 236.3,475.2 235,475.2 240,454.4 240.3,453.1 245.4,431.8 245.7,430.5 250.8,409.3 251.1,408 256.2,386.7 
			256.5,385.5 261.5,365 		"/>
		<polygon class="st0" points="285.9,365 281,385.5 280.6,386.7 275.6,408 275.3,409.3 270.2,430.5 269.9,431.8 264.7,453.1 
			264.4,454.4 259.4,475.2 258.1,475.2 263.1,454.4 263.5,453.1 268.6,431.8 268.9,430.5 274,409.3 274.3,408 279.4,386.7 
			279.7,385.5 284.6,365 		"/>
		<polygon class="st0" points="303.9,385.5 303.6,386.7 141.3,386.7 141.6,385.5 		"/>
		<polygon class="st0" points="298.5,408 298.2,409.3 135.9,409.3 136.2,408 		"/>
		<polygon class="st0" points="293.1,430.5 292.8,431.8 130.4,431.8 130.8,430.5 		"/>
		<polygon class="st0" points="287.6,453.1 287.3,454.4 125,454.4 125.3,453.1 		"/>
		
			<rect x="166.2" y="408.5" transform="matrix(0.778 -0.6282 0.6282 0.778 -226.4483 198.5321)" class="st5" width="3.1" height="22.5"/>
		
			<rect x="154.3" y="418.3" transform="matrix(0.739 -0.6737 0.6737 0.739 -239.134 222.4297)" class="st5" width="26.5" height="3.1"/>
		
			<rect x="217.5" y="386.5" transform="matrix(0.778 -0.6282 0.6282 0.778 -201.2849 225.8979)" class="st5" width="3.1" height="22.5"/>
		
			<rect x="205.6" y="396.4" transform="matrix(0.739 -0.6737 0.6737 0.739 -210.9779 251.2773)" class="st5" width="26.5" height="3.1"/>
		<polygon class="st3" points="148.5,407.6 142.5,397.2 145.2,395.6 148.9,402.2 162.5,385.7 165,387.7 		"/>
		<polygon class="st3" points="177.3,474 171.4,463.6 174.1,462 177.8,468.5 191.4,452.1 193.8,454.1 		"/>
		<path class="st3" d="M259.5,410.2c-2.9,1.6-5.6,3.6-7.9,5.9c-2.3,2.3-4.3,5.1-4.6,8.2c-0.2,1.5,0.1,3,1.1,4.2
			c1.1,1.1,2.4,1.9,3.9,2.2c3.1,0.7,6.4,0.6,9.5-0.2c3.1-0.7,6.1-2,8.6-4c1.2-1,2.2-2.2,3-3.6c0.7-1.3,1.1-2.8,0.9-4.4
			c-0.3-1.5-1.1-2.8-2.4-3.7c-1.3-0.9-2.8-1.6-4.4-1.9c-3.2-0.8-6.6-0.7-9.8,0.1c3.2-1.2,6.6-1.5,9.9-0.9c1.7,0.3,3.3,0.9,4.8,1.8
			c1.6,1,2.7,2.5,3.1,4.3c0.3,1.8-0.1,3.7-0.9,5.2c-0.8,1.6-1.9,3-3.3,4.1c-5.5,4.4-12.6,6.1-19.5,4.6c-1.8-0.4-3.4-1.4-4.6-2.7
			c-0.6-0.7-1-1.6-1.1-2.5c-0.1-0.9-0.1-1.8,0-2.7c0.5-3.6,2.8-6.4,5.3-8.6C253.6,413.4,256.5,411.6,259.5,410.2z"/>
		<polygon class="st5" points="165.2,370.7 147.9,370.7 148.4,368.6 165.7,368.6 		"/>
		<polygon class="st5" points="157.3,374.3 147.1,374.3 147.6,372.2 157.7,372.2 		"/>
		<polygon class="st5" points="235.2,436.9 224.8,436.9 225.2,434.8 235.7,434.8 		"/>
		<polygon class="st5" points="233.6,444.3 223.1,444.3 223.6,442.2 234.1,442.2 		"/>
		<polygon class="st5" points="240.4,440.5 223.9,440.5 224.4,438.4 240.9,438.4 		"/>
		<polygon class="st5" points="262.4,420.7 251.9,420.7 252.4,418.6 262.9,418.6 		"/>
		<polygon class="st5" points="267.5,424.3 251.1,424.3 251.6,422.2 268,422.2 		"/>
		<path class="st7" d="M121.6,381.8l10.1-7.6c1.1-0.8,1.9-2.1,2.3-3.4c0.3-1,0.1-2.2-0.5-3.1c-0.7-1-1.8-1.6-3.1-1.5
			c-1.2,0-2.4,0.4-3.4,1.1l-1.1,0.8c-0.2,0.2-0.6,0.3-0.8,0c0,0,0,0,0,0c-0.2-0.3-0.1-0.7,0.2-0.9c0,0,0,0,0,0l1.1-0.8
			c1.2-0.9,2.8-1.5,4.3-1.5c1.6-0.1,3,0.7,3.9,1.9c0.8,1.2,1,2.6,0.6,3.9c-0.4,1.7-1.5,3.3-2.9,4.4l-8.7,6.5h8.5
			c0.3,0,0.5,0.2,0.5,0.5c0,0.1,0,0.1,0,0.1c-0.1,0.3-0.4,0.6-0.8,0.6h-10.1c-0.2,0-0.3-0.1-0.4-0.2
			C121.2,382.4,121.3,382,121.6,381.8z"/>
		<path class="st7" d="M116.6,404.7c0.5-2.3,1.6-4.5,3.1-6.3c1.3-1.6,3.1-2.5,5.1-2.7c1.7,0,3.2,1.1,3.9,2.7c0.7,2,0.9,4.2,0.3,6.3
			c-0.5,2.3-1.6,4.5-3.2,6.2c-1.2,1.6-3.1,2.5-5.1,2.7c-1.7,0-3.3-1.1-3.9-2.7C116.1,409,116,406.8,116.6,404.7z M117.8,404.7
			c-0.5,1.8-0.4,3.8,0.2,5.6c0.4,1.3,1.6,2.1,2.9,2.2c1.6-0.2,3-1,3.9-2.2c1.4-1.6,2.3-3.5,2.8-5.5c0.5-1.8,0.4-3.8-0.3-5.6
			c-0.4-1.3-1.6-2.1-2.9-2.2c-1.6,0.1-3,0.9-3.9,2.2C119.2,400.8,118.3,402.7,117.8,404.7z"/>
		<path class="st7" d="M107.4,443.3l10.1-7.6c1.1-0.8,1.9-2.1,2.3-3.4c0.3-1,0.1-2.2-0.5-3.1c-0.7-1-1.8-1.5-3-1.5
			c-1.2,0-2.4,0.4-3.4,1.1l-1.1,0.8c-0.2,0.2-0.6,0.3-0.8,0c0,0,0,0,0,0c-0.2-0.3-0.1-0.7,0.2-0.9c0,0,0,0,0,0l1.1-0.8
			c1.2-0.9,2.8-1.5,4.3-1.5c1.5-0.1,3,0.7,3.9,1.9c0.8,1.2,1,2.6,0.6,3.9c-0.4,1.7-1.5,3.3-2.9,4.4l-8.7,6.5h8.5
			c0.3,0,0.5,0.2,0.5,0.5c0,0.1,0,0.1,0,0.1c-0.1,0.3-0.4,0.6-0.8,0.6h-10c-0.2,0-0.3-0.1-0.4-0.2
			C107,443.9,107.1,443.5,107.4,443.3z"/>
		<path class="st7" d="M102.4,466.2c0.5-2.3,1.6-4.5,3.2-6.3c1.3-1.6,3.1-2.6,5.1-2.7c1.7,0,3.2,1.1,3.9,2.7c0.7,2,0.8,4.2,0.3,6.3
			c-0.5,2.3-1.6,4.5-3.2,6.2c-1.3,1.6-3.1,2.6-5.1,2.7c-1.7,0-3.3-1.1-3.9-2.7C101.9,470.4,101.8,468.3,102.4,466.2z M103.6,466.2
			c-0.5,1.8-0.4,3.8,0.2,5.6c0.5,1.3,1.6,2.1,2.9,2.2c1.5-0.2,3-0.9,3.9-2.2c1.4-1.6,2.4-3.5,2.8-5.6c0.5-1.8,0.4-3.8-0.3-5.6
			c-0.4-1.3-1.6-2.1-2.9-2.2c-1.6,0.1-3,0.9-3.9,2.2C105,462.3,104.1,464.2,103.6,466.2L103.6,466.2z"/>
		<path class="st3" d="M311.6,360.6c0,0-4.9,21.3-7,30.3c-2.1,9-10.6,14.7-10.6,14.7h-46.8c0,0,8.3-9.9,10-17.3l6.4-27.7
			L311.6,360.6z"/>
		<path class="st7" d="M126.7,345.8c-1.6,0-3.2-0.8-4.3-2c-1.1-1.3-2.8-4.3-1.1-9.8c1.5-5,5.2-7.1,8-6.6c2.2,0.4,4.6,2.6,4.2,7.5
			c0,0.7-0.7,1.3-1.4,1.3c0,0,0,0-0.1,0c-0.8-0.1-1.3-0.7-1.3-1.5c0.2-2.5-0.5-4.3-1.9-4.6c-1.6-0.3-3.8,1.2-4.9,4.7
			c-0.9,3.1-0.7,5.7,0.6,7.2c0.6,0.7,1.4,1.2,2.3,1.1c0.7-0.2,1.5,0.3,1.7,1.1c0.2,0.7-0.3,1.5-1.1,1.7c-0.1,0-0.1,0-0.2,0
			C127,345.8,126.8,345.8,126.7,345.8z"/>
		<path class="st7" d="M143.8,345.8c-1.7,0-3.2-0.8-4.3-2c-1.1-1.3-2.8-4.3-1.1-9.8c1.5-5,5.2-7.1,8-6.6c2.2,0.4,4.6,2.6,4.2,7.5
			c-0.1,0.8-0.7,1.3-1.5,1.3c0,0,0,0,0,0c-0.8-0.1-1.3-0.8-1.2-1.5c0.2-2.5-0.5-4.3-1.9-4.6c-1.6-0.3-3.8,1.2-4.9,4.7
			c-1,3.1-0.7,5.7,0.6,7.2c0.6,0.7,1.4,1.2,2.3,1.1c0.7-0.2,1.5,0.3,1.7,1.1c0.2,0.7-0.3,1.5-1.1,1.7c-0.1,0-0.1,0-0.2,0
			C144.1,345.8,143.9,345.8,143.8,345.8z"/>
		<path class="st7" d="M160.7,345.8c-1.6,0-3.2-0.8-4.3-2c-1.1-1.3-2.8-4.3-1.1-9.8c1.5-5,5.2-7.1,8-6.6c2.2,0.4,4.6,2.6,4.2,7.5
			c-0.1,0.8-0.7,1.3-1.5,1.3c0,0,0,0,0,0c-0.8-0.1-1.3-0.7-1.3-1.5c0.2-2.5-0.5-4.3-1.9-4.6c-1.4-0.3-3.8,1.2-4.8,4.7
			c-1,3.1-0.7,5.7,0.6,7.2c0.5,0.7,1.4,1.1,2.3,1.1c0.7-0.2,1.5,0.3,1.7,1.1c0.2,0.7-0.3,1.5-1.1,1.7c-0.1,0-0.1,0-0.2,0
			C161,345.8,160.9,345.8,160.7,345.8z"/>
		<path class="st7" d="M177.8,345.8c-1.6-0.1-3.2-0.8-4.2-2c-1.1-1.3-2.8-4.3-1.1-9.8c1.5-5,5.2-7.1,8-6.6c2.2,0.4,4.6,2.6,4.2,7.5
			c-0.1,0.8-0.7,1.3-1.5,1.3c-0.8-0.1-1.3-0.7-1.3-1.5c0.2-2.5-0.5-4.3-1.9-4.6c-1.4-0.3-3.8,1.2-4.8,4.7c-1,3.1-0.7,5.7,0.6,7.2
			c0.5,0.7,1.4,1.1,2.3,1.1c0.7-0.2,1.5,0.3,1.7,1.1c0.2,0.7-0.3,1.5-1.1,1.7c-0.1,0-0.1,0-0.2,0
			C178.1,345.8,177.9,345.8,177.8,345.8z"/>
		<path class="st7" d="M194.8,345.8c-1.7-0.1-3.2-0.8-4.3-2.1c-1.1-1.3-2.8-4.3-1.1-9.8c1.5-5,5.2-7.1,8-6.6
			c2.2,0.4,4.6,2.6,4.2,7.5c-0.1,0.8-0.7,1.3-1.5,1.3c-0.8-0.1-1.3-0.7-1.3-1.5l0,0c0.2-2.5-0.5-4.3-1.9-4.6
			c-1.4-0.3-3.8,1.2-4.8,4.7c-1,3.1-0.8,5.7,0.6,7.2c0.5,0.7,1.4,1.1,2.3,1.1c0.7-0.2,1.5,0.3,1.7,1.1c0.2,0.7-0.3,1.5-1.1,1.7
			c-0.1,0-0.1,0-0.2,0C195.1,345.8,195,345.8,194.8,345.8z"/>
		<path class="st7" d="M211.8,345.8c-1.7-0.1-3.2-0.8-4.3-2.1c-1.1-1.3-2.8-4.3-1.1-9.8c1.5-5,5.2-7.1,8-6.6
			c2.2,0.4,4.6,2.6,4.2,7.5c-0.1,0.8-0.7,1.3-1.5,1.3c0,0,0,0,0,0c-0.8-0.1-1.3-0.7-1.3-1.5c0.2-2.5-0.5-4.3-1.9-4.6
			c-1.6-0.3-3.8,1.2-4.9,4.7c-0.9,3.1-0.7,5.7,0.6,7.2c0.6,0.7,1.4,1.2,2.3,1.1c0.8,0,1.4,0.5,1.5,1.3c0,0.7-0.4,1.3-1.1,1.4
			C212.2,345.8,212,345.8,211.8,345.8z"/>
		<path class="st7" d="M228.9,345.8c-1.7-0.1-3.2-0.8-4.3-2.1c-1.1-1.3-2.8-4.3-1.1-9.8c1.5-5,5.2-7.1,8-6.6
			c2.2,0.4,4.6,2.6,4.2,7.5c-0.1,0.8-0.7,1.3-1.5,1.3c0,0,0,0,0,0c-0.8-0.1-1.3-0.7-1.3-1.5c0.2-2.5-0.5-4.3-1.9-4.6
			c-1.6-0.3-3.8,1.2-4.9,4.7c-0.9,3.1-0.7,5.7,0.6,7.2c0.5,0.7,1.4,1.1,2.3,1.1c0.7-0.2,1.5,0.3,1.7,1.1c0.2,0.7-0.3,1.5-1.1,1.7
			c-0.1,0-0.1,0-0.2,0C229.2,345.8,229,345.8,228.9,345.8z"/>
		<path class="st7" d="M245.9,345.8c-1.7-0.1-3.2-0.8-4.3-2.1c-1.1-1.3-2.8-4.3-1.1-9.8c1.5-5,5.2-7.1,8-6.6
			c2.2,0.4,4.6,2.6,4.2,7.5c0,0.7-0.7,1.3-1.4,1.3c0,0,0,0-0.1,0c-0.8-0.1-1.3-0.7-1.3-1.5c0.2-2.5-0.5-4.3-1.9-4.6
			c-1.6-0.3-3.8,1.2-4.9,4.7c-0.9,3.1-0.7,5.7,0.6,7.2c0.6,0.7,1.4,1.2,2.3,1.1c0.8,0,1.4,0.5,1.5,1.3c0,0.7-0.4,1.3-1.1,1.4
			C246.2,345.8,246.1,345.8,245.9,345.8z"/>
		<path class="st7" d="M263,345.8c-1.7-0.1-3.2-0.8-4.3-2.1c-1.1-1.3-2.8-4.3-1.1-9.8c1.5-5,5.2-7.1,8-6.6c2.2,0.4,4.6,2.6,4.2,7.5
			c-0.1,0.8-0.7,1.3-1.5,1.3c0,0,0,0,0,0c-0.8-0.1-1.3-0.7-1.3-1.5c0.2-2.5-0.5-4.3-1.9-4.6c-1.4-0.3-3.8,1.2-4.8,4.7
			c-1,3.1-0.7,5.7,0.6,7.2c0.5,0.7,1.4,1.1,2.3,1.1c0.7-0.2,1.5,0.3,1.7,1.1c0.2,0.7-0.3,1.5-1.1,1.7c-0.1,0-0.1,0-0.2,0
			C263.3,345.8,263.1,345.8,263,345.8z"/>
		<path class="st7" d="M279.9,345.8c-1.7-0.1-3.2-0.8-4.3-2.1c-1.1-1.3-2.8-4.3-1.1-9.8c1.5-5,5.2-7.1,8-6.6
			c2.2,0.4,4.6,2.6,4.2,7.5c-0.1,0.8-0.7,1.3-1.5,1.3c0,0,0,0,0,0c-0.8-0.1-1.3-0.7-1.3-1.5c0.2-2.5-0.5-4.3-1.9-4.6
			c-1.6-0.3-3.8,1.2-4.8,4.7c-1,3.1-0.7,5.7,0.6,7.2c0.6,0.7,1.4,1.2,2.3,1.1c0.8,0,1.4,0.5,1.5,1.3c0,0.7-0.4,1.3-1.1,1.4
			C280.3,345.8,280.1,345.8,279.9,345.8z"/>
		<path class="st7" d="M297,345.8c-1.6-0.1-3.2-0.8-4.2-2c-1.1-1.3-2.8-4.3-1.1-9.8c1.5-5,5.2-7.1,8-6.6c2.2,0.4,4.6,2.6,4.2,7.5
			c-0.1,0.8-0.7,1.3-1.5,1.3c0,0,0,0,0,0c-0.8-0.1-1.3-0.7-1.3-1.5c0,0,0,0,0,0c0.2-2.5-0.5-4.3-1.9-4.6c-1.4-0.3-3.8,1.2-4.8,4.7
			c-1,3.1-0.7,5.7,0.6,7.2c0.5,0.7,1.4,1.1,2.3,1.1c0.7-0.2,1.5,0.3,1.7,1.1c0.2,0.7-0.3,1.5-1.1,1.7c-0.1,0-0.1,0-0.2,0
			C297.3,345.8,297.1,345.8,297,345.8z"/>
		<path class="st7" d="M314,345.8c-1.7-0.1-3.2-0.8-4.3-2.1c-1.1-1.3-2.8-4.3-1.1-9.8c1.5-5,5.2-7.1,8-6.6c2.2,0.4,4.6,2.6,4.2,7.5
			c-0.1,0.8-0.7,1.3-1.5,1.3c-0.8-0.1-1.3-0.7-1.3-1.5l0,0c0.2-2.5-0.5-4.3-1.9-4.6c-1.6-0.3-3.8,1.2-4.9,4.7
			c-0.9,3.1-0.7,5.7,0.6,7.2c0.5,0.7,1.4,1.1,2.3,1.1c0.8-0.1,1.4,0.5,1.5,1.3c0,0.7-0.4,1.3-1.1,1.5
			C314.3,345.8,314.2,345.8,314,345.8z"/>
		<path class="st7" d="M331,345.8c-1.7-0.1-3.2-0.8-4.3-2.1c-1.1-1.3-2.8-4.3-1.1-9.8c1.5-5,5.2-7.1,8-6.6c2.2,0.4,4.6,2.6,4.2,7.5
			c-0.1,0.8-0.7,1.3-1.5,1.3c0,0,0,0,0,0c-0.8-0.1-1.3-0.7-1.3-1.5c0.2-2.5-0.5-4.3-1.9-4.6c-1.6-0.3-3.8,1.2-4.9,4.7
			c-0.9,3.1-0.7,5.7,0.6,7.2c0.6,0.7,1.4,1.2,2.3,1.1c0.8,0,1.4,0.5,1.5,1.3c0,0.7-0.4,1.3-1.1,1.4
			C331.4,345.8,331.2,345.8,331,345.8z"/>
	</g>
	<g id="freepik--Plant--inject-40">
		<path class="st2" d="M522.9,357.8c0.3-4.9,1-9.8,2.1-14.6c0.9-4.4,2.6-8.6,5.2-12.3c2.4-3.4,6.1-5.7,10.2-6.4
			c4-0.5,7.8,1.3,10.8,3.8c3.7,3.1,6.6,7.3,9.2,11.3c2.9,4.5,5.6,9.2,8,14c0,0.1,0,0.2-0.1,0.2c-0.1,0-0.1,0-0.2,0
			c-2.1-4.1-4.4-8-7.1-11.7c-2.4-3.6-5.2-6.9-8.2-9.9c-2.8-2.7-6.3-5.2-10.2-5.3c-4,0-7.7,2-10,5.2c-2.7,3.4-4,7.7-5.1,11.9
			c-1.1,4.6-1.8,9.2-2.1,13.9c-0.8,9.6-1,19.3-1.2,29c-0.1,5.5-0.2,10.9-0.3,16.4l-0.1,8.3c0.1,2.7,0,5.4-0.3,8
			c-0.1,0.3-0.4,0.5-0.7,0.4c-0.2-0.1-0.3-0.2-0.4-0.4c-0.3-2.5-0.5-5.1-0.4-7.6c0-2.6-0.1-5.2-0.1-7.9c0-5.1-0.1-10.2-0.1-15.3
			C522,378.3,522.2,368,522.9,357.8z"/>
		<path class="st3" d="M536.6,350.6c0.5-2.7,1.4-6.3,3-8.4c2.8-3.8,5.8-2.1,3,2.1c-2.1,3.1-3.4,6.6-3.9,10.3c0,0,4.7,6.7,10.3,10
			c-0.2-2.6-1-6.5-0.5-10.3c1.1-8.3,6.1-7.8,4.8-1.2c-0.9,4.4-1.3,8.8-1.1,13.3c1.9,1.2,3.9,2.2,6,3c-0.3-1-0.7-2.1-1-3.5
			c-2-7.4,2.9-9.7,3.1-5.6c0.3,3.6,1,7.1,1.9,10.5c2.7,0.9,5,1.5,6.3,2c3.6,1.3,6.8,3.5,9.3,6.3c2.6-2.3,4.7-5.1,6.3-8.2
			c-1.7-1.5-4.5-3.7-8.3-6.4c-7.1-5-4.6-11.4,1-7.4c4.1,2.8,7.2,8.1,8.7,10.8c1.9-4.7,3-9.7,3.2-14.8c-5.6-5.2-19.4-12.6-15.2-12.6
			c3.7,0,12.1,5.5,15.2,7.6c-0.1-1.4-0.2-2.9-0.5-4.3c-5.3-3.4-22.4-8.8-19.6-10.3c3-1.7,14.9,3.8,18.5,5.6
			c-0.7-2.3-1.7-4.6-3.2-6.5c-7.3-9.7-20.4-13.1-26.1-11.2c-4,1.3-2.9,11.6-3.7,11.2C538,326,530.7,330.6,536.6,350.6z M576.5,349.4
			c1.1-1.4,6.5,2.7,5,5C579.9,356.6,575,351.2,576.5,349.4L576.5,349.4z M548.6,340.7c1.4,0.9-0.7,6.1-2.8,4.5
			C543.9,343.8,547.2,339.8,548.6,340.7L548.6,340.7z"/>
		<path class="st2" d="M550.7,342.3c0.7-1.5,1.5-2.9,2.3-4.3c0.8-1.4,1.7-2.7,2.7-3.9l-0.7-0.9c-0.1-0.1,0.1-0.3,0.2-0.2
			c0.3,0.3,0.5,0.6,0.8,1c0.1,0,0.1,0.1,0.1,0.1c1,1.1,1.9,2.4,2.9,3.7c1.6,0.4,3.2,0.8,4.7,1.4c1.6,0.5,3.2,1.1,4.7,1.7
			c0.2,0.1,0.1,0.3-0.1,0.3c-1.5-0.7-3.1-1.3-4.7-1.9c-1.6-0.5-3-0.9-4.6-1.3c0.5,0.7,1,1.4,1.4,2.1c2.9,0.9,5.7,2.1,8.4,3.4
			c2.8,1.3,5.5,2.9,8.2,4.5c0.1,0.1,0,0.3-0.1,0.2c-2.7-1.6-5.4-3-8.2-4.2c-2.6-1.2-5.3-2.2-8-3.4c6.6,10.3,10.6,22.3,15.9,33.4
			c0.1,0.2-0.2,0.3-0.2,0.1c-1.6-3.9-3.5-7.7-5.3-11.5c-1.6-3.4-3.1-6.9-4.7-10.3c-0.5-1-0.9-2-1.4-3c0.3,5.5,0.2,11.2,1.1,16.6
			c0,0.1-0.1,0.1-0.1,0.1c-0.1,0-0.1-0.1-0.1-0.1c0,0,0,0,0,0c-0.4-5.9-1.4-11.7-1.4-17.7c0,0,0,0,0-0.1c-1.1-2.3-2.3-4.5-3.6-6.7
			c-2.2,5.2-4.5,10.4-5.5,16c0,0.2-0.3,0.1-0.3-0.1c1.5-5.6,2.9-11.2,5.6-16.3c-1.4-2.3-3-4.6-4.7-6.7c-0.7,1.4-1.7,2.7-2.5,4
			s-1.6,2.6-2.4,3.9c-1.6,2.8-3,5.7-4.2,8.8c-0.1,0.2-0.3,0.1-0.3-0.1C548,348.1,549.3,345.1,550.7,342.3z"/>
		<path class="st2" d="M503.5,358.3c3.7-4.8,7.8-11,14.4-11.9c6.3-0.8,11.6,3.6,15,8.5c3.5,5.1,5.4,11.2,6.9,17.1
			c1.9,7.1,3.4,14.3,4.6,21.5c0.7,4,1.1,8,1.6,12.1c0.6,4.1,0.8,8.2,0.7,12.4c0,0.7-1.1,0.8-1.2,0.1c-0.6-3.4-1-6.8-1.4-10.2
			s-0.9-6.7-1.5-10c-1.1-6.8-2.6-13.4-4.3-20.1c-1.5-5.8-2.9-11.8-5.4-17.2c-2.3-4.9-6-10.4-11.5-11.9c-7.5-2.1-13.7,4.4-17.7,9.8
			C503.6,358.6,503.4,358.4,503.5,358.3z"/>
		<path class="st3" d="M480,365.5L480,365.5c0,0.9,0,1.7,0,2.6c2.1-1.4,4.6-2.3,7.1-2.6c6.1-0.4,5.5,4.2,1.4,4.2
			c-2.8-0.1-5.7,0.3-8.4,1.3c0.6,8,2.5,14.5,2.8,14.6c5.4-0.1,10.7-0.5,16-1.3c-1.4-3.3-4.6-7.7-2.8-7.9s3.4,3.6,4.3,7.7
			c4-0.6,7.9-1.4,11.8-2.6c-2.5-2.4-6.5-5.5-4.9-6.6c1.6-1.1,4.7,3,6.5,6.1c1.8-0.6,3.5-1.5,5.2-2.6c-3.3-5.4-12-6.9-10.7-10.7
			s9.2,1.9,12.6,9.2c4.5-4.3,6.1-10.5,5.9-15.9c-3.7-0.6-11-0.2-10.3-2.8c0.7-2.7,5.8-1.9,10-0.1c-0.3-2.2-1-4.2-2.2-6.1
			c-3.7-5.3-16,0.6-16,0.6s1.9-12.1-2.6-14.4c-2.6-1.3-7.3-1.5-12.1,1c2.6,0.3,5.7,1.3,7,3.2c1.5,2.4-1.1,3.6-2.7,2.4
			c-1.1-0.8-3.2-3.3-7-3.8c-1.7,1.3-3.3,2.9-4.6,4.6c-0.5,0.6-0.9,1.3-1.4,1.9c4.6-1.8,9.8-1.5,14.1,0.9c5.1,2.8,1.9,8.1-2.5,5.8
			s-8.6-4.6-13.4-3.6c-1.9,4.2-2.9,8.8-2.9,13.4c2.4-1.6,5.1-2.7,7.9-3.3c5.3-1.1,6.7,2.1,1,2.4C485.9,363.3,482.8,364.1,480,365.5z
			 M486.7,357.5c-0.3-1.7,3.4-2,4-0.6C491.2,358,487,359.2,486.7,357.5L486.7,357.5z M517.8,368.3c0.4-0.9,2.8,0.3,2.5,1.4
			C520,371.2,517.4,369.2,517.8,368.3L517.8,368.3z M500.1,373.4c1.8-0.6,4.4,4,2.4,4.9C500.5,379.2,498.6,373.9,500.1,373.4
			L500.1,373.4z"/>
		<path class="st4" d="M480,365.5L480,365.5c0,0.9,0,1.7,0,2.6c2.1-1.4,4.6-2.3,7.1-2.6c6.1-0.4,5.5,4.2,1.4,4.2
			c-2.8-0.1-5.7,0.3-8.4,1.3c0.6,8,2.5,14.5,2.8,14.6c5.4-0.1,10.7-0.5,16-1.3c-1.4-3.3-4.6-7.7-2.8-7.9s3.4,3.6,4.3,7.7
			c4-0.6,7.9-1.4,11.8-2.6c-2.5-2.4-6.5-5.5-4.9-6.6c1.6-1.1,4.7,3,6.5,6.1c1.8-0.6,3.5-1.5,5.2-2.6c-3.3-5.4-12-6.9-10.7-10.7
			s9.2,1.9,12.6,9.2c4.5-4.3,6.1-10.5,5.9-15.9c-3.7-0.6-11-0.2-10.3-2.8c0.7-2.7,5.8-1.9,10-0.1c-0.3-2.2-1-4.2-2.2-6.1
			c-3.7-5.3-16,0.6-16,0.6s1.9-12.1-2.6-14.4c-2.6-1.3-7.3-1.5-12.1,1c2.6,0.3,5.7,1.3,7,3.2c1.5,2.4-1.1,3.6-2.7,2.4
			c-1.1-0.8-3.2-3.3-7-3.8c-1.7,1.3-3.3,2.9-4.6,4.6c-0.5,0.6-0.9,1.3-1.4,1.9c4.6-1.8,9.8-1.5,14.1,0.9c5.1,2.8,1.9,8.1-2.5,5.8
			s-8.6-4.6-13.4-3.6c-1.9,4.2-2.9,8.8-2.9,13.4c2.4-1.6,5.1-2.7,7.9-3.3c5.3-1.1,6.7,2.1,1,2.4C485.9,363.3,482.8,364.1,480,365.5z
			 M486.7,357.5c-0.3-1.7,3.4-2,4-0.6C491.2,358,487,359.2,486.7,357.5L486.7,357.5z M517.8,368.3c0.4-0.9,2.8,0.3,2.5,1.4
			C520,371.2,517.4,369.2,517.8,368.3L517.8,368.3z M500.1,373.4c1.8-0.6,4.4,4,2.4,4.9C500.5,379.2,498.6,373.9,500.1,373.4
			L500.1,373.4z"/>
		<path class="st2" d="M483.8,384.8c2.9-4.4,5.8-8.8,8.9-13.1c1.4-2,2.9-4,4.4-5.9l-0.6-0.2l-1.1-0.3c-0.8-0.2-1.7-0.3-2.5-0.5
			c-0.8-0.1-1.6-0.2-2.4-0.3c-0.8-0.1-1.7-0.1-2.5,0c-0.1,0-0.1-0.1,0-0.1c0.8,0.1,1.7,0,2.6,0c0.8,0,1.7,0.1,2.5,0.2
			c0.8,0.1,1.5,0.2,2.3,0.3l1.2,0.3c0.3,0,0.5,0.1,0.8,0.2c1.6-1.9,3.2-3.9,4.8-5.7c-4.6-2.5-9.5-4.3-14.6-5.4c-0.1,0,0-0.1,0-0.1
			c5.2,1,10.2,2.8,14.8,5.3c0.9-1,1.8-2,2.8-3c0.9-1,2.1-2.2,3.1-3.4c0.1-0.1,0.2,0,0.1,0.1c-1.3,1.3-2.5,2.6-3.6,4l0,0
			c1.9,1.4,3.6,3,5.3,4.7c1.7,1.7,3.4,3.4,5,5.2c0.1,0.1,0,0.2-0.1,0.1c-1.6-1.8-3.3-3.4-5-5.1c-1.8-1.6-3.6-3.1-5.4-4.7l0,0
			l-1.3,1.6c-0.2,0.3-0.4,0.5-0.7,0.8c0,0,0,0,0,0.1l-2.2,2.7c0.8,1.2,1.4,2.5,1.9,3.9c0.6,1.3,1,2.6,1.4,4c0.8,2.8,1.5,5.7,1.9,8.6
			c0,0.1-0.1,0.1-0.1,0c-0.4-2.9-1.1-5.7-2.1-8.4c-0.5-1.4-1-2.8-1.5-4.2s-1.1-2.5-1.6-3.7l-1.9,2.3l-0.5,0.7c0,0,0,0.1,0,0.1
			c0,0,0,0,0,0l0,0c-2,2.5-3.9,5.1-5.7,7.7c0.1,0.2,0.2,0.4,0.2,0.6c0.1,0.3,0.2,0.7,0.3,1c0.2,0.7,0.3,1.4,0.4,2
			c0.1,0.6,0.1,1.3,0.2,1.9c0,0.7,0,1.5,0.1,2.2c0,0.1-0.2,0.1-0.1,0c0.1-0.7,0.1-1.4-0.1-2.1c-0.1-0.7-0.2-1.4-0.3-2.1
			c-0.1-0.7-0.3-1.2-0.4-1.9c-0.1-0.3-0.2-0.6-0.3-0.9c-0.1-0.3-0.1-0.3-0.2-0.5c-0.9,1.2-1.7,2.5-2.6,3.7c-1.7,2.5-3.3,4.9-5,7.4
			C483.9,385,483.7,384.9,483.8,384.8z"/>
		<path class="st2" d="M521.7,410.9c0.1-2.3,0.4-4.5,0.7-6.8c0.2-2.2,0.5-4.5,0.7-6.8c0.3-4.4,0.9-8.7,1.7-13
			c0.8-3.7,2.6-7.1,5.3-9.7c1.4-1.4,3.2-2.3,5.2-2.5c2-0.1,3.9,0.5,5.5,1.7c1.8,1.3,3.4,3,4.6,4.9c1.3,1.9,2.5,3.8,3.6,5.9
			c0,0.1-0.1,0.1-0.1,0c-2-3.4-4.7-6.4-7.8-8.8c-1.4-1.2-3.1-1.9-4.9-2.1c-1.8,0-3.5,0.7-4.8,1.9c-2.5,2.4-4.3,5.5-5,8.9
			c-0.9,4-1.6,8-1.9,12c-0.3,2.4-0.6,4.7-0.9,7.1c-0.3,2.4-0.5,4.8-1,7.1c0,0.2-0.3,0.4-0.5,0.3C521.8,411.2,521.7,411,521.7,410.9z
			"/>
		<path class="st3" d="M532.7,393.4c0.7,0.9,1.5,1.8,2.4,2.5c-0.4-2.2-0.8-6.1,0.3-8.2c1.7-3.2,3.7-1.6,2.7,1.1
			c-1,2.5-1.6,5.2-1.7,8c2.3,1.5,4.9,2.6,7.5,3.5c-0.3-1.3-0.4-2.6-0.3-3.9c0.3-3.4,3-3.4,2.3,0.2c-0.3,1.4-0.4,2.8-0.4,4.2
			c3.8,1.2,7.7,2.1,11.6,2.6c2-2.6,3.6-5.5,4.8-8.6c-2.8-0.7-8.5-0.9-8.4-2.9c0.2-2.7,5.7-0.6,8.9,1.3c0.7-2.3,1.1-4.8,1-7.3
			c-2.5-0.7-5.1-1.1-7.7-1.3c-5.7-0.5-5.5-3.8-1.3-3.7c3.1,0.1,7,1.9,8.8,2.9c-1.2-7.9-7.2-12.9-12-13.1c-8.1-0.3-5.2,9.7-5.2,9.7
			s-5.5-3.9-10.6-3.7C530.5,377.1,527.2,385.7,532.7,393.4z M554.3,378.8c-0.2-1.1,3.4-1.4,3.6,0C558.2,380.5,554.5,380,554.3,378.8
			L554.3,378.8z M560.1,390.6c-0.1-0.7,1.5-0.9,1.8,0.1C562.2,391.3,560.2,391.4,560.1,390.6L560.1,390.6z M540.7,391.3
			c1.2,0.2,1.9,4.5-0.2,4.4C538.9,395.7,539.7,391.2,540.7,391.3L540.7,391.3z"/>
		<path class="st2" d="M542.4,396.2c0.2-0.5,0.4-1.1,0.6-1.6c-0.1,0.6-0.3,1.1-0.4,1.7c0,0,0,0.1-0.1,0.1
			C542.4,396.3,542.4,396.2,542.4,396.2C542.4,396.2,542.4,396.2,542.4,396.2z"/>
		<path class="st2" d="M544.5,389.2c0.4-1.1,0.8-2.2,1.2-3.3c0.2-0.6,0.5-1.1,0.7-1.7c0.2-0.5,0.4-1,0.7-1.5
			c-0.3-0.5-0.5-0.9-0.7-1.4c0,0,0-0.1,0.1,0c0.6,0.8,1.1,1.6,1.6,2.4c0.2,0.4,0.4,0.8,0.7,1.1c0.5,0,0.9,0.1,1.4,0.2
			c0.5,0.1,1,0.2,1.4,0.3l1.4,0.3c0.5,0.1,0.9,0.3,1.4,0.3c0.1,0,0.1,0.2,0,0.1c-0.5-0.2-1-0.3-1.5-0.4c-0.5-0.1-0.9-0.2-1.4-0.2
			l-1.4-0.2l-1.1-0.1c0.2,0.3,0.4,0.7,0.6,1c0,0,0.1,0.1,0.1,0.2c0.4,0,0.8,0,1.1,0.1c0.4,0.1,0.8,0.1,1.2,0.2
			c0.8,0.2,1.7,0.4,2.5,0.6c1.8,0.5,3.4,1.1,5.2,1.6c0.1,0,0,0.2-0.1,0.1c-1.7-0.6-3.5-1.1-5.2-1.4c-0.8-0.2-1.7-0.4-2.5-0.6
			l-1.2-0.3c-0.3,0-0.7-0.1-1-0.2c0.9,1.7,1.7,3.3,2.5,5c1.7,3.7,3.1,7.5,4.5,11.3c0,0.1-0.1,0.1-0.1,0c-1.4-3.8-3-7.5-4.8-11.1
			l-1-2c0,0.1-0.1,0.3-0.1,0.4l-0.2,1.4c-0.1,0.9-0.3,1.8-0.4,2.7c-0.4,1.8-0.6,3.7-0.7,5.6c0,0.1-0.2,0.1-0.1,0
			c0.1-0.9,0.1-1.8,0.2-2.7c0.1-0.9,0.1-1.9,0.2-2.8c0.1-0.9,0.2-1.8,0.4-2.7l0.2-1.4c0-0.3,0.1-0.7,0.3-1c-0.5-1-0.9-1.9-1.4-2.9
			c-0.5-1-0.9-1.8-1.4-2.6c-0.2-0.4-0.4-0.8-0.6-1.1c-0.2,0.5-0.3,0.9-0.5,1.4c-0.2,0.5-0.4,1-0.6,1.5c-0.5,1.1-0.9,2.3-1.3,3.4
			c-0.6,1.6-1.3,3.3-1.8,5C543.6,392.5,544,390.8,544.5,389.2z"/>
		<path class="st2" d="M543,394.5c0-0.1,0.1-0.3,0.1-0.4C543,394.3,543,394.4,543,394.5z"/>
		<polygon class="st12" points="503.2,411.5 504.2,426 506.7,463.5 562.2,463.5 564.7,426 565.7,411.5 		"/>
		<polygon class="st2" points="503.2,411.5 504.2,426 564.7,426 565.7,411.5 		"/>
		<rect x="499.2" y="405.6" class="st12" width="70.4" height="11.7"/>
		<rect x="548" y="463.5" class="st12" width="9.7" height="6.1"/>
		<rect x="548" y="463.5" class="st2" width="9.7" height="3.1"/>
		<rect x="511.2" y="463.5" class="st12" width="9.7" height="6.1"/>
		<rect x="511.2" y="463.5" class="st2" width="9.7" height="3.1"/>
	</g>
	<g id="freepik--speech-bubble--inject-40">
		<path class="st1" d="M489.8,113.6c-1.6,15.6-15.6,26.9-31.2,25.3c-6.1-0.6-11.8-3.2-16.3-7.3l-14.2,2.1l7.1-12.3
			c-1.8-4.3-2.4-9-1.9-13.7c1.5-15.6,15.4-27.1,31-25.6s27.1,15.4,25.6,31C489.8,113.3,489.8,113.4,489.8,113.6L489.8,113.6z"/>
		<path class="st2" d="M489.8,113.6c-0.5,5.2-2.5,10.2-5.7,14.4c-0.8,1-1.7,2-2.6,3c-0.9,0.9-2,1.8-3,2.5c-2.1,1.6-4.4,2.9-6.9,3.8
			c-3.7,1.4-7.6,2.1-11.5,1.9c-1.3,0-2.6-0.2-3.9-0.4c-5.2-1-10.1-3.4-14.1-6.9l0.3,0.1l-14.2,2.2l-1,0.1l0.5-0.9l7.1-12.3v0.5
			c-6-14.7,1.1-31.5,15.8-37.5c6.3-2.6,13.3-2.8,19.8-0.7c4.1,1.4,7.8,3.7,11,6.7C487.6,96.2,490.7,104.9,489.8,113.6z M489.8,113.6
			c1.6-15.4-9.6-29.3-25-30.9c-2.4-0.3-4.8-0.2-7.2,0.2c-4.2,0.6-8.2,2.2-11.7,4.6c-3.5,2.4-6.4,5.6-8.5,9.3
			c-4.2,7.5-4.8,16.5-1.6,24.4l0.1,0.3l-0.1,0.2l-7.2,12.3l-0.5-0.7l14.2-2h0.2l0.1,0.1c3.8,3.6,8.5,6,13.6,7
			c1.3,0.3,2.6,0.4,3.9,0.5c1.3,0.1,2.6,0.1,3.9,0c2.6-0.2,5.1-0.8,7.6-1.7c2.5-0.9,4.8-2.1,6.9-3.7c1-0.8,2.1-1.6,3-2.5
			c0.9-0.9,1.8-1.9,2.6-2.9C487.2,123.8,489.2,118.8,489.8,113.6z"/>
		<polygon class="st3" points="458.2,126.8 446.1,114.5 450.2,110.5 457.3,117.7 472,94.6 476.8,97.7 		"/>
	</g>
</g>
</svg>
