<?xml version="1.0" encoding="utf-8"?>
<!-- Generator: Adobe Illustrator 21.0.0, SVG Export Plug-In . SVG Version: 6.00 Build 0)  -->
<svg version="1.1" id="Layer_1" xmlns="http://www.w3.org/2000/svg" xmlns:xlink="http://www.w3.org/1999/xlink" x="0px" y="0px"
	 viewBox="0 0 40.9 38.1" style="enable-background:new 0 0 40.9 38.1;" xml:space="preserve">
<style type="text/css">
	.st0{fill:#D1AE6C;}
</style>
<g id="outline">
	<path class="st0" d="M38.6,26.6H38v-8.2c0-0.3-0.3-0.6-0.6-0.6h-2.5c-0.3,0-0.6,0.3-0.6,0.6v8.2H33v-8.2c0-0.3-0.3-0.6-0.6-0.6
		h-2.5c-0.3,0-0.6,0.3-0.6,0.6v8.2h-1.6c-0.6-2.9-0.9-5.8-0.9-8.8c0-0.3-0.3-0.6-0.6-0.6h-8.2c-0.3,0-0.6,0.3-0.6,0.6
		c0,1.9-0.1,3.8-0.4,5.8c-0.6-2.7-0.9-5.5-0.9-8.3c0-0.3-0.3-0.6-0.6-0.6H7.3c-0.3,0-0.6,0.3-0.6,0.6c0,6.7-1.7,13.3-4.9,19.1
		c-0.2,0.3-0.1,0.7,0.2,0.9c0.1,0.1,0.2,0.1,0.3,0.1h36.4c0.3,0,0.6-0.3,0.6-0.6v-7.5C39.3,26.9,39,26.6,38.6,26.6L38.6,26.6z
		 M35.5,19h1.3v1.3h-1.3V19z M35.5,21.6h1.3v1.3h-1.3V21.6z M35.5,24.1h1.3v2.5h-1.3V24.1z M30.5,19h1.3v1.3h-1.3V19z M30.5,21.6
		h1.3v1.3h-1.3V21.6z M30.5,24.1h1.3v2.5h-1.3V24.1z M18.6,18.4h6.9c0,0.4,0,0.8,0,1.3h-7C18.5,19.3,18.6,18.8,18.6,18.4z
		 M18.5,20.9h7.1c0.1,1.1,0.2,2.1,0.3,3.1h-7.7C18.3,23.1,18.4,22,18.5,20.9L18.5,20.9z M7.9,15.9h6.9c0,0.4,0,0.8,0,1.3h-7
		C7.9,16.8,7.9,16.3,7.9,15.9z M7.8,18.4h7.2c0.1,1.3,0.3,2.5,0.5,3.8H7.3C7.5,21,7.7,19.7,7.8,18.4L7.8,18.4z M13.8,34.1H3.3
		c1.7-3.4,3-7,3.7-10.7h8.6c0.2,1.1,0.5,2.1,0.8,3.2C15.9,29.2,15.1,31.8,13.8,34.1L13.8,34.1z M23,27.2v6.9h-7.7
		c1.4-2.8,2.3-5.7,2.7-8.8h8.1c0.1,0.4,0.2,0.8,0.2,1.3h-2.7C23.2,26.6,23,26.9,23,27.2z M35.5,34.1h-1.3v-2.5h1.3V34.1z M38,34.1
		h-1.3V31c0-0.3-0.3-0.6-0.6-0.6h-2.5c-0.3,0-0.6,0.3-0.6,0.6v3.1h-8.8v-6.3H38V34.1z"/>
	<path class="st0" d="M10.4,10.3c0,1.4,1.1,2.5,2.5,2.5s2.5-1.1,2.5-2.5c0,0,0,0,0-0.1c0.6-0.1,1.1-0.4,1.6-0.8
		c0.5,0.5,1.1,0.8,1.8,0.9c0.7,1.6,2.5,2.3,4.1,1.7c0.7-0.3,1.3-0.9,1.7-1.7c0.4,0,0.7-0.1,1-0.3c0.5,1.6,2.3,2.5,3.9,2
		c0.9-0.3,1.6-1,2-1.9c0.3,0.1,0.6,0.1,0.8,0.1c1.7,0,3.1-1.4,3.1-3.1c0-1.7-1.4-3.1-3.1-3.1c-1.3,0-2.5,0.8-2.9,2
		c-0.5-0.1-1-0.2-1.5,0c-0.3-2.1-2.2-3.5-4.3-3.2c-1.1,0.2-2.1,0.8-2.7,1.8c-1.2-0.9-2.9-0.7-4,0.3c-1.2-1.2-3.2-1.2-4.4,0
		c-0.6,0.6-0.9,1.4-0.9,2.2c0,0.3,0,0.6,0.1,0.9C11,8.5,10.4,9.3,10.4,10.3L10.4,10.3z M12.7,9c0.3,0,0.6-0.4,0.5-0.7
		c0-0.1,0-0.2-0.1-0.2c-0.2-0.3-0.3-0.6-0.3-1c0-1,0.8-1.9,1.9-1.9c0.7,0,1.3,0.4,1.7,1c0.2,0.3,0.6,0.4,0.9,0.2
		c0.1-0.1,0.1-0.1,0.2-0.2C18,5.3,19.2,5,20.1,5.5c0.3,0.1,0.5,0.3,0.6,0.6c0.2,0.3,0.6,0.3,0.9,0.1c0.1-0.1,0.2-0.2,0.2-0.3
		c0.4-1.3,1.8-2.1,3.1-1.7c1.1,0.3,1.8,1.3,1.8,2.4c0,0.1,0,0.1,0,0.2l0,0.1c0,0.3,0.2,0.7,0.5,0.7c0.1,0,0.3,0,0.4-0.1
		C28.2,7,29,7,29.6,7.4c0.3,0.2,0.7,0.1,0.9-0.2c0-0.1,0.1-0.2,0.1-0.3c0.1-1,1-1.8,2.1-1.7c1,0.1,1.8,1,1.7,2.1
		c-0.1,1-0.9,1.7-1.9,1.7c-0.3,0-0.7-0.1-1-0.3c-0.3-0.2-0.7-0.1-0.9,0.2c0,0.1-0.1,0.2-0.1,0.3c-0.1,1-1,1.8-2.1,1.7
		c-1-0.1-1.7-0.9-1.7-1.9c0,0,0,0,0,0c0-0.3-0.3-0.6-0.6-0.6c-0.1,0-0.3,0-0.4,0.1c-0.3,0.2-0.6,0.3-0.9,0.4c0-0.9-0.4-1.7-1.1-2.3
		L23,7.6c0.5,0.5,0.8,1.2,0.6,1.8c0,0,0,0,0,0c-0.3,1-1.3,1.6-2.3,1.4c-0.7-0.2-1.2-0.7-1.4-1.4C19.8,9.2,19.6,9,19.3,9
		c0,0-0.1,0-0.1,0c-0.7,0-1.3-0.4-1.6-1c-0.2-0.3-0.6-0.4-0.9-0.2c-0.1,0.1-0.1,0.1-0.2,0.2c-0.3,0.6-0.9,1-1.6,1c0,0-0.1,0-0.1,0
		c-0.2,0-0.4,0.1-0.5,0.3c-0.1,0.2-0.2,0.4-0.1,0.6c0.1,0.1,0.1,0.3,0.1,0.4c0,0.7-0.6,1.3-1.2,1.3c-0.7,0-1.3-0.6-1.3-1.2
		C11.7,9.7,12.1,9.1,12.7,9L12.7,9z"/>
	<path class="st0" d="M20.4,7.8h1.3V9h-1.3V7.8z"/>
	<path class="st0" d="M25.5,29.1h1.3v1.3h-1.3V29.1z"/>
	<path class="st0" d="M28,29.1h1.3v1.3H28V29.1z"/>
	<path class="st0" d="M28,31.6h1.3v1.3H28V31.6z"/>
	<path class="st0" d="M30.5,29.1h1.3v1.3h-1.3V29.1z"/>
	<path class="st0" d="M30.5,31.6h1.3v1.3h-1.3V31.6z"/>
	<path class="st0" d="M25.5,31.6h1.3v1.3h-1.3V31.6z"/>
	<path class="st0" d="M6,31.6h1.3v1.3H6V31.6z"/>
	<path class="st0" d="M8.5,31.6h1.3v1.3H8.5V31.6z"/>
</g>
</svg>
