<?xml version="1.0" encoding="utf-8"?>
<!-- Generator: Adobe Illustrator 21.0.0, SVG Export Plug-In . SVG Version: 6.00 Build 0)  -->
<svg version="1.1" id="Capa_1" xmlns="http://www.w3.org/2000/svg" xmlns:xlink="http://www.w3.org/1999/xlink" x="0px" y="0px"
	 viewBox="0 0 510.2 510.2" style="enable-background:new 0 0 510.2 510.2;" xml:space="preserve">
<style type="text/css">
	.st0{fill:none;stroke:#D2AC67;stroke-width:15;stroke-miterlimit:10;}
</style>
<g>
	<path class="st0" d="M455.8,320.8c-27.4,1.7-63.3,29-98,44.7c-42.5,19.2-108.7,3.8-108.7,3.8c10.2-4.8,51.7-14.7,60.1-18.3
		c44.4-19.5,40.7-60.3,19.5-59.9c-28,0.4-44.4,7.3-100.2,14.9c-42.3,5.8-92.3,3.6-116.3,12.8c-33.9,12.9-88.4,99.9-88.4,99.9
		l84.3,81.7c0,0,52.2-51.4,77.6-51.4c57.9,0,60.2-0.8,113.9-3.7c22.9-1.2,27.6-2.2,40.7-6.6c69.7-23.6,144.5-86.3,145.8-93.8
		C489.3,327.5,470.2,319.9,455.8,320.8z"/>
	<path class="st0" d="M306.8,158c-2.1,0-3.8,1.7-3.8,3.8v96c0,2.1,1.7,3.8,3.8,3.8h34.4c2.1,0,3.8-1.7,3.8-3.8v-96
		c0-2.1-1.7-3.8-3.8-3.8L306.8,158L306.8,158z"/>
	<path class="st0" d="M370.2,114.3v143.5c0,2.1,1.7,3.8,3.8,3.8h34.4c2.1,0,3.8-1.7,3.8-3.8V114.3c0-1-0.4-2-1.1-2.7
		s-1.7-1.1-2.7-1.1H374C371.9,110.5,370.2,112.2,370.2,114.3z"/>
	<path class="st0" d="M239.7,124.4c-2.1,0-3.8,1.7-3.8,3.8v129.6c0,2.1,1.7,3.8,3.8,3.8h34.4c2.1,0,3.8-1.7,3.8-3.8V128.2
		c0-2.1-1.7-3.8-3.8-3.8C274.1,124.4,239.7,124.4,239.7,124.4z"/>
	<path class="st0" d="M172.5,164.7c-2.1,0-3.8,1.7-3.8,3.8v89.3c0,2.1,1.7,3.8,3.8,3.8h34.4c2.1,0,3.8-1.7,3.8-3.8v-89.3
		c0-2.1-1.7-3.8-3.8-3.8L172.5,164.7L172.5,164.7z"/>
	<path class="st0" d="M180.9,136.6c1,1.2,2.4,1.8,3.8,1.8c1.2,0,2.3-0.4,3.2-1.2L256.7,79l60.3,46.2c2.1,1.6,5.1,1.3,6.9-0.7
		l55.7-64.3l7.8,6.8c1.4,1.2,3.3,1.5,4.9,1c1.7-0.6,3-2,3.3-3.8l9.3-48.3c0.3-1.8-0.3-3.6-1.6-4.8c-1.4-1.2-3.3-1.5-4.9-1L352,26.2
		c-1.7,0.6-3,2-3.3,3.8s0.3,3.6,1.6,4.7l7.8,6.8l-41.3,47.6L259,44.9c-1.9-1.4-4.5-1.4-6.3,0.2l-83.2,70.3c-1,0.9-1.7,2.1-1.8,3.4
		s0.3,2.7,1.2,3.7L180.9,136.6z"/>
</g>
</svg>
