<?xml version="1.0" encoding="utf-8"?>
<!-- Generator: Adobe Illustrator 21.0.0, SVG Export Plug-In . SVG Version: 6.00 Build 0)  -->
<svg version="1.1" id="Layer_1" xmlns="http://www.w3.org/2000/svg" xmlns:xlink="http://www.w3.org/1999/xlink" x="0px" y="0px"
	 viewBox="0 0 40.9 38.1" style="enable-background:new 0 0 40.9 38.1;" xml:space="preserve">
<style type="text/css">
	.st0{fill:#D1AE6C;}
</style>
<g>
	<path class="st0" d="M8.7,1.7v6.7H4.8c-0.9,0-1.7,0.8-1.7,1.7v4.5c0,0.9,0.8,1.7,1.7,1.7h3.9v4.4c-1,0.8-1.7,2.1-1.7,3.5
		c0,1.6,0.8,2.9,2,3.7c-3.4,1.1-5.9,4.3-5.9,8v0.6h16.8v-0.6c0-3.8-2.5-7-5.9-8c0.9-0.6,1.6-1.5,1.9-2.6h22V1.7H8.7z M36.7,2.8v3.4
		H9.8V2.8H36.7z M4.2,14.6v-4.5c0-0.3,0.3-0.6,0.6-0.6h9c0.3,0,0.6,0.3,0.6,0.6v4.5c0,0.3-0.3,0.6-0.6,0.6H12v1.8l-2.6-1.8H4.8
		C4.4,15.1,4.2,14.9,4.2,14.6z M12.8,28.7L11.5,30l-1.3-1.3c0.4-0.1,0.9-0.1,1.3-0.1C11.9,28.6,12.4,28.6,12.8,28.7z M8.4,29.3
		c0.2-0.1,0.4-0.2,0.6-0.2l1.8,1.8l-0.9,0.9L8.4,29.3z M11.5,31.6l1.1,1.1l-1.1,2l-1.1-2L11.5,31.6z M13.2,31.7l-0.9-0.9L14,29
		c0.2,0.1,0.4,0.2,0.6,0.2L13.2,31.7z M7.4,29.8l3.1,5.5H7v-2.2H5.9v2.2H4.2C4.4,33,5.6,31.1,7.4,29.8z M18.7,35.3h-1.7v-2.2H16v2.2
		h-3.5l3.1-5.5C17.4,31.1,18.6,33,18.7,35.3L18.7,35.3z M11.5,27.5c-1.9,0-3.4-1.5-3.4-3.4c0-1.9,1.5-3.4,3.4-3.4s3.4,1.5,3.4,3.4
		C14.8,25.9,13.3,27.5,11.5,27.5z M23.8,12.9c0-1.9,1.5-3.4,3.4-3.4c1.9,0,3.4,1.5,3.4,3.4s-1.5,3.4-3.4,3.4
		C25.3,16.2,23.8,14.7,23.8,12.9z M27.2,17.4c0.5,0,0.9,0,1.3,0.1l-1.3,1.3l-1.3-1.3C26.3,17.4,26.7,17.4,27.2,17.4z M29.7,17.8
		c0.2,0.1,0.4,0.2,0.6,0.3l-1.1,2.8L28,19.6L29.7,17.8z M24.6,17.8l1.8,1.8l-1.3,1.3L24,18.1C24.2,18,24.4,17.9,24.6,17.8L24.6,17.8
		z M23,18.7l1.7,4.2l2.4-2.4l2.4,2.4l1.7-4.2c1.7,1.2,2.9,3.2,3.1,5.4h-1.7v-2.2h-1.1v2.2h-9v-2.2h-1.1v2.2h-1.7
		C20.1,21.9,21.3,19.9,23,18.7L23,18.7z M35.6,24.1c-0.2-3.5-2.6-6.5-5.9-7.5c1.2-0.8,2-2.2,2-3.7c0-2.5-2-4.5-4.5-4.5
		s-4.5,2-4.5,4.5c0,1.6,0.8,2.9,2,3.7c-3.3,1-5.7,3.9-5.9,7.5H16c0-2.5-2-4.5-4.5-4.5c-0.6,0-1.2,0.1-1.7,0.3v-3.2l3.4,2.2v-2.7h0.6
		c0.9,0,1.7-0.8,1.7-1.7v-4.5c0-0.9-0.8-1.7-1.7-1.7H9.8V7.3h26.9v16.8H35.6z"/>
	<path class="st0" d="M10.9,3.9H12V5h-1.1V3.9z"/>
	<path class="st0" d="M13.2,3.9h1.1V5h-1.1V3.9z"/>
	<path class="st0" d="M15.4,3.9h1.1V5h-1.1V3.9z"/>
	<path class="st0" d="M5.3,10.6h7.8v1.1H5.3V10.6z"/>
	<path class="st0" d="M5.3,12.9h5.6V14H5.3V12.9z"/>
	<path class="st0" d="M12,12.9h1.1V14H12V12.9z"/>
	<path class="st0" d="M23.3,33.1h5.6v1.1h-5.6V33.1z"/>
	<path class="st0" d="M30,33.1h1.1v1.1H30V33.1z"/>
	<path class="st0" d="M23.3,30.8h7.8v1.1h-7.8V30.8z"/>
	<path class="st0" d="M31.7,28.6h-4.3l-4.1-2.7v2.7h-0.6c-0.9,0-1.7,0.8-1.7,1.7v4.5c0,0.9,0.8,1.7,1.7,1.7h9c0.9,0,1.7-0.8,1.7-1.7
		v-4.5C33.3,29.3,32.6,28.6,31.7,28.6z M32.2,34.7c0,0.3-0.3,0.6-0.6,0.6h-9c-0.3,0-0.6-0.3-0.6-0.6v-4.5c0-0.3,0.3-0.6,0.6-0.6h1.7
		v-1.8l2.6,1.8h4.7c0.3,0,0.6,0.3,0.6,0.6V34.7z"/>
	<path class="st0" d="M34.5,8.4h1.1v1.1h-1.1V8.4z"/>
	<path class="st0" d="M34.5,10.6h1.1v1.1h-1.1V10.6z"/>
	<path class="st0" d="M34.5,12.9h1.1V14h-1.1V12.9z"/>
	<path class="st0" d="M16.5,8.4h1.1v1.1h-1.1V8.4z"/>
	<path class="st0" d="M18.8,8.4h1.1v1.1h-1.1V8.4z"/>
	<path class="st0" d="M21,8.4h1.1v1.1H21V8.4z"/>
</g>
</svg>
