<?xml version="1.0" encoding="utf-8"?>
<!-- Generator: Adobe Illustrator 21.0.0, SVG Export Plug-In . SVG Version: 6.00 Build 0)  -->
<svg version="1.1" id="Layer_1" xmlns="http://www.w3.org/2000/svg" xmlns:xlink="http://www.w3.org/1999/xlink" x="0px" y="0px"
	 viewBox="0 0 333 76" style="enable-background:new 0 0 333 76;" xml:space="preserve">
<style type="text/css">
	.st0{fill-rule:evenodd;clip-rule:evenodd;fill:#B0B1B2;}
	.st1{fill-rule:evenodd;clip-rule:evenodd;fill:#D2AD68;}
	.st2{fill-rule:evenodd;clip-rule:evenodd;fill:#A8AAAE;}
	.st3{fill:none;stroke:#A8AAAE;stroke-width:2;stroke-miterlimit:10;}
	.st4{fill-rule:evenodd;clip-rule:evenodd;fill:#A7A8AB;}
	.st5{fill-rule:evenodd;clip-rule:evenodd;fill:#D1AE6C;}
	.st6{fill:#F0EBDF;}
	.st7{fill-rule:evenodd;clip-rule:evenodd;fill:#F0EBDF;}
</style>
<g>
	<path class="st0" d="M162.8,49.8c-4.5,11.3-15.6,19.3-28.5,19.3c-17,0-30.8-13.8-30.8-30.9c0-4.4,0.9-8.5,2.5-12.3l28-0.4l-2.4,3.1
		l-3.5,8.4c4.9,4.3,8.5,2.1,11-5l4.5-0.3l11.7,11.2l0,0c2.9,2.5-0.7,5.6-2.7,3.5l-7.1-7c-0.5-0.1-0.8,0.1-1,0.6l7,6.9
		c0.9,0.8,0.9,2.2,0.1,3.1l0,0c-0.8,0.8-2.2,0.9-3.1,0l-7-6.9c-0.1-0.1-0.2-0.2-0.2-0.2l0,0c-0.6-0.3-1,0.2-0.8,0.7l5.9,5.9
		c0.8,0.8,0.9,2.2,0,3.1l0,0c-0.8,0.8-2.2,0.8-3.1,0l-3.8-3.7c0,0-0.6-0.6-0.8-0.8c0-0.1,0-0.2,0-0.3c0.1-0.8-0.2-1.6-0.7-2.1
		c0-0.1,0-0.1-0.1-0.1c-0.1-0.1-0.2-0.2-0.3-0.3c0,0-0.1,0-0.1-0.1c-0.3-0.3-0.7-0.5-1.2-0.6l0,0c-0.7-0.2-1.4-0.1-2.1,0.2v0.1l0,0
		l0,0h-0.1l0,0l0,0h-0.1v0.1h-0.1l0,0h-0.1V45h-0.1l0,0l0,0h-0.1V45h-0.1l0,0v0.1H134l0,0l0,0H134v0.1l0,0c0,0,0,0-0.1,0l0,0l0,0
		v0.1h-0.1l0,0l0,0l0,0l0,0c-0.1,0.1-0.1,0.1-0.1,0.1l0,0h-0.1v0.1l0,0c0,0,0,0-0.1,0l0,0l0,0v0.1l0,0h-0.1l0,0l0,0
		c0,0.1-0.1,0.1-0.1,0.1l0,0c0,0.1-0.1,0.1-0.1,0.1l0,0l0,0h-0.1l0,0c0,0,0,0.1-0.1,0.1l0,0l0,0c0,0,0,0,0,0.1l0,0l0,0h-0.1l0,0
		c0,0.1,0,0.1-0.1,0.1l0.1-0.2c0-0.1,0-0.1,0-0.1v-0.1v-0.1l0,0c0-0.1,0-0.1,0.1-0.1v-0.1l0,0v-0.1v-0.1l0,0V45V45v-0.1l0,0v-0.1
		l0,0v-0.1v-0.1v-0.1l0,0v-0.1l0,0c0-0.1,0-0.1,0-0.1v-0.1v-0.1l0,0c0-0.1,0-0.1,0-0.1v-0.1c0,0,0,0,0-0.1l0,0v-0.1v-0.1l0,0v-0.1
		l0,0l-0.1-0.1V44l0,0v-0.1v-0.1l0,0l-0.1-0.1l0,0v-0.1v-0.1l0,0v-0.1c-0.1,0-0.1,0-0.1-0.1l0,0c0-0.1-0.1-0.1-0.1-0.2l0,0v-0.1
		h-0.1c0-0.1,0-0.1,0-0.1l0,0v-0.1l-0.1-0.1l0,0v-0.1h-0.1v-0.1l0,0l-0.1-0.1c0,0,0,0,0-0.1l0,0c0,0-0.1,0-0.1-0.1l0,0
		c-0.1-0.1-0.2-0.2-0.3-0.3l0,0c0-0.1-0.1-0.1-0.1-0.1l0,0c0-0.1,0-0.1-0.1-0.1l0,0c0-0.1,0-0.1-0.1-0.1l0,0v-0.1h-0.1
		c0,0,0,0,0-0.1h-0.1c0,0,0,0,0-0.1h-0.1c-0.1-0.1-0.2-0.2-0.4-0.3l0,0c0,0,0,0-0.1,0l0,0c0,0,0-0.1-0.1-0.1l0,0h-0.1l0,0
		c0-0.1-0.1-0.1-0.1-0.1l0,0c-0.1,0-0.1,0-0.1,0l0,0c-0.1-0.1-0.1-0.1-0.1-0.1h-0.1c0,0,0,0-0.1,0l0,0l0,0c-0.1-0.1-0.2-0.1-0.3-0.1
		l0,0c-0.4-0.1-0.7-0.1-1.1-0.1l0,0h-0.1l0,0c-0.1,0-0.2,0.1-0.3,0.1l0,0c-0.1,0-0.2,0.1-0.3,0.1l0,0c-0.1,0.1-0.1,0.1-0.2,0.1v0.1
		h-0.1l0,0h-0.1l0,0c-0.1,0.1-0.1,0.1-0.1,0.1l0,0l-0.1,0.1l0,0H129l0,0h-0.1V42h-0.1h-0.1V42l0,0h-0.1l0,0l-0.1,0.1l0,0h-0.1v0.1
		h-0.1l0,0l-0.1,0.1l0,0l0,0h-0.1v0.1h-0.1l0,0l0,0l0,0c0,0.1-0.1,0.1-0.1,0.1l0,0l-0.1,0.1l0,0l0,0l-0.1,0.1l0,0l0,0h-0.1v0.1l0,0
		l0,0l-0.1,0.1l0,0h-0.1v0.1l0,0H128v0.1l0,0l0,0l0,0c-0.1,0.1-0.1,0.1-0.1,0.1l0,0l-0.1,0.1l0,0v0.1h-0.1c0,0,0,0,0,0.1l0,0
		c0,0-0.1,0-0.1,0.1l0,0l0,0l-0.1,0.1l0,0v0.1h-0.1l0,0c0,0.1,0,0.1,0,0.1c0-1.3-1-2.6-2.4-3c-1.3-0.3-2.6,0.2-3.3,1.2
		c0,0,0-0.1-0.1-0.1l0,0l0,0l0,0v-0.1l0,0l0,0l0,0l0,0v-0.1l0,0v-0.1l0,0l0,0l0,0l0,0h-0.1v-0.1l0,0l0,0l0,0l0,0l0,0l0,0l0,0V41l0,0
		l0,0l0,0l0,0l0,0l0,0V41h-0.1l0,0l0,0l0,0l0,0v-0.1l0,0l0,0l0,0l0,0l0,0v-0.1l0,0l-0.1-0.1l0,0l0,0v-0.1l0,0l-0.1-0.1l0,0l0,0v-0.1
		h-0.1l0,0v-0.1l0,0v-0.1h-0.1l0,0v-0.1l0,0v-0.1h-0.1l0,0v-0.1c0,0,0,0-0.1,0l0,0v-0.1l0,0v-0.1h-0.1l0,0v-0.1l0,0h-0.1v-0.1l0,0
		h-0.1c0-0.1,0-0.1,0-0.1l0,0l-0.1-0.1l0,0l0,0l0,0l-0.1-0.1l0,0l0,0l-0.1-0.1l0,0l0,0v-0.1h-0.1v-0.1h-0.1l0,0v-0.1H121l0,0l0,0
		l-0.1-0.1l0,0l0,0l-0.1-0.1l0,0l0,0l0,0l-0.1-0.1l0,0l0,0h-0.1v-0.1h-0.1l0,0l0,0l-0.1-0.1l0,0h-0.1l0,0v-0.1l0,0h-0.1l0,0l0,0
		l-0.1-0.1l0,0h-0.1l0,0l0,0l-0.1-0.1l0,0h-0.1l0,0v-0.1l0,0c-0.1,0-0.1,0-0.1,0l0,0l-0.1-0.1l0,0h-0.1l0,0h-0.1v-0.1H120l0,0
		c0,0,0,0-0.1,0l0,0l0,0l-0.1-0.1l0,0h-0.1l0,0l0,0h-0.1l0,0l-0.1-0.1l0,0h-0.1c0,0,0,0-0.1,0l0,0c-1.7-0.4-3.5,0.7-3.9,2.4
		l-0.6,2.7h-4.3c2.7,10.7,13.7,18.8,26.8,18.8c9.2,0,17-3,21.9-9C160.4,52.8,161.6,51.4,162.8,49.8L162.8,49.8z M125.3,40.1
		L125.3,40.1L125.3,40.1z M138.6,49c-0.2,1.7-0.7,3.2-1.5,4.5l1.2,1.3l0.8,0.7c0.8,0.9,2.2,0.9,3.1,0l0,0c0.9-0.8,0.8-2.2,0-3.1
		l-2.5-2.5L138.6,49z"/>
	<path class="st1" d="M134.6,6.9c8.2-0.3,15.7,3.2,21.3,8.8c3.6,3.6,6.4,8.1,8,13c2.3,6.9,1.8,13.4-0.6,20.3
		c-2.7-2.9-5.5-5.5-8.4-8.3l-10.6-10.3l-5.5,0.4c-1.1,2-2.7,5.9-4.9,6.7c-1.3,0.5-3.4,0.1-4.4-1l2.9-6.9c0.3-0.7,1.7-2.7,2.4-3.2
		c0.7-0.6,1.7-1,3.2-1c1-0.1,2.1,0,3.2,0h13.8C149.3,18,139.6,13,130.1,13c-9.5,0-17.7,5.3-23.3,11.2
		C112.1,14.8,119.8,7.5,134.6,6.9z"/>
	<path class="st1" d="M130.8,43L130.8,43c1.3,0.3,2,1.6,1.7,2.9l-1.1,4c-0.3,1.3-1.7,2.1-3,1.7l0,0c-1.3-0.3-2-1.6-1.7-2.9l1.1-4
		C128.2,43.4,129.5,42.7,130.8,43z"/>
	<path class="st1" d="M125,41.4L125,41.4c1.3,0.3,2.1,1.6,1.7,2.9l-1.1,4c-0.3,1.3-1.7,2.1-3,1.8l0,0c-1.3-0.3-2.1-1.6-1.7-2.9
		l1.1-4.1C122.4,41.9,123.7,41.1,125,41.4z"/>
	<path class="st1" d="M119.4,40.1L119.4,40.1c1.2,0.3,2,1.6,1.7,2.8l-0.7,3c-0.3,1.3-1.6,2-2.8,1.7l0,0c-1.2-0.3-2-1.6-1.7-2.9
		l0.7-3C116.9,40.6,118.2,39.8,119.4,40.1z"/>
	<path class="st1" d="M136.2,45.7L136.2,45.7c1.2,0.3,2,1.5,1.6,2.7l-0.5,2l-0.2,0.9c-0.8,3-5.3,1.8-4.5-1.1l0.2-0.7l0.6-2.1
		C133.6,46.2,134.9,45.4,136.2,45.7z"/>
	<path class="st1" d="M199.5,43h-10.8l-1.5,5.2h-9.7l11.6-31.6h10.4L211,48.2h-10L199.5,43L199.5,43z M197.5,36.2l-3.4-11.3
		l-3.4,11.3H197.5L197.5,36.2z M215.4,16.6h12.5l4.8,19.2l4.8-19.2H250v31.6h-7.8V24.1l-6,24.1h-7.1l-6-24.1v24.1h-7.8V16.6
		L215.4,16.6z M278,35.3l8.3,2.6c-0.6,2.4-1.4,4.4-2.7,6c-1.2,1.6-2.7,2.8-4.5,3.6c-1.8,0.8-4.1,1.2-6.8,1.2c-3.4,0-6.1-0.5-8.2-1.5
		c-2.1-1-3.9-2.8-5.5-5.3c-1.5-2.5-2.3-5.7-2.3-9.6c0-5.2,1.4-9.2,4.1-12c2.7-2.8,6.5-4.2,11.5-4.2c3.9,0,6.9,0.8,9.1,2.4
		c2.2,1.6,3.9,4.1,4.9,7.4l-8.4,1.9c-0.3-1-0.6-1.7-0.9-2.1c-0.5-0.7-1.2-1.3-2-1.7c-0.8-0.4-1.6-0.6-2.6-0.6c-2.2,0-3.8,0.9-5,2.7
		c-0.9,1.3-1.3,3.4-1.3,6.2c0,3.5,0.5,5.9,1.6,7.2c1,1.3,2.5,1.9,4.4,1.9c1.8,0,3.2-0.5,4.1-1.6C276.9,38.8,277.5,37.3,278,35.3
		L278,35.3z M311.3,43h-10.8l-1.5,5.2h-9.7l11.6-31.6h10.4l11.5,31.6h-10L311.3,43L311.3,43z M309.3,36.2l-3.4-11.3l-3.4,11.3H309.3
		z"/>
	<g>
		<path class="st2" d="M169.8,58C169.8,58,169.8,58.1,169.8,58c-0.1,0.1-0.1,0.1-0.1,0.1c0,0-0.1,0-0.2,0c-0.1,0-0.2,0-0.3,0
			c-0.1,0-0.2,0-0.3,0c-0.1,0-0.1,0-0.2,0c0,0-0.1,0-0.1-0.1c0,0,0-0.1,0-0.1v-5.7c0,0,0-0.1,0-0.1c0,0,0.1,0,0.1-0.1
			c0,0,0.1,0,0.2,0c0.1,0,0.2,0,0.3,0c0.1,0,0.2,0,0.3,0c0.1,0,0.1,0,0.2,0c0,0,0.1,0,0.1,0.1c0,0,0,0.1,0,0.1V58L169.8,58z
			 M176.1,57.8c0,0.1,0,0.1,0,0.2c0,0.1-0.1,0.1-0.1,0.1c0,0-0.1,0.1-0.1,0.1c-0.1,0-0.1,0-0.2,0h-0.5c-0.1,0-0.2,0-0.3,0
			c-0.1,0-0.2-0.1-0.2-0.1c-0.1-0.1-0.1-0.1-0.2-0.2c-0.1-0.1-0.1-0.2-0.2-0.4l-1.5-2.8c-0.1-0.2-0.2-0.4-0.3-0.5
			c-0.1-0.2-0.2-0.4-0.2-0.6h0c0,0.2,0,0.4,0,0.7c0,0.2,0,0.5,0,0.7V58c0,0,0,0.1,0,0.1c0,0,0,0-0.1,0.1c0,0-0.1,0-0.2,0
			c-0.1,0-0.2,0-0.3,0c-0.1,0-0.2,0-0.3,0c-0.1,0-0.1,0-0.2,0c0,0-0.1,0-0.1-0.1c0,0,0-0.1,0-0.1v-5.4c0-0.1,0-0.3,0.1-0.3
			c0.1-0.1,0.2-0.1,0.3-0.1h0.7c0.1,0,0.2,0,0.3,0c0.1,0,0.2,0.1,0.2,0.1c0.1,0,0.1,0.1,0.2,0.2c0.1,0.1,0.1,0.2,0.2,0.3l1.2,2.2
			c0.1,0.1,0.1,0.3,0.2,0.4c0.1,0.1,0.1,0.3,0.2,0.4c0.1,0.1,0.1,0.3,0.2,0.4c0.1,0.1,0.1,0.3,0.2,0.4h0c0-0.2,0-0.4,0-0.7
			c0-0.2,0-0.5,0-0.7v-2.8c0,0,0-0.1,0-0.1c0,0,0,0,0.1-0.1c0,0,0.1,0,0.2,0c0.1,0,0.2,0,0.3,0c0.1,0,0.2,0,0.3,0c0.1,0,0.1,0,0.2,0
			c0,0,0.1,0,0.1,0.1c0,0,0,0.1,0,0.1V57.8L176.1,57.8z M181.4,52.6c0,0.1,0,0.2,0,0.2c0,0.1,0,0.1,0,0.2c0,0,0,0.1-0.1,0.1
			c0,0,0,0-0.1,0h-1.5V58c0,0,0,0.1,0,0.1c0,0-0.1,0-0.1,0.1c0,0-0.1,0-0.2,0c-0.1,0-0.2,0-0.3,0c-0.1,0-0.2,0-0.3,0
			c-0.1,0-0.1,0-0.2,0c0,0-0.1,0-0.1-0.1c0,0,0-0.1,0-0.1v-4.9H177c0,0-0.1,0-0.1,0c0,0,0,0-0.1-0.1c0,0,0-0.1,0-0.2
			c0-0.1,0-0.1,0-0.2c0-0.1,0-0.2,0-0.2c0-0.1,0-0.1,0-0.2c0,0,0-0.1,0.1-0.1c0,0,0,0,0.1,0h4.3c0,0,0.1,0,0.1,0c0,0,0,0,0.1,0.1
			c0,0,0,0.1,0,0.2C181.4,52.5,181.4,52.5,181.4,52.6L181.4,52.6z M185.7,57.7c0,0.1,0,0.2,0,0.2c0,0.1,0,0.1,0,0.1
			c0,0,0,0.1-0.1,0.1c0,0,0,0-0.1,0h-3c-0.1,0-0.2,0-0.3-0.1c-0.1-0.1-0.1-0.2-0.1-0.3v-5.3c0-0.1,0-0.2,0.1-0.3
			c0.1-0.1,0.2-0.1,0.3-0.1h3c0,0,0.1,0,0.1,0c0,0,0,0,0.1,0.1c0,0,0,0.1,0,0.2c0,0.1,0,0.1,0,0.2c0,0.1,0,0.2,0,0.2
			c0,0.1,0,0.1,0,0.1c0,0,0,0.1-0.1,0.1c0,0,0,0-0.1,0h-2.2v1.5h1.8c0,0,0.1,0,0.1,0c0,0,0,0,0.1,0.1c0,0,0,0.1,0,0.1
			c0,0.1,0,0.1,0,0.2c0,0.1,0,0.2,0,0.2c0,0.1,0,0.1,0,0.1c0,0,0,0.1-0.1,0.1c0,0,0,0-0.1,0h-1.8v1.7h2.2c0,0,0.1,0,0.1,0
			c0,0,0,0,0.1,0.1c0,0,0,0.1,0,0.1C185.7,57.5,185.7,57.6,185.7,57.7L185.7,57.7z M191.6,53.1c0,0.1,0,0.2,0,0.2c0,0.1,0,0.1,0,0.2
			c0,0,0,0.1-0.1,0.1c0,0,0,0-0.1,0c0,0-0.1,0-0.2-0.1c-0.1-0.1-0.2-0.1-0.4-0.2c-0.2-0.1-0.3-0.1-0.5-0.2c-0.2-0.1-0.4-0.1-0.7-0.1
			c-0.3,0-0.6,0.1-0.8,0.2c-0.2,0.1-0.4,0.2-0.6,0.4c-0.2,0.2-0.3,0.4-0.4,0.7c-0.1,0.3-0.1,0.5-0.1,0.9c0,0.3,0,0.7,0.1,0.9
			c0.1,0.3,0.2,0.5,0.4,0.7c0.2,0.2,0.4,0.3,0.6,0.4c0.2,0.1,0.5,0.1,0.8,0.1c0.1,0,0.3,0,0.4,0c0.1,0,0.3-0.1,0.4-0.1v-1.4h-1.1
			c-0.1,0-0.1,0-0.1-0.1c0-0.1,0-0.2,0-0.4c0-0.1,0-0.2,0-0.2c0-0.1,0-0.1,0-0.1c0,0,0-0.1,0.1-0.1c0,0,0,0,0.1,0h2c0,0,0.1,0,0.1,0
			c0,0,0.1,0,0.1,0.1c0,0,0.1,0.1,0.1,0.1c0,0,0,0.1,0,0.2v2.4c0,0.1,0,0.2,0,0.2c0,0.1-0.1,0.1-0.2,0.2c-0.1,0-0.2,0.1-0.4,0.1
			c-0.2,0-0.3,0.1-0.5,0.1c-0.2,0-0.3,0.1-0.5,0.1c-0.2,0-0.3,0-0.5,0c-0.5,0-0.9-0.1-1.3-0.2c-0.4-0.1-0.7-0.3-1-0.6
			c-0.3-0.3-0.5-0.6-0.6-1c-0.1-0.4-0.2-0.8-0.2-1.3c0-0.5,0.1-0.9,0.2-1.3c0.1-0.4,0.4-0.7,0.6-1c0.3-0.3,0.6-0.5,1-0.6
			c0.4-0.1,0.8-0.2,1.3-0.2c0.3,0,0.5,0,0.7,0.1c0.2,0,0.4,0.1,0.6,0.1c0.2,0.1,0.3,0.1,0.4,0.2c0.1,0.1,0.2,0.1,0.2,0.2
			c0,0,0.1,0.1,0.1,0.2C191.5,52.8,191.6,52.9,191.6,53.1L191.6,53.1z M197.3,58C197.3,58.1,197.3,58.1,197.3,58
			c0,0.1-0.1,0.1-0.1,0.1c0,0-0.1,0-0.2,0c-0.1,0-0.2,0-0.4,0c-0.1,0-0.2,0-0.3,0c-0.1,0-0.1,0-0.2,0c0,0-0.1,0-0.1-0.1
			c0,0,0-0.1,0-0.1l-0.5-1.4c-0.1-0.2-0.1-0.3-0.2-0.4c-0.1-0.1-0.1-0.2-0.2-0.3c-0.1-0.1-0.2-0.1-0.3-0.2c-0.1,0-0.2-0.1-0.3-0.1
			H194V58c0,0,0,0.1,0,0.1c0,0-0.1,0-0.1,0.1c0,0-0.1,0-0.2,0c-0.1,0-0.2,0-0.3,0c-0.1,0-0.2,0-0.3,0c-0.1,0-0.1,0-0.2,0
			c0,0-0.1,0-0.1-0.1c0,0,0-0.1,0-0.1v-5.5c0-0.1,0-0.2,0.1-0.3c0.1-0.1,0.2-0.1,0.3-0.1h1.6c0.2,0,0.3,0,0.4,0c0.1,0,0.2,0,0.3,0
			c0.2,0,0.5,0.1,0.7,0.2c0.2,0.1,0.4,0.2,0.5,0.3c0.1,0.1,0.2,0.3,0.3,0.5c0.1,0.2,0.1,0.4,0.1,0.6c0,0.2,0,0.4-0.1,0.6
			c-0.1,0.2-0.1,0.3-0.2,0.4c-0.1,0.1-0.2,0.2-0.4,0.3c-0.1,0.1-0.3,0.2-0.5,0.2c0.1,0,0.2,0.1,0.3,0.2c0.1,0.1,0.2,0.1,0.2,0.2
			c0.1,0.1,0.1,0.2,0.2,0.3c0.1,0.1,0.1,0.2,0.2,0.4l0.5,1.2c0,0.1,0.1,0.2,0.1,0.3C197.3,58,197.3,58,197.3,58L197.3,58z
			 M195.7,53.9c0-0.2,0-0.4-0.1-0.5c-0.1-0.1-0.2-0.2-0.4-0.3c-0.1,0-0.1,0-0.2,0c-0.1,0-0.2,0-0.3,0H194v1.7h0.6
			c0.2,0,0.3,0,0.5-0.1c0.1,0,0.2-0.1,0.3-0.2c0.1-0.1,0.2-0.2,0.2-0.3C195.7,54.2,195.7,54,195.7,53.9L195.7,53.9z M199.4,58
			C199.4,58,199.4,58.1,199.4,58c-0.1,0.1-0.1,0.1-0.1,0.1c0,0-0.1,0-0.2,0c-0.1,0-0.2,0-0.3,0c-0.1,0-0.2,0-0.3,0
			c-0.1,0-0.1,0-0.2,0c0,0-0.1,0-0.1-0.1c0,0,0-0.1,0-0.1v-5.7c0,0,0-0.1,0-0.1c0,0,0.1,0,0.1-0.1c0,0,0.1,0,0.2,0
			c0.1,0,0.2,0,0.3,0c0.1,0,0.2,0,0.3,0c0.1,0,0.1,0,0.2,0c0,0,0.1,0,0.1,0.1c0,0,0,0.1,0,0.1V58L199.4,58z M204.8,52.6
			c0,0.1,0,0.2,0,0.2c0,0.1,0,0.1,0,0.2c0,0,0,0.1-0.1,0.1c0,0,0,0-0.1,0h-1.5V58c0,0,0,0.1,0,0.1c0,0-0.1,0-0.1,0.1
			c0,0-0.1,0-0.2,0c-0.1,0-0.2,0-0.3,0c-0.1,0-0.2,0-0.3,0c-0.1,0-0.1,0-0.2,0c0,0-0.1,0-0.1-0.1c0,0,0-0.1,0-0.1v-4.9h-1.5
			c0,0-0.1,0-0.1,0c0,0,0,0-0.1-0.1c0,0,0-0.1,0-0.2c0-0.1,0-0.1,0-0.2c0-0.1,0-0.2,0-0.2c0-0.1,0-0.1,0-0.2c0,0,0-0.1,0.1-0.1
			c0,0,0,0,0.1,0h4.3c0,0,0.1,0,0.1,0c0,0,0,0,0.1,0.1c0,0,0,0.1,0,0.2C204.8,52.5,204.8,52.5,204.8,52.6L204.8,52.6z M208,55.9V58
			c0,0,0,0.1,0,0.1c0,0-0.1,0-0.1,0.1c0,0-0.1,0-0.2,0c-0.1,0-0.2,0-0.3,0c-0.1,0-0.2,0-0.3,0c-0.1,0-0.1,0-0.2,0c0,0-0.1,0-0.1-0.1
			c0,0,0-0.1,0-0.1v-2.1l-1.7-3.3c-0.1-0.1-0.1-0.2-0.1-0.3c0-0.1,0-0.1,0-0.1c0,0,0.1-0.1,0.2-0.1c0.1,0,0.2,0,0.4,0
			c0.1,0,0.3,0,0.3,0c0.1,0,0.2,0,0.2,0c0,0,0.1,0,0.1,0.1c0,0,0,0.1,0.1,0.1l0.7,1.5c0.1,0.1,0.1,0.3,0.2,0.5
			c0.1,0.2,0.1,0.3,0.2,0.5h0c0.1-0.2,0.1-0.3,0.2-0.5c0.1-0.2,0.1-0.3,0.2-0.5l0.7-1.5c0-0.1,0-0.1,0.1-0.1c0,0,0.1-0.1,0.1-0.1
			c0,0,0.1,0,0.2,0c0.1,0,0.2,0,0.3,0c0.2,0,0.3,0,0.4,0c0.1,0,0.2,0,0.2,0.1c0,0,0,0.1,0,0.1c0,0.1-0.1,0.2-0.1,0.3L208,55.9
			L208,55.9z M215.9,59.7C215.9,59.7,215.9,59.8,215.9,59.7c0,0.1-0.1,0.1-0.1,0.1c0,0-0.1,0-0.2,0c-0.1,0-0.2,0-0.3,0
			c-0.1,0-0.2,0-0.3,0c-0.1,0-0.1,0-0.2,0c0,0-0.1,0-0.1-0.1c0,0,0-0.1,0-0.1v-8.1c0,0,0-0.1,0-0.1c0,0,0,0,0.1-0.1c0,0,0.1,0,0.2,0
			c0.1,0,0.2,0,0.3,0c0.1,0,0.2,0,0.3,0c0.1,0,0.1,0,0.2,0c0,0,0.1,0,0.1,0.1c0,0,0,0.1,0,0.1V59.7L215.9,59.7z M225.8,57.3
			c0,0.1,0,0.1,0,0.2c0,0.1,0,0.1,0,0.1c0,0,0,0.1,0,0.1c0,0,0,0.1-0.1,0.1c0,0-0.1,0.1-0.2,0.1c-0.1,0.1-0.2,0.1-0.4,0.2
			c-0.1,0-0.3,0.1-0.5,0.1c-0.2,0-0.4,0.1-0.6,0.1c-0.4,0-0.8-0.1-1.1-0.2c-0.3-0.1-0.6-0.3-0.9-0.6c-0.2-0.3-0.4-0.6-0.5-1
			c-0.1-0.4-0.2-0.8-0.2-1.3c0-0.5,0.1-1,0.2-1.4c0.1-0.4,0.3-0.7,0.6-1c0.2-0.3,0.5-0.5,0.9-0.6c0.3-0.1,0.7-0.2,1.1-0.2
			c0.2,0,0.3,0,0.5,0c0.2,0,0.3,0.1,0.4,0.1c0.1,0,0.3,0.1,0.4,0.2c0.1,0.1,0.2,0.1,0.2,0.2c0,0,0.1,0.1,0.1,0.1c0,0,0,0.1,0,0.1
			c0,0,0,0.1,0,0.2c0,0.1,0,0.1,0,0.2c0,0.1,0,0.2,0,0.2c0,0.1,0,0.1,0,0.2c0,0,0,0.1-0.1,0.1c0,0,0,0-0.1,0c0,0-0.1,0-0.2-0.1
			c-0.1-0.1-0.2-0.1-0.3-0.2c-0.1-0.1-0.2-0.1-0.4-0.2c-0.2-0.1-0.3-0.1-0.6-0.1c-0.2,0-0.5,0-0.6,0.1c-0.2,0.1-0.3,0.2-0.5,0.4
			c-0.1,0.2-0.2,0.4-0.3,0.7c-0.1,0.3-0.1,0.5-0.1,0.9c0,0.4,0,0.7,0.1,0.9c0.1,0.3,0.2,0.5,0.3,0.6c0.1,0.2,0.3,0.3,0.5,0.4
			c0.2,0.1,0.4,0.1,0.6,0.1c0.2,0,0.4,0,0.6-0.1c0.2-0.1,0.3-0.1,0.4-0.2c0.1-0.1,0.2-0.1,0.3-0.2c0.1,0,0.1-0.1,0.2-0.1
			c0,0,0.1,0,0.1,0c0,0,0,0,0,0.1c0,0,0,0.1,0,0.2C225.7,57.1,225.8,57.2,225.8,57.3L225.8,57.3z M232,55.1c0,0.5-0.1,1-0.2,1.3
			c-0.1,0.4-0.3,0.7-0.6,1c-0.2,0.3-0.6,0.5-0.9,0.6c-0.4,0.1-0.8,0.2-1.3,0.2c-0.5,0-0.9-0.1-1.2-0.2c-0.4-0.1-0.6-0.3-0.9-0.6
			c-0.2-0.3-0.4-0.6-0.5-1c-0.1-0.4-0.2-0.9-0.2-1.4c0-0.5,0.1-0.9,0.2-1.3c0.1-0.4,0.3-0.7,0.6-1c0.2-0.3,0.6-0.5,0.9-0.6
			c0.4-0.1,0.8-0.2,1.3-0.2c0.5,0,0.9,0.1,1.2,0.2c0.4,0.1,0.6,0.3,0.9,0.6c0.2,0.3,0.4,0.6,0.5,1C232,54.1,232,54.6,232,55.1
			L232,55.1z M230.7,55.1c0-0.3,0-0.6-0.1-0.9c0-0.3-0.1-0.5-0.3-0.7c-0.1-0.2-0.3-0.3-0.5-0.4c-0.2-0.1-0.4-0.2-0.7-0.2
			c-0.3,0-0.6,0.1-0.8,0.2c-0.2,0.1-0.4,0.3-0.5,0.5c-0.1,0.2-0.2,0.4-0.3,0.7c-0.1,0.3-0.1,0.5-0.1,0.8c0,0.3,0,0.6,0.1,0.9
			c0,0.3,0.1,0.5,0.3,0.7c0.1,0.2,0.3,0.3,0.5,0.4c0.2,0.1,0.5,0.1,0.8,0.1c0.3,0,0.6-0.1,0.8-0.2c0.2-0.1,0.4-0.3,0.5-0.5
			c0.1-0.2,0.2-0.4,0.3-0.7C230.7,55.7,230.7,55.4,230.7,55.1L230.7,55.1z M238.1,57.8c0,0.1,0,0.1,0,0.2c0,0.1-0.1,0.1-0.1,0.1
			c0,0-0.1,0.1-0.1,0.1c-0.1,0-0.1,0-0.2,0h-0.5c-0.1,0-0.2,0-0.3,0c-0.1,0-0.2-0.1-0.2-0.1c-0.1-0.1-0.1-0.1-0.2-0.2
			c-0.1-0.1-0.1-0.2-0.2-0.4l-1.5-2.8c-0.1-0.2-0.2-0.4-0.3-0.5c-0.1-0.2-0.2-0.4-0.2-0.6h0c0,0.2,0,0.4,0,0.7c0,0.2,0,0.5,0,0.7V58
			c0,0,0,0.1,0,0.1c0,0,0,0-0.1,0.1c0,0-0.1,0-0.2,0c-0.1,0-0.2,0-0.3,0c-0.1,0-0.2,0-0.3,0c-0.1,0-0.1,0-0.2,0c0,0-0.1,0-0.1-0.1
			c0,0,0-0.1,0-0.1v-5.4c0-0.1,0-0.3,0.1-0.3c0.1-0.1,0.2-0.1,0.3-0.1h0.7c0.1,0,0.2,0,0.3,0c0.1,0,0.2,0.1,0.2,0.1
			c0.1,0,0.1,0.1,0.2,0.2c0.1,0.1,0.1,0.2,0.2,0.3l1.2,2.2c0.1,0.1,0.1,0.3,0.2,0.4c0.1,0.1,0.1,0.3,0.2,0.4
			c0.1,0.1,0.1,0.3,0.2,0.4c0.1,0.1,0.1,0.3,0.2,0.4h0c0-0.2,0-0.4,0-0.7c0-0.2,0-0.5,0-0.7v-2.8c0,0,0-0.1,0-0.1c0,0,0,0,0.1-0.1
			c0,0,0.1,0,0.2,0c0.1,0,0.2,0,0.3,0c0.1,0,0.2,0,0.3,0c0.1,0,0.1,0,0.2,0c0,0,0.1,0,0.1,0.1c0,0,0,0.1,0,0.1V57.8L238.1,57.8z
			 M242.8,52.6c0,0.1,0,0.2,0,0.2c0,0.1,0,0.1,0,0.2c0,0,0,0.1-0.1,0.1c0,0,0,0-0.1,0h-2v1.6h1.9c0,0,0.1,0,0.1,0c0,0,0,0,0.1,0.1
			c0,0,0,0.1,0,0.2c0,0.1,0,0.1,0,0.2c0,0.1,0,0.2,0,0.2c0,0.1,0,0.1,0,0.2c0,0,0,0.1-0.1,0.1c0,0,0,0-0.1,0h-1.9V58
			c0,0,0,0.1,0,0.1c0,0-0.1,0-0.1,0.1c0,0-0.1,0-0.2,0c-0.1,0-0.2,0-0.3,0c-0.1,0-0.2,0-0.3,0c-0.1,0-0.1,0-0.2,0c0,0-0.1,0-0.1-0.1
			c0,0,0-0.1,0-0.1v-5.5c0-0.1,0-0.2,0.1-0.3c0.1-0.1,0.2-0.1,0.3-0.1h2.9c0,0,0.1,0,0.1,0c0,0,0,0,0.1,0.1c0,0,0,0.1,0,0.2
			C242.8,52.5,242.8,52.5,242.8,52.6L242.8,52.6z M245,58C245,58,245,58.1,245,58c-0.1,0.1-0.1,0.1-0.1,0.1c0,0-0.1,0-0.2,0
			c-0.1,0-0.2,0-0.3,0c-0.1,0-0.2,0-0.3,0c-0.1,0-0.1,0-0.2,0c0,0-0.1,0-0.1-0.1c0,0,0-0.1,0-0.1v-5.7c0,0,0-0.1,0-0.1
			c0,0,0.1,0,0.1-0.1c0,0,0.1,0,0.2,0c0.1,0,0.2,0,0.3,0c0.1,0,0.2,0,0.3,0c0.1,0,0.1,0,0.2,0c0,0,0.1,0,0.1,0.1c0,0,0,0.1,0,0.1V58
			L245,58z M251.4,55.1c0,0.6-0.1,1-0.2,1.4c-0.1,0.4-0.4,0.7-0.6,1c-0.3,0.2-0.6,0.4-1,0.6c-0.4,0.1-0.9,0.2-1.4,0.2h-1.4
			c-0.1,0-0.2,0-0.3-0.1c-0.1-0.1-0.1-0.2-0.1-0.3v-5.3c0-0.1,0-0.2,0.1-0.3c0.1-0.1,0.2-0.1,0.3-0.1h1.6c0.5,0,1,0.1,1.4,0.2
			c0.4,0.1,0.7,0.3,1,0.6c0.3,0.2,0.5,0.6,0.6,0.9C251.3,54.2,251.4,54.6,251.4,55.1L251.4,55.1z M250.1,55.1c0-0.3,0-0.6-0.1-0.8
			c-0.1-0.2-0.2-0.5-0.3-0.6c-0.1-0.2-0.3-0.3-0.6-0.4c-0.2-0.1-0.5-0.2-0.9-0.2h-0.6v4.1h0.6c0.3,0,0.6,0,0.9-0.1
			c0.2-0.1,0.4-0.2,0.6-0.4c0.2-0.2,0.3-0.4,0.3-0.7C250.1,55.8,250.1,55.5,250.1,55.1L250.1,55.1z M256,57.7c0,0.1,0,0.2,0,0.2
			c0,0.1,0,0.1,0,0.1c0,0,0,0.1-0.1,0.1c0,0,0,0-0.1,0h-3c-0.1,0-0.2,0-0.3-0.1c-0.1-0.1-0.1-0.2-0.1-0.3v-5.3c0-0.1,0-0.2,0.1-0.3
			c0.1-0.1,0.2-0.1,0.3-0.1h3c0,0,0.1,0,0.1,0c0,0,0,0,0.1,0.1c0,0,0,0.1,0,0.2c0,0.1,0,0.1,0,0.2c0,0.1,0,0.2,0,0.2
			c0,0.1,0,0.1,0,0.1c0,0,0,0.1-0.1,0.1c0,0,0,0-0.1,0h-2.2v1.5h1.8c0,0,0.1,0,0.1,0c0,0,0,0,0.1,0.1c0,0,0,0.1,0,0.1
			c0,0.1,0,0.1,0,0.2c0,0.1,0,0.2,0,0.2c0,0.1,0,0.1,0,0.1c0,0,0,0.1-0.1,0.1c0,0,0,0-0.1,0h-1.8v1.7h2.2c0,0,0.1,0,0.1,0
			c0,0,0,0,0.1,0.1c0,0,0,0.1,0,0.1C256,57.5,256,57.6,256,57.7z"/>
		<path class="st2" d="M262.1,57.8c0,0.1,0,0.1,0,0.2c0,0.1-0.1,0.1-0.1,0.1c0,0-0.1,0.1-0.1,0.1c-0.1,0-0.1,0-0.2,0h-0.5
			c-0.1,0-0.2,0-0.3,0c-0.1,0-0.2-0.1-0.2-0.1c-0.1-0.1-0.1-0.1-0.2-0.2c-0.1-0.1-0.1-0.2-0.2-0.4l-1.5-2.8
			c-0.1-0.2-0.2-0.4-0.3-0.5c-0.1-0.2-0.2-0.4-0.2-0.6h0c0,0.2,0,0.4,0,0.7c0,0.2,0,0.5,0,0.7V58c0,0,0,0.1,0,0.1c0,0,0,0-0.1,0.1
			c0,0-0.1,0-0.2,0c-0.1,0-0.2,0-0.3,0c-0.1,0-0.2,0-0.3,0c-0.1,0-0.1,0-0.2,0c0,0-0.1,0-0.1-0.1c0,0,0-0.1,0-0.1v-5.4
			c0-0.1,0-0.3,0.1-0.3c0.1-0.1,0.2-0.1,0.3-0.1h0.7c0.1,0,0.2,0,0.3,0c0.1,0,0.2,0.1,0.2,0.1c0.1,0,0.1,0.1,0.2,0.2
			c0.1,0.1,0.1,0.2,0.2,0.3l1.2,2.2c0.1,0.1,0.1,0.3,0.2,0.4c0.1,0.1,0.1,0.3,0.2,0.4c0.1,0.1,0.1,0.3,0.2,0.4
			c0.1,0.1,0.1,0.3,0.2,0.4h0c0-0.2,0-0.4,0-0.7c0-0.2,0-0.5,0-0.7v-2.8c0,0,0-0.1,0-0.1c0,0,0,0,0.1-0.1c0,0,0.1,0,0.2,0
			c0.1,0,0.2,0,0.3,0c0.1,0,0.2,0,0.3,0c0.1,0,0.1,0,0.2,0c0,0,0.1,0,0.1,0.1c0,0,0,0.1,0,0.1V57.8L262.1,57.8z M267.4,52.6
			c0,0.1,0,0.2,0,0.2c0,0.1,0,0.1,0,0.2c0,0,0,0.1-0.1,0.1c0,0,0,0-0.1,0h-1.5V58c0,0,0,0.1,0,0.1c0,0-0.1,0-0.1,0.1
			c0,0-0.1,0-0.2,0c-0.1,0-0.2,0-0.3,0c-0.1,0-0.2,0-0.3,0c-0.1,0-0.1,0-0.2,0c0,0-0.1,0-0.1-0.1c0,0,0-0.1,0-0.1v-4.9H263
			c0,0-0.1,0-0.1,0c0,0,0,0-0.1-0.1c0,0,0-0.1,0-0.2c0-0.1,0-0.1,0-0.2c0-0.1,0-0.2,0-0.2c0-0.1,0-0.1,0-0.2c0,0,0-0.1,0.1-0.1
			c0,0,0,0,0.1,0h4.3c0,0,0.1,0,0.1,0c0,0,0,0,0.1,0.1c0,0,0,0.1,0,0.2C267.4,52.5,267.4,52.5,267.4,52.6L267.4,52.6z M269.4,58
			C269.4,58,269.4,58.1,269.4,58c-0.1,0.1-0.1,0.1-0.1,0.1c0,0-0.1,0-0.2,0c-0.1,0-0.2,0-0.3,0c-0.1,0-0.2,0-0.3,0
			c-0.1,0-0.1,0-0.2,0c0,0-0.1,0-0.1-0.1c0,0,0-0.1,0-0.1v-5.7c0,0,0-0.1,0-0.1c0,0,0.1,0,0.1-0.1c0,0,0.1,0,0.2,0
			c0.1,0,0.2,0,0.3,0c0.1,0,0.2,0,0.3,0c0.1,0,0.1,0,0.2,0c0,0,0.1,0,0.1,0.1c0,0,0,0.1,0,0.1V58L269.4,58z M275.6,57.7
			c0,0.1,0.1,0.2,0.1,0.3c0,0.1,0,0.1,0,0.1c0,0-0.1,0.1-0.2,0.1c-0.1,0-0.2,0-0.4,0c-0.2,0-0.3,0-0.4,0c-0.1,0-0.2,0-0.2,0
			c0,0-0.1,0-0.1-0.1c0,0,0-0.1,0-0.1l-0.4-1.2h-2.3l-0.4,1.2c0,0,0,0.1,0,0.1c0,0-0.1,0.1-0.1,0.1c0,0-0.1,0-0.2,0
			c-0.1,0-0.2,0-0.3,0c-0.1,0-0.3,0-0.3,0c-0.1,0-0.1,0-0.2-0.1c0,0,0-0.1,0-0.2c0-0.1,0-0.2,0.1-0.3l1.9-5.4c0-0.1,0-0.1,0.1-0.1
			c0,0,0.1-0.1,0.1-0.1c0.1,0,0.1,0,0.2,0c0.1,0,0.2,0,0.4,0c0.2,0,0.3,0,0.4,0c0.1,0,0.2,0,0.3,0c0.1,0,0.1,0,0.1,0.1
			c0,0,0,0.1,0.1,0.1L275.6,57.7L275.6,57.7z M272.9,53.3L272.9,53.3l-0.8,2.6h1.7L272.9,53.3L272.9,53.3z M279.8,57.7
			c0,0.1,0,0.2,0,0.2c0,0.1,0,0.1,0,0.2c0,0,0,0.1-0.1,0.1c0,0-0.1,0-0.1,0h-2.8c-0.1,0-0.2,0-0.3-0.1c-0.1-0.1-0.1-0.2-0.1-0.3
			v-5.5c0,0,0-0.1,0-0.1c0,0,0.1,0,0.1-0.1c0,0,0.1,0,0.2,0c0.1,0,0.2,0,0.3,0c0.1,0,0.2,0,0.3,0c0.1,0,0.1,0,0.2,0
			c0,0,0.1,0,0.1,0.1c0,0,0,0.1,0,0.1v4.9h1.9c0,0,0.1,0,0.1,0c0,0,0,0,0.1,0.1c0,0,0,0.1,0,0.2C279.8,57.5,279.8,57.6,279.8,57.7
			L279.8,57.7z M281.8,58C281.8,58,281.8,58.1,281.8,58c-0.1,0.1-0.1,0.1-0.1,0.1c0,0-0.1,0-0.2,0c-0.1,0-0.2,0-0.3,0
			c-0.1,0-0.2,0-0.3,0c-0.1,0-0.1,0-0.2,0c0,0-0.1,0-0.1-0.1c0,0,0-0.1,0-0.1v-5.7c0,0,0-0.1,0-0.1c0,0,0.1,0,0.1-0.1
			c0,0,0.1,0,0.2,0c0.1,0,0.2,0,0.3,0c0.1,0,0.2,0,0.3,0c0.1,0,0.1,0,0.2,0c0,0,0.1,0,0.1,0.1c0,0,0,0.1,0,0.1V58L281.8,58z
			 M287.1,52.6c0,0.1,0,0.2,0,0.2c0,0.1,0,0.1,0,0.2c0,0,0,0.1-0.1,0.1c0,0,0,0-0.1,0h-1.5V58c0,0,0,0.1,0,0.1c0,0-0.1,0-0.1,0.1
			c0,0-0.1,0-0.2,0c-0.1,0-0.2,0-0.3,0c-0.1,0-0.2,0-0.3,0c-0.1,0-0.1,0-0.2,0c0,0-0.1,0-0.1-0.1c0,0,0-0.1,0-0.1v-4.9h-1.5
			c0,0-0.1,0-0.1,0c0,0,0,0-0.1-0.1c0,0,0-0.1,0-0.2c0-0.1,0-0.1,0-0.2c0-0.1,0-0.2,0-0.2c0-0.1,0-0.1,0-0.2c0,0,0-0.1,0.1-0.1
			c0,0,0,0,0.1,0h4.3c0,0,0.1,0,0.1,0c0,0,0,0,0.1,0.1c0,0,0,0.1,0,0.2C287.1,52.5,287.1,52.5,287.1,52.6L287.1,52.6z M290.3,55.9
			V58c0,0,0,0.1,0,0.1c0,0-0.1,0-0.1,0.1c0,0-0.1,0-0.2,0c-0.1,0-0.2,0-0.3,0c-0.1,0-0.2,0-0.3,0c-0.1,0-0.1,0-0.2,0
			c0,0-0.1,0-0.1-0.1c0,0,0-0.1,0-0.1v-2.1l-1.7-3.3c-0.1-0.1-0.1-0.2-0.1-0.3c0-0.1,0-0.1,0-0.1c0,0,0.1-0.1,0.2-0.1
			c0.1,0,0.2,0,0.4,0c0.1,0,0.3,0,0.3,0c0.1,0,0.2,0,0.2,0c0,0,0.1,0,0.1,0.1c0,0,0,0.1,0.1,0.1l0.7,1.5c0.1,0.1,0.1,0.3,0.2,0.5
			c0.1,0.2,0.1,0.3,0.2,0.5h0c0.1-0.2,0.1-0.3,0.2-0.5c0.1-0.2,0.1-0.3,0.2-0.5l0.7-1.5c0-0.1,0-0.1,0.1-0.1c0,0,0.1-0.1,0.1-0.1
			c0,0,0.1,0,0.2,0c0.1,0,0.2,0,0.3,0c0.2,0,0.3,0,0.4,0c0.1,0,0.2,0,0.2,0.1c0,0,0,0.1,0,0.1c0,0.1-0.1,0.2-0.1,0.3L290.3,55.9
			L290.3,55.9z M298.3,59.7C298.3,59.7,298.3,59.8,298.3,59.7c0,0.1-0.1,0.1-0.1,0.1c0,0-0.1,0-0.2,0c-0.1,0-0.2,0-0.3,0
			c-0.1,0-0.2,0-0.3,0c-0.1,0-0.1,0-0.2,0c0,0-0.1,0-0.1-0.1c0,0,0-0.1,0-0.1v-8.1c0,0,0-0.1,0-0.1c0,0,0,0,0.1-0.1c0,0,0.1,0,0.2,0
			c0.1,0,0.2,0,0.3,0c0.1,0,0.2,0,0.3,0c0.1,0,0.1,0,0.2,0c0,0,0.1,0,0.1,0.1c0,0,0,0.1,0,0.1V59.7L298.3,59.7z M307.9,52.6
			c0,0.1,0,0.2,0,0.2c0,0.1,0,0.1,0,0.2c0,0,0,0.1-0.1,0.1c0,0,0,0-0.1,0h-1.5V58c0,0,0,0.1,0,0.1c0,0-0.1,0-0.1,0.1
			c0,0-0.1,0-0.2,0c-0.1,0-0.2,0-0.3,0c-0.1,0-0.2,0-0.3,0c-0.1,0-0.1,0-0.2,0c0,0-0.1,0-0.1-0.1c0,0,0-0.1,0-0.1v-4.9h-1.5
			c0,0-0.1,0-0.1,0c0,0,0,0-0.1-0.1c0,0,0-0.1,0-0.2c0-0.1,0-0.1,0-0.2c0-0.1,0-0.2,0-0.2c0-0.1,0-0.1,0-0.2c0,0,0-0.1,0.1-0.1
			c0,0,0,0,0.1,0h4.3c0,0,0.1,0,0.1,0c0,0,0,0,0.1,0.1c0,0,0,0.1,0,0.2C307.9,52.5,307.9,52.5,307.9,52.6L307.9,52.6z M309.9,58
			C309.9,58,309.9,58.1,309.9,58c-0.1,0.1-0.1,0.1-0.1,0.1c0,0-0.1,0-0.2,0c-0.1,0-0.2,0-0.3,0c-0.1,0-0.2,0-0.3,0
			c-0.1,0-0.1,0-0.2,0c0,0-0.1,0-0.1-0.1c0,0,0-0.1,0-0.1v-5.7c0,0,0-0.1,0-0.1c0,0,0.1,0,0.1-0.1c0,0,0.1,0,0.2,0
			c0.1,0,0.2,0,0.3,0c0.1,0,0.2,0,0.3,0c0.1,0,0.1,0,0.2,0c0,0,0.1,0,0.1,0.1c0,0,0,0.1,0,0.1V58L309.9,58z M318.3,58
			C318.3,58,318.3,58.1,318.3,58c0,0.1-0.1,0.1-0.1,0.1c0,0-0.1,0-0.2,0c-0.1,0-0.2,0-0.3,0c-0.1,0-0.2,0-0.3,0c-0.1,0-0.1,0-0.2,0
			c0,0-0.1,0-0.1-0.1c0,0,0-0.1,0-0.1v-4.9h0l-1.8,4.9c0,0,0,0.1-0.1,0.1c0,0-0.1,0-0.1,0.1c0,0-0.1,0-0.2,0c-0.1,0-0.2,0-0.3,0
			c-0.1,0-0.2,0-0.3,0c-0.1,0-0.1,0-0.2,0c0,0-0.1,0-0.1-0.1c0,0,0-0.1-0.1-0.1l-1.7-4.9h0V58c0,0,0,0.1,0,0.1c0,0,0,0-0.1,0.1
			c0,0-0.1,0-0.2,0c-0.1,0-0.2,0-0.3,0c-0.1,0-0.2,0-0.3,0c-0.1,0-0.1,0-0.2,0c0,0-0.1,0-0.1-0.1c0,0,0-0.1,0-0.1v-5.4
			c0-0.2,0-0.3,0.1-0.4c0.1-0.1,0.2-0.1,0.3-0.1h0.8c0.1,0,0.3,0,0.4,0c0.1,0,0.2,0.1,0.3,0.1c0.1,0.1,0.1,0.1,0.2,0.2
			c0,0.1,0.1,0.2,0.1,0.3l1.3,3.6h0l1.4-3.6c0-0.1,0.1-0.2,0.1-0.3c0-0.1,0.1-0.2,0.2-0.2c0.1-0.1,0.1-0.1,0.2-0.1
			c0.1,0,0.2,0,0.3,0h0.8c0.1,0,0.2,0,0.2,0c0.1,0,0.1,0.1,0.2,0.1c0,0,0.1,0.1,0.1,0.2s0,0.1,0,0.2V58L318.3,58z M323.2,57.7
			c0,0.1,0,0.2,0,0.2c0,0.1,0,0.1,0,0.1c0,0,0,0.1-0.1,0.1c0,0,0,0-0.1,0h-3c-0.1,0-0.2,0-0.3-0.1c-0.1-0.1-0.1-0.2-0.1-0.3v-5.3
			c0-0.1,0-0.2,0.1-0.3c0.1-0.1,0.2-0.1,0.3-0.1h3c0,0,0.1,0,0.1,0c0,0,0,0,0.1,0.1c0,0,0,0.1,0,0.2c0,0.1,0,0.1,0,0.2
			c0,0.1,0,0.2,0,0.2c0,0.1,0,0.1,0,0.1c0,0,0,0.1-0.1,0.1c0,0,0,0-0.1,0h-2.2v1.5h1.8c0,0,0.1,0,0.1,0c0,0,0,0,0.1,0.1
			c0,0,0,0.1,0,0.1c0,0.1,0,0.1,0,0.2c0,0.1,0,0.2,0,0.2c0,0.1,0,0.1,0,0.1c0,0,0,0.1-0.1,0.1c0,0,0,0-0.1,0h-1.8v1.7h2.2
			c0,0,0.1,0,0.1,0c0,0,0,0,0.1,0.1c0,0,0,0.1,0,0.1C323.2,57.5,323.2,57.6,323.2,57.7L323.2,57.7z M327.6,57.7c0,0.1,0,0.2,0,0.2
			c0,0.1,0,0.1,0,0.2c0,0,0,0.1-0.1,0.1c0,0-0.1,0-0.1,0h-2.8c-0.1,0-0.2,0-0.3-0.1c-0.1-0.1-0.1-0.2-0.1-0.3v-5.5c0,0,0-0.1,0-0.1
			c0,0,0.1,0,0.1-0.1c0,0,0.1,0,0.2,0c0.1,0,0.2,0,0.3,0c0.1,0,0.2,0,0.3,0c0.1,0,0.1,0,0.2,0c0,0,0.1,0,0.1,0.1c0,0,0,0.1,0,0.1
			v4.9h1.9c0,0,0.1,0,0.1,0c0,0,0,0,0.1,0.1c0,0,0,0.1,0,0.2C327.6,57.5,327.6,57.6,327.6,57.7L327.6,57.7z M329.9,55.9l1.7-3.3
			c0.1-0.1,0.1-0.2,0.1-0.3c0-0.1,0-0.1,0-0.1c0,0-0.1-0.1-0.2-0.1c-0.1,0-0.2,0-0.4,0c-0.1,0-0.2,0-0.3,0c-0.1,0-0.1,0-0.2,0
			c0,0-0.1,0-0.1,0.1c0,0,0,0.1-0.1,0.1l-0.7,1.5c-0.1,0.1-0.1,0.3-0.2,0.5c-0.1,0.2-0.1,0.3-0.2,0.5h0c-0.1-0.2-0.1-0.3-0.2-0.5
			c-0.1-0.2-0.1-0.3-0.2-0.5l-0.7-1.5c0,0,0-0.1-0.1-0.1c0,0-0.1,0-0.1-0.1c0,0-0.1,0-0.2,0c-0.1,0-0.2,0-0.3,0c-0.2,0-0.3,0-0.4,0
			c-0.1,0-0.2,0-0.2,0.1c0,0,0,0.1,0,0.1c0,0.1,0.1,0.2,0.1,0.3l1.7,3.3V58c0,0,0,0.1,0,0.1c0,0,0.1,0,0.1,0.1c0,0,0.1,0,0.2,0
			c0.1,0,0.2,0,0.3,0c0.1,0,0.2,0,0.3,0c0.1,0,0.1,0,0.2,0c0,0,0.1,0,0.1-0.1c0,0,0-0.1,0-0.1V55.9z"/>
	</g>
</g>
<line class="st3" x1="88" y1="3" x2="88" y2="73"/>
<path class="st4" d="M31.7,69.7c3.6,0.7,8.2,3,9.8,4.4c1.6,1.4,3.3-1.6,1.5-1.8C41.1,72.2,32.3,67.1,31.7,69.7z"/>
<path class="st4" d="M45.4,69.7c-3.6,0.7-8.2,3-9.8,4.4c-1.6,1.4-3.3-1.6-1.5-1.8S44.9,67.1,45.4,69.7z"/>
<g>
	<g>
		<path class="st5" d="M38.7,9c-0.5-0.7-1.8-1.6-4.4,0.2C37.1,10.8,38.3,9.7,38.7,9z"/>
		<path class="st5" d="M34,9.4c-0.6-0.6-2-1.3-4.3,1C32.8,11.4,33.8,10.2,34,9.4z"/>
		<path class="st5" d="M29.5,10.6c-0.7-0.5-2.2-0.9-4,1.7C28.6,12.8,29.4,11.4,29.5,10.6z"/>
		<path class="st5" d="M25.3,12.5c-0.7-0.4-2.3-0.5-3.7,2.4C24.8,14.8,25.3,13.3,25.3,12.5z"/>
		<path class="st5" d="M21.5,15.2c-0.8-0.2-2.4-0.1-3.2,3C21.4,17.5,21.6,16,21.5,15.2z"/>
		<path class="st5" d="M18.2,18.4c-0.8-0.1-2.3,0.3-2.6,3.5C18.5,20.8,18.5,19.2,18.2,18.4z"/>
		<path class="st5" d="M15.5,22.2c-0.8,0.1-2.3,0.7-2,3.9C16.2,24.5,15.9,22.9,15.5,22.2z"/>
		<path class="st5" d="M13.5,26.4c-0.8,0.2-2.1,1.1-1.3,4.2C14.6,28.5,14,27.1,13.5,26.4z"/>
		<path class="st5" d="M12.2,30.9c-0.8,0.3-1.9,1.5-0.5,4.3C13.7,32.8,12.9,31.4,12.2,30.9z"/>
		<path class="st5" d="M11.8,35.6c-0.7,0.5-1.6,1.8,0.2,4.4C13.6,37.2,12.5,36,11.8,35.6z"/>
		<path class="st5" d="M12.2,40.2c-0.6,0.6-1.3,2,1,4.3C14.2,41.5,13,40.5,12.2,40.2z"/>
		<path class="st5" d="M13.4,44.7c-0.5,0.7-0.9,2.2,1.7,4C15.6,45.6,14.2,44.8,13.4,44.7z"/>
		<path class="st5" d="M15.3,48.9c-0.4,0.7-0.5,2.3,2.4,3.7C17.6,49.4,16.1,48.9,15.3,48.9z"/>
		<path class="st5" d="M17.9,52.8c-0.2,0.8-0.1,2.4,3,3.2C20.3,52.9,18.8,52.6,17.9,52.8z"/>
		<path class="st5" d="M21.2,56.1c-0.1,0.8,0.3,2.3,3.5,2.6C23.6,55.8,22,55.8,21.2,56.1z"/>
		<path class="st5" d="M25,58.8c0.1,0.8,0.7,2.3,3.9,2C27.3,58,25.7,58.3,25,58.8z"/>
		<path class="st5" d="M29.2,60.8c0.2,0.8,1.1,2.1,4.2,1.3C31.3,59.7,29.8,60.2,29.2,60.8z"/>
		<path class="st5" d="M33.7,62c0.3,0.8,1.5,1.9,4.3,0.5C35.6,60.5,34.2,61.4,33.7,62z"/>
		<path class="st5" d="M38.3,62.4c0.5,0.7,1.8,1.6,4.4-0.2C39.9,60.7,38.7,61.7,38.3,62.4z"/>
		<path class="st5" d="M43,62.1c0.6,0.6,2,1.3,4.3-1C44.2,60,43.2,61.3,43,62.1z"/>
		<path class="st5" d="M47.5,60.9c0.7,0.5,2.2,0.9,4-1.7C48.4,58.7,47.6,60.1,47.5,60.9z"/>
		<path class="st5" d="M51.7,58.9c0.7,0.4,2.3,0.5,3.7-2.4C52.2,56.6,51.7,58.1,51.7,58.9z"/>
		<path class="st5" d="M55.6,56.3c0.8,0.2,2.4,0.1,3.2-3C55.6,53.9,55.4,55.5,55.6,56.3z"/>
		<path class="st5" d="M58.9,53c0.8,0.1,2.3-0.3,2.6-3.5C58.5,50.7,58.6,52.2,58.9,53z"/>
		<path class="st5" d="M61.6,49.2c0.8-0.1,2.3-0.7,2-3.9C60.8,47,61.1,48.5,61.6,49.2z"/>
		<path class="st5" d="M63.5,45c0.8-0.2,2.1-1.1,1.3-4.2C62.4,42.9,63,44.4,63.5,45z"/>
		<path class="st5" d="M64.8,40.5c0.8-0.3,1.9-1.5,0.5-4.3C63.3,38.7,64.1,40,64.8,40.5z"/>
		<path class="st5" d="M65.2,35.9c0.7-0.5,1.6-1.8-0.2-4.4C63.5,34.3,64.5,35.5,65.2,35.9z"/>
		<path class="st5" d="M64.8,31.2c0.6-0.6,1.3-2-1-4.3C62.8,30,64.1,31,64.8,31.2z"/>
		<path class="st5" d="M63.7,26.7c0.5-0.7,0.9-2.2-1.7-4C61.5,25.9,62.8,26.6,63.7,26.7z"/>
		<path class="st5" d="M61.7,22.5c0.4-0.7,0.5-2.3-2.4-3.7C59.4,22,60.9,22.5,61.7,22.5z"/>
		<path class="st5" d="M59.1,18.7c0.2-0.8,0.1-2.4-3-3.2C56.7,18.6,58.3,18.8,59.1,18.7z"/>
		<path class="st5" d="M55.8,15.4c0.1-0.8-0.3-2.3-3.5-2.6C53.4,15.7,55,15.7,55.8,15.4z"/>
		<path class="st5" d="M52,12.7c-0.1-0.8-0.7-2.3-3.9-2C49.7,13.4,51.3,13.1,52,12.7z"/>
		<path class="st5" d="M47.8,10.7c-0.2-0.8-1.1-2.1-4.2-1.3C45.7,11.8,47.2,11.2,47.8,10.7z"/>
		<path class="st5" d="M43.3,9.5C43,8.7,41.8,7.6,39,8.9C41.4,10.9,42.8,10.1,43.3,9.5z"/>
	</g>
</g>
<g>
	<path class="st4" d="M34,68.4c0.4-1.1,0.5-3.3-3.7-4.9C30.7,67.9,32.8,68.5,34,68.4z"/>
	<path class="st4" d="M33.6,70c-0.1,1.1-1,3.1-5.4,2.8C30.4,69,32.6,69.4,33.6,70z"/>
</g>
<g>
	<path class="st4" d="M29.5,67.4c0.6-1,0.9-3.1-2.8-5.3C26.4,66.5,28.4,67.4,29.5,67.4z"/>
	<path class="st4" d="M28.9,68.9c-0.2,1.1-1.4,2.9-5.7,1.9C26,67.5,28,68.2,28.9,68.9z"/>
</g>
<g>
	<path class="st4" d="M25.3,65.9c0.7-0.8,1.5-2.8-1.8-5.6C22.4,64.5,24.2,65.6,25.3,65.9z"/>
	<path class="st4" d="M24.4,67.2c-0.4,1-1.9,2.6-5.8,0.9C21.9,65.3,23.7,66.4,24.4,67.2z"/>
</g>
<g>
	<path class="st4" d="M21.4,63.8c0.8-0.7,1.8-2.6-1.1-5.7C18.8,62,20.4,63.4,21.4,63.8z"/>
	<path class="st4" d="M20.4,65c-0.6,0.9-2.2,2.3-5.8,0.1C18.1,62.8,19.8,64,20.4,65z"/>
</g>
<g>
	<path class="st4" d="M17.8,61.2c0.9-0.6,2.1-2.3-0.3-5.7C15.6,59.1,16.9,60.7,17.8,61.2z"/>
	<path class="st4" d="M16.7,62.2c-0.7,0.8-2.4,1.9-5.6-0.7C14.8,59.8,16.3,61.2,16.7,62.2z"/>
</g>
<g>
	<path class="st4" d="M14.8,58.2c0.9-0.5,2.3-2,0.4-5.6C12.8,55.9,13.9,57.6,14.8,58.2z"/>
	<path class="st4" d="M13.6,59c-0.8,0.7-2.6,1.6-5.4-1.4C12,56.5,13.3,58,13.6,59z"/>
</g>
<g>
	<path class="st4" d="M12.1,54.9c1-0.3,2.5-1.6,1.3-5.3C10.5,52.4,11.4,54.2,12.1,54.9z"/>
	<path class="st4" d="M10.8,55.5c-0.8,0.6-2.7,1.1-5-2.1C9.7,52.8,10.7,54.5,10.8,55.5z"/>
</g>
<g>
	<path class="st4" d="M9.9,51.3c1-0.2,2.7-1.1,2-5C8.8,48.6,9.4,50.5,9.9,51.3z"/>
	<path class="st4" d="M8.6,51.7c-0.9,0.5-2.8,0.7-4.6-2.8C8,48.9,8.6,50.7,8.6,51.7z"/>
</g>
<g>
	<path class="st4" d="M8.4,47.5c1,0,2.7-0.8,2.5-4.6C7.6,44.8,7.9,46.7,8.4,47.5z"/>
	<path class="st4" d="M7,47.8c-0.9,0.3-2.8,0.3-4.1-3.3C6.7,45,7.1,46.8,7,47.8z"/>
</g>
<g>
	<path class="st4" d="M7.1,43.6c1,0,2.7-0.5,2.9-4.3C6.6,40.9,6.7,42.8,7.1,43.6z"/>
	<path class="st4" d="M5.8,43.8C4.9,44,3,43.9,2.1,40.2C5.7,41,6,42.8,5.8,43.8z"/>
</g>
<g>
	<path class="st4" d="M6.5,39.6c0.9,0.2,2.7-0.1,3.4-3.7C6.4,36.9,6.3,38.7,6.5,39.6z"/>
	<path class="st4" d="M5.3,39.6c-0.9,0.1-2.7-0.3-3.1-4C5.6,36.9,5.6,38.7,5.3,39.6z"/>
</g>
<g>
	<path class="st4" d="M6.4,35.7c0.9,0.3,2.7,0.2,3.8-3.2C6.7,33,6.3,34.8,6.4,35.7z"/>
	<path class="st4" d="M5.2,35.5c-0.9,0-2.6-0.7-2.5-4.3C5.9,32.9,5.6,34.7,5.2,35.5z"/>
</g>
<g>
	<path class="st4" d="M6.8,31.8c0.8,0.4,2.5,0.6,4.1-2.6C7.3,29.3,6.8,30.9,6.8,31.8z"/>
	<path class="st4" d="M5.6,31.4c-0.9-0.1-2.4-1-1.9-4.4C6.6,29,6.1,30.7,5.6,31.4z"/>
</g>
<g>
	<path class="st4" d="M7.6,28.1c0.7,0.5,2.4,0.9,4.3-2C8.5,25.7,7.7,27.2,7.6,28.1z"/>
	<path class="st4" d="M6.5,27.5c-0.9-0.3-2.2-1.3-1.2-4.6C7.8,25.3,7.1,26.9,6.5,27.5z"/>
</g>
<g>
	<path class="st4" d="M8.9,24.4c0.7,0.5,2.3,1.1,4.3-1.6C9.9,22.2,9,23.6,8.9,24.4z"/>
	<path class="st4" d="M7.8,23.9C7,23.6,5.8,22.5,7,19.3C9.2,21.8,8.5,23.3,7.8,23.9z"/>
</g>
<g>
	<path class="st4" d="M10.5,20.9c0.6,0.6,2,1.4,4.4-0.8C11.8,18.9,10.8,20.1,10.5,20.9z"/>
	<path class="st4" d="M9.6,20.2c-0.7-0.4-1.8-1.7-0.1-4.5C11.2,18.4,10.3,19.7,9.6,20.2z"/>
</g>
<g>
	<path class="st4" d="M12.5,17.8c0.5,0.7,1.8,1.5,4.4-0.4C14,16,12.8,17.1,12.5,17.8z"/>
	<path class="st4" d="M11.7,17c-0.7-0.5-1.5-1.8,0.3-4.4C13.5,15.5,12.4,16.6,11.7,17z"/>
</g>
<g>
	<path class="st4" d="M14.8,15c0.4,0.7,1.6,1.7,4.3,0.1C16.5,13.4,15.2,14.4,14.8,15z"/>
	<path class="st4" d="M14.1,14.2c-0.6-0.5-1.3-1.9,0.8-4.2C16,12.9,14.8,13.9,14.1,14.2z"/>
</g>
<g>
	<path class="st4" d="M17.4,12.4c0.3,0.7,1.4,1.8,4.1,0.6C19.2,11,17.9,11.8,17.4,12.4z"/>
	<path class="st4" d="M16.8,11.5c-0.5-0.6-1.1-2,1.2-4C18.8,10.4,17.6,11.3,16.8,11.5z"/>
</g>
<g>
	<path class="st4" d="M20.2,10.3c0.3,0.7,1.2,1.9,4,0.9C22.1,9.1,20.8,9.7,20.2,10.3z"/>
	<path class="st4" d="M19.7,9.3c-0.5-0.6-0.9-2,1.5-3.8C21.8,8.5,20.5,9.2,19.7,9.3z"/>
</g>
<g>
	<path class="st4" d="M23.3,8.4c0.2,0.7,1,1.9,3.8,1.1C25.2,7.3,23.8,7.9,23.3,8.4z"/>
	<path class="st4" d="M22.9,7.4c-0.4-0.6-0.7-2,1.7-3.6C24.9,6.7,23.6,7.4,22.9,7.4z"/>
</g>
<g>
	<path class="st4" d="M26.5,6.9c0.1,0.7,0.9,1.9,3.6,1.3C28.4,6,27,6.4,26.5,6.9z"/>
	<path class="st4" d="M26.1,5.9c-0.4-0.6-0.6-2,1.9-3.4C28.1,5.4,26.8,5.9,26.1,5.9z"/>
</g>
<g>
	<path class="st4" d="M29.8,5.8c0.1,0.7,0.7,1.9,3.4,1.6C31.7,5.1,30.4,5.4,29.8,5.8z"/>
	<path class="st4" d="M29.5,4.8c-0.3-0.6-0.4-2,2.1-3.1C31.5,4.4,30.2,4.8,29.5,4.8z"/>
</g>
<g>
	<path class="st4" d="M32.9,5.1c0,0.7,0.3,1.9,3,2.1C34.8,4.8,33.5,4.8,32.9,5.1z"/>
	<path class="st4" d="M32.8,4.1c-0.2-0.7,0-2,2.6-2.6C34.8,4.1,33.5,4.3,32.8,4.1z"/>
</g>
<g>
	<path class="st4" d="M43.1,68.4c-0.4-1.1-0.5-3.3,3.7-4.9C46.4,67.9,44.3,68.5,43.1,68.4z"/>
	<path class="st4" d="M43.5,70c0.1,1.1,1,3.1,5.4,2.8C46.7,69,44.5,69.4,43.5,70z"/>
</g>
<g>
	<path class="st4" d="M47.6,67.4c-0.6-1-0.9-3.1,2.8-5.3C50.7,66.5,48.7,67.4,47.6,67.4z"/>
	<path class="st4" d="M48.2,68.9c0.2,1.1,1.4,2.9,5.7,1.9C51.1,67.5,49.1,68.2,48.2,68.9z"/>
</g>
<g>
	<path class="st4" d="M51.8,65.9c-0.7-0.8-1.5-2.8,1.8-5.6C54.7,64.5,52.9,65.6,51.8,65.9z"/>
	<path class="st4" d="M52.7,67.2c0.4,1,1.9,2.6,5.8,0.9C55.2,65.3,53.4,66.4,52.7,67.2z"/>
</g>
<g>
	<path class="st4" d="M55.7,63.8c-0.8-0.7-1.8-2.6,1.1-5.7C58.3,62,56.7,63.4,55.7,63.8z"/>
	<path class="st4" d="M56.7,65c0.6,0.9,2.2,2.3,5.8,0.1C59,62.8,57.3,64,56.7,65z"/>
</g>
<g>
	<path class="st4" d="M59.3,61.2c-0.9-0.6-2.1-2.3,0.3-5.7C61.5,59.1,60.2,60.7,59.3,61.2z"/>
	<path class="st4" d="M60.4,62.2c0.7,0.8,2.4,1.9,5.6-0.7C62.3,59.8,60.8,61.2,60.4,62.2z"/>
</g>
<g>
	<path class="st4" d="M62.3,58.2c-0.9-0.5-2.3-2-0.4-5.6C64.3,55.9,63.2,57.6,62.3,58.2z"/>
	<path class="st4" d="M63.5,59c0.8,0.7,2.6,1.6,5.4-1.4C65.1,56.5,63.8,58,63.5,59z"/>
</g>
<g>
	<g>
		<path class="st4" d="M65,54.9c-1-0.3-2.5-1.6-1.3-5.3C66.6,52.4,65.7,54.2,65,54.9z"/>
		<path class="st4" d="M66.3,55.5c0.8,0.6,2.7,1.1,5-2.1C67.4,52.8,66.4,54.5,66.3,55.5z"/>
	</g>
</g>
<g>
	<g>
		<path class="st4" d="M67.2,51.3c-1-0.2-2.7-1.1-2-5C68.3,48.6,67.7,50.5,67.2,51.3z"/>
		<path class="st4" d="M68.5,51.7c0.9,0.5,2.8,0.7,4.6-2.8C69.1,48.9,68.5,50.7,68.5,51.7z"/>
	</g>
</g>
<g>
	<g>
		<path class="st4" d="M68.7,47.5c-1,0-2.7-0.8-2.5-4.6C69.5,44.8,69.2,46.7,68.7,47.5z"/>
		<path class="st4" d="M70.1,47.8c0.9,0.3,2.8,0.3,4.1-3.3C70.4,45,70,46.8,70.1,47.8z"/>
	</g>
</g>
<g>
	<g>
		<path class="st4" d="M70,43.6c-1,0-2.7-0.5-2.9-4.3C70.5,40.9,70.4,42.8,70,43.6z"/>
		<path class="st4" d="M71.3,43.8c0.9,0.2,2.8,0.1,3.7-3.5C71.4,41,71.1,42.8,71.3,43.8z"/>
	</g>
</g>
<g>
	<g>
		<path class="st4" d="M70.6,39.6c-0.9,0.2-2.7-0.1-3.4-3.7C70.7,36.9,70.8,38.7,70.6,39.6z"/>
		<path class="st4" d="M71.8,39.6c0.9,0.1,2.7-0.3,3.1-4C71.5,36.9,71.5,38.7,71.8,39.6z"/>
	</g>
</g>
<g>
	<g>
		<path class="st4" d="M70.7,35.7c-0.9,0.3-2.7,0.2-3.8-3.2C70.4,33,70.8,34.8,70.7,35.7z"/>
		<path class="st4" d="M71.9,35.5c0.9,0,2.6-0.7,2.5-4.3C71.2,32.9,71.5,34.7,71.9,35.5z"/>
	</g>
</g>
<g>
	<g>
		<path class="st4" d="M70.3,31.8c-0.8,0.4-2.5,0.6-4.1-2.6C69.8,29.3,70.3,30.9,70.3,31.8z"/>
		<path class="st4" d="M71.5,31.4c0.9-0.1,2.4-1,1.9-4.4C70.5,29,71,30.7,71.5,31.4z"/>
	</g>
</g>
<g>
	<g>
		<path class="st4" d="M69.5,28.1c-0.7,0.5-2.4,0.9-4.3-2C68.6,25.7,69.4,27.2,69.5,28.1z"/>
		<path class="st4" d="M70.6,27.5c0.9-0.3,2.2-1.3,1.2-4.6C69.3,25.3,70,26.9,70.6,27.5z"/>
	</g>
</g>
<g>
	<g>
		<path class="st4" d="M68.2,24.4c-0.7,0.5-2.3,1.1-4.3-1.6C67.2,22.2,68.1,23.6,68.2,24.4z"/>
		<path class="st4" d="M69.3,23.9c0.8-0.3,2.1-1.4,0.8-4.5C67.9,21.8,68.6,23.3,69.3,23.9z"/>
	</g>
</g>
<g>
	<path class="st4" d="M66.6,20.9c-0.6,0.6-2,1.4-4.4-0.8C65.3,18.9,66.3,20.1,66.6,20.9z"/>
	<path class="st4" d="M67.5,20.2c0.7-0.4,1.8-1.7,0.1-4.5C65.9,18.4,66.8,19.7,67.5,20.2z"/>
</g>
<g>
	<path class="st4" d="M64.6,17.8c-0.5,0.7-1.8,1.5-4.4-0.4C63.1,16,64.3,17.1,64.6,17.8z"/>
	<path class="st4" d="M65.4,17c0.7-0.5,1.5-1.8-0.3-4.4C63.6,15.5,64.7,16.6,65.4,17z"/>
</g>
<g>
	<path class="st4" d="M62.3,15c-0.4,0.7-1.6,1.7-4.3,0.1C60.6,13.4,61.9,14.4,62.3,15z"/>
	<path class="st4" d="M63,14.2c0.6-0.5,1.3-1.9-0.8-4.2C61.1,12.9,62.3,13.9,63,14.2z"/>
</g>
<g>
	<path class="st4" d="M59.7,12.4c-0.3,0.7-1.4,1.8-4.1,0.6C57.9,11,59.2,11.8,59.7,12.4z"/>
	<path class="st4" d="M60.3,11.5c0.5-0.6,1.1-2-1.2-4C58.3,10.4,59.5,11.3,60.3,11.5z"/>
</g>
<g>
	<path class="st4" d="M56.9,10.3c-0.3,0.7-1.2,1.9-4,0.9C55,9.1,56.3,9.7,56.9,10.3z"/>
	<path class="st4" d="M57.4,9.3c0.5-0.6,0.9-2-1.5-3.8C55.3,8.5,56.6,9.2,57.4,9.3z"/>
</g>
<g>
	<path class="st4" d="M53.8,8.4c-0.2,0.7-1,1.9-3.8,1.1C51.9,7.3,53.3,7.9,53.8,8.4z"/>
	<path class="st4" d="M54.2,7.4c0.4-0.6,0.7-2-1.7-3.6C52.2,6.7,53.5,7.4,54.2,7.4z"/>
</g>
<g>
	<path class="st4" d="M50.6,6.9c-0.1,0.7-0.9,1.9-3.6,1.3C48.7,6,50.1,6.4,50.6,6.9z"/>
	<path class="st4" d="M51,5.9c0.4-0.6,0.6-2-1.9-3.4C49,5.4,50.3,5.9,51,5.9z"/>
</g>
<g>
	<path class="st4" d="M47.3,5.8c-0.1,0.7-0.7,1.9-3.4,1.6C45.4,5.1,46.7,5.4,47.3,5.8z"/>
	<path class="st4" d="M47.6,4.8c0.3-0.6,0.4-2-2.1-3.1C45.6,4.4,46.9,4.8,47.6,4.8z"/>
</g>
<g>
	<path class="st4" d="M44.2,5.1c0,0.7-0.3,1.9-3,2.1C42.3,4.8,43.6,4.8,44.2,5.1z"/>
	<path class="st4" d="M44.3,4.1c0.2-0.7,0-2-2.6-2.6C42.3,4.1,43.6,4.3,44.3,4.1z"/>
</g>
<g>
	<path class="st4" d="M40.3,11.5c-0.4-0.6-1.5-1.6-4-0.1C38.8,13,39.9,12.2,40.3,11.5z"/>
	<path class="st4" d="M36.1,11.6c-0.5-0.6-1.7-1.3-3.9,0.6C34.8,13.3,35.8,12.2,36.1,11.6z"/>
	<path class="st4" d="M32,12.3c-0.6-0.5-1.9-1-3.8,1.3C31,14.2,31.8,13,32,12.3z"/>
	<path class="st4" d="M28,13.8c-0.7-0.4-2.1-0.6-3.5,1.9C27.4,15.8,27.9,14.5,28,13.8z"/>
	<path class="st4" d="M24.3,15.9c-0.7-0.3-2.1-0.2-3.1,2.5C24.1,18.1,24.4,16.7,24.3,15.9z"/>
	<path class="st4" d="M21.1,18.6c-0.7-0.1-2.1,0.1-2.6,3C21.2,20.8,21.3,19.4,21.1,18.6z"/>
	<path class="st4" d="M18.4,21.9c-0.7,0-2.1,0.5-2.1,3.4C18.9,24,18.7,22.6,18.4,21.9z"/>
	<path class="st4" d="M16.3,25.6c-0.7,0.1-2,0.9-1.5,3.7C17.2,27.6,16.8,26.2,16.3,25.6z"/>
	<path class="st4" d="M14.9,29.6c-0.7,0.3-1.8,1.2-0.8,3.9C16.1,31.4,15.4,30.1,14.9,29.6z"/>
	<path class="st4" d="M14.2,33.7c-0.6,0.4-1.6,1.5-0.1,4C15.6,35.3,14.8,34.1,14.2,33.7z"/>
	<path class="st4" d="M14.2,38c-0.6,0.5-1.3,1.7,0.6,3.9C15.9,39.2,14.9,38.3,14.2,38z"/>
	<path class="st4" d="M14.9,42.1c-0.5,0.6-1,1.9,1.3,3.8C16.9,43.1,15.7,42.3,14.9,42.1z"/>
	<path class="st4" d="M16.4,46.1c-0.4,0.7-0.6,2.1,1.9,3.5C18.5,46.7,17.2,46.1,16.4,46.1z"/>
	<path class="st4" d="M18.5,49.8c-0.3,0.7-0.2,2.1,2.5,3.1C20.7,50,19.3,49.7,18.5,49.8z"/>
	<path class="st4" d="M21.3,53c-0.1,0.7,0.1,2.1,3,2.6C23.4,52.8,22,52.8,21.3,53z"/>
	<path class="st4" d="M24.5,55.7c0,0.8,0.5,2.1,3.4,2.1C26.6,55.2,25.2,55.3,24.5,55.7z"/>
	<path class="st4" d="M28.2,57.8c0.1,0.7,0.9,2,3.7,1.5C30.2,56.9,28.8,57.3,28.2,57.8z"/>
	<path class="st4" d="M32.2,59.2c0.3,0.7,1.2,1.8,3.9,0.8C34,58,32.7,58.7,32.2,59.2z"/>
	<path class="st4" d="M36.4,59.9c0.4,0.6,1.5,1.6,4,0.1C37.9,58.4,36.8,59.3,36.4,59.9z"/>
	<path class="st4" d="M40.6,59.9c0.5,0.6,1.7,1.3,3.9-0.6C41.9,58.2,40.9,59.2,40.6,59.9z"/>
	<path class="st4" d="M44.8,59.1c0.6,0.5,1.9,1,3.8-1.3C45.7,57.2,44.9,58.4,44.8,59.1z"/>
	<path class="st4" d="M48.7,57.7c0.7,0.4,2.1,0.6,3.5-1.9C49.3,55.6,48.8,56.9,48.7,57.7z"/>
	<path class="st4" d="M52.4,55.5c0.7,0.3,2.1,0.2,3.1-2.5C52.6,53.4,52.3,54.8,52.4,55.5z"/>
	<path class="st4" d="M55.6,52.8c0.7,0.1,2.1-0.1,2.6-3C55.5,50.7,55.4,52.1,55.6,52.8z"/>
	<path class="st4" d="M58.3,49.5c0.8,0,2.1-0.5,2.1-3.4C57.8,47.5,58,48.9,58.3,49.5z"/>
	<path class="st4" d="M60.4,45.9c0.7-0.1,2-0.9,1.5-3.7C59.6,43.9,60,45.3,60.4,45.9z"/>
	<path class="st4" d="M61.8,41.9c0.7-0.3,1.8-1.2,0.8-3.9C60.7,40.1,61.3,41.4,61.8,41.9z"/>
	<path class="st4" d="M62.6,37.7c0.6-0.4,1.6-1.5,0.1-4C61.1,36.2,61.9,37.3,62.6,37.7z"/>
	<path class="st4" d="M62.5,33.5c0.6-0.5,1.3-1.7-0.6-3.9C60.8,32.2,61.8,33.2,62.5,33.5z"/>
	<path class="st4" d="M61.8,29.3c0.5-0.6,1-1.9-1.3-3.8C59.8,28.4,61,29.2,61.8,29.3z"/>
	<path class="st4" d="M60.3,25.4c0.4-0.7,0.6-2.1-1.9-3.5C58.2,24.7,59.6,25.3,60.3,25.4z"/>
	<path class="st4" d="M58.2,21.7c0.3-0.7,0.2-2.1-2.5-3.1C56,21.5,57.4,21.8,58.2,21.7z"/>
	<path class="st4" d="M55.4,18.5c0.1-0.7-0.1-2.1-3-2.6C53.3,18.6,54.7,18.7,55.4,18.5z"/>
	<path class="st4" d="M52.2,15.8c0-0.8-0.5-2.1-3.4-2.1C50.1,16.3,51.5,16.1,52.2,15.8z"/>
	<path class="st4" d="M48.5,13.7c-0.1-0.7-0.9-2-3.7-1.5C46.5,14.5,47.9,14.1,48.5,13.7z"/>
	<path class="st4" d="M44.5,12.2c-0.3-0.7-1.2-1.8-3.9-0.8C42.7,13.4,44,12.8,44.5,12.2z"/>
</g>
<path class="st4" d="M38.4,60.1c13.4,0,24.4-10.9,24.4-24.4S51.8,11.4,38.4,11.4S14,22.3,14,35.7S24.9,60.1,38.4,60.1z"/>
<g>
	<g>
		<path class="st5" d="M36.6,12.9c0.4-0.6,1.4-1.5,3.7-0.1C38.1,14.3,37,13.5,36.6,12.9z"/>
		<path class="st5" d="M40.6,12.9c0.5-0.5,1.6-1.2,3.7,0.6C41.8,14.6,40.9,13.6,40.6,12.9z"/>
		<path class="st5" d="M44.5,13.7c0.5-0.5,1.8-0.9,3.6,1.2C45.4,15.5,44.7,14.3,44.5,13.7z"/>
		<path class="st5" d="M48.3,15c0.6-0.4,1.9-0.6,3.3,1.8C48.9,17,48.3,15.8,48.3,15z"/>
		<path class="st5" d="M51.7,17.1c0.7-0.2,2-0.2,2.9,2.3C52,19.1,51.6,17.8,51.7,17.1z"/>
		<path class="st5" d="M54.8,19.6c0.7-0.1,2,0.1,2.5,2.8C54.6,21.7,54.6,20.3,54.8,19.6z"/>
		<path class="st5" d="M57.3,22.7c0.7,0,2,0.5,2,3.2C56.8,24.7,57,23.3,57.3,22.7z"/>
		<path class="st5" d="M59.3,26.2c0.7,0.1,1.9,0.8,1.4,3.5C58.5,28,58.9,26.7,59.3,26.2z"/>
		<path class="st5" d="M60.6,29.9c0.7,0.2,1.7,1.1,0.7,3.7C59.5,31.6,60.1,30.4,60.6,29.9z"/>
		<path class="st5" d="M61.3,33.9c0.6,0.4,1.5,1.4,0.1,3.7C59.9,35.3,60.7,34.2,61.3,33.9z"/>
		<path class="st5" d="M61.3,37.8c0.5,0.5,1.2,1.6-0.6,3.7C59.7,39,60.6,38.1,61.3,37.8z"/>
		<path class="st5" d="M60.6,41.8c0.5,0.5,0.9,1.8-1.2,3.6C58.8,42.7,59.9,41.9,60.6,41.8z"/>
		<path class="st5" d="M59.2,45.5c0.4,0.6,0.6,1.9-1.8,3.3C57.2,46.1,58.5,45.5,59.2,45.5z"/>
		<path class="st5" d="M57.2,48.9c0.2,0.7,0.2,2-2.3,2.9C55.2,49.2,56.5,48.9,57.2,48.9z"/>
		<path class="st5" d="M54.6,52c0.1,0.7-0.1,2-2.8,2.5C52.6,51.9,53.9,51.8,54.6,52z"/>
		<path class="st5" d="M51.5,54.5c0,0.7-0.5,2-3.2,2C49.6,54.1,50.9,54.2,51.5,54.5z"/>
		<path class="st5" d="M48.1,56.5c-0.1,0.7-0.8,1.9-3.5,1.4C46.2,55.7,47.5,56.1,48.1,56.5z"/>
		<path class="st5" d="M44.3,57.9c-0.2,0.7-1.1,1.7-3.7,0.7C42.6,56.7,43.8,57.3,44.3,57.9z"/>
		<path class="st5" d="M40.4,58.5C40,59.1,39,60,36.6,58.6C38.9,57.1,40,57.9,40.4,58.5z"/>
		<path class="st5" d="M36.4,58.5c-0.5,0.5-1.6,1.2-3.7-0.6C35.2,56.9,36.1,57.9,36.4,58.5z"/>
		<path class="st5" d="M32.5,57.8c-0.5,0.5-1.8,0.9-3.6-1.2C31.6,56,32.3,57.1,32.5,57.8z"/>
		<path class="st5" d="M28.7,56.4c-0.6,0.4-1.9,0.6-3.3-1.8C28.2,54.5,28.7,55.7,28.7,56.4z"/>
		<path class="st5" d="M25.3,54.4c-0.7,0.2-2,0.2-2.9-2.3C25.1,52.4,25.4,53.7,25.3,54.4z"/>
		<path class="st5" d="M22.2,51.8c-0.7,0.1-2-0.1-2.5-2.8C22.4,49.8,22.5,51.1,22.2,51.8z"/>
		<path class="st5" d="M19.7,48.7c-0.7,0-2-0.5-2-3.2C20.2,46.8,20,48.1,19.7,48.7z"/>
		<path class="st5" d="M17.7,45.3c-0.7-0.1-1.9-0.8-1.4-3.5C18.5,43.4,18.1,44.7,17.7,45.3z"/>
		<path class="st5" d="M16.4,41.5c-0.7-0.2-1.7-1.1-0.7-3.7C17.5,39.8,16.9,41,16.4,41.5z"/>
		<path class="st5" d="M15.7,37.6c-0.6-0.4-1.5-1.4-0.1-3.7C17.1,36.1,16.3,37.2,15.7,37.6z"/>
		<path class="st5" d="M15.7,33.6c-0.5-0.5-1.2-1.6,0.6-3.7C17.4,32.4,16.4,33.3,15.7,33.6z"/>
		<path class="st5" d="M16.4,29.7c-0.5-0.5-0.9-1.8,1.2-3.6C18.3,28.8,17.1,29.5,16.4,29.7z"/>
		<path class="st5" d="M17.8,25.9c-0.4-0.6-0.6-1.9,1.8-3.3C19.8,25.4,18.5,25.9,17.8,25.9z"/>
		<path class="st5" d="M19.8,22.5c-0.2-0.7-0.2-2,2.3-2.9C21.9,22.3,20.5,22.6,19.8,22.5z"/>
		<path class="st5" d="M22.4,19.5c-0.1-0.7,0.1-2,2.8-2.5C24.4,19.6,23.1,19.7,22.4,19.5z"/>
		<path class="st5" d="M25.5,16.9c0-0.7,0.5-2,3.2-2C27.5,17.4,26.1,17.2,25.5,16.9z"/>
		<path class="st5" d="M28.9,14.9c0.1-0.7,0.8-1.9,3.5-1.4C30.8,15.8,29.5,15.4,28.9,14.9z"/>
		<path class="st5" d="M32.7,13.6c0.2-0.7,1.1-1.7,3.7-0.7C34.4,14.7,33.2,14.1,32.7,13.6z"/>
	</g>
</g>
<g>
	<path class="st6" d="M29.8,21.6l-0.7-2.1c0.8-0.3,1.5-0.7,2-1.3c0.6-0.5,1-1.1,1.3-1.7h0.3l2,1.1v21.9h-3V21L29.8,21.6z"/>
	<path class="st6" d="M42.6,16.5h1.1c2.5,0,3.7,1.3,3.7,3.9v15.1c0,2.6-1.2,3.9-3.7,3.9h-1.1v-2.8H43c0.8,0,1.2-0.4,1.2-1.3V20.6
		c0-0.9-0.5-1.3-1.4-1.3h-0.3V16.5z M41.5,39.5c-2.5,0-3.7-1.3-3.7-3.9V20.4c0-2.6,1.2-3.9,3.7-3.9h1.1v2.8h-0.5
		c-0.8,0-1.2,0.4-1.2,1.3v14.8c0,0.9,0.5,1.3,1.4,1.3h0.3v2.8H41.5z"/>
</g>
<g>
	<polygon class="st7" points="52.6,27.9 53.4,30.4 56,30.4 53.9,31.9 54.7,34.4 52.6,32.8 50.5,34.4 51.3,31.9 49.3,30.4 51.8,30.4 
			"/>
	<polygon class="st7" points="24.4,27.9 25.2,30.4 27.8,30.4 25.7,31.9 26.5,34.4 24.4,32.8 22.3,34.4 23.1,31.9 21,30.4 23.6,30.4 
			"/>
</g>
<g>
	<path class="st6" d="M26.1,50.3h-1.2v1h1.5V52H24V48h2.2v0.7h-1.5v0.9h1.2V50.3z"/>
	<path class="st6" d="M28,49.4l0.5-1.3h0.9L28.5,50l0.9,2h-0.9L28,50.6L27.4,52h-0.9l0.9-2L26.5,48h0.9L28,49.4z"/>
	<path class="st6" d="M32.4,50.7c0,0.4-0.1,0.8-0.4,1c-0.2,0.2-0.6,0.3-1,0.3c-0.4,0-0.8-0.1-1-0.4c-0.2-0.3-0.4-0.7-0.4-1.3v-0.7
		c0-0.5,0.1-1,0.4-1.2c0.2-0.3,0.6-0.4,1-0.4c0.4,0,0.8,0.1,1,0.4c0.2,0.2,0.3,0.6,0.4,1h-0.8c0-0.3-0.1-0.5-0.1-0.6
		c-0.1-0.1-0.2-0.2-0.4-0.2c-0.2,0-0.4,0.1-0.5,0.2c-0.1,0.1-0.1,0.4-0.1,0.7v0.7c0,0.4,0,0.7,0.1,0.8c0.1,0.1,0.2,0.2,0.4,0.2
		c0.2,0,0.4-0.1,0.4-0.2s0.1-0.3,0.1-0.6H32.4z"/>
	<path class="st6" d="M34.9,50.3h-1.2v1h1.5V52h-2.3V48h2.2v0.7h-1.5v0.9h1.2V50.3z"/>
	<path class="st6" d="M36.4,51.3h1.4V52h-2.2V48h0.8V51.3z"/>
	<path class="st6" d="M39.1,51.3h1.4V52h-2.2V48h0.8V51.3z"/>
	<path class="st6" d="M42.9,50.3h-1.2v1h1.5V52h-2.3V48h2.2v0.7h-1.5v0.9h1.2V50.3z"/>
	<path class="st6" d="M46.4,52h-0.8l-1.2-2.6V52h-0.8V48h0.8l1.2,2.6V48h0.8V52z"/>
	<path class="st6" d="M49.7,50.7c0,0.4-0.1,0.8-0.4,1c-0.2,0.2-0.6,0.3-1,0.3c-0.4,0-0.8-0.1-1-0.4c-0.2-0.3-0.4-0.7-0.4-1.3v-0.7
		c0-0.5,0.1-1,0.4-1.2s0.6-0.4,1-0.4c0.4,0,0.8,0.1,1,0.4c0.2,0.2,0.3,0.6,0.4,1h-0.8c0-0.3-0.1-0.5-0.1-0.6
		c-0.1-0.1-0.2-0.2-0.4-0.2c-0.2,0-0.4,0.1-0.5,0.2c-0.1,0.1-0.1,0.4-0.1,0.7v0.7c0,0.4,0,0.7,0.1,0.8c0.1,0.1,0.2,0.2,0.4,0.2
		c0.2,0,0.4-0.1,0.4-0.2s0.1-0.3,0.1-0.6H49.7z"/>
	<path class="st6" d="M52.2,50.3h-1.2v1h1.5V52h-2.3V48h2.3v0.7h-1.5v0.9h1.2V50.3z"/>
</g>
<g>
	<path class="st6" d="M25.2,43.3L26,41h1.2l-1.4,3.4v1.9h-1.1v-1.9L23.2,41h1.2L25.2,43.3z"/>
	<path class="st6" d="M30.4,44h-1.7v1.4h2v0.9h-3.1V41h3v0.9h-2v1.3h1.7V44z"/>
	<path class="st6" d="M33.9,45.2h-1.5l-0.3,1.1H31l1.7-5.3h1l1.7,5.3h-1.1L33.9,45.2z M32.6,44.3h1l-0.5-1.9L32.6,44.3z"/>
	<path class="st6" d="M37.4,44.3h-0.5v1.9h-1.1V41h1.7c0.5,0,1,0.1,1.2,0.4c0.3,0.3,0.4,0.7,0.4,1.2c0,0.7-0.3,1.2-0.8,1.5l0.9,2.2
		v0.1h-1.2L37.4,44.3z M36.9,43.4h0.6c0.2,0,0.4-0.1,0.5-0.2c0.1-0.1,0.2-0.3,0.2-0.6c0-0.5-0.2-0.8-0.6-0.8h-0.6V43.4z"/>
	<path class="st6" d="M42.2,44.9c0-0.2-0.1-0.4-0.2-0.5c-0.1-0.1-0.3-0.2-0.6-0.3c-0.5-0.2-0.9-0.4-1.2-0.7c-0.2-0.3-0.4-0.6-0.4-1
		c0-0.4,0.2-0.8,0.5-1.1c0.3-0.3,0.7-0.4,1.2-0.4c0.3,0,0.6,0.1,0.9,0.2s0.5,0.3,0.6,0.6s0.2,0.5,0.2,0.9h-1.1
		c0-0.2-0.1-0.4-0.2-0.6c-0.1-0.1-0.3-0.2-0.5-0.2c-0.2,0-0.3,0.1-0.4,0.2C41.1,42,41,42.2,41,42.4c0,0.1,0.1,0.3,0.2,0.4
		c0.1,0.1,0.3,0.2,0.6,0.4c0.5,0.2,0.9,0.4,1.1,0.7c0.2,0.3,0.4,0.6,0.4,1c0,0.5-0.1,0.8-0.4,1.1s-0.7,0.4-1.2,0.4
		c-0.3,0-0.7-0.1-0.9-0.2c-0.3-0.1-0.5-0.3-0.7-0.6c-0.2-0.3-0.2-0.6-0.2-0.9h1.1c0,0.3,0.1,0.5,0.2,0.7c0.1,0.1,0.3,0.2,0.6,0.2
		C42,45.5,42.2,45.3,42.2,44.9z"/>
	<path class="st6" d="M49.5,44.1c0,0.7-0.2,1.3-0.5,1.7c-0.3,0.4-0.8,0.6-1.4,0.6c-0.6,0-1.1-0.2-1.4-0.6s-0.5-0.9-0.5-1.6v-0.9
		c0-0.7,0.2-1.3,0.5-1.7c0.3-0.4,0.8-0.6,1.4-0.6c0.6,0,1.1,0.2,1.4,0.6c0.3,0.4,0.5,1,0.5,1.7V44.1z M48.4,43.2
		c0-0.5-0.1-0.8-0.2-1.1c-0.1-0.2-0.3-0.4-0.6-0.4c-0.3,0-0.5,0.1-0.6,0.3s-0.2,0.6-0.2,1v0.9c0,0.5,0.1,0.8,0.2,1
		c0.1,0.2,0.4,0.3,0.6,0.3c0.3,0,0.5-0.1,0.6-0.3c0.1-0.2,0.2-0.5,0.2-1V43.2z"/>
	<path class="st6" d="M53,44.1h-1.7v2.2h-1.1V41h2.9v0.9h-1.9v1.4H53V44.1z"/>
</g>
</svg>
