<?xml version="1.0" encoding="utf-8"?>
<!-- Generator: Adobe Illustrator 26.0.0, SVG Export Plug-In . SVG Version: 6.00 Build 0)  -->
<svg version="1.1" xmlns="http://www.w3.org/2000/svg" xmlns:xlink="http://www.w3.org/1999/xlink" x="0px" y="0px"
	 viewBox="0 0 1280 673" style="enable-background:new 0 0 1280 673;" xml:space="preserve">
<style type="text/css">
	.st0{fill:#C5A86B;}
	.st1{opacity:0.7;fill:#FFFFFF;}
	.st2{fill:none;stroke:#263238;stroke-miterlimit:10;}
	.st3{fill:none;stroke:#263238;stroke-width:2;stroke-miterlimit:10;}
	.st4{fill:none;stroke:#263238;stroke-width:0.5;stroke-miterlimit:10;}
	.st5{fill:#263238;stroke:#263238;stroke-miterlimit:10;}
	.st6{fill:#FFFFFF;stroke:#263238;stroke-linecap:round;stroke-linejoin:round;stroke-miterlimit:10;}
	.st7{fill:#263238;stroke:#263238;stroke-linecap:round;stroke-linejoin:round;stroke-miterlimit:10;}
	.st8{fill:none;stroke:#263238;stroke-linecap:round;stroke-linejoin:round;stroke-miterlimit:10;}
	.st9{fill:none;stroke:#263238;stroke-width:0.5;stroke-linecap:round;stroke-linejoin:round;stroke-miterlimit:10;}
	.st10{fill:#263238;stroke:#263238;stroke-width:0.5;stroke-linecap:round;stroke-linejoin:round;stroke-miterlimit:10;}
	.st11{fill:#263238;}
	.st12{fill:#8C8C8C;stroke:#263238;stroke-linecap:round;stroke-linejoin:round;stroke-miterlimit:10;}
	.st13{fill:none;stroke:#FFFFFF;stroke-linecap:round;stroke-linejoin:round;stroke-miterlimit:10;}
	.st14{fill:#D9D9D9;stroke:#263238;stroke-linecap:round;stroke-linejoin:round;stroke-miterlimit:10;}
</style>
<g id="Background_Simple">
</g>
<g id="Floor">
</g>
<g id="Plants">
</g>
<g id="Bulb">
</g>
<g id="Money">
</g>
<g id="Charts">
</g>
<g id="Character_2">
</g>
<g id="Character_1">
	<g>
		<g>
			<path class="st0" d="M485.2-464.2v-15.5h3.5l5.1,11.4h-0.7l5.1-11.4h3.5v15.5H498v-9.5h1l-4.4,9.5h-2.3l-4.4-9.5h1v9.5H485.2z"/>
			<path class="st0" d="M502.7-464.2l7.2-15.5h3.3l7.3,15.5h-4.1l-1.9-4.3l1.6,1.1H507l1.5-1.1l-1.9,4.3H502.7z M511.5-475.5
				l-2.6,6.1l-0.6-1h6.4l-0.5,1l-2.6-6.1H511.5z"/>
			<path class="st0" d="M521.5-464.2v-15.5h3l7.9,9.8h-0.6v-9.8h3.8v15.5h-3l-7.8-9.8h0.6v9.8H521.5z"/>
			<path class="st0" d="M536.4-464.2l7.2-15.5h3.3l7.3,15.5h-4.1l-1.9-4.3l1.6,1.1h-9.1l1.5-1.1l-1.9,4.3H536.4z M545.3-475.5
				l-2.6,6.1l-0.6-1h6.4l-0.5,1l-2.6-6.1H545.3z"/>
			<path class="st0" d="M563.1-464c-1.8,0-3.3-0.3-4.6-1s-2.2-1.6-2.8-2.8c-0.6-1.2-1-2.6-1-4.2c0-1.6,0.3-3.1,1-4.3
				c0.7-1.2,1.7-2.1,3-2.8c1.3-0.7,2.9-1,4.7-1c1.1,0,2.1,0.1,3,0.4c0.9,0.3,1.6,0.6,2.3,1.1l-1.3,3.1c-0.5-0.3-0.9-0.5-1.3-0.7
				c-0.4-0.2-0.8-0.3-1.2-0.4c-0.4-0.1-0.9-0.1-1.4-0.1c-1.5,0-2.7,0.4-3.4,1.2s-1.1,1.9-1.1,3.5c0,1.5,0.3,2.6,1,3.4
				c0.7,0.8,1.8,1.1,3.3,1.1c0.5,0,1,0,1.5-0.1c0.5-0.1,1.1-0.2,1.6-0.4l-0.7,1.5v-3.7h-3.2v-2.8h6.5v7.7c-0.8,0.4-1.7,0.7-2.8,0.9
				C565.3-464.1,564.2-464,563.1-464z"/>
			<path class="st0" d="M571.7-464.2v-15.5h11.1v3.1h-7.2v3h6.7v3.1h-6.7v3.2h7.2v3.1H571.7z"/>
			<path class="st0" d="M585-464.2v-15.5h3.5l5.1,11.4h-0.7l5.1-11.4h3.5v15.5h-3.7v-9.5h1l-4.4,9.5h-2.3l-4.4-9.5h1v9.5H585z"/>
			<path class="st0" d="M604.4-464.2v-15.5h11.1v3.1h-7.2v3h6.7v3.1h-6.7v3.2h7.2v3.1H604.4z"/>
			<path class="st0" d="M617.7-464.2v-15.5h3l7.9,9.8h-0.6v-9.8h3.8v15.5h-3l-7.8-9.8h0.6v9.8H617.7z"/>
			<path class="st0" d="M638.1-464.2v-12.2h-4.7v-3.3h13.5v3.3h-4.7v12.2H638.1z"/>
			<path class="st0" d="M485.1-437.8v-15.5h7.3c1.8,0,3.2,0.4,4.1,1.3c1,0.9,1.5,2,1.5,3.5c0,1-0.2,1.9-0.6,2.6
				c-0.4,0.7-1.1,1.3-1.9,1.7c-0.8,0.4-1.8,0.6-3,0.6l0.2-0.6h1.1c0.6,0,1.2,0.2,1.7,0.5c0.5,0.4,0.9,0.8,1.3,1.5l2.3,4.4h-4.5
				l-2.5-4.9c-0.1-0.3-0.4-0.6-0.7-0.7c-0.3-0.1-0.7-0.2-1.1-0.2h-1.2v5.8H485.1z M489.2-446.5h2.6c0.8,0,1.4-0.2,1.8-0.5
				s0.6-0.8,0.6-1.4c0-0.6-0.2-1.1-0.6-1.4c-0.4-0.3-1-0.5-1.8-0.5h-2.6V-446.5z"/>
			<path class="st0" d="M500.8-437.8v-15.5h11.1v3.1h-7.2v3h6.7v3.1h-6.7v3.2h7.2v3.1H500.8z"/>
			<path class="st0" d="M514.1-437.8v-15.5h7.6c1.8,0,3.1,0.4,4,1.3c0.9,0.9,1.4,2.1,1.4,3.6c0,1.5-0.5,2.7-1.4,3.5
				c-0.9,0.9-2.3,1.3-4,1.3h-3.5v5.8H514.1z M518.1-446.7h3c0.7,0,1.2-0.1,1.5-0.5c0.3-0.3,0.5-0.7,0.5-1.3c0-0.6-0.2-1-0.5-1.3
				c-0.3-0.3-0.9-0.5-1.5-0.5h-3V-446.7z"/>
			<path class="st0" d="M528.7-445.6c0-1.6,0.3-3,0.9-4.2c0.6-1.2,1.5-2.1,2.7-2.8c1.2-0.7,2.6-1,4.2-1c1.6,0,3,0.3,4.2,1
				s2.1,1.6,2.7,2.8c0.6,1.2,1,2.6,1,4.2c0,1.6-0.3,3-1,4.2c-0.6,1.2-1.5,2.1-2.7,2.8c-1.2,0.7-2.6,1-4.2,1c-1.6,0-3-0.3-4.2-1
				c-1.2-0.7-2.1-1.6-2.7-2.8S528.7-444,528.7-445.6z M532.9-445.6c0,1.5,0.3,2.6,0.9,3.4s1.5,1.2,2.7,1.2c1.2,0,2.1-0.4,2.7-1.2
				s0.9-2,0.9-3.4c0-1.4-0.3-2.6-0.9-3.4c-0.6-0.8-1.5-1.2-2.7-1.2c-1.2,0-2.1,0.4-2.7,1.2S532.9-447.1,532.9-445.6z"/>
			<path class="st0" d="M546.8-437.8v-15.5h7.3c1.8,0,3.2,0.4,4.1,1.3c1,0.9,1.5,2,1.5,3.5c0,1-0.2,1.9-0.6,2.6
				c-0.4,0.7-1.1,1.3-1.9,1.7c-0.8,0.4-1.8,0.6-3,0.6l0.2-0.6h1.1c0.6,0,1.2,0.2,1.7,0.5c0.5,0.4,0.9,0.8,1.3,1.5l2.3,4.4h-4.5
				l-2.5-4.9c-0.1-0.3-0.4-0.6-0.7-0.7c-0.3-0.1-0.7-0.2-1.1-0.2h-1.2v5.8H546.8z M550.9-446.5h2.6c0.8,0,1.4-0.2,1.8-0.5
				s0.6-0.8,0.6-1.4c0-0.6-0.2-1.1-0.6-1.4c-0.4-0.3-1-0.5-1.8-0.5h-2.6V-446.5z"/>
			<path class="st0" d="M566-437.8v-12.2h-4.7v-3.3h13.5v3.3h-4.7v12.2H566z"/>
		</g>
	</g>
</g>
<g id="Device_1_">
</g>
<g id="Table">
	<g>
		<g>
			<path class="st0" d="M978.8,183.2c0,0-133.5-136.7-306.9-147.2S397.4,137.4,349.5,204.2C301.6,271.1,182,382.4,196.1,484.3
				c14.1,101.9,152.3,179.3,350.4,145.3c198-34,255.4-46.9,345.7-21.1c90.2,25.8,207.4-12.9,209.7-159.4
				C1104.2,302.7,978.8,183.2,978.8,183.2z"/>
			<path class="st1" d="M1087.1,183.2c0,0-180.6-136.7-415.2-147.2S300.3,137.4,235.5,204.2C170.7,271.1,9,382.4,28,484.3
				c19,101.9,206.1,179.3,474,145.3c267.9-34,345.6-46.9,467.7-21.1c122.1,25.8,280.6-12.9,283.8-159.4
				C1256.7,302.7,1087.1,183.2,1087.1,183.2z"/>
		</g>
		<line class="st2" x1="221.6" y1="594.3" x2="1068.1" y2="594.3"/>
		<g>
			<g>
				<line class="st3" x1="258.5" y1="377.3" x2="275.6" y2="541.3"/>
				<g>
					<g>
						<line class="st3" x1="272.9" y1="510" x2="265.1" y2="501.8"/>
						<path class="st0" d="M267.5,504.2c0,0,0.2-3.6-3.1-6.6c-2-1.8-12.5-6.2-13.5-2.5C249.8,499.1,260.6,507,267.5,504.2z"/>
						<line class="st4" x1="267.5" y1="504.2" x2="257.5" y2="498"/>
					</g>
					<g>
						<line class="st3" x1="274.8" y1="528.6" x2="267" y2="520.4"/>
						<path class="st0" d="M269.4,522.9c0,0,0.2-3.6-3.1-6.6c-2-1.8-12.5-6.2-13.5-2.5C251.8,517.8,262.5,525.7,269.4,522.9z"/>
						<line class="st4" x1="269.4" y1="522.9" x2="259.4" y2="516.6"/>
					</g>
					<g>
						<line class="st3" x1="268.1" y1="464.4" x2="260.4" y2="456.2"/>
						<path class="st0" d="M262.7,458.7c0,0,0.2-3.6-3.1-6.6c-2-1.8-12.5-6.2-13.5-2.5C245.1,453.6,255.8,461.5,262.7,458.7z"/>
						<line class="st4" x1="262.7" y1="458.7" x2="252.7" y2="452.5"/>
					</g>
					<g>
						<line class="st3" x1="270.1" y1="483.1" x2="262.3" y2="474.9"/>
						<path class="st0" d="M264.7,477.3c0,0,0.2-3.6-3.1-6.6c-2-1.8-12.5-6.2-13.5-2.5C247,472.3,257.7,480.2,264.7,477.3z"/>
						<line class="st4" x1="264.7" y1="477.3" x2="254.7" y2="471.1"/>
					</g>
					<g>
						<line class="st3" x1="264.9" y1="434.1" x2="257.2" y2="425.9"/>
						<path class="st0" d="M259.5,428.4c0,0,0.2-3.6-3.1-6.6c-2-1.8-12.5-6.2-13.5-2.5C241.9,423.3,252.6,431.2,259.5,428.4z"/>
						<line class="st4" x1="259.5" y1="428.4" x2="249.6" y2="422.2"/>
					</g>
					<g>
						<line class="st3" x1="261.8" y1="403.7" x2="254" y2="395.5"/>
						<path class="st0" d="M256.4,398c0,0,0.2-3.6-3.1-6.6c-2-1.8-12.5-6.2-13.5-2.5C238.7,392.9,249.5,400.8,256.4,398z"/>
						<line class="st4" x1="256.4" y1="398" x2="246.4" y2="391.8"/>
					</g>
					<g>
						<line class="st3" x1="271.6" y1="498.9" x2="277.5" y2="489.3"/>
						<path class="st0" d="M275.7,492.2c0,0-1-3.5,1.7-7.1c1.6-2.2,10.9-8.6,12.7-5.2C291.9,483.6,283,493.5,275.7,492.2z"/>
						<line class="st4" x1="275.7" y1="492.2" x2="284.6" y2="483.6"/>
					</g>
					<g>
						<line class="st3" x1="266.4" y1="449.8" x2="272.3" y2="440.2"/>
						<path class="st0" d="M270.5,443.1c0,0-1-3.5,1.7-7.1c1.6-2.2,10.9-8.6,12.7-5.2C286.7,434.5,277.9,444.4,270.5,443.1z"/>
						<line class="st4" x1="270.5" y1="443.1" x2="279.5" y2="434.5"/>
					</g>
					<g>
						<line class="st3" x1="264.2" y1="428.3" x2="270.1" y2="418.6"/>
						<path class="st0" d="M268.3,421.5c0,0-1-3.5,1.7-7.1c1.6-2.2,10.9-8.6,12.7-5.2C284.5,412.9,275.6,422.9,268.3,421.5z"/>
						<line class="st4" x1="268.3" y1="421.5" x2="277.3" y2="412.9"/>
					</g>
					<g>
						<line class="st3" x1="260.9" y1="396.6" x2="266.8" y2="387"/>
						<path class="st0" d="M265,389.9c0,0-1-3.5,1.7-7.1c1.6-2.2,10.9-8.6,12.7-5.2C281.2,381.3,272.3,391.2,265,389.9z"/>
						<line class="st4" x1="265" y1="389.9" x2="274" y2="381.3"/>
						<path class="st0" d="M258.4,376.4c0,0-1-3.5,1.7-7.1c1.6-2.2,10.9-8.6,12.7-5.2C274.6,367.8,265.7,377.8,258.4,376.4z"/>
						<line class="st4" x1="258.4" y1="376.4" x2="267.3" y2="367.8"/>
						<path class="st0" d="M258.9,376.8c0,0-3.6,0.6-6.9-2.4c-2-1.8-7.4-11.8-3.9-13.1C252,359.8,261,369.6,258.9,376.8z"/>
						<line class="st4" x1="258.9" y1="376.8" x2="251.3" y2="367"/>
					</g>
				</g>
			</g>
			<g>
				<line class="st3" x1="303.6" y1="399.9" x2="286.6" y2="563.9"/>
				<g>
					<g>
						<line class="st3" x1="290.4" y1="532.6" x2="284.5" y2="523"/>
						<path class="st0" d="M286.3,525.9c0,0,1-3.5-1.7-7.1c-1.6-2.2-10.9-8.6-12.7-5.2C270.1,517.3,278.9,527.3,286.3,525.9z"/>
						<line class="st4" x1="286.3" y1="525.9" x2="277.8" y2="517.8"/>
					</g>
					<g>
						<line class="st3" x1="295.1" y1="487.1" x2="289.2" y2="477.5"/>
						<path class="st0" d="M291,480.4c0,0,1-3.5-1.7-7.1c-1.6-2.2-10.9-8.6-12.7-5.2C274.8,471.8,283.7,481.7,291,480.4z"/>
						<line class="st4" x1="291" y1="480.4" x2="282.5" y2="472.3"/>
					</g>
					<g>
						<line class="st3" x1="293.2" y1="505.8" x2="287.3" y2="496.2"/>
						<path class="st0" d="M289.1,499.1c0,0,1-3.5-1.7-7.1c-1.6-2.2-10.9-8.6-12.7-5.2C272.9,490.5,281.7,500.4,289.1,499.1z"/>
						<line class="st4" x1="289.1" y1="499.1" x2="280.6" y2="490.9"/>
					</g>
					<g>
						<line class="st3" x1="298.3" y1="456.8" x2="292.4" y2="447.2"/>
						<path class="st0" d="M294.2,450.1c0,0,1-3.5-1.7-7.1c-1.6-2.2-10.9-8.6-12.7-5.2C277.9,441.5,286.8,451.4,294.2,450.1z"/>
						<line class="st4" x1="294.2" y1="450.1" x2="285.7" y2="442"/>
					</g>
					<g>
						<line class="st3" x1="301.4" y1="426.4" x2="295.5" y2="416.8"/>
						<path class="st0" d="M297.3,419.7c0,0,1-3.5-1.7-7.1c-1.6-2.2-10.9-8.6-12.7-5.2C281.1,411.1,290,421,297.3,419.7z"/>
						<line class="st4" x1="297.3" y1="419.7" x2="288.8" y2="411.5"/>
					</g>
					<g>
						<line class="st3" x1="291.4" y1="521.6" x2="299.1" y2="513.4"/>
						<path class="st0" d="M296.8,515.8c0,0-0.2-3.6,3.1-6.6c2-1.8,12.5-6.2,13.5-2.5C314.4,510.8,303.7,518.7,296.8,515.8z"/>
						<line class="st4" x1="296.8" y1="515.8" x2="307.3" y2="509.3"/>
					</g>
					<g>
						<line class="st3" x1="296.5" y1="472.5" x2="304.2" y2="464.3"/>
						<path class="st0" d="M301.9,466.8c0,0-0.2-3.6,3.1-6.6c2-1.8,12.5-6.2,13.5-2.5C319.5,461.7,308.8,469.6,301.9,466.8z"/>
						<line class="st4" x1="301.9" y1="466.8" x2="312.4" y2="460.2"/>
					</g>
					<g>
						<line class="st3" x1="298.7" y1="450.9" x2="306.5" y2="442.7"/>
						<path class="st0" d="M304.1,445.2c0,0-0.2-3.6,3.1-6.6c2-1.8,12.5-6.2,13.5-2.5C321.7,440.1,311,448,304.1,445.2z"/>
						<line class="st4" x1="304.1" y1="445.2" x2="314.7" y2="438.6"/>
					</g>
					<g>
						<line class="st3" x1="302" y1="419.3" x2="309.8" y2="411.1"/>
						<path class="st0" d="M307.4,413.6c0,0-0.2-3.6,3.1-6.6c2-1.8,12.5-6.2,13.5-2.5C325,408.5,314.3,416.4,307.4,413.6z"/>
						<line class="st4" x1="307.4" y1="413.6" x2="318" y2="407"/>
						<path class="st0" d="M303.7,399c0,0-0.2-3.6,3.1-6.6c2-1.8,12.5-6.2,13.5-2.5C321.3,393.9,310.6,401.8,303.7,399z"/>
						<line class="st4" x1="303.7" y1="399" x2="314.3" y2="392.4"/>
						<path class="st0" d="M304.1,399.5c0,0-3.6-0.2-6.2-3.8c-1.6-2.2-4.9-13.1-1.1-13.7C300.9,381.4,307.7,392.9,304.1,399.5z"/>
						<line class="st4" x1="304.1" y1="399.5" x2="298.7" y2="388.3"/>
					</g>
				</g>
			</g>
			<line class="st3" x1="284.1" y1="333.1" x2="284.1" y2="540.5"/>
			<g>
				<g>
					<line class="st3" x1="284.3" y1="509.4" x2="277.4" y2="500.4"/>
					<path class="st0" d="M279.5,503.1c0,0,0.6-3.6-2.4-6.9c-1.8-2-11.8-7.4-13.1-3.9C262.5,496.2,272.4,505.2,279.5,503.1z"/>
					<line class="st4" x1="279.5" y1="503.1" x2="270.3" y2="495.9"/>
				</g>
				<g>
					<line class="st3" x1="284.3" y1="470.4" x2="277.4" y2="461.4"/>
					<path class="st0" d="M279.5,464.1c0,0,0.6-3.6-2.4-6.9c-1.8-2-11.8-7.4-13.1-3.9C262.5,457.2,272.4,466.2,279.5,464.1z"/>
					<line class="st4" x1="279.5" y1="464.1" x2="270.3" y2="456.9"/>
				</g>
				<g>
					<line class="st3" x1="284.3" y1="424.6" x2="277.4" y2="415.7"/>
					<path class="st0" d="M279.5,418.3c0,0,0.6-3.6-2.4-6.9c-1.8-2-11.8-7.4-13.1-3.9C262.5,411.5,272.4,420.4,279.5,418.3z"/>
					<line class="st4" x1="279.5" y1="418.3" x2="270.3" y2="411.1"/>
				</g>
				<g>
					<line class="st3" x1="284.3" y1="394.2" x2="277.4" y2="385.2"/>
					<path class="st0" d="M279.5,387.9c0,0,0.6-3.6-2.4-6.9c-1.8-2-11.8-7.4-13.1-3.9C262.5,381,272.4,390,279.5,387.9z"/>
					<line class="st4" x1="279.5" y1="387.9" x2="270.3" y2="380.7"/>
				</g>
				<g>
					<line class="st3" x1="284.3" y1="363.6" x2="277.4" y2="354.6"/>
					<path class="st0" d="M279.5,357.3c0,0,0.6-3.6-2.4-6.9c-1.8-2-11.8-7.4-13.1-3.9C262.5,350.4,272.4,359.4,279.5,357.3z"/>
					<line class="st4" x1="279.5" y1="357.3" x2="270.3" y2="350.1"/>
				</g>
				<g>
					<line class="st3" x1="284.2" y1="521.3" x2="291" y2="512.3"/>
					<path class="st0" d="M288.9,515c0,0-0.6-3.6,2.4-6.9c1.8-2,11.8-7.4,13.1-3.9C305.9,508.1,296.1,517.1,288.9,515z"/>
					<line class="st4" x1="288.9" y1="515" x2="298.8" y2="507.4"/>
				</g>
				<g>
					<line class="st3" x1="284.2" y1="459.3" x2="291" y2="450.3"/>
					<path class="st0" d="M288.9,453c0,0-0.6-3.6,2.4-6.9c1.8-2,11.8-7.4,13.1-3.9C305.9,446.1,296.1,455.1,288.9,453z"/>
					<line class="st4" x1="288.9" y1="453" x2="298.8" y2="445.4"/>
				</g>
				<g>
					<line class="st3" x1="284.2" y1="428.7" x2="291" y2="419.7"/>
					<path class="st0" d="M288.9,422.4c0,0-0.6-3.6,2.4-6.9c1.8-2,11.8-7.4,13.1-3.9C305.9,415.5,296.1,424.5,288.9,422.4z"/>
					<line class="st4" x1="288.9" y1="422.4" x2="298.8" y2="414.8"/>
				</g>
				<g>
					<line class="st3" x1="284.2" y1="388.2" x2="291" y2="379.3"/>
					<path class="st0" d="M288.9,382c0,0-0.6-3.6,2.4-6.9c1.8-2,11.8-7.4,13.1-3.9C305.9,375.1,296.1,384.1,288.9,382z"/>
					<line class="st4" x1="288.9" y1="382" x2="298.8" y2="374.4"/>
				</g>
				<g>
					<line class="st3" x1="284.2" y1="356.4" x2="291" y2="347.5"/>
					<path class="st0" d="M288.9,350.2c0,0-0.6-3.6,2.4-6.9c1.8-2,11.8-7.4,13.1-3.9C305.9,343.3,296.1,352.3,288.9,350.2z"/>
					<line class="st4" x1="288.9" y1="350.2" x2="298.8" y2="342.6"/>
					<path class="st0" d="M283.7,336.1c0,0-0.6-3.6,2.4-6.9c1.8-2,11.8-7.4,13.1-3.9C300.8,329.2,290.9,338.2,283.7,336.1z"/>
					<line class="st4" x1="283.7" y1="336.1" x2="293.6" y2="328.5"/>
					<path class="st0" d="M284.2,336.5c0,0-3.6,0.2-6.6-3.1c-1.8-2-6.2-12.5-2.5-13.5C279.2,318.9,287.1,329.6,284.2,336.5z"/>
					<line class="st4" x1="284.2" y1="336.5" x2="277.7" y2="325.9"/>
				</g>
			</g>
			<polygon class="st5" points="292.7,594.3 270.7,594.3 268,538.9 295.4,538.9 			"/>
		</g>
		<g>
			<g>
				<line class="st3" x1="994.4" y1="377.3" x2="1011.5" y2="541.3"/>
				<g>
					<g>
						<line class="st3" x1="1008.8" y1="510" x2="1001" y2="501.8"/>
						<path class="st0" d="M1003.4,504.2c0,0,0.2-3.6-3.1-6.6c-2-1.8-12.5-6.2-13.5-2.5C985.7,499.1,996.5,507,1003.4,504.2z"/>
						<line class="st4" x1="1003.4" y1="504.2" x2="993.4" y2="498"/>
					</g>
					<g>
						<line class="st3" x1="1010.7" y1="528.6" x2="1002.9" y2="520.4"/>
						<path class="st0" d="M1005.3,522.9c0,0,0.2-3.6-3.1-6.6c-2-1.8-12.5-6.2-13.5-2.5C987.7,517.8,998.4,525.7,1005.3,522.9z"/>
						<line class="st4" x1="1005.3" y1="522.9" x2="995.3" y2="516.6"/>
					</g>
					<g>
						<line class="st3" x1="1004" y1="464.4" x2="996.3" y2="456.2"/>
						<path class="st0" d="M998.6,458.7c0,0,0.2-3.6-3.1-6.6c-2-1.8-12.5-6.2-13.5-2.5C981,453.6,991.7,461.5,998.6,458.7z"/>
						<line class="st4" x1="998.6" y1="458.7" x2="988.6" y2="452.5"/>
					</g>
					<g>
						<line class="st3" x1="1006" y1="483.1" x2="998.2" y2="474.9"/>
						<path class="st0" d="M1000.6,477.3c0,0,0.2-3.6-3.1-6.6c-2-1.8-12.5-6.2-13.5-2.5C982.9,472.3,993.6,480.2,1000.6,477.3z"/>
						<line class="st4" x1="1000.6" y1="477.3" x2="990.6" y2="471.1"/>
					</g>
					<g>
						<line class="st3" x1="1000.8" y1="434.1" x2="993.1" y2="425.9"/>
						<path class="st0" d="M995.4,428.4c0,0,0.2-3.6-3.1-6.6c-2-1.8-12.5-6.2-13.5-2.5C977.8,423.3,988.5,431.2,995.4,428.4z"/>
						<line class="st4" x1="995.4" y1="428.4" x2="985.5" y2="422.2"/>
					</g>
					<g>
						<line class="st3" x1="997.7" y1="403.7" x2="989.9" y2="395.5"/>
						<path class="st0" d="M992.3,398c0,0,0.2-3.6-3.1-6.6c-2-1.8-12.5-6.2-13.5-2.5C974.6,392.9,985.4,400.8,992.3,398z"/>
						<line class="st4" x1="992.3" y1="398" x2="982.3" y2="391.8"/>
					</g>
					<g>
						<line class="st3" x1="1007.5" y1="498.9" x2="1013.4" y2="489.3"/>
						<path class="st0" d="M1011.6,492.2c0,0-1-3.5,1.7-7.1c1.6-2.2,10.9-8.6,12.7-5.2C1027.8,483.6,1018.9,493.5,1011.6,492.2z"/>
						<line class="st4" x1="1011.6" y1="492.2" x2="1020.5" y2="483.6"/>
					</g>
					<g>
						<line class="st3" x1="1002.3" y1="449.8" x2="1008.2" y2="440.2"/>
						<path class="st0" d="M1006.4,443.1c0,0-1-3.5,1.7-7.1c1.6-2.2,10.9-8.6,12.7-5.2C1022.6,434.5,1013.8,444.4,1006.4,443.1z"/>
						<line class="st4" x1="1006.4" y1="443.1" x2="1015.4" y2="434.5"/>
					</g>
					<g>
						<line class="st3" x1="1000.1" y1="428.3" x2="1006" y2="418.6"/>
						<path class="st0" d="M1004.2,421.5c0,0-1-3.5,1.7-7.1c1.6-2.2,10.9-8.6,12.7-5.2C1020.4,412.9,1011.5,422.9,1004.2,421.5z"/>
						<line class="st4" x1="1004.2" y1="421.5" x2="1013.2" y2="412.9"/>
					</g>
					<g>
						<line class="st3" x1="996.8" y1="396.6" x2="1002.7" y2="387"/>
						<path class="st0" d="M1000.9,389.9c0,0-1-3.5,1.7-7.1c1.6-2.2,10.9-8.6,12.7-5.2C1017.1,381.3,1008.2,391.2,1000.9,389.9z"/>
						<line class="st4" x1="1000.9" y1="389.9" x2="1009.9" y2="381.3"/>
						<path class="st0" d="M994.3,376.4c0,0-1-3.5,1.7-7.1c1.6-2.2,10.9-8.6,12.7-5.2C1010.5,367.8,1001.6,377.8,994.3,376.4z"/>
						<line class="st4" x1="994.3" y1="376.4" x2="1003.2" y2="367.8"/>
						<path class="st0" d="M994.8,376.8c0,0-3.6,0.6-6.9-2.4c-2-1.8-7.4-11.8-3.9-13.1C987.9,359.8,996.9,369.6,994.8,376.8z"/>
						<line class="st4" x1="994.8" y1="376.8" x2="987.2" y2="367"/>
					</g>
				</g>
			</g>
			<g>
				<line class="st3" x1="1039.5" y1="399.9" x2="1022.5" y2="563.9"/>
				<g>
					<g>
						<line class="st3" x1="1026.3" y1="532.6" x2="1020.4" y2="523"/>
						<path class="st0" d="M1022.2,525.9c0,0,1-3.5-1.7-7.1c-1.6-2.2-10.9-8.6-12.7-5.2C1006,517.3,1014.8,527.3,1022.2,525.9z"/>
						<line class="st4" x1="1022.2" y1="525.9" x2="1013.7" y2="517.8"/>
					</g>
					<g>
						<line class="st3" x1="1031" y1="487.1" x2="1025.1" y2="477.5"/>
						<path class="st0" d="M1026.9,480.4c0,0,1-3.5-1.7-7.1c-1.6-2.2-10.9-8.6-12.7-5.2C1010.7,471.8,1019.6,481.7,1026.9,480.4z"/>
						<line class="st4" x1="1026.9" y1="480.4" x2="1018.4" y2="472.3"/>
					</g>
					<g>
						<line class="st3" x1="1029.1" y1="505.8" x2="1023.2" y2="496.2"/>
						<path class="st0" d="M1025,499.1c0,0,1-3.5-1.7-7.1c-1.6-2.2-10.9-8.6-12.7-5.2C1008.8,490.5,1017.6,500.4,1025,499.1z"/>
						<line class="st4" x1="1025" y1="499.1" x2="1016.5" y2="490.9"/>
					</g>
					<g>
						<line class="st3" x1="1034.2" y1="456.8" x2="1028.3" y2="447.2"/>
						<path class="st0" d="M1030.1,450.1c0,0,1-3.5-1.7-7.1c-1.6-2.2-10.9-8.6-12.7-5.2C1013.8,441.5,1022.7,451.4,1030.1,450.1z"/>
						<line class="st4" x1="1030.1" y1="450.1" x2="1021.6" y2="442"/>
					</g>
					<g>
						<line class="st3" x1="1037.3" y1="426.4" x2="1031.4" y2="416.8"/>
						<path class="st0" d="M1033.2,419.7c0,0,1-3.5-1.7-7.1c-1.6-2.2-10.9-8.6-12.7-5.2C1017,411.1,1025.9,421,1033.2,419.7z"/>
						<line class="st4" x1="1033.2" y1="419.7" x2="1024.7" y2="411.5"/>
					</g>
					<g>
						<line class="st3" x1="1027.3" y1="521.6" x2="1035" y2="513.4"/>
						<path class="st0" d="M1032.7,515.8c0,0-0.2-3.6,3.1-6.6c2-1.8,12.5-6.2,13.5-2.5C1050.3,510.8,1039.6,518.7,1032.7,515.8z"/>
						<line class="st4" x1="1032.7" y1="515.8" x2="1043.2" y2="509.3"/>
					</g>
					<g>
						<line class="st3" x1="1032.4" y1="472.5" x2="1040.1" y2="464.3"/>
						<path class="st0" d="M1037.8,466.8c0,0-0.2-3.6,3.1-6.6c2-1.8,12.5-6.2,13.5-2.5C1055.4,461.7,1044.7,469.6,1037.8,466.8z"/>
						<line class="st4" x1="1037.8" y1="466.8" x2="1048.3" y2="460.2"/>
					</g>
					<g>
						<line class="st3" x1="1034.6" y1="450.9" x2="1042.4" y2="442.7"/>
						<path class="st0" d="M1040,445.2c0,0-0.2-3.6,3.1-6.6c2-1.8,12.5-6.2,13.5-2.5C1057.7,440.1,1046.9,448,1040,445.2z"/>
						<line class="st4" x1="1040" y1="445.2" x2="1050.6" y2="438.6"/>
					</g>
					<g>
						<line class="st3" x1="1037.9" y1="419.3" x2="1045.7" y2="411.1"/>
						<path class="st0" d="M1043.3,413.6c0,0-0.2-3.6,3.1-6.6c2-1.8,12.5-6.2,13.5-2.5C1060.9,408.5,1050.2,416.4,1043.3,413.6z"/>
						<line class="st4" x1="1043.3" y1="413.6" x2="1053.9" y2="407"/>
						<path class="st0" d="M1039.6,399c0,0-0.2-3.6,3.1-6.6c2-1.8,12.5-6.2,13.5-2.5C1057.2,393.9,1046.5,401.8,1039.6,399z"/>
						<line class="st4" x1="1039.6" y1="399" x2="1050.2" y2="392.4"/>
						<path class="st0" d="M1040,399.5c0,0-3.6-0.2-6.2-3.8c-1.6-2.2-4.9-13.1-1.1-13.7C1036.8,381.4,1043.6,392.9,1040,399.5z"/>
						<line class="st4" x1="1040" y1="399.5" x2="1034.6" y2="388.3"/>
					</g>
				</g>
			</g>
			<line class="st3" x1="1020" y1="333.1" x2="1020" y2="540.5"/>
			<g>
				<g>
					<line class="st3" x1="1020.2" y1="509.4" x2="1013.3" y2="500.4"/>
					<path class="st0" d="M1015.4,503.1c0,0,0.6-3.6-2.4-6.9c-1.8-2-11.8-7.4-13.1-3.9C998.4,496.2,1008.3,505.2,1015.4,503.1z"/>
					<line class="st4" x1="1015.4" y1="503.1" x2="1006.2" y2="495.9"/>
				</g>
				<g>
					<line class="st3" x1="1020.2" y1="470.4" x2="1013.3" y2="461.4"/>
					<path class="st0" d="M1015.4,464.1c0,0,0.6-3.6-2.4-6.9c-1.8-2-11.8-7.4-13.1-3.9C998.4,457.2,1008.3,466.2,1015.4,464.1z"/>
					<line class="st4" x1="1015.4" y1="464.1" x2="1006.2" y2="456.9"/>
				</g>
				<g>
					<line class="st3" x1="1020.2" y1="424.6" x2="1013.3" y2="415.7"/>
					<path class="st0" d="M1015.4,418.3c0,0,0.6-3.6-2.4-6.9c-1.8-2-11.8-7.4-13.1-3.9C998.4,411.5,1008.3,420.4,1015.4,418.3z"/>
					<line class="st4" x1="1015.4" y1="418.3" x2="1006.2" y2="411.1"/>
				</g>
				<g>
					<line class="st3" x1="1020.2" y1="394.2" x2="1013.3" y2="385.2"/>
					<path class="st0" d="M1015.4,387.9c0,0,0.6-3.6-2.4-6.9c-1.8-2-11.8-7.4-13.1-3.9C998.4,381,1008.3,390,1015.4,387.9z"/>
					<line class="st4" x1="1015.4" y1="387.9" x2="1006.2" y2="380.7"/>
				</g>
				<g>
					<line class="st3" x1="1020.2" y1="363.6" x2="1013.3" y2="354.6"/>
					<path class="st0" d="M1015.4,357.3c0,0,0.6-3.6-2.4-6.9c-1.8-2-11.8-7.4-13.1-3.9C998.4,350.4,1008.3,359.4,1015.4,357.3z"/>
					<line class="st4" x1="1015.4" y1="357.3" x2="1006.2" y2="350.1"/>
				</g>
				<g>
					<line class="st3" x1="1020.1" y1="521.3" x2="1026.9" y2="512.3"/>
					<path class="st0" d="M1024.8,515c0,0-0.6-3.6,2.4-6.9c1.8-2,11.8-7.4,13.1-3.9C1041.8,508.1,1032,517.1,1024.8,515z"/>
					<line class="st4" x1="1024.8" y1="515" x2="1034.7" y2="507.4"/>
				</g>
				<g>
					<line class="st3" x1="1020.1" y1="459.3" x2="1026.9" y2="450.3"/>
					<path class="st0" d="M1024.8,453c0,0-0.6-3.6,2.4-6.9c1.8-2,11.8-7.4,13.1-3.9C1041.8,446.1,1032,455.1,1024.8,453z"/>
					<line class="st4" x1="1024.8" y1="453" x2="1034.7" y2="445.4"/>
				</g>
				<g>
					<line class="st3" x1="1020.1" y1="428.7" x2="1026.9" y2="419.7"/>
					<path class="st0" d="M1024.8,422.4c0,0-0.6-3.6,2.4-6.9c1.8-2,11.8-7.4,13.1-3.9C1041.8,415.5,1032,424.5,1024.8,422.4z"/>
					<line class="st4" x1="1024.8" y1="422.4" x2="1034.7" y2="414.8"/>
				</g>
				<g>
					<line class="st3" x1="1020.1" y1="388.2" x2="1026.9" y2="379.3"/>
					<path class="st0" d="M1024.8,382c0,0-0.6-3.6,2.4-6.9c1.8-2,11.8-7.4,13.1-3.9C1041.8,375.1,1032,384.1,1024.8,382z"/>
					<line class="st4" x1="1024.8" y1="382" x2="1034.7" y2="374.4"/>
				</g>
				<g>
					<line class="st3" x1="1020.1" y1="356.4" x2="1026.9" y2="347.5"/>
					<path class="st0" d="M1024.8,350.2c0,0-0.6-3.6,2.4-6.9c1.8-2,11.8-7.4,13.1-3.9C1041.8,343.3,1032,352.3,1024.8,350.2z"/>
					<line class="st4" x1="1024.8" y1="350.2" x2="1034.7" y2="342.6"/>
					<path class="st0" d="M1019.6,336.1c0,0-0.6-3.6,2.4-6.9c1.8-2,11.8-7.4,13.1-3.9C1036.7,329.2,1026.8,338.2,1019.6,336.1z"/>
					<line class="st4" x1="1019.6" y1="336.1" x2="1029.5" y2="328.5"/>
					<path class="st0" d="M1020.1,336.5c0,0-3.6,0.2-6.6-3.1c-1.8-2-6.2-12.5-2.5-13.5C1015.1,318.9,1023,329.6,1020.1,336.5z"/>
					<line class="st4" x1="1020.1" y1="336.5" x2="1013.6" y2="325.9"/>
				</g>
			</g>
			<polygon class="st5" points="1028.6,594.3 1006.6,594.3 1003.9,538.9 1031.3,538.9 			"/>
		</g>
		<g>
			<g>
				<path class="st6" d="M1037,155.9c0-26.4-22.3-47.7-49.2-45.8c-22.4,1.5-40.6,19.5-42.5,41.8c-1.1,12.7,3,24.5,10.5,33.3
					c6.8,8.1,10.5,18.3,10.5,28.9v6.3h49.6v-6.3c0-10.5,3.7-20.8,10.4-28.9C1033,177.4,1037,167.1,1037,155.9z"/>
				<rect x="966.3" y="220.5" class="st0" width="49.6" height="12.3"/>
				<path class="st0" d="M1011.2,245.1H971c-2.6,0-4.7-2.1-4.7-4.7v-7.6h49.6v7.6C1015.9,243,1013.8,245.1,1011.2,245.1z"/>
				<path class="st7" d="M1003.3,257.4H979c-3.5,0-6.4-2.9-6.4-6.4v-5.9h37.1v5.9C1009.7,254.5,1006.8,257.4,1003.3,257.4z"/>
			</g>
			<g>
				<line class="st8" x1="1043.6" y1="156.2" x2="1064.6" y2="156.2"/>
				<line class="st8" x1="915.7" y1="156.2" x2="937" y2="156.2"/>
				<line class="st8" x1="990.1" y1="102.8" x2="990.1" y2="81.7"/>
				<line class="st8" x1="1028.3" y1="118.1" x2="1042.8" y2="103.5"/>
				<line class="st8" x1="937.5" y1="208.8" x2="952.2" y2="194.1"/>
				<line class="st8" x1="951.6" y1="117.6" x2="937.5" y2="103.5"/>
				<line class="st8" x1="1042.8" y1="208.8" x2="1028.7" y2="194.8"/>
			</g>
		</g>
		<g>
			<g>
				<polygon class="st0" points="719.7,140.5 658.9,56.5 598.2,140.5 623.2,140.5 623.2,233.9 694.7,233.9 694.7,140.5 				"/>
			</g>
			<g>
				
					<ellipse transform="matrix(0.9872 -0.1596 0.1596 0.9872 -27.0308 107.9364)" class="st6" cx="658.5" cy="222.3" rx="62.7" ry="62.7"/>
				
					<ellipse transform="matrix(0.4502 -0.8929 0.8929 0.4502 163.5845 710.2116)" class="st6" cx="658.5" cy="222.3" rx="53.4" ry="53.4"/>
				<path class="st0" d="M676.4,230.3c0-14-19.8-14.3-19.8-20.1c0-3.1,1.6-4,4.9-4c2.8,0,5.2,1.2,8,3.7l6.5-7.5
					c-3-3.2-6.7-5.6-11.6-6.4V188h-8.6v8.1c-7.4,1.6-11.8,6.9-11.8,14.6c0,13.4,19.8,14.3,19.8,20.4c0,3-1.5,4.3-5.4,4.3
					c-3.2,0-6.5-1.2-10.6-4.3l-5.7,8.9c3.8,3.4,9.3,5.3,13.7,5.8v7.7h8.6v-8.3C672.4,243.5,676.4,237.7,676.4,230.3z"/>
			</g>
		</g>
		<g>
			<g>
				<g>
					
						<ellipse transform="matrix(0.984 -0.1784 0.1784 0.984 -18.9727 63.0719)" class="st6" cx="341.2" cy="137" rx="40.8" ry="40.8"/>
					<path class="st0" d="M352.7,97.9L341.2,137H382C382,118.5,369.6,102.9,352.7,97.9z"/>
				</g>
				<polyline class="st9" points="366.5,111.3 382.7,92.2 396.6,92.2 				"/>
				<g>
					<line class="st9" x1="406.4" y1="92.8" x2="427.3" y2="92.8"/>
					<line class="st9" x1="406.4" y1="98" x2="427.3" y2="98"/>
					<line class="st9" x1="406.4" y1="103.2" x2="427.3" y2="103.2"/>
					<line class="st9" x1="406.4" y1="108.4" x2="427.3" y2="108.4"/>
				</g>
			</g>
			<g>
				<g>
					<rect x="290.3" y="220.9" class="st10" width="11.9" height="35.4"/>
					<rect x="308.9" y="233.7" class="st0" width="11.9" height="22.7"/>
					<rect x="327.6" y="213.2" class="st10" width="11.9" height="43.2"/>
					<rect x="346.2" y="222.1" class="st0" width="11.9" height="34.2"/>
					<rect x="364.9" y="214.3" class="st10" width="11.9" height="42.1"/>
					<rect x="383.5" y="189.4" class="st0" width="11.9" height="67"/>
				</g>
				<g>
					<line class="st9" x1="408.7" y1="188.7" x2="415.7" y2="188.7"/>
					<line class="st9" x1="408.7" y1="202.2" x2="415.7" y2="202.2"/>
					<line class="st9" x1="408.7" y1="215.8" x2="415.7" y2="215.8"/>
					<line class="st9" x1="408.7" y1="229.3" x2="415.7" y2="229.3"/>
					<line class="st9" x1="408.7" y1="242.8" x2="415.7" y2="242.8"/>
					<line class="st9" x1="408.7" y1="256.4" x2="415.7" y2="256.4"/>
				</g>
			</g>
			<g>
				<polyline class="st8" points="297.1,207.9 315.3,218.9 334.2,198.6 352.8,200.2 371,193 391.4,166.1 				"/>
				<path class="st11" d="M299.4,207.9c0-1.3-1-2.3-2.3-2.3s-2.3,1-2.3,2.3c0,1.3,1,2.3,2.3,2.3S299.4,209.2,299.4,207.9z"/>
				<path class="st11" d="M317.5,218.9c0-1.3-1-2.3-2.3-2.3s-2.3,1-2.3,2.3c0,1.3,1,2.3,2.3,2.3S317.5,220.2,317.5,218.9z"/>
				<path class="st11" d="M336.5,198.6c0-1.3-1-2.3-2.3-2.3s-2.3,1-2.3,2.3c0,1.3,1,2.3,2.3,2.3S336.5,199.9,336.5,198.6z"/>
				<path class="st11" d="M355.1,200.2c0-1.3-1-2.3-2.3-2.3c-1.3,0-2.3,1-2.3,2.3c0,1.3,1,2.3,2.3,2.3
					C354.1,202.5,355.1,201.5,355.1,200.2z"/>
				<path class="st11" d="M373.2,192.7c0-1.3-1-2.3-2.3-2.3s-2.3,1-2.3,2.3s1,2.3,2.3,2.3S373.2,193.9,373.2,192.7z"/>
				<path class="st11" d="M393.7,166.1c0-1.3-1-2.3-2.3-2.3s-2.3,1-2.3,2.3s1,2.3,2.3,2.3S393.7,167.3,393.7,166.1z"/>
			</g>
		</g>
		<g>
			<g>
				<g>
					
						<rect x="846.2" y="466.9" transform="matrix(-1 -1.224647e-16 1.224647e-16 -1 1699.8503 1005.1102)" class="st7" width="7.4" height="71.3"/>
					
						<rect x="887.2" y="399.1" transform="matrix(-0.9932 -0.1161 0.1161 -0.9932 1730.9353 970.3841)" class="st7" width="13.1" height="71.3"/>
					<polygon class="st12" points="840.5,541.1 840.5,529.1 859.3,529.1 859.3,541.2 934.5,571.4 934.5,585.6 929.3,585.6 
						929.3,574.8 849.7,556.7 772.1,574.8 772.1,585.6 767.1,585.6 767.1,571.4 					"/>
					
						<rect x="831.4" y="466.9" transform="matrix(-1 -1.224647e-16 1.224647e-16 -1 1699.8503 956.5746)" class="st7" width="37" height="22.8"/>
					<g>
						<path class="st7" d="M934.5,586.2c0-4.4,3.6-8,8-8c4.4,0,8,3.6,8,8c0,4.4-3.6,8-8,8C938,594.2,934.5,590.6,934.5,586.2z"/>
						<path class="st6" d="M939,586.2c0-1.9,1.5-3.4,3.4-3.4c1.9,0,3.4,1.5,3.4,3.4c0,1.9-1.5,3.4-3.4,3.4
							C940.5,589.6,939,588.1,939,586.2z"/>
					</g>
					<g>
						<path class="st7" d="M750.6,586.2c0-4.4,3.6-8,8-8c4.4,0,8,3.6,8,8c0,4.4-3.6,8-8,8C754.2,594.2,750.6,590.6,750.6,586.2z"/>
						<circle class="st6" cx="758.6" cy="586.2" r="3.4"/>
					</g>
					<polygon class="st12" points="846.5,586 852.8,586 855.9,543.3 843.4,543.3 					"/>
					
						<rect x="846.8" y="576.9" transform="matrix(-1 -1.224647e-16 1.224647e-16 -1 1699.8501 1171.4866)" class="st7" width="6.3" height="17.6"/>
				</g>
				<g>
					<g>
						<path class="st12" d="M899.2,434.1L899.2,434.1c15.4,1.5,29-9.8,30.5-25.1l8.7-90.8c1.5-15.4-9.8-29-25.1-30.5h0
							c-15.4-1.5-29,9.8-30.5,25.1l-8.7,90.8C872.6,419,883.9,432.6,899.2,434.1z"/>
						<path class="st12" d="M892.6,433.5L892.6,433.5c15.4,1.5,29-9.8,30.5-25.1l8.7-90.8c1.5-15.4-9.8-29-25.1-30.5h0
							c-15.4-1.5-29,9.8-30.5,25.1l-8.7,90.8C866,418.4,877.2,432,892.6,433.5z"/>
					</g>
					<path id="XMLID_4_" class="st12" d="M771.1,474l130.3,3.4c3,0.1,5.6-2.3,5.7-5.3l0.7-20.9c0.1-3-2.3-5.6-5.3-5.7l-130.3-3.4
						c-3-0.1-5.6,2.3-5.7,5.3l-0.7,20.9C765.6,471.4,768,473.9,771.1,474z"/>
					<path id="XMLID_3_" class="st12" d="M824.3,475l78.4,2.5c2.3,0.1,4.3-1.8,4.4-4.1l0.7-23.4c0.1-2.3-1.8-4.3-4.1-4.4l-78.4-2.5
						c-2.3-0.1-4.3,1.8-4.4,4.1l-0.7,23.4C820.1,473,821.9,475,824.3,475z"/>
				</g>
			</g>
			<g>
				<path class="st7" d="M762.4,563.3l-0.6,4.8c0,0-5.8,11.5-8,13.5c-2.2,1.9-16.3,8-18.9,9c-2.6,1,1.9,3.8,8,4.2
					c6.1,0.3,17.3,0.3,21.1-0.6s11.2-6.4,12.8-6.7l1.3,4.2c0,0,7-2.6,9.6-3.2c2.6-0.6,6.7-3.8,6.7-3.8s-3.2-9.6-5.1-13.1
					c-1.9-3.5-4.5-5.8-4.5-5.8l-4.8-5.8L762.4,563.3z"/>
				<g>
					<path class="st0" d="M801.1,380.3l-10.6,6.4l-23.1,6.7c0,0-73,13.5-77.2,18.3c-4.2,4.8-2.6,9,1,15.1c3.5,6.1,65.3,141,65.3,141
						l25.6-5.1l-42.9-129.2c0,0,80.7,16.3,94.8,13.8c14.1-2.6,32-17.6,35.2-29.1s-11.5-29.8-11.5-29.8L801.1,380.3z"/>
					<path class="st8" d="M721.2,420.9c0,0,16.1,7.9,19,16.6"/>
				</g>
				<polygon class="st6" points="884.7,273.3 850.1,270.1 799.5,384.8 832.8,390.5 				"/>
				<path class="st0" d="M850.8,280.8c0,0-50.6,102.4-51.2,104c-0.6,1.6-15.1,5.8-18.3,6.4c-3.2,0.6-13.8,2.2-13.8,2.2l17.9-12.2
					l12.8-33l-15.7-8c0,0,28.8-43.2,35.2-58c6.4-14.7,9-18.6,15.4-18.9c6.4-0.3,24.7,1,24.7,1L850.8,280.8z"/>
				<path class="st7" d="M843.7,302.5l0.6,7.4c0,0-33.6,60.2-33.9,61.5c-0.3,1.3,2.6,10.2,2.6,10.2l11.9-8.6l22.4-61.8l6.1-3.5
					l0.1-11.4L843.7,302.5z"/>
				<path class="st6" d="M857.1,191.8c0,0-11.9,28.8-14.5,37.5c-2.6,8.7-4.5,23-4,24.6c0.5,1.6,4,7.1,10,7.4
					c6.1,0.3,11.4,0.3,11.4,0.3l-9.2,19.3c0,0,1.1,15.1,2.6,15.3c1.6,0.3,24.8-17.7,25.4-18.5c0.5-0.8,15.3-32.5,15.3-32.5
					s13.2-6.6,14-12.4c0.8-5.8-3.4-8.7-3.4-8.7v-7.1l5.8-17.4c0,0-14.5-9.5-30.6-13.5c-16.1-4-19.6-1.3-19.6-1.3L857.1,191.8z"/>
				<g>
					<path class="st7" d="M883.8,175.7c0,0-23.8-6.3-34.3,2.9c-10.6,9.2,16.9,24,25.9,25.4c9,1.3,20.1-0.5,17.4,1.8
						c-2.6,2.4-8.5,6.1-5.5,8.5c2.9,2.4,6.1,3.4,6.1,3.4s-12.4,27.2-14.5,30.4c-2.1,3.2-6.1,2.9-8.5,2.1c-2.4-0.8-13.7-7.9-17.4-9.2
						c-3.7-1.3-10.6-5.3-12.2-1.1c-1.6,4.2-5.5,22.2,0.3,26.2c5.8,4,34.1-6.1,38.3-9c4.2-2.9,5.5-8.2,6.3-9.2
						c0.8-1.1,12.2-19.8,13.2-21.1c1.1-1.3,5.8-2.6,5.8-2.6s9.5-19,10.3-26.4C915.8,190.2,890.9,175.4,883.8,175.7z"/>
					<path class="st8" d="M859,212.4l-0.5,11.6c0,0-12.4,14-12.4,15.6c0,1.6,14.8-0.3,14.8-0.3"/>
					<path class="st8" d="M857.1,209.7c0,0-1.6-3.2-5-2.1"/>
					<path class="st8" d="M868.2,216.4c0,0,7.7-0.8,10,5"/>
					<path class="st13" d="M847.6,245.7c0,0,6.9,4.2,11.4,4.2"/>
					<path class="st11" d="M870.8,227.8c-0.7,1.4-2,2.2-3,1.8c-0.9-0.5-1.1-2-0.3-3.4c0.7-1.4,2-2.2,3-1.8
						C871.4,224.8,871.5,226.4,870.8,227.8z"/>
					<path class="st11" d="M854.3,221.4c-0.7,1.4-2,2.2-3,1.8c-0.9-0.5-1.1-2-0.3-3.4c0.7-1.4,2-2.2,3-1.8
						C854.8,218.4,855,219.9,854.3,221.4z"/>
				</g>
				<path class="st7" d="M739.6,552.5l-2.2,13.5l-4.8,1.3c0,0-4.5,5.4-5.4,6.7c-1,1.3-12.8,9.9-16,11.5c-3.2,1.6-11.2,2.2-10.9,4.5
					c0.3,2.2,17.3,4.2,28.2,4.5c10.9,0.3,17-3.2,17-3.2l1,2.2l11.2-1c0,0-0.6-10.6-0.3-15.1c0.3-4.5-0.6-10.9-0.6-10.9l-0.6-9.3
					L739.6,552.5z"/>
				<g>
					<path class="st0" d="M829.6,395.3c0,0-91,11.2-92.9,13.5c-1.9,2.2-0.3,68.5-0.3,68.5l-10.6,77.6l32.7,9.9
						c0,0,10.2-65.4,13.8-83c3.5-17.6,5.1-39.7,5.1-39.7s50.3,11.5,67.6,1.9c17.3-9.6,13.8-21.5,13.8-21.5"/>
					<path class="st8" d="M738.2,474.7c0,0,4.1-18.6,5-28.6"/>
					<path class="st8" d="M770.7,431.4c-1.2-1.5-2.4-2.7-3.5-3.4"/>
					<path class="st8" d="M777.4,442.1c0,0-1.8-3.6-4.3-7.3"/>
				</g>
				<path class="st0" d="M883.4,267.2c0,0-36.2,66.6-43.9,83.6c-7.7,17-17.9,40.7-17.9,43.2s-6.7,68.2-4.5,69.5
					c2.2,1.3,35.9-9.6,51.6-15.7c15.7-6.1,16.3-10.6,17.6-14.1c1.3-3.5,1-49,1-49s32.7-92.9,32.3-97
					C919.3,283.6,883.4,267.2,883.4,267.2z"/>
				<path class="st8" d="M855.9,334.6c-5.9,5.8-10.9,10.2-10.9,10.2"/>
				<path class="st8" d="M895,274.6c0,0-15.1,29.5-22.7,41.3c-3.1,4.7-8,10.2-12.8,15.2"/>
				<path class="st8" d="M846.8,268.4c0,0-15.6,26-20.1,41.4c-4.5,15.4-5.4,23.4-5.4,23.4"/>
				<polyline class="st8" points="838.6,305.7 853.4,296.1 854,318.5 				"/>
				<line class="st8" x1="870.2" y1="405.7" x2="875.1" y2="405"/>
				<polyline class="st8" points="873.5,399.2 838.6,403.3 838.6,410.7 863.5,406.8 				"/>
				<g>
					<path class="st6" d="M824.8,278.4c0,0,5.8-12.2,8.6-12.5c2.9-0.3,9.3,0,9.3,2.6c0,2.6-3.5,2.9-3.5,2.9h-4.8l-2.2,5.8
						L824.8,278.4z"/>
					<g>
						<path class="st6" d="M816.8,301.5l2.2-12.5c0,0,1-10.9,2.6-11.5c1.6-0.6,16.3-0.3,16.3-0.3s0.3,12.8-1,16
							c-1.3,3.2-7,4.5-7,4.5s-1.3,4.5-2.2,5.8s-4.5,2.9-4.5,2.9l-1,2.6l-8.3-5.4L816.8,301.5z"/>
						<polyline class="st6" points="830,297.7 828.4,291.6 834.4,291.3 						"/>
						<polygon class="st6" points="813.6,300.5 826.8,309.8 821.6,315.3 810.4,305 						"/>
						<path class="st0" d="M810.4,305l15.1,11.2l-28.8,43.9c0,0-4.8,1.3-10.2-0.6c-5.4-1.9-10.6-12.8-10.6-14.1
							C775.8,344.1,810.4,305,810.4,305z"/>
					</g>
				</g>
				<path class="st6" d="M798.9,355.9c0,0-4.8-9-5.1-11.5c-0.3-2.6-0.6-7.7-2.2-9.6c-1.6-1.9-3.5-3.2-4.2-6.1
					c-0.6-2.9-3.5-1.6-3.8,1.3c-0.3,2.9,2.2,5.8,2.2,5.8s-8-2.6-9.3-1.9c-1.3,0.6-3.8,1.6-3.2,3.8c0.6,2.2,1.6,4.2,1.6,4.2
					s-5.1,6.7-5.1,9.9s3.5,8.3,6.1,10.2c2.6,1.9,11.5,3.8,11.5,3.8L798.9,355.9z"/>
				<path class="st0" d="M891.3,290l-29,60.1l-70.8,3.8c0,0-6.1,1.3-7.4,7.4c-1.3,6.1-1,9-1,9s47.1,5.8,61.8,6.7
					c14.7,1,32.7,2.9,34.9,0.6c2.2-2.2,28.8-57.3,28.8-57.3"/>
			</g>
		</g>
		<g>
			<g>
				<rect x="460.2" y="466.9" class="st7" width="7.4" height="71.3"/>
				
					<rect x="413.5" y="399.1" transform="matrix(0.9932 -0.1161 0.1161 0.9932 -47.6366 51.7134)" class="st7" width="13.1" height="71.3"/>
				<polygon class="st12" points="473.3,541.1 473.3,529.1 454.5,529.1 454.5,541.2 379.4,571.4 379.4,585.6 384.5,585.6 
					384.5,574.8 464.2,556.7 541.8,574.8 541.8,585.6 546.7,585.6 546.7,571.4 				"/>
				<rect x="445.4" y="466.9" class="st7" width="37" height="22.8"/>
				<g>
					<path class="st7" d="M379.4,586.2c0-4.4-3.6-8-8-8c-4.4,0-8,3.6-8,8c0,4.4,3.6,8,8,8C375.8,594.2,379.4,590.6,379.4,586.2z"/>
					<path class="st6" d="M374.8,586.2c0-1.9-1.5-3.4-3.4-3.4c-1.9,0-3.4,1.5-3.4,3.4c0,1.9,1.5,3.4,3.4,3.4
						C373.3,589.6,374.8,588.1,374.8,586.2z"/>
				</g>
				<g>
					<path class="st7" d="M563.2,586.2c0-4.4-3.6-8-8-8c-4.4,0-8,3.6-8,8c0,4.4,3.6,8,8,8C559.7,594.2,563.2,590.6,563.2,586.2z"/>
					<circle class="st6" cx="555.3" cy="586.2" r="3.4"/>
				</g>
				<polygon class="st12" points="467.3,586 461.1,586 457.9,543.3 470.5,543.3 				"/>
				<rect x="460.8" y="576.9" class="st7" width="6.3" height="17.6"/>
			</g>
			<g>
				<g>
					<path class="st12" d="M414.6,434.1L414.6,434.1c-15.4,1.5-29-9.8-30.5-25.1l-8.7-90.8c-1.5-15.4,9.8-29,25.1-30.5l0,0
						c15.4-1.5,29,9.8,30.5,25.1l8.7,90.8C441.2,419,430,432.6,414.6,434.1z"/>
					<path class="st12" d="M421.2,433.5L421.2,433.5c-15.4,1.5-29-9.8-30.5-25.1l-8.7-90.8c-1.5-15.4,9.8-29,25.1-30.5h0
						c15.4-1.5,29,9.8,30.5,25.1l8.7,90.8C447.8,418.4,436.6,432,421.2,433.5z"/>
				</g>
				<path id="XMLID_2_" class="st12" d="M547.3,474l-134.8,3.4c-3,0.1-5.6-2.3-5.7-5.3l-0.7-20.9c-0.1-3,2.3-5.6,5.3-5.7l134.8-3.4
					c3-0.1,5.6,2.3,5.7,5.3l0.7,20.9C552.7,471.4,550.3,473.9,547.3,474z"/>
				<path id="XMLID_1_" class="st12" d="M489.6,475l-78.4,2.5c-2.3,0.1-4.3-1.8-4.4-4.1l-0.7-23.4c-0.1-2.3,1.8-4.3,4.1-4.4
					l78.4-2.5c2.3-0.1,4.3,1.8,4.4,4.1l0.7,23.4C493.7,473,491.9,475,489.6,475z"/>
			</g>
			<g>
				<g>
					<path class="st6" d="M564.5,431.6c0,0,1.2,22.3,4.2,42.2c3.1,20,8.1,80.5,8.1,80.5s2.7,10.4,6.5,17.7
						c3.8,7.3,6.9,10.4,6.9,10.4s10,10,9.6,11.5c-0.4,1.5-6.7,1.4-12.8,0.2c-6.1-1.2-7.4-2.6-10.9-4.9s-11.3-5.3-14.8-6.4
						c-3.5-1.2-4.6-4.2-3.4-7.7c1.2-3.5,5-11.5,5-16.5c0-5-3.1-28.6-11.6-44.4c-8.4-15.7-13.4-43-13.4-43L564.5,431.6z"/>
					<path class="st0" d="M566.5,576.2c-2.4-1.9-4.7-3.9-6.7-5.8c-0.7,1.9-1.4,3.5-1.8,4.6c-1.2,3.5,0,6.5,3.4,7.7
						c3.5,1.2,11.3,4.1,14.8,6.4s4.7,3.8,10.9,4.9c6.1,1.2,12.4,1.3,12.8-0.2c0.4-1.5-9.6-11.5-9.6-11.5l-5,2.3
						C585.3,584.6,573.4,581.5,566.5,576.2z"/>
				</g>
				<g>
					<path class="st6" d="M417.2,385.8c0,0-3.5,13.5-1.6,22c1.9,8.5,14.8,28.3,37.1,33c22.3,4.7,78.5,3.2,78.5,3.2
						s-13.5,20.5-18.6,45.3c-3.3,16.4-13.5,39.3-15.1,42.8c-1.6,3.5-20.1,9.8-19.5,12.6c0.6,2.8,2.8,20.4,7.5,27.7
						c4.7,7.2,12.6,10.4,15.7,11.3c3.1,0.9,3.8,0.9,3.8-2.2s-2.2-7.5-2.2-10.4c0-2.8-0.3-22,0.9-24.5c1.3-2.5,42.5-67.3,48.8-78
						s16-31.5,18.9-34.9c2.8-3.5,6.3-8.2,3.5-14.2c-2.8-6-67.8-26-67.8-26l-3.4-12.1l-32.4-1.9L417.2,385.8z"/>
					<path class="st7" d="M507.1,393.5l-3.4-12.1l-32.4-1.9l-54.1,6.3c0,0-3.5,13.5-1.6,22c3.1,13.5,14.8,28.3,37.1,33
						c22.3,4.7,78.5,3.2,78.5,3.2s5.3-26.6,15.7-37C534.4,402.9,507.1,393.5,507.1,393.5z"/>
					<path class="st6" d="M531.2,444c0,0,12.3-3.1,21.7-8.2"/>
					<path class="st0" d="M488.8,559.8c-2.2-5.2-2.1-15.6-1.8-21.1c-4.7,2.4-9.2,4.6-8.9,6c0.6,2.8,2.8,20.4,7.5,27.7
						c4.7,7.2,12.6,10.4,15.7,11.3c3.1,0.9,3.8,0.9,3.8-2.2c0-3.1-2.2-7.5-2.2-10.4c-4-0.4-9.8-1.9-9.8-1.9S491.9,567,488.8,559.8z"
						/>
				</g>
				<path class="st6" d="M484.2,261.3l-9.8,4.1c0,0,7.9,73.6,7.5,84c-0.3,10.4-0.9,31.1-0.9,31.1s13.5,4.1,22.6,0.9l-0.6-35.5
					c0,0,6.6-34,4.1-45c-2.5-11-10.4-30.5-10.4-30.5S493,261.6,484.2,261.3z"/>
				<path class="st6" d="M481.4,293l9.4-14.4l11.6,16.9c0,0-5-23.6-5.7-25.2s-2.8-4.7-6.6-7.2c-3.8-2.5-8.2-2.6-10.7-2.8
					c-2.5-0.2-5,5-5,5L481.4,293z"/>
				<path class="st0" d="M477,260.1c0,0-31.6,6.9-34.3,8.9c-2.7,2-4,8.4-3.2,10.9c0.7,2.5,7.9,55.8,7.9,55.8L411,388.8
					c0,0,11.9,9.9,23,11.9c11.1,2,34.8-1,43.2-4.4c8.4-3.5,8.4-3.5,8.4-3.5s4-64.5-0.2-89.9C481.2,277.4,477,260.1,477,260.1z"/>
				<g>
					<path class="st6" d="M574.1,342.1l12.4-5.4c0,0,3.7-8.2,4.2-8.9c0.5-0.7,4.7-2,6.7-3.7c2-1.7,4.7-4.7,5.4-4.9
						c0.7-0.2,2,2,0,4.9c-2,3-5.2,5.7-5.2,5.7l12.1-4.4c0,0,4.7-7.9,5.9-4.4c1.2,3.5-5.2,14.1-6.7,17.5c-1.5,3.5-3,5.2-5.7,5.7
						c-2.7,0.5-11.1,2-12.8,2.2c-1.7,0.2-12.4,6.4-12.4,6.4L574.1,342.1z"/>
					<path class="st6" d="M591.2,339.6c2.2-1.9,4.7-3.7,6.1-3.7c2.7,0,8.6,0.5,8.6,0.5s3.5-7.9,5.2-9.1c1.7-1.2,3.2,0.5,1.7,3"/>
				</g>
				<path class="st0" d="M493.5,266c0,0,7.9,34.3,7.7,47.2c-0.2,12.8-4.2,19.3-3.5,23.7c0.7,4.4,2.5,56.3,2.5,56.3l6.9,0.2
					c0,0-1.7-19.8-1.5-23.5c0.2-3.7,2.7-18.5,2.7-18.5s12.4,24.5,14.1,25.7c1.7,1.2,59-23.2,59-23.2l-4.2-14.1l-43.7,8.9
					c0,0-8.6-28.7-9.9-34.8c-1.2-6.2-2.2-27.9-5.7-33.3C514.5,275.2,493.5,266,493.5,266z"/>
				<path class="st8" d="M508.4,351.5c0,0,1.5-6.2,4-22.5c2.5-16.3,0.2-29.4,0.2-29.4"/>
				<path class="st8" d="M505.7,285.3c1.2,8.9,2.1,19.9,0.5,26c-3,11.4-6.9,20.3-6.9,20.3"/>
				<path class="st8" d="M503.4,271.5c0,0,0.7,3.7,1.6,9"/>
				<path class="st8" d="M479.8,319.5c3.2,8,6,15.7,6,15.7"/>
				<path class="st8" d="M464.9,264.1c0,0,5.7,34.8,10.1,44.2c0.9,1.9,1.9,4.2,2.9,6.5"/>
				<g>
					<path class="st6" d="M535,334.7l9.6-2.7c0,0,6.2-7.9,7.7-9.9c1.5-2,4.9-2,7.4-3.5c2.5-1.5,5.7-6.9,6.9-5.9c1.2,1,0,5.4-1.2,6.7
						c-1.2,1.2-4.2,3-5.2,3.7c-1,0.7,11.6-2.2,11.6-2.2s8.2-7.2,8.6-5.2c0.5,2-3.7,8.9-3.7,8.9s-5.9,5.7-8.9,8.2
						c-3,2.5-10.1,3.5-12.1,4c-2,0.5-5.4,1-5.4,1l-14.8,5.4L535,334.7z"/>
					<path class="st6" d="M574.8,326.1c0,0-5.2,2.5-7.9,3.7"/>
					<line class="st6" x1="560.2" y1="323.1" x2="555.8" y2="324.1"/>
				</g>
				<path class="st0" d="M448.1,267c0,0-14.6,4.9-16.8,8.6c-2.2,3.7,5.7,34.1,11.6,50.9c5.9,16.8,21.7,45,23.7,45.9
					c2,1,53.6-17.3,65.5-21c11.9-3.7,13.8-5.7,13.8-5.7l-5.2-13.3l-59.3,10.6L463.2,286"/>
				<g>
					<path class="st7" d="M519.7,191.8c0,0,5.8,4,2.8,8.1c-2.9,4.1-9.1,4.5-9.1,4.5l-5.4-8.5C508,195.9,514.4,188.3,519.7,191.8z"/>
					<g>
						<path class="st6" d="M513.6,196.9c0,0,8.8,21,8.3,22.8s-4.6,4.6-2.7,7.4c1.9,2.7,7.4,8.2,7.2,9c-0.1,0.8-6.8,4.7-6.8,4.7
							s-4.7,16.8-6.6,19.3c-1.9,2.5-18-0.5-18-0.5l-3.4,18.9l-19.1-17.8l-7.2-6.8c0,0-6.4-28.8,7.2-46.1
							C486.1,190.4,513.6,196.9,513.6,196.9z"/>
						<path class="st11" d="M512.4,226.4c0,1.8-0.7,3.2-1.5,3.2c-0.8,0-1.5-1.5-1.4-3.2c0-1.8,0.7-3.2,1.5-3.2
							C511.8,223.2,512.4,224.6,512.4,226.4z"/>
						<path class="st7" d="M512.4,244.9c-5.6-0.5-8-3.9-8-3.9s-0.5,7.6,1.9,8C508.7,249.5,512.4,244.9,512.4,244.9z"/>
						<path class="st8" d="M507.5,219.4c0,0,4.9-4.2,9.3,0.7"/>
						<polygon class="st7" points="495,259.5 487,257.6 493,268.7 						"/>
					</g>
					<path class="st7" d="M513.6,196.9c0,0-1.7,5.5-10.2,12.6c-8.5,7.1-16.1,11.7-16.1,13.7c0,2,1.3,3.8-0.4,4.3
						c-1.7,0.5-4.1-0.7-4.1-0.7s-4.1,11.8-4.7,20.1c-0.6,8.3,2.4,16.1,2.4,16.1s-18.3,1-28.9-7c-10.6-8-13.5-17.1-12.4-25
						c1.2-7.9,4.5-32.8,20.8-45c16.3-12.2,39.6-11.6,47.5-6.7c7.9,4.9,13.6,8.6,12.2,12.6C518.2,195.7,513.6,196.9,513.6,196.9z"/>
				</g>
			</g>
			<g>
				<g>
					<path class="st6" d="M475.2,444.8c-0.5,0-0.9-0.1-1.4-0.3c-1.9-0.9-2.7-3.3-2-5.4c5.9-16,12.6-44.6,5.7-53.1
						c-1.6-1.3-11.3-3.9-63.6,1.5c-1.8,0.2-3.1,0.3-3.8,0.4c-3.7,0.3-6.8,5.6-7.6,7.4c-0.9,2-3.1,2.9-4.9,1.8
						c-1.8-1-2.5-3.5-1.6-5.5c0.5-1.1,5.2-11.2,13.5-11.9c0.7-0.1,2-0.2,3.7-0.4c55.7-5.8,66.3-2.9,69.6,1.1
						c12.3,15.2-2.6,57.1-4.3,61.9C478,443.9,476.6,444.8,475.2,444.8z"/>
				</g>
			</g>
		</g>
		<g>
			<polygon class="st14" points="704.8,322.8 619.4,322.8 599.7,389.7 685,389.7 			"/>
			<polygon class="st14" points="537.3,386 536.2,389.7 685,389.7 686.1,386 			"/>
			<polygon class="st7" points="600.9,386 599.9,389.7 685,389.7 686.1,386 			"/>
		</g>
		<g>
			<rect x="669.4" y="399.7" class="st6" width="14.4" height="193"/>
			<rect x="669.4" y="399.7" class="st7" width="14.4" height="31.9"/>
			<rect x="492.7" y="389.7" class="st6" width="366.5" height="10.7"/>
			<path class="st6" d="M751.9,594.3h-152l0,0c15-7.1,31.4-10.7,48-10.7h56C720.5,583.6,736.9,587.3,751.9,594.3L751.9,594.3z"/>
		</g>
	</g>
</g>
</svg>
