<?xml version="1.0" encoding="utf-8"?>
<!-- Generator: Adobe Illustrator 26.0.0, SVG Export Plug-In . SVG Version: 6.00 Build 0)  -->
<svg version="1.1" id="Layer_1" xmlns="http://www.w3.org/2000/svg" xmlns:xlink="http://www.w3.org/1999/xlink" x="0px" y="0px"
	 viewBox="0 0 915.7 673" style="enable-background:new 0 0 915.7 673;" xml:space="preserve">
<style type="text/css">
	.st0{fill:#F6F9FF;}
	.st1{fill:#E6E6E6;}
	.st2{clip-path:url(#XMLID_00000014595542884589727150000000464454834038753679_);fill:#E57492;}
	.st3{opacity:0.3;clip-path:url(#XMLID_00000052816167169391855880000008097296698633506709_);fill:#808080;}
	.st4{clip-path:url(#XMLID_00000052816167169391855880000008097296698633506709_);fill:#808080;}
	.st5{opacity:0.3;clip-path:url(#XMLID_00000062913842559582430900000000724385730566539167_);fill:#808080;}
	.st6{clip-path:url(#XMLID_00000062913842559582430900000000724385730566539167_);fill:#808080;}
	.st7{clip-path:url(#XMLID_00000087410869581119816190000014688741719765707694_);fill:#C7892B;}
	.st8{clip-path:url(#XMLID_00000166664607768920141190000013584026956768652700_);fill:#E57492;}
	.st9{clip-path:url(#XMLID_00000099664307739843245160000009454514282461764507_);fill:#C7892B;}
	.st10{clip-path:url(#XMLID_00000080179004166901401880000009140180069442079619_);fill:#E57492;}
	.st11{clip-path:url(#XMLID_00000143584054330747061210000000828174930560151946_);fill:#4D4D4D;}
	.st12{clip-path:url(#XMLID_00000049220459234690394460000017486051359172448434_);fill:#C7892B;}
	.st13{clip-path:url(#XMLID_00000129909888498887967410000003587816537019280016_);fill:#C7892B;}
	.st14{opacity:0.37;clip-path:url(#XMLID_00000160177719659748118710000002054428858223504310_);fill:#E6E6E6;}
	.st15{fill:#D0A967;}
	.st16{fill:#FFFFFF;}
	.st17{fill:#E57492;}
	.st18{fill:#FE8E9C;}
	.st19{clip-path:url(#XMLID_00000055672478326830464370000002712148347079290803_);fill:#E57492;}
	.st20{clip-path:url(#XMLID_00000055672478326830464370000002712148347079290803_);fill:#FFFFFF;}
	.st21{fill:#FC476A;}
	.st22{clip-path:url(#XMLID_00000023986872790462566990000010403093857608156842_);fill:#C7892B;}
	.st23{clip-path:url(#XMLID_00000080897589487617609500000001209235379453741721_);fill:#333333;}
	.st24{clip-path:url(#XMLID_00000179648196278323792780000005508702446400105129_);fill:#C7892B;}
	.st25{fill:#999999;}
	.st26{clip-path:url(#XMLID_00000055671114155165174030000012138914165887718840_);fill:#E57492;}
	.st27{fill:#C7892B;}
	.st28{clip-path:url(#XMLID_00000168107230190565316850000014892999596275706294_);fill:#E57492;}
	.st29{clip-path:url(#XMLID_00000006673767247218409990000014049127144510153354_);fill:#E57492;}
	.st30{clip-path:url(#XMLID_00000096058027084819992050000001010719809588980638_);fill:#E57492;}
	.st31{clip-path:url(#XMLID_00000096058027084819992050000001010719809588980638_);fill:#FFFFFF;}
	.st32{clip-path:url(#XMLID_00000140016077595601510810000017778740785924172424_);fill:#C7892B;}
	.st33{clip-path:url(#XMLID_00000140016077595601510810000017778740785924172424_);fill:#676767;}
	.st34{fill:#676767;}
	.st35{fill:#FFE0C1;}
	.st36{clip-path:url(#XMLID_00000124840775619995171210000001207863020423704704_);fill:#C7892B;}
	.st37{clip-path:url(#XMLID_00000123416784647510272840000012041920281432735158_);fill:#4D4D4D;}
	.st38{fill:none;}
	.st39{fill-rule:evenodd;clip-rule:evenodd;fill:#A7A8AB;}
	.st40{fill:#FFFAEB;}
	.st41{fill:#CCCCCC;}
	.st42{clip-path:url(#XMLID_00000015348959198230500620000005003379131723661239_);fill:#E57492;}
	.st43{opacity:0.3;clip-path:url(#XMLID_00000019666982112092646770000005768582579159319179_);fill:#808080;}
	.st44{clip-path:url(#XMLID_00000019666982112092646770000005768582579159319179_);fill:#808080;}
	.st45{opacity:0.3;clip-path:url(#XMLID_00000006670294771527246090000013917712960060585089_);fill:#808080;}
	.st46{clip-path:url(#XMLID_00000006670294771527246090000013917712960060585089_);fill:#808080;}
	.st47{clip-path:url(#XMLID_00000052085736617803493730000010366628079670013595_);fill:#C7892B;}
	.st48{clip-path:url(#XMLID_00000172400753906928960780000015547019905169483449_);fill:#E57492;}
	.st49{clip-path:url(#XMLID_00000097462802916740318790000010944386213341590402_);fill:#C7892B;}
	.st50{clip-path:url(#XMLID_00000093139706366980368950000007663304724817176450_);fill:#E57492;}
	.st51{clip-path:url(#XMLID_00000150804058460208657870000012142208172462324396_);fill:#4D4D4D;}
	.st52{clip-path:url(#XMLID_00000067956498320277404770000006615496346960813996_);fill:#C7892B;}
	.st53{clip-path:url(#XMLID_00000105391680017460077600000012328762228130004884_);fill:#C7892B;}
	.st54{opacity:0.37;clip-path:url(#XMLID_00000024700625471150316600000002280861321205602713_);fill:#E6E6E6;}
	.st55{clip-path:url(#XMLID_00000058580310250777054010000001135425608517428867_);fill:#E57492;}
	.st56{clip-path:url(#XMLID_00000058580310250777054010000001135425608517428867_);fill:#FFFFFF;}
	.st57{fill:#808080;}
	.st58{clip-path:url(#XMLID_00000152976397464779099660000002242387336222211768_);fill:#C7892B;}
	.st59{clip-path:url(#XMLID_00000160156825231253667670000001141318027366788754_);fill:#333333;}
	.st60{clip-path:url(#XMLID_00000116227642872356489950000002437306305032153003_);fill:#C7892B;}
	.st61{clip-path:url(#XMLID_00000100367595438876473180000006959099678873489839_);fill:#E57492;}
	.st62{clip-path:url(#XMLID_00000032620608304212209580000005557318391185313939_);fill:#E57492;}
	.st63{clip-path:url(#XMLID_00000065069842456283934110000009308031684601423749_);fill:#E57492;}
	.st64{clip-path:url(#XMLID_00000176001752157462738620000013633806060082122369_);fill:#E57492;}
	.st65{clip-path:url(#XMLID_00000176001752157462738620000013633806060082122369_);fill:#FFFFFF;}
	.st66{clip-path:url(#XMLID_00000023982566786990024440000018321981288779181704_);fill:#C7892B;}
	.st67{clip-path:url(#XMLID_00000023982566786990024440000018321981288779181704_);fill:#676767;}
	.st68{clip-path:url(#XMLID_00000040550884080129860750000001094320129317115036_);fill:#C7892B;}
	.st69{clip-path:url(#XMLID_00000124126014204196591760000011740512733638559642_);fill:#4D4D4D;}
</style>
<path class="st0" d="M-2403.1,1577.1c136.9,14,274.8,19.6,410.1,21.9c319.1,5.4,638.7-20.5,952.7-77.5
	c215.9-39.2,402.8-127.9,440-362.9c48.3-305.2-101.1-691-434.1-748.1c-103.1-17.7-210-17-309-50.7c-147.3-50.2-262.1-169.9-418-198
	c-159.3-28.8-336.4,5.2-464.3,111.9c-56.1,46.8-104.4,102-149.3,159.4c-34.9,44.6-66.9,100.2-119.9,125.5
	c-64.7,31-140.5,6.4-211.6-3.1c-121.9-16.3-265.6,23.2-357,108c-95.2,88.4-123.6,252.5-110.8,375.7
	c16.8,161.5,96.7,313.2,234.8,402.5C-2783.3,1542.4-2583.5,1558.6-2403.1,1577.1z"/>
<ellipse class="st1" cx="-2686" cy="1725.1" rx="311.3" ry="25.7"/>
<ellipse class="st1" cx="-1233.6" cy="1720.2" rx="266.9" ry="27.9"/>
<g>
	<defs>
		<path id="XMLID_404_" d="M-2323.2,999.6c0,0,28-21.1,29.3-18.8s-10.1,15-8.9,16.1c1.3,1.1,37.9-5.4,41.5,0
			c3.6,5.4,8.8,27.9,3.8,29.3c-5,1.5-33.9,4.1-37.9,4.1c-4.1,0-29-4.1-29-4.1L-2323.2,999.6z"/>
	</defs>
	<use xlink:href="#XMLID_404_"  style="overflow:visible;fill:#FE8E9C;"/>
	<clipPath id="XMLID_00000040534030596652778490000000153507411665852568_">
		<use xlink:href="#XMLID_404_"  style="overflow:visible;"/>
	</clipPath>
	<path style="clip-path:url(#XMLID_00000040534030596652778490000000153507411665852568_);fill:#E57492;" d="M-2294.8,988.6
		c0,0,0.2,37.3,23.2,50.2c0,0,32.4-5.2,33.6-9.4c1.2-4.2-24.4-49.7-24.4-49.7L-2294.8,988.6z"/>
</g>
<g>
	<g>
		<defs>
			<path id="XMLID_403_" d="M-1542.5,1571.7c-33.3,2.9-66.1,9.9-97.7,20.8c35.2-45.7,56.2-103.7,75.5-158.2
				c-45.3,20.2-90.2,42.2-130.7,70.6c9.5-44.7,10.5-92,8.9-137.4c-40.7,41.7-77,88.2-103.2,140.2c-11.1,22.1-20.4,45.2-27.3,69
				c0,0,0,0,0,0s-0.1,0.2-0.2,0.6c-3.3,11.6-6.1,23.3-8.3,35.1c-5,24.8-10.2,59.4-9.7,93.4c0,0,72.6,8.4,120.8-9.4c0,0,0,0,0,0
				C-1644.6,1677.3-1580.3,1631.2-1542.5,1571.7z"/>
		</defs>
		<use xlink:href="#XMLID_403_"  style="overflow:visible;fill:#E6E6E6;"/>
		<clipPath id="XMLID_00000134964862475717400100000008483898457770926246_">
			<use xlink:href="#XMLID_403_"  style="overflow:visible;"/>
		</clipPath>
		<path style="opacity:0.3;clip-path:url(#XMLID_00000134964862475717400100000008483898457770926246_);fill:#808080;" d="
			M-1695.4,1504.8c0,0-116.3,108-139.7,200.9s0,0,0,0s49.9-159.4,146.3-224.4c96.4-65,0,0,0,0L-1695.4,1504.8"/>
		<path style="opacity:0.3;clip-path:url(#XMLID_00000134964862475717400100000008483898457770926246_);fill:#808080;" d="
			M-1640.2,1592.4c0,0-53.8,67.2-144.5,115.1c-90.7,47.9,0,0,0,0s130.9-60.6,161.6-120.5c30.7-59.9,0,0,0,0L-1640.2,1592.4"/>
		<path style="clip-path:url(#XMLID_00000134964862475717400100000008483898457770926246_);fill:#808080;" d="M-1824.9,1694.9
			c-0.3,0-0.6-0.1-0.8-0.4c-0.3-0.4-0.2-1,0.3-1.3c28.2-18.7,82.1-69.5,155.9-146.9c55.8-58.5,103.7-112.2,104.2-112.7
			c0.3-0.4,0.9-0.4,1.3-0.1c0.4,0.3,0.4,0.9,0.1,1.3c-0.5,0.5-48.4,54.2-104.2,112.8c-93.3,98-136.4,134.1-156.2,147.2
			C-1824.6,1694.9-1824.8,1694.9-1824.9,1694.9z"/>
		<path style="clip-path:url(#XMLID_00000134964862475717400100000008483898457770926246_);fill:#808080;" d="M-1815.6,1688.3
			c0,0-0.1,0-0.1,0c-0.5-0.1-0.9-0.5-0.8-1c9.5-73.1,44.1-156.4,71.5-213.3c29.7-61.7,57.5-106.7,57.8-107.1
			c0.3-0.4,0.8-0.6,1.3-0.3c0.4,0.3,0.6,0.8,0.3,1.3c-0.3,0.4-28,45.4-57.7,106.9c-27.3,56.8-61.9,139.8-71.4,212.7
			C-1814.8,1688-1815.2,1688.3-1815.6,1688.3z"/>
		<path style="clip-path:url(#XMLID_00000134964862475717400100000008483898457770926246_);fill:#808080;" d="M-1783.4,1693.8
			c-0.4,0-0.8-0.3-0.9-0.7c-0.1-0.5,0.2-1,0.7-1.1c113.6-31.5,239.3-120.2,240.5-121.1c0.4-0.3,1-0.2,1.3,0.2c0.3,0.4,0.2,1-0.2,1.3
			c-1.3,0.9-127.2,89.8-241.1,121.3C-1783.2,1693.8-1783.3,1693.8-1783.4,1693.8z"/>
	</g>
	<g>
		<defs>
			<path id="XMLID_402_" d="M-1986.3,1413.2c0,0,0.9,94.4,33.6,158.9c-19.1-30.9-67.8-98.4-142.4-125c0,0-3.9,92.4,71.5,163.9
				c-19.3-10.2-51.5-21.2-104.5-27c0,0,62.3,109.5,177.7,115.5l85.4-19.4C-1865,1680.2-1879.5,1469.5-1986.3,1413.2z"/>
		</defs>
		<use xlink:href="#XMLID_402_"  style="overflow:visible;fill:#E6E6E6;"/>
		<clipPath id="XMLID_00000183960520402988296550000016519684301338110859_">
			<use xlink:href="#XMLID_402_"  style="overflow:visible;"/>
		</clipPath>
		<path style="opacity:0.3;clip-path:url(#XMLID_00000183960520402988296550000016519684301338110859_);fill:#808080;" d="
			M-2023.7,1611.1c0,0,52.7,52.3,120.6,73.4c0,0-107.8-0.8-143.7-83.4c-36-82.6,0,0,0,0L-2023.7,1611.1"/>
		<path style="opacity:0.3;clip-path:url(#XMLID_00000183960520402988296550000016519684301338110859_);fill:#808080;" d="
			M-1952.8,1572.1c0,0,36.4,47.6,66.2,107.9l8.7-14.1C-1877.9,1665.9-1923.4,1597.3-1952.8,1572.1"/>
		<path style="clip-path:url(#XMLID_00000183960520402988296550000016519684301338110859_);fill:#808080;" d="M-1886.6,1681
			c-0.2,0-0.3,0-0.5-0.1c-56.5-31.8-110.3-93.5-145.5-139.7c-38.1-50-63.2-93.1-63.4-93.5c-0.3-0.4-0.1-1,0.3-1.3
			c0.4-0.3,1-0.1,1.3,0.3c0.2,0.4,25.3,43.4,63.3,93.3c35.1,46,88.7,107.5,144.9,139.2c0.4,0.3,0.6,0.8,0.4,1.3
			C-1885.9,1680.8-1886.2,1681-1886.6,1681z"/>
		<path style="clip-path:url(#XMLID_00000183960520402988296550000016519684301338110859_);fill:#808080;" d="M-1882.1,1689.1
			C-1882.2,1689.1-1882.2,1689.1-1882.1,1689.1c-0.6,0-1-0.5-0.9-1c4.4-64.5-103-272.4-104.1-274.5c-0.2-0.5-0.1-1,0.4-1.3
			c0.5-0.2,1-0.1,1.3,0.4c1.1,2.1,108.8,210.4,104.3,275.5C-1881.2,1688.7-1881.6,1689.1-1882.1,1689.1z"/>
		<path style="clip-path:url(#XMLID_00000183960520402988296550000016519684301338110859_);fill:#808080;" d="M-1903,1685.5
			c-0.1,0-0.1,0-0.2,0c-117.2-22.7-224.4-99.8-225.5-100.6c-0.4-0.3-0.5-0.9-0.2-1.3s0.9-0.5,1.3-0.2c1.1,0.8,108,77.6,224.8,100.3
			c0.5,0.1,0.8,0.6,0.7,1.1C-1902.2,1685.2-1902.6,1685.5-1903,1685.5z"/>
	</g>
</g>
<g>
	<g>
		<g>
			<defs>
				<path id="XMLID_393_" d="M-1276.6,1681c0,0-62.3,22.9-62.7,24.2c-0.4,1.2-6.6,16.6-4.6,17c2.1,0.4,122.6-1.3,123.4-2.5
					s4.4-16.9,3.6-20.6c-0.8-3.7-10-18-10-18H-1276.6z"/>
			</defs>
			<use xlink:href="#XMLID_393_"  style="overflow:visible;fill:#D0A967;"/>
			<clipPath id="XMLID_00000066480849311617286870000011530262580052441773_">
				<use xlink:href="#XMLID_393_"  style="overflow:visible;"/>
			</clipPath>
			<path style="clip-path:url(#XMLID_00000066480849311617286870000011530262580052441773_);fill:#C7892B;" d="M-1267.3,1721.3
				c0,0,6.5-11.2,11.5-16.6s36.5-18.2,36.5-18.2s6.8,11.7,6.2,15.2c-0.5,3.5-7.4,18-7.4,18L-1267.3,1721.3"/>
			<path style="clip-path:url(#XMLID_00000066480849311617286870000011530262580052441773_);fill:#C7892B;" d="M-1348.5,1716
				c0,0,130.6-4.1,131.8-2.6c1.2,1.5,5.5,8.3,0,8.8c-5.5,0.5-131.5,4.6-132.1,2C-1349.3,1721.7-1348.5,1716-1348.5,1716z"/>
		</g>
		<g>
			<defs>
				<path id="XMLID_392_" d="M-1213,1433.5c0,0-65-5.1-65,10.2c0,15.3,13,226.2,13,226.2s-28.1,16.5-27,16.9
					c1.1,0.4,34,7.4,46.1,4.8c12-2.6,19.2-10.5,19.2-10.5l-1.6-11.1c0,0,14.6-67.5,19.1-127.6
					C-1204.8,1482.1-1213,1433.5-1213,1433.5z"/>
			</defs>
			<use xlink:href="#XMLID_392_"  style="overflow:visible;fill:#FE8E9C;"/>
			<clipPath id="XMLID_00000153703833092945158160000017778229552479596732_">
				<use xlink:href="#XMLID_392_"  style="overflow:visible;"/>
			</clipPath>
			<path style="clip-path:url(#XMLID_00000153703833092945158160000017778229552479596732_);fill:#E57492;" d="M-1296,1493.1
				c0,0,72.5,8.4,107.4-20c0,0,2.7-60.6,0.7-60.6c-2,0-104.2,3.4-104.2,3.4L-1296,1493.1z"/>
		</g>
	</g>
	<g>
		<g>
			<defs>
				<path id="XMLID_391_" d="M-1188.1,1681c0,0-62.3,22.9-62.7,24.2c-0.4,1.2-6.6,16.6-4.6,17c2.1,0.4,122.6-1.3,123.4-2.5
					s4.4-16.9,3.6-20.6c-0.8-3.7-10-18-10-18H-1188.1z"/>
			</defs>
			<use xlink:href="#XMLID_391_"  style="overflow:visible;fill:#D0A967;"/>
			<clipPath id="XMLID_00000104675713919868836740000012205581119168543107_">
				<use xlink:href="#XMLID_391_"  style="overflow:visible;"/>
			</clipPath>
			<path style="clip-path:url(#XMLID_00000104675713919868836740000012205581119168543107_);fill:#C7892B;" d="M-1260,1716
				c0,0,130.6-4.1,131.8-2.6c1.2,1.5,5.5,8.3,0,8.8c-5.5,0.5-131.5,4.6-132.1,2C-1260.8,1721.7-1260,1716-1260,1716z"/>
		</g>
		<g>
			<defs>
				<path id="XMLID_390_" d="M-1124.6,1433.5c0,0-65-5.1-65,10.2c0,15.3,13,226.2,13,226.2s-28.1,16.5-27,16.9
					c1.1,0.4,34,7.4,46.1,4.8c12-2.6,19.2-10.5,19.2-10.5l-1.6-11.1c0,0,14.6-67.5,19.1-127.6
					C-1116.3,1482.1-1124.6,1433.5-1124.6,1433.5z"/>
			</defs>
			<use xlink:href="#XMLID_390_"  style="overflow:visible;fill:#FE8E9C;"/>
			<clipPath id="XMLID_00000127758946197390724740000014876150485987809975_">
				<use xlink:href="#XMLID_390_"  style="overflow:visible;"/>
			</clipPath>
			<path style="clip-path:url(#XMLID_00000127758946197390724740000014876150485987809975_);fill:#E57492;" d="M-1207.5,1493.1
				c0,0,72.5,8.4,107.4-20c0,0,2.7-60.6,0.7-60.6s-104.2,3.4-104.2,3.4L-1207.5,1493.1z"/>
		</g>
	</g>
	<g>
		<g>
			<defs>
				<path id="XMLID_389_" d="M-1236,739.1c-3.6,8.9,0.2,19.3-2.9,28.4c-1.5,4.4-4.4,8-7,11.8c-7.1,10.2-12.5,21.8-13.6,34.2
					c-1.2,12.3,2.2,25.4,10.5,34.6c2.4,2.6,5.2,4.9,8.4,6.4c4.8,2.3,10.3,2.8,15.6,2.6c11.1-0.3,22.3-3.4,31.7-9.4
					c9.4-6,16.9-15.1,20.5-25.6c2.4-6.9,3-14.3,3.4-21.7c1-21.2-0.4-42.4-3.8-63.3c-0.9-5.6-2.2-11.6-6.2-15.7
					c-4.4-4.3-11.1-5.4-17.2-4.3c-3.5,0.7-6.9,2-10.1,3.5c-2.7,1.3-4.9,2.7-7.9,3c-2.8,0.3-5.7,1.8-8.2,3.1
					c-2.6,1.3-5.2,2.9-7.4,4.8C-1232.7,733.5-1234.8,736.1-1236,739.1z"/>
			</defs>
			<use xlink:href="#XMLID_389_"  style="overflow:visible;fill:#333333;"/>
			<clipPath id="XMLID_00000156580342223845101310000010445828056431751811_">
				<use xlink:href="#XMLID_389_"  style="overflow:visible;"/>
			</clipPath>
			<path style="clip-path:url(#XMLID_00000156580342223845101310000010445828056431751811_);fill:#4D4D4D;" d="M-1214.7,723.5
				c0,0-24.6,58-26.8,83c-2.2,25,7.4,46.7,42.7,40.4c35.3-6.2,0,0,0,0s12.9-121.4,7.5-123.6
				C-1196.7,721.1-1214.7,723.5-1214.7,723.5"/>
		</g>
		<g>
			<defs>
				<path id="XMLID_388_" d="M-1198,870.6c0,0-47.7,24.5-66.4,56.1l0,0c0,0-89.3,120.9-97.8,131.4c-8.5,10.4-122.2,99.4-122.2,99.4
					l23.3,32c0,0,145.7-68,160-85.6c9.4-11.6,29.1-37.8,41.4-54.3c6,33.9,11.8,63.9,11.3,71c-1.1,14.8-27.6,46.6-13.2,57.2
					s32.9,11.7,32.9,11.7l40.6-14.5L-1198,870.6z"/>
			</defs>
			<use xlink:href="#XMLID_388_"  style="overflow:visible;fill:#D0A967;"/>
			<clipPath id="XMLID_00000150814482258316072900000003188547557915612840_">
				<use xlink:href="#XMLID_388_"  style="overflow:visible;"/>
			</clipPath>
			<path style="clip-path:url(#XMLID_00000150814482258316072900000003188547557915612840_);fill:#C7892B;" d="M-1251.5,1189.3
				c0,0,17.3-56.8,17.9-73.6c0.6-16.9-32.3-112.6-33.6-141.4c-1.4-28.7-0.7-54.8,15-74.3s64.1-40.7,64.1-40.7s21.5,335,3,339.7
				C-1203.6,1203.8-1251.5,1189.3-1251.5,1189.3z"/>
		</g>
		<g>
			<defs>
				<path id="XMLID_387_" d="M-1217,1113c0,0,125.9-5,134.9,0s45.5,78.9,44.5,127.9c-0.8,42-50.5,172-64.7,208.2
					c-2.3,5.9-7.6,10.2-13.8,11.4c-29.6,5.3-122.2,27.2-162-2.8c-39.9-30.2,48.4-261.8,52.3-287.7C-1222,1143.9-1217,1113-1217,1113
					z"/>
			</defs>
			<use xlink:href="#XMLID_387_"  style="overflow:visible;fill:#999999;"/>
			<clipPath id="XMLID_00000087372182231167776970000013764382140218440325_">
				<use xlink:href="#XMLID_387_"  style="overflow:visible;"/>
			</clipPath>
			<path style="clip-path:url(#XMLID_00000087372182231167776970000013764382140218440325_);fill:#C7892B;" d="M-1265.7,1199.1
				c0,0,199.6-48.2,202.3-64.1l-2.7-22.4c0,0-155.5-5.9-161.9,0S-1265.7,1199.1-1265.7,1199.1z"/>
			<path style="clip-path:url(#XMLID_00000087372182231167776970000013764382140218440325_);fill:#C7892B;" d="M-1130.5,1124
				c0,0,2.6,96.8,26.8,101.1c24.1,4.3,68.7-32.4,68.7-32.4l-22.1-71.4L-1130.5,1124z"/>
		</g>
		<g>
			<defs>
				<path id="XMLID_386_" d="M-1198,871.3c0,0-62.9,49.6-60.9,79.4c2.1,29.8,35.5,156.2,41.9,162.4c6.4,6.2,124.6,6.2,134.9,0
					c10.3-6.2,23.8-186.7,10.5-209.4c-13.4-22.6-64.5-36.2-64.5-36.2L-1198,871.3z"/>
			</defs>
			<use xlink:href="#XMLID_386_"  style="overflow:visible;fill:#FFFCF8;"/>
			<clipPath id="XMLID_00000115508621872178476730000018041579133027723677_">
				<use xlink:href="#XMLID_386_"  style="overflow:visible;"/>
			</clipPath>
			<path style="opacity:0.37;clip-path:url(#XMLID_00000115508621872178476730000018041579133027723677_);fill:#E6E6E6;" d="
				M-1248.8,1003.7c0,0,58.4,89.5,140.3,91.3c81.9,1.7,29.6,34.9,29.6,34.9s-136.1,32-154.8,5.1
				C-1252.3,1108-1248.8,1003.7-1248.8,1003.7"/>
		</g>
		<path class="st15" d="M-1221.2,1103.7c0,0-0.3,18.6,4.1,21.8s140.8,3,143.1-2.2c2.2-5.2,2.4-19.9-4.3-19.6
			C-1085,1104-1221.2,1103.7-1221.2,1103.7z"/>
		<path class="st16" d="M-1176.7,1100.9c0,0-1.9,28.5,3.2,29.5c5.1,1,20.3,4.1,20.6,0c0.3-4.1,0.6-28.9-2.4-29.5
			C-1158.3,1100.2-1173.5,1097.9-1176.7,1100.9z"/>
		<g>
			<path class="st17" d="M-1496.1,1168.4c0,0-8.9,18.1-9.5,18.5c-0.6,0.4-40.3,31.7-33,30.6s30.9-17,30.9-17s-21.7,20.7-20.5,22.6
				c1.2,2,35.6-23.9,37.8-26.2c2.2-2.4,6.4-16.7,6.4-16.7L-1496.1,1168.4z"/>
			<path class="st18" d="M-1473.2,1166.1c0,0-35.4-14.4-39.6-9.9c-4.8,5.2,19.2,13.2,16.6,19.2c-2.6,6-6.4,13.9-7.2,14.9
				c-0.8,1-33.2,10.5-30.6,13.1s39.5-1.6,42.4-3.3c2.9-1.6,25.3-19.5,25.3-19.5L-1473.2,1166.1z"/>
		</g>
		<g>
			<path class="st17" d="M-821.9,867.5c0,0,14.6-13.9,14.9-14.6c0.2-0.7,17.5-32.2,18.7-27.1c1.6,7.2-6.3,21.1-6.3,21.1
				s13.2-27,15.5-26.3c4.6,1.4-12.1,41.1-13.7,44c-1.6,2.9-14,11.1-14,11.1L-821.9,867.5z"/>
			<path class="st18" d="M-825.4,882.1c0,0-4.9-37.9,0.6-40.8c6.2-3.3,7.8,21.9,14.3,21c6.5-0.9,15.1-2.6,16.3-3.1
				c1.2-0.5,18.6-29.4,20.5-26.2c1.9,3.1-11.7,37.7-14.1,40.1c-2.3,2.4-25.3,19.4-25.3,19.4L-825.4,882.1z"/>
		</g>
		<g>
			<g>
				<g>
					<defs>
						<path id="XMLID_361_" d="M-1126.5,733c-9.1-17.9-67.7-43-81.5-7.6c-16.2,38.5-53.1,114.8,9.7,100.1c-1.7,17,1,67.7,1.3,73.1
							c0.4,7.5,62.2-16.8,61.6-28.8c-0.6-10.5-18.4-66.6-18.4-66.6C-1146.8,793.1-1119,747.2-1126.5,733z"/>
					</defs>
					<use xlink:href="#XMLID_361_"  style="overflow:visible;fill:#FE8E9C;"/>
					<clipPath id="XMLID_00000041262833216036607050000017194812490572719780_">
						<use xlink:href="#XMLID_361_"  style="overflow:visible;"/>
					</clipPath>
					<path style="clip-path:url(#XMLID_00000041262833216036607050000017194812490572719780_);fill:#E57492;" d="M-1221,739
						c0,0,39.5,4.3,48.8-7.2l2-22.5c0,0-39.8-3.1-42,0.2C-1214.4,712.8-1221,739-1221,739z"/>
					<path style="clip-path:url(#XMLID_00000041262833216036607050000017194812490572719780_);fill:#FFFFFF;" d="M-1220.6,796.7
						c0,0,6.8,4.3,16.3-4.4c0,0-1.8,11.6-9.5,11.6C-1223.2,803.8-1220.6,796.7-1220.6,796.7z"/>
				</g>
				<path class="st17" d="M-1195.3,747.3c0,0-26,18.1-21.7,22.6s22.4,1.1,22.4,1.1c-1.8,7.2-25.6,5.1-25.8-0.2
					C-1222.8,761.2-1195.3,747.3-1195.3,747.3z"/>
				<path class="st17" d="M-1198.3,825.6c0,0,12.7-3.8,20.9-10.2c0,0-2.7,25.7-21.4,31.6L-1198.3,825.6z"/>
			</g>
		</g>
		<path class="st21" d="M-1191.3,899.2c0,0,9.6,27,21.8,25.3c12.3-1.7,44.9-38.9,33.3-57.7C-1136.2,866.8-1156.7,885.7-1191.3,899.2
			z"/>
		<path class="st21" d="M-1196.8,898.4c0,0-14.1,12.2-20.1,9.8s1.9-22.6,1.9-22.6l17-15.1C-1198,870.6-1197.2,894-1196.8,898.4z"/>
		<g>
			<defs>
				<path id="XMLID_360_" d="M-832.5,861.9c0,0-130.6,94.8-137.2,93.6c-6.6-1.2-107.5-65.9-107.5-65.9s0,0,0,0
					c-10-7.5-23.8-13.4-42.3-16.6c0,0-15.9,41.4-14.3,96.2c1.6,54.8,27.1,230,35.2,230s74.4-20.4,77.4-32.6
					c3.1-12.2-40.8-108-38.7-148.8c0.3-5.4,1.1-11.6,2.2-18.3c30.9,14.2,73.7,41.9,95.8,35.4c16.8-4.9,156.2-134.8,156.2-134.8
					L-832.5,861.9z"/>
			</defs>
			<use xlink:href="#XMLID_360_"  style="overflow:visible;fill:#D0A967;"/>
			<clipPath id="XMLID_00000022555348717777574640000000555803016596077467_">
				<use xlink:href="#XMLID_360_"  style="overflow:visible;"/>
			</clipPath>
			<path style="clip-path:url(#XMLID_00000022555348717777574640000000555803016596077467_);fill:#C7892B;" d="M-1057.6,999.5
				c0,0-24.1-29.5-26.8-44.3c0,0-11.5,52.9,1.2,81.6c12.7,28.7,45.6,58.3,45.6,58.3s-17.2-53.5-17.5-67.4
				C-1055.4,1013.8-1057.6,999.5-1057.6,999.5"/>
		</g>
		<g>
			<defs>
				<path id="XMLID_359_" d="M-1092.4,797.8c2.8-9,2.3-19-1.5-27.7c-1.6-3.7-3.8-7.2-5.2-11c-3.8-10.5-1-22.4-4.1-33.1
					c-4.3-14.8-19-24.3-33.8-28.2c-3.4-0.9-7-1.5-10.5-1.1c-2.9,0.4-5.6,1.5-8.2,2.8c-0.8,0.4-1.7,0.9-2.5,1.4
					c-0.5-6.5-5-12.8-11.2-15.2c-8-3.1-17.6,0-23.1,6.5c-0.9,1-1.7,2.2-2.8,2.9c-1.9,1.1-4.2,0.8-6.4,0.8c-6.2,0-12.3,2.8-16.3,7.4
					c-4.1,4.6-6,11.1-5.1,17.2c0.4,2.7,1.4,5.5,3.6,7.1c2.8,2,6.5,1.5,9.8,1.6c5,0.2,9.9,1.7,14.9,1.7c3.6,0,7.1-0.8,10.4-2.2
					c2.9-1.3,5.6-3,8-5.1c0.1-0.1,0.2-0.2,0.3-0.3c-3.9,10.5-3.4,22.7,1.8,32.6c4,7.7,10.7,14.3,12,22.8c1.1,7.4-2,14.7-3.3,22.1
					c-1.5,8.9-0.3,18.1,2.4,26.7c1.1,3.6,2.5,7.2,4.9,10.1c2.1,2.6,4.9,4.5,7.6,6.3c8.2,5.6,16.7,11.2,26.3,13.6
					c9.6,2.4,20.8,1.1,27.9-5.8c1.7-1.6,3.1-3.6,3.9-5.8c2.9-8.5-4.9-16.7-5.8-25.6C-1099.4,812.7-1094.8,805.4-1092.4,797.8z"/>
			</defs>
			<use xlink:href="#XMLID_359_"  style="overflow:visible;"/>
			<clipPath id="XMLID_00000134962226912422867610000015729242949578557860_">
				<use xlink:href="#XMLID_359_"  style="overflow:visible;"/>
			</clipPath>
			<path style="clip-path:url(#XMLID_00000134962226912422867610000015729242949578557860_);fill:#333333;" d="M-1159.4,702.8
				c0,0-16.7,30-3.1,53c13.7,22.9,6,34.7,0,51c-6,16.4-6.6,24.4-6.6,24.4s-1.4-43.3,1.3-51.7c2.7-8.4-15.3-22.8-16-36.7
				C-1184.7,728.8-1159.4,702.8-1159.4,702.8z"/>
		</g>
	</g>
</g>
<path class="st1" d="M-2371,545.3c0,0,50-175.1,281.4-297.4C-2089.6,247.9-2317.6,310.6-2371,545.3z"/>
<path class="st1" d="M-1500.3,336.4c0,0,124.9,92.9,191.7,267.5C-1308.6,603.9-1326.2,442.5-1500.3,336.4z"/>
<path class="st1" d="M-2273.9,1149.4c0,0,86.2,126.9,251.2,163.8C-2022.6,1313.2-2172.1,1247.2-2273.9,1149.4z"/>
<g>
	<g>
		<g>
			<defs>
				<path id="XMLID_401_" d="M-1818.2,1677.5V956.1h-76.3v721.4c-118.2,1.8-208.8,11.7-208.8,23.7c0,13.2,110.5,23.9,246.9,23.9
					s246.9-10.7,246.9-23.9C-1609.5,1689.2-1700,1679.3-1818.2,1677.5z"/>
			</defs>
			<use xlink:href="#XMLID_401_"  style="overflow:visible;fill:#D0A967;"/>
			<clipPath id="XMLID_00000157995713857559572350000012467274623527010491_">
				<use xlink:href="#XMLID_401_"  style="overflow:visible;"/>
			</clipPath>
			<path style="clip-path:url(#XMLID_00000157995713857559572350000012467274623527010491_);fill:#C7892B;" d="M-1911.7,1215v98.2
				c0,0,61.9,56.3,128.5,39.3v-145.3L-1911.7,1215z"/>
		</g>
		<g>
			<path class="st15" d="M-1844.3,259.6c-0.3,0-0.6,0-1,0c-279.2,0-505.5,226.3-505.5,505.5s226.3,505.5,505.5,505.5
				c0.3,0,0.6,0,1,0c278.7-0.5,504.6-226.6,504.6-505.5S-1565.5,260.1-1844.3,259.6z"/>
			<g>
				<path class="st16" d="M-1856.4,1258.6c272.1-0.5,492.5-221.2,492.5-493.5h-492.5V1258.6z"/>
				<path class="st25" d="M-2350.8,765.1c0,272.5,220.9,493.5,493.5,493.5c0.3,0,0.6,0,0.9,0V765.1H-2350.8z"/>
				<path class="st25" d="M-1856.4,271.7v493.5h492.5C-1363.8,492.9-1584.3,272.2-1856.4,271.7z"/>
				<path class="st16" d="M-1856.4,271.7c-0.3,0-0.6,0-0.9,0c-272.5,0-493.5,220.9-493.5,493.5h494.4V271.7z"/>
			</g>
			
				<ellipse transform="matrix(0.9239 -0.3827 0.3827 0.9239 -434.1134 -652.1563)" class="st15" cx="-1856.4" cy="765.1" rx="38.1" ry="38.1"/>
			<path class="st15" d="M-1926.1,241.3l69.8,173.2l69.6-172.2v0c-43.8-20.4-94.2-20.9-138.4-1.5L-1926.1,241.3z"/>
		</g>
	</g>
</g>
<g>
	<g>
		<defs>
			<path id="XMLID_400_" d="M-2615,1636.4c0,0-2.9,26.9-4.4,30.9c-1.6,4-8.2,12.3-8.2,12.3s23.8,12.4,36.5,8.6
				c12.7-3.7,25.2-13,25.2-13s-5.6-10.1-5.3-11.9c0.3-1.9,2.9-24.6,2.9-24.6L-2615,1636.4z"/>
		</defs>
		<use xlink:href="#XMLID_400_"  style="overflow:visible;fill:#FE8E9C;"/>
		<clipPath id="XMLID_00000072238706345186582490000010025413264855779221_">
			<use xlink:href="#XMLID_400_"  style="overflow:visible;"/>
		</clipPath>
		<path style="clip-path:url(#XMLID_00000072238706345186582490000010025413264855779221_);fill:#E57492;" d="M-2621.6,1658.8
			c0.7,0,29.6,13,54.5-4.2v-31.9l-55.6,2.1L-2621.6,1658.8z"/>
	</g>
	<g>
		<path class="st27" d="M-2627.7,1679.6c0,0,39.7,7.7,61.7-4.3c0,0,22,17.3,33.5,18.9c11.5,1.6,34.4,11.2,35.4,26h-130.5
			C-2627.7,1720.2-2635.3,1691.5-2627.7,1679.6z"/>
		<path class="st15" d="M-2560.6,1679.3c0,0-7.3,8.5-6.4,10s2.6,2.4,3.2,1.9c0.6-0.5,6.9-9.3,6.5-9.6
			C-2557.7,1681.3-2560.6,1679.3-2560.6,1679.3z"/>
		<path class="st15" d="M-2551.3,1685.4c0,0-6.8,8.9-5.9,10.4c0.9,1.5,2.7,2.2,3.3,1.7c0.6-0.5,6.4-9.7,6-9.9
			C-2548.3,1687.3-2551.3,1685.4-2551.3,1685.4z"/>
		<path class="st15" d="M-2542.8,1690.3c0,0-6.4,9.2-5.4,10.6c1,1.4,2.8,2.1,3.3,1.6s5.9-10,5.5-10.2
			C-2539.7,1692-2542.8,1690.3-2542.8,1690.3z"/>
	</g>
	<g>
		<defs>
			<path id="XMLID_399_" d="M-2831.9,1635.5c0,0-2.9,26.9-4.4,30.9s-8.2,12.3-8.2,12.3s23.8,12.4,36.5,8.6c12.7-3.7,25.2-13,25.2-13
				s-5.6-10.1-5.3-11.9c0.3-1.9,2.9-24.6,2.9-24.6L-2831.9,1635.5z"/>
		</defs>
		<use xlink:href="#XMLID_399_"  style="overflow:visible;fill:#FE8E9C;"/>
		<clipPath id="XMLID_00000115486978945567680010000009308561535410416288_">
			<use xlink:href="#XMLID_399_"  style="overflow:visible;"/>
		</clipPath>
		<path style="clip-path:url(#XMLID_00000115486978945567680010000009308561535410416288_);fill:#E57492;" d="M-2843.4,1651.8
			c0,0,33.3,21.4,62.5,4.9l3.1-20.3l-60.1-4.2L-2843.4,1651.8z"/>
	</g>
	<path class="st27" d="M-2604.9,902.9c0,0,94.9,73.9,110.3,76.4c15.4,2.4,177.1,11.2,177.1,11.2v42.2c0,0-174.9,30.8-190.3,25
		c-15.4-5.8-100.9-37-105.7-51.2c-4.8-14.2-7.5-103.6-7.5-103.6H-2604.9z"/>
	<g>
		<defs>
			<path id="XMLID_398_" d="M-2351.3,723.9c1.7-6.9,2.7-10.9,2.7-10.9c13.4-13.1,40.9-42,36.7-41.6c-4.1,0.3-19,10.1-19,10.1
				s22.8-37.4,19.5-37.9c-3.4-0.5-21.2,23.1-21.2,23.1s17.4-41.7,12.5-38.7c-7.8,4.9-19.5,31.1-21,32.4c-1.5,1.3,6.5-34.1,4.7-35.3
				c-3.5-2.3-22.1,43.5-22.1,43.5s-17.8-31-17.1-22.2c2.8,33.1,0.5,58.6,0.5,58.6c-1.6,2.2-3.2,4.3-4.8,6.5L-2351.3,723.9z"/>
		</defs>
		<use xlink:href="#XMLID_398_"  style="overflow:visible;fill:#FE8E9C;"/>
		<clipPath id="XMLID_00000078766572289041638190000009201882882337388436_">
			<use xlink:href="#XMLID_398_"  style="overflow:visible;"/>
		</clipPath>
		<path style="clip-path:url(#XMLID_00000078766572289041638190000009201882882337388436_);fill:#E57492;" d="M-2580.4,913.2
			c2.2-0.7,143.3-4.5,166.5,2.3c23.2,6.8-102.2,37.9-120.4,37.2C-2552.6,952.1-2580.4,913.2-2580.4,913.2z"/>
	</g>
	<g>
		<g>
			<defs>
				<path id="XMLID_397_" d="M-2624.1,748c-14.3-5.9-17.5-42.1-17.5-42.1c-6.1-27.4-60.4-14.8-69.7,4.1c-9.3,18.9,20.1,69.3,25.1,77
					c0.2,0.3,0.4,0.5,0.6,0.8c-3.1,9.2-18.4,55.3-9.3,59.8c10.1,5,61.5,0.6,60.8-6.4c-0.5-4.2-5.7-24.5-9.9-40
					c7.5,1.1,14.1,1.4,17.9,0.5c12.4-2.8,2-28.6,3.6-33.4c1.6-4.8,11.4-1.2,19.1-6.2C-2595.8,757.1-2609.9,753.9-2624.1,748z"/>
			</defs>
			<use xlink:href="#XMLID_397_"  style="overflow:visible;fill:#FE8E9C;"/>
			<clipPath id="XMLID_00000080914474940402517150000008675924178677470368_">
				<use xlink:href="#XMLID_397_"  style="overflow:visible;"/>
			</clipPath>
			<path style="clip-path:url(#XMLID_00000080914474940402517150000008675924178677470368_);fill:#E57492;" d="M-2644,801.1
				c0,0-2.7-0.2-9.5-6.9c0,0,1.4,15.6,13.9,23.7L-2644,801.1"/>
			<path style="clip-path:url(#XMLID_00000080914474940402517150000008675924178677470368_);fill:#FFFFFF;" d="M-2620.8,776
				c0,0-17.6-3.4-19.3-2.2c-1.7,1.1,8.8,12.3,15.2,10.8c6.4-1.4,7.2-3.3,7.2-3.3L-2620.8,776z"/>
			<path style="clip-path:url(#XMLID_00000080914474940402517150000008675924178677470368_);fill:#E57492;" d="M-2634.9,726.8
				c0,0-14.6,5.8-27.3,0.6c0,0-1.9,12-15.9,16.1c-14,4,0,0,0,0s3.3-26.2,5.3-27.7c2-1.5,34.8-7.1,34.8-7.1L-2634.9,726.8z"/>
		</g>
	</g>
	<g>
		<g>
			<defs>
				<path id="XMLID_396_" d="M-2578.2,1132.8c0,0,34.2,500.2,23.8,506.4c-10.4,6.3-64.5,20.5-76.5,6.9s-55.5-389.7-55.5-389.7
					s-68,391.2-89.6,392.4c-21.7,1.1-65.9,10.4-71.5-14.5c-5.6-24.9,60.8-498.8,60.8-498.8L-2578.2,1132.8z"/>
			</defs>
			<use xlink:href="#XMLID_396_"  style="overflow:visible;fill:#A6A7AA;"/>
			<clipPath id="XMLID_00000018210127369838403570000004708204113695902137_">
				<use xlink:href="#XMLID_396_"  style="overflow:visible;"/>
			</clipPath>
			<path style="clip-path:url(#XMLID_00000018210127369838403570000004708204113695902137_);fill:#C7892B;" d="M-2804.2,1177.8
				c0,0,144,34.2,233.3-28.1l2.3-16.8h-232.7L-2804.2,1177.8z"/>
			<path style="clip-path:url(#XMLID_00000018210127369838403570000004708204113695902137_);fill:#676767;" d="M-2584.1,1669
				c-0.5,0-0.9-0.4-0.9-0.9c-0.1-1.7-10.6-172.4-17.2-251.7c-6.6-78.6-33.7-259.3-37.7-264.9c-0.4-0.4-0.3-0.9,0-1.3
				c0.4-0.4,1-0.3,1.3,0c3.3,3.3,16.7,94.3,18.2,104.7c9.6,65.4,17.1,125.8,20,161.4c6.6,79.3,17.1,250,17.2,251.7
				C-2583.1,1668.5-2583.5,1669-2584.1,1669C-2584,1669-2584.1,1669-2584.1,1669z"/>
			<path style="clip-path:url(#XMLID_00000018210127369838403570000004708204113695902137_);fill:#676767;" d="M-2817.8,1662.6
				c-0.1,0-0.1,0-0.2,0c-0.5-0.1-0.8-0.6-0.7-1.1c0.5-2.5,48.5-253.6,53.1-288.6c4.6-35,8.6-213.6,8.6-215.4c0-0.5,0.4-0.9,0.9-0.9
				c0.5,0,0.9,0.4,0.9,0.9c0,1.8-4,180.5-8.6,215.6c-4.6,35.1-52.6,286.2-53.1,288.7C-2817,1662.3-2817.4,1662.6-2817.8,1662.6z"/>
		</g>
		<path class="st34" d="M-2686.4,1256.5c0,0-13.8-5.5-29.5-47.7c0,0-9.9,61.2,23,84.5L-2686.4,1256.5z"/>
	</g>
	<path class="st35" d="M-2707.5,839.9c0,0,4-14.9,7.1-16.8c3.1-2,22.3-7.6,35-7.4c12.7,0.2,32.3,2.8,33.9,5c1.5,2.2,1.6,10,1.6,10
		S-2666.2,831.5-2707.5,839.9z"/>
	<g>
		<defs>
			<path id="XMLID_395_" d="M-2741.1,861.3c0,0,10.5-28.1,73.7-30.9c17.4-0.8,182.4,4.2,189.2,0c6.8-4.2,97.4-136.5,97.4-136.5
				l42.6,20.1c0,0-59.5,188.2-94.7,208.1c-35.2,19.9-150.9,16.5-150.9,16.5s36,199.6,25.4,205.3s-130.9,50.9-243.2,18.1l34-145.1
				C-2767.4,1016.8-2769.9,902.9-2741.1,861.3z"/>
		</defs>
		<use xlink:href="#XMLID_395_"  style="overflow:visible;fill:#D0A967;"/>
		<clipPath id="XMLID_00000182515808808346882270000008753638871765449403_">
			<use xlink:href="#XMLID_395_"  style="overflow:visible;"/>
		</clipPath>
		<path style="clip-path:url(#XMLID_00000182515808808346882270000008753638871765449403_);fill:#C7892B;" d="M-2583.7,939.5
			c-0.5,0-0.9-0.4-0.9-0.8c-6.9-71.8-34-106.8-34.2-107.2c-0.3-0.4-0.2-1,0.2-1.3c0.4-0.3,1-0.2,1.3,0.2
			c0.3,0.3,27.7,35.8,34.6,108.2C-2582.7,938.9-2583.1,939.4-2583.7,939.5C-2583.6,939.5-2583.6,939.5-2583.7,939.5z"/>
		<path style="clip-path:url(#XMLID_00000182515808808346882270000008753638871765449403_);fill:#C7892B;" d="M-2540.4,885.2
			c-27.5,0-51.5-0.6-53.7-0.7c-0.5,0-0.9-0.4-0.9-0.9c0-0.5,0.5-0.9,0.9-0.9c1.2,0,122.1,3.1,136.8-4.5
			c14.6-7.6,97.6-172.2,98.5-173.9c0.2-0.5,0.8-0.6,1.2-0.4c0.5,0.2,0.6,0.8,0.4,1.2c-3.4,6.8-84.2,166.8-99.3,174.7
			C-2464.8,884.2-2505.5,885.2-2540.4,885.2z"/>
		<path style="clip-path:url(#XMLID_00000182515808808346882270000008753638871765449403_);fill:#C7892B;" d="M-2767.4,1016.8
			c0,0,13.1,35.2,48,38.4c0,0-42.5,13-57.5-13.8C-2777,1041.4-2779.4,1023.7-2767.4,1016.8"/>
	</g>
	<g>
		<defs>
			<path id="XMLID_394_" d="M-2639.6,706.7c0,0-2.4,14.3-32.4,13.8c0,0,0.7,15.7-6.2,22.9c0,0-1.5-11.1-8.9-11.3
				s-10.6,21.7,6.4,26.3c0,0,1.3,23.3-5.1,29.9s0,0,0,0s-38.7-29.1-39.9-62.4c-1.2-33.2,27.8-51.2,42.3-53.4
				c14.5-2.2,60.5-0.2,65-3.9c4.4-3.7-2,15.5-11.6,17.4c0,0,17-3.8,17,2.6s-21.9,11.8-21.9,11.8s16.5,0.5,13.5,5.9"/>
		</defs>
		<use xlink:href="#XMLID_394_"  style="overflow:visible;"/>
		<clipPath id="XMLID_00000022557390786500852140000010024747224276944001_">
			<use xlink:href="#XMLID_394_"  style="overflow:visible;"/>
		</clipPath>
		<path style="clip-path:url(#XMLID_00000022557390786500852140000010024747224276944001_);fill:#4D4D4D;" d="M-2728.2,718.9
			c0,0,19.4,36.4,33.5,40.9c14.1,4.5,20.1,1.8,20.1,1.8s-1.4,25-12.7,31.1c0,0-24.8-9-33.2-32.7
			C-2729,736.3-2728.2,718.9-2728.2,718.9z"/>
	</g>
	<g>
		<path class="st27" d="M-2844.5,1678.6c0,0,39.7,7.7,61.7-4.3c0,0,22,17.3,33.5,18.9c11.5,1.6,34.4,11.2,35.4,26h-130.5
			C-2844.5,1719.3-2852.1,1690.6-2844.5,1678.6z"/>
		<path class="st15" d="M-2777.4,1678.3c0,0-7.3,8.5-6.4,10c0.9,1.5,2.6,2.4,3.2,1.9s6.9-9.3,6.5-9.6
			C-2774.5,1680.4-2777.4,1678.3-2777.4,1678.3z"/>
		<path class="st15" d="M-2768.1,1684.5c0,0-6.8,8.9-5.9,10.4c0.9,1.5,2.7,2.2,3.3,1.7c0.6-0.5,6.4-9.7,6-9.9
			C-2765.1,1686.4-2768.1,1684.5-2768.1,1684.5z"/>
		<path class="st15" d="M-2759.6,1689.3c0,0-6.4,9.2-5.4,10.6c1,1.4,2.8,2.1,3.3,1.6s5.9-10,5.5-10.2
			C-2756.5,1691.1-2759.6,1689.3-2759.6,1689.3z"/>
	</g>
</g>
<g>
	<g>
		<path class="st16" d="M-1831.4,665.4l5.4-5.1l10.2,5.1c1.3,0.7,2.7,1.6,4.1,2.4l0.1-0.1c-0.7-1.4-1.5-2.9-2.1-4.3l-4.6-10.4
			l5.4-5.1l17.9,19l-4.6,4.3l-5.3-5.6c-1.8-1.9-4.2-5.3-5.7-7.4l-0.1,0.1l2.7,6l3.6,8.5l-2.7,2.5l-8.2-4.1l-5.8-3.1l-0.1,0.1
			c2,1.7,5.2,4.2,7,6.2l5.3,5.6l-4.5,4.2L-1831.4,665.4z"/>
		<path class="st16" d="M-1800.1,653.7c-5.9-6.3-5.6-13.1-0.4-18.1c5.3-4.9,12.2-4.8,18,1.5c5.9,6.3,5.8,13.3,0.5,18.2
			C-1787.2,660.3-1794.2,660-1800.1,653.7z M-1787.6,642c-3.2-3.5-6.5-4.1-8.8-2s-1.8,5.5,1.4,8.9c3.2,3.5,6.7,4.3,9,2.1
			C-1783.7,648.9-1784.3,645.4-1787.6,642z"/>
		<path class="st16" d="M-1772.8,641.7l-0.4-6.1c2.4-0.2,4.8-1,6.2-2.3c1.5-1.4,1.7-2.5,0.9-3.4c-0.9-0.9-2.1-0.3-4.3,0.6l-3.3,1.2
			c-2.8,1.1-6.2,1.1-8.8-1.7c-3.1-3.2-2.6-8.7,1.5-12.6c2.2-2,5.3-3.5,8.7-3.4l0.5,5.5c-2.1,0.3-3.7,0.9-5.1,2.2
			c-1.2,1.2-1.6,2.3-0.8,3.2c0.9,0.9,2.2,0.2,4.6-0.7l3.2-1.3c3.2-1.3,6.1-0.9,8.6,1.7c3,3.2,3,8.6-1.7,13.1
			C-1765.5,639.9-1769,641.6-1772.8,641.7z"/>
		<path class="st16" d="M-1762.7,608.7l-5,4.7l-4-4.2l15.1-14.2l4,4.2l-5,4.7l13.9,14.8l-5,4.7L-1762.7,608.7z"/>
		<path class="st16" d="M-1738.5,596.3c-6-6.4-5-14.1-0.2-18.6c2.5-2.4,5.7-3.1,8.3-3l0.4,5.7c-1.7,0.1-3.2,0.4-4.5,1.6
			c-2.2,2.1-2.2,6,1,9.4c3.4,3.6,6.9,4,9.3,1.7c1.5-1.4,1.9-3.2,1.9-4.9l5.6,0.7c0.2,3.4-1.2,6.4-3.6,8.7
			C-1725.1,602-1732.4,602.7-1738.5,596.3z"/>
		<path class="st16" d="M-1721,579.4c-5.9-6.3-5.6-13.1-0.4-18.1c5.3-4.9,12.2-4.8,18,1.5c5.9,6.3,5.8,13.3,0.5,18.2
			C-1708.1,585.9-1715.1,585.6-1721,579.4z M-1708.5,567.6c-3.2-3.4-6.5-4.1-8.8-2c-2.3,2.1-1.8,5.5,1.4,8.9s6.7,4.3,9,2.1
			S-1705.2,571-1708.5,567.6z"/>
		<path class="st16" d="M-1708.2,549.6l5.4-5.1l10.2,5.1c1.3,0.7,2.7,1.6,4.1,2.4l0.1-0.1c-0.7-1.4-1.5-2.9-2.1-4.3l-4.6-10.4
			l5.4-5.1l17.9,19l-4.6,4.3l-5.3-5.6c-1.8-1.9-4.2-5.3-5.7-7.4l-0.1,0.1l2.7,6l3.6,8.5l-2.7,2.5l-8.2-4.1l-5.8-3.1l-0.1,0.1
			c2,1.7,5.2,4.2,7,6.2l5.3,5.6l-4.5,4.2L-1708.2,549.6z"/>
		<path class="st16" d="M-1684.9,527.7l7-6.5c4.2-3.9,9.1-5.7,13.7-0.9c4.4,4.6,2.6,10.1-1.3,13.8l-2,1.9l5.7,6l-5,4.7
			L-1684.9,527.7z M-1669.6,530.3c2-1.9,2-3.7,0.4-5.4c-1.6-1.7-3.3-1.3-5.2,0.5l-1.7,1.6l4.7,5L-1669.6,530.3z"/>
		<path class="st16" d="M-1666.6,510.4l12.3-11.5l4,4.2l-7.2,6.8l2.8,3l6.2-5.8l4,4.2l-6.2,5.8l3.2,3.4l7.5-7.1l4,4.2l-12.6,11.8
			L-1666.6,510.4z"/>
		<path class="st16" d="M-1642.1,495.4l-5,4.7l-4-4.2l15.1-14.2l4,4.2l-5,4.7l13.9,14.8l-5,4.7L-1642.1,495.4z"/>
		<path class="st16" d="M-1632.6,478.6l12.3-11.5l4,4.2l-7.2,6.8l2.8,3l6.2-5.8l4,4.2l-6.2,5.8l3.2,3.4l7.5-7.1l4,4.2l-12.6,11.8
			L-1632.6,478.6z"/>
		<path class="st16" d="M-1615.8,462.7l5.1-4.8l12.2,4.5l5.8,2.6l0.1-0.1c-2.2-1.8-5.3-4.3-7.5-6.6l-5.2-5.5l4.8-4.5l17.9,19
			l-5.1,4.8l-12.2-4.5l-5.8-2.5l-0.1,0.1c2.3,1.9,5.3,4.3,7.5,6.6l5.2,5.5l-4.8,4.5L-1615.8,462.7z"/>
		<path class="st16" d="M-1588,444.5l-5,4.7l-4-4.2l15.1-14.2l4,4.2l-5,4.7l13.9,14.8l-5,4.7L-1588,444.5z"/>
	</g>
</g>
<line class="st38" x1="400" y1="-73" x2="400" y2="926.7"/>
<path class="st39" d="M-245.7,461.1L-245.7,461.1L-245.7,461.1z"/>
<rect y="0" class="st40" width="915.7" height="673"/>
<g>
	<g>
		<path class="st41" d="M447,475.3c22.7,2.3,45.5,3.2,68,3.6c52.9,0.9,105.8-3.4,157.9-12.8c35.8-6.5,66.7-21.2,72.9-60.1
			c8-50.6-16.7-114.5-71.9-124c-17.1-2.9-34.8-2.8-51.2-8.4c-24.4-8.3-43.4-28.2-69.3-32.8c-26.4-4.8-55.7,0.9-76.9,18.5
			c-9.3,7.8-17.3,16.9-24.7,26.4c-5.8,7.4-11.1,16.6-19.9,20.8c-10.7,5.1-23.3,1.1-35.1-0.5c-20.2-2.7-44,3.8-59.2,17.9
			c-15.8,14.6-20.5,41.8-18.4,62.2c2.8,26.8,16,51.9,38.9,66.7C384,469.6,417.1,472.3,447,475.3z"/>
		<ellipse class="st1" cx="310.2" cy="560.1" rx="94.5" ry="7.8"/>
		<ellipse class="st1" cx="751.1" cy="558.6" rx="81" ry="8.5"/>
		<g>
			<defs>
				<path id="XMLID_00000147903541785279231410000000506113640497851029_" d="M420.3,339.8c0,0,8.5-6.4,8.9-5.7
					c0.4,0.7-3.1,4.6-2.7,4.9c0.4,0.3,11.5-1.6,12.6,0c1.1,1.6,2.7,8.5,1.2,8.9s-10.3,1.2-11.5,1.2c-1.2,0-8.8-1.2-8.8-1.2
					L420.3,339.8z"/>
			</defs>
			<use xlink:href="#XMLID_00000147903541785279231410000000506113640497851029_"  style="overflow:visible;fill:#FE8E9C;"/>
			<clipPath id="XMLID_00000044178832386679944270000013722778417743528097_">
				<use xlink:href="#XMLID_00000147903541785279231410000000506113640497851029_"  style="overflow:visible;"/>
			</clipPath>
			<path style="clip-path:url(#XMLID_00000044178832386679944270000013722778417743528097_);fill:#E57492;" d="M429,336.5
				c0,0,0.1,11.3,7.1,15.2c0,0,9.8-1.6,10.2-2.8c0.4-1.3-7.4-15.1-7.4-15.1L429,336.5z"/>
		</g>
		<g>
			<g>
				<defs>
					<path id="XMLID_00000155145426838990615930000008862006698860675718_" d="M657.3,513.5c-10.1,0.9-20.1,3-29.7,6.3
						c10.7-13.9,17.1-31.5,22.9-48c-13.7,6.1-27.4,12.8-39.7,21.4c2.9-13.6,3.2-27.9,2.7-41.7c-12.4,12.7-23.4,26.8-31.3,42.6
						c-3.4,6.7-6.2,13.7-8.3,20.9c0,0,0,0,0,0s0,0.1-0.1,0.2c-1,3.5-1.9,7.1-2.5,10.6c-1.5,7.5-3.1,18-2.9,28.3c0,0,22,2.5,36.7-2.9
						c0,0,0,0,0,0C626.3,545.5,645.9,531.5,657.3,513.5z"/>
				</defs>
				<use xlink:href="#XMLID_00000155145426838990615930000008862006698860675718_"  style="overflow:visible;fill:#E6E6E6;"/>
				<clipPath id="XMLID_00000134249940752699846300000000964910121824339342_">
					<use xlink:href="#XMLID_00000155145426838990615930000008862006698860675718_"  style="overflow:visible;"/>
				</clipPath>
				<path style="opacity:0.3;clip-path:url(#XMLID_00000134249940752699846300000000964910121824339342_);fill:#808080;" d="
					M610.9,493.2c0,0-35.3,32.8-42.4,61c-7.1,28.2,0,0,0,0s15.1-48.4,44.4-68.1c29.3-19.7,0,0,0,0L610.9,493.2"/>
				<path style="opacity:0.3;clip-path:url(#XMLID_00000134249940752699846300000000964910121824339342_);fill:#808080;" d="
					M627.7,519.8c0,0-16.3,20.4-43.9,34.9s0,0,0,0s39.7-18.4,49.1-36.6c9.3-18.2,0,0,0,0L627.7,519.8"/>
				<path style="clip-path:url(#XMLID_00000134249940752699846300000000964910121824339342_);fill:#808080;" d="M571.6,550.9
					c-0.1,0-0.2,0-0.2-0.1c-0.1-0.1-0.1-0.3,0.1-0.4c8.6-5.7,24.9-21.1,47.3-44.6c16.9-17.8,31.5-34.1,31.6-34.2
					c0.1-0.1,0.3-0.1,0.4,0c0.1,0.1,0.1,0.3,0,0.4c-0.1,0.2-14.7,16.5-31.6,34.2c-28.3,29.7-41.4,40.7-47.4,44.7
					C571.7,550.9,571.6,550.9,571.6,550.9z"/>
				<path style="clip-path:url(#XMLID_00000134249940752699846300000000964910121824339342_);fill:#808080;" d="M574.4,548.9
					C574.4,548.9,574.4,548.9,574.4,548.9c-0.2,0-0.3-0.2-0.3-0.3c2.9-22.2,13.4-47.5,21.7-64.8c9-18.7,17.5-32.4,17.5-32.5
					c0.1-0.1,0.3-0.2,0.4-0.1c0.1,0.1,0.2,0.3,0.1,0.4c-0.1,0.1-8.5,13.8-17.5,32.5c-8.3,17.2-18.8,42.5-21.7,64.6
					C574.7,548.8,574.5,548.9,574.4,548.9z"/>
				<path style="clip-path:url(#XMLID_00000134249940752699846300000000964910121824339342_);fill:#808080;" d="M584.2,550.6
					c-0.1,0-0.2-0.1-0.3-0.2c0-0.2,0-0.3,0.2-0.3c34.5-9.6,72.6-36.5,73-36.8c0.1-0.1,0.3-0.1,0.4,0.1c0.1,0.1,0.1,0.3-0.1,0.4
					C657.1,514,618.9,541,584.2,550.6C584.3,550.5,584.2,550.6,584.2,550.6z"/>
			</g>
			<g>
				<defs>
					<path id="XMLID_00000039120617028864051860000004405093476260922783_" d="M522.6,465.4c0,0,0.3,28.7,10.2,48.3
						c-5.8-9.4-20.6-29.9-43.2-37.9c0,0-1.2,28,21.7,49.8c-5.9-3.1-15.6-6.4-31.7-8.2c0,0,18.9,33.2,53.9,35.1l25.9-5.9
						C559.4,546.4,555,482.5,522.6,465.4z"/>
				</defs>
				<use xlink:href="#XMLID_00000039120617028864051860000004405093476260922783_"  style="overflow:visible;fill:#E6E6E6;"/>
				<clipPath id="XMLID_00000118370063403536177900000017217740846549182642_">
					<use xlink:href="#XMLID_00000039120617028864051860000004405093476260922783_"  style="overflow:visible;"/>
				</clipPath>
				<path style="opacity:0.3;clip-path:url(#XMLID_00000118370063403536177900000017217740846549182642_);fill:#808080;" d="
					M511.3,525.4c0,0,16,15.9,36.6,22.3c0,0-32.7-0.2-43.6-25.3c-10.9-25.1,0,0,0,0L511.3,525.4"/>
				<path style="opacity:0.3;clip-path:url(#XMLID_00000118370063403536177900000017217740846549182642_);fill:#808080;" d="
					M532.8,513.6c0,0,11,14.5,20.1,32.8l2.6-4.3C555.5,542.1,541.7,521.3,532.8,513.6"/>
				<path style="clip-path:url(#XMLID_00000118370063403536177900000017217740846549182642_);fill:#808080;" d="M552.9,546.7
					c0,0-0.1,0-0.1,0c-17.2-9.7-33.5-28.4-44.2-42.4C497,489,489.4,476,489.3,475.8c-0.1-0.1,0-0.3,0.1-0.4c0.1-0.1,0.3,0,0.4,0.1
					c0.1,0.1,7.7,13.2,19.2,28.3c10.6,14,26.9,32.6,44,42.3c0.1,0.1,0.2,0.2,0.1,0.4C553.1,546.6,553,546.7,552.9,546.7z"/>
				<path style="clip-path:url(#XMLID_00000118370063403536177900000017217740846549182642_);fill:#808080;" d="M554.2,549.1
					C554.2,549.1,554.2,549.1,554.2,549.1c-0.2,0-0.3-0.1-0.3-0.3c1.3-19.6-31.3-82.7-31.6-83.3c-0.1-0.1,0-0.3,0.1-0.4
					c0.1-0.1,0.3,0,0.4,0.1c0.3,0.6,33,63.9,31.7,83.6C554.5,549,554.4,549.1,554.2,549.1z"/>
				<path style="clip-path:url(#XMLID_00000118370063403536177900000017217740846549182642_);fill:#808080;" d="M547.9,548
					C547.9,548,547.8,548,547.9,548c-35.6-6.9-68.2-30.3-68.5-30.5c-0.1-0.1-0.2-0.3-0.1-0.4c0.1-0.1,0.3-0.2,0.4-0.1
					c0.3,0.2,32.8,23.6,68.2,30.4c0.2,0,0.3,0.2,0.2,0.3C548.1,547.9,548,548,547.9,548z"/>
			</g>
		</g>
		<g>
			<g>
				<g>
					<defs>
						<path id="XMLID_00000016052827825594773890000014261941891229490306_" d="M738.1,546.7c0,0-18.9,7-19,7.3
							c-0.1,0.4-2,5-1.4,5.2s37.2-0.4,37.5-0.8c0.3-0.4,1.3-5.1,1.1-6.3s-3-5.5-3-5.5H738.1z"/>
					</defs>
					<use xlink:href="#XMLID_00000016052827825594773890000014261941891229490306_"  style="overflow:visible;fill:#D0A967;"/>
					<clipPath id="XMLID_00000101792235322397439040000016966699060878821802_">
						<use xlink:href="#XMLID_00000016052827825594773890000014261941891229490306_"  style="overflow:visible;"/>
					</clipPath>
					<path style="clip-path:url(#XMLID_00000101792235322397439040000016966699060878821802_);fill:#C7892B;" d="M740.9,558.9
						c0,0,2-3.4,3.5-5.1c1.5-1.6,11.1-5.5,11.1-5.5s2.1,3.5,1.9,4.6c-0.2,1.1-2.2,5.5-2.2,5.5L740.9,558.9"/>
					<path style="clip-path:url(#XMLID_00000101792235322397439040000016966699060878821802_);fill:#C7892B;" d="M716.2,557.3
						c0,0,39.7-1.3,40-0.8c0.4,0.5,1.7,2.5,0,2.7s-39.9,1.4-40.1,0.6C716,559,716.2,557.3,716.2,557.3z"/>
				</g>
				<g>
					<defs>
						<path id="XMLID_00000170958165221344907930000018086722543188472489_" d="M757.3,471.5c0,0-19.7-1.5-19.7,3.1
							c0,4.6,3.9,68.7,3.9,68.7s-8.5,5-8.2,5.1c0.3,0.1,10.3,2.2,14,1.4c3.7-0.8,5.8-3.2,5.8-3.2l-0.5-3.4c0,0,4.4-20.5,5.8-38.8
							C759.9,486.3,757.3,471.5,757.3,471.5z"/>
					</defs>
					<use xlink:href="#XMLID_00000170958165221344907930000018086722543188472489_"  style="overflow:visible;fill:#FE8E9C;"/>
					<clipPath id="XMLID_00000081649005570321745740000011108751761217588870_">
						<use xlink:href="#XMLID_00000170958165221344907930000018086722543188472489_"  style="overflow:visible;"/>
					</clipPath>
					<path style="clip-path:url(#XMLID_00000081649005570321745740000011108751761217588870_);fill:#E57492;" d="M732.2,489.6
						c0,0,22,2.5,32.6-6.1c0,0,0.8-18.4,0.2-18.4s-31.6,1-31.6,1L732.2,489.6z"/>
				</g>
			</g>
			<g>
				<g>
					<defs>
						<path id="XMLID_00000116948664389907712620000011292483634175980734_" d="M764.9,546.7c0,0-18.9,7-19,7.3
							c-0.1,0.4-2,5-1.4,5.2s37.2-0.4,37.5-0.8s1.3-5.1,1.1-6.3s-3-5.5-3-5.5H764.9z"/>
					</defs>
					<use xlink:href="#XMLID_00000116948664389907712620000011292483634175980734_"  style="overflow:visible;fill:#D0A967;"/>
					<clipPath id="XMLID_00000144325363097118696600000012568859904523590313_">
						<use xlink:href="#XMLID_00000116948664389907712620000011292483634175980734_"  style="overflow:visible;"/>
					</clipPath>
					<path style="clip-path:url(#XMLID_00000144325363097118696600000012568859904523590313_);fill:#C7892B;" d="M743.1,557.3
						c0,0,39.7-1.3,40-0.8c0.4,0.5,1.7,2.5,0,2.7s-39.9,1.4-40.1,0.6C742.9,559,743.1,557.3,743.1,557.3z"/>
				</g>
				<g>
					<defs>
						<path id="XMLID_00000039845471341072192080000006103017906006292868_" d="M784.2,471.5c0,0-19.7-1.5-19.7,3.1
							c0,4.6,3.9,68.7,3.9,68.7s-8.5,5-8.2,5.1c0.3,0.1,10.3,2.2,14,1.4c3.7-0.8,5.8-3.2,5.8-3.2l-0.5-3.4c0,0,4.4-20.5,5.8-38.8
							C786.7,486.3,784.2,471.5,784.2,471.5z"/>
					</defs>
					<use xlink:href="#XMLID_00000039845471341072192080000006103017906006292868_"  style="overflow:visible;fill:#FE8E9C;"/>
					<clipPath id="XMLID_00000147211141399335424860000017678532308260625031_">
						<use xlink:href="#XMLID_00000039845471341072192080000006103017906006292868_"  style="overflow:visible;"/>
					</clipPath>
					<path style="clip-path:url(#XMLID_00000147211141399335424860000017678532308260625031_);fill:#E57492;" d="M759,489.6
						c0,0,22,2.5,32.6-6.1c0,0,0.8-18.4,0.2-18.4s-31.6,1-31.6,1L759,489.6z"/>
				</g>
			</g>
			<g>
				<g>
					<defs>
						<path id="XMLID_00000083084577045727617340000011276010169159991728_" d="M750.4,260.7c-1.1,2.7,0,5.9-0.9,8.6
							c-0.4,1.3-1.3,2.4-2.1,3.6c-2.2,3.1-3.8,6.6-4.1,10.4c-0.4,3.7,0.7,7.7,3.2,10.5c0.7,0.8,1.6,1.5,2.5,1.9
							c1.5,0.7,3.1,0.8,4.7,0.8c3.4-0.1,6.8-1,9.6-2.9c2.8-1.8,5.1-4.6,6.2-7.8c0.7-2.1,0.9-4.4,1-6.6c0.3-6.4-0.1-12.9-1.1-19.2
							c-0.3-1.7-0.7-3.5-1.9-4.8c-1.3-1.3-3.4-1.7-5.2-1.3c-1.1,0.2-2.1,0.6-3.1,1.1c-0.8,0.4-1.5,0.8-2.4,0.9
							c-0.9,0.1-1.7,0.5-2.5,0.9c-0.8,0.4-1.6,0.9-2.2,1.5C751.4,259,750.8,259.8,750.4,260.7z"/>
					</defs>
					<use xlink:href="#XMLID_00000083084577045727617340000011276010169159991728_"  style="overflow:visible;fill:#333333;"/>
					<clipPath id="XMLID_00000168108083917647604900000011318884597849445248_">
						<use xlink:href="#XMLID_00000083084577045727617340000011276010169159991728_"  style="overflow:visible;"/>
					</clipPath>
					<path style="clip-path:url(#XMLID_00000168108083917647604900000011318884597849445248_);fill:#4D4D4D;" d="M756.8,256
						c0,0-7.5,17.6-8.1,25.2c-0.7,7.6,2.2,14.2,13,12.3s0,0,0,0s3.9-36.9,2.3-37.5C762.3,255.3,756.8,256,756.8,256"/>
				</g>
				<g>
					<defs>
						<path id="XMLID_00000040549853483208721980000016596350012519657616_" d="M761.9,300.6c0,0-14.5,7.4-20.2,17l0,0
							c0,0-27.1,36.7-29.7,39.9c-2.6,3.2-37.1,30.2-37.1,30.2l7.1,9.7c0,0,44.2-20.6,48.6-26c2.9-3.5,8.8-11.5,12.6-16.5
							c1.8,10.3,3.6,19.4,3.4,21.6c-0.3,4.5-8.4,14.2-4,17.4c4.3,3.2,10,3.5,10,3.5l12.3-4.4L761.9,300.6z"/>
					</defs>
					<use xlink:href="#XMLID_00000040549853483208721980000016596350012519657616_"  style="overflow:visible;fill:#D0A967;"/>
					<clipPath id="XMLID_00000121987271882461951180000009316041326545666978_">
						<use xlink:href="#XMLID_00000040549853483208721980000016596350012519657616_"  style="overflow:visible;"/>
					</clipPath>
					<path style="clip-path:url(#XMLID_00000121987271882461951180000009316041326545666978_);fill:#C7892B;" d="M745.7,397.4
						c0,0,5.3-17.2,5.4-22.4c0.2-5.1-9.8-34.2-10.2-42.9c-0.4-8.7-0.2-16.6,4.6-22.5c4.8-5.9,19.4-12.3,19.4-12.3
						s6.5,101.7,0.9,103.1C760.2,401.8,745.7,397.4,745.7,397.4z"/>
				</g>
				<g>
					<defs>
						<path id="XMLID_00000035512530052292897240000011208681123479855540_" d="M756.2,374.2c0,0,38.2-1.5,40.9,0
							c2.7,1.5,13.8,24,13.5,38.8c-0.2,12.8-15.3,52.2-19.6,63.2c-0.7,1.8-2.3,3.1-4.2,3.5c-9,1.6-37.1,8.3-49.2-0.9
							c-12.1-9.2,14.7-79.5,15.9-87.4S756.2,374.2,756.2,374.2z"/>
					</defs>
					<use xlink:href="#XMLID_00000035512530052292897240000011208681123479855540_"  style="overflow:visible;fill:#999999;"/>
					<clipPath id="XMLID_00000045616631013632905820000012349665525664754306_">
						<use xlink:href="#XMLID_00000035512530052292897240000011208681123479855540_"  style="overflow:visible;"/>
					</clipPath>
					<path style="clip-path:url(#XMLID_00000045616631013632905820000012349665525664754306_);fill:#C7892B;" d="M741.4,400.4
						c0,0,60.6-14.6,61.4-19.5l-0.8-6.8c0,0-47.2-1.8-49.2,0C750.9,375.9,741.4,400.4,741.4,400.4z"/>
					<path style="clip-path:url(#XMLID_00000045616631013632905820000012349665525664754306_);fill:#C7892B;" d="M782.4,377.6
						c0,0,0.8,29.4,8.1,30.7s20.9-9.8,20.9-9.8l-6.7-21.7L782.4,377.6z"/>
				</g>
				<g>
					<defs>
						<path id="XMLID_00000128447998903020652020000011622898846497776055_" d="M761.9,300.8c0,0-19.1,15-18.5,24.1
							c0.6,9,10.8,47.4,12.7,49.3c1.9,1.9,37.8,1.9,40.9,0c3.1-1.9,7.2-56.7,3.2-63.6c-4.1-6.9-19.6-11-19.6-11L761.9,300.8z"/>
					</defs>
					<use xlink:href="#XMLID_00000128447998903020652020000011622898846497776055_"  style="overflow:visible;fill:#FFFCF8;"/>
					<clipPath id="XMLID_00000075142810083975928850000002449445386281400453_">
						<use xlink:href="#XMLID_00000128447998903020652020000011622898846497776055_"  style="overflow:visible;"/>
					</clipPath>
					<path style="opacity:0.37;clip-path:url(#XMLID_00000075142810083975928850000002449445386281400453_);fill:#E6E6E6;" d="
						M746.5,341c0,0,17.7,27.2,42.6,27.7s9,10.6,9,10.6s-41.3,9.7-47,1.5C745.4,372.7,746.5,341,746.5,341"/>
				</g>
				<path class="st15" d="M754.9,371.4c0,0-0.1,5.6,1.2,6.6c1.3,1,42.7,0.9,43.4-0.7c0.7-1.6,0.7-6-1.3-6
					C796.2,371.5,754.9,371.4,754.9,371.4z"/>
				<path class="st16" d="M768.4,370.5c0,0-0.6,8.7,1,9c1.5,0.3,6.2,1.3,6.3,0s0.2-8.8-0.7-9S769.4,369.7,768.4,370.5z"/>
				<g>
					<path class="st17" d="M671.4,391.1c0,0-2.7,5.5-2.9,5.6c-0.2,0.1-12.2,9.6-10,9.3s9.4-5.2,9.4-5.2s-6.6,6.3-6.2,6.9
						c0.4,0.6,10.8-7.2,11.5-8c0.7-0.7,1.9-5.1,1.9-5.1L671.4,391.1z"/>
					<path class="st18" d="M678.4,390.4c0,0-10.7-4.4-12-3c-1.4,1.6,5.8,4,5,5.8c-0.8,1.8-1.9,4.2-2.2,4.5c-0.2,0.3-10.1,3.2-9.3,4
						c0.8,0.8,12-0.5,12.9-1c0.9-0.5,7.7-5.9,7.7-5.9L678.4,390.4z"/>
				</g>
				<g>
					<path class="st17" d="M876.1,299.7c0,0,4.4-4.2,4.5-4.4c0.1-0.2,5.3-9.8,5.7-8.2c0.5,2.2-1.9,6.4-1.9,6.4s4-8.2,4.7-8
						c1.4,0.4-3.7,12.5-4.2,13.3c-0.5,0.9-4.2,3.4-4.2,3.4L876.1,299.7z"/>
					<path class="st18" d="M875,304.1c0,0-1.5-11.5,0.2-12.4c1.9-1,2.4,6.7,4.3,6.4c2-0.3,4.6-0.8,4.9-0.9s5.7-8.9,6.2-8
						c0.6,1-3.6,11.5-4.3,12.2c-0.7,0.7-7.7,5.9-7.7,5.9L875,304.1z"/>
				</g>
				<g>
					<g>
						<g>
							<defs>
								<path id="XMLID_00000125580389142981740850000005162819433254938265_" d="M783.6,258.9c-2.8-5.4-20.6-13.1-24.7-2.3
									c-4.9,11.7-16.1,34.8,2.9,30.4c-0.5,5.2,0.3,20.6,0.4,22.2c0.1,2.3,18.9-5.1,18.7-8.7c-0.2-3.2-5.6-20.2-5.6-20.2
									C777.5,277.1,785.9,263.2,783.6,258.9z"/>
							</defs>
							<use xlink:href="#XMLID_00000125580389142981740850000005162819433254938265_"  style="overflow:visible;fill:#FE8E9C;"/>
							<clipPath id="XMLID_00000071539400986147958160000010511326387339264687_">
								<use xlink:href="#XMLID_00000125580389142981740850000005162819433254938265_"  style="overflow:visible;"/>
							</clipPath>
							<path style="clip-path:url(#XMLID_00000071539400986147958160000010511326387339264687_);fill:#E57492;" d="M754.9,260.7
								c0,0,12,1.3,14.8-2.2l0.6-6.8c0,0-12.1-0.9-12.8,0C757,252.7,754.9,260.7,754.9,260.7z"/>
							<path style="clip-path:url(#XMLID_00000071539400986147958160000010511326387339264687_);fill:#FFFFFF;" d="M755.1,278.2
								c0,0,2,1.3,5-1.3c0,0-0.6,3.5-2.9,3.5C754.3,280.4,755.1,278.2,755.1,278.2z"/>
						</g>
						<path class="st17" d="M762.7,263.2c0,0-7.9,5.5-6.6,6.9c1.3,1.4,6.8,0.3,6.8,0.3c-0.5,2.2-7.8,1.6-7.8,0
							C754.4,267.4,762.7,263.2,762.7,263.2z"/>
						<path class="st17" d="M761.8,287c0,0,3.8-1.1,6.3-3.1c0,0-0.8,7.8-6.5,9.6L761.8,287z"/>
					</g>
				</g>
				<path class="st57" d="M764,309.3c0,0,2.9,8.2,6.6,7.7c3.7-0.5,13.6-11.8,10.1-17.5C780.7,299.5,774.4,305.2,764,309.3z"/>
				<path class="st57" d="M762.3,309.1c0,0-4.3,3.7-6.1,3c-1.8-0.7,0.6-6.9,0.6-6.9l5.1-4.6C761.9,300.6,762.2,307.8,762.3,309.1z"
					/>
				<g>
					<defs>
						<path id="XMLID_00000068675420139235356230000014038598805648078995_" d="M872.9,298c0,0-39.6,28.8-41.6,28.4
							c-2-0.4-32.6-20-32.6-20s0,0,0,0c-3-2.3-7.2-4.1-12.8-5.1c0,0-4.8,12.6-4.3,29.2c0.5,16.6,8.2,69.8,10.7,69.8
							s22.6-6.2,23.5-9.9s-12.4-32.8-11.8-45.2c0.1-1.6,0.3-3.5,0.7-5.6c9.4,4.3,22.4,12.7,29.1,10.8c5.1-1.5,47.4-40.9,47.4-40.9
							L872.9,298z"/>
					</defs>
					<use xlink:href="#XMLID_00000068675420139235356230000014038598805648078995_"  style="overflow:visible;fill:#D0A967;"/>
					<clipPath id="XMLID_00000072244231621827617610000009075190535249518466_">
						<use xlink:href="#XMLID_00000068675420139235356230000014038598805648078995_"  style="overflow:visible;"/>
					</clipPath>
					<path style="clip-path:url(#XMLID_00000072244231621827617610000009075190535249518466_);fill:#C7892B;" d="M804.5,339.8
						c0,0-7.3-9-8.1-13.4c0,0-3.5,16.1,0.4,24.8c3.9,8.7,13.8,17.7,13.8,17.7s-5.2-16.2-5.3-20.5
						C805.2,344.1,804.5,339.8,804.5,339.8"/>
				</g>
				<g>
					<defs>
						<path id="XMLID_00000097465711458207011370000011299197580547848340_" d="M794,278.6c0.9-2.7,0.7-5.8-0.5-8.4
							c-0.5-1.1-1.2-2.2-1.6-3.3c-1.1-3.2-0.3-6.8-1.2-10c-1.3-4.5-5.8-7.4-10.3-8.6c-1-0.3-2.1-0.5-3.2-0.3
							c-0.9,0.1-1.7,0.4-2.5,0.8c-0.3,0.1-0.5,0.3-0.8,0.4c-0.2-2-1.5-3.9-3.4-4.6c-2.4-0.9-5.4,0-7,2c-0.3,0.3-0.5,0.7-0.9,0.9
							c-0.6,0.3-1.3,0.2-2,0.2c-1.9,0-3.7,0.8-5,2.3c-1.2,1.4-1.8,3.4-1.6,5.2c0.1,0.8,0.4,1.7,1.1,2.2c0.8,0.6,2,0.5,3,0.5
							c1.5,0,3,0.5,4.5,0.5c1.1,0,2.2-0.2,3.1-0.7c0.9-0.4,1.7-0.9,2.4-1.5c0,0,0.1-0.1,0.1-0.1c-1.2,3.2-1,6.9,0.5,9.9
							c1.2,2.3,3.2,4.3,3.6,6.9c0.3,2.3-0.6,4.5-1,6.7c-0.5,2.7-0.1,5.5,0.7,8.1c0.3,1.1,0.8,2.2,1.5,3.1c0.6,0.8,1.5,1.4,2.3,1.9
							c2.5,1.7,5.1,3.4,8,4.1c2.9,0.7,6.3,0.3,8.5-1.7c0.5-0.5,1-1.1,1.2-1.8c0.9-2.6-1.5-5.1-1.8-7.8
							C791.8,283.1,793.3,280.9,794,278.6z"/>
					</defs>
					<use xlink:href="#XMLID_00000097465711458207011370000011299197580547848340_"  style="overflow:visible;"/>
					<clipPath id="XMLID_00000126319332335440890880000004122401618984135341_">
						<use xlink:href="#XMLID_00000097465711458207011370000011299197580547848340_"  style="overflow:visible;"/>
					</clipPath>
					<path style="clip-path:url(#XMLID_00000126319332335440890880000004122401618984135341_);fill:#333333;" d="M773.6,249.7
						c0,0-5.1,9.1-0.9,16.1c4.1,7,1.8,10.5,0,15.5c-1.8,5-2,7.4-2,7.4s-0.4-13.2,0.4-15.7c0.8-2.5-4.6-6.9-4.9-11.2
						S773.6,249.7,773.6,249.7z"/>
				</g>
			</g>
		</g>
		<path class="st1" d="M405.8,201.9c0,0,15.2-53.2,85.4-90.3C491.2,111.6,422,130.6,405.8,201.9z"/>
		<path class="st1" d="M670.2,138.5c0,0,37.9,28.2,58.2,81.2C728.4,219.7,723,170.7,670.2,138.5z"/>
		<path class="st1" d="M435.3,385.3c0,0,26.2,38.5,76.3,49.7C511.6,435,466.2,415,435.3,385.3z"/>
		<g>
			<g>
				<g>
					<g>
						<defs>
							<path id="XMLID_00000153704223160539867300000013471921086378787503_" d="M573.6,545.6v-219h-23.2v219
								c-35.9,0.5-63.4,3.6-63.4,7.2c0,4,33.6,7.3,75,7.3c41.4,0,75-3.3,75-7.3C637,549.2,609.5,546.1,573.6,545.6z"/>
						</defs>
						<use xlink:href="#XMLID_00000153704223160539867300000013471921086378787503_"  style="overflow:visible;fill:#D0A967;"/>
						<clipPath id="XMLID_00000142138129238315724300000017536798616228200082_">
							<use xlink:href="#XMLID_00000153704223160539867300000013471921086378787503_"  style="overflow:visible;"/>
						</clipPath>
						<path style="clip-path:url(#XMLID_00000142138129238315724300000017536798616228200082_);fill:#C7892B;" d="M545.3,405.2V435
							c0,0,18.8,17.1,39,11.9v-44.1L545.3,405.2z"/>
					</g>
					<g>
						<path class="st15" d="M565.7,115.2c-0.1,0-0.2,0-0.3,0c-84.8,0-153.5,68.7-153.5,153.5s68.7,153.5,153.5,153.5
							c0.1,0,0.2,0,0.3,0c84.6-0.2,153.2-68.8,153.2-153.5S650.3,115.3,565.7,115.2z"/>
						<g>
							<path class="st16" d="M562,418.4c82.6-0.2,149.5-67.2,149.5-149.8H562V418.4z"/>
							<path class="st25" d="M412,268.6c0,82.7,67.1,149.8,149.8,149.8c0.1,0,0.2,0,0.3,0V268.6H412z"/>
							<path class="st25" d="M562,118.8v149.8h149.5C711.6,186,644.7,119,562,118.8z"/>
							<path class="st16" d="M562,118.8c-0.1,0-0.2,0-0.3,0C479,118.8,412,185.9,412,268.6H562V118.8z"/>
						</g>
						
							<ellipse transform="matrix(0.9239 -0.3827 0.3827 0.9239 -60.0149 235.5338)" class="st15" cx="562" cy="268.6" rx="11.6" ry="11.6"/>
						<path class="st15" d="M540.9,109.6l21.2,52.6l21.1-52.3v0c-13.3-6.2-28.6-6.4-42-0.4L540.9,109.6z"/>
					</g>
				</g>
			</g>
		</g>
		<g>
			<g>
				<defs>
					<path id="XMLID_00000034795046947433414860000017135629724489218971_" d="M331.7,533.1c0,0-0.9,8.2-1.4,9.4s-2.5,3.7-2.5,3.7
						s7.2,3.8,11.1,2.6s7.6-3.9,7.6-3.9s-1.7-3.1-1.6-3.6c0.1-0.6,0.9-7.5,0.9-7.5L331.7,533.1z"/>
				</defs>
				<use xlink:href="#XMLID_00000034795046947433414860000017135629724489218971_"  style="overflow:visible;fill:#FE8E9C;"/>
				<clipPath id="XMLID_00000165915852542072799250000002714462204262878370_">
					<use xlink:href="#XMLID_00000034795046947433414860000017135629724489218971_"  style="overflow:visible;"/>
				</clipPath>
				<path style="clip-path:url(#XMLID_00000165915852542072799250000002714462204262878370_);fill:#E57492;" d="M329.7,539.9
					c0.2,0,9,4,16.5-1.3V529l-16.9,0.6L329.7,539.9z"/>
			</g>
			<g>
				<path class="st27" d="M327.9,546.2c0,0,12,2.3,18.7-1.3c0,0,6.7,5.2,10.2,5.7c3.5,0.5,10.5,3.4,10.7,7.9h-39.6
					C327.9,558.6,325.6,549.9,327.9,546.2z"/>
				<path class="st15" d="M348.2,546.1c0,0-2.2,2.6-1.9,3c0.3,0.5,0.8,0.7,1,0.6c0.2-0.2,2.1-2.8,2-2.9
					C349.1,546.8,348.2,546.1,348.2,546.1z"/>
				<path class="st15" d="M351.1,548c0,0-2.1,2.7-1.8,3.1c0.3,0.5,0.8,0.7,1,0.5c0.2-0.2,1.9-2.9,1.8-3
					C352,548.6,351.1,548,351.1,548z"/>
				<path class="st15" d="M353.7,549.5c0,0-1.9,2.8-1.6,3.2s0.9,0.6,1,0.5c0.2-0.2,1.8-3,1.7-3.1C354.6,550,353.7,549.5,353.7,549.5
					z"/>
			</g>
			<g>
				<defs>
					<path id="XMLID_00000083780874845537421120000016058411553827013549_" d="M265.9,532.8c0,0-0.9,8.2-1.4,9.4
						c-0.5,1.2-2.5,3.7-2.5,3.7s7.2,3.8,11.1,2.6c3.9-1.1,7.6-3.9,7.6-3.9s-1.7-3.1-1.6-3.6c0.1-0.6,0.9-7.5,0.9-7.5L265.9,532.8z"
						/>
				</defs>
				<use xlink:href="#XMLID_00000083780874845537421120000016058411553827013549_"  style="overflow:visible;fill:#FE8E9C;"/>
				<clipPath id="XMLID_00000173121973454124241330000014141915100378874281_">
					<use xlink:href="#XMLID_00000083780874845537421120000016058411553827013549_"  style="overflow:visible;"/>
				</clipPath>
				<path style="clip-path:url(#XMLID_00000173121973454124241330000014141915100378874281_);fill:#E57492;" d="M262.4,537.8
					c0,0,10.1,6.5,19,1.5l0.9-6.2l-18.3-1.3L262.4,537.8z"/>
			</g>
			<path class="st27" d="M334.8,310.5c0,0,28.8,22.4,33.5,23.2s53.8,3.4,53.8,3.4v12.8c0,0-53.1,9.3-57.8,7.6
				c-4.7-1.8-30.6-11.2-32.1-15.5c-1.5-4.3-2.3-31.5-2.3-31.5H334.8z"/>
			<g>
				<defs>
					<path id="XMLID_00000162340296421370316070000007835156047140039869_" d="M411.8,256.1c0.5-2.1,0.8-3.3,0.8-3.3
						c4.1-4,12.4-12.7,11.1-12.6c-1.3,0.1-5.8,3.1-5.8,3.1s6.9-11.3,5.9-11.5c-1-0.1-6.4,7-6.4,7s5.3-12.7,3.8-11.7
						c-2.4,1.5-5.9,9.4-6.4,9.8c-0.5,0.4,2-10.4,1.4-10.7c-1.1-0.7-6.7,13.2-6.7,13.2s-5.4-9.4-5.2-6.8c0.9,10,0.2,17.8,0.2,17.8
						c-0.5,0.7-1,1.3-1.4,2L411.8,256.1z"/>
				</defs>
				<use xlink:href="#XMLID_00000162340296421370316070000007835156047140039869_"  style="overflow:visible;fill:#FE8E9C;"/>
				<clipPath id="XMLID_00000029767851055380240800000016671433478735874448_">
					<use xlink:href="#XMLID_00000162340296421370316070000007835156047140039869_"  style="overflow:visible;"/>
				</clipPath>
				<path style="clip-path:url(#XMLID_00000029767851055380240800000016671433478735874448_);fill:#E57492;" d="M342.2,313.6
					c0.7-0.2,43.5-1.4,50.5,0.7c7,2.1-31,11.5-36.6,11.3C350.7,325.4,342.2,313.6,342.2,313.6z"/>
			</g>
			<g>
				<g>
					<defs>
						<path id="XMLID_00000109716551578354608720000004646277350743938226_" d="M329,263.4c-4.3-1.8-5.3-12.8-5.3-12.8
							c-1.9-8.3-18.3-4.5-21.2,1.3c-2.8,5.7,6.1,21,7.6,23.4c0,0.1,0.1,0.2,0.2,0.2c-1,2.8-5.6,16.8-2.8,18.2
							c3.1,1.5,18.7,0.2,18.4-2c-0.1-1.3-1.7-7.4-3-12.1c2.3,0.3,4.3,0.4,5.4,0.2c3.8-0.8,0.6-8.7,1.1-10.1c0.5-1.5,3.5-0.4,5.8-1.9
							C337.6,266.2,333.3,265.2,329,263.4z"/>
					</defs>
					<use xlink:href="#XMLID_00000109716551578354608720000004646277350743938226_"  style="overflow:visible;fill:#FE8E9C;"/>
					<clipPath id="XMLID_00000048491066399347078780000009396270169273112451_">
						<use xlink:href="#XMLID_00000109716551578354608720000004646277350743938226_"  style="overflow:visible;"/>
					</clipPath>
					<path style="clip-path:url(#XMLID_00000048491066399347078780000009396270169273112451_);fill:#E57492;" d="M322.9,279.5
						c0,0-0.8,0-2.9-2.1c0,0,0.4,4.7,4.2,7.2L322.9,279.5"/>
					<path style="clip-path:url(#XMLID_00000048491066399347078780000009396270169273112451_);fill:#FFFFFF;" d="M330,271.9
						c0,0-5.3-1-5.9-0.7c-0.5,0.3,2.7,3.7,4.6,3.3c2-0.4,2.2-1,2.2-1L330,271.9z"/>
					<path style="clip-path:url(#XMLID_00000048491066399347078780000009396270169273112451_);fill:#E57492;" d="M325.7,257
						c0,0-4.4,1.8-8.3,0.2c0,0-0.6,3.6-4.8,4.9c-4.3,1.2,0,0,0,0s1-7.9,1.6-8.4c0.6-0.5,10.6-2.2,10.6-2.2L325.7,257z"/>
				</g>
			</g>
			<g>
				<g>
					<defs>
						<path id="XMLID_00000010997876047078167410000015973927119035327904_" d="M342.9,380.2c0,0,10.4,151.8,7.2,153.7
							c-3.2,1.9-19.6,6.2-23.2,2.1c-3.6-4.1-16.8-118.3-16.8-118.3s-20.6,118.8-27.2,119.1c-6.6,0.3-20,3.2-21.7-4.4
							c-1.7-7.6,18.5-151.4,18.5-151.4L342.9,380.2z"/>
					</defs>
					<use xlink:href="#XMLID_00000010997876047078167410000015973927119035327904_"  style="overflow:visible;fill:#A6A7AA;"/>
					<clipPath id="XMLID_00000027600282406929179100000005507570106124011917_">
						<use xlink:href="#XMLID_00000010997876047078167410000015973927119035327904_"  style="overflow:visible;"/>
					</clipPath>
					<path style="clip-path:url(#XMLID_00000027600282406929179100000005507570106124011917_);fill:#C7892B;" d="M274.3,393.9
						c0,0,43.7,10.4,70.8-8.5l0.7-5.1h-70.7L274.3,393.9z"/>
					<path style="clip-path:url(#XMLID_00000027600282406929179100000005507570106124011917_);fill:#676767;" d="M341.1,543
						c-0.1,0-0.3-0.1-0.3-0.3c0-0.5-3.2-52.3-5.2-76.4c-2-23.9-10.2-78.7-11.5-80.4c-0.1-0.1-0.1-0.3,0-0.4c0.1-0.1,0.3-0.1,0.4,0
						c1,1,5.1,28.6,5.5,31.8c2.9,19.9,5.2,38.2,6.1,49c2,24.1,5.2,75.9,5.2,76.4C341.4,542.9,341.3,543,341.1,543
						C341.1,543,341.1,543,341.1,543z"/>
					<path style="clip-path:url(#XMLID_00000027600282406929179100000005507570106124011917_);fill:#676767;" d="M270.2,541.1
						C270.1,541.1,270.1,541.1,270.2,541.1c-0.2,0-0.3-0.2-0.3-0.3c0.1-0.8,14.7-77,16.1-87.6c1.4-10.6,2.6-64.8,2.6-65.4
						c0-0.2,0.1-0.3,0.3-0.3c0.2,0,0.3,0.1,0.3,0.3c0,0.5-1.2,54.8-2.6,65.5c-1.4,10.7-16,86.9-16.1,87.7
						C270.4,541,270.3,541.1,270.2,541.1z"/>
				</g>
				<path class="st34" d="M310.1,417.8c0,0-4.2-1.7-9-14.5c0,0-3,18.6,7,25.7L310.1,417.8z"/>
			</g>
			<path class="st35" d="M303.6,291.3c0,0,1.2-4.5,2.2-5.1c0.9-0.6,6.8-2.3,10.6-2.3c3.8,0.1,9.8,0.9,10.3,1.5c0.5,0.7,0.5,3,0.5,3
				S316.2,288.8,303.6,291.3z"/>
			<g>
				<defs>
					<path id="XMLID_00000098941203454976552700000006572273160540699839_" d="M293.5,297.8c0,0,3.2-8.5,22.4-9.4
						c5.3-0.2,55.4,1.3,57.4,0s29.6-41.4,29.6-41.4l12.9,6.1c0,0-18.1,57.1-28.7,63.2c-10.7,6-45.8,5-45.8,5s10.9,60.6,7.7,62.3
						c-3.2,1.7-39.7,15.5-73.8,5.5l10.3-44.1C285.5,345,284.7,310.5,293.5,297.8z"/>
				</defs>
				<use xlink:href="#XMLID_00000098941203454976552700000006572273160540699839_"  style="overflow:visible;fill:#D0A967;"/>
				<clipPath id="XMLID_00000052092211753235321750000012892037329408972678_">
					<use xlink:href="#XMLID_00000098941203454976552700000006572273160540699839_"  style="overflow:visible;"/>
				</clipPath>
				<path style="clip-path:url(#XMLID_00000052092211753235321750000012892037329408972678_);fill:#C7892B;" d="M341.2,321.5
					c-0.1,0-0.3-0.1-0.3-0.3c-2.1-21.8-10.3-32.4-10.4-32.5c-0.1-0.1-0.1-0.3,0-0.4c0.1-0.1,0.3-0.1,0.4,0
					c0.1,0.1,8.4,10.9,10.5,32.8C341.5,321.4,341.4,321.5,341.2,321.5C341.3,321.5,341.3,321.5,341.2,321.5z"/>
				<path style="clip-path:url(#XMLID_00000052092211753235321750000012892037329408972678_);fill:#C7892B;" d="M354.4,305.1
					c-8.3,0-15.6-0.2-16.3-0.2c-0.2,0-0.3-0.1-0.3-0.3c0-0.2,0.1-0.3,0.3-0.3c0.4,0,37.1,0.9,41.5-1.4c4.4-2.3,29.6-52.3,29.9-52.8
					c0.1-0.1,0.2-0.2,0.4-0.1c0.1,0.1,0.2,0.2,0.1,0.4c-1,2.1-25.6,50.6-30.1,53C377.3,304.8,365,305.1,354.4,305.1z"/>
				<path style="clip-path:url(#XMLID_00000052092211753235321750000012892037329408972678_);fill:#C7892B;" d="M285.5,345
					c0,0,4,10.7,14.6,11.7c0,0-12.9,3.9-17.5-4.2C282.6,352.5,281.8,347.1,285.5,345"/>
			</g>
			<g>
				<defs>
					<path id="XMLID_00000101815075144123197390000000833634145618700219_" d="M324.3,250.9c0,0-0.7,4.3-9.8,4.2
						c0,0,0.2,4.8-1.9,6.9c0,0-0.4-3.4-2.7-3.4c-2.2-0.1-3.2,6.6,1.9,8c0,0,0.4,7.1-1.6,9.1c-1.9,2,0,0,0,0s-11.7-8.8-12.1-18.9
						c-0.4-10.1,8.4-15.5,12.8-16.2c4.4-0.7,18.4-0.1,19.7-1.2c1.3-1.1-0.6,4.7-3.5,5.3c0,0,5.2-1.2,5.2,0.8c0,1.9-6.6,3.6-6.6,3.6
						s5,0.1,4.1,1.8"/>
				</defs>
				<use xlink:href="#XMLID_00000101815075144123197390000000833634145618700219_"  style="overflow:visible;"/>
				<clipPath id="XMLID_00000064351065840906865540000013092035053480325258_">
					<use xlink:href="#XMLID_00000101815075144123197390000000833634145618700219_"  style="overflow:visible;"/>
				</clipPath>
				<path style="clip-path:url(#XMLID_00000064351065840906865540000013092035053480325258_);fill:#4D4D4D;" d="M297.4,254.6
					c0,0,5.9,11.1,10.2,12.4c4.3,1.4,6.1,0.6,6.1,0.6s-0.4,7.6-3.9,9.4c0,0-7.5-2.7-10.1-9.9C297.1,259.9,297.4,254.6,297.4,254.6z"
					/>
			</g>
			<g>
				<path class="st27" d="M262.1,545.9c0,0,12,2.3,18.7-1.3c0,0,6.7,5.2,10.2,5.7c3.5,0.5,10.5,3.4,10.7,7.9h-39.6
					C262.1,558.3,259.7,549.6,262.1,545.9z"/>
				<path class="st15" d="M282.4,545.9c0,0-2.2,2.6-1.9,3c0.3,0.5,0.8,0.7,1,0.6c0.2-0.2,2.1-2.8,2-2.9S282.4,545.9,282.4,545.9z"/>
				<path class="st15" d="M285.2,547.7c0,0-2.1,2.7-1.8,3.1c0.3,0.5,0.8,0.7,1,0.5c0.2-0.2,1.9-2.9,1.8-3
					C286.2,548.3,285.2,547.7,285.2,547.7z"/>
				<path class="st15" d="M287.8,549.2c0,0-1.9,2.8-1.6,3.2c0.3,0.4,0.9,0.6,1,0.5c0.2-0.2,1.8-3,1.7-3.1S287.8,549.2,287.8,549.2z"
					/>
			</g>
		</g>
	</g>
	<g>
		<g>
			<g>
				<g>
					<path class="st16" d="M474.4,341.2l-0.1-1.9c0.7-0.1,1.4-0.3,1.9-0.7c0.5-0.4,0.5-0.8,0.3-1c-0.3-0.3-0.6-0.1-1.3,0.2l-1,0.4
						c-0.8,0.3-1.9,0.3-2.7-0.5c-0.9-1-0.8-2.6,0.5-3.8c0.7-0.6,1.6-1,2.6-1l0.1,1.7c-0.6,0.1-1.1,0.3-1.5,0.7
						c-0.4,0.3-0.5,0.7-0.2,1c0.3,0.3,0.7,0.1,1.4-0.2l1-0.4c1-0.4,1.8-0.3,2.6,0.5c0.9,1,0.9,2.6-0.5,3.9
						C476.6,340.7,475.5,341.2,474.4,341.2z"/>
					<path class="st16" d="M477.9,334l-2.8-3l1.5-1.4l2.9,3.1c1,1,1.6,1.1,2.2,0.6s0.5-1.2-0.4-2.2l-2.9-3.1l1.5-1.4l2.8,3
						c1.8,2,2,3.6,0.4,5.1C481.4,336.2,479.7,336,477.9,334z"/>
					<path class="st16" d="M483.7,328.4c-1.8-1.9-1.5-4.3-0.1-5.6c0.8-0.7,1.7-0.9,2.5-0.9l0.1,1.7c-0.5,0-1,0.1-1.4,0.5
						c-0.7,0.6-0.7,1.8,0.3,2.8c1,1.1,2.1,1.2,2.8,0.5c0.4-0.4,0.6-1,0.6-1.5l1.7,0.2c0,1-0.4,1.9-1.1,2.6
						C487.8,330.1,485.6,330.4,483.7,328.4z"/>
					<path class="st16" d="M489.1,323.4c-1.8-1.9-1.5-4.3-0.1-5.6c0.8-0.7,1.7-0.9,2.5-0.9l0.1,1.7c-0.5,0-1,0.1-1.4,0.5
						c-0.7,0.6-0.7,1.8,0.3,2.8c1,1.1,2.1,1.2,2.8,0.5c0.4-0.4,0.6-1,0.6-1.5l1.7,0.2c0,1-0.4,1.9-1.1,2.6
						C493.1,325.1,490.9,325.4,489.1,323.4z"/>
					<path class="st16" d="M491.9,315.2l3.7-3.5l1.2,1.3l-2.2,2.1l0.8,0.9l1.9-1.8l1.2,1.3l-1.9,1.8l1,1l2.3-2.1l1.2,1.3l-3.8,3.6
						L491.9,315.2z"/>
					<path class="st16" d="M501.4,315.8l-0.1-1.9c0.7-0.1,1.4-0.3,1.9-0.7c0.5-0.4,0.5-0.8,0.3-1c-0.3-0.3-0.6-0.1-1.3,0.2l-1,0.4
						c-0.8,0.3-1.9,0.3-2.7-0.5c-0.9-1-0.8-2.6,0.5-3.8c0.7-0.6,1.6-1,2.6-1l0.1,1.7c-0.6,0.1-1.1,0.3-1.5,0.7
						c-0.4,0.3-0.5,0.7-0.2,1c0.3,0.3,0.7,0.1,1.4-0.2l1-0.4c1-0.4,1.8-0.3,2.6,0.5c0.9,1,0.9,2.6-0.5,3.9
						C503.6,315.3,502.5,315.8,501.4,315.8z"/>
					<path class="st16" d="M506.5,311l-0.1-1.9c0.7-0.1,1.4-0.3,1.9-0.7c0.5-0.4,0.5-0.8,0.3-1c-0.3-0.3-0.6-0.1-1.3,0.2l-1,0.4
						c-0.8,0.3-1.9,0.3-2.7-0.5c-0.9-1-0.8-2.6,0.5-3.8c0.7-0.6,1.6-1,2.6-1l0.1,1.7c-0.6,0.1-1.1,0.3-1.5,0.7
						c-0.4,0.3-0.5,0.7-0.2,1c0.3,0.3,0.7,0.1,1.4-0.2l1-0.4c1-0.4,1.8-0.3,2.6,0.5c0.9,1,0.9,2.6-0.5,3.9
						C508.7,310.4,507.7,310.9,506.5,311z"/>
					<path class="st16" d="M507.3,300.8l3.7-3.5l1.2,1.3l-2.2,2.1l1,1.1l1.9-1.8l1.2,1.3l-1.9,1.8l2,2.1l-1.5,1.4L507.3,300.8z"/>
					<path class="st16" d="M515,299.1l-2.8-3l1.5-1.4l2.9,3.1c1,1,1.6,1.1,2.2,0.6s0.5-1.2-0.4-2.2l-2.9-3.1l1.5-1.4l2.8,3
						c1.8,2,2,3.6,0.4,5.1C518.5,301.3,516.8,301.1,515,299.1z"/>
					<path class="st16" d="M518.3,290.4l1.5-1.4l4.2,4.5l2.2-2l1.2,1.3l-3.7,3.5L518.3,290.4z"/>
				</g>
			</g>
			<g>
				<g>
					<path class="st16" d="M481.5,338.5l3.7-3.5l1.2,1.3l-2.2,2.1l1,1.1l1.9-1.8l1.2,1.3l-1.9,1.8l2,2.1l-1.5,1.4L481.5,338.5z"/>
					<path class="st16" d="M486.4,333.8l1.5-1.4l5.4,5.7l-1.5,1.4L486.4,333.8z"/>
					<path class="st16" d="M489.4,331.1l1.6-1.5l3.7,1.4l1.8,0.8l0,0c-0.7-0.6-1.6-1.3-2.2-2l-1.6-1.7l1.4-1.4l5.4,5.7l-1.6,1.5
						l-3.7-1.4l-1.7-0.8l0,0c0.7,0.6,1.6,1.3,2.2,2l1.6,1.7l-1.4,1.4L489.4,331.1z"/>
					<path class="st16" d="M496.5,324.4l1.8-1.7l7.1,4.1l-1.6,1.5l-3.3-2.2c-0.7-0.4-1.5-1-2.1-1.4l0,0c0.4,0.7,0.9,1.5,1.3,2.2
						l2,3.4l-1.6,1.5L496.5,324.4z M499.1,328.2l2.8-2.6l1.1,1.2l-2.8,2.6L499.1,328.2z"/>
					<path class="st16" d="M500.8,320.3l1.6-1.5l3.7,1.4l1.8,0.8l0,0c-0.7-0.6-1.6-1.3-2.2-2l-1.6-1.7l1.4-1.4l5.4,5.7l-1.6,1.5
						l-3.7-1.4l-1.7-0.8l0,0c0.7,0.6,1.6,1.3,2.2,2l1.6,1.7l-1.4,1.4L500.8,320.3z"/>
					<path class="st16" d="M509.4,317.7c-1.8-1.9-1.5-4.3-0.1-5.6c0.8-0.7,1.7-0.9,2.5-0.9l0.1,1.7c-0.5,0-1,0.1-1.3,0.5
						c-0.7,0.6-0.7,1.8,0.3,2.8c1,1.1,2.1,1.2,2.8,0.5c0.4-0.4,0.6-1,0.6-1.5l1.7,0.2c0,1-0.3,1.9-1.1,2.6
						C513.4,319.5,511.2,319.7,509.4,317.7z"/>
					<path class="st16" d="M512.2,309.6l1.5-1.4l5.4,5.7l-1.5,1.4L512.2,309.6z"/>
					<path class="st16" d="M516.2,305.8l1.8-1.7l7.1,4.1l-1.6,1.5l-3.3-2.2c-0.7-0.4-1.5-1-2.1-1.4l0,0c0.4,0.7,0.9,1.5,1.3,2.2
						l2,3.4l-1.6,1.5L516.2,305.8z M518.9,309.6l2.8-2.6l1.1,1.2l-2.8,2.6L518.9,309.6z"/>
					<path class="st16" d="M520.5,301.8l1.5-1.4l4.2,4.5l2.2-2l1.2,1.3l-3.7,3.5L520.5,301.8z"/>
					<path class="st16" d="M487.5,353.1c-1.8-1.9-1.7-4-0.1-5.4s3.7-1.4,5.4,0.4c1.8,1.9,1.7,4,0.2,5.5S489.3,355,487.5,353.1z
						 M491.3,349.5c-1-1-2-1.2-2.7-0.6s-0.5,1.6,0.4,2.7c1,1,2,1.3,2.7,0.6S492.2,350.6,491.3,349.5z"/>
					<path class="st16" d="M491.3,344.1l2.1-2c1.3-1.2,2.8-1.7,4.1-0.3c1.3,1.4,0.8,3-0.4,4.2l-0.6,0.6l1.7,1.8l-1.5,1.4
						L491.3,344.1z M496,344.9c0.6-0.6,0.6-1.1,0.1-1.6c-0.5-0.5-1-0.4-1.6,0.2l-0.5,0.5l1.4,1.5L496,344.9z"/>
					<path class="st16" d="M496.9,338.9l3.7-3.5l1.2,1.3l-2.2,2.1l0.8,0.9l1.9-1.8l1.2,1.3l-1.9,1.8l1,1l2.3-2.1l1.2,1.3l-3.8,3.6
						L496.9,338.9z"/>
					<path class="st16" d="M502,334.1l2.2-2c1.2-1.2,2.7-1.7,4-0.3c1.3,1.4,0.8,3-0.5,4.1l-0.7,0.6l1.8,1.9l-1.5,1.4L502,334.1z
						 M506.5,334.8c0.6-0.6,0.7-1.1,0.2-1.6c-0.5-0.5-0.9-0.4-1.5,0.2l-0.5,0.5l1.3,1.4L506.5,334.8z M507.1,335.8l0.1-2l5,1.6
						l-1.7,1.6L507.1,335.8z"/>
					<path class="st16" d="M508.7,327.8l1.8-1.7l7.1,4.1l-1.6,1.5l-3.3-2.2c-0.7-0.4-1.5-1-2.1-1.4l0,0c0.4,0.7,0.9,1.5,1.3,2.2
						l2,3.4l-1.6,1.5L508.7,327.8z M511.4,331.6l2.8-2.6l1.1,1.2l-2.8,2.6L511.4,331.6z"/>
					<path class="st16" d="M515.3,324l-1.5,1.4l-1.2-1.3l4.5-4.3l1.2,1.3l-1.5,1.4l4.2,4.5l-1.5,1.4L515.3,324z"/>
					<path class="st16" d="M518.2,318.9l1.5-1.4l5.4,5.7l-1.5,1.4L518.2,318.9z"/>
					<path class="st16" d="M523.5,319.2c-1.8-1.9-1.7-4-0.1-5.4c1.6-1.5,3.7-1.4,5.4,0.4c1.8,1.9,1.7,4,0.2,5.5
						C527.4,321.2,525.3,321.1,523.5,319.2z M527.3,315.6c-1-1-2-1.2-2.7-0.6s-0.5,1.6,0.4,2.7s2,1.3,2.7,0.6
						S528.3,316.7,527.3,315.6z"/>
					<path class="st16" d="M527.4,310.2l1.6-1.5l3.7,1.4l1.8,0.8l0,0c-0.7-0.6-1.6-1.3-2.2-2l-1.6-1.7l1.4-1.4l5.4,5.7l-1.6,1.5
						l-3.7-1.4l-1.7-0.8l0,0c0.7,0.6,1.6,1.3,2.2,2l1.6,1.7l-1.4,1.4L527.4,310.2z"/>
					<path class="st16" d="M537.9,309.8l-0.1-1.9c0.7-0.1,1.4-0.3,1.9-0.7c0.5-0.4,0.5-0.8,0.3-1c-0.3-0.3-0.6-0.1-1.3,0.2l-1,0.4
						c-0.8,0.3-1.9,0.3-2.7-0.5c-0.9-1-0.8-2.6,0.5-3.8c0.7-0.6,1.6-1,2.6-1l0.1,1.7c-0.6,0.1-1.1,0.3-1.5,0.7
						c-0.4,0.3-0.5,0.7-0.2,1c0.3,0.3,0.7,0.1,1.4-0.2l1-0.4c1-0.4,1.8-0.3,2.6,0.5c0.9,1,0.9,2.6-0.5,3.9
						C540.1,309.3,539,309.8,537.9,309.8z"/>
				</g>
			</g>
		</g>
		<g>
			<g>
				<path class="st16" d="M585.2,237.9l1.8-1.7l7.1,4.1l-1.6,1.5l-3.3-2.2c-0.7-0.4-1.5-1-2.1-1.4l0,0c0.4,0.7,0.9,1.5,1.3,2.2
					l2,3.4l-1.6,1.5L585.2,237.9z M587.8,241.7l2.8-2.6l1.1,1.2l-2.8,2.6L587.8,241.7z"/>
				<path class="st16" d="M592.2,236.9l-2.8-3l1.5-1.4l3,3.1c1,1,1.6,1.1,2.2,0.6c0.6-0.6,0.5-1.2-0.4-2.2l-3-3.1l1.5-1.4l2.8,3
					c1.8,2,2,3.6,0.4,5.1C595.7,239,594.1,238.8,592.2,236.9z"/>
				<path class="st16" d="M595.6,228.1l1.7-1.6c1.7-1.6,3.7-2,5.6,0.1c1.9,2,1.5,4-0.1,5.6l-1.8,1.7L595.6,228.1z M601.4,231.1
					c0.8-0.8,1.2-1.7-0.1-3.1s-2.2-1-3-0.2l-0.1,0.1L601.4,231.1L601.4,231.1z"/>
				<path class="st16" d="M601.4,222.6l1.5-1.4l5.4,5.7l-1.5,1.4L601.4,222.6z"/>
				<path class="st16" d="M606.7,220.1l-1.5,1.4l-1.2-1.3l4.5-4.3l1.2,1.3l-1.5,1.4l4.2,4.5l-1.5,1.4L606.7,220.1z"/>
				<path class="st16" d="M611.9,218.1c-1.8-1.9-1.7-4-0.1-5.4c1.6-1.5,3.7-1.4,5.4,0.4c1.8,1.9,1.7,4,0.2,5.5
					C615.8,220.1,613.7,220,611.9,218.1z M615.7,214.5c-1-1-2-1.2-2.7-0.6c-0.7,0.6-0.5,1.6,0.4,2.7c1,1,2,1.3,2.7,0.6
					C616.9,216.6,616.7,215.6,615.7,214.5z"/>
				<path class="st16" d="M615.8,209.1l2.2-2c1.2-1.2,2.7-1.7,4-0.3c1.3,1.4,0.8,3-0.5,4.1l-0.7,0.6l1.8,1.9l-1.5,1.4L615.8,209.1z
					 M620.3,209.8c0.6-0.6,0.7-1.1,0.2-1.6c-0.5-0.5-0.9-0.4-1.5,0.2l-0.5,0.5l1.3,1.4L620.3,209.8z M620.9,210.7l0.1-2l5,1.6
					l-1.7,1.6L620.9,210.7z"/>
				<path class="st16" d="M625.9,205c-1.8-1.9-1.7-4-0.1-5.4c1.6-1.5,3.7-1.4,5.4,0.4c1.8,1.9,1.7,4,0.2,5.5
					C629.8,206.9,627.7,206.8,625.9,205z M629.7,201.4c-1-1-2-1.2-2.7-0.6s-0.5,1.6,0.4,2.7c1,1,2,1.3,2.7,0.6
					S630.6,202.5,629.7,201.4z"/>
				<path class="st16" d="M629.7,196l3.7-3.5l1.2,1.3l-2.2,2.1l1,1.1l1.9-1.8l1.2,1.3l-1.9,1.8l2,2.1l-1.5,1.4L629.7,196z"/>
				<path class="st16" d="M638.9,189.8l-1.5,1.4l-1.2-1.3l4.5-4.3l1.2,1.3l-1.5,1.4l4.2,4.5l-1.5,1.4L638.9,189.8z"/>
				<path class="st16" d="M641.7,184.7l1.5-1.4l2,2.1l1.7-1.6l-2-2.1l1.5-1.4l5.4,5.7l-1.5,1.4l-2.1-2.3l-1.7,1.6l2.1,2.3l-1.5,1.4
					L641.7,184.7z"/>
				<path class="st16" d="M647.9,178.9l3.7-3.5l1.2,1.3l-2.2,2.1l0.8,0.9l1.9-1.8l1.2,1.3l-1.9,1.8l1,1l2.3-2.1l1.2,1.3l-3.8,3.6
					L647.9,178.9z"/>
				<path class="st16" d="M611,228.5l2.2-2c1.2-1.2,2.7-1.7,4-0.3c1.3,1.4,0.8,3-0.5,4.1l-0.7,0.6l1.8,1.9l-1.5,1.4L611,228.5z
					 M615.5,229.2c0.6-0.6,0.7-1.1,0.2-1.6c-0.5-0.5-0.9-0.4-1.5,0.2l-0.5,0.5l1.3,1.4L615.5,229.2z M616.1,230.2l0.1-2l5,1.6
					l-1.7,1.6L616.1,230.2z"/>
				<path class="st16" d="M616.7,223.2l3.7-3.5l1.2,1.3l-2.2,2.1l0.8,0.9l1.9-1.8l1.2,1.3l-1.9,1.8l1,1l2.3-2.1l1.2,1.3l-3.8,3.6
					L616.7,223.2z"/>
				<path class="st16" d="M624.3,221.5c-1.8-1.9-1.5-4.3,0-5.7c0.8-0.8,1.8-1,2.6-1l0.1,1.7c-0.5,0-1,0.1-1.4,0.5
					c-0.8,0.7-0.8,1.9,0.2,2.9c1,1.1,2,1.2,3.1,0.3c0.2-0.1,0.3-0.4,0.3-0.5l-0.7-0.8l-0.8,0.8l-1.2-1.2l2.2-2.1l2.6,2.7
					c0,0.8-0.5,1.8-1.3,2.5C628.3,223.2,626.1,223.5,624.3,221.5z"/>
				<path class="st16" d="M627.6,212.9l1.5-1.4l5.4,5.7l-1.5,1.4L627.6,212.9z"/>
				<path class="st16" d="M633,213.1c-1.8-1.9-1.7-4-0.1-5.4c1.6-1.5,3.7-1.4,5.4,0.4c1.8,1.9,1.7,4,0.2,5.5
					C636.9,215.1,634.8,215,633,213.1z M636.8,209.6c-1-1-2-1.2-2.7-0.6s-0.5,1.6,0.4,2.7c1,1,2,1.3,2.7,0.6
					S637.8,210.6,636.8,209.6z"/>
				<path class="st16" d="M636.9,204.2l1.6-1.5l3.7,1.4l1.8,0.8l0,0c-0.7-0.5-1.6-1.3-2.2-2l-1.6-1.7l1.4-1.4l5.4,5.7l-1.6,1.5
					l-3.7-1.4l-1.7-0.8l0,0c0.7,0.6,1.6,1.3,2.2,2l1.6,1.7l-1.4,1.4L636.9,204.2z"/>
			</g>
		</g>
		<g>
			<g>
				<path class="st15" d="M479.2,184.7l1.6,1.4l-1.9,2.2l1.8,1.5l1.9-2.2l1.6,1.4l-5.1,6l-1.6-1.4l2-2.4l-1.8-1.5l-2,2.4l-1.6-1.4
					L479.2,184.7z"/>
				<path class="st15" d="M486.8,191.2l1.9,1.6l-3.3,7.5l-1.7-1.4l1.8-3.5c0.3-0.7,0.8-1.5,1.2-2.3l0,0c-0.6,0.5-1.4,1.1-2,1.5
					l-3.2,2.3l-1.6-1.4L486.8,191.2z M483.3,194.2l2.9,2.5l-1,1.2l-2.9-2.5L483.3,194.2z"/>
				<path class="st15" d="M491.2,195l2.2,1.9c1.3,1.1,2,2.6,0.7,4.1c-1.3,1.5-2.9,1.1-4.2,0.1l-0.6-0.6l-1.6,1.9l-1.6-1.4L491.2,195
					z M491,199.7c0.6,0.5,1.2,0.5,1.6-0.1c0.5-0.5,0.3-1-0.3-1.6l-0.5-0.5l-1.4,1.6L491,199.7z"/>
				<path class="st15" d="M497,200l2.2,1.9c1.3,1.1,2,2.6,0.7,4.1c-1.3,1.5-2.9,1.1-4.2,0.1l-0.6-0.6l-1.6,1.9l-1.6-1.4L497,200z
					 M496.8,204.6c0.6,0.5,1.2,0.5,1.6-0.1c0.5-0.5,0.3-1-0.3-1.6l-0.5-0.5l-1.4,1.6L496.8,204.6z"/>
				<path class="st15" d="M500.5,209.7l1.5-5.5l1.7,1.4l-0.6,1.6c-0.2,0.6-0.4,1.1-0.7,1.7l0,0c0.6-0.3,1.1-0.6,1.6-0.9l1.5-0.9
					l1.7,1.4l-5.2,2.4l-1.8,2.1l-1.6-1.4L500.5,209.7z"/>
				<path class="st15" d="M507.2,213.9c1.7-2,4.1-2,5.6-0.7c0.8,0.7,1.1,1.6,1.2,2.4l-1.7,0.3c-0.1-0.5-0.2-0.9-0.6-1.3
					c-0.7-0.6-1.9-0.5-2.8,0.6c-1,1.1-1,2.2-0.2,2.8c0.5,0.4,1,0.5,1.5,0.4l0,1.7c-1,0.2-2-0.1-2.7-0.8
					C505.9,218.1,505.4,215.9,507.2,213.9z"/>
				<path class="st15" d="M515.6,215.8l1.6,1.4l-4,4.7l2.3,1.9l-1.1,1.3l-3.8-3.3L515.6,215.8z"/>
				<path class="st15" d="M520.7,220.2l1.6,1.4l-5.1,6l-1.6-1.4L520.7,220.2z"/>
				<path class="st15" d="M523.8,222.8l3.9,3.3l-1.1,1.3l-2.3-2l-0.8,0.9l1.9,1.7l-1.1,1.3l-1.9-1.7l-0.9,1.1l2.4,2l-1.1,1.3l-4-3.4
					L523.8,222.8z"/>
				<path class="st15" d="M529.1,227.3l1.6,1.4l-1,3.8l-0.6,1.8l0,0c0.5-0.7,1.1-1.7,1.7-2.5l1.5-1.7l1.5,1.3l-5.1,6l-1.6-1.4l1-3.8
					l0.6-1.8l0,0c-0.5,0.7-1.1,1.7-1.7,2.5l-1.5,1.7l-1.5-1.3L529.1,227.3z"/>
				<path class="st15" d="M535.4,235.1l-1.6-1.4l1.1-1.3l4.7,4.1l-1.1,1.3l-1.6-1.4l-4,4.7l-1.6-1.4L535.4,235.1z"/>
				<path class="st15" d="M536,242.3l1.8-0.3c0.1,0.7,0.5,1.4,0.9,1.8c0.5,0.4,0.8,0.4,1,0.2c0.2-0.3,0-0.6-0.3-1.3l-0.5-0.9
					c-0.4-0.8-0.5-1.8,0.2-2.7c0.9-1,2.5-1.1,3.8,0c0.7,0.6,1.2,1.5,1.3,2.5l-1.6,0.3c-0.2-0.6-0.4-1.1-0.8-1.5
					c-0.4-0.3-0.7-0.4-1-0.1c-0.2,0.3,0,0.7,0.4,1.4l0.5,0.9c0.5,0.9,0.5,1.8-0.2,2.6c-0.9,1-2.5,1.2-4-0.1
					C536.7,244.4,536.1,243.4,536,242.3z"/>
			</g>
		</g>
		<g>
			<g>
				<path class="st15" d="M586.1,286.6c1.8-2,4.1-1.9,5.7-0.5c0.9,0.8,1.2,1.7,1.2,2.5l-1.7,0.3c-0.1-0.5-0.2-1-0.7-1.4
					c-0.8-0.7-2-0.6-2.9,0.4c-1,1.1-1.1,2.1,0,3.1c0.2,0.1,0.4,0.3,0.5,0.3l0.7-0.8l-0.9-0.8l1.1-1.3l2.2,2l-2.5,2.8
					c-0.8,0-1.8-0.3-2.6-1.1C584.8,290.8,584.3,288.6,586.1,286.6z"/>
				<path class="st15" d="M595.1,289.3l2.2,2c1.3,1.1,2,2.5,0.6,4c-1.3,1.4-2.9,1-4.1-0.1l-0.7-0.6l-1.8,2l-1.5-1.4L595.1,289.3z
					 M593.9,294.5l2-0.1l-1.2,5.1l-1.7-1.6L593.9,294.5z M594.8,293.8c0.6,0.6,1.2,0.6,1.6,0.1c0.5-0.5,0.3-1-0.3-1.5l-0.6-0.5
					l-1.3,1.4L594.8,293.8z"/>
				<path class="st15" d="M598.1,297.2c1.7-1.9,3.8-2,5.4-0.6c1.6,1.5,1.7,3.5,0,5.4c-1.7,1.9-3.8,2.1-5.5,0.6
					C596.4,301.3,596.3,299.2,598.1,297.2z M601.9,300.7c1-1.1,1.1-2.1,0.4-2.7c-0.7-0.6-1.7-0.4-2.6,0.7c-1,1.1-1.1,2.1-0.4,2.7
					C599.9,302,601,301.8,601.9,300.7z"/>
				<path class="st15" d="M604.5,303c1.7-1.9,3.8-2,5.4-0.6c1.6,1.5,1.7,3.5,0,5.4c-1.7,1.9-3.8,2.1-5.5,0.6
					C602.8,307,602.7,304.9,604.5,303z M608.3,306.5c1-1.1,1.1-2.1,0.4-2.7c-0.7-0.6-1.7-0.4-2.6,0.7c-1,1.1-1.1,2.1-0.4,2.7
					C606.3,307.8,607.4,307.5,608.3,306.5z"/>
				<path class="st15" d="M613.7,306.1l1.7,1.5l-1.3,3.2c-0.2,0.4-0.4,0.9-0.6,1.3l0,0c0.4-0.2,0.8-0.5,1.2-0.8l3-1.6l1.7,1.5
					l-5.3,5.8l-1.4-1.3l1.6-1.7c0.5-0.6,1.5-1.4,2.1-1.9l0,0l-1.7,1l-2.5,1.3l-0.8-0.7l1-2.6l0.8-1.8l0,0c-0.5,0.6-1.1,1.7-1.7,2.3
					l-1.6,1.7l-1.4-1.2L613.7,306.1z"/>
				<path class="st15" d="M620.9,312.5l1.5,1.4l-5.3,5.8l-1.5-1.4L620.9,312.5z"/>
				<path class="st15" d="M623.9,315.2l1.6,1.4l-1.1,3.8l-0.6,1.8l0,0c0.5-0.7,1.2-1.7,1.8-2.4l1.5-1.7l1.5,1.3l-5.3,5.8l-1.6-1.4
					l1.1-3.8l0.6-1.8l0,0c-0.5,0.7-1.2,1.7-1.8,2.4l-1.5,1.7l-1.5-1.3L623.9,315.2z"/>
				<path class="st15" d="M627.2,323.6c1.8-2,4.1-1.9,5.7-0.5c0.9,0.8,1.2,1.7,1.2,2.5l-1.7,0.3c-0.1-0.5-0.2-1-0.7-1.4
					c-0.8-0.7-2-0.6-2.9,0.4c-1,1.1-1.1,2.1,0,3.1c0.2,0.1,0.4,0.3,0.5,0.3l0.7-0.8l-0.9-0.8l1.1-1.3l2.2,2l-2.5,2.8
					c-0.8,0-1.8-0.3-2.6-1.1C625.9,327.8,625.4,325.6,627.2,323.6z"/>
				<path class="st15" d="M638.1,328l1.5,1.4l-2,2.2l1.7,1.6l2-2.2l1.5,1.4l-5.3,5.8l-1.5-1.4l2.1-2.3l-1.7-1.6l-2.1,2.3l-1.5-1.4
					L638.1,328z"/>
				<path class="st15" d="M644.5,333.7l1.5,1.4l-5.3,5.8l-1.5-1.4L644.5,333.7z"/>
				<path class="st15" d="M644.6,339.2c1.8-2,4.1-1.9,5.7-0.5c0.9,0.8,1.2,1.7,1.2,2.5l-1.7,0.3c-0.1-0.5-0.2-1-0.7-1.4
					c-0.8-0.7-2-0.6-2.9,0.4c-1,1.1-1.1,2.1,0,3.1c0.2,0.1,0.4,0.3,0.5,0.3l0.7-0.8l-0.9-0.8l1.1-1.3l2.2,2l-2.5,2.8
					c-0.8,0-1.8-0.3-2.6-1.1C643.2,343.3,642.8,341.2,644.6,339.2z"/>
				<path class="st15" d="M653.5,341.8l1.5,1.4l-2,2.2l1.7,1.6l2-2.2l1.5,1.4l-5.3,5.8l-1.5-1.4l2.1-2.3l-1.7-1.6l-2.1,2.3l-1.5-1.4
					L653.5,341.8z"/>
			</g>
		</g>
		<g>
			<g>
				<path class="st15" d="M592.9,302.6l2.1,1.9c1.3,1.1,2,2.6,0.6,4.1c-1.3,1.4-3,1-4.2-0.1l-0.6-0.6l-1.7,1.9l-1.5-1.4L592.9,302.6
					z M592.5,307.3c0.6,0.5,1.2,0.5,1.6,0c0.5-0.5,0.3-1-0.3-1.6l-0.5-0.5l-1.4,1.5L592.5,307.3z"/>
				<path class="st15" d="M595.7,310.3c1.7-1.9,3.8-2,5.4-0.6c1.6,1.5,1.7,3.5,0,5.4c-1.7,1.9-3.8,2.1-5.5,0.6
					C594.1,314.4,594,312.3,595.7,310.3z M599.6,313.8c1-1.1,1.1-2.1,0.4-2.7c-0.7-0.6-1.7-0.4-2.6,0.7c-1,1.1-1.1,2.1-0.4,2.7
					C597.6,315.2,598.6,314.9,599.6,313.8z"/>
				<path class="st15" d="M604.9,315.7l-1.5-1.4l1.2-1.3l4.6,4.2l-1.2,1.3l-1.5-1.4l-4.1,4.6l-1.5-1.4L604.9,315.7z"/>
				<path class="st15" d="M610.2,318.2l3.8,3.4l-1.2,1.3l-2.2-2l-0.8,0.9l1.9,1.7l-1.2,1.3l-1.9-1.7l-0.9,1l2.3,2.1l-1.2,1.3
					L605,324L610.2,318.2z"/>
				<path class="st15" d="M615.4,322.8l1.6,1.4l-1,3.8l-0.6,1.8l0,0c0.5-0.7,1.2-1.7,1.8-2.4l1.5-1.7l1.5,1.3l-5.3,5.8l-1.6-1.4
					l1.1-3.8l0.6-1.8l0,0c-0.5,0.7-1.2,1.7-1.8,2.4l-1.5,1.7l-1.5-1.3L615.4,322.8z"/>
				<path class="st15" d="M621.6,330.7l-1.5-1.4l1.2-1.3l4.6,4.2l-1.2,1.3l-1.5-1.4l-4.1,4.6l-1.5-1.4L621.6,330.7z"/>
				<path class="st15" d="M626.9,333.1l1.5,1.4l-5.3,5.8l-1.5-1.4L626.9,333.1z"/>
				<path class="st15" d="M631,336.8l1.9,1.7l-3.5,7.5l-1.6-1.5l1.9-3.4c0.4-0.7,0.9-1.5,1.2-2.2l0,0c-0.7,0.5-1.4,1.1-2.1,1.5
					l-3.2,2.2l-1.6-1.4L631,336.8z M627.4,339.8l2.9,2.6l-1.1,1.2l-2.9-2.6L627.4,339.8z"/>
				<path class="st15" d="M635.4,340.8l1.5,1.4l-4.1,4.6l2.2,2l-1.2,1.3l-3.8-3.4L635.4,340.8z"/>
				<path class="st15" d="M584.3,309.5l3.8,3.4l-1.2,1.3l-2.2-2l-0.8,0.9l1.9,1.7l-1.2,1.3l-1.9-1.7l-0.9,1l2.3,2.1l-1.2,1.3
					l-3.9-3.5L584.3,309.5z"/>
				<path class="st15" d="M589.5,314.1l1.7,1.5l-1.3,3.2c-0.2,0.4-0.4,0.9-0.6,1.3l0,0c0.4-0.2,0.8-0.5,1.2-0.8l3-1.6l1.7,1.5
					l-5.3,5.8l-1.4-1.3l1.6-1.7c0.5-0.6,1.5-1.4,2.1-1.9l0,0l-1.7,1l-2.5,1.3l-0.8-0.7l1-2.6l0.8-1.8l0,0c-0.5,0.6-1.1,1.7-1.7,2.3
					l-1.6,1.7l-1.4-1.2L589.5,314.1z"/>
				<path class="st15" d="M596.7,320.6l2.1,1.9c1.3,1.1,2,2.6,0.6,4.1c-1.3,1.4-3,1-4.2-0.1l-0.6-0.6l-1.7,1.9l-1.5-1.4L596.7,320.6
					z M596.3,325.2c0.6,0.5,1.2,0.5,1.6,0c0.5-0.5,0.3-1-0.3-1.6l-0.5-0.5l-1.4,1.5L596.3,325.2z"/>
				<path class="st15" d="M602.3,325.7l1.5,1.4l-4.1,4.6l2.2,2l-1.2,1.3l-3.8-3.4L602.3,325.7z"/>
				<path class="st15" d="M604.4,332.8c1.7-1.9,3.8-2,5.4-0.6s1.7,3.5,0,5.4c-1.7,1.9-3.8,2.1-5.5,0.6S602.7,334.7,604.4,332.8z
					 M608.3,336.2c1-1.1,1.1-2.1,0.4-2.7c-0.7-0.6-1.7-0.4-2.6,0.7c-1,1.1-1.1,2.1-0.4,2.7C606.3,337.6,607.3,337.3,608.3,336.2z"/>
				<path class="st15" d="M611.3,340.6l1.7-5.4l1.7,1.5l-0.7,1.6c-0.3,0.6-0.5,1.1-0.7,1.7l0,0c0.6-0.3,1.1-0.6,1.6-0.9l1.5-0.8
					l1.6,1.5l-5.2,2.2l-1.8,2l-1.5-1.4L611.3,340.6z"/>
				<path class="st15" d="M618.8,340.4l3.8,3.4l-1.2,1.3l-2.2-2l-0.8,0.9l1.9,1.7l-1.2,1.3l-1.9-1.7l-0.9,1l2.3,2.1l-1.2,1.3
					l-3.9-3.5L618.8,340.4z"/>
				<path class="st15" d="M624,345.1l3.8,3.4l-1.2,1.3l-2.2-2l-0.8,0.9l1.9,1.7l-1.2,1.3l-1.9-1.7l-0.9,1l2.3,2.1l-1.2,1.3l-3.9-3.5
					L624,345.1z"/>
				<path class="st15" d="M624.2,354.5l1.8-0.3c0.1,0.7,0.4,1.4,0.9,1.8c0.5,0.4,0.8,0.4,1,0.2c0.3-0.3,0-0.6-0.3-1.3l-0.5-1
					c-0.4-0.8-0.5-1.8,0.3-2.7c0.9-1,2.5-1,3.8,0.1c0.7,0.6,1.2,1.5,1.2,2.5l-1.6,0.3c-0.1-0.6-0.4-1.1-0.8-1.5
					c-0.4-0.3-0.7-0.4-1-0.2c-0.3,0.3,0,0.7,0.3,1.4l0.5,0.9c0.5,0.9,0.4,1.8-0.3,2.6c-0.9,1-2.5,1.1-4-0.2
					C624.9,356.7,624.3,355.7,624.2,354.5z"/>
			</g>
		</g>
	</g>
	<g>
		<g>
			<path class="st16" d="M568.4,238.1l1.8-1.7l3.3,1.7c0.4,0.2,0.9,0.5,1.3,0.8l0,0c-0.2-0.5-0.5-0.9-0.7-1.4l-1.5-3.4l1.8-1.7
				l5.8,6.2l-1.5,1.4l-1.7-1.8c-0.6-0.6-1.4-1.7-1.9-2.4l0,0l0.9,2l1.2,2.8l-0.9,0.8l-2.7-1.3l-1.9-1l0,0c0.7,0.5,1.7,1.4,2.3,2
				l1.7,1.8l-1.5,1.4L568.4,238.1z"/>
			<path class="st16" d="M578.7,234.2c-1.9-2-1.8-4.3-0.1-5.9c1.7-1.6,4-1.6,5.9,0.5c1.9,2,1.9,4.3,0.2,6
				C582.9,236.4,580.6,236.3,578.7,234.2z M582.8,230.4c-1.1-1.1-2.1-1.3-2.9-0.6c-0.7,0.7-0.6,1.8,0.5,2.9c1.1,1.1,2.2,1.4,2.9,0.7
				S583.8,231.5,582.8,230.4z"/>
			<path class="st16" d="M587.6,230.3l-0.1-2c0.8-0.1,1.6-0.3,2-0.8c0.5-0.5,0.6-0.8,0.3-1.1c-0.3-0.3-0.7-0.1-1.4,0.2l-1.1,0.4
				c-0.9,0.4-2,0.3-2.9-0.6c-1-1.1-0.9-2.8,0.5-4.1c0.7-0.7,1.7-1.1,2.8-1.1l0.1,1.8c-0.7,0.1-1.2,0.3-1.7,0.7
				c-0.4,0.4-0.5,0.8-0.3,1c0.3,0.3,0.7,0.1,1.5-0.2l1-0.4c1.1-0.4,2-0.3,2.8,0.6c1,1.1,1,2.8-0.6,4.3
				C590,229.7,588.8,230.3,587.6,230.3z"/>
			<path class="st16" d="M590.9,219.5l-1.6,1.5l-1.3-1.4l4.9-4.6l1.3,1.4l-1.6,1.5l4.5,4.8l-1.6,1.5L590.9,219.5z"/>
			<path class="st16" d="M598.8,215.4c-2-2.1-1.6-4.6-0.1-6.1c0.8-0.8,1.8-1,2.7-1l0.1,1.9c-0.6,0-1,0.1-1.5,0.5
				c-0.7,0.7-0.7,1.9,0.3,3.1c1.1,1.2,2.2,1.3,3,0.6c0.5-0.4,0.6-1.1,0.6-1.6l1.8,0.2c0,1.1-0.4,2.1-1.2,2.8
				C603.2,217.3,600.8,217.6,598.8,215.4z"/>
			<path class="st16" d="M604.5,209.9c-1.9-2-1.8-4.3-0.1-5.9c1.7-1.6,4-1.6,5.9,0.5c1.9,2,1.9,4.3,0.2,6
				C608.8,212.1,606.5,212,604.5,209.9z M608.6,206.1c-1.1-1.1-2.1-1.3-2.9-0.6c-0.7,0.7-0.6,1.8,0.5,2.9s2.2,1.4,2.9,0.7
				S609.7,207.2,608.6,206.1z"/>
			<path class="st16" d="M608.7,200.2l1.8-1.7l3.3,1.7c0.4,0.2,0.9,0.5,1.3,0.8l0,0c-0.2-0.5-0.5-0.9-0.7-1.4l-1.5-3.4l1.8-1.7
				l5.8,6.2l-1.5,1.4l-1.7-1.8c-0.6-0.6-1.4-1.7-1.9-2.4l0,0l0.9,2l1.2,2.8l-0.9,0.8l-2.7-1.3l-1.9-1l0,0c0.7,0.5,1.7,1.4,2.3,2
				l1.7,1.8l-1.5,1.4L608.7,200.2z"/>
			<path class="st16" d="M616.3,193l2.3-2.1c1.4-1.3,3-1.9,4.5-0.3c1.4,1.5,0.9,3.3-0.4,4.5l-0.7,0.6l1.9,2l-1.6,1.5L616.3,193z
				 M621.3,193.9c0.6-0.6,0.6-1.2,0.1-1.8s-1.1-0.4-1.7,0.2l-0.6,0.5l1.5,1.6L621.3,193.9z"/>
			<path class="st16" d="M622.3,187.4l4-3.8l1.3,1.4l-2.4,2.2l0.9,1l2-1.9l1.3,1.4l-2,1.9l1,1.1l2.5-2.3l1.3,1.4l-4.1,3.9
				L622.3,187.4z"/>
			<path class="st16" d="M630.3,182.5l-1.6,1.5l-1.3-1.4l4.9-4.6l1.3,1.4l-1.6,1.5l4.5,4.8l-1.6,1.5L630.3,182.5z"/>
			<path class="st16" d="M633.4,176.9l4-3.8l1.3,1.4l-2.4,2.2l0.9,1l2-1.9l1.3,1.4l-2,1.9l1,1.1l2.5-2.3l1.3,1.4l-4.1,3.9
				L633.4,176.9z"/>
			<path class="st16" d="M638.9,171.8l1.7-1.6l4,1.5l1.9,0.8l0,0c-0.7-0.6-1.7-1.4-2.4-2.2l-1.7-1.8l1.6-1.5l5.8,6.2l-1.7,1.6
				l-4-1.5l-1.9-0.8l0,0c0.7,0.6,1.7,1.4,2.4,2.2l1.7,1.8l-1.6,1.5L638.9,171.8z"/>
			<path class="st16" d="M648,165.8l-1.6,1.5l-1.3-1.4l4.9-4.6l1.3,1.4l-1.6,1.5l4.5,4.8l-1.6,1.5L648,165.8z"/>
		</g>
	</g>
</g>
</svg>
