<?xml version="1.0" encoding="utf-8"?>
<!-- Generator: Adobe Illustrator 21.0.0, SVG Export Plug-In . SVG Version: 6.00 Build 0)  -->
<svg version="1.1" id="Layer_1" xmlns="http://www.w3.org/2000/svg" xmlns:xlink="http://www.w3.org/1999/xlink" x="0px" y="0px"
	 viewBox="0 0 40.9 38.1" style="enable-background:new 0 0 40.9 38.1;" xml:space="preserve">
<style type="text/css">
	.st0{fill:#D1AE6C;}
</style>
<g>
	<path class="st0" d="M20.2,14.9h0.9c0.3,0,0.5-0.2,0.5-0.5c0-0.3-0.2-0.5-0.5-0.5h-0.7v-2.2c0-0.3-0.2-0.5-0.5-0.5
		c-0.3,0-0.5,0.2-0.5,0.5V14C19.3,14.5,19.7,14.9,20.2,14.9z"/>
	<path class="st0" d="M18.1,10.2c0.1,0.1,0.2,0.2,0.4,0.2c0.1,0,0.3-0.1,0.4-0.2c0.2-0.2,0.2-0.6,0-0.8c-1-1-2.6-1-3.6,0
		c-0.2,0.2-0.2,0.6,0,0.8c0.2,0.2,0.6,0.2,0.8,0C16.5,9.6,17.5,9.6,18.1,10.2z"/>
	<path class="st0" d="M22.5,10.3c0.1,0,0.3-0.1,0.4-0.2c0.6-0.6,1.5-0.6,2.1,0c0.2,0.2,0.6,0.2,0.8,0c0.2-0.2,0.2-0.6,0-0.8
		c-1-1-2.6-1-3.6,0c-0.2,0.2-0.2,0.6,0,0.8C22.2,10.3,22.3,10.3,22.5,10.3z"/>
	<path class="st0" d="M17.1,10.5c-0.3,0-0.5,0.2-0.5,0.5v1.5c0,0.3,0.2,0.5,0.5,0.5c0.3,0,0.5-0.2,0.5-0.5V11
		C17.7,10.7,17.4,10.5,17.1,10.5z"/>
	<path class="st0" d="M23.8,10.5c-0.3,0-0.5,0.2-0.5,0.5v1.5c0,0.3,0.2,0.5,0.5,0.5c0.3,0,0.5-0.2,0.5-0.5V11
		C24.3,10.7,24.1,10.5,23.8,10.5z"/>
	<path class="st0" d="M22.9,16.4c0-0.5-0.4-0.9-0.9-0.9h-3.1c-0.5,0-0.9,0.4-0.9,0.9c0,1.3,1.1,2.4,2.4,2.4
		C21.8,18.8,22.9,17.8,22.9,16.4z M19.1,16.6h2.7c-0.1,0.7-0.7,1.2-1.3,1.2C19.8,17.8,19.2,17.3,19.1,16.6z"/>
	<path class="st0" d="M21.1,26.3L20.5,27l-0.7-0.7c-0.6-0.6-1.4-0.9-2.2-0.9c-0.8,0-1.6,0.3-2.2,0.9c-0.6,0.6-0.9,1.3-0.9,2.2
		c0,0.8,0.3,1.6,0.9,2.2l4.3,4.3c0.2,0.2,0.5,0.3,0.7,0.3c0.3,0,0.5-0.1,0.7-0.3l4.3-4.3c0.6-0.6,0.9-1.3,0.9-2.2
		c0-0.8-0.3-1.6-0.9-2.2c-0.6-0.6-1.4-0.9-2.2-0.9C22.5,25.4,21.7,25.7,21.1,26.3z M25.3,28.5c0,0.5-0.2,1-0.6,1.4l-4.3,4.2
		l-4.3-4.2c-0.4-0.4-0.6-0.9-0.6-1.4c0-0.5,0.2-1,0.6-1.4c0.4-0.4,0.9-0.6,1.4-0.6c0.5,0,1,0.2,1.4,0.6l1.1,1.1
		c0.2,0.2,0.6,0.2,0.8,0l1.1-1.1c0.4-0.4,0.9-0.6,1.4-0.6c0.5,0,1,0.2,1.4,0.6C25.1,27.4,25.3,27.9,25.3,28.5z"/>
	<path class="st0" d="M19.1,28.9c0-0.3-0.2-0.5-0.5-0.5c-0.3,0-0.5,0.2-0.5,0.5v0.4c0,0.3,0.2,0.5,0.5,0.5c0.3,0,0.5-0.2,0.5-0.5
		V28.9z"/>
	<path class="st0" d="M22.3,28.4c-0.3,0-0.5,0.2-0.5,0.5v0.4c0,0.3,0.2,0.5,0.5,0.5c0.3,0,0.5-0.2,0.5-0.5v-0.4
		C22.8,28.6,22.6,28.4,22.3,28.4z"/>
	<path class="st0" d="M21.3,30.4c-0.3,0-0.5,0.2-0.5,0.5c0,0.2-0.1,0.3-0.3,0.3c-0.2,0-0.3-0.1-0.3-0.3c0-0.3-0.2-0.5-0.5-0.5
		c-0.3,0-0.5,0.2-0.5,0.5c0,0.8,0.6,1.4,1.4,1.4c0.8,0,1.4-0.6,1.4-1.4C21.9,30.6,21.6,30.4,21.3,30.4z"/>
	<path class="st0" d="M33.5,27.5H33v-3.6c0-0.5-0.4-0.9-0.9-0.9h-2v-0.7c0-1.1-0.9-2-2-2h-0.7c-0.3,0-0.5,0.2-0.5,0.5
		c0,0.3,0.2,0.5,0.5,0.5h0.7c0.5,0,0.9,0.4,0.9,0.9V23h-6.3c0.4-0.4,0.6-1,0.6-1.6h1.5c0.3,0,0.5-0.2,0.5-0.5c0-0.3-0.2-0.5-0.5-0.5
		h-1.5c2.1-0.9,3.7-2.9,4.1-5.2H28c1.1,0,2.1-0.9,2.1-2.1v-1.3c0-0.8-0.4-1.4-1-1.8V5.3c0-1.8-1.5-3.3-3.3-3.3h-0.8
		c-0.6-0.9-1.6-1.6-2.8-1.6h-9.3c-0.6,0-1,0.4-1,1V10c-0.6,0.4-1,1-1,1.8v1.3c0,1.1,0.9,2.1,2.1,2.1h0.4c0.4,2.3,2,4.3,4.1,5.2h-4.8
		c-1.1,0-2,0.9-2,2V23h-2c-0.5,0-0.9,0.4-0.9,0.9v3.6H7.4c-0.6,0-1,0.5-1,1v3.6c0,0.6,0.5,1,1,1h0.5v3.6c0,0.5,0.4,0.9,0.9,0.9h23.3
		c0.5,0,0.9-0.4,0.9-0.9v-0.5c0-0.3-0.2-0.5-0.5-0.5c-0.3,0-0.5,0.2-0.5,0.5v0.4H9v-3.4h0.7c0.6,0,1-0.5,1-1v-0.6
		c0-0.2,0-0.3-0.1-0.5c0.1-0.1,0.1-0.3,0.1-0.5V30c0-0.2,0-0.3-0.1-0.5c0.1-0.1,0.1-0.3,0.1-0.5v-0.6c0-0.6-0.5-1-1-1H9v-3.4h22.9
		v3.4h-0.7c-0.6,0-1,0.5-1,1v0.6c0,0.2,0,0.3,0.1,0.5c-0.1,0.1-0.1,0.3-0.1,0.5v0.6c0,0.2,0,0.3,0.1,0.5c-0.1,0.1-0.1,0.3-0.1,0.5
		v0.6c0,0.6,0.5,1,1,1h0.7v0.4c0,0.3,0.2,0.5,0.5,0.5c0.3,0,0.5-0.2,0.5-0.5v-0.4h0.5c0.6,0,1-0.5,1-1v-3.6
		C34.5,27.9,34.1,27.5,33.5,27.5z M9.7,28.6V29H8.9c-0.3,0-0.5,0.2-0.5,0.5c0,0.3,0.2,0.5,0.5,0.5h0.8v0.4H8.9
		c-0.3,0-0.5,0.2-0.5,0.5s0.2,0.5,0.5,0.5h0.8v0.4H7.5v-3.5H9.7z M28.9,11.7v1.3c0,0.5-0.4,1-1,1h-0.3c0-0.1,0-0.2,0-0.2v-3.1H28
		C28.5,10.8,28.9,11.2,28.9,11.7z M25.7,3.1c1.2,0,2.2,1,2.2,2.2v4.4h-0.3V6.5c0-0.5-0.4-0.9-0.9-0.9h-1.3V3.8c0-0.2,0-0.4-0.1-0.6
		H25.7z M12.9,14.1c-0.5,0-1-0.4-1-1v-1.3c0-0.5,0.4-1,1-1h0.3v3.1c0,0.1,0,0.2,0,0.2H12.9z M14.4,13.8V6.7h1.9
		c0.3,0,0.5-0.2,0.5-0.5c0-0.3-0.2-0.5-0.5-0.5h-2.1c-0.5,0-0.9,0.4-0.9,0.9v3.2H13V1.6h9.2c1.2,0,2.2,1,2.2,2.2v1.8h-5.5
		c-0.3,0-0.5,0.2-0.5,0.5c0,0.3,0.2,0.5,0.5,0.5h7.8v7.1c0,3.3-2.7,6.1-6.1,6.1C17.1,19.9,14.4,17.2,14.4,13.8z M11.9,23v-0.7
		c0-0.5,0.4-0.9,0.9-0.9h4.8c0,0.6,0.3,1.1,0.6,1.6H11.9z M22.2,21.2c0,1-0.8,1.8-1.8,1.8c-1,0-1.8-0.8-1.8-1.8v-0.5
		c0.6,0.1,1.2,0.2,1.8,0.2c0.6,0,1.2-0.1,1.8-0.2V21.2z M33.4,32.1h-2.2v-0.4H32c0.3,0,0.5-0.2,0.5-0.5s-0.2-0.5-0.5-0.5h-0.8v-0.4
		H32c0.3,0,0.5-0.2,0.5-0.5c0-0.3-0.2-0.5-0.5-0.5h-0.8v-0.4h2.2V32.1z"/>
</g>
</svg>
