<?xml version="1.0" encoding="utf-8"?>
<!-- Generator: Adobe Illustrator 21.0.0, SVG Export Plug-In . SVG Version: 6.00 Build 0)  -->
<svg version="1.1" id="Layer_1" xmlns="http://www.w3.org/2000/svg" xmlns:xlink="http://www.w3.org/1999/xlink" x="0px" y="0px"
	 viewBox="0 0 40.9 38.1" style="enable-background:new 0 0 40.9 38.1;" xml:space="preserve">
<style type="text/css">
	.st0{fill:#D1AE6C;}
</style>
<g id="surface1">
	<path class="st0" d="M20.4,18.7c-3.6,0-6.6,2.9-6.6,6.6c0,3.6,2.9,6.6,6.6,6.6s6.6-2.9,6.6-6.6C27,21.7,24.1,18.7,20.4,18.7z
		 M20.4,30.6c-2.9,0-5.2-2.3-5.2-5.2s2.3-5.2,5.2-5.2s5.2,2.3,5.2,5.2C25.7,28.2,23.3,30.5,20.4,30.6z"/>
	<path class="st0" d="M20.4,18.1c0.4,0,0.7-0.3,0.7-0.7v-0.7c0-0.4-0.3-0.7-0.7-0.7s-0.7,0.3-0.7,0.7v0.7
		C19.8,17.8,20.1,18.1,20.4,18.1z"/>
	<path class="st0" d="M26,18.8l-0.5,0.5c-0.3,0.3-0.3,0.7,0,0.9c0.3,0.3,0.7,0.3,0.9,0c0,0,0,0,0,0l0.5-0.5c0.3-0.3,0.2-0.7,0-0.9
		C26.7,18.6,26.3,18.6,26,18.8z"/>
	<path class="st0" d="M29,24.6h-0.7c-0.4,0-0.7,0.3-0.7,0.7S28,26,28.3,26H29c0.4,0,0.7-0.3,0.7-0.7S29.3,24.6,29,24.6z"/>
	<path class="st0" d="M26.5,30.4c-0.3-0.3-0.7-0.2-0.9,0c-0.2,0.3-0.2,0.7,0,0.9l0.5,0.5c0.3,0.3,0.7,0.3,0.9,0
		c0.3-0.3,0.3-0.7,0-0.9L26.5,30.4z"/>
	<path class="st0" d="M20.4,32.5c-0.4,0-0.7,0.3-0.7,0.7v0.7c0,0.4,0.3,0.7,0.7,0.7s0.7-0.3,0.7-0.7v-0.7
		C21.1,32.8,20.8,32.5,20.4,32.5z"/>
	<path class="st0" d="M14.4,30.4L14,30.9c-0.3,0.3-0.3,0.7,0,0.9c0.3,0.3,0.7,0.3,0.9,0l0.5-0.5c0.3-0.3,0.2-0.7,0-0.9
		C15.1,30.2,14.7,30.2,14.4,30.4L14.4,30.4z"/>
	<path class="st0" d="M12.6,24.6h-0.7c-0.4,0-0.7,0.3-0.7,0.7s0.3,0.7,0.7,0.7h0.7c0.4,0,0.7-0.3,0.7-0.7S12.9,24.6,12.6,24.6z"/>
	<path class="st0" d="M14.4,20.2c0.3,0.3,0.7,0.2,0.9,0c0.2-0.3,0.2-0.7,0-0.9l-0.5-0.5c-0.3-0.3-0.7-0.3-0.9,0
		c-0.3,0.3-0.3,0.7,0,0.9L14.4,20.2z"/>
	<path class="st0" d="M38.2,18.1c-1.1,0-2,0.9-2,2v0.7h-5.6c-1.1-2.5-3.1-4.4-5.6-5.6v-4.9c0-0.4-0.3-0.7-0.7-0.7h-1.3V5.6h7.9
		c1.1,0,2-0.9,2-2s-0.9-2-2-2H10c-1.1,0-2,0.9-2,2s0.9,2,2,2h7.9v3.9h-1.3c-0.4,0-0.7,0.3-0.7,0.7v4.9c-2.5,1.1-4.4,3.1-5.6,5.6H4.7
		v-0.7c0-1.1-0.9-2-2-2s-2,0.9-2,2v10.5c0,1.1,0.9,2,2,2s2-0.9,2-2v-0.7h5.6c2.5,5.6,9.1,8.1,14.7,5.6c2.5-1.1,4.5-3.1,5.6-5.6h5.6
		v0.7c0,1.1,0.9,2,2,2s2-0.9,2-2V20.1C40.1,19,39.2,18.1,38.2,18.1z M9.3,3.7C9.3,3.3,9.6,3,10,3h21c0.4,0,0.7,0.3,0.7,0.7
		s-0.3,0.7-0.7,0.7H10C9.6,4.3,9.3,4,9.3,3.7z M19.1,5.6h2.6v3.9h-2.6V5.6z M17.2,10.9h6.6v3.8c-2.1-0.7-4.4-0.7-6.6,0V10.9z
		 M3.4,30.6c0,0.4-0.3,0.7-0.7,0.7s-0.7-0.3-0.7-0.7V20.1c0-0.4,0.3-0.7,0.7-0.7s0.7,0.3,0.7,0.7V30.6z M4.7,28.6V22h5.1
		c-0.7,2.1-0.7,4.4,0,6.6H4.7z M20.4,35.1c-5.4,0-9.8-4.4-9.8-9.8c0-5.4,4.4-9.8,9.8-9.8s9.8,4.4,9.8,9.8
		C30.3,30.7,25.9,35.1,20.4,35.1z M31.1,28.6c0.7-2.1,0.7-4.4,0-6.6h5.1v6.6H31.1z M38.8,30.6c0,0.4-0.3,0.7-0.7,0.7
		c-0.4,0-0.7-0.3-0.7-0.7V20.1c0-0.4,0.3-0.7,0.7-0.7c0.4,0,0.7,0.3,0.7,0.7V30.6z"/>
</g>
</svg>
