<?xml version="1.0" encoding="utf-8"?>
<!-- Generator: Adobe Illustrator 26.0.0, SVG Export Plug-In . SVG Version: 6.00 Build 0)  -->
<svg version="1.1" id="_x2018_ëîé_x5F_1" xmlns="http://www.w3.org/2000/svg" xmlns:xlink="http://www.w3.org/1999/xlink"
	 x="0px" y="0px" viewBox="0 0 1280 673" style="enable-background:new 0 0 1280 673;" xml:space="preserve">
<style type="text/css">
	.st0{fill:#FFFFFF;}
	.st1{fill-rule:evenodd;clip-rule:evenodd;fill:#A6A8AA;}
	.st2{fill-rule:evenodd;clip-rule:evenodd;fill:#CBAB70;}
	.st3{fill-rule:evenodd;clip-rule:evenodd;fill:#C4A671;}
	.st4{fill-rule:evenodd;clip-rule:evenodd;fill:#9DA1A5;}
	.st5{fill:none;}
	.st6{fill-rule:evenodd;clip-rule:evenodd;fill:#A7A8AB;}
	.st7{fill:#FFFAEC;}
	.st8{opacity:0.6;}
	.st9{fill:#CBCAC5;}
	.st10{fill:#AECCD3;}
	.st11{fill:#F7B686;}
	.st12{fill:#DD8964;}
	.st13{fill:#7DA89F;}
	.st14{fill:#56335B;}
	.st15{fill:#2F1A31;}
	.st16{fill:#060633;}
	.st17{fill:#A6A8AA;}
	.st18{fill:#E08B65;}
	.st19{fill:#020202;}
	.st20{fill:#74A1BD;}
	.st21{fill:#DEEBE9;}
	.st22{opacity:0.3;fill:#FFFFFF;}
	.st23{fill:#E28569;}
	.st24{fill:#EDA87A;}
	.st25{fill:#DD9868;}
	.st26{fill:#96A7E2;}
	.st27{fill:#593860;}
	.st28{fill:#734D7C;}
	.st29{fill:#8298D8;}
	.st30{fill:#BED5DC;}
	.st31{fill:#C4A671;}
	.st32{fill:#4D2D51;}
	.st33{fill:#2F2D2C;}
	.st34{fill:#B2C9C6;}
	.st35{fill:#FFD28A;}
</style>
<rect x="-3020" y="-73" class="st0" width="3000" height="2000"/>
<g>
	<g>
		<g>
			<g>
				<path class="st1" d="M-201.2-173.8c-15,37.4-51.5,63.7-94,63.7c-56.3,0-101.6-45.7-101.6-102c0-14.4,3-28.1,8.1-40.5l92.5-1.5
					l-7.8,10.4l-11.7,27.8c16.1,14.1,27.9,6.8,36.5-16.7l14.8-1.1l38.5,37l0,0c9.6,8.3-2.4,18.5-8.9,11.7l-23.3-23.1
					c-1.7-0.4-2.8,0.4-3.3,1.9l23.1,23c3,2.8,3,7.4,0.2,10.2l0,0c-2.8,2.8-7.4,3-10.4,0l-23.1-23c-0.2-0.2-0.6-0.6-0.7-0.7l0,0
					c-1.9-0.9-3.3,0.7-2.6,2.4l19.6,19.4c2.8,2.8,3,7.4,0,10.4l0,0c-2.8,2.8-7.4,2.8-10.2,0l-12.4-12.2c0,0-2-2-2.6-2.6
					c0-0.4,0-0.7,0-0.9c0.2-2.6-0.6-5.2-2.2-7c0-0.2,0-0.2-0.2-0.4c-0.2-0.4-0.6-0.6-0.9-0.9c0,0-0.2,0-0.2-0.2
					c-1.1-0.9-2.4-1.7-4.1-2l0,0c-2.4-0.6-4.6-0.4-6.8,0.6v0.2l0,0l0,0h-0.2l0,0l0,0h-0.2v0.2h-0.2l0,0h-0.2v0.2h-0.2l0,0l0,0h-0.2
					v0.2h-0.2l0,0v0.2h-0.2l0,0l0,0h-0.2v0.2l0,0c0,0,0,0-0.2,0l0,0l0,0v0.2h-0.2l0,0l0,0l0,0l0,0c-0.2,0.2-0.2,0.2-0.2,0.2l0,0
					h-0.2v0.2l0,0c0,0,0,0-0.2,0l0,0l0,0v0.2l0,0h-0.2l0,0l0,0c0,0.2-0.2,0.2-0.2,0.2l0,0c0,0.2-0.2,0.2-0.2,0.4l0,0l0,0h-0.2l0,0
					c0,0,0,0.2-0.2,0.2l0,0l0,0c0,0,0,0,0,0.2l0,0l0,0h-0.2l0,0c0,0.2,0,0.2-0.2,0.2l0.4-0.7c0-0.2,0-0.2,0-0.2v-0.2v-0.2l0,0
					c0-0.2,0-0.2,0.2-0.2v-0.2l0,0v-0.2v-0.2l0,0v-0.2v-0.2v-0.2l0,0v-0.2l0,0v-0.2v-0.2v-0.2l0,0v-0.2l0,0c0-0.2,0-0.2,0-0.2v-0.2
					v-0.2l0,0c0-0.2,0-0.2,0-0.2v-0.2c0,0,0,0,0-0.2l0,0v-0.2v-0.2l0,0v-0.2l0,0l-0.2-0.2v-0.2l0,0v-0.2v-0.2l0,0l-0.2-0.2l0,0v-0.2
					v-0.2l0,0v-0.2c-0.2,0-0.2,0-0.2-0.2l0,0c0-0.2-0.2-0.4-0.2-0.6l0,0v-0.2h-0.2c0-0.2,0-0.2,0-0.2l0,0v-0.2l-0.2-0.2l0,0v-0.2
					h-0.2v-0.2l0,0l-0.2-0.2c0,0,0,0,0-0.2l0,0c0,0-0.2,0-0.2-0.2l0,0c-0.2-0.4-0.6-0.7-0.9-1.1l0,0c0-0.2-0.2-0.2-0.2-0.2l0,0
					c0-0.2,0-0.2-0.2-0.2l0,0c0-0.2,0-0.2-0.2-0.2l0,0v-0.2h-0.2c0,0,0,0,0-0.2h-0.2c0,0,0,0,0-0.2h-0.2c-0.4-0.2-0.7-0.6-1.3-0.9
					l0,0c0,0,0,0-0.2,0l0,0c0,0,0-0.2-0.2-0.2l0,0h-0.2l0,0c0-0.2-0.2-0.2-0.2-0.2l0,0c-0.2,0-0.2,0-0.2,0l0,0
					c-0.2-0.2-0.2-0.2-0.2-0.2h-0.2c0,0,0,0-0.2,0l0,0l0,0c-0.4-0.2-0.7-0.4-1.1-0.4l0,0c-1.3-0.4-2.4-0.4-3.5-0.4l0,0h-0.2l0,0
					c-0.4,0-0.6,0.2-0.9,0.2l0,0c-0.2,0-0.6,0.2-0.9,0.2l0,0c-0.2,0.2-0.4,0.2-0.6,0.2v0.2h-0.2l0,0h-0.2l0,0
					c-0.2,0.2-0.4,0.2-0.4,0.2l0,0l-0.2,0.2l0,0h-0.2l0,0h-0.2v0.2h-0.2h-0.2v0.2l0,0h-0.2l0,0l-0.2,0.2l0,0h-0.2v0.2h-0.2l0,0
					l-0.2,0.2l0,0l0,0h-0.2v0.2h-0.2l0,0l0,0l0,0c0,0.2-0.2,0.2-0.2,0.2l0,0l-0.2,0.2l0,0l0,0l-0.2,0.2l0,0l0,0h-0.2v0.2l0,0l0,0
					l-0.2,0.2l0,0h-0.2v0.2l0,0h-0.2v0.2l0,0l0,0l0,0c-0.2,0.2-0.2,0.2-0.2,0.2l0,0l-0.2,0.2l0,0v0.2h-0.2c0,0,0,0,0,0.2l0,0
					c0,0-0.2,0-0.2,0.2l0,0l0,0l-0.2,0.2l0,0v0.2h-0.2l0,0c0,0.2,0,0.2,0,0.2c0-4.4-3.1-8.5-7.8-9.8c-4.3-0.9-8.5,0.7-10.9,4.1
					c0,0,0-0.2-0.2-0.2l0,0l0,0l0,0v-0.2l0,0l0,0l0,0l0,0v-0.2l0,0v-0.2l0,0l0,0l0,0l0,0h-0.2v-0.2l0,0l0,0l0,0l0,0l0,0l0,0l0,0
					v-0.2l0,0l0,0l0,0l0,0l0,0l0,0v-0.2h-0.2l0,0l0,0l0,0l0,0v-0.2l0,0l0,0l0,0l0,0l0,0v-0.2l0,0l-0.2-0.2l0,0l0,0v-0.2l0,0
					l-0.2-0.2l0,0l0,0v-0.2h-0.2l0,0v-0.2l0,0v-0.2h-0.2l0,0v-0.2l0,0v-0.2h-0.2l0,0v-0.2c0,0,0,0-0.2,0l0,0v-0.2l0,0v-0.2h-0.2l0,0
					v-0.2l0,0h-0.2v-0.2l0,0h-0.2c0-0.2,0-0.2,0-0.2l0,0l-0.2-0.2l0,0l0,0l0,0l-0.2-0.2l0,0l0,0l-0.2-0.2l0,0l0,0v-0.2h-0.2v-0.2
					h-0.2l0,0v-0.2h-0.2l0,0l0,0l-0.2-0.2l0,0l0,0l-0.2-0.2l0,0l0,0l0,0l-0.2-0.2l0,0l0,0h-0.2v-0.2h-0.2l0,0l0,0l-0.2-0.2l0,0h-0.2
					l0,0v-0.2l0,0h-0.2l0,0l0,0l-0.2-0.2l0,0h-0.2l0,0l0,0l-0.2-0.2l0,0h-0.2l0,0v-0.2l0,0c-0.2,0-0.2,0-0.4,0l0,0l-0.2-0.2l0,0
					h-0.2l0,0h-0.2v-0.2h-0.2l0,0c0,0,0,0-0.2,0l0,0l0,0l-0.2-0.2l0,0h-0.2l0,0l0,0h-0.2l0,0l-0.2-0.2l0,0h-0.2c0,0,0,0-0.2,0l0,0
					c-5.6-1.5-11.5,2.2-12.8,7.8l-2,9.1H-373c8.9,35.4,45.2,62,88.7,62c30.4,0,56.1-9.8,72.4-29.8
					C-209.2-163.9-205.1-168.6-201.2-173.8L-201.2-173.8z M-325-205.8L-325-205.8L-325-205.8z M-281.2-176.3c-0.7,5.6-2.2,10.7-5,15
					l3.9,4.4l2.6,2.4c2.8,3,7.4,3,10.2,0l0,0c3-2.8,2.8-7.4,0-10.2l-8.3-8.3L-281.2-176.3z"/>
				<path class="st2" d="M-294.5-315.5c27.2-1.1,52,10.6,70.3,29.1c11.8,11.8,21.1,26.8,26.3,42.9c7.6,22.8,6.1,44.4-1.9,67
					c-9.1-9.4-18.3-18.3-27.8-27.4l-35.2-34.1l-18.1,1.5c-3.5,6.5-8.9,19.6-16.1,22.2c-4.3,1.7-11.3,0.4-14.6-3.1l9.6-22.8
					c1.1-2.2,5.7-8.9,7.8-10.6c2.4-2,5.7-3.1,10.6-3.3c3.3-0.2,7,0,10.6,0h45.5c-18.5-25-50.3-41.3-81.8-41.3
					c-31.3,0-58.5,17.4-77,37C-368.9-289.4-343.4-313.5-294.5-315.5z"/>
			</g>
			<path class="st2" d="M-306.9-196.3L-306.9-196.3c4.3,0.9,6.7,5.4,5.6,9.6l-3.5,13.1c-1.1,4.3-5.6,6.8-9.8,5.7l0,0
				c-4.3-0.9-6.7-5.4-5.6-9.4l3.5-13.3C-315.6-194.9-311.2-197.4-306.9-196.3z"/>
			<path class="st2" d="M-326.2-201.5L-326.2-201.5c4.3,0.9,6.8,5.4,5.7,9.6l-3.5,13.3c-1.1,4.4-5.7,7-10,5.9l0,0
				c-4.3-1.1-6.8-5.4-5.7-9.6l3.7-13.5C-334.9-200-330.4-202.6-326.2-201.5z"/>
			<path class="st2" d="M-344.7-205.8L-344.7-205.8c4.1,0.9,6.7,5.2,5.7,9.3l-2.2,10c-1.1,4.3-5.2,6.7-9.3,5.7l0,0
				c-4.1-1.1-6.7-5.4-5.7-9.4l2.4-10C-352.8-204.3-348.7-206.9-344.7-205.8z"/>
			<path class="st2" d="M-289.3-187.3L-289.3-187.3c4.1,0.9,6.5,5,5.4,9.1l-1.7,6.5l-0.7,3c-2.6,9.8-17.4,6.1-14.8-3.5l0.6-2.4
				l1.9-7C-297.6-185.8-293.4-188.4-289.3-187.3z"/>
		</g>
		<path class="st3" d="M-80-196.3h-35.6l-5.1,17.2h-32.1l38.3-104.3h34.4L-42-179.1h-32.9L-80-196.3L-80-196.3z M-86.6-218.9
			l-11.1-37.5l-11.1,37.5H-86.6L-86.6-218.9z M-27.6-283.4h41.5l15.8,63.5l15.8-63.5h41.3v104.3H61v-79.5l-19.8,79.5H17.9
			l-19.8-79.5v79.5h-25.7V-283.4L-27.6-283.4z M179.2-221.8l27.6,8.5c-1.8,7.9-4.8,14.5-8.8,19.8c-4,5.3-8.9,9.3-14.8,12
			c-5.9,2.7-13.4,4.1-22.5,4.1c-11.1,0-20.1-1.7-27.1-4.9c-7-3.3-13-9.1-18.1-17.4c-5.1-8.3-7.6-18.9-7.6-31.8
			c0-17.2,4.5-30.5,13.4-39.8c9-9.3,21.6-13.9,38-13.9c12.8,0,22.9,2.6,30.2,8c7.3,5.3,12.8,13.5,16.3,24.5l-27.7,6.3
			c-1-3.2-2-5.5-3.1-6.9c-1.8-2.5-3.9-4.3-6.5-5.7c-2.6-1.3-5.4-2-8.5-2c-7.1,0-12.6,2.9-16.4,8.8c-2.9,4.3-4.3,11.2-4.3,20.5
			c0,11.6,1.7,19.5,5.1,23.8c3.4,4.3,8.2,6.4,14.4,6.4c6,0,10.6-1.7,13.6-5.2C175.6-210.2,177.8-215.2,179.2-221.8L179.2-221.8z
			 M289.3-196.3h-35.6l-5.1,17.2h-32.1l38.3-104.3h34.4l38.1,104.3h-32.9L289.3-196.3L289.3-196.3z M282.6-218.9l-11.1-37.5
			l-11.1,37.5H282.6z"/>
		<g>
			<path class="st4" d="M-178.3-146.7c0,0.1,0,0.2-0.1,0.3c-0.1,0.1-0.2,0.1-0.3,0.2c-0.2,0-0.4,0.1-0.6,0.1c-0.3,0-0.6,0-1,0
				c-0.4,0-0.7,0-1,0c-0.3,0-0.5-0.1-0.6-0.1c-0.2-0.1-0.3-0.1-0.3-0.2c-0.1-0.1-0.1-0.2-0.1-0.3v-18.9c0-0.1,0-0.2,0.1-0.3
				c0.1-0.1,0.2-0.1,0.3-0.2c0.2-0.1,0.4-0.1,0.6-0.1c0.3,0,0.6,0,1,0c0.4,0,0.7,0,1,0c0.3,0,0.5,0.1,0.6,0.1
				c0.2,0.1,0.3,0.1,0.3,0.2c0.1,0.1,0.1,0.2,0.1,0.3V-146.7L-178.3-146.7z M-157.4-147.6c0,0.2,0,0.4-0.1,0.6
				c-0.1,0.2-0.2,0.3-0.3,0.5c-0.1,0.1-0.3,0.2-0.5,0.3c-0.2,0.1-0.4,0.1-0.6,0.1h-1.7c-0.4,0-0.7,0-0.9-0.1
				c-0.3-0.1-0.5-0.2-0.7-0.4c-0.2-0.2-0.4-0.4-0.6-0.8c-0.2-0.3-0.4-0.7-0.7-1.3l-5-9.4c-0.3-0.6-0.6-1.2-0.9-1.8
				c-0.3-0.6-0.6-1.3-0.8-1.9h0c0,0.7,0.1,1.5,0.1,2.2c0,0.7,0,1.5,0,2.3v10.5c0,0.1,0,0.2-0.1,0.3c-0.1,0.1-0.2,0.1-0.3,0.2
				c-0.1,0.1-0.3,0.1-0.6,0.1c-0.2,0-0.5,0-0.9,0c-0.4,0-0.7,0-0.9,0c-0.2,0-0.4-0.1-0.6-0.1c-0.1-0.1-0.2-0.1-0.3-0.2
				c-0.1-0.1-0.1-0.2-0.1-0.3v-18c0-0.5,0.1-0.9,0.4-1.1c0.3-0.2,0.6-0.4,1-0.4h2.2c0.4,0,0.7,0,1,0.1c0.3,0.1,0.5,0.2,0.7,0.3
				c0.2,0.2,0.4,0.4,0.6,0.6c0.2,0.3,0.4,0.6,0.6,1l3.9,7.3c0.2,0.4,0.4,0.9,0.7,1.3c0.2,0.4,0.4,0.9,0.6,1.3
				c0.2,0.4,0.4,0.8,0.6,1.3c0.2,0.4,0.4,0.8,0.6,1.2h0c0-0.7-0.1-1.5-0.1-2.3c0-0.8,0-1.5,0-2.2v-9.4c0-0.1,0-0.2,0.1-0.3
				c0.1-0.1,0.2-0.2,0.3-0.2c0.1-0.1,0.3-0.1,0.6-0.1c0.2,0,0.5,0,0.9,0c0.4,0,0.7,0,0.9,0c0.2,0,0.4,0.1,0.5,0.1
				c0.1,0.1,0.2,0.1,0.3,0.2c0.1,0.1,0.1,0.2,0.1,0.3V-147.6L-157.4-147.6z M-139.7-164.5c0,0.3,0,0.6,0,0.8c0,0.2-0.1,0.4-0.1,0.5
				c-0.1,0.1-0.1,0.2-0.2,0.3c-0.1,0.1-0.2,0.1-0.3,0.1h-5v16.1c0,0.1,0,0.2-0.1,0.3c-0.1,0.1-0.2,0.1-0.3,0.2
				c-0.2,0-0.4,0.1-0.6,0.1c-0.3,0-0.6,0-1,0c-0.4,0-0.7,0-1,0c-0.3,0-0.5-0.1-0.6-0.1c-0.2-0.1-0.3-0.1-0.3-0.2
				c-0.1-0.1-0.1-0.2-0.1-0.3v-16.1h-5c-0.1,0-0.2,0-0.3-0.1c-0.1-0.1-0.1-0.2-0.2-0.3c0-0.1-0.1-0.3-0.1-0.5c0-0.2,0-0.5,0-0.8
				c0-0.3,0-0.6,0-0.8c0-0.2,0.1-0.4,0.1-0.5c0.1-0.1,0.1-0.2,0.2-0.3c0.1-0.1,0.2-0.1,0.3-0.1h14.1c0.1,0,0.2,0,0.3,0.1
				c0.1,0.1,0.1,0.1,0.2,0.3c0.1,0.1,0.1,0.3,0.1,0.5C-139.7-165.1-139.7-164.8-139.7-164.5L-139.7-164.5z M-125.5-147.8
				c0,0.3,0,0.5,0,0.8c0,0.2-0.1,0.4-0.1,0.5c-0.1,0.1-0.1,0.2-0.2,0.3c-0.1,0.1-0.2,0.1-0.3,0.1h-10c-0.3,0-0.6-0.1-0.9-0.3
				c-0.2-0.2-0.3-0.5-0.3-1v-17.5c0-0.5,0.1-0.8,0.3-1c0.2-0.2,0.5-0.3,0.9-0.3h10c0.1,0,0.2,0,0.2,0.1c0.1,0.1,0.1,0.1,0.2,0.3
				c0,0.1,0.1,0.3,0.1,0.5c0,0.2,0,0.5,0,0.8c0,0.3,0,0.5,0,0.7c0,0.2-0.1,0.4-0.1,0.5c-0.1,0.1-0.1,0.2-0.2,0.3
				c-0.1,0.1-0.2,0.1-0.2,0.1h-7.1v4.9h6c0.1,0,0.2,0,0.3,0.1c0.1,0.1,0.1,0.1,0.2,0.3c0.1,0.1,0.1,0.3,0.1,0.5c0,0.2,0,0.4,0,0.7
				c0,0.3,0,0.5,0,0.7c0,0.2-0.1,0.4-0.1,0.5c-0.1,0.1-0.1,0.2-0.2,0.3c-0.1,0.1-0.2,0.1-0.3,0.1h-6v5.6h7.2c0.1,0,0.2,0,0.3,0.1
				c0.1,0.1,0.1,0.1,0.2,0.3c0.1,0.1,0.1,0.3,0.1,0.5C-125.5-148.3-125.5-148.1-125.5-147.8L-125.5-147.8z M-106.3-163.1
				c0,0.3,0,0.6,0,0.8c0,0.2-0.1,0.4-0.1,0.5c0,0.1-0.1,0.2-0.2,0.3c-0.1,0.1-0.1,0.1-0.2,0.1c-0.1,0-0.4-0.1-0.7-0.3
				c-0.3-0.2-0.7-0.4-1.2-0.6c-0.5-0.2-1.1-0.4-1.8-0.6c-0.7-0.2-1.5-0.3-2.4-0.3c-1,0-1.8,0.2-2.6,0.5c-0.8,0.3-1.5,0.8-2,1.4
				c-0.6,0.6-1,1.4-1.3,2.2c-0.3,0.9-0.4,1.8-0.4,2.9c0,1.1,0.2,2.2,0.5,3c0.3,0.9,0.7,1.6,1.3,2.2c0.5,0.6,1.2,1,2,1.3
				c0.8,0.3,1.6,0.5,2.5,0.5c0.5,0,0.9-0.1,1.3-0.2c0.4-0.1,0.9-0.3,1.2-0.5v-4.7h-3.8c-0.2,0-0.3-0.1-0.4-0.3
				c-0.1-0.2-0.2-0.6-0.2-1.2c0-0.3,0-0.5,0-0.7c0-0.2,0.1-0.4,0.1-0.5c0.1-0.1,0.1-0.2,0.2-0.3c0.1-0.1,0.2-0.1,0.2-0.1h6.8
				c0.2,0,0.3,0,0.4,0.1c0.1,0.1,0.2,0.1,0.3,0.3c0.1,0.1,0.2,0.2,0.2,0.4c0.1,0.2,0.1,0.3,0.1,0.6v8c0,0.3-0.1,0.6-0.2,0.8
				c-0.1,0.2-0.3,0.4-0.7,0.5c-0.3,0.1-0.7,0.3-1.2,0.4c-0.5,0.1-1,0.3-1.5,0.4c-0.5,0.1-1.1,0.2-1.6,0.2c-0.5,0.1-1.1,0.1-1.6,0.1
				c-1.6,0-3-0.2-4.3-0.7c-1.3-0.5-2.3-1.1-3.2-2c-0.9-0.9-1.5-1.9-2-3.2c-0.5-1.3-0.7-2.7-0.7-4.3c0-1.6,0.2-3.1,0.7-4.4
				c0.5-1.3,1.2-2.4,2.1-3.3c0.9-0.9,2-1.6,3.3-2.1c1.3-0.5,2.7-0.7,4.3-0.7c0.9,0,1.7,0.1,2.4,0.2c0.7,0.1,1.3,0.3,1.9,0.4
				c0.5,0.2,1,0.4,1.3,0.5c0.4,0.2,0.6,0.4,0.7,0.5c0.1,0.1,0.2,0.3,0.3,0.6C-106.3-164-106.3-163.6-106.3-163.1L-106.3-163.1z
				 M-87.3-146.7c0,0.1,0,0.2-0.1,0.3c0,0.1-0.1,0.1-0.3,0.2c-0.2,0-0.4,0.1-0.7,0.1c-0.3,0-0.7,0-1.2,0c-0.4,0-0.8,0-1,0
				c-0.3,0-0.5-0.1-0.6-0.1c-0.1-0.1-0.3-0.1-0.3-0.2c-0.1-0.1-0.1-0.2-0.2-0.3l-1.8-4.5c-0.2-0.5-0.4-1-0.6-1.4
				c-0.2-0.4-0.4-0.7-0.7-1c-0.3-0.3-0.5-0.5-0.9-0.6c-0.3-0.1-0.7-0.2-1.1-0.2h-1.3v7.7c0,0.1,0,0.2-0.1,0.3
				c-0.1,0.1-0.2,0.2-0.3,0.2c-0.2,0-0.4,0.1-0.6,0.1c-0.3,0-0.6,0-1,0c-0.4,0-0.7,0-1,0c-0.3,0-0.5-0.1-0.6-0.1
				c-0.2-0.1-0.3-0.1-0.3-0.2c-0.1-0.1-0.1-0.2-0.1-0.3v-18.2c0-0.5,0.1-0.8,0.3-1c0.2-0.2,0.5-0.3,0.9-0.3h5.2c0.5,0,1,0,1.3,0
				c0.3,0,0.6,0,0.9,0.1c0.8,0.1,1.5,0.3,2.2,0.6c0.6,0.3,1.2,0.6,1.6,1.1c0.4,0.5,0.8,1,1,1.6c0.2,0.6,0.4,1.3,0.4,2.1
				c0,0.7-0.1,1.3-0.3,1.8c-0.2,0.6-0.4,1-0.8,1.5c-0.3,0.4-0.7,0.8-1.2,1.1c-0.5,0.3-1,0.6-1.7,0.8c0.3,0.1,0.6,0.3,0.8,0.5
				c0.3,0.2,0.5,0.5,0.7,0.8c0.2,0.3,0.5,0.6,0.7,1c0.2,0.4,0.4,0.8,0.6,1.3l1.7,4c0.2,0.4,0.3,0.7,0.3,0.9
				C-87.3-146.9-87.3-146.8-87.3-146.7L-87.3-146.7z M-92.5-160.3c0-0.7-0.1-1.2-0.4-1.7c-0.3-0.5-0.8-0.8-1.5-1
				c-0.2-0.1-0.4-0.1-0.7-0.1c-0.3,0-0.6,0-1.1,0h-1.8v5.7h2.1c0.6,0,1.1-0.1,1.5-0.2c0.4-0.1,0.8-0.3,1.1-0.6
				c0.3-0.2,0.5-0.6,0.6-0.9C-92.6-159.5-92.5-159.8-92.5-160.3L-92.5-160.3z M-80.2-146.7c0,0.1,0,0.2-0.1,0.3
				c-0.1,0.1-0.2,0.1-0.3,0.2c-0.2,0-0.4,0.1-0.6,0.1c-0.3,0-0.6,0-1,0c-0.4,0-0.7,0-1,0c-0.3,0-0.5-0.1-0.6-0.1
				c-0.2-0.1-0.3-0.1-0.3-0.2c-0.1-0.1-0.1-0.2-0.1-0.3v-18.9c0-0.1,0-0.2,0.1-0.3c0.1-0.1,0.2-0.1,0.3-0.2c0.2-0.1,0.4-0.1,0.6-0.1
				c0.3,0,0.6,0,1,0c0.4,0,0.7,0,1,0c0.3,0,0.5,0.1,0.6,0.1c0.2,0.1,0.3,0.1,0.3,0.2c0.1,0.1,0.1,0.2,0.1,0.3V-146.7L-80.2-146.7z
				 M-62.5-164.5c0,0.3,0,0.6,0,0.8c0,0.2-0.1,0.4-0.1,0.5c-0.1,0.1-0.1,0.2-0.2,0.3c-0.1,0.1-0.2,0.1-0.3,0.1h-5v16.1
				c0,0.1,0,0.2-0.1,0.3c-0.1,0.1-0.2,0.1-0.3,0.2c-0.2,0-0.4,0.1-0.6,0.1c-0.3,0-0.6,0-1,0c-0.4,0-0.7,0-1,0
				c-0.3,0-0.5-0.1-0.6-0.1c-0.2-0.1-0.3-0.1-0.3-0.2c-0.1-0.1-0.1-0.2-0.1-0.3v-16.1h-5c-0.1,0-0.2,0-0.3-0.1
				c-0.1-0.1-0.1-0.2-0.2-0.3c0-0.1-0.1-0.3-0.1-0.5c0-0.2,0-0.5,0-0.8c0-0.3,0-0.6,0-0.8c0-0.2,0.1-0.4,0.1-0.5
				c0.1-0.1,0.1-0.2,0.2-0.3c0.1-0.1,0.2-0.1,0.3-0.1h14.1c0.1,0,0.2,0,0.3,0.1c0.1,0.1,0.1,0.1,0.2,0.3c0.1,0.1,0.1,0.3,0.1,0.5
				C-62.5-165.1-62.5-164.8-62.5-164.5L-62.5-164.5z M-52.1-153.8v7c0,0.1,0,0.2-0.1,0.3c-0.1,0.1-0.2,0.1-0.3,0.2
				c-0.2,0-0.4,0.1-0.6,0.1c-0.3,0-0.6,0-1,0c-0.4,0-0.7,0-1,0c-0.3,0-0.5-0.1-0.6-0.1c-0.2-0.1-0.3-0.1-0.3-0.2
				c-0.1-0.1-0.1-0.2-0.1-0.3v-7l-5.5-10.9c-0.2-0.4-0.3-0.7-0.4-0.9c-0.1-0.2,0-0.4,0.1-0.5c0.1-0.1,0.3-0.2,0.7-0.2
				c0.3,0,0.8,0,1.3,0c0.5,0,0.9,0,1.1,0c0.3,0,0.5,0.1,0.7,0.1c0.2,0.1,0.3,0.1,0.4,0.2c0.1,0.1,0.1,0.2,0.2,0.4l2.2,4.9
				c0.2,0.5,0.4,1,0.6,1.5c0.2,0.5,0.4,1.1,0.7,1.7h0c0.2-0.6,0.4-1.1,0.6-1.6c0.2-0.5,0.4-1,0.6-1.5l2.2-4.9
				c0.1-0.2,0.1-0.3,0.2-0.4c0.1-0.1,0.2-0.2,0.3-0.2c0.2-0.1,0.4-0.1,0.6-0.1c0.3,0,0.6,0,1.1,0c0.6,0,1,0,1.4,0
				c0.3,0,0.5,0.1,0.7,0.2c0.1,0.1,0.1,0.3,0.1,0.5c-0.1,0.2-0.2,0.5-0.4,0.9L-52.1-153.8L-52.1-153.8z M-25.7-141.2
				c0,0.1,0,0.2-0.1,0.3c-0.1,0.1-0.2,0.1-0.3,0.2c-0.1,0.1-0.3,0.1-0.6,0.1c-0.2,0-0.5,0-0.9,0c-0.4,0-0.6,0-0.9,0
				c-0.2,0-0.4-0.1-0.6-0.1c-0.1-0.1-0.2-0.1-0.3-0.2c-0.1-0.1-0.1-0.2-0.1-0.3v-26.7c0-0.1,0-0.2,0.1-0.3c0.1-0.1,0.2-0.2,0.3-0.2
				c0.1-0.1,0.3-0.1,0.6-0.1c0.2,0,0.5,0,0.9,0c0.4,0,0.7,0,0.9,0c0.2,0,0.4,0.1,0.6,0.1c0.1,0.1,0.2,0.1,0.3,0.2
				c0.1,0.1,0.1,0.2,0.1,0.3V-141.2L-25.7-141.2z M6.7-149.2c0,0.3,0,0.5,0,0.7c0,0.2,0,0.3-0.1,0.5c0,0.1-0.1,0.2-0.1,0.3
				c-0.1,0.1-0.1,0.2-0.2,0.3c-0.1,0.1-0.3,0.3-0.7,0.5c-0.3,0.2-0.7,0.4-1.2,0.5c-0.5,0.2-1,0.3-1.6,0.4c-0.6,0.1-1.3,0.2-2,0.2
				c-1.4,0-2.6-0.2-3.7-0.6c-1.1-0.4-2-1.1-2.8-1.9c-0.8-0.8-1.4-1.9-1.8-3.1c-0.4-1.3-0.6-2.7-0.6-4.4c0-1.7,0.2-3.2,0.7-4.5
				c0.5-1.3,1.1-2.4,1.9-3.3c0.8-0.9,1.8-1.6,2.9-2c1.1-0.5,2.4-0.7,3.8-0.7c0.6,0,1.1,0,1.6,0.1c0.5,0.1,1,0.2,1.4,0.4
				c0.4,0.1,0.8,0.3,1.2,0.5c0.3,0.2,0.6,0.4,0.7,0.5c0.1,0.1,0.2,0.3,0.3,0.3c0.1,0.1,0.1,0.2,0.1,0.4c0,0.1,0.1,0.3,0.1,0.5
				c0,0.2,0,0.4,0,0.7c0,0.3,0,0.6,0,0.8c0,0.2-0.1,0.4-0.1,0.5c-0.1,0.1-0.1,0.2-0.2,0.3c-0.1,0.1-0.2,0.1-0.2,0.1
				c-0.2,0-0.3-0.1-0.6-0.3c-0.2-0.2-0.5-0.4-0.9-0.6c-0.4-0.2-0.8-0.4-1.3-0.6c-0.5-0.2-1.1-0.3-1.9-0.3c-0.8,0-1.5,0.2-2.1,0.5
				c-0.6,0.3-1.2,0.8-1.6,1.4c-0.4,0.6-0.8,1.3-1,2.2c-0.2,0.8-0.3,1.8-0.3,2.9c0,1.2,0.1,2.2,0.4,3.1c0.2,0.9,0.6,1.6,1,2.1
				c0.4,0.6,1,1,1.6,1.2c0.6,0.3,1.3,0.4,2.1,0.4c0.7,0,1.3-0.1,1.9-0.3c0.5-0.2,1-0.4,1.3-0.6c0.4-0.2,0.7-0.4,0.9-0.6
				c0.2-0.2,0.4-0.2,0.6-0.2c0.1,0,0.2,0,0.2,0.1c0.1,0,0.1,0.1,0.2,0.2c0,0.1,0.1,0.3,0.1,0.5C6.7-149.8,6.7-149.6,6.7-149.2
				L6.7-149.2z M27.4-156.4c0,1.7-0.2,3.1-0.6,4.5c-0.4,1.3-1,2.4-1.8,3.3c-0.8,0.9-1.8,1.6-3,2.1c-1.2,0.5-2.6,0.7-4.2,0.7
				c-1.6,0-2.9-0.2-4.1-0.6c-1.2-0.4-2.1-1-2.9-1.9c-0.8-0.8-1.4-1.9-1.7-3.2c-0.4-1.3-0.6-2.8-0.6-4.6c0-1.6,0.2-3.1,0.6-4.4
				c0.4-1.3,1-2.4,1.8-3.3c0.8-0.9,1.8-1.6,3-2.1c1.2-0.5,2.6-0.7,4.2-0.7c1.5,0,2.9,0.2,4,0.6c1.2,0.4,2.1,1,2.9,1.9
				c0.8,0.8,1.4,1.9,1.8,3.2C27.2-159.6,27.4-158.1,27.4-156.4L27.4-156.4z M23.1-156.2c0-1.1-0.1-2-0.2-2.9
				c-0.2-0.9-0.4-1.6-0.8-2.2c-0.4-0.6-0.9-1.1-1.6-1.4c-0.7-0.3-1.5-0.5-2.5-0.5c-1,0-1.8,0.2-2.5,0.6c-0.7,0.4-1.2,0.9-1.6,1.5
				c-0.4,0.6-0.7,1.4-0.9,2.2c-0.2,0.8-0.3,1.7-0.3,2.7c0,1.1,0.1,2.1,0.2,2.9c0.2,0.9,0.4,1.6,0.8,2.2c0.4,0.6,0.9,1.1,1.6,1.4
				c0.7,0.3,1.5,0.5,2.5,0.5c1,0,1.8-0.2,2.5-0.6c0.7-0.4,1.2-0.9,1.6-1.5c0.4-0.6,0.7-1.4,0.9-2.2
				C23.1-154.3,23.1-155.2,23.1-156.2L23.1-156.2z M47.4-147.6c0,0.2,0,0.4-0.1,0.6c-0.1,0.2-0.2,0.3-0.3,0.5
				c-0.1,0.1-0.3,0.2-0.5,0.3c-0.2,0.1-0.4,0.1-0.6,0.1h-1.7c-0.4,0-0.7,0-0.9-0.1c-0.3-0.1-0.5-0.2-0.7-0.4
				c-0.2-0.2-0.4-0.4-0.6-0.8c-0.2-0.3-0.4-0.7-0.7-1.3l-5-9.4c-0.3-0.6-0.6-1.2-0.9-1.8c-0.3-0.6-0.6-1.3-0.8-1.9h0
				c0,0.7,0.1,1.5,0.1,2.2c0,0.7,0,1.5,0,2.3v10.5c0,0.1,0,0.2-0.1,0.3c-0.1,0.1-0.2,0.1-0.3,0.2c-0.1,0.1-0.3,0.1-0.6,0.1
				c-0.2,0-0.5,0-0.9,0c-0.4,0-0.7,0-0.9,0c-0.2,0-0.4-0.1-0.6-0.1c-0.1-0.1-0.2-0.1-0.3-0.2c-0.1-0.1-0.1-0.2-0.1-0.3v-18
				c0-0.5,0.1-0.9,0.4-1.1c0.3-0.2,0.6-0.4,1-0.4h2.2c0.4,0,0.7,0,1,0.1c0.3,0.1,0.5,0.2,0.7,0.3c0.2,0.2,0.4,0.4,0.6,0.6
				c0.2,0.3,0.4,0.6,0.6,1l3.9,7.3c0.2,0.4,0.4,0.9,0.7,1.3c0.2,0.4,0.4,0.9,0.6,1.3c0.2,0.4,0.4,0.8,0.6,1.3
				c0.2,0.4,0.4,0.8,0.6,1.2h0c0-0.7-0.1-1.5-0.1-2.3c0-0.8,0-1.5,0-2.2v-9.4c0-0.1,0-0.2,0.1-0.3c0.1-0.1,0.2-0.2,0.3-0.2
				c0.1-0.1,0.3-0.1,0.6-0.1c0.2,0,0.5,0,0.9,0c0.4,0,0.7,0,0.9,0c0.2,0,0.4,0.1,0.5,0.1c0.1,0.1,0.2,0.1,0.3,0.2
				c0.1,0.1,0.1,0.2,0.1,0.3V-147.6L47.4-147.6z M63-164.5c0,0.3,0,0.6,0,0.8c0,0.2-0.1,0.4-0.1,0.5c-0.1,0.1-0.1,0.2-0.2,0.3
				c-0.1,0.1-0.2,0.1-0.2,0.1h-6.6v5.4H62c0.1,0,0.2,0,0.2,0.1c0.1,0,0.1,0.1,0.2,0.3c0.1,0.1,0.1,0.3,0.1,0.5c0,0.2,0,0.5,0,0.8
				c0,0.3,0,0.6,0,0.8c0,0.2-0.1,0.4-0.1,0.5c-0.1,0.1-0.1,0.2-0.2,0.3c-0.1,0.1-0.2,0.1-0.2,0.1h-6.2v7.5c0,0.1,0,0.2-0.1,0.3
				c-0.1,0.1-0.2,0.1-0.3,0.2c-0.2,0.1-0.4,0.1-0.6,0.1c-0.3,0-0.6,0-1,0c-0.4,0-0.7,0-1,0c-0.3,0-0.5-0.1-0.6-0.1
				c-0.2-0.1-0.3-0.1-0.3-0.2c-0.1-0.1-0.1-0.2-0.1-0.3v-18.2c0-0.5,0.1-0.8,0.3-1c0.2-0.2,0.5-0.3,0.9-0.3h9.4c0.1,0,0.2,0,0.2,0.1
				c0.1,0.1,0.1,0.1,0.2,0.3c0.1,0.1,0.1,0.3,0.1,0.5C63-165.1,63-164.8,63-164.5L63-164.5z M70.4-146.7c0,0.1,0,0.2-0.1,0.3
				c-0.1,0.1-0.2,0.1-0.3,0.2c-0.2,0-0.4,0.1-0.6,0.1c-0.3,0-0.6,0-1,0c-0.4,0-0.7,0-1,0c-0.3,0-0.5-0.1-0.6-0.1
				c-0.2-0.1-0.3-0.1-0.3-0.2c-0.1-0.1-0.1-0.2-0.1-0.3v-18.9c0-0.1,0-0.2,0.1-0.3c0.1-0.1,0.2-0.1,0.3-0.2c0.2-0.1,0.4-0.1,0.6-0.1
				c0.3,0,0.6,0,1,0c0.4,0,0.7,0,1,0c0.3,0,0.5,0.1,0.6,0.1c0.2,0.1,0.3,0.1,0.3,0.2c0.1,0.1,0.1,0.2,0.1,0.3V-146.7L70.4-146.7z
				 M91.4-156.5c0,1.8-0.2,3.4-0.7,4.7c-0.5,1.3-1.2,2.4-2.1,3.2c-0.9,0.8-2,1.4-3.3,1.8c-1.3,0.4-2.8,0.6-4.6,0.6h-4.8
				c-0.3,0-0.6-0.1-0.9-0.3c-0.2-0.2-0.3-0.5-0.3-1v-17.5c0-0.5,0.1-0.8,0.3-1c0.2-0.2,0.5-0.3,0.9-0.3h5.1c1.8,0,3.3,0.2,4.5,0.6
				c1.2,0.4,2.3,1,3.1,1.9c0.9,0.8,1.5,1.8,1.9,3C91.1-159.4,91.4-158.1,91.4-156.5L91.4-156.5z M87.2-156.3c0-1-0.1-1.8-0.3-2.6
				c-0.2-0.8-0.6-1.5-1.1-2.1c-0.5-0.6-1.1-1.1-1.9-1.4c-0.8-0.3-1.8-0.5-3-0.5h-2.1v13.6h2.1c1.1,0,2.1-0.1,2.8-0.4
				c0.8-0.3,1.4-0.7,1.9-1.3c0.5-0.6,0.9-1.3,1.1-2.2C87-154.2,87.2-155.2,87.2-156.3L87.2-156.3z M106.6-147.8c0,0.3,0,0.5,0,0.8
				c0,0.2-0.1,0.4-0.1,0.5c-0.1,0.1-0.1,0.2-0.2,0.3c-0.1,0.1-0.2,0.1-0.3,0.1h-10c-0.3,0-0.6-0.1-0.9-0.3c-0.2-0.2-0.3-0.5-0.3-1
				v-17.5c0-0.5,0.1-0.8,0.3-1c0.2-0.2,0.5-0.3,0.9-0.3h10c0.1,0,0.2,0,0.2,0.1c0.1,0.1,0.1,0.1,0.2,0.3c0,0.1,0.1,0.3,0.1,0.5
				c0,0.2,0,0.5,0,0.8c0,0.3,0,0.5,0,0.7c0,0.2-0.1,0.4-0.1,0.5c-0.1,0.1-0.1,0.2-0.2,0.3c-0.1,0.1-0.2,0.1-0.2,0.1h-7.1v4.9h6
				c0.1,0,0.2,0,0.3,0.1c0.1,0.1,0.1,0.1,0.2,0.3c0.1,0.1,0.1,0.3,0.1,0.5c0,0.2,0,0.4,0,0.7c0,0.3,0,0.5,0,0.7
				c0,0.2-0.1,0.4-0.1,0.5c-0.1,0.1-0.1,0.2-0.2,0.3c-0.1,0.1-0.2,0.1-0.3,0.1h-6v5.6h7.2c0.1,0,0.2,0,0.3,0.1
				c0.1,0.1,0.1,0.1,0.2,0.3c0.1,0.1,0.1,0.3,0.1,0.5C106.6-148.3,106.6-148.1,106.6-147.8z"/>
			<path class="st4" d="M126.7-147.6c0,0.2,0,0.4-0.1,0.6c-0.1,0.2-0.2,0.3-0.3,0.5c-0.1,0.1-0.3,0.2-0.5,0.3
				c-0.2,0.1-0.4,0.1-0.6,0.1h-1.7c-0.4,0-0.7,0-0.9-0.1c-0.3-0.1-0.5-0.2-0.7-0.4c-0.2-0.2-0.4-0.4-0.6-0.8
				c-0.2-0.3-0.4-0.7-0.7-1.3l-5-9.4c-0.3-0.6-0.6-1.2-0.9-1.8c-0.3-0.6-0.6-1.3-0.8-1.9h0c0,0.7,0.1,1.5,0.1,2.2c0,0.7,0,1.5,0,2.3
				v10.5c0,0.1,0,0.2-0.1,0.3c-0.1,0.1-0.2,0.1-0.3,0.2c-0.1,0.1-0.3,0.1-0.6,0.1c-0.2,0-0.5,0-0.9,0c-0.4,0-0.7,0-0.9,0
				c-0.2,0-0.4-0.1-0.6-0.1c-0.1-0.1-0.2-0.1-0.3-0.2c-0.1-0.1-0.1-0.2-0.1-0.3v-18c0-0.5,0.1-0.9,0.4-1.1c0.3-0.2,0.6-0.4,1-0.4
				h2.2c0.4,0,0.7,0,1,0.1c0.3,0.1,0.5,0.2,0.7,0.3c0.2,0.2,0.4,0.4,0.6,0.6c0.2,0.3,0.4,0.6,0.6,1l3.9,7.3c0.2,0.4,0.4,0.9,0.7,1.3
				c0.2,0.4,0.4,0.9,0.6,1.3c0.2,0.4,0.4,0.8,0.6,1.3c0.2,0.4,0.4,0.8,0.6,1.2h0c0-0.7-0.1-1.5-0.1-2.3c0-0.8,0-1.5,0-2.2v-9.4
				c0-0.1,0-0.2,0.1-0.3c0.1-0.1,0.2-0.2,0.3-0.2c0.1-0.1,0.3-0.1,0.6-0.1s0.5,0,0.9,0c0.4,0,0.6,0,0.9,0c0.2,0,0.4,0.1,0.5,0.1
				c0.1,0.1,0.2,0.1,0.3,0.2c0.1,0.1,0.1,0.2,0.1,0.3V-147.6L126.7-147.6z M144.4-164.5c0,0.3,0,0.6,0,0.8c0,0.2-0.1,0.4-0.1,0.5
				c-0.1,0.1-0.1,0.2-0.2,0.3c-0.1,0.1-0.2,0.1-0.3,0.1h-5v16.1c0,0.1,0,0.2-0.1,0.3c-0.1,0.1-0.2,0.1-0.3,0.2
				c-0.2,0-0.4,0.1-0.6,0.1c-0.3,0-0.6,0-1,0c-0.4,0-0.7,0-1,0c-0.3,0-0.5-0.1-0.6-0.1c-0.2-0.1-0.3-0.1-0.3-0.2
				c-0.1-0.1-0.1-0.2-0.1-0.3v-16.1h-5c-0.1,0-0.2,0-0.3-0.1c-0.1-0.1-0.1-0.2-0.2-0.3c0-0.1-0.1-0.3-0.1-0.5c0-0.2,0-0.5,0-0.8
				c0-0.3,0-0.6,0-0.8c0-0.2,0.1-0.4,0.1-0.5c0.1-0.1,0.1-0.2,0.2-0.3c0.1-0.1,0.2-0.1,0.3-0.1h14.1c0.1,0,0.2,0,0.3,0.1
				c0.1,0.1,0.1,0.1,0.2,0.3c0.1,0.1,0.1,0.3,0.1,0.5C144.3-165.1,144.4-164.8,144.4-164.5L144.4-164.5z M150.8-146.7
				c0,0.1,0,0.2-0.1,0.3c-0.1,0.1-0.2,0.1-0.3,0.2c-0.2,0-0.4,0.1-0.6,0.1c-0.3,0-0.6,0-1,0c-0.4,0-0.7,0-1,0
				c-0.3,0-0.5-0.1-0.6-0.1c-0.2-0.1-0.3-0.1-0.3-0.2c-0.1-0.1-0.1-0.2-0.1-0.3v-18.9c0-0.1,0-0.2,0.1-0.3c0.1-0.1,0.2-0.1,0.3-0.2
				c0.2-0.1,0.4-0.1,0.6-0.1c0.3,0,0.6,0,1,0c0.4,0,0.7,0,1,0c0.3,0,0.5,0.1,0.6,0.1c0.2,0.1,0.3,0.1,0.3,0.2
				c0.1,0.1,0.1,0.2,0.1,0.3V-146.7L150.8-146.7z M171.6-147.7c0.1,0.4,0.2,0.7,0.2,0.9c0,0.2,0,0.4-0.1,0.5
				c-0.1,0.1-0.3,0.2-0.6,0.2c-0.3,0-0.7,0-1.2,0c-0.5,0-0.9,0-1.2,0c-0.3,0-0.5,0-0.7-0.1c-0.2,0-0.3-0.1-0.3-0.2
				c-0.1-0.1-0.1-0.2-0.2-0.3l-1.3-4h-7.6l-1.3,3.9c0,0.1-0.1,0.3-0.2,0.4c-0.1,0.1-0.2,0.2-0.3,0.2c-0.1,0.1-0.4,0.1-0.6,0.1
				c-0.3,0-0.6,0-1.1,0c-0.5,0-0.8,0-1.1,0c-0.3,0-0.5-0.1-0.6-0.2c-0.1-0.1-0.1-0.3-0.1-0.5c0-0.2,0.1-0.5,0.2-0.9l6.2-17.8
				c0.1-0.2,0.1-0.3,0.2-0.4c0.1-0.1,0.2-0.2,0.4-0.2c0.2-0.1,0.4-0.1,0.8-0.1c0.3,0,0.7,0,1.3,0c0.6,0,1.1,0,1.5,0
				c0.4,0,0.6,0.1,0.8,0.1c0.2,0.1,0.3,0.1,0.4,0.3c0.1,0.1,0.2,0.3,0.2,0.5L171.6-147.7L171.6-147.7z M162.4-162.4L162.4-162.4
				l-2.8,8.5h5.6L162.4-162.4L162.4-162.4z M185.4-147.9c0,0.3,0,0.6,0,0.8c0,0.2-0.1,0.4-0.1,0.5c-0.1,0.1-0.1,0.2-0.2,0.3
				c-0.1,0.1-0.2,0.1-0.3,0.1h-9.2c-0.3,0-0.6-0.1-0.9-0.3c-0.2-0.2-0.3-0.5-0.3-1v-18.2c0-0.1,0-0.2,0.1-0.3
				c0.1-0.1,0.2-0.1,0.3-0.2c0.2-0.1,0.4-0.1,0.6-0.1c0.3,0,0.6,0,1,0c0.4,0,0.7,0,1,0c0.3,0,0.5,0.1,0.6,0.1
				c0.2,0.1,0.3,0.1,0.3,0.2c0.1,0.1,0.1,0.2,0.1,0.3v16.1h6.3c0.1,0,0.2,0,0.3,0.1c0.1,0.1,0.1,0.1,0.2,0.3
				c0.1,0.1,0.1,0.3,0.1,0.5C185.4-148.4,185.4-148.2,185.4-147.9L185.4-147.9z M191.9-146.7c0,0.1,0,0.2-0.1,0.3
				c-0.1,0.1-0.2,0.1-0.3,0.2c-0.2,0-0.4,0.1-0.6,0.1c-0.3,0-0.6,0-1,0c-0.4,0-0.7,0-1,0c-0.3,0-0.5-0.1-0.6-0.1
				c-0.2-0.1-0.3-0.1-0.3-0.2c-0.1-0.1-0.1-0.2-0.1-0.3v-18.9c0-0.1,0-0.2,0.1-0.3c0.1-0.1,0.2-0.1,0.3-0.2c0.2-0.1,0.4-0.1,0.6-0.1
				c0.3,0,0.6,0,1,0c0.4,0,0.7,0,1,0c0.3,0,0.5,0.1,0.6,0.1c0.2,0.1,0.3,0.1,0.3,0.2c0.1,0.1,0.1,0.2,0.1,0.3V-146.7L191.9-146.7z
				 M209.6-164.5c0,0.3,0,0.6,0,0.8c0,0.2-0.1,0.4-0.1,0.5c-0.1,0.1-0.1,0.2-0.2,0.3c-0.1,0.1-0.2,0.1-0.3,0.1h-5v16.1
				c0,0.1,0,0.2-0.1,0.3c-0.1,0.1-0.2,0.1-0.3,0.2c-0.2,0-0.4,0.1-0.6,0.1c-0.3,0-0.6,0-1,0c-0.4,0-0.7,0-1,0
				c-0.3,0-0.5-0.1-0.6-0.1c-0.2-0.1-0.3-0.1-0.3-0.2c-0.1-0.1-0.1-0.2-0.1-0.3v-16.1h-5c-0.1,0-0.2,0-0.3-0.1
				c-0.1-0.1-0.1-0.2-0.2-0.3c0-0.1-0.1-0.3-0.1-0.5c0-0.2,0-0.5,0-0.8c0-0.3,0-0.6,0-0.8c0-0.2,0.1-0.4,0.1-0.5
				c0.1-0.1,0.1-0.2,0.2-0.3c0.1-0.1,0.2-0.1,0.3-0.1H209c0.1,0,0.2,0,0.3,0.1c0.1,0.1,0.1,0.1,0.2,0.3c0.1,0.1,0.1,0.3,0.1,0.5
				C209.6-165.1,209.6-164.8,209.6-164.5L209.6-164.5z M220-153.8v7c0,0.1,0,0.2-0.1,0.3c-0.1,0.1-0.2,0.1-0.3,0.2
				c-0.2,0-0.4,0.1-0.6,0.1c-0.3,0-0.6,0-1,0c-0.4,0-0.7,0-1,0c-0.3,0-0.5-0.1-0.6-0.1c-0.2-0.1-0.3-0.1-0.3-0.2
				c-0.1-0.1-0.1-0.2-0.1-0.3v-7l-5.5-10.9c-0.2-0.4-0.3-0.7-0.4-0.9c-0.1-0.2,0-0.4,0.1-0.5c0.1-0.1,0.3-0.2,0.7-0.2
				c0.3,0,0.8,0,1.3,0c0.5,0,0.8,0,1.1,0c0.3,0,0.5,0.1,0.7,0.1c0.2,0.1,0.3,0.1,0.4,0.2c0.1,0.1,0.1,0.2,0.2,0.4l2.2,4.9
				c0.2,0.5,0.4,1,0.6,1.5c0.2,0.5,0.4,1.1,0.6,1.7h0c0.2-0.6,0.4-1.1,0.6-1.6c0.2-0.5,0.4-1,0.6-1.5l2.2-4.9
				c0.1-0.2,0.1-0.3,0.2-0.4c0.1-0.1,0.2-0.2,0.3-0.2c0.2-0.1,0.4-0.1,0.6-0.1c0.3,0,0.6,0,1.1,0c0.6,0,1,0,1.4,0
				c0.3,0,0.5,0.1,0.7,0.2c0.1,0.1,0.1,0.3,0.1,0.5c-0.1,0.2-0.2,0.5-0.4,0.9L220-153.8L220-153.8z M246.4-141.2
				c0,0.1,0,0.2-0.1,0.3c-0.1,0.1-0.2,0.1-0.3,0.2c-0.1,0.1-0.3,0.1-0.6,0.1c-0.2,0-0.5,0-0.9,0c-0.4,0-0.6,0-0.9,0
				c-0.2,0-0.4-0.1-0.6-0.1c-0.1-0.1-0.2-0.1-0.3-0.2c-0.1-0.1-0.1-0.2-0.1-0.3v-26.7c0-0.1,0-0.2,0.1-0.3c0.1-0.1,0.2-0.2,0.3-0.2
				c0.1-0.1,0.3-0.1,0.6-0.1c0.2,0,0.5,0,0.9,0c0.4,0,0.7,0,0.9,0c0.2,0,0.4,0.1,0.6,0.1c0.1,0.1,0.2,0.1,0.3,0.2
				c0.1,0.1,0.1,0.2,0.1,0.3V-141.2L246.4-141.2z M278.3-164.5c0,0.3,0,0.6,0,0.8c0,0.2-0.1,0.4-0.1,0.5c-0.1,0.1-0.1,0.2-0.2,0.3
				c-0.1,0.1-0.2,0.1-0.3,0.1h-5v16.1c0,0.1,0,0.2-0.1,0.3c-0.1,0.1-0.2,0.1-0.3,0.2c-0.2,0-0.4,0.1-0.6,0.1c-0.3,0-0.6,0-1,0
				c-0.4,0-0.7,0-1,0c-0.3,0-0.5-0.1-0.6-0.1c-0.2-0.1-0.3-0.1-0.3-0.2c-0.1-0.1-0.1-0.2-0.1-0.3v-16.1h-5c-0.1,0-0.2,0-0.3-0.1
				c-0.1-0.1-0.1-0.2-0.2-0.3c0-0.1-0.1-0.3-0.1-0.5c0-0.2,0-0.5,0-0.8c0-0.3,0-0.6,0-0.8c0-0.2,0.1-0.4,0.1-0.5
				c0.1-0.1,0.1-0.2,0.2-0.3c0.1-0.1,0.2-0.1,0.3-0.1h14.1c0.1,0,0.2,0,0.3,0.1c0.1,0.1,0.1,0.1,0.2,0.3c0.1,0.1,0.1,0.3,0.1,0.5
				C278.3-165.1,278.3-164.8,278.3-164.5L278.3-164.5z M284.7-146.7c0,0.1,0,0.2-0.1,0.3c-0.1,0.1-0.2,0.1-0.3,0.2
				c-0.2,0-0.4,0.1-0.6,0.1c-0.3,0-0.6,0-1,0c-0.4,0-0.7,0-1,0c-0.3,0-0.5-0.1-0.6-0.1c-0.2-0.1-0.3-0.1-0.3-0.2
				c-0.1-0.1-0.1-0.2-0.1-0.3v-18.9c0-0.1,0-0.2,0.1-0.3c0.1-0.1,0.2-0.1,0.3-0.2c0.2-0.1,0.4-0.1,0.6-0.1c0.3,0,0.6,0,1,0
				c0.4,0,0.7,0,1,0c0.3,0,0.5,0.1,0.6,0.1c0.2,0.1,0.3,0.1,0.3,0.2c0.1,0.1,0.1,0.2,0.1,0.3V-146.7L284.7-146.7z M312.4-146.7
				c0,0.1,0,0.2-0.1,0.3c-0.1,0.1-0.2,0.1-0.3,0.2c-0.1,0-0.3,0.1-0.6,0.1c-0.2,0-0.6,0-0.9,0c-0.4,0-0.7,0-0.9,0
				c-0.2,0-0.4-0.1-0.6-0.1c-0.1-0.1-0.2-0.1-0.3-0.2c-0.1-0.1-0.1-0.2-0.1-0.3V-163h0l-5.8,16.3c0,0.1-0.1,0.2-0.2,0.3
				c-0.1,0.1-0.2,0.2-0.4,0.2c-0.2,0-0.4,0.1-0.6,0.1c-0.2,0-0.5,0-0.9,0c-0.4,0-0.6,0-0.9,0c-0.2,0-0.5-0.1-0.6-0.1
				c-0.2-0.1-0.3-0.1-0.4-0.2c-0.1-0.1-0.2-0.2-0.2-0.3L293-163h0v16.3c0,0.1,0,0.2-0.1,0.3c-0.1,0.1-0.2,0.1-0.3,0.2
				c-0.2,0-0.4,0.1-0.6,0.1c-0.2,0-0.6,0-0.9,0c-0.4,0-0.7,0-0.9,0c-0.2,0-0.4-0.1-0.6-0.1c-0.1-0.1-0.3-0.1-0.3-0.2
				c-0.1-0.1-0.1-0.2-0.1-0.3v-17.9c0-0.5,0.1-0.9,0.4-1.2c0.3-0.3,0.7-0.4,1.1-0.4h2.7c0.5,0,0.9,0,1.2,0.1
				c0.3,0.1,0.6,0.2,0.9,0.4c0.2,0.2,0.5,0.4,0.6,0.7c0.2,0.3,0.3,0.7,0.4,1.1l4.3,11.9h0.1l4.5-11.9c0.1-0.4,0.3-0.8,0.4-1.1
				c0.2-0.3,0.3-0.5,0.6-0.7c0.2-0.2,0.5-0.3,0.8-0.4c0.3-0.1,0.6-0.1,1-0.1h2.7c0.3,0,0.5,0,0.7,0.1c0.2,0.1,0.4,0.2,0.5,0.3
				c0.1,0.1,0.2,0.3,0.3,0.5c0.1,0.2,0.1,0.4,0.1,0.7V-146.7L312.4-146.7z M328.7-147.8c0,0.3,0,0.5,0,0.8c0,0.2-0.1,0.4-0.1,0.5
				c-0.1,0.1-0.1,0.2-0.2,0.3c-0.1,0.1-0.2,0.1-0.3,0.1h-10c-0.3,0-0.6-0.1-0.9-0.3c-0.2-0.2-0.3-0.5-0.3-1v-17.5
				c0-0.5,0.1-0.8,0.3-1c0.2-0.2,0.5-0.3,0.9-0.3h10c0.1,0,0.2,0,0.2,0.1c0.1,0.1,0.1,0.1,0.2,0.3c0,0.1,0.1,0.3,0.1,0.5
				c0,0.2,0,0.5,0,0.8c0,0.3,0,0.5,0,0.7c0,0.2-0.1,0.4-0.1,0.5c-0.1,0.1-0.1,0.2-0.2,0.3c-0.1,0.1-0.2,0.1-0.2,0.1h-7.1v4.9h6
				c0.1,0,0.2,0,0.3,0.1c0.1,0.1,0.1,0.1,0.2,0.3c0.1,0.1,0.1,0.3,0.1,0.5c0,0.2,0,0.4,0,0.7c0,0.3,0,0.5,0,0.7
				c0,0.2-0.1,0.4-0.1,0.5c-0.1,0.1-0.1,0.2-0.2,0.3c-0.1,0.1-0.2,0.1-0.3,0.1h-6v5.6h7.2c0.1,0,0.2,0,0.3,0.1
				c0.1,0.1,0.1,0.1,0.2,0.3c0.1,0.1,0.1,0.3,0.1,0.5C328.7-148.3,328.7-148.1,328.7-147.8L328.7-147.8z M343.3-147.9
				c0,0.3,0,0.6,0,0.8c0,0.2-0.1,0.4-0.1,0.5c-0.1,0.1-0.1,0.2-0.2,0.3c-0.1,0.1-0.2,0.1-0.3,0.1h-9.2c-0.3,0-0.6-0.1-0.9-0.3
				c-0.2-0.2-0.3-0.5-0.3-1v-18.2c0-0.1,0-0.2,0.1-0.3c0.1-0.1,0.2-0.1,0.3-0.2c0.2-0.1,0.4-0.1,0.6-0.1c0.3,0,0.6,0,1,0
				c0.4,0,0.7,0,1,0c0.3,0,0.5,0.1,0.6,0.1c0.2,0.1,0.3,0.1,0.3,0.2c0.1,0.1,0.1,0.2,0.1,0.3v16.1h6.3c0.1,0,0.2,0,0.3,0.1
				c0.1,0.1,0.1,0.1,0.2,0.3c0.1,0.1,0.1,0.3,0.1,0.5C343.3-148.4,343.3-148.2,343.3-147.9L343.3-147.9z M351-153.8l5.5-10.9
				c0.2-0.4,0.3-0.7,0.4-0.9c0.1-0.2,0-0.4-0.1-0.5c-0.1-0.1-0.3-0.2-0.7-0.2c-0.3,0-0.8,0-1.4,0c-0.4,0-0.8,0-1.1,0
				c-0.3,0-0.5,0.1-0.6,0.1c-0.2,0.1-0.3,0.1-0.3,0.2c-0.1,0.1-0.1,0.2-0.2,0.4l-2.2,4.9c-0.2,0.5-0.4,1-0.6,1.5
				c-0.2,0.5-0.4,1.1-0.6,1.6h0c-0.2-0.6-0.4-1.1-0.7-1.7c-0.2-0.5-0.4-1-0.6-1.5l-2.2-4.9c-0.1-0.1-0.1-0.3-0.2-0.4
				c-0.1-0.1-0.2-0.2-0.4-0.2c-0.2-0.1-0.4-0.1-0.7-0.1c-0.3,0-0.7,0-1.1,0c-0.6,0-1,0-1.3,0c-0.3,0-0.5,0.1-0.7,0.2
				c-0.1,0.1-0.2,0.3-0.1,0.5c0.1,0.2,0.2,0.5,0.4,0.9l5.5,10.9v7c0,0.1,0,0.2,0.1,0.3c0.1,0.1,0.2,0.1,0.3,0.2
				c0.2,0,0.4,0.1,0.6,0.1c0.3,0,0.6,0,1,0c0.4,0,0.7,0,1,0c0.3,0,0.5-0.1,0.6-0.1c0.2-0.1,0.3-0.1,0.3-0.2c0.1-0.1,0.1-0.2,0.1-0.3
				V-153.8z"/>
		</g>
	</g>
</g>
<line class="st5" x1="764.4" y1="-73" x2="764.4" y2="926.7"/>
<path class="st6" d="M118.7,461.1L118.7,461.1L118.7,461.1z"/>
<rect x="0.6" y="0" class="st7" width="1279.4" height="673"/>
<g>
	<g class="st8">
		<ellipse class="st9" cx="643" cy="533.8" rx="481.2" ry="69.1"/>
	</g>
	<g>
		<polygon class="st10" points="920.3,493.7 926,495.6 925.6,379.2 921.3,382.2 		"/>
		<path class="st10" d="M897,499.4c0,0,39.6,0.7,52.8,0.8c1.5,0,2.5-2,2.5-3.5l0,0c0-1.5-2.1-3.2-3.6-3.2
			c-12.9,0.1-51.7,0.5-51.7,0.5c-1.5,0-2.6,1.2-2.6,2.6l0,0C894.3,498.2,895.5,499.4,897,499.4z"/>
		<path class="st10" d="M950.4,504.1c-0.5-2.9-3-4.7-6-4.7s-6,1.9-6,4.9c0,3.7,3.7,6.2,6.6,6.2C948.1,510.5,951,507.8,950.4,504.1z"
			/>
		<path class="st10" d="M908.2,504.1c-0.5-2.9-3-4.7-6-4.7c-2.9,0-6,1.9-6,4.9c0,3.7,3.7,6.2,6.6,6.2S908.8,507.8,908.2,504.1z"/>
		<path class="st10" d="M939.9,409.6c0,0,1.4,9.4-13.2,12.5c-14.6,3-20.9-12.5-20.9-12.5H939.9z"/>
		<path class="st10" d="M896.6,373.4c-0.2-17.7,8.9-53.3,26.8-75c18.8-22.8,62-30.8,72.8-6.1c10.8,24.6-19.2,95.1-19.2,95.1
			s-6.3,18.3-12.5,22.3c-15,9.9-86.6,7.7-98-3.2C841.9,382.9,877.2,368.7,896.6,373.4z"/>
	</g>
	<g>
		<g>
			<g>
				<g>
					<path class="st11" d="M851.5,282.4c0,0,0-5.4-2.6-5.5c-3.5-0.2-8.1-0.9-10.5-3.3c-4.2-4.2-6.5-12.8-3.3-10.8
						c3.2,2.1,6.5,5.8,6.5,5.8s-6.8-8.4-4.1-9.1c2.6-0.7,8.5,6.6,8.5,6.6s-7.3-10.6-4.5-10.5c2.7,0.1,8.2,8.2,8.2,8.2
						s-6.4-10.1-3.2-9.9c3.2,0.2,5.1,7.9,7.8,7.7c5.3-0.4,12.9,1.2,12.9,10.6L851.5,282.4z"/>
				</g>
				<g>
					<path class="st12" d="M845,271.6C845,271.6,845,271.6,845,271.6c-2-0.1-3.6-2.8-3.6-2.9c-0.1-0.1,0-0.2,0.1-0.3
						c0.1-0.1,0.2,0,0.3,0.1c0,0,1.5,2.6,3.3,2.7c0.1,0,0.2,0.1,0.2,0.2C845.2,271.5,845.1,271.6,845,271.6z"/>
				</g>
				<g>
					<path class="st12" d="M850,269.6C850,269.6,850,269.6,850,269.6c-2.7-0.7-4.2-3.3-4.3-3.4s0-0.2,0.1-0.3c0.1-0.1,0.2,0,0.3,0.1
						c0,0,1.5,2.6,4,3.2c0.1,0,0.2,0.2,0.2,0.3C850.2,269.6,850.1,269.6,850,269.6z"/>
				</g>
				<g>
					<path class="st12" d="M853.4,267.1c-2.1,0-3.9-3.1-4-3.2c-0.1-0.1,0-0.2,0.1-0.3c0.1-0.1,0.2,0,0.3,0.1c0,0,1.8,3,3.6,3
						c0,0,0,0,0,0h0c0.1,0,0.2,0.1,0.2,0.2C853.6,267,853.5,267.1,853.4,267.1z"/>
				</g>
			</g>
			<g>
				<g>
					<path class="st13" d="M866.2,340.1c2.7-0.3,5.4-1.3,7.8-2.8c7.9-4.9,13.2-15.1,17.2-33.3c1.8-8.4,7.2-18.5,7.3-18.6l-17.8-9.6
						c-0.3,0.5-6.7,12.6-9.2,23.8c-1.4,6.3,2-29.2-3.1-28.9c-13.7,0.9-19.7,10.4-19.7,10.4c-1.4,5.1-1.6,31.9-1.4,37.9
						c0.2,4.2,0.7,7.6,1.5,10.4c2.3,7.3,7.2,9.5,9.9,10.2C861.2,340.2,863.7,340.4,866.2,340.1z"/>
				</g>
			</g>
			<g>
				<path class="st12" d="M873.4,320.1C873.4,320.1,873.4,320.1,873.4,320.1c-0.2,0-0.3-0.2-0.3-0.3c0-0.1,1.3-11.1-2.7-19.7
					c-0.1-0.1,0-0.3,0.1-0.3c0.1-0.1,0.3,0,0.4,0.1c4.1,8.7,2.8,19.9,2.8,20C873.7,320,873.6,320.1,873.4,320.1z"/>
			</g>
			<g>
				<path class="st13" d="M961.8,277.3c0,0-3.9-17.4-36-18.4c-46.4-1.5-43.2,41.2-49.2,105.8c0,0,45.8-5.2,88.8,5.2
					C965.3,369.9,971.1,303.9,961.8,277.3z"/>
			</g>
			<g>
				<path class="st13" d="M974.3,287.3l-21.9-1.2c0,0-46.1,2.9-58.2,0.6c-12.2-2.3-15.3-11.4-15.3-11.4s13.4-13.1,35.6-16.1
					c2.1-0.3,4.2-0.5,6.5-0.6c3.8-0.1,7.5,0.2,11.2,0.5C965.9,262.3,974.3,287.3,974.3,287.3z"/>
			</g>
			<g>
				<path class="st11" d="M930.2,255l-2.2-7.9l-0.6-2.3l-3.8-13.5l-0.9,13.3l-0.5,8l-0.2,2.5c-0.1,1.7-1.2,2.1-2.5,3.5
					c-0.5,0.6-3.9,4.2-0.2,5.9c4.6,2.2,13.4-0.7,16.9-4.7C936.1,259.9,931,257.6,930.2,255z"/>
			</g>
			<g>
				<g>
					<path class="st14" d="M912.8,222.2c0,0-1.7,3.4-1.7,8.2s6.9-5.5,6.9-5.5L912.8,222.2z"/>
				</g>
				<g>
					
						<ellipse transform="matrix(0.3271 -0.945 0.945 0.3271 398.1237 1031.1473)" class="st11" cx="923.1" cy="236" rx="16.4" ry="13.6"/>
				</g>
				<g>
					<path class="st15" d="M937.2,235.9l-6.3-2c-1.4-0.4-2.5-1.5-3-2.8c-0.9-2.3-2.3-3.7-8.3-4.7c-7.7-1.3-11.7-6.8-11.8-11
						c0-4.2,4.5-6.2,7.9-3.5c3.4,2.7,2.8-2.4,6.5-2.1c7.1,0.5,7.3,6,12.9,7c7.4,1.3,19.5,9.6,10.5,21.3L937.2,235.9z"/>
				</g>
				<g>
					<g>
						<path class="st16" d="M922.5,235.2c-0.1-0.1-0.1-0.1-0.1-0.2c0-0.2,0.2-0.3,0.3-0.2c0.1,0,2.2,0.1,2.7,2.4
							c0,0.1,0,0.3-0.2,0.3c-0.1,0-0.3-0.1-0.3-0.2c-0.7-1.4-2.2-2-2.3-2C922.6,235.3,922.6,235.3,922.5,235.2z"/>
					</g>
				</g>
				<g>
					<path class="st16" d="M923,238.9c-0.3,0.6-0.9,0.9-1.3,0.7c-0.4-0.2-0.5-0.9-0.2-1.5c0.3-0.6,0.9-0.9,1.3-0.7
						C923.2,237.7,923.3,238.3,923,238.9z"/>
				</g>
				<g>
					<g>
						<path class="st16" d="M912.7,232.4c-0.1,0-0.1-0.1-0.1-0.2c0-0.1,0.1-0.3,0.2-0.3c0.1,0,1.7-0.9,2.7,0.9
							c0.1,0.1,0,0.3-0.1,0.4c-0.1,0.1-0.2,0.1-0.3,0c-0.9-0.9-2.2-0.8-2.2-0.7C912.8,232.4,912.8,232.4,912.7,232.4z"/>
					</g>
				</g>
				<g>
					<path class="st16" d="M914.6,235.6c-0.1,0.7-0.5,1.2-1,1.1c-0.5,0-0.8-0.6-0.8-1.3s0.5-1.2,1-1.1
						C914.3,234.4,914.7,235,914.6,235.6z"/>
				</g>
				<g>
					<path class="st14" d="M945.6,238.1c0,0-6.4,8.7-12.9,8.1c0,0,6.6-6.3-3.2-12.9C929.5,233.3,939.7,233.8,945.6,238.1z"/>
				</g>
				<g>
					<path class="st11" d="M935.6,241.6c-1.5,0.6-3.2-0.1-3.7-1.4c-0.5-1.4,0.3-2.9,1.8-3.5s3.2,0.1,3.7,1.4
						C938,239.4,937.2,241,935.6,241.6z"/>
				</g>
				<g>
					<path class="st14" d="M929.5,233.3c0,0-0.8,8.2-2.7,9.4c-2,1.2-12.9-0.4-17.5-3.4l0,0c-1.1,5.2,1.6,10.5,6.5,12.4
						c1.6,0.6,3.4,1,5.2,1h0c3.7,0.1,7.4-0.6,9.5-3.6c0.6-0.9,0.6-7.3,0.6-7.3s0.3-3.7,2.7-5.1C933.8,236.7,931.8,234,929.5,233.3z"
						/>
				</g>
				<g>
					<path class="st15" d="M917.2,211.6c-0.2,0-0.4,0-0.7-0.1l0.1-0.4c1.7,0.4,2.2-1,2.2-1l0.4,0.1
						C919.1,210.2,918.7,211.6,917.2,211.6z"/>
				</g>
				<g>
					<path class="st0" d="M917.8,223.8c-0.3-0.2-7.8-4.2-7.3-8.5c0.2-1.3,0.5-2,1.2-2.4c1-0.6,2.5,0.1,3.7,0.7
						c0.2,0.1,0.4,0.2,0.5,0.3l-0.1,0.2c-0.2-0.1-0.4-0.2-0.5-0.2c-1.2-0.6-2.6-1.2-3.6-0.7c-0.6,0.3-0.9,1.1-1.1,2.3
						c-0.5,4.2,7.1,8.3,7.2,8.3L917.8,223.8z"/>
				</g>
				<g>
					<path class="st0" d="M937.9,219c-8.2-0.6-11.2-5.9-11.2-5.9l0.2-0.1c0,0,2.9,5.3,11,5.8L937.9,219z"/>
				</g>
				<g>
					<path class="st0" d="M915.1,245.9c-0.2,0.8,0.2,1.5,0.8,1.7s1.3-0.4,1.4-1.2c0.2-0.8-0.2-1.5-0.8-1.7
						C915.9,244.6,915.3,245.1,915.1,245.9z"/>
				</g>
			</g>
			<g>
				<g>
					<g>
						<path class="st17" d="M920.5,335.7l-38.2-3.8c-2.3-0.2-4.3-1.7-4.9-3.8L864,282.4c-0.9-3.1,1.4-6.1,4.8-6.5l35.4-4.4
							c5.8-1.1,8.4,1.4,9.1,4l13.5,53.9C927.6,332.9,924.4,336.1,920.5,335.7z"/>
					</g>
				</g>
				<g>
					<g>
						<path class="st15" d="M917.3,335.7l-38.2-3.8c-2.3-0.2-4.3-1.7-4.9-3.8l-13.4-45.7c-0.9-3.1,1.4-6.1,4.8-6.5l38.2-4.4
							c2.9-0.3,5.6,1.4,6.3,4l13.5,53.9C924.3,332.9,921.2,336.1,917.3,335.7z"/>
					</g>
				</g>
				<g>
					<path class="st17" d="M900.1,277.9c0,0.9,0.7,1.6,1.6,1.6c0.9,0,1.6-0.7,1.6-1.6s-0.7-1.6-1.6-1.6
						C900.8,276.3,900.1,277,900.1,277.9z"/>
				</g>
			</g>
			<g>
				<g>
					<g>
						<g>
							<g>
								<g>
									<path class="st11" d="M931.4,303.3c0,0-5.5-13.9-12.7-16.2c-7.2-2.3-18.5,0.9-14.1,2.8c2.8,1.2,10.3,2.1,10.3,2.1
										s-13.4-0.8-12.7,2.7c0.5,2.4,11.9,3.8,11.9,3.8s-15.5-0.1-14,3c1.2,2.5,13.1,3.5,13.1,3.5s-13.8-0.5-12.2,3.2
										c1.1,2.5,10.3,0.1,10.5,3.7c0.3,3.9,1.3,5.3,6.6,8.6L931.4,303.3z"/>
								</g>
							</g>
						</g>
						<g>
							<g>
								<path class="st18" d="M919.7,294.4c0.1,0,0.3,0,0.4,0c0.2-0.1,0.3-0.4,0.2-0.6c-1.2-2-4.7-2.2-4.8-2.2
									c-0.3,0-0.5,0.2-0.5,0.4c0,0.3,0.2,0.5,0.4,0.5c0,0,3.1,0.2,4,1.7C919.5,294.3,919.6,294.4,919.7,294.4z"/>
							</g>
						</g>
						<g>
							<g>
								<path class="st18" d="M918.4,300.6c0.1,0,0.2,0,0.3-0.1c0.1-0.1,0.2-0.4,0-0.5c-1.6-1.8-4.2-1.9-4.3-1.9
									c-0.2,0-0.4,0.2-0.4,0.4c0,0.2,0.2,0.4,0.4,0.4c0,0,2.4,0.1,3.8,1.7C918.3,300.6,918.4,300.6,918.4,300.6z"/>
							</g>
						</g>
						<g>
							<g>
								<path class="st18" d="M917.3,307.3c0.1,0,0.2,0,0.3-0.1c0.1-0.1,0.2-0.4,0-0.5c-1.6-1.8-4.2-1.9-4.3-1.9
									c-0.2,0-0.4,0.2-0.4,0.4c0,0.2,0.2,0.4,0.4,0.4c0,0,2.4,0.1,3.8,1.7C917.2,307.3,917.2,307.3,917.3,307.3z"/>
							</g>
						</g>
					</g>
					<g>
						<g>
							<g>
								<path class="st13" d="M974.1,345.7c10.1-3.8,12.6-17.8,4.9-47.4c-2.1-7.9-8.4-18.9-10.4-20.7c-2.9-2.7-8.5,5.3-10.6,6.6
									c-3.6,2.3-11.6,8.7-9.2,13.3c0,0,10.1,22.3,10.1,22.3c-6.7-3.1-23.9-16.8-28.6-19.1c0,0-14.8,11.5-12.7,22.7
									C917.6,323.8,946,356.2,974.1,345.7z"/>
							</g>
						</g>
					</g>
				</g>
			</g>
		</g>
		<g>
			<path class="st15" d="M886.9,285l-0.5-0.2c1.5-4.9,6.2-10.9,6.2-10.9l0.4,0.3C893,274.3,888.4,280.2,886.9,285z"/>
		</g>
		<g>
			<path class="st15" d="M957.8,312.6C957.8,312.6,957.8,312.6,957.8,312.6c-7.7-0.4-25.7-10.7-26.5-11.1c-0.1-0.1-0.1-0.2-0.1-0.3
				c0.1-0.1,0.2-0.1,0.3-0.1c0.2,0.1,18.7,10.7,26.3,11.1c0.1,0,0.2,0.1,0.2,0.2C958,312.5,957.9,312.6,957.8,312.6z"/>
		</g>
		<g>
			<path class="st15" d="M946.8,346.3C946.8,346.3,946.7,346.3,946.8,346.3c-12-4.9-24.1-17-24.3-17.1c-0.1-0.1-0.1-0.2,0-0.3
				c0.1-0.1,0.2-0.1,0.3,0c0.1,0.1,12.2,12.2,24,17c0.1,0,0.2,0.2,0.1,0.3C947,346.3,946.9,346.3,946.8,346.3z"/>
		</g>
		<g>
			<path class="st15" d="M948.9,310.1C948.9,310.1,948.9,310.1,948.9,310.1c-0.2,0-0.2-0.2-0.2-0.3c0.9-4.3-3-16.7-3-16.8
				c0-0.1,0-0.2,0.1-0.3c0.1,0,0.2,0,0.3,0.2c0.2,0.5,4,12.6,3.1,17C949.1,310.1,949,310.1,948.9,310.1z"/>
		</g>
		<g>
			<path class="st15" d="M866.8,491.6c0,0,0.2,6.6-4.2,8.6c-4.3,2.1-17.1,4.4-12.1,8.4c2.9,2.3,15.8,0,19.4-0.2
				c3.7-0.2,7.2,1.2,9.8-1.4c2.9-2.9-0.8-16.1-0.8-16.1s-3.1,1.8-5.9,1.9C868.9,492.9,866.8,491.6,866.8,491.6z"/>
		</g>
		<g>
			<path class="st15" d="M827.5,490.7c0,0,0.1,6.6-4.2,8.6c-4.4,2-17.1,4.2-12.2,8.3c2.9,2.3,15.8,0.2,19.4,0
				c3.7-0.2,7.2,1.3,9.8-1.3c2.9-2.8-0.7-16.1-0.7-16.1s-3.1,1.8-5.9,1.8C829.6,492,827.5,490.7,827.5,490.7z"/>
		</g>
		<g>
			<g>
				<path class="st17" d="M830.9,495.9c-7.6-0.3-13.7-6.6-13.7-14.2c-0.2-43.1,2.2-65,15.4-83.9c8.5-12.2,21.3-24.1,37.1-31.2
					c13.7-6.2,25.4-9.2,40.8-9.9c25.1-1.1,36.9,2.7,36.9,2.7c18.3,39.4-11.2,44.2-33.1,45c-0.7,0-1.4,0.1-2.2,0.1
					c-13.2,0.7-36.8,3.7-45.8,16.7c-7.2,10.3-12.2,24.8-14.8,62.4c-0.5,7.2-6.6,12.7-13.8,12.5L830.9,495.9z"/>
			</g>
		</g>
		<g>
			<g>
				<path class="st17" d="M867.2,498.6c-7.6-0.3-13.7-6.6-13.7-14.2c-0.2-43.1,2.2-65,15.4-83.9c8.5-12.2,21.1-21.3,37.5-27.1
					c11.7-4.1,13-22.6,28.4-23.3c25.1-1.1,31.7,1.4,31.7,1.4c19.7,50.4-37.3,49.3-56.9,70.4c-8.5,9.2-19.2,26.8-21.7,64.4
					c-0.5,7.2-6.6,12.7-13.8,12.5L867.2,498.6z"/>
			</g>
		</g>
		<g>
			<path class="st19" d="M853.6,460.1l0.3,0c0-0.2-1.2-16.5,3.6-34.5c2.8-10.6,7.1-19.6,12.7-26.9c7-9.1,16.2-15.5,27.3-19l-0.1-0.3
				c-11.1,3.5-20.4,9.9-27.4,19.1c-5.7,7.3-9.9,16.4-12.8,27C852.5,443.6,853.6,460,853.6,460.1z"/>
		</g>
	</g>
	<g>
		<polygon class="st10" points="686.7,482.9 692.4,484.7 692,368.3 687.7,371.3 		"/>
		<path class="st10" d="M663.4,488.5c0,0,39.6,0.7,52.8,0.8c1.5,0,2.5-2,2.5-3.5l0,0c0-1.5-2.1-3.2-3.6-3.2
			c-12.9,0.1-51.7,0.5-51.7,0.5c-1.5,0-2.6,1.2-2.6,2.6l0,0C660.8,487.3,661.9,488.5,663.4,488.5z"/>
		<path class="st10" d="M716.8,493.2c-0.5-2.9-3-4.7-6-4.7c-2.9,0-6,1.9-6,4.9c0,3.7,3.7,6.2,6.6,6.2S717.4,496.9,716.8,493.2z"/>
		<path class="st10" d="M674.6,493.2c-0.5-2.9-3-4.7-6-4.7s-6,1.9-6,4.9c0,3.7,3.7,6.2,6.6,6.2C672.2,499.6,675.2,496.9,674.6,493.2
			z"/>
		<path class="st10" d="M706.3,408.4c0,0,1.4,9.4-13.2,12.5c-14.6,3-20.9-12.5-20.9-12.5H706.3z"/>
		<path class="st10" d="M663,372.1c-0.2-17.7,8.9-53.3,26.8-75c18.8-22.8,62-30.8,72.8-6.1S743.4,386,743.4,386s-6.3,18.3-12.5,22.3
			c-15,9.9-86.6,7.7-98-3.2C608.3,381.7,643.6,367.5,663,372.1z"/>
	</g>
	<g>
		<polygon class="st10" points="537.4,487.8 531.7,489.7 532,373.3 536.4,376.3 		"/>
		<path class="st10" d="M560.7,493.5c0,0-39.6,0.7-52.8,0.8c-1.5,0-2.5-2-2.5-3.5l0,0c0-1.5,2.1-3.2,3.6-3.2
			c12.9,0.1,51.7,0.5,51.7,0.5c1.5,0,2.6,1.2,2.6,2.6l0,0C563.3,492.3,562.1,493.5,560.7,493.5z"/>
		<path class="st10" d="M507.3,498.2c0.5-2.9,3-4.7,6-4.7c2.9,0,6,1.9,6,4.9c0,3.7-3.7,6.2-6.6,6.2S506.7,501.9,507.3,498.2z"/>
		<path class="st10" d="M549.5,498.2c0.5-2.9,3-4.7,6-4.7s6,1.9,6,4.9c0,3.7-3.7,6.2-6.6,6.2S548.9,501.9,549.5,498.2z"/>
		<path class="st10" d="M517.8,396.3c0,0-1.4,9.4,13.2,12.5c14.6,3,20.9-12.5,20.9-12.5H517.8z"/>
		<path class="st10" d="M548.9,402.7h-40.6c-20.3,0-36.9-16.6-36.9-36.9v-52.5c0-31.8,26-57.8,57.8-57.8h0
			c31.1,0,56.6,25.5,56.6,56.6v53.7C585.7,386.1,569.1,402.7,548.9,402.7z"/>
	</g>
	<g>
		<polygon class="st10" points="321.1,487.6 315.4,489.5 315.8,373.1 320.1,376.1 		"/>
		<path class="st10" d="M344.4,493.3c0,0-39.6,0.7-52.8,0.8c-1.5,0-2.5-2-2.5-3.5l0,0c0-1.5,2.1-3.2,3.6-3.2
			c12.9,0.1,51.7,0.5,51.7,0.5c1.5,0,2.6,1.2,2.6,2.6l0,0C347,492.1,345.9,493.3,344.4,493.3z"/>
		<path class="st10" d="M291,498c0.5-2.9,3-4.7,6-4.7c2.9,0,6,1.9,6,4.9c0,3.7-3.7,6.2-6.6,6.2C293.3,504.4,290.4,501.6,291,498z"/>
		<path class="st10" d="M333.2,498c0.5-2.9,3-4.7,6-4.7s6,1.9,6,4.9c0,3.7-3.7,6.2-6.6,6.2C335.6,504.4,332.6,501.6,333.2,498z"/>
		<path class="st10" d="M301.5,396.1c0,0-1.4,9.4,13.2,12.5c14.6,3,20.9-12.5,20.9-12.5H301.5z"/>
		<path class="st10" d="M344.8,359.8c0.2-17.7-8.9-53.3-26.8-75c-18.8-22.8-62-30.8-72.8-6.1c-10.8,24.6,19.2,95.1,19.2,95.1
			s6.3,18.3,12.5,22.3c15,9.9,86.6,7.7,98-3.2C399.5,369.4,364.2,355.2,344.8,359.8z"/>
	</g>
	<g>
		<path class="st15" d="M734.7,338c0,0,13.9,43-6.6,58.9c-20.5,15.9-55.1,10.9-55.1,10.9l11.5-58.5L734.7,338z"/>
		<path class="st20" d="M650.3,302c-6-1.9-13.2-8.5-13.2-8.5s18.2-31.6,44.2-32.6c3.6-0.1,16.3,1.2,19.7,2.1
			c38.7,10.1,33.8,90.3,33.8,92.2c-75.4-15.2-85.4-3.2-85.4-3.2C648.1,329.7,649.1,318.3,650.3,302z"/>
		<path class="st21" d="M679.1,282.9c-0.1-0.7-0.7-1.1-1.4-1.1c-0.7,0.1-1.2,0.7-1.2,1.4c0.1,0.7,0.7,1.1,1.4,1.1
			C678.7,284.2,679.2,283.6,679.1,282.9z"/>
		<path class="st21" d="M674.4,318.6c-0.1-0.7-0.7-1.2-1.4-1.1c-0.7,0.1-1.3,0.7-1.2,1.3c0.1,0.7,0.7,1.2,1.4,1.1
			S674.4,319.3,674.4,318.6z"/>
		<path class="st21" d="M676,304.9c-0.1-0.7-0.7-1.1-1.4-1.1c-0.7,0.1-1.2,0.7-1.2,1.4c0.1,0.7,0.7,1.1,1.4,1.1
			C675.6,306.2,676.1,305.6,676,304.9z"/>
		<path class="st15" d="M670.5,220.4c0,0-2.2-10.5,7.3-12.3c9.5-1.8,8,5.5,9.8,7.2s-2,7.4-6.6,8.5
			C676.5,224.9,670.5,220.4,670.5,220.4z"/>
		<path class="st11" d="M695.2,263.7c-3.7,4.2-6.8,4.1-12.2,4.3c-9.2,0.4-5.4-7-5.4-7c2,0,3.1-1,3.3-3l0.2-2.4l0.1-1.2l0.3-3.8
			l0.3-3.4L683,233l3.8,14.4l0.6,2.4l2.2,8.4c0.7,2.7,3,3.3,5.8,4C695.4,262.3,695.2,263.7,695.2,263.7z"/>
		<path class="st15" d="M687.4,249.8c0,0-2.4,4.2-6.2,4.6l0.3-3.8C683.9,250.1,687.4,249.8,687.4,249.8z"/>
		<path class="st15" d="M699.4,233.2c0,0-0.9,2.2-0.3,7.1c0.9,7.2-7.6,8.8-9.3,6.5c-0.2-0.3,2-11.9,2-11.9l2.8-1.1L699.4,233.2z"/>
		
			<ellipse transform="matrix(0.1678 -0.9858 0.9858 0.1678 335.6991 867.9564)" class="st11" cx="682" cy="235.1" rx="16.4" ry="13.5"/>
		<path class="st15" d="M678.6,221.9c0.3,0.6-3.1,8.6,12.3,12.9c15.4,4.4,8.9-15.8-2.6-17.9c-16.6-3.2-20.8,7.5-19.8,11.7
			C669.4,232.9,678.6,221.9,678.6,221.9z"/>
		<path class="st15" d="M689.6,231.9c0,0,5.4,7.6,2.1,14.1c0,0,4.4-3.4,4.7-4.9c0.3-1.5,0.2-7,0.2-7L689.6,231.9z"/>
		<path class="st11" d="M693.1,239.3c-1.7,1.2-3.9,1-4.8-0.4c-0.9-1.4-0.2-3.5,1.5-4.7s3.9-1,4.8,0.4
			C695.5,236,694.9,238.2,693.1,239.3z"/>
		<g>
			<path class="st16" d="M680.6,235.1c-0.1,0-0.2-0.1-0.2-0.2c0-0.2,0.1-0.3,0.2-0.4c0.1,0,2.3-0.7,3.8,1.5c0.1,0.1,0.1,0.3-0.1,0.4
				c-0.1,0.1-0.3,0-0.4-0.1c-1.2-1.1-3.1-1.2-3.2-1.2C680.8,235.1,680.7,235.1,680.6,235.1z"/>
		</g>
		<path class="st16" d="M682.5,238.7c-0.1,0.7-0.6,1.2-1.1,1.2c-0.5-0.1-0.9-0.7-0.8-1.4c0.1-0.7,0.6-1.2,1.1-1.2
			C682.3,237.4,682.6,238,682.5,238.7z"/>
		<g>
			<path class="st16" d="M669.6,235c-0.1,0-0.2,0-0.2-0.1c-0.1-0.1-0.1-0.3,0.1-0.4c0.1-0.1,1.8-1.5,4.1-0.1
				c0.1,0.1,0.2,0.3,0.1,0.4c-0.1,0.1-0.3,0.1-0.4,0.1c-1.6-0.6-3.3,0-3.4,0.1C669.7,235,669.6,235,669.6,235z"/>
		</g>
		<path class="st16" d="M672.7,237.7c0.2,0.7-0.1,1.4-0.6,1.5c-0.5,0.1-1.1-0.3-1.3-1c-0.2-0.7,0.1-1.4,0.6-1.5
			C671.9,236.5,672.5,237,672.7,237.7z"/>
		<path class="st22" d="M688.3,235.6c0.6,4-1.2,8.2-4,9.2c-2.8,1.1-5.6-1.3-6.2-5.3c-0.6-4,1.2-8.2,4-9.2
			C684.9,229.1,687.6,231.5,688.3,235.6z"/>
		<path class="st22" d="M674.6,235.9c0.1,4-1.8,7.9-4.3,8.8c-2.5,0.9-4.7-1.7-4.9-5.6c-0.1-4,1.8-7.9,4.3-8.8
			C672.2,229.4,674.4,231.9,674.6,235.9z"/>
		<g>
			<path class="st23" d="M688.7,237.1c0-0.5,0-1.1-0.1-1.6c0-0.2,0-0.4-0.1-0.6c-0.1-0.3-0.1-0.6-0.2-0.9c-0.5-2.1-1.6-3.7-3.1-4.5
				c-1.2-0.7-2.4-0.8-3.7-0.3c-0.3,0.1-0.5,0.2-0.7,0.4c-1.9,1.1-3.3,3.6-3.7,6.3c0,0.3-0.1,0.6-0.1,0.9c0,0.8,0,1.5,0.1,2.3
				c0.1,0.7,0.3,1.4,0.5,2c0.6,1.5,1.5,2.7,2.7,3.4c0.5,0.3,1,0.5,1.5,0.5c0.2,0,0.3,0,0.5,0c0.6,0,1.2-0.1,1.7-0.3
				c0.6-0.2,1.2-0.6,1.7-1c1.3-1.1,2.2-2.8,2.6-4.8c0-0.2,0.1-0.4,0.1-0.6C688.6,238,688.7,237.6,688.7,237.1z M679.4,243
				c-0.5-0.6-0.9-1.3-1.2-2c-0.2-0.6-0.4-1.3-0.5-1.9c-0.1-0.7-0.1-1.4-0.1-2.1c0-0.3,0-0.6,0.1-1c0.3-2.7,1.7-5.1,3.6-6.1
				c0.2-0.1,0.4-0.2,0.6-0.3c0.5-0.2,1-0.3,1.5-0.2c0.6,0,1.2,0.2,1.7,0.5c0.8,0.4,1.4,1.1,2,2c0.2,0.3,0.4,0.7,0.5,1.1
				c0,0,0,0,0,0.1c0,0,0,0,0,0c0.1,0.2,0.2,0.4,0.2,0.6c0.1,0.4,0.2,0.8,0.3,1.2c0.1,0.5,0.1,0.9,0.1,1.4c0,0.3,0,0.6,0,0.9
				c0,0.3-0.1,0.6-0.1,0.9l0,0c-0.3,2-1.2,3.9-2.4,5c-0.5,0.5-1.1,0.9-1.7,1.1c-0.7,0.2-1.3,0.3-2,0.2c-0.4-0.1-0.9-0.2-1.3-0.5
				C680.2,243.9,679.8,243.5,679.4,243C679.4,243,679.4,243,679.4,243z"/>
		</g>
		<g>
			<path class="st23" d="M674.5,237.6c0-0.2,0-0.4,0-0.6c-0.1,0-0.1,0.1-0.2,0.1c0,1.1-0.2,2.3-0.5,3.3c0,0,0,0,0,0
				c0-0.1,0.1-0.2,0.1-0.3c0,0,0,0,0-0.1c0-0.1,0.1-0.3,0.1-0.4c0.1-0.2,0.1-0.4,0.2-0.6c0-0.2,0.1-0.4,0.1-0.6
				C674.5,238,674.5,237.8,674.5,237.6z M674.5,237.6c0-0.2,0-0.4,0-0.6c-0.1,0-0.1,0.1-0.2,0.1c0,1.1-0.2,2.3-0.5,3.3c0,0,0,0,0,0
				c0-0.1,0.1-0.2,0.1-0.3c0,0,0,0,0-0.1c0-0.1,0.1-0.3,0.1-0.4c0.1-0.2,0.1-0.4,0.2-0.6c0-0.2,0.1-0.4,0.1-0.6
				C674.5,238,674.5,237.8,674.5,237.6z M674.5,237.6c0-0.2,0-0.4,0-0.6c-0.1,0-0.1,0.1-0.2,0.1c0,1.1-0.2,2.3-0.5,3.3c0,0,0,0,0,0
				c0-0.1,0.1-0.2,0.1-0.3c0,0,0,0,0-0.1c0-0.1,0.1-0.3,0.1-0.4c0.1-0.2,0.1-0.4,0.2-0.6c0-0.2,0.1-0.4,0.1-0.6
				C674.5,238,674.5,237.8,674.5,237.6z M674.5,237.6c0-0.2,0-0.4,0-0.6c-0.1,0-0.1,0.1-0.2,0.1c0,1.1-0.2,2.3-0.5,3.3c0,0,0,0,0,0
				c0-0.1,0.1-0.2,0.1-0.3c0,0,0,0,0-0.1c0-0.1,0.1-0.3,0.1-0.4c0.1-0.2,0.1-0.4,0.2-0.6c0-0.2,0.1-0.4,0.1-0.6
				C674.5,238,674.5,237.8,674.5,237.6z M674.5,237.6c0-0.2,0-0.4,0-0.6c-0.1,0-0.1,0.1-0.2,0.1c0,1.1-0.2,2.3-0.5,3.3c0,0,0,0,0,0
				c0-0.1,0.1-0.2,0.1-0.3c0,0,0,0,0-0.1c0-0.1,0.1-0.3,0.1-0.4c0.1-0.2,0.1-0.4,0.2-0.6c0-0.2,0.1-0.4,0.1-0.6
				C674.5,238,674.5,237.8,674.5,237.6z M674.5,237.6c0-0.2,0-0.4,0-0.6c-0.1,0-0.1,0.1-0.2,0.1c0,1.1-0.2,2.3-0.5,3.3c0,0,0,0,0,0
				c0-0.1,0.1-0.2,0.1-0.3c0,0,0,0,0-0.1c0-0.1,0.1-0.3,0.1-0.4c0.1-0.2,0.1-0.4,0.2-0.6c0-0.2,0.1-0.4,0.1-0.6
				C674.5,238,674.5,237.8,674.5,237.6z M674.5,237.6c0-0.2,0-0.4,0-0.6c-0.1,0-0.1,0.1-0.2,0.1c0,1.1-0.2,2.3-0.5,3.3c0,0,0,0,0,0
				c0-0.1,0.1-0.2,0.1-0.3c0,0,0,0,0-0.1c0-0.1,0.1-0.3,0.1-0.4c0.1-0.2,0.1-0.4,0.2-0.6c0-0.2,0.1-0.4,0.1-0.6
				C674.5,238,674.5,237.8,674.5,237.6z M674.5,237.6c0-0.2,0-0.4,0-0.6c-0.1,0-0.1,0.1-0.2,0.1c0,1.1-0.2,2.3-0.5,3.3c0,0,0,0,0,0
				c0-0.1,0.1-0.2,0.1-0.3c0,0,0,0,0-0.1c0-0.1,0.1-0.3,0.1-0.4c0.1-0.2,0.1-0.4,0.2-0.6c0-0.2,0.1-0.4,0.1-0.6
				C674.5,238,674.5,237.8,674.5,237.6z M674.9,236.8c0-0.3,0-0.6,0-0.9c0-0.2,0-0.3-0.1-0.5c-0.3-2.6-1.5-4.7-3-5.6
				c-0.4-0.2-0.8-0.4-1.1-0.4c-0.3-0.1-0.6-0.1-1,0c-0.2,0-0.5,0.1-0.7,0.2l0,0c-0.1,0-0.1,0-0.2,0.1c-2.7,1-4.5,5.3-3.9,9.6
				c0.3,2.6,1.5,4.7,3.1,5.6c0.4,0.2,0.8,0.4,1.2,0.5c0.5,0.1,1,0,1.5-0.1c0,0,0,0,0,0c0.1,0,0.1,0,0.2-0.1c1-0.4,1.8-1.2,2.5-2.3
				l0,0l0,0c0.7-1.1,1.1-2.4,1.4-3.8C674.8,238.2,674.9,237.5,674.9,236.8z M673.8,240.4c-0.3,1-0.8,1.9-1.3,2.6
				c-0.5,0.6-1,1.1-1.6,1.3c0,0,0,0,0,0c0,0,0,0,0,0c0,0,0,0-0.1,0c-0.1,0-0.1,0.1-0.2,0.1c-0.1,0-0.2,0.1-0.3,0.1
				c-0.8,0.2-1.5,0.1-2.3-0.3c-1.4-0.8-2.5-2.8-2.8-5.2c0,0,0,0,0,0c0,0,0,0,0,0c0,0,0,0,0,0c0,0,0,0,0-0.1c-0.5-4,1.1-8.1,3.6-9.1
				c0.2-0.1,0.3-0.1,0.5-0.1c0.3-0.1,0.7-0.1,1,0c0.4,0.1,0.7,0.2,1.1,0.4c0,0,0.1,0,0.1,0.1c0.7,0.4,1.3,1.1,1.8,2
				c0.5,0.9,0.8,2,1,3.2c0,0.2,0,0.4,0.1,0.6c0,0.3,0,0.7,0,1c0,1.1-0.2,2.3-0.5,3.3C673.9,240.3,673.9,240.4,673.8,240.4z
				 M674.5,237.6c0-0.2,0-0.4,0-0.6c-0.1,0-0.1,0.1-0.2,0.1c0,1.1-0.2,2.3-0.5,3.3c0,0,0,0,0,0c0-0.1,0.1-0.2,0.1-0.3c0,0,0,0,0-0.1
				c0-0.1,0.1-0.3,0.1-0.4c0.1-0.2,0.1-0.4,0.2-0.6c0-0.2,0.1-0.4,0.1-0.6C674.5,238,674.5,237.8,674.5,237.6z M674.5,237.6
				c0-0.2,0-0.4,0-0.6c-0.1,0-0.1,0.1-0.2,0.1c0,1.1-0.2,2.3-0.5,3.3c0,0,0,0,0,0c0-0.1,0.1-0.2,0.1-0.3c0,0,0,0,0-0.1
				c0-0.1,0.1-0.3,0.1-0.4c0.1-0.2,0.1-0.4,0.2-0.6c0-0.2,0.1-0.4,0.1-0.6C674.5,238,674.5,237.8,674.5,237.6z M674.5,237.6
				c0-0.2,0-0.4,0-0.6c-0.1,0-0.1,0.1-0.2,0.1c0,1.1-0.2,2.3-0.5,3.3c0,0,0,0,0,0c0-0.1,0.1-0.2,0.1-0.3c0,0,0,0,0-0.1
				c0-0.1,0.1-0.3,0.1-0.4c0.1-0.2,0.1-0.4,0.2-0.6c0-0.2,0.1-0.4,0.1-0.6C674.5,238,674.5,237.8,674.5,237.6z M674.5,237.6
				c0-0.2,0-0.4,0-0.6c-0.1,0-0.1,0.1-0.2,0.1c0,1.1-0.2,2.3-0.5,3.3c0,0,0,0,0,0c0-0.1,0.1-0.2,0.1-0.3c0,0,0,0,0-0.1
				c0-0.1,0.1-0.3,0.1-0.4c0.1-0.2,0.1-0.4,0.2-0.6c0-0.2,0.1-0.4,0.1-0.6C674.5,238,674.5,237.8,674.5,237.6z M674.5,237.6
				c0-0.2,0-0.4,0-0.6c-0.1,0-0.1,0.1-0.2,0.1c0,1.1-0.2,2.3-0.5,3.3c0,0,0,0,0,0c0-0.1,0.1-0.2,0.1-0.3c0,0,0,0,0-0.1
				c0-0.1,0.1-0.3,0.1-0.4c0.1-0.2,0.1-0.4,0.2-0.6c0-0.2,0.1-0.4,0.1-0.6C674.5,238,674.5,237.8,674.5,237.6z M674.5,237.6
				c0-0.2,0-0.4,0-0.6c-0.1,0-0.1,0.1-0.2,0.1c0,1.1-0.2,2.3-0.5,3.3c0,0,0,0,0,0c0-0.1,0.1-0.2,0.1-0.3c0,0,0,0,0-0.1
				c0-0.1,0.1-0.3,0.1-0.4c0.1-0.2,0.1-0.4,0.2-0.6c0-0.2,0.1-0.4,0.1-0.6C674.5,238,674.5,237.8,674.5,237.6z M674.5,237.6
				c0-0.2,0-0.4,0-0.6c-0.1,0-0.1,0.1-0.2,0.1c0,1.1-0.2,2.3-0.5,3.3c0,0,0,0,0,0c0-0.1,0.1-0.2,0.1-0.3c0,0,0,0,0-0.1
				c0-0.1,0.1-0.3,0.1-0.4c0.1-0.2,0.1-0.4,0.2-0.6c0-0.2,0.1-0.4,0.1-0.6C674.5,238,674.5,237.8,674.5,237.6z"/>
		</g>
		<g>
			<path class="st15" d="M674,237.1c-0.1,0-0.3-0.1-0.3-0.2c-0.1-0.2,0-0.5,0.2-0.6c0.1,0,1.8-1,4.3,0c0.2,0.1,0.4,0.4,0.3,0.6
				c-0.1,0.2-0.4,0.4-0.6,0.3c-2-0.8-3.5,0-3.5,0C674.2,237.1,674.1,237.1,674,237.1z"/>
		</g>
		<path class="st15" d="M691.5,220.4c0,0,2.9-10.3,12.2-7.7c9.3,2.6,6.5,7.6,5.5,10.8c-0.8,2.4-5.2,5.7-9.8,4.6
			C694.8,227.1,691.5,220.4,691.5,220.4z"/>
		<g>
			<path class="st19" d="M676.9,246.9c-1,0-1.9-0.2-2.6-1c-0.1-0.1,0-0.2,0-0.2c0.1-0.1,0.2-0.1,0.2,0c1.7,1.9,5.5,0.2,5.5,0.2
				c0.1,0,0.2,0,0.2,0.1c0,0.1,0,0.2-0.1,0.2C680.1,246.2,678.5,246.9,676.9,246.9z"/>
		</g>
		<path class="st21" d="M677.6,261c0,0-2.8,7.4,5.5,6.8c0,0-4,4.5-7.2,3.1c-3.2-1.4-0.4-3.1-1.8-4c-1.4-1-2.9-1.6-1.7-3
			c0.4-0.4,0.2-1.3,0.1-1.6C672.2,261.5,675.5,260.3,677.6,261z"/>
		<path class="st0" d="M615.7,294.7c0,0,16.4,16.6,20.6,58.8c0.1,0.6,0.1,1.2,0.1,1.2s37.3-6,44.9-4c0,0-0.1-41.6-20.8-61.8
			L615.7,294.7z"/>
		<g>
			<path class="st11" d="M619.9,314.8c0,0-1.8-5.6,2.6-7.1c5.6-2,18,5.2,5.3,6c-0.4,0,7.3,0.8,7.2,3.3c-0.1,1.8-6.6,1.9-6.6,1.9
				s7.8,1,8,3c0.2,2-6.6,2.1-6.6,2.1s7.8,0,6.2,2.9c-0.8,1.6-7.8,1.6-10.5,1.8c-2.5,0.1-3.5-1.7-3.6-4.6c0,0-1.5-2.9-1.1-4.7
				c0.1-0.7-0.5-1.4-0.6-1.9C619.9,316.6,619.9,314.8,619.9,314.8z"/>
		</g>
		<path class="st11" d="M692.4,319.7c-2.2-1.7-7.4-4.1-9.7-5.7c-1-0.7-4.4-2.9-5.4-2.1c-0.8,0.7,1,3.7,2,5
			c-10.4-0.6-24.2,2.5-3.5,4.5c0,0,0,0,0,0c-1.8,0-14.9-0.8-14.4,2c0.4,2.1,11.2,2.4,14.2,2.5c0,0,0,0.1,0,0.1
			c-3,0.1-12.1,0.1-11.9,2.1c0.3,2.6,12.1,2.3,12.1,2.3s-9.8,0-8.2,2.6c0.9,1.5,6.7,1.3,10.3,1.1h0c0,0,0,0,0,0
			c0.8,0,1.4-0.1,1.9-0.1c0.4,0,0.8-0.1,1.1-0.2c6-0.6,9.8-1.9,9.8-1.9s4.7-0.8,5.2-5.7C696.1,323.2,693.4,320.5,692.4,319.7z"/>
		<path class="st20" d="M703.1,263.2c0,0,41.1,9.7,44,48.8c2.1,27.6-54.6,23.5-56.4,20c-1.8-3.5,1.8-14.3,3.8-15.1
			c2-0.8,20.6-8.7,20.6-8.7l-13.6-38L703.1,263.2z"/>
		<g>
			<path class="st15" d="M718.7,307.4c-0.1,0-0.1,0-0.2-0.1c-4.2-6.5-6.5-15.4-6.5-15.5c0-0.1,0-0.2,0.1-0.2c0.1,0,0.2,0,0.2,0.1
				c0,0.1,2.4,9,6.5,15.4c0.1,0.1,0,0.2-0.1,0.3C718.7,307.4,718.7,307.4,718.7,307.4z"/>
		</g>
		<g>
			<path class="st15" d="M692.4,319.9c-0.1,0-0.2-0.1-0.2-0.2c0-0.1-0.2-1.5,1-2.9c1.4-1.8,4.2-2.9,8.3-3.2c5.2-0.4,8.8-2.4,12-4.2
				c2.9-1.7,5.7-3.2,9.2-3.3c0,0,0,0,0,0c0.1,0,0.2,0.1,0.2,0.2c0,0.1-0.1,0.2-0.2,0.2c-3.4,0.1-6.1,1.6-9,3.2
				c-3.2,1.8-6.9,3.9-12.2,4.3c-3.9,0.3-6.7,1.3-8,3c-1.1,1.3-0.9,2.6-0.9,2.6C692.6,319.8,692.6,319.9,692.4,319.9
				C692.4,319.9,692.4,319.9,692.4,319.9z"/>
		</g>
		<g>
			<path class="st15" d="M700.9,335.4c-1.4,0-2.6,0-3.5-0.1c-6.9-0.5-7-3.1-7-3.3c0-0.1,0.1-0.2,0.2-0.2c0,0,0,0,0,0
				c0.1,0,0.2,0.1,0.2,0.2c0,0,0.2,2.3,6.6,2.9c6.6,0.5,30.2-0.8,37.2-5.3c0.1-0.1,0.2,0,0.3,0.1c0.1,0.1,0,0.2-0.1,0.3
				C728.7,333.8,710.1,335.4,700.9,335.4z"/>
		</g>
		<path class="st21" d="M694.2,261.8c0,0,6.8-1.5,8.6-0.3c0.9,0.5,1.3,2.8-1.5,3.9c-2.8,1.2-3.4,1.2-4.1,3.4c-0.8,2.2-4.3,2.6-5.7,2
			s-3.3,2.3-5.4,2.5c-2.1,0.2-5.9-3.2-5.3-5.5C680.7,267.8,686.3,268.8,694.2,261.8z"/>
	</g>
	<g>
		<g>
			<g>
				<path class="st24" d="M409.6,462.1c-3-43.9-1.4-66.8-16.3-85c-9.5-11.7-23.4-22.9-40.1-29c-14.4-5.3-26.5-7.5-42.2-7
					c-25.6,0.7,1.2,48.8,1.9,48.8c13.5-0.3,48.7,2.2,58,15.5c2.2,3.1,4.5,25.4,14.9,65.4c1.2,4.5,29.2,12.4,36,11
					C425.7,480.9,409.8,465,409.6,462.1z"/>
			</g>
		</g>
		<path class="st15" d="M384.3,465.1c0,0,10,3.6,14.9,8c4.9,4.4,16.9-0.5,18.7,0c1.8,0.5,10.7,9,8.6,10.8
			c-2.1,1.7-23.3,2.6-27.2-0.7c-3.9-3.3-11.3-4.8-13.9-5.4C382.8,477.1,382.4,466.1,384.3,465.1z"/>
		
			<rect x="385.1" y="476.1" transform="matrix(-1 -1.224647e-16 1.224647e-16 -1 777.8509 959.9682)" class="st15" width="7.7" height="7.7"/>
		<g>
			<g>
				<path class="st11" d="M396.3,469.1c-3-43.9-1.4-66.8-16.3-85c-9.5-11.7-23.4-22.9-40.1-29c-14.4-5.3-26.5-7.5-42.2-7
					c-25.6,0.7-37.3,5.5-37.3,5.5c-15.7,41.5,14.7,44.2,37,43.4c0.7,0,1.5,0,2.2-0.1c13.5-0.3,48.7,2.2,58,15.5
					c2.2,3.1,4.5,25.4,14.9,65.4c1.2,4.5,29.2,12.4,36,11C412.5,487.9,396.5,472,396.3,469.1z"/>
			</g>
		</g>
		<path class="st17" d="M371,472c0,0,10,3.6,14.9,8c4.9,4.4,16.9-0.5,18.7,0c1.8,0.5,10.7,9,8.6,10.8c-2.1,1.7-23.3,2.6-27.2-0.7
			c-3.9-3.3-11.3-4.8-13.9-5.4C369.5,484,369.2,473.1,371,472z"/>
		
			<rect x="371.6" y="483.8" transform="matrix(-1 -1.224647e-16 1.224647e-16 -1 750.9375 975.2752)" class="st17" width="7.7" height="7.7"/>
		<path class="st15" d="M337.3,319.9c0,0,4.7,25.2,15.4,31.5c10.7,6.3,43.5,17.9,56.6,38.5c0,0-19,24.2-31.8,25.7
			c-12.9,1.5-25-1.5-25-1.5s-5.4-11.8-20.6-11.2c-15.1,0.6-51.4-4.5-50.8-30.9C281.7,345.6,337.3,319.9,337.3,319.9z"/>
		<path class="st15" d="M331.1,225.5c0,0-2.6,9,4.5,15.8c4.4,4.2-2.2,10.7-6.9,9.4c-4.7-1.4-4,7.1-11.9,1.9
			C311.3,249,331.1,225.5,331.1,225.5z"/>
		<path class="st17" d="M284.2,268.5c0,0,16.2-14.6,39.7-9.3c23.5,5.3,24.3,25.1,34.7,86.9c0,0-21.7-0.8-78.8,18.1
			c-6.8,2.2-16.7,0.5-13.2-11.1C273.1,331.8,273.3,286.3,284.2,268.5z"/>
		<path class="st17" d="M263.9,295l24.8,10.3c0,0,37-0.9,48.8-0.1c19.4,1.4,27.2-19.9,27.2-19.9s-14.2-24.9-51.3-27.9
			C270.2,254,263.9,295,263.9,295z"/>
		<path class="st11" d="M322.6,269.9c-8.7,3.4-22.3-4.1-25.5-11.5c5.9-1.4,11.4-3,12.2-5.4l2.5-7.7l0-0.1l0.7-2l0-0.1l4.2-13.2
			l0.3,13.2v0l0.2,7.9v0l0.1,2.2c0,1.8,1.9,4.5,8.8,6.2C326.1,259.5,329.7,267.1,322.6,269.9z"/>
		<path class="st25" d="M317.2,251L317.2,251c-0.5-0.1-4.7-1.7-5.4-5.7c0,0,0-0.1,0-0.1c0,0,0,0,0-0.1c-0.1-1,0.2-1.6,0.7-2
			c0,0,0.1,0,0.1-0.1c1.1-0.7,3.1-0.4,4.5,0v0L317.2,251z"/>
		
			<ellipse transform="matrix(0.9955 -9.480511e-02 9.480511e-02 0.9955 -20.5576 31.1493)" class="st11" cx="317.5" cy="231.9" rx="12.4" ry="15.3"/>
		<path class="st11" d="M307.1,235.2c1.5,1.2,3.5,1.1,4.4-0.1c0.9-1.3,0.4-3.3-1.1-4.5c-1.5-1.2-3.5-1.1-4.4,0.1
			C305.1,232,305.6,234,307.1,235.2z"/>
		<g>
			<path class="st17" d="M326.7,241c-2.8-0.3-4.8-3.1-4.6-6.4c0.1-1.8,0.9-3.4,2.2-4.4c1-0.8,2.2-1.2,3.4-1.1
				c2.8,0.3,4.8,3.1,4.6,6.4c-0.1,1.8-0.9,3.4-2.2,4.4c-0.8,0.6-1.7,1-2.6,1.1C327.3,241,327,241,326.7,241z M324.5,230.3
				c-1.2,1-1.9,2.5-2.1,4.2c-0.3,3.1,1.7,5.9,4.3,6.1c1.1,0.1,2.2-0.3,3.2-1c1.2-1,1.9-2.5,2.1-4.2c0.3-3.1-1.7-5.9-4.3-6.1
				c-0.2,0-0.5,0-0.7,0C326.1,229.4,325.3,229.7,324.5,230.3z"/>
		</g>
		<g>
			<path class="st17" d="M314.7,240.4c-2.8-0.3-4.8-3.1-4.6-6.4l0,0c0.1-1.8,0.9-3.4,2.2-4.4c1-0.8,2.2-1.2,3.4-1.1
				c2.8,0.3,4.8,3.1,4.6,6.4c-0.1,1.8-0.9,3.4-2.2,4.4c-0.8,0.6-1.7,1-2.6,1.1C315.2,240.5,314.9,240.5,314.7,240.4z M312.5,229.8
				c-1.2,1-1.9,2.5-2.1,4.2l0,0c-0.3,3.1,1.7,5.9,4.3,6.1c1.1,0.1,2.2-0.3,3.2-1c1.2-1,1.9-2.5,2.1-4.2c0.3-3.1-1.7-5.9-4.3-6.1
				c-0.2,0-0.5,0-0.7,0C314,228.8,313.2,229.2,312.5,229.8z"/>
		</g>
		<g>
			<path class="st17" d="M323.7,235c0,0,0.1,0,0.1-0.1c0-0.1,0-0.2-0.1-0.2c-0.1,0-1.8-1-4.5-0.3c-0.1,0-0.1,0.1-0.1,0.2
				c0,0.1,0.1,0.1,0.2,0.1C321.9,234,323.6,234.9,323.7,235C323.6,235,323.7,235,323.7,235z"/>
		</g>
		<g>
			<path class="st16" d="M317.8,232.4c0.1,0,0.1-0.1,0.2-0.2c0-0.1,0-0.3-0.2-0.3c-0.1,0-2.1-0.8-3.5,1.2c-0.1,0.1-0.1,0.3,0,0.4
				c0.1,0.1,0.3,0.1,0.4,0c1.2-1,2.9-1,2.9-1C317.7,232.4,317.7,232.4,317.8,232.4z"/>
		</g>
		<path class="st16" d="M315.9,235.7c0,0.7,0.5,1.2,1,1.2c0.5,0,0.8-0.6,0.8-1.3s-0.5-1.2-1-1.2C316.2,234.4,315.8,235,315.9,235.7z
			"/>
		<g>
			<path class="st16" d="M327.9,232.9c0.1,0,0.2,0,0.2-0.1c0.1-0.1,0.1-0.3,0-0.4c-0.1-0.1-1.6-1.5-3.7-0.3
				c-0.1,0.1-0.2,0.2-0.1,0.4c0.1,0.1,0.2,0.2,0.4,0.1c1.5-0.5,3,0.2,3.1,0.2C327.8,232.9,327.9,232.9,327.9,232.9z"/>
		</g>
		<path class="st16" d="M324.9,235.2c-0.2,0.6,0,1.3,0.4,1.4c0.5,0.2,1-0.2,1.2-0.9c0.2-0.6,0-1.3-0.4-1.4
			C325.7,234.2,325.1,234.6,324.9,235.2z"/>
		<path class="st15" d="M320.8,219.6c0,0,0.4,5-5.7,6.8c-6.1,1.7-10,5-8.6,9.3c1.5,4.4,13.9,15.4,7,20.1c-6.9,4.6-7.3-5.5-15.1-2.8
			c-7.8,2.7-14-5.2-6.1-14.8c5.4-6.5,0-24.3,20.9-25.3c25.6-1.2,16.5,16,16.5,16S321.6,225.1,320.8,219.6z"/>
		<g>
			<path class="st0" d="M312.5,256.5l-0.1-0.1c1.2-0.7,2-1.7,2.1-2.9c0.6-4.2-5.8-10.5-10.4-15.2c-0.9-0.9-1.7-1.7-2.5-2.5
				c-2.5-2.7-3.2-6.2-1.8-9.1c1.5-3,4.6-4.8,8.4-4.8c0.4,0,0.7,0,1.1,0.1c0.5,0,1,0.1,1.5,0.1c6.8,0,9-4.4,9-4.5l0.2,0.1
				c0,0.1-2.3,4.6-9.2,4.6c-0.5,0-1,0-1.5-0.1c-0.4,0-0.7,0-1.1,0c-3.7,0-6.8,1.7-8.3,4.7c-1.4,2.9-0.8,6.3,1.7,8.9
				c0.7,0.8,1.6,1.6,2.5,2.5c4.6,4.7,11,11.1,10.4,15.3C314.5,254.8,313.8,255.8,312.5,256.5z"/>
		</g>
		<g>
			<path class="st15" d="M320.8,242.2c-2.2,0-3.7-1-3.7-1c-0.1-0.1-0.1-0.2-0.1-0.3c0.1-0.1,0.2-0.1,0.3-0.1c0,0,3.3,2.1,6.9,0
				c0.1-0.1,0.2,0,0.3,0.1c0.1,0.1,0,0.2-0.1,0.3C323.1,241.9,321.9,242.2,320.8,242.2z"/>
		</g>
		<path class="st0" d="M417.7,276.1c0,0-18.1,20.3-19.9,69.1c0,0.7,0,1.4,0,1.4s-44.6-4-53.4-1.1c0,0-3.1-47.7,19.9-72.5
			L417.7,276.1z"/>
		<g>
			<path class="st11" d="M411.6,307.1c0,0,1.8-5.6-2.7-7.2c-5.8-2-18.8,5.2-5.5,6.1c0.4,0-7.6,0.9-7.5,3.3c0.1,1.9,6.9,2,6.9,2
				s-8.2,1-8.4,3c-0.2,2,6.9,2.2,6.9,2.2s-8.1,0-6.5,3c0.9,1.7,8.2,1.7,11,1.8c2.7,0.1,3.7-1.8,3.8-4.6c0,0,1.6-2.9,1.2-4.8
				c-0.1-0.7,0.5-1.4,0.6-1.9C411.6,308.9,411.6,307.1,411.6,307.1z"/>
		</g>
	</g>
	<g>
		<path class="st11" d="M586.8,368.7c-1.5,2.4-3.4,7.8-4.8,10.2c-0.6,1-2.5,4.7-1.6,5.5c0.8,0.7,3.7-1.5,4.9-2.7
			c0.5,8.1,4.8,19.7,5,2.6c0,0,0,0,0,0c0.1,1.7,0.9,11.3,3.1,10.2c1.9-1,1.7-7.8,1.5-10.7c0,0,0.1,0,0.1,0c0.5,2.9,1.7,9.7,3.3,8.2
			c1.9-1.9,1.8-9.5,1.8-9.5s0.4,9.6,2.9,7.7c1.4-1.1,0.6-6.6,0.1-10v0c0,0,0,0,0,0c-0.1-0.7-0.2-1.3-0.3-1.8c-0.1-0.4-0.1-0.7-0.3-1
			c-1.3-5.7-3-9.1-3-9.1s-1.3-4.4-6.3-4C589.9,364.7,587.4,367.7,586.8,368.7z"/>
		<g>
			<path class="st26" d="M583,369.9c-18-11.8,1.3-48.5-6.2-73.8c-1.7-5.9-2.5-8.1-4-11.3c-1.2-2.6,2-7.7,6.5-9.9
				c4.2-2,14.3-0.7,15.1,0.7c12.1,20.3,16.1,53.5,10,96C604.5,371.5,590.7,375,583,369.9z"/>
		</g>
		<path class="st15" d="M504.7,369.3c0.1,3.3,20.2,4.6,45.1,3.9s44.8-4.2,44.7-7.5c-0.1-3.3-20.1-5.3-45-4.5
			C524.6,361.9,504.6,366,504.7,369.3z"/>
		<path class="st26" d="M510.8,275.1c0,0,4.4-17.4,36.9-17.6c46.8-0.3,42.5,42.8,46.8,108.1c0,0-46.1-6.5-89.8,2.9
			C504.6,368.5,500.6,301.8,510.8,275.1z"/>
		<path class="st26" d="M498.8,272.6l21.2,11.7c0,0,46.4,4.2,58.7,2.2c12.3-2,15.7-11.1,15.7-11.1s-13.1-13.6-35.4-17.2
			c-2.1-0.3-4.3-0.6-6.5-0.7c-3.8-0.2-7.6-0.2-11.3,0.2C512.9,260.9,498.8,272.6,498.8,272.6z"/>
		<g>
			<path class="st26" d="M494.7,368.5c2-21.5,17.8-77.7,19.7-80.8c1.5-2.5-1.2-7.9-5.4-10.5c-4-2.4-9.1-5.5-10.2-4.5
				c-16.7,14.1-31,65.5-26.5,94L494.7,368.5z"/>
		</g>
		<path class="st11" d="M537.1,258.3c3.4,4.1,9.4,3.6,14.1,1.5c3.8-1.7,3.3-1.6,2.7-2.3c-1.3-1.5-2.3-1.9-2.4-3.6l-0.1-2.3l0-0.3
			l-0.1-3l-0.2-5.1l-0.5-13.5l-4.2,13.5l-0.7,2.3l-2.4,7.9C542.4,256.1,537.1,258.3,537.1,258.3z"/>
		<path class="st15" d="M545.1,247.6c0,0,2,3.3,6.3,4l0-0.3l-0.1-3C549,248.1,545.1,247.6,545.1,247.6z"/>
		<path class="st27" d="M572.6,338c0,0-1.4,12.4-10.2,19.2c0,0-5.5-3.6-9.5-9.5c-1.9-2.7-3.5-6-4-9.7c-0.2-1.6-0.3-4.7-0.2-8.6
			c0.1-3.2,0.3-6.9,0.5-11c0.4-7.2,0.9-15.4,1.3-23c0.2-4.2,0.4-8.3,0.5-12c0.2-7.8,0-14-1-16.1l4.2-1.3c0,0,1.8,4.7,4.3,11.8
			c0.9,2.7,2,5.8,3.1,9.1c1.7,5.3,3.5,11.2,5.2,17.1c0.9,3.3,1.8,6.6,2.5,9.8c1.6,6.6,2.7,13,3.1,18.3
			C572.7,334.2,572.7,336.1,572.6,338z"/>
		<path class="st15" d="M472.3,366.6c-0.1,3.1,4.8,5.9,11.1,6.2c6.2,0.3,11.4-1.9,11.5-5c0.1-3.1-4.8-5.9-11.1-6.2
			C477.6,361.2,472.4,363.5,472.3,366.6z"/>
		<g>
			<path class="st15" d="M594.7,365.7l-0.5,0c0-0.5,3.8-46.6-9.6-75.1l0.5-0.2C598.5,318.9,594.7,365.2,594.7,365.7z"/>
		</g>
		<g>
			<path class="st15" d="M504.1,324.2l-0.5-0.1c3.6-14.5,10.9-24.9,11-25l0.4,0.3C515,299.5,507.6,309.8,504.1,324.2z"/>
		</g>
		<path class="st23" d="M555.4,221.2c0,0,1.9,2.8,2.4,7c0.6,4.2-6.7-4-6.7-4L555.4,221.2z"/>
		
			<ellipse transform="matrix(0.8924 -0.4512 0.4512 0.8924 -46.8749 272.5141)" class="st11" cx="548" cy="234.6" rx="12" ry="14.5"/>
		<path class="st23" d="M535.6,236.2l5.3-2.5c1.2-0.5,2-1.6,2.3-2.8c0.5-2.2,1.5-3.5,6.7-5.1c6.6-2,9.5-7.4,9-11.1
			c-0.5-3.7-4.6-4.9-7.3-2.1c-2.7,2.8-2.7-1.7-6-1.1c-6.1,1.3-5.7,6.2-10.5,7.7c-6.4,2-15.9,10.7-6.7,19.9L535.6,236.2z"/>
		<g>
			<path class="st16" d="M549.2,233c0-0.1,0.1-0.1,0-0.2c0-0.1-0.2-0.2-0.3-0.2c-0.1,0-1.9,0.3-2.1,2.4c0,0.1,0.1,0.3,0.2,0.3
				c0.1,0,0.2-0.1,0.3-0.2c0.5-1.3,1.7-2,1.8-2C549.1,233,549.1,233,549.2,233z"/>
		</g>
		<path class="st16" d="M549.2,236.3c0.3,0.5,0.9,0.7,1.2,0.4c0.3-0.2,0.4-0.8,0-1.3c-0.3-0.5-0.9-0.7-1.2-0.4
			C548.9,235.2,548.9,235.8,549.2,236.3z"/>
		<g>
			<path class="st16" d="M556.8,229c0,0,0.1-0.1,0.1-0.2c0-0.1-0.1-0.2-0.2-0.3c-0.1,0-1.7-0.4-2.1,1.4c0,0.1,0,0.2,0.1,0.3
				c0.1,0.1,0.2,0,0.3-0.1c0.5-0.9,1.7-1.1,1.7-1.1C556.7,229,556.7,229,556.8,229z"/>
		</g>
		<path class="st16" d="M555.9,232.2c0.2,0.5,0.7,0.9,1.1,0.7s0.6-0.7,0.4-1.2c-0.2-0.5-0.7-0.9-1.1-0.7
			C555.9,231.1,555.7,231.7,555.9,232.2z"/>
		<path class="st23" d="M528.5,239.1c0,0,6.7,6.9,12.3,5.6c0,0-6.5-4.7,1.3-11.7C542,232.9,533.1,234.5,528.5,239.1z"/>
		<path class="st11" d="M537.6,240.9c1.4,0.3,2.8-0.4,3.1-1.7c0.3-1.3-0.6-2.5-2-2.9c-1.4-0.3-2.8,0.4-3.1,1.7
			C535.3,239.3,536.2,240.6,537.6,240.9z"/>
		<g>
			<path class="st23" d="M557.1,213.9c-1.5,0-1.9-1.3-1.9-1.4c0-0.1,0-0.3,0.2-0.3c0.1,0,0.3,0,0.3,0.2l0,0c0,0.1,0.3,1.1,1.8,0.9
				c0.1-0.1,0.3,0.1,0.3,0.2c0,0.1-0.1,0.3-0.2,0.3C557.5,213.9,557.3,213.9,557.1,213.9z"/>
		</g>
		<g>
			<path class="st0" d="M551.2,223.2l-0.1-0.1c0.1,0,6.3-4.5,5.3-8.2c-0.3-1-0.7-1.6-1.2-1.9c-0.9-0.3-2,0.4-3,1
				c-0.2,0.1-0.3,0.2-0.5,0.3l-0.1-0.1c0.1-0.1,0.3-0.2,0.5-0.3c1-0.7,2.2-1.4,3.2-1c0.6,0.2,1,0.9,1.3,2
				C557.5,218.6,551.4,223,551.2,223.2z"/>
		</g>
		<g>
			<path class="st0" d="M532.9,221.4l0-0.2c7.1-1.5,9-6.4,9-6.4l0.2,0.1C542,214.9,540.1,219.9,532.9,221.4z"/>
		</g>
		<path class="st28" d="M551.1,283.2c0.2-7.8,0-14-1-16.1l4.2-1.3c0,0,1.8,4.7,4.3,11.8C556.1,279.5,553.3,281.5,551.1,283.2z"/>
		<path class="st28" d="M566.8,303.9c-6,4.6-14.4,11.2-17.5,14.4c0.4-7.2,0.9-15.4,1.3-23l11.1-8.5
			C563.4,292.1,565.2,298,566.8,303.9z"/>
		<path class="st28" d="M572.5,332c-5.4,4.2-13.9,11-19.5,15.7c-1.9-2.7-3.5-6-4-9.7c-0.2-1.6-0.3-4.7-0.2-8.6l20.6-15.7
			C570.9,320.3,572.1,326.6,572.5,332z"/>
		<path class="st27" d="M547.7,260.4c0,0,5.7-1.8,7.2-0.4c1.5,1.4,0.4,7.6-2.2,8.2C550.1,268.8,545.1,261.9,547.7,260.4z"/>
		<path class="st29" d="M551.1,258.9c0,0-7.4-2.6-8.9-5.3c-1.5-2.6-9.2,3.4-9,5.3c0.1,1.8,14,11.9,14.9,10.6
			C549,268.3,552.9,260.7,551.1,258.9z"/>
		<path class="st29" d="M551.1,258.9c0,0,1.1-2.8,0.6-4.3c0,0-0.4-1.3,0.8-1.2c1.1,0.1,7.3,4.4,7.8,5.7c0.5,1.3,0.6,7.5-1.4,7.9
			c-2,0.5-6.8-6.2-7.4-6.8C551,259.6,551.1,258.9,551.1,258.9z"/>
		<g>
			<path class="st15" d="M552.7,268.4c-1.7,0-3.1-1.5-3.2-1.5l0.2-0.2c0,0,1.4,1.5,3,1.5c0,0,0,0,0,0c1.5,0,2.4-3.3,2.5-3.4l0.3,0.1
				C555.4,264.9,554.4,268.3,552.7,268.4C552.7,268.4,552.7,268.4,552.7,268.4z"/>
		</g>
		<g>
			<path class="st15" d="M553.5,241.5c-0.7,0-1.4-0.1-2.3-0.4c-0.1-0.1-0.2-0.2-0.2-0.3c0-0.1,0.2-0.2,0.3-0.2
				c4,1.5,5.5-1.5,5.6-1.6c0.1-0.1,0.2-0.2,0.3-0.1c0.1,0.1,0.2,0.2,0.1,0.3C557.4,239.2,556.3,241.5,553.5,241.5z"/>
		</g>
		<path class="st11" d="M494.3,377.4c-0.7-1.3-1.4-3.5-2.2-5.6c-0.6-1.7-1.9-5.1-2.4-6.2c-1.1-2.6-8-2.9-10.4-1.5
			c-2.3,1.4-3.2,5.3-4.8,10.6c-0.1,0.3-0.2,0.6-0.3,1c-0.6,2.6-1.8,6.1-0.3,7.5c1.7,1.5,2.8-1.1,3.2-2.5c-0.3,1.3-0.6,3.7,0.6,5.1
			c1.3,1.5,2.8-2.5,3.5-4.6c0,0,0,0,0,0c-0.5,1.8-1.1,5.4,0.6,6.3c2,1.1,3.5-4.3,3.9-5.6c0,0,0.1,0,0.1,0c1.2,7.8,4.3,3.8,5-2.1
			c1.1,1.2,3.7,3.5,4.5,2.9C496.4,382.1,494.8,378.5,494.3,377.4z"/>
		<g>
			<path class="st15" d="M581.9,490.5c0,0-0.2,6.4,4,8.4c4.2,2,16.6,4.3,11.7,8.1c-2.8,2.2-15.3,0-18.9-0.2c-3.6-0.2-7,1.2-9.5-1.3
				c-2.8-2.8,0.8-15.7,0.8-15.7s3,1.8,5.8,1.8C579.8,491.9,581.9,490.5,581.9,490.5z"/>
		</g>
		<g>
			<path class="st15" d="M620,489.7c0,0-0.1,6.4,4.1,8.4c4.2,2,16.7,4.1,11.8,8c-2.8,2.2-15.3,0.2-18.9,0c-3.6-0.1-7,1.3-9.5-1.2
				c-2.8-2.7,0.7-15.7,0.7-15.7s3,1.7,5.8,1.8C618,491,620,489.7,620,489.7z"/>
		</g>
		<g>
			<g>
				<path class="st13" d="M616.8,494.7c7.4-0.3,13.3-6.4,13.3-13.8c0.2-41.9-2.1-63.2-15-81.5c-8.2-11.8-20.7-23.4-36.1-30.3
					c-13.3-6-24.6-8.9-39.6-9.6c-24.4-1.1-35.8,2.7-35.8,2.7c-17.8,38.3,10.9,43,32.1,43.7c0.7,0,1.4,0.1,2.1,0.1
					c12.8,0.6,35.7,3.6,44.5,16.3c7,10,11.9,24.1,14.4,60.7c0.5,7,6.4,12.4,13.5,12.1L616.8,494.7z"/>
			</g>
		</g>
		<g>
			<g>
				<path class="st13" d="M581.5,497.3c7.4-0.3,13.3-6.4,13.3-13.8c0.2-41.9-2.1-63.2-15-81.5c-8.2-11.8-20.5-20.7-36.4-26.3
					c-11.4-4-12.6-21.9-27.6-22.6c-24.4-1.1-30.8,1.4-30.8,1.4c-19.1,49,36.2,47.9,55.3,68.4c8.3,8.9,18.7,26,21.1,62.6
					c0.5,7,6.4,12.4,13.5,12.1L581.5,497.3z"/>
			</g>
		</g>
	</g>
	<g>
		<g>
			<g>
				<ellipse class="st20" cx="618.8" cy="371.6" rx="463" ry="23"/>
			</g>
			<g>
				<rect x="155.8" y="361" class="st20" width="925.9" height="10.6"/>
			</g>
			<g>
				<ellipse class="st30" cx="618.8" cy="361" rx="463" ry="23"/>
			</g>
		</g>
	</g>
	<g>
		<g>
			<path class="st11" d="M247.6,275.9l3.9-10.2l1.1-3l6.7-17.5l-0.4,17.8l-0.2,10.7l-0.1,3.4c-0.1,2.3,1.3,2.9,2.9,5
				c0.6,0.9,4.7,6-0.4,7.9c-6.4,2.4-17.8-2.5-21.9-8.3C239.2,281.7,246.4,279.2,247.6,275.9z"/>
		</g>
		<g>
			
				<ellipse transform="matrix(0.9977 -6.757487e-02 6.757487e-02 0.9977 -16.4258 18.0139)" class="st11" cx="258.1" cy="251.8" rx="15.9" ry="19.2"/>
		</g>
		<g>
			<path class="st23" d="M267.4,245.7c9.1,0.9,13.8-4.1,14.2-8.9c0.5-6.2-3-12-7.8-9.9c-4.7,2-2.4-3.5-6.7-4.4
				c-8.1-1.6-10,4.1-16.8,4c-8.9-0.2-19.9,13.9-13.2,25.2C237.2,251.6,260.3,245,267.4,245.7z"/>
		</g>
		<g>
			<path class="st23" d="M275.9,239.9c0,0-10.3,8.7-9.3,14.1c0.9,5.3,0.5,7.4-5.4,9.8c-5.8,2.4-1.1,7.3-8.7,7.2
				c-7.6-0.1-16.3-9.7-15.3-24.3c0.5-8.2,5.6-13.2,5.6-13.2L275.9,239.9z"/>
		</g>
		<g>
			
				<ellipse transform="matrix(0.852 -0.5236 0.5236 0.852 -94.0852 178.6174)" class="st11" cx="268.8" cy="255.7" rx="3.1" ry="3.5"/>
		</g>
		<g>
			<path class="st15" d="M269.4,259.2L269.4,259.2c0,0-2.3,0.6-3.6-2.5c0-0.1,0-0.1,0.1-0.2c0.1,0,0.1,0,0.1,0.1
				c1.2,2.9,3.2,2.4,3.3,2.3c0.1,0,0.1,0,0.1,0.1C269.4,259.1,269.4,259.1,269.4,259.2z"/>
		</g>
		<g>
			<path class="st15" d="M319.5,512.4c0,0,0.3,6.7,4.9,8.5c4.6,1.8,17.7,3.2,12.9,7.6c-2.8,2.5-16.1,1.2-19.8,1.3
				c-3.7,0.1-7.2,1.8-10.1-0.7c-3.1-2.7-0.3-16.5-0.3-16.5s3.3,1.6,6.2,1.5C317.5,513.9,319.5,512.4,319.5,512.4z"/>
		</g>
		<g>
			<path class="st15" d="M359.5,519.2c0,0,0.4,6.7,5,8.4c4.6,1.7,17.8,3,13,7.5c-2.7,2.6-16,1.4-19.8,1.5c-3.7,0.1-7.2,1.9-10.1-0.6
				c-3.1-2.7-0.5-16.5-0.5-16.5s3.3,1.6,6.2,1.4C357.4,520.8,359.5,519.2,359.5,519.2z"/>
		</g>
		<g>
			<g>
				<path class="st17" d="M356.4,524.8c7.7-0.9,13.4-7.7,12.9-15.5c-3-43.9-7.1-66-21.9-84.3c-9.5-11.7-23.4-22.9-40.1-29
					c-14.4-5.3-26.5-7.5-42.2-7c-25.6,0.7-37.3,5.5-37.3,5.5c-15.7,41.5,14.7,44.2,37,43.4c0.7,0,1.5,0,2.2-0.1
					c13.5-0.3,37.7,1,47.9,13.6c8.1,10,14.3,24.4,19.7,62.5c1,7.3,7.7,12.5,15,11.6L356.4,524.8z"/>
			</g>
		</g>
		<g>
			<g>
				<path class="st17" d="M317.7,517.1c7.7-0.9,13.5-7.2,13.1-14.3c-2.4-40-6.2-60.1-20.8-76.6c-9.4-10.6-22.7-18-39.8-22
					c-12.2-2.9-26.3-4-42-3.4c-25.6,1-17.8-11.8-17.8-11.8c-17.2,67.3,38.3,42.6,59.5,60.6c9.3,7.8,21.2,23.3,26.1,57.9
					c0.9,6.7,7.5,11.3,14.8,10.4L317.7,517.1z"/>
			</g>
		</g>
		<g>
			<path class="st19" d="M330,489.5c0-0.1-2-10-10.3-20.3c-7.6-9.5-22.4-21.4-49.1-23.9l0-0.3c11.8,1.1,22.4,4.1,31.2,8.9
				c7.1,3.9,13.2,8.9,18.1,15c8.3,10.4,10.3,20.3,10.3,20.4L330,489.5z"/>
		</g>
		<path class="st26" d="M320.7,327.2c-14-5.3-32.8-50-67.3-50c-79.3,0-53.6,126-53.6,126c56,59.5,98.8-11.6,98.8-11.6
			c0.4-5.7-1.6-21-2.1-27.9c11.9,11.8,89,9.7,95.8-9C401.8,327.9,358.3,341.4,320.7,327.2z"/>
		<g>
			<polygon class="st15" points="250.2,526.9 244.5,528.8 244.9,412.4 249.3,415.4 			"/>
		</g>
		<g>
			<path class="st15" d="M273.5,532.5c0,0-39.6,0.7-52.8,0.8c-1.5,0-2.5-2-2.5-3.5l0,0c0-1.5,2.1-3.2,3.6-3.2
				c12.9,0.1,51.7,0.5,51.7,0.5c1.5,0,2.6,1.2,2.6,2.6l0,0C276.2,531.4,275,532.5,273.5,532.5z"/>
		</g>
		<g>
			<path class="st15" d="M220.1,537.3c0.5-2.9,3-4.7,6-4.7c2.9,0,6,1.9,6,4.9c0,3.7-3.7,6.2-6.6,6.2S219.5,540.9,220.1,537.3z"/>
		</g>
		<g>
			<path class="st15" d="M262.3,537.3c0.5-2.9,3-4.7,6-4.7s6,1.9,6,4.9c0,3.7-3.7,6.2-6.6,6.2C264.7,543.6,261.7,540.9,262.3,537.3z
				"/>
		</g>
		<g>
			<path class="st15" d="M230.6,449.6c0,0-1.4,9.4,13.2,12.5c14.6,3,20.9-12.5,20.9-12.5H230.6z"/>
		</g>
		<g>
			<path class="st31" d="M273.9,413.3c0.2-17.7-8.9-53.3-26.8-75c-18.8-22.8-62-30.8-72.8-6.1s19.2,95.1,19.2,95.1
				s6.3,18.3,12.5,22.3c15,9.9,86.6,7.7,98-3.2C328.6,422.9,293.3,408.7,273.9,413.3z"/>
		</g>
		<g>
			<path class="st32" d="M296.3,364.1c-0.1,0-0.2,0-0.3-0.1c-10.8-7.9-25.6-24.5-25.8-24.7c-0.2-0.2-0.2-0.5,0-0.6
				c0.2-0.2,0.5-0.1,0.6,0c0.1,0.2,14.9,16.7,25.6,24.5c0.2,0.1,0.2,0.4,0.1,0.6C296.6,364,296.5,364.1,296.3,364.1z"/>
		</g>
		<g>
			<path class="st32" d="M307,338.5c-0.1,0-0.1,0-0.2,0c-0.2-0.1-0.3-0.4-0.2-0.6c0-0.1,4.4-10.4,14-11.1c0.2,0,0.5,0.2,0.5,0.4
				c0,0.2-0.2,0.5-0.4,0.5c-9,0.6-13.2,10.5-13.3,10.6C307.4,338.4,307.2,338.5,307,338.5z"/>
		</g>
	</g>
	<g>
		<path class="st11" d="M607.5,463.9c0,0,12,66.2,19,66.2c7,0,12.1-1.6,13.9-7.1c1.8-5.4-3.2-65-3.2-65L607.5,463.9z"/>
		<path class="st11" d="M667.9,459c0,0,14.6,65.6,8.2,68.3s-11.5,5.1-15.3,0.8s-21.3-63.4-21.3-63.4L667.9,459z"/>
		<path class="st11" d="M641.2,288l2.4-10.2l0.7-3l4.1-17.4l2,16.9l1.2,10.1l0.4,3.2c0.3,2.2,1.6,2.5,3.4,4.3
			c0.7,0.7,5.3,5.1,0.7,7.5c-5.8,3.1-17.3-0.1-22-5C634,294.5,640.5,291.3,641.2,288z"/>
		
			<ellipse transform="matrix(0.9767 -0.2147 0.2147 0.9767 -41.5361 145.2553)" class="st11" cx="648" cy="263.9" rx="15.3" ry="18.3"/>
		<path class="st23" d="M656.1,239.9c0,0,7.1,2.5,8.2,9.3c1.1,6.8-11,11.4-12.5,19.2c-1.4,7.8-5.1,17.1-13.7,11.4
			c-8.6-5.7-15.1-13.8-11.3-25.7C630.7,242.1,640.3,231.9,656.1,239.9z"/>
		<g>
			<path class="st11" d="M656.1,265.2c-1.2-1.4-3.1-1.7-4.4-0.7c-1.3,1-1.4,3-0.2,4.4c1.2,1.4,3.1,1.7,4.4,0.7
				C657.2,268.6,657.3,266.6,656.1,265.2z"/>
			<g>
				<path class="st15" d="M654,270.4c-0.8,0-1.9-0.3-2.9-2c0-0.1,0-0.1,0-0.2c0.1,0,0.1,0,0.2,0c1.5,2.6,3.4,1.8,3.5,1.8
					c0,0,0.1,0,0.1,0.1c0,0.1,0,0.1-0.1,0.1C654.7,270.3,654.4,270.4,654,270.4z"/>
			</g>
		</g>
		<ellipse class="st15" cx="640.9" cy="357.7" rx="42.2" ry="66.8"/>
		<path class="st17" d="M598.7,418.6c-16.1,17.4,7.3,48.8,7.3,48.8s56.7,6.2,76.5,0l-9.6-49.3C673,418.2,614.2,402,598.7,418.6z"/>
		<g>
			<path class="st15" d="M620.2,518.7c0,0-0.1,15.2,12.2,12.9s8.4-15.1,8.4-15.1S632.6,508.8,620.2,518.7z"/>
			<polygon class="st15" points="626.5,530.1 629.5,536 636.5,535.1 637.2,528.6 			"/>
		</g>
		<g>
			<path class="st15" d="M657.1,519.8c0,0,1.7,15.1,13.6,11.4s6.6-15.9,6.6-15.9S668.2,508.5,657.1,519.8z"/>
			<polygon class="st15" points="664.6,530.3 668.4,535.9 675.2,534.1 675.1,527.6 			"/>
		</g>
		<path class="st15" d="M645.1,291.2c0,0,28.2,5.1,38.5,15.2c10.3,10,34,57,26.8,63.8c-7.3,6.7-37.3-1-37.3-1L645.1,291.2z"/>
		<path class="st23" d="M635.5,265.1c0,0-14.7,8.2-11.2,19c3.5,11.1-17.1,8.6-17.9,23.9c-0.6,10.3,5.2,15.8,16.7,13.4
			c11.5-2.4,6.6,14.6,19,6.8s10.7-2.9,23.7-1.7c13,1.2,18.8-13.4,7.3-23.7c-9.1-8.2-3.2-13.8-9.4-15.9c-9.2-3.1-8.9-16.7-19.4-18.6
			C638.7,267.4,635.5,265.1,635.5,265.1z"/>
	</g>
	<g>
		<g>
			<g>
				<path class="st11" d="M947,349.4c0,0-18.1-1.8-22.9,2.1c-4.8,3.8-8.2,12.5-4.7,10.8c3.5-1.7,7.3-5.2,7.3-5.2s-7.9,7.8-5.4,8.9
					c2.6,1.1,9.4-5.7,9.4-5.7s-8.7,10.1-6,10.3c2.8,0.2,9.3-7.4,9.3-7.4s-7.7,9.7-4.5,9.9c3.2,0.2,6.3-8.1,8.9-6.9
					c2.6,1.1,9.8,7.3,13.7,0.3L947,349.4z"/>
			</g>
			<g>
				<path class="st12" d="M926.9,357.2l-0.4-0.3c0.1-0.1,2-2.6,4-2.5l0,0.5C928.8,354.7,926.9,357.1,926.9,357.2z"/>
			</g>
			<g>
				<path class="st12" d="M930.9,360.3l-0.4-0.3c0.1-0.1,1.9-2.6,4.7-3l0.1,0.5c-0.1,0-0.3,0-0.4,0.1
					C932.6,358.1,930.9,360.3,930.9,360.3z"/>
			</g>
			<g>
				<path class="st12" d="M934.3,363.2l-0.4-0.3c0.1-0.1,2.4-3.2,4.5-2.8l-0.1,0.5C936.5,360.3,934.3,363.2,934.3,363.2z"/>
			</g>
		</g>
		<g>
			<g>
				<path class="st24" d="M968,503.7c3-43.9,1.4-66.8,16.3-85c9.5-11.7,23.4-22.9,40.1-29c14.4-5.3,26.5-7.5,42.2-7
					c25.6,0.7-1.2,48.8-1.9,48.8c-13.5-0.3-48.7,2.2-58,15.5c-2.2,3.1-4.5,25.4-14.9,65.4c-1.2,4.5-29.2,12.4-36,11
					C951.8,522.6,967.8,506.7,968,503.7z"/>
			</g>
		</g>
		<path class="st15" d="M993.3,506.7c0,0-10,3.6-14.9,8c-4.9,4.4-16.9-0.5-18.7,0c-1.8,0.5-10.7,9-8.6,10.8
			c2.1,1.7,23.3,2.6,27.2-0.7c3.9-3.3,11.3-4.8,13.9-5.4S995.2,507.7,993.3,506.7z"/>
		<rect x="984.8" y="517.8" class="st15" width="7.7" height="7.7"/>
		<g>
			<g>
				<path class="st11" d="M942.4,510.7c3-43.9,1.4-66.8,16.3-85c9.5-11.7,23.4-22.9,40.1-29c14.4-5.3,26.5-7.5,42.2-7
					c25.6,0.7,37.3,5.5,37.3,5.5c15.7,41.5-14.7,44.2-37,43.4c-0.7,0-1.5,0-2.2-0.1c-13.5-0.3-48.7,2.2-58,15.5
					c-2.2,3.1-4.5,25.4-14.9,65.4c-1.2,4.5-29.2,12.4-36,11C926.3,529.5,942.2,513.6,942.4,510.7z"/>
			</g>
		</g>
		<path class="st33" d="M967.7,513.7c0,0-10,3.6-14.9,8c-4.9,4.4-16.9-0.5-18.7,0c-1.8,0.5-10.7,9-8.6,10.8s23.3,2.6,27.2-0.7
			c3.9-3.3,11.3-4.8,13.9-5.4C969.2,525.7,969.6,514.7,967.7,513.7z"/>
		<rect x="959.2" y="524.7" class="st33" width="7.7" height="7.7"/>
		<path class="st15" d="M1025,358.9c0,0-4.7,25.2-15.4,31.5c-10.7,6.3-43.5,17.9-56.6,38.5c0,0,19,24.2,31.8,25.7
			c12.9,1.5,25-1.5,25-1.5s5.4-11.8,20.6-11.2c15.1,0.6,51.4-4.5,50.8-30.9C1080.5,384.7,1025,358.9,1025,358.9z"/>
		<path class="st11" d="M1057.3,283.9l-2.4-10.2l-0.7-3l-4.1-17.4l-2,16.9l-1.2,10.1l-0.4,3.2c-0.3,2.2-1.6,2.5-3.4,4.3
			c-0.7,0.7-5.3,5.1-0.7,7.5c5.8,3.1,17.3-0.1,22-5C1064.6,290.4,1058.1,287.1,1057.3,283.9z"/>
		
			<ellipse transform="matrix(0.2147 -0.9767 0.9767 0.2147 571.3641 1230.0088)" class="st11" cx="1050.5" cy="259.7" rx="18.3" ry="15.3"/>
		<path class="st15" d="M1042.4,235.8c0,0-7.1,2.5-8.2,9.3c-1.1,6.8,11,11.4,12.5,19.2c1.4,7.8,5.1,17.1,13.7,11.4
			c8.6-5.7,15.1-13.8,11.3-25.7C1067.8,237.9,1058.2,227.7,1042.4,235.8z"/>
		<path class="st26" d="M1015.4,382.2c-6.1,17.1,18.2,17.6,41.5,17.6s42.9-9.3,42.9-46.2c0-36.9-18.9-66.8-42.2-66.8
			c-15.2,0-31.8,20.3-39,47.8C1014.8,349.2,1020.1,369,1015.4,382.2z"/>
		<path class="st24" d="M988.6,457.1c0,0,5.6-6.7,11.2-8.8c0,0-3.2,5.7-3.3,9.7C996.3,462,988.6,457.1,988.6,457.1z"/>
		<path class="st26" d="M1053.4,287.1c0,0-19.3,0.3-29.8,13.4c-5.6,7.1-20.4,35.3-30.8,39.8c-12,5.1-48.2,8.4-48.2,8.4
			s-1,4.4,0.5,10.3c2.2,8.5,8.7,11,8.7,11s50.7,3.9,63.3-3c4.9-0.9,25.4-21,25.4-21L1053.4,287.1z"/>
		<path class="st15" d="M1090.6,287.8c-0.7-2.1-3.2-4-2.2-6c0.2-0.4,0.6-0.8,0.7-1.3c0.3-1.4-1.7-2.1-2.2-3.4
			c-0.5-1.2,0.3-2.6,0.1-3.8c-0.3-1.6-2.4-2.6-2.5-4.3c-0.1-1.3,1-2.4,0.9-3.7c-0.1-1.8-2.3-2.6-3-4.2c-0.6-1.4,0.2-3,0.1-4.5
			c-0.2-2.9-3.3-4.6-4.8-7.1c-0.9-1.4-1.3-3.1-1.8-4.6c-2.3-6.4-7.9-11.4-14.4-13.1c-6.5-1.7-13.9,0.1-18.9,4.6l-0.1,4
			c0.4,3.3-0.2,6.8,0.9,10c0.4,1.3,1.1,2.5,1.6,3.8c0.8,2.1,1.1,4.4,1.4,6.6c0.8,5.7,1.5,11.9-1,17.1c-2.2,4.5-6.4,7.6-8.8,12
			c-0.5,0.9-0.7,2.5,0.3,2.7c0.5,0.1,1.1-0.2,1.6-0.1c1,0.1,1.3,1.4,1.9,2.2c1.1,1.4,3.2,1.2,4.8,0.4c1.6-0.7,3.1-1.8,4.9-1.7
			c2,0.1,3.9,1.6,5.8,1c0.8-0.3,1.5-0.9,2.3-1.2c2.3-0.7,4.6,1.9,7,1.7c1.8-0.1,3.2-1.8,5-2.1c2.9-0.4,5.7,3,8.4,1.8
			c1-0.4,1.7-1.4,2.7-1.9c1.9-0.9,4.1,0.5,6.2,0.3C1089.6,292.8,1091.4,290.1,1090.6,287.8z"/>
		<g>
			<path class="st11" d="M1042.4,261c1.2-1.4,3.1-1.7,4.4-0.7c1.3,1,1.4,3,0.2,4.4c-1.2,1.4-3.1,1.7-4.4,0.7
				C1041.4,264.4,1041.3,262.4,1042.4,261z"/>
			<g>
				<path class="st15" d="M1044.6,266.2c-0.5,0-0.8-0.1-0.8-0.1c-0.1,0-0.1-0.1-0.1-0.1c0-0.1,0.1-0.1,0.1-0.1
					c0.1,0,1.9,0.8,3.5-1.8c0-0.1,0.1-0.1,0.2,0c0,0,0.1,0.1,0,0.2C1046.5,265.9,1045.4,266.2,1044.6,266.2z"/>
			</g>
		</g>
		<g>
			<path class="st15" d="M1017.1,367.3c-0.1,0-0.3-0.1-0.4-0.2c-0.1-0.2-0.1-0.5,0.1-0.6c0.1-0.1,10.2-6.8,15.5-11.7
				c0.2-0.2,0.5-0.2,0.6,0c0.2,0.2,0.2,0.5,0,0.6c-5.4,5-15.5,11.8-15.6,11.8C1017.2,367.3,1017.2,367.3,1017.1,367.3z"/>
		</g>
	</g>
	<g>
		<path class="st15" d="M639,272.7c-0.2,0-0.5,0-0.7-0.1c-2.6-0.9-7.1-0.3-8.6,0.1c-1.1,0.3-2.2-0.4-2.4-1.5
			c-0.2-1.1,0.4-2.2,1.5-2.4c0.7-0.2,6.7-1.4,10.9,0.1c1.1,0.4,1.6,1.6,1.2,2.6C640.6,272.2,639.9,272.7,639,272.7z"/>
	</g>
	<g>
		<g>
			<polygon class="st15" points="1045.4,530.6 1051.1,532.4 1050.8,416 1046.4,419 			"/>
		</g>
		<g>
			<path class="st15" d="M1022.1,536.2c0,0,39.6,0.7,52.8,0.8c1.5,0,2.5-2,2.5-3.5l0,0c0-1.5-2.1-3.2-3.6-3.2
				c-12.9,0.1-51.7,0.5-51.7,0.5c-1.5,0-2.6,1.2-2.6,2.6l0,0C1019.5,535,1020.7,536.2,1022.1,536.2z"/>
		</g>
		<g>
			<path class="st15" d="M1075.6,540.9c-0.5-2.9-3-4.7-6-4.7c-2.9,0-6,1.9-6,4.9c0,3.7,3.7,6.2,6.6,6.2
				C1073.2,547.3,1076.2,544.6,1075.6,540.9z"/>
		</g>
		<g>
			<path class="st15" d="M1033.3,540.9c-0.5-2.9-3-4.7-6-4.7c-2.9,0-6,1.9-6,4.9c0,3.7,3.7,6.2,6.6,6.2
				C1031,547.3,1033.9,544.6,1033.3,540.9z"/>
		</g>
		<g>
			<path class="st15" d="M1065,439c0,0,1.4,9.4-13.2,12.5c-14.6,3-20.9-12.5-20.9-12.5H1065z"/>
		</g>
		<g>
			<path class="st31" d="M1021.7,402.8c-0.2-17.7,8.9-53.3,26.8-75c18.8-22.8,62-30.8,72.8-6.1c10.8,24.6-19.2,95.1-19.2,95.1
				s-6.3,18.3-12.5,22.3c-15,9.9-86.6,7.7-98-3.2C967.1,412.3,1002.4,398.1,1021.7,402.8z"/>
		</g>
	</g>
	<g>
		<g>
			<path class="st11" d="M564,302.9c4.7-6,4.7-14,1.8-11.1c-2.8,2.9-5.4,7.6-5.4,7.6s5.1-10.3,2.1-10.4c-2.9-0.1-7.3,8.9-7.3,8.9
				s5-12.7,2.2-12c-2.8,0.8-6.6,10.5-6.6,10.5s4.2-12,1-11.1c-3.3,1-3.8,8.4-6.4,9.9c-3.9,2.1-10.6,7.5-8.9,15.2
				c0,0,17.4,11.4,17.8,6.4c0.6-8.4,12.6-8.8,15.3-12.2C571.5,302.3,567.4,302.4,564,302.9z"/>
			<g>
				<path class="st12" d="M551.5,294.4c-0.6,1.1-1.3,2.4-2.6,2.8c-0.3,0.1-0.2,0.7,0.2,0.5c1.4-0.5,2.2-1.8,2.9-3.1
					C552.1,294.4,551.6,294.1,551.5,294.4L551.5,294.4z"/>
			</g>
			<g>
				<path class="st12" d="M555.3,296.4c-0.2,0.6-0.6,1.1-1.1,1.6c-0.3,0.2,0.1,0.6,0.4,0.4c0.6-0.5,1-1.1,1.2-1.8
					C556,296.2,555.4,296.1,555.3,296.4L555.3,296.4z"/>
			</g>
			<g>
				<path class="st12" d="M560.6,298c-0.2,0.5-0.6,0.9-1,1.3c-0.3,0.2,0,0.7,0.3,0.5c0.5-0.4,0.9-0.9,1.2-1.5
					C561.2,298,560.7,297.7,560.6,298L560.6,298z"/>
			</g>
			<g>
				<path class="st12" d="M547.6,309.7c0.2-4.2,3.6-5.1,7.2-5.4c3.1-0.3,6.2-0.8,9.3-1.2c0.4-0.1,0.2-0.6-0.2-0.5
					c-2.4,0.4-4.9,0.7-7.4,1c-1.8,0.2-3.6,0.2-5.3,0.7c-2.7,0.8-4.1,2.7-4.3,5.4C547,310.1,547.6,310.1,547.6,309.7L547.6,309.7z"/>
			</g>
		</g>
		<g>
			<path class="st11" d="M449.7,282.5l3.9-10.2l1.1-3l6.7-17.5l-0.4,17.8l-0.2,10.7l-0.1,3.4c-0.1,2.3,1.3,2.9,2.9,5
				c0.6,0.9,4.7,6-0.4,7.9c-6.4,2.4-17.8-2.5-21.9-8.3C441.3,288.3,448.4,285.9,449.7,282.5z"/>
		</g>
		<g>
			
				<ellipse transform="matrix(0.9977 -6.758153e-02 6.758153e-02 0.9977 -16.4118 31.6848)" class="st11" cx="460.1" cy="258.4" rx="15.9" ry="19.2"/>
		</g>
		<g>
			<path class="st15" d="M469.5,252.3c9.1,0.9,13.8-4.1,14.2-8.9c0.5-6.2-3-12-7.8-9.9c-4.7,2-2.4-3.5-6.7-4.4
				c-8.1-1.6-10,4.1-16.8,4c-8.9-0.2-19.9,13.9-13.2,25.2C439.3,258.2,462.3,251.6,469.5,252.3z"/>
		</g>
		<g>
			<path class="st15" d="M477.9,246.5c0,0-10.3,8.7-9.3,14.1c0.9,5.3,0.5,7.4-5.4,9.8c-5.8,2.4-1.1,7.3-8.7,7.2
				c-7.6-0.1-16.3-9.7-15.3-24.3c0.5-8.2,5.6-13.2,5.6-13.2L477.9,246.5z"/>
		</g>
		<g>
			<path class="st11" d="M473.5,260.7c-1-1.6-3-2.2-4.5-1.3c-1.5,0.9-1.8,2.9-0.8,4.6c1,1.6,3,2.2,4.5,1.3
				C474.2,264.4,474.5,262.3,473.5,260.7z"/>
		</g>
		<g>
			<path class="st15" d="M441.5,256.4c-0.1,0-0.1,0-0.2,0c-0.1-0.1-0.2-0.2-0.1-0.3c1-1.8,3.1-2.5,3.4-2.6c0,0,0,0,0,0
				c0.1,0,0.3,0,0.3,0.2c0,0.1,0,0.3-0.2,0.3c0,0,0,0,0,0c0,0,0,0,0,0c-0.2,0.1-2.2,0.7-3.1,2.4
				C441.6,256.3,441.6,256.3,441.5,256.4z"/>
		</g>
		<g>
			<path class="st15" d="M445.1,252.8c0,0-0.1,0-0.1,0c0,0-2.7-1-2.5-3.3c0-0.1,0.1-0.2,0.3-0.2c0.1,0,0.2,0.1,0.2,0.3
				c-0.2,1.9,2.1,2.8,2.2,2.8c0.1,0,0.2,0.2,0.1,0.3C445.2,252.7,445.2,252.8,445.1,252.8z"/>
		</g>
		<g>
			<path class="st15" d="M482.2,230.7c-0.1,0-0.1,0-0.2,0c-1.9-0.8-2.9-0.2-4,0.5c-0.5,0.3-1.1,0.7-1.8,0.9c-0.1,0-0.2,0-0.2,0.1
				c-0.5,0.1-1,0-1.4-0.3c-1.2-0.9-1.3-3.6-1.3-3.7c0-0.1,0.1-0.3,0.2-0.3c0.1,0,0.2,0.1,0.3,0.2c0,0,0.1,2.6,1.1,3.4
				c0.3,0.2,0.6,0.3,1,0.2c0.1,0,0.1,0,0.2,0c0.6-0.2,1.2-0.5,1.7-0.8c1.1-0.7,2.3-1.4,4.4-0.5c0.1,0.1,0.2,0.2,0.1,0.3
				C482.3,230.7,482.3,230.7,482.2,230.7z"/>
		</g>
		<g>
			<path class="st15" d="M455.8,230c-1.1,0.3-2.4,0.5-3.7,0.2c-0.1,0-0.2-0.2-0.2-0.3c0-0.1,0.2-0.2,0.3-0.2
				c3.6,0.8,6.9-1.9,6.9-1.9c0.1-0.1,0.3-0.1,0.3,0c0.1,0.1,0.1,0.3,0,0.3C459.3,228.2,457.8,229.4,455.8,230z"/>
		</g>
		<g>
			<path class="st15" d="M471.4,265.8L471.4,265.8c0,0-2.3,0.6-3.6-2.5c0-0.1,0-0.1,0.1-0.2c0.1,0,0.1,0,0.1,0.1
				c1.2,2.9,3.2,2.4,3.3,2.3c0.1,0,0.1,0,0.1,0.1C471.5,265.7,471.4,265.8,471.4,265.8z"/>
		</g>
		<g>
			<path class="st15" d="M521.6,519c0,0,0.3,6.7,4.9,8.5s17.7,3.2,12.9,7.6c-2.8,2.5-16.1,1.2-19.8,1.3c-3.7,0.1-7.2,1.8-10.1-0.7
				c-3.1-2.7-0.3-16.5-0.3-16.5s3.3,1.6,6.2,1.5C519.5,520.5,521.6,519,521.6,519z"/>
		</g>
		<g>
			<path class="st15" d="M561.5,525.8c0,0,0.4,6.7,5,8.4c4.6,1.7,17.8,3,13,7.5c-2.7,2.6-16,1.4-19.8,1.5c-3.7,0.1-7.2,1.9-10.1-0.6
				c-3.1-2.7-0.5-16.5-0.5-16.5s3.3,1.6,6.2,1.4C559.5,527.4,561.5,525.8,561.5,525.8z"/>
		</g>
		<g>
			<g>
				<path class="st17" d="M558.4,531.4c7.7-0.9,13.4-7.7,12.9-15.5c-3-43.9-7.1-66-21.9-84.3c-9.5-11.7-23.4-22.9-40.1-29
					c-14.4-5.3-26.5-7.5-42.2-7c-25.6,0.7-37.3,5.5-37.3,5.5c-15.7,41.5,14.7,44.2,37,43.4c0.7,0,1.5,0,2.2-0.1
					c13.5-0.3,37.7,1,47.9,13.6c8.1,10,14.3,24.4,19.7,62.5c1,7.3,7.7,12.5,15,11.6L558.4,531.4z"/>
			</g>
		</g>
		<g>
			<g>
				<path class="st17" d="M519.7,523.7c7.7-0.9,13.5-7.2,13.1-14.3c-2.4-40-6.2-60.1-20.8-76.6c-9.4-10.6-22.7-18-39.8-22
					c-12.2-2.9-26.3-4-42-3.4c-25.6,1-17.8-11.8-17.8-11.8c-17.2,67.3,38.3,42.6,59.5,60.6c9.3,7.8,21.2,23.3,26.1,57.9
					c0.9,6.7,7.5,11.3,14.8,10.4L519.7,523.7z"/>
			</g>
		</g>
		<g>
			<path class="st19" d="M532,496.1c0-0.1-2-10-10.3-20.3c-7.6-9.5-22.4-21.4-49.1-23.9l0-0.3c11.8,1.1,22.4,4.1,31.2,8.9
				c7.1,3.9,13.2,8.9,18.1,15c8.3,10.4,10.3,20.3,10.3,20.4L532,496.1z"/>
		</g>
		<path class="st15" d="M555,314.9c-1.4-0.8-12,0.1-18.4-8.9c-1.3-1.8-6.7,20.8-13.9,27.9c-11-10.2-32.8-50-67.3-50
			c-79.3,0-53.6,126-53.6,126c56,59.5,98.8-11.6,98.8-11.6c0.4-5.7-1.6-21-2.1-27.9c8.7,7.9,42,13.8,48.8-4.9
			C556.9,338.6,556.4,315.6,555,314.9z"/>
		<g>
			<polygon class="st15" points="452.2,533.5 446.5,535.4 446.9,419 451.3,422 			"/>
		</g>
		<g>
			<path class="st15" d="M475.6,539.1c0,0-39.6,0.7-52.8,0.8c-1.5,0-2.5-2-2.5-3.5l0,0c0-1.5,2.1-3.2,3.6-3.2
				c12.9,0.1,51.7,0.5,51.7,0.5c1.5,0,2.6,1.2,2.6,2.6l0,0C478.2,538,477,539.1,475.6,539.1z"/>
		</g>
		<g>
			<path class="st15" d="M422.1,543.9c0.5-2.9,3-4.7,6-4.7c2.9,0,6,1.9,6,4.9c0,3.7-3.7,6.2-6.6,6.2
				C424.5,550.2,421.5,547.5,422.1,543.9z"/>
		</g>
		<g>
			<path class="st15" d="M464.4,543.9c0.5-2.9,3-4.7,6-4.7c2.9,0,6,1.9,6,4.9c0,3.7-3.7,6.2-6.6,6.2
				C466.7,550.2,463.8,547.5,464.4,543.9z"/>
		</g>
		<g>
			<path class="st15" d="M432.7,456.2c0,0-1.4,9.4,13.2,12.5s20.9-12.5,20.9-12.5H432.7z"/>
		</g>
		<g>
			<path class="st31" d="M476,419.9c0.2-17.7-8.9-53.3-26.8-75c-18.8-22.8-62-30.8-72.8-6.1c-10.8,24.6,19.2,95.1,19.2,95.1
				s6.3,18.3,12.5,22.3c15,9.9,86.6,7.7,98-3.2C530.6,429.5,495.3,415.3,476,419.9z"/>
		</g>
		<g>
			<path class="st32" d="M498.4,370.7c-0.1,0-0.2,0-0.3-0.1c-10.8-7.9-25.6-24.5-25.8-24.7c-0.2-0.2-0.2-0.5,0-0.6
				c0.2-0.2,0.5-0.2,0.6,0c0.1,0.2,14.9,16.7,25.6,24.5c0.2,0.1,0.2,0.4,0.1,0.6C498.6,370.6,498.5,370.7,498.4,370.7z"/>
		</g>
		<g>
			<path class="st32" d="M534,354.2c-0.2,0-0.4-0.2-0.5-0.4c-0.9-12.3-11-19.6-11.2-19.6c-0.2-0.1-0.3-0.4-0.1-0.6
				c0.1-0.2,0.4-0.2,0.6-0.1c0.1,0.1,10.6,7.5,11.5,20.3C534.5,354,534.3,354.2,534,354.2C534.1,354.2,534,354.2,534,354.2z"/>
		</g>
	</g>
	<g>
		<g>
			<path class="st11" d="M818.9,280.7l-3.9-10.2l-1.1-3l-6.7-17.5l0.4,17.8l0.2,10.7l0.1,3.4c0.1,2.3-1.3,2.9-2.9,5
				c-0.6,0.9-4.7,6,0.4,7.9c6.4,2.4,17.8-2.5,21.9-8.3C827.2,286.5,820.1,284.1,818.9,280.7z"/>
		</g>
		<g>
			
				<ellipse transform="matrix(6.757821e-02 -0.9977 0.9977 6.757821e-02 497.7762 1045.8483)" class="st11" cx="808.4" cy="256.6" rx="19.2" ry="15.9"/>
		</g>
		<g>
			<path class="st23" d="M799.1,250.5c-9.1,0.9-13.8-4.1-14.2-8.9c-0.5-6.2,3-12,7.8-9.9c4.7,2,2.4-3.5,6.7-4.4
				c8.1-1.6,10,4.1,16.8,4c8.9-0.2,19.9,13.9,13.2,25.2C829.3,256.4,806.2,249.8,799.1,250.5z"/>
		</g>
		<g>
			<path class="st23" d="M790.6,244.7c0,0,10.3,8.7,9.3,14.1c-0.9,5.3-0.5,7.4,5.4,9.8s1.1,7.3,8.7,7.2c7.6-0.1,16.3-9.7,15.3-24.3
				c-0.5-8.2-5.6-13.2-5.6-13.2L790.6,244.7z"/>
		</g>
		<g>
			
				<ellipse transform="matrix(0.5236 -0.852 0.852 0.5236 158.0816 803.6938)" class="st11" cx="797.6" cy="260.5" rx="3.5" ry="3.1"/>
		</g>
		<g>
			<path class="st15" d="M797.1,264L797.1,264c0,0,2.3,0.6,3.6-2.5c0-0.1,0-0.1-0.1-0.2c-0.1,0-0.1,0-0.1,0.1
				c-1.2,2.9-3.2,2.4-3.3,2.3c-0.1,0-0.1,0-0.1,0.1C797,263.9,797.1,264,797.1,264z"/>
		</g>
		<g>
			<path class="st15" d="M747,517.2c0,0-0.3,6.7-4.9,8.5c-4.6,1.8-17.7,3.2-12.9,7.6c2.8,2.5,16.1,1.2,19.8,1.3
				c3.7,0.1,7.2,1.8,10.1-0.7c3.1-2.7,0.3-16.5,0.3-16.5s-3.3,1.6-6.2,1.5C749,518.7,747,517.2,747,517.2z"/>
		</g>
		<g>
			<path class="st15" d="M707,524c0,0-0.4,6.7-5,8.4c-4.6,1.7-17.8,3-13,7.5c2.7,2.6,16,1.4,19.8,1.5c3.7,0.1,7.2,1.9,10.1-0.6
				c3.1-2.7,0.5-16.5,0.5-16.5s-3.3,1.6-6.2,1.4C709.1,525.6,707,524,707,524z"/>
		</g>
		<g>
			<g>
				<path class="st17" d="M710.1,529.6c-7.7-0.9-13.4-7.7-12.9-15.5c3-43.9,7.1-66,21.9-84.3c9.5-11.7,23.4-22.9,40.1-29
					c14.4-5.3,26.5-7.5,42.2-7c25.6,0.7,37.3,5.5,37.3,5.5c15.7,41.5-14.7,44.2-37,43.4c-0.7,0-1.5,0-2.2-0.1
					c-13.5-0.3-37.7,1-47.9,13.6c-8.1,10-14.3,24.4-19.7,62.5c-1,7.3-7.7,12.5-15,11.6L710.1,529.6z"/>
			</g>
		</g>
		<g>
			<g>
				<path class="st17" d="M748.8,521.9c-7.7-0.9-13.5-7.2-13.1-14.3c2.4-40,6.2-60.1,20.8-76.6c9.4-10.6,22.7-18,39.8-22
					c12.2-2.9,26.3-4,42-3.4c25.6,1,17.8-11.8,17.8-11.8c17.2,67.3-38.3,42.6-59.5,60.6c-9.3,7.8-21.2,23.3-26.1,57.9
					c-0.9,6.7-7.5,11.3-14.8,10.4L748.8,521.9z"/>
			</g>
		</g>
		<g>
			<path class="st19" d="M736.5,494.3c0-0.1,2-10,10.3-20.3c7.6-9.5,22.4-21.4,49.1-23.9l0-0.3c-11.8,1.1-22.4,4.1-31.2,8.9
				c-7.1,3.9-13.2,8.9-18.1,15c-8.3,10.4-10.3,20.3-10.3,20.4L736.5,494.3z"/>
		</g>
		<path class="st26" d="M745.8,332c10.1-11.1,32.8-50,67.3-50c79.3,0,53.6,126,53.6,126c-56,59.5-98.8-11.6-98.8-11.6
			c-0.4-5.7,1.1-15.3,1.6-22.2C741.2,378,707.6,374.4,745.8,332z"/>
		<g>
			<polygon class="st15" points="816.3,531.7 822,533.6 821.6,417.2 817.2,420.2 			"/>
		</g>
		<g>
			<path class="st15" d="M793,537.3c0,0,39.6,0.7,52.8,0.8c1.5,0,2.5-2,2.5-3.5l0,0c0-1.5-2.1-3.2-3.6-3.2
				c-12.9,0.1-51.7,0.5-51.7,0.5c-1.5,0-2.6,1.2-2.6,2.6l0,0C790.3,536.2,791.5,537.3,793,537.3z"/>
		</g>
		<g>
			<path class="st15" d="M846.4,542.1c-0.5-2.9-3-4.7-6-4.7s-6,1.9-6,4.9c0,3.7,3.7,6.2,6.6,6.2S847,545.7,846.4,542.1z"/>
		</g>
		<g>
			<path class="st15" d="M804.1,542.1c-0.5-2.9-3-4.7-6-4.7s-6,1.9-6,4.9c0,3.7,3.7,6.2,6.6,6.2
				C801.8,548.4,804.8,545.7,804.1,542.1z"/>
		</g>
		<g>
			<path class="st15" d="M835.9,454.4c0,0,1.4,9.4-13.2,12.5s-20.9-12.5-20.9-12.5H835.9z"/>
		</g>
		<g>
			<path class="st31" d="M792.5,418.1c-0.2-17.7,8.9-53.3,26.8-75c18.8-22.8,62-30.8,72.8-6.1s-19.2,95.1-19.2,95.1
				s-6.3,18.3-12.5,22.3c-15,9.9-86.6,7.7-98-3.2C737.9,427.7,773.2,413.5,792.5,418.1z"/>
		</g>
		<g>
			<path class="st32" d="M770.2,374.6c-0.2,0-0.3-0.1-0.4-0.3c-0.1-0.2,0-0.5,0.2-0.6c10.5-4.6,21.1-16.5,21.2-16.7
				c0.2-0.2,0.5-0.2,0.6,0c0.2,0.2,0.2,0.5,0,0.6c-0.1,0.1-10.9,12.2-21.5,16.9C770.3,374.6,770.2,374.6,770.2,374.6z"/>
		</g>
	</g>
	<g>
		<g>
			<polygon class="st15" points="643,541.1 637.3,543 637.6,426.6 642,429.6 			"/>
		</g>
		<g>
			<path class="st15" d="M666.3,546.8c0,0-39.6,0.7-52.8,0.8c-1.5,0-2.5-2-2.5-3.5v0c0-1.5,2.1-3.2,3.6-3.2
				c12.9,0.1,51.7,0.5,51.7,0.5c1.5,0,2.6,1.2,2.6,2.6v0C668.9,545.6,667.7,546.8,666.3,546.8z"/>
		</g>
		<g>
			<path class="st15" d="M612.8,551.5c0.5-2.9,3-4.7,6-4.7c2.9,0,6,1.9,6,4.9c0,3.7-3.7,6.2-6.6,6.2S612.2,555.1,612.8,551.5z"/>
		</g>
		<g>
			<path class="st15" d="M655.1,551.5c0.5-2.9,3-4.7,6-4.7s6,1.9,6,4.9c0,3.7-3.7,6.2-6.6,6.2S654.5,555.1,655.1,551.5z"/>
		</g>
		<g>
			<path class="st15" d="M623.4,449.6c0,0-1.4,9.4,13.2,12.5c14.6,3,20.9-12.5,20.9-12.5H623.4z"/>
		</g>
		<path class="st31" d="M654.4,456h-40.6c-20.3,0-36.9-16.6-36.9-36.9v-52.5c0-31.8,26-57.8,57.8-57.8h0c31.1,0,56.6,25.5,56.6,56.6
			v53.7C691.3,439.4,674.7,456,654.4,456z"/>
	</g>
	<g>
		<g>
			<g>
				<path class="st15" d="M467.2,119.3c0,1.2-9.1,2.2-20.4,2.2s-20.4,1.8-20.4,0.5c0-8.7,9.1-16.8,20.4-16.8
					S467.2,111.5,467.2,119.3z"/>
			</g>
			<g>
				<path class="st34" d="M467.1,119.4c0.1,0.8-4.4,1.9-10.9,2.6c-0.4,0-0.8,0.1-1.1,0.1c-2.5,0.3-5.3,0.5-8.2,0.7
					c-2.5,0.2-4.9,0.3-7.1,0.3c-0.8,0-1.6,0-2.3,0c-6.5,0.1-11-0.4-11.1-1.2c0-0.7,3.2-1.6,8.3-2.3c0.4-0.1,0.8-0.1,1.2-0.2
					c2.1-0.3,4.6-0.5,7.2-0.8c1.1-0.1,2.3-0.2,3.5-0.3c0.8-0.1,1.7-0.1,2.5-0.1c3.4-0.2,6.6-0.2,9.3-0.2c0.1,0,0.1,0,0.2,0
					C463.7,118.2,467.1,118.6,467.1,119.4z"/>
			</g>
			<g>
				<path class="st0" d="M458.4,118.1c-0.6,1.1-1.3,2.2-2.2,3.1c-0.3,0.3-0.7,0.7-1,1c-2.3,1.9-5.2,3-8.4,3c-2.5,0-4.9-0.7-6.9-2
					c-0.9-0.6-1.7-1.2-2.5-2c-0.5-0.5-1-1.1-1.4-1.7c2.1-0.3,4.6-0.5,7.2-0.8c1.1-0.1,2.3-0.2,3.5-0.3c0.8-0.1,1.7-0.1,2.5-0.1
					C452.5,118.2,455.7,118.1,458.4,118.1z"/>
			</g>
			<g>
				<path class="st15" d="M446.7,106.6L446.7,106.6c-0.5,0-0.9-0.4-0.9-0.9V71c0-0.5,0.4-0.9,0.9-0.9l0,0c0.5,0,0.9,0.4,0.9,0.9
					v34.8C447.6,106.3,447.2,106.6,446.7,106.6z"/>
			</g>
			<g>
				<ellipse class="st15" cx="446.7" cy="105.6" rx="2.5" ry="2.5"/>
			</g>
		</g>
		<g>
			<g>
				<path class="st15" d="M856.3,119.3c0,1.2-9.1,2.2-20.4,2.2s-20.4,1.8-20.4,0.5c0-8.7,9.1-16.8,20.4-16.8
					S856.3,111.5,856.3,119.3z"/>
			</g>
			<g>
				<path class="st34" d="M856.3,119.4c0.1,0.8-4.4,1.9-10.9,2.6c-0.4,0-0.8,0.1-1.1,0.1c-2.5,0.3-5.3,0.5-8.2,0.7
					c-2.5,0.2-4.9,0.3-7.1,0.3c-0.8,0-1.6,0-2.3,0c-6.5,0.1-11-0.4-11.1-1.2c0-0.7,3.2-1.6,8.3-2.3c0.4-0.1,0.8-0.1,1.2-0.2
					c2.1-0.3,4.6-0.5,7.2-0.8c1.1-0.1,2.3-0.2,3.5-0.3c0.8-0.1,1.7-0.1,2.5-0.1c3.4-0.2,6.6-0.2,9.3-0.2c0.1,0,0.1,0,0.2,0
					C852.9,118.2,856.2,118.6,856.3,119.4z"/>
			</g>
			<g>
				<path class="st0" d="M847.5,118.1c-0.6,1.1-1.3,2.2-2.2,3.1c-0.3,0.3-0.7,0.7-1,1c-2.3,1.9-5.2,3-8.4,3c-2.5,0-4.9-0.7-6.9-2
					c-0.9-0.6-1.7-1.2-2.5-2c-0.5-0.5-1-1.1-1.4-1.7c2.1-0.3,4.6-0.5,7.2-0.8c1.1-0.1,2.3-0.2,3.5-0.3c0.8-0.1,1.7-0.1,2.5-0.1
					C841.7,118.2,844.9,118.1,847.5,118.1z"/>
			</g>
			<g>
				<path class="st15" d="M835.9,106.6L835.9,106.6c-0.5,0-0.9-0.4-0.9-0.9V71c0-0.5,0.4-0.9,0.9-0.9l0,0c0.5,0,0.9,0.4,0.9,0.9
					v34.8C836.8,106.3,836.4,106.6,835.9,106.6z"/>
			</g>
			<g>
				<path class="st15" d="M833.4,105.6c0-1.4,1.1-2.5,2.5-2.5s2.5,1.1,2.5,2.5s-1.1,2.5-2.5,2.5S833.4,107,833.4,105.6z"/>
			</g>
		</g>
		<g>
			<g>
				<g>
					<path class="st15" d="M663.4,119.3c0,1.2-9.1,2.2-20.4,2.2c-11.3,0-20.4,1.8-20.4,0.5c0-8.7,9.1-16.8,20.4-16.8
						C654.3,105.2,663.4,111.5,663.4,119.3z"/>
				</g>
				<g>
					<path class="st34" d="M663.4,119.4c0.1,0.8-4.4,1.9-10.9,2.6c-0.4,0-0.8,0.1-1.1,0.1c-2.5,0.3-5.3,0.5-8.2,0.7
						c-2.5,0.2-4.9,0.3-7.1,0.3c-0.8,0-1.6,0-2.3,0c-6.5,0.1-11-0.4-11.1-1.2c0-0.7,3.2-1.6,8.3-2.3c0.4-0.1,0.8-0.1,1.2-0.2
						c2.1-0.3,4.6-0.5,7.2-0.8c1.1-0.1,2.3-0.2,3.5-0.3c0.8-0.1,1.7-0.1,2.5-0.1c3.4-0.2,6.6-0.2,9.3-0.2c0.1,0,0.1,0,0.2,0
						C660,118.2,663.3,118.6,663.4,119.4z"/>
				</g>
				<g>
					<path class="st0" d="M654.6,118.1c-0.6,1.1-1.3,2.2-2.2,3.1c-0.3,0.3-0.7,0.7-1,1c-2.3,1.9-5.2,3-8.4,3c-2.5,0-4.9-0.7-6.9-2
						c-0.9-0.6-1.7-1.2-2.5-2c-0.5-0.5-1-1.1-1.4-1.7c2.1-0.3,4.6-0.5,7.2-0.8c1.1-0.1,2.3-0.2,3.5-0.3c0.8-0.1,1.7-0.1,2.5-0.1
						C648.8,118.2,651.9,118.1,654.6,118.1z"/>
				</g>
				<g>
					<path class="st15" d="M643,106.6L643,106.6c-0.5,0-0.9-0.4-0.9-0.9V71c0-0.5,0.4-0.9,0.9-0.9l0,0c0.5,0,0.9,0.4,0.9,0.9v34.8
						C643.9,106.3,643.5,106.6,643,106.6z"/>
				</g>
				<g>
					<path class="st15" d="M640.5,105.6c0-1.4,1.1-2.5,2.5-2.5c1.4,0,2.5,1.1,2.5,2.5s-1.1,2.5-2.5,2.5
						C641.6,108.1,640.5,107,640.5,105.6z"/>
				</g>
			</g>
			<path class="st15" d="M851.4,73.3H434.6c-0.9,0-1.6-0.7-1.6-1.6l0,0c0-0.9,0.7-1.6,1.6-1.6h416.7c0.9,0,1.6,0.7,1.6,1.6l0,0
				C853,72.6,852.3,73.3,851.4,73.3z"/>
		</g>
	</g>
	<path class="st35" d="M256.1,370.3c0,0-13.5-31.5-29.9-37.6c-16.3-6.1,5.9,20.6,10.9,28.4C242.1,368.7,260.6,379.5,256.1,370.3z"/>
	<path class="st35" d="M451.6,370.3c0,0-13.5-31.5-29.9-37.6c-16.3-6.1,5.9,20.6,10.9,28.4S456.1,379.5,451.6,370.3z"/>
	<path class="st35" d="M682,361c-0.2-3.5-2.3-25.6-18.3-32.9c-16-7.3-9.7,8.7-5,14.5C663.3,348.3,682.6,371.2,682,361z"/>
	<path class="st35" d="M889.7,358.7c0,0-1.3-25.1-10.7-26.8c-9.4-1.7-0.6,17.7,0,23.9C879.6,361.9,888.9,364,889.7,358.7z"/>
	<path class="st35" d="M1081.7,317c0,0-28.2,14.4-29.1,30.8C1051.6,364.2,1106.4,309.3,1081.7,317z"/>
</g>
</svg>
