<?xml version="1.0" encoding="utf-8"?>
<!-- Generator: Adobe Illustrator 21.0.0, SVG Export Plug-In . SVG Version: 6.00 Build 0)  -->
<svg version="1.1" id="Layer_1" xmlns="http://www.w3.org/2000/svg" xmlns:xlink="http://www.w3.org/1999/xlink" x="0px" y="0px"
	 viewBox="0 0 652.9 545.2" style="enable-background:new 0 0 652.9 545.2;" xml:space="preserve">
<style type="text/css">
	.st0{fill:#DCA952;}
	.st1{opacity:0.8;fill:#FFFFFF;enable-background:new    ;}
	.st2{fill:#FFFFFF;}
	.st3{fill:#263238;}
	.st4{opacity:0.6;fill:#FFFFFF;enable-background:new    ;}
	.st5{opacity:0.5;fill:#FFFFFF;enable-background:new    ;}
</style>
<g>
	<g id="freepik--background-simple--inject-54">
		<path class="st0" d="M508.5,104.6C477,78.5,436.9,65.8,390.8,80.3c-45.5,14.3-72.5,56.5-113,78.9c-43,23.9-95.6,21.4-141.3,38.6
			c-32.3,12.2-56,38.4-64,72.1c-15.7,65.9,14,137.3,73.4,170.7c37.1,20.8,82,24.6,122.3,11.7c30.9-9.9,58.7-28.1,89.6-38.5
			c53.7-18.1,113.5-10.8,165.4-35.5c54.9-26.2,66.6-81.9,59.2-135.2C575.8,194.5,549.3,138.3,508.5,104.6z"/>
		<path class="st1" d="M508.5,104.6C477,78.5,436.9,65.8,390.8,80.3c-45.5,14.3-72.5,56.5-113,78.9c-43,23.9-95.6,21.4-141.3,38.6
			c-32.3,12.2-56,38.4-64,72.1c-15.7,65.9,14,137.3,73.4,170.7c37.1,20.8,82,24.6,122.3,11.7c30.9-9.9,58.7-28.1,89.6-38.5
			c53.7-18.1,113.5-10.8,165.4-35.5c54.9-26.2,66.6-81.9,59.2-135.2C575.8,194.5,549.3,138.3,508.5,104.6z"/>
	</g>
	<g id="freepik--Window--inject-54">
		<rect x="128.1" y="125" class="st2" width="159.9" height="6.9"/>
		<path class="st3" d="M288,132.5H128.1c-0.3,0-0.6-0.3-0.6-0.6V125c0-0.3,0.3-0.6,0.6-0.6H288c0.3,0,0.6,0.3,0.6,0.6v6.9
			C288.6,132.2,288.3,132.5,288,132.5z M128.7,131.3h158.7v-5.7H128.7V131.3z"/>
		<rect x="128.1" y="133.7" class="st2" width="159.9" height="6.9"/>
		<path class="st3" d="M288,141.2H128.1c-0.3,0-0.6-0.3-0.6-0.6v-6.9c0-0.3,0.3-0.6,0.6-0.6H288c0.3,0,0.6,0.3,0.6,0.6v6.9
			C288.6,141,288.3,141.2,288,141.2z M128.7,140h158.7v-5.7H128.7V140z"/>
		<rect x="128.1" y="142.5" class="st2" width="159.9" height="6.9"/>
		<path class="st3" d="M288,150H128.1c-0.3,0-0.6-0.3-0.6-0.6v-6.9c0-0.3,0.3-0.6,0.6-0.6H288c0.3,0,0.6,0.3,0.6,0.6v6.9
			C288.6,149.7,288.3,150,288,150z M128.7,148.8h158.7v-5.7H128.7V148.8z"/>
		<rect x="128.1" y="151.2" class="st2" width="159.9" height="6.9"/>
		<path class="st3" d="M288,158.7H128.1c-0.3,0-0.6-0.3-0.6-0.6v-6.9c0-0.3,0.3-0.6,0.6-0.6H288c0.3,0,0.6,0.3,0.6,0.6v6.9
			C288.6,158.5,288.3,158.7,288,158.7z M128.7,157.5h158.7v-5.7H128.7V157.5z"/>
		<rect x="128.1" y="160" class="st2" width="159.9" height="6.9"/>
		<path class="st3" d="M288,167.5H128.1c-0.3,0-0.6-0.3-0.6-0.6V160c0-0.3,0.3-0.6,0.6-0.6H288c0.3,0,0.6,0.3,0.6,0.6v6.9
			C288.6,167.2,288.3,167.5,288,167.5z M128.7,166.3h158.7v-5.7H128.7V166.3z"/>
		<rect x="128.1" y="168.7" class="st2" width="159.9" height="6.9"/>
		<path class="st3" d="M288,176.3H128.1c-0.3,0-0.6-0.3-0.6-0.6v-6.9c0-0.3,0.3-0.6,0.6-0.6H288c0.3,0,0.6,0.3,0.6,0.6v6.9
			C288.6,176,288.3,176.3,288,176.3z M128.7,175h158.7v-5.7H128.7V175z"/>
		<rect x="128.1" y="177.5" class="st2" width="159.9" height="6.9"/>
		<path class="st3" d="M288,185H128.1c-0.3,0-0.6-0.3-0.6-0.6v-6.9c0-0.3,0.3-0.6,0.6-0.6H288c0.3,0,0.6,0.3,0.6,0.6v6.9
			C288.6,184.7,288.3,185,288,185z M128.7,183.8h158.7v-5.7H128.7V183.8z"/>
		<rect x="128.1" y="186.2" class="st2" width="159.9" height="6.9"/>
		<path class="st3" d="M288,193.8H128.1c-0.3,0-0.6-0.3-0.6-0.6v-6.9c0-0.3,0.3-0.6,0.6-0.6H288c0.3,0,0.6,0.3,0.6,0.6v6.9
			C288.6,193.5,288.3,193.8,288,193.8C288,193.8,288,193.8,288,193.8z M128.7,192.5h158.7v-5.7H128.7V192.5z"/>
		<rect x="128.1" y="195" class="st2" width="159.9" height="6.9"/>
		<path class="st3" d="M288,202.5H128.1c-0.3,0-0.6-0.3-0.6-0.6V195c0-0.3,0.3-0.6,0.6-0.6H288c0.3,0,0.6,0.3,0.6,0.6v6.9
			C288.6,202.3,288.3,202.5,288,202.5z M128.7,201.3h158.7v-5.7H128.7V201.3z"/>
		<rect x="128.1" y="203.8" class="st2" width="159.9" height="6.9"/>
		<path class="st3" d="M288,211.3H128.1c-0.3,0-0.6-0.3-0.6-0.6v-6.9c0-0.3,0.3-0.6,0.6-0.6H288c0.3,0,0.6,0.3,0.6,0.6v6.9
			C288.6,211,288.3,211.3,288,211.3z M128.7,210h158.7v-5.7H128.7V210z"/>
		<rect x="128.1" y="212.5" class="st2" width="159.9" height="6.9"/>
		<path class="st3" d="M288,220H128.1c-0.3,0-0.6-0.3-0.6-0.6v-6.9c0-0.3,0.3-0.6,0.6-0.6H288c0.3,0,0.6,0.3,0.6,0.6v6.9
			C288.6,219.8,288.3,220,288,220z M128.7,218.8h158.7v-5.7H128.7V218.8z"/>
		<rect x="128.1" y="221.3" class="st2" width="159.9" height="6.9"/>
		<path class="st3" d="M288,228.8H128.1c-0.3,0-0.6-0.3-0.6-0.6v-6.9c0-0.3,0.3-0.6,0.6-0.6H288c0.3,0,0.6,0.3,0.6,0.6v6.9
			C288.6,228.5,288.3,228.8,288,228.8z M128.7,227.5h158.7v-5.7H128.7V227.5z"/>
		<rect x="128.1" y="230" class="st2" width="159.9" height="6.9"/>
		<path class="st3" d="M288,237.5H128.1c-0.3,0-0.6-0.3-0.6-0.6V230c0-0.3,0.3-0.6,0.6-0.6H288c0.3,0,0.6,0.3,0.6,0.6v6.9
			C288.6,237.3,288.3,237.5,288,237.5z M128.7,236.3h158.7v-5.7H128.7V236.3z"/>
		<rect x="128.1" y="238.8" class="st2" width="159.9" height="6.9"/>
		<path class="st3" d="M288,246.3H128.1c-0.3,0-0.6-0.3-0.6-0.6v-6.9c0-0.3,0.3-0.6,0.6-0.6H288c0.3,0,0.6,0.3,0.6,0.6v6.9
			C288.6,246,288.3,246.3,288,246.3z M128.7,245.1h158.7v-5.7H128.7V245.1z"/>
		<rect x="128.1" y="247.5" class="st2" width="159.9" height="6.9"/>
		<path class="st3" d="M288,255.1H128.1c-0.3,0-0.6-0.3-0.6-0.6v-6.9c0-0.3,0.3-0.6,0.6-0.6H288c0.3,0,0.6,0.3,0.6,0.6v6.9
			C288.6,254.8,288.3,255.1,288,255.1z M128.7,253.8h158.7v-5.6H128.7V253.8z"/>
		<rect x="128.1" y="256.3" class="st2" width="159.9" height="6.9"/>
		<path class="st3" d="M288,263.8H128.1c-0.3,0-0.6-0.3-0.6-0.6v-6.9c0-0.3,0.3-0.6,0.6-0.6H288c0.3,0,0.6,0.3,0.6,0.6v6.9
			C288.6,263.5,288.3,263.8,288,263.8z M128.7,262.6h158.7v-5.7H128.7V262.6z"/>
		<path class="st3" d="M128.1,292.7c-0.3,0-0.6-0.3-0.6-0.6V125c0-0.3,0.3-0.6,0.6-0.6c0.3,0,0.6,0.3,0.6,0.6v167.1
			C128.7,292.4,128.4,292.7,128.1,292.7z"/>
		<rect x="125.8" y="288.3" class="st2" width="4.6" height="8.6"/>
		<path class="st3" d="M130.4,297.5h-4.6c-0.3,0-0.6-0.3-0.6-0.6v-8.6c0-0.3,0.3-0.6,0.6-0.6h4.6c0.3,0,0.6,0.3,0.6,0.6v8.6
			C131,297.2,130.7,297.5,130.4,297.5z M126.4,296.3h3.4v-7.4h-3.4V296.3z"/>
		<rect x="328.9" y="125" class="st3" width="187.9" height="71.7"/>
		<path class="st3" d="M516.8,197.3H328.9c-0.3,0-0.6-0.3-0.6-0.6V125c0-0.3,0.3-0.6,0.6-0.6h187.9c0.3,0,0.6,0.3,0.6,0.6v71.7
			C517.5,197,517.2,197.3,516.8,197.3z M329.5,196h186.7v-70.5H329.5V196z"/>
		<rect x="314.1" y="125" class="st0" width="187.9" height="71.7"/>
		<path class="st3" d="M502,197.3H314.1c-0.3,0-0.6-0.3-0.6-0.6V125c0-0.3,0.3-0.6,0.6-0.6H502c0.3,0,0.6,0.3,0.6,0.6v71.7
			C502.6,197,502.3,197.3,502,197.3z M314.7,196h186.7v-70.5H314.7V196z"/>
		<rect x="403.1" y="125" class="st3" width="9.9" height="71.7"/>
		<path class="st3" d="M413,197.3h-9.9c-0.3,0-0.6-0.3-0.6-0.6V125c0-0.3,0.3-0.6,0.6-0.6h9.9c0.3,0,0.6,0.3,0.6,0.6v71.7
			C413.6,197,413.3,197.3,413,197.3z M403.7,196h8.7v-70.5h-8.7V196z"/>
		<rect x="389.9" y="153" class="st2" width="5.8" height="16.5"/>
		<path class="st3" d="M395.7,170.1h-5.8c-0.3,0-0.6-0.3-0.6-0.6V153c0-0.3,0.3-0.6,0.6-0.6h5.8c0.3,0,0.6,0.3,0.6,0.6v16.5
			C396.3,169.8,396,170.1,395.7,170.1z M390.5,168.8h4.5v-15.2h-4.5V168.8z"/>
		<rect x="420" y="153" class="st2" width="5.8" height="16.5"/>
		<path class="st3" d="M425.8,170.1H420c-0.3,0-0.6-0.3-0.6-0.6V153c0-0.3,0.3-0.6,0.6-0.6h5.8c0.3,0,0.6,0.3,0.6,0.6v16.5
			C426.4,169.8,426.1,170.1,425.8,170.1z M420.6,168.8h4.5v-15.2h-4.5V168.8z"/>
		<rect x="415.7" y="202.4" class="st2" width="43.7" height="55.2"/>
		<path class="st3" d="M459.4,258.3h-43.7c-0.3,0-0.6-0.3-0.6-0.6v-55.2c0-0.3,0.3-0.6,0.6-0.6h43.7c0.3,0,0.6,0.3,0.6,0.6v55.2
			C460,258,459.7,258.3,459.4,258.3z M416.3,257h42.5v-54h-42.5V257z"/>
		<rect x="374.5" y="202.4" class="st2" width="27.2" height="34.4"/>
		<path class="st3" d="M401.7,237.4h-27.2c-0.3,0-0.6-0.3-0.6-0.6v-34.4c0-0.3,0.3-0.6,0.6-0.6h27.2c0.3,0,0.6,0.3,0.6,0.6v34.4
			C402.3,237.2,402.1,237.4,401.7,237.4z M375.1,236.2h26v-33.1h-26V236.2z"/>
	</g>
	<path class="st0" d="M246.5,205.9l12.4,50.2l30.2,25.4l-3.1,5.8l-36.7-17.8L230,233.1C230,233.1,242.6,204.5,246.5,205.9z"/>
	<path class="st3" d="M285.9,287.9c-0.1,0-0.2,0-0.3-0.1l-36.7-17.8c-0.1-0.1-0.2-0.2-0.3-0.3l-19.1-36.5c-0.1-0.2-0.1-0.4,0-0.5
		c3-6.8,13.1-29.1,17.3-27.6c0.2,0.1,0.3,0.2,0.4,0.4l12.3,50l29.9,25.3c0.2,0.2,0.3,0.5,0.1,0.8l-3.1,5.8
		C286.3,287.8,286.1,287.9,285.9,287.9z M249.6,269.1l36,17.5l2.6-4.9l-29.8-25.1c-0.1-0.1-0.2-0.2-0.2-0.3l-12.2-49.8
		c-2.5,0.5-9.6,13.8-15.3,26.6L249.6,269.1z"/>
	<polygon class="st2" points="218.4,459.2 237.5,469.8 205.8,469.8 208.9,458.7 	"/>
	<path class="st3" d="M237.4,470.4h-31.6c-0.2,0-0.4-0.1-0.5-0.2c-0.1-0.2-0.2-0.4-0.1-0.5l3-11c0.1-0.3,0.3-0.5,0.6-0.5l9.5,0.5
		c0.1,0,0.2,0,0.3,0.1l19.1,10.5c0.2,0.1,0.4,0.4,0.3,0.7C238,470.2,237.7,470.4,237.4,470.4z M206.6,469.1H235l-16.8-9.3l-8.9-0.5
		L206.6,469.1z"/>
	<path class="st3" d="M172.8,283c0,0-6,25.6-4,31.6c2,6,12,63.7,12,63.7l-13,80.4l9.5,0.5l31.7-81.9l-6.5-59.2l4,1l11.4,55.8
		l-8.8,84.1h9.5l22.9-83.1L224,298.1l0.5-9L172.8,283z"/>
	<path class="st3" d="M177.3,459.8L177.3,459.8l-9.5-0.5c-0.2,0-0.3-0.1-0.4-0.2c-0.1-0.1-0.2-0.3-0.1-0.5l13-80.3
		c-0.5-2.7-10.1-57.8-12-63.5c-2-6.1,3.7-30.9,4-31.9c0.1-0.3,0.4-0.5,0.7-0.5l51.7,6c0.3,0,0.6,0.3,0.5,0.6l-0.5,9l17.5,77.9
		c0,0.1,0,0.2,0,0.3l-22.9,83.1c-0.1,0.3-0.3,0.4-0.6,0.4h-9.5c-0.2,0-0.3-0.1-0.5-0.2c-0.1-0.1-0.2-0.3-0.1-0.5l8.8-84.1
		l-11.3-55.4l-2.8-0.7l6.4,58.3c0,0.1,0,0.2,0,0.3L178,459.5C177.9,459.7,177.6,459.9,177.3,459.8z M168.5,458.1l8.4,0.4l31.4-81.3
		l-6.5-59.1c0-0.2,0.1-0.4,0.2-0.5c0.2-0.1,0.4-0.2,0.6-0.1l4,1c0.2,0.1,0.4,0.2,0.5,0.5l11.4,55.8c0,0.1,0,0.1,0,0.2l-8.7,83.5h8.4
		l22.8-82.5l-17.5-77.8c0-0.1,0-0.1,0-0.2l0.5-8.4l-50.6-5.9c-0.9,3.7-5.7,25.4-3.9,30.7c2,6,11.6,61.5,12.1,63.8c0,0.1,0,0.1,0,0.2
		L168.5,458.1z"/>
	<path class="st0" d="M212.6,193.5c0,0-27.5,5.3-29,6c-1.5,0.7-3.4,4.5-2.6,6.8s-7.5,67-8.3,72.3c-0.8,5.3,1.5,7.5,5.3,9.4
		c3.8,1.9,40.3,3,44,3c3.8,0,3-4.9,3.7-6.4c0.7-1.5,21-73.8,21.5-76s-0.8-3-4.5-6.4c-3.8-3.4-17.7-10.5-17.7-10.5L212.6,193.5z"/>
	<path class="st3" d="M222,291.6c-2.1,0-40.2-1-44.3-3.1c-4.1-2.1-6.4-4.4-5.6-10.1c1.1-7.4,8.9-69.3,8.3-72
		c-0.9-2.6,1.2-6.7,2.9-7.5c1.7-0.9,26.3-5.5,29.1-6.1l0,0l12.4-1.9c0.1,0,0.3,0,0.4,0c0.6,0.3,14,7.2,17.8,10.6l0.9,0.9
		c3,2.7,4.2,3.7,3.8,6.1c-0.5,2.8-20.8,74.7-21.5,76.2c-0.2,0.5-0.3,1.1-0.3,1.7C225.7,288.6,225.2,291.6,222,291.6z M212.7,194.1
		c-11,2.1-27.7,5.4-28.8,6c-1.1,0.5-3,4.1-2.3,6c0.9,2.5-7.8,69.6-8.3,72.5c-0.7,4.9,1.2,6.9,4.9,8.8c3.7,1.8,39.1,3,43.8,3
		c2,0,2.5-1.7,2.7-4c0.1-0.7,0.2-1.4,0.5-2c0.8-1.7,21-73.3,21.4-75.9c0.3-1.7-0.3-2.2-3.4-4.9l-1-0.9c-3.4-3.1-15.8-9.5-17.4-10.4
		L212.7,194.1z"/>
	<polygon class="st2" points="177.3,459.2 196.4,469.8 164.8,469.8 167.8,458.7 	"/>
	<path class="st3" d="M196.4,470.4h-31.6c-0.2,0-0.4-0.1-0.5-0.2c-0.1-0.2-0.2-0.4-0.1-0.5l3-11c0.1-0.3,0.3-0.5,0.6-0.5l9.5,0.5
		c0.1,0,0.2,0,0.3,0.1l19.1,10.5c0.3,0.2,0.4,0.6,0.2,0.8C196.8,470.3,196.6,470.4,196.4,470.4L196.4,470.4z M165.6,469.1H194
		l-16.9-9.3l-8.9-0.5L165.6,469.1z"/>
	<path class="st0" d="M186.3,198.9c0,0-9.7-0.4-8.8,25.5c0.2,5.3,3.1,30.8,4,36.5c0.9,5.7,24.7,53.7,24.7,53.7l7-0.9l-13.6-57.7
		l3.1-37.4"/>
	<path class="st3" d="M206.1,315.3c-0.2,0-0.5-0.1-0.6-0.3c-1-2-23.8-48.1-24.7-53.9c-0.9-6-3.8-31.5-4-36.6
		c-0.5-15.1,2.6-21.5,5.3-24.1c1.1-1.2,2.6-1.9,4.2-2c0.3,0,0.6,0.3,0.6,0.6c0,0.3-0.3,0.6-0.6,0.6c0,0,0,0,0,0
		c-1.3,0.1-2.4,0.8-3.2,1.7c-2.5,2.5-5.3,8.6-4.8,23.2c0.2,5.1,3,30.5,4,36.5c0.8,5.3,22.1,48.5,24.4,53.2l5.9-0.7l-13.5-57
		c0-0.1,0-0.1,0-0.2l3.1-37.4c0-0.3,0.3-0.6,0.7-0.6c0.3,0,0.6,0.3,0.6,0.7l-3.1,37.3l13.6,57.6c0.1,0.3-0.1,0.7-0.4,0.7
		c0,0-0.1,0-0.1,0l-7,0.9L206.1,315.3z"/>
	<path class="st2" d="M206.1,314.6c0,0,2.2,4.8,3.5,5.3c1.3,0.4,25.1,0.9,25.1,0.9s-4.4-3.1-7.4-4.8c-3-1.8-16.3-2.6-16.3-2.6
		L206.1,314.6z"/>
	<path class="st3" d="M234.7,321.4L234.7,321.4c-4-0.1-23.9-0.5-25.3-0.9c-1.3-0.4-3.4-4.4-3.9-5.6c-0.1-0.2-0.1-0.4,0-0.5
		c0.1-0.2,0.2-0.3,0.4-0.3l4.8-1.3c0.1,0,0.1,0,0.2,0c0.5,0,13.4,0.9,16.6,2.7c3.2,1.8,7.5,4.8,7.5,4.9c0.2,0.2,0.3,0.4,0.2,0.7
		C235.2,321.3,235,321.4,234.7,321.4z M207,315c1,2,2.3,4.1,2.9,4.3c1,0.3,13.5,0.6,22.8,0.8c-1.6-1.1-3.9-2.6-5.7-3.6
		c-2.4-1.4-12.2-2.3-15.9-2.5L207,315z"/>
	<path class="st0" d="M218.6,184.5l-4.1,2.6l-6.8,9l4.5,20.7l7.2-8.7l4.5,6.4l5.3-4.5l7.2,7.1c0,0,0.4-10.9-2.6-19.6
		C230.6,189,222.7,181.9,218.6,184.5z"/>
	<path class="st3" d="M236.3,217.8c-0.2,0-0.3-0.1-0.4-0.2l-6.8-6.8l-4.8,4.1c-0.1,0.1-0.3,0.2-0.5,0.1c-0.2,0-0.3-0.1-0.4-0.3
		l-4-5.7l-6.6,8.1c-0.1,0.2-0.4,0.3-0.6,0.2c-0.2-0.1-0.4-0.2-0.5-0.5l-4.5-20.8c0-0.2,0-0.4,0.1-0.5l6.8-9c0-0.1,0.1-0.1,0.2-0.1
		l4.1-2.6l0,0c1.3-0.8,3-0.9,4.4-0.3c4.4,1.5,9.4,7.4,11.6,13.8c3,8.7,2.7,19.3,2.7,19.8c0,0.2-0.2,0.5-0.4,0.6L236.3,217.8z
		 M229.1,209.5c0.2,0,0.3,0.1,0.4,0.2l6.1,6.1c0-3.3-0.3-11.3-2.6-17.9c-2.1-6-6.7-11.6-10.8-13c-1.1-0.5-2.3-0.4-3.3,0.1l-4,2.6
		l-6.5,8.7l4.2,19.2l6.3-7.7c0.1-0.2,0.3-0.2,0.5-0.2c0.2,0,0.4,0.1,0.5,0.3l4.1,5.8l4.8-4.1C228.8,209.5,229,209.5,229.1,209.5
		L229.1,209.5z"/>
	<path class="st2" d="M219,172.8c0,0-1.1,12.8-0.4,18.1c0.8,5.3,3.7,21.8,6,17.3c2.3-4.5,10.2-19.2,10.2-19.2S221.2,178.8,219,172.8
		z"/>
	<path class="st3" d="M223.8,209.6h-0.2c-3-0.5-5.4-16.8-5.6-18.6c-0.7-5.3,0.3-17.7,0.4-18.2c0-0.3,0.2-0.5,0.5-0.6
		c0.3,0,0.5,0.1,0.7,0.4c2.2,5.8,15.5,15.8,15.6,15.9c0.2,0.2,0.3,0.5,0.2,0.8c-0.1,0.1-7.9,14.7-10.2,19.2
		C224.7,209.4,224.2,209.6,223.8,209.6z M219.4,175c-0.3,3.9-0.8,11.9-0.2,15.8c1.1,7.9,3.3,17.1,4.6,17.6c0.1-0.1,0.2-0.3,0.3-0.4
		c2-4,8.6-16.2,9.9-18.7C231.9,187.6,222.9,180.5,219.4,175L219.4,175z"/>
	<path class="st3" d="M216.7,170.6c0,0-2.6-15.8-0.4-21.8c2.3-6,10.5-9,20.3-6s15.4,6,16.9,12.8c0.8,4-0.6,8.2-3.7,10.9
		c0,0-4.5-10.5-9.8-11.7c-5.3-1.1-10.2-1.5-9.4,2.3c0.8,3.8,1.1,8.7-1.1,10.5c-2.3,1.9-2.6,2.6-3.7,5.6c-1.1,3-4.5,6-7.1,2.6
		C216.1,172.4,216.7,170.6,216.7,170.6z"/>
	<path class="st3" d="M221.2,177.9c-1.3,0-2.4-0.7-3.1-1.7c-2.4-3.1-2.2-5.1-2-5.7c-0.3-1.7-2.5-16.1-0.3-22
		c2.5-6.7,11.4-9.4,21.1-6.4c9.7,3,15.8,6.2,17.3,13.3c0.9,4.3-0.6,8.7-4,11.5c-0.2,0.1-0.3,0.2-0.5,0.1c-0.2-0.1-0.3-0.2-0.4-0.4
		c0-0.1-4.5-10.3-9.3-11.3c-4.6-1-7.4-1-8.4-0.1c-0.4,0.4-0.5,1.1-0.3,1.6c0.8,3.9,1.2,9-1.3,11.1c-2.2,1.8-2.5,2.5-3.6,5.4
		c-0.7,1.9-2.5,4.2-4.6,4.5C221.5,177.9,221.4,177.9,221.2,177.9z M217.3,170.8c0,0-0.5,1.7,1.8,4.7c0.5,0.9,1.5,1.3,2.5,1.2
		c1.6-0.2,3-2,3.6-3.7c1.1-3,1.5-3.9,3.9-5.9c1.6-1.3,1.9-4.9,0.9-9.9c-0.3-1,0-2,0.7-2.7c1.3-1.2,4.2-1.4,9.5-0.2
		c4.7,1,8.7,8.7,9.9,11.2c2.6-2.5,3.7-6.2,3-9.8c-1.5-6.6-6.9-9.4-16.5-12.4c-9.1-2.8-17.3-0.4-19.6,5.7c-2.2,5.8,0.4,21.4,0.4,21.5
		C217.4,170.6,217.3,170.7,217.3,170.8z"/>
	<path class="st2" d="M219.3,171.7c0,0-0.8-4.9-4.1-3c-3.4,1.9,1.5,9,1.5,9c0.5,5.1,2.5,9.9,5.6,13.9c5.3,6.8,14.4,7.7,19.6,3.4
		c5.8-4.9,8.7-27.1,8.7-27.1s2.3-3-2.6-10.5c-4.9-7.5-21.5-7.5-22.6-4.5c-1.1,3,3.4,9,2.3,11.3c-1.1,2.3-4.5-0.4-5.3,3.7
		C221.6,172,220.9,175.1,219.3,171.7z"/>
	<path class="st3" d="M234.3,198.3c-0.5,0-1,0-1.6-0.1c-4.3-0.5-8.2-2.8-10.8-6.2c-3.2-4.1-5.2-9-5.8-14.1c-0.6-0.8-3.3-5.1-2.6-7.9
		c0.2-0.8,0.7-1.5,1.4-1.9c0.8-0.6,1.9-0.7,2.8-0.2c1.6,0.8,2.1,3.1,2.2,3.6c0.1,0.4,0.3,0.7,0.6,1c0.6-1.5,1-3.1,1.2-4.7
		c0.1-1.8,1.7-3.2,3.5-3.1c0,0,0,0,0.1,0c1-0.1,1.5-0.2,1.8-0.8c0.4-0.8-0.4-2.9-1.1-4.6c-0.9-2.4-1.9-4.8-1.2-6.6
		c0.5-1.4,2.9-2,4.8-2.2c5.7-0.6,15.3,1,18.9,6.6c4.5,6.9,3.1,10.3,2.7,11.1c-0.3,2-3.1,22.6-8.9,27.4
		C240,197.3,237.2,198.3,234.3,198.3z M216.6,168.9c-0.4,0-0.8,0.1-1.1,0.4c-0.4,0.2-0.7,0.6-0.8,1.1c-0.5,2.1,1.7,5.8,2.5,7.1
		c0.1,0.1,0.1,0.2,0.1,0.3c0.5,5,2.4,9.7,5.5,13.6c2.4,3.2,6,5.2,10,5.7c3.1,0.4,6.2-0.5,8.7-2.4c5.6-4.7,8.4-26.5,8.4-26.7
		c0-0.1,0.1-0.2,0.1-0.3c0,0,1.9-2.9-2.7-9.8c-3.3-5.1-12.4-6.6-17.7-6c-2.3,0.3-3.6,0.9-3.8,1.4c-0.5,1.3,0.4,3.7,1.2,5.7
		c0.9,2.3,1.7,4.3,1,5.7c-0.6,1-1.6,1.5-2.8,1.5c-1.2,0.1-2.1,0.2-2.5,2.1c-0.7,3.9-1.2,5.6-2.3,5.7c-0.9,0.1-1.5-0.9-1.9-1.8
		c0-0.1,0-0.1,0-0.2c-0.1-0.6-0.6-2.3-1.5-2.8C217,168.9,216.8,168.9,216.6,168.9z"/>
	<path class="st3" d="M239.2,182.8c-0.5,0-0.9-0.1-1.3-0.3c-0.3-0.2-0.4-0.6-0.2-0.8c0,0,0,0,0,0c0.2-0.3,0.6-0.4,0.9-0.2
		c0.2,0.1,0.4,0.1,0.6,0.1c0.8,0,1.5-0.2,2.2-0.4c0.3-0.1,0.5-0.2,0.6-0.3c0-0.1-0.2-1-0.5-1.7c-0.6-1.2-1-2.6-1.1-3.9
		c0-3.6,3.2-6.9,3.3-7c0.2-0.2,0.6-0.2,0.9,0c0.2,0.2,0.2,0.6,0,0.9c0,0,0,0,0,0c0,0-2.9,3-2.9,6.2c0.1,1.2,0.4,2.4,0.9,3.4
		c0.5,1,0.9,1.9,0.5,2.7c-0.3,0.5-0.7,0.9-1.3,1C241,182.7,240.1,182.8,239.2,182.8z"/>
	<path class="st3" d="M236.3,187.2c-2.2,0.1-4.3-0.9-5.7-2.6c-0.2-0.3-0.1-0.7,0.2-0.9c0.3-0.2,0.6-0.1,0.8,0.1
		c1.4,1.5,3.4,2.3,5.4,2.1c0.3-0.1,0.7,0.2,0.7,0.5c0.1,0.3-0.2,0.7-0.5,0.7C236.9,187.2,236.6,187.2,236.3,187.2z"/>
	<path class="st3" d="M234.9,172.3c-0.3,1.1-0.9,1.8-1.5,1.7c-0.5-0.1-0.8-1.1-0.5-2.2s0.9-1.8,1.4-1.7
		C235,170.2,235.2,171.2,234.9,172.3z"/>
	<path class="st3" d="M245.7,174c-0.3,1.1-0.9,1.8-1.4,1.7c-0.5-0.1-0.8-1.1-0.5-2.2c0.3-1.1,0.9-1.8,1.5-1.7
		C245.8,172,246,172.9,245.7,174z"/>
	<path class="st3" d="M237.1,166.4c-0.1,0-0.3,0-0.4-0.1c-3.5-2.7-5.4-0.7-5.4-0.7c-0.3,0.2-0.6,0.2-0.9-0.1c-0.2-0.2-0.2-0.5,0-0.8
		c0,0,2.7-3,7.1,0.5c0.3,0.2,0.3,0.6,0.1,0.8c0,0,0,0,0,0C237.5,166.3,237.3,166.4,237.1,166.4z"/>
	<path class="st3" d="M248.8,170.1c-0.3,0-0.6-0.2-0.6-0.5c-0.1-0.5-0.3-1-0.8-1.2c-0.6-0.2-1.2-0.2-1.8,0c-0.3,0.1-0.7,0-0.8-0.3
		c0,0,0,0,0,0c-0.1-0.3,0-0.7,0.3-0.8c0,0,0,0,0,0c0.9-0.4,2-0.3,2.9,0.1c0.8,0.4,1.3,1.2,1.4,2.1c0.1,0.3-0.2,0.7-0.5,0.7
		L248.8,170.1z"/>
	<path class="st3" d="M225.4,152.9c1.5,2.3,4,3.8,6.8,4.1c4.9,0.8,10.9,0,12,4.1c1.1,4.1,6.4,9,12.4,6.4c6-2.6,6.8-14.3,3.1-19.2
		c-3.7-4.9-8.3-4.1-12.8-6c-4.5-1.9-4.5-5.3-11.3-5.3c-6.8,0-14.7,6.4-10.2,10.2"/>
	<path class="st3" d="M253.2,168.9c-1.3,0-2.7-0.3-3.9-0.9c-2.8-1.3-4.8-3.8-5.7-6.7c-0.8-2.8-4.3-3-8-3.3c-1.2-0.1-2.4-0.2-3.6-0.4
		c-2.9-0.3-5.6-2-7.2-4.5c-0.2-0.3,0-0.7,0.2-0.8c0.3-0.2,0.7-0.1,0.8,0.2c1.4,2.1,3.8,3.6,6.3,3.8c1.1,0.2,2.3,0.3,3.5,0.4
		c4,0.3,8.1,0.6,9.1,4.2c0.8,2.6,2.6,4.7,5.1,5.9c2,1,4.4,1,6.5,0.1c2.1-0.9,3.6-3.1,4.4-6.2c1.1-4.3,0.4-9.4-1.6-12.1
		c-2.5-3.2-5.3-3.8-8.2-4.5c-1.5-0.3-2.9-0.7-4.3-1.2c-1.4-0.6-2.7-1.5-3.9-2.6c-1.9-1.9-4.5-2.9-7.2-2.7c-4.8,0-9.7,3.2-10.7,6
		c-0.5,1.1-0.1,2.4,0.9,3.1c0.3,0.2,0.3,0.6,0.1,0.9c-0.2,0.3-0.6,0.3-0.9,0.1c0,0,0,0,0,0c-1.4-1-1.9-2.9-1.2-4.5
		c1.2-3.5,6.9-6.8,11.8-6.8c3-0.2,5.9,0.9,8,3c1,1,2.2,1.8,3.6,2.3c1.3,0.5,2.7,0.9,4.1,1.2c3.1,0.7,6.2,1.5,9,4.9
		c2.3,3,3.1,8.4,1.9,13.2c-0.9,3.4-2.7,5.9-5.1,7C255.7,168.6,254.5,168.9,253.2,168.9z"/>
	<path class="st2" d="M289,281.4l6.6-0.2l6.4,6.4l-0.9,1.4c1.1,1.3,1.9,2.8,2.4,4.4c0.4,2-1.2,4.8-1.2,4.8c-1.9-1.2-3.7-2.6-5.2-4.3
		c-1.6-2.1-7.6-2.5-11.1-6.7L289,281.4z"/>
	<path class="st3" d="M302.2,298.9c-0.1,0-0.2,0-0.3-0.1c-2-1.2-3.8-2.7-5.4-4.5c-1-0.9-2.3-1.6-3.6-1.9c-2.9-0.9-5.5-2.5-7.6-4.7
		c-0.2-0.2-0.2-0.5-0.1-0.7l3.1-5.8c0.1-0.2,0.3-0.3,0.5-0.3l6.6-0.2c0.2,0,0.3,0.1,0.5,0.2l6.4,6.4c0.2,0.2,0.2,0.5,0.1,0.8
		l-0.7,1.1c1,1.3,1.8,2.7,2.3,4.3c0.4,2.2-1.2,5.1-1.2,5.2c-0.1,0.2-0.2,0.3-0.4,0.3L302.2,298.9z M286.6,287.2
		c1.9,1.8,4.3,3.2,6.8,4c1.5,0.4,3,1.2,4.1,2.3c1.3,1.5,2.8,2.7,4.5,3.8c0.6-1.2,0.9-2.5,0.8-3.8c-0.5-1.5-1.3-2.9-2.3-4.1
		c-0.2-0.2-0.2-0.5,0-0.7l0.7-1l-5.8-5.8l-6,0.2L286.6,287.2z"/>
	<path class="st3" d="M301,289.7c-0.1,0-0.2,0-0.3-0.1l-4.9-3.3c-1.9,1.4-4.4,1.6-6.5,0.4c-0.3-0.2-0.4-0.6-0.2-0.9
		c0.2-0.3,0.6-0.4,0.9-0.2c2.5,1.7,5.2-0.5,5.3-0.6c0.2-0.2,0.5-0.2,0.7,0l5.3,3.5c0.3,0.2,0.4,0.6,0.2,0.9
		C301.5,289.6,301.3,289.7,301,289.7z"/>
	<g id="freepik--character-2--inject-54">
		<path class="st3" d="M280.5,375l5.9,93.2c0.1,0.9,0.8,1.7,1.8,1.7l0,0c1,0,1.8-0.8,1.8-1.8c0,0,0,0,0,0l-2.5-93L280.5,375z"/>
		<path class="st3" d="M288.2,470.4c-1.3,0-2.3-1-2.4-2.3l-5.9-93.2c0-0.3,0.3-0.6,0.6-0.7c0,0,0,0,0,0h7c0.3,0,0.6,0.3,0.6,0.6
			l2.5,93c0,0.6-0.2,1.3-0.7,1.7C289.5,470.1,288.8,470.4,288.2,470.4z M281.1,375.5L287,468c0,0.6,0.6,1.1,1.3,1.1
			c0.3,0,0.6-0.1,0.8-0.4c0.2-0.2,0.3-0.5,0.3-0.9l-2.5-92.4H281.1z"/>
		<path class="st3" d="M265.3,375l-5.9,93.2c-0.1,0.9-0.8,1.7-1.8,1.7l0,0c-1,0-1.8-0.8-1.8-1.8c0,0,0,0,0-0.1l2.5-93L265.3,375z"/>
		<path class="st3" d="M257.6,470.4c-0.7,0-1.3-0.3-1.7-0.7c-0.5-0.5-0.7-1.1-0.7-1.7l2.5-93c0-0.3,0.3-0.6,0.6-0.6h7
			c0.2,0,0.3,0.1,0.5,0.2c0.1,0.1,0.2,0.3,0.2,0.5l-5.9,93.2C259.9,469.4,258.9,470.4,257.6,470.4z M258.8,375.6l-2.5,92.4
			c0,0.7,0.5,1.2,1.2,1.2c0.6,0,1.2-0.5,1.2-1.1l5.8-92.6L258.8,375.6z"/>
		<path class="st3" d="M324.7,375l-5.9,93.2c-0.1,0.9-0.9,1.7-1.8,1.7l0,0c-1,0-1.8-0.8-1.8-1.8c0,0,0-0.1,0-0.1l2.5-93L324.7,375z"
			/>
		<path class="st3" d="M317,470.4c-0.7,0-1.3-0.3-1.7-0.7c-0.5-0.5-0.7-1.1-0.7-1.7l2.5-93c0-0.3,0.3-0.6,0.6-0.6h7
			c0.2,0,0.3,0.1,0.5,0.2c0.1,0.1,0.2,0.3,0.2,0.5l-5.9,93.2C319.3,469.4,318.3,470.4,317,470.4z M318.2,375.6l-2.5,92.4
			c0,0.3,0.1,0.6,0.3,0.9c0.2,0.2,0.5,0.4,0.8,0.4c0.6,0,1.1-0.5,1.2-1.1l5.9-92.5L318.2,375.6z"/>
		<path class="st3" d="M348.9,375l5.9,93.2c0.1,0.9,0.8,1.7,1.8,1.7l0,0c1,0,1.8-0.8,1.8-1.8c0,0,0,0,0-0.1l-2.5-93L348.9,375z"/>
		<path class="st3" d="M356.7,470.4c-1.3,0-2.3-1-2.4-2.3l-5.9-93.2c0-0.2,0-0.3,0.2-0.5c0.1-0.1,0.3-0.2,0.5-0.2h7
			c0.3,0,0.6,0.3,0.6,0.6l2.5,93c0,0.6-0.2,1.3-0.7,1.7C357.9,470.1,357.3,470.4,356.7,470.4z M349.6,375.5l5.9,92.5
			c0.1,0.6,0.6,1.1,1.2,1.1c0.7,0,1.2-0.6,1.2-1.2l-2.5-92.4L349.6,375.5z"/>
		<path class="st3" d="M266.5,259.4h21.3c8.2,0,14.9,6.7,14.9,14.9v66.6c0,8.2-6.7,14.9-14.9,14.9h-21.3c-8.2,0-14.9-6.7-14.9-14.9
			v-66.6C251.6,266,258.3,259.4,266.5,259.4z"/>
		<path class="st3" d="M287.8,356.4h-21.3c-8.5,0-15.4-7-15.5-15.5v-66.6c0-8.6,6.9-15.5,15.5-15.5h21.3c8.6,0,15.5,6.9,15.5,15.5
			v66.6C303.3,349.4,296.3,356.4,287.8,356.4C287.8,356.4,287.8,356.4,287.8,356.4z M266.5,260c-7.9,0-14.2,6.4-14.2,14.3v66.6
			c0,7.9,6.4,14.3,14.3,14.3h21.3c7.9,0,14.3-6.4,14.3-14.3v-66.6c0-7.9-6.4-14.3-14.3-14.3H266.5z"/>
		<rect x="253.3" y="368.1" class="st2" width="105.7" height="7.9"/>
		<path class="st3" d="M359,376.6H253.3c-0.3,0-0.6-0.3-0.6-0.6v-7.9c0-0.3,0.3-0.6,0.6-0.6H359c0.3,0,0.6,0.3,0.6,0.6v7.9
			C359.6,376.3,359.3,376.6,359,376.6z M253.9,375.4h104.5v-6.7H253.9L253.9,375.4z"/>
		<path class="st3" d="M278.2,344.6h63.7c0,0,3.4,3.8,3.7,11.7c0.4,8-0.4,9.7-6.3,11.7c-5.9,2.1-58,1-58,1l-17.3,0.3
			c-6.5-11.7-0.3-24.3,7.6-32.5s12.9-15.7,13.2-18.5h33.4l1.8,26.3"/>
		<path class="st2" d="M329.6,451.5l5.6-18.4l10.6,2.3l-6.9,16.5l4.8,9.7l10.4,6.8c0,0,1.2,1.2-4,0.8s-16.1,0-16.1,0l-6.8-8
			C327.2,461.2,324.8,457.1,329.6,451.5z"/>
		<path class="st3" d="M351.9,469.9c-0.5,0-1.1,0-1.9-0.1c-5.1-0.4-15.8,0-15.9,0c-0.2,0-0.4-0.1-0.5-0.2l-6.8-8
			c-0.2-0.3-2.7-4.6,2.3-10.4l5.5-18.2c0.1-0.3,0.4-0.5,0.7-0.4l10.6,2.3c0.2,0,0.3,0.2,0.4,0.3c0.1,0.2,0.1,0.4,0,0.5l-6.8,16.2
			l4.6,9.2l10.3,6.7l0.1,0.1c0.3,0.3,0.4,0.7,0.2,1.1C354.5,469.5,354,469.9,351.9,469.9z M343.6,468.4c2.4,0,4.8,0,6.5,0.2
			c1,0.1,2.1,0.1,3.1,0l-9.9-6.5c-0.1-0.1-0.2-0.1-0.2-0.2l-4.8-9.6c-0.1-0.2-0.1-0.4,0-0.5l6.7-15.8l-9.3-2l-5.4,17.8
			c0,0.1-0.1,0.2-0.1,0.2c-4.5,5.2-2.3,8.9-2.3,9l6.6,7.7C335.5,468.6,339.6,468.4,343.6,468.4z M329.6,451.5"/>
		<polygon class="st3" points="326.7,458.5 326.4,468.8 328.1,468.8 330.2,463.6 		"/>
		<path class="st3" d="M328.1,469.4h-1.6c-0.2,0-0.3-0.1-0.4-0.2c-0.1-0.1-0.2-0.3-0.2-0.4l0.3-10.3c0-0.3,0.2-0.5,0.4-0.6
			c0.3-0.1,0.5,0,0.7,0.2l3.5,5.2c0.1,0.2,0.1,0.4,0,0.6l-2.2,5.2C328.5,469.2,328.3,469.4,328.1,469.4z M327.1,468.2h0.6l1.9-4.5
			l-2.3-3.3L327.1,468.2z"/>
		<path class="st3" d="M334.1,469.2l-6.8-8c0,0-1.8-3,0.7-7.3c4.8,8.3,11.3,10.8,11.3,10.8l6.7-1.6l8.2,5.3c0,0,1.2,1.2-4,0.8
			S334.1,469.2,334.1,469.2z"/>
		<path class="st3" d="M351.9,469.9c-0.5,0-1.1,0-1.9-0.1c-5.1-0.4-15.8,0-15.9,0c-0.2,0-0.4-0.1-0.5-0.2l-6.8-8
			c-0.1-0.2-2-3.4,0.6-8c0.1-0.2,0.3-0.4,0.5-0.3c0.2,0,0.4,0.1,0.5,0.3c2.5,4.5,6.2,8.1,10.8,10.4l6.5-1.6c0.2,0,0.3,0,0.5,0.1
			l8.2,5.3l0.1,0.1c0.3,0.3,0.4,0.7,0.2,1.1C354.5,469.5,354,469.9,351.9,469.9z M343.6,468.4c2.4,0,4.8,0,6.5,0.2
			c1,0.1,2.1,0.1,3.1,0l-7.4-4.8l-6.5,1.6c-0.1,0-0.2,0-0.4,0c-0.3-0.1-6.2-2.5-11-10.1c-0.9,1.8-1,3.9-0.2,5.7l6.6,7.7
			C335.5,468.6,339.6,468.4,343.6,468.4z"/>
		<path class="st3" d="M354.6,365.1l-22.3,67.5l15.9,2.8l31.2-70.3c0,0,2.5-10.5-4.2-13.8c-6.7-3.4-57-11.6-57-11.6l12.5,28.4h22.9"
			/>
		<polygon class="st3" points="313.6,458.9 313.3,469.2 315,469.2 317.2,464.1 		"/>
		<path class="st3" d="M315,469.9h-1.6c-0.2,0-0.3-0.1-0.4-0.2c-0.1-0.1-0.2-0.3-0.2-0.4l0.3-10.3c0-0.3,0.2-0.5,0.4-0.6
			c0.3-0.1,0.5,0,0.7,0.2l3.5,5.2c0.1,0.2,0.1,0.4,0,0.6l-2.1,5.2C315.5,469.7,315.2,469.9,315,469.9z M314,468.6h0.6l1.9-4.5
			l-2.3-3.3L314,468.6z"/>
		<path class="st2" d="M316.5,452l3.4-18.8l10.6,0.5l-4.8,18.7l4.8,9.6l10.4,6.8c0,0,1.2,1.2-4,0.8c-5.2-0.4-16,0-16,0l-6.8-8
			C314.2,461.7,311.7,457.5,316.5,452z"/>
		<path class="st3" d="M338.8,470.4c-0.5,0-1.1,0-1.9-0.1c-5.1-0.4-15.8,0-15.9,0c-0.2,0-0.4-0.1-0.5-0.2l-6.8-8
			c-0.2-0.3-2.7-4.6,2.3-10.3l3.4-18.7c0.1-0.3,0.3-0.5,0.6-0.5l10.6,0.5c0.2,0,0.3,0.1,0.5,0.2c0.1,0.1,0.1,0.3,0.1,0.5l-4.7,18.5
			l4.6,9.3l10.3,6.7l0.1,0.1c0.3,0.3,0.4,0.7,0.2,1.1C341.4,470,340.9,470.4,338.8,470.4z M330.5,468.9c2.4,0,4.8,0,6.5,0.2
			c1,0.1,2.1,0.1,3.1,0l-9.9-6.5c-0.1-0.1-0.2-0.1-0.2-0.2l-4.8-9.7c-0.1-0.1-0.1-0.3,0-0.4l4.6-18l-9.3-0.5l-3.4,18.4
			c0,0.1-0.1,0.2-0.1,0.3c-4.5,5.1-2.4,8.8-2.3,8.9l6.6,7.7C322.4,469,326.4,468.9,330.5,468.9L330.5,468.9z M316.5,452"/>
		<path class="st3" d="M321,469.7l-6.8-8c0,0-1.8-3,0.7-7.3c4.8,8.3,11.3,10.8,11.3,10.8l6.7-1.6l8.2,5.3c0,0,1.2,1.2-4,0.8
			C331.8,469.3,321,469.7,321,469.7z"/>
		<path class="st3" d="M338.8,470.4c-0.5,0-1.1,0-1.9-0.1c-5.1-0.4-15.8,0-15.9,0c-0.2,0-0.4-0.1-0.5-0.2l-6.8-8
			c-0.1-0.2-2-3.4,0.6-8c0.1-0.2,0.3-0.3,0.5-0.3l0,0c0.2,0,0.4,0.1,0.5,0.3c2.5,4.5,6.2,8.1,10.8,10.5l6.5-1.6c0.2,0,0.3,0,0.5,0.1
			l8.2,5.3l0.1,0.1c0.3,0.3,0.4,0.7,0.2,1.1C341.4,470,340.9,470.4,338.8,470.4z M330.5,468.9c2.4,0,4.8,0,6.5,0.2
			c1,0.1,2.1,0.1,3.1,0l-7.4-4.9l-6.4,1.6c-0.1,0-0.3,0-0.4,0c-0.3-0.1-6.2-2.5-11-10.1c-0.9,1.8-1,3.9-0.2,5.7l6.6,7.7
			C322.4,469,326.4,468.9,330.5,468.9L330.5,468.9z"/>
		<path class="st3" d="M322.9,353.5l-4.7,79.9l14.8,0.3l14.4-72.6c0,0,4.2-16.5-5.5-16.5h-19"/>
		<path class="st3" d="M296.9,182.2c-8.8-0.2-17.1,3.8-22.6,10.7c-9.6,11.8-7.4,32.1-7.4,33.6c0,1.5-11.7,9.2-4.8,22.2
			c6.9,13,4.6,13,3.1,20.3s4.6,14.9,18.3,18c13.8,3.1,24.5-2.7,29.8-11.1c5.4-8.4,10.7-24.8,10.3-30.9s-11.1-13.4-10.8-18.8
			c0.3-5.3,11.1-18.1,4.3-31.3C312.2,185.3,303,181.1,296.9,182.2z"/>
		<path class="st3" d="M290.9,288.4c-2.5,0-5-0.3-7.5-0.9c-15-3.3-20.3-11.8-18.8-18.7c0.3-1.3,0.6-2.5,0.9-3.4
			c1.2-4.3,1.7-6-3.8-16.5c-5.5-10.4,0.8-17.9,3.6-21c0.4-0.4,0.8-0.9,1.1-1.5c0,0,0-0.3,0-0.7c-1.1-18.4,3.6-28.3,7.6-33.3
			c5.5-7,14-11.1,23-10.9c6.3-1.1,15.7,3,20.8,12.9c5.2,9.9,0.8,19.3-2.1,25.7c-1,1.9-1.7,3.9-2.2,6c-0.2,2.5,2.5,5.6,5,8.7
			c2.7,3.3,5.6,6.7,5.8,10c0.4,6.4-5.2,23.1-10.4,31.3C308.8,284,300.1,288.6,290.9,288.4z M296,182.8c-8.3,0.2-16.1,4-21.2,10.5
			c-3.9,4.9-8.4,14.4-7.3,32.4c0,0.4,0,0.7,0,0.8c0,0.6-0.5,1.1-1.4,2.2c-2.8,3.2-8.7,9.8-3.4,19.7c5.8,10.9,5.2,12.9,3.9,17.4
			c-0.3,0.9-0.6,2-0.8,3.3c-1.6,7.6,5.6,14.5,17.9,17.2c14.4,3.2,24.5-3.5,29.2-10.8c5.2-8.1,10.6-24.4,10.2-30.6
			c-0.2-2.8-2.9-6.1-5.5-9.2c-2.8-3.4-5.5-6.7-5.3-9.6c0.4-2.2,1.2-4.4,2.3-6.4c2.9-6.5,6.9-15.4,2.1-24.6
			c-4.9-9.4-13.8-13.4-19.6-12.3h-0.2C296.9,182.8,296.5,182.8,296,182.8z"/>
		<path class="st2" d="M273,247.9c-0.1,0-0.2,0-0.2-0.1c-0.1-0.1-0.1-0.3,0-0.4c0.4-0.3,0.8-0.6,1.2-0.9c0.1-0.1,0.3-0.1,0.4,0.1
			c0.1,0.1,0.1,0.3,0,0.4c-0.4,0.3-0.8,0.6-1.2,1C273.1,247.9,273.1,247.9,273,247.9z"/>
		<path class="st2" d="M276.3,244.7c-0.1,0-0.1,0-0.2,0c-0.1-0.1-0.2-0.3-0.1-0.4l0,0c2.9-4,0.7-7.7-2.4-12.8l-1-1.7
			c-1.9-3.3-2.5-6.2-1.6-8.7c1.1-3.3,4.6-6,11.1-8.6c3.6-1.4,7.7-2.7,11.7-4c7.9-2.5,15.3-4.8,16.7-7.6c2.1-4.1-3-12.4-3.1-12.4
			c-0.1-0.1-0.1-0.3,0.1-0.4c0,0,0,0,0,0c0.1-0.1,0.3,0,0.4,0.1c0.2,0.3,5.3,8.6,3.1,13c-1.5,3-8.7,5.3-17,7.9
			c-4,1.2-8.1,2.6-11.7,4c-6.2,2.5-9.6,5.1-10.7,8.2c-0.8,2.3-0.3,4.9,1.6,8.1l1,1.7c3.1,5.2,5.5,9.2,2.3,13.5
			C276.5,244.7,276.4,244.8,276.3,244.7z"/>
		<path class="st2" d="M269.3,226.2c-0.1,0-0.1,0-0.2-0.1c-0.2-0.2-4.5-4,0.5-13.7c2.8-5.5,9.4-7.4,15.8-9.3c5.1-1.5,9.9-2.9,12.9-6
			c3.7-3.9,3-7.5,1.8-9.9c-0.1-0.2,0-0.3,0.1-0.4c0,0,0,0,0,0c0.2-0.1,0.3,0,0.4,0.1c1.3,2.5,2.1,6.4-1.9,10.6
			c-3.1,3.2-8.2,4.7-13.2,6.2c-6.3,1.8-12.7,3.7-15.4,9c-4.7,9.3-0.7,13-0.6,13c0.1,0.1,0.1,0.3,0,0.4c0,0,0,0,0,0
			C269.4,226.1,269.4,226.2,269.3,226.2z"/>
		<path class="st2" d="M298.9,185.4c-0.1,0-0.2,0-0.2-0.1c-0.3-0.4-0.7-0.7-1-1.1c-0.1-0.1-0.2-0.3-0.1-0.4c0.1-0.1,0.3-0.2,0.4-0.1
			c0,0,0,0,0.1,0c0.4,0.3,0.8,0.7,1.1,1.1c0.1,0.1,0.1,0.3,0,0.4c0,0,0,0,0,0C299.1,185.4,299,185.4,298.9,185.4z"/>
		<path class="st2" d="M316.7,253.3l14.5,38l27.2,20.5H374l5.4,6.7h-22.3l-30.9-16.2c-2.6-1.3-4.7-3.3-6.3-5.7l-10.1-15.1
			L316.7,253.3z"/>
		<path class="st3" d="M379.4,319.1h-22.3c-0.1,0-0.2,0-0.3-0.1l-30.9-16.2c-2.6-1.4-4.9-3.4-6.6-5.9l-10.1-15.1
			c-0.1-0.1-0.1-0.3-0.1-0.5l6.9-28.2c0.1-0.3,0.4-0.5,0.8-0.4c0.2,0,0.4,0.2,0.4,0.4l14.4,37.8l26.9,20.4H374
			c0.2,0,0.4,0.1,0.5,0.2l5.3,6.7c0.2,0.3,0.2,0.7-0.1,0.9C379.6,319.1,379.5,319.2,379.4,319.1L379.4,319.1z M357.2,317.9h20.9
			l-4.4-5.4h-15.3c-0.1,0-0.3,0-0.4-0.1l-27.2-20.5c-0.1-0.1-0.2-0.2-0.2-0.3l-13.8-36.1l-6.4,26l9.9,14.8c1.5,2.3,3.6,4.2,6.1,5.5
			L357.2,317.9z"/>
		<path class="st0" d="M351.4,306.5l-20.2-15.2l-14.5-38l-6.9,28.2l10.1,15.1c1.6,2.4,3.8,4.4,6.3,5.7l17,9L351.4,306.5z"/>
		<path class="st4" d="M351.4,306.5l-20.2-15.2l-14.5-38l-6.9,28.2l10.1,15.1c1.6,2.4,3.8,4.4,6.3,5.7l17,9L351.4,306.5z"/>
		<path class="st3" d="M343.1,311.8c-0.1,0-0.2,0-0.3-0.1l-17-8.9c-2.6-1.4-4.9-3.4-6.6-5.9l-10.1-15.1c-0.1-0.1-0.1-0.3-0.1-0.5
			l6.9-28.2c0.1-0.3,0.4-0.5,0.8-0.4c0.2,0,0.4,0.2,0.4,0.4l14.4,37.8l20.1,15.1c0.2,0.1,0.3,0.3,0.2,0.5c0,0.2-0.1,0.4-0.3,0.5
			l-8.2,4.7C343.4,311.8,343.3,311.8,343.1,311.8z M310.4,281.4l9.9,14.8c1.5,2.3,3.6,4.2,6.1,5.5l16.7,8.8l7.1-4l-19.4-14.7
			c-0.1-0.1-0.2-0.2-0.2-0.3l-13.8-36.1L310.4,281.4z"/>
		<path class="st0" d="M288.2,224.5c0,0,0.6,15.3,0.6,18.7s-7.2,5.3-7.2,5.3s-9.8,2.5-11.2,5.8c-2.7,6.3,10,35.9,10.8,37.4
			s-11.1,45-11.1,45l51-0.3l-6.7-45.7c0,0,7.2-10.9,7.2-14.8s-1.7-17.3-4.8-22.5c-3.1-5.2-12.8-9-13.8-9.7c-1-0.8-0.6-10.2-0.6-10.2
			l-11.7-7L288.2,224.5z"/>
		<path class="st4" d="M288.2,224.5c0,0,0.6,15.3,0.6,18.7s-7.2,5.3-7.2,5.3s-9.8,2.5-11.2,5.8c-2.7,6.3,10,35.9,10.8,37.4
			S270.9,336,270.9,336l49.5-0.3l-6-45.1c0,0,7.2-10.9,7.2-14.8c0-3.9-1.7-17.3-4.8-22.5c-3.1-5.2-12.8-9-13.8-9.7
			c-1-0.8-0.6-10.2-0.6-10.2l-11.6-7L288.2,224.5z"/>
		<path class="st3" d="M270.1,337.3c-0.2,0-0.4-0.1-0.5-0.2c-0.1-0.2-0.2-0.4-0.1-0.5c4.7-16.9,11.5-42.8,11.2-44.7
			c-0.1-0.2-13.7-31-10.8-37.8c1.5-3.5,10.6-5.9,11.6-6.2c1.9-0.5,6.8-2.3,6.8-4.7c0-3.3-0.6-18.5-0.6-18.7c0-0.2,0.1-0.5,0.3-0.6
			c0.2-0.1,0.5-0.1,0.7,0.1l2.3,1.9l11.6,6.9c0.2,0.1,0.3,0.3,0.3,0.6c-0.2,4.2,0,9.1,0.4,9.7c0.1,0.1,0.8,0.4,1.6,0.8
			c3.2,1.6,9.9,4.9,12.4,9.1c3.2,5.4,4.9,19.1,4.9,22.8c0,3.8-6.2,13.4-7.1,14.9l6.7,45.5c0.1,0.3-0.2,0.6-0.5,0.7c0,0-0.1,0-0.1,0
			L270.1,337.3L270.1,337.3z M288.9,225.8c0.2,3.8,0.6,14.5,0.6,17.3c0,3.7-6.9,5.7-7.7,5.9c-2.6,0.7-9.7,2.9-10.8,5.4
			c-2.4,5.6,9.1,33.6,10.8,36.9c0.8,1.6-7.2,31.1-10.9,44.7l49.5-0.3l-6.6-45c0-0.2,0-0.3,0.1-0.4c2-3,7.1-11.4,7.1-14.4
			c0-3.6-1.7-17.1-4.7-22.3c-2.4-3.9-8.8-7.1-11.9-8.7c-0.6-0.3-1.2-0.6-1.8-1c-1-0.8-1.1-6-0.9-10.3l-11.3-6.8L288.9,225.8z"/>
		<path class="st2" d="M288.9,243.2c0,0.5-0.2,1-0.5,1.5l0.3,0.5c0,0,2.5,5.5,5.3,10.4c2.4,4,5.1,7.8,8.1,11.5l1.7-22.7l-0.1-0.2
			c-0.3-0.1-0.5-0.3-0.7-0.4c-0.4-0.7-0.6-1.5-0.6-2.3l-5.2-10.9l-6.5-3.9l-0.1-0.1l-2.1,1.2C288.5,232.1,288.9,240.8,288.9,243.2z"
			/>
		<path class="st3" d="M302,267.5c-0.2,0-0.4-0.1-0.5-0.2c-2.9-3.7-5.7-7.5-8.1-11.5c-2.7-4.9-5.3-10.4-5.3-10.4l-0.2-0.4
			c-0.1-0.2-0.1-0.5,0-0.7c0.2-0.3,0.4-0.7,0.4-1.1c0-2.4-0.3-10.8-0.5-15.6c0-0.2,0.1-0.4,0.3-0.6l2.1-1.2c0.2-0.1,0.5-0.1,0.7,0.1
			l0.1,0.1l6.4,3.8c0.1,0.1,0.2,0.2,0.2,0.3l5.2,11c0,0.1,0,0.1,0,0.2c0,0.7,0.1,1.3,0.4,1.9l0.6,0.3c0.1,0.1,0.2,0.2,0.3,0.3
			l0.1,0.2c0,0.1,0,0.2,0,0.3l-1.7,22.7C302.5,267.2,302.3,267.4,302,267.5L302,267.5z M289.1,244.6l0.1,0.1c0,0.1,2.6,5.6,5.3,10.4
			c2.1,3.5,4.5,6.9,7,10.1l1.6-20.8c-0.2-0.1-0.4-0.2-0.6-0.3c-0.4-0.3-0.6-0.8-0.8-2.7l-5.1-10.7l-6.2-3.7l-1.5,0.8
			c0.2,4.9,0.5,13,0.5,15.3C289.4,243.7,289.3,244.2,289.1,244.6L289.1,244.6z"/>
		<path class="st0" d="M274.4,251.3c0,0-8.1,2-8.9,5.4c-0.8,3.4-15,41.7-12,44.8c3.1,3.1,23.3,14.5,25.4,15.5
			c2.1,1,30.8,1.5,31.6,0.2s-4.1-5.9-8.5-7.5c-4.4-1.6-16.3,3.4-17.1,3.4c-0.8,0-19.7-16.3-19.7-16.3l11.4-30.6"/>
		<path class="st4" d="M274.4,251.3c0,0-8.1,2-8.9,5.4c-0.8,3.4-15,41.7-12,44.8c3.1,3.1,23.3,14.5,25.4,15.5
			c2.1,1,30.8,1.5,31.6,0.2s-4.1-5.9-8.5-7.5c-4.4-1.6-16.3,3.4-17.1,3.4c-0.8,0-19.7-16.3-19.7-16.3l11.4-30.6"/>
		<path class="st3" d="M299.2,318.7h-4.1c-5.5-0.1-15.2-0.4-16.5-1.1c-2.2-1.1-22.3-12.5-25.5-15.7c-2.2-2.2,2-16.4,9.5-38.5
			c1.2-3.4,2.1-6.2,2.3-6.9c0.8-3.6,8.5-5.6,9.3-5.8c0.3-0.1,0.7,0.1,0.7,0.4c0,0,0,0,0,0c0.1,0.3-0.1,0.7-0.4,0.8c0,0,0,0,0,0
			c-2.2,0.5-7.9,2.5-8.4,4.9c-0.2,0.8-1.1,3.4-2.3,7c-3.3,9.6-11.9,35.1-9.8,37.2c3,3,23.1,14.3,25.2,15.4s28.3,1.3,30.8,0.4
			c0-1-4-5-8.2-6.5c-3.2-1.1-11.2,1.6-14.7,2.7c-0.7,0.3-1.5,0.5-2.2,0.7c-0.3,0-1,0-20.1-16.5c-0.2-0.2-0.3-0.4-0.2-0.7l11.4-30.6
			c0.1-0.3,0.5-0.5,0.8-0.4c0.3,0.1,0.5,0.5,0.4,0.8l-11.3,30.1c6.8,5.9,17.5,15,19,15.9c0.3-0.1,1-0.3,1.8-0.6
			c3.8-1.3,11.9-4,15.5-2.7c3.9,1.4,8.2,5.1,8.9,7.1c0.2,0.4,0.2,0.9,0,1.3C310.8,317.9,310.4,318.7,299.2,318.7z"/>
		<path class="st2" d="M302,309.8c-4.4-1.5-16.3,3.4-17.1,3.4c-0.5,0-8.1-6.4-13.7-11.1c-0.9,0.5-1.7,1.1-2.3,1.9l-4.1,5
			c6.3,3.8,13,7.5,14.2,8.1c2.1,1,30.8,1.5,31.6,0.2S306.4,311.3,302,309.8z"/>
		<path class="st3" d="M299.2,318.7h-4.1c-5.5-0.1-15.2-0.4-16.5-1.1c-1.1-0.6-7.9-4.3-14.2-8.1c-0.2-0.1-0.3-0.3-0.3-0.4
			c0-0.2,0-0.4,0.1-0.5c1.2-1.5,2.7-3.3,4.1-5c0.7-0.8,1.5-1.5,2.5-2.1c0.2-0.1,0.5-0.1,0.7,0.1c10.4,8.9,12.8,10.7,13.4,11
			c0.3-0.1,1-0.3,1.8-0.6c3.8-1.3,11.9-4,15.5-2.7c3.9,1.4,8.2,5.1,8.9,7.1c0.2,0.4,0.2,0.9,0,1.3
			C310.8,317.9,310.4,318.7,299.2,318.7z M265.6,308.8c6.2,3.7,12.4,7.2,13.5,7.7c2,1,28.2,1.3,30.8,0.4c0-1-4-5-8.2-6.5l0,0
			c-3.2-1.1-11.2,1.6-14.7,2.7c-0.7,0.3-1.5,0.5-2.2,0.7c-0.4,0-0.8,0-13.8-11c-0.7,0.4-1.3,1-1.8,1.6L265.6,308.8z"/>
		<path class="st2" d="M285.6,213.1v4.9c-1.6-0.5-3.4-0.1-4.6,1.1c-1.9,1.6,0.1,4.7,0.1,4.7c1.5,0.8,3.1,1.2,4.8,1.4
			c0,0,5.6,11.3,10.2,13.2c4.6,1.9,7.7,2.5,11.8-0.8c6.3-5,5.7-14.2,5.7-18.4s0.6-10.1,0.6-10.1l-3.9-5.6
			C310.4,203.7,293.6,213.1,285.6,213.1z"/>
		<path class="st3" d="M302.2,240.8c-2.2-0.1-4.3-0.7-6.3-1.6c-4.4-1.8-9.4-11.3-10.4-13.2c-1.7-0.2-3.3-0.7-4.7-1.4
			c-0.1-0.1-0.2-0.1-0.2-0.2c-0.1-0.1-2.3-3.6,0-5.5c1.2-1.1,2.8-1.6,4.4-1.5v-4.2c0-0.3,0.3-0.6,0.6-0.6c7.8,0,24.3-9.3,24.5-9.4
			c0.3-0.2,0.6-0.1,0.8,0.2l3.9,5.6c0.1,0.1,0.1,0.3,0.1,0.4c0,0-0.6,5.9-0.6,10v1c0,4.6,0.1,13-5.9,17.9
			C306.7,239.8,304.5,240.7,302.2,240.8z M281.6,223.5c1.4,0.7,2.9,1.1,4.4,1.2c0.2,0,0.4,0.2,0.5,0.3c0.1,0.1,5.6,11.1,9.9,12.9
			c4.6,1.9,7.4,2.3,11.1-0.7c5.6-4.5,5.5-12.6,5.5-16.9v-1c0-3.7,0.4-8.8,0.6-9.9l-3.4-4.9c-2.8,1.5-16.4,8.8-24,9.2v4.4
			c0,0.2-0.1,0.4-0.3,0.5c-0.2,0.1-0.4,0.1-0.6,0.1c-1.4-0.4-2.9,0-4,1C280.2,220.8,281.3,223,281.6,223.5z"/>
		<path class="st3" d="M300.4,218.7c-0.1,1.1-0.7,1.9-1.2,1.8c-0.6-0.1-0.9-1-0.8-2.1c0.1-1.1,0.7-1.9,1.2-1.8
			S300.5,217.6,300.4,218.7z"/>
		<path class="st3" d="M310.4,218.7c-0.1,1.1-0.7,1.9-1.2,1.8c-0.6-0.1-0.9-1-0.8-2.1s0.7-1.9,1.2-1.8
			C310.2,216.6,310.5,217.6,310.4,218.7z"/>
		<path class="st3" d="M305.1,227.2h-0.7c-0.3,0-0.6-0.4-0.5-0.7c0-0.3,0.4-0.6,0.7-0.5c1,0.1,2-0.1,2.8-0.7
			c-0.9-1.6-1.4-3.4-1.5-5.2c-0.1-2.3,0.9-4.6,2.8-6c0.2-0.2,1.8-1.7,3-1.4c0.5,0.2,1,0.6,1.1,1.2c0.1,0.3-0.1,0.7-0.5,0.8
			c-0.3,0.1-0.7-0.1-0.8-0.5l0,0c0-0.1-0.1-0.3-0.2-0.3c-0.3-0.1-1.3,0.5-1.9,1.1c-1.6,1.1-2.5,3-2.4,4.9c0.1,1.8,0.7,3.6,1.6,5.1
			c0.2,0.2,0.1,0.6-0.1,0.8C307.7,226.7,306.4,227.2,305.1,227.2z"/>
		<path class="st3" d="M303,231.5c-0.9,0-1.8-0.1-2.7-0.4c-0.3-0.1-0.5-0.5-0.4-0.8c0.1-0.3,0.5-0.5,0.8-0.4c1.6,0.4,3.2,0.4,4.7,0
			c0.3-0.1,0.7,0.1,0.8,0.4c0.1,0.3-0.1,0.7-0.4,0.8l0,0C304.9,231.4,304,231.5,303,231.5z"/>
		<path class="st3" d="M303.4,214.9c-0.1,0-0.2,0-0.3-0.1c-1.8-1.2-4.1-1.2-5.8,0c-0.3,0.2-0.7,0.1-0.9-0.1
			c-0.2-0.3-0.2-0.6,0.1-0.8c0,0,0,0,0,0c2.2-1.5,5.1-1.5,7.3,0c0.3,0.2,0.3,0.6,0.2,0.9C303.8,214.8,303.6,214.9,303.4,214.9
			L303.4,214.9z"/>
		<polygon class="st2" points="288.2,238.7 295.9,252.1 292.3,263.5 285.9,247.2 		"/>
		<path class="st3" d="M292.3,264.1c-0.3,0-0.5-0.2-0.6-0.4l-6.4-16.3c0-0.1,0-0.3,0-0.4l2.3-8.5c0.1-0.2,0.3-0.4,0.5-0.4
			c0.3,0,0.5,0.1,0.6,0.3l7.6,13.4c0.1,0.2,0.1,0.3,0,0.5l-3.6,11.5C292.7,264,292.5,264.1,292.3,264.1L292.3,264.1z M286.5,247.2
			l5.7,14.5l3-9.5l-6.8-11.8L286.5,247.2z"/>
		<polygon class="st2" points="295.9,252.1 302,266.9 293.9,258.4 		"/>
		<path class="st3" d="M302,267.5c-0.2,0-0.3-0.1-0.4-0.2l-8.1-8.5c-0.2-0.2-0.2-0.4-0.1-0.6l1.9-6.4c0.1-0.3,0.3-0.4,0.6-0.4
			c0.3,0,0.5,0.1,0.6,0.4l6.2,14.8c0.1,0.3,0,0.6-0.2,0.8C302.3,267.5,302.1,267.5,302,267.5z M294.6,258.3l5.5,5.8l-4.2-10.2
			L294.6,258.3z"/>
		<polygon class="st2" points="302,266.9 306.9,252.7 303.6,244 		"/>
		<path class="st3" d="M302,267.5h-0.1c-0.3-0.1-0.5-0.3-0.5-0.6l1.6-22.9c0-0.3,0.2-0.5,0.5-0.6c0.3,0,0.6,0.1,0.7,0.4l3.3,8.7
			c0,0.1,0,0.3,0,0.4l-4.9,14.2C302.5,267.3,302.3,267.5,302,267.5z M304,246.9l-1.1,15.4l3.3-9.6L304,246.9z"/>
		<polygon class="st2" points="306.9,252.7 310.1,262.5 305.4,258.4 		"/>
		<path class="st3" d="M310.1,263.1c-0.1,0-0.3-0.1-0.4-0.1l-4.7-4c-0.2-0.2-0.2-0.4-0.2-0.6l1.5-5.7c0.1-0.3,0.3-0.5,0.6-0.5
			c0.3,0,0.5,0.2,0.6,0.4l3.2,9.8c0.1,0.3,0,0.6-0.2,0.7C310.3,263.1,310.2,263.1,310.1,263.1z M306.1,258.2l2.7,2.3l-1.8-5.6
			L306.1,258.2z"/>
	</g>
	<g id="freepik--Desk--inject-54">
		<rect x="278.8" y="316.7" class="st2" width="84" height="3.4"/>
		<path class="st3" d="M362.7,320.7h-84c-0.3,0-0.6-0.3-0.6-0.6v-3.4c0-0.3,0.3-0.6,0.6-0.6h84c0.3,0,0.6,0.3,0.6,0.6v3.4
			C363.3,320.5,363.1,320.7,362.7,320.7z M279.4,319.5h82.7v-2.2h-82.7V319.5z"/>
		<rect x="302.4" y="316.7" class="st2" width="84" height="3.4"/>
		<path class="st3" d="M386.4,320.7h-84c-0.3,0-0.6-0.3-0.6-0.6v-3.4c0-0.3,0.3-0.6,0.6-0.6h84c0.3,0,0.6,0.3,0.6,0.6v3.4
			C387,320.5,386.7,320.7,386.4,320.7z M303.1,319.5h82.7v-2.2h-82.7V319.5z"/>
		<rect x="330" y="257.3" class="st2" width="70" height="53.4"/>
		<path class="st3" d="M400,311.3h-70c-0.3,0-0.6-0.3-0.6-0.6v-53.4c0-0.3,0.3-0.6,0.6-0.6h70c0.3,0,0.6,0.3,0.6,0.6v53.4
			C400.6,311,400.3,311.3,400,311.3z M330.6,310.1h68.8v-52.2h-68.8V310.1z"/>
		<rect x="332.9" y="257.3" class="st3" width="70" height="53.4"/>
		<path class="st3" d="M402.9,311.3h-70c-0.3,0-0.6-0.3-0.6-0.6v-53.4c0-0.3,0.3-0.6,0.6-0.6h70c0.3,0,0.6,0.3,0.6,0.6v53.4
			C403.5,311,403.2,311.3,402.9,311.3z M333.5,310.1h68.8v-52.2h-68.8V310.1z"/>
		<rect x="363.3" y="285.9" class="st2" width="18.1" height="34.2"/>
		<path class="st3" d="M381.4,320.7h-18.1c-0.3,0-0.6-0.3-0.6-0.6v-34.2c0-0.3,0.3-0.6,0.6-0.6h18.1c0.3,0,0.6,0.3,0.6,0.6v34.2
			C382,320.5,381.8,320.7,381.4,320.7z M364,319.5h16.9v-33H364V319.5z"/>
		<rect x="408.9" y="305" class="st2" width="58.9" height="14"/>
		<path class="st3" d="M467.8,319.6h-58.9c-0.3,0-0.6-0.3-0.6-0.6v-14c0-0.3,0.3-0.6,0.6-0.6h58.9c0.3,0,0.6,0.3,0.6,0.6v14
			C468.4,319.4,468.1,319.6,467.8,319.6L467.8,319.6z M409.5,318.4h57.6v-12.8h-57.6L409.5,318.4z"/>
		<rect x="434.8" y="305" class="st2" width="33" height="14"/>
		<path class="st3" d="M467.8,319.6h-33c-0.3,0-0.6-0.3-0.6-0.6v-14c0-0.3,0.3-0.6,0.6-0.6h33c0.3,0,0.6,0.3,0.6,0.6v14
			C468.4,319.4,468.1,319.6,467.8,319.6L467.8,319.6z M435.4,318.4h31.7v-12.8h-31.7L435.4,318.4z"/>
		<path class="st3" d="M484.3,317.4c-1,0-1.8-0.8-1.9-1.8l-0.4-19.5l-9.2-24l-22.1,8.6c-1,0.4-2-0.1-2.4-1.1c-0.4-1,0.1-2,1.1-2.4
			l23.8-9.3c0.5-0.2,1-0.2,1.4,0c0.4,0.2,0.8,0.6,1,1l10,26.1c0.1,0.2,0.1,0.4,0.1,0.6l0.4,19.8
			C486.2,316.5,485.4,317.3,484.3,317.4L484.3,317.4z"/>
		<rect x="472.2" y="312" class="st3" width="24.3" height="7"/>
		<path class="st3" d="M496.5,319.6h-24.3c-0.3,0-0.6-0.3-0.6-0.6v-7c0-0.3,0.3-0.6,0.6-0.6h24.3c0.3,0,0.6,0.3,0.6,0.6v7
			C497.1,319.4,496.8,319.6,496.5,319.6z M472.8,318.4h23v-5.8h-23V318.4z"/>
		<circle class="st3" cx="473.9" cy="269.6" r="4.3"/>
		<path class="st3" d="M488.1,296.7c0-2.4-1.9-4.3-4.3-4.3c-2.4,0-4.3,1.9-4.3,4.3c0,2.4,1.9,4.3,4.3,4.3c0,0,0,0,0,0
			C486.1,301.1,488.1,299.1,488.1,296.7C488.1,296.7,488.1,296.7,488.1,296.7z"/>
		<polygon class="st3" points="448.7,274.9 432.4,273.9 442.6,296.3 452.5,283.3 		"/>
		<rect x="197.8" y="324.6" class="st3" width="310.4" height="145.1"/>
		<path class="st3" d="M508.2,470.4H197.9c-0.3,0-0.6-0.3-0.6-0.6V324.6c0-0.3,0.3-0.6,0.6-0.6h310.3c0.3,0,0.6,0.3,0.6,0.6v145.1
			C508.8,470.1,508.5,470.4,508.2,470.4z M198.4,469.1h309.1V325.2H198.4L198.4,469.1z"/>
		<rect x="197.8" y="324.6" class="st0" width="61" height="145.1"/>
		<path class="st3" d="M258.9,470.4h-61c-0.3,0-0.6-0.3-0.6-0.6V324.6c0-0.3,0.3-0.6,0.6-0.6h61c0.3,0,0.6,0.3,0.6,0.6v145.1
			C259.5,470.1,259.2,470.4,258.9,470.4C258.9,470.4,258.9,470.4,258.9,470.4z M198.5,469.1h59.8V325.2h-59.8L198.5,469.1z"/>
		<polygon class="st2" points="256.6,319.6 238.1,319.6 233.1,296.9 251.5,296.9 		"/>
		<path class="st3" d="M256.6,320.2h-18.5c-0.3,0-0.5-0.2-0.6-0.5l-5-22.7c0-0.2,0-0.4,0.1-0.5c0.1-0.1,0.3-0.2,0.5-0.2h18.5
			c0.3,0,0.5,0.2,0.6,0.5l5.1,22.7c0,0.2,0,0.4-0.1,0.5C257,320.1,256.8,320.2,256.6,320.2z M238.6,319h17.2l-4.8-21.4h-17.2
			L238.6,319z"/>
		<polygon class="st2" points="254.5,319.6 236,319.6 231,296.9 249.4,296.9 		"/>
		<path class="st3" d="M254.5,320.2H236c-0.3,0-0.5-0.2-0.6-0.5l-5-22.7c0-0.2,0-0.4,0.1-0.5c0.1-0.1,0.3-0.2,0.5-0.2h18.5
			c0.3,0,0.5,0.2,0.6,0.5l5,22.7c0.1,0.3-0.2,0.7-0.5,0.7C254.5,320.2,254.5,320.2,254.5,320.2L254.5,320.2z M236.5,319h17.2
			l-4.8-21.4h-17.2L236.5,319z"/>
		<polygon class="st2" points="236.9,319.6 245.7,319.6 248.2,308.7 239.3,308.7 		"/>
		<path class="st3" d="M245.7,320.2h-8.9c-0.2,0-0.4-0.1-0.5-0.2c-0.1-0.1-0.2-0.3-0.1-0.5l2.5-10.9c0.1-0.3,0.3-0.5,0.6-0.5h8.9
			c0.2,0,0.4,0.1,0.5,0.2c0.1,0.1,0.2,0.3,0.1,0.5l-2.5,10.9C246.3,320,246,320.2,245.7,320.2z M237.6,319h7.6l2.1-9.7h-7.6
			L237.6,319z"/>
		<rect x="194.4" y="319" class="st0" width="317.1" height="9"/>
		<path class="st3" d="M511.6,328.6H194.4c-0.3,0-0.6-0.3-0.6-0.6v-9c0-0.3,0.3-0.6,0.6-0.6h317.1c0.3,0,0.6,0.3,0.6,0.6v9
			C512.2,328.4,511.9,328.6,511.6,328.6z M195.1,327.4H511v-7.8H195.1L195.1,327.4z"/>
		<rect x="262.9" y="319" class="st3" width="248.7" height="9"/>
		<path class="st3" d="M511.6,328.6H262.9c-0.3,0-0.6-0.3-0.6-0.6v-9c0-0.3,0.3-0.6,0.6-0.6h248.7c0.3,0,0.6,0.3,0.6,0.6v9
			C512.2,328.4,511.9,328.6,511.6,328.6z M263.5,327.4H511v-7.8H263.5V327.4z"/>
		<path class="st2" d="M496.5,328.6H262.9c-0.3,0-0.6-0.3-0.6-0.6c0-0.3,0.3-0.6,0.6-0.6h233.6c0.3,0,0.6,0.3,0.6,0.6
			C497.1,328.4,496.8,328.6,496.5,328.6z"/>
		<rect x="185.7" y="398.1" class="st2" width="47" height="71.7"/>
		<path class="st3" d="M232.6,470.4h-47c-0.3,0-0.6-0.3-0.6-0.6v-71.7c0-0.3,0.3-0.6,0.6-0.6h47c0.3,0,0.6,0.3,0.6,0.6v71.7
			C233.3,470.1,233,470.4,232.6,470.4z M186.3,469.1H232v-70.5h-45.7V469.1z"/>
		<path class="st2" d="M232.6,457.8v-3.5l-2.4-2.4l2.4-2.4v-5.1l-2.4-2.4l2.4-2.4v-5.1l-2.4-2.4l2.4-2.4v-5.1l-2.4-2.4l2.4-2.4v-5.1
			l-2.4-2.4l2.4-2.4v-5.1l-2.4-2.4l2.4-2.4v-2h-1.5l-2.6,2.6l-2.6-2.6h-4.6l-2.6,2.6l-2.6-2.6h-4.6l-2.6,2.6l-2.6-2.6h-4.6l-2.6,2.6
			l-2.6-2.6h-4.6l-2.6,2.6l-2.6-2.6h-0.7v2.8l1.6,1.6l-1.6,1.5v6.8l1.6,1.6l-1.6,1.6v6.8l1.6,1.5l-1.6,1.6v6.8l1.6,1.6l-1.6,1.6v6.8
			l1.6,1.5l-1.6,1.6v6.8l1.6,1.6l-1.6,1.6v3.5l3.3-3.3l3.2,3.2l-6.5,6.5v3.5l8.2-8.2l3.2,3.2l-8,8h3.5l6.3-6.3l3.2,3.2l-3.1,3.1h3.5
			l1.3-1.3l1.3,1.3h3.5l-3.1-3.1l3.2-3.2l3.2,3.2l-3.1,3.1h3.5l1.3-1.3l1.3,1.3h3.5l-3.1-3.1l3.2-3.2l6.3,6.3h3.5l-8-8l3.2-3.2
			l9.1,9.1v-3.5l-7.3-7.3l3.2-3.2L232.6,457.8z M231.7,446.9l-3.2,3.2l-3.2-3.2l3.2-3.2L231.7,446.9z M215.4,427.1l3.2-3.2l3.2,3.2
			l-3.2,3.2L215.4,427.1z M216.9,432.1l-3.2,3.2l-3.2-3.2l3.2-3.2L216.9,432.1z M213.7,425.4l-3.2-3.2l3.2-3.2l3.2,3.2L213.7,425.4z
			 M211.9,427.1l-3.2,3.2l-3.2-3.2l3.2-3.2L211.9,427.1z M207,432.1l-3.2,3.2l-3.2-3.2l3.2-3.2L207,432.1z M203.8,425.4l-3.2-3.2
			l3.2-3.2l3.2,3.2L203.8,425.4z M202,427.1l-3.2,3.2l-3.2-3.2l3.2-3.2L202,427.1z M202,437l-3.2,3.2l-3.2-3.2l3.2-3.2L202,437z
			 M203.8,438.8l3.2,3.2l-3.2,3.2l-3.2-3.2L203.8,438.8z M205.5,437l3.2-3.2l3.2,3.2l-3.2,3.2L205.5,437z M213.7,438.8l3.2,3.2
			l-3.2,3.2l-3.2-3.2L213.7,438.8z M215.4,437l3.2-3.2l3.2,3.2l-3.2,3.2L215.4,437z M220.4,432.1l3.2-3.2l3.2,3.2l-3.2,3.2
			L220.4,432.1z M220.4,422.2l3.2-3.2l3.2,3.2l-3.2,3.2L220.4,422.2z M223.6,415.5l-3.2-3.2l3.2-3.2l3.2,3.2L223.6,415.5z
			 M221.8,417.3l-3.2,3.2l-3.2-3.2l3.2-3.2L221.8,417.3z M213.7,415.5l-3.2-3.2l3.2-3.2l3.2,3.2L213.7,415.5z M211.9,417.3l-3.2,3.2
			l-3.2-3.2l3.2-3.2L211.9,417.3z M203.8,415.5l-3.2-3.2l3.2-3.2l3.2,3.2L203.8,415.5z M202.1,417.3l-3.2,3.2l-3.2-3.2l3.2-3.2
			L202.1,417.3z M193.9,415.5l-3.2-3.2l3.2-3.2l3.2,3.2L193.9,415.5z M197.1,422.2l-3.2,3.2l-3.2-3.2l3.2-3.2L197.1,422.2z
			 M197.1,432.1l-3.2,3.2l-3.2-3.2l3.2-3.2L197.1,432.1z M197.1,442l-3.2,3.2l-3.2-3.2l3.2-3.2L197.1,442z M198.9,443.7l3.2,3.2
			l-3.2,3.2l-3.2-3.2L198.9,443.7z M203.8,448.7l3.2,3.2l-3.2,3.2l-3.2-3.2L203.8,448.7z M205.5,446.9l3.2-3.2l3.2,3.2l-3.2,3.2
			L205.5,446.9z M213.7,448.7l3.2,3.2l-3.2,3.2l-3.2-3.2L213.7,448.7z M215.4,446.9l3.2-3.2l3.2,3.2l-3.2,3.2L215.4,446.9z
			 M220.4,442l3.2-3.2l3.2,3.2l-3.2,3.2L220.4,442z M231.7,437l-3.2,3.2l-3.2-3.2l3.2-3.2L231.7,437z M231.7,427.2l-3.2,3.2
			l-3.2-3.2l3.2-3.2L231.7,427.2z M231.7,417.3l-3.2,3.2l-3.2-3.2l3.2-3.2L231.7,417.3z M231.7,407.4l-3.2,3.2l-3.2-3.2l3.2-3.2
			L231.7,407.4z M223.6,399.2l3.2,3.2l-3.2,3.2l-3.2-3.2L223.6,399.2z M221.8,407.4l-3.2,3.2l-3.2-3.2l3.2-3.2L221.8,407.4z
			 M213.7,399.2l3.2,3.2l-3.2,3.2l-3.2-3.2L213.7,399.2z M212,407.4l-3.2,3.2l-3.2-3.2l3.2-3.2L212,407.4z M203.8,399.2l3.2,3.2
			l-3.2,3.2l-3.2-3.2L203.8,399.2z M202.1,407.4l-3.2,3.2l-3.2-3.2l3.2-3.2L202.1,407.4z M193.9,399.2l3.2,3.2l-3.2,3.2l-3.2-3.2
			L193.9,399.2z M185.8,407.4l3.2-3.2l3.2,3.2l-3.2,3.2L185.8,407.4z M185.8,417.3l3.2-3.2l3.2,3.2l-3.2,3.2L185.8,417.3z
			 M185.8,427.2l3.2-3.2l3.2,3.2l-3.2,3.2L185.8,427.2z M185.8,437l3.2-3.2l3.2,3.2l-3.2,3.2L185.8,437z M185.8,446.9l3.2-3.2
			l3.2,3.2l-3.2,3.2L185.8,446.9z M190.7,451.9l3.2-3.2l3.2,3.2l-3.2,3.2L190.7,451.9z M195.7,456.8l3.2-3.2l3.2,3.2l-3.2,3.2
			L195.7,456.8z M203.8,465l-3.2-3.2l3.2-3.2l3.2,3.2L203.8,465z M205.6,456.8l3.2-3.2l3.2,3.2l-3.2,3.2L205.6,456.8z M213.7,465
			l-3.2-3.2l3.2-3.2l3.2,3.2L213.7,465z M218.7,460l-3.2-3.2l3.2-3.2l3.2,3.2L218.7,460z M223.6,455.1l-3.2-3.2l3.2-3.2l3.2,3.2
			L223.6,455.1z"/>
		<path class="st3" d="M228.4,470.4h-3.5c-0.2,0-0.3-0.1-0.4-0.2l-5.8-5.8l-2.3,2.3l2.6,2.6c0.2,0.2,0.2,0.6,0,0.9
			c-0.1,0.1-0.3,0.2-0.4,0.2H215c-0.2,0-0.3-0.1-0.4-0.2l-0.9-0.9l-0.9,0.9c-0.1,0.1-0.3,0.2-0.4,0.2h-7.2c-0.2,0-0.3-0.1-0.4-0.2
			l-0.9-0.9l-0.9,0.9c-0.1,0.1-0.3,0.2-0.4,0.2H199c-0.2,0-0.5-0.2-0.6-0.4c-0.1-0.2,0-0.5,0.1-0.7l2.6-2.6l-2.3-2.3l-5.8,5.8
			c-0.1,0.1-0.3,0.2-0.4,0.2h-3.5c-0.3,0-0.5-0.1-0.6-0.4c-0.1-0.2,0-0.5,0.1-0.7l7.6-7.6l-2.3-2.3l-7.8,7.8
			c-0.2,0.2-0.4,0.2-0.7,0.1c-0.2-0.1-0.4-0.3-0.4-0.6v-3.5c0-0.2,0.1-0.3,0.2-0.4l6.1-6.1l-2.3-2.3l-2.9,2.9
			c-0.2,0.2-0.4,0.2-0.7,0.1c-0.2-0.1-0.4-0.3-0.4-0.6v-3.5c0-0.2,0.1-0.3,0.2-0.4l1.1-1.1l-1.1-1.1c-0.1-0.1-0.2-0.3-0.2-0.4v-6.8
			c0-0.2,0.1-0.3,0.2-0.4l1.1-1.1l-1.1-1.1c-0.1-0.1-0.2-0.3-0.2-0.4v-6.8c0-0.2,0.1-0.3,0.2-0.4l1.1-1.1l-1.1-1.1
			c-0.1-0.1-0.2-0.3-0.2-0.4v-6.8c0-0.2,0.1-0.3,0.2-0.4l1.1-1.1l-1.1-1.1c-0.1-0.1-0.2-0.3-0.2-0.4v-6.8c0-0.2,0.1-0.3,0.2-0.4
			l1.1-1.1l-1.1-1.1c-0.1-0.1-0.2-0.3-0.2-0.4V404c0-0.2,0.1-0.3,0.2-0.4l1.1-1.1l-1.1-1.1c-0.1-0.1-0.2-0.3-0.2-0.4V398
			c0-0.3,0.3-0.6,0.6-0.6h0.7c0.2,0,0.3,0.1,0.4,0.2l2.2,2.2l2.2-2.2c0.1-0.1,0.3-0.2,0.4-0.2h4.6c0.2,0,0.3,0.1,0.4,0.2l2.2,2.2
			l2.2-2.2c0.1-0.1,0.3-0.2,0.4-0.2h4.6c0.2,0,0.3,0.1,0.4,0.2l2.2,2.2l2.2-2.2c0.1-0.1,0.3-0.2,0.4-0.2h4.6c0.2,0,0.3,0.1,0.4,0.2
			l2.2,2.2l2.2-2.2c0.1-0.1,0.3-0.2,0.4-0.2h4.6c0.2,0,0.3,0.1,0.4,0.2l2.2,2.2l2.2-2.2c0.1-0.1,0.3-0.2,0.4-0.2h1.5
			c0.3,0,0.6,0.3,0.6,0.6v2c0,0.2-0.1,0.3-0.2,0.4l-2,2l2,2c0.1,0.1,0.2,0.3,0.2,0.4v5.1c0,0.2-0.1,0.3-0.2,0.4l-2,2l2,2
			c0.1,0.1,0.2,0.3,0.2,0.4v5.1c0,0.2-0.1,0.3-0.2,0.4l-2,2l2,2c0.1,0.1,0.2,0.3,0.2,0.4v5.1c0,0.2-0.1,0.3-0.2,0.4l-2,2l2,2
			c0.1,0.1,0.2,0.3,0.2,0.4v5.1c0,0.2-0.1,0.3-0.2,0.4l-2,2l2,2c0.1,0.1,0.2,0.3,0.2,0.4v5.1c0,0.2-0.1,0.3-0.2,0.4l-2,2l2,2
			c0.1,0.1,0.2,0.3,0.2,0.4v3.5c0,0.2-0.2,0.5-0.4,0.6c-0.2,0.1-0.5,0-0.7-0.1l-3.7-3.7l-2.3,2.3l6.9,6.9c0.1,0.1,0.2,0.3,0.2,0.4
			v3.5c0,0.2-0.2,0.5-0.4,0.6c-0.2,0.1-0.5,0-0.7-0.1l-8.7-8.7l-2.3,2.3l7.6,7.6c0.2,0.2,0.2,0.6,0,0.9
			C228.7,470.3,228.5,470.3,228.4,470.4L228.4,470.4z M225.1,469.1h1.8l-7-6.9c-0.2-0.2-0.2-0.6,0-0.9c0,0,0,0,0,0l3.2-3.2
			c0.2-0.2,0.6-0.2,0.9,0l8,8v-1.8l-7.1-7.1c-0.1-0.1-0.2-0.3-0.2-0.4c0-0.2,0.1-0.3,0.2-0.4l3.2-3.2c0.2-0.2,0.6-0.2,0.9,0
			c0,0,0,0,0,0l3.1,3.1v-1.7l-2.2-2.2c-0.2-0.2-0.3-0.6,0-0.8c0,0,0,0,0,0l2.2-2.2v-1.8l-3.1,3.1c-0.1,0.1-0.3,0.2-0.4,0.2l0,0
			c-0.2,0-0.3-0.1-0.4-0.2l-3.2-3.2c-0.2-0.2-0.3-0.6,0-0.8c0,0,0,0,0,0l3.2-3.2c0.2-0.2,0.6-0.2,0.9,0l3.1,3.1v-1.8l-2.2-2.2
			c-0.2-0.2-0.2-0.6,0-0.9c0,0,0,0,0,0l2.2-2.2v-1.7l-3.1,3.1c-0.1,0.1-0.3,0.2-0.4,0.2l0,0c-0.2,0-0.3-0.1-0.4-0.2l-3.2-3.2
			c-0.1-0.1-0.2-0.3-0.2-0.4c0-0.2,0.1-0.3,0.2-0.4l3.2-3.2c0.2-0.2,0.6-0.2,0.9,0c0,0,0,0,0,0l3.1,3.1v-1.7l-2.2-2.2
			c-0.1-0.1-0.2-0.3-0.2-0.4c0-0.2,0.1-0.3,0.2-0.4l2.2-2.2v-1.8l-3.1,3.1c-0.2,0.2-0.6,0.2-0.9,0l-3.2-3.2c-0.2-0.2-0.3-0.6,0-0.8
			c0,0,0,0,0,0l3.2-3.2c0.1-0.1,0.3-0.2,0.4-0.2l0,0c0.2,0,0.3,0.1,0.4,0.2l3.1,3.1v-1.8l-2.2-2.2c-0.1-0.1-0.2-0.3-0.2-0.4
			c0-0.2,0.1-0.3,0.2-0.4l2.2-2.2v-1.7l-3.1,3.1c-0.2,0.2-0.6,0.2-0.9,0c0,0,0,0,0,0l-3.2-3.2c-0.1-0.1-0.2-0.3-0.2-0.4
			c0-0.2,0.1-0.3,0.2-0.4l3.2-3.2c0.1-0.1,0.3-0.2,0.4-0.2l0,0c0.2,0,0.3,0.1,0.4,0.2l3.1,3.1V415l-2.2-2.2
			c-0.1-0.1-0.2-0.3-0.2-0.4c0-0.2,0.1-0.3,0.2-0.4l2.2-2.2v-1.8l-3.1,3.1c-0.2,0.2-0.6,0.2-0.9,0l-3.2-3.2c-0.2-0.2-0.3-0.6,0-0.8
			c0,0,0,0,0,0l3.2-3.2c0.2-0.2,0.6-0.2,0.9,0l3.1,3.1v-1.8l-2.2-2.2c-0.1-0.1-0.2-0.3-0.2-0.4c0-0.2,0.1-0.3,0.2-0.4l2.2-2.2v-1.1
			h-0.6l-2.5,2.5c-0.2,0.2-0.6,0.2-0.9,0l-2.5-2.5h-1.8c0.1,0,0.1,0.1,0.2,0.1l3.2,3.2c0.1,0.1,0.2,0.3,0.2,0.4
			c0,0.2-0.1,0.3-0.2,0.4l-3.2,3.2c-0.2,0.2-0.6,0.2-0.9,0l-3.2-3.2c-0.2-0.2-0.3-0.6,0-0.8c0,0,0,0,0,0l3.2-3.2
			c0.1-0.1,0.1-0.1,0.2-0.1h-1.8l-2.5,2.5c-0.2,0.2-0.6,0.3-0.8,0c0,0,0,0,0,0l-2.5-2.5h-1.8c0.1,0,0.1,0.1,0.2,0.1l3.2,3.2
			c0.2,0.2,0.3,0.6,0,0.8c0,0,0,0,0,0l-3.2,3.2c-0.2,0.2-0.6,0.2-0.9,0l-3.2-3.2c-0.1-0.1-0.2-0.3-0.2-0.4c0-0.2,0.1-0.3,0.2-0.4
			l3.2-3.2c0.1-0.1,0.1-0.1,0.2-0.1h-1.8l-2.5,2.5c-0.2,0.2-0.6,0.2-0.9,0c0,0,0,0,0,0l-2.5-2.5H204c0.1,0,0.1,0.1,0.2,0.1l3.2,3.2
			c0.1,0.1,0.2,0.3,0.2,0.4c0,0.2-0.1,0.3-0.2,0.4l-3.2,3.2c-0.2,0.2-0.6,0.2-0.9,0l-3.2-3.2c-0.2-0.2-0.3-0.6,0-0.8c0,0,0,0,0,0
			l3.2-3.2c0.1-0.1,0.1-0.1,0.2-0.1h-1.8l-2.5,2.5c-0.2,0.2-0.6,0.2-0.9,0c0,0,0,0,0,0l-2.5-2.5h-1.8c0.1,0,0.1,0.1,0.2,0.1l3.2,3.2
			c0.2,0.2,0.2,0.6,0,0.9l-3.2,3.2c-0.2,0.2-0.6,0.2-0.9,0l-3.2-3.2c-0.1-0.1-0.2-0.3-0.2-0.4c0-0.2,0.1-0.3,0.2-0.4l3.2-3.2
			c0.1-0.1,0.1-0.1,0.2-0.1h-1.8l-2.5,2.5c-0.2,0.2-0.6,0.2-0.9,0l-2.3-2.3v1.8l1.4,1.4c0.1,0.1,0.2,0.3,0.2,0.4
			c0,0.2-0.1,0.3-0.2,0.4l-1.4,1.4v1.8l2.3-2.3c0.2-0.2,0.6-0.2,0.9,0l3.2,3.2c0.2,0.2,0.3,0.6,0,0.8c0,0,0,0,0,0l-3.2,3.2
			c-0.2,0.2-0.6,0.2-0.9,0l-2.3-2.3v1.7l1.4,1.4c0.1,0.1,0.2,0.3,0.2,0.4c0,0.2-0.1,0.3-0.2,0.4l-1.4,1.4v1.7l2.3-2.2
			c0.2-0.2,0.6-0.2,0.9,0l3.2,3.2c0.1,0.1,0.2,0.3,0.2,0.4c0,0.2-0.1,0.3-0.2,0.4l-3.2,3.2c-0.2,0.2-0.6,0.2-0.9,0c0,0,0,0,0,0
			l-2.3-2.3v1.8l1.4,1.4c0.1,0.1,0.2,0.3,0.2,0.4c0,0.2-0.1,0.3-0.2,0.4l-1.4,1.4v1.7l2.3-2.3c0.2-0.2,0.6-0.2,0.9,0l3.2,3.2
			c0.2,0.2,0.3,0.6,0,0.8c0,0,0,0,0,0l-3.2,3.2c-0.2,0.2-0.6,0.2-0.9,0l-2.3-2.3v1.7l1.4,1.4c0.1,0.1,0.2,0.3,0.2,0.4
			c0,0.2-0.1,0.3-0.2,0.4l-1.4,1.4v1.7l2.3-2.2c0.2-0.2,0.6-0.2,0.9,0c0,0,0,0,0,0l3.2,3.2c0.2,0.2,0.2,0.6,0,0.9c0,0,0,0,0,0
			l-3.2,3.2c-0.1,0.1-0.3,0.2-0.4,0.2l0,0c-0.2,0-0.3-0.1-0.4-0.2l-2.3-2.2v1.7l1.4,1.4c0.2,0.2,0.2,0.6,0,0.9c0,0,0,0,0,0l-1.4,1.4
			v1.7l2.3-2.3c0.2-0.2,0.6-0.2,0.9,0l3.2,3.2c0.2,0.2,0.3,0.6,0,0.8c0,0,0,0,0,0l-3.2,3.2c-0.1,0.1-0.3,0.2-0.4,0.2l0,0
			c-0.2,0-0.3-0.1-0.4-0.2l-2.3-2.3v1.8l1.4,1.4c0.2,0.2,0.3,0.6,0,0.8c0,0,0,0,0,0l-1.4,1.4v1.8l2.3-2.3c0.2-0.2,0.6-0.2,0.9,0
			c0,0,0,0,0,0l3.2,3.2c0.1,0.1,0.2,0.3,0.2,0.4c0,0.2-0.1,0.3-0.2,0.4l-6.3,6.3v1.7l7.2-7.2c0.2-0.2,0.6-0.2,0.9,0l3.2,3.2
			c0.2,0.2,0.2,0.6,0,0.9l-7,6.9h1.8l6.1-6.1c0.1-0.1,0.3-0.2,0.4-0.2l0,0c0.2,0,0.3,0.1,0.4,0.2l3.2,3.2c0.1,0.1,0.2,0.3,0.2,0.4
			c0,0.2-0.1,0.3-0.2,0.4l-2,2h1.7l1.1-1.1c0.2-0.2,0.6-0.2,0.9,0l1.1,1.1h1.7l-2-2c-0.1-0.1-0.2-0.3-0.2-0.4c0-0.2,0.1-0.3,0.2-0.4
			l3.2-3.2c0.2-0.2,0.6-0.2,0.9,0l3.2,3.2c0.1,0.1,0.2,0.3,0.2,0.4c0,0.2-0.1,0.3-0.2,0.4l-2,2h1.8l1.1-1.1c0.2-0.2,0.6-0.2,0.9,0
			l1.1,1.1h1.7l-2-2c-0.1-0.1-0.2-0.3-0.2-0.4c0-0.2,0.1-0.3,0.2-0.4l3.2-3.2c0.2-0.2,0.6-0.2,0.9,0L225.1,469.1z M206.4,466.7
			l2.3,2.3l2.3-2.3l-2.3-2.3L206.4,466.7z M226.2,446.9l2.3,2.3l2.3-2.3l-2.3-2.3L226.2,446.9z M186.6,446.9l2.3,2.3l2.3-2.3
			l-2.3-2.3L186.6,446.9z M226.2,437l2.3,2.3l2.3-2.3l-2.3-2.3L226.2,437z M186.6,437l2.3,2.3l2.3-2.3l-2.3-2.3L186.6,437z
			 M226.2,427.1l2.3,2.3l2.3-2.3l-2.3-2.3L226.2,427.1z M186.6,427.1l2.3,2.3l2.3-2.3l-2.3-2.3L186.6,427.1z M226.2,417.2l2.3,2.3
			l2.3-2.3l-2.3-2.3L226.2,417.2z M186.6,417.2l2.3,2.3l2.3-2.3l-2.3-2.3L186.6,417.2z M226.2,407.3l2.3,2.3l2.3-2.3l-2.3-2.3
			L226.2,407.3z M186.6,407.3l2.3,2.3l2.3-2.3l-2.3-2.3L186.6,407.3z M201.5,402.4l2.3,2.3l2.3-2.3l-2.3-2.3L201.5,402.4z
			 M211.4,402.4l2.3,2.3l2.3-2.3l-2.3-2.3L211.4,402.4z M191.6,402.4l2.3,2.3l2.3-2.3l-2.3-2.3L191.6,402.4z M221.3,402.4l2.3,2.3
			l2.3-2.3l-2.3-2.3L221.3,402.4z M213.7,465.5L213.7,465.5c-0.2,0-0.3-0.1-0.4-0.2l-3.2-3.2c-0.2-0.2-0.2-0.6,0-0.9l3.2-3.2
			c0.2-0.2,0.6-0.2,0.9,0l3.2,3.2c0.2,0.2,0.2,0.6,0,0.9l-3.2,3.2C214,465.5,213.9,465.6,213.7,465.5L213.7,465.5z M211.4,461.7
			l2.3,2.3l2.3-2.3l-2.3-2.3L211.4,461.7z M203.8,465.5L203.8,465.5c-0.2,0-0.3-0.1-0.4-0.2l-3.2-3.2c-0.2-0.2-0.2-0.6,0-0.9
			c0,0,0,0,0,0l3.2-3.2c0.2-0.2,0.6-0.2,0.9,0l3.2,3.2c0.2,0.2,0.2,0.6,0,0.9c0,0,0,0,0,0l-3.2,3.2
			C204.1,465.5,204,465.6,203.8,465.5L203.8,465.5z M201.5,461.7l2.3,2.3l2.3-2.3l-2.3-2.3L201.5,461.7z M218.6,460.6
			c-0.2,0-0.3-0.1-0.4-0.2l-3.2-3.2c-0.1-0.1-0.2-0.3-0.2-0.4c0-0.2,0.1-0.3,0.2-0.4l3.2-3.2c0.2-0.2,0.6-0.3,0.8,0c0,0,0,0,0,0
			l3.2,3.2c0.1,0.1,0.2,0.3,0.2,0.4c0,0.2-0.1,0.3-0.2,0.4l-3.2,3.2C219,460.5,218.8,460.6,218.6,460.6L218.6,460.6z M216.3,456.8
			l2.3,2.3l2.3-2.3l-2.3-2.3L216.3,456.8z M208.7,460.6c-0.2,0-0.3-0.1-0.4-0.2l-3.2-3.2c-0.2-0.2-0.2-0.6,0-0.9c0,0,0,0,0,0
			l3.2-3.2c0.2-0.2,0.6-0.2,0.9,0l3.2,3.2c0.2,0.2,0.2,0.6,0,0.9c0,0,0,0,0,0l-3.2,3.2C209.1,460.5,208.9,460.6,208.7,460.6
			L208.7,460.6z M206.4,456.8l2.3,2.3l2.3-2.3l-2.3-2.3L206.4,456.8z M198.9,460.6c-0.2,0-0.3-0.1-0.4-0.2l-3.2-3.2
			c-0.1-0.1-0.2-0.3-0.2-0.4c0-0.2,0.1-0.3,0.2-0.4l3.2-3.2c0.2-0.2,0.6-0.2,0.9,0c0,0,0,0,0,0l3.2,3.2c0.1,0.1,0.2,0.3,0.2,0.4
			c0,0.2-0.1,0.3-0.2,0.4l-3.2,3.2C199.2,460.5,199,460.6,198.9,460.6L198.9,460.6z M196.5,456.8l2.3,2.3l2.3-2.3l-2.3-2.3
			L196.5,456.8z M213.7,455.6c-0.2,0-0.3-0.1-0.4-0.2l-3.2-3.2c-0.1-0.1-0.2-0.3-0.2-0.4c0-0.2,0.1-0.3,0.2-0.4l3.2-3.2
			c0.2-0.2,0.6-0.2,0.9,0l3.2,3.2c0.2,0.2,0.3,0.6,0,0.8c0,0,0,0,0,0l-3.2,3.2C214,455.6,213.8,455.7,213.7,455.6L213.7,455.6z
			 M211.4,451.8l2.3,2.3l2.3-2.3l-2.3-2.3L211.4,451.8z M223.6,455.6c-0.2,0-0.3-0.1-0.4-0.2l-3.2-3.2c-0.2-0.2-0.3-0.6,0-0.8
			c0,0,0,0,0,0l3.2-3.2c0.2-0.2,0.6-0.2,0.9,0l3.2,3.2c0.2,0.2,0.3,0.6,0,0.8c0,0,0,0,0,0l-3.2,3.2
			C223.9,455.6,223.7,455.7,223.6,455.6L223.6,455.6z M221.3,451.8l2.3,2.3l2.3-2.3l-2.3-2.3L221.3,451.8z M193.9,455.6
			c-0.2,0-0.3-0.1-0.4-0.2l-3.2-3.2c-0.2-0.2-0.2-0.6,0-0.9l3.2-3.2c0.2-0.2,0.6-0.2,0.9,0l3.2,3.2c0.2,0.2,0.2,0.6,0,0.9l-3.2,3.2
			C194.2,455.6,194.1,455.7,193.9,455.6L193.9,455.6z M191.6,451.8l2.3,2.3l2.3-2.3l-2.3-2.3L191.6,451.8z M203.8,455.6
			c-0.2,0-0.3-0.1-0.4-0.2l-3.2-3.2c-0.2-0.2-0.3-0.6,0-0.8c0,0,0,0,0,0l3.2-3.2c0.2-0.2,0.6-0.2,0.9,0l3.2,3.2
			c0.1,0.1,0.2,0.3,0.2,0.4c0,0.2-0.1,0.3-0.2,0.4l-3.2,3.2C204.1,455.6,204,455.7,203.8,455.6L203.8,455.6z M201.5,451.8l2.3,2.3
			l2.3-2.3l-2.3-2.3L201.5,451.8z M218.6,450.7L218.6,450.7c-0.2,0-0.3-0.1-0.4-0.2l-3.2-3.2c-0.2-0.2-0.2-0.6,0-0.9l3.2-3.2
			c0.2-0.2,0.6-0.2,0.9,0l3.2,3.2c0.2,0.2,0.2,0.6,0,0.9l-3.2,3.2C219,450.6,218.8,450.7,218.6,450.7L218.6,450.7z M216.3,446.9
			l2.3,2.3l2.3-2.3l-2.3-2.3L216.3,446.9z M198.9,450.7L198.9,450.7c-0.2,0-0.3-0.1-0.4-0.2l-3.2-3.2c-0.2-0.2-0.2-0.6,0-0.9
			l3.2-3.2c0.2-0.2,0.6-0.2,0.9,0l3.2,3.2c0.2,0.2,0.2,0.6,0,0.9l-3.2,3.2C199.2,450.6,199,450.7,198.9,450.7L198.9,450.7z
			 M196.5,446.9l2.3,2.3l2.3-2.3l-2.3-2.3L196.5,446.9z M208.7,450.7c-0.2,0-0.3-0.1-0.4-0.2l-3.2-3.2c-0.2-0.2-0.3-0.6,0-0.8
			c0,0,0,0,0,0l3.2-3.2c0.2-0.2,0.6-0.2,0.9,0l3.2,3.2c0.2,0.2,0.3,0.6,0,0.8c0,0,0,0,0,0l-3.2,3.2
			C209.1,450.6,208.9,450.7,208.7,450.7L208.7,450.7z M206.4,446.9l2.3,2.3l2.3-2.3l-2.3-2.3L206.4,446.9z M223.6,445.7
			c-0.2,0-0.3-0.1-0.4-0.2l-3.2-3.2c-0.2-0.2-0.2-0.6,0-0.9c0,0,0,0,0,0l3.2-3.2c0.2-0.2,0.6-0.2,0.9,0l3.2,3.2
			c0.2,0.2,0.2,0.6,0,0.9c0,0,0,0,0,0l-3.2,3.2C223.9,445.7,223.7,445.8,223.6,445.7L223.6,445.7z M221.3,441.9l2.3,2.3l2.3-2.3
			l-2.3-2.3L221.3,441.9z M213.7,445.7c-0.2,0-0.3-0.1-0.4-0.2l-3.2-3.2c-0.2-0.2-0.2-0.6,0-0.9l3.2-3.2c0.2-0.2,0.6-0.2,0.9,0
			l3.2,3.2c0.2,0.2,0.2,0.6,0,0.9l-3.2,3.2C214,445.7,213.9,445.8,213.7,445.7L213.7,445.7z M211.4,441.9l2.3,2.3l2.3-2.3l-2.3-2.3
			L211.4,441.9z M203.8,445.7c-0.2,0-0.3-0.1-0.4-0.2l-3.2-3.2c-0.2-0.2-0.2-0.6,0-0.9c0,0,0,0,0,0l3.2-3.2c0.2-0.2,0.6-0.2,0.9,0
			l3.2,3.2c0.2,0.2,0.2,0.6,0,0.9c0,0,0,0,0,0l-3.2,3.2C204.1,445.7,204,445.8,203.8,445.7L203.8,445.7z M201.5,441.9l2.3,2.3
			l2.3-2.3l-2.3-2.3L201.5,441.9z M193.9,445.7c-0.2,0-0.3-0.1-0.4-0.2l-3.2-3.2c-0.2-0.2-0.2-0.6,0-0.9l3.2-3.2
			c0.2-0.2,0.6-0.2,0.9,0l3.2,3.2c0.2,0.2,0.2,0.6,0,0.9l-3.2,3.2C194.2,445.7,194.1,445.8,193.9,445.7L193.9,445.7z M191.6,441.9
			l2.3,2.3l2.3-2.3l-2.3-2.3L191.6,441.9z M208.7,440.8c-0.2,0-0.3-0.1-0.4-0.2l-3.2-3.2c-0.1-0.1-0.2-0.3-0.2-0.4
			c0-0.2,0.1-0.3,0.2-0.4l3.2-3.2c0.1-0.1,0.3-0.2,0.4-0.2l0,0c0.2,0,0.3,0.1,0.4,0.2l3.2,3.2c0.1,0.1,0.2,0.3,0.2,0.4
			c0,0.2-0.1,0.3-0.2,0.4l-3.2,3.2C209.1,440.8,208.9,440.8,208.7,440.8L208.7,440.8z M206.4,437l2.3,2.3l2.3-2.3l-2.3-2.3
			L206.4,437z M218.6,440.8c-0.2,0-0.3-0.1-0.4-0.2l-3.2-3.2c-0.1-0.1-0.2-0.3-0.2-0.4c0-0.2,0.1-0.3,0.2-0.4l3.2-3.2
			c0.2-0.2,0.6-0.3,0.8,0c0,0,0,0,0,0l3.2,3.2c0.1,0.1,0.2,0.3,0.2,0.4c0,0.2-0.1,0.3-0.2,0.4l-3.2,3.2
			C219,440.8,218.8,440.8,218.6,440.8L218.6,440.8z M216.3,437l2.3,2.3l2.3-2.3l-2.3-2.3L216.3,437z M198.9,440.8
			c-0.2,0-0.3-0.1-0.4-0.2l-3.2-3.2c-0.2-0.2-0.2-0.6,0-0.9c0,0,0,0,0,0l3.2-3.2c0.2-0.2,0.6-0.2,0.9,0c0,0,0,0,0,0l3.2,3.2
			c0.1,0.1,0.2,0.3,0.2,0.4c0,0.2-0.1,0.3-0.2,0.4l-3.2,3.2C199.2,440.8,199,440.8,198.9,440.8L198.9,440.8z M196.5,437l2.3,2.3
			l2.3-2.3l-2.3-2.3L196.5,437z M223.6,435.9c-0.2,0-0.3-0.1-0.4-0.2l-3.2-3.2c-0.1-0.1-0.2-0.3-0.2-0.4c0-0.2,0.1-0.3,0.2-0.4
			l3.2-3.2c0.2-0.2,0.6-0.2,0.9,0l3.2,3.2c0.1,0.1,0.2,0.3,0.2,0.4c0,0.2-0.1,0.3-0.2,0.4l-3.2,3.2
			C223.9,435.8,223.7,435.9,223.6,435.9L223.6,435.9z M221.3,432l2.3,2.3l2.3-2.3l-2.3-2.3L221.3,432z M213.7,435.9
			c-0.2,0-0.3-0.1-0.4-0.2l-3.2-3.2c-0.1-0.1-0.2-0.3-0.2-0.4c0-0.2,0.1-0.3,0.2-0.4l3.2-3.2c0.2-0.2,0.6-0.2,0.9,0l3.2,3.2
			c0.1,0.1,0.2,0.3,0.2,0.4c0,0.2-0.1,0.3-0.2,0.4l-3.2,3.2C214,435.8,213.9,435.9,213.7,435.9L213.7,435.9z M211.4,432l2.3,2.3
			l2.3-2.3l-2.3-2.3L211.4,432z M203.8,435.9c-0.2,0-0.3-0.1-0.4-0.2l-3.2-3.2c-0.1-0.1-0.2-0.3-0.2-0.4c0-0.2,0.1-0.3,0.2-0.4
			l3.2-3.2c0.2-0.2,0.6-0.2,0.9,0l3.2,3.2c0.1,0.1,0.2,0.3,0.2,0.4c0,0.2-0.1,0.3-0.2,0.4l-3.2,3.2
			C204.1,435.8,204,435.9,203.8,435.9L203.8,435.9z M201.5,432l2.3,2.3l2.3-2.3l-2.3-2.3L201.5,432z M193.9,435.9
			c-0.2,0-0.3-0.1-0.4-0.2l-3.2-3.2c-0.1-0.1-0.2-0.3-0.2-0.4c0-0.2,0.1-0.3,0.2-0.4l3.2-3.2c0.2-0.2,0.6-0.2,0.9,0l3.2,3.2
			c0.1,0.1,0.2,0.3,0.2,0.4c0,0.2-0.1,0.3-0.2,0.4l-3.2,3.2C194.2,435.8,194.1,435.9,193.9,435.9L193.9,435.9z M191.6,432l2.3,2.3
			l2.3-2.3l-2.3-2.3L191.6,432z M218.6,430.9c-0.2,0-0.3-0.1-0.4-0.2l-3.2-3.2c-0.2-0.2-0.2-0.6,0-0.9l3.2-3.2
			c0.1-0.1,0.3-0.2,0.4-0.2l0,0c0.2,0,0.3,0.1,0.4,0.2l3.2,3.2c0.2,0.2,0.2,0.6,0,0.9l-3.2,3.2C219,430.9,218.8,431,218.6,430.9
			L218.6,430.9z M216.3,427.1l2.3,2.3l2.3-2.3l-2.3-2.3L216.3,427.1z M208.7,430.9c-0.2,0-0.3-0.1-0.4-0.2l-3.2-3.2
			c-0.2-0.2-0.3-0.6,0-0.8c0,0,0,0,0,0l3.2-3.2c0.1-0.1,0.3-0.2,0.4-0.2l0,0c0.2,0,0.3,0.1,0.4,0.2l3.2,3.2c0.2,0.2,0.3,0.6,0,0.8
			c0,0,0,0,0,0l-3.2,3.2C209.1,430.9,208.9,431,208.7,430.9L208.7,430.9z M206.4,427.1l2.3,2.3l2.3-2.3l-2.3-2.3L206.4,427.1z
			 M198.9,430.9c-0.2,0-0.3-0.1-0.4-0.2l-3.2-3.2c-0.2-0.2-0.2-0.6,0-0.9l3.2-3.2c0.1-0.1,0.3-0.2,0.4-0.2l0,0
			c0.2,0,0.3,0.1,0.4,0.2l3.2,3.2c0.2,0.2,0.2,0.6,0,0.9l-3.2,3.2C199.2,430.9,199,431,198.9,430.9L198.9,430.9z M196.5,427.1
			l2.3,2.3l2.3-2.3l-2.3-2.3L196.5,427.1z M223.6,426c-0.2,0-0.3-0.1-0.4-0.2l-3.2-3.2c-0.1-0.1-0.2-0.3-0.2-0.4
			c0-0.2,0.1-0.3,0.2-0.4l3.2-3.2c0.2-0.2,0.6-0.2,0.9,0c0,0,0,0,0,0l3.2,3.2c0.1,0.1,0.2,0.3,0.2,0.4c0,0.2-0.1,0.3-0.2,0.4
			l-3.2,3.2C223.9,425.9,223.7,426,223.6,426L223.6,426z M221.3,422.2l2.3,2.3l2.3-2.3l-2.3-2.3L221.3,422.2z M213.7,426
			c-0.2,0-0.3-0.1-0.4-0.2l-3.2-3.2c-0.2-0.2-0.2-0.6,0-0.9l3.2-3.2c0.2-0.2,0.6-0.2,0.9,0l3.2,3.2c0.2,0.2,0.2,0.6,0,0.9l-3.2,3.2
			C214,425.9,213.9,426,213.7,426L213.7,426z M211.4,422.2l2.3,2.3l2.3-2.3l-2.3-2.3L211.4,422.2z M203.8,426
			c-0.2,0-0.3-0.1-0.4-0.2l-3.2-3.2c-0.2-0.2-0.2-0.6,0-0.9c0,0,0,0,0,0l3.2-3.2c0.2-0.2,0.6-0.2,0.9,0l3.2,3.2
			c0.2,0.2,0.2,0.6,0,0.9c0,0,0,0,0,0l-3.2,3.2C204.1,425.9,204,426,203.8,426L203.8,426z M201.5,422.2l2.3,2.3l2.3-2.3l-2.3-2.3
			L201.5,422.2z M193.9,426c-0.2,0-0.3-0.1-0.4-0.2l-3.2-3.2c-0.1-0.1-0.2-0.3-0.2-0.4c0-0.2,0.1-0.3,0.2-0.4l3.2-3.2
			c0.2-0.2,0.6-0.3,0.8,0c0,0,0,0,0,0l3.2,3.2c0.1,0.1,0.2,0.3,0.2,0.4c0,0.2-0.1,0.3-0.2,0.4l-3.2,3.2
			C194.2,425.9,194.1,426,193.9,426L193.9,426z M191.6,422.2l2.3,2.3l2.3-2.3l-2.3-2.3L191.6,422.2z M218.6,421
			c-0.2,0-0.3-0.1-0.4-0.2l-3.2-3.2c-0.1-0.1-0.2-0.3-0.2-0.4c0-0.2,0.1-0.3,0.2-0.4l3.2-3.2c0.1-0.1,0.3-0.2,0.4-0.2l0,0
			c0.2,0,0.3,0.1,0.4,0.2l3.2,3.2c0.1,0.1,0.2,0.3,0.2,0.4c0,0.2-0.1,0.3-0.2,0.4l-3.2,3.2C219,421,218.8,421.1,218.6,421L218.6,421
			z M216.3,417.2l2.3,2.3l2.3-2.3l-2.3-2.3L216.3,417.2z M208.7,421c-0.2,0-0.3-0.1-0.4-0.2l-3.2-3.2c-0.1-0.1-0.2-0.3-0.2-0.4
			c0-0.2,0.1-0.3,0.2-0.4l3.2-3.2c0.1-0.1,0.3-0.2,0.4-0.2l0,0c0.2,0,0.3,0.1,0.4,0.2l3.2,3.2c0.1,0.1,0.2,0.3,0.2,0.4
			c0,0.2-0.1,0.3-0.2,0.4l-3.2,3.2C209.1,421,208.9,421.1,208.7,421L208.7,421z M206.4,417.2l2.3,2.3l2.3-2.3l-2.3-2.3L206.4,417.2z
			 M198.9,421c-0.2,0-0.3-0.1-0.4-0.2l-3.2-3.2c-0.1-0.1-0.2-0.3-0.2-0.4c0-0.2,0.1-0.3,0.2-0.4l3.2-3.2c0.1-0.1,0.3-0.2,0.4-0.2
			l0,0c0.2,0,0.3,0.1,0.4,0.2l3.2,3.2c0.1,0.1,0.2,0.3,0.2,0.4c0,0.2-0.1,0.3-0.2,0.4l-3.2,3.2C199.2,421,199,421.1,198.9,421
			L198.9,421z M196.5,417.2l2.3,2.3l2.3-2.3l-2.3-2.3L196.5,417.2z M223.6,416.1L223.6,416.1c-0.2,0-0.3-0.1-0.4-0.2l-3.2-3.2
			c-0.2-0.2-0.2-0.6,0-0.9c0,0,0,0,0,0l3.2-3.2c0.2-0.2,0.6-0.2,0.9,0l3.2,3.2c0.2,0.2,0.2,0.6,0,0.9c0,0,0,0,0,0l-3.2,3.2
			C223.9,416,223.7,416.1,223.6,416.1L223.6,416.1z M221.3,412.3l2.3,2.3l2.3-2.3l-2.3-2.3L221.3,412.3z M213.7,416.1L213.7,416.1
			c-0.2,0-0.3-0.1-0.4-0.2l-3.2-3.2c-0.2-0.2-0.2-0.6,0-0.9l3.2-3.2c0.2-0.2,0.6-0.2,0.9,0l3.2,3.2c0.2,0.2,0.2,0.6,0,0.9l-3.2,3.2
			C214,416,213.9,416.1,213.7,416.1L213.7,416.1z M211.4,412.3l2.3,2.3l2.3-2.3l-2.3-2.3L211.4,412.3z M203.8,416.1L203.8,416.1
			c-0.2,0-0.3-0.1-0.4-0.2l-3.2-3.2c-0.2-0.2-0.2-0.6,0-0.9c0,0,0,0,0,0l3.2-3.2c0.1-0.1,0.3-0.2,0.4-0.2l0,0c0.2,0,0.3,0.1,0.4,0.2
			l3.2,3.2c0.2,0.2,0.2,0.6,0,0.9c0,0,0,0,0,0l-3.2,3.2C204.1,416,204,416.1,203.8,416.1L203.8,416.1z M201.5,412.3l2.3,2.3l2.3-2.3
			l-2.3-2.3L201.5,412.3z M193.9,416.1c-0.2,0-0.3-0.1-0.4-0.2l-3.2-3.2c-0.2-0.2-0.2-0.6,0-0.9l3.2-3.2c0.2-0.2,0.6-0.2,0.9,0
			l3.2,3.2c0.2,0.2,0.2,0.6,0,0.9l-3.2,3.2C194.2,416,194.1,416.1,193.9,416.1L193.9,416.1z M191.6,412.3l2.3,2.3l2.3-2.3l-2.3-2.3
			L191.6,412.3z M218.6,411.1c-0.2,0-0.3-0.1-0.4-0.2l-3.2-3.2c-0.2-0.2-0.2-0.6,0-0.9l3.2-3.2c0.2-0.2,0.6-0.2,0.9,0l3.2,3.2
			c0.2,0.2,0.2,0.6,0,0.9l-3.2,3.2C219,411.1,218.8,411.2,218.6,411.1L218.6,411.1z M216.3,407.3l2.3,2.3l2.3-2.3l-2.3-2.3
			L216.3,407.3z M198.9,411.1c-0.2,0-0.3-0.1-0.4-0.2l-3.2-3.2c-0.2-0.2-0.2-0.6,0-0.9l3.2-3.2c0.2-0.2,0.6-0.2,0.9,0l3.2,3.2
			c0.2,0.2,0.2,0.6,0,0.9l-3.2,3.2C199.2,411.1,199,411.2,198.9,411.1L198.9,411.1z M196.5,407.3l2.3,2.3l2.3-2.3l-2.3-2.3
			L196.5,407.3z M208.7,411.1c-0.2,0-0.3-0.1-0.4-0.2l-3.2-3.2c-0.2-0.2-0.3-0.6,0-0.8c0,0,0,0,0,0l3.2-3.2c0.2-0.2,0.6-0.2,0.9,0
			l3.2,3.2c0.2,0.2,0.3,0.6,0,0.8c0,0,0,0,0,0l-3.2,3.2C209.1,411.1,208.9,411.2,208.7,411.1L208.7,411.1z M206.4,407.3l2.3,2.3
			l2.3-2.3l-2.3-2.3L206.4,407.3z"/>
		<rect x="185.7" y="459.3" class="st2" width="47" height="10.5"/>
		<path class="st3" d="M232.6,470.4h-47c-0.3,0-0.6-0.3-0.6-0.6v-10.5c0-0.3,0.3-0.6,0.6-0.6h47c0.3,0,0.6,0.3,0.6,0.6v10.5
			C233.3,470.1,233,470.4,232.6,470.4z M186.3,469.1H232v-9.2h-45.7V469.1z"/>
	</g>
	<g id="freepik--Plants--inject-54">
		<path class="st0" d="M515.4,258c0,0-5.2,6-8.2,18c-3,12,10.5,21,6,33.7s-12.7,18.7-10.5,31.4c2.2,12.7,12,13.5,4.5,27.7
			c-7.5,14.2-14.2,19.5-12,32.9c2.3,13.5,30.7,30.7,30.7,30.7s19.5-21.7,20.2-35.9s-17.2-23.2-14.2-35.9c3-12.7,10.5-23.2,9.7-35.2
			c-0.8-12-15-21-15-29.9s6-14.2,6-24.7s-13.5-19.5-13.5-25.4c0-6,3-13.5,3-13.5S507.9,240.8,515.4,258z"/>
		<path class="st5" d="M515.4,258c0,0-5.2,6-8.2,18c-3,12,10.5,21,6,33.7s-12.7,18.7-10.5,31.4c2.2,12.7,12,13.5,4.5,27.7
			c-7.5,14.2-14.2,19.5-12,32.9c2.3,13.5,30.7,30.7,30.7,30.7s19.5-21.7,20.2-35.9s-17.2-23.2-14.2-35.9c3-12.7,10.5-23.2,9.7-35.2
			c-0.8-12-15-21-15-29.9s6-14.2,6-24.7s-13.5-19.5-13.5-25.4c0-6,3-13.5,3-13.5S507.9,240.8,515.4,258z"/>
		<path class="st3" d="M522.9,428.5c-0.3,0-0.6-0.3-0.6-0.6l-1.5-161.7c0-0.3,0.3-0.6,0.6-0.6c0.3,0,0.6,0.3,0.6,0.6l1.5,161.7
			C523.5,428.2,523.2,428.5,522.9,428.5L522.9,428.5z"/>
		<path class="st3" d="M523.3,406.1c-0.1,0-0.3-0.1-0.4-0.1l-16.6-14.7c-0.3-0.2-0.3-0.6,0-0.9c0.2-0.3,0.6-0.3,0.9,0l0,0l16.2,14.3
			l14.3-14.3c0.2-0.2,0.6-0.2,0.9,0c0,0,0,0,0,0c0.2,0.2,0.2,0.6,0,0.9L523.8,406C523.6,406.1,523.5,406.1,523.3,406.1z"/>
		<path class="st3" d="M522.4,343.6L522.4,343.6c-0.2,0-0.4-0.1-0.5-0.3l-9.3-15.2c-0.2-0.3-0.1-0.7,0.2-0.9
			c0.3-0.2,0.7-0.1,0.8,0.2c0,0,0,0,0,0l8.8,14.3l10.2-15.8c0.2-0.3,0.6-0.4,0.9-0.2c0.3,0.2,0.4,0.6,0.2,0.9l-10.8,16.6
			C522.8,343.5,522.6,343.6,522.4,343.6z"/>
		<path class="st3" d="M521.9,285.9c-0.2,0-0.4-0.1-0.5-0.2l-6.4-7.8c-0.2-0.2-0.2-0.6,0-0.9c0.2-0.2,0.6-0.2,0.9,0
			c0,0,0.1,0.1,0.1,0.1l5.8,7.1l4.9-8.5c0.2-0.3,0.5-0.4,0.8-0.2c0.3,0.2,0.4,0.6,0.2,0.9l-5.4,9.3
			C522.3,285.7,522.1,285.8,521.9,285.9L521.9,285.9z"/>
		<rect x="504.2" y="427.9" class="st0" width="37.4" height="41.9"/>
		<path class="st3" d="M541.6,470.4h-37.4c-0.3,0-0.6-0.3-0.6-0.6v-41.9c0-0.3,0.3-0.6,0.6-0.6h37.4c0.3,0,0.6,0.3,0.6,0.6v41.9
			C542.2,470.1,541.9,470.4,541.6,470.4z M504.8,469.1h36.2v-40.7h-36.1L504.8,469.1z"/>
		<rect x="514.5" y="427.9" class="st0" width="29.1" height="41.9"/>
		<path class="st3" d="M543.5,470.4h-29.1c-0.3,0-0.6-0.3-0.6-0.6v-41.9c0-0.3,0.3-0.6,0.6-0.6h29.1c0.3,0,0.6,0.3,0.6,0.6v41.9
			C544.1,470.1,543.9,470.4,543.5,470.4z M515.1,469.1h27.8v-40.7h-27.9L515.1,469.1z"/>
	</g>
	<g id="freepik--Floor--inject-54">
		<path class="st3" d="M575.6,471h-469c-0.7,0-1.2-0.6-1.2-1.2s0.6-1.2,1.2-1.2h469c0.7,0,1.2,0.6,1.2,1.2S576.3,471,575.6,471z"/>
	</g>
</g>
</svg>
