<?xml version="1.0" encoding="utf-8"?>
<!-- Generator: Adobe Illustrator 21.0.0, SVG Export Plug-In . SVG Version: 6.00 Build 0)  -->
<svg version="1.1" id="Layer_1" xmlns="http://www.w3.org/2000/svg" xmlns:xlink="http://www.w3.org/1999/xlink" x="0px" y="0px"
	 viewBox="0 0 40.9 38.1" style="enable-background:new 0 0 40.9 38.1;" xml:space="preserve">
<style type="text/css">
	.st0{fill:#D1AE6C;}
</style>
<g>
	<path class="st0" d="M28.9,15.6l2-0.1c0,0,0,0,0,0c1.5-0.1,2.8-0.9,3.6-2.1l1.6-2.4c1.4-2.1,2-4.6,1.5-7C37.6,3.5,37.4,3,37,2.7
		c-0.4-0.3-0.8-0.5-1.3-0.5c-2.5-0.1-4.9,0.7-6.8,2.4l-2.2,1.9c-1.1,1-1.7,2.4-1.7,3.8c0,0,0,0,0,0l0.1,2c0,0.8-0.2,1.6-0.8,2.2
		L7.5,31.8c-0.5,0.5-0.7,1.1-0.7,1.8c0,0.8,0.4,1.5,1,2c0.5,0.5,1.2,0.7,1.9,0.7c0.1,0,0.1,0,0.2,0c0.7-0.1,1.3-0.4,1.7-0.9
		l15.2-18.8C27.4,16,28.1,15.7,28.9,15.6z M26.1,16L10.9,34.8c-0.2,0.3-0.6,0.5-1,0.5c-0.5,0-1-0.1-1.4-0.4
		c-0.4-0.3-0.6-0.8-0.6-1.3c0-0.4,0.1-0.8,0.4-1.1l16.9-17.4c0.8-0.8,1.2-1.9,1.1-2.9l-0.1-2c0-1.1,0.4-2.2,1.3-3l2.2-1.9
		c1.7-1.5,3.8-2.2,6.1-2.1c0.3,0,0.5,0.1,0.7,0.3c0.2,0.2,0.3,0.4,0.4,0.6c0.4,2.2-0.1,4.4-1.4,6.3l-1.6,2.4
		c-0.6,0.9-1.7,1.5-2.8,1.6l-2,0.1C27.8,14.6,26.8,15.2,26.1,16z"/>
	<path class="st0" d="M36.9,31.7L25.6,21.4c-0.2-0.2-0.5-0.2-0.7,0c-0.2,0.2-0.2,0.5,0,0.7l11.3,10.3c0.3,0.2,0.4,0.6,0.4,1
		c0,0.5-0.2,1-0.5,1.3c-0.3,0.3-0.8,0.5-1.3,0.5c-0.4,0-0.8-0.2-1-0.4L23.6,23.8c-0.2-0.2-0.5-0.2-0.7,0c-0.2,0.2-0.2,0.5,0,0.7
		L33,35.6c0.4,0.5,1.1,0.8,1.8,0.8c0,0,0,0,0.1,0c0.8,0,1.5-0.3,2-0.8c0.5-0.5,0.8-1.3,0.8-2.1C37.7,32.8,37.4,32.1,36.9,31.7z"/>
	<path class="st0" d="M9.3,15.5c0.9,0.8,2,1.3,3.2,1.3c0,0,0,0,0,0l2.1,0c0.8,0,1.6,0.3,2.1,0.9l0.9,1c0.1,0.1,0.2,0.2,0.4,0.2
		c0.1,0,0.3,0,0.4-0.1c0.2-0.2,0.2-0.5,0-0.7l-0.9-1c-0.7-0.8-1.8-1.3-2.9-1.3l-2,0c-0.9,0-1.8-0.4-2.5-1L4.1,7.7
		c-0.1-0.1-0.1-0.2,0-0.2c0,0,0.1-0.1,0.1-0.1c0,0,0.1,0,0.1,0.1l5.4,5.4c0.5,0.5,1.4,0.5,1.9,0l0.6-0.6v0l1.1-1.1c0,0,0,0,0,0l0,0
		l0.6-0.6c0.5-0.5,0.5-1.4,0-1.9L8.7,3.1C8.7,3,8.7,2.9,8.7,2.9c0.1-0.1,0.2-0.1,0.2,0L16,8.8c0.6,0.7,1,1.5,1,2.5l0,2
		c0,1.1,0.5,2.1,1.3,2.9l1,0.9c0.2,0.2,0.5,0.2,0.7,0c0.2-0.2,0.2-0.5,0-0.7l-1-0.9c-0.6-0.5-0.9-1.3-0.9-2.1l0-2.1c0,0,0,0,0,0
		c0-1.2-0.5-2.3-1.3-3.2c0,0,0,0,0,0L9.6,2C9.2,1.6,8.4,1.7,8,2.1C7.5,2.6,7.5,3.4,8,3.8l5.4,5.4c0.1,0.1,0.1,0.3,0,0.5L13.1,10
		l-6-6C6.9,3.8,6.6,3.8,6.4,4c-0.2,0.2-0.2,0.5,0,0.7l6,6L12,11.1l-6-6c-0.2-0.2-0.5-0.2-0.7,0C5,5.3,5,5.6,5.2,5.8l6,6L11,12.1
		c-0.1,0.1-0.3,0.1-0.5,0L5.1,6.7C4.9,6.5,4.6,6.4,4.3,6.4S3.6,6.5,3.4,6.7C2.9,7.2,2.9,7.9,3.3,8.4L9.3,15.5
		C9.3,15.5,9.3,15.5,9.3,15.5z"/>
</g>
</svg>
