<?xml version="1.0" encoding="utf-8"?>
<!-- Generator: Adobe Illustrator 21.0.0, SVG Export Plug-In . SVG Version: 6.00 Build 0)  -->
<svg version="1.1" id="Layer_1" xmlns="http://www.w3.org/2000/svg" xmlns:xlink="http://www.w3.org/1999/xlink" x="0px" y="0px"
	 viewBox="0 0 519 286" style="enable-background:new 0 0 519 286;" xml:space="preserve">
<style type="text/css">
	.st0{fill:none;}
	.st1{fill:none;stroke:#B28741;stroke-width:3;stroke-miterlimit:10;}
	.st2{fill:none;stroke:#231F20;stroke-width:3;stroke-miterlimit:10;}
	.st3{fill:#D1AE6C;stroke:#B28741;stroke-width:3;stroke-miterlimit:10;}
	.st4{fill:#999999;stroke:#727373;stroke-width:3;stroke-miterlimit:10;}
	.st5{fill:#727373;}
	.st6{fill:#727373;stroke:#515252;stroke-miterlimit:10;}
	.st7{fill:none;stroke:#515252;stroke-width:3;stroke-miterlimit:10;}
	.st8{fill:none;stroke:#727373;stroke-width:3;stroke-miterlimit:10;}
	.st9{fill:#D1AE6C;stroke:#727373;stroke-width:3;stroke-miterlimit:10;}
	.st10{opacity:0.27;fill:#999999;stroke:#727373;stroke-width:3;stroke-miterlimit:10;}
	.st11{fill:#727373;stroke:#515252;stroke-width:3;stroke-miterlimit:10;}
	.st12{fill:#FFFFFF;}
	.st13{fill:#D1AA67;}
</style>
<polygon class="st0" points="118.2,-14.7 118.2,-14.7 118.1,-15 "/>
<polygon points="118.2,-14.7 118.2,-14.7 118.1,-15 "/>
<path class="st1" d="M137.4,114.4c0-11.6,9.4-21.1,21.1-21.1c11.6,0,21.1,9.4,21.1,21.1"/>
<path class="st2" d="M296.8,85.6c0-11.6,9.4-21.1,21.1-21.1c11.6,0,21.1,9.4,21.1,21.1"/>
<path class="st2" d="M221.7,41.9c0-11.6,9.4-21.1,21.1-21.1s21.1,9.4,21.1,21.1"/>
<path class="st1" d="M221.7,211.1c0,11.6-9.4,21.1-21.1,21.1s-21.1-9.4-21.1-21.1"/>
<path class="st2" d="M296.8,133.8c0,9.1-7.4,16.4-16.4,16.4c-9.1,0-16.4-7.4-16.4-16.4"/>
<path class="st1" d="M381.1,177.6c0,11.6-9.4,21.1-21.1,21.1c-11.6,0-21.1-9.4-21.1-21.1"/>
<path class="st1" d="M348.3,20.8c11.6,0,21.1,9.4,21.1,21.1"/>
<path class="st1" d="M445.2,177.6c0,11.6-9.4,21.1-21.1,21.1"/>
<line class="st1" x1="179.6" y1="114.4" x2="179.6" y2="211.1"/>
<line class="st1" x1="339" y1="85.6" x2="339" y2="177.6"/>
<line class="st2" x1="263.9" y1="41.9" x2="263.9" y2="133.8"/>
<line class="st2" x1="296.8" y1="84.6" x2="296.8" y2="133.8"/>
<line class="st2" x1="221.7" y1="41.9" x2="221.7" y2="211.1"/>
<line class="st2" x1="280.3" y1="150.2" x2="339" y2="150.2"/>
<path class="st3" d="M296.8,85.6c0-11.6,9.4-21.1,21.1-21.1c11.6,0,21.1,9.4,21.1,21.1v64.7h-58.6c9.1,0,16.4-7.4,16.4-16.4V84.6"/>
<line class="st1" x1="242.8" y1="20.8" x2="349" y2="20.8"/>
<line class="st1" x1="158.5" y1="93.3" x2="221.7" y2="93.3"/>
<line class="st1" x1="317.9" y1="64.5" x2="432.1" y2="64.5"/>
<line class="st1" x1="360" y1="198.7" x2="425.5" y2="198.7"/>
<line class="st1" x1="381.1" y1="177.6" x2="445.2" y2="177.6"/>
<line class="st1" x1="432.1" y1="64.5" x2="432.1" y2="177.6"/>
<line class="st1" x1="369.4" y1="41.9" x2="369.4" y2="64.5"/>
<line class="st2" x1="300.2" y1="150.2" x2="300.2" y2="212.9"/>
<line class="st2" x1="200.6" y1="232.2" x2="280.3" y2="232.2"/>
<path class="st3" d="M300.2,212.9v-62.6h-19.8c-9.1,0-16.4-7.4-16.4-16.4l0-91.9c0-11.6-9.4-21.1-21.1-21.1s-21.1,9.4-21.1,21.1
	v169.2c0,11.6-9.4,21.1-21.1,21.1h79.7h-1.2c11.6,0,21.1-9.4,21.1-21.1"/>
<g>
	<line class="st1" x1="361.4" y1="97.5" x2="411.7" y2="97.5"/>
	<line class="st1" x1="361.4" y1="109.2" x2="411.7" y2="109.2"/>
	<line class="st1" x1="361.4" y1="121" x2="411.7" y2="121"/>
	<line class="st1" x1="361.4" y1="132.8" x2="411.7" y2="132.8"/>
	<line class="st1" x1="361.4" y1="144.6" x2="411.7" y2="144.6"/>
</g>
<g>
	<g>
		<line class="st1" x1="272.9" y1="67.2" x2="307.5" y2="67.2"/>
		<line class="st1" x1="272.9" y1="78.9" x2="297.8" y2="78.9"/>
		<line class="st1" x1="272.9" y1="90.8" x2="296.8" y2="90.8"/>
		<line class="st1" x1="272.9" y1="102.6" x2="296.8" y2="102.6"/>
		<line class="st1" x1="272.9" y1="114.4" x2="296.8" y2="114.4"/>
	</g>
</g>
<line class="st1" x1="209.7" y1="138" x2="221.7" y2="138"/>
<line class="st1" x1="209.7" y1="149.7" x2="221.7" y2="149.7"/>
<line class="st1" x1="209.7" y1="161.5" x2="221.7" y2="161.5"/>
<line class="st1" x1="209.7" y1="173.3" x2="221.7" y2="173.3"/>
<line class="st1" x1="209.7" y1="185.1" x2="221.7" y2="185.1"/>
<line class="st1" x1="179.6" y1="114.4" x2="57.9" y2="114.4"/>
<polygon class="st4" points="187.7,57.8 164.1,57.8 144.5,24.8 144.5,24.8 144.4,24.6 144.5,24.8 163.3,29.6 165,23 134.7,15.4 
	134.7,15.4 127,45.6 133.7,47.3 138.5,28.4 138.3,28.2 160.5,65.5 182.3,65.5 205.4,93.3 216.6,93.3 "/>
<path class="st5" d="M46.3,55.8c-9.5,0-17.2,7.7-17.2,17.2c0,4.9,2.2,9.7,5.8,12.9c2.7,2.7,2.5,8.5,2.4,8.6c0,0.3,0.1,0.6,0.3,0.8
	c0.2,0.2,0.5,0.3,0.7,0.3h15.8c0.3,0,0.6-0.1,0.7-0.3c0.2-0.2,0.3-0.5,0.3-0.8c0-0.1-0.3-5.9,2.4-8.6c0.1-0.1,0.1-0.1,0.2-0.2
	c3.6-3.3,5.7-7.9,5.7-12.7C63.5,63.5,55.8,55.8,46.3,55.8z M56.2,84.3c-0.1,0.1-0.2,0.2-0.2,0.2c-2.4,2.6-2.8,6.9-2.9,8.9H39.4
	c-0.1-2-0.5-6.5-3.1-9.1c-3.3-2.8-5.2-7-5.2-11.4c0-8.3,6.7-15.1,15.1-15.1s15.1,6.7,15.1,15.1C61.3,77.3,59.5,81.5,56.2,84.3z"/>
<path class="st5" d="M46.2,60.2c-0.6,0-1.1,0.5-1.1,1.1s0.5,1.1,1.1,1.1c6.2,0,11.2,5.1,11.2,11.2c0,0.6,0.5,1.1,1.1,1.1
	c0.6,0,1.1-0.5,1.1-1.1C59.7,66.2,53.7,60.2,46.2,60.2z"/>
<path class="st5" d="M53.1,96.8H39.4c-1.4,0-2.6,1.2-2.6,2.6c0,1.4,1.2,2.6,2.6,2.6H53c1.5-0.1,2.7-1.2,2.7-2.6
	C55.7,98,54.5,96.8,53.1,96.8z M53.1,99.8H39.4c-0.2,0-0.5-0.2-0.5-0.5s0.2-0.5,0.5-0.5H53c0.2,0,0.5,0.2,0.5,0.5
	S53.4,99.8,53.1,99.8z"/>
<path class="st5" d="M51.1,103h-9.6c-1.4,0-2.6,1.2-2.6,2.6c0,1.4,1.2,2.6,2.6,2.6h9.6c1.4,0,2.6-1.2,2.6-2.6
	C53.7,104.1,52.5,103,51.1,103z M51.1,106h-9.6c-0.2,0-0.5-0.2-0.5-0.5s0.2-0.5,0.5-0.5h9.6c0.2,0,0.5,0.2,0.5,0.5
	S51.3,106,51.1,106z"/>
<path class="st3" d="M46.2,50.7c0.6,0,1.1-0.5,1.1-1.1v-7.2c0-0.6-0.5-1.1-1.1-1.1c-0.6,0-1.1,0.5-1.1,1.1v7.2
	C45.2,50.2,45.7,50.7,46.2,50.7z"/>
<path class="st3" d="M63.7,46.7c-0.5-0.4-1.1-0.2-1.4,0.2l-4,5.9c-0.4,0.5-0.2,1.2,0.2,1.5c0.2,0.1,0.4,0.2,0.6,0.2
	c0.4,0,0.7-0.2,0.9-0.5l4-5.9C64.4,47.7,64.2,47,63.7,46.7z"/>
<path class="st3" d="M33.7,54.3c0.2,0,0.4-0.1,0.6-0.2c0.5-0.3,0.6-1,0.3-1.5l-3.8-6c-0.3-0.5-1-0.6-1.5-0.3c-0.5,0.3-0.6,1-0.3,1.5
	l3.8,6C33,54.2,33.3,54.3,33.7,54.3z"/>
<path class="st3" d="M26.2,60.9L20,57.5c-0.5-0.2-1.2-0.1-1.4,0.4c-0.3,0.5-0.1,1.2,0.4,1.4l6.2,3.4c0.2,0.1,0.3,0.1,0.5,0.1
	c0.4,0,0.7-0.2,0.9-0.6C26.9,61.8,26.7,61.1,26.2,60.9z"/>
<path class="st3" d="M74,57.9c-0.2-0.5-0.9-0.7-1.4-0.4l-6.3,3.4c-0.5,0.2-0.7,0.9-0.4,1.4c0.2,0.4,0.6,0.6,0.9,0.6
	c0.2,0,0.4-0.1,0.5-0.1l6.3-3.4C74.1,59.1,74.2,58.4,74,57.9z"/>
<g>
	<g>
		<path class="st6" d="M148.5,158.7c-0.3,0.6-0.7,1.2-1,1.8c-1.2-0.1-2.3-0.1-3.5,0c-0.3-0.6-0.7-1.2-1-1.8c-0.6-1-1.8-1.4-2.8-0.9
			l0,0l-3,1.3c-1,0.4-1.6,1.6-1.3,2.7c0.2,0.7,0.3,1.3,0.5,2c-0.9,0.7-1.8,1.6-2.5,2.6c-0.7-0.2-1.3-0.4-1.9-0.5
			c-1.1-0.3-2.2,0.3-2.6,1.4l-1.2,3.1c-0.4,1.1,0,2.3,0.9,2.9c0.6,0.3,1.1,0.7,1.7,1c-0.1,1.2-0.1,2.4,0,3.6c-0.6,0.3-1.2,0.7-1.7,1
			c-1,0.6-1.3,1.8-0.9,2.9l1.2,3.1c0.4,1.1,1.6,1.6,2.6,1.4c0.6-0.2,1.3-0.3,1.9-0.5c0.7,0.9,1.6,1.8,2.5,2.6
			c-0.2,0.7-0.3,1.3-0.5,2c-0.3,1.1,0.3,2.3,1.3,2.7l3,1.3c1,0.4,2.2,0,2.8-0.9c0.3-0.6,0.7-1.2,1-1.8c1.2,0.1,2.3,0.1,3.5,0
			c0.3,0.6,0.7,1.2,1,1.8c0.6,1,1.8,1.4,2.8,0.9l3-1.3c1-0.4,1.6-1.6,1.3-2.7c-0.2-0.7-0.3-1.3-0.5-2c0.9-0.7,1.8-1.6,2.5-2.6
			c0.7,0.2,1.3,0.4,1.9,0.5c1.1,0.3,2.2-0.3,2.6-1.4l1.2-3.1c0.1-0.3,0.2-0.6,0.2-0.9c0-0.8-0.4-1.6-1.1-2c-0.6-0.3-1.1-0.7-1.7-1
			c0.1-1.2,0.1-2.4,0-3.6c0.6-0.3,1.2-0.7,1.7-1c1-0.6,1.3-1.8,0.9-2.9l-1.2-3.1c-0.4-1.1-1.6-1.6-2.6-1.4c-0.6,0.2-1.3,0.3-1.9,0.5
			c-0.7-0.9-1.6-1.8-2.5-2.6c0.2-0.7,0.3-1.3,0.5-2c0.3-1.1-0.3-2.3-1.3-2.7l-3-1.3C150.2,157.3,149,157.8,148.5,158.7z
			 M153.2,161.3c-0.2,0.6-0.3,1.3-0.5,1.9c-0.2,0.9,0.1,1.9,0.8,2.4c0.8,0.7,1.6,1.4,2.2,2.3c0.6,0.7,1.5,1.1,2.4,0.8
			c0.6-0.2,1.3-0.3,1.9-0.5l1.1,2.8c-0.5,0.3-1.1,0.7-1.7,1c-0.8,0.5-1.2,1.4-1.1,2.3c0.1,1.1,0.1,2.1,0,3.2
			c-0.1,0.9,0.3,1.8,1.1,2.3c0.6,0.3,1.1,0.7,1.7,1l-1.1,2.8c-0.6-0.2-1.2-0.3-1.9-0.5c-0.9-0.2-1.8,0.1-2.4,0.8
			c-0.6,0.8-1.4,1.6-2.2,2.3c-0.7,0.6-1,1.5-0.8,2.4c0.2,0.6,0.3,1.3,0.5,1.9l-2.8,1.2c-0.3-0.6-0.7-1.1-1-1.7
			c-0.5-0.8-1.3-1.3-2.2-1.2c-1,0.1-2.1,0.1-3.1,0c-0.9-0.1-1.8,0.3-2.2,1.2c-0.3,0.6-0.7,1.1-1,1.7l-2.8-1.2
			c0.2-0.6,0.3-1.3,0.5-1.9c0.2-0.9-0.1-1.9-0.8-2.4c-0.8-0.7-1.6-1.4-2.2-2.3c-0.6-0.7-1.5-1.1-2.4-0.8c-0.6,0.2-1.2,0.3-1.9,0.5
			l-1.1-2.8c0.5-0.3,1.1-0.7,1.7-1c0.8-0.5,1.2-1.4,1.1-2.3c-0.1-1.1-0.1-2.1,0-3.2c0.1-0.9-0.3-1.8-1.1-2.3c-0.6-0.3-1.1-0.7-1.7-1
			l1.1-2.8c0.6,0.2,1.2,0.3,1.9,0.5c0.9,0.2,1.8-0.1,2.4-0.8c0.6-0.8,1.4-1.6,2.2-2.3c0.7-0.6,1-1.5,0.8-2.4
			c-0.2-0.6-0.3-1.3-0.5-1.9l2.8-1.2c0.3,0.6,0.7,1.1,1,1.7c0.5,0.8,1.3,1.3,2.2,1.2c1-0.1,2.1-0.1,3.1,0c0.9,0.1,1.8-0.3,2.2-1.2
			c0.3-0.6,0.6-1.1,1-1.7L153.2,161.3z"/>
	</g>
</g>
<g>
	<g>
		<path class="st6" d="M142.5,168.2L142.5,168.2c-4.2,1.8-6.2,6.7-4.5,11.1c1.7,4.3,6.6,6.4,10.8,4.6c2-0.9,3.6-2.5,4.5-4.6
			c0.4-1,0.6-2.1,0.6-3.2s-0.2-2.2-0.6-3.2C151.6,168.4,146.7,166.4,142.5,168.2z M151.1,173.7c0.6,1.5,0.6,3.1,0,4.6
			c-0.6,1.5-1.7,2.6-3.2,3.2c-3,1.3-6.4-0.2-7.6-3.2c-0.3-0.7-0.4-1.5-0.4-2.3c0-2.3,1.4-4.6,3.6-5.5
			C146.4,169.2,149.8,170.7,151.1,173.7z"/>
	</g>
</g>
<g>
	<g>
		<path class="st6" d="M120.2,140.6c-0.1,0.4-0.1,0.9-0.2,1.3c-0.7,0.2-1.4,0.5-2.1,0.9c-0.3-0.3-0.7-0.5-1-0.8
			c-0.8-0.6-1.8-0.5-2.5,0.2l-1.7,1.7c-0.7,0.7-0.7,1.8-0.2,2.6c0.3,0.4,0.5,0.7,0.8,1.1c-0.4,0.7-0.6,1.4-0.9,2.1
			c-0.4,0.1-0.9,0.1-1.3,0.2c-0.9,0.1-1.6,1-1.6,1.9v2.4c0,1,0.7,1.8,1.6,1.9c0.4,0.1,0.8,0.1,1.3,0.2c0.2,0.7,0.5,1.5,0.9,2.1
			c-0.3,0.4-0.5,0.7-0.8,1.1c-0.6,0.8-0.5,1.9,0.2,2.6l1.7,1.7c0.7,0.7,1.7,0.8,2.5,0.2c0.3-0.3,0.7-0.5,1-0.8
			c0.7,0.4,1.4,0.7,2.1,0.9c0.1,0.4,0.1,0.9,0.2,1.3c0.1,1,1,1.7,1.9,1.7h2.4c0.9,0,1.8-0.7,1.9-1.7c0.1-0.4,0.1-0.9,0.2-1.3
			c0.7-0.2,1.4-0.5,2.1-0.9c0.3,0.3,0.7,0.5,1,0.8c0.8,0.6,1.8,0.5,2.5-0.2l1.7-1.7c0.7-0.7,0.7-1.8,0.2-2.6
			c-0.3-0.4-0.5-0.7-0.8-1.1c0.4-0.7,0.6-1.4,0.9-2.1c0.4-0.1,0.9-0.1,1.3-0.2c0.9-0.1,1.6-1,1.6-1.9v-2.4c0-1-0.7-1.8-1.6-1.9
			c-0.4-0.1-0.8-0.1-1.3-0.2c-0.2-0.7-0.5-1.5-0.9-2.1c0.3-0.4,0.5-0.7,0.8-1.1c0.6-0.8,0.5-1.9-0.2-2.6l-1.7-1.7
			c-0.7-0.7-1.7-0.8-2.5-0.2c-0.3,0.3-0.7,0.5-1,0.8c-0.7-0.4-1.4-0.7-2.1-0.9c-0.1-0.4-0.1-0.9-0.2-1.3c-0.1-1-1-1.7-1.9-1.7h-2.4
			C121.2,138.9,120.4,139.6,120.2,140.6z M124.1,141.2c0.1,0.4,0.1,0.8,0.2,1.2c0.1,0.8,0.6,1.4,1.4,1.6c0.7,0.2,1.4,0.5,2,0.9
			c0.7,0.4,1.5,0.3,2.1-0.2c0.3-0.2,0.6-0.5,0.9-0.7l1.2,1.2c-0.2,0.3-0.5,0.6-0.7,1c-0.5,0.6-0.5,1.5-0.1,2.2
			c0.4,0.7,0.6,1.4,0.8,2.1c0.2,0.8,0.8,1.3,1.6,1.4c0.4,0.1,0.8,0.1,1.2,0.2v1.7c-0.4,0.1-0.8,0.1-1.2,0.2
			c-0.8,0.1-1.4,0.7-1.6,1.4c-0.2,0.7-0.5,1.4-0.8,2.1c-0.4,0.7-0.3,1.5,0.1,2.2c0.2,0.3,0.5,0.6,0.7,1l-1.2,1.2
			c-0.3-0.2-0.6-0.5-0.9-0.7c-0.6-0.5-1.4-0.5-2.1-0.2c-0.6,0.4-1.3,0.7-2,0.9c-0.7,0.2-1.3,0.9-1.4,1.6c-0.1,0.4-0.1,0.8-0.2,1.2
			h-1.7c-0.1-0.4-0.1-0.8-0.2-1.2c-0.1-0.8-0.6-1.4-1.4-1.6c-0.7-0.2-1.4-0.5-2-0.9c-0.7-0.4-1.5-0.3-2.1,0.2
			c-0.3,0.2-0.6,0.5-0.9,0.7l-1.2-1.2c0.2-0.3,0.5-0.6,0.7-1c0.5-0.6,0.5-1.5,0.1-2.2c-0.4-0.7-0.6-1.4-0.8-2.1
			c-0.2-0.8-0.8-1.3-1.6-1.4c-0.4-0.1-0.8-0.1-1.2-0.2v-1.7c0.4-0.1,0.8-0.1,1.2-0.2c0.8-0.1,1.4-0.7,1.6-1.4
			c0.2-0.7,0.5-1.4,0.8-2.1c0.4-0.7,0.3-1.5-0.1-2.2c-0.2-0.3-0.5-0.6-0.7-1l1.2-1.2c0.3,0.2,0.6,0.5,0.9,0.7
			c0.6,0.5,1.4,0.5,2.1,0.2c0.6-0.4,1.3-0.7,2-0.9c0.7-0.2,1.3-0.9,1.4-1.6c0.1-0.4,0.1-0.8,0.2-1.2L124.1,141.2L124.1,141.2z"/>
	</g>
</g>
<g>
	<g>
		<path class="st6" d="M118.4,153c0,2.8,2.2,5,4.9,5c2.7,0,4.9-2.3,4.9-5c0-2.8-2.2-5-4.9-5C120.6,148,118.4,150.2,118.4,153z
			 M126,153c0,1.5-1.2,2.8-2.7,2.8s-2.7-1.3-2.7-2.8c0-1.5,1.2-2.8,2.7-2.8C124.8,150.2,126,151.4,126,153z"/>
	</g>
</g>
<g>
	<g>
		<line class="st1" x1="397.1" y1="220.1" x2="504.1" y2="220.1"/>
		<line class="st1" x1="397.1" y1="228" x2="446.3" y2="228"/>
	</g>
</g>
<line class="st1" x1="81.2" y1="80.4" x2="139.7" y2="80.4"/>
<line class="st7" x1="90.5" y1="92" x2="117.4" y2="92"/>
<g>
	<g>
		<line class="st1" x1="55.3" y1="210.6" x2="158.3" y2="210.6"/>
		<line class="st1" x1="114.8" y1="218.5" x2="158.3" y2="218.5"/>
	</g>
</g>
<line class="st8" x1="317.6" y1="239.1" x2="325.6" y2="247.2"/>
<path class="st9" d="M355,276.5L355,276.5c-1.9,1.9-5.1,1.9-7.1,0L325,253.6c-1.9-1.9-1.9-5.1,0-7.1v0c1.9-1.9,5.1-1.9,7.1,0
	l22.9,22.9C356.9,271.4,356.9,274.6,355,276.5z"/>
<g>
	
		<ellipse transform="matrix(0.7071 -0.7071 0.7071 0.7071 -68.9791 277.5216)" class="st10" cx="300.5" cy="222" rx="17.1" ry="17.1"/>
	<path class="st4" d="M323.9,222c0,12.9-10.5,23.4-23.4,23.4c-12.9,0-23.4-10.5-23.4-23.4s10.5-23.4,23.4-23.4
		C313.4,198.7,323.9,209.1,323.9,222z M283.2,222c0,9.5,7.7,17.3,17.3,17.3s17.3-7.7,17.3-17.3c0-9.5-7.7-17.3-17.3-17.3
		S283.2,212.5,283.2,222z"/>
</g>
<path class="st8" d="M293,214.6c4.3-4.3,11.2-4.3,15.5,0"/>
<circle class="st3" cx="81.2" cy="80.4" r="4.4"/>
<circle class="st11" cx="84.7" cy="92" r="3.4"/>
<g>
	<g>
		<path class="st5" d="M416.4,40.1c-1.1-1.6-2.5-3-4.3-3.8c-0.4-0.2-0.9,0-1.1,0.4c-0.2,0.4,0,0.9,0.4,1.1c3.1,1.5,5.1,4.6,5.1,8
			c0,1.5-0.4,2.9-1,4.2c-0.2,0.4-0.1,0.9,0.3,1.1c0.1,0.1,0.3,0.1,0.4,0.1c0.3,0,0.6-0.2,0.7-0.4c0.8-1.5,1.2-3.2,1.2-4.9
			C418,43.8,417.5,41.8,416.4,40.1z"/>
	</g>
</g>
<g>
	<g>
		<path class="st5" d="M408.8,35.3L408.8,35.3c-0.5,0-0.9,0.4-0.9,0.8s0.4,0.8,0.8,0.8l0,0c0,0,0,0,0,0c0.4,0,0.8-0.4,0.8-0.8
			C409.6,35.6,409.2,35.3,408.8,35.3z"/>
	</g>
</g>
<g>
	<g>
		<path class="st5" d="M403.7,53.8c-3.1-1.5-5.1-4.6-5.1-8c0-1.5,0.4-2.9,1-4.2c0.2-0.4,0.1-0.9-0.3-1.1c-0.4-0.2-0.9-0.1-1.1,0.3
			c-0.8,1.5-1.2,3.2-1.2,4.9c0,2,0.6,4,1.7,5.7c1.1,1.6,2.5,3,4.3,3.8c0.1,0.1,0.2,0.1,0.4,0.1c0.3,0,0.6-0.2,0.7-0.5
			C404.2,54.5,404.1,54,403.7,53.8z"/>
	</g>
</g>
<g>
	<g>
		<path class="st5" d="M406.3,54.7L406.3,54.7c-0.5,0-0.9,0.4-0.9,0.8c0,0.4,0.4,0.8,0.8,0.8l0.1,0c0.4,0,0.8-0.4,0.8-0.8
			S406.8,54.7,406.3,54.7z"/>
	</g>
</g>
<path class="st5" d="M411.2,32.5c-0.1-0.2-0.2-0.5-0.4-0.7h2.1c2.1,0,3.7-1.7,3.7-3.7s-1.7-3.7-3.7-3.7h-6.5
	c0.4-0.6,0.7-1.3,0.7-2.1c0-2.1-1.7-3.7-3.7-3.7h-19.8c-2.1,0-3.7,1.7-3.7,3.7s1.7,3.7,3.7,3.7h6.5c-0.4,0.6-0.7,1.3-0.7,2.1
	c0,0.8,0.2,1.5,0.7,2.1h-2.1c-2.1,0-3.7,1.7-3.7,3.7c0,1.2,0.6,2.2,1.4,2.9c-0.9,0.7-1.4,1.7-1.4,2.9s0.6,2.2,1.4,2.9
	c-0.9,0.7-1.4,1.7-1.4,2.9s0.6,2.2,1.4,2.9c-0.9,0.7-1.4,1.7-1.4,2.9c0,2.1,1.7,3.7,3.7,3.7h9.5c2.5,2.7,6.1,4.4,10,4.4
	c7.6,0,13.8-6.2,13.8-13.8C421.3,39.5,417,34.1,411.2,32.5z M412.9,26c1.2,0,2.1,0.9,2.1,2.1c0,1.2-0.9,2.1-2.1,2.1h-5.2h-14.6
	c-1.2,0-2.1-0.9-2.1-2.1c0-1.2,0.9-2.1,2.1-2.1H412.9z M383.6,24.4c-1.2,0-2.1-0.9-2.1-2.1c0-1.2,0.9-2.1,2.1-2.1h19.8
	c1.2,0,2.1,0.9,2.1,2.1c0,1.2-0.9,2.1-2.1,2.1H383.6z M387.9,31.9h19.8c0.3,0,0.6,0.1,0.9,0.2c-0.4,0-0.8,0-1.2,0
	c-3.8,0-7.2,1.5-9.7,4h-9.9c-1.2,0-2.1-0.9-2.1-2.1S386.8,31.9,387.9,31.9z M387.9,37.7h8.5c-0.9,1.3-1.6,2.7-2.1,4.2h-6.4
	c-1.2,0-2.1-0.9-2.1-2.1C385.8,38.6,386.8,37.7,387.9,37.7z M387.9,43.5h6c-0.1,0.7-0.2,1.5-0.2,2.3c0,0.7,0,1.3,0.1,1.9h-6
	c-1.2,0-2.1-0.9-2.1-2.1S386.8,43.5,387.9,43.5z M387.9,53.6c-1.2,0-2.1-0.9-2.1-2.1c0-1.2,0.9-2.1,2.1-2.1h6.3
	c0.4,1.5,1.1,2.9,1.9,4.2H387.9z M407.5,57.9c-6.7,0-12.1-5.4-12.1-12.1s5.4-12.1,12.1-12.1c6.7,0,12.1,5.4,12.1,12.1
	S414.2,57.9,407.5,57.9z"/>
<circle class="st5" cx="365.7" cy="217.5" r="10.3"/>
<g>
	<path class="st12" d="M366.1,211.6v0.7c0.5,0,0.8,0.1,1.2,0.3c0.3,0.1,0.6,0.4,0.8,0.6c0.2,0.2,0.3,0.4,0.4,0.7
		c0.1,0.2,0.2,0.4,0.2,0.6c0,0.2-0.1,0.4-0.2,0.5c-0.2,0.2-0.3,0.2-0.6,0.2c-0.4,0-0.7-0.2-0.8-0.7c-0.1-0.5-0.5-0.9-1-1v2.6
		c0.5,0.1,0.9,0.3,1.2,0.4c0.3,0.1,0.6,0.3,0.8,0.5c0.3,0.2,0.5,0.5,0.6,0.8s0.2,0.7,0.2,1.1c0,0.5-0.1,0.9-0.3,1.4
		c-0.2,0.4-0.6,0.8-1,1c-0.4,0.3-1,0.4-1.6,0.5v1.6c0,0.2,0,0.4-0.1,0.5c0,0.1-0.2,0.2-0.3,0.2c-0.2,0-0.3,0-0.3-0.1
		c-0.1-0.1-0.1-0.2-0.1-0.4v-1.7c-0.5-0.1-0.9-0.2-1.3-0.3c-0.4-0.2-0.7-0.4-0.9-0.7c-0.2-0.3-0.4-0.5-0.5-0.8
		c-0.1-0.3-0.2-0.6-0.2-0.8c0-0.2,0.1-0.4,0.2-0.5c0.2-0.2,0.4-0.2,0.6-0.2c0.2,0,0.4,0,0.5,0.1c0.1,0.1,0.2,0.2,0.3,0.4
		c0.1,0.3,0.2,0.6,0.3,0.8c0.1,0.2,0.2,0.4,0.4,0.5c0.2,0.2,0.4,0.3,0.7,0.3v-2.9c-0.6-0.2-1-0.3-1.4-0.5c-0.4-0.2-0.7-0.5-0.9-0.8
		c-0.2-0.4-0.4-0.8-0.4-1.4c0-0.7,0.2-1.3,0.7-1.8c0.5-0.5,1.1-0.7,2-0.8v-0.7c0-0.4,0.1-0.5,0.4-0.5
		C366,211,366.1,211.2,366.1,211.6z M365.3,215.9v-2.4c-0.4,0.1-0.6,0.2-0.8,0.4c-0.2,0.2-0.3,0.4-0.3,0.8c0,0.3,0.1,0.6,0.3,0.8
		C364.7,215.6,365,215.8,365.3,215.9z M366.1,217.8v2.8c0.4-0.1,0.8-0.3,1-0.5c0.2-0.3,0.3-0.6,0.3-0.9c0-0.4-0.1-0.7-0.3-0.9
		C366.9,218.1,366.6,217.9,366.1,217.8z"/>
</g>
<circle class="st5" cx="352.8" cy="240.1" r="10.3"/>
<path class="st12" d="M355.3,245.1c-2.2,0-4-1.4-4.7-3.3h4.7v-0.8h-4.9c0-0.3-0.1-0.6-0.1-0.8s0-0.6,0.1-0.8h4.9v-0.8h-4.7
	c0.7-1.9,2.5-3.3,4.7-3.3c0.7,0,1.5,0.2,2.2,0.5l0.4-0.8c-0.8-0.4-1.6-0.6-2.5-0.6c-2.6,0-4.9,1.8-5.6,4.2h-1.9v0.8h1.7
	c0,0.3-0.1,0.6-0.1,0.8s0,0.6,0.1,0.8h-1.7v0.8h1.9c0.7,2.4,3,4.2,5.6,4.2c0.9,0,1.7-0.2,2.5-0.6l-0.4-0.8
	C356.8,244.9,356.1,245.1,355.3,245.1L355.3,245.1z"/>
<circle class="st5" cx="378.6" cy="240.1" r="10.3"/>
<g>
	<g>
		<polygon class="st12" points="378.9,239.6 382.8,235.7 382.4,235.2 378.6,239 374.8,235.2 374.4,235.7 378.3,239.6 378.3,240.7 
			376.8,240.7 376.8,241.3 378.3,241.3 378.3,242.2 376.8,242.2 376.8,242.8 378.3,242.8 378.3,244.9 378.9,244.9 378.9,242.8 
			380.4,242.8 380.4,242.2 378.9,242.2 378.9,241.3 380.4,241.3 380.4,240.7 378.9,240.7 		"/>
	</g>
</g>
<g>
	<g>
		<path class="st6" d="M55.2,145.3h-3.8v-3.8c0-0.7-0.6-1.3-1.3-1.3s-1.3,0.6-1.3,1.3v3.8h-3.7c-0.7,0-1.3,0.6-1.3,1.3
			c0,0.7,0.6,1.3,1.3,1.3h3.7v3.8c0,0.7,0.6,1.3,1.3,1.3s1.3-0.6,1.3-1.3v-3.8h3.8c0.7,0,1.3-0.6,1.3-1.3
			C56.5,145.9,55.9,145.3,55.2,145.3z"/>
	</g>
</g>
<g>
	<g>
		<path class="st6" d="M83.4,145.3H73.3c-0.7,0-1.3,0.6-1.3,1.3c0,0.7,0.6,1.3,1.3,1.3h10.1c0.7,0,1.3-0.6,1.3-1.3
			C84.7,145.9,84.1,145.3,83.4,145.3z"/>
	</g>
</g>
<g>
	<g>
		<path class="st6" d="M52,175.1l2.7-2.7c0.5-0.5,0.5-1.3,0-1.8c-0.5-0.5-1.3-0.5-1.8,0l-2.7,2.7l-2.7-2.7c-0.5-0.5-1.3-0.5-1.8,0
			c-0.5,0.5-0.5,1.3,0,1.8l2.7,2.7l-2.7,2.7c-0.5,0.5-0.5,1.3,0,1.8c0.2,0.3,0.6,0.4,0.9,0.4c0.3,0,0.7-0.1,0.9-0.4l2.7-2.7l2.7,2.7
			c0.2,0.3,0.6,0.4,0.9,0.4c0.3,0,0.7-0.1,0.9-0.4c0.5-0.5,0.5-1.3,0-1.8L52,175.1z"/>
	</g>
</g>
<g>
	<g>
		<path class="st6" d="M93.7,159.6v-22.7c0-3.3-2.6-5.9-5.9-5.9H64.3H40.7c-3.2,0-5.9,2.7-5.9,5.9v23.9v23.9c0,3.3,2.6,5.9,5.9,5.9
			h23.1c4,4.1,9.4,6.3,15.1,6.3c11.8,0,21.4-9.7,21.4-21.7C100.3,169.4,97.9,163.7,93.7,159.6z M65.5,133.6h22.3
			c1.8,0,3.3,1.5,3.3,3.3v20.6c-3.6-2.6-7.9-3.9-12.3-3.9c-4.9,0-9.5,1.6-13.3,4.7L65.5,133.6L65.5,133.6z M37.4,136.9
			c0-1.8,1.5-3.3,3.3-3.3H63v25.9H37.4V136.9z M40.7,188c-1.8,0-3.3-1.5-3.3-3.3v-22.6h24.4c-2.8,3.8-4.4,8.3-4.4,13.1
			c0,4.7,1.5,9.1,4.1,12.8H40.7z M78.8,194.3c-5.2,0-10-2.1-13.6-5.9c-3.4-3.6-5.2-8.3-5.2-13.2c0-4.9,1.8-9.6,5.2-13.2
			c3.6-3.8,8.4-5.9,13.7-5.9c4.7,0,9.2,1.8,12.7,5c3.9,3.6,6.1,8.7,6.1,14.1C97.7,185.7,89.3,194.3,78.8,194.3z"/>
	</g>
</g>
<g>
	<g>
		<path class="st6" d="M78.8,159.1c-8.8,0-16,7.2-16,16.1s7.2,16.1,16,16.1s16-7.2,16-16.1S87.6,159.1,78.8,159.1z M78.8,188.8
			c-7.4,0-13.4-6.1-13.4-13.5c0-7.5,6-13.5,13.4-13.5s13.4,6.1,13.4,13.5S86.2,188.8,78.8,188.8z"/>
	</g>
</g>
<g>
	<g>
		<path class="st6" d="M83.9,173.9h-3.8v-7.8c0-0.7-0.6-1.3-1.3-1.3s-1.3,0.6-1.3,1.3v9.1c0,0.7,0.6,1.3,1.3,1.3h5
			c0.7,0,1.3-0.6,1.3-1.3C85.2,174.5,84.6,173.9,83.9,173.9z"/>
	</g>
</g>
<g>
	<g>
		<path class="st6" d="M77.9,183.9c-2.5,0-4.9-1.4-6.1-3.7c-0.3-0.6-1.1-0.9-1.7-0.5c-0.6,0.3-0.8,1.1-0.5,1.8c1.7,3.1,4.9,5,8.3,5
			c0.7,0,1.3-0.6,1.3-1.3C79.2,184.4,78.6,183.9,77.9,183.9z"/>
	</g>
</g>
<g>
	<g>
		<path class="st6" d="M69.7,175.6c-1.6,0-1.6,2.6,0,2.6C71.4,178.2,71.4,175.6,69.7,175.6z"/>
	</g>
</g>
<path class="st3" d="M462,162.2c-0.8,0.1-1.6,0.1-2.4,0c-0.8-0.1-1.5-0.2-2.2-0.5c-0.3-0.2-0.7-0.3-1-0.5c-0.3-0.2-0.7-0.4-0.9-0.6
	c-0.6-0.4-1.2-0.9-1.7-1.5c-0.3-0.3-0.5-0.6-0.8-0.9l-0.7-0.9c-0.3-0.4-0.8-0.6-1.3-0.4l-0.1,0c-1,0.3-2,0.4-2.9,0.5
	c-0.5,0-0.9,0.1-1.4,0.1c-0.4,0-0.8-0.1-1.2-0.2c-0.1-0.1-0.3-0.1-0.4-0.2c-0.1-0.1-0.2-0.1-0.2-0.2c0,0,0,0,0-0.1c0,0,0-0.1,0-0.1
	c0,0,0-0.1,0-0.2c0-0.1,0-0.3,0-0.4c0-0.1,0.1-0.3,0.1-0.4l0-0.2l0.1-0.4l0.3-0.7c0-0.1,0.1-0.2,0.1-0.3c0.3-1.1-0.5-2.3-1.6-2.5
	c-1.1-0.3-2.3,0.5-2.5,1.6l0,0l-0.2,0.8l-0.1,0.4l-0.1,0.6c0,0.4-0.1,0.7-0.1,1.1c0,0.4,0,0.8,0.1,1.2c0.1,0.4,0.2,0.9,0.5,1.3
	c0.1,0.2,0.3,0.4,0.4,0.6c0.2,0.2,0.4,0.3,0.5,0.5c0.4,0.3,0.8,0.5,1.2,0.7c0.4,0.1,0.8,0.2,1.1,0.3c1.4,0.2,2.6-0.1,3.7-0.3
	c0.9-0.2,1.7-0.5,2.5-0.8l0.3,0.3c0.3,0.3,0.7,0.6,1,0.9c0.7,0.6,1.4,1.1,2.2,1.5c0.4,0.2,0.8,0.4,1.2,0.6c0.4,0.2,0.9,0.3,1.3,0.4
	c0.9,0.2,1.8,0.3,2.6,0.2c0.9,0,1.7-0.1,2.6-0.3c0.8-0.2,1.6-0.4,2.4-0.6c1.6-0.5,3.1-1.1,4.7-1.6c-1.6,0.3-3.2,0.7-4.8,1
	C463.7,162,462.8,162.1,462,162.2z"/>
<g>
	<path class="st5" d="M476,119.6l6.3,6.3l-3.1,3.1l-6.3-6.3L476,119.6z"/>
	<path class="st5" d="M503.7,102.1c0.3-0.3,0.4-0.6,0.4-1c0-0.4-0.2-0.8-0.4-1l-1.8-1.8c-0.6-0.6-1.5-0.6-2,0l-3.1,3.1l3.8,3.8
		L503.7,102.1z"/>
	<path class="st5" d="M462.3,146l14.9-14.9l-6.3-6.3L456,139.7c-0.2,0.2-0.3,0.3-0.4,0.5l6.3,6.3C462,146.3,462.1,146.2,462.3,146z"
		/>
	<path class="st5" d="M459.4,148.2l-5.6-5.6c-0.4,0.8-0.8,1.6-1.1,2.5l-1.9,6.1l6.1-1.9C457.8,149,458.6,148.6,459.4,148.2z"/>
	<path class="st5" d="M485.4,106c1.3-1.3,3.4-1.7,5.1-0.8l-12.4,12.4l6.3,6.3l15.4-15.4l-6.3-6.3l-0.9,0.9c-2.9-2-6.8-1.6-9.2,0.9
		l-11.6,11.6c-0.6,0.6-0.6,1.5,0,2.1c0.6,0.6,1.5,0.6,2.1,0L485.4,106z"/>
</g>
<path class="st13" d="M276.4,57v-8.6h-3.3v-1.9h8.9v1.9h-3.3V57H276.4z"/>
<path class="st13" d="M283,57h-2.3l4.8-10.5h1.9l4.8,10.5h-2.3l-3.7-8.7h0.6L283,57z M282.9,54.7l0.9-1.8h5.2l0.9,1.8H282.9z"/>
<polygon class="st13" points="295.2,57 292.5,57 296.5,51.7 297.8,50 300.4,46.5 303,46.5 299.1,51.7 297.8,53.4 "/>
<polygon class="st13" points="300.4,57 297.8,53.4 296.5,51.7 292.6,46.5 295.3,46.5 297.8,50 299.1,51.7 303.1,57 "/>
<g>
	<path class="st13" d="M366.1,85.9l-4.7-10.5h2.4l3.6,8.4h-0.7l3.6-8.4h2.3l-4.7,10.5H366.1z"/>
	<path class="st13" d="M373.5,85.9h-2.3l4.8-10.5h1.9l4.8,10.5h-2.3l-3.7-8.7h0.6L373.5,85.9z M373.4,83.6l0.9-1.8h5.2l0.9,1.8
		H373.4z"/>
	<path class="st13" d="M384.7,85.9v-8.6h-3.3v-1.9h8.9v1.9H387v8.6H384.7z"/>
</g>
<path class="st13" d="M362.4,167.4v-10.5h7.2v1.8h-5v2.5h4.7v1.8h-4.7v2.7h5v1.8H362.4z"/>
<polygon class="st13" points="372.5,167.4 369.8,167.4 373.8,162.1 375.1,160.4 377.7,156.9 380.3,156.9 376.4,162.1 375.1,163.8 
	"/>
<polygon class="st13" points="377.7,167.4 375.1,163.8 373.8,162.1 369.9,156.9 372.6,156.9 375.1,160.4 376.4,162.1 380.4,167.4 
	"/>
<path class="st13" d="M385.8,167.6c-1.1,0-2-0.2-2.8-0.7c-0.8-0.4-1.4-1.1-1.8-1.9c-0.4-0.8-0.6-1.8-0.6-2.9c0-1.1,0.2-2,0.6-2.8
	c0.4-0.8,1-1.4,1.8-1.9c0.8-0.4,1.7-0.7,2.8-0.7c0.7,0,1.4,0.1,2,0.3c0.6,0.2,1.2,0.5,1.6,0.9l-0.7,1.7c-0.5-0.4-0.9-0.6-1.4-0.8
	s-0.9-0.2-1.4-0.2c-0.9,0-1.7,0.3-2.2,0.9c-0.5,0.6-0.8,1.5-0.8,2.6s0.3,2,0.8,2.6c0.5,0.6,1.2,0.9,2.2,0.9c0.5,0,1-0.1,1.4-0.2
	s0.9-0.4,1.4-0.8l0.7,1.7c-0.4,0.4-0.9,0.7-1.6,0.9C387.1,167.5,386.5,167.6,385.8,167.6z"/>
<path class="st13" d="M390.9,167.4v-10.5h2.3v10.5H390.9z"/>
<path class="st13" d="M399,167.6c-0.5,0-1,0-1.6-0.1c-0.5-0.1-1-0.2-1.4-0.4s-0.8-0.4-1.2-0.7l0.8-1.7c0.5,0.4,1.1,0.6,1.6,0.8
	s1.2,0.3,1.8,0.3c0.7,0,1.2-0.1,1.5-0.3c0.4-0.2,0.5-0.5,0.5-0.9c0-0.2-0.1-0.4-0.2-0.6s-0.4-0.3-0.7-0.4c-0.3-0.1-0.8-0.2-1.3-0.4
	c-0.7-0.1-1.3-0.3-1.7-0.5c-0.5-0.2-0.9-0.4-1.2-0.6c-0.3-0.2-0.5-0.5-0.7-0.9s-0.2-0.7-0.2-1.1c0-0.6,0.2-1.2,0.5-1.7
	c0.3-0.5,0.8-0.9,1.5-1.2c0.6-0.3,1.4-0.4,2.2-0.4c0.5,0,1,0,1.5,0.1c0.5,0.1,0.9,0.2,1.3,0.4c0.4,0.2,0.7,0.4,1,0.6l-0.7,1.7
	c-0.5-0.4-1-0.6-1.5-0.8c-0.5-0.2-1-0.3-1.6-0.3c-0.6,0-1.1,0.1-1.4,0.4c-0.4,0.2-0.5,0.6-0.5,1c0,0.2,0.1,0.4,0.2,0.6
	c0.1,0.2,0.4,0.3,0.7,0.4s0.8,0.2,1.3,0.4c0.7,0.1,1.2,0.3,1.7,0.5s0.9,0.4,1.2,0.6s0.5,0.5,0.7,0.8s0.2,0.7,0.2,1.1
	c0,0.7-0.2,1.2-0.5,1.7c-0.3,0.5-0.8,0.8-1.5,1.1C400.7,167.4,399.9,167.6,399,167.6z"/>
<path class="st13" d="M405,167.4v-10.5h7.2v1.8h-5v2.5h4.7v1.8h-4.7v2.7h5v1.8H405z"/>
<g>
	<path class="st5" d="M406.4,42.3c0,0,0.4-1.1,0.5-1.2c0,0,1,1.1,1.1,3.6c0,0,0,1.8-0.7,2.4l0-0.1c0,0,0-0.3,0-0.4
		c0.1-0.7,0.1-1.9-0.1-2.6C407.1,43.6,407,43.1,406.4,42.3z"/>
	<path class="st5" d="M412.8,48.2c0,0,0.1-0.1,0.2,0c0.1,0.1,0.3,0.3,0.5,0.7c0,0,0.2,0.5,0.1,0.8c0,0-0.1,0.4-0.5,0.5
		c0,0-0.5,0.2-0.8,0.1c0,0-0.3-0.1-0.3-0.3c0,0,0-0.2,0.1-0.3c0,0,0-0.1,0.2,0c0,0,0.3,0.1,0.7,0.1c0.1,0,0.3-0.1,0.4-0.1
		c0,0,0.1-0.1,0-0.2c0,0-0.5-0.5-0.5-0.6c-0.1-0.1-0.3-0.2-0.2-0.4C412.7,48.4,412.8,48.3,412.8,48.2z"/>
	<path class="st5" d="M409,50c0,0,1.1,0,1.3,0c0,0,0.2-0.1,0.2-0.1s0.7-0.5,0.9-0.7c0-0.1,0.1-0.2,0.1-0.3c0,0,0-0.1,0-0.1l-0.4-0.4
		l0,0c0,0,0-0.4,0-0.4c0,0,0,0,0,0c0.1,0,0.2,0,0.2,0s0.3,0.6,0.4,0.8c0.1,0.1,0.1,0.4-0.1,0.7c0,0-0.4,0.8-0.9,1c0,0-0.4,0.1-0.8,0
		C410,50.4,409,50.1,409,50z"/>
	<path class="st5" d="M409.3,48.8c0-0.3-0.3-0.9-0.6-1c0,0-0.4,0-0.4,0.1c0,0,0,0.1,0,0.2c0,0,0,0,0,0s-0.6,0.4-0.6,0.7
		c0,0-0.1,0.3,0,0.4c0,0-2.4,0.2-3-0.1c0,0-0.7-0.2-0.7-0.6c0,0,0-0.4-0.3-0.4c0,0-0.5-0.1-0.7,0.3c0,0-0.2,0.3-0.1,0.7
		c0,0-0.7,0.8-1.6,0.7c0,0-0.7-0.2-0.5,0c0,0,0.5,0.5,1.5,0.3c0,0,0.5-0.1,0.9-0.7c0,0,0,0,0,0s0,0,0,0c0,0,0.1,0,0.1,0.1
		c0.1,0.1,0.5,0.5,0.7,0.5c0,0,0.1-0.1,0.1-0.4v0c0,0,0-0.1,0.3,0c0.3,0.1,1,0.3,1.2,0.3c0.5,0,1.6,0,2.2-0.1c0.2,0,0.8,0,0.8,0.1
		c0,0,0,0,0.1,0c0.1,0,0.4,0,0.5,0c0,0,0.2-0.1,0.2-0.2C409.4,49.3,409.3,49,409.3,48.8z M403.5,49.1L403.5,49.1
		c-0.2,0-0.5-0.2-0.5-0.4c0-0.2,0.3-0.3,0.4-0.3c0,0,0,0,0,0c0,0,0,0,0,0C403.6,48.8,403.5,49,403.5,49.1
		C403.5,49.1,403.5,49.1,403.5,49.1z M408.3,49.2c0,0-0.5,0-0.3-0.3c0,0,0.3-0.3,0.4-0.3C408.4,48.6,408.7,49.1,408.3,49.2z
		 M409,49.2c0,0-0.3,0.1-0.4-0.2c0-0.3,0-0.6,0.1-0.5l0.4,0.4C409.1,48.9,409.2,49.2,409,49.2z"/>
</g>
</svg>
