<?xml version="1.0" encoding="utf-8"?>
<!-- Generator: Adobe Illustrator 21.0.0, SVG Export Plug-In . SVG Version: 6.00 Build 0)  -->
<svg version="1.1" id="Layer_1" xmlns="http://www.w3.org/2000/svg" xmlns:xlink="http://www.w3.org/1999/xlink" x="0px" y="0px"
	 viewBox="0 0 652.9 545.2" style="enable-background:new 0 0 652.9 545.2;" xml:space="preserve">
<style type="text/css">
	.st0{fill:none;}
	.st1{fill:#B28741;}
	.st2{fill:#231F20;}
	.st3{fill:#D1AE6C;}
	.st4{fill:#999999;}
	.st5{fill:#727373;}
	.st6{fill:#515252;}
	.st7{opacity:0.27;}
	.st8{fill:#FFFFFF;}
	.st9{fill:#D1AA67;}
</style>
<g>
	<g>
		<polygon class="st0" points="155.9,97.3 155.9,97.3 155.7,97 		"/>
	</g>
	<g>
		<polygon points="155.9,97.3 155.9,97.3 155.7,97 		"/>
	</g>
	<g>
		<path class="st1" d="M229.8,251.6h-1.3c0-13.5-11-24.6-24.6-24.6s-24.6,11-24.6,24.6h-1.3c0-14.2,11.6-25.8,25.8-25.8
			S229.8,237.3,229.8,251.6z"/>
	</g>
	<g>
		<path class="st2" d="M420.2,217.1h-1.3c0-13.5-11-24.6-24.6-24.6s-24.6,11-24.6,24.6h-1.3c0-14.2,11.6-25.8,25.8-25.8
			S420.2,202.9,420.2,217.1z"/>
	</g>
	<g>
		<path class="st2" d="M330.5,165h-1.3c0-13.5-11-24.6-24.6-24.6c-13.5,0-24.6,11-24.6,24.6h-1.3c0-14.2,11.6-25.8,25.8-25.8
			C319,139.2,330.5,150.8,330.5,165z"/>
	</g>
	<g>
		<path class="st1" d="M254.3,393c-14.2,0-25.8-11.6-25.8-25.8h1.3c0,13.5,11,24.6,24.6,24.6c13.5,0,24.6-11,24.6-24.6h1.3
			C280.2,381.4,268.6,393,254.3,393z"/>
	</g>
	<g>
		<path class="st2" d="M349.5,295c-11.2,0-20.3-9.1-20.3-20.3h1.3c0,10.5,8.5,19,19,19s19-8.5,19-19h1.3
			C369.8,285.9,360.7,295,349.5,295z"/>
	</g>
	<g>
		<path class="st1" d="M444.7,352.9c-14.2,0-25.8-11.6-25.8-25.8h1.3c0,13.5,11,24.6,24.6,24.6s24.6-11,24.6-24.6h1.3
			C470.6,341.3,459,352.9,444.7,352.9z"/>
	</g>
	<g>
		<path class="st1" d="M456.5,165h-1.3c0-13.5-11-24.6-24.6-24.6v-1.3C444.9,139.2,456.5,150.8,456.5,165z"/>
	</g>
	<g>
		<path class="st1" d="M521.2,352.9v-1.3c13.5,0,24.6-11,24.6-24.6h1.3C547,341.3,535.5,352.9,521.2,352.9z"/>
	</g>
	<g>
		<rect x="228.5" y="251.6" class="st1" width="1.3" height="115.6"/>
	</g>
	<g>
		<rect x="418.9" y="217.1" class="st1" width="1.3" height="109.9"/>
	</g>
	<g>
		<rect x="329.3" y="165" class="st2" width="1.3" height="109.7"/>
	</g>
	<g>
		<rect x="368.5" y="216" class="st2" width="1.3" height="58.7"/>
	</g>
	<g>
		<rect x="278.9" y="165" class="st2" width="1.3" height="202.1"/>
	</g>
	<g>
		<rect x="349.5" y="293.7" class="st2" width="70" height="1.3"/>
	</g>
	<g>
		<g>
			<path class="st3" d="M369.2,217.1c0-13.9,11.3-25.2,25.2-25.2c13.9,0,25.2,11.3,25.2,25.2v77.2h-70c10.8,0,19.6-8.8,19.6-19.6
				V216"/>
		</g>
		<g>
			<path class="st1" d="M420.2,295h-70.6v-1.3c10.5,0,19-8.5,19-19V216h0c0.6-13.7,11.9-24.7,25.8-24.7c14.2,0,25.8,11.6,25.8,25.8
				V295z M356.6,293.7h62.4v-76.6c0-13.5-11-24.6-24.6-24.6s-24.6,11-24.6,24.6v57.6C369.8,283.4,364.3,290.9,356.6,293.7z"/>
		</g>
	</g>
	<g>
		<rect x="304.7" y="139.2" class="st1" width="126.8" height="1.3"/>
	</g>
	<g>
		<rect x="204" y="225.7" class="st1" width="75.5" height="1.3"/>
	</g>
	<g>
		<rect x="394.4" y="191.3" class="st1" width="136.4" height="1.3"/>
	</g>
	<g>
		<rect x="444.7" y="351.6" class="st1" width="78.2" height="1.3"/>
	</g>
	<g>
		<rect x="469.9" y="326.4" class="st1" width="76.5" height="1.3"/>
	</g>
	<g>
		<rect x="530.1" y="191.9" class="st1" width="1.3" height="135.1"/>
	</g>
	<g>
		<rect x="455.3" y="165" class="st1" width="1.3" height="26.9"/>
	</g>
	<g>
		<rect x="372.6" y="294.4" class="st2" width="1.3" height="74.8"/>
	</g>
	<g>
		<rect x="254.3" y="391.7" class="st2" width="95.2" height="1.3"/>
	</g>
	<g>
		<g>
			<path class="st3" d="M373.2,369.2v-74.8h-23.7c-10.8,0-19.6-8.8-19.6-19.6V165c0-13.9-11.3-25.2-25.2-25.2s-25.2,11.3-25.2,25.2
				v202.1c0,13.9-11.3,25.2-25.2,25.2h95.2h-1.5c13.9,0,25.2-11.3,25.2-25.2"/>
		</g>
		<g>
			<path class="st1" d="M349.5,393h-95.2v-1.3c13.5,0,24.6-11,24.6-24.6V165c0-14.2,11.6-25.8,25.8-25.8c14.2,0,25.8,11.6,25.8,25.8
				v109.7c0,10.5,8.5,19,19,19h24.3v75.5h-0.1C372.8,382,362.4,392.2,349.5,393L349.5,393z M262.3,391.7h85.7
				c13.5,0,24.6-11,24.6-24.6V295h-23.1c-11.2,0-20.3-9.1-20.3-20.3V165c0-13.5-11-24.6-24.6-24.6c-13.5,0-24.6,11-24.6,24.6v202.1
				C280.2,378.6,272.7,388.3,262.3,391.7z"/>
		</g>
	</g>
	<g>
		<g>
			<rect x="446.3" y="230.8" class="st1" width="60.1" height="1.3"/>
		</g>
		<g>
			<rect x="446.3" y="244.7" class="st1" width="60.1" height="1.3"/>
		</g>
		<g>
			<rect x="446.3" y="258.9" class="st1" width="60.1" height="1.3"/>
		</g>
		<g>
			<rect x="446.3" y="273" class="st1" width="60.1" height="1.3"/>
		</g>
		<g>
			<rect x="446.3" y="287.1" class="st1" width="60.1" height="1.3"/>
		</g>
	</g>
	<g>
		<g>
			<rect x="340.6" y="194.6" class="st1" width="41.4" height="1.3"/>
		</g>
		<g>
			<rect x="340.6" y="208.6" class="st1" width="29.8" height="1.3"/>
		</g>
		<g>
			<rect x="340.6" y="222.7" class="st1" width="28.5" height="1.3"/>
		</g>
		<g>
			<rect x="340.6" y="236.8" class="st1" width="28.5" height="1.3"/>
		</g>
		<g>
			<rect x="340.6" y="250.9" class="st1" width="28.5" height="1.3"/>
		</g>
	</g>
	<g>
		<rect x="265.2" y="279.1" class="st1" width="14.4" height="1.3"/>
	</g>
	<g>
		<rect x="265.2" y="293.1" class="st1" width="14.3" height="1.3"/>
	</g>
	<g>
		<rect x="265.2" y="307.2" class="st1" width="14.3" height="1.3"/>
	</g>
	<g>
		<rect x="265.2" y="321.4" class="st1" width="14.3" height="1.3"/>
	</g>
	<g>
		<rect x="265.2" y="335.5" class="st1" width="14.3" height="1.3"/>
	</g>
	<g>
		<rect x="83.8" y="250.9" class="st1" width="145.3" height="1.3"/>
	</g>
	<g>
		<polygon class="st4" points="238.9,184 210.7,184 187.3,144.6 187.3,144.6 187.1,144.3 187.3,144.6 209.8,150.3 211.8,142.4 
			175.6,133.3 175.6,133.3 166.4,169.4 174.4,171.4 180.1,148.9 179.9,148.6 206.4,193.2 232.5,193.2 260,226.4 273.4,226.4 		"/>
		<path class="st5" d="M274.7,227h-15l-27.5-33.2h-26.1l-25.7-43.3l-5.5,21.6l-9.2-2.3l9.5-37.3l37.4,9.4l-2.3,9.2l-21.6-5.5
			l22.5,37.8h28.1L274.7,227z M260.3,225.7H272l-33.4-41.1h-28.3l-23.8-40l0.9-0.5l0-0.1l0.1,0l0.1-0.1l0.1,0.1l21.6,5.5l1.7-6.7
			l-35-8.8l-8.9,34.8l6.7,1.7l5.5-21.6l-0.1-0.1l0.1-0.1l0-0.1l0.1,0l0.9-0.5l26.3,44.3h26L260.3,225.7z"/>
	</g>
	<g>
		<path class="st5" d="M70,181.6c-11.3,0-20.5,9.2-20.5,20.5c0,5.9,2.6,11.6,6.9,15.4c3.2,3.2,3,10.2,2.9,10.3c0,0.4,0.1,0.7,0.4,1
			c0.2,0.2,0.6,0.4,0.9,0.4h18.8c0.4,0,0.7-0.1,0.9-0.4c0.2-0.2,0.4-0.6,0.4-1c0-0.1-0.4-7,2.9-10.3c0.1-0.1,0.1-0.1,0.2-0.2
			c4.3-3.9,6.8-9.5,6.8-15.2C90.5,190.8,81.3,181.6,70,181.6z M81.8,215.6c-0.1,0.1-0.2,0.2-0.2,0.3c-2.9,3.1-3.4,8.2-3.5,10.6H61.8
			c-0.1-2.4-0.6-7.8-3.7-10.9c-3.9-3.4-6.2-8.3-6.2-13.6c0-10,8-18,18-18s18,8,18,18C87.9,207.3,85.7,212.2,81.8,215.6z"/>
	</g>
	<g>
		<path class="st5" d="M69.9,186.8c-0.7,0-1.3,0.6-1.3,1.3c0,0.7,0.6,1.3,1.3,1.3c7.5,0,13.4,6.1,13.4,13.4c0,0.7,0.6,1.3,1.3,1.3
			c0.7,0,1.3-0.6,1.3-1.3C85.9,194,78.8,186.8,69.9,186.8z"/>
	</g>
	<g>
		<path class="st5" d="M78.1,230.5H61.7c-1.7,0-3.1,1.4-3.1,3.1c0,1.7,1.4,3.1,3.1,3.1H78c1.8-0.1,3.2-1.4,3.2-3.1
			C81.2,231.9,79.8,230.5,78.1,230.5z M78.1,234.2H61.7c-0.3,0-0.6-0.2-0.6-0.6c0-0.4,0.2-0.6,0.6-0.6H78c0.3,0,0.6,0.2,0.6,0.6
			C78.6,233.9,78.4,234.2,78.1,234.2z"/>
	</g>
	<g>
		<path class="st5" d="M75.7,238H64.1c-1.7,0-3.1,1.4-3.1,3.1c0,1.7,1.4,3.1,3.1,3.1h11.5c1.7,0,3.1-1.4,3.1-3.1
			C78.8,239.3,77.4,238,75.7,238z M75.7,241.6H64.1c-0.3,0-0.6-0.2-0.6-0.6s0.2-0.6,0.6-0.6h11.5c0.3,0,0.6,0.2,0.6,0.6
			S76,241.6,75.7,241.6z"/>
	</g>
	<g>
		<g>
			<path class="st3" d="M69.9,175.5c0.7,0,1.3-0.6,1.3-1.3v-8.6c0-0.7-0.6-1.3-1.3-1.3c-0.7,0-1.3,0.6-1.3,1.3v8.6
				C68.6,174.9,69.2,175.5,69.9,175.5z"/>
		</g>
		<g>
			<path class="st1" d="M69.9,176.1c-1,0-1.9-0.9-1.9-1.9v-8.6c0-1,0.9-1.9,1.9-1.9c1,0,1.9,0.9,1.9,1.9v8.6
				C71.8,175.3,71,176.1,69.9,176.1z M69.9,165c-0.3,0-0.6,0.3-0.6,0.6v8.6c0,0.3,0.3,0.6,0.6,0.6c0.4,0,0.6-0.3,0.6-0.6v-8.6
				C70.5,165.3,70.2,165,69.9,165z"/>
		</g>
	</g>
	<g>
		<g>
			<path class="st3" d="M90.8,170.7c-0.6-0.4-1.3-0.2-1.7,0.3l-4.7,7.1c-0.4,0.6-0.3,1.4,0.3,1.8c0.2,0.1,0.4,0.2,0.7,0.2
				c0.4,0,0.8-0.2,1-0.6l4.7-7.1C91.5,171.9,91.4,171.1,90.8,170.7z"/>
		</g>
		<g>
			<path class="st1" d="M85.3,180.7c-0.3,0-0.7-0.1-1-0.3c-0.4-0.3-0.7-0.7-0.8-1.2c-0.1-0.5,0-1.1,0.4-1.5l4.7-7.1
				c0.3-0.4,0.8-0.7,1.3-0.8c0.5-0.1,0.9,0,1.3,0.3c0.4,0.3,0.7,0.7,0.8,1.2c0.1,0.5-0.1,1-0.4,1.4l-4.7,7.1
				C86.6,180.4,86,180.7,85.3,180.7z M90.1,171.1C90.1,171.1,90,171.1,90.1,171.1c-0.2,0-0.4,0.1-0.5,0.3l-4.7,7.1
				c-0.1,0.2-0.2,0.4-0.1,0.5c0,0.2,0.1,0.3,0.2,0.4c0.1,0.1,0.2,0.1,0.3,0.1c0.3,0,0.4-0.2,0.5-0.3l4.8-7.2
				c0.1-0.1,0.1-0.3,0.1-0.4c0-0.2-0.1-0.3-0.3-0.4l0,0C90.3,171.2,90.2,171.1,90.1,171.1z"/>
		</g>
	</g>
	<g>
		<g>
			<path class="st3" d="M54.9,179.8c0.2,0,0.4-0.1,0.7-0.2c0.6-0.4,0.7-1.2,0.4-1.8l-4.6-7.2c-0.4-0.6-1.2-0.7-1.8-0.4
				c-0.6,0.4-0.7,1.2-0.4,1.8l4.6,7.2C54.1,179.7,54.5,179.8,54.9,179.8z"/>
		</g>
		<g>
			<path class="st1" d="M54.9,180.4c-0.7,0-1.2-0.3-1.6-0.9l-4.6-7.2c-0.3-0.4-0.4-0.9-0.3-1.4c0.1-0.5,0.4-0.9,0.8-1.2
				c0.4-0.3,0.9-0.4,1.4-0.3c0.5,0.1,0.9,0.4,1.2,0.8l4.6,7.2c0.3,0.4,0.4,0.9,0.3,1.4c-0.1,0.5-0.4,0.9-0.8,1.2
				C55.6,180.3,55.3,180.4,54.9,180.4z M50.3,170.7c-0.1,0-0.3,0-0.4,0.1c-0.3,0.2-0.4,0.6-0.2,0.9l4.6,7.2c0.1,0.2,0.3,0.3,0.6,0.3
				c0.1,0,0.2,0,0.3-0.1c0.2-0.1,0.3-0.3,0.3-0.4c0-0.2,0-0.4-0.1-0.5l-4.6-7.2c-0.1-0.2-0.3-0.2-0.4-0.3
				C50.4,170.7,50.3,170.7,50.3,170.7z"/>
		</g>
	</g>
	<g>
		<g>
			<path class="st3" d="M46,187.6l-7.5-4.1c-0.6-0.3-1.4-0.1-1.7,0.5c-0.4,0.6-0.1,1.4,0.5,1.7l7.5,4.1c0.2,0.1,0.4,0.1,0.6,0.1
				c0.4,0,0.9-0.2,1.1-0.7C46.8,188.7,46.6,187.9,46,187.6z"/>
		</g>
		<g>
			<path class="st1" d="M45.4,190.6c-0.3,0-0.5-0.1-0.7-0.1l-0.2-0.1l-7.4-4c-0.5-0.2-0.8-0.6-1-1.1c-0.2-0.5-0.1-1,0.2-1.5
				c0.2-0.4,0.6-0.7,1.1-0.9c0.5-0.1,1-0.1,1.4,0.1l7.5,4.1c0.9,0.4,1.2,1.6,0.8,2.5C46.7,190.2,46.1,190.6,45.4,190.6z M45.1,189.3
				L45.1,189.3c0.2,0.1,0.3,0.1,0.3,0.1c0.1,0,0.4,0,0.5-0.3c0.1-0.3,0-0.7-0.2-0.9l0,0l-7.5-4.1c-0.1-0.1-0.3-0.1-0.5,0
				c-0.2,0-0.3,0.1-0.4,0.3l0,0.1c-0.1,0.1-0.1,0.3-0.1,0.5c0,0.1,0.1,0.2,0.3,0.3l0,0L45.1,189.3z"/>
		</g>
	</g>
	<g>
		<g>
			<path class="st3" d="M103,184.1c-0.3-0.6-1.1-0.8-1.7-0.5l-7.5,4.1c-0.6,0.3-0.8,1.1-0.5,1.7c0.2,0.4,0.7,0.7,1.1,0.7
				c0.2,0,0.4-0.1,0.6-0.1l7.5-4.1C103.1,185.5,103.3,184.7,103,184.1z"/>
		</g>
		<g>
			<path class="st1" d="M94.4,190.6c-0.7,0-1.4-0.4-1.7-1c-0.5-0.9-0.1-2.1,0.8-2.5l7.5-4.1c0.4-0.2,1-0.3,1.4-0.1
				c0.5,0.1,0.9,0.5,1.1,0.9v0c0.5,0.9,0.1,2.1-0.8,2.5l-7.5,4.1C95.1,190.5,94.8,190.6,94.4,190.6z M101.9,184.1
				c-0.1,0-0.2,0-0.3,0.1l-7.5,4.1c-0.3,0.1-0.4,0.6-0.3,0.9c0.1,0.3,0.5,0.3,0.5,0.3c0.1,0,0.2,0,0.3-0.1l7.5-4.1
				c0.3-0.1,0.4-0.6,0.3-0.9l0,0c-0.1-0.1-0.2-0.2-0.4-0.3C102.1,184.1,102,184.1,101.9,184.1z"/>
		</g>
	</g>
	<g>
		<g>
			<g>
				<path class="st5" d="M192,304.5c-0.4,0.7-0.8,1.4-1.2,2.1c-1.4-0.2-2.8-0.2-4.2,0c-0.4-0.7-0.8-1.4-1.2-2.1
					c-0.7-1.2-2.1-1.7-3.4-1.1l0,0l-3.6,1.5c-1.2,0.5-1.9,1.9-1.6,3.2c0.2,0.8,0.4,1.6,0.6,2.4c-1.1,0.9-2.1,1.9-3,3.1
					c-0.8-0.2-1.6-0.4-2.3-0.6c-1.3-0.3-2.6,0.4-3.1,1.6l-1.5,3.7c-0.5,1.3,0,2.7,1.1,3.4c0.7,0.4,1.4,0.8,2.1,1.3
					c-0.2,1.4-0.2,2.9,0,4.3c-0.7,0.4-1.4,0.8-2.1,1.3c-1.1,0.7-1.6,2.2-1.1,3.4l1.5,3.7c0.5,1.3,1.9,2,3.1,1.6
					c0.8-0.2,1.5-0.4,2.3-0.6c0.9,1.1,1.9,2.2,3,3c-0.2,0.8-0.4,1.6-0.6,2.4c-0.3,1.3,0.4,2.7,1.6,3.2l3.6,1.5
					c1.2,0.5,2.7,0,3.4-1.1c0.4-0.7,0.8-1.4,1.2-2.1c1.4,0.2,2.8,0.2,4.2,0c0.4,0.7,0.8,1.4,1.2,2.1c0.7,1.2,2.1,1.7,3.4,1.1
					l3.6-1.5c1.2-0.5,1.9-1.9,1.6-3.2c-0.2-0.8-0.4-1.6-0.6-2.4c1.1-0.9,2.1-1.9,3-3.1c0.8,0.2,1.6,0.4,2.3,0.6
					c1.3,0.3,2.6-0.4,3.1-1.6l1.5-3.7c0.1-0.3,0.2-0.7,0.2-1.1c0-1-0.5-1.9-1.3-2.4c-0.7-0.4-1.4-0.8-2.1-1.3c0.2-1.4,0.2-2.9,0-4.3
					c0.7-0.4,1.4-0.8,2.1-1.3c1.1-0.7,1.6-2.2,1.1-3.4l-1.5-3.7c-0.5-1.3-1.9-2-3.1-1.6c-0.8,0.2-1.5,0.4-2.3,0.6
					c-0.9-1.1-1.9-2.2-3-3c0.2-0.8,0.4-1.6,0.6-2.4c0.3-1.3-0.4-2.7-1.6-3.2l-3.6-1.5C194.1,302.9,192.7,303.4,192,304.5z
					 M197.7,307.6c-0.2,0.8-0.4,1.5-0.6,2.3c-0.3,1.1,0.1,2.2,0.9,2.9c1,0.8,1.9,1.7,2.6,2.7c0.7,0.9,1.8,1.3,2.8,1
					c0.8-0.2,1.5-0.4,2.2-0.6l1.4,3.4c-0.7,0.4-1.3,0.8-2,1.2c-0.9,0.6-1.5,1.6-1.3,2.7c0.2,1.3,0.2,2.6,0,3.8
					c-0.1,1.1,0.4,2.2,1.3,2.7c0.7,0.4,1.3,0.8,2,1.2l-1.4,3.4c-0.7-0.2-1.5-0.4-2.2-0.6c-1.1-0.3-2.2,0.1-2.8,1
					c-0.8,1-1.7,1.9-2.6,2.7c-0.9,0.7-1.2,1.8-0.9,2.9c0.2,0.8,0.4,1.5,0.6,2.3l-3.3,1.4c-0.4-0.7-0.8-1.4-1.2-2
					c-0.5-1-1.6-1.5-2.7-1.4c-1.2,0.2-2.5,0.2-3.7,0c-1.1-0.1-2.1,0.4-2.7,1.4c-0.4,0.7-0.8,1.4-1.2,2l-3.3-1.4
					c0.2-0.8,0.4-1.5,0.6-2.3c0.3-1.1-0.1-2.2-0.9-2.9c-1-0.8-1.9-1.7-2.6-2.7c-0.7-0.9-1.8-1.3-2.8-1c-0.7,0.2-1.5,0.4-2.2,0.6
					l-1.4-3.4c0.6-0.4,1.3-0.8,2-1.2c0.9-0.6,1.5-1.6,1.3-2.7c-0.2-1.3-0.2-2.6,0-3.8c0.1-1.1-0.4-2.2-1.3-2.7
					c-0.7-0.4-1.3-0.8-2-1.2l1.4-3.4c0.7,0.2,1.5,0.4,2.2,0.6c1.1,0.3,2.2-0.1,2.8-1c0.8-1,1.7-1.9,2.6-2.7c0.9-0.7,1.2-1.8,0.9-2.9
					c-0.2-0.8-0.4-1.5-0.6-2.3l3.3-1.4c0.4,0.7,0.8,1.4,1.2,2c0.5,1,1.6,1.5,2.7,1.4c1.2-0.2,2.5-0.2,3.7,0c1.1,0.1,2.1-0.4,2.7-1.4
					c0.4-0.7,0.8-1.4,1.2-2L197.7,307.6z"/>
				<path class="st6" d="M194.3,347.3c-1,0-2-0.5-2.5-1.4c-0.4-0.7-0.8-1.3-1.2-2c-1.3,0.1-2.7,0.1-4,0c-0.4,0.7-0.8,1.4-1.2,2
					c-0.7,1.3-2.3,1.8-3.6,1.2l-3.6-1.5c-1.3-0.6-2.1-2.1-1.7-3.5c0.2-0.7,0.4-1.5,0.6-2.3c-1-0.9-2-1.8-2.8-2.9
					c-0.7,0.2-1.5,0.4-2.2,0.6c-1.4,0.4-2.8-0.4-3.4-1.8l-1.5-3.7c-0.5-1.4,0-2.9,1.2-3.7c0.6-0.4,1.3-0.8,2-1.2
					c-0.1-1.4-0.1-2.7,0-4.1c-0.7-0.4-1.3-0.8-2-1.2c-1.2-0.8-1.7-2.3-1.2-3.7l1.5-3.7c0.5-1.4,2-2.1,3.4-1.8
					c0.7,0.2,1.5,0.4,2.2,0.6c0.8-1.1,1.8-2,2.8-2.9c-0.2-0.8-0.4-1.5-0.6-2.3c-0.3-1.4,0.4-2.9,1.7-3.5l3.6-1.5
					c1.3-0.6,2.9,0,3.6,1.2c0.4,0.7,0.8,1.3,1.2,2c1.3-0.1,2.6-0.1,4,0c0.4-0.7,0.8-1.4,1.2-2l0,0c0.7-1.3,2.3-1.8,3.6-1.2l3.6,1.5
					c1.3,0.6,2.1,2.1,1.7,3.5c-0.2,0.7-0.4,1.5-0.6,2.3c1,0.9,2,1.8,2.8,2.9c0.7-0.2,1.5-0.4,2.2-0.6c1.4-0.4,2.8,0.4,3.4,1.8
					l1.5,3.7c0.5,1.4,0,2.9-1.2,3.7c-0.6,0.4-1.3,0.8-2,1.2c0.1,1.4,0.1,2.7,0,4.1c0.7,0.4,1.3,0.8,2,1.2c0.9,0.5,1.4,1.5,1.4,2.6
					c0,0.4-0.1,0.8-0.2,1.1l-1.5,3.7c-0.5,1.4-2,2.1-3.4,1.8c-0.7-0.2-1.5-0.4-2.2-0.6c-0.8,1.1-1.8,2-2.8,2.9
					c0.2,0.8,0.4,1.5,0.6,2.3c0.3,1.4-0.4,2.9-1.7,3.5l-3.6,1.5C195.1,347.3,194.7,347.3,194.3,347.3z M190.9,343.4l0.1,0.1
					c0.4,0.7,0.8,1.4,1.2,2.1c0.6,1.1,2,1.5,3.1,1l3.6-1.5c1.1-0.5,1.8-1.8,1.5-3c-0.2-0.8-0.4-1.6-0.6-2.4l0-0.1l0.1-0.1
					c1.1-0.9,2.1-1.9,2.9-3l0.1-0.1l0.1,0c0.8,0.2,1.6,0.4,2.3,0.6c1.2,0.3,2.4-0.3,2.9-1.5l1.5-3.7c0.1-0.3,0.2-0.6,0.2-1
					c0-0.9-0.5-1.8-1.2-2.2c-0.7-0.4-1.4-0.8-2.1-1.3l-0.1-0.1l0-0.1c0.2-1.4,0.2-2.9,0-4.3l0-0.1l0.1-0.1c0.7-0.4,1.4-0.8,2.1-1.2
					c1.1-0.6,1.5-2,1-3.2l-1.5-3.7c-0.5-1.2-1.7-1.8-2.9-1.5c-0.8,0.2-1.5,0.4-2.3,0.6l-0.1,0l-0.1-0.1c-0.9-1.1-1.8-2.1-2.9-3
					l-0.1-0.1l0-0.1c0.2-0.8,0.4-1.6,0.6-2.4c0.3-1.2-0.3-2.5-1.5-3l-3.6-1.5c-1.1-0.5-2.5,0-3.1,1c-0.4,0.7-0.8,1.4-1.2,2.1
					l-0.1,0.1l-0.1,0c-1.4-0.2-2.8-0.2-4.1,0l-0.1,0l-0.1-0.1c-0.4-0.7-0.8-1.4-1.2-2.1c-0.6-1.1-2-1.5-3.1-1l-3.6,1.5
					c-1.1,0.5-1.8,1.8-1.5,3c0.2,0.8,0.4,1.6,0.6,2.4l0,0.1l-0.1,0.1c-1.1,0.9-2.1,1.9-2.9,3l-0.1,0.1l-0.1,0
					c-0.8-0.2-1.6-0.4-2.3-0.6c-1.2-0.3-2.4,0.3-2.9,1.5l-1.5,3.7c-0.5,1.2,0,2.5,1,3.2c0.7,0.4,1.4,0.8,2.1,1.3l0.1,0.1l0,0.1
					c-0.2,1.4-0.2,2.9,0,4.3l0,0.1l-0.1,0.1c-0.7,0.4-1.4,0.8-2.1,1.3c-1.1,0.6-1.5,2-1,3.2l1.5,3.7c0.5,1.2,1.7,1.8,2.9,1.5
					c0.8-0.2,1.5-0.4,2.3-0.6l0.1,0l0.1,0.1c0.9,1.1,1.8,2.1,2.9,3l0.1,0.1l0,0.1c-0.2,0.8-0.4,1.6-0.6,2.4c-0.3,1.2,0.3,2.5,1.5,3
					l3.6,1.5c1.1,0.5,2.5,0,3.1-1c0.4-0.7,0.8-1.4,1.2-2.1l0.1-0.1l0.1,0c1.4,0.2,2.8,0.2,4.1,0L190.9,343.4z M183.1,344.4l-3.6-1.5
					l0-0.2c0.2-0.8,0.4-1.5,0.6-2.3c0.3-1-0.1-2.1-0.9-2.7c-1-0.8-1.9-1.7-2.7-2.8c-0.6-0.8-1.6-1.2-2.6-0.9
					c-0.7,0.2-1.5,0.4-2.2,0.6l-0.2,0l-1.5-3.7l0.2-0.1c0.6-0.4,1.3-0.8,2-1.2c0.9-0.5,1.4-1.5,1.2-2.5c-0.2-1.3-0.2-2.6,0-3.9
					c0.1-1-0.4-2-1.2-2.5c-0.7-0.4-1.3-0.8-2-1.2l-0.2-0.1l1.5-3.7l0.2,0c0.7,0.2,1.5,0.4,2.2,0.6c1,0.3,2-0.1,2.6-0.9
					c0.8-1,1.7-2,2.7-2.8c0.8-0.6,1.1-1.7,0.9-2.7c-0.2-0.8-0.4-1.5-0.6-2.3l0-0.2l3.6-1.5l0.1,0.2c0.4,0.7,0.8,1.4,1.2,2
					c0.5,0.9,1.5,1.4,2.5,1.3c1.3-0.2,2.5-0.2,3.8,0c1,0.1,2-0.4,2.5-1.3c0.4-0.7,0.8-1.4,1.2-2l0.1-0.2l3.6,1.5l0,0.2
					c-0.2,0.8-0.4,1.5-0.6,2.3c-0.3,1,0.1,2.1,0.9,2.7c1,0.8,1.9,1.7,2.7,2.8c0.6,0.8,1.6,1.2,2.6,0.9c0.8-0.2,1.5-0.4,2.2-0.6
					l0.2,0l1.5,3.7l-0.2,0.1c-0.7,0.4-1.3,0.8-2,1.2c-0.9,0.5-1.4,1.5-1.2,2.5c0.2,1.3,0.2,2.6,0,3.9c-0.1,1,0.4,2,1.2,2.5
					c0.7,0.4,1.3,0.8,2,1.2l0.2,0.1l-1.5,3.7l-0.2,0c-0.7-0.2-1.5-0.4-2.2-0.6c-1-0.3-2,0.1-2.6,0.9c-0.8,1-1.7,2-2.7,2.8
					c-0.8,0.6-1.1,1.7-0.9,2.7c0.2,0.8,0.4,1.5,0.6,2.3l0,0.2l-3.6,1.5l-0.1-0.2c-0.4-0.7-0.8-1.4-1.2-2c-0.5-0.9-1.5-1.4-2.5-1.3
					c-1.3,0.2-2.5,0.2-3.8,0c-1-0.1-2,0.4-2.5,1.3c-0.4,0.7-0.8,1.4-1.2,2L183.1,344.4z M179.9,342.6l3,1.3c0.4-0.6,0.7-1.2,1.1-1.9
					c0.6-1,1.7-1.6,2.9-1.5c1.2,0.2,2.5,0.2,3.7,0c1.2-0.1,2.3,0.4,2.9,1.5c0.4,0.6,0.7,1.3,1.1,1.9l3-1.3c-0.2-0.7-0.4-1.4-0.5-2.1
					c-0.3-1.2,0.1-2.4,1-3.1c1-0.8,1.8-1.7,2.6-2.7c0.7-1,1.9-1.4,3.1-1c0.7,0.2,1.4,0.4,2,0.5l1.2-3c-0.6-0.4-1.2-0.7-1.8-1.1
					c-1-0.6-1.6-1.8-1.4-3c0.2-1.3,0.2-2.5,0-3.8c-0.1-1.2,0.4-2.4,1.4-3c0.6-0.4,1.2-0.7,1.8-1.1l-1.2-3c-0.7,0.2-1.4,0.4-2,0.5
					c-1.1,0.3-2.3-0.1-3.1-1c-0.8-1-1.6-1.9-2.6-2.7c-0.9-0.7-1.3-2-1-3.1c0.2-0.7,0.4-1.4,0.5-2.1l-3-1.3c-0.4,0.6-0.7,1.2-1.1,1.9
					c-0.6,1-1.7,1.6-2.9,1.5c-1.2-0.2-2.5-0.2-3.7,0c-1.2,0.1-2.3-0.4-2.9-1.5c-0.4-0.6-0.7-1.3-1.1-1.9l-3,1.3
					c0.2,0.7,0.4,1.4,0.5,2.1c0.3,1.2-0.1,2.4-1,3.1c-1,0.8-1.8,1.7-2.6,2.7c-0.7,1-1.9,1.4-3.1,1c-0.7-0.2-1.4-0.4-2-0.5l-1.2,3
					c0.6,0.4,1.2,0.7,1.8,1.1c1,0.6,1.6,1.8,1.4,3c-0.2,1.3-0.2,2.5,0,3.8c0.1,1.2-0.4,2.3-1.4,3c-0.6,0.4-1.2,0.7-1.8,1.1l1.2,3
					c0.7-0.2,1.4-0.4,2-0.5c1.1-0.3,2.3,0.1,3.1,1c0.8,1,1.6,1.9,2.6,2.7c0.9,0.7,1.3,2,1,3.1C180.3,341.2,180.1,341.9,179.9,342.6z
					"/>
			</g>
		</g>
	</g>
	<g>
		<g>
			<g>
				<path class="st5" d="M184.9,315.8L184.9,315.8c-5,2.1-7.4,8.1-5.3,13.2c2.1,5.2,7.8,7.6,12.9,5.5c2.4-1,4.3-3,5.3-5.5
					c0.5-1.2,0.8-2.6,0.8-3.9s-0.3-2.6-0.8-3.9C195.7,316.1,189.9,313.7,184.9,315.8z M195.1,322.4c0.7,1.8,0.7,3.7,0,5.5
					c-0.7,1.8-2,3.1-3.8,3.9c-3.5,1.5-7.6-0.2-9.1-3.9c-0.4-0.9-0.5-1.8-0.5-2.7c0-2.8,1.6-5.5,4.3-6.6
					C189.6,317,193.6,318.8,195.1,322.4z"/>
				<path class="st6" d="M188.7,335.5c-1.3,0-2.5-0.3-3.8-0.8c-2.5-1-4.5-3-5.5-5.6c-2.1-5.3,0.3-11.3,5.4-13.5l0,0
					c2.4-1,5.1-1.1,7.6,0c2.5,1,4.5,3,5.5,5.6c0.5,1.3,0.8,2.6,0.8,3.9s-0.3,2.7-0.8,3.9c-1,2.5-3,4.5-5.4,5.6
					C191.3,335.2,190,335.5,188.7,335.5z M185,316c-4.9,2.1-7.2,7.9-5.2,12.9c1,2.5,2.9,4.4,5.3,5.4c2.4,1,4.9,1,7.3,0
					c2.4-1,4.2-2.9,5.2-5.4c0.5-1.2,0.7-2.5,0.7-3.8s-0.2-2.6-0.7-3.8c-1-2.5-2.9-4.4-5.3-5.4C189.9,315,187.3,315,185,316L185,316z
					 M188.7,332.5c-0.9,0-1.8-0.2-2.7-0.5c-1.8-0.7-3.2-2.2-3.9-4c-0.4-0.9-0.5-1.8-0.5-2.8c0-3,1.7-5.7,4.4-6.8
					c1.7-0.7,3.7-0.7,5.4,0c1.8,0.7,3.2,2.2,3.9,4c0.7,1.8,0.7,3.8,0,5.6c-0.7,1.8-2.1,3.2-3.9,4
					C190.5,332.3,189.6,332.5,188.7,332.5z M188.7,318.2c-0.9,0-1.7,0.2-2.6,0.5c-2.5,1.1-4.2,3.6-4.2,6.4c0,0.9,0.2,1.8,0.5,2.6
					c0.7,1.7,2,3.1,3.7,3.8c1.6,0.7,3.5,0.7,5.1,0c1.7-0.7,3-2,3.7-3.8c0.7-1.7,0.7-3.6,0-5.3l0,0c-0.7-1.7-2-3.1-3.7-3.8
					C190.4,318.4,189.5,318.2,188.7,318.2z"/>
			</g>
		</g>
	</g>
	<g>
		<g>
			<g>
				<path class="st5" d="M158.3,282.8c-0.1,0.5-0.1,1-0.2,1.6c-0.9,0.3-1.7,0.6-2.5,1.1c-0.4-0.3-0.8-0.6-1.2-1
					c-0.9-0.7-2.2-0.6-3,0.2l-2,2c-0.8,0.8-0.9,2.1-0.2,3.1c0.3,0.4,0.6,0.8,0.9,1.3c-0.4,0.8-0.8,1.7-1,2.6c-0.5,0.1-1,0.1-1.5,0.2
					c-1.1,0.2-1.9,1.2-1.9,2.3v2.9c0,1.2,0.8,2.2,1.9,2.3c0.5,0.1,1,0.2,1.5,0.2c0.3,0.9,0.6,1.7,1,2.6c-0.3,0.4-0.6,0.8-0.9,1.3
					c-0.7,0.9-0.6,2.2,0.2,3.1l2,2c0.8,0.8,2.1,0.9,3,0.2c0.4-0.3,0.8-0.6,1.2-1c0.8,0.4,1.6,0.8,2.5,1.1c0.1,0.5,0.1,1.1,0.2,1.6
					c0.2,1.1,1.1,2,2.3,2h2.8c1.1,0,2.1-0.9,2.3-2c0.1-0.5,0.1-1,0.2-1.6c0.9-0.3,1.7-0.6,2.5-1.1c0.4,0.3,0.8,0.6,1.2,1
					c0.9,0.7,2.2,0.6,3-0.2l2-2c0.8-0.8,0.9-2.1,0.2-3.1c-0.3-0.4-0.6-0.8-0.9-1.3c0.4-0.8,0.8-1.7,1-2.6c0.5-0.1,1-0.1,1.5-0.2
					c1.1-0.2,1.9-1.2,1.9-2.3v-2.9c0-1.2-0.8-2.2-1.9-2.3c-0.5-0.1-1-0.2-1.5-0.2c-0.3-0.9-0.6-1.7-1-2.6c0.3-0.4,0.6-0.8,0.9-1.3
					c0.7-0.9,0.6-2.2-0.2-3.1l-2-2c-0.8-0.8-2.1-0.9-3-0.2c-0.4,0.3-0.8,0.6-1.2,1c-0.8-0.4-1.6-0.8-2.5-1.1
					c-0.1-0.5-0.1-1.1-0.2-1.6c-0.2-1.1-1.1-2-2.3-2h-2.8C159.4,280.8,158.4,281.7,158.3,282.8z M162.9,283.6
					c0.1,0.5,0.1,0.9,0.2,1.4c0.1,0.9,0.8,1.7,1.7,2c0.8,0.2,1.7,0.6,2.4,1c0.8,0.5,1.8,0.4,2.5-0.2c0.4-0.3,0.7-0.6,1.1-0.9
					l1.4,1.5c-0.3,0.4-0.6,0.8-0.8,1.1c-0.6,0.8-0.6,1.8-0.2,2.6c0.4,0.8,0.8,1.6,1,2.5c0.2,0.9,1,1.6,1.9,1.7
					c0.5,0.1,0.9,0.1,1.4,0.2v2.1c-0.5,0.1-0.9,0.1-1.4,0.2c-0.9,0.1-1.7,0.8-1.9,1.7c-0.2,0.9-0.6,1.7-1,2.5
					c-0.5,0.8-0.4,1.8,0.2,2.6c0.3,0.4,0.6,0.8,0.8,1.1l-1.4,1.5c-0.4-0.3-0.7-0.6-1.1-0.9c-0.7-0.6-1.7-0.7-2.5-0.2
					c-0.8,0.4-1.6,0.8-2.4,1c-0.9,0.3-1.5,1-1.7,2c-0.1,0.5-0.1,1-0.2,1.4h-2c-0.1-0.5-0.1-0.9-0.2-1.4c-0.1-0.9-0.8-1.7-1.7-2
					c-0.8-0.2-1.7-0.6-2.4-1c-0.8-0.5-1.8-0.4-2.5,0.2c-0.4,0.3-0.7,0.6-1.1,0.9l-1.4-1.5c0.3-0.4,0.6-0.8,0.8-1.1
					c0.6-0.8,0.6-1.8,0.2-2.6c-0.4-0.8-0.8-1.6-1-2.5c-0.2-0.9-1-1.6-1.9-1.7c-0.5-0.1-0.9-0.1-1.4-0.2v-2.1
					c0.5-0.1,0.9-0.1,1.4-0.2c0.9-0.1,1.7-0.8,1.9-1.7c0.2-0.9,0.6-1.7,1-2.5c0.5-0.8,0.4-1.8-0.2-2.6c-0.3-0.4-0.6-0.8-0.8-1.1
					l1.4-1.5c0.4,0.3,0.7,0.6,1.1,0.9c0.7,0.6,1.7,0.7,2.5,0.2c0.8-0.4,1.6-0.8,2.4-1c0.9-0.3,1.5-1,1.7-2c0.1-0.5,0.1-1,0.2-1.4
					H162.9L162.9,283.6z"/>
				<path class="st6" d="M163.3,314.7h-2.8c-1.2,0-2.3-0.9-2.5-2.2c-0.1-0.5-0.1-1-0.2-1.4c-0.8-0.3-1.6-0.6-2.3-1
					c-0.4,0.3-0.8,0.6-1.1,0.9c-1,0.7-2.4,0.6-3.3-0.3l-2-2c-0.9-0.9-1-2.3-0.2-3.3c0.3-0.4,0.6-0.8,0.9-1.2c-0.4-0.8-0.7-1.5-1-2.4
					c-0.5-0.1-0.9-0.1-1.4-0.2c-1.2-0.2-2.1-1.3-2.1-2.5v-2.9c0-1.3,0.9-2.3,2.1-2.5c0.5-0.1,0.9-0.1,1.4-0.2c0.2-0.8,0.6-1.6,1-2.4
					c-0.3-0.4-0.6-0.8-0.9-1.2c-0.7-1-0.6-2.4,0.2-3.3l2-2c0.9-0.9,2.3-1,3.3-0.3c0.4,0.3,0.7,0.6,1.1,0.9c0.7-0.4,1.5-0.7,2.3-1
					c0.1-0.5,0.1-1,0.2-1.4v0c0.2-1.2,1.2-2.2,2.5-2.2h2.8c1.2,0,2.3,0.9,2.5,2.2c0.1,0.5,0.1,1,0.2,1.4c0.8,0.3,1.6,0.6,2.3,1
					c0.4-0.3,0.8-0.6,1.1-0.9c1-0.7,2.4-0.6,3.3,0.3l2,2c0.9,0.9,1,2.3,0.2,3.3c-0.3,0.4-0.6,0.8-0.9,1.2c0.4,0.8,0.7,1.5,1,2.4
					c0.5,0.1,0.9,0.1,1.4,0.2c1.2,0.2,2.1,1.3,2.1,2.5v2.9c0,1.3-0.9,2.3-2.1,2.5c-0.5,0.1-0.9,0.1-1.4,0.2c-0.2,0.8-0.6,1.6-1,2.4
					c0.3,0.4,0.6,0.8,0.9,1.2c0.7,1,0.6,2.4-0.2,3.3l-2,2c-0.9,0.9-2.3,1-3.3,0.3c-0.4-0.3-0.7-0.6-1.1-0.9c-0.7,0.4-1.5,0.7-2.3,1
					c-0.1,0.5-0.1,1-0.2,1.4C165.6,313.8,164.6,314.7,163.3,314.7z M155.5,309.6l0.1,0.1c0.8,0.4,1.6,0.8,2.5,1l0.1,0l0,0.1
					c0.1,0.5,0.1,1.1,0.2,1.6c0.2,1,1,1.8,2.1,1.8h2.8c1,0,1.9-0.8,2.1-1.8c0.1-0.5,0.1-1,0.2-1.6l0-0.1l0.1,0
					c0.8-0.3,1.7-0.6,2.5-1l0.1-0.1l0.1,0.1c0.4,0.3,0.8,0.6,1.2,1c0.8,0.6,2,0.5,2.7-0.2l2-2c0.7-0.7,0.8-1.9,0.2-2.8
					c-0.3-0.4-0.6-0.8-0.9-1.3l-0.1-0.1l0.1-0.1c0.4-0.8,0.8-1.7,1-2.5l0-0.1l0.1,0c0.5-0.1,1-0.1,1.5-0.2c1-0.2,1.8-1.1,1.8-2.1
					v-2.9c0-1.1-0.8-2-1.8-2.1c-0.5-0.1-1-0.2-1.5-0.2l-0.1,0l0-0.1c-0.3-0.9-0.6-1.7-1-2.5l-0.1-0.1l0.1-0.1
					c0.3-0.4,0.6-0.8,0.9-1.3c0.6-0.8,0.5-2-0.2-2.8l-2-2c-0.7-0.7-1.9-0.8-2.7-0.2c-0.4,0.3-0.8,0.6-1.2,1l-0.1,0.1l-0.1-0.1
					c-0.8-0.4-1.6-0.8-2.5-1l-0.1,0l0-0.1c-0.1-0.5-0.1-1.1-0.2-1.6c-0.2-1-1-1.8-2.1-1.8h-2.8c-1,0-1.9,0.8-2.1,1.8
					c-0.1,0.5-0.1,1-0.2,1.6l0,0.1l-0.1,0c-0.8,0.3-1.7,0.6-2.5,1l-0.1,0.1l-0.1-0.1c-0.4-0.3-0.8-0.6-1.2-1c-0.8-0.6-2-0.5-2.7,0.2
					l-2,2c-0.7,0.7-0.8,1.9-0.2,2.8c0.3,0.4,0.6,0.8,0.9,1.3l0.1,0.1l-0.1,0.1c-0.4,0.8-0.8,1.7-1,2.5l0,0.1l-0.1,0
					c-0.5,0.1-1,0.1-1.5,0.2c-1,0.2-1.8,1.1-1.8,2.1v2.9c0,1.1,0.8,2,1.8,2.1c0.5,0.1,1,0.2,1.5,0.2l0.1,0l0,0.1
					c0.3,0.9,0.6,1.7,1,2.5l0.1,0.1l-0.1,0.1c-0.3,0.4-0.6,0.8-0.9,1.3c-0.6,0.8-0.5,2,0.2,2.8l2,2c0.7,0.7,1.9,0.8,2.7,0.2
					c0.4-0.3,0.8-0.6,1.2-1L155.5,309.6z M163.1,311.9h-2.4l0-0.2c-0.1-0.5-0.1-0.9-0.2-1.4c-0.1-0.9-0.7-1.6-1.5-1.8
					c-0.9-0.2-1.7-0.6-2.5-1.1c-0.7-0.4-1.6-0.4-2.3,0.2c-0.4,0.3-0.7,0.6-1.1,0.9l-0.1,0.1l-1.7-1.7l0.1-0.1
					c0.3-0.4,0.6-0.8,0.8-1.1c0.5-0.7,0.6-1.6,0.2-2.4c-0.4-0.8-0.8-1.7-1-2.5c-0.2-0.8-0.9-1.4-1.7-1.5c-0.5-0.1-0.9-0.1-1.4-0.2
					l-0.2,0v-2.4l0.2,0c0.5-0.1,0.9-0.1,1.4-0.2c0.8-0.1,1.5-0.7,1.7-1.5c0.2-0.9,0.6-1.7,1-2.5c0.4-0.8,0.4-1.7-0.2-2.4
					c-0.3-0.4-0.6-0.8-0.8-1.1l-0.1-0.1l1.7-1.7l0.1,0.1c0.4,0.3,0.7,0.6,1.1,0.9c0.7,0.5,1.6,0.6,2.3,0.2c0.8-0.5,1.6-0.8,2.5-1.1
					c0.8-0.2,1.4-0.9,1.5-1.8c0.1-0.5,0.1-1,0.2-1.4l0-0.2h2.4l0,0.2c0.1,0.5,0.1,0.9,0.2,1.4c0.1,0.9,0.7,1.6,1.5,1.8
					c0.9,0.2,1.7,0.6,2.5,1.1c0.7,0.4,1.6,0.4,2.3-0.2c0.4-0.3,0.7-0.6,1.1-0.9l0.1-0.1l1.7,1.7l-0.1,0.1c-0.3,0.4-0.6,0.8-0.8,1.1
					c-0.5,0.7-0.6,1.6-0.2,2.4c0.4,0.8,0.8,1.7,1,2.5c0.2,0.8,0.9,1.4,1.7,1.5c0.5,0.1,0.9,0.1,1.4,0.2l0.2,0v2.4l-0.2,0
					c-0.5,0.1-0.9,0.1-1.4,0.2c-0.8,0.1-1.5,0.7-1.7,1.5c-0.2,0.9-0.6,1.7-1,2.5c-0.4,0.8-0.4,1.7,0.2,2.4c0.3,0.4,0.6,0.8,0.8,1.1
					l0.1,0.1l-1.7,1.7l-0.1-0.1c-0.4-0.3-0.7-0.6-1.1-0.9c-0.7-0.5-1.6-0.6-2.3-0.2c-0.8,0.5-1.6,0.8-2.5,1.1
					c-0.8,0.2-1.4,0.9-1.5,1.8c-0.1,0.5-0.1,1-0.2,1.4L163.1,311.9z M161.1,311.5h1.7c0.1-0.4,0.1-0.8,0.2-1.2
					c0.1-1,0.8-1.9,1.8-2.1c0.8-0.2,1.6-0.6,2.4-1c0.9-0.5,2-0.4,2.8,0.2c0.3,0.3,0.6,0.5,1,0.7l1.2-1.2c-0.2-0.3-0.5-0.7-0.7-1
					c-0.6-0.8-0.7-1.9-0.2-2.8c0.4-0.8,0.8-1.6,1-2.5c0.3-1,1.1-1.7,2.1-1.9c0.4-0.1,0.8-0.1,1.2-0.2v-1.7c-0.4-0.1-0.8-0.1-1.2-0.2
					c-1-0.1-1.8-0.9-2.1-1.9c-0.2-0.9-0.6-1.7-1-2.5c-0.5-0.9-0.4-2,0.2-2.8c0.2-0.3,0.5-0.7,0.7-1l-1.2-1.2c-0.3,0.2-0.6,0.5-1,0.7
					c-0.8,0.6-1.9,0.7-2.8,0.2c-0.8-0.4-1.6-0.8-2.4-1c-1-0.3-1.7-1.1-1.8-2.1c-0.1-0.4-0.1-0.8-0.2-1.2h-1.7
					c-0.1,0.4-0.1,0.8-0.2,1.2c-0.1,1-0.8,1.9-1.8,2.1c-0.8,0.2-1.6,0.6-2.4,1c-0.9,0.5-2,0.4-2.8-0.2c-0.3-0.3-0.6-0.5-1-0.7
					l-1.2,1.2c0.2,0.3,0.5,0.7,0.7,1c0.6,0.8,0.7,1.9,0.2,2.8c-0.4,0.8-0.8,1.6-1,2.5c-0.3,1-1.1,1.7-2.1,1.9
					c-0.4,0.1-0.8,0.1-1.2,0.2v1.7c0.4,0.1,0.8,0.1,1.2,0.2c1,0.1,1.8,0.9,2.1,1.9c0.2,0.9,0.6,1.7,1,2.5c0.5,0.9,0.4,2-0.2,2.8
					c-0.2,0.3-0.5,0.7-0.7,1l1.2,1.2c0.3-0.2,0.6-0.5,1-0.7c0.8-0.6,1.9-0.7,2.8-0.2c0.8,0.4,1.6,0.8,2.4,1c1,0.3,1.7,1.1,1.8,2.1
					C161,310.7,161,311.1,161.1,311.5z"/>
			</g>
		</g>
	</g>
	<g>
		<g>
			<g>
				<path class="st5" d="M156.1,297.7c0,3.3,2.6,6,5.8,6c3.2,0,5.8-2.7,5.8-6c0-3.3-2.6-6-5.8-6
					C158.7,291.7,156.1,294.4,156.1,297.7z M165.2,297.7c0,1.8-1.5,3.3-3.2,3.3s-3.2-1.5-3.2-3.3c0-1.8,1.5-3.3,3.2-3.3
					C163.7,294.3,165.2,295.8,165.2,297.7z"/>
				<path class="st6" d="M161.9,303.9c-3.3,0-6.1-2.8-6.1-6.2s2.7-6.2,6.1-6.2s6.1,2.8,6.1,6.2S165.3,303.9,161.9,303.9z
					 M161.9,291.9c-3.1,0-5.6,2.6-5.6,5.8c0,3.2,2.5,5.8,5.6,5.8s5.6-2.6,5.6-5.8C167.6,294.5,165,291.9,161.9,291.9z M161.9,301.2
					c-1.9,0-3.5-1.6-3.5-3.5c0-2,1.6-3.5,3.5-3.5c1.9,0,3.5,1.6,3.5,3.5C165.4,299.6,163.8,301.2,161.9,301.2z M161.9,294.5
					c-1.7,0-3,1.4-3,3.1s1.4,3.1,3,3.1c1.7,0,3-1.4,3-3.1S163.6,294.5,161.9,294.5z"/>
			</g>
		</g>
	</g>
	<g>
		<g>
			<rect x="489" y="377.3" class="st1" width="127.9" height="1.3"/>
		</g>
		<g>
			<rect x="489" y="386.6" class="st1" width="58.8" height="1.3"/>
		</g>
	</g>
	<g>
		<rect x="111.6" y="210.3" class="st1" width="69.9" height="1.3"/>
	</g>
	<g>
		<rect x="122.8" y="224.2" class="st6" width="32.1" height="1.3"/>
	</g>
	<g>
		<g>
			<rect x="80.7" y="365.9" class="st1" width="123.1" height="1.3"/>
		</g>
		<g>
			<rect x="151.8" y="375.3" class="st1" width="52" height="1.3"/>
		</g>
	</g>
	<g>
		
			<rect x="398.2" y="398.5" transform="matrix(0.7071 -0.7071 0.7071 0.7071 -169.8146 400.7348)" class="st5" width="1.3" height="13.6"/>
	</g>
	<g>
		<path class="st3" d="M438.7,445.2L438.7,445.2c-2.3,2.3-6.1,2.3-8.4,0l-27.4-27.4c-2.3-2.3-2.3-6.1,0-8.4l0,0
			c2.3-2.3,6.1-2.3,8.4,0l27.4,27.4C441,439.1,441,442.9,438.7,445.2z"/>
		<path class="st5" d="M434.5,448.2c-1.4,0-2.7-0.5-3.7-1.5l-29.3-29.3c-2-2-2-5.3,0-7.4l2-2c1-1,2.3-1.5,3.7-1.5
			c1.4,0,2.7,0.5,3.7,1.5l29.3,29.3c1,1,1.5,2.3,1.5,3.7c0,1.4-0.5,2.7-1.5,3.7l-2,2C437.2,447.6,435.9,448.2,434.5,448.2z
			 M407.1,407.8c-1.1,0-2,0.4-2.8,1.2l-2,2c-1.5,1.5-1.5,4,0,5.6l29.3,29.3c0.7,0.7,1.7,1.2,2.8,1.2s2-0.4,2.8-1.2l2-2
			c0.7-0.7,1.2-1.7,1.2-2.8c0-1.1-0.4-2-1.2-2.8l-29.3-29.3C409.2,408.2,408.2,407.8,407.1,407.8z"/>
	</g>
	<g>
		<g class="st7">
			
				<ellipse transform="matrix(0.7071 -0.7071 0.7071 0.7071 -159.3725 375.5373)" class="st4" cx="373.6" cy="380.1" rx="20.4" ry="20.4"/>
			<path class="st5" d="M373.6,401.2c-5.4,0-10.8-2-14.9-6.1c-8.2-8.2-8.2-21.5,0-29.7c8.2-8.2,21.5-8.2,29.7,0
				c8.2,8.2,8.2,21.5,0,29.7C384.4,399.1,379,401.2,373.6,401.2z M373.6,360.4c-5.1,0-10.1,1.9-14,5.8c-7.7,7.7-7.7,20.2,0,27.9
				c7.7,7.7,20.2,7.7,27.9,0c7.7-7.7,7.7-20.2,0-27.9C383.7,362.3,378.7,360.4,373.6,360.4z"/>
		</g>
		<g>
			<path class="st4" d="M401.6,380.1c0,15.4-12.5,27.9-27.9,27.9c-15.4,0-27.9-12.5-27.9-27.9c0-15.4,12.5-27.9,27.9-27.9
				C389,352.2,401.6,364.8,401.6,380.1z M353,380.1c0,11.4,9.3,20.6,20.6,20.6s20.6-9.3,20.6-20.6c0-11.4-9.3-20.6-20.6-20.6
				S353,368.8,353,380.1z"/>
			<path class="st5" d="M373.6,408.7c-15.7,0-28.6-12.8-28.6-28.6c0-15.7,12.8-28.6,28.6-28.6c15.7,0,28.6,12.8,28.6,28.6
				C402.2,395.9,389.4,408.7,373.6,408.7z M373.6,352.9c-15.1,0-27.3,12.2-27.3,27.3c0,15,12.2,27.3,27.3,27.3
				c15.1,0,27.3-12.2,27.3-27.3C400.9,365.1,388.7,352.9,373.6,352.9z M373.6,401.4c-11.7,0-21.3-9.5-21.3-21.3s9.5-21.3,21.3-21.3
				c11.7,0,21.3,9.5,21.3,21.3S385.4,401.4,373.6,401.4z M373.6,360.1c-11,0-20,9-20,20s9,20,20,20c11,0,20-9,20-20
				S384.7,360.1,373.6,360.1z"/>
		</g>
	</g>
	<g>
		<path class="st5" d="M382.7,371.7c-4.8-4.8-12.7-4.8-17.6,0l-0.9-0.9c5.3-5.3,14-5.3,19.4,0L382.7,371.7z"/>
	</g>
	<g>
		<g>
			<circle class="st3" cx="111.6" cy="210.9" r="5.3"/>
		</g>
		<g>
			<path class="st1" d="M111.6,216.9c-3.3,0-5.9-2.7-5.9-5.9c0-3.3,2.7-5.9,5.9-5.9c3.3,0,5.9,2.7,5.9,5.9
				C117.6,214.2,114.9,216.9,111.6,216.9z M111.6,206.3c-2.6,0-4.7,2.1-4.7,4.7c0,2.6,2.1,4.7,4.7,4.7c2.6,0,4.7-2.1,4.7-4.7
				C116.3,208.4,114.2,206.3,111.6,206.3z"/>
		</g>
	</g>
	<g>
		<circle class="st5" cx="115.9" cy="224.8" r="4.1"/>
		<path class="st6" d="M115.9,229.5c-2.6,0-4.7-2.1-4.7-4.7s2.1-4.7,4.7-4.7s4.7,2.1,4.7,4.7S118.5,229.5,115.9,229.5z M115.9,221.4
			c-1.9,0-3.4,1.5-3.4,3.4s1.5,3.4,3.4,3.4c1.9,0,3.4-1.5,3.4-3.4S117.8,221.4,115.9,221.4z"/>
	</g>
	<g>
		<g>
			<g>
				<path class="st5" d="M512.1,162.8c-1.3-2-3-3.5-5.1-4.6c-0.5-0.2-1.1,0-1.3,0.5c-0.2,0.5,0,1.1,0.5,1.3c3.7,1.8,6,5.5,6,9.6
					c0,1.7-0.4,3.5-1.2,5c-0.3,0.5-0.1,1.1,0.4,1.3c0.1,0.1,0.3,0.1,0.5,0.1c0.3,0,0.7-0.2,0.9-0.5c1-1.8,1.5-3.8,1.5-5.9
					C514,167.2,513.3,164.9,512.1,162.8z"/>
			</g>
		</g>
	</g>
	<g>
		<g>
			<g>
				<path class="st5" d="M503,157.1L503,157.1c-0.6,0-1,0.4-1,1s0.4,1,1,1l0.1,0c0,0,0,0,0,0c0.5,0,1-0.4,1-1
					C503.9,157.5,503.5,157.1,503,157.1z"/>
			</g>
		</g>
	</g>
	<g>
		<g>
			<g>
				<path class="st5" d="M496.9,179.2c-3.7-1.8-6-5.5-6-9.6c0-1.7,0.4-3.5,1.2-5c0.3-0.5,0.1-1.1-0.4-1.3c-0.5-0.3-1.1-0.1-1.3,0.4
					c-1,1.8-1.5,3.8-1.5,5.9c0,2.4,0.7,4.8,2,6.8c1.3,2,3,3.5,5.1,4.6c0.1,0.1,0.3,0.1,0.4,0.1c0.4,0,0.7-0.2,0.9-0.5
					C497.5,180,497.3,179.5,496.9,179.2z"/>
			</g>
		</g>
	</g>
	<g>
		<g>
			<g>
				<path class="st5" d="M500,180.3L500,180.3c-0.6,0-1,0.4-1,1c0,0.5,0.4,1,1,1l0.1,0c0.5,0,1-0.4,1-1
					C501,180.7,500.5,180.3,500,180.3z"/>
			</g>
		</g>
	</g>
	<g>
		<path class="st5" d="M505.9,153.8c-0.1-0.3-0.3-0.5-0.4-0.8h2.5c2.5,0,4.4-2,4.4-4.4c0-2.5-2-4.4-4.4-4.4h-7.7
			c0.5-0.7,0.8-1.6,0.8-2.5c0-2.5-2-4.4-4.4-4.4h-23.7c-2.5,0-4.4,2-4.4,4.4c0,2.5,2,4.4,4.4,4.4h7.7c-0.5,0.7-0.8,1.6-0.8,2.5
			c0,0.9,0.3,1.8,0.8,2.5h-2.5c-2.5,0-4.4,2-4.4,4.4c0,1.4,0.7,2.7,1.7,3.5c-1,0.8-1.7,2.1-1.7,3.5s0.7,2.7,1.7,3.5
			c-1,0.8-1.7,2.1-1.7,3.5s0.7,2.7,1.7,3.5c-1,0.8-1.7,2.1-1.7,3.5c0,2.5,2,4.4,4.4,4.4h11.4c3,3.2,7.3,5.2,12,5.2
			c9.1,0,16.4-7.4,16.4-16.4C517.9,162.1,512.8,155.7,505.9,153.8z M507.9,146c1.4,0,2.5,1.1,2.5,2.5c0,1.4-1.1,2.5-2.5,2.5h-6.2
			h-17.5c-1.4,0-2.5-1.1-2.5-2.5c0-1.4,1.1-2.5,2.5-2.5H507.9z M472.8,144.1c-1.4,0-2.5-1.1-2.5-2.5c0-1.4,1.1-2.5,2.5-2.5h23.7
			c1.4,0,2.5,1.1,2.5,2.5c0,1.4-1.1,2.5-2.5,2.5H472.8z M478.1,153h23.7c0.4,0,0.8,0.1,1.1,0.3c-0.5,0-0.9-0.1-1.4-0.1
			c-4.5,0-8.7,1.8-11.6,4.8h-11.8c-1.4,0-2.5-1.1-2.5-2.5C475.6,154.1,476.7,153,478.1,153z M478.1,160h10.1c-1.1,1.5-1.9,3.2-2.5,5
			h-7.6c-1.4,0-2.5-1.1-2.5-2.5C475.6,161.1,476.7,160,478.1,160z M478.1,166.9h7.2c-0.1,0.9-0.2,1.8-0.2,2.7c0,0.8,0.1,1.6,0.2,2.3
			h-7.1c-1.4,0-2.5-1.1-2.5-2.5S476.7,166.9,478.1,166.9z M478.1,178.9c-1.4,0-2.5-1.1-2.5-2.5c0-1.4,1.1-2.5,2.5-2.5h7.5
			c0.5,1.8,1.3,3.5,2.3,5H478.1z M501.5,184.1c-8,0-14.5-6.5-14.5-14.5c0-8,6.5-14.5,14.5-14.5s14.5,6.5,14.5,14.5
			C516,177.6,509.5,184.1,501.5,184.1z"/>
	</g>
	<g>
		<circle class="st5" cx="451.5" cy="374.8" r="12.3"/>
	</g>
	<g>
		<g>
			<path class="st8" d="M452,367.6v0.8c0.5,0.1,1,0.2,1.4,0.3c0.4,0.2,0.7,0.4,1,0.8c0.2,0.3,0.4,0.5,0.5,0.8
				c0.1,0.3,0.2,0.5,0.2,0.7c0,0.3-0.1,0.5-0.3,0.7c-0.2,0.2-0.4,0.3-0.7,0.3c-0.5,0-0.8-0.3-1-0.8c-0.2-0.6-0.6-1-1.2-1.3v3.1
				c0.6,0.2,1.1,0.3,1.5,0.5c0.4,0.1,0.7,0.3,1,0.6c0.3,0.3,0.6,0.6,0.7,1s0.3,0.8,0.3,1.3c0,0.6-0.1,1.1-0.4,1.6
				c-0.3,0.5-0.7,0.9-1.2,1.2c-0.5,0.3-1.1,0.5-1.9,0.6v1.9c0,0.3,0,0.5-0.1,0.6c-0.1,0.1-0.2,0.2-0.4,0.2c-0.2,0-0.3-0.1-0.4-0.2
				c-0.1-0.1-0.1-0.3-0.1-0.5v-2c-0.6-0.1-1.1-0.2-1.5-0.4c-0.4-0.2-0.8-0.5-1.1-0.8c-0.3-0.3-0.5-0.6-0.7-1c-0.1-0.3-0.2-0.7-0.2-1
				c0-0.2,0.1-0.5,0.3-0.7c0.2-0.2,0.4-0.3,0.7-0.3c0.2,0,0.4,0.1,0.6,0.2c0.2,0.1,0.3,0.3,0.3,0.4c0.1,0.4,0.3,0.7,0.4,0.9
				c0.1,0.2,0.3,0.4,0.5,0.6c0.2,0.2,0.5,0.3,0.8,0.4v-3.5c-0.7-0.2-1.2-0.4-1.7-0.6c-0.5-0.2-0.8-0.6-1.1-1c-0.3-0.4-0.4-1-0.4-1.6
				c0-0.9,0.3-1.6,0.8-2.1c0.6-0.6,1.3-0.9,2.4-1v-0.8c0-0.4,0.2-0.6,0.5-0.6C451.9,367,452,367.2,452,367.6z M451.1,372.8v-2.9
				c-0.4,0.1-0.8,0.3-1,0.5c-0.2,0.2-0.4,0.5-0.4,0.9c0,0.4,0.1,0.7,0.3,0.9C450.3,372.5,450.6,372.7,451.1,372.8z M452,375.1v3.3
				c0.5-0.1,0.9-0.3,1.2-0.6c0.3-0.3,0.4-0.7,0.4-1.1c0-0.4-0.1-0.8-0.4-1C452.9,375.4,452.5,375.2,452,375.1z"/>
		</g>
	</g>
	<g>
		<circle class="st5" cx="436.1" cy="401.7" r="12.3"/>
	</g>
	<g>
		<path class="st8" d="M439.1,407.7c-2.6,0-4.8-1.7-5.6-4h5.6v-1h-5.9c-0.1-0.3-0.1-0.7-0.1-1s0-0.7,0.1-1h5.9v-1h-5.6
			c0.8-2.3,3-4,5.6-4c0.9,0,1.8,0.2,2.6,0.6l0.4-0.9c-1-0.5-2-0.7-3-0.7c-3.2,0-5.8,2.1-6.7,5h-2.3v1h2.1c0,0.3-0.1,0.7-0.1,1
			s0,0.7,0.1,1h-2.1v1h2.3c0.9,2.9,3.5,5,6.7,5c1,0,2-0.2,3-0.7l-0.4-0.9C440.9,407.5,440,407.7,439.1,407.7L439.1,407.7z"/>
	</g>
	<g>
		<circle class="st5" cx="466.9" cy="401.7" r="12.3"/>
	</g>
	<g>
		<g>
			<g>
				<polygon class="st8" points="467.3,401.1 471.9,396.4 471.4,395.9 466.9,400.4 462.4,395.9 461.9,396.4 466.5,401.1 
					466.5,402.4 464.7,402.4 464.7,403.1 466.5,403.1 466.5,404.2 464.7,404.2 464.7,405 466.5,405 466.5,407.5 467.3,407.5 
					467.3,405 469.1,405 469.1,404.2 467.3,404.2 467.3,403.1 469.1,403.1 469.1,402.4 467.3,402.4 				"/>
			</g>
		</g>
	</g>
	<g>
		<g>
			<g>
				<path class="st5" d="M80.6,288.5h-4.5v-4.5c0-0.9-0.7-1.5-1.5-1.5c-0.8,0-1.5,0.7-1.5,1.5v4.5h-4.5c-0.8,0-1.5,0.7-1.5,1.5
					s0.7,1.5,1.5,1.5h4.5v4.5c0,0.9,0.7,1.5,1.5,1.5c0.8,0,1.5-0.7,1.5-1.5v-4.5h4.5c0.8,0,1.5-0.7,1.5-1.5S81.4,288.5,80.6,288.5z"
					/>
				<path class="st6" d="M74.6,297.8c-1,0-1.7-0.8-1.7-1.8v-4.3h-4.3c-1,0-1.7-0.8-1.7-1.8c0-1,0.8-1.8,1.7-1.8h4.3v-4.3
					c0-1,0.8-1.8,1.7-1.8c1,0,1.7,0.8,1.7,1.8v4.3h4.3c1,0,1.7,0.8,1.7,1.8c0,1-0.8,1.8-1.7,1.8h-4.3v4.3
					C76.3,297.1,75.5,297.8,74.6,297.8z M68.6,288.7c-0.7,0-1.3,0.6-1.3,1.3c0,0.7,0.6,1.3,1.3,1.3h4.7v4.7c0,0.7,0.6,1.3,1.3,1.3
					s1.3-0.6,1.3-1.3v-4.7h4.7c0.7,0,1.3-0.6,1.3-1.3c0-0.7-0.6-1.3-1.3-1.3h-4.7v-4.7c0-0.7-0.6-1.3-1.3-1.3s-1.3,0.6-1.3,1.3v4.7
					H68.6z"/>
			</g>
		</g>
	</g>
	<g>
		<g>
			<g>
				<path class="st5" d="M114.3,288.5h-12c-0.8,0-1.5,0.7-1.5,1.5s0.7,1.5,1.5,1.5h12c0.8,0,1.5-0.7,1.5-1.5
					S115.1,288.5,114.3,288.5z"/>
				<path class="st6" d="M114.3,291.8h-12c-1,0-1.7-0.8-1.7-1.8c0-1,0.8-1.8,1.7-1.8h12c1,0,1.7,0.8,1.7,1.8
					C116,291,115.2,291.8,114.3,291.8z M102.2,288.7c-0.7,0-1.3,0.6-1.3,1.3c0,0.7,0.6,1.3,1.3,1.3h12c0.7,0,1.3-0.6,1.3-1.3
					c0-0.7-0.6-1.3-1.3-1.3H102.2z"/>
			</g>
		</g>
	</g>
	<g>
		<g>
			<g>
				<path class="st5" d="M76.7,324.1l3.2-3.2c0.6-0.6,0.6-1.6,0-2.2c-0.6-0.6-1.6-0.6-2.2,0l-3.2,3.2l-3.2-3.2
					c-0.6-0.6-1.6-0.6-2.2,0c-0.6,0.6-0.6,1.6,0,2.2l3.2,3.2l-3.2,3.2c-0.6,0.6-0.6,1.6,0,2.2c0.3,0.3,0.7,0.5,1.1,0.5
					c0.4,0,0.8-0.2,1.1-0.5l3.2-3.2l3.2,3.2c0.3,0.3,0.7,0.5,1.1,0.5s0.8-0.2,1.1-0.5c0.6-0.6,0.6-1.6,0-2.2L76.7,324.1z"/>
				<path class="st6" d="M78.8,330.1c-0.5,0-0.9-0.2-1.2-0.5l-3-3.1l-3,3.1c-0.3,0.3-0.8,0.5-1.2,0.5c-0.5,0-0.9-0.2-1.2-0.5
					c-0.7-0.7-0.7-1.8,0-2.5l3-3.1l-3-3.1c-0.7-0.7-0.7-1.8,0-2.5c0.3-0.3,0.8-0.5,1.2-0.5c0,0,0,0,0,0c0.5,0,0.9,0.2,1.2,0.5l3,3.1
					l3-3.1c0.3-0.3,0.8-0.5,1.2-0.5c0.5,0,0.9,0.2,1.2,0.5c0.7,0.7,0.7,1.8,0,2.5l-3,3.1l3,3.1c0.7,0.7,0.7,1.8,0,2.5
					C79.7,329.9,79.3,330.1,78.8,330.1z M74.6,325.9l3.3,3.4c0.5,0.5,1.4,0.5,1.9,0c0.5-0.5,0.5-1.4,0-1.9l-3.3-3.4l3.3-3.4
					c0.5-0.5,0.5-1.4,0-1.9c-0.5-0.5-1.4-0.5-1.9,0l-3.3,3.4l-3.3-3.4c-0.2-0.3-0.6-0.4-0.9-0.4l0,0c-0.4,0-0.7,0.1-0.9,0.4
					c-0.5,0.5-0.5,1.4,0,1.9l3.3,3.4l-3.3,3.4c-0.5,0.5-0.5,1.4,0,1.9c0.5,0.5,1.4,0.5,1.9,0L74.6,325.9z"/>
			</g>
		</g>
	</g>
	<g>
		<g>
			<g>
				<path class="st5" d="M126.6,305.6v-27.1c0-3.9-3.1-7.1-7-7.1H91.4H63.2c-3.9,0-7,3.2-7,7.1V307v28.5c0,3.9,3.1,7.1,7,7.1h27.6
					c4.8,4.8,11.2,7.5,18,7.5c14.1,0,25.6-11.6,25.6-25.9C134.4,317.2,131.6,310.5,126.6,305.6z M92.9,274.5h26.7
					c2.2,0,3.9,1.8,3.9,4v24.6c-4.3-3.1-9.4-4.7-14.7-4.7c-5.9,0-11.4,2-15.9,5.6L92.9,274.5L92.9,274.5z M59.3,278.5
					c0-2.2,1.8-4,3.9-4h26.7v31H59.3V278.5z M63.2,339.5c-2.2,0-3.9-1.8-3.9-4v-27h29.2c-3.4,4.5-5.2,9.9-5.2,15.7
					c0,5.6,1.7,10.9,4.9,15.3H63.2z M108.8,347c-6.2,0-12-2.5-16.3-7c-4-4.3-6.3-9.9-6.3-15.8c0-5.9,2.2-11.5,6.2-15.7
					c4.3-4.6,10.1-7.1,16.3-7.1c5.6,0,11,2.1,15.2,6c4.7,4.3,7.3,10.4,7.3,16.8C131.4,336.8,121.3,347,108.8,347z"/>
				<path class="st6" d="M108.8,350.3c-6.8,0-13.3-2.7-18.1-7.5H63.2c-4,0-7.2-3.3-7.2-7.3v-57c0-4,3.2-7.3,7.2-7.3h56.4
					c4,0,7.2,3.3,7.2,7.3v27c5,4.9,7.8,11.7,7.8,18.7C134.6,338.6,123.1,350.3,108.8,350.3z M63.2,271.7c-3.7,0-6.8,3.1-6.8,6.9v57
					c0,3.8,3,6.9,6.8,6.9h27.7l0.1,0.1c4.8,4.8,11.1,7.4,17.9,7.4c14,0,25.4-11.5,25.4-25.7c0-6.9-2.8-13.7-7.8-18.5l-0.1-0.1v-27.2
					c0-3.8-3-6.9-6.8-6.9H63.2z M108.8,347.2c-6.3,0-12.1-2.5-16.4-7.1c-4.1-4.3-6.3-10-6.3-15.9c0-5.9,2.2-11.6,6.3-15.9
					c4.3-4.6,10.2-7.1,16.5-7.1c5.7,0,11.2,2.1,15.4,6c4.7,4.3,7.4,10.5,7.4,17C131.6,336.9,121.4,347.2,108.8,347.2z M108.8,301.7
					c-6.2,0-11.9,2.5-16.2,7c-4,4.2-6.2,9.7-6.2,15.6c0,5.9,2.2,11.4,6.2,15.6c4.3,4.5,10,7,16.1,7c12.3,0,22.3-10.1,22.3-22.6
					c0-6.3-2.6-12.4-7.3-16.7C119.8,303.8,114.4,301.7,108.8,301.7z M88.6,339.7H63.2c-2.3,0-4.2-1.9-4.2-4.2v-27.2h29.8l-0.3,0.3
					c-3.4,4.5-5.2,9.9-5.2,15.5c0,5.5,1.7,10.8,4.9,15.2L88.6,339.7z M59.5,308.8v26.8c0,2.1,1.7,3.8,3.7,3.8h24.6
					c-3.1-4.4-4.8-9.6-4.8-15.1c0-5.6,1.7-11,5-15.5H59.5z M90.1,305.7h-31v-27.2c0-2.3,1.9-4.2,4.2-4.2h26.9V305.7z M59.5,305.3
					h30.2v-30.5H63.2c-2.1,0-3.7,1.7-3.7,3.8V305.3z M92.7,304.4v-30.1h26.9c2.3,0,4.2,1.9,4.2,4.2v25l-0.3-0.2
					c-4.3-3.1-9.3-4.7-14.6-4.7c-5.8,0-11.3,1.9-15.8,5.6L92.7,304.4z M93.2,274.7l0,28.8c4.5-3.5,9.9-5.4,15.7-5.4
					c5.2,0,10.2,1.6,14.5,4.5v-24.1c0-2.1-1.7-3.8-3.7-3.8H93.2z"/>
			</g>
		</g>
	</g>
	<g>
		<g>
			<g>
				<path class="st5" d="M108.8,305c-10.5,0-19.1,8.6-19.1,19.3c0,10.6,8.5,19.3,19.1,19.3s19.1-8.6,19.1-19.3
					C127.9,313.6,119.3,305,108.8,305z M108.8,340.4c-8.8,0-16-7.3-16-16.2c0-8.9,7.2-16.2,16-16.2s16,7.3,16,16.2
					S117.7,340.4,108.8,340.4z"/>
				<path class="st6" d="M108.8,343.7c-10.6,0-19.3-8.7-19.3-19.5c0-10.7,8.6-19.5,19.3-19.5s19.3,8.7,19.3,19.5
					C128.1,335,119.5,343.7,108.8,343.7z M108.8,305.2c-10.4,0-18.8,8.5-18.8,19.1c0,10.5,8.5,19.1,18.8,19.1s18.8-8.5,18.8-19.1
					C127.7,313.7,119.2,305.2,108.8,305.2z M108.8,340.6c-8.9,0-16.2-7.4-16.2-16.4c0-9,7.3-16.4,16.2-16.4
					c8.9,0,16.2,7.4,16.2,16.4C125.1,333.3,117.8,340.6,108.8,340.6z M108.8,308.3c-8.7,0-15.8,7.2-15.8,16c0,8.8,7.1,16,15.8,16
					s15.8-7.2,15.8-16C124.6,315.4,117.6,308.3,108.8,308.3z"/>
			</g>
		</g>
	</g>
	<g>
		<g>
			<g>
				<path class="st5" d="M114.9,322.7h-4.5v-9.3c0-0.9-0.7-1.5-1.5-1.5s-1.5,0.7-1.5,1.5v10.8c0,0.9,0.7,1.5,1.5,1.5h6
					c0.8,0,1.5-0.7,1.5-1.5C116.4,323.4,115.7,322.7,114.9,322.7z"/>
				<path class="st6" d="M114.9,326h-6c-1,0-1.7-0.8-1.7-1.8v-10.8c0-1,0.8-1.8,1.7-1.8c1,0,1.7,0.8,1.7,1.8v9.1h4.3
					c0.5,0,0.9,0.2,1.2,0.5c0.3,0.3,0.5,0.8,0.5,1.2C116.6,325.2,115.8,326,114.9,326z M108.8,312.1c-0.7,0-1.3,0.6-1.3,1.3v10.8
					c0,0.7,0.6,1.3,1.3,1.3h6c0.7,0,1.3-0.6,1.3-1.3c0-0.4-0.1-0.7-0.4-0.9c-0.2-0.3-0.6-0.4-0.9-0.4h-4.7v-9.5
					C110.2,312.7,109.6,312.1,108.8,312.1z"/>
			</g>
		</g>
	</g>
	<g>
		<g>
			<g>
				<path class="st5" d="M107.7,334.5c-3,0-5.8-1.7-7.3-4.4c-0.4-0.7-1.3-1-2.1-0.6c-0.7,0.4-1,1.3-0.6,2.1c2,3.7,5.8,6,10,6
					c0.8,0,1.5-0.7,1.5-1.5S108.6,334.5,107.7,334.5z"/>
				<path class="st6" d="M107.7,337.8c-4.2,0-8.1-2.3-10.1-6.1c-0.5-0.8-0.1-1.9,0.7-2.4c0.4-0.2,0.9-0.3,1.3-0.1
					c0.4,0.1,0.8,0.4,1,0.8c1.4,2.6,4.1,4.3,7.1,4.3c1,0,1.7,0.8,1.7,1.8C109.5,337.1,108.7,337.8,107.7,337.8z M99.1,329.6
					c-0.2,0-0.4,0.1-0.6,0.2c-0.6,0.4-0.9,1.2-0.5,1.8c1.9,3.6,5.7,5.9,9.8,5.9c0.7,0,1.3-0.6,1.3-1.3c0-0.7-0.6-1.3-1.3-1.3
					c-3.1,0-6-1.7-7.5-4.5c-0.2-0.3-0.4-0.5-0.8-0.6C99.4,329.6,99.2,329.6,99.1,329.6z"/>
			</g>
		</g>
	</g>
	<g>
		<g>
			<g>
				<path class="st5" d="M97.9,324.7c-2,0-2,3.1,0,3.1C99.9,327.7,99.9,324.7,97.9,324.7z"/>
				<path class="st6" d="M97.9,327.9c-1.1,0-1.7-0.9-1.7-1.8c0-0.5,0.1-0.9,0.4-1.2c0.3-0.4,0.7-0.6,1.3-0.6c1.1,0,1.7,0.9,1.7,1.8
					C99.6,327.1,99,327.9,97.9,327.9z M97.9,324.9c-0.9,0-1.3,0.7-1.3,1.3c0,0.4,0.1,0.7,0.3,0.9c0.2,0.3,0.6,0.4,0.9,0.4
					c0.4,0,0.7-0.1,0.9-0.4c0.2-0.2,0.3-0.6,0.3-0.9C99.2,325.6,98.8,324.9,97.9,324.9z"/>
			</g>
		</g>
	</g>
	<g>
		<g>
			<path class="st3" d="M566.6,308.7c-1,0.1-1.9,0.1-2.8,0c-0.9-0.1-1.8-0.3-2.7-0.6c-0.4-0.2-0.8-0.3-1.2-0.6
				c-0.4-0.2-0.8-0.4-1.1-0.7c-0.7-0.5-1.4-1.1-2-1.8c-0.3-0.4-0.6-0.7-0.9-1l-0.8-1.1c-0.3-0.5-0.9-0.7-1.5-0.5l-0.2,0
				c-1.2,0.3-2.3,0.5-3.5,0.7c-0.6,0.1-1.1,0.1-1.7,0.1c-0.5,0-1-0.1-1.4-0.2c-0.2-0.1-0.3-0.1-0.5-0.2c-0.1-0.1-0.2-0.1-0.2-0.2
				c0,0,0,0,0-0.1c0,0,0-0.1,0-0.1c0,0,0-0.2,0-0.2c0-0.1,0-0.3,0-0.5c0-0.2,0.1-0.3,0.1-0.5l0.1-0.3l0.2-0.4l0.3-0.9
				c0-0.1,0.1-0.2,0.1-0.3c0.3-1.4-0.6-2.7-1.9-3c-1.4-0.3-2.7,0.6-3,1.9l0,0l-0.2,0.9l-0.1,0.5l-0.1,0.7c0,0.5-0.1,0.9-0.1,1.4
				c0,0.5,0,0.9,0.2,1.4c0.2,0.5,0.2,1,0.6,1.5c0.2,0.2,0.3,0.5,0.5,0.7c0.2,0.2,0.4,0.4,0.6,0.6c0.4,0.4,0.9,0.6,1.4,0.8
				c0.5,0.2,0.9,0.2,1.3,0.3c1.7,0.2,3.1-0.1,4.4-0.4c1-0.2,2-0.6,2.9-0.9l0.3,0.3c0.4,0.4,0.8,0.7,1.2,1.1c0.8,0.7,1.7,1.3,2.6,1.8
				c0.5,0.3,1,0.5,1.5,0.7c0.5,0.2,1,0.3,1.5,0.5c1.1,0.2,2.1,0.3,3.2,0.3c1,0,2.1-0.2,3-0.4c1-0.2,2-0.5,2.9-0.8
				c1.9-0.6,3.8-1.3,5.6-1.9c-1.9,0.4-3.9,0.8-5.8,1.2C568.5,308.5,567.5,308.6,566.6,308.7z"/>
		</g>
		<g>
			<path class="st1" d="M563.2,310.9c-0.9,0-1.9-0.1-2.8-0.3l-0.1,0c-0.2-0.1-0.3-0.1-0.5-0.1c-0.4-0.1-0.8-0.2-1.1-0.4
				c-0.1,0-0.2-0.1-0.3-0.1c-0.4-0.2-0.8-0.3-1.2-0.6c-0.9-0.5-1.8-1.1-2.7-1.9c-0.1-0.1-0.3-0.2-0.4-0.4c-0.3-0.2-0.6-0.5-0.8-0.8
				l0,0c-1,0.3-1.8,0.6-2.6,0.8c-1.4,0.3-2.8,0.6-4.7,0.4c-0.4-0.1-0.9-0.2-1.5-0.4l-0.1,0c-0.1-0.1-0.2-0.1-0.3-0.1
				c-0.4-0.2-0.8-0.4-1.2-0.8l-0.1-0.1c-0.2-0.2-0.4-0.4-0.6-0.6l0,0c-0.2-0.2-0.3-0.5-0.5-0.8c-0.3-0.4-0.4-0.9-0.5-1.3
				c0-0.1-0.1-0.2-0.1-0.4l0,0c-0.1-0.4-0.1-0.8-0.2-1.2c0-0.1,0-0.2,0-0.4c0-0.4,0-0.7,0.1-1.1c0-0.1,0-0.3,0-0.4l0.1-0.7l0.3-1.4
				c0.4-1.7,2.1-2.8,3.8-2.4c1.7,0.4,2.8,2.1,2.4,3.8c0,0.1-0.1,0.3-0.1,0.4l-0.5,1.3l0,0.2c0,0.1,0,0.2-0.1,0.3c0,0,0,0.1,0,0.1
				c0,0.1,0,0.2,0,0.3c0,0,0,0,0,0.1c0,0.1,0,0.1,0,0.2c0.1,0,0.2,0.1,0.3,0.1c0.4,0.1,0.8,0.1,1.2,0.2c0.5,0,1,0,1.6-0.1
				c1-0.1,2.2-0.3,3.4-0.6l0.2,0c0.8-0.2,1.7,0.1,2.2,0.8l0.8,1.1c0.2,0.2,0.3,0.4,0.5,0.6c0.1,0.1,0.2,0.3,0.3,0.4
				c0.6,0.7,1.3,1.3,1.9,1.7l0,0c0.2,0.2,0.4,0.3,0.7,0.5c0.1,0.1,0.2,0.1,0.3,0.2c0.2,0.1,0.4,0.2,0.7,0.3c0.2,0.1,0.3,0.1,0.5,0.2
				c0.8,0.3,1.7,0.5,2.5,0.5c0.9,0.1,1.8,0.1,2.7,0l0,0c0.8-0.1,1.7-0.2,2.8-0.4c1.6-0.3,3.2-0.6,4.7-0.9l1.1-0.2l0.3,1.2l-0.8,0.3
				c-1.6,0.6-3.2,1.1-4.8,1.6c-0.8,0.3-1.9,0.6-3,0.8c-1,0.2-2.1,0.4-3.1,0.4C563.5,310.9,563.4,310.9,563.2,310.9z M560.7,309.3
				c1,0.2,2,0.3,3,0.3c0.8,0,1.5-0.1,2.3-0.2c-0.7,0-1.5,0-2.2,0c-0.9-0.1-1.9-0.3-2.8-0.6l-0.1,0c-0.1-0.1-0.3-0.1-0.4-0.2
				c-0.3-0.1-0.6-0.2-0.9-0.4c-0.1-0.1-0.2-0.1-0.3-0.2c-0.3-0.2-0.6-0.3-0.9-0.6c-0.7-0.5-1.4-1.1-2.1-1.9
				c-0.1-0.1-0.2-0.3-0.3-0.4c-0.2-0.2-0.4-0.5-0.6-0.7l-0.8-1.1c-0.2-0.3-0.5-0.4-0.9-0.3l-0.2,0c-1.2,0.3-2.4,0.5-3.6,0.7
				c-0.7,0.1-1.2,0.1-1.7,0.1c-0.5,0-1.1-0.1-1.5-0.2l-0.1,0c-0.2-0.1-0.4-0.2-0.5-0.2l-0.1-0.1l0-0.1c-0.2-0.1-0.3-0.2-0.3-0.4
				l-0.1-0.3l0-0.1c0,0,0-0.1,0-0.1c0-0.2,0-0.3,0-0.4c0,0,0-0.1,0-0.1c0-0.2,0-0.4,0.1-0.5c0,0,0-0.1,0-0.1l0.1-0.4l0.5-1.3
				c0-0.1,0.1-0.2,0.1-0.2c0.2-1-0.4-2-1.4-2.3c-1-0.2-2.1,0.4-2.3,1.4l-0.3,1.4l-0.1,0.6c0,0.1,0,0.3,0,0.4c0,0.3-0.1,0.6-0.1,0.8
				c0,0.1,0,0.2,0,0.4c0,0.3,0,0.6,0.1,0.9c0,0.1,0.1,0.3,0.1,0.4c0.1,0.3,0.2,0.6,0.4,0.9c0.2,0.3,0.3,0.5,0.5,0.7
				c0.1,0.1,0.3,0.3,0.5,0.4l0.1,0.1c0.3,0.3,0.6,0.4,0.9,0.5c0.1,0,0.2,0.1,0.3,0.1c0.4,0.1,0.9,0.2,1.2,0.3
				c1.6,0.2,2.9-0.1,4.2-0.4c0.9-0.2,1.8-0.5,2.9-0.9l0.4-0.1l0.6,0.6c0.2,0.2,0.5,0.4,0.7,0.7c0.1,0.1,0.3,0.2,0.4,0.4
				c0.9,0.7,1.7,1.3,2.5,1.7l0,0c0.3,0.2,0.7,0.3,1,0.5c0.1,0,0.2,0.1,0.3,0.1c0.3,0.1,0.6,0.2,0.9,0.3
				C560.3,309.2,560.5,309.3,560.7,309.3z"/>
		</g>
	</g>
	<g>
		<g>
			<path class="st5" d="M583.3,257.8l7.6,7.6l-3.7,3.7l-7.6-7.6L583.3,257.8z"/>
		</g>
		<g>
			<path class="st5" d="M616.4,236.9c0.3-0.3,0.5-0.8,0.5-1.2c0-0.5-0.2-0.9-0.5-1.2l-2.2-2.1c-0.7-0.7-1.8-0.7-2.4,0l-3.7,3.7
				l4.6,4.6L616.4,236.9z"/>
		</g>
		<g>
			<path class="st5" d="M566.9,289.4l17.8-17.8l-7.6-7.6l-17.8,17.8c-0.2,0.2-0.4,0.4-0.5,0.6l7.5,7.5
				C566.5,289.7,566.7,289.5,566.9,289.4z"/>
		</g>
		<g>
			<path class="st5" d="M563.5,291.9l-6.7-6.7c-0.5,1-1,2-1.3,3l-2.3,7.3l7.3-2.3C561.5,292.9,562.5,292.5,563.5,291.9z"/>
		</g>
		<g>
			<path class="st5" d="M594.5,241.6c1.6-1.6,4-2,6-1l-14.8,14.8l7.6,7.6l18.4-18.4l-7.6-7.6l-1.1,1.1c-3.4-2.4-8.1-1.9-11,1
				L578.1,253c-0.7,0.7-0.7,1.8,0,2.5c0.7,0.7,1.8,0.7,2.5,0L594.5,241.6z"/>
		</g>
	</g>
	<g>
		<path class="st9" d="M344.8,183v-10.3h-3.9v-2.2h10.6v2.2h-3.9V183H344.8z"/>
		<path class="st9" d="M361,183l-1.2-2.8h-5.9l-1.2,2.8h-2.8l5.8-12.5h2.2l5.8,12.5H361z M354.8,178.2h4.1l-2-4.7L354.8,178.2z"/>
		<path class="st9" d="M370.8,176.7l4.8,6.4h-3.2l-3.1-4.3l-3.1,4.3h-3.2l4.8-6.4l-4.6-6.2h3.2l3,4.2l3-4.2h3.2L370.8,176.7z"/>
	</g>
	<g>
		<path class="st9" d="M457,205h2.8l-5.6,12.5h-2.2l-5.6-12.5h2.9l3.9,9.1L457,205z"/>
		<path class="st9" d="M469.1,217.6l-1.2-2.8h-5.9l-1.2,2.8h-2.8l5.8-12.5h2.2l5.8,12.5H469.1z M463,212.7h4.1l-2-4.7L463,212.7z"/>
		<path class="st9" d="M474.2,217.6v-10.3h-3.9V205h10.6v2.2H477v10.3H474.2z"/>
	</g>
	<g>
		<path class="st9" d="M447.6,314.9v-12.5h8.6v2.1h-6v3h5.6v2.1h-5.6v3.2h6v2.1H447.6z"/>
		<path class="st9" d="M464.3,308.6l4.8,6.4h-3.2l-3.1-4.3l-3.1,4.3h-3.2l4.8-6.4l-4.6-6.2h3.2l3,4.2l3-4.2h3.2L464.3,308.6z"/>
		<path class="st9" d="M472.1,314.3c-0.9-0.5-1.7-1.3-2.2-2.3c-0.5-1-0.8-2.1-0.8-3.4c0-1.3,0.3-2.4,0.8-3.4c0.5-1,1.2-1.7,2.2-2.2
			c0.9-0.5,2.1-0.8,3.3-0.8c0.8,0,1.6,0.1,2.4,0.4c0.8,0.3,1.4,0.6,1.9,1.1l-0.9,2c-0.6-0.4-1.1-0.7-1.6-0.9
			c-0.5-0.2-1.1-0.3-1.7-0.3c-1.1,0-2,0.4-2.6,1.1c-0.6,0.7-0.9,1.8-0.9,3.1c0,1.4,0.3,2.4,0.9,3.2c0.6,0.7,1.5,1.1,2.6,1.1
			c0.6,0,1.1-0.1,1.7-0.3c0.5-0.2,1.1-0.5,1.6-0.9l0.9,2c-0.5,0.5-1.1,0.8-1.9,1.1c-0.8,0.3-1.6,0.4-2.4,0.4
			C474.2,315.1,473.1,314.8,472.1,314.3z"/>
		<path class="st9" d="M481.6,314.9v-12.5h2.7v12.5H481.6z"/>
		<path class="st9" d="M488.6,314.7c-0.9-0.3-1.6-0.6-2.2-1.1l0.9-2c1.2,0.8,2.6,1.3,4.1,1.3c0.8,0,1.4-0.1,1.8-0.4
			c0.4-0.3,0.6-0.6,0.6-1.1c0-0.4-0.2-0.7-0.6-0.9c-0.4-0.2-1.1-0.4-2.1-0.7c-1.1-0.2-2-0.5-2.6-0.8c-0.7-0.3-1.1-0.7-1.4-1.2
			c-0.3-0.5-0.4-1-0.4-1.7c0-0.8,0.2-1.4,0.6-2c0.4-0.6,1-1.1,1.8-1.4c0.8-0.3,1.6-0.5,2.6-0.5c0.9,0,1.7,0.1,2.6,0.4
			c0.8,0.3,1.5,0.6,2,1.1l-0.9,2c-1.1-0.8-2.3-1.3-3.6-1.3c-0.7,0-1.3,0.1-1.7,0.4c-0.4,0.3-0.6,0.7-0.6,1.1c0,0.3,0.1,0.5,0.2,0.7
			c0.2,0.2,0.4,0.4,0.8,0.5c0.4,0.1,0.9,0.3,1.6,0.4c1.6,0.4,2.8,0.8,3.5,1.4c0.7,0.6,1.1,1.3,1.1,2.3c0,1.2-0.5,2.1-1.4,2.8
			c-0.9,0.7-2.2,1-3.8,1C490.3,315.1,489.4,315,488.6,314.7z"/>
		<path class="st9" d="M498.5,314.9v-12.5h8.6v2.1h-6v3h5.6v2.1h-5.6v3.2h6v2.1H498.5z"/>
	</g>
	<g>
		<g>
			<path class="st5" d="M500.2,165.5c0,0,0.5-1.3,0.6-1.5c0,0,1.2,1.3,1.3,4.3c0,0,0.1,2.1-0.9,2.8l0-0.1c0,0,0.1-0.4,0.1-0.4
				c0.1-0.8,0.1-2.2-0.2-3.1C501,167,500.9,166.5,500.2,165.5z"/>
		</g>
		<g>
			<path class="st5" d="M507.8,172.5c0,0,0.2-0.1,0.3,0c0.2,0.2,0.4,0.4,0.6,0.8c0,0,0.2,0.6,0.1,1c0,0-0.2,0.4-0.6,0.6
				c0,0-0.7,0.3-1,0.1c0,0-0.4-0.1-0.4-0.4c0,0,0-0.3,0.1-0.3c0-0.1,0.1-0.1,0.3,0c0,0,0.3,0.2,0.8,0.1c0.2,0,0.4-0.1,0.5-0.2
				c0,0,0.1-0.1,0-0.3c0,0-0.6-0.7-0.6-0.8c-0.1-0.1-0.3-0.3-0.3-0.5C507.6,172.7,507.7,172.6,507.8,172.5z"/>
		</g>
		<g>
			<path class="st5" d="M503.3,174.7c0-0.1,1.3,0.1,1.5,0.1c0.1,0,0.2-0.1,0.2-0.1s0.9-0.6,1.1-0.9c0.1-0.1,0.2-0.2,0.2-0.3
				c0,0-0.1-0.1-0.1-0.1l-0.5-0.5l0,0c0,0-0.1-0.5,0-0.5c0,0,0.1,0,0.1,0c0.1,0,0.3,0,0.3,0s0.4,0.7,0.5,0.9
				c0.1,0.2,0.1,0.5-0.1,0.8c0,0-0.5,1-1.1,1.2c0,0-0.5,0.1-1,0C504.4,175.1,503.2,174.8,503.3,174.7z"/>
		</g>
		<g>
			<path class="st5" d="M503.6,173.3c0-0.4-0.3-1.1-0.8-1.2c0,0-0.5,0-0.5,0.2c0,0,0,0.2,0,0.3c0,0-0.1,0.1-0.1,0.1
				s-0.7,0.5-0.8,0.8c0,0-0.1,0.4-0.1,0.5c0,0-2.8,0.3-3.6-0.2c0,0-0.9-0.2-0.9-0.8c0,0,0-0.4-0.3-0.5c0,0-0.6-0.1-0.8,0.4
				c0,0-0.3,0.4-0.2,0.8c0,0-0.8,0.9-2,0.8c0,0-0.8-0.3-0.6,0c0,0,0.6,0.6,1.7,0.3c0,0,0.6-0.2,1.1-0.8c0,0,0,0,0,0s0,0,0.1,0
				c0.1,0,0.1,0,0.2,0.1c0.2,0.2,0.6,0.6,0.8,0.6c0.1,0,0.2-0.1,0.1-0.5v0c0-0.1,0.1-0.1,0.3,0.1c0.4,0.1,1.2,0.4,1.5,0.4
				c0.7,0,1.9,0,2.6-0.1c0.3-0.1,0.9,0,1,0.1c0,0,0.1,0.1,0.1,0.1c0.1,0.1,0.5,0.1,0.6-0.1c0.1-0.1,0.2-0.2,0.2-0.3
				C503.6,173.9,503.6,173.5,503.6,173.3z M496.7,173.6L496.7,173.6c-0.2-0.1-0.6-0.3-0.6-0.4c0.1-0.3,0.4-0.4,0.5-0.4
				c0,0,0,0,0.1,0c0,0,0,0,0,0.1C496.7,173.2,496.7,173.5,496.7,173.6C496.7,173.6,496.7,173.6,496.7,173.6z M502.4,173.7
				c0,0-0.6,0-0.4-0.4c0,0,0.3-0.4,0.5-0.4C502.5,172.9,502.8,173.6,502.4,173.7z M503.2,173.7c0,0-0.4,0.1-0.4-0.3
				c0-0.4,0-0.7,0.1-0.6l0.4,0.5C503.4,173.4,503.5,173.7,503.2,173.7z"/>
		</g>
	</g>
</g>
</svg>
