<?xml version="1.0" encoding="utf-8"?>
<!-- Generator: Adobe Illustrator 21.0.0, SVG Export Plug-In . SVG Version: 6.00 Build 0)  -->
<svg version="1.1" id="Layer_1" xmlns="http://www.w3.org/2000/svg" xmlns:xlink="http://www.w3.org/1999/xlink" x="0px" y="0px"
	 viewBox="0 0 40.9 38.1" style="enable-background:new 0 0 40.9 38.1;" xml:space="preserve">
<style type="text/css">
	.st0{fill:#D1AE6C;}
</style>
<g>
	<g>
		<g>
			<path class="st0" d="M36.3,14.8c1.5-1.8,2.1-4.1,1.8-6.4c-0.7-4.5-4.9-7.6-9.4-7c-2,0.3-3.9,1.3-5.2,2.9c-1,1.3-2.7,1.9-4.4,1.5
				c-1.4-0.4-2.8-0.5-4.2-0.3c-4.7,0.6-8.5,4.4-9.2,9.1c-0.3,2.1,0.1,4.3,1,6.2c-2.3,0-4.1,1.9-4.1,4.2c0,2.1,1.6,3.8,3.6,4L7,35.6
				c0,0.7,0.5,1.2,1.2,1.2h3.4c0.3,0,0.7-0.2,0.9-0.4c0.2-0.3,0.3-0.6,0.3-1l-1.6-6.3h0.3c0.7,0,1.3,0.1,2,0.1
				c2.1,4.6,6.7,7.5,11.8,7.5c0.4,0,0.8,0,1.2-0.1c6.3-0.6,11.2-5.6,11.7-11.9c0.2-2.8-0.4-5.6-1.9-7.9
				C35.8,16.3,35.8,15.4,36.3,14.8z M6.3,27.8C4.7,27.5,3.6,26,4,24.4c0.2-1.2,1.1-2.1,2.3-2.3V27.8z M11.6,35.6l-3.4-0.1l-0.6-6.4
				H10L11.6,35.6z M7.5,27.9V22h1.2v5.9H7.5z M11.5,27.9H9.8V22h1.6c1.7,0,3.4-0.3,5-0.8l2.8-0.9v9.4l-2.8-0.9
				C14.9,28.2,13.2,27.9,11.5,27.9z M36.9,24.7c-0.5,6.5-6.2,11.3-12.7,10.8c-3.9-0.3-7.5-2.6-9.4-6.1c0.4,0.1,0.8,0.2,1.3,0.4
				l6.5,2.2c0.1,0,0.1,0,0.2,0c0.3,0,0.6-0.3,0.6-0.6v-3c1.3,0,2.4-1.1,2.4-2.4v-2.4c0-1.3-1.1-2.4-2.4-2.4v-3
				c0-0.3-0.3-0.6-0.6-0.6c-0.1,0-0.1,0-0.2,0l-6.5,2.2c-1.5,0.5-3.1,0.8-4.7,0.8H8.1c-1.1-1.8-1.5-3.9-1.2-6
				C7.7,9.6,12.4,6,17.6,6.7C18,6.8,18.4,6.9,18.8,7c2.1,0.5,4.3-0.2,5.6-1.9c2.5-3,6.9-3.5,10-1c3,2.5,3.5,6.9,1,10
				c-0.8,1-0.9,2.4-0.2,3.5C36.5,19.7,37.2,22.2,36.9,24.7z M20.4,30V19.9l1.8-0.6v11.4L20.4,30z M23.4,27.3v-4.7
				c0.7,0,1.2,0.5,1.2,1.2v2.4C24.6,26.8,24.1,27.3,23.4,27.3z"/>
		</g>
	</g>
	<g>
		<g>
			<rect x="11" y="25.5" class="st0" width="2.4" height="1.2"/>
		</g>
	</g>
	<g>
		<g>
			<rect x="11" y="23.2" class="st0" width="2.4" height="1.2"/>
		</g>
	</g>
	<g>
		<g>
			<path class="st0" d="M32.7,9.3c0-0.1-0.1-0.1-0.2-0.2L29,6.8c-0.3-0.2-0.6-0.1-0.8,0.2c-0.1,0.1-0.1,0.2-0.1,0.3V12
				c0,0.2,0.1,0.4,0.3,0.5c0.2,0.1,0.4,0.1,0.6,0l3.5-2.4C32.9,9.9,32.9,9.6,32.7,9.3z M29.3,10.9V8.3l1.9,1.3L29.3,10.9z"/>
		</g>
	</g>
	<g>
		<g>
			<path class="st0" d="M29.9,4.3c-2.9,0-5.3,2.4-5.3,5.3c0,2.9,2.4,5.3,5.3,5.3c2.9,0,5.3-2.4,5.3-5.3S32.8,4.3,29.9,4.3z
				 M29.9,13.7c-2.3,0-4.1-1.9-4.1-4.1c0-2.3,1.9-4.1,4.1-4.1c2.3,0,4.1,1.9,4.1,4.1S32.2,13.7,29.9,13.7z"/>
		</g>
	</g>
	<g>
		<g>
			<path class="st0" d="M18.1,12h-0.6c-0.3,0-0.6-0.3-0.6-0.6V9.6c0-1-0.8-1.8-1.8-1.8s-1.8,0.8-1.8,1.8v1.8c0,0.3-0.3,0.6-0.6,0.6
				c0-0.3-0.3-0.6-0.6-0.6H9.8c-0.3,0-0.6,0.3-0.6,0.6v6.5c0,0.3,0.3,0.6,0.6,0.6h2.4c0.3,0,0.6-0.3,0.6-0.6h5.3
				c1,0,1.8-0.8,1.8-1.8v-3C19.9,12.8,19.1,12,18.1,12z M11.6,17.9h-1.2v-5.3h1.2V17.9z M18.7,16.7c0,0.3-0.3,0.6-0.6,0.6h-5.3v-4.1
				c1,0,1.8-0.8,1.8-1.8V9.6c0-0.3,0.3-0.6,0.6-0.6s0.6,0.3,0.6,0.6v1.8c0,1,0.8,1.8,1.8,1.8h0.6c0.3,0,0.6,0.3,0.6,0.6V16.7z"/>
		</g>
	</g>
	<g>
		<g>
			<path class="st0" d="M35.3,22.8L35,22.5c-0.6-0.6-1.5-0.7-2.2-0.2l-0.6,0.4l-0.6-0.4c-0.7-0.5-1.6-0.4-2.2,0.2L29,22.8
				c-0.7,0.7-0.7,1.8,0,2.5l2.7,2.7c0.2,0.2,0.6,0.2,0.8,0l2.7-2.7C36,24.6,36,23.5,35.3,22.8z M34.4,24.4
				C34.4,24.4,34.4,24.4,34.4,24.4l-2.3,2.3l-2.3-2.3c-0.2-0.2-0.2-0.6,0-0.8l0.3-0.3c0.2-0.2,0.5-0.2,0.7-0.1l1,0.6
				c0.2,0.1,0.5,0.1,0.7,0l1-0.6c0.2-0.2,0.5-0.1,0.7,0.1v0l0.3,0.3C34.7,23.8,34.7,24.2,34.4,24.4z"/>
		</g>
	</g>
	<g>
		<g>
			
				<rect x="24.8" y="17.9" transform="matrix(0.2428 -0.9701 0.9701 0.2428 1.8203 39.2578)" class="st0" width="2.4" height="1.2"/>
		</g>
	</g>
	<g>
		<g>
			
				<rect x="26.8" y="19.6" transform="matrix(0.8944 -0.4472 0.4472 0.8944 -6.0796 14.7127)" class="st0" width="2.6" height="1.2"/>
		</g>
	</g>
	<g>
		<g>
			
				<rect x="25.5" y="30.8" transform="matrix(0.9701 -0.2425 0.2425 0.9701 -6.9924 7.2748)" class="st0" width="1.2" height="2.4"/>
		</g>
	</g>
	<g>
		<g>
			
				<rect x="27.5" y="28.9" transform="matrix(0.4472 -0.8944 0.8944 0.4472 -11.5281 41.8852)" class="st0" width="1.2" height="2.6"/>
		</g>
	</g>
	<g>
		<g>
			<path class="st0" d="M3.3,17.3h1.2c0-8,4.8-13,12.4-13V3.1C8.5,3.1,3.3,8.5,3.3,17.3z"/>
		</g>
	</g>
</g>
</svg>
