<?xml version="1.0" encoding="utf-8"?>
<!-- Generator: Adobe Illustrator 21.0.0, SVG Export Plug-In . SVG Version: 6.00 Build 0)  -->
<svg version="1.1" id="Capa_1" xmlns="http://www.w3.org/2000/svg" xmlns:xlink="http://www.w3.org/1999/xlink" x="0px" y="0px"
	 viewBox="0 0 365.5 365.5" style="enable-background:new 0 0 365.5 365.5;" xml:space="preserve">
<style type="text/css">
	.st0{fill:#D2AC67;}
</style>
<path class="st0" d="M21.5,59.5V39.7c0-4.5,3.7-7.9,8.2-7.9h63.1V26c0-4.5,3.6-8.1,8.1-8.1s8.1,3.6,8.1,8.1v5.9h126.3V26
	c0-4.5,3.6-8.1,8.1-8.1s8.1,3.6,8.1,8.1v5.9H315c4.5,0,7.9,3.4,7.9,7.9v19.8c0,4.5-3.6,8.1-8.1,8.1s-8.1-3.6-8.1-8.1V48.1h-55v5.4
	c0,4.5-3.6,8.1-8.1,8.1s-8.1-3.6-8.1-8.1v-5.4H109v5.4c0,4.5-3.6,8.1-8.1,8.1s-8.1-3.6-8.1-8.1v-5.4h-55v11.4c0,4.5-3.6,8.1-8.1,8.1
	S21.5,64,21.5,59.5z M344,274.3c0,40.4-32.9,73.3-73.3,73.3s-73.3-32.9-73.3-73.3c0-31.4,19.8-58.3,47.7-68.7
	c-1.1-1.4-1.7-3.1-1.7-5c0-4.5,3.6-8.2,8.1-8.2h38.4c4.5,0,8.1,3.7,8.1,8.2c0,1.9-0.6,3.6-1.7,5c6.8,2.5,13,6,18.7,10.3l4-4
	c3.2-3.2,8.3-3.2,11.5,0s3.2,8.3,0,11.5l-3.7,3.7C337.5,240,344,256.4,344,274.3z M327.8,274.3c0-31.5-25.6-57.1-57.1-57.1
	s-57.1,25.6-57.1,57.1s25.6,57.1,57.1,57.1S327.8,305.8,327.8,274.3z M281.7,254.3l-3,3v-12.6c0-4.5-3.6-8.1-8.1-8.1
	s-8.1,3.6-8.1,8.1v32.2c0,1.1,0.3,2.2,0.7,3.1c0.4,1,1,1.8,1.8,2.6c0.8,0.8,1.7,1.4,2.7,1.8l0,0v-0.2c0.9,0.3,1.8,0.4,2.8,0.4l0,0
	c0.1,0,0.2,0,0.3,0c0.1,0,0.2,0,0.3,0l0,0c1,0,1.9,0,2.8-0.4c1-0.4,1.9-0.9,2.7-1.7l16.8-16.8c3.2-3.2,3.1-8.3,0-11.5
	C290,251.1,284.9,251.1,281.7,254.3z M195.2,226.8c0,4.5-3.6,8.1-8.1,8.1h-6.8v59.7c0,4.5-3.6,8.1-8,8.1c-0.3,0-0.5,0-0.7-0.1
	c-0.3,0-0.5,0-0.8,0h-141c-4.5,0-8.2-3.5-8.2-8V90.4l0,0c0-4.5,3.7-7.9,8.2-7.9H315c4.5,0,7.9,3.5,7.9,7.9v88.1
	c0,4.5-3.6,8.1-8.1,8.1s-8.1-3.6-8.1-8.1v-12.1h-55v0.7c0,4.5-3.6,8.1-8.1,8.1s-8.1-3.6-8.1-8.1v-0.7h-55v52.3h6.8
	C191.6,218.7,195.2,222.3,195.2,226.8z M92.8,234.9h-55v51.4h55V234.9z M92.8,166.3h-55v52.3h55V166.3z M164.1,234.9h-55v51.4h55
	V234.9z M164.1,166.3h-55v52.3h55V166.3z M180.3,116.4v33.7h55v-33.7c0-4.5,3.6-8.1,8.1-8.1s8.1,3.6,8.1,8.1v33.7h55V98.7H37.7v51.4
	h55v-33.7c0-4.5,3.6-8.1,8.1-8.1s8.1,3.6,8.1,8.1v33.7h55v-33.7c0-4.5,3.6-8.1,8.1-8.1S180.3,111.9,180.3,116.4z"/>
</svg>
