<?xml version="1.0" encoding="utf-8"?>
<!-- Generator: Adobe Illustrator 26.0.1, SVG Export Plug-In . SVG Version: 6.00 Build 0)  -->
<svg version="1.1" id="Layer_1" xmlns="http://www.w3.org/2000/svg" xmlns:xlink="http://www.w3.org/1999/xlink" x="0px" y="0px"
	 viewBox="0 0 100 57.5" style="enable-background:new 0 0 100 57.5;" xml:space="preserve">
<style type="text/css">
	.st0{fill:#BB1F3E;}
	.st1{fill:#43A347;}
	.st2{opacity:0.68;fill:url(#SVGID_1_);enable-background:new    ;}
	.st3{fill:#EAEAEA;}
	.st4{opacity:0.68;fill:url(#SVGID_00000150091133242817277530000018368700286343038100_);enable-background:new    ;}
	.st5{fill:#161616;}
	.st6{fill:#FFFFFF;}
	.st7{fill:#010101;}
	.st8{opacity:0.68;fill:url(#SVGID_00000041997342381028711170000006386026790699797661_);enable-background:new    ;}
	.st9{opacity:0.68;fill:url(#SVGID_00000061466573253406803630000012762204879317492905_);enable-background:new    ;}
	.st10{opacity:0.28;}
	.st11{fill:url(#SVGID_00000155865113480796645490000013548585531464603042_);}
	.st12{fill:url(#SVGID_00000017506559039789472930000008739069457092272317_);}
	.st13{fill:url(#SVGID_00000083076615758427052630000004137422777729623211_);}
	.st14{fill:url(#SVGID_00000119830072710703204330000000705670301271035022_);}
</style>
<g>
	<g>
		<g>
			<g>
				<path class="st0" d="M57.3,30.8l0.7-6.6l0.4,1.8l-0.9,5C57.4,30.9,57.4,30.9,57.3,30.8z"/>
				<path class="st1" d="M73.2,31.6c-5.2,0.7-9.8,0.2-15.5-2.2l1.2-2.8c-1.6-1.9-0.9-3.6,1.3-3.2c4,1.8,8.2,2.4,12.3,1.7L71,28.2
					L73.2,31.6z"/>
				
					<linearGradient id="SVGID_1_" gradientUnits="userSpaceOnUse" x1="-3477.4346" y1="1967.616" x2="-3461.9346" y2="1967.616" gradientTransform="matrix(-1 0 0 1 -3410.8145 -1940)">
					<stop  offset="0" style="stop-color:#030303;stop-opacity:0"/>
					<stop  offset="1" style="stop-color:#030303"/>
				</linearGradient>
				<path class="st2" d="M73.2,31.6c-5.2,0.7-9.8,0.2-15.5-2.2l1.2-2.8c-1.6-1.9-0.9-3.6,1.3-3.2c4,1.8,8.2,2.4,12.3,1.7L71,28.2
					L73.2,31.6z"/>
				<g>
					<path class="st0" d="M58.2,25.7c2.4,1.8,4.9,3,7.6,3.7L64.9,36c-2-0.7-8.1-1.8-7.6-4.9l0.6-4.9L58.2,25.7z"/>
				</g>
				<path class="st0" d="M64.8,31.1c0.2,0.8,0.4,1.5,0.5,2.3v-0.5c3.2-1.5,1.7-3.7-1-3.5C64.5,29.9,64.6,30.5,64.8,31.1z"/>
				<g>
					<g>
						<g>
							<path class="st3" d="M80.3,9c0,0,1.6,1.9,4.3,3.4c0,0-2.1,6.5-1.5,11.4l-7.4-3.3c0,0-2.9-1.3-1.8-3.4l1.3-4.2L80.3,9z"/>
							<path class="st1" d="M83.8,15.3c0,0-6.1-3.3-8-8.5l1.8-2.5c0,0,2.2,4.9,7.5,7.8C85.2,11.9,84.1,14.2,83.8,15.3z"/>
							
								<linearGradient id="SVGID_00000023267378772701521270000012086535044417266067_" gradientUnits="userSpaceOnUse" x1="-196.1618" y1="2140.4951" x2="-183.7526" y2="2140.4951" gradientTransform="matrix(0.6573 0.7536 -0.7536 0.6573 1818.3601 -1253.7908)">
								<stop  offset="0" style="stop-color:#030303"/>
								<stop  offset="1" style="stop-color:#030303;stop-opacity:0"/>
							</linearGradient>
							
								<path style="opacity:0.68;fill:url(#SVGID_00000023267378772701521270000012086535044417266067_);enable-background:new    ;" d="
								M83.8,15.3c0,0-6.1-3.3-8-8.5l1.8-2.5c0,0,2.2,4.9,7.5,7.8C85.2,11.9,84.1,14.2,83.8,15.3z"/>
							<path class="st5" d="M83.1,19.6c0,0-2.6-0.5-6.3-4l-2.6,2.7c0,0-0.5,0.9,0.1,1.3c0,0,0.6,0.5,1.1,0.8s7.6,3.4,7.6,3.4
								S83,20.6,83.1,19.6z"/>
							<path class="st6" d="M71.7,1.6c0,0,6.8,1.7,9.4,5.9l-3.2,10.3c0,0-3.3-5.4-10.4-6.4L71.7,1.6z"/>
							<path class="st1" d="M71.7,1.6c0,0,6.1,1.4,9.4,5.8l-0.9,3c0,0-3.4-4.8-9.8-5.8L71.7,1.6z"/>
							<path class="st7" d="M77.8,17c0,0,0.6,0.7-0.6,1.3c-1.1,0.5-1.4,0-2.3,0.1s-1,0.8-0.5,1.2c0,0-1.2-0.9-0.7-2.3
								c0.1-0.3,0.2-0.7,0.3-1.1l0.5-1.9L77.8,17z"/>
							<path class="st5" d="M68.8,8.4c0,0,6.6,1.7,10,6.4l-0.9,3c0,0-4-5.4-10.4-6.4L68.8,8.4z"/>
							<path class="st0" d="M75.5,3l-3.9,9.7l-4.1-1.3l4.2-9.9L73.1,2c0.3,0.1,0.6,0.2,0.9,0.4L75.5,3z"/>
						</g>
						
							<rect x="47.9" y="16.9" transform="matrix(0.4019 -0.9157 0.9157 0.4019 23.1165 69.8943)" class="st7" width="34.3" height="0.7"/>
					</g>
					<path class="st7" d="M58.5,11c0,0,0.7,0.1,1.2,0.3s1.7,1.1,1.7,2.1c0,0,0.5,0.4,0.2,0.8c0,0,0.2,0.3-0.1,0.5h-0.1
						c0,0,0.2,0.6-0.6,0.7c0,0-0.2,0.6-0.4,0.8c-0.2,0.2-0.3,0.2-0.3,0.2s0.1,1.1,0,1.3c-0.1,0.2-0.5,0.1-0.6,0s-0.1,0.2-0.2,0.4
						s-0.4,0.2-0.4,0.2s0,0.2-0.1,0.2c-0.1,0.1-0.5,0.1-0.5,0.1s0.1,0.3-0.2,0.5s-0.6,0.3-1.2-0.3c0,0,0.1,0.3,0.3,0.8
						s0.9,2.6,0.9,4s0.1,2.3,0.1,2.5s0.1,0.6,0.1,0.6s0.5-0.5,0.7-0.5c0.2-0.1,0.2-0.1,0.2-0.1s0.8-0.6,1.1-0.7s0.7-0.2,0.9-0.2
						c0.2,0.1,0.3,0.4,0.3,0.4s0.5,0.1,0.7,0.5s-0.1,0.8-0.4,1c-0.3,0.2-0.4,0.5-0.5,0.6S60.8,28,60.8,28s0.4,0.4,0.5,0.8
						s-0.1,0.9-0.1,0.9s0.4,1.3,0.3,1.8c-0.1,0.5-1.3,1-1.7,1.1s0.4,2.6,0.4,2.6s-2.5,0.9-6.1,0.6c-3.7-0.4-5.8-0.9-5.8-0.9l1.2-6.2
						c0,0,0.2-0.4-0.1-0.4c-0.3-0.1-1.3,0.3-1.5-0.2s0.3-1.7,0.3-1.7s-0.8-1.6-0.9-2.9c-0.1-1.3,1.3-2.5,1.3-2.5s1-1.3,1.1-1.8
						s0.5-0.8,0.8-1s0.6-2,1.4-2.7c0.8-0.7,1.3-0.4,1.3-0.4s-0.2-0.5,0.4-0.5s1.3-1.4,1.5-1.8C55.4,12,56.8,11,57,11l0.1-0.2
						c0.1-0.2,0.3-0.3,0.5-0.3S58.2,10.6,58.5,11z"/>
					<g>
						<g>
							<path class="st6" d="M61.5,14.7c0,0.1-0.1,0.1-0.1,0.2h-0.1c0,0,0.1,0.2-0.1,0.4C61.5,15.1,61.5,14.7,61.5,14.7z"/>
							<path class="st6" d="M60.5,16.1c0.1-0.1,0.3-0.4,0.3-0.6h-0.1c0,0-0.1,0.5-0.3,0.7C60.5,16.2,60.5,16.1,60.5,16.1z"/>
							<path class="st6" d="M59.4,18.1c0.1,0,0.1-0.1,0.2-0.2c0-0.1,0.1-0.1,0.1-0.2l0,0C59.5,17.7,59.5,17.9,59.4,18.1z"/>
							<path class="st6" d="M59.1,18.3L59.1,18.3C59,18.3,59,18.3,59.1,18.3C59,18.3,59,18.3,59.1,18.3C59,18.3,59,18.3,59.1,18.3z"
								/>
							<path class="st6" d="M58.4,18.8c0.1-0.1,0.2-0.2,0.2-0.3c-0.1,0-0.2,0-0.2,0S58.5,18.7,58.4,18.8L58.4,18.8z"/>
							<path class="st6" d="M56.8,11.2l0.1-0.1c-0.3,0.1-1.2,0.8-1.7,1.2C55.8,11.7,56.7,11.2,56.8,11.2z"/>
							<path class="st6" d="M58.3,11.2c0,0,0.7,0.1,1.2,0.3s1.7,1.1,1.7,2.1c0,0,0.5,0.4,0.2,0.8c0,0,0.1,0.1,0.1,0.3l0,0
								c0.3-0.2,0.1-0.5,0.1-0.5c0.3-0.5-0.2-0.8-0.2-0.8c0-1.1-1.2-1.9-1.7-2.1C59.2,11,58.5,11,58.5,11c-0.7-0.8-1.2-0.4-1.2-0.4
								l-0.1,0.1C57.4,10.6,57.8,10.5,58.3,11.2z"/>
							<path class="st6" d="M60.1,16.4c0,0,0.1,0.9,0,1.2c0.1,0,0.1,0,0.1-0.1c0.1-0.2,0-0.9,0-1.2C60.2,16.5,60.1,16.4,60.1,16.4z"
								/>
							<path class="st6" d="M61.2,25.1L61.2,25.1c0.1-0.1,0.1-0.1,0.2-0.2c-0.2,0-0.6,0.1-0.9,0.2c-0.3,0.1-1.1,0.7-1.1,0.7
								s-0.1,0-0.2,0.1c-0.2,0.1-0.7,0.5-0.7,0.5s-0.1-0.3-0.1-0.6c0-0.3,0-1.1-0.1-2.5s-0.7-3.5-0.9-4c-0.1-0.1-0.1-0.3-0.2-0.4
								c-0.1-0.1-0.2-0.1-0.3-0.2c0,0,0.1,0.3,0.3,0.8c0.3,0.5,0.9,2.6,0.9,4c0.1,1.4,0.1,2.3,0.1,2.5s0.1,0.6,0.1,0.6
								s0.5-0.5,0.7-0.5c0.2-0.1,0.2-0.1,0.2-0.1s0.8-0.6,1.1-0.7C60.6,25.2,61,25.1,61.2,25.1z"/>
							<path class="st6" d="M53.4,14.4c0.2,0,0.4-0.1,0.6-0.4c-0.1,0.1-0.3,0.2-0.4,0.2c-0.2,0-0.3,0.1-0.4,0.2
								C53.3,14.4,53.3,14.4,53.4,14.4z"/>
							<path class="st6" d="M53.1,14.9c0,0,0-0.1,0-0.2c-0.2,0-0.6,0-1.1,0.4c-0.1,0-0.1,0.1-0.2,0.2C52.6,14.6,53.1,14.9,53.1,14.9
								z"/>
							<path class="st6" d="M48.4,20.8C48.4,20.8,48.5,20.8,48.4,20.8c0,0-0.1,0.1-0.2,0.2C48.4,20.9,48.4,20.8,48.4,20.8z"/>
							<path class="st6" d="M50.4,18l0.1-0.1c-0.1,0.1-0.3,0.2-0.4,0.4C50.2,18.2,50.3,18.1,50.4,18z"/>
						</g>
					</g>
				</g>
				<path class="st0" d="M43.2,30.8l-0.7-6.6L42,25.9l1.1,5.1C43.1,30.9,43.2,30.9,43.2,30.8z"/>
				<path class="st1" d="M27.4,31.6c5.2,0.7,9.8,0.2,15.5-2.2l-1.2-2.8c1.6-1.9,0.9-3.6-1.3-3.2c-4,1.8-8.2,2.4-12.3,1.7l1.5,3.1
					L27.4,31.6z"/>
				
					<linearGradient id="SVGID_00000121247111121377848680000013044139813871444394_" gradientUnits="userSpaceOnUse" x1="33.9305" y1="1967.616" x2="49.4305" y2="1967.616" gradientTransform="matrix(1 0 0 1 0 -1940)">
					<stop  offset="0" style="stop-color:#030303;stop-opacity:0"/>
					<stop  offset="1" style="stop-color:#030303"/>
				</linearGradient>
				
					<path style="opacity:0.68;fill:url(#SVGID_00000121247111121377848680000013044139813871444394_);enable-background:new    ;" d="
					M27.4,31.6c5.2,0.7,9.8,0.2,15.5-2.2l-1.2-2.8c1.6-1.9,0.9-3.6-1.3-3.2c-4,1.8-8.2,2.4-12.3,1.7l1.5,3.1L27.4,31.6z"/>
				<g>
					<path class="st0" d="M42.4,25.7c-2.4,1.8-4.9,3-7.6,3.7l0.9,6.5c2-0.7,8.1-1.8,7.6-4.9l-0.6-4.9L42.4,25.7z"/>
				</g>
				<path class="st0" d="M35.8,31.1c-0.2,0.8-0.4,1.5-0.5,2.3v-0.5c-3.2-1.5-1.7-3.7,1-3.5C36.1,29.9,35.9,30.5,35.8,31.1z"/>
				<path class="st0" d="M42.5,25.3c0,0-0.2,0.6-0.8,1l0.6,0.2L42.5,25.3z"/>
				<g>
					<path class="st7" d="M38.5,28c0,0-0.5-0.4-0.6-1.1c0-0.2,0-0.5,0.2-0.7c0.5-1.1,1.1-0.3,1.3-0.3s0.2-0.1,0.6-0.1
						c0.3,0,0.4,0.4,0.7,0.4s1.4-1.2,1.5,0s0.2,3,0.2,3s-0.9,0-1-0.1C41.2,28.9,38.5,28,38.5,28z"/>
					<g>
						<g>
							<path class="st3" d="M19.7,7.6c0,0-1.6,1.9-4.3,3.4c0,0,2.1,6.5,1.5,11.4l7.4-3.3c0,0,2.9-1.3,1.8-3.4l-1.3-4.2L19.7,7.6z"/>
							<path class="st1" d="M16.2,13.8c0,0,6.1-3.3,8-8.5l-1.8-2.5c0,0-2.2,4.9-7.5,7.8C14.8,10.5,15.9,12.7,16.2,13.8z"/>
							
								<linearGradient id="SVGID_00000183247538477404980490000009226679930585608335_" gradientUnits="userSpaceOnUse" x1="-1285.8682" y1="3387.6299" x2="-1273.4591" y2="3387.6299" gradientTransform="matrix(-0.6573 0.7536 0.7536 0.6573 -3374.4944 -1253.7908)">
								<stop  offset="0" style="stop-color:#030303"/>
								<stop  offset="1" style="stop-color:#030303;stop-opacity:0"/>
							</linearGradient>
							
								<path style="opacity:0.68;fill:url(#SVGID_00000183247538477404980490000009226679930585608335_);enable-background:new    ;" d="
								M16.2,13.8c0,0,6.1-3.3,8-8.5l-1.8-2.5c0,0-2.2,4.9-7.5,7.8C14.8,10.5,15.9,12.7,16.2,13.8z"/>
							<path class="st5" d="M16.9,18.1c0,0,2.6-0.5,6.3-4l2.6,2.7c0,0,0.5,0.9-0.1,1.3c0,0-0.6,0.5-1.1,0.8S17,22.3,17,22.3
								S17,19.2,16.9,18.1z"/>
							<path class="st6" d="M28.3,0.2c0,0-6.8,1.7-9.4,5.9l3.2,10.3c0,0,3.3-5.4,10.4-6.4L28.3,0.2z"/>
							<path class="st1" d="M28.3,0.2c0,0-6.1,1.4-9.4,5.8l0.9,3c0,0,3.4-4.8,9.8-5.8L28.3,0.2z"/>
							<path class="st7" d="M22.2,15.6c0,0-0.6,0.7,0.6,1.3c1.1,0.5,1.4,0,2.3,0.1s1,0.8,0.5,1.2c0,0,1.2-0.9,0.7-2.3
								c-0.1-0.3-0.2-0.7-0.3-1.1L25.4,13L22.2,15.6z"/>
							<path class="st5" d="M31.2,7c0,0-6.6,1.7-10,6.4l0.9,3c0,0,4-5.4,10.4-6.4L31.2,7z"/>
							<path class="st0" d="M24.5,1.6l3.9,9.7l4.1-1.3l-4.2-9.9l-1.5,0.5c-0.3,0.1-0.6,0.2-0.9,0.4L24.5,1.6z"/>
						</g>
						
							<rect x="34.5" y="-1.3" transform="matrix(0.9157 -0.4019 0.4019 0.9157 -3.4382 15.3464)" class="st7" width="0.7" height="34.3"/>
					</g>
					<g>
						<path class="st7" d="M50.6,22.8c0,0-0.9-1.2-1-1.6s-0.5-0.7-0.7-0.9c-0.3-0.2-0.5-1.8-1.2-2.5c-0.1-0.1-0.2-0.1-0.2-0.2
							c-0.1-0.3-0.2-0.6-0.3-0.8c0.2-0.6,0.3-1.8,0.2-1.9l0.2-0.3c0,0,0.1-0.6-0.8-0.9c0,0-0.3-0.5-0.7-0.8s-1.6-0.9-2.4-0.4
							c0,0-0.5-0.2-0.7,0.2c0,0-0.3-0.1-0.3,0.2l0,0c0,0-0.6,0.1-0.3,0.7c0,0-0.4,0.4-0.5,0.6c-0.1,0.3,0,0.3,0,0.3s-0.9,0.4-1,0.6
							c-0.1,0.2,0.2,0.4,0.2,0.4c0.1,0-0.1,0.1-0.2,0.3c-0.1,0.2,0,0.4,0,0.4s-0.1,0.1-0.1,0.2s0.2,0.4,0.2,0.4s-0.3,0.1-0.3,0.4
							s0,0.6,0.6,0.8l0,0c0,0-0.1,0.7,0.5,1.6s0.7,1.5,0.4,2.5s-0.4,3.1-0.4,3.4c0,0.1,0,0.1,0.1,0.2c0,0.9,0,1.5,0,1.7
							s-0.1,0.5-0.1,0.5s-0.5-0.4-0.6-0.5c-0.1,0-0.2,0-0.2,0s-0.7-0.6-1-0.6c-0.3-0.1-0.6-0.2-0.8-0.1c-0.1,0-0.3,0.4-0.3,0.4
							s-0.4,0.1-0.6,0.5c-0.2,0.4,0.1,0.7,0.4,0.9c0.3,0.2,0.4,0.4,0.5,0.5s0.5,0.3,0.5,0.3s-0.4,0.4-0.5,0.7c-0.1,0.3,0,0.8,0,0.8
							s-0.3,1.2-0.3,1.7s1.2,0.9,1.5,1S40,35.9,40,35.9s2.2,0.8,5.6,0.5c3.3-0.3,5.3-0.8,5.3-0.8L49.8,30c0,0-0.1-0.3,0.1-0.4
							c0.2,0,1.2,0.2,1.4-0.2c0.2-0.4-0.2-1.6-0.2-1.6s0.7-1.4,0.8-2.6C51.9,23.8,50.6,22.8,50.6,22.8z"/>
						<g>
							<path class="st6" d="M46.7,13.8c0,0-0.3-0.5-0.7-0.8s-1.6-0.9-2.4-0.4c0,0-0.5-0.2-0.7,0.2c0,0-0.3-0.1-0.3,0.2l0,0
								c0,0-0.6,0.1-0.3,0.7c0,0-0.4,0.4-0.5,0.6c-0.1,0.3,0,0.3,0,0.3s-0.8,0.3-1,0.5l0,0c0.2-0.2,1.1-0.4,1.1-0.4s0.1-0.1,0.1-0.4
								c0.1-0.3,0.4-0.4,0.4-0.4c-0.3-0.6,0.3-0.7,0.3-0.7l0,0c0-0.3,0.3-0.2,0.3-0.2c0.3-0.4,0.7-0.2,0.7-0.2
								c0.9-0.5,2.1,0.1,2.4,0.4c0.4,0.3,0.7,0.8,0.7,0.8c0.3,0.1,0.5,0.2,0.6,0.3C47.4,14.1,47.2,13.9,46.7,13.8z"/>
							<path class="st6" d="M50.8,23.1c0,0,0.4,0.3,0.7,0.7c-0.4-0.6-0.9-1-0.9-1s-0.2-0.3-0.5-0.7C50.4,22.6,50.8,23.1,50.8,23.1z"
								/>
							<path class="st6" d="M47.8,18.1c0.1,0.1,0.2,0.1,0.2,0.2c-0.1-0.2-0.2-0.4-0.4-0.5l-0.1-0.1c0,0.1,0,0.1,0.1,0.2
								C47.6,18,47.7,18,47.8,18.1z"/>
							<path class="st6" d="M49.1,20.5c0.1,0.1,0.3,0.2,0.5,0.4c-0.1-0.3-0.4-0.5-0.6-0.7C48.9,20.4,49,20.5,49.1,20.5z"/>
							<path class="st6" d="M40.9,16.6c-0.1-0.1-0.1-0.2-0.2-0.3c0,0-0.1,0.1-0.1,0.2s0.2,0.4,0.2,0.4s-0.3,0.1-0.3,0.4
								c0,0.2,0,0.4,0.2,0.6c0-0.1,0-0.2,0-0.3c0-0.3,0.3-0.4,0.3-0.4s-0.2-0.3-0.2-0.4C40.8,16.7,40.9,16.6,40.9,16.6z"/>
							<path class="st6" d="M42,22.2c-0.3,1-0.4,3.1-0.4,3.4c0,0.1,0,0.1,0.1,0.2c0,0.9,0,1.5,0,1.7c0,0.1,0,0.2,0,0.2
								c0.1,0.1,0.1,0.2,0.2,0.2c0-0.1,0-0.1,0-0.2c0-0.2,0-0.8,0-1.7c-0.1-0.1-0.1-0.2-0.1-0.2c0-0.3,0.1-2.5,0.4-3.4
								c0.3-1,0.1-1.6-0.4-2.5c-0.4-0.7-0.5-1.2-0.5-1.5c0-0.1,0-0.2,0-0.3V18c-0.1,0-0.3,0-0.3,0c0,0.3,0.2,1.1,0.6,1.7
								C42.2,20.5,42.3,21.2,42,22.2z"/>
						</g>
						<path class="st6" d="M43.3,12.7c0,0,0.3,0,1,0.9c0,0-0.6-0.8-0.6-0.9C43.7,12.8,43.4,12.6,43.3,12.7z"/>
						<path class="st6" d="M42.9,13c0,0,0.3,0,1,0.9c0,0-0.3-0.5-0.5-0.7c-0.1-0.1-0.2-0.2-0.3-0.2C43,12.9,43,12.9,42.9,13z"/>
						<path class="st6" d="M40.8,15.8c0,0-0.1,0.4,0.1,0.8l-0.2-0.3C40.7,16.3,40.6,16,40.8,15.8z"/>
						<path class="st6" d="M43.6,13.5c0,0,0.9,1.2,1.1,1.6c0.2,0.5-0.4,4.1-0.4,4.1l-0.2-0.1c0,0,0.6-3.2,0.5-3.9
							C44.4,14.5,43.6,13.5,43.6,13.5z"/>
						<path class="st6" d="M44.5,18.7c0,0-0.1,0.7-0.6,1.4c-0.5,0.7-1.6,1.6-1.8,2.6c0,0,0-1.2,0.8-2s0.8-0.8,1.2-1.5L44.5,18.7z"/>
						<path class="st6" d="M46.4,20.7c0,0,4.3,2.7,5,3.1s-3.6-1.7-4.2-2.4C46.5,20.8,46.4,20.7,46.4,20.7z"/>
					</g>
				</g>
				<g>
					<path class="st1" d="M47.1,41.7C43,42,38.8,41.3,35.3,40c-1-0.4-1.7-1.3-1.7-2.4l-0.1-6.5c0.8,3,9.9,4.7,13.1,4.3L47.1,41.7z"
						/>
				</g>
				<g class="st10">
					
						<linearGradient id="SVGID_00000008124937570353793300000010435815551513693587_" gradientUnits="userSpaceOnUse" x1="33.4266" y1="1976.4344" x2="47.055" y2="1976.4344" gradientTransform="matrix(1 0 0 1 0 -1940)">
						<stop  offset="0" style="stop-color:#030303;stop-opacity:0"/>
						<stop  offset="1" style="stop-color:#030303"/>
					</linearGradient>
					<path style="fill:url(#SVGID_00000008124937570353793300000010435815551513693587_);" d="M47.1,41.7C43,42,38.8,41.3,35.3,40
						c-1-0.4-1.7-1.3-1.7-2.4l-0.1-6.5c0.8,3,9.9,4.7,13.1,4.3L47.1,41.7z"/>
				</g>
				<g>
					<path class="st1" d="M53.5,41.7c4.1,0.3,8.3-0.4,11.8-1.7c1-0.4,1.7-1.3,1.7-2.4l0.1-6.5c-0.8,3-9.9,4.7-13.1,4.3L53.5,41.7z"
						/>
				</g>
				<g class="st10">
					
						<linearGradient id="SVGID_00000134237429303096813400000012354569934526820797_" gradientUnits="userSpaceOnUse" x1="-3477.9385" y1="1976.4344" x2="-3464.3101" y2="1976.4344" gradientTransform="matrix(-1 0 0 1 -3410.8145 -1940)">
						<stop  offset="0" style="stop-color:#030303;stop-opacity:0"/>
						<stop  offset="1" style="stop-color:#030303"/>
					</linearGradient>
					<path style="fill:url(#SVGID_00000134237429303096813400000012354569934526820797_);" d="M53.5,41.7c4.1,0.3,8.3-0.4,11.8-1.7
						c1-0.4,1.7-1.3,1.7-2.4l0.1-6.5c-0.8,3-9.9,4.7-13.1,4.3L53.5,41.7z"/>
				</g>
				
					<linearGradient id="SVGID_00000006675631169961161310000001068080387786714771_" gradientUnits="userSpaceOnUse" x1="44.0313" y1="1978.35" x2="57.094" y2="1978.35" gradientTransform="matrix(1 0 0 1 0 -1940)">
					<stop  offset="0" style="stop-color:#C8942C"/>
					<stop  offset="0.1449" style="stop-color:#CB9A31"/>
					<stop  offset="0.386" style="stop-color:#D4AB44"/>
					<stop  offset="0.6929" style="stop-color:#E3C969"/>
					<stop  offset="1" style="stop-color:#F7F297"/>
				</linearGradient>
				<path style="fill:url(#SVGID_00000006675631169961161310000001068080387786714771_);" d="M56.9,38.6c-0.2-0.3-0.2-0.6-0.1-1
					c0.1-0.3,0.1-0.7,0-1s-0.3-0.6-0.6-0.8s-0.5-0.5-0.5-0.9c0-0.3-0.2-0.7-0.4-0.9s-0.5-0.4-0.8-0.5S54,33.2,53.8,33
					c-0.2-0.3-0.4-0.5-0.8-0.6c-0.3-0.1-0.6-0.1-0.8-0.1c-0.3,0.1-0.6,0-0.8-0.2s-0.5-0.3-0.9-0.3s-0.7,0.1-1,0.3
					c-0.3,0.2-0.6,0.3-1,0.2c-0.3-0.1-0.7,0-1,0.1c-0.3,0.2-0.6,0.4-0.7,0.7c-0.1,0.3-0.4,0.5-0.7,0.6s-0.7,0.3-0.9,0.6
					s-0.3,0.6-0.3,0.9c0,0.3-0.1,0.7-0.4,0.9c-0.3,0.2-0.4,0.5-0.5,0.9s0,0.7,0.1,1c0.2,0.3,0.2,0.7,0,1c-0.1,0.3-0.2,0.7-0.1,1
					c0.1,0.4,0.3,0.6,0.6,0.8s0.4,0.5,0.4,0.9c0,0.3,0.1,0.7,0.4,0.9c0.2,0.3,0.6,0.5,0.9,0.5c0.3,0.1,0.6,0.3,0.7,0.5
					c0.2,0.3,0.4,0.6,0.8,0.7c0.3,0.1,0.7,0.2,1,0.1c0.3-0.1,0.7,0,1,0.2s0.6,0.3,1,0.3s0.7-0.2,0.9-0.4c0.3-0.2,0.6-0.3,0.9-0.3
					c0.3,0.1,0.7,0,1-0.2s0.6-0.5,0.7-0.8c0.1-0.3,0.4-0.5,0.7-0.6s0.6-0.3,0.9-0.6c0.2-0.3,0.3-0.6,0.3-1c0-0.3,0.1-0.7,0.4-0.9
					c0.2-0.2,0.4-0.5,0.5-0.9C57.1,39.2,57.1,38.8,56.9,38.6z"/>
				
					<linearGradient id="SVGID_00000179620056216456677020000005022256674734522300_" gradientUnits="userSpaceOnUse" x1="-2130.5183" y1="2744.3289" x2="-2120.1812" y2="2744.3289" gradientTransform="matrix(0.6299 -0.7767 0.7767 0.6299 -742.2614 -3340.9133)">
					<stop  offset="0" style="stop-color:#C8942C"/>
					<stop  offset="0.1449" style="stop-color:#CB9A31"/>
					<stop  offset="0.386" style="stop-color:#D4AB44"/>
					<stop  offset="0.6929" style="stop-color:#E3C969"/>
					<stop  offset="1" style="stop-color:#F7F297"/>
				</linearGradient>
				<circle style="fill:url(#SVGID_00000179620056216456677020000005022256674734522300_);" cx="50.5" cy="38.5" r="5.2"/>
			</g>
		</g>
		<g>
			<g>
				<path d="M46.4,36.7h0.8v1.9c0,0.4,0.2,0.7,0.5,0.7s0.5-0.2,0.5-0.7v-1.9h0.7v1.8c0,0.9-0.4,1.4-1.2,1.4s-1.2-0.5-1.2-1.4
					L46.4,36.7L46.4,36.7z"/>
				<path d="M50.3,36.7h0.6l1.2,3.1h-0.8c-0.1-0.3-0.1-0.5-0.2-0.6h-1c-0.1,0.3-0.2,0.5-0.2,0.6h-0.8L50.3,36.7z M50.6,37.7
					c-0.1,0.3-0.2,0.5-0.3,0.9h0.6C50.8,38.3,50.7,38,50.6,37.7z"/>
				<path d="M52.4,36.7h2.1v0.6h-1.4v0.6h1.1v0.6h-1.1v0.7h1.4v0.6h-2.2v-3.1C52.3,36.7,52.4,36.7,52.4,36.7z"/>
			</g>
			<g>
				<path d="M46.5,40.8C46.5,40.8,46.4,40.8,46.5,40.8l-0.1-0.2v-0.1l0.1-0.1c0.1,0,0.1,0,0.1,0.1v0.1
					C46.6,40.7,46.6,40.7,46.5,40.8C46.6,40.8,46.6,40.8,46.5,40.8L46.5,40.8z M46.5,40.4C46.5,40.4,46.4,40.4,46.5,40.4
					C46.4,40.3,46.4,40.3,46.5,40.4C46.4,40.3,46.4,40.3,46.5,40.4L46.5,40.4L46.5,40.4C46.5,40.3,46.5,40.3,46.5,40.4
					C46.5,40.3,46.5,40.3,46.5,40.4L46.5,40.4z M46.5,40.7L46.5,40.7C46.6,40.7,46.6,40.7,46.5,40.7C46.5,40.6,46.5,40.6,46.5,40.7
					C46.5,40.6,46.5,40.6,46.5,40.7L46.5,40.7z M46.6,40.4L46.6,40.4C46.6,40.3,46.6,40.3,46.6,40.4C46.5,40.3,46.5,40.3,46.6,40.4
					L46.6,40.4L46.6,40.4C46.7,40.3,46.7,40.3,46.6,40.4C46.7,40.3,46.7,40.3,46.6,40.4L46.6,40.4z"/>
				<path d="M46.8,40.8L46.8,40.8l0.2-0.1l0,0c0,0,0-0.1-0.1-0.1l0.1-0.1c0.1,0,0.1,0.1,0.1,0.2l0,0l0,0h0.1v0.1h-0.1H47
					C47,40.8,47,40.8,46.8,40.8C46.9,40.8,46.8,40.8,46.8,40.8z"/>
				<path d="M47.6,40.7L47.6,40.7L47.6,40.7L47.6,40.7L47.6,40.7c-0.1,0.1-0.1,0.1-0.2,0.1s-0.1,0.1-0.2,0.1h-0.1v-0.1h0.1
					c0.1,0,0.1,0,0.2-0.1l-0.1-0.1c0,0-0.1,0-0.1,0.1v-0.1l0.1-0.1l0,0h0.1C47.5,40.5,47.5,40.5,47.6,40.7L47.6,40.7
					C47.6,40.6,47.6,40.7,47.6,40.7L47.6,40.7z"/>
				<path d="M47.8,40.3C47.8,40.4,47.8,40.4,47.8,40.3C47.8,40.4,47.7,40.4,47.8,40.3C47.7,40.4,47.7,40.4,47.8,40.3L47.8,40.3
					L47.8,40.3C47.7,40.3,47.7,40.3,47.8,40.3C47.7,40.3,47.8,40.3,47.8,40.3L47.8,40.3z M47.9,40.7L47.9,40.7L47.9,40.7L47.9,40.7
					C47.9,40.8,47.9,40.8,47.9,40.7c-0.1,0.1-0.1,0.1-0.2,0.1h-0.1v-0.1h0.1l0,0l0,0v-0.1l0.1-0.1L47.9,40.7
					C47.9,40.6,47.9,40.7,47.9,40.7L47.9,40.7z M47.9,40.4C47.8,40.4,47.8,40.4,47.9,40.4C47.8,40.4,47.8,40.4,47.9,40.4
					C47.8,40.3,47.8,40.3,47.9,40.4L47.9,40.4L47.9,40.4C47.9,40.3,47.9,40.3,47.9,40.4L47.9,40.4L47.9,40.4z"/>
				<path d="M48.4,40.7L48.4,40.7L48.4,40.7L48.4,40.7C48.4,40.8,48.4,40.8,48.4,40.7c-0.1,0.1-0.2,0.1-0.2,0.1h-0.1c0,0,0,0-0.1,0
					l0,0v-0.1h0.1l0,0l0,0l0,0c0-0.1,0-0.1,0-0.1h0.1c0.1,0,0.1,0,0.1,0.1C48.4,40.5,48.4,40.6,48.4,40.7L48.4,40.7
					C48.4,40.6,48.4,40.7,48.4,40.7L48.4,40.7z M48.2,40.7C48.3,40.7,48.3,40.7,48.2,40.7C48.2,40.6,48.2,40.6,48.2,40.7
					C48.2,40.6,48.2,40.6,48.2,40.7L48.2,40.7z"/>
				<path d="M48.5,40.8L48.5,40.8L48.5,40.8L48.5,40.8L48.5,40.8v-0.3l0.1-0.1L48.5,40.8C48.6,40.8,48.6,40.8,48.5,40.8
					C48.6,40.8,48.6,40.8,48.5,40.8L48.5,40.8z"/>
				<path d="M48.8,40.8v-0.4l0.1-0.1L48.8,40.8L48.8,40.8z"/>
				<path d="M49.6,40.7L49.6,40.7L49.6,40.7L49.6,40.7L49.6,40.7c-0.1,0.1-0.1,0.1-0.2,0.1c0,0-0.1,0-0.1-0.1v-0.1
					c0-0.1,0-0.1,0.1-0.1h0.1l0,0l0,0l0.1-0.1L49.6,40.7C49.5,40.6,49.5,40.7,49.6,40.7C49.5,40.7,49.6,40.7,49.6,40.7z M49.3,40.4
					L49.3,40.4C49.3,40.3,49.3,40.3,49.3,40.4C49.2,40.3,49.2,40.3,49.3,40.4L49.3,40.4L49.3,40.4C49.4,40.3,49.4,40.3,49.3,40.4
					C49.4,40.3,49.4,40.3,49.3,40.4C49.4,40.4,49.3,40.4,49.3,40.4z M49.4,40.6L49.4,40.6L49.4,40.6L49.4,40.6
					C49.4,40.6,49.4,40.7,49.4,40.6C49.4,40.7,49.4,40.7,49.4,40.6C49.4,40.7,49.4,40.7,49.4,40.6L49.4,40.6z M49.5,40.4
					C49.4,40.4,49.4,40.4,49.5,40.4C49.4,40.3,49.4,40.3,49.5,40.4C49.4,40.3,49.4,40.3,49.5,40.4L49.5,40.4L49.5,40.4
					C49.5,40.3,49.5,40.3,49.5,40.4C49.5,40.3,49.5,40.3,49.5,40.4L49.5,40.4z"/>
				<path d="M49.7,40.8C49.7,40.8,49.7,40.9,49.7,40.8C49.7,40.9,49.7,40.9,49.7,40.8C49.8,40.9,49.8,40.9,49.7,40.8L49.7,40.8
					L49.7,40.8C49.6,40.9,49.6,40.9,49.7,40.8C49.6,40.9,49.6,40.9,49.7,40.8C49.6,40.9,49.7,40.8,49.7,40.8z M49.9,40.7L49.9,40.7
					L49.9,40.7L49.9,40.7C49.8,40.8,49.8,40.8,49.9,40.7c-0.1,0.1-0.1,0.1-0.2,0.1h-0.1v-0.1h0.1l0,0l0,0v-0.1l0.1-0.1L49.9,40.7
					C49.8,40.6,49.8,40.7,49.9,40.7L49.9,40.7z M49.8,40.8C49.8,40.8,49.8,40.9,49.8,40.8C49.9,40.9,49.9,40.9,49.8,40.8
					C49.9,40.9,49.9,40.9,49.8,40.8L49.8,40.8L49.8,40.8C49.7,40.9,49.7,40.9,49.8,40.8C49.7,40.9,49.7,40.9,49.8,40.8
					C49.8,40.9,49.8,40.8,49.8,40.8z"/>
				<path d="M49.9,40.8L49.9,40.8L49.9,40.8L49.9,40.8L49.9,40.8l0.1-0.2l0.1-0.1v0.2v0.1C50.1,40.8,50.1,40.8,49.9,40.8L49.9,40.8z
					 M50.1,41C50,41,50,41,50.1,41C50,40.9,50,40.9,50.1,41C50,40.9,50,40.9,50.1,41L50.1,41L50.1,41C50.1,40.9,50.1,40.9,50.1,41
					C50.1,40.9,50.1,40.9,50.1,41L50.1,41z"/>
				<path d="M50.5,40.7L50.5,40.7L50.5,40.7L50.5,40.7L50.5,40.7c0,0.2,0,0.2-0.1,0.2c0,0,0,0-0.1,0h-0.1v-0.1h0.1l0,0
					c0,0,0,0,0-0.1v-0.2l0.1-0.1L50.5,40.7C50.5,40.6,50.5,40.7,50.5,40.7L50.5,40.7z"/>
				<path d="M51.1,40.8h-0.2c0,0,0,0-0.1,0c0,0,0,0-0.1,0h-0.2v-0.1h0.1c0,0,0,0,0-0.1l0,0l0.1-0.1h0.1h0.1l0.1,0.1l0,0v0.1
					L51.1,40.8L51.1,40.8z M50.9,40.6C50.9,40.6,50.9,40.5,50.9,40.6C50.8,40.6,50.8,40.6,50.9,40.6C50.8,40.6,50.8,40.6,50.9,40.6
					L50.9,40.6z"/>
				<path d="M51.1,40.8L51.1,40.8L51.1,40.8L51.1,40.8L51.1,40.8v-0.3l0.1-0.1L51.1,40.8C51.2,40.8,51.2,40.8,51.1,40.8
					C51.3,40.8,51.2,40.8,51.1,40.8L51.1,40.8z"/>
				<path d="M51.5,40.8v-0.4l0.1-0.1L51.5,40.8L51.5,40.8z"/>
				<path d="M52,40.8L52,40.8L52,40.8l-0.1-0.2l0.1-0.1v0.1l0,0l0,0h0.2l0,0l0,0v-0.1l0.1-0.1v0.2v0.1h-0.1L52,40.8L52,40.8z
					 M52.1,40.4L52.1,40.4L52.1,40.4C52,40.3,52,40.3,52.1,40.4L52.1,40.4L52.1,40.4C52.2,40.3,52.2,40.4,52.1,40.4
					C52.2,40.4,52.2,40.4,52.1,40.4L52.1,40.4z M52.2,40.4L52.2,40.4L52.2,40.4C52.1,40.3,52.1,40.3,52.2,40.4L52.2,40.4L52.2,40.4
					C52.3,40.3,52.3,40.4,52.2,40.4C52.3,40.4,52.3,40.4,52.2,40.4C52.3,40.4,52.3,40.4,52.2,40.4z"/>
				<path d="M52.6,40.8v-0.4l0.1-0.1L52.6,40.8L52.6,40.8z"/>
				<path d="M53.1,40.7L53.1,40.7c0,0.1,0,0.2-0.1,0.2c0,0,0,0-0.1,0h-0.1v-0.1h0.1l0,0c0,0,0,0,0-0.1v-0.2l0.1-0.1L53.1,40.7
					L53.1,40.7z"/>
				<path d="M53.3,40.8L53.3,40.8L53.3,40.8l-0.1-0.4l0.1-0.1v0.3l0,0l0,0h0.1L53.3,40.8L53.3,40.8z"/>
				<path d="M53.5,40.6L53.5,40.6L53.5,40.6c0.2-0.1,0.2-0.1,0.2,0v0.1c0,0.1,0,0.1,0,0.1h-0.1h-0.1c0,0,0,0-0.1,0h-0.1v-0.1
					L53.5,40.6C53.5,40.7,53.5,40.7,53.5,40.6C53.5,40.7,53.5,40.6,53.5,40.6L53.5,40.6z M53.6,40.7L53.6,40.7
					C53.7,40.7,53.7,40.6,53.6,40.7C53.7,40.6,53.6,40.6,53.6,40.7C53.6,40.6,53.6,40.6,53.6,40.7L53.6,40.7z"/>
				<path d="M54.2,40.4L54.2,40.4l0.1,0.2c0,0.1,0,0.1,0,0.1h-0.1h-0.3l0.1-0.1l0,0v-0.2H54.2l-0.1,0.3l0,0l0,0l0,0L54.2,40.4
					L54.2,40.4z M54.1,40.9L54.1,40.9L54.1,40.9L54.1,40.9L54.1,40.9L54.1,40.9L54.1,40.9L54.1,40.9L54.1,40.9L54.1,40.9L54.1,40.9
					C54,40.9,54,40.8,54.1,40.9C54.1,40.8,54.1,40.8,54.1,40.9C54.1,40.8,54.1,40.8,54.1,40.9L54.1,40.9z"/>
				<path d="M54.5,40.8v-0.4l0.1-0.1L54.5,40.8L54.5,40.8z"/>
			</g>
		</g>
	</g>
</g>
<g>
	<g>
		<g>
			<g>
				<path class="st6" d="M15.2,57.2v-2.5h0.5c0.6,0.8,1,1.3,1.3,1.6v-1.6h0.6v2.5h-0.5c-0.4-0.5-0.9-1-1.3-1.6v1.6H15.2z"/>
				<path class="st6" d="M18.9,54.7h0.5l0.9,2.5h-0.6c-0.1-0.2-0.1-0.4-0.2-0.5h-0.8c-0.1,0.2-0.1,0.4-0.2,0.5h-0.6L18.9,54.7z
					 M19.1,55.5c-0.1,0.2-0.2,0.4-0.2,0.7h0.5C19.3,56,19.2,55.8,19.1,55.5z"/>
				<path class="st6" d="M20.8,55.2h-0.7v-0.5h2.1v0.5h-0.8v2h-0.6V55.2z"/>
				<path class="st6" d="M23.1,54.7v2.5h-0.6v-2.5H23.1z"/>
				<path class="st6" d="M24.8,54.6c0.4,0,0.7,0.2,0.9,0.5c0.2,0.2,0.3,0.5,0.3,0.9s-0.1,0.7-0.3,0.9c-0.2,0.2-0.5,0.3-0.8,0.3
					c-0.4,0-0.7-0.1-0.9-0.4c-0.2-0.2-0.2-0.5-0.2-0.9s0.1-0.7,0.3-1C24.1,54.8,24.4,54.6,24.8,54.6z M24.8,56.7
					c0.4,0,0.5-0.3,0.5-0.8c0-0.3-0.1-0.5-0.2-0.6s-0.2-0.2-0.4-0.2c-0.2,0-0.3,0.1-0.4,0.2c-0.1,0.1-0.1,0.3-0.1,0.6
					C24.2,56.5,24.4,56.7,24.8,56.7z"/>
				<path class="st6" d="M26.4,57.2v-2.5h0.5c0.6,0.8,1,1.3,1.3,1.6v-1.6h0.6v2.5h-0.5c-0.4-0.5-0.9-1-1.3-1.6v1.6H26.4z"/>
				<path class="st6" d="M30,54.7h0.5l0.9,2.5h-0.6c-0.1-0.2-0.1-0.4-0.2-0.5h-0.8c-0.1,0.2-0.1,0.4-0.2,0.5H29L30,54.7z M30.3,55.5
					c-0.1,0.2-0.2,0.4-0.2,0.7h0.5C30.4,56,30.4,55.8,30.3,55.5z"/>
				<path class="st6" d="M31.8,57.2v-2.5h0.6v2h0.9v0.5H31.8z"/>
				<path class="st6" d="M34.8,57.2v-2.5c0,0,0.1,0,0.3,0s0.3,0,0.4,0c0.5,0,0.8,0.1,1.1,0.4c0.2,0.2,0.3,0.5,0.3,0.9
					c0,0.5-0.1,0.8-0.4,1c-0.2,0.2-0.6,0.3-1,0.3C35.2,57.3,34.9,57.2,34.8,57.2z M35.4,55.1v1.6h0.1l0,0c0.5,0,0.7-0.3,0.7-0.8
					c0-0.3-0.1-0.5-0.2-0.6C35.9,55.2,35.7,55.1,35.4,55.1L35.4,55.1z"/>
				<path class="st6" d="M37.9,54.7h0.5l0.9,2.5h-0.6c-0.1-0.2-0.1-0.4-0.2-0.5h-0.8c-0.1,0.2-0.1,0.4-0.2,0.5h-0.6L37.9,54.7z
					 M38.1,55.5c-0.1,0.2-0.2,0.4-0.2,0.7h0.5C38.3,56,38.2,55.8,38.1,55.5z"/>
				<path class="st6" d="M39.1,54.7h0.7c0.2,0.4,0.3,0.7,0.5,1.1l0.5-1.1h0.7l-0.9,1.5v1H40v-1C39.7,55.7,39.4,55.2,39.1,54.7z"/>
			</g>
		</g>
		<g>
			<path class="st6" d="M18.2,52c0,0.3-0.2,0.5-0.5,0.7c-0.3,0.1-0.6,0.2-1,0.2c-0.5,0-0.9-0.2-1.2-0.5c-0.2-0.2-0.3-0.5-0.3-0.8
				c0-0.2,0.1-0.4,0.2-0.6l0.7-0.2c-0.1,0.2-0.2,0.4-0.2,0.6c0,0.5,0.3,0.7,0.8,0.7c0.4,0,0.6-0.1,0.7-0.2H17l0.4-0.7h0.8L18.2,52
				L18.2,52z M16.3,53.9c-0.1,0-0.2,0-0.3-0.1c-0.1-0.1-0.1-0.2-0.1-0.3s0-0.2,0.1-0.3c0.1-0.1,0.2-0.1,0.3-0.1s0.2,0,0.3,0.1
				c0.1,0.1,0.1,0.2,0.1,0.3s0,0.2-0.1,0.3S16.4,53.9,16.3,53.9z M17.1,53.9c-0.1,0-0.2,0-0.3-0.1c-0.1-0.1-0.1-0.2-0.1-0.3
				s0-0.2,0.1-0.3s0.2-0.1,0.3-0.1s0.2,0,0.3,0.1c0.1,0.1,0.1,0.2,0.1,0.3s0,0.2-0.1,0.3S17.3,53.9,17.1,53.9z"/>
			<path class="st6" d="M19.6,51.3H20V52h-0.5c-0.2,0-0.4,0-0.5-0.1C18.9,52,18.7,52,18.6,52h-0.5v-0.7h0.4c0.1,0,0.1,0,0.2,0
				c0,0,0-0.1,0-0.2v-0.7l0.8-0.4v1.1c0,0.1,0,0.1,0,0.2C19.5,51.3,19.6,51.3,19.6,51.3z M18.9,49.6c-0.1,0-0.2,0-0.3-0.1
				c-0.1-0.1-0.1-0.2-0.1-0.3s0-0.2,0.1-0.3s0.2-0.1,0.3-0.1c0.1,0,0.2,0,0.3,0.1c0.1,0.1,0.1,0.2,0.1,0.3s0,0.2-0.1,0.3
				C19.1,49.6,19,49.6,18.9,49.6z"/>
			<path class="st6" d="M20,52v-0.7h0.7v-1.8l0.8-0.4v1.1c0.3-0.2,0.6-0.3,0.9-0.3c0.4,0,0.7,0.1,0.9,0.4c0.2,0.2,0.3,0.5,0.3,0.8
				v0.1c0,0.3-0.1,0.5-0.3,0.7C23.1,52,22.9,52,22.7,52H20z M21.4,51.3h1.2c0.1,0,0.1,0,0.1,0s0-0.1,0-0.2l0,0c0-0.1,0-0.3-0.1-0.4
				c-0.1-0.1-0.2-0.1-0.3-0.1c-0.2,0-0.4,0.1-0.5,0.2S21.5,51.1,21.4,51.3z"/>
			<path class="st6" d="M26.4,51.3V52H26c0,0.3-0.2,0.5-0.4,0.7c-0.2,0.1-0.4,0.2-0.7,0.2c-0.2,0-0.4-0.1-0.6-0.2V52
				c0.2,0.1,0.4,0.2,0.5,0.2s0.2,0,0.2-0.1c0.1,0,0.1-0.1,0.1-0.2c-0.1,0-0.1,0-0.2,0c-0.3,0-0.5-0.2-0.7-0.4
				c-0.1-0.2-0.2-0.4-0.2-0.6c0-0.3,0.1-0.6,0.3-0.8c0.2-0.2,0.4-0.3,0.7-0.3c0.3,0,0.5,0.1,0.7,0.3c0.1,0.2,0.2,0.4,0.2,0.6v0.6
				H26.4z M25.2,50.8c0-0.1-0.1-0.2-0.2-0.2c-0.2,0-0.2,0.1-0.2,0.3s0.1,0.3,0.2,0.3h0.1c0,0,0,0,0.1,0V50.8z"/>
			<path class="st6" d="M26.3,52v-0.7h0.2c0.1,0,0.2,0,0.2-0.1c0,0,0.1-0.1,0.1-0.2v-1.5l0.8-0.4V51c0,0.3-0.1,0.6-0.3,0.8
				C27.1,52,26.9,52,26.6,52H26.3z"/>
			<path class="st6" d="M28.4,52v-2.5l0.8-0.4V52H28.4z"/>
			<path class="st6" d="M31.6,51.3c0-0.1,0-0.2,0-0.4c0-0.3,0.1-0.6,0.3-0.8s0.4-0.3,0.7-0.3s0.5,0.1,0.7,0.3
				c0.1,0.2,0.2,0.4,0.2,0.6v0.6c0,0.5-0.3,0.7-0.9,0.7l0,0h-0.7c-0.1,0-0.1,0-0.2,0c0,0,0,0.1,0,0.2V53l-0.8,0.4v-1.3
				c0-0.3,0.1-0.5,0.2-0.6C31.2,51.4,31.4,51.3,31.6,51.3z M32.6,51.2v-0.5c0-0.1,0-0.1-0.1-0.1s-0.2,0.1-0.2,0.3
				c0,0.3,0.1,0.4,0.2,0.4C32.6,51.3,32.6,51.3,32.6,51.2z"/>
			<path class="st6" d="M36.3,51.3V52h-0.5c0,0.3-0.2,0.5-0.4,0.7c-0.2,0.1-0.4,0.2-0.7,0.2c-0.2,0-0.4-0.1-0.6-0.2V52
				c0.2,0.1,0.4,0.2,0.5,0.2s0.2,0,0.2-0.1c0.1,0,0.1-0.1,0.1-0.2c-0.1,0-0.1,0-0.2,0c-0.3,0-0.5-0.2-0.7-0.4c0.1-0.1,0-0.3,0-0.5
				c0-0.3,0.1-0.6,0.3-0.8s0.4-0.3,0.7-0.3s0.5,0.1,0.7,0.3c0.1,0.2,0.2,0.4,0.2,0.6v0.6L36.3,51.3L36.3,51.3z M35.1,50.8
				c0-0.1-0.1-0.2-0.2-0.2c-0.2,0-0.2,0.1-0.2,0.3s0.1,0.3,0.2,0.3H35c0,0,0,0,0.1,0C35.1,51.2,35.1,50.8,35.1,50.8z"/>
			<path class="st6" d="M36.5,52.4c0.1,0,0.2,0,0.3,0.1s0.1,0.2,0.1,0.3s0,0.2-0.1,0.3s-0.2,0.1-0.3,0.1s-0.2,0-0.3-0.1
				s-0.1-0.2-0.1-0.3s0-0.2,0.1-0.3S36.4,52.4,36.5,52.4z M37.8,51.3h0.4V52h-0.5c-0.2,0-0.4,0-0.5-0.1C37.1,52,36.9,52,36.7,52
				h-0.5v-0.7h0.4c0.1,0,0.1,0,0.2,0c0,0,0-0.1,0-0.2v-0.7l0.8-0.4v1.1c0,0.1,0,0.1,0,0.2C37.7,51.3,37.7,51.3,37.8,51.3z
				 M37.4,52.4c0.1,0,0.2,0,0.3,0.1s0.1,0.2,0.1,0.3s0,0.2-0.1,0.3s-0.2,0.1-0.3,0.1s-0.2,0-0.3-0.1C37,53,37,52.9,37,52.8
				s0-0.2,0.1-0.3C37.2,52.4,37.3,52.4,37.4,52.4z"/>
			<path class="st6" d="M38.2,52v-0.7h0.2c0.1,0,0.2,0,0.2-0.1c0,0,0.1-0.1,0.1-0.2v-1.5l0.8-0.4V51c0,0.3-0.1,0.6-0.3,0.8
				S38.7,52,38.4,52H38.2z"/>
			<path class="st6" d="M40.3,52v-2.5l0.8-0.4V52H40.3z"/>
		</g>
		<g>
			<path class="st6" d="M44.1,56.8l0.4-0.6c0.2,0.2,0.5,0.2,0.8,0.2c0.4,0,0.5-0.1,0.5-0.4c0-0.2-0.2-0.3-0.7-0.5
				c-0.6-0.2-1-0.6-1-1.1c0-0.3,0.1-0.6,0.4-0.8c0.2-0.2,0.5-0.3,0.9-0.3s0.8,0.1,1.2,0.4c-0.1,0.1-0.2,0.3-0.4,0.6
				c-0.4-0.1-0.6-0.2-0.9-0.2c-0.3,0-0.4,0.1-0.4,0.3c0,0.1,0.2,0.3,0.6,0.5c0.4,0.2,0.7,0.3,0.8,0.5c0.2,0.2,0.3,0.4,0.3,0.6
				c0,0.4-0.1,0.7-0.4,0.9c-0.2,0.2-0.5,0.3-0.9,0.3C45,57.3,44.6,57.1,44.1,56.8z"/>
			<path class="st6" d="M47.5,57.2v-3.7c0,0,0.2,0,0.5,0s0.5,0,0.6,0c1,0,1.4,0.4,1.4,1.2c0,0.5-0.2,0.9-0.5,1.1
				C49.3,55.9,49,56,48.8,56c-0.1,0-0.2,0-0.3,0s-0.1,0-0.1,0v1.3L47.5,57.2L47.5,57.2z M48.4,55.2c0.1,0,0.2,0.1,0.3,0.1
				s0.2-0.1,0.3-0.2c0.1-0.1,0.1-0.2,0.1-0.4c0-0.3-0.1-0.5-0.4-0.5l0,0c-0.1,0-0.2,0-0.3,0C48.4,54.2,48.4,55.2,48.4,55.2z"/>
			<path class="st6" d="M51.6,53.5v3.7h-0.9v-3.7H51.6z"/>
			<path class="st6" d="M52.4,57.2v-3.7c0,0,0.2,0,0.5,0s0.5,0,0.6,0c1,0,1.4,0.4,1.4,1.2c0,0.4-0.1,0.8-0.4,1.1
				c0.2,0.4,0.4,0.9,0.7,1.5h-0.9c-0.2-0.4-0.4-0.9-0.6-1.3c-0.1,0-0.1,0-0.1,0c-0.1,0-0.2,0-0.3,0v1.3L52.4,57.2L52.4,57.2z
				 M53.3,55.2c0.1,0,0.2,0.1,0.3,0.1c0.2,0,0.4-0.2,0.4-0.6c0-0.3-0.1-0.4-0.4-0.4c-0.2,0-0.3,0-0.3,0V55.2z"/>
			<path class="st6" d="M56.7,53.5v3.7h-0.9v-3.7H56.7z"/>
			<path class="st6" d="M58.3,54.2h-1v-0.7h3v0.7h-1.1v3h-0.9V54.2z"/>
			<path class="st6" d="M63.7,53.4c0.6,0,1,0.2,1.3,0.7c0.2,0.4,0.4,0.8,0.4,1.3c0,0.6-0.2,1-0.5,1.4c-0.3,0.3-0.7,0.5-1.2,0.5
				c-0.6,0-1-0.2-1.3-0.6C62.2,56.4,62,56,62,55.5c0-0.6,0.2-1.1,0.5-1.4C62.8,53.6,63.2,53.4,63.7,53.4z M63.7,56.5
				c0.5,0,0.8-0.4,0.8-1.1c0-0.4-0.1-0.7-0.2-0.9s-0.3-0.3-0.5-0.3c-0.2,0-0.4,0.1-0.6,0.3C63.1,54.7,63,55,63,55.4
				C62.9,56.1,63.2,56.5,63.7,56.5z"/>
			<path class="st6" d="M66,57.2v-3.7h2.5v0.7h-1.6V55h1.3v0.7h-1.3v1.5H66z"/>
			<path class="st6" d="M71.4,54.2h-1v-0.7h3v0.7h-1.1v3h-0.9V54.2z"/>
			<path class="st6" d="M73.9,57.2v-3.7h0.9v1.4h1.5v-1.4h0.9v3.7h-0.9v-1.5h-1.5v1.5H73.9z"/>
			<path class="st6" d="M78,53.5h2.5v0.7h-1.6v0.7h1.3v0.7h-1.3v0.8h1.7v0.7H78V53.5z"/>
			<path class="st6" d="M82.7,53.5h0.9v2.2c0,0.5,0.2,0.8,0.6,0.8s0.6-0.3,0.6-0.8v-2.2h0.9v2.1c0,1.1-0.5,1.6-1.5,1.6
				s-1.5-0.5-1.5-1.6V53.5z"/>
			<path class="st6" d="M86.5,57.2v-3.7h0.7c0.9,1.1,1.5,1.9,1.8,2.3v-2.3h1v3.7h-0.8c-0.6-0.8-1.3-1.5-1.8-2.3v2.3H86.5z"/>
			<path class="st6" d="M91.7,53.5v3.7h-0.9v-3.7H91.7z"/>
			<path class="st6" d="M94.1,53.4c0.6,0,1,0.2,1.3,0.7c0.2,0.4,0.4,0.8,0.4,1.3c0,0.6-0.2,1-0.5,1.4c-0.3,0.3-0.7,0.5-1.2,0.5
				c-0.6,0-1-0.2-1.3-0.6c-0.2-0.3-0.4-0.7-0.4-1.2c0-0.6,0.2-1.1,0.5-1.4C93.2,53.6,93.6,53.4,94.1,53.4z M94.1,56.5
				c0.5,0,0.8-0.4,0.8-1.1c0-0.4-0.1-0.7-0.2-0.9s-0.3-0.3-0.5-0.3s-0.4,0.1-0.6,0.3c-0.1,0.2-0.2,0.5-0.2,0.9
				C93.3,56.1,93.6,56.5,94.1,56.5z"/>
			<path class="st6" d="M96.4,57.2v-3.7h0.7c0.9,1.1,1.5,1.9,1.8,2.3v-2.3h0.9v3.7H99c-0.6-0.8-1.3-1.5-1.8-2.3v2.3H96.4z"/>
		</g>
		<path class="st6" d="M44.1,50.1l0.5-0.9h0.8c0.1,0,0.2-0.1,0.2-0.2c0-0.3-0.2-0.6-0.5-0.8l0.5-0.8c0.7,0.4,1,0.9,1,1.6
			c0,0.4-0.1,0.7-0.3,0.9c-0.2,0.1-0.4,0.2-0.6,0.2H44.1z"/>
		<path class="st6" d="M81,46.9c-0.1,0-0.3,0-0.3-0.1c-0.1-0.1-0.1-0.2-0.1-0.4s0-0.3,0.1-0.3c0-0.1,0.1-0.1,0.3-0.1s0.3,0,0.3,0.1
			c0.1,0.1,0.1,0.2,0.1,0.3s0,0.3-0.1,0.4C81.2,46.9,81.1,46.9,81,46.9z M80.7,50v-0.9h0.5c0.1,0,0.2,0,0.2-0.1c0,0,0.1-0.1,0.1-0.2
			v-1l1-0.5v1.5c0,0.4-0.1,0.7-0.3,0.9C82,49.9,81.7,50,81.4,50H80.7z M82,46.9c-0.1,0-0.3,0-0.3-0.1c-0.1-0.1-0.1-0.2-0.1-0.4
			s0-0.3,0.1-0.3c0-0.1,0.2-0.1,0.3-0.1s0.3,0,0.3,0.1c0.1,0.1,0.1,0.2,0.1,0.3s0,0.3-0.1,0.4C82.3,46.9,82.1,46.9,82,46.9z"/>
		<path class="st6" d="M85.8,46.8l1-0.5v2.4c0,0.4-0.1,0.7-0.4,1c-0.2,0.2-0.5,0.3-0.9,0.3h-2.4l0.5-0.9h0.7v-1.5l1-0.5v2.1h0.2
			c0.1,0,0.2,0,0.3-0.1c0.1-0.1,0.1-0.2,0.1-0.3L85.8,46.8L85.8,46.8z"/>
		<path class="st6" d="M87.8,50v-3.2l1-0.5V50H87.8z"/>
		<path class="st6" d="M93.9,51.9c-0.4,0.2-0.8,0.3-1.2,0.3c-0.5,0-0.9-0.1-1.2-0.4c-0.3-0.3-0.4-0.7-0.4-1.2s0.1-0.9,0.4-1.2
			c0.2-0.2,0.6-0.4,1.2-0.5c0.2-0.1,0.4-0.1,0.5-0.1c-0.2-0.3-0.5-0.5-0.8-0.5s-0.6,0.2-1,0.5V48c0.3-0.4,0.7-0.6,1.2-0.6l0,0
			c0.3,0,0.6,0.1,0.9,0.3s0.6,0.5,0.8,1V49c-0.1,0.2-0.2,0.4-0.4,0.5c-0.2,0.1-0.5,0.2-0.9,0.3s-0.6,0.2-0.8,0.3
			C92,50.2,92,50.4,92,50.7c0,0.5,0.3,0.7,0.8,0.7l0,0c0.4,0,0.7-0.1,1.1-0.3V51.9z"/>
		<path class="st6" d="M96.3,49.9c0,0-0.1,0-0.2,0c-0.4,0-0.7-0.1-0.9-0.4C95.1,49.2,95,49,95,48.7c0-0.4,0.1-0.8,0.4-1
			c0.2-0.2,0.5-0.3,0.9-0.3s0.6,0.1,0.8,0.3c0.2,0.2,0.3,0.5,0.3,0.8v1.2c0,0.5-0.2,0.9-0.5,1.2c-0.2,0.2-0.5,0.3-0.9,0.3
			c-0.3,0-0.5-0.1-0.8-0.2v-0.8c0.3,0.1,0.5,0.2,0.7,0.2C96.1,50.3,96.3,50.1,96.3,49.9z M96.3,48.4c0-0.1-0.1-0.2-0.2-0.2
			c-0.2,0-0.3,0.1-0.3,0.4c0,0.3,0.1,0.4,0.3,0.4c0.1,0,0.1,0,0.1,0L96.3,48.4L96.3,48.4z"/>
		<path class="st6" d="M99.9,49.6c0,0.3-0.1,0.6-0.2,0.9c-0.1,0.3-0.3,0.4-0.6,0.6c-0.2,0.1-0.4,0.1-0.6,0.1c-0.3,0-0.5-0.1-0.8-0.2
			v-0.8c0.2,0.1,0.4,0.2,0.6,0.2c0.1,0,0.1,0,0.2,0c0.2-0.1,0.3-0.3,0.3-0.6V48l1-0.5L99.9,49.6L99.9,49.6z"/>
		<path class="st6" d="M80.3,49.1c-0.2,0-0.4,0-0.5-0.1c0.1-0.1,0.1-0.1,0.1-0.2v-0.3c-0.2-0.4-0.5-0.7-0.8-1
			c-0.3-0.2-0.6-0.3-0.9-0.3l0,0c-0.4,0-0.8,0.2-1.2,0.6v0.8c0.4-0.3,0.7-0.5,1-0.5s0.5,0.2,0.8,0.5C78.4,48.9,78,49,77.4,49h-0.8
			H49.5H49c-0.1,0-0.2,0-0.2-0.1c0,0-0.1-0.1-0.1-0.2v-2.6l-1,0.5v2.1c0,0.3,0.1,0.6,0.3,0.8s0.5,0.3,0.9,0.3h0.6h27.2h0.8
			c0.6,0,1.1-0.1,1.6-0.4c0.2,0.2,0.3,0.3,0.5,0.3C79.8,50,80,50,80.3,50h0.5v-0.9H80.3z"/>
	</g>
	<g>
		<path class="st6" d="M4.2,57.3c-0.4,0-0.7,0-1-0.1s-0.7-0.2-1-0.3s-0.6-0.3-0.8-0.5L2,55c0.4,0.3,0.7,0.5,1.1,0.6s0.7,0.2,1.1,0.2
			s0.8-0.1,1-0.3s0.4-0.5,0.4-0.9s-0.1-0.7-0.3-0.9c-0.2-0.2-0.5-0.3-0.9-0.3c-0.3,0-0.6,0.1-0.8,0.2S3,53.7,2.8,53.9H1.7v-5.2h5.1
			v1.5H3.3v2.3H2.9c0.2-0.3,0.4-0.5,0.8-0.6c0.3-0.1,0.7-0.2,1-0.2c0.5,0,1,0.1,1.3,0.3c0.4,0.2,0.7,0.5,0.9,0.9s0.3,0.9,0.3,1.4
			c0,0.6-0.1,1.1-0.4,1.5c-0.2,0.4-0.6,0.8-1,1S4.8,57.3,4.2,57.3z"/>
		<path class="st6" d="M8.7,57.2v-1.5h1.8v-5.4h0.8l-2.4,1.5V50l2.1-1.3h1.2v7H14v1.5H8.7z"/>
	</g>
</g>
</svg>
