<?xml version="1.0" encoding="utf-8"?>
<!-- Generator: Adobe Illustrator 21.0.0, SVG Export Plug-In . SVG Version: 6.00 Build 0)  -->
<svg version="1.1" id="Layer_1" xmlns="http://www.w3.org/2000/svg" xmlns:xlink="http://www.w3.org/1999/xlink" x="0px" y="0px"
	 viewBox="0 0 652.9 545.2" style="enable-background:new 0 0 652.9 545.2;" xml:space="preserve">
<style type="text/css">
	.st0{fill:#EAEAEA;}
	.st1{fill:#E5E5E4;}
	.st2{fill:#F0EFEF;}
	.st3{fill:#F9FAFB;}
	.st4{fill:#FFFFFF;}
	.st5{opacity:0.5;fill:#DFDFDF;enable-background:new    ;}
	.st6{fill:#DFDFDF;}
	.st7{fill:#F4F5F5;}
	.st8{fill:#DCA952;}
	.st9{opacity:0.3;fill:#FFFFFF;enable-background:new    ;}
	.st10{opacity:0.5;}
	.st11{opacity:0.2;enable-background:new    ;}
	.st12{fill:#FAB374;}
	.st13{fill:#263238;}
	.st14{opacity:0.3;enable-background:new    ;}
	.st15{fill:#EB873E;}
</style>
<g>
	<g id="freepik--background-complete--inject-47">
		<rect x="531.3" y="476.3" class="st0" width="40.3" height="0.3"/>
		<rect x="416.5" y="479.9" class="st0" width="10.6" height="0.3"/>
		<rect x="506.7" y="464.3" class="st0" width="23.4" height="0.3"/>
		<rect x="87.5" y="466.5" class="st0" width="52.6" height="0.3"/>
		<rect x="151" y="466.5" class="st0" width="7.7" height="0.3"/>
		<rect x="183.7" y="471.9" class="st0" width="114.1" height="0.3"/>
		<path class="st0" d="M312.3,397.7H77.1c-3.8,0-6.9-3.3-6.9-7.4V38.5c0-4.1,3.1-7.3,6.9-7.3h235.2c3.8,0,7,3.3,7,7.4v0v351.7
			C319.3,394.4,316.2,397.7,312.3,397.7z M77.1,31.5c-3.7,0-6.6,3.2-6.6,7.1v351.7c0,3.9,3,7.1,6.6,7.1h235.2c3.7,0,6.6-3.2,6.7-7.1
			V38.5c0-3.9-3-7.1-6.7-7.1H77.1z"/>
		<path class="st0" d="M575.8,397.7H340.6c-3.8,0-6.9-3.3-7-7.4V38.5c0-4.1,3.1-7.3,7-7.3h235.3c3.8,0,6.9,3.3,6.9,7.3v351.7
			C582.8,394.4,579.7,397.7,575.8,397.7z M340.6,31.5c-3.7,0-6.6,3.2-6.7,7.1v351.7c0,3.9,3,7.1,6.7,7.1h235.3
			c3.7,0,6.6-3.2,6.7-7.1V38.5c0-3.9-3-7.1-6.7-7.1H340.6z"/>
		<rect x="301.5" y="63.3" class="st1" width="237.3" height="221.7"/>
		<rect x="304.4" y="63.3" class="st2" width="240.6" height="221.7"/>
		<rect x="301.5" y="285" class="st1" width="237.3" height="6.1"/>
		<rect x="314.7" y="285" class="st2" width="240.6" height="6.1"/>
		<rect x="313.1" y="72.5" class="st3" width="223.3" height="203.3"/>
		<polygon class="st4" points="343,275.8 367.6,72.5 410.2,72.5 385.6,275.8 		"/>
		<polygon class="st4" points="394.7,275.8 419.4,72.5 436,72.5 411.4,275.8 		"/>
		<rect x="535.3" y="72.5" class="st1" width="1.1" height="203.3"/>
		<polygon class="st5" points="547.1,91.9 309.8,91.9 309,76.1 546.3,76.1 		"/>
		<polygon class="st5" points="547.1,117.9 309.8,117.9 309,102.1 546.3,102.1 		"/>
		<polygon class="st5" points="547.1,143.8 309.8,143.8 309,128 546.3,128 		"/>
		<polygon class="st5" points="547.1,169.8 309.8,169.8 309,154 546.3,154 		"/>
		<polygon class="st5" points="547.1,195.7 309.8,195.7 309,179.9 546.3,179.9 		"/>
		<polygon class="st5" points="547.1,221.7 309.8,221.7 309,205.9 546.3,205.9 		"/>
		<rect x="95" y="109.9" class="st6" width="74.1" height="155.9"/>
		<rect x="98" y="109.9" class="st7" width="75.6" height="155.9"/>
		<rect x="104.3" y="118.9" class="st4" width="62.9" height="137.9"/>
		<rect x="194" y="86.1" class="st6" width="74.1" height="155.9"/>
		<rect x="196.9" y="86.1" class="st7" width="75.6" height="155.9"/>
		<rect x="203.3" y="95.1" class="st4" width="62.9" height="137.9"/>
		<rect x="223.8" y="311.8" class="st1" width="31.2" height="143.7"/>
		<polygon class="st2" points="249,455.5 255,455.5 255,440.8 242.8,440.8 		"/>
		<rect x="107.1" y="311.8" class="st1" width="31.2" height="143.7"/>
		<rect x="133.2" y="311.8" class="st2" width="121.8" height="134.7"/>
		<rect x="196" y="320.7" class="st1" width="54.3" height="107.5"/>
		<rect x="137.8" y="320.7" class="st1" width="54.3" height="107.5"/>
		<path class="st2" d="M170.3,324.9h-10.7c-4.5,0-8.9-1.6-12.3-4.7h35.4C179.2,323.2,174.8,324.9,170.3,324.9z"/>
		<path class="st2" d="M229.1,324.9h-10.7c-4.5,0-8.9-1.6-12.3-4.7h35.4C238,323.2,233.6,324.9,229.1,324.9z"/>
		<polygon class="st2" points="139.1,455.5 133.2,455.5 133.2,440.8 145.3,440.8 		"/>
		<path class="st1" d="M161.8,298.1c0,0,0.9,13.7,36.4,13.7s36.4-13.7,36.4-13.7H161.8z"/>
		<rect x="301.7" y="335.8" class="st0" width="266.6" height="23.7"/>
		<rect x="301.7" y="335.8" class="st6" width="75.7" height="23.7"/>
		<rect x="552.4" y="359.5" class="st0" width="16" height="95.9"/>
		<polygon class="st6" points="552.4,366.2 568.3,362.9 568.3,359.5 552.4,359.5 		"/>
		<rect x="301.7" y="359.5" class="st6" width="16" height="95.9"/>
		<rect x="361.5" y="359.5" class="st0" width="16" height="95.9"/>
		<polygon class="st6" points="361.5,366.2 377.4,362.9 377.4,359.5 361.5,359.5 		"/>
		<rect x="502.4" y="359.5" class="st6" width="16" height="95.9"/>
	</g>
	<g id="freepik--Shadow--inject-47">
		<ellipse id="freepik--path--inject-47" class="st7" cx="328.1" cy="499.3" rx="236.2" ry="14.7"/>
	</g>
	<g id="freepik--Smartphone--inject-47">
		<path class="st8" d="M306.8,127.5H161.5c-9.2-0.1-16.7,7.7-16.8,17.5c0,0.5,0,1,0,1.5l20.8,329.7c0.8,10.6,9.1,18.9,19.1,19h145.3
			c9.2,0.1,16.7-7.7,16.8-17.4c0-0.5,0-1.1-0.1-1.6L326,146.5C325.1,135.9,316.9,127.7,306.8,127.5z"/>
		<path class="st9" d="M306.8,127.5H161.5c-9.2-0.1-16.7,7.7-16.8,17.5c0,0.5,0,1,0,1.5l20.8,329.7c0.8,10.6,9.1,18.9,19.1,19h145.3
			c9.2,0.1,16.7-7.7,16.8-17.4c0-0.5,0-1.1-0.1-1.6L326,146.5C325.1,135.9,316.9,127.7,306.8,127.5z"/>
		<polygon class="st8" points="143.8,198.2 145,198.2 146.9,229.3 145.7,229.3 		"/>
		<polygon class="st8" points="146.8,245.7 148,245.6 148.9,259.5 147.7,259.6 		"/>
		<path class="st8" d="M176.2,479.6c0.2,2.9-1.8,5.4-4.4,5.6c-2.2,0.2-4.3-1.2-5-3.4c-0.6-1.8-1-3.6-1.1-5.5l-20.8-329.7
			c-0.1-1.9,0-3.7,0.4-5.5c0.6-2.8,3.1-4.6,5.8-4c2.2,0.5,3.8,2.5,3.9,4.8L176.2,479.6z"/>
		<path class="st4" d="M330.1,489.1h-135c-6.9-0.2-12.6-5.9-13.3-13.2L161,146.2c-0.5-6.3,3.8-11.8,9.7-12.4c0.4,0,0.8-0.1,1.1,0
			h135c6.9,0.2,12.6,5.9,13.3,13.2l20.8,329.7c0.5,6.3-3.9,11.8-9.8,12.4C330.8,489.1,330.5,489.1,330.1,489.1L330.1,489.1z
			 M171.8,135.2c-5.2-0.1-9.5,4.3-9.6,9.8c0,0.4,0,0.7,0,1.1l20.8,329.6c0.6,6.6,5.7,11.8,12,11.9h135c5.2,0.1,9.5-4.3,9.6-9.8
			c0-0.4,0-0.7,0-1.1l-20.8-329.7c-0.6-6.6-5.7-11.8-12-11.9L171.8,135.2z"/>
		<g class="st10">
			<path class="st8" d="M208.3,194.7c20.6-23.2,57-22.1,81.4,2.4c24.3,24.5,27.4,63.1,6.8,86.3c-20.6,23.2-57,22.1-81.4-2.4
				S187.7,217.9,208.3,194.7z"/>
			<path class="st4" d="M217.1,203.6c16.5-18.5,45.6-17.7,65.1,1.9c19.5,19.6,21.9,50.5,5.4,69c-16.5,18.5-45.6,17.7-65.1-1.9
				S200.7,222.1,217.1,203.6z"/>
			<path class="st8" d="M225.9,212.5c12.4-13.9,34.2-13.2,48.8,1.4c14.6,14.7,16.4,37.9,4.1,51.8c-12.4,13.9-34.2,13.2-48.8-1.4
				C215.4,249.6,213.6,226.4,225.9,212.5z"/>
			<path class="st4" d="M234.8,221.3c8.2-9.3,22.8-8.8,32.5,1c9.7,9.8,11,25.2,2.7,34.5c-8.2,9.3-22.8,8.8-32.5-1
				S226.5,230.6,234.8,221.3z"/>
			<path class="st8" d="M243.6,230.2c4.1-4.6,11.4-4.4,16.3,0.5s5.5,12.6,1.4,17.3c-4.1,4.6-11.4,4.4-16.3-0.5
				C240.1,242.6,239.4,234.9,243.6,230.2z"/>
		</g>
		<path class="st4" d="M263.4,322.1c-0.2,0-0.4,0-0.6,0c-3.4-7-10.2-11.4-17.6-11.5c-1.9,0-3.7,0.3-5.5,0.9
			c-3.6-7-10.4-11.3-17.8-11.4c-9.6-0.2-17.6,8-17.7,18.3c0,0,0,0,0,0.1c-7.5,0.5-13.3,7.3-12.8,15.3c0,0.1,0,0.3,0,0.4
			c0.7,8.8,7.5,15.7,15.8,15.8h58c6.7,0.1,12.1-5.6,12.2-12.7c0-0.4,0-0.8,0-1.2C276.8,328.3,270.8,322.3,263.4,322.1z"/>
		<path class="st4" d="M300.4,171.4h-0.5c-2.7-5.5-7.9-8.9-13.7-9c-1.5,0-2.9,0.2-4.3,0.7c-2.8-5.4-8.1-8.8-13.9-8.9
			c-7.5-0.1-13.7,6.3-13.8,14.3c-5.9,0.4-10.3,5.7-10,12c0,0.1,0,0.2,0,0.3c0.5,6.9,5.9,12.2,12.3,12.3h45.2
			c5.2,0.1,9.5-4.3,9.5-9.9c0-0.3,0-0.7,0-1C310.8,176.1,306.1,171.4,300.4,171.4z"/>
		<path class="st9" d="M318.4,373.1h-83.5c-2.4,0-4.4,2-4.4,4.6c0,0.1,0,0.3,0,0.4l3.4,53c0.2,2.8,2.4,5,5,5h11.2l0.9,14.7
			l12.8-14.7h58.5c2.4,0,4.4-2,4.4-4.5c0-0.2,0-0.3,0-0.5l-3.4-53C323.1,375.4,321,373.2,318.4,373.1z"/>
		<polygon class="st4" points="317.8,408 240,408 239.5,401.3 317.3,401.3 		"/>
		<polygon class="st4" points="294,421.9 240.8,421.9 240.4,415.2 293.6,415.2 		"/>
		<polygon class="st4" points="316.9,394.1 239.1,394.1 238.6,387.4 316.5,387.4 		"/>
	</g>
	<g id="freepik--Character--inject-47">
		<path class="st8" d="M383.8,149.1l3.2,2.4c1.1,0.9,2.2,1.7,3.4,2.4c2.3,1.6,4.5,3.2,6.8,4.6s4.6,2.8,6.9,4
			c2.1,1.2,4.4,2.1,6.7,2.9c-0.5-0.1-1-0.2-1.5-0.1c-0.3,0-0.6,0.1-0.9,0.3c-0.4,0.2-0.2,0.2-0.1,0.1c0.7-0.5,1.3-1.1,1.9-1.8
			c1.6-2,3.1-4.2,4.3-6.5c1.4-2.4,2.8-4.9,4.1-7.5c1.3-2.6,2.6-5.2,3.8-7.8l0.1-0.2c1.4-2.9,4.7-4,7.4-2.6c2.3,1.3,3.5,4.1,2.8,6.8
			c-1.7,6.2-3.8,12.2-6.3,18c-1.4,3.1-3,6.2-4.8,9c-1.1,1.8-2.5,3.4-4,4.8c-1.1,1-2.4,1.9-3.7,2.5c-1,0.4-2,0.7-3,0.8
			c-1.2,0.1-2.5,0.1-3.7-0.2c-3.3-0.8-6.4-1.9-9.5-3.3c-2.9-1.3-5.7-2.7-8.5-4.2c-2.7-1.5-5.3-3.1-7.9-4.8c-1.3-0.9-2.5-1.7-3.8-2.6
			c-1.3-0.9-2.4-1.8-3.8-2.8c-3.5-3.4-3.7-9.1-0.5-12.8c2.7-3.1,7-3.8,10.5-1.7L383.8,149.1z"/>
		<path class="st11" d="M383.8,149.1l3.2,2.4c1.1,0.9,2.2,1.7,3.4,2.4c2.3,1.6,4.5,3.2,6.8,4.6s4.6,2.8,6.9,4
			c2.1,1.2,4.4,2.1,6.7,2.9c-0.5-0.1-1-0.2-1.5-0.1c-0.3,0-0.6,0.1-0.9,0.3c-0.4,0.2-0.2,0.2-0.1,0.1c0.7-0.5,1.3-1.1,1.9-1.8
			c1.6-2,3.1-4.2,4.3-6.5c1.4-2.4,2.8-4.9,4.1-7.5c1.3-2.6,2.6-5.2,3.8-7.8l0.1-0.2c1.4-2.9,4.7-4,7.4-2.6c2.3,1.3,3.5,4.1,2.8,6.8
			c-1.7,6.2-3.8,12.2-6.3,18c-1.4,3.1-3,6.2-4.8,9c-1.1,1.8-2.5,3.4-4,4.8c-1.1,1-2.4,1.9-3.7,2.5c-1,0.4-2,0.7-3,0.8
			c-1.2,0.1-2.5,0.1-3.7-0.2c-3.3-0.8-6.4-1.9-9.5-3.3c-2.9-1.3-5.7-2.7-8.5-4.2c-2.7-1.5-5.3-3.1-7.9-4.8c-1.3-0.9-2.5-1.7-3.8-2.6
			c-1.3-0.9-2.4-1.8-3.8-2.8c-3.5-3.4-3.7-9.1-0.5-12.8c2.7-3.1,7-3.8,10.5-1.7L383.8,149.1z"/>
		<path class="st12" d="M425.4,139.9l3.3-5.9l6.3,7.3c-0.9,2.1-2.6,3.8-4.6,4.6c-0.9,0.3-2,0.2-2.8-0.4l-1.2-0.8
			C425,143.6,424.5,141.5,425.4,139.9z"/>
		<path class="st12" d="M437.7,130.4l1.4,0.9c1.6,1,2,3.2,1.1,4.9c-0.2,0.3-0.4,0.6-0.6,0.8l-4.5,4.3l-6.3-7.3l5.5-3.6
			C435.3,129.7,436.6,129.7,437.7,130.4z"/>
		<polygon class="st12" points="306.2,488.8 315.9,489.1 319.5,465.3 309.9,465 		"/>
		<path class="st13" d="M317.4,486.2l-10.8-1.5c-0.4-0.1-0.7,0.2-0.8,0.6l-1.6,9c-0.1,1,0.5,1.9,1.5,2c3.8,0.4,5.6,0.4,10.3,1.1
			c2.9,0.4,10.5,2.3,14.5,1.8c4-0.5,3.4-4.7,1.7-4.9c-7.9-0.7-10.8-4.7-13.2-7.3C318.6,486.6,318,486.3,317.4,486.2z"/>
		<polygon class="st11" points="309.9,465.1 319.5,465.4 317.6,477.6 308,477.3 		"/>
		<path class="st13" d="M362.6,237.2c0,0-8.4,85-14,113.9c-6.1,31.6-25.8,124.1-25.8,124.1l-17.7-1.4c0,0,9.7-95.7,17.6-126.7
			c0-32.2,7.3-122.3,7.3-122.3L362.6,237.2z"/>
		<path class="st14" d="M334.5,266c-0.2-6.6-3.5-8.8-6.9-8.7c-1.2,16-2.5,35.6-3.5,53.3C330,300.3,334.9,284.4,334.5,266z"/>
		<polygon class="st4" points="304.6,474 323.5,475.5 325.7,467.9 303.9,467.7 		"/>
		<polygon class="st12" points="208.4,409.1 214.5,417.1 232.7,403.2 226.6,395.2 		"/>
		<path class="st13" d="M215.8,417.2l-5.4-10c-0.2-0.4-0.6-0.5-0.9-0.3l-7.7,4.1c-0.8,0.5-1.1,1.6-0.6,2.5c1.9,3.5,3,5,5.4,9.4
			c1.5,2.7,5.3,10.5,7.3,14.3c2,3.8,5.4,1.5,4.9-0.3c-2.4-8-3.1-14.1-2.6-17.7C216.2,418.4,216.1,417.7,215.8,417.2z"/>
		<polygon class="st11" points="226.6,395.2 232.7,403.2 223.3,410.4 217.2,402.4 		"/>
		<path class="st13" d="M345,229.9c0,0-23.7,72.3-34.5,99.4c-11.8,29.7-82.4,82.6-82.4,82.6l-11.1-14.6c0,0,48-51.1,65.8-75.4
			c9.9-33,30.9-103.9,30.9-103.9L345,229.9z"/>
		<polygon class="st4" points="216.5,396.7 228.5,412.5 234.4,408.9 220.3,392.2 		"/>
		<path class="st2" d="M362.5,237.7L313.6,218c1.2-4.8,7.6-18.7,13.3-38.2c4.3-14.4,7.4-29.1,9.4-44.1l0,0c0.2-1.8,1.7-3,3.4-2.8
			c0.1,0,0.1,0,0.2,0c0.9,0.2,2,0.4,3.2,0.6c3.1,0.7,6.9,1.6,10.6,2.8c7,2.2,14,4.8,20.7,7.9c2.3,1.1,4.5,2.3,6.6,3.7
			c1.3,0.8,2.4,1.7,3.5,2.8c0.8,0.7,1.3,1.6,1.4,2.7C385.7,160.8,378.7,189.6,362.5,237.7z"/>
		<path class="st12" d="M373.3,143.8c-5.5-3.8-5.2-8.2-3.4-12.4c0.5-1,1-2,1.6-3l-5.3-9.5l-3.9-7c-0.9,7.7-3.5,21.3-9.6,24.3
			c3.3,5,8.1,8.7,13.6,10.6C375.3,149.7,373.3,143.8,373.3,143.8z"/>
		<polygon class="st6" points="366,146.6 365.9,144.2 359.8,145.4 		"/>
		<polygon class="st6" points="366,146.6 367.1,144.6 371.1,149.7 		"/>
		<path class="st4" d="M353.6,135c3.7,3.6,7.8,6.7,12.3,9.2c-2.4,1.6-4.8,5.8-5.6,9.3c-2-1.5-9.9-15.3-11-19.1L353.6,135z"/>
		<path class="st4" d="M372.2,142.3c-1.4,1.3-3.2,2.1-5.1,2.3c1.3,2,2.4,7.3,2.4,10.4c2.3-1.6,5.8-7.1,6.4-9.6L372.2,142.3z"/>
		<path class="st14" d="M372.4,142.1c0,0,5.3,2.7,10,5.8c4,2.6,5.8,7.7,4.6,12.4c-5.8,21.8-13.7,43.1-16.9,54.9
			c-3.4,12.6-8.2,28.4-8.2,28.4l-8.3,2.1C353.5,245.7,374.3,161.1,372.4,142.1z"/>
		<path class="st14" d="M353.5,134c0,0-7.2-1-13.4-1.3c-4.5-0.2-8.6,3-9.7,7.6c-3.2,13.3-5.5,38.8-8.7,48.7
			c-4,12.4-9.4,36.5-9.4,36.5l28.3,17.4C340.6,243,369.3,149.5,353.5,134z"/>
		<path class="st8" d="M353.5,134c0,0-7.2-1-13.4-1.3c-4.5-0.2-8.6,3-9.7,7.6c-3.2,13.3-7.5,38.2-10.7,48.1
			c-4,12.4-12.5,33.4-12.5,33.4l35.7,17.8C342.9,239.7,369.3,149.5,353.5,134z"/>
		<path class="st11" d="M353.5,134c0,0-7.2-1-13.4-1.3c-4.5-0.2-8.6,3-9.7,7.6c-3.2,13.3-7.5,38.2-10.7,48.1
			c-4,12.4-12.5,33.4-12.5,33.4l35.7,17.8C342.9,239.7,369.3,149.5,353.5,134z"/>
		<path class="st8" d="M372.4,142.1c0,0,5.3,2.7,10,5.8c4,2.6,5.8,7.7,4.6,12.4c-5.8,21.8-10.4,44.7-12.7,56.8
			c-2.4,12.8-5,24.5-5,24.5l-13.4,1.9C355.9,243.6,374.3,161.1,372.4,142.1z"/>
		<path class="st11" d="M372.4,142.1c0,0,5.3,2.7,10,5.8c4,2.6,5.8,7.7,4.6,12.4c-5.8,21.8-10.4,44.7-12.7,56.8
			c-2.4,12.8-5,24.5-5,24.5l-13.4,1.9C355.9,243.6,374.3,161.1,372.4,142.1z"/>
		<path class="st11" d="M371.5,128.4c-0.6,1-1.1,2-1.6,3.1c-2.6-1.7-5.3-6.3-4.7-9.5c0.2-1.1,0.5-2.1,0.9-3.1L371.5,128.4z"/>
		<path class="st13" d="M379,89.1c6.5,0.9,8.9,10.2,5.3,16.3C378.4,96.4,379,89.1,379,89.1z"/>
		<path class="st12" d="M358.9,106.3c2.2,10,3,15.9,8.6,20.4c5.5,4.5,13.3,3.4,17.5-2.5c1.5-2.1,2.4-4.7,2.6-7.4
			c0.6-9.3-3.1-24.1-13-26.7c-6.7-2-13.7,2.1-15.6,9.3C358.3,101.6,358.3,104,358.9,106.3z"/>
		<path class="st13" d="M361.8,115.1c5.6,0.2,4.8-9.8,2.3-13.5c7.8,1.3,20.8-6.1,22.1-13.7c1.9-11.2-14.1-11.2-19.3-7.6
			c2.2,0.2,3.4,2.2,2.8,3.2c0,0-7.7-2.5-12.7,0.4c2.2,0.9,4.5,4.2-3.8,5.3c-7.9,1-5.5,9.5-1.5,9.3c-2.1,3.5-4.7,11.3,0.1,14.7
			s8,7.7,7,9.5C360.4,122.5,364,120.4,361.8,115.1z"/>
		<path class="st13" d="M352.8,97.7c-3.8,0.4-5.9,3.5-6.1,7.8C348.3,102.5,350.4,99.9,352.8,97.7z"/>
		<path class="st12" d="M356.6,115.3c1,2,2.6,3.6,4.6,4.4c2.6,1,4-1.5,3.4-4.2c-0.6-2.5-2.7-6.1-5.4-5.9S355.4,112.7,356.6,115.3z"
			/>
		<path class="st13" d="M373.7,107c0.1,0.8,0.6,1.4,1.1,1.3c0.5-0.1,0.8-0.8,0.7-1.6c-0.1-0.8-0.6-1.4-1.2-1.3
			C373.9,105.5,373.6,106.2,373.7,107z"/>
		<path class="st13" d="M382.4,105.8c0.1,0.8,0.6,1.4,1.1,1.3c0.5-0.1,0.8-0.8,0.7-1.6c-0.1-0.8-0.6-1.4-1.2-1.3
			C382.6,104.3,382.3,104.9,382.4,105.8z"/>
		<path class="st15" d="M379.7,106.6c1.3,2.4,2.9,4.6,4.8,6.5c-1.1,1.5-3.6,1.3-3.6,1.3L379.7,106.6z"/>
		<path class="st13" d="M378.2,117c-1.8,0.1-3.6-0.7-4.9-2.1c-0.1-0.1-0.1-0.2,0-0.3c0.1-0.1,0.2-0.1,0.3,0c0,0,0,0,0,0
			c1.4,1.5,3.4,2.2,5.4,1.8c0.1,0,0.3,0,0.3,0.2c0,0.1,0,0.3-0.1,0.3c0,0-0.1,0-0.1,0C378.8,116.9,378.5,117,378.2,117z"/>
		<path class="st13" d="M375.7,119.7c-1.5-1.2-2.4-2.9-2.7-4.8c0-0.1,0.1-0.2,0.2-0.3c0.1,0,0.2,0.1,0.2,0.2c0,0,0,0,0,0
			c0.3,2.1,1.5,3.9,3.2,5c0.1,0.1,0.1,0.2,0.1,0.3c0,0,0,0,0,0c-0.1,0.1-0.2,0.2-0.3,0.1l0,0C376.2,120,376,119.8,375.7,119.7z"/>
		<path class="st13" d="M370.5,104.4c-0.1,0-0.1,0-0.2,0c-0.2-0.1-0.3-0.4-0.2-0.6c0,0,0,0,0,0c0.7-1.4,1.9-2.4,3.4-2.6
			c0.2,0,0.5,0.2,0.5,0.4c0,0,0,0,0,0c0,0.3-0.2,0.5-0.4,0.5c0,0,0,0,0,0c-1.1,0.2-2.1,0.9-2.6,2
			C370.9,104.3,370.7,104.4,370.5,104.4z"/>
		<path class="st13" d="M385.7,102.1c-0.2,0-0.3-0.1-0.4-0.2c-0.7-1.1-1.7-1.7-2.9-1.8c-0.3,0-0.4-0.3-0.4-0.6
			c0-0.2,0.2-0.4,0.4-0.4l0,0c1.5,0.1,2.8,0.9,3.7,2.2c0.1,0.2,0.1,0.5-0.1,0.7c0,0,0,0,0,0C385.9,102,385.8,102.1,385.7,102.1z"/>
		<path class="st8" d="M342.7,149.5c-2.4,2.1-5,4.5-7.5,6.8c-2.4,2.3-4.9,4.7-7.3,7.1c-4.7,4.6-9.1,9.6-13.2,14.9l-1.4,1.9l-0.2,0.2
			c0-0.1,0.1-0.1,0.1-0.2c0.1-0.1,0.1-0.3,0.2-0.5c0.1-0.3,0.1-0.5,0.1-0.8c0-0.4-0.1-0.4,0-0.2c0.1,0.4,0.2,0.8,0.3,1.2
			c0.5,1.2,1.1,2.4,1.8,3.5c0.8,1.3,1.7,2.6,2.7,3.8c2,2.6,4.2,5.1,6.5,7.5s4.7,4.9,7.1,7.2l0.2,0.1c2.2,2.1,2.4,5.8,0.4,8.2
			c-1.8,2.1-4.8,2.6-7.1,1c-6.1-4.1-11.8-8.9-17.1-14.2c-1.3-1.4-2.6-2.9-3.9-4.5c-1.4-1.8-2.6-3.7-3.7-5.7
			c-0.6-1.2-1.2-2.5-1.5-3.9c-0.5-1.8-0.7-3.7-0.6-5.6c0.1-1.2,0.4-2.3,0.8-3.5c0.2-0.6,0.5-1.1,0.7-1.7l0.4-0.8l0.2-0.3l1.6-2.5
			c4.2-6.3,8.9-12.2,14-17.6c2.4-2.7,5-5.3,7.6-7.9c2.6-2.5,5.2-5,8-7.5c4.1-2.6,9.3-1.1,11.7,3.2
			C345.7,142.1,345.3,146.5,342.7,149.5L342.7,149.5z"/>
		<path class="st11" d="M342.7,149.5c-2.4,2.1-5,4.5-7.5,6.8c-2.4,2.3-4.9,4.7-7.3,7.1c-4.7,4.6-9.1,9.6-13.2,14.9l-1.4,1.9
			l-0.2,0.2c0-0.1,0.1-0.1,0.1-0.2c0.1-0.1,0.1-0.3,0.2-0.5c0.1-0.3,0.1-0.5,0.1-0.8c0-0.4-0.1-0.4,0-0.2c0.1,0.4,0.2,0.8,0.3,1.2
			c0.5,1.2,1.1,2.4,1.8,3.5c0.8,1.3,1.7,2.6,2.7,3.8c2,2.6,4.2,5.1,6.5,7.5s4.7,4.9,7.1,7.2l0.2,0.1c2.2,2.1,2.4,5.8,0.4,8.2
			c-1.8,2.1-4.8,2.6-7.1,1c-6.1-4.1-11.8-8.9-17.1-14.2c-1.3-1.4-2.6-2.9-3.9-4.5c-1.4-1.8-2.6-3.7-3.7-5.7
			c-0.6-1.2-1.2-2.5-1.5-3.9c-0.5-1.8-0.7-3.7-0.6-5.6c0.1-1.2,0.4-2.3,0.8-3.5c0.2-0.6,0.5-1.1,0.7-1.7l0.4-0.8l0.2-0.3l1.6-2.5
			c4.2-6.3,8.9-12.2,14-17.6c2.4-2.7,5-5.3,7.6-7.9c2.6-2.5,5.2-5,8-7.5c4.1-2.6,9.3-1.1,11.7,3.2
			C345.7,142.1,345.3,146.5,342.7,149.5L342.7,149.5z"/>
		<path class="st12" d="M333.8,203.9l8.3,5.4l-10.6,6.4c0,0-7-5.6-4-9.2l3.5-2.6C331.9,203.3,333,203.3,333.8,203.9z"/>
		<path class="st12" d="M342.6,219.1L338,222c-1.3,0.8-3,0.4-3.8-1c0,0,0-0.1,0-0.1l-2.7-5.2l10.6-6.4l1.7,6.5
			C344.2,217,343.7,218.4,342.6,219.1z"/>
	</g>
	<g id="freepik--Megaphone--inject-47">
		<path class="st8" d="M421.8,127.6l11.2-2.3c-3.1,5.8,1.4,11.3,5.5,14.8c1.9,1.7,0.6,4.6-2.4,5.2l-7.3,1.5
			C420,148.6,421.8,127.6,421.8,127.6z"/>
		<path class="st8" d="M417.4,128.5l25.7-5.3c8.4-1.8,13.8-10.4,12.2-19.3l0,0c-1.7-8.9-9.8-14.7-18.2-13l-25.7,5.4
			c-8.4,1.8-13.8,10.4-12.2,19.3l0,0C400.9,124.5,409,130.2,417.4,128.5z"/>
		<path class="st9" d="M417.4,128.5l25.7-5.3c8.4-1.8,13.8-10.4,12.2-19.3l0,0c-1.7-8.9-9.8-14.7-18.2-13l-25.7,5.4
			c-8.4,1.8-13.8,10.4-12.2,19.3l0,0C400.9,124.5,409,130.2,417.4,128.5z"/>
		<path class="st8" d="M487.4,134.1l-43.9-0.6c-3.8,0.8-13.4-51.6-9.6-52.4L474.3,63L487.4,134.1z"/>
		<path class="st8" d="M477.3,99.2c3.7,19.6,8.1,35.2,10.1,34.8c1.9-0.4,0.6-16.7-3.1-36.3c-3.6-19.6-8.1-35.2-10.1-34.8
			C472.3,63.4,473.7,79.6,477.3,99.2z"/>
		<path class="st14" d="M477.3,99.2c3.7,19.6,8.1,35.2,10.1,34.8c1.9-0.4,0.6-16.7-3.1-36.3c-3.6-19.6-8.1-35.2-10.1-34.8
			C472.3,63.4,473.7,79.6,477.3,99.2z"/>
		<path class="st8" d="M493.8,96.8c-0.9-4.8-11-6.8-13.1-6.3c-2.1,0.5-3.2,4.7-2.3,9.5c0.9,4.8,3.4,8.3,5.5,7.9
			C486.1,107.5,494.7,101.6,493.8,96.8z"/>
		<polygon class="st8" points="504.6,94.2 561.7,84.4 561.9,85.7 504.8,95.5 		"/>
		<polygon class="st8" points="499.2,79.4 522.6,58.1 523.5,59.2 500.1,80.4 		"/>
		<polygon class="st8" points="533.8,125.1 534.2,123.8 542.8,127 542.4,128.3 		"/>
		<polygon class="st8" points="502.7,113.8 503.1,112.5 524.8,120.2 524.4,121.6 		"/>
	</g>
</g>
</svg>
